g b
v -0.0481738 0.0012970378 -0.0035507148
v -0.048340805 0.0009866703 -0.0035507148
v -0.048340805 -0.0009866703 -0.0035507148
v -0.0481738 -0.0012970376 -0.0035507148
v -0.047770415 0.0014255964 -0.0035507148
v -0.047770415 -0.0014255964 -0.0035507148
v 0.00014434206 0.0014255964 -0.0035507148
v 0.00014434206 -0.0014255964 -0.0035507148
v 0.048462484 0.0012970378 -0.0035507148
v 0.048629493 -0.0009866703 -0.0035507148
v 0.048629493 0.0009866703 -0.0035507148
v 0.048462484 -0.0012970376 -0.0035507148
v 0.0480591 0.0014255964 -0.0035507148
v 0.0480591 -0.0014255964 -0.0035507148
v 0.00014434206 0.0014255964 -0.0035507148
v 0.00014434206 -0.0014255964 -0.0035507148
v 0.00014434206 0.0022753086 -0.0032686219
v 0.00014434206 0.0022753086 -0.0046078246
v 0.049074497 0.0022753086 -0.0046078092
v 0.049074497 0.0022753086 -0.0032686219
v 0.049557284 0.0021197298 -0.0032694861
v 0.049051113 0.0021952381 -0.004872154
v 0.00014434206 0.002195209 -0.0048721614
v 0.049557284 0.0021197298 -0.0046086246
v 0.04970682 0.0017074716 -0.0032688603
v 0.04844395 0.0016370225 -0.0049712593
v 0.00014434206 0.0016370225 -0.0049712593
v 0.049464073 0.0020621435 -0.0048728767
v 0.04970682 0.0017074716 -0.004607849
v 0.049712174 -0.0017024392 -0.0032687709
v 0.0480591 0.0014255964 -0.004675823
v 0.00014434206 0.0014255964 -0.0046758223
v 0.00014434206 0.0014255964 -0.0035507148
v 0.0480591 0.0014255964 -0.0035507148
v 0.048805058 0.0015465507 -0.004970693
v 0.04959641 0.0016970556 -0.0048721437
v 0.048462484 0.0012970378 -0.0046755406
v 0.048462484 0.0012970378 -0.0035507148
v 0.048629493 0.0009866703 -0.004676025
v 0.048629493 0.0009866703 -0.0035507148
v 0.04892058 0.0012765711 -0.004971668
v 0.049601775 -0.0016912299 -0.004872078
v 0.048629493 -0.0009866703 -0.0046760105
v 0.048629493 -0.0009866703 -0.0035507148
v 0.04892059 -0.0010264671 -0.0049716374
v 0.049712174 -0.0017024392 -0.0046077594
v 0.049550228 -0.0021127188 -0.0032694505
v 0.048462484 -0.0012970376 -0.0046755476
v 0.048462484 -0.0012970376 -0.0035507148
v 0.04869019 -0.0014556008 -0.0049707056
v 0.049457774 -0.0020561444 -0.004872856
v 0.049550228 -0.0021127188 -0.0046086293
v 0.04909192 -0.002272865 -0.003268674
v 0.0480591 -0.0014255964 -0.0046758344
v 0.0480591 -0.0014255964 -0.0035507148
v 0.00014434206 -0.0014255964 -0.0035507148
v 0.00014434206 -0.0014255964 -0.0046758344
v 0.048120234 -0.0016370129 -0.004971285
v 0.00014434206 -0.0016370129 -0.004971285
v 0.049067777 -0.0021927299 -0.0048722164
v 0.00014434206 -0.0021927615 -0.004872209
v 0.04909192 -0.002272865 -0.004607885
v 0.00014434206 -0.002272865 -0.003268674
v 0.00014434206 -0.002272865 -0.0046078702
v -0.047770415 0.0014255964 -0.004675823
v -0.047770415 0.0014255964 -0.0035507148
v 0.00014434206 0.0014255964 -0.0035507148
v 0.00014434206 0.0014255964 -0.0046758223
v 0.00014434206 0.0016370225 -0.0049712593
v -0.0481738 0.0012970378 -0.0046755406
v -0.0481738 0.0012970378 -0.0035507148
v -0.048155263 0.0016370225 -0.0049712593
v 0.00014434206 0.002195209 -0.0048721614
v -0.048340805 0.0009866703 -0.004676025
v -0.048340805 0.0009866703 -0.0035507148
v -0.048516374 0.0015465507 -0.004970693
v -0.048762426 0.0021952381 -0.004872154
v 0.00014434206 0.0022753086 -0.0046078246
v -0.049175385 0.0020621435 -0.0048728767
v -0.04878581 0.0022753086 -0.0046078092
v 0.00014434206 0.0022753086 -0.0032686219
v -0.04878581 0.0022753086 -0.0032686219
v -0.049268596 0.0021197298 -0.0032694861
v -0.049268596 0.0021197298 -0.0046086246
v -0.049418133 0.0017074716 -0.0032688603
v -0.049307723 0.0016970556 -0.0048721437
v -0.049418133 0.0017074716 -0.004607849
v -0.04942349 -0.0017024392 -0.0032687709
v -0.04863189 0.0012765711 -0.004971668
v -0.04942349 -0.0017024392 -0.0046077594
v -0.04926154 -0.0021127188 -0.0032694505
v -0.049313087 -0.0016912299 -0.004872078
v -0.048631907 -0.0010264671 -0.0049716374
v -0.04926154 -0.0021127188 -0.0046086293
v -0.048803233 -0.002272865 -0.003268674
v -0.049169086 -0.0020561444 -0.004872856
v -0.048340805 -0.0009866703 -0.0046760105
v -0.048340805 -0.0009866703 -0.0035507148
v -0.048803233 -0.002272865 -0.004607885
v 0.00014434206 -0.002272865 -0.003268674
v 0.00014434206 -0.002272865 -0.0046078702
v 0.00014434206 -0.0021927615 -0.004872209
v -0.04877909 -0.0021927299 -0.0048722164
v 0.00014434206 -0.0016370129 -0.004971285
v -0.0484015 -0.0014556008 -0.0049707056
v -0.0481738 -0.0012970376 -0.0046755476
v -0.0481738 -0.0012970376 -0.0035507148
v -0.04783155 -0.0016370129 -0.004971285
v 0.00014434206 -0.0014255964 -0.0046758344
v -0.047770415 -0.0014255964 -0.0046758344
v -0.047770415 -0.0014255964 -0.0035507148
v 0.00014434206 -0.0014255964 -0.0035507148
vt 0.9528222 0.6959158
vt 0.9542926 0.6936314
vt 0.9543332 0.682356
vt 0.9533688 0.6807491
vt 0.95160323 0.6964029
vt 0.951545 0.6802591
vt 0.7461324 0.69875026
vt 0.7461324 0.68164307
vt 0.9528222 0.6959158
vt 0.9543332 0.682356
vt 0.9542926 0.6936314
vt 0.9533688 0.6807491
vt 0.95160323 0.6964029
vt 0.951545 0.6802591
vt 0.7461324 0.69875026
vt 0.7461324 0.68164307
vt 0.7461324 0.7158532
vt 0.7461324 0.71005297
vt 0.95676607 0.7073257
vt 0.9571073 0.71312445
vt 0.96269965 0.71181256
vt 0.9565911 0.70610285
vt 0.7461324 0.7088107
vt 0.95903367 0.70642287
vt 0.9677284 0.707755
vt 0.9537804 0.7028049
vt 0.7461324 0.7054367
vt 0.95847696 0.70564866
vt 0.96114695 0.7046543
vt 0.9746107 0.67644846
vt 0.95199007 0.7010613
vt 0.7461324 0.70364404
vt 0.7461324 0.69875026
vt 0.95160323 0.6964029
vt 0.9560551 0.70200807
vt 0.95991707 0.70413435
vt 0.9541494 0.69929427
vt 0.9528222 0.6959158
vt 0.9556984 0.6967022
vt 0.9542926 0.6936314
vt 0.95747083 0.69999254
vt 0.96452284 0.6799862
vt 0.9590864 0.68271935
vt 0.9543332 0.682356
vt 0.9609925 0.6807498
vt 0.9676096 0.6794131
vt 0.9678206 0.667821
vt 0.95365304 0.6783455
vt 0.9533688 0.6807491
vt 0.9593057 0.6787905
vt 0.96134275 0.67533475
vt 0.9634604 0.67401093
vt 0.95878357 0.66451687
vt 0.95241016 0.6760105
vt 0.951545 0.6802591
vt 0.7461324 0.68164307
vt 0.7461324 0.6767401
vt 0.953117 0.6744679
vt 0.7461324 0.6749295
vt 0.95721775 0.67255276
vt 0.7461324 0.6715603
vt 0.95821446 0.6703098
vt 0.7461324 0.6644654
vt 0.7461324 0.6703099
vt 0.95199007 0.7010613
vt 0.95160323 0.6964029
vt 0.7461324 0.69875026
vt 0.7461324 0.70364404
vt 0.7461324 0.7054367
vt 0.9541494 0.69929427
vt 0.9528222 0.6959158
vt 0.9537804 0.7028049
vt 0.7461324 0.7088107
vt 0.9556984 0.6967022
vt 0.9542926 0.6936314
vt 0.9560551 0.70200807
vt 0.9565911 0.70610285
vt 0.7461324 0.71005297
vt 0.95847696 0.70564866
vt 0.95676607 0.7073257
vt 0.7461324 0.7158532
vt 0.9571073 0.71312445
vt 0.96269965 0.71181256
vt 0.95903367 0.70642287
vt 0.9677284 0.707755
vt 0.95991707 0.70413435
vt 0.96114695 0.7046543
vt 0.9746107 0.67644846
vt 0.95747083 0.69999254
vt 0.9676096 0.6794131
vt 0.9678206 0.667821
vt 0.96452284 0.6799862
vt 0.9609925 0.6807498
vt 0.9634604 0.67401093
vt 0.95878357 0.66451687
vt 0.96134275 0.67533475
vt 0.9590864 0.68271935
vt 0.9543332 0.682356
vt 0.95821446 0.6703098
vt 0.7461324 0.6644654
vt 0.7461324 0.6703099
vt 0.7461324 0.6715603
vt 0.95721775 0.67255276
vt 0.7461324 0.6749295
vt 0.9593057 0.6787905
vt 0.95365304 0.6783455
vt 0.9533688 0.6807491
vt 0.953117 0.6744679
vt 0.7461324 0.6767401
vt 0.95241016 0.6760105
vt 0.951545 0.6802591
vt 0.7461324 0.68164307
vn 6.77009E-07 0 -1
vn -7.325631E-07 0 -1
vn -7.3256314E-07 0 -1
vn 6.770089E-07 0 -1
vn -0 0 -1
vn -0 0 -1
vn -0 0 -1
vn -0 0 -1
vn -6.2168215E-07 0 -1
vn -0 0 -1
vn -0 0 -1
vn -6.2168215E-07 0 -1
vn -0 0 -1
vn -0 0 -1
vn -0 0 -1
vn -0 0 -1
vn -0 1 0
vn -0 0.9987557 -0.049870662
vn 0.0031343307 0.9988593 -0.047648218
vn 0.0031450833 0.9999951 0
vn 0.6681021 0.7440697 0
vn 0.002222467 0.6768176 -0.7361474
vn -0 0.4962671 -0.86816984
vn 0.6706175 0.7396322 -0.056713287
vn 0.9991811 0.04046028 0
vn -0.0008315933 0.0074847825 -0.9999716
vn -0 -0.24426314 -0.969709
vn 0.33002812 0.37690616 -0.8654613
vn 0.9969674 0.039899014 -0.06681446
vn 0.9991623 -0.04092275 0
vn -0.0021181465 -0.9797791 -0.20007092
vn -0 -0.9890366 -0.14767069
vn -0 -1 0
vn -0.0026603376 -0.99999654 0
vn -0.049355168 -0.04563599 -0.9977381
vn 0.53085166 0.02341837 -0.8471411
vn -0.5765855 -0.7665494 -0.28275645
vn -0.6098659 -0.7925046 0
vn -0.96193886 -0.060959745 -0.26637855
vn -0.9973375 -0.07292269 0
vn -0.02306212 -0.011230889 -0.999671
vn 0.53632575 -0.028357685 -0.8435346
vn -0.9706324 0.07367876 -0.22900712
vn -0.99733764 0.072921604 0
vn -0.05943319 0.0088005 -0.99819344
vn 0.99695814 -0.0403205 -0.06670012
vn 0.67690104 -0.7360741 0
vn -0.58484226 0.77729905 -0.23187442
vn -0.6098657 0.7925047 0
vn -0.059283428 0.061107256 -0.9963691
vn 0.25999928 -0.29074293 -0.920798
vn 0.6793007 -0.73167217 -0.056625772
vn 0.0032381408 -0.99999475 0
vn -0.002683177 0.9872224 -0.15932636
vn -0.0026603239 0.99999654 0
vn -0 1 0
vn -0 0.9890954 -0.14727665
vn -0.000678718 0.08886194 -0.9960438
vn -0 0.24499835 -0.9695235
vn 0.002979151 -0.7419787 -0.6704169
vn -0 -0.49845132 -0.8669177
vn 0.0032256122 -0.9988613 -0.04759762
vn -0 -1 0
vn -0 -0.9987546 -0.049891636
vn 0.002118141 -0.9797791 -0.20007098
vn 0.0026603295 -0.99999654 0
vn -0 -1 0
vn -0 -0.9890366 -0.14767069
vn -0 -0.24426314 -0.969709
vn 0.57658494 -0.7665498 -0.28275633
vn 0.6098658 -0.7925047 0
vn 0.0008315983 0.0074847825 -0.9999716
vn -0 0.4962671 -0.86816984
vn 0.96193886 -0.060960427 -0.26637852
vn 0.9973375 -0.07292324 0
vn 0.049355656 -0.04563799 -0.997738
vn -0.0022224553 0.6768176 -0.7361474
vn -0 0.9987557 -0.049870662
vn -0.33002752 0.37690708 -0.8654612
vn -0.0031343226 0.9988593 -0.047648232
vn -0 1 0
vn -0.003145072 0.9999951 0
vn -0.6681021 0.74406964 0
vn -0.67061716 0.7396324 -0.056713264
vn -0.9991811 0.040461723 0
vn -0.5308517 0.023419103 -0.8471411
vn -0.99696726 0.039900575 -0.06681439
vn -0.9991623 -0.040922206 0
vn 0.02306195 -0.011231509 -0.999671
vn -0.99695814 -0.040319834 -0.06670006
vn -0.6769043 -0.73607105 0
vn -0.53632575 -0.028357327 -0.8435346
vn 0.059433043 0.008800767 -0.99819356
vn -0.67930317 -0.7316698 -0.05662592
vn -0.0032381313 -0.99999475 0
vn -0.25999925 -0.29074508 -0.9207973
vn 0.9706324 0.07367874 -0.22900718
vn 0.99733764 0.07292098 0
vn -0.0032256017 -0.9988613 -0.047597628
vn -0 -1 0
vn -0 -0.9987546 -0.049891636
vn -0 -0.49845132 -0.8669177
vn -0.0029791472 -0.7419787 -0.67041683
vn -0 0.24499835 -0.9695235
vn 0.059283465 0.06110717 -0.9963691
vn 0.5848446 0.777297 -0.23187551
vn 0.6098694 0.792502 0
vn 0.00067871704 0.08886195 -0.9960438
vn -0 0.9890954 -0.14727665
vn 0.002683181 0.9872224 -0.15932636
vn 0.0026603292 0.99999654 0
vn -0 1 0
g b_0
f 3/3/3 2/2/2 1/1/1
f 4/4/4 3/3/3 1/1/1
f 4/4/4 1/1/1 5/5/5
f 6/6/6 4/4/4 5/5/5
f 6/6/6 5/5/5 7/7/7
f 8/8/8 6/6/6 7/7/7
f 11/11/11 10/10/10 9/9/9
f 10/10/10 12/12/12 9/9/9
f 9/9/9 12/12/12 13/13/13
f 12/12/12 14/14/14 13/13/13
f 13/13/13 14/14/14 15/15/15
f 14/14/14 16/16/16 15/15/15
f 19/19/19 18/18/18 17/17/17
f 20/20/20 19/19/19 17/17/17
f 20/20/20 21/21/21 19/19/19
f 19/19/19 22/22/22 18/18/18
f 22/22/22 23/23/23 18/18/18
f 21/21/21 24/24/24 19/19/19
f 21/21/21 25/25/25 24/24/24
f 23/23/23 22/22/22 26/26/26
f 27/27/27 23/23/23 26/26/26
f 28/28/28 22/22/22 19/19/19
f 24/24/24 28/28/28 19/19/19
f 26/26/26 22/22/22 28/28/28
f 25/25/25 29/29/29 24/24/24
f 25/25/25 30/30/30 29/29/29
f 27/27/27 26/26/26 31/31/31
f 32/32/32 27/27/27 31/31/31
f 33/33/33 32/32/32 31/31/31
f 34/34/34 33/33/33 31/31/31
f 35/35/35 26/26/26 28/28/28
f 31/31/31 26/26/26 35/35/35
f 28/28/28 24/24/24 36/36/36
f 24/24/24 29/29/29 36/36/36
f 35/35/35 28/28/28 36/36/36
f 34/34/34 31/31/31 37/37/37
f 37/37/37 31/31/31 35/35/35
f 38/38/38 34/34/34 37/37/37
f 38/38/38 37/37/37 39/39/39
f 39/39/39 37/37/37 35/35/35
f 40/40/40 38/38/38 39/39/39
f 41/41/41 35/35/35 36/36/36
f 41/41/41 39/39/39 35/35/35
f 36/36/36 29/29/29 42/42/42
f 41/41/41 36/36/36 42/42/42
f 40/40/40 39/39/39 43/43/43
f 44/44/44 40/40/40 43/43/43
f 41/41/41 45/45/45 39/39/39
f 45/45/45 41/41/41 42/42/42
f 45/45/45 43/43/43 39/39/39
f 29/29/29 46/46/46 42/42/42
f 30/30/30 46/46/46 29/29/29
f 30/30/30 47/47/47 46/46/46
f 44/44/44 43/43/43 48/48/48
f 49/49/49 44/44/44 48/48/48
f 43/43/43 45/45/45 50/50/50
f 48/48/48 43/43/43 50/50/50
f 45/45/45 42/42/42 51/51/51
f 51/51/51 42/42/42 46/46/46
f 50/50/50 45/45/45 51/51/51
f 47/47/47 52/52/52 46/46/46
f 52/52/52 51/51/51 46/46/46
f 47/47/47 53/53/53 52/52/52
f 49/49/49 48/48/48 54/54/54
f 54/54/54 48/48/48 50/50/50
f 55/55/55 49/49/49 54/54/54
f 55/55/55 54/54/54 56/56/56
f 54/54/54 57/57/57 56/56/56
f 57/57/57 54/54/54 58/58/58
f 58/58/58 54/54/54 50/50/50
f 59/59/59 57/57/57 58/58/58
f 50/50/50 51/51/51 60/60/60
f 58/58/58 50/50/50 60/60/60
f 58/58/58 60/60/60 59/59/59
f 51/51/51 52/52/52 60/60/60
f 60/60/60 61/61/61 59/59/59
f 53/53/53 62/62/62 52/52/52
f 52/52/52 62/62/62 60/60/60
f 60/60/60 62/62/62 61/61/61
f 53/53/53 63/63/63 62/62/62
f 62/62/62 64/64/64 61/61/61
f 63/63/63 64/64/64 62/62/62
f 67/67/67 66/66/66 65/65/65
f 68/68/68 67/67/67 65/65/65
f 69/69/69 68/68/68 65/65/65
f 65/65/65 66/66/66 70/70/70
f 66/66/66 71/71/71 70/70/70
f 72/72/72 69/69/69 65/65/65
f 73/73/73 69/69/69 72/72/72
f 70/70/70 71/71/71 74/74/74
f 71/71/71 75/75/75 74/74/74
f 65/65/65 70/70/70 76/76/76
f 72/72/72 65/65/65 76/76/76
f 70/70/70 74/74/74 76/76/76
f 77/77/77 73/73/73 72/72/72
f 73/73/73 77/77/77 78/78/78
f 77/77/77 72/72/72 79/79/79
f 72/72/72 76/76/76 79/79/79
f 77/77/77 80/80/80 78/78/78
f 77/77/77 79/79/79 80/80/80
f 78/78/78 80/80/80 81/81/81
f 80/80/80 82/82/82 81/81/81
f 83/83/83 82/82/82 80/80/80
f 84/84/84 83/83/83 80/80/80
f 79/79/79 84/84/84 80/80/80
f 85/85/85 83/83/83 84/84/84
f 79/79/79 76/76/76 86/86/86
f 84/84/84 79/79/79 86/86/86
f 87/87/87 85/85/85 84/84/84
f 87/87/87 84/84/84 86/86/86
f 88/88/88 85/85/85 87/87/87
f 76/76/76 89/89/89 86/86/86
f 74/74/74 89/89/89 76/76/76
f 90/90/90 88/88/88 87/87/87
f 91/91/91 88/88/88 90/90/90
f 87/87/87 86/86/86 92/92/92
f 86/86/86 89/89/89 92/92/92
f 90/90/90 87/87/87 92/92/92
f 93/93/93 89/89/89 74/74/74
f 89/89/89 93/93/93 92/92/92
f 94/94/94 91/91/91 90/90/90
f 95/95/95 91/91/91 94/94/94
f 92/92/92 96/96/96 90/90/90
f 92/92/92 93/93/93 96/96/96
f 96/96/96 94/94/94 90/90/90
f 97/97/97 93/93/93 74/74/74
f 74/74/74 75/75/75 97/97/97
f 75/75/75 98/98/98 97/97/97
f 99/99/99 95/95/95 94/94/94
f 100/100/100 95/95/95 99/99/99
f 101/101/101 100/100/100 99/99/99
f 101/101/101 99/99/99 102/102/102
f 99/99/99 94/94/94 103/103/103
f 99/99/99 103/103/103 102/102/102
f 94/94/94 96/96/96 103/103/103
f 102/102/102 103/103/103 104/104/104
f 93/93/93 105/105/105 96/96/96
f 93/93/93 97/97/97 105/105/105
f 96/96/96 105/105/105 103/103/103
f 97/97/97 98/98/98 106/106/106
f 97/97/97 106/106/106 105/105/105
f 98/98/98 107/107/107 106/106/106
f 103/103/103 108/108/108 104/104/104
f 105/105/105 108/108/108 103/103/103
f 109/109/109 104/104/104 108/108/108
f 106/106/106 107/107/107 110/110/110
f 106/106/106 110/110/110 105/105/105
f 110/110/110 108/108/108 105/105/105
f 110/110/110 109/109/109 108/108/108
f 107/107/107 111/111/111 110/110/110
f 109/109/109 110/110/110 112/112/112
f 110/110/110 111/111/111 112/112/112
