g Block_Barrier_Vanilla_SMALL_Col
v 10.158684 3.7891982 0.8047623
v 11.015873 3.2631884 0.8047623
v -3.3461294E-20 -2.5243548E-31 0.8047624
v 8.77488 4.3744392 0.8047623
v 7.275341 4.795848 0.8047623
v 5.276987 5.1721406 0.8047623
v 5.8143924E-06 5.5370264 0.8047624
v 2.6901839 5.433565 0.8047624
v -5.2677774 5.1743503 0.8047623
v -2.6926653 5.435175 0.8047624
v -7.2785387 4.7984805 0.8047624
v -8.785095 4.37219 0.8047624
v -10.176424 3.7865748 0.8047623
v -11.000758 3.2663064 0.8047624
v -11.778888 2.5248744 0.8047624
v -12.268123 1.7485921 0.8047636
v -12.794049 2.1637134E-06 0.80476475
v 11.015873 3.2631884 0.8047623
v 11.794121 2.51374 0.8047626
v 12.263716 1.7502624 0.80476296
v 12.796013 -2.5243548E-31 0.80476356
v 5.276987 5.1721406 -0.89236236
v 2.6901839 5.433565 -0.89236236
v 6.049494E-06 5.5370264 -0.89236236
v -3.3461294E-20 -2.5243548E-31 -0.89236236
v 7.275341 4.795848 -0.89236236
v 8.77488 4.3744392 -0.89236236
v 10.158684 3.7891982 -0.89236236
v 11.015873 3.2631884 -0.89236236
v 11.794121 2.51374 -0.89236236
v 12.263716 1.7502624 -0.89236236
v 12.796013 -2.5243548E-31 -0.89236236
v -5.2677774 5.1743503 -0.89236236
v -2.692665 5.435175 -0.89236236
v -7.2785387 4.7984805 -0.89236236
v -8.785095 4.37219 -0.89236236
v -10.176424 3.7865748 -0.89236236
v -11.000758 3.2663064 -0.89236236
v -11.778888 2.5248744 -0.8923629
v -12.268123 1.7485921 -0.89236236
v -12.794049 2.1637134E-06 -0.89236236
v -3.3461294E-20 -2.5243548E-31 -0.89236236
v -12.794049 2.1637134E-06 -0.89236236
v -12.794049 2.1637134E-06 0.80476475
v -3.3461294E-20 -2.5243548E-31 0.8047624
v 12.796013 -2.5243548E-31 -0.89236236
v -3.3461294E-20 -2.5243548E-31 -0.89236236
v 12.796013 -2.5243548E-31 0.80476356
v -12.794049 2.1637134E-06 -0.89236236
v -12.268123 1.7485921 0.8047636
v -12.794049 2.1637134E-06 0.80476475
v -12.268123 1.7485921 -0.89236236
v -11.778888 2.5248744 0.8047624
v -11.778888 2.5248744 -0.8923629
v -11.778888 2.5248744 -0.8923629
v -11.000758 3.2663064 -0.89236236
v -11.000758 3.2663064 0.8047624
v -11.778888 2.5248744 0.8047624
v -11.000758 3.2663064 -0.89236236
v -10.176424 3.7865748 -0.89236236
v -10.176424 3.7865748 0.8047623
v -11.000758 3.2663064 0.8047624
v -10.176424 3.7865748 -0.89236236
v -8.785095 4.37219 -0.89236236
v -8.785095 4.37219 0.8047624
v -10.176424 3.7865748 0.8047623
v -8.785095 4.37219 -0.89236236
v -7.2785387 4.7984805 0.8047624
v -8.785095 4.37219 0.8047624
v -7.2785387 4.7984805 -0.89236236
v -5.2677774 5.1743503 0.8047623
v -5.2677774 5.1743503 -0.89236236
v -5.2677774 5.1743503 0.8047623
v -5.2677774 5.1743503 -0.89236236
v -2.692665 5.435175 -0.89236236
v -2.6926653 5.435175 0.8047624
v 5.8143924E-06 5.5370264 0.8047624
v 6.049494E-06 5.5370264 -0.89236236
v 5.8143924E-06 5.5370264 0.8047624
v 6.049494E-06 5.5370264 -0.89236236
v 2.6901839 5.433565 -0.89236236
v 2.6901839 5.433565 0.8047624
v 5.276987 5.1721406 0.8047623
v 5.276987 5.1721406 -0.89236236
v 5.276987 5.1721406 -0.89236236
v 7.275341 4.795848 0.8047623
v 5.276987 5.1721406 0.8047623
v 7.275341 4.795848 -0.89236236
v 8.77488 4.3744392 0.8047623
v 8.77488 4.3744392 -0.89236236
v 8.77488 4.3744392 -0.89236236
v 10.158684 3.7891982 -0.89236236
v 10.158684 3.7891982 0.8047623
v 8.77488 4.3744392 0.8047623
v 10.158684 3.7891982 -0.89236236
v 11.015873 3.2631884 -0.89236236
v 11.015873 3.2631884 0.8047623
v 10.158684 3.7891982 0.8047623
v 12.263716 1.7502624 -0.89236236
v 12.796013 -2.5243548E-31 -0.89236236
v 12.796013 -2.5243548E-31 0.80476356
v 12.263716 1.7502624 0.80476296
v 11.794121 2.51374 -0.89236236
v 11.794121 2.51374 0.8047626
v 11.015873 3.2631884 -0.89236236
v 11.015873 3.2631884 0.8047623
vt 0.5861282 0.09355677
vt 0.5837115 0.12509786
vt 0.5 0.15
vt 0.5795245 0.07173741
vt 0.56652486 0.0540079
vt 0.54619217 0.041626237
vt 0.49914077 0.025792997
vt 0.52266645 0.033709615
vt 0.45307365 0.04112369
vt 0.4761072 0.033458345
vt 0.44479692 0.04962086
vt 0.4365202 0.058118027
vt 0.42249933 0.0765314
vt 0.4270871 0.09963506
vt 0.3698281 0.12402733
vt 0.36765283 0.13968259
vt 0.3654776 0.15533787
vt 0.64284384 0.12692435
vt 0.64087754 0.1340194
vt 0.63891125 0.14111444
vt 0.6349786 0.15530455
vt 0.5465669 0.039745837
vt 0.52325255 0.03224436
vt 0.49993822 0.024742879
vt 0.5 0.15
vt 0.5633765 0.05637915
vt 0.5766742 0.071543634
vt 0.5834712 0.08970179
vt 0.6315323 0.12822562
vt 0.6326859 0.13503069
vt 0.6338395 0.14183575
vt 0.6361466 0.15544587
vt 0.45195153 0.027398072
vt 0.47594488 0.026070476
vt 0.4416218 0.037539274
vt 0.4312921 0.04768047
vt 0.4183027 0.06564687
vt 0.40860745 0.08685195
vt 0.3748866 0.12879808
vt 0.36957484 0.14211376
vt 0.36426312 0.15542944
vt 0.5 0.15
vt 0.35875726 0.15564881
vt 0.3654776 0.15533787
vt 0.5 0.15
vt 0.64129585 0.15565184
vt 0.5 0.15
vt 0.6349786 0.15530455
vt 0.35875726 0.15564881
vt 0.36765283 0.13968259
vt 0.3654776 0.15533787
vt 0.35444587 0.1403209
vt 0.3698281 0.12402733
vt 0.3501345 0.12499297
vt 0.3501345 0.12499297
vt 0.36823562 0.069662094
vt 0.37270412 0.069865525
vt 0.3698281 0.12402733
vt 0.36823562 0.069662094
vt 0.38903293 0.045751587
vt 0.38984233 0.04581753
vt 0.37270412 0.069865525
vt 0.38903293 0.045751587
vt 0.41310135 0.026326356
vt 0.41323322 0.02633956
vt 0.38984233 0.04581753
vt 0.41310135 0.026326356
vt 0.42671955 0.019116744
vt 0.41323322 0.02633956
vt 0.42664534 0.019109318
vt 0.44020584 0.011893929
vt 0.44018936 0.011892279
vt 0.44020584 0.011893929
vt 0.44018936 0.011892279
vt 0.4700947 0.005946214
vt 0.47010297 0.0059470395
vt 0.50000006 1.5024764E-07
vt 0.50000006 1.4938723E-07
vt 0.50000006 1.5024764E-07
vt 0.50000006 1.4938723E-07
vt 0.5298972 0.005947069
vt 0.5298972 0.0059470693
vt 0.5597943 0.011893989
vt 0.5597943 0.011893989
vt 0.5597943 0.011893989
vt 0.58680785 0.026333047
vt 0.5597943 0.011893989
vt 0.58680785 0.026333049
vt 0.6104855 0.04576472
vt 0.6104854 0.045764744
vt 0.6104854 0.045764744
vt 0.629917 0.0694423
vt 0.62991816 0.06944208
vt 0.6104855 0.04576472
vt 0.629917 0.0694423
vt 0.64395785 0.09572133
vt 0.6439668 0.095719524
vt 0.62991816 0.06944208
vt 0.64727175 0.14070864
vt 0.64129585 0.15565184
vt 0.6349786 0.15530455
vt 0.63891125 0.14111444
vt 0.65025973 0.13323703
vt 0.64087754 0.1340194
vt 0.6532477 0.12576544
vt 0.64284384 0.12692435
vn -0 0 1
vn -0 0 1
vn -0 0 1
vn -0 0 1
vn -0 0 1
vn -0 0 1
vn -0 0 1
vn -0 0 1
vn -0 0 1
vn -0 0 1
vn -0 0 1
vn -0 0 1
vn -0 0 1
vn -0 0 1
vn 1.4241648E-07 7.8181614E-07 1
vn 2.2007617E-07 7.849628E-07 1
vn 1.9791928E-07 1.0865067E-06 1
vn -0 5.6420913E-07 1
vn -0 3.3373163E-07 1
vn -0 3.2651835E-07 1
vn -0 5.642092E-07 1
vn -0 0 -1
vn -0 0 -1
vn -0 0 -1
vn -0 0 -1
vn -0 0 -1
vn -0 0 -1
vn -0 0 -1
vn -0 0 -1
vn -0 0 -1
vn -0 0 -1
vn -0 0 -1
vn -0 0 -1
vn -0 0 -1
vn -0 0 -1
vn -0 0 -1
vn -0 0 -1
vn -0 0 -1
vn -0 0 -1
vn -0 -1.4936388E-07 -1
vn -0 0 -1
vn -1.6938522E-07 -1 0
vn -1.6938522E-07 -1 0
vn -1.6938525E-07 -1 0
vn -1.6938522E-07 -1 0
vn -0 -1 0
vn -0 -1 0
vn -0 -1 0
vn -0.95059174 0.3104437 0
vn -0.9278148 0.37304112 0
vn -0.95059174 0.3104437 0
vn -0.9278148 0.37304115 0
vn -0.95059174 0.31044376 0
vn -0.95059174 0.3104437 0
vn -0.73733854 0.6755233 0
vn -0.73733854 0.6755233 0
vn -0.73733854 0.6755233 0
vn -0.73733854 0.6755233 0
vn -0.58484644 0.8111441 0
vn -0.58484644 0.8111441 0
vn -0.58484644 0.8111441 0
vn -0.5848463 0.8111442 0
vn -0.38531813 0.92278385 0
vn -0.38531813 0.92278385 0
vn -0.38531807 0.92278385 0
vn -0.38531813 0.92278385 0
vn -0.20906052 0.9779027 0
vn -0.22235124 0.97496665 0
vn -0.20906052 0.9779027 0
vn -0.22235127 0.97496665 0
vn -0.20906052 0.9779027 0
vn -0.20906052 0.9779027 0
vn -0.08834097 0.99609023 2.4142008E-07
vn -0.08834097 0.99609023 2.4142008E-07
vn -0.0686853 0.99763846 0
vn -0.0686853 0.99763846 0
vn -0.08834097 0.99609023 2.4142008E-07
vn -0.08834097 0.99609023 2.4142005E-07
vn 0.08750021 0.99616456 -3.630136E-07
vn 0.08750021 0.99616456 -3.6301364E-07
vn 0.06898199 0.9976179 0
vn 0.06898198 0.9976179 0
vn 0.08750021 0.99616456 -3.630136E-07
vn 0.08750021 0.99616456 -3.630136E-07
vn 0.18382141 0.9829596 0
vn 0.18382141 0.9829596 0
vn 0.18382141 0.9829596 0
vn 0.18382141 0.9829596 0
vn 0.21498542 0.9766173 0
vn 0.21498542 0.9766173 0
vn 0.44806716 0.8939999 0
vn 0.44806716 0.8939999 0
vn 0.44806716 0.8939999 0
vn 0.44806716 0.8939999 0
vn 0.69061714 0.7232205 0
vn 0.69061714 0.7232205 0
vn 0.69061714 0.7232205 0
vn 0.69061714 0.7232205 0
vn 0.92893517 0.3702425 0
vn 0.9628615 0.26999584 0
vn 0.9628615 0.26999587 0
vn 0.92893517 0.37024242 0
vn 0.7714537 0.63628554 0
vn 0.77145374 0.6362855 0
vn 0.9628615 0.26999584 0
vn 0.9628615 0.2699959 0
g Block_Barrier_Vanilla_SMALL_Col_0
f 3/3/3 2/2/2 1/1/1
f 3/3/3 1/1/1 4/4/4
f 3/3/3 4/4/4 5/5/5
f 3/3/3 5/5/5 6/6/6
f 3/3/3 6/6/6 7/7/7
f 6/6/6 8/8/8 7/7/7
f 3/3/3 7/7/7 9/9/9
f 7/7/7 10/10/10 9/9/9
f 3/3/3 9/9/9 11/11/11
f 3/3/3 11/11/11 12/12/12
f 3/3/3 12/12/12 13/13/13
f 3/3/3 13/13/13 14/14/14
f 3/3/3 14/14/14 15/15/15
f 3/3/3 15/15/15 16/16/16
f 3/3/3 16/16/16 17/17/17
f 3/3/3 19/19/19 18/18/18
f 3/3/3 20/20/20 19/19/19
f 3/3/3 21/21/21 20/20/20
f 24/24/24 23/23/23 22/22/22
f 25/25/25 24/24/24 22/22/22
f 26/26/26 25/25/25 22/22/22
f 27/27/27 25/25/25 26/26/26
f 28/28/28 25/25/25 27/27/27
f 29/29/29 25/25/25 28/28/28
f 30/30/30 25/25/25 29/29/29
f 30/30/30 31/31/31 25/25/25
f 31/31/31 32/32/32 25/25/25
f 25/25/25 33/33/33 24/24/24
f 33/33/33 34/34/34 24/24/24
f 35/35/35 33/33/33 25/25/25
f 35/35/35 25/25/25 36/36/36
f 36/36/36 25/25/25 37/37/37
f 37/37/37 25/25/25 38/38/38
f 38/38/38 25/25/25 39/39/39
f 40/40/40 39/39/39 25/25/25
f 40/40/40 25/25/25 41/41/41
f 44/44/44 43/43/43 42/42/42
f 45/45/45 44/44/44 42/42/42
f 45/45/45 47/47/47 46/46/46
f 48/48/48 45/45/45 46/46/46
f 51/51/51 50/50/50 49/49/49
f 50/50/50 52/52/52 49/49/49
f 50/50/50 53/53/53 52/52/52
f 53/53/53 54/54/54 52/52/52
f 57/57/57 56/56/56 55/55/55
f 58/58/58 57/57/57 55/55/55
f 61/61/61 60/60/60 59/59/59
f 62/62/62 61/61/61 59/59/59
f 65/65/65 64/64/64 63/63/63
f 66/66/66 65/65/65 63/63/63
f 69/69/69 68/68/68 67/67/67
f 68/68/68 70/70/70 67/67/67
f 68/68/68 71/71/71 70/70/70
f 71/71/71 72/72/72 70/70/70
f 75/75/75 74/74/74 73/73/73
f 76/76/76 75/75/75 73/73/73
f 76/76/76 77/77/77 75/75/75
f 77/77/77 78/78/78 75/75/75
f 81/81/81 80/80/80 79/79/79
f 82/82/82 81/81/81 79/79/79
f 82/82/82 83/83/83 81/81/81
f 83/83/83 84/84/84 81/81/81
f 87/87/87 86/86/86 85/85/85
f 86/86/86 88/88/88 85/85/85
f 86/86/86 89/89/89 88/88/88
f 89/89/89 90/90/90 88/88/88
f 93/93/93 92/92/92 91/91/91
f 94/94/94 93/93/93 91/91/91
f 97/97/97 96/96/96 95/95/95
f 98/98/98 97/97/97 95/95/95
f 101/101/101 100/100/100 99/99/99
f 102/102/102 101/101/101 99/99/99
f 102/102/102 99/99/99 103/103/103
f 104/104/104 102/102/102 103/103/103
f 104/104/104 103/103/103 105/105/105
f 106/106/106 104/104/104 105/105/105
