g Bumpers_COL
v -22.822386 -147.1461 57.4993
v -22.822231 -139.88683 54.03144
v -20.783125 -143.4914 55.73214
v -22.96334 -132.0114 49.59492
v -22.941132 -124.8629 45.63282
v -20.918764 -128.44424 47.619946
v -22.677902 -116.18828 39.71515
v -22.704342 -109.51066 35.222916
v -20.666222 -112.82921 37.492817
v 22.66762 -139.75829 50.334717
v 22.667465 -146.76274 54.292084
v 20.628359 -143.30211 52.314877
v 22.895218 -124.88468 42.055607
v 22.871359 -131.92616 45.9948
v 20.85064 -128.45633 44.02244
v 22.744099 -110.19528 32.42382
v 22.829893 -116.84072 36.800594
v 20.808756 -113.58891 34.56894
v 9.329382 -152.27946 58.25695
v 11.363551 -155.79178 60.05382
v 11.120792 -157.4882 56.963108
v 9.092949 -153.9862 55.160625
v 9.329382 -152.27946 58.25695
v 11.217032 -148.86722 56.19271
v 13.211764 -152.34091 57.99414
v 11.363551 -155.79178 60.05382
v 11.120792 -157.4882 56.963108
v 11.363551 -155.79178 60.05382
v 13.211764 -152.34091 57.99414
v 12.993066 -154.10292 54.941433
v 12.993066 -154.10292 54.941433
v 13.211764 -152.34091 57.99414
v 11.217032 -148.86722 56.19271
v 10.98282 -150.61346 53.115955
v 10.98282 -150.61346 53.115955
v 11.217032 -148.86722 56.19271
v 9.329382 -152.27946 58.25695
v 9.092949 -153.9862 55.160625
v -11.636783 -151.87027 59.323578
v -9.602613 -155.38258 61.12045
v -9.845372 -157.07903 58.029736
v -11.873217 -153.57701 56.227253
v -11.636783 -151.87027 59.323578
v -9.749133 -148.45802 57.25934
v -7.754401 -151.93172 59.06077
v -9.602613 -155.38258 61.12045
v -9.845372 -157.07903 58.029736
v -9.602613 -155.38258 61.12045
v -7.754401 -151.93172 59.06077
v -7.973099 -153.69373 56.00806
v -7.973099 -153.69373 56.00806
v -7.754401 -151.93172 59.06077
v -9.749133 -148.45802 57.25934
v -9.983346 -150.20427 54.182583
v -9.983346 -150.20427 54.182583
v -9.749133 -148.45802 57.25934
v -11.636783 -151.87027 59.323578
v -11.873217 -153.57701 56.227253
v -2.474258 -137.22287 51.018467
v 0.604784 -140.74881 52.79088
v 0.36202517 -142.44524 49.700165
v -2.7106915 -138.92961 47.922142
v -2.474258 -137.22287 51.018467
v 0.45826504 -133.82423 48.929768
v 3.551517 -137.29933 50.6379
v 0.604784 -140.74881 52.79088
v 0.36202517 -142.44524 49.700165
v 0.604784 -140.74881 52.79088
v 3.551517 -137.29933 50.6379
v 3.3328185 -139.06133 47.585194
v 3.3328185 -139.06133 47.585194
v 3.551517 -137.29933 50.6379
v 0.45826504 -133.82423 48.929768
v 0.2240522 -135.5705 45.853016
v 0.2240522 -135.5705 45.853016
v 0.45826504 -133.82423 48.929768
v -2.474258 -137.22287 51.018467
v -2.7106915 -138.92961 47.922142
v 8.82415 -124.15412 42.610146
v 10.851208 -127.69764 44.48389
v 10.61556 -129.46855 41.449074
v 8.587716 -125.98839 39.560772
v 8.82415 -124.15412 42.610146
v 10.7118 -120.85293 40.4948
v 12.790626 -124.26702 42.347336
v 10.851208 -127.69764 44.48389
v 10.61556 -129.46855 41.449074
v 10.851208 -127.69764 44.48389
v 12.790626 -124.26702 42.347336
v 12.55552 -126.08912 39.262268
v 12.55552 -126.08912 39.262268
v 12.790626 -124.26702 42.347336
v 10.7118 -120.85293 40.4948
v 10.477587 -122.599174 37.41805
v 10.477587 -122.599174 37.41805
v 10.7118 -120.85293 40.4948
v 8.82415 -124.15412 42.610146
v 8.587716 -125.98839 39.560772
v -12.149234 -123.737076 44.027893
v -10.104187 -127.11148 46.016136
v -10.328924 -129.17166 42.734047
v -12.381873 -125.608765 40.931564
v -12.149234 -123.737076 44.027893
v -10.218954 -120.32212 41.811684
v -8.163372 -123.79359 43.76508
v -10.104187 -127.11148 46.016136
v -10.328924 -129.17166 42.734047
v -10.104187 -127.11148 46.016136
v -8.163372 -123.79359 43.76508
v -8.382504 -125.69266 40.71237
v -8.382504 -125.69266 40.71237
v -8.163372 -123.79359 43.76508
v -10.218954 -120.32212 41.811684
v -10.441346 -122.1012 38.886898
v -10.441346 -122.1012 38.886898
v -10.218954 -120.32212 41.811684
v -12.149234 -123.737076 44.027893
v -12.381873 -125.608765 40.931564
v -22.78489 -148.69388 54.291767
v -22.822386 -147.1461 57.4993
v -20.783125 -143.4914 55.73214
v -20.7803 -145.01315 52.5486
v -20.7803 -145.01315 52.5486
v -20.783125 -143.4914 55.73214
v -22.822231 -139.88683 54.03144
v -22.835545 -141.40337 50.72312
v -22.944588 -133.73013 46.387386
v -22.96334 -132.0114 49.59492
v -20.918764 -128.44424 47.619946
v -20.932161 -130.21669 44.471146
v -20.932161 -130.21669 44.471146
v -20.918764 -128.44424 47.619946
v -22.941132 -124.8629 45.63282
v -22.968275 -126.61449 42.556377
v -22.65996 -118.14109 36.753563
v -22.677902 -116.18828 39.71515
v -20.666222 -112.82921 37.492817
v -20.685535 -114.83355 34.591373
v -20.685535 -114.83355 34.591373
v -20.666222 -112.82921 37.492817
v -22.704342 -109.51066 35.222916
v -22.731485 -111.49374 32.230167
v 22.630121 -141.49799 47.227085
v 22.66762 -139.75829 50.334717
v 20.628359 -143.30211 52.314877
v 20.625534 -145.03706 49.242313
v 20.625534 -145.03706 49.242313
v 20.628359 -143.30211 52.314877
v 22.667465 -146.76274 54.292084
v 22.68078 -148.60289 51.15222
v 22.876463 -126.68366 38.89239
v 22.895218 -124.88468 42.055607
v 20.85064 -128.45633 44.02244
v 20.864038 -130.177 40.84505
v 20.864038 -130.177 40.84505
v 20.85064 -128.45633 44.02244
v 22.871359 -131.92616 45.9948
v 22.900152 -133.71635 42.873604
v 22.772083 -112.18323 29.297861
v 22.744099 -110.19528 32.42382
v 20.808756 -113.58891 34.56894
v 20.771843 -115.50486 31.544737
v 20.771843 -115.50486 31.544737
v 20.808756 -113.58891 34.56894
v 22.829893 -116.84072 36.800594
v 22.791708 -118.86427 33.72483
vt 0.087952 0.745163
vt 0.9767791 0.74948126
vt 0.5340178 0.51183593
vt 0.087952 0.745163
vt 0.9767791 0.74948126
vt 0.5340178 0.51183593
vt 0.087952 0.745163
vt 0.9767791 0.74948126
vt 0.5340178 0.51183593
vt 0.087952 0.745163
vt 0.9767791 0.74948126
vt 0.5340178 0.51183593
vt 0.087952 0.745163
vt 0.9767791 0.74948126
vt 0.5340178 0.51183593
vt 0.087952 0.745163
vt 0.9767791 0.74948126
vt 0.5340178 0.51183593
vt 0.004552 0.497532
vt 0.497305 0.497533
vt 0.500045 0.0095435
vt 0.004552 0.0101255
vt 0.5343385 0.9877519
vt 0.9767791 0.74948126
vt 0.5340178 0.51183593
vt 0.087952 0.745163
vt 0.500045 0.0095435
vt 0.497305 0.497533
vt 0.99406195 0.49752077
vt 0.9860285 0.0095435
vt 0.004552 0.0101255
vt 0.004552 0.497532
vt 0.493063 0.497533
vt 0.4948897 0.008076333
vt 0.4948897 0.008076333
vt 0.493063 0.497533
vt 0.99404514 0.49920577
vt 0.9860285 0.0095435
vt 0.004552 0.497532
vt 0.497305 0.497533
vt 0.500045 0.0095435
vt 0.004552 0.0101255
vt 0.5343385 0.9877519
vt 0.9767791 0.74948126
vt 0.5340178 0.51183593
vt 0.087952 0.745163
vt 0.500045 0.0095435
vt 0.497305 0.497533
vt 0.99406195 0.49752077
vt 0.9860285 0.0095435
vt 0.004552 0.0101255
vt 0.004552 0.497532
vt 0.493063 0.497533
vt 0.4948897 0.008076333
vt 0.4948897 0.008076333
vt 0.493063 0.497533
vt 0.99404514 0.49920577
vt 0.9860285 0.0095435
vt 0.004552 0.497532
vt 0.497305 0.497533
vt 0.500045 0.0095435
vt 0.004552 0.0101255
vt 0.5343385 0.9877519
vt 0.9767791 0.74948126
vt 0.5340178 0.51183593
vt 0.087952 0.745163
vt 0.500045 0.0095435
vt 0.497305 0.497533
vt 0.99406195 0.49752077
vt 0.9860285 0.0095435
vt 0.004552 0.0101255
vt 0.004552 0.497532
vt 0.493063 0.497533
vt 0.4948897 0.008076333
vt 0.4948897 0.008076333
vt 0.493063 0.497533
vt 0.99404514 0.49920577
vt 0.9860285 0.0095435
vt 0.004552 0.497532
vt 0.497305 0.497533
vt 0.500045 0.0095435
vt 0.004552 0.0101255
vt 0.5343385 0.9877519
vt 0.9767791 0.74948126
vt 0.5340178 0.51183593
vt 0.087952 0.745163
vt 0.500045 0.0095435
vt 0.497305 0.497533
vt 0.99406195 0.49752077
vt 0.9860285 0.0095435
vt 0.004552 0.0101255
vt 0.004552 0.497532
vt 0.493063 0.497533
vt 0.4948897 0.008076333
vt 0.4948897 0.008076333
vt 0.493063 0.497533
vt 0.99404514 0.49920577
vt 0.9860285 0.0095435
vt 0.004552 0.497532
vt 0.497305 0.497533
vt 0.500045 0.0095435
vt 0.004552 0.0101255
vt 0.5343385 0.9877519
vt 0.9767791 0.74948126
vt 0.5340178 0.51183593
vt 0.087952 0.745163
vt 0.500045 0.0095435
vt 0.497305 0.497533
vt 0.99406195 0.49752077
vt 0.9860285 0.0095435
vt 0.004552 0.0101255
vt 0.004552 0.497532
vt 0.493063 0.497533
vt 0.4948897 0.008076333
vt 0.4948897 0.008076333
vt 0.493063 0.497533
vt 0.99404514 0.49920577
vt 0.9860285 0.0095435
vt 0.500045 0.0095435
vt 0.497305 0.497533
vt 0.99406195 0.49752077
vt 0.9860285 0.0095435
vt 0.004552 0.0101255
vt 0.004552 0.497532
vt 0.493063 0.497533
vt 0.4948897 0.008076333
vt 0.500045 0.0095435
vt 0.497305 0.497533
vt 0.99406195 0.49752077
vt 0.9860285 0.0095435
vt 0.004552 0.0101255
vt 0.004552 0.497532
vt 0.493063 0.497533
vt 0.4948897 0.008076333
vt 0.500045 0.0095435
vt 0.497305 0.497533
vt 0.99406195 0.49752077
vt 0.9860285 0.0095435
vt 0.004552 0.0101255
vt 0.004552 0.497532
vt 0.493063 0.497533
vt 0.4948897 0.008076333
vt 0.500045 0.0095435
vt 0.497305 0.497533
vt 0.99406195 0.49752077
vt 0.9860285 0.0095435
vt 0.004552 0.0101255
vt 0.004552 0.497532
vt 0.493063 0.497533
vt 0.4948897 0.008076333
vt 0.500045 0.0095435
vt 0.497305 0.497533
vt 0.99406195 0.49752077
vt 0.9860285 0.0095435
vt 0.004552 0.0101255
vt 0.004552 0.497532
vt 0.493063 0.497533
vt 0.4948897 0.008076333
vt 0.500045 0.0095435
vt 0.497305 0.497533
vt 0.99406195 0.49752077
vt 0.9860285 0.0095435
vt 0.004552 0.0101255
vt 0.004552 0.497532
vt 0.493063 0.497533
vt 0.4948897 0.008076333
vn 0.009404911 0.43103445 0.9022864
vn 0.009404912 0.43103442 0.90228647
vn 0.009404911 0.43103445 0.9022864
vn -0.00092352927 0.4847761 0.87463784
vn -0.0009235293 0.48477614 0.8746378
vn -0.0009235293 0.48477614 0.8746378
vn -0.015331036 0.5580706 0.82965183
vn -0.015331035 0.55807054 0.8296519
vn -0.015331037 0.55807054 0.8296519
vn -0.009401526 0.49187785 0.87061346
vn -0.009401528 0.4918779 0.87061346
vn -0.009401527 0.49187794 0.8706134
vn -0.013414306 0.48821342 0.8726212
vn -0.013414307 0.48821345 0.8726211
vn -0.013414305 0.48821345 0.8726211
vn -0.037947845 0.5492976 0.8347648
vn -0.03794784 0.5492976 0.8347647
vn -0.03794784 0.5492976 0.8347647
vn -0.8865531 -0.37291414 0.27378574
vn -0.8865531 -0.37291417 0.27378574
vn -0.8865531 -0.37291417 0.27378574
vn -0.8865531 -0.37291414 0.27378574
vn 0.06665988 0.48699662 0.87085634
vn 0.066659875 0.4869966 0.8708564
vn 0.06665988 0.48699665 0.87085634
vn 0.06665988 0.48699662 0.87085634
vn 0.90374744 -0.3984603 0.15642862
vn 0.90374744 -0.3984603 0.15642862
vn 0.90374744 -0.39846033 0.1564286
vn 0.90374744 -0.3984603 0.15642862
vn 0.88828576 0.36724132 -0.27582997
vn 0.88828576 0.36724132 -0.27583
vn 0.88828576 0.36724135 -0.27583
vn 0.88828576 0.36724132 -0.27583
vn -0.90032154 0.40546954 -0.15816295
vn -0.90032154 0.40546957 -0.15816295
vn -0.90032154 0.40546954 -0.15816295
vn -0.90032154 0.40546954 -0.15816295
vn -0.8865531 -0.37291414 0.27378574
vn -0.8865531 -0.37291417 0.27378574
vn -0.8865531 -0.37291417 0.27378574
vn -0.8865531 -0.37291414 0.27378574
vn 0.06665988 0.48699662 0.87085634
vn 0.066659875 0.4869966 0.8708564
vn 0.06665988 0.48699665 0.87085634
vn 0.06665988 0.48699662 0.87085634
vn 0.90374744 -0.3984603 0.15642862
vn 0.90374744 -0.3984603 0.15642862
vn 0.90374744 -0.39846033 0.1564286
vn 0.90374744 -0.3984603 0.15642862
vn 0.88828576 0.36724135 -0.27582997
vn 0.88828576 0.36724135 -0.27583
vn 0.88828576 0.36724135 -0.27583
vn 0.88828576 0.36724135 -0.27583
vn -0.90032154 0.40546954 -0.15816295
vn -0.90032154 0.40546957 -0.15816295
vn -0.90032154 0.40546954 -0.15816295
vn -0.90032154 0.40546954 -0.15816295
vn -0.7862253 -0.5137009 0.34345487
vn -0.7862253 -0.5137009 0.34345487
vn -0.7862253 -0.5137009 0.34345493
vn -0.7862253 -0.5137009 0.34345487
vn 0.061202988 0.48707888 0.8712109
vn 0.061202977 0.48707882 0.8712109
vn 0.061202988 0.48707882 0.8712109
vn 0.061202984 0.48707888 0.8712109
vn 0.8034083 -0.5426309 0.24512613
vn 0.8034083 -0.5426308 0.24512613
vn 0.8034083 -0.54263085 0.24512614
vn 0.8034083 -0.54263085 0.24512613
vn 0.77848667 0.5182185 -0.35413
vn 0.77848667 0.5182185 -0.3541299
vn 0.77848667 0.5182185 -0.35412997
vn 0.77848667 0.5182185 -0.35412997
vn -0.801593 0.54574466 -0.24415497
vn -0.8015929 0.5457446 -0.24415497
vn -0.8015929 0.5457446 -0.24415497
vn -0.8015929 0.5457446 -0.24415497
vn -0.8884486 -0.36131802 0.28303435
vn -0.8884486 -0.36131808 0.28303432
vn -0.8884486 -0.36131802 0.28303435
vn -0.8884485 -0.36131805 0.28303432
vn 0.07138412 0.5033262 0.8611429
vn 0.07138412 0.5033261 0.8611429
vn 0.07138412 0.5033261 0.8611429
vn 0.07138412 0.5033261 0.8611429
vn 0.89868075 -0.404906 0.16859378
vn 0.89868075 -0.404906 0.16859378
vn 0.89868075 -0.40490603 0.16859378
vn 0.89868075 -0.404906 0.16859381
vn 0.88088816 0.3774096 -0.28565365
vn 0.88088816 0.3774096 -0.28565365
vn 0.88088816 0.3774096 -0.2856537
vn 0.8808882 0.37740958 -0.28565368
vn -0.90020126 0.4025459 -0.16611582
vn -0.90020126 0.40254596 -0.16611585
vn -0.90020126 0.40254593 -0.16611585
vn -0.90020126 0.40254596 -0.16611585
vn -0.8850919 -0.36516124 0.2885647
vn -0.8850919 -0.36516127 0.28856474
vn -0.8850919 -0.36516124 0.28856477
vn -0.8850919 -0.36516127 0.28856477
vn 0.063372895 0.5262074 0.8479915
vn 0.06337291 0.52620745 0.8479915
vn 0.063372895 0.5262074 0.8479915
vn 0.06337291 0.52620745 0.8479915
vn 0.8987075 -0.39742273 0.18541828
vn 0.8987075 -0.39742273 0.18541828
vn 0.8987075 -0.3974227 0.18541825
vn 0.8987075 -0.3974227 0.18541825
vn 0.88642365 0.362125 -0.28830293
vn 0.88642365 0.36212504 -0.288303
vn 0.88642365 0.36212504 -0.288303
vn 0.88642365 0.362125 -0.28830296
vn -0.9011743 0.39748055 -0.1728992
vn -0.9011743 0.39748046 -0.17289917
vn -0.9011743 0.39748046 -0.17289917
vn -0.9011743 0.3974805 -0.17289919
vn 0.89538825 -0.3991606 0.19735937
vn 0.89538825 -0.3991606 0.1973594
vn 0.89538825 -0.3991606 0.19735937
vn 0.89538825 -0.3991606 0.19735938
vn 0.89085966 0.41089216 -0.19374393
vn 0.89085966 0.41089222 -0.19374394
vn 0.89085966 0.41089222 -0.19374394
vn 0.89085966 0.41089222 -0.19374394
vn 0.89366 -0.3930046 0.21660826
vn 0.89366 -0.39300457 0.21660826
vn 0.89366 -0.39300457 0.21660827
vn 0.89366 -0.3930046 0.21660826
vn 0.8956176 0.384578 -0.22353719
vn 0.8956176 0.38457796 -0.22353718
vn 0.8956176 0.38457796 -0.2235372
vn 0.8956176 0.38457796 -0.22353718
vn 0.89457226 -0.37054017 0.24988085
vn 0.89457226 -0.37054017 0.24988085
vn 0.89457226 -0.3705402 0.24988085
vn 0.89457226 -0.3705402 0.24988088
vn 0.8931551 0.36921608 -0.2568141
vn 0.8931551 0.36921605 -0.2568141
vn 0.8931551 0.36921605 -0.2568141
vn 0.8931551 0.36921605 -0.2568141
vn -0.89538777 0.39061782 -0.21377191
vn -0.89538777 0.3906178 -0.21377191
vn -0.89538777 0.39061776 -0.21377188
vn -0.89538777 0.39061776 -0.21377191
vn -0.89086014 -0.39438397 0.22545424
vn -0.89086014 -0.3943839 0.22545423
vn -0.89086014 -0.3943839 0.22545424
vn -0.89086014 -0.3943839 0.22545423
vn -0.89365983 0.39267018 -0.21721475
vn -0.89365983 0.3926702 -0.21721475
vn -0.89365983 0.39267015 -0.21721475
vn -0.89365983 0.39267018 -0.21721475
vn -0.89343065 -0.39488274 0.2141243
vn -0.89343065 -0.39488274 0.21412434
vn -0.89343065 -0.39488277 0.21412434
vn -0.89343065 -0.39488277 0.21412437
vn -0.8977984 0.37241185 -0.23509032
vn -0.8977984 0.37241185 -0.23509029
vn -0.8977984 0.37241182 -0.23509029
vn -0.8977984 0.37241185 -0.23509032
vn -0.8914001 -0.37564176 0.2535728
vn -0.8914001 -0.3756418 0.2535728
vn -0.8914001 -0.37564176 0.2535728
vn -0.8914001 -0.37564176 0.2535728
g Bumpers_COL_0
f 3/3/3 2/2/2 1/1/1
f 6/6/6 5/5/5 4/4/4
f 9/9/9 8/8/8 7/7/7
f 12/12/12 11/11/11 10/10/10
f 15/15/15 14/14/14 13/13/13
f 18/18/18 17/17/17 16/16/16
f 21/21/21 20/20/20 19/19/19
f 22/22/22 21/21/21 19/19/19
f 25/25/25 24/24/24 23/23/23
f 26/26/26 25/25/25 23/23/23
f 29/29/29 28/28/28 27/27/27
f 30/30/30 29/29/29 27/27/27
f 33/33/33 32/32/32 31/31/31
f 34/34/34 33/33/33 31/31/31
f 37/37/37 36/36/36 35/35/35
f 38/38/38 37/37/37 35/35/35
f 41/41/41 40/40/40 39/39/39
f 42/42/42 41/41/41 39/39/39
f 45/45/45 44/44/44 43/43/43
f 46/46/46 45/45/45 43/43/43
f 49/49/49 48/48/48 47/47/47
f 50/50/50 49/49/49 47/47/47
f 53/53/53 52/52/52 51/51/51
f 54/54/54 53/53/53 51/51/51
f 57/57/57 56/56/56 55/55/55
f 58/58/58 57/57/57 55/55/55
f 61/61/61 60/60/60 59/59/59
f 62/62/62 61/61/61 59/59/59
f 65/65/65 64/64/64 63/63/63
f 66/66/66 65/65/65 63/63/63
f 69/69/69 68/68/68 67/67/67
f 70/70/70 69/69/69 67/67/67
f 73/73/73 72/72/72 71/71/71
f 74/74/74 73/73/73 71/71/71
f 77/77/77 76/76/76 75/75/75
f 78/78/78 77/77/77 75/75/75
f 81/81/81 80/80/80 79/79/79
f 82/82/82 81/81/81 79/79/79
f 85/85/85 84/84/84 83/83/83
f 86/86/86 85/85/85 83/83/83
f 89/89/89 88/88/88 87/87/87
f 90/90/90 89/89/89 87/87/87
f 93/93/93 92/92/92 91/91/91
f 94/94/94 93/93/93 91/91/91
f 97/97/97 96/96/96 95/95/95
f 98/98/98 97/97/97 95/95/95
f 101/101/101 100/100/100 99/99/99
f 102/102/102 101/101/101 99/99/99
f 105/105/105 104/104/104 103/103/103
f 106/106/106 105/105/105 103/103/103
f 109/109/109 108/108/108 107/107/107
f 110/110/110 109/109/109 107/107/107
f 113/113/113 112/112/112 111/111/111
f 114/114/114 113/113/113 111/111/111
f 117/117/117 116/116/116 115/115/115
f 118/118/118 117/117/117 115/115/115
f 121/121/121 120/120/120 119/119/119
f 122/122/122 121/121/121 119/119/119
f 125/125/125 124/124/124 123/123/123
f 126/126/126 125/125/125 123/123/123
f 129/129/129 128/128/128 127/127/127
f 130/130/130 129/129/129 127/127/127
f 133/133/133 132/132/132 131/131/131
f 134/134/134 133/133/133 131/131/131
f 137/137/137 136/136/136 135/135/135
f 138/138/138 137/137/137 135/135/135
f 141/141/141 140/140/140 139/139/139
f 142/142/142 141/141/141 139/139/139
f 145/145/145 144/144/144 143/143/143
f 146/146/146 145/145/145 143/143/143
f 149/149/149 148/148/148 147/147/147
f 150/150/150 149/149/149 147/147/147
f 153/153/153 152/152/152 151/151/151
f 154/154/154 153/153/153 151/151/151
f 157/157/157 156/156/156 155/155/155
f 158/158/158 157/157/157 155/155/155
f 161/161/161 160/160/160 159/159/159
f 162/162/162 161/161/161 159/159/159
f 165/165/165 164/164/164 163/163/163
f 166/166/166 165/165/165 163/163/163
