g COL_FallGuy_Penguin_Solos_Slide_Enterance
v -5.0000005 0 -0.6000005
v -4.619398 1.9134173 -0.6000005
v -5.0000005 0 0.59999955
v -4.619398 1.9134173 0.59999955
v -3.3259666 1.3776604 -0.6000005
v -3.6000004 0 -0.6000005
v -3.3259666 1.3776604 0.59999955
v -3.6000004 0 0.59999955
v -4.619398 1.9134173 -0.6000005
v -3.5355344 3.535534 -0.6000005
v -4.619398 1.9134173 0.59999955
v -3.5355344 3.535534 0.59999955
v -2.5455847 2.5455842 -0.6000005
v -3.3259666 1.3776604 -0.6000005
v -2.5455847 2.5455842 0.59999955
v -3.3259666 1.3776604 0.59999955
v -3.5355344 3.535534 -0.6000005
v -1.9134176 4.6193976 -0.6000005
v -3.5355344 3.535534 0.59999955
v -1.9134176 4.6193976 0.59999955
v -1.3776608 3.3259661 -0.6000005
v -2.5455847 2.5455842 -0.6000005
v -1.3776608 3.3259661 0.59999955
v -2.5455847 2.5455842 0.59999955
v -1.9134176 4.6193976 -0.6000005
v -4.7683716E-07 5 -0.6000005
v -1.9134176 4.6193976 0.59999955
v -4.7683716E-07 5 0.59999955
v -4.7683716E-07 3.6 -0.6000005
v -1.3776608 3.3259661 -0.6000005
v -4.7683716E-07 3.6 0.59999955
v -1.3776608 3.3259661 0.59999955
v -4.7683716E-07 5 -0.6000005
v 1.9134164 4.6193976 -0.6000005
v -4.7683716E-07 5 0.59999955
v 1.9134164 4.6193976 0.59999955
v 1.3776598 3.3259664 -0.6000005
v -4.7683716E-07 3.6 -0.6000005
v 1.3776598 3.3259664 0.59999955
v -4.7683716E-07 3.6 0.59999955
v 1.9134164 4.6193976 -0.6000005
v 3.5355334 3.535534 -0.6000005
v 1.9134164 4.6193976 0.59999955
v 3.5355334 3.535534 0.59999955
v 2.5455837 2.5455842 -0.6000005
v 1.3776598 3.3259664 -0.6000005
v 2.5455837 2.5455842 0.59999955
v 1.3776598 3.3259664 0.59999955
v 3.5355334 3.535534 -0.6000005
v 4.6193976 1.9134175 -0.6000005
v 3.5355334 3.535534 0.59999955
v 4.6193976 1.9134175 0.59999955
v 3.3259654 1.3776605 -0.6000005
v 2.5455837 2.5455842 -0.6000005
v 3.3259654 1.3776605 0.59999955
v 2.5455837 2.5455842 0.59999955
v 4.6193976 1.9134175 -0.6000005
v 4.9999995 -4.371139E-07 -0.6000005
v 4.6193976 1.9134175 0.59999955
v 4.9999995 -4.371139E-07 0.59999955
v 3.6 -3.14722E-07 -0.6000005
v 3.3259654 1.3776605 -0.6000005
v 3.6 -3.14722E-07 0.59999955
v 3.3259654 1.3776605 0.59999955
v 4.9999995 -4.371139E-07 -0.6000005
v 4.6193976 -1.9134171 -0.6000005
v 4.9999995 -4.371139E-07 0.59999955
v 4.6193976 -1.9134171 0.59999955
v 3.3259654 -1.3776603 -0.6000005
v 3.6 -3.14722E-07 -0.6000005
v 3.3259654 -1.3776603 0.59999955
v 3.6 -3.14722E-07 0.59999955
v 4.6193976 -1.9134171 -0.6000005
v 3.5355334 -3.5355334 -0.6000005
v 4.6193976 -1.9134171 0.59999955
v 3.5355334 -3.5355334 0.59999955
v 2.5455842 -2.5455842 -0.6000005
v 3.3259654 -1.3776603 -0.6000005
v 2.5455842 -2.5455842 0.59999955
v 3.3259654 -1.3776603 0.59999955
v 3.5355334 -3.5355334 -0.6000005
v 1.9134173 -4.6193976 -0.6000005
v 3.5355334 -3.5355334 0.59999955
v 1.9134173 -4.6193976 0.59999955
v 1.3776603 -3.3259661 -0.6000005
v 2.5455842 -2.5455842 -0.6000005
v 1.3776603 -3.3259661 0.59999955
v 2.5455842 -2.5455842 0.59999955
v 1.9134173 -4.6193976 -0.6000005
v -4.7683716E-07 -5 -0.6000005
v 1.9134173 -4.6193976 0.59999955
v -4.7683716E-07 -5 0.59999955
v -4.7683716E-07 -3.6 -0.6000005
v 1.3776603 -3.3259661 -0.6000005
v -4.7683716E-07 -3.6 0.59999955
v 1.3776603 -3.3259661 0.59999955
v -4.7683716E-07 -5 -0.6000005
v -1.9134185 -4.619397 -0.6000005
v -4.7683716E-07 -5 0.59999955
v -1.9134185 -4.619397 0.59999955
v -1.3776615 -3.325966 -0.6000005
v -4.7683716E-07 -3.6 -0.6000005
v -1.3776615 -3.325966 0.59999955
v -4.7683716E-07 -3.6 0.59999955
v -1.9134185 -4.619397 -0.6000005
v -3.5355337 -3.5355344 -0.6000005
v -1.9134185 -4.619397 0.59999955
v -3.5355337 -3.5355344 0.59999955
v -2.5455844 -2.5455847 -0.6000005
v -1.3776615 -3.325966 -0.6000005
v -2.5455844 -2.5455847 0.59999955
v -1.3776615 -3.325966 0.59999955
v -3.5355337 -3.5355344 -0.6000005
v -4.619398 -1.9134171 -0.6000005
v -3.5355337 -3.5355344 0.59999955
v -4.619398 -1.9134171 0.59999955
v -3.3259668 -1.3776603 -0.6000005
v -2.5455844 -2.5455847 -0.6000005
v -3.3259668 -1.3776603 0.59999955
v -2.5455844 -2.5455847 0.59999955
v -4.619398 -1.9134171 -0.6000005
v -5.0000005 8.742278E-07 -0.6000005
v -4.619398 -1.9134171 0.59999955
v -5.0000005 8.742278E-07 0.59999955
v -3.6000004 6.29444E-07 -0.6000005
v -3.3259668 -1.3776603 -0.6000005
v -3.6000004 6.29444E-07 0.59999955
v -3.3259668 -1.3776603 0.59999955
v -5.0000005 0 0.59999955
v -4.619398 1.9134173 0.59999955
v -3.6000004 0 0.59999955
v -3.3259666 1.3776604 0.59999955
v -4.619398 1.9134173 -0.6000005
v -5.0000005 0 -0.6000005
v -3.3259666 1.3776604 -0.6000005
v -3.6000004 0 -0.6000005
v -3.5355344 3.535534 0.59999955
v -2.5455847 2.5455842 0.59999955
v -3.5355344 3.535534 -0.6000005
v -2.5455847 2.5455842 -0.6000005
v -1.9134176 4.6193976 0.59999955
v -1.3776608 3.3259661 0.59999955
v -1.9134176 4.6193976 -0.6000005
v -1.3776608 3.3259661 -0.6000005
v -4.7683716E-07 5 0.59999955
v -4.7683716E-07 3.6 0.59999955
v -4.7683716E-07 5 -0.6000005
v -4.7683716E-07 3.6 -0.6000005
v 1.9134164 4.6193976 0.59999955
v 1.3776598 3.3259664 0.59999955
v 1.9134164 4.6193976 -0.6000005
v 1.3776598 3.3259664 -0.6000005
v 3.5355334 3.535534 0.59999955
v 2.5455837 2.5455842 0.59999955
v 3.5355334 3.535534 -0.6000005
v 2.5455837 2.5455842 -0.6000005
v 4.6193976 1.9134175 0.59999955
v 3.3259654 1.3776605 0.59999955
v 4.6193976 1.9134175 -0.6000005
v 3.3259654 1.3776605 -0.6000005
v 4.9999995 -4.371139E-07 0.59999955
v 3.6 -3.14722E-07 0.59999955
v 4.9999995 -4.371139E-07 -0.6000005
v 3.6 -3.14722E-07 -0.6000005
v 4.6193976 -1.9134171 0.59999955
v 3.3259654 -1.3776603 0.59999955
v 4.6193976 -1.9134171 -0.6000005
v 3.3259654 -1.3776603 -0.6000005
v 3.5355334 -3.5355334 0.59999955
v 2.5455842 -2.5455842 0.59999955
v 3.5355334 -3.5355334 -0.6000005
v 2.5455842 -2.5455842 -0.6000005
v 1.9134173 -4.6193976 0.59999955
v 1.3776603 -3.3259661 0.59999955
v 1.9134173 -4.6193976 -0.6000005
v 1.3776603 -3.3259661 -0.6000005
v -4.7683716E-07 -5 0.59999955
v -4.7683716E-07 -3.6 0.59999955
v -4.7683716E-07 -5 -0.6000005
v -4.7683716E-07 -3.6 -0.6000005
v -1.9134185 -4.619397 0.59999955
v -1.3776615 -3.325966 0.59999955
v -1.9134185 -4.619397 -0.6000005
v -1.3776615 -3.325966 -0.6000005
v -3.5355337 -3.5355344 0.59999955
v -2.5455844 -2.5455847 0.59999955
v -3.5355337 -3.5355344 -0.6000005
v -2.5455844 -2.5455847 -0.6000005
v -4.619398 -1.9134171 0.59999955
v -3.3259668 -1.3776603 0.59999955
v -4.619398 -1.9134171 -0.6000005
v -3.3259668 -1.3776603 -0.6000005
vt -0.6000005 -0.9754517
vt -0.6000005 0.97545177
vt 0.59999955 -0.9754517
vt 0.59999955 0.97545177
vt 0.6000005 0.7023249
vt 0.6000005 -0.7023255
vt -0.59999955 0.7023249
vt -0.59999955 -0.7023255
vt -0.6000005 -0.9754518
vt -0.6000005 0.97545123
vt 0.59999955 -0.9754518
vt 0.59999955 0.97545123
vt 0.6000005 0.70232433
vt 0.6000005 -0.7023258
vt -0.59999955 0.70232433
vt -0.59999955 -0.7023258
vt 0.9754521 -0.6000005
vt -0.97545123 -0.6000005
vt 0.9754521 0.59999955
vt -0.97545123 0.59999955
vt 0.7023248 -0.6000005
vt -0.7023254 -0.6000005
vt 0.7023248 0.59999955
vt -0.7023254 0.59999955
vt 0.9754519 -0.6000005
vt -0.97545123 -0.6000005
vt 0.9754519 0.59999955
vt -0.97545123 0.59999955
vt 0.7023249 -0.6000005
vt -0.7023253 -0.6000005
vt 0.7023249 0.59999955
vt -0.7023253 0.59999955
vt 0.97545224 -0.6000005
vt -0.97545063 -0.6000005
vt 0.97545224 0.59999955
vt -0.97545063 0.59999955
vt 0.7023249 -0.6000005
vt -0.7023253 -0.6000005
vt 0.7023249 0.59999955
vt -0.7023253 0.59999955
vt 0.97545165 -0.6000005
vt -0.97545177 -0.6000005
vt 0.97545165 0.59999955
vt -0.97545177 0.59999955
vt 0.70232403 -0.6000005
vt -0.70232636 -0.6000005
vt 0.70232403 0.59999955
vt -0.70232636 0.59999955
vt 0.6000005 0.9754503
vt 0.6000005 -0.9754529
vt -0.59999955 0.9754503
vt -0.59999955 -0.9754529
vt -0.6000005 -0.70232457
vt -0.6000005 0.7023253
vt 0.59999955 -0.70232457
vt 0.59999955 0.7023253
vt 0.6000005 0.9754534
vt 0.6000005 -0.9754505
vt -0.59999955 0.9754534
vt -0.59999955 -0.9754505
vt -0.6000005 -0.70232725
vt -0.6000005 0.70232373
vt 0.59999955 -0.70232725
vt 0.59999955 0.70232373
vt 0.6000005 0.9754502
vt 0.6000005 -0.9754524
vt -0.59999955 0.9754502
vt -0.59999955 -0.9754524
vt -0.6000005 -0.702323
vt -0.6000005 0.70232713
vt 0.59999955 -0.702323
vt 0.59999955 0.70232713
vt 0.6000005 0.9754533
vt 0.6000005 -0.9754499
vt -0.59999955 0.9754533
vt -0.59999955 -0.9754499
vt -0.6000005 -0.7023264
vt -0.6000005 0.70232344
vt 0.59999955 -0.7023264
vt 0.59999955 0.70232344
vt 0.9754495 -0.6000005
vt -0.97545356 -0.6000005
vt 0.9754495 0.59999955
vt -0.97545356 0.59999955
vt 0.70232517 -0.6000005
vt -0.70232505 -0.6000005
vt 0.70232517 0.59999955
vt -0.70232505 0.59999955
vt 0.97545207 -0.6000005
vt -0.9754519 -0.6000005
vt 0.97545207 0.59999955
vt -0.9754519 0.59999955
vt 0.70232564 -0.6000005
vt -0.70232505 -0.6000005
vt 0.70232564 0.59999955
vt -0.70232505 0.59999955
vt 0.9754519 -0.6000005
vt -0.9754523 -0.6000005
vt 0.9754519 0.59999955
vt -0.9754523 0.59999955
vt 0.70232576 -0.6000005
vt -0.7023253 -0.6000005
vt 0.70232576 0.59999955
vt -0.7023253 0.59999955
vt 0.9754503 -0.6000005
vt -0.97545105 -0.6000005
vt 0.9754503 0.59999955
vt -0.97545105 0.59999955
vt 0.7023251 -0.6000005
vt -0.702324 -0.6000005
vt 0.7023251 0.59999955
vt -0.702324 0.59999955
vt -0.6000005 -0.9754514
vt -0.6000005 0.97545266
vt 0.59999955 -0.9754514
vt 0.59999955 0.97545266
vt 0.6000005 0.70232606
vt 0.6000005 -0.7023248
vt -0.59999955 0.70232606
vt -0.59999955 -0.7023248
vt -0.6000005 -0.9754517
vt -0.6000005 0.97545236
vt 0.59999955 -0.9754517
vt 0.59999955 0.97545236
vt 0.6000005 0.7023253
vt 0.6000005 -0.7023256
vt -0.59999955 0.7023253
vt -0.59999955 -0.7023256
vt -5.0000005 0
vt -4.619398 1.9134173
vt -3.6000004 0
vt -3.3259666 1.3776604
vt 4.619398 1.9134173
vt 5.0000005 0
vt 3.3259666 1.3776604
vt 3.6000004 0
vt -3.5355344 3.535534
vt -2.5455847 2.5455842
vt 3.5355344 3.535534
vt 2.5455847 2.5455842
vt -1.9134176 4.6193976
vt -1.3776608 3.3259661
vt 1.9134176 4.6193976
vt 1.3776608 3.3259661
vt -4.7683716E-07 5
vt -4.7683716E-07 3.6
vt 4.7683716E-07 5
vt 4.7683716E-07 3.6
vt 1.9134164 4.6193976
vt 1.3776598 3.3259664
vt -1.9134164 4.6193976
vt -1.3776598 3.3259664
vt 3.5355334 3.535534
vt 2.5455837 2.5455842
vt -3.5355334 3.535534
vt -2.5455837 2.5455842
vt 4.6193976 1.9134175
vt 3.3259654 1.3776605
vt -4.6193976 1.9134175
vt -3.3259654 1.3776605
vt 4.9999995 -4.371139E-07
vt 3.6 -3.14722E-07
vt -4.9999995 -4.371139E-07
vt -3.6 -3.14722E-07
vt 4.6193976 -1.9134171
vt 3.3259654 -1.3776603
vt -4.6193976 -1.9134171
vt -3.3259654 -1.3776603
vt 3.5355334 -3.5355334
vt 2.5455842 -2.5455842
vt -3.5355334 -3.5355334
vt -2.5455842 -2.5455842
vt 1.9134173 -4.6193976
vt 1.3776603 -3.3259661
vt -1.9134173 -4.6193976
vt -1.3776603 -3.3259661
vt -4.7683716E-07 -5
vt -4.7683716E-07 -3.6
vt 4.7683716E-07 -5
vt 4.7683716E-07 -3.6
vt -1.9134185 -4.619397
vt -1.3776615 -3.325966
vt 1.9134185 -4.619397
vt 1.3776615 -3.325966
vt -3.5355337 -3.5355344
vt -2.5455844 -2.5455847
vt 3.5355337 -3.5355344
vt 2.5455844 -2.5455847
vt -4.619398 -1.9134171
vt -3.3259668 -1.3776603
vt 4.619398 -1.9134171
vt 3.3259668 -1.3776603
vn -0.9807853 0.19509032 0
vn -0.9807853 0.19509032 0
vn -0.9807853 0.19509032 0
vn -0.9807853 0.19509032 0
vn 0.98078525 -0.19509038 0
vn 0.98078525 -0.19509038 0
vn 0.98078525 -0.19509038 0
vn 0.98078525 -0.19509038 0
vn -0.8314696 0.55557024 0
vn -0.8314696 0.55557024 0
vn -0.8314696 0.55557024 0
vn -0.8314696 0.55557024 0
vn 0.83146954 -0.55557036 0
vn 0.83146954 -0.55557036 0
vn 0.83146954 -0.55557036 0
vn 0.83146954 -0.55557036 0
vn -0.55557024 0.83146966 0
vn -0.55557024 0.83146966 0
vn -0.55557024 0.83146966 0
vn -0.55557024 0.83146966 0
vn 0.55557024 -0.8314696 0
vn 0.55557024 -0.8314696 0
vn 0.55557024 -0.8314696 0
vn 0.55557024 -0.8314696 0
vn -0.19509034 0.98078525 0
vn -0.19509034 0.98078525 0
vn -0.19509034 0.98078525 0
vn -0.19509034 0.98078525 0
vn 0.1950904 -0.98078525 0
vn 0.1950904 -0.98078525 0
vn 0.1950904 -0.98078525 0
vn 0.1950904 -0.98078525 0
vn 0.19509035 0.98078525 0
vn 0.19509035 0.98078525 0
vn 0.19509035 0.98078525 0
vn 0.19509035 0.98078525 0
vn -0.19509023 -0.9807853 0
vn -0.19509023 -0.9807853 0
vn -0.19509023 -0.9807853 0
vn -0.19509023 -0.9807853 0
vn 0.5555701 0.83146966 0
vn 0.5555701 0.83146966 0
vn 0.5555701 0.83146966 0
vn 0.5555701 0.83146966 0
vn -0.5555704 -0.83146954 0
vn -0.5555704 -0.83146954 0
vn -0.5555704 -0.83146954 0
vn -0.5555704 -0.83146954 0
vn 0.8314694 0.5555705 0
vn 0.8314694 0.5555705 0
vn 0.8314694 0.5555705 0
vn 0.8314694 0.5555705 0
vn -0.8314696 -0.55557024 0
vn -0.8314696 -0.55557024 0
vn -0.8314696 -0.55557024 0
vn -0.8314696 -0.55557024 0
vn 0.9807853 0.19509003 0
vn 0.9807853 0.19509003 0
vn 0.9807853 0.19509003 0
vn 0.9807853 0.19509003 0
vn -0.9807852 -0.19509082 0
vn -0.9807852 -0.19509082 0
vn -0.9807852 -0.19509082 0
vn -0.9807852 -0.19509082 0
vn 0.9807853 -0.19509014 0
vn 0.9807853 -0.19509014 0
vn 0.9807853 -0.19509014 0
vn 0.9807853 -0.19509014 0
vn -0.98078513 0.19509095 0
vn -0.98078513 0.19509095 0
vn -0.98078513 0.19509095 0
vn -0.98078513 0.19509095 0
vn 0.8314695 -0.55557054 0
vn 0.8314695 -0.55557054 0
vn 0.8314695 -0.55557054 0
vn 0.8314695 -0.55557054 0
vn -0.83146983 0.5555699 0
vn -0.83146983 0.5555699 0
vn -0.83146983 0.5555699 0
vn -0.83146983 0.5555699 0
vn 0.5555706 -0.8314694 0
vn 0.5555706 -0.8314694 0
vn 0.5555706 -0.8314694 0
vn 0.5555706 -0.8314694 0
vn -0.55557024 0.8314696 0
vn -0.55557024 0.8314696 0
vn -0.55557024 0.8314696 0
vn -0.55557024 0.8314696 0
vn 0.19509028 -0.9807853 0
vn 0.19509028 -0.9807853 0
vn 0.19509028 -0.9807853 0
vn 0.19509028 -0.9807853 0
vn -0.19509034 0.98078525 0
vn -0.19509034 0.98078525 0
vn -0.19509034 0.98078525 0
vn -0.19509034 0.98078525 0
vn -0.19509047 -0.98078525 0
vn -0.19509047 -0.98078525 0
vn -0.19509047 -0.98078525 0
vn -0.19509047 -0.98078525 0
vn 0.19509049 0.98078525 0
vn 0.19509049 0.98078525 0
vn 0.19509049 0.98078525 0
vn 0.19509049 0.98078525 0
vn -0.55557024 -0.8314696 0
vn -0.55557024 -0.8314696 0
vn -0.55557024 -0.8314696 0
vn -0.55557024 -0.8314696 0
vn 0.55557024 0.83146966 0
vn 0.55557024 0.83146966 0
vn 0.55557024 0.83146966 0
vn 0.55557024 0.83146966 0
vn -0.83146954 -0.55557036 0
vn -0.83146954 -0.55557036 0
vn -0.83146954 -0.55557036 0
vn -0.83146954 -0.55557036 0
vn 0.83146954 0.55557036 0
vn 0.83146954 0.55557036 0
vn 0.83146954 0.55557036 0
vn 0.83146954 0.55557036 0
vn -0.9807853 -0.19509028 0
vn -0.9807853 -0.19509028 0
vn -0.9807853 -0.19509028 0
vn -0.9807853 -0.19509028 0
vn 0.98078537 0.19509016 0
vn 0.98078537 0.19509016 0
vn 0.98078537 0.19509016 0
vn 0.98078537 0.19509016 0
vn -0 0 1
vn -0 0 1
vn -0 0 1
vn -0 0 1
vn -0 0 -1
vn -0 0 -1
vn -0 0 -1
vn -0 0 -1
vn -0 0 1
vn -0 0 1
vn -0 0 -1
vn -0 0 -1
vn -0 0 1
vn -0 0 1
vn -0 0 -1
vn -0 0 -1
vn -0 0 1
vn -0 0 1
vn -0 0 -1
vn -0 0 -1
vn -0 0 1
vn -0 0 1
vn -0 0 -1
vn -0 0 -1
vn -0 0 1
vn -0 0 1
vn -0 0 -1
vn -0 0 -1
vn -0 0 1
vn -0 0 1
vn -0 0 -1
vn -0 0 -1
vn -0 0 1
vn -0 0 1
vn -0 0 -1
vn -0 0 -1
vn -0 0 1
vn -0 0 1
vn -0 0 -1
vn -0 0 -1
vn -0 0 1
vn -0 0 1
vn -0 0 -1
vn -0 0 -1
vn -0 0 1
vn -0 0 1
vn -0 0 -1
vn -0 0 -1
vn -0 0 1
vn -0 0 1
vn -0 0 -1
vn -0 0 -1
vn -0 0 1
vn -0 0 1
vn -0 0 -1
vn -0 0 -1
vn -0 0 1
vn -0 0 1
vn -0 0 -1
vn -0 0 -1
vn -0 0 1
vn -0 0 1
vn -0 0 -1
vn -0 0 -1
g COL_FallGuy_Penguin_Solos_Slide_Enterance_0
f 3/3/3 2/2/2 1/1/1
f 3/3/3 4/4/4 2/2/2
f 7/7/7 6/6/6 5/5/5
f 7/7/7 8/8/8 6/6/6
f 11/11/11 10/10/10 9/9/9
f 11/11/11 12/12/12 10/10/10
f 15/15/15 14/14/14 13/13/13
f 15/15/15 16/16/16 14/14/14
f 19/19/19 18/18/18 17/17/17
f 19/19/19 20/20/20 18/18/18
f 23/23/23 22/22/22 21/21/21
f 23/23/23 24/24/24 22/22/22
f 27/27/27 26/26/26 25/25/25
f 27/27/27 28/28/28 26/26/26
f 31/31/31 30/30/30 29/29/29
f 31/31/31 32/32/32 30/30/30
f 35/35/35 34/34/34 33/33/33
f 35/35/35 36/36/36 34/34/34
f 39/39/39 38/38/38 37/37/37
f 39/39/39 40/40/40 38/38/38
f 43/43/43 42/42/42 41/41/41
f 43/43/43 44/44/44 42/42/42
f 47/47/47 46/46/46 45/45/45
f 47/47/47 48/48/48 46/46/46
f 51/51/51 50/50/50 49/49/49
f 51/51/51 52/52/52 50/50/50
f 55/55/55 54/54/54 53/53/53
f 55/55/55 56/56/56 54/54/54
f 59/59/59 58/58/58 57/57/57
f 59/59/59 60/60/60 58/58/58
f 63/63/63 62/62/62 61/61/61
f 63/63/63 64/64/64 62/62/62
f 67/67/67 66/66/66 65/65/65
f 67/67/67 68/68/68 66/66/66
f 71/71/71 70/70/70 69/69/69
f 71/71/71 72/72/72 70/70/70
f 75/75/75 74/74/74 73/73/73
f 75/75/75 76/76/76 74/74/74
f 79/79/79 78/78/78 77/77/77
f 79/79/79 80/80/80 78/78/78
f 83/83/83 82/82/82 81/81/81
f 83/83/83 84/84/84 82/82/82
f 87/87/87 86/86/86 85/85/85
f 87/87/87 88/88/88 86/86/86
f 91/91/91 90/90/90 89/89/89
f 91/91/91 92/92/92 90/90/90
f 95/95/95 94/94/94 93/93/93
f 95/95/95 96/96/96 94/94/94
f 99/99/99 98/98/98 97/97/97
f 99/99/99 100/100/100 98/98/98
f 103/103/103 102/102/102 101/101/101
f 103/103/103 104/104/104 102/102/102
f 107/107/107 106/106/106 105/105/105
f 107/107/107 108/108/108 106/106/106
f 111/111/111 110/110/110 109/109/109
f 111/111/111 112/112/112 110/110/110
f 115/115/115 114/114/114 113/113/113
f 115/115/115 116/116/116 114/114/114
f 119/119/119 118/118/118 117/117/117
f 119/119/119 120/120/120 118/118/118
f 123/123/123 122/122/122 121/121/121
f 123/123/123 124/124/124 122/122/122
f 127/127/127 126/126/126 125/125/125
f 127/127/127 128/128/128 126/126/126
f 131/131/131 130/130/130 129/129/129
f 131/131/131 132/132/132 130/130/130
f 135/135/135 134/134/134 133/133/133
f 135/135/135 136/136/136 134/134/134
f 132/132/132 137/137/137 130/130/130
f 132/132/132 138/138/138 137/137/137
f 140/140/140 133/133/133 139/139/139
f 140/140/140 135/135/135 133/133/133
f 138/138/138 141/141/141 137/137/137
f 138/138/138 142/142/142 141/141/141
f 144/144/144 139/139/139 143/143/143
f 144/144/144 140/140/140 139/139/139
f 142/142/142 145/145/145 141/141/141
f 142/142/142 146/146/146 145/145/145
f 148/148/148 143/143/143 147/147/147
f 148/148/148 144/144/144 143/143/143
f 146/146/146 149/149/149 145/145/145
f 146/146/146 150/150/150 149/149/149
f 152/152/152 147/147/147 151/151/151
f 152/152/152 148/148/148 147/147/147
f 150/150/150 153/153/153 149/149/149
f 150/150/150 154/154/154 153/153/153
f 156/156/156 151/151/151 155/155/155
f 156/156/156 152/152/152 151/151/151
f 154/154/154 157/157/157 153/153/153
f 154/154/154 158/158/158 157/157/157
f 160/160/160 155/155/155 159/159/159
f 160/160/160 156/156/156 155/155/155
f 158/158/158 161/161/161 157/157/157
f 158/158/158 162/162/162 161/161/161
f 164/164/164 159/159/159 163/163/163
f 164/164/164 160/160/160 159/159/159
f 162/162/162 165/165/165 161/161/161
f 162/162/162 166/166/166 165/165/165
f 168/168/168 163/163/163 167/167/167
f 168/168/168 164/164/164 163/163/163
f 166/166/166 169/169/169 165/165/165
f 166/166/166 170/170/170 169/169/169
f 172/172/172 167/167/167 171/171/171
f 172/172/172 168/168/168 167/167/167
f 170/170/170 173/173/173 169/169/169
f 170/170/170 174/174/174 173/173/173
f 176/176/176 171/171/171 175/175/175
f 176/176/176 172/172/172 171/171/171
f 174/174/174 177/177/177 173/173/173
f 174/174/174 178/178/178 177/177/177
f 180/180/180 175/175/175 179/179/179
f 180/180/180 176/176/176 175/175/175
f 178/178/178 181/181/181 177/177/177
f 178/178/178 182/182/182 181/181/181
f 184/184/184 179/179/179 183/183/183
f 184/184/184 180/180/180 179/179/179
f 182/182/182 185/185/185 181/181/181
f 182/182/182 186/186/186 185/185/185
f 188/188/188 183/183/183 187/187/187
f 188/188/188 184/184/184 183/183/183
f 186/186/186 189/189/189 185/185/185
f 186/186/186 190/190/190 189/189/189
f 192/192/192 187/187/187 191/191/191
f 192/192/192 188/188/188 187/187/187
f 190/190/190 129/129/129 189/189/189
f 190/190/190 131/131/131 129/129/129
f 136/136/136 191/191/191 134/134/134
f 136/136/136 192/192/192 191/191/191
