g COL_PB_S05_DT_Section05_Cube (56)
v 15.326157 0 5.5
v -28.976158 0 5.5
v 15.326157 13.999998 5.5
v -28.976158 13.999998 5.5
v -28.976158 0 5.5
v -36.452248 0 -4.120032
v -28.976158 13.999998 5.5
v -36.452248 11.5 -4.1200624
v -36.452248 0 -8.870138
v 22.802395 0 -8.870112
v -36.452248 11.5 -8.870169
v 22.802395 11.5 -8.870158
v 22.802395 0 -4.120006
v 15.326157 0 5.5
v 22.802395 11.5 -4.120052
v 15.326157 13.999998 5.5
v 15.326157 13.999998 5.5
v -28.976158 13.999998 5.5
v 22.802395 11.5 -4.120052
v -36.452248 11.5 -4.1200624
v 22.802395 0 -4.120006
v -36.452248 0 -4.120032
v 15.326157 0 5.5
v -28.976158 0 5.5
v -36.452248 0 -8.870138
v 22.802395 0 -8.870112
v -36.452248 11.5 -4.1200624
v -36.452248 0 -4.120032
v -36.452248 11.5 -8.870169
v -36.452248 0 -8.870138
v 22.802395 0 -4.120006
v 22.802395 11.5 -4.120052
v 22.802395 0 -8.870112
v 22.802395 11.5 -8.870158
v 22.802395 11.5 -4.120052
v -36.452248 11.5 -4.1200624
v 22.802395 11.5 -8.870158
v -36.452248 11.5 -8.870169
vt 15.326157 0
vt -28.976158 0
vt 15.326157 13.999998
vt -28.976158 13.999998
vt -13.437732 0
vt -25.6212 0
vt -13.437732 13.999998
vt -25.621225 11.5
vt 36.45225 2.3538663E-05
vt -22.802391 2.3538663E-05
vt 36.45225 11.500024
vt -22.802391 11.500024
vt 17.24545 -3.7802656E-05
vt 5.0619082 -3.7802656E-05
vt 17.245485 11.499962
vt 5.0619082 13.99996
vt -15.326157 8.844458
vt 28.976158 8.844458
vt -22.802395 -1.0951297
vt 36.452248 -1.09514
vt 22.802395 -4.120006
vt -36.452248 -4.120032
vt 15.326157 5.5
vt -28.976158 5.5
vt -36.452248 -8.870138
vt 22.802395 -8.870112
vt -4.1200624 11.5
vt -4.120032 0
vt -8.870169 11.5
vt -8.870138 0
vt 4.120006 0
vt 4.120052 11.5
vt 8.870112 0
vt 8.870158 11.5
vt -22.802395 -4.120052
vt 36.452248 -4.1200624
vt -22.802395 -8.870158
vt 36.452248 -8.870169
vn -0 0 1
vn -0 0 1
vn -0 0 1
vn -0 0 1
vn -0.78959703 0 0.6136257
vn -0.78959763 8.14188E-07 0.61362493
vn -0.78959763 8.14188E-07 0.61362493
vn -0.7895982 1.628376E-06 0.6136242
vn 4.345517E-07 -2.6537023E-06 -1
vn 3.0579565E-07 -3.317128E-06 -1
vn 3.0579565E-07 -3.317128E-06 -1
vn 1.7703958E-07 -3.9805536E-06 -1
vn 0.78959036 2.4426042E-06 0.6136343
vn 0.7895911 1.2213021E-06 0.6136334
vn 0.7895911 1.2213021E-06 0.6136334
vn 0.7895918 0 0.61363244
vn -0 0.9678523 -0.2515193
vn 2.0240382E-08 0.96785235 -0.2515192
vn 2.0240382E-08 0.96785235 -0.2515192
vn 4.0480764E-08 0.96785235 -0.25151908
vn -0 -1 0
vn -0 -1 0
vn -0 -1 0
vn -0 -1 0
vn -0 -1 0
vn -0 -1 0
vn -1 0 0
vn -1 0 0
vn -1 0 0
vn -1 0 0
vn 1 0 0
vn 1 0 0
vn 1 0 0
vn 1 0 0
vn -0 1 0
vn -0 1 0
vn -0 1 0
vn -0 1 0
g COL_PB_S05_DT_Section05_Cube (56)_0
f 3/3/3 2/2/2 1/1/1
f 3/3/3 4/4/4 2/2/2
f 7/7/7 6/6/6 5/5/5
f 7/7/7 8/8/8 6/6/6
f 11/11/11 10/10/10 9/9/9
f 11/11/11 12/12/12 10/10/10
f 15/15/15 14/14/14 13/13/13
f 15/15/15 16/16/16 14/14/14
f 19/19/19 18/18/18 17/17/17
f 19/19/19 20/20/20 18/18/18
f 23/23/23 22/22/22 21/21/21
f 23/23/23 24/24/24 22/22/22
f 25/25/25 21/21/21 22/22/22
f 25/25/25 26/26/26 21/21/21
f 29/29/29 28/28/28 27/27/27
f 29/29/29 30/30/30 28/28/28
f 33/33/33 32/32/32 31/31/31
f 33/33/33 34/34/34 32/32/32
f 37/37/37 36/36/36 35/35/35
f 37/37/37 38/38/38 36/36/36
