g COL_FallGuy_Penguin_Solos_New_Big_Slide_Bottom (1)
v 15.132357 17.13998 16.00607
v 14.9999075 16.000103 14.999998
v 14.566376 17.139982 16.223408
v 14.433927 16.0001 15.21733
v 14.999907 16.000103 6.9999976
v 14.950337 17.140066 6.6235185
v 14.433923 16.0001 7.2173157
v 14.384353 17.140057 6.8408475
v 15.04177 20.171282 14.047232
v 15.132357 17.13998 16.00607
v 14.475787 20.17129 14.264561
v 14.566376 17.139982 16.223408
v 14.999901 21.120935 10.6079235
v 14.992443 21.015102 11.055646
v 14.433917 21.120932 10.825242
v 14.426459 21.015112 11.272968
v 14.999899 21.063335 10.219621
v 14.999901 21.120935 10.6079235
v 14.433916 21.063332 10.436938
v 14.433917 21.120932 10.825242
v 14.999899 20.967953 9.838834
v 14.999899 21.063335 10.219621
v 14.433916 20.967949 10.056151
v 14.433916 21.063332 10.436938
v 14.999896 20.835707 9.469231
v 14.999899 20.967953 9.838834
v 14.433912 20.835703 9.686549
v 14.433916 20.967949 10.056151
v 14.999895 20.66787 9.1143675
v 14.999896 20.835707 9.469231
v 14.433911 20.667866 9.331686
v 14.433912 20.835703 9.686549
v 14.999894 20.466059 8.777666
v 14.999895 20.66787 9.1143675
v 14.433911 20.466055 8.994984
v 14.433911 20.667866 9.331686
v 14.999894 20.232216 8.462365
v 14.999894 20.466059 8.777666
v 14.433911 20.232212 8.679683
v 14.433911 20.466055 8.994984
v 15.00299 20.015102 8.153244
v 14.999894 20.232216 8.462365
v 14.437006 20.015095 8.370569
v 14.433911 20.232212 8.679683
v 14.950337 17.140066 6.6235185
v 15.00299 20.015102 8.153244
v 14.384353 17.140057 6.8408475
v 14.437006 20.015095 8.370569
v 14.992443 21.015102 11.055646
v 15.04177 20.171282 14.047232
v 14.426459 21.015112 11.272968
v 14.475787 20.17129 14.264561
v 14.433922 16.392168 7.2365785
v 14.433923 16.0001 7.2173157
v 14.384353 17.140057 6.8408475
v 14.433924 16.78046 7.2941732
v 14.433924 17.161238 7.3895545
v 14.433925 17.530834 7.521798
v 14.433923 17.885687 7.6896315
v 14.433922 18.22238 7.891437
v 14.566376 17.139982 16.223408
v 14.433927 16.0001 15.21733
v 14.433925 16.392168 15.198064
v 14.433925 16.78046 15.140458
v 14.433925 17.161238 15.045081
v 14.433925 17.530832 14.912835
v 14.433925 17.885685 14.745004
v 14.433924 18.22238 14.543195
v 14.475787 20.17129 14.264561
v 14.433925 18.537672 14.30936
v 14.433924 18.828527 14.045746
v 14.433925 19.092142 13.754892
v 14.433925 19.325977 13.439599
v 14.433926 19.527784 13.102903
v 14.433925 19.695618 12.748052
v 14.433925 19.82786 12.378454
v 14.426459 21.015112 11.272968
v 14.433923 19.92324 11.997678
v 14.433924 19.980839 11.609385
v 14.433923 20.0001 11.217316
v 14.433923 19.980839 10.825246
v 14.433917 21.120932 10.825242
v 14.433916 21.063332 10.436938
v 14.433923 19.92324 10.436954
v 14.433916 20.967949 10.056151
v 14.433925 19.82786 10.056177
v 14.433912 20.835703 9.686549
v 14.433911 20.667866 9.331686
v 14.433922 19.695618 9.686582
v 14.433911 20.466055 8.994984
v 14.433922 19.527784 9.331729
v 14.433911 20.232212 8.679683
v 14.433922 19.325977 8.995034
v 14.437006 20.015095 8.370569
v 14.433923 19.092142 8.679741
v 14.433924 18.828527 8.388887
v 14.433924 18.537672 8.125275
v 14.950337 17.140066 6.6235185
v 14.999907 18.222383 7.6741195
v 15.00299 20.015102 8.153244
v 14.999908 18.537676 7.9079566
v 14.9999075 18.828531 8.171571
v 14.999907 19.092146 8.462424
v 14.999907 19.325981 8.777717
v 14.999894 20.232216 8.462365
v 14.999906 19.527788 9.114411
v 14.999894 20.466059 8.777666
v 14.999906 19.695621 9.469264
v 14.999895 20.66787 9.1143675
v 14.9999075 19.827864 9.838859
v 14.999896 20.835707 9.469231
v 14.999899 20.967953 9.838834
v 14.999906 19.923244 10.219636
v 14.999899 21.063335 10.219621
v 14.999907 19.980843 10.607928
v 14.999901 21.120935 10.6079235
v 14.992443 21.015102 11.055646
v 14.999907 20.000103 10.999997
v 14.9999075 19.980843 11.392067
v 14.999907 19.923244 11.780359
v 14.9999075 19.827864 12.161137
v 15.04177 20.171282 14.047232
v 14.9999075 19.695621 12.530732
v 14.9999075 19.527788 12.885585
v 14.9999075 19.325981 13.222279
v 14.9999075 19.092144 13.537571
v 14.999907 18.82853 13.828425
v 14.9999075 18.537676 14.09204
v 14.999907 18.222383 14.325876
v 15.132357 17.13998 16.00607
v 14.9999075 17.885689 14.527683
v 14.9999075 17.530836 14.695517
v 14.9999075 17.161242 14.827761
v 14.9999075 16.780464 14.92314
v 14.9999075 16.392172 14.980737
v 14.9999075 16.000103 14.999998
v 14.9999075 17.88569 7.4723144
v 14.999908 17.530838 7.304481
v 14.9999075 17.161242 7.172237
v 14.9999075 16.780464 7.076856
v 14.999907 16.392172 7.01926
v 14.999907 16.000103 6.9999976
vt 8.388792 26.288874
vt 8.625801 24.781271
vt 7.782516 26.288877
vt 8.019527 24.781265
vt -11.4940195 11.551198
vt -11.582692 12.749467
vt -10.887748 11.551194
vt -10.976417 12.749454
vt 9.006527 7.5072823
vt 8.388901 3.9502363
vt 8.400252 7.5072913
vt 7.782625 3.9502354
vt -13.016537 5.1587243
vt -13.018736 5.6188407
vt -12.452899 5.3820586
vt -12.455098 5.8421755
vt -16.173515 13.065163
vt -16.176792 13.457701
vt -15.608448 13.284851
vt -15.611725 13.67739
vt -16.938538 14.248597
vt -16.94767 14.641043
vt -16.375154 14.4725685
vt -16.384287 14.865013
vt -17.696304 15.139481
vt -17.714308 15.531618
vt -17.135588 15.3700485
vt -17.153591 15.762185
vt -18.45154 15.712183
vt -18.481531 16.103588
vt -17.894665 15.9518795
vt -17.924656 16.343285
vt -19.207943 15.942073
vt -19.253206 16.332005
vt -18.656378 16.193747
vt -18.701641 16.58368
vt -19.967638 15.803318
vt -20.031683 16.19061
vt -19.423296 16.070255
vt -19.48734 16.457546
vt -19.71226 15.404146
vt -19.76601 15.778064
vt -19.165943 15.6670265
vt -19.219696 16.04094
vt -11.582389 20.499441
vt -11.083177 23.718052
vt -10.976113 20.49943
vt -10.476903 23.71804
vt -12.657251 4.6099796
vt -12.796602 7.7155604
vt -12.094518 4.835583
vt -12.23387 7.9411707
vt 7.2782884 16.384783
vt 7.259026 15.992714
vt 6.882416 17.132696
vt 7.335883 16.773075
vt 7.431264 17.153852
vt 7.563507 17.523449
vt 7.7313395 17.878302
vt 7.9331446 18.214994
vt 16.265463 17.132542
vt 15.2590065 15.992726
vt 15.23974 16.384794
vt 15.182136 16.773087
vt 15.086759 17.153864
vt 14.954514 17.523458
vt 14.786682 17.878311
vt 14.584874 18.215006
vt 14.306362 20.163893
vt 14.35104 18.530296
vt 14.087427 18.821152
vt 13.796576 19.084766
vt 13.481283 19.318602
vt 13.144589 19.520407
vt 12.789739 19.68824
vt 12.420143 19.820482
vt 11.31464 21.007736
vt 12.039368 19.915863
vt 11.651076 19.97346
vt 11.259009 19.99272
vt 10.866941 19.97346
vt 10.866938 21.113552
vt 10.478635 21.05595
vt 10.47865 19.91586
vt 10.09785 20.960567
vt 10.097876 19.820478
vt 9.728249 20.828321
vt 9.373387 20.660482
vt 9.728281 19.688236
vt 9.036686 20.458672
vt 9.37343 19.520403
vt 8.721387 20.224829
vt 9.036737 19.318594
vt 8.412284 20.00771
vt 8.721445 19.084759
vt 8.430593 18.821144
vt 8.166981 18.530289
vt -6.666721 17.132416
vt -7.717461 18.214708
vt -8.196592 20.007427
vt -7.9512973 18.53
vt -8.2149105 18.820856
vt -8.505762 19.084473
vt -8.8210535 19.318308
vt -8.505703 20.224543
vt -9.157747 19.520115
vt -8.821003 20.458385
vt -9.512598 19.687948
vt -9.157702 20.660196
vt -9.882191 19.820192
vt -9.512565 20.828033
vt -9.882166 20.960281
vt -10.262967 19.915573
vt -10.262952 21.055664
vt -10.6512575 19.973171
vt -10.651253 21.113264
vt -11.098951 21.007437
vt -11.043324 19.992434
vt -11.435393 19.973173
vt -11.823684 19.915575
vt -12.204459 19.820196
vt -14.090668 20.163595
vt -12.574054 19.687954
vt -12.928905 19.52012
vt -13.265597 19.318314
vt -13.580888 19.084478
vt -13.871741 18.820864
vt -14.135355 18.53001
vt -14.36919 18.214718
vt -16.049759 17.13225
vt -14.570996 17.878023
vt -14.738829 17.523172
vt -14.871073 17.153578
vt -14.966451 16.7728
vt -15.024048 16.384508
vt -15.043309 15.992439
vt -7.5156565 17.878016
vt -7.347824 17.523163
vt -7.2155805 17.153566
vt -7.1202 16.772789
vt -7.062604 16.384497
vt -7.043342 15.992428
vn 0.2710406 -0.6544729 0.70583445
vn 0.27103972 -0.6544732 0.7058345
vn 0.27103972 -0.6544732 0.7058345
vn 0.2710389 -0.6544735 0.7058345
vn -0.34100702 -0.30813625 -0.8881251
vn -0.34101334 -0.3081328 -0.88812387
vn -0.34101334 -0.3081328 -0.88812387
vn -0.34101966 -0.30812934 -0.8881227
vn 0.30549002 0.52322227 0.79555917
vn 0.305494 0.52322227 0.7955576
vn 0.305494 0.52322227 0.7955576
vn 0.30549797 0.52322227 0.7955561
vn 0.08851093 0.96903026 0.23053463
vn 0.08851752 0.9690331 0.23051998
vn 0.08851752 0.9690331 0.23051998
vn 0.088524096 0.96903604 0.23050533
vn -0.056257404 0.98760974 -0.14649968
vn -0.056257434 0.98760974 -0.14649957
vn -0.056257434 0.98760974 -0.14649957
vn -0.056257468 0.98760974 -0.14649945
vn -0.09289942 0.96583605 -0.2419307
vn -0.09289942 0.96583605 -0.2419307
vn -0.09289942 0.96583605 -0.2419307
vn -0.09289942 0.96583605 -0.2419307
vn -0.1282912 0.93376404 -0.33410487
vn -0.12829113 0.933764 -0.3341051
vn -0.12829113 0.933764 -0.3341051
vn -0.12829104 0.9337639 -0.33410534
vn -0.1620034 0.8920486 -0.42190552
vn -0.1620034 0.8920486 -0.42190552
vn -0.1620034 0.8920486 -0.42190552
vn -0.1620034 0.8920486 -0.42190552
vn -0.19366561 0.8414902 -0.5043688
vn -0.19366574 0.8414904 -0.5043684
vn -0.19366574 0.8414904 -0.5043684
vn -0.19366588 0.84149057 -0.5043681
vn -0.22297439 0.7829866 -0.58070177
vn -0.22297439 0.7829866 -0.58070177
vn -0.22297439 0.7829866 -0.58070177
vn -0.22297439 0.7829866 -0.58070177
vn -0.21604821 0.7979791 -0.56263006
vn -0.21604502 0.7979742 -0.56263816
vn -0.21604502 0.7979742 -0.56263816
vn -0.21604182 0.7979694 -0.5626462
vn -0.32020727 0.4495526 -0.83388835
vn -0.32020444 0.4495525 -0.8338895
vn -0.32020444 0.4495525 -0.8338895
vn -0.32020158 0.44955242 -0.8338907
vn 0.10309386 0.9577609 0.26845062
vn 0.10309392 0.95776093 0.26845062
vn 0.10309392 0.95776093 0.26845062
vn 0.103093974 0.95776093 0.26845062
vn -0.99431217 -0.010017044 0.10561608
vn -0.9934804 -0.0055967704 0.11386573
vn -0.9944606 -0.030080806 0.096739985
vn -0.9953755 -0.01859381 0.094094664
vn -0.9954538 -0.027685538 0.09099954
vn -0.9946233 -0.03979996 0.09524682
vn -0.99188125 -0.060082063 0.11070737
vn -0.9959121 -0.028498372 0.060339123
vn -0.99233997 0.036957078 0.11559266
vn -0.9922948 0.0060762195 0.1237503
vn -0.99271154 0.011625273 0.11975704
vn -0.9932107 0.022633927 0.113961354
vn -0.9930755 0.034143068 0.11224361
vn -0.992247 0.047687724 0.11450178
vn -0.99030715 0.06564962 0.12183566
vn -0.9940579 0.04618765 0.08810371
vn -0.9987189 0.029373487 0.031365946
vn -0.9991153 0.026493892 0.03248811
vn -0.99927765 0.026776 0.026869316
vn -0.9993448 0.027929008 0.022947364
vn -0.999349 0.029968917 0.020003531
vn -0.9992923 0.033144634 0.017649926
vn -0.9991478 0.03806708 0.015640777
vn -0.99957925 0.015056156 0.010866362
vn -0.99991125 -0.0030329966 2.0791776E-05
vn -0.99996746 -0.007888908 -0.0015874746
vn -0.99997187 -0.0074583963 -0.00074259366
vn -0.99997294 -0.007352986 2.1853339E-06
vn -0.9999585 -0.0018471678 -0.004072385
vn -0.9999306 -5.046441E-06 -0.008326296
vn -1 -5.5765813E-06 1.8452605E-06
vn -1 -6.413105E-06 -2.6266807E-07
vn -1 -6.970675E-06 3.7860407E-06
vn -1 -7.935948E-06 6.850254E-06
vn -1 -8.585559E-06 1.0131461E-05
vn -1 -8.513375E-06 7.6052784E-06
vn -1 -8.485084E-06 6.6960947E-06
vn -1 -9.080418E-06 5.4586017E-06
vn -1 -9.32214E-06 5.603491E-06
vn -0.9999879 -0.0009423797 -0.0026753256
vn -0.9999861 -4.7765596E-05 -0.0033398187
vn -0.9996442 -0.001221334 0.007291954
vn -0.9999943 0.0026183713 -0.0021560148
vn -0.99999344 0.0025579236 -0.0025715837
vn -0.9999913 0.002620169 -0.0032159244
vn 0.99446106 0.030079098 -0.09673641
vn 0.9959124 0.028497638 -0.060337637
vn 0.9996442 0.0012217892 -0.0072916574
vn 0.9999913 -0.002619697 0.003217103
vn 0.99999344 -0.0025578698 0.002573328
vn 0.9999943 -0.0026187522 0.0021547857
vn 0.9999861 4.9191836E-05 0.0033398268
vn 0.9999879 0.0009443357 0.002675947
vn 1 1.0731699E-05 -5.505651E-06
vn 1 9.354869E-06 -6.568697E-06
vn 1 8.769642E-06 -6.8469963E-06
vn 1 8.239499E-06 -7.492061E-06
vn 1 7.942636E-06 -5.5392834E-06
vn 1 8.182403E-06 -8.650629E-06
vn 1 6.9706966E-06 -2.9259509E-06
vn 1 6.413093E-06 -5.5602374E-07
vn 1 5.5765663E-06 -3.4826207E-06
vn 0.9999585 0.0018471954 0.004071192
vn 0.9999306 5.053401E-06 0.008325141
vn 0.99991125 0.003033231 -2.0261234E-05
vn 0.99997294 0.0073530828 -2.1861488E-06
vn 0.99997187 0.0074584996 0.00074260513
vn 0.99996746 0.0078900205 0.0015889991
vn 0.99957925 -0.015055955 -0.010865438
vn 0.9987188 -0.029374178 -0.03136631
vn 0.9991478 -0.038069293 -0.015640467
vn 0.99929225 -0.033145893 -0.017650535
vn 0.999349 -0.029968314 -0.020004774
vn 0.9993448 -0.027929273 -0.022947667
vn 0.9992776 -0.026776338 -0.026869468
vn 0.9991152 -0.026494272 -0.03248836
vn 0.9940579 -0.046187896 -0.088104196
vn 0.99234 -0.036957413 -0.115592815
vn 0.9903071 -0.065649875 -0.121836245
vn 0.99224687 -0.047688007 -0.11450237
vn 0.9930755 -0.034143142 -0.11224389
vn 0.9932106 -0.022633057 -0.11396212
vn 0.99271166 -0.011625682 -0.11975631
vn 0.99229515 -0.006079409 -0.12374759
vn 0.9918821 0.06007756 -0.1107015
vn 0.99462396 0.03979635 -0.09524141
vn 0.9954542 0.027684342 -0.09099562
vn 0.995376 0.01859421 -0.0940896
vn 0.99431235 0.010016742 -0.10561373
vn 0.9934802 0.0055942917 -0.11386729
g COL_FallGuy_Penguin_Solos_New_Big_Slide_Bottom (1)_0
f 3/3/3 2/2/2 1/1/1
f 3/3/3 4/4/4 2/2/2
f 7/7/7 6/6/6 5/5/5
f 7/7/7 8/8/8 6/6/6
f 11/11/11 10/10/10 9/9/9
f 11/11/11 12/12/12 10/10/10
f 15/15/15 14/14/14 13/13/13
f 15/15/15 16/16/16 14/14/14
f 19/19/19 18/18/18 17/17/17
f 19/19/19 20/20/20 18/18/18
f 23/23/23 22/22/22 21/21/21
f 23/23/23 24/24/24 22/22/22
f 27/27/27 26/26/26 25/25/25
f 27/27/27 28/28/28 26/26/26
f 31/31/31 30/30/30 29/29/29
f 31/31/31 32/32/32 30/30/30
f 35/35/35 34/34/34 33/33/33
f 35/35/35 36/36/36 34/34/34
f 39/39/39 38/38/38 37/37/37
f 39/39/39 40/40/40 38/38/38
f 43/43/43 42/42/42 41/41/41
f 43/43/43 44/44/44 42/42/42
f 47/47/47 46/46/46 45/45/45
f 47/47/47 48/48/48 46/46/46
f 51/51/51 50/50/50 49/49/49
f 51/51/51 52/52/52 50/50/50
f 55/55/55 54/54/54 53/53/53
f 55/55/55 53/53/53 56/56/56
f 55/55/55 56/56/56 57/57/57
f 55/55/55 57/57/57 58/58/58
f 55/55/55 58/58/58 59/59/59
f 55/55/55 59/59/59 60/60/60
f 63/63/63 62/62/62 61/61/61
f 64/64/64 63/63/63 61/61/61
f 65/65/65 64/64/64 61/61/61
f 61/61/61 66/66/66 65/65/65
f 66/66/66 61/61/61 67/67/67
f 67/67/67 61/61/61 68/68/68
f 61/61/61 69/69/69 68/68/68
f 69/69/69 70/70/70 68/68/68
f 69/69/69 71/71/71 70/70/70
f 72/72/72 71/71/71 69/69/69
f 73/73/73 72/72/72 69/69/69
f 69/69/69 74/74/74 73/73/73
f 74/74/74 69/69/69 75/75/75
f 75/75/75 69/69/69 76/76/76
f 69/69/69 77/77/77 76/76/76
f 77/77/77 78/78/78 76/76/76
f 77/77/77 79/79/79 78/78/78
f 77/77/77 80/80/80 79/79/79
f 77/77/77 81/81/81 80/80/80
f 77/77/77 82/82/82 81/81/81
f 81/81/81 82/82/82 83/83/83
f 83/83/83 84/84/84 81/81/81
f 83/83/83 85/85/85 84/84/84
f 85/85/85 86/86/86 84/84/84
f 85/85/85 87/87/87 86/86/86
f 86/86/86 87/87/87 88/88/88
f 86/86/86 88/88/88 89/89/89
f 88/88/88 90/90/90 89/89/89
f 90/90/90 91/91/91 89/89/89
f 90/90/90 92/92/92 91/91/91
f 92/92/92 93/93/93 91/91/91
f 92/92/92 94/94/94 93/93/93
f 94/94/94 95/95/95 93/93/93
f 94/94/94 96/96/96 95/95/95
f 94/94/94 97/97/97 96/96/96
f 60/60/60 97/97/97 94/94/94
f 55/55/55 60/60/60 94/94/94
f 100/100/100 99/99/99 98/98/98
f 100/100/100 101/101/101 99/99/99
f 102/102/102 101/101/101 100/100/100
f 103/103/103 102/102/102 100/100/100
f 104/104/104 103/103/103 100/100/100
f 104/104/104 100/100/100 105/105/105
f 106/106/106 104/104/104 105/105/105
f 106/106/106 105/105/105 107/107/107
f 108/108/108 106/106/106 107/107/107
f 108/108/108 107/107/107 109/109/109
f 108/108/108 109/109/109 110/110/110
f 109/109/109 111/111/111 110/110/110
f 110/110/110 111/111/111 112/112/112
f 113/113/113 110/110/110 112/112/112
f 113/113/113 112/112/112 114/114/114
f 115/115/115 113/113/113 114/114/114
f 114/114/114 116/116/116 115/115/115
f 115/115/115 116/116/116 117/117/117
f 118/118/118 115/115/115 117/117/117
f 119/119/119 118/118/118 117/117/117
f 120/120/120 119/119/119 117/117/117
f 121/121/121 120/120/120 117/117/117
f 121/121/121 117/117/117 122/122/122
f 121/121/121 122/122/122 123/123/123
f 123/123/123 122/122/122 124/124/124
f 125/125/125 124/124/124 122/122/122
f 122/122/122 126/126/126 125/125/125
f 122/122/122 127/127/127 126/126/126
f 128/128/128 127/127/127 122/122/122
f 129/129/129 128/128/128 122/122/122
f 129/129/129 122/122/122 130/130/130
f 129/129/129 130/130/130 131/131/131
f 131/131/131 130/130/130 132/132/132
f 133/133/133 132/132/132 130/130/130
f 130/130/130 134/134/134 133/133/133
f 130/130/130 135/135/135 134/134/134
f 130/130/130 136/136/136 135/135/135
f 99/99/99 137/137/137 98/98/98
f 137/137/137 138/138/138 98/98/98
f 138/138/138 139/139/139 98/98/98
f 139/139/139 140/140/140 98/98/98
f 140/140/140 141/141/141 98/98/98
f 141/141/141 142/142/142 98/98/98
