g COL_FallGuy_ShortCircuit2_COL_ProB_FinaleRamp
v -5.9922724 0 -1.7722073
v -5.9922724 6.4241037 -1.7722073
v -5.9922724 0.021419525 10.316076
v -5.9922724 0 -1.7722073
v -0 0 -1.7722073
v -5.9922724 6.4241037 -1.7722073
v -0 6.4241037 -1.7722073
v -0 0 -1.7722073
v -0 0.021419525 10.316076
v -0 6.4241037 -1.7722073
v -0 0.021419525 10.316076
v -5.9922724 0.021419525 10.316076
v -0 6.4241037 -1.7722073
v -5.9922724 6.4241037 -1.7722073
v -0 0 -1.7722073
v -5.9922724 0 -1.7722073
v -0 0.021419525 10.316076
v -5.9922724 0.021419525 10.316076
vt -1.7722073 0
vt -1.7722073 6.4241037
vt 10.316076 0.021419525
vt 5.9922724 0
vt 0 0
vt 5.9922724 6.4241037
vt 0 6.4241037
vt 1.7722073 0
vt -10.316076 0.021419525
vt 1.7722073 6.4241037
vt 0 9.106261
vt 5.9922724 9.106261
vt 0 -4.5729556
vt 5.9922724 -4.5729556
vt 0 -1.7722045
vt -5.9922724 -1.7722045
vt 0 10.316098
vt -5.9922724 10.316098
vn -1 0 0
vn -1 0 0
vn -1 0 0
vn -0 0 -1
vn -0 0 -1
vn -0 0 -1
vn -0 0 -1
vn 1 0 0
vn 1 0 0
vn 1 0 0
vn -0 0.8836971 0.46805927
vn -0 0.8836971 0.46805927
vn -0 0.8836971 0.46805927
vn -0 0.8836971 0.46805927
vn -0 -0.99999845 0.0017719218
vn -0 -0.99999845 0.0017719218
vn -0 -0.99999845 0.0017719218
vn -0 -0.99999845 0.0017719218
g COL_FallGuy_ShortCircuit2_COL_ProB_FinaleRamp_0
f 3/3/3 2/2/2 1/1/1
f 6/6/6 5/5/5 4/4/4
f 6/6/6 7/7/7 5/5/5
f 10/10/10 9/9/9 8/8/8
f 13/13/13 12/12/12 11/11/11
f 13/13/13 14/14/14 12/12/12
f 17/17/17 16/16/16 15/15/15
f 17/17/17 18/18/18 16/16/16
