g COL_FallGuy_Penguin_Solos_Spawn_Slide_Top_2 (1)
v -1.3391695 0.22228074 2.3345873
v -1.5288067 -0.11441338 2.403609
v -1.3392519 4.5099993 2.3346171
v -1.5288935 4.5099993 2.4036407
v -1.6865177 -0.4692664 2.4610116
v -1.686608 4.5099993 2.461045
v -1.9545374 -1.6079316 2.5585625
v -1.97264 -3.323334 2.5651522
v -1.9546353 4.5099993 2.5585983
v -1.9727383 4.5099993 2.5651886
v -1.8107862 -0.8388616 2.5062416
v -1.9004135 -1.219639 2.5388634
v -1.8108807 4.5099993 2.5062757
v -1.9005097 4.5099993 2.538898
v -2.8579865 -1.6079316 -2.5651515
v -2.8003893 -1.219639 -2.5651515
v -2.8580909 4.5099993 -2.5651512
v -2.800492 4.5099993 -2.5651515
v -2.8772507 -3.323334 -2.5651517
v -2.8579865 -1.6079316 -2.5651515
v -2.8773558 4.5099993 -2.5651515
v -2.7050095 -0.8388616 -2.5651515
v -2.7051091 4.5099993 -2.5651517
v -2.5727663 -0.4692664 -2.5651515
v -2.5728624 4.5099993 -2.5651517
v -2.404933 -0.11441338 -2.5651515
v -2.405025 4.5099993 -2.5651517
v -2.203126 0.22228074 -2.5651515
v -2.2032137 4.5099993 -2.5651515
v -1.9692898 0.53757286 -2.5651515
v -1.969371 4.5099993 -2.5651517
v -1.7056751 0.82842684 -2.5651515
v -1.7057502 4.5099993 -2.565151
v -1.4148207 1.0920415 -2.5651515
v -1.4148886 4.5099993 -2.565152
v -1.0995283 1.3258781 -2.5651515
v -1.0995877 4.5099993 -2.5651517
v -0.76283455 1.5276847 -2.5651515
v -0.76288694 4.5099993 -2.565152
v -0.40798187 1.6955178 -2.5651515
v -0.40802523 4.5099993 -2.5651522
v -0.038386345 1.8277612 -2.5651515
v -0.038419615 4.5099993 -2.5651517
v 0.342391 1.9231408 -2.5651515
v 0.34236568 4.5099993 -2.565153
v 0.7306833 1.9807386 -2.5651515
v 0.34236568 4.5099993 -2.565153
v 0.73066616 4.5099993 -2.5651522
v 1.1227522 1.9999998 -2.5651515
v 1.1227485 4.5099993 -2.5651522
v 1.514821 1.9807386 -2.5651515
v 1.5148251 4.5099993 -2.5651531
v 1.9031134 1.9231408 -2.5651515
v 1.903125 4.5099993 -2.5651534
v 2.2838907 1.8277609 -2.5651515
v 2.2839096 4.5099993 -2.5651536
v 2.1545572 1.9807386 1.0629745
v 1.7861338 1.9999998 1.1970699
v 2.1545613 4.5099993 1.0629718
v 1.7861295 4.5099993 1.1970707
v 2.8772469 1.8277609 0.79993725
v 2.519433 1.9231408 0.9301708
v 2.8772647 4.5099993 0.79992956
v 2.5194445 4.5099993 0.93016547
v 1.4177094 1.9807386 1.3311653
v 1.4176937 4.5099993 1.3311698
v 1.0528336 1.9231408 1.463969
v 1.0528097 4.5099993 1.4639771
v 0.6950197 1.8277612 1.5942028
v 0.6949883 4.5099993 1.5942138
v 0.34771347 1.6955178 1.7206118
v 0.34767306 4.5099993 1.7206264
v 0.014261246 1.5276847 1.8419783
v 0.01421233 4.5099993 1.8419958
v -0.30212688 1.3258781 1.9571345
v -0.3021833 4.5099993 1.957155
v -0.5984049 1.0920415 2.0649707
v -0.5984685 4.5099993 2.0649936
v -0.87171936 0.82842684 2.164449
v -0.8717902 4.5099993 2.1644745
v -1.1194353 0.53757286 2.2546103
v -1.1195117 4.5099993 2.254638
v 2.3479137 4.53518 -0.8478832
v 2.2839096 4.5099993 -2.5651536
v 2.2838907 1.8277609 -2.5651515
v 2.3478956 1.852942 -0.84787786
v 2.3479137 4.53518 -0.8478832
v 2.3478956 1.852942 -0.84787786
v 2.8772647 4.5099993 0.79992956
v 2.8772469 1.8277609 0.79993725
v -2.758251 4.5099955 0.067553945
v -2.7581503 -3.3233378 0.067536175
v -2.8772507 -3.323334 -2.5651517
v -2.8773558 4.5099993 -2.5651515
v -1.9727383 4.5099993 2.5651886
v -1.97264 -3.323334 2.5651522
v -2.758251 4.5099955 0.067553945
v -2.7581503 -3.3233378 0.067536175
v -2.8773558 4.5099993 -2.5651515
v 2.2839096 4.5099993 -2.5651536
v -2.758251 4.5099955 0.067553945
v 2.3479137 4.53518 -0.8478832
v -2.758251 4.5099955 0.067553945
v 2.3479137 4.53518 -0.8478832
v 2.8772647 4.5099993 0.79992956
v -1.9727383 4.5099993 2.5651886
vt -2.0568788 0.22228067
vt -2.2586863 -0.11441345
vt -2.0569665 4.5099993
vt -2.2587788 4.5099993
vt -2.4265287 -0.46926638
vt -2.4266248 4.5099993
vt -2.7118175 -1.6079316
vt -2.7310822 -3.323334
vt -2.7119217 4.5099993
vt -2.7311869 4.5099993
vt -2.558771 -0.83886164
vt -2.6541502 -1.2196391
vt -2.5588713 4.5099993
vt -2.6542525 4.5099993
vt 2.8579857 -1.6079317
vt 2.8003886 -1.2196391
vt 2.8580902 4.5099993
vt 2.8004913 4.5099993
vt 2.8772755 -3.323334
vt 2.8580112 -1.6079317
vt 2.8773806 4.5099993
vt 2.7050095 -0.8388616
vt 2.7051091 4.5099993
vt 2.5727665 -0.4692663
vt 2.5728626 4.5099993
vt 2.4049332 -0.11441326
vt 2.4050252 4.5099993
vt 2.2031262 0.22228087
vt 2.203214 4.5099993
vt 1.9692898 0.53757286
vt 1.969371 4.5099993
vt 1.7056752 0.828427
vt 1.7057503 4.5099993
vt 1.4148203 1.0920411
vt 1.4148883 4.509999
vt 1.0995286 1.3258785
vt 1.0995879 4.5099998
vt 0.76283467 1.5276849
vt 0.76288706 4.5099993
vt 0.40798208 1.6955181
vt 0.40802544 4.5099998
vt 0.03838658 1.8277618
vt 0.03841985 4.5099998
vt -0.34239095 1.923141
vt -0.34236562 4.5099993
vt -0.7306831 1.9807401
vt -0.34236547 4.5100007
vt -0.7306659 4.5100007
vt -1.1227522 2.0000005
vt -1.1227485 4.51
vt -1.514821 1.9807394
vt -1.5148251 4.51
vt -1.9031136 1.9231424
vt -1.9031253 4.510001
vt -2.2838912 1.8277628
vt -2.28391 4.510001
vt 1.6610616 1.9807379
vt 1.2689935 1.999999
vt 1.6610664 4.5099983
vt 1.2689892 4.5099983
vt 2.430133 1.8277602
vt 2.0493555 1.92314
vt 2.4301524 4.5099983
vt 2.0493681 4.5099983
vt 0.8769261 1.9807382
vt 0.8769099 4.509999
vt 0.4886342 1.92314
vt 0.48860902 4.5099983
vt 0.107854776 1.8277608
vt 0.107821465 4.509999
vt -0.26173967 1.6955175
vt -0.26178265 4.5099993
vt -0.6165916 1.5276846
vt -0.61664355 4.5099993
vt -0.9532873 1.325878
vt -0.9533473 4.5099993
vt -1.2685776 1.0920415
vt -1.2686452 4.5099993
vt -1.5594329 0.8284267
vt -1.5595081 4.5099993
vt -1.8230476 0.53757274
vt -1.8231289 4.5099993
vt 0.42849693 4.5351977
vt 2.1309073 4.5100183
vt 2.1309085 1.8277801
vt 0.42849478 1.8529595
vt 0.42849693 4.5351977
vt 0.42849478 1.8529595
vt -1.2860872 4.5100183
vt -1.2860916 1.8277801
vt -0.4135979 4.5100317
vt -0.41359788 -3.3233016
vt -3.0268261 -3.3233023
vt -3.0268443 4.5100307
vt 2.1826394 4.5100307
vt 2.1826205 -3.3233023
vt -0.4135979 4.5100317
vt -0.41359788 -3.3233016
vt 2.8726797 -2.6010547
vt -2.288583 -2.6010141
vt 2.7535748 0.03156801
vt -2.3526132 -0.8839987
vt 2.7535748 0.03156801
vt -2.3526132 -0.8839987
vt -2.8819377 0.7639669
vt 1.9680625 2.5291297
vn 0.34201753 3.922104E-08 0.9396936
vn 0.3420182 7.1260207E-09 0.93969333
vn 0.3420182 7.1260207E-09 0.93969333
vn 0.34201887 -2.4968998E-08 0.9396931
vn 0.34202382 -6.2726926E-08 0.9396913
vn 0.34202486 -1.0056745E-07 0.9396909
vn 0.34205976 -2.0895342E-08 0.9396782
vn 0.3420723 -5.352136E-08 0.9396736
vn 0.3420723 -5.352136E-08 0.9396736
vn 0.34208483 -8.614738E-08 0.939669
vn 0.34202188 4.7457476E-08 0.939692
vn 0.34202117 6.0135065E-08 0.93969226
vn 0.34202117 6.0135065E-08 0.93969226
vn 0.34202042 7.281266E-08 0.93969256
vn -2.6269007E-07 3.8965975E-08 -1
vn -2.2009929E-06 1.9445869E-08 -1
vn -2.2009929E-06 1.9445869E-08 -1
vn -4.1392955E-06 -7.4236346E-11 -1
vn 9.654456E-06 3.0566003E-08 -1
vn 1.1015118E-05 3.4873853E-08 -1
vn 1.1015118E-05 3.4873853E-08 -1
vn -1.2497969E-06 -2.2310141E-08 -1
vn -2.4995938E-06 -4.4620283E-08 -1
vn 6.228439E-08 -4.6226834E-08 -1
vn -0 -4.7882278E-08 -1
vn 5.0617114E-08 -4.9718416E-08 -1
vn -0 -5.1556512E-08 -1
vn 6.3370373E-07 -2.5765313E-08 -1
vn 1.1813936E-06 2.4174428E-11 -1
vn -5.0978406E-07 -3.0019606E-08 -1
vn -1.0195681E-06 -6.003921E-08 -1
vn 1.3897092E-06 3.4779145E-08 -1
vn 2.7131998E-06 1.2957531E-07 -1
vn -1.6980891E-06 -5.0284967E-09 -1
vn -3.2787907E-06 -1.3957457E-07 -1
vn 4.2981378E-07 -1.07185286E-07 -1
vn 7.561619E-07 -7.486326E-08 -1
vn -3.3161152E-07 -1.1738862E-07 -1
vn -7.0810233E-07 -1.5990072E-07 -1
vn -2.9812117E-07 -2.070157E-07 -1
vn -6.7186335E-07 -2.5414445E-07 -1
vn 6.905272E-07 -1.7150232E-07 -1
vn 1.2901243E-06 -8.887192E-08 -1
vn -1.5541759E-06 -3.2095502E-07 -1
vn -3.130617E-06 -5.530224E-07 -1
vn 9.620223E-07 -4.1788545E-07 -1
vn 9.620223E-07 -4.1788545E-07 -1
vn 1.8420161E-06 -2.8277992E-07 -1
vn 6.946353E-09 -2.838774E-07 -1
vn -0 -2.849625E-07 -1
vn -1.2231833E-06 -4.7240383E-07 -1
vn -2.4323672E-06 -6.598451E-07 -1
vn -3.559429E-07 -6.985842E-07 -1
vn -6.140062E-07 -7.3731957E-07 -1
vn -4.0540712E-07 -7.686542E-07 -1
vn -6.261247E-07 -7.999869E-07 -1
vn 0.34202075 4.262873E-07 0.9396924
vn 0.34202123 3.4933043E-07 0.93969226
vn 0.34202123 3.4933043E-07 0.93969226
vn 0.34202167 2.723736E-07 0.9396921
vn 0.3420201 4.1364703E-07 0.9396926
vn 0.3420201 4.1378973E-07 0.9396926
vn 0.3420201 4.1378973E-07 0.9396926
vn 0.3420201 4.1393244E-07 0.9396926
vn 0.34201944 3.505454E-07 0.93969285
vn 0.34201896 4.2872037E-07 0.93969303
vn 0.3420202 3.1816552E-07 0.9396926
vn 0.3420209 2.0760697E-07 0.9396924
vn 0.3420208 1.6449353E-07 0.9396924
vn 0.34202108 1.2138413E-07 0.93969226
vn 0.34202015 8.826669E-08 0.9396926
vn 0.3420204 5.5164808E-08 0.93969256
vn 0.34201953 7.1705706E-08 0.93969285
vn 0.3420194 8.82582E-08 0.9396929
vn 0.3420213 4.8536286E-08 0.93969226
vn 0.3420216 8.786373E-09 0.9396921
vn 0.34201947 4.0057206E-08 0.93969285
vn 0.34201917 7.136466E-08 0.939693
vn 0.34201986 6.913072E-08 0.93969274
vn 0.34201986 6.688274E-08 0.93969274
vn 0.34202057 5.1853164E-08 0.9396925
vn 0.3420208 3.68124E-08 0.9396924
vn 0.99930614 -6.9361768E-06 -0.037245095
vn 0.99930614 -7.0470687E-06 -0.037244916
vn 0.99930614 -6.9361768E-06 -0.037245095
vn 0.99930614 -6.8252843E-06 -0.03724527
vn 0.9520796 -7.043452E-06 -0.30585054
vn 0.95207965 -7.133671E-06 -0.30585042
vn 0.95207965 -7.133671E-06 -0.30585042
vn 0.95207965 -7.223889E-06 -0.3058503
vn -0.99897826 -1.3171842E-05 0.045193553
vn -0.9989783 -1.2933563E-05 0.045192845
vn -0.99897826 -1.3171842E-05 0.045193553
vn -0.99897826 -1.341012E-05 0.045194257
vn -0.9539345 -1.3359251E-05 0.3000149
vn -0.9539343 -1.3148298E-05 0.3000155
vn -0.9539343 -1.3148298E-05 0.3000155
vn -0.95393413 -1.2937346E-05 0.30001613
vn 6.0239894E-13 1 1.4489647E-06
vn -0.0037549343 0.9999342 -0.00719
vn -0.0037549343 0.9999342 -0.00719
vn -0.0075098686 0.99986833 -0.014381449
vn -0.0010366896 0.9999353 0.007971956
vn -0.0020728805 0.99987066 0.015945284
vn -0.0010366896 0.9999353 0.007971956
vn -4.9880333E-07 1 -1.3704491E-06
g COL_FallGuy_Penguin_Solos_Spawn_Slide_Top_2 (1)_0
f 3/3/3 2/2/2 1/1/1
f 3/3/3 4/4/4 2/2/2
f 4/4/4 5/5/5 2/2/2
f 4/4/4 6/6/6 5/5/5
f 9/9/9 8/8/8 7/7/7
f 9/9/9 10/10/10 8/8/8
f 13/13/13 12/12/12 11/11/11
f 13/13/13 14/14/14 12/12/12
f 14/14/14 7/7/7 12/12/12
f 14/14/14 9/9/9 7/7/7
f 6/6/6 11/11/11 5/5/5
f 6/6/6 13/13/13 11/11/11
f 17/17/17 16/16/16 15/15/15
f 17/17/17 18/18/18 16/16/16
f 21/21/21 20/20/20 19/19/19
f 21/21/21 17/17/17 20/20/20
f 18/18/18 22/22/22 16/16/16
f 18/18/18 23/23/23 22/22/22
f 23/23/23 24/24/24 22/22/22
f 23/23/23 25/25/25 24/24/24
f 25/25/25 26/26/26 24/24/24
f 25/25/25 27/27/27 26/26/26
f 27/27/27 28/28/28 26/26/26
f 27/27/27 29/29/29 28/28/28
f 29/29/29 30/30/30 28/28/28
f 29/29/29 31/31/31 30/30/30
f 31/31/31 32/32/32 30/30/30
f 31/31/31 33/33/33 32/32/32
f 33/33/33 34/34/34 32/32/32
f 33/33/33 35/35/35 34/34/34
f 35/35/35 36/36/36 34/34/34
f 35/35/35 37/37/37 36/36/36
f 37/37/37 38/38/38 36/36/36
f 37/37/37 39/39/39 38/38/38
f 39/39/39 40/40/40 38/38/38
f 39/39/39 41/41/41 40/40/40
f 41/41/41 42/42/42 40/40/40
f 41/41/41 43/43/43 42/42/42
f 43/43/43 44/44/44 42/42/42
f 43/43/43 45/45/45 44/44/44
f 47/47/47 46/46/46 44/44/44
f 47/47/47 48/48/48 46/46/46
f 48/48/48 49/49/49 46/46/46
f 48/48/48 50/50/50 49/49/49
f 50/50/50 51/51/51 49/49/49
f 50/50/50 52/52/52 51/51/51
f 52/52/52 53/53/53 51/51/51
f 52/52/52 54/54/54 53/53/53
f 54/54/54 55/55/55 53/53/53
f 54/54/54 56/56/56 55/55/55
f 59/59/59 58/58/58 57/57/57
f 59/59/59 60/60/60 58/58/58
f 63/63/63 62/62/62 61/61/61
f 63/63/63 64/64/64 62/62/62
f 64/64/64 57/57/57 62/62/62
f 64/64/64 59/59/59 57/57/57
f 60/60/60 65/65/65 58/58/58
f 60/60/60 66/66/66 65/65/65
f 66/66/66 67/67/67 65/65/65
f 66/66/66 68/68/68 67/67/67
f 68/68/68 69/69/69 67/67/67
f 68/68/68 70/70/70 69/69/69
f 70/70/70 71/71/71 69/69/69
f 70/70/70 72/72/72 71/71/71
f 72/72/72 73/73/73 71/71/71
f 72/72/72 74/74/74 73/73/73
f 74/74/74 75/75/75 73/73/73
f 74/74/74 76/76/76 75/75/75
f 76/76/76 77/77/77 75/75/75
f 76/76/76 78/78/78 77/77/77
f 78/78/78 79/79/79 77/77/77
f 78/78/78 80/80/80 79/79/79
f 80/80/80 81/81/81 79/79/79
f 80/80/80 82/82/82 81/81/81
f 82/82/82 1/1/1 81/81/81
f 82/82/82 3/3/3 1/1/1
f 85/85/85 84/84/84 83/83/83
f 85/85/85 83/83/83 86/86/86
f 89/89/89 88/88/88 87/87/87
f 90/90/90 88/88/88 89/89/89
f 93/93/93 92/92/92 91/91/91
f 94/94/94 93/93/93 91/91/91
f 97/97/97 96/96/96 95/95/95
f 97/97/97 98/98/98 96/96/96
f 101/101/101 100/100/100 99/99/99
f 102/102/102 100/100/100 101/101/101
f 105/105/105 104/104/104 103/103/103
f 106/106/106 105/105/105 103/103/103
