g COL_ShortcutRamp
v -0.055699825 -0.4016051 3.6797858E-06
v 4.874682 12.998722 4.799455E-06
v 4.8746724 12.99872 8.000005
v -0.055693798 -0.4016047 8.000004
v 6.2654557 12.436811 7.107547E-06
v 1.4442948 -0.4016081 5.590674E-06
v 1.4443 -0.40160406 8.000006
v 6.265447 12.4368105 8.000007
v -0.055693798 -0.4016047 8.000004
v 1.4443 -0.40160406 8.000006
v 1.4442948 -0.4016081 5.590674E-06
v -0.055699825 -0.4016051 3.6797858E-06
v 4.874682 12.998722 4.799455E-06
v 12.580481 23.583567 4.5128027E-06
v 12.580485 23.583569 8.000005
v 4.8746724 12.99872 8.000005
v 13.659486 22.541576 6.8819613E-06
v 6.2654557 12.436811 7.107547E-06
v 6.265447 12.4368105 8.000007
v 13.659491 22.541576 8.000007
v 12.580481 23.583567 4.5128027E-06
v 25.620764 32.227684 5.2449386E-06
v 25.620768 32.227688 8.000005
v 12.580485 23.583569 8.000005
v 26.23088 30.857372 7.330154E-06
v 13.659486 22.541576 6.8819613E-06
v 13.659491 22.541576 8.000007
v 26.230871 30.857367 8.000007
v 25.620764 32.227684 5.2449386E-06
v 42.713108 38.873177 -7.087652E-05
v 42.71312 38.87318 7.999929
v 25.620768 32.227688 8.000005
v 43.07664 37.41789 -7.6653734E-05
v 26.23088 30.857372 7.330154E-06
v 26.230871 30.857367 8.000007
v 43.076633 37.417892 7.9999228
v 42.713108 38.873177 -7.087652E-05
v 59.173542 40.65467 -5.9236958E-05
v 59.173553 40.654667 7.9999404
v 42.71312 38.87318 7.999929
v 59.5713 39.245136 -5.738483E-05
v 43.07664 37.41789 -7.6653734E-05
v 43.076633 37.417892 7.9999228
v 59.571262 39.24513 7.9999504
v 59.571262 39.24513 7.9999504
v 59.173553 40.654667 7.9999404
v 59.173542 40.65467 -5.9236958E-05
v 59.5713 39.245136 -5.738483E-05
v -0.055693798 -0.4016047 8.000004
v 6.265447 12.4368105 8.000007
v 1.4443 -0.40160406 8.000006
v 4.8746724 12.99872 8.000005
v 13.659491 22.541576 8.000007
v 12.580485 23.583569 8.000005
v 26.230871 30.857367 8.000007
v 25.620768 32.227688 8.000005
v 43.076633 37.417892 7.9999228
v 42.71312 38.87318 7.999929
v 59.571262 39.24513 7.9999504
v 59.173553 40.654667 7.9999404
v 4.874682 12.998722 4.799455E-06
v -0.055699825 -0.4016051 3.6797858E-06
v 1.4442948 -0.4016081 5.590674E-06
v 6.2654557 12.436811 7.107547E-06
v 12.580481 23.583567 4.5128027E-06
v 13.659486 22.541576 6.8819613E-06
v 25.620764 32.227684 5.2449386E-06
v 26.23088 30.857372 7.330154E-06
v 42.713108 38.873177 -7.087652E-05
v 43.07664 37.41789 -7.6653734E-05
v 59.173542 40.65467 -5.9236958E-05
v 59.5713 39.245136 -5.738483E-05
vt 3.6387357E-06 -0.39613652
vt 8.392058E-06 13.882429
vt 8.000009 13.8824215
vt 8.000004 -0.39613613
vt -2.9247136E-07 13.845589
vt -4.019683E-06 0.13177702
vt -8.000004 0.13178565
vt -8 13.845587
vt -0.055693973 8.000004
vt 1.4442999 8.000006
vt 1.4442948 5.5727214E-06
vt -0.0557 3.661833E-06
vt -1.6552295E-07 13.377916
vt -8.300712E-06 26.470596
vt 7.999992 26.470606
vt 8 13.377913
vt -1.264062E-05 26.257755
vt -9.748981E-06 13.736654
vt -8.00001 13.736647
vt -8.000012 26.257757
vt -23.516098 2.0164966E-06
vt -39.161217 2.7486326E-06
vt -39.161224 8.000002
vt -23.516104 8.000002
vt 38.901756 1.0258742E-05
vt 23.82885 9.81055E-06
vt 23.828856 8.00001
vt 38.901745 8.0000105
vt -35.557858 9.089178E-06
vt -53.89664 -6.7032284E-05
vt -53.89665 7.999933
vt -35.557865 8.000009
vt 53.71892 -6.145032E-05
vt 35.64076 2.2533568E-05
vt 35.640747 8.000023
vt 53.718918 7.9999385
vt -46.647903 -5.8227983E-05
vt -63.20446 -4.658842E-05
vt -63.204468 7.9999537
vt -46.64791 7.999942
vt 63.53018 -7.110544E-05
vt 46.934616 -9.0374335E-05
vt 46.934612 7.9999094
vt 63.530144 7.9999366
vt -7.9996505 21.593493
vt -7.999643 23.058065
vt 0.00035732097 23.058083
vt 0.0003574725 21.5935
vt -0.055683624 -0.4016079
vt 6.265457 12.436808
vt 1.4443102 -0.40160725
vt 4.8746824 12.998717
vt 13.659499 22.541573
vt 12.580495 23.583563
vt 26.230877 30.857359
vt 25.620775 32.22768
vt 43.07661 37.417866
vt 42.713097 38.873154
vt 59.57127 39.24516
vt 59.173557 40.654697
vt -4.874682 12.998722
vt 0.055699825 -0.4016051
vt -1.4442949 -0.4016081
vt -6.265456 12.436811
vt -12.580481 23.583567
vt -13.659486 22.541576
vt -25.620764 32.227684
vt -26.23088 30.857372
vt -42.71311 38.873177
vt -43.07664 37.41789
vt -59.173546 40.65467
vt -59.571304 39.245136
vn -0.9384925 0.34529954 6.916617E-07
vn -0.93849266 0.34529904 -1.7239172E-07
vn -0.9384929 0.34529856 -1.0364452E-06
vn -0.93849266 0.34529904 -1.7239172E-07
vn 0.9361671 -0.35155517 1.0182898E-06
vn 0.93616736 -0.35155478 2.976211E-07
vn 0.9361675 -0.35155442 -4.2304757E-07
vn 0.93616736 -0.35155478 2.976211E-07
vn 4.3710247E-07 -1 0
vn -7.8479735E-07 -1 2.7380932E-07
vn -2.0066973E-06 -1 5.029155E-07
vn -7.8479735E-07 -1 2.7380932E-07
vn -0.8084552 0.5885578 -8.234306E-07
vn -0.8084549 0.5885581 -1.9275099E-07
vn -0.80845463 0.5885584 4.3792855E-07
vn -0.8084549 0.5885581 -1.9275099E-07
vn 0.807019 -0.59052557 -3.4022852E-07
vn 0.8070187 -0.59052587 2.5165716E-07
vn 0.8070185 -0.5905262 8.4354286E-07
vn 0.8070187 -0.59052587 2.5165716E-07
vn -0.552512 0.83350486 1.9646438E-07
vn -0.5525121 0.83350486 0
vn -0.55251217 0.83350486 0
vn -0.5525121 0.83350486 0
vn 0.55170494 -0.83403933 2.5998258E-07
vn 0.55170506 -0.8340392 0
vn 0.55170506 -0.8340392 -1.2999143E-07
vn 0.55170506 -0.8340392 0
vn -0.3623737 0.9320329 -1.8523805E-07
vn -0.3623737 0.9320329 -1.4203974E-07
vn -0.36237368 0.9320329 0
vn -0.3623737 0.9320329 -1.4203974E-07
vn 0.36289722 -0.9318291 7.904165E-07
vn 0.36289746 -0.9318291 3.893468E-07
vn 0.36289757 -0.93182904 0
vn 0.36289746 -0.9318291 3.893468E-07
vn -0.107600525 0.9941942 -3.7145293E-07
vn -0.1076003 0.9941943 1.02615665E-07
vn -0.10760007 0.9941943 5.766843E-07
vn -0.1076003 0.9941943 1.02615665E-07
vn 0.11010458 -0.99391997 -4.22856E-07
vn 0.11010433 -0.99391997 0
vn 0.11010411 -0.9939201 5.789415E-07
vn 0.11010433 -0.99391997 0
vn 0.9624228 0.27155545 4.84816E-06
vn 0.9624186 0.27157027 2.0299162E-06
vn 0.9624145 0.27158508 -7.8832807E-07
vn 0.9624186 0.27157027 2.0299162E-06
vn -1.2715713E-06 3.9667975E-07 1
vn -1.2168224E-06 3.8266452E-07 1
vn -1.2441967E-06 3.8967212E-07 1
vn -1.2441967E-06 3.8967212E-07 1
vn -1.035776E-06 7.579168E-07 1
vn -1.047752E-06 7.647016E-07 1
vn -1.1254792E-06 1.5867587E-06 1
vn -9.2249155E-07 1.3360913E-06 1
vn 5.9615068E-06 -2.4427845E-06 1
vn 4.525365E-06 5.102345E-07 1
vn -2.324637E-06 6.1099477E-06 1
vn -1.3077246E-06 1.0527035E-06 1
vn 1.4741887E-06 -4.588429E-07 -1
vn 1.374059E-06 -4.0954274E-07 -1
vn 1.2739293E-06 -3.6024258E-07 -1
vn 1.374059E-06 -4.0954274E-07 -1
vn 1.2739276E-06 -9.545046E-07 -1
vn 1.2739278E-06 -9.545047E-07 -1
vn 8.2219066E-07 -1.155637E-06 -1
vn 8.6797286E-07 -1.2415544E-06 -1
vn -5.46612E-06 2.6043767E-06 -1
vn -4.6049067E-06 -2.9208616E-07 -1
vn 8.2416517E-07 -1.0814248E-06 -1
vn 7.6648655E-07 1.5327208E-06 -1
g COL_ShortcutRamp_0
f 3/3/3 2/2/2 1/1/1
f 4/4/4 3/3/3 1/1/1
f 7/7/7 6/6/6 5/5/5
f 8/8/8 7/7/7 5/5/5
f 11/11/11 10/10/10 9/9/9
f 12/12/12 11/11/11 9/9/9
f 15/15/15 14/14/14 13/13/13
f 16/16/16 15/15/15 13/13/13
f 19/19/19 18/18/18 17/17/17
f 20/20/20 19/19/19 17/17/17
f 23/23/23 22/22/22 21/21/21
f 24/24/24 23/23/23 21/21/21
f 27/27/27 26/26/26 25/25/25
f 28/28/28 27/27/27 25/25/25
f 31/31/31 30/30/30 29/29/29
f 32/32/32 31/31/31 29/29/29
f 35/35/35 34/34/34 33/33/33
f 36/36/36 35/35/35 33/33/33
f 39/39/39 38/38/38 37/37/37
f 40/40/40 39/39/39 37/37/37
f 43/43/43 42/42/42 41/41/41
f 44/44/44 43/43/43 41/41/41
f 47/47/47 46/46/46 45/45/45
f 48/48/48 47/47/47 45/45/45
f 51/51/51 50/50/50 49/49/49
f 50/50/50 52/52/52 49/49/49
f 50/50/50 53/53/53 52/52/52
f 53/53/53 54/54/54 52/52/52
f 53/53/53 55/55/55 54/54/54
f 55/55/55 56/56/56 54/54/54
f 55/55/55 57/57/57 56/56/56
f 57/57/57 58/58/58 56/56/56
f 57/57/57 59/59/59 58/58/58
f 59/59/59 60/60/60 58/58/58
f 63/63/63 62/62/62 61/61/61
f 64/64/64 63/63/63 61/61/61
f 64/64/64 61/61/61 65/65/65
f 66/66/66 64/64/64 65/65/65
f 66/66/66 65/65/65 67/67/67
f 68/68/68 66/66/66 67/67/67
f 68/68/68 67/67/67 69/69/69
f 70/70/70 68/68/68 69/69/69
f 70/70/70 69/69/69 71/71/71
f 72/72/72 70/70/70 71/71/71
