g COL_PB_Gauntlet07_Segment_Medium_CanyonCross_Cube (2)
v -0.99899024 -2.5 9.625002
v -4.000007 -2.5 9.625002
v -0.99899024 2.5 9.625
v -4.000007 2.5 9.625
v -4.000007 -2.5 9.625002
v -4.0000005 -2.5 -9.625001
v -4.000007 2.5 9.625
v -4 2.5 -9.625
v -4.0000005 -2.5 -9.625001
v 3.9999974 -2.5 -9.625002
v -4 2.5 -9.625
v 3.9999979 2.5 -9.625
v 3.9999974 -2.5 -9.625002
v 4.0000067 -2.5 4.6260004
v 3.9999979 2.5 -9.625
v 4.000007 2.5 4.6260004
v 4.000007 2.5 4.6260004
v -0.99899024 -2.5 9.625002
v -0.99899024 2.5 9.625
v 4.0000067 -2.5 4.6260004
v 3.9999979 2.5 -9.625
v 4.000007 2.5 4.6260004
v -4 2.5 -9.625
v -4.000007 2.5 9.625
v -0.99899024 2.5 9.625
v -4.000007 -2.5 9.625002
v -0.99899024 -2.5 9.625002
v 4.0000067 -2.5 4.6260004
v -4.0000005 -2.5 -9.625001
v 3.9999974 -2.5 -9.625002
vt -0.9989896 -2.5
vt -4.0000067 -2.5
vt -0.9989896 2.5
vt -4.0000067 2.5
vt 9.625003 -2.5
vt -9.625 -2.5
vt 9.625001 2.5
vt -9.624999 2.5
vt 3.9999993 -2.500002
vt -3.9999986 -2.500002
vt 3.9999988 2.499998
vt -3.999999 2.499998
vt 13.999999 -2.4999995
vt -0.2510028 -2.4999995
vt 13.999997 2.5000005
vt -0.2510028 2.5000005
vt -0.4426456 2.4999983
vt -7.512298 -2.5000017
vt -7.512297 2.4999983
vt -0.44264594 -2.5000017
vt -3.9999979 -9.625
vt -4.000007 4.6260004
vt 4 -9.625
vt 4.000007 9.625
vt 0.99899024 9.625
vt -4.000007 9.625002
vt -0.99899024 9.625002
vt 4.0000067 4.6260004
vt -4.0000005 -9.625001
vt 3.9999974 -9.625002
vn -0 3.8146973E-07 1
vn -0 3.8146973E-07 1
vn -0 3.8146973E-07 1
vn -0 3.8146973E-07 1
vn -1 -1.3229012E-13 -3.467906E-07
vn -1 4.7683685E-08 -3.5917603E-07
vn -1 4.7683685E-08 -3.5917603E-07
vn -1 9.5367504E-08 -3.7156144E-07
vn -1.1920932E-07 1.9073487E-07 -1
vn -5.960466E-08 2.861023E-07 -1
vn -5.960466E-08 2.861023E-07 -1
vn -0 3.8146973E-07 -1
vn 1 -9.5367184E-08 -6.524681E-07
vn 1 -9.5367305E-08 -6.5246815E-07
vn 1 -9.5367305E-08 -6.5246815E-07
vn 1 -9.5367426E-08 -6.524682E-07
vn 0.70710707 1.0115238E-07 0.70710653
vn 0.70710707 1.0115238E-07 0.70710653
vn 0.70710695 2.6973976E-07 0.7071066
vn 0.7071071 -6.7434996E-08 0.7071065
vn -0 1 0
vn -0 1 0
vn -0 1 0
vn -0 1 0
vn -0 1 0
vn -0 -1 0
vn -0 -1 0
vn -0 -1 0
vn -0 -1 0
vn -0 -1 0
g COL_PB_Gauntlet07_Segment_Medium_CanyonCross_Cube (2)_0
f 3/3/3 2/2/2 1/1/1
f 3/3/3 4/4/4 2/2/2
f 7/7/7 6/6/6 5/5/5
f 7/7/7 8/8/8 6/6/6
f 11/11/11 10/10/10 9/9/9
f 11/11/11 12/12/12 10/10/10
f 15/15/15 14/14/14 13/13/13
f 15/15/15 16/16/16 14/14/14
f 19/19/19 18/18/18 17/17/17
f 18/18/18 20/20/20 17/17/17
f 23/23/23 22/22/22 21/21/21
f 24/24/24 22/22/22 23/23/23
f 24/24/24 25/25/25 22/22/22
f 28/28/28 27/27/27 26/26/26
f 29/29/29 28/28/28 26/26/26
f 29/29/29 30/30/30 28/28/28
