g COL_Blockade_EdgePlatform
v -8.235599 -7.8419704 -1.2591971
v -8.235562 -7.838541 1.3782356
v 8.147471 -7.838543 1.3781569
v 8.147435 -7.8419714 -1.2592754
v 10.009915 -5.9794908 -1.2603245
v 10.009951 7.465794 1.3696018
v 10.009914 7.462364 -1.2678306
v 10.009951 -5.9760623 1.3771079
v 9.802974 -7.014202 -1.2597456
v 9.803009 -7.0107737 1.3776867
v 10.009914 7.462364 -1.2678306
v 10.009951 7.465794 1.3696018
v -10.098043 7.4657946 1.3696983
v -10.09808 7.462364 -1.2677343
v -10.09808 7.462364 -1.2677343
v -10.098043 7.4657946 1.3696983
v -10.098043 -5.976061 1.3772044
v -10.098079 -5.9794903 -1.2602283
v -9.891101 -7.0107718 1.3777814
v -9.891137 -7.0142016 -1.2596514
v 8.147435 -7.8419714 -1.2592754
v 8.147471 -7.838543 1.3781569
v 9.182182 -7.631601 1.3780363
v 9.182146 -7.6350293 -1.259396
v -8.235562 -7.838541 1.3782356
v -8.235599 -7.8419704 -1.2591971
v -9.270309 -7.6350284 -1.2593077
v -9.270274 -7.631599 1.378125
v 9.182146 -7.6350293 -1.259396
v 9.182182 -7.631601 1.3780363
v 9.803009 -7.0107737 1.3776867
v 9.802974 -7.014202 -1.2597456
v -9.270274 -7.631599 1.378125
v -9.270309 -7.6350284 -1.2593077
v -9.891137 -7.0142016 -1.2596514
v -9.891101 -7.0107718 1.3777814
v 9.182182 -7.631601 1.3780363
v 10.009951 -5.9760623 1.3771079
v 9.803009 -7.0107737 1.3776867
v 8.147471 -7.838543 1.3781569
v -8.235562 -7.838541 1.3782356
v -10.098043 -5.976061 1.3772044
v 10.009951 7.465794 1.3696018
v -10.098043 7.4657946 1.3696983
v -9.891101 -7.0107718 1.3777814
v -9.270274 -7.631599 1.378125
v -9.270309 -7.6350284 -1.2593077
v -10.098079 -5.9794903 -1.2602283
v -9.891137 -7.0142016 -1.2596514
v -8.235599 -7.8419704 -1.2591971
v 8.147435 -7.8419714 -1.2592754
v 10.009915 -5.9794908 -1.2603245
v -10.09808 7.462364 -1.2677343
v 10.009914 7.462364 -1.2678306
v 9.802974 -7.014202 -1.2597456
v 9.182146 -7.6350293 -1.259396
v 15.989799 -4.4195704 -1.3730148
v 15.989834 7.841444 0.020128727
v 15.989797 7.8380156 -1.380521
v 15.989834 -4.416142 0.027635025
v 15.782856 -5.4542813 -1.372436
v 15.782891 -5.4508533 0.028213918
v 9.505559 7.8380156 -1.3804722
v 15.989797 7.8380156 -1.380521
v 15.989834 7.841444 0.020128727
v 9.505597 7.841446 0.02017792
v 14.127317 -6.282051 -1.3719659
v 14.127355 -6.278621 0.028684244
v 15.1620655 -6.07168 0.028563656
v 15.162028 -6.0751085 -1.3720864
v 15.162028 -6.0751085 -1.3720864
v 15.1620655 -6.07168 0.028563656
v 15.782891 -5.4508533 0.028213918
v 15.782856 -5.4542813 -1.372436
v 15.1620655 -6.07168 0.028563656
v 15.989834 -4.416142 0.027635025
v 15.782891 -5.4508533 0.028213918
v 14.127355 -6.278621 0.028684244
v 9.505596 -4.4161406 0.027683992
v 9.53436 -6.2786174 0.028724216
v 15.989834 7.841444 0.020128727
v 9.505597 7.841446 0.02017792
v 15.782856 -5.4542813 -1.372436
v 14.127317 -6.282051 -1.3719659
v 15.162028 -6.0751085 -1.3720864
v 15.989799 -4.4195704 -1.3730148
v 9.505561 -4.4195704 -1.3729659
v 9.534325 -6.28205 -1.3719261
v 15.989797 7.8380156 -1.380521
v 9.505559 7.8380156 -1.3804722
v 14.127317 -6.282051 -1.3719659
v 9.534325 -6.28205 -1.3719261
v 9.53436 -6.2786174 0.028724216
v 14.127355 -6.278621 0.028684244
v -15.989796 -4.4195714 -1.3730149
v -15.989795 7.838015 -1.380521
v -15.989834 7.8414435 0.020128567
v -15.989834 -4.416143 0.027634945
v -15.782854 -5.4542823 -1.3724362
v -15.78289 -5.4508533 0.028213862
v -15.989834 7.8414435 0.020128567
v -15.989795 7.838015 -1.380521
v -9.505557 7.838015 -1.3804722
v -9.505595 7.841445 0.020177783
v -14.127316 -6.282051 -1.3719661
v -15.162027 -6.075109 -1.3720864
v -15.162063 -6.07168 0.028563542
v -14.127352 -6.278621 0.028684124
v -15.162027 -6.075109 -1.3720864
v -15.782854 -5.4542823 -1.3724362
v -15.78289 -5.4508533 0.028213862
v -15.162063 -6.07168 0.028563542
v -15.989834 -4.416143 0.027634945
v -15.162063 -6.07168 0.028563542
v -15.78289 -5.4508533 0.028213862
v -14.127352 -6.278621 0.028684124
v -9.505595 -4.4161406 0.02768393
v -9.534357 -6.278619 0.028724095
v -15.989834 7.8414435 0.020128567
v -9.505595 7.841445 0.020177783
v -14.127316 -6.282051 -1.3719661
v -15.782854 -5.4542823 -1.3724362
v -15.162027 -6.075109 -1.3720864
v -15.989796 -4.4195714 -1.3730149
v -9.505559 -4.4195704 -1.3729662
v -9.534323 -6.2820506 -1.3719262
v -15.989795 7.838015 -1.380521
v -9.505557 7.838015 -1.3804722
v -9.534357 -6.278619 0.028724095
v -9.534323 -6.2820506 -1.3719262
v -14.127316 -6.282051 -1.3719661
v -14.127352 -6.278621 0.028684124
vt 0.092623875 0
vt 0.092623875 1
vt 0.9073761 1
vt 0.9073761 0
vt 0.12169625 0
vt 1 1
vt 1 0
vt 0.12169625 1
vt -0.1838086 -0.00013503357
vt -0.18380862 0.999865
vt 0 0
vt 0 1
vt 1 1
vt 1 0
vt 0 0
vt 0 1
vt 0.87830377 1
vt 0.87830377 0
vt 1.1838086 0.99986905
vt 1.1838086 -0.00013093528
vt -0.79481834 -0.00040510073
vt -0.79481834 0.9995949
vt -0.4893135 0.99972993
vt -0.48931342 -0.00027006713
vt 1.7948184 0.9996072
vt 1.7948184 -0.00039280584
vt 1.4893135 -0.00026187056
vt 1.4893134 0.9997381
vt -0.48931342 -0.00027006713
vt -0.4893135 0.99972993
vt -0.18380862 0.999865
vt -0.1838086 -0.00013503357
vt 1.4893134 0.9997381
vt 1.4893135 -0.00026187056
vt 1.1838086 -0.00013093528
vt 1.1838086 0.99986905
vt 0.9588338 0.013521805
vt 1 0.12169625
vt 0.9897085 0.05408722
vt 0.9073761 0
vt 0.092623875 0
vt 0 0.12169625
vt 1 1
vt 0 1
vt 0.010291542 0.054087214
vt 0.041166168 0.013521804
vt 0.9588338 0.013521807
vt 1 0.121696256
vt 0.9897085 0.05408723
vt 0.9073761 0
vt 0.092623875 0
vt 0 0.12169625
vt 1 1
vt 0 1
vt 0.010291542 0.054087214
vt 0.041166168 0.013521804
vt 0.12169625 0
vt 1 1
vt 1 0
vt 0.12169625 1
vt -0.1838086 -0.00013503357
vt -0.18380862 0.999865
vt 0.5077218 0
vt 0 0
vt 0 1
vt 0.5077218 1
vt -0.79481834 -0.00040510073
vt -0.79481834 0.9995949
vt -0.4893135 0.99972993
vt -0.48931342 -0.00027006713
vt -0.48931342 -0.00027006713
vt -0.4893135 0.99972993
vt -0.18380862 0.999865
vt -0.1838086 -0.00013503357
vt 0.9588338 0.013521805
vt 1 0.12169625
vt 0.9897085 0.05408722
vt 0.9073761 0
vt 0.49227822 0.12169625
vt 0.49370864 0
vt 1 1
vt 0.49227822 1
vt 0.010291542 0.054087214
vt 0.092623875 0
vt 0.041166168 0.013521804
vt 0 0.12169625
vt 0.5077218 0.12169625
vt 0.50629133 0
vt 0 1
vt 0.5077218 1
vt 0.9073761 0
vt 0.49370867 0
vt 0.49370864 1
vt 0.9073761 1
vt 0.12169625 0
vt 1 0
vt 1 1
vt 0.12169625 1
vt -0.1838086 -0.00013503357
vt -0.18380862 0.999865
vt 0 1
vt 0 0
vt 0.5077218 0
vt 0.5077218 1
vt -0.79481834 -0.00040510073
vt -0.48931342 -0.00027006713
vt -0.4893135 0.99972993
vt -0.79481834 0.9995949
vt -0.48931342 -0.00027006713
vt -0.1838086 -0.00013503357
vt -0.18380862 0.999865
vt -0.4893135 0.99972993
vt 1 0.12169625
vt 0.9588338 0.013521805
vt 0.9897085 0.05408722
vt 0.9073761 0
vt 0.49227822 0.12169625
vt 0.49370864 0
vt 1 1
vt 0.49227822 1
vt 0.092623875 0
vt 0.010291542 0.054087214
vt 0.041166168 0.013521804
vt 0 0.12169625
vt 0.5077218 0.12169625
vt 0.50629133 0
vt 0 1
vt 0.5077218 1
vt 0.49370864 1
vt 0.49370867 0
vt 0.9073761 0
vt 0.9073761 1
vn -0.09853365 -0.99513286 0.0012952194
vn -0.09854169 -0.9951321 0.0012952182
vn 0.09854274 -0.99513197 0.001292306
vn 0.09853253 -0.995133 0.0012923074
vn 0.99512875 -0.098583594 0.00011452548
vn 1 0 -1.3742483E-05
vn 1 0 -1.3742483E-05
vn 0.995138 -0.09849139 0.00011440545
vn 0.9805807 -0.19611593 0.00024155933
vn 0.9805807 -0.19611594 0.00024155939
vn -0 0.99999917 -0.001300321
vn -0 0.99999917 -0.001300321
vn -0 0.99999917 -0.001300321
vn -0 0.99999917 -0.001300321
vn -1 0 1.3626746E-05
vn -1 0 1.3626746E-05
vn -0.9951379 -0.09849148 0.00014163103
vn -0.99512875 -0.09858354 0.0001417506
vn -0.9805807 -0.19611591 0.00026837573
vn -0.9805807 -0.19611594 0.0002683758
vn 0.09853253 -0.995133 0.0012923074
vn 0.09854274 -0.99513197 0.001292306
vn 0.19611625 -0.9805799 0.0012719454
vn 0.19611625 -0.9805799 0.0012719454
vn -0.09854169 -0.9951321 0.0012952182
vn -0.09853365 -0.99513286 0.0012952194
vn -0.19611618 -0.9805799 0.0012777415
vn -0.19611618 -0.9805799 0.0012777415
vn 0.70710677 -0.70710623 0.000909501
vn 0.70710665 -0.7071062 0.0009095008
vn 0.70710677 -0.70710623 0.000909501
vn 0.70710677 -0.70710623 0.00090950093
vn -0.70710677 -0.70710623 0.0009291019
vn -0.70710677 -0.70710623 0.0009291019
vn -0.70710677 -0.70710623 0.0009291019
vn -0.70710677 -0.70710623 0.0009291019
vn 4.782208E-06 0.0005584407 0.9999999
vn 4.7971994E-06 0.0005584317 0.9999999
vn 4.782208E-06 0.0005584407 0.9999999
vn 4.798185E-06 0.00055847364 0.9999999
vn 4.8225793E-06 0.000558498 0.9999999
vn 4.821594E-06 0.0005584561 0.9999999
vn 4.800324E-06 0.0005584029 0.9999999
vn 4.800324E-06 0.0005584029 0.9999999
vn 4.904354E-06 0.00055856345 0.9999999
vn 4.904354E-06 0.00055856345 0.9999999
vn -4.7805115E-06 -0.00055841234 -0.9999999
vn -4.782445E-06 -0.00055841473 -0.9999999
vn -4.7805115E-06 -0.00055841234 -0.9999999
vn -4.7814597E-06 -0.00055841485 -0.9999999
vn -4.78161E-06 -0.00055841595 -0.9999999
vn -4.7825956E-06 -0.00055841566 -0.9999999
vn -4.7835456E-06 -0.00055841514 -0.9999999
vn -4.7835456E-06 -0.00055841514 -0.9999999
vn -4.781259E-06 -0.00055841793 -0.9999999
vn -4.781259E-06 -0.00055841793 -0.9999999
vn 0.9951218 -0.098653264 0.0002155531
vn 1 0 -2.628849E-05
vn 1 0 -2.628849E-05
vn 0.9951448 -0.09842161 0.00021498493
vn 0.98058057 -0.19611579 0.0004547312
vn 0.98058057 -0.1961158 0.00045473123
vn 1.1733725E-07 0.999997 -0.002448503
vn 1.17337244E-07 0.999997 -0.002448503
vn 1.1733725E-07 0.999997 -0.002448503
vn 1.1733725E-07 0.999997 -0.002448503
vn 0.098524265 -0.99513173 0.0024345904
vn 0.09854988 -0.9951291 0.002434583
vn 0.19611552 -0.9805778 0.0023957754
vn 0.19611552 -0.9805778 0.0023957754
vn 0.70710593 -0.70710546 0.0017126917
vn 0.70710593 -0.7071056 0.0017126917
vn 0.70710593 -0.70710546 0.0017126916
vn 0.70710593 -0.7071056 0.0017126917
vn 4.842187E-06 0.00055850286 0.9999999
vn 7.1473446E-06 0.0005868356 0.9999999
vn 4.842187E-06 0.00055850286 0.9999999
vn 7.392758E-06 0.0005572825 0.9999999
vn 7.798139E-06 0.00058481086 0.9999999
vn 8.029268E-06 0.0005569777 0.9999999
vn 7.5692833E-06 0.0006123705 0.9999999
vn 7.569282E-06 0.0006123705 0.9999999
vn -4.789882E-06 -0.0005584141 -0.9999999
vn -7.358591E-06 -0.0005571403 -0.9999999
vn -4.789882E-06 -0.000558414 -0.9999999
vn -7.109654E-06 -0.0005867743 -0.9999999
vn -7.765178E-06 -0.00058473175 -0.9999999
vn -7.999628E-06 -0.00055682234 -0.9999999
vn -7.533036E-06 -0.00061236706 -0.9999999
vn -7.533037E-06 -0.0006123669 -0.9999999
vn 0.098524265 -0.99513173 0.0024345904
vn -4.8372925E-07 -0.999997 0.0024497013
vn -4.837293E-07 -0.999997 0.002449701
vn 0.09854988 -0.9951291 0.002434583
vn -0.9951218 -0.09865361 0.00021518763
vn -1 0 -2.6874779E-05
vn -1 0 -2.6874779E-05
vn -0.99514467 -0.09842195 0.00021461898
vn -0.98058057 -0.19611649 0.0004545897
vn -0.98058045 -0.19611649 0.00045458967
vn -1.1229702E-07 0.999997 -0.002448503
vn -1.1229702E-07 0.999997 -0.002448503
vn -1.1229702E-07 0.999997 -0.002448503
vn -1.1229703E-07 0.999997 -0.0024485027
vn -0.09852438 -0.9951316 0.0024346618
vn -0.19611558 -0.9805778 0.0023959184
vn -0.19611558 -0.9805778 0.0023959186
vn -0.09854997 -0.9951291 0.0024346549
vn -0.7071062 -0.7071052 0.0017131963
vn -0.7071062 -0.7071052 0.0017131963
vn -0.70710623 -0.7071052 0.0017131963
vn -0.70710623 -0.7071052 0.0017131963
vn -7.1417007E-06 0.00058683177 0.9999999
vn -4.8029406E-06 0.0005585022 0.9999999
vn -4.8029424E-06 0.00055850233 0.9999999
vn -7.3862416E-06 0.00055726094 0.9999999
vn -7.800612E-06 0.0005848008 0.9999999
vn -8.030923E-06 0.0005569511 0.9999999
vn -7.572567E-06 0.0006123767 0.9999999
vn -7.5725657E-06 0.00061237684 0.9999999
vn 7.3576125E-06 -0.00055713987 -0.9999999
vn 4.785202E-06 -0.0005584131 -0.9999999
vn 4.785198E-06 -0.00055841316 -0.9999999
vn 7.1080417E-06 -0.00058677414 -0.9999999
vn 7.764525E-06 -0.00058473175 -0.9999999
vn 7.999572E-06 -0.00055682217 -0.9999999
vn 7.531791E-06 -0.00061236665 -0.9999999
vn 7.531792E-06 -0.00061236677 -0.9999999
vn 3.0704436E-07 -0.999997 0.0024497013
vn 3.0704436E-07 -0.999997 0.0024497013
vn -0.09852438 -0.9951316 0.0024346618
vn -0.09854997 -0.9951291 0.0024346549
g COL_Blockade_EdgePlatform_0
f 3/3/3 2/2/2 1/1/1
f 4/4/4 3/3/3 1/1/1
f 7/7/7 6/6/6 5/5/5
f 6/6/6 8/8/8 5/5/5
f 5/5/5 8/8/8 9/9/9
f 8/8/8 10/10/10 9/9/9
f 13/13/13 12/12/12 11/11/11
f 14/14/14 13/13/13 11/11/11
f 17/17/17 16/16/16 15/15/15
f 18/18/18 17/17/17 15/15/15
f 17/17/17 18/18/18 19/19/19
f 18/18/18 20/20/20 19/19/19
f 23/23/23 22/22/22 21/21/21
f 24/24/24 23/23/23 21/21/21
f 27/27/27 26/26/26 25/25/25
f 28/28/28 27/27/27 25/25/25
f 31/31/31 30/30/30 29/29/29
f 32/32/32 31/31/31 29/29/29
f 35/35/35 34/34/34 33/33/33
f 36/36/36 35/35/35 33/33/33
f 39/39/39 38/38/38 37/37/37
f 38/38/38 40/40/40 37/37/37
f 40/40/40 38/38/38 41/41/41
f 38/38/38 42/42/42 41/41/41
f 42/42/42 38/38/38 43/43/43
f 44/44/44 42/42/42 43/43/43
f 41/41/41 42/42/42 45/45/45
f 46/46/46 41/41/41 45/45/45
f 49/49/49 48/48/48 47/47/47
f 48/48/48 50/50/50 47/47/47
f 51/51/51 50/50/50 48/48/48
f 52/52/52 51/51/51 48/48/48
f 52/52/52 48/48/48 53/53/53
f 54/54/54 52/52/52 53/53/53
f 51/51/51 52/52/52 55/55/55
f 56/56/56 51/51/51 55/55/55
f 59/59/59 58/58/58 57/57/57
f 58/58/58 60/60/60 57/57/57
f 57/57/57 60/60/60 61/61/61
f 60/60/60 62/62/62 61/61/61
f 65/65/65 64/64/64 63/63/63
f 66/66/66 65/65/65 63/63/63
f 69/69/69 68/68/68 67/67/67
f 70/70/70 69/69/69 67/67/67
f 73/73/73 72/72/72 71/71/71
f 74/74/74 73/73/73 71/71/71
f 77/77/77 76/76/76 75/75/75
f 76/76/76 78/78/78 75/75/75
f 76/76/76 79/79/79 78/78/78
f 79/79/79 80/80/80 78/78/78
f 79/79/79 76/76/76 81/81/81
f 82/82/82 79/79/79 81/81/81
f 85/85/85 84/84/84 83/83/83
f 84/84/84 86/86/86 83/83/83
f 86/86/86 84/84/84 87/87/87
f 84/84/84 88/88/88 87/87/87
f 86/86/86 87/87/87 89/89/89
f 87/87/87 90/90/90 89/89/89
f 93/93/93 92/92/92 91/91/91
f 94/94/94 93/93/93 91/91/91
f 97/97/97 96/96/96 95/95/95
f 98/98/98 97/97/97 95/95/95
f 98/98/98 95/95/95 99/99/99
f 100/100/100 98/98/98 99/99/99
f 103/103/103 102/102/102 101/101/101
f 104/104/104 103/103/103 101/101/101
f 107/107/107 106/106/106 105/105/105
f 108/108/108 107/107/107 105/105/105
f 111/111/111 110/110/110 109/109/109
f 112/112/112 111/111/111 109/109/109
f 115/115/115 114/114/114 113/113/113
f 114/114/114 116/116/116 113/113/113
f 113/113/113 116/116/116 117/117/117
f 116/116/116 118/118/118 117/117/117
f 119/119/119 113/113/113 117/117/117
f 120/120/120 119/119/119 117/117/117
f 123/123/123 122/122/122 121/121/121
f 122/122/122 124/124/124 121/121/121
f 121/121/121 124/124/124 125/125/125
f 126/126/126 121/121/121 125/125/125
f 124/124/124 127/127/127 125/125/125
f 127/127/127 128/128/128 125/125/125
f 131/131/131 130/130/130 129/129/129
f 132/132/132 131/131/131 129/129/129
