g COL_InflatableWall03_MO
v -1.6164106 -15.220722 25.528133
v -1.6164106 -0.0003222656 25.528133
v 5.2741298E-06 -0.0003222656 25.528133
v 5.2741298E-06 -15.220722 25.528133
v -1.6164106 -0.0003222656 25.528133
v -1.6164106 9.765625E-06 -4.1032783E-07
v 5.2741298E-06 9.765625E-06 -4.1032783E-07
v 5.2741298E-06 -0.0003222656 25.528133
v -1.6164106 9.765625E-06 -4.1032783E-07
v -1.6164106 -15.22039 -4.1032783E-07
v 5.2741298E-06 -15.22039 -4.1032783E-07
v 5.2741298E-06 9.765625E-06 -4.1032783E-07
v -1.6164106 -15.22039 -4.1032783E-07
v -1.6164106 -15.220722 25.528133
v 5.2741298E-06 -15.220722 25.528133
v 5.2741298E-06 -15.22039 -4.1032783E-07
v 5.2741298E-06 -15.220722 25.528133
v 5.2741298E-06 -0.0003222656 25.528133
v 5.2741298E-06 9.765625E-06 -4.1032783E-07
v 5.2741298E-06 -15.22039 -4.1032783E-07
v -1.6164106 -15.22039 -4.1032783E-07
v -1.6164106 9.765625E-06 -4.1032783E-07
v -1.6164106 -0.0003222656 25.528133
v -1.6164106 -15.220722 25.528133
vt 0.375 0
vt 0.375 0.25
vt 0.625 0.25
vt 0.625 0
vt 0.375 0.25
vt 0.375 0.5
vt 0.625 0.5
vt 0.625 0.25
vt 0.375 0.5
vt 0.375 0.75
vt 0.625 0.75
vt 0.625 0.5
vt 0.375 0.75
vt 0.375 1
vt 0.625 1
vt 0.625 0.75
vt 0.625 0
vt 0.625 0.25
vt 0.875 0.25
vt 0.875 0
vt 0.125 0
vt 0.125 0.25
vt 0.375 0.25
vt 0.375 0
vn -0 0 1
vn -0 0 1
vn -0 0 1
vn -0 0 1
vn -0 1 1.2722955E-05
vn -0 1 1.2722955E-05
vn -0 1 1.2722955E-05
vn -0 1 1.2722955E-05
vn -0 0 -1
vn -0 0 -1
vn -0 0 -1
vn -0 0 -1
vn -0 -1 -1.2722955E-05
vn -0 -1 -1.2722955E-05
vn -0 -1 -1.2722955E-05
vn -0 -1 -1.2722955E-05
vn 1 0 0
vn 1 0 0
vn 1 0 0
vn 1 0 0
vn -1 0 0
vn -1 0 0
vn -1 0 0
vn -1 0 0
g COL_InflatableWall03_MO_0
f 3/3/3 2/2/2 1/1/1
f 4/4/4 3/3/3 1/1/1
f 7/7/7 6/6/6 5/5/5
f 8/8/8 7/7/7 5/5/5
f 11/11/11 10/10/10 9/9/9
f 12/12/12 11/11/11 9/9/9
f 15/15/15 14/14/14 13/13/13
f 16/16/16 15/15/15 13/13/13
f 19/19/19 18/18/18 17/17/17
f 20/20/20 19/19/19 17/17/17
f 23/23/23 22/22/22 21/21/21
f 24/24/24 23/23/23 21/21/21
