g COL_JumpPlatform08
v -2.6100714 2.5104942 -2.766785
v -7.626319 0.1124731 -2.766785
v -2.6100714 1.3582963 -2.766785
v 2.474312 2.5104942 -2.766785
v 2.474312 1.522685 -4.1305037
v 2.474312 1.3582963 -2.766785
v -2.6100714 1.3582963 -2.766785
v -2.6100714 1.522685 -4.1305037
v -2.6100714 2.5104942 -2.766785
v 2.474312 1.3582963 -2.766785
v 2.474312 1.522685 -4.1305037
v 2.474312 -0.62936956 -2.766785
v -2.6100714 -0.62936956 -2.766785
v -2.6100714 1.522685 -4.1305037
v -2.6100714 1.3582963 -2.766785
v -2.6100714 2.5104942 2.4250572
v 2.474312 2.5104942 2.4250572
v 2.474312 1.3582965 2.4250572
v -2.6100714 1.3582965 2.4250572
v -7.626319 0.1124731 2.4250572
v 2.474312 -2.4250572 2.4250572
v -7.626319 -0.4799101 2.4250572
v -2.6100714 -2.4250572 2.4250572
v -7.626319 -2.4250572 2.4250572
v -2.6100714 2.5104942 2.4250572
v -2.6100714 2.5104942 -2.766785
v 2.474312 2.5104942 2.4250572
v 2.474312 2.5104942 -2.766785
v -2.6100714 3.5918481 -11.136237
v 2.474312 3.5918481 -11.136237
v -2.6100714 3.5918481 -11.136237
v -2.6100714 2.4396498 -11.136237
v 2.474312 3.5918481 -11.136237
v 2.474312 2.4396498 -11.136237
v -2.6100714 -2.4250572 -2.766785
v -2.6100714 -2.4250572 2.4250572
v 2.474312 -2.4250572 -2.766785
v 2.474312 -2.4250572 2.4250572
v 2.474312 2.5104942 2.4250572
v 2.474312 2.5104942 -2.766785
v 2.474312 1.3582963 -2.766785
v 2.474312 1.3582965 2.4250572
v 2.474312 -0.62936956 -2.766785
v 2.474312 -2.4250572 2.4250572
v 2.474312 -2.4250572 -2.766785
v -7.626319 0.1124731 -2.766785
v -7.626319 0.1124731 2.4250572
v -7.626319 -0.4799101 2.4250572
v -7.626319 -0.47991017 -2.766785
v -7.626319 -2.4250572 2.4250572
v -7.626319 -2.4250572 -2.766785
v -2.6100714 -2.4250572 -2.766785
v -7.626319 -2.4250572 -2.766785
v -2.6100714 -2.4250572 2.4250572
v -7.626319 -2.4250572 2.4250572
v -2.6100714 2.5104942 2.4250572
v -7.626319 0.1124731 2.4250572
v -2.6100714 2.5104942 -2.766785
v -7.626319 0.1124731 -2.766785
v -7.626319 0.1124731 -2.766785
v -7.626319 -0.47991017 -2.766785
v -2.6100714 1.3582963 -2.766785
v -2.6100714 -0.62936956 -2.766785
v -7.626319 -2.4250572 -2.766785
v -2.6100714 -2.4250572 -2.766785
v -2.6100714 1.522685 -4.1305037
v -2.6100714 -0.62936956 -2.766785
v 2.474312 1.522685 -4.1305037
v 2.474312 -0.62936956 -2.766785
v -2.6100714 -0.62936956 -2.766785
v -2.6100714 -2.4250572 -2.766785
v 2.474312 -0.62936956 -2.766785
v 2.474312 -2.4250572 -2.766785
v 2.474312 2.5104942 -2.766785
v 2.474312 3.5918481 -11.136237
v 2.474312 1.522685 -4.1305037
v 2.474312 2.4396498 -11.136237
v -2.6100714 2.5104942 -2.766785
v -2.6100714 1.522685 -4.1305037
v -2.6100714 3.5918481 -11.136237
v -2.6100714 2.4396498 -11.136237
v 2.474312 1.522685 -4.1305037
v 2.474312 2.4396498 -11.136237
v -2.6100714 1.522685 -4.1305037
v -2.6100714 2.4396498 -11.136237
vt 0.12500544 0.253254
vt 0.125 0.25
vt 0.125 0.19163781
vt 0.624997 0.48860323
vt 0.62499684 0.55856264
vt 0.625 0.5583622
vt 0.375 0.5583622
vt 0.37500334 0.55855256
vt 0.37500328 0.4887371
vt 0.625 0.5583622
vt 0.6249943 0.55003196
vt 0.6249958 0.65904033
vt 0.37500292 0.6590396
vt 0.37500674 0.550033
vt 0.375 0.5583622
vt 0.375 0.25
vt 0.625 0.25
vt 0.6284534 0.19298469
vt 0.4217678 0.20993519
vt 0.375 0.25
vt 0.625 0
vt 0.37499708 0.17663634
vt 0.375 0
vt 0.375 0
vt 0.375 0.25
vt 0.37500328 0.4887371
vt 0.625 0.25
vt 0.624997 0.48860323
vt 0.375 0.5
vt 0.625 0.5
vt 0.375 0.5
vt 0.375 0.5583622
vt 0.625 0.5
vt 0.625 0.5583622
vt 0.375 0.75
vt 0.375 1
vt 0.625 0.75
vt 0.625 1
vt 0.625 0.25
vt 0.8741273 0.24961229
vt 0.875 0.19163781
vt 0.6284534 0.19298469
vt 0.8749696 0.09094738
vt 0.625 0
vt 0.875 0
vt 0.125 0.25
vt 0.375 0.25
vt 0.37499708 0.17663634
vt 0.12500273 0.17688349
vt 0.375 0
vt 0.125 0
vt 0.125 0
vt 0.125 0
vt 0.375 0
vt 0.375 0
vt 0.375 0.25
vt 0.375 0.25
vt 0.12500544 0.253254
vt 0.125 0.25
vt 0.125 0.25
vt 0.12500273 0.17688349
vt 0.125 0.19163781
vt 0.124999985 0.09045552
vt 0.125 0
vt 0.125 0
vt 0.37500674 0.550033
vt 0.37500292 0.6590396
vt 0.6249943 0.55003196
vt 0.6249958 0.65904033
vt 0.37500292 0.6590396
vt 0.375 0.75
vt 0.6249958 0.65904033
vt 0.625 0.75
vt 0.624997 0.48860323
vt 0.625 0.5
vt 0.62499684 0.55856264
vt 0.625 0.5583622
vt 0.37500328 0.4887371
vt 0.37500334 0.55855256
vt 0.375 0.5
vt 0.375 0.5583622
vt 0.62499684 0.55856264
vt 0.625 0.5583622
vt 0.37500334 0.55855256
vt 0.375 0.5583622
vn -0 0 -1
vn -0 0 -1
vn -0 0 -1
vn 1 0 0
vn 1 0 0
vn 1 0 0
vn -1 0 0
vn -1 -1.7070717E-07 0
vn -1 -1.580075E-07 0
vn 1 0 0
vn 1 0 0
vn 1 0 0
vn -1 0 0
vn -1 0 0
vn -1 0 0
vn -0 0 1
vn -0 0 1
vn -0 0 1
vn -0 0 1
vn -0 0 1
vn -0 0 1
vn -0 0 1
vn -0 0 1
vn -0 0 1
vn -0.2309923 0.9729556 0
vn -0.12973712 0.9898919 0.05729227
vn -0 1 0
vn -0 0.99683595 0.07948597
vn -0 0.99175644 0.1281374
vn -0 0.99175644 0.1281374
vn -0 0 -1
vn -0 0 -1
vn -0 0 -1
vn -0 0 -1
vn -0 -1 0
vn -0 -1 0
vn -0 -1 0
vn -0 -1 0
vn 1 0 0
vn 1 0 0
vn 1 0 0
vn 1 0 0
vn 1 0 0
vn 1 0 0
vn 1 0 0
vn -1 0 0
vn -1 0 0
vn -1 0 0
vn -1 0 0
vn -1 0 0
vn -1 0 0
vn -0 -1 0
vn -0 -1 0
vn -0 -1 0
vn -0 -1 0
vn -0.2309923 0.9729556 0
vn -0.4313013 0.902208 0
vn -0.12973712 0.9898919 0.05729227
vn -0.4313013 0.902208 0
vn -0 0 -1
vn -0 0 -1
vn -0 0 -1
vn -0 0 -1
vn -0 0 -1
vn -0 0 -1
vn -0 -0.53526235 -0.84468585
vn -0 -0.53526235 -0.84468585
vn -0 -0.53526235 -0.84468585
vn -0 -0.53526235 -0.84468585
vn -0 0 -1
vn -0 0 -1
vn -0 0 -1
vn -0 0 -1
vn 1 0 0
vn 1 0 0
vn 1 0 0
vn 1 0 0
vn -1 -1.580075E-07 0
vn -1 -1.7070717E-07 0
vn -1 -1.7542308E-07 0
vn -1 -1.7542308E-07 0
vn -0 -0.9915427 -0.1297808
vn -0 -0.9915427 -0.1297808
vn -0 -0.9915427 -0.1297808
vn -0 -0.9915427 -0.1297808
g COL_JumpPlatform08_0
f 3/3/3 2/2/2 1/1/1
f 6/6/6 5/5/5 4/4/4
f 9/9/9 8/8/8 7/7/7
f 12/12/12 11/11/11 10/10/10
f 15/15/15 14/14/14 13/13/13
f 18/18/18 17/17/17 16/16/16
f 18/18/18 16/16/16 19/19/19
f 20/20/20 19/19/19 16/16/16
f 21/21/21 18/18/18 19/19/19
f 20/20/20 22/22/22 19/19/19
f 21/21/21 19/19/19 23/23/23
f 22/22/22 23/23/23 19/19/19
f 22/22/22 24/24/24 23/23/23
f 27/27/27 26/26/26 25/25/25
f 27/27/27 28/28/28 26/26/26
f 28/28/28 29/29/29 26/26/26
f 28/28/28 30/30/30 29/29/29
f 33/33/33 32/32/32 31/31/31
f 33/33/33 34/34/34 32/32/32
f 37/37/37 36/36/36 35/35/35
f 37/37/37 38/38/38 36/36/36
f 41/41/41 40/40/40 39/39/39
f 41/41/41 39/39/39 42/42/42
f 43/43/43 41/41/41 42/42/42
f 43/43/43 42/42/42 44/44/44
f 43/43/43 44/44/44 45/45/45
f 48/48/48 47/47/47 46/46/46
f 48/48/48 46/46/46 49/49/49
f 50/50/50 48/48/48 49/49/49
f 50/50/50 49/49/49 51/51/51
f 54/54/54 53/53/53 52/52/52
f 54/54/54 55/55/55 53/53/53
f 58/58/58 57/57/57 56/56/56
f 58/58/58 59/59/59 57/57/57
f 62/62/62 61/61/61 60/60/60
f 62/62/62 63/63/63 61/61/61
f 63/63/63 64/64/64 61/61/61
f 63/63/63 65/65/65 64/64/64
f 68/68/68 67/67/67 66/66/66
f 68/68/68 69/69/69 67/67/67
f 72/72/72 71/71/71 70/70/70
f 72/72/72 73/73/73 71/71/71
f 76/76/76 75/75/75 74/74/74
f 76/76/76 77/77/77 75/75/75
f 80/80/80 79/79/79 78/78/78
f 80/80/80 81/81/81 79/79/79
f 84/84/84 83/83/83 82/82/82
f 84/84/84 85/85/85 83/83/83
