g Col_ENV_BLO_Wall_1
v -1.0431801 0.042071477 -1.0098549
v -1.0431801 0.042071477 1.0098549
v 1.0431801 0.042071477 1.0098549
v 1.0431801 0.042071477 -1.0098549
v -1.0431801 4.021721 1.0098549
v -1.0431801 0.042071477 1.0098549
v -1.0431801 0.042071477 -1.0098549
v -1.0431801 4.021721 -1.0098549
v 1.0431801 4.021721 1.0098549
v 1.0431801 4.021721 -1.0098549
v 1.0431801 0.042071477 -1.0098549
v 1.0431801 0.042071477 1.0098549
v -1.0431801 4.021721 -1.0098549
v -1.0431801 0.042071477 -1.0098549
v 1.0431801 0.042071477 -1.0098549
v 1.0431801 4.021721 -1.0098549
v 1.0431801 4.021721 1.0098549
v -1.0431801 4.021721 1.0098549
v -1.0431801 4.021721 -1.0098549
v 1.0431801 4.021721 -1.0098549
v 1.0431801 4.021721 1.0098549
v 1.0431801 0.042071477 1.0098549
v -1.0431801 0.042071477 1.0098549
v -1.0431801 4.021721 1.0098549
vt 0.97731555 -0.2981425
vt 0.6660036 -0.2981425
vt 0.6660036 0.015946
vt 0.97731555 0.015946
vt 0.35227147 0.65106946
vt 0.35227147 0.015946
vt 0.038787946 0.015946
vt 0.038787946 0.65106946
vt 0.6660036 0.65106946
vt 0.97731555 0.65106946
vt 0.97731555 0.015946
vt 0.6660036 0.015946
vt 0.038787946 0.65106946
vt 0.038787946 0.015946
vt -0.2735727 0.015946
vt -0.2735727 0.65106946
vt 0.6660036 0.65106946
vt 0.35227147 0.65106946
vt 0.97731555 0.9617621
vt 0.97731555 0.65106946
vt 0.6660036 0.65106946
vt 0.6660036 0.015946
vt 0.35227147 0.015946
vt 0.35227147 0.65106946
vn -0 -1 0
vn -0 -1 0
vn -0 -1 0
vn -0 -1 0
vn -1 0 0
vn -1 0 0
vn -1 0 0
vn -1 0 0
vn 1 0 0
vn 1 0 0
vn 1 0 0
vn 1 0 0
vn -0 0 -1
vn -0 0 -1
vn -0 0 -1
vn -0 0 -1
vn -0 1 0
vn -0 1 0
vn -0 1 0
vn -0 1 0
vn -0 0 1
vn -0 0 1
vn -0 0 1
vn -0 0 1
g Col_ENV_BLO_Wall_1_0
f 3/3/3 2/2/2 1/1/1
f 4/4/4 3/3/3 1/1/1
f 7/7/7 6/6/6 5/5/5
f 8/8/8 7/7/7 5/5/5
f 11/11/11 10/10/10 9/9/9
f 12/12/12 11/11/11 9/9/9
f 15/15/15 14/14/14 13/13/13
f 16/16/16 15/15/15 13/13/13
f 19/19/19 18/18/18 17/17/17
f 20/20/20 19/19/19 17/17/17
f 23/23/23 22/22/22 21/21/21
f 24/24/24 23/23/23 21/21/21
