g COL_plasticSide
v 35.833397 53.247826 -4.167886
v 35.83566 56.138847 -4.229921
v 35.83455 56.138523 -5.8563514
v 35.833866 53.670765 -3.7774236
v 35.858646 54.026268 -3.3760595
v 35.8344 54.19 -2.9600744
v 35.834473 54.24439 -2.590227
v 35.83651 56.139526 -1.145341
v 35.834473 54.213398 -1.1386622
v 35.833866 53.670765 -3.7774236
v 35.833397 53.247826 -4.167886
v -33.582893 53.225086 -4.1696997
v -33.583416 53.64902 -3.7791576
v 35.858646 54.026268 -3.3760595
v -33.55943 54.005325 -3.3777294
v 35.8344 54.19 -2.9600744
v 35.858646 54.026268 -3.3760595
v -33.55943 54.005325 -3.3777294
v -33.584 54.169365 -2.9617674
v 35.834473 54.24439 -2.590227
v -33.584072 54.22406 -2.5918481
v -33.585747 56.138783 -4.171574
v -33.58453 56.1384 -5.857897
v 35.83455 56.138523 -5.8563514
v 35.83566 56.138847 -4.229921
v 35.833397 53.247826 -4.167886
v 35.83455 56.138523 -5.8563514
v -33.58453 56.1384 -5.857897
v -33.582893 53.225086 -4.1696997
v 35.83566 56.138847 -4.229921
v 35.83651 56.139526 -1.145341
v -33.58673 56.13943 -1.1464051
v -33.585747 56.138783 -4.171574
v 35.834473 54.24439 -2.590227
v -33.584072 54.22406 -2.5918481
v -33.58419 54.19424 -1.1401898
v 35.834473 54.213398 -1.1386622
v -33.584187 54.224716 12.843418
v -33.586727 56.139637 12.837203
v 35.836514 56.139725 12.838265
v 35.83448 54.243885 12.844946
v -33.582893 53.225086 -4.1696997
v -33.58453 56.1384 -5.857897
v -33.585747 56.138783 -4.171574
v -33.583416 53.64902 -3.7791576
v -33.55943 54.005325 -3.3777294
v -33.584 54.169365 -2.9617674
v -33.584072 54.22406 -2.5918481
v -33.58673 56.13943 -1.1464051
v -33.58419 54.19424 -1.1401898
v -33.58419 54.19424 -1.1401898
v -33.584187 54.224716 12.843418
v 35.83448 54.243885 12.844946
v 35.834473 54.213398 -1.1386622
v 35.834473 54.213398 -1.1386622
v 35.83448 54.243885 12.844946
v 35.836514 56.139725 12.838265
v 35.83651 56.139526 -1.145341
v 35.83651 56.139526 -1.145341
v 35.836514 56.139725 12.838265
v -33.586727 56.139637 12.837203
v -33.58673 56.13943 -1.1464051
v -33.58673 56.13943 -1.1464051
v -33.586727 56.139637 12.837203
v -33.584187 54.224716 12.843418
v -33.58419 54.19424 -1.1401898
vt 0.92959 0.52821374
vt 0.9821232 0.5549795
vt 0.97997046 0.5112294
vt 0.9322195 0.5435957
vt 0.93432873 0.5559337
vt 0.9313329 0.5637419
vt 0.92764217 0.5733613
vt 0.946787 0.6319653
vt 0.90677834 0.6026032
vt 1.282456 0.3277753
vt 1.2766434 0.31317413
vt -0.27607536 0.30246204
vt -0.28202495 0.3170123
vt 1.2871184 0.33948708
vt -0.2867972 0.32868326
vt 1.2883588 0.3477379
vt 1.2871184 0.33948708
vt -0.2867972 0.32868326
vt -0.2881959 0.33691508
vt 1.289887 0.3579025
vt -0.28991908 0.34705627
vt -0.3059768 0.8647224
vt -0.29110444 0.9072723
vt 1.2906322 0.91275203
vt 1.3054693 0.8720562
vt 1.2760638 0.26677996
vt 1.2904582 0.21500526
vt -0.28998697 0.20325264
vt -0.27653676 0.25528005
vt 1.3054693 0.8720562
vt 1.3169236 0.7833068
vt -0.31675538 0.77755463
vt -0.3059768 0.8647224
vt 1.289887 0.3579025
vt -0.28991908 0.34705627
vt -0.2912656 0.3837394
vt 1.2909931 0.39458832
vt -0.2912656 0.3837394
vt -0.31679174 0.42747545
vt 1.3161817 0.43852484
vt 1.2909931 0.39458832
vt 0.07044205 0.51935863
vt 0.020065045 0.50236636
vt 0.017906204 0.54611635
vt 0.0678093 0.5347411
vt 0.065697536 0.54707956
vt 0.068692684 0.5548877
vt 0.07238255 0.5645069
vt 0.053232983 0.6231065
vt 0.09324235 0.5937516
vt -0.2912656 0.3837394
vt -0.2912656 0.3837394
vt 1.2909931 0.39458832
vt 1.2909931 0.39458832
vt 1.2909931 0.39458832
vt 1.2909931 0.39458832
vt 1.3161817 0.43852484
vt 1.3161817 0.43852484
vt 1.3161817 0.43852484
vt 1.3161817 0.43852484
vt -0.31679174 0.42747545
vt -0.31679174 0.42747545
vt -0.31679174 0.42747545
vt -0.31679174 0.42747545
vt -0.2912656 0.3837394
vt -0.2912656 0.3837394
vn 0.9999995 -0.00079605234 -0.00061612146
vn 0.9999995 0.00043241907 -0.0009250872
vn 0.9999995 -0.00079605234 -0.0006161214
vn 0.99984705 -0.0038252077 -0.017062856
vn 0.9999403 0.0077703795 -0.007693207
vn 0.99975497 0.011628423 0.018838087
vn 0.99999964 -0.000860399 -0.00016331277
vn 0.9999995 -0.0009960337 -9.6542935E-05
vn 0.9999995 -0.0009967616 -9.552241E-05
vn 0.00020648011 -0.71451515 0.6996199
vn 0.00019842613 -0.6779394 0.73511773
vn 0.00019842616 -0.6779395 0.7351177
vn 0.00020625575 -0.71348804 0.7006674
vn 0.00024544384 -0.85210705 0.52336735
vn 0.00024560196 -0.8526217 0.5225287
vn 0.0002807498 -0.96566707 0.2597827
vn 0.00024544384 -0.85210705 0.52336735
vn 0.00024560196 -0.8526217 0.5225287
vn 0.00028107467 -0.9666931 0.2559381
vn 0.00028760065 -0.99803346 0.0626831
vn 0.00028760065 -0.99803334 0.062685415
vn -1.3190484E-06 1 -0.0002148152
vn -1.4232367E-06 1 -0.000212248
vn -1.4232367E-06 1 -0.000212248
vn -1.3191628E-06 1 -0.0002148124
vn 0.00010371993 -0.5028693 -0.86436254
vn 0.00010371993 -0.5028693 -0.86436254
vn 0.00010371993 -0.5028693 -0.86436254
vn 0.000103719925 -0.50286925 -0.86436254
vn -1.3191628E-06 1 -0.0002148124
vn -1.2580032E-06 1 -0.00011592462
vn -1.2580028E-06 1 -0.00011592499
vn -1.3190484E-06 1 -0.0002148152
vn 0.00028760065 -0.99803346 0.0626831
vn 0.00028760065 -0.99803334 0.062685415
vn 0.00028041218 -0.999956 -0.0093812365
vn 0.0002804122 -0.999956 -0.009381238
vn -1.9125959E-05 0.0033839492 0.9999943
vn -1.9125959E-05 0.003383949 0.9999943
vn -1.9125959E-05 0.0033839492 0.9999943
vn -1.9125959E-05 0.0033839492 0.9999943
vn -0.9999994 -0.0009790851 -0.00063811557
vn -0.9999994 -0.0009790852 -0.00063811557
vn -0.9999974 -0.0022952498 2.8503207E-05
vn -0.99987125 0.0016200237 0.015963249
vn -0.9999217 -0.00915896 0.00853574
vn -0.99972457 -0.012919635 -0.019589126
vn -0.9999994 -0.0011119377 -0.00019399083
vn -0.9999993 -0.0012568912 -0.00012627007
vn -0.9999993 -0.0012574891 -0.000125006
vn 0.00028041218 -0.999956 -0.0093812365
vn 0.0002759952 -0.9999976 0.0021797582
vn 0.0002759952 -0.9999976 0.0021797582
vn 0.0002804122 -0.999956 -0.009381238
vn 0.9999995 -0.0009967616 -9.552241E-05
vn 0.9999994 -0.0010654858 8.199776E-07
vn 0.9999994 -0.0010654858 8.1997763E-07
vn 0.9999995 -0.0009960337 -9.6542935E-05
vn -1.2580032E-06 1 -0.00011592462
vn -1.3009565E-06 1 -1.4491018E-05
vn -1.3009567E-06 1 -1.4491019E-05
vn -1.2580028E-06 1 -0.00011592499
vn -0.9999993 -0.0012568912 -0.00012627007
vn -0.99999917 -0.001317429 1.7070421E-06
vn -0.99999917 -0.0013174291 1.7070419E-06
vn -0.9999993 -0.0012574891 -0.000125006
g COL_plasticSide_0
f 3/3/3 2/2/2 1/1/1
f 2/2/2 4/4/4 1/1/1
f 5/5/5 4/4/4 2/2/2
f 2/2/2 6/6/6 5/5/5
f 7/7/7 6/6/6 2/2/2
f 2/2/2 8/8/8 7/7/7
f 8/8/8 9/9/9 7/7/7
f 12/12/12 11/11/11 10/10/10
f 13/13/13 12/12/12 10/10/10
f 13/13/13 10/10/10 14/14/14
f 15/15/15 13/13/13 14/14/14
f 18/18/18 17/17/17 16/16/16
f 19/19/19 18/18/18 16/16/16
f 19/19/19 16/16/16 20/20/20
f 21/21/21 19/19/19 20/20/20
f 24/24/24 23/23/23 22/22/22
f 25/25/25 24/24/24 22/22/22
f 28/28/28 27/27/27 26/26/26
f 29/29/29 28/28/28 26/26/26
f 32/32/32 31/31/31 30/30/30
f 33/33/33 32/32/32 30/30/30
f 36/36/36 35/35/35 34/34/34
f 37/37/37 36/36/36 34/34/34
f 40/40/40 39/39/39 38/38/38
f 41/41/41 40/40/40 38/38/38
f 44/44/44 43/43/43 42/42/42
f 45/45/45 44/44/44 42/42/42
f 46/46/46 44/44/44 45/45/45
f 46/46/46 47/47/47 44/44/44
f 44/44/44 47/47/47 48/48/48
f 49/49/49 44/44/44 48/48/48
f 50/50/50 49/49/49 48/48/48
f 53/53/53 52/52/52 51/51/51
f 54/54/54 53/53/53 51/51/51
f 57/57/57 56/56/56 55/55/55
f 58/58/58 57/57/57 55/55/55
f 61/61/61 60/60/60 59/59/59
f 62/62/62 61/61/61 59/59/59
f 65/65/65 64/64/64 63/63/63
f 66/66/66 65/65/65 63/63/63
