g COL_ButtonBody_V2
v -1.436223 0.3716836 0
v -1.015562 0.3716836 1.0155563
v -1.9684067 0.041769266 0
v -1.3918743 0.041769266 1.3918762
v -1.436223 0.3716836 0
v -0 0.37505007 0
v -1.015562 0.3716836 1.0155563
v -1.015562 0.3716836 1.0155563
v -0 0.3716836 1.4362183
v -0 0.041769266 1.9684067
v -1.3918743 0.041769266 1.3918762
v -1.015562 0.3716836 1.0155563
v -0 0.37505007 0
v -0 0.3716836 1.4362183
v -0 0.041769266 1.9684067
v -0 0.3716836 1.4362183
v 1.015562 0.3716836 1.0155563
v 1.3918743 0.041769266 1.3918762
v -0 0.3716836 1.4362183
v -0 0.37505007 0
v 1.015562 0.3716836 1.0155563
v 1.436223 0.3716836 0
v 1.9684067 0.041769266 0
v 1.015562 0.3716836 1.0155563
v 1.3918743 0.041769266 1.3918762
v 1.015562 0.3716836 1.0155563
v -0 0.37505007 0
v 1.436223 0.3716836 0
v 1.015562 0.3716836 -1.0155563
v 1.3918743 0.041769266 -1.3918762
v 1.9684067 0.041769266 0
v 1.436223 0.3716836 0
v 1.436223 0.3716836 0
v -0 0.37505007 0
v 1.015562 0.3716836 -1.0155563
v -0 0.041769266 -1.9684067
v 1.015562 0.3716836 -1.0155563
v -0 0.3716836 -1.4362183
v 1.3918743 0.041769266 -1.3918762
v 1.015562 0.3716836 -1.0155563
v -0 0.37505007 0
v -0 0.3716836 -1.4362183
v -0 0.041769266 -1.9684067
v -1.015562 0.3716836 -1.0155563
v -1.3918743 0.041769266 -1.3918762
v -0 0.3716836 -1.4362183
v -0 0.3716836 -1.4362183
v -0 0.37505007 0
v -1.015562 0.3716836 -1.0155563
v -1.3918743 0.041769266 -1.3918762
v -1.015562 0.3716836 -1.0155563
v -1.9684067 0.041769266 0
v -1.436223 0.3716836 0
v -1.015562 0.3716836 -1.0155563
v -0 0.37505007 0
v -1.436223 0.3716836 0
v -1.9684067 -0.37504983 0
v 1.3918743 -0.37504983 1.3918762
v 1.9684067 -0.37504983 0
v -0 -0.37504983 -1.9684067
v 1.3918743 -0.37504983 -1.3918762
v -1.3918743 -0.37504983 -1.3918762
v -0 -0.37504983 1.9684067
v -1.3918743 -0.37504983 1.3918762
v 1.3918743 0.041769266 1.3918762
v 1.9684067 0.041769266 0
v 1.3918743 -0.37504983 1.3918762
v 1.9684067 -0.37504983 0
v 1.9684067 0.041769266 0
v 1.3918743 0.041769266 -1.3918762
v 1.9684067 -0.37504983 0
v 1.3918743 -0.37504983 -1.3918762
v 1.3918743 0.041769266 -1.3918762
v -0 0.041769266 -1.9684067
v 1.3918743 -0.37504983 -1.3918762
v -0 -0.37504983 -1.9684067
v -1.3918743 0.041769266 -1.3918762
v -1.9684067 0.041769266 0
v -1.3918743 -0.37504983 -1.3918762
v -1.9684067 -0.37504983 0
v -0 0.041769266 -1.9684067
v -1.3918743 0.041769266 -1.3918762
v -0 -0.37504983 -1.9684067
v -1.3918743 -0.37504983 -1.3918762
v -0 0.041769266 1.9684067
v 1.3918743 0.041769266 1.3918762
v -0 -0.37504983 1.9684067
v 1.3918743 -0.37504983 1.3918762
v -1.3918743 0.041769266 1.3918762
v -0 0.041769266 1.9684067
v -1.3918743 -0.37504983 1.3918762
v -0 -0.37504983 1.9684067
v -1.9684067 0.041769266 0
v -1.3918743 0.041769266 1.3918762
v -1.9684067 -0.37504983 0
v -1.3918743 -0.37504983 1.3918762
vt 1.2810699 -0.08372626
vt 0.87625456 0.93824965
vt 1.8829037 -0.06438858
vt 1.3280884 1.3362858
vt 1.2810699 -0.08372626
vt -0.10196808 -0.04039062
vt 0.87625456 0.93824965
vt 0.9654778 0.8461634
vt -0.04320099 1.2830727
vt -0.0048548644 1.8839991
vt 1.3775856 1.2852006
vt 0.9654778 0.8461634
vt -0.043592274 -0.10064012
vt -0.04320099 1.2830727
vt 0.0048548644 1.8839991
vt 0.04320099 1.2830727
vt -0.9654778 0.8461634
vt -1.3775856 1.2852006
vt 0.04320099 1.2830727
vt 0.043592274 -0.10064012
vt -0.9654778 0.8461634
vt -1.2810699 -0.08372626
vt -1.8829037 -0.06438858
vt -0.87625456 0.93824965
vt -1.3280884 1.3362858
vt -0.87625456 0.93824965
vt 0.10196808 -0.04039062
vt -1.2810699 -0.08372626
vt -0.8762558 -0.93825144
vt -1.3280892 -1.3362874
vt -1.8829048 0.06438699
vt -1.2810713 0.08372445
vt -1.2810713 0.08372445
vt 0.10196739 0.040389903
vt -0.8762558 -0.93825144
vt 0.0048548644 -1.8839991
vt -0.9654778 -0.8461634
vt 0.04320099 -1.2830727
vt -1.3775856 -1.2852006
vt -0.9654778 -0.8461634
vt 0.043592274 0.10064012
vt 0.04320099 -1.2830727
vt -0.004854784 -1.8840001
vt 0.9654788 -0.8461652
vt 1.377586 -1.2852024
vt -0.04320027 -1.2830739
vt -0.04320027 -1.2830739
vt -0.04359155 0.10063956
vt 0.9654788 -0.8461652
vt 1.3280892 -1.3362874
vt 0.8762558 -0.93825144
vt 1.8829048 0.06438699
vt 1.2810713 0.08372445
vt 0.8762558 -0.93825144
vt -0.10196739 0.040389903
vt 1.2810713 0.08372445
vt -1.9684067 0
vt 1.3918743 1.3918762
vt 1.9684067 0
vt -0 -1.9684067
vt 1.3918743 -1.3918762
vt -1.3918743 -1.3918762
vt 0 1.9684067
vt -1.3918743 1.3918762
vt -0.7532805 0.041769266
vt 0.75327486 0.041769266
vt -0.7532805 -0.37504983
vt 0.75327486 -0.37504983
vt -0.75327486 0.041769266
vt 0.7532805 0.041769266
vt -0.75327486 -0.37504983
vt 0.7532805 -0.37504983
vt -0.7532793 0.041769266
vt 0.7532736 0.041769266
vt -0.7532793 -0.37504983
vt 0.7532736 -0.37504983
vt -0.7532805 0.041769266
vt 0.75327486 0.041769266
vt -0.7532805 -0.37504983
vt 0.75327486 -0.37504983
vt -0.7532736 0.041769266
vt 0.7532793 0.041769266
vt -0.7532736 -0.37504983
vt 0.7532793 -0.37504983
vt -0.7532736 0.041769266
vt 0.7532793 0.041769266
vt -0.7532736 -0.37504983
vt 0.7532793 -0.37504983
vt -0.7532793 0.041769266
vt 0.7532736 0.041769266
vt -0.7532793 -0.37504983
vt 0.7532736 -0.37504983
vt -0.75327486 0.041769266
vt 0.7532805 0.041769266
vt -0.75327486 -0.37504983
vt 0.7532805 -0.37504983
vn -0.51477665 0.83038443 0.21322937
vn -0.51477516 0.8303858 0.21322748
vn -0.51477516 0.8303858 0.21322748
vn -0.5147736 0.83038723 0.2132256
vn -0.002343967 0.99999684 0.0009709117
vn -0.002343967 0.99999684 0.0009709117
vn -0.002343967 0.99999684 0.0009709117
vn -0.21322572 0.8303881 0.5147722
vn -0.21322738 0.8303869 0.51477355
vn -0.21322572 0.8303881 0.5147722
vn -0.21322405 0.8303894 0.51477087
vn -0.00097091164 0.99999684 0.0023439748
vn -0.00097091164 0.99999684 0.0023439748
vn -0.00097091164 0.99999684 0.0023439748
vn 0.21322572 0.8303881 0.5147722
vn 0.21322738 0.8303869 0.51477355
vn 0.21322572 0.8303881 0.5147722
vn 0.21322405 0.8303894 0.51477087
vn 0.00097091164 0.99999684 0.0023439748
vn 0.00097091164 0.99999684 0.0023439748
vn 0.00097091164 0.99999684 0.0023439748
vn 0.51477665 0.83038443 0.21322937
vn 0.51477516 0.8303858 0.21322748
vn 0.51477516 0.8303858 0.21322748
vn 0.5147736 0.83038723 0.2132256
vn 0.002343967 0.99999684 0.0009709117
vn 0.002343967 0.99999684 0.0009709117
vn 0.002343967 0.99999684 0.0009709117
vn 0.51477516 0.8303858 -0.21322748
vn 0.5147736 0.83038723 -0.2132256
vn 0.51477516 0.8303858 -0.21322748
vn 0.51477665 0.83038443 -0.21322937
vn 0.002343967 0.99999684 -0.0009709117
vn 0.002343967 0.99999684 -0.0009709117
vn 0.002343967 0.99999684 -0.0009709117
vn 0.21322572 0.8303881 -0.5147722
vn 0.21322572 0.8303881 -0.5147722
vn 0.21322738 0.8303869 -0.51477355
vn 0.21322405 0.8303894 -0.51477087
vn 0.00097091164 0.99999684 -0.0023439748
vn 0.00097091164 0.99999684 -0.0023439748
vn 0.00097091164 0.99999684 -0.0023439748
vn -0.21322572 0.8303881 -0.5147722
vn -0.21322572 0.8303881 -0.5147722
vn -0.21322405 0.8303894 -0.51477087
vn -0.21322738 0.8303869 -0.51477355
vn -0.00097091164 0.99999684 -0.0023439748
vn -0.00097091164 0.99999684 -0.0023439748
vn -0.00097091164 0.99999684 -0.0023439748
vn -0.5147736 0.83038723 -0.2132256
vn -0.51477516 0.8303858 -0.21322748
vn -0.51477516 0.8303858 -0.21322748
vn -0.51477665 0.83038443 -0.21322937
vn -0.002343967 0.99999684 -0.0009709117
vn -0.002343967 0.99999684 -0.0009709117
vn -0.002343967 0.99999684 -0.0009709117
vn -0 -1 0
vn -0 -1 0
vn -0 -1 0
vn -0 -1 0
vn -0 -1 0
vn -0 -1 0
vn -0 -1 0
vn -0 -1 0
vn 0.9238799 0 0.38268253
vn 0.9238799 0 0.38268253
vn 0.9238799 0 0.38268253
vn 0.9238799 0 0.38268253
vn 0.9238799 0 -0.38268253
vn 0.9238799 0 -0.38268253
vn 0.9238799 0 -0.38268253
vn 0.9238799 0 -0.38268253
vn 0.3826819 0 -0.9238802
vn 0.3826819 0 -0.9238802
vn 0.3826819 0 -0.9238802
vn 0.3826819 0 -0.9238802
vn -0.9238799 0 -0.38268253
vn -0.9238799 0 -0.38268253
vn -0.9238799 0 -0.38268253
vn -0.9238799 0 -0.38268253
vn -0.3826819 0 -0.9238802
vn -0.3826819 0 -0.9238802
vn -0.3826819 0 -0.9238802
vn -0.3826819 0 -0.9238802
vn 0.3826819 0 0.9238802
vn 0.3826819 0 0.9238802
vn 0.3826819 0 0.9238802
vn 0.3826819 0 0.9238802
vn -0.3826819 0 0.9238802
vn -0.3826819 0 0.9238802
vn -0.3826819 0 0.9238802
vn -0.3826819 0 0.9238802
vn -0.9238799 0 0.38268253
vn -0.9238799 0 0.38268253
vn -0.9238799 0 0.38268253
vn -0.9238799 0 0.38268253
g COL_ButtonBody_V2_0
f 3/3/3 2/2/2 1/1/1
f 4/4/4 2/2/2 3/3/3
f 7/7/7 6/6/6 5/5/5
f 10/10/10 9/9/9 8/8/8
f 10/10/10 8/8/8 11/11/11
f 14/14/14 13/13/13 12/12/12
f 17/17/17 16/16/16 15/15/15
f 18/18/18 17/17/17 15/15/15
f 21/21/21 20/20/20 19/19/19
f 24/24/24 23/23/23 22/22/22
f 24/24/24 25/25/25 23/23/23
f 28/28/28 27/27/27 26/26/26
f 31/31/31 30/30/30 29/29/29
f 32/32/32 31/31/31 29/29/29
f 35/35/35 34/34/34 33/33/33
f 38/38/38 37/37/37 36/36/36
f 37/37/37 39/39/39 36/36/36
f 42/42/42 41/41/41 40/40/40
f 45/45/45 44/44/44 43/43/43
f 44/44/44 46/46/46 43/43/43
f 49/49/49 48/48/48 47/47/47
f 52/52/52 51/51/51 50/50/50
f 52/52/52 53/53/53 51/51/51
f 56/56/56 55/55/55 54/54/54
f 59/59/59 58/58/58 57/57/57
f 59/59/59 57/57/57 60/60/60
f 61/61/61 59/59/59 60/60/60
f 60/60/60 57/57/57 62/62/62
f 58/58/58 63/63/63 57/57/57
f 57/57/57 63/63/63 64/64/64
f 67/67/67 66/66/66 65/65/65
f 67/67/67 68/68/68 66/66/66
f 71/71/71 70/70/70 69/69/69
f 71/71/71 72/72/72 70/70/70
f 75/75/75 74/74/74 73/73/73
f 75/75/75 76/76/76 74/74/74
f 79/79/79 78/78/78 77/77/77
f 79/79/79 80/80/80 78/78/78
f 83/83/83 82/82/82 81/81/81
f 83/83/83 84/84/84 82/82/82
f 87/87/87 86/86/86 85/85/85
f 87/87/87 88/88/88 86/86/86
f 91/91/91 90/90/90 89/89/89
f 91/91/91 92/92/92 90/90/90
f 95/95/95 94/94/94 93/93/93
f 95/95/95 96/96/96 94/94/94
