g COL_SideWall_MO02
v -6.8059134 -8.682305 -7.727633
v 1.1709659 -8.682305 -1.4998264
v 1.1709659 0 -1.4998264
v -6.8059134 0 -7.727633
v -6.8059134 0 -7.727633
v 1.1709659 0 -1.4998264
v -8.732746E-07 0 7.1050573E-07
v -7.9768777 0 -6.227806
v -7.9768777 0 -6.227806
v -8.732746E-07 0 7.1050573E-07
v -8.732746E-07 -8.682305 7.1050573E-07
v -7.9768777 -8.682305 -6.227806
v -7.9768777 -8.682305 -6.227806
v -8.732746E-07 -8.682305 7.1050573E-07
v 1.1709659 -8.682305 -1.4998264
v -6.8059134 -8.682305 -7.727633
v 1.1709659 -8.682305 -1.4998264
v -8.732746E-07 -8.682305 7.1050573E-07
v -8.732746E-07 0 7.1050573E-07
v 1.1709659 0 -1.4998264
v -7.9768777 -8.682305 -6.227806
v -6.8059134 -8.682305 -7.727633
v -6.8059134 0 -7.727633
v -7.9768777 0 -6.227806
vt 0.375 0
vt 0.625 0
vt 0.625 0.25
vt 0.375 0.25
vt 0.375 0.25
vt 0.625 0.25
vt 0.625 0.5
vt 0.375 0.5
vt 0.375 0.5
vt 0.625 0.5
vt 0.625 0.75
vt 0.375 0.75
vt 0.375 0.75
vt 0.625 0.75
vt 0.625 1
vt 0.375 1
vt 0.625 0
vt 0.875 0
vt 0.875 0.25
vt 0.625 0.25
vt 0.125 0
vt 0.375 0
vt 0.375 0.25
vt 0.125 0.25
vn 0.61539054 0 -0.7882224
vn 0.61539054 0 -0.7882224
vn 0.61539054 0 -0.7882224
vn 0.61539054 0 -0.7882224
vn -0 1 -3.2456617E-07
vn -0 1 -3.245661E-07
vn -0 1 -3.2456614E-07
vn -0 1 -3.2456614E-07
vn -0.6153907 0 0.78822225
vn -0.6153907 0 0.78822225
vn -0.6153907 0 0.78822225
vn -0.6153907 0 0.78822225
vn -0 -1 0
vn -0 -1 0
vn -0 -1 0
vn -0 -1 0
vn 0.78822154 0 0.61539173
vn 0.78822154 0 0.61539173
vn 0.78822154 0 0.61539173
vn 0.78822154 0 0.61539173
vn -0.788222 0 -0.61539096
vn -0.788222 0 -0.61539096
vn -0.788222 0 -0.61539096
vn -0.788222 0 -0.61539096
g COL_SideWall_MO02_0
f 3/3/3 2/2/2 1/1/1
f 4/4/4 3/3/3 1/1/1
f 7/7/7 6/6/6 5/5/5
f 8/8/8 7/7/7 5/5/5
f 11/11/11 10/10/10 9/9/9
f 12/12/12 11/11/11 9/9/9
f 15/15/15 14/14/14 13/13/13
f 16/16/16 15/15/15 13/13/13
f 19/19/19 18/18/18 17/17/17
f 20/20/20 19/19/19 17/17/17
f 23/23/23 22/22/22 21/21/21
f 24/24/24 23/23/23 21/21/21
