g COL_PB_Gauntlet08_Segment_Small_TrapezeIntro_Left_Slime_Ramp_Long_Bottom
v 7.986355 -16.307936 3.000047
v 7.6974373 -10.42691 2.25003
v 7.6974373 -10.426925 -7.2499685
v 7.986355 -16.307953 -7.2499523
v -0.2640381 -11.211052 2.2500324
v -0.013645172 -16.307936 3.000047
v -0.013645172 -16.307953 -7.2499523
v -0.2640381 -11.211062 -7.249968
v 7.6974373 -10.42691 2.25003
v 6.8334694 -4.6025267 1.2499712
v 6.8334694 -4.6025333 -7.2499843
v 7.6974373 -10.426925 -7.2499685
v -1.0128136 -6.1632495 1.2499757
v -0.2640381 -11.211052 2.2500324
v -0.2640381 -11.211062 -7.249968
v -1.0128136 -6.1632557 -7.2499843
v 6.8334694 -4.6025267 1.2499712
v 5.402775 1.1091328 0.4999621
v 5.402775 1.1091281 -7.2499995
v 6.8334694 -4.6025333 -7.2499843
v -2.2527466 -1.2131395 0.49996114
v -1.0128136 -6.1632495 1.2499757
v -1.0128136 -6.1632557 -7.2499843
v -2.2527466 -1.2131497 -7.2499995
v 5.402775 1.1091328 0.4999621
v 3.4191246 6.653061 -0.25006175
v 3.4191246 6.6530538 -7.2500153
v 5.402775 1.1091281 -7.2499995
v -3.9719124 3.591591 -0.25006056
v -2.2527466 -1.2131395 0.49996114
v -2.2527466 -1.2131497 -7.2499995
v -3.9719124 3.5915856 -7.250015
v 3.4191246 6.653061 -0.25006175
v 0.9016304 11.975851 -1.0000697
v 0.9016304 11.975847 -7.2500296
v 3.4191246 6.6530538 -7.2500153
v -6.153736 8.2046795 -1.000074
v -3.9719124 3.591591 -0.25006056
v -3.9719124 3.5915856 -7.250015
v -6.153736 8.204676 -7.25003
v 0.9016304 11.975851 -1.0000697
v -1.3345985 16.307951 -1.5000399
v -1.3345985 16.307945 -7.25004
v 0.9016304 11.975847 -7.2500296
v -7.986355 11.863385 -1.5000422
v -6.153736 8.2046795 -1.000074
v -6.153736 8.204676 -7.25003
v -7.986355 11.863382 -7.2500424
v -0.013645172 -16.307936 3.000047
v -0.2640381 -11.211052 2.2500324
v 7.6974373 -10.42691 2.25003
v 7.986355 -16.307936 3.000047
v -0.2640381 -11.211062 -7.249968
v -0.013645172 -16.307953 -7.2499523
v 7.986355 -16.307953 -7.2499523
v 7.6974373 -10.426925 -7.2499685
v -0.2640381 -11.211052 2.2500324
v -1.0128136 -6.1632495 1.2499757
v 6.8334694 -4.6025267 1.2499712
v 7.6974373 -10.42691 2.25003
v -1.0128136 -6.1632557 -7.2499843
v 6.8334694 -4.6025333 -7.2499843
v -1.0128136 -6.1632495 1.2499757
v -2.2527466 -1.2131395 0.49996114
v 5.402775 1.1091328 0.4999621
v 6.8334694 -4.6025267 1.2499712
v -2.2527466 -1.2131497 -7.2499995
v 5.402775 1.1091281 -7.2499995
v -2.2527466 -1.2131395 0.49996114
v -3.9719124 3.591591 -0.25006056
v 3.4191246 6.653061 -0.25006175
v 5.402775 1.1091328 0.4999621
v -3.9719124 3.5915856 -7.250015
v 3.4191246 6.6530538 -7.2500153
v -3.9719124 3.591591 -0.25006056
v -6.153736 8.2046795 -1.000074
v 0.9016304 11.975851 -1.0000697
v 3.4191246 6.653061 -0.25006175
v -6.153736 8.204676 -7.25003
v 0.9016304 11.975847 -7.2500296
v -6.153736 8.2046795 -1.000074
v -7.986355 11.863385 -1.5000422
v -1.3345985 16.307951 -1.5000399
v 0.9016304 11.975851 -1.0000697
v -7.986355 11.863382 -7.2500424
v -1.3345985 16.307945 -7.25004
v -1.3345985 16.307945 -7.25004
v -1.3345985 16.307951 -1.5000399
v -7.986355 11.863385 -1.5000422
v -7.986355 11.863382 -7.2500424
v -0.013645172 -16.307953 -7.2499523
v -0.013645172 -16.307936 3.000047
v 7.986355 -16.307936 3.000047
v 7.986355 -16.307953 -7.2499523
vt -3.0000474 -16.680166
vt -2.2500305 -10.7920475
vt 7.249968 -10.792062
vt 7.249952 -16.680183
vt 2.2500324 -11.184592
vt 3.000047 -16.287624
vt -7.2499523 -16.287642
vt -7.249968 -11.184603
vt -2.250031 -11.443506
vt -1.249972 -5.555392
vt 7.2499833 -5.5553985
vt 7.2499676 -11.443521
vt 1.2499756 -5.9479294
vt 2.2500324 -11.050965
vt -7.249968 -11.050976
vt -7.2499843 -5.9479356
vt -1.2499722 -6.1249905
vt -0.49996293 -0.23687206
vt 7.2499986 -0.23687686
vt 7.2499833 -6.124997
vt 0.49996072 -0.6294129
vt 1.2499754 -5.7324533
vt -7.2499843 -5.73246
vt -7.25 -0.6294231
vt -0.49996406 -0.77584326
vt 0.2500605 5.1122813
vt 7.250014 5.1122737
vt 7.2499976 -0.7758486
vt -0.2500624 4.7197404
vt 0.4999601 -0.3832943
vt -7.2500005 -0.38330504
vt -7.2500167 4.7197347
vt 0.25006077 4.55243
vt 1.0000695 10.440543
vt 7.250029 10.440538
vt 7.2500143 4.552423
vt -1.0000762 10.048002
vt -0.25006196 4.944969
vt -7.250016 4.9449635
vt -7.2500324 10.047997
vt 1.0000693 10.22811
vt 1.5000407 15.103334
vt 7.2500405 15.103328
vt 7.250029 10.228106
vt -1.5000446 14.183849
vt -1.0000759 10.09183
vt -7.250032 10.0918255
vt -7.250045 14.1838455
vt 0.02962192 -16.570505
vt -0.23156142 -11.4192705
vt 7.7290864 -10.626767
vt 8.02879 -16.553791
vt 0.2640381 -11.2110405
vt 0.013645172 -16.30793
vt -7.986355 -16.30793
vt -7.6974373 -10.426903
vt -0.17778122 -11.435834
vt -0.9642609 -6.295548
vt 6.87628 -4.70623
vt 7.777868 -10.608294
vt 1.0128154 -6.163233
vt -6.8334675 -4.6025105
vt -0.95854574 -6.2831497
vt -2.2293575 -1.2842915
vt 5.4191895 1.0608504
vt 6.8805885 -4.690996
vt 2.2527509 -1.2131283
vt -5.4027705 1.1091495
vt -2.2210736 -1.2862918
vt -3.9796891 3.5624988
vt 3.3996568 6.6520433
vt 5.4223385 1.0727715
vt 3.9719186 3.5916064
vt -3.4191184 6.6530747
vt -3.979695 3.5586035
vt -6.20819 8.210192
vt 0.8302633 12.012836
vt 3.3936236 6.6604037
vt 6.153744 8.204696
vt -0.9016225 11.975867
vt -6.2076435 8.220916
vt -8.070112 11.898659
vt -1.4338673 16.366352
vt 0.83127093 12.021499
vt 7.986366 11.863401
vt 1.3346093 16.307964
vt -7.950538 -7.250028
vt -7.9505415 -1.5000281
vt 0.049460545 -1.5000304
vt 0.049462132 -7.2500305
vt -0.013645172 -7.2499795
vt -0.013645172 3.0000196
vt 7.986355 3.0000196
vt 7.986355 -7.2499795
vn 0.99879545 0.049067877 -7.803135E-08
vn 0.99879545 0.049067885 -7.388651E-08
vn 0.99879545 0.049067877 -7.803135E-08
vn 0.99879545 0.049067874 -8.2176186E-08
vn -0.9987955 -0.049067453 6.817923E-08
vn -0.9987955 -0.04906748 8.217553E-08
vn -0.9987955 -0.049067453 6.817923E-08
vn -0.99879545 -0.049067426 5.4182927E-08
vn 0.9891765 0.14673074 -1.6809358E-07
vn 0.98917645 0.14673081 -1.15239885E-07
vn 0.9891765 0.14673074 -1.6809358E-07
vn 0.9891765 0.14673066 -2.2094729E-07
vn -0.9891764 -0.14673132 1.3451873E-07
vn -0.9891764 -0.14673136 1.6202874E-07
vn -0.9891764 -0.14673132 1.3451873E-07
vn -0.9891764 -0.14673127 1.0700873E-07
vn 0.9700314 0.24297988 -1.7016606E-07
vn 0.9700314 0.2429799 -1.494999E-07
vn 0.9700314 0.24297988 -1.7016606E-07
vn 0.9700314 0.24297985 -1.9083224E-07
vn -0.9700315 -0.24297935 2.4744375E-07
vn -0.9700315 -0.24297924 1.7720082E-07
vn -0.9700315 -0.24297935 2.4744375E-07
vn -0.97003144 -0.24297944 3.176867E-07
vn 0.94154406 0.33689004 -2.7316653E-07
vn 0.94154406 0.33688998 -3.4423442E-07
vn 0.94154406 0.33689004 -2.7316653E-07
vn 0.941544 0.33689013 -2.0209866E-07
vn -0.9415438 -0.33689067 3.4386466E-07
vn -0.94154376 -0.3368908 4.3529033E-07
vn -0.9415438 -0.33689067 3.4386466E-07
vn -0.9415438 -0.33689055 2.5243898E-07
vn 0.9039892 0.4275552 -3.4891846E-07
vn 0.90398914 0.4275553 -2.6096075E-07
vn 0.9039892 0.4275552 -3.4891846E-07
vn 0.90398926 0.42755514 -4.3687618E-07
vn -0.9039897 -0.4275543 2.906677E-07
vn -0.9039897 -0.42755434 3.203752E-07
vn -0.9039897 -0.4275543 2.906677E-07
vn -0.9039897 -0.42755425 2.6096023E-07
vn 0.88859504 0.4586926 -3.6821405E-07
vn 0.8885951 0.45869252 -4.5646252E-07
vn 0.88859504 0.4586926 -3.6821405E-07
vn 0.888595 0.4586927 -2.799656E-07
vn -0.89410776 -0.4478519 2.480932E-07
vn -0.89410776 -0.44785196 2.733491E-07
vn -0.89410776 -0.4478519 2.480932E-07
vn -0.89410776 -0.44785187 2.228373E-07
vn -0.0071347496 0.13569492 0.9906558
vn -0.014269499 0.14488281 0.9893459
vn -0.0071347496 0.13569492 0.9906558
vn -0 0.12650703 0.9919657
vn 1.0530168E-07 -2.9168461E-06 -1
vn -0 -3.0872993E-06 -1
vn 1.0530168E-07 -2.9168461E-06 -1
vn 2.1060336E-07 -2.746393E-06 -1
vn -0.02699668 0.17783667 0.98356867
vn -0.037561767 0.18883859 0.9812895
vn -0.02699668 0.17783667 0.98356867
vn -0.01643159 0.16683476 0.9858479
vn 3.8737136E-07 -2.8992695E-06 -1
vn 5.21995E-07 -2.6242467E-06 -1
vn -0.033470105 0.13169493 0.9906559
vn -0.04226071 0.13931477 0.98934597
vn -0.033470105 0.13169493 0.9906559
vn -0.024679499 0.124075085 0.9919659
vn 6.6860855E-07 -2.7095389E-06 -1
vn 7.531666E-07 -2.4828569E-06 -1
vn -0.046218142 0.12778187 0.99065566
vn -0.055712886 0.1345031 0.9893458
vn -0.046218142 0.12778187 0.99065566
vn -0.036723394 0.12106064 0.9919656
vn 9.183901E-07 -2.6784624E-06 -1
vn 9.677422E-07 -2.4920905E-06 -1
vn -0.058519807 0.12263453 0.9906559
vn -0.0686281 0.12839304 0.98934597
vn -0.058519807 0.12263453 0.9906559
vn -0.04841151 0.11687603 0.99196583
vn 1.1461459E-06 -2.4555316E-06 -1
vn 1.2005814E-06 -2.1196872E-06 -1
vn -0.05799764 0.09579909 0.99364257
vn -0.06789886 0.101617225 0.9925037
vn -0.05799764 0.09579909 0.99364257
vn -0.04809642 0.08998095 0.9947815
vn 1.4758035E-06 -2.1545939E-06 -1
vn 1.4695826E-06 -1.6629575E-06 -1
vn -0.55557054 0.8314694 -6.205704E-07
vn -0.55557066 0.83146936 -8.2742713E-07
vn -0.55557054 0.8314694 -6.205704E-07
vn -0.5555704 0.83146954 -4.1371368E-07
vn -0 -1 1.6747452E-06
vn -0 -1 1.6747452E-06
vn -0 -1 1.6747452E-06
vn -0 -1 1.6747452E-06
g COL_PB_Gauntlet08_Segment_Small_TrapezeIntro_Left_Slime_Ramp_Long_Bottom_0
f 3/3/3 2/2/2 1/1/1
f 4/4/4 3/3/3 1/1/1
f 7/7/7 6/6/6 5/5/5
f 8/8/8 7/7/7 5/5/5
f 11/11/11 10/10/10 9/9/9
f 12/12/12 11/11/11 9/9/9
f 15/15/15 14/14/14 13/13/13
f 16/16/16 15/15/15 13/13/13
f 19/19/19 18/18/18 17/17/17
f 20/20/20 19/19/19 17/17/17
f 23/23/23 22/22/22 21/21/21
f 24/24/24 23/23/23 21/21/21
f 27/27/27 26/26/26 25/25/25
f 28/28/28 27/27/27 25/25/25
f 31/31/31 30/30/30 29/29/29
f 32/32/32 31/31/31 29/29/29
f 35/35/35 34/34/34 33/33/33
f 36/36/36 35/35/35 33/33/33
f 39/39/39 38/38/38 37/37/37
f 40/40/40 39/39/39 37/37/37
f 43/43/43 42/42/42 41/41/41
f 44/44/44 43/43/43 41/41/41
f 47/47/47 46/46/46 45/45/45
f 48/48/48 47/47/47 45/45/45
f 51/51/51 50/50/50 49/49/49
f 52/52/52 51/51/51 49/49/49
f 55/55/55 54/54/54 53/53/53
f 56/56/56 55/55/55 53/53/53
f 59/59/59 58/58/58 57/57/57
f 60/60/60 59/59/59 57/57/57
f 56/56/56 53/53/53 61/61/61
f 62/62/62 56/56/56 61/61/61
f 65/65/65 64/64/64 63/63/63
f 66/66/66 65/65/65 63/63/63
f 62/62/62 61/61/61 67/67/67
f 68/68/68 62/62/62 67/67/67
f 71/71/71 70/70/70 69/69/69
f 72/72/72 71/71/71 69/69/69
f 68/68/68 67/67/67 73/73/73
f 74/74/74 68/68/68 73/73/73
f 77/77/77 76/76/76 75/75/75
f 78/78/78 77/77/77 75/75/75
f 74/74/74 73/73/73 79/79/79
f 80/80/80 74/74/74 79/79/79
f 83/83/83 82/82/82 81/81/81
f 84/84/84 83/83/83 81/81/81
f 80/80/80 79/79/79 85/85/85
f 86/86/86 80/80/80 85/85/85
f 89/89/89 88/88/88 87/87/87
f 89/89/89 87/87/87 90/90/90
f 93/93/93 92/92/92 91/91/91
f 93/93/93 91/91/91 94/94/94
