g COL_FallGuy_Penguin_Solos_Support_Beam_5
v -1.25 -7.375 0
v -1.25 7.375 0
v -1.0825317 -7.375 0.625
v -1.0825317 7.375 0.625
v -1.0825317 -7.375 0.625
v -1.0825317 7.375 0.625
v -0.62499994 -7.375 1.0825318
v -0.62499994 7.375 1.0825318
v -0.62499994 -7.375 1.0825318
v -0.62499994 7.375 1.0825318
v -0 -7.375 1.25
v -0 7.375 1.25
v -0 -7.375 1.25
v -0 7.375 1.25
v 0.625 -7.375 1.0825317
v 0.625 7.375 1.0825317
v 0.625 -7.375 1.0825317
v 0.625 7.375 1.0825317
v 1.0825317 -7.375 0.62500006
v 1.0825317 7.375 0.62500006
v 1.0825317 -7.375 0.62500006
v 1.0825317 7.375 0.62500006
v 1.25 -7.375 -1.09278474E-07
v 1.25 7.375 -1.09278474E-07
v 1.25 -7.375 -1.09278474E-07
v 1.25 7.375 -1.09278474E-07
v 1.0825317 -7.375 -0.62499994
v 1.0825317 7.375 -0.62499994
v 1.0825317 -7.375 -0.62499994
v 1.0825317 7.375 -0.62499994
v 0.6249999 -7.375 -1.0825318
v 0.6249999 7.375 -1.0825318
v 0.6249999 -7.375 -1.0825318
v 0.6249999 7.375 -1.0825318
v -0 -7.375 -1.25
v -0 7.375 -1.25
v -0 -7.375 -1.25
v -0 7.375 -1.25
v -0.6249999 -7.375 -1.0825318
v -0.6249999 7.375 -1.0825318
v -0.6249999 -7.375 -1.0825318
v -0.6249999 7.375 -1.0825318
v -1.0825317 -7.375 -0.62500024
v -1.0825317 7.375 -0.62500024
v -1.0825317 -7.375 -0.62500024
v -1.0825317 7.375 -0.62500024
v -1.25 -7.375 0
v -1.25 7.375 0
v -1.0825317 -7.375 0.625
v -0 -7.375 0
v -1.25 -7.375 0
v -0.62499994 -7.375 1.0825318
v -0 -7.375 1.25
v 0.625 -7.375 1.0825317
v 1.0825317 -7.375 0.62500006
v 1.25 -7.375 -1.09278474E-07
v 1.0825317 -7.375 -0.62499994
v 0.6249999 -7.375 -1.0825318
v -0 -7.375 -1.25
v -0.6249999 -7.375 -1.0825318
v -1.0825317 -7.375 -0.62500024
v -1.25 7.375 0
v -0 7.375 0
v -1.0825317 7.375 0.625
v -0.62499994 7.375 1.0825318
v -0 7.375 1.25
v 0.625 7.375 1.0825317
v 1.0825317 7.375 0.62500006
v 1.25 7.375 -1.09278474E-07
v 1.0825317 7.375 -0.62499994
v 0.6249999 7.375 -1.0825318
v -0 7.375 -1.25
v -0.6249999 7.375 -1.0825318
v -1.0825317 7.375 -0.62500024
vt -0.32352394 -7.375
vt -0.32352394 7.375
vt 0.3235237 -7.375
vt 0.3235237 7.375
vt -0.32352364 -7.375
vt -0.32352364 7.375
vt 0.323524 -7.375
vt 0.323524 7.375
vt -0.32352382 -7.375
vt -0.32352382 7.375
vt 0.32352373 -7.375
vt 0.32352373 7.375
vt -0.32352394 -7.375
vt -0.32352394 7.375
vt 0.3235237 -7.375
vt 0.3235237 7.375
vt -0.32352373 -7.375
vt -0.32352373 7.375
vt 0.3235238 -7.375
vt 0.3235238 7.375
vt -0.32352388 -7.375
vt -0.32352388 7.375
vt 0.32352394 -7.375
vt 0.32352394 7.375
vt -0.3235239 -7.375
vt -0.3235239 7.375
vt 0.32352352 -7.375
vt 0.32352352 7.375
vt -0.32352376 -7.375
vt -0.32352376 7.375
vt 0.323524 -7.375
vt 0.323524 7.375
vt -0.32352373 -7.375
vt -0.32352373 7.375
vt 0.32352376 -7.375
vt 0.32352376 7.375
vt -0.32352376 -7.375
vt -0.32352376 7.375
vt 0.32352373 -7.375
vt 0.32352373 7.375
vt -0.3235236 -7.375
vt -0.3235236 7.375
vt 0.32352388 -7.375
vt 0.32352388 7.375
vt -0.3235241 -7.375
vt -0.3235241 7.375
vt 0.32352382 -7.375
vt 0.32352382 7.375
vt -1.0825317 0.625
vt 0 0
vt -1.25 0
vt -0.62499994 1.0825318
vt 0 1.25
vt 0.625 1.0825317
vt 1.0825317 0.62500006
vt 1.25 -1.09278474E-07
vt 1.0825317 -0.62499994
vt 0.6249999 -1.0825318
vt -0 -1.25
vt -0.6249999 -1.0825318
vt -1.0825317 -0.62500024
vt 1.25 0
vt 0 0
vt 1.0825317 0.625
vt 0.62499994 1.0825318
vt 0 1.25
vt -0.625 1.0825317
vt -1.0825317 0.62500006
vt -1.25 -1.09278474E-07
vt -1.0825317 -0.62499994
vt -0.6249999 -1.0825318
vt 0 -1.25
vt 0.6249999 -1.0825318
vt 1.0825317 -0.62500024
vn -1 0 6.170727E-08
vn -1 0 6.170727E-08
vn -0.8660254 0 0.5
vn -0.8660254 0 0.5
vn -0.8660254 0 0.5
vn -0.8660254 0 0.5
vn -0.5 0 0.8660254
vn -0.5 0 0.8660254
vn -0.5 0 0.8660254
vn -0.5 0 0.8660254
vn 9.25609E-08 0 1
vn 9.25609E-08 0 1
vn 9.25609E-08 0 1
vn 9.25609E-08 0 1
vn 0.50000006 0 0.8660254
vn 0.50000006 0 0.8660254
vn 0.50000006 0 0.8660254
vn 0.50000006 0 0.8660254
vn 0.8660254 0 0.50000006
vn 0.8660254 0 0.50000006
vn 0.8660254 0 0.50000006
vn 0.8660254 0 0.50000006
vn 1 0 -7.713409E-08
vn 1 0 -7.713409E-08
vn 1 0 -7.713409E-08
vn 1 0 -7.713409E-08
vn 0.8660254 0 -0.5000001
vn 0.8660254 0 -0.5000001
vn 0.8660254 0 -0.5000001
vn 0.8660254 0 -0.5000001
vn 0.5 0 -0.86602545
vn 0.5 0 -0.86602545
vn 0.5 0 -0.86602545
vn 0.5 0 -0.86602545
vn -0 0 -1
vn -0 0 -1
vn -0 0 -1
vn -0 0 -1
vn -0.49999988 0 -0.8660255
vn -0.49999988 0 -0.8660255
vn -0.49999988 0 -0.8660255
vn -0.49999988 0 -0.8660255
vn -0.8660254 0 -0.5000001
vn -0.8660254 0 -0.5000001
vn -0.8660254 0 -0.5000001
vn -0.8660254 0 -0.5000001
vn -1 0 6.170727E-08
vn -1 0 6.170727E-08
vn -0 -1 0
vn -0 -1 0
vn -0 -1 0
vn -0 -1 0
vn -0 -1 0
vn -0 -1 0
vn -0 -1 0
vn -0 -1 0
vn -0 -1 0
vn -0 -1 0
vn -0 -1 0
vn -0 -1 0
vn -0 -1 0
vn -0 1 0
vn -0 1 0
vn -0 1 0
vn -0 1 0
vn -0 1 0
vn -0 1 0
vn -0 1 0
vn -0 1 0
vn -0 1 0
vn -0 1 0
vn -0 1 0
vn -0 1 0
vn -0 1 0
g COL_FallGuy_Penguin_Solos_Support_Beam_5_0
f 3/3/3 2/2/2 1/1/1
f 3/3/3 4/4/4 2/2/2
f 7/7/7 6/6/6 5/5/5
f 7/7/7 8/8/8 6/6/6
f 11/11/11 10/10/10 9/9/9
f 11/11/11 12/12/12 10/10/10
f 15/15/15 14/14/14 13/13/13
f 15/15/15 16/16/16 14/14/14
f 19/19/19 18/18/18 17/17/17
f 19/19/19 20/20/20 18/18/18
f 23/23/23 22/22/22 21/21/21
f 23/23/23 24/24/24 22/22/22
f 27/27/27 26/26/26 25/25/25
f 27/27/27 28/28/28 26/26/26
f 31/31/31 30/30/30 29/29/29
f 31/31/31 32/32/32 30/30/30
f 35/35/35 34/34/34 33/33/33
f 35/35/35 36/36/36 34/34/34
f 39/39/39 38/38/38 37/37/37
f 39/39/39 40/40/40 38/38/38
f 43/43/43 42/42/42 41/41/41
f 43/43/43 44/44/44 42/42/42
f 47/47/47 46/46/46 45/45/45
f 47/47/47 48/48/48 46/46/46
f 51/51/51 50/50/50 49/49/49
f 49/49/49 50/50/50 52/52/52
f 52/52/52 50/50/50 53/53/53
f 53/53/53 50/50/50 54/54/54
f 54/54/54 50/50/50 55/55/55
f 55/55/55 50/50/50 56/56/56
f 56/56/56 50/50/50 57/57/57
f 57/57/57 50/50/50 58/58/58
f 58/58/58 50/50/50 59/59/59
f 59/59/59 50/50/50 60/60/60
f 60/60/60 50/50/50 61/61/61
f 61/61/61 50/50/50 51/51/51
f 64/64/64 63/63/63 62/62/62
f 65/65/65 63/63/63 64/64/64
f 66/66/66 63/63/63 65/65/65
f 67/67/67 63/63/63 66/66/66
f 68/68/68 63/63/63 67/67/67
f 69/69/69 63/63/63 68/68/68
f 70/70/70 63/63/63 69/69/69
f 71/71/71 63/63/63 70/70/70
f 72/72/72 63/63/63 71/71/71
f 73/73/73 63/63/63 72/72/72
f 74/74/74 63/63/63 73/73/73
f 62/62/62 63/63/63 74/74/74
