g COL_S01_Button_Collision
v 2.2511675 -0.38114858 -1.0841213
v 2.171331 0.004689455 -1.0456901
v 1.5025957 0.004613161 -1.8841636
v 1.5578787 -0.38114858 -1.9534774
v 0.5362464 0.004613161 -2.3495333
v 0.5559958 -0.38114858 -2.4359276
v -0.5362463 0.004613161 -2.3495333
v -0.5559957 -0.38114858 -2.4359276
v -1.5025954 0.004613161 -1.8842399
v -1.557879 -0.38114858 -1.9534774
v -2.171331 0.004613161 -1.0456901
v -2.2511673 -0.38114858 -1.0841213
v -2.4100018 0.004689455 -3.8146973E-05
v -2.4986072 -0.38114858 -3.8146973E-05
v -2.171331 0.004613161 1.0456901
v -2.2511673 -0.38114858 1.0841212
v -1.5025954 0.004613161 1.8841639
v -1.557879 -0.38114858 1.9534774
v -0.5362463 0.004613161 2.349533
v -0.5559957 -0.38114858 2.4359274
v 0.5362464 0.004613161 2.349533
v 0.5559958 -0.38114858 2.4359274
v 1.5025957 0.004613161 1.8841639
v 1.5578787 -0.38114858 1.9534774
v 2.171331 0.004689455 1.0456901
v 2.2511675 -0.38114858 1.0841212
v 2.4100018 0.004689455 3.8146973E-05
v 2.4986072 -0.38114858 3.8146973E-05
v 2.171331 0.004689455 -1.0456901
v 2.2511675 -0.38114858 -1.0841213
v 2.4986072 -0.38114858 3.8146973E-05
v -3.8146973E-05 -0.38114858 3.8146973E-05
v 2.2511675 -0.38114858 1.0841212
v 2.2511675 -0.38114858 -1.0841213
v 1.5578787 -0.38114858 1.9534774
v 1.5578787 -0.38114858 -1.9534774
v 0.5559958 -0.38114858 2.4359274
v 0.5559958 -0.38114858 -2.4359276
v -0.5559957 -0.38114858 2.4359274
v -0.5559957 -0.38114858 -2.4359276
v -1.557879 -0.38114858 1.9534774
v -1.557879 -0.38114858 -1.9534774
v -2.2511673 -0.38114858 1.0841212
v -2.2511673 -0.38114858 -1.0841213
v -2.4986072 -0.38114858 -3.8146973E-05
v 2.171331 0.004689455 1.0456901
v 2.0259173 0.38114858 3.8146973E-05
v 2.4100018 0.004689455 3.8146973E-05
v 1.8252966 0.38114858 0.87900186
v 1.5025957 0.004613161 1.8841639
v 1.8252966 0.38114858 -0.87900186
v 2.171331 0.004689455 -1.0456901
v 1.2631625 0.38114858 1.5838809
v 0.5362464 0.004613161 2.349533
v 1.2631625 0.38114858 -1.5838809
v 1.5025957 0.004613161 -1.8841636
v 0.45076728 0.38114858 1.975133
v -0.5362463 0.004613161 2.349533
v 0.45076728 0.38114858 -1.9751331
v 0.5362464 0.004613161 -2.3495333
v -0.45076728 0.38114858 1.975133
v -1.5025954 0.004613161 1.8841639
v -0.45076728 0.38114858 -1.9751331
v -0.5362463 0.004613161 -2.3495333
v -1.2631624 0.38114858 1.5838809
v -2.171331 0.004613161 1.0456901
v -1.2631624 0.38114858 -1.5838809
v -1.5025954 0.004613161 -1.8842399
v -1.8252964 0.38114858 0.87900186
v -2.4100018 0.004689455 -3.8146973E-05
v -1.8252964 0.38114858 -0.87900186
v -2.171331 0.004613161 -1.0456901
v -2.025917 0.38114858 -3.8146973E-05
v -0.3485124 -0.109536886 -1.5269203
v -0.9765289 -0.109536886 -1.2245024
v -1.4110925 -0.109536886 -0.67952514
v -1.5661902 -0.109536886 -3.8146973E-05
v -3.8146973E-05 -0.085136175 3.8146973E-05
v 0.34851265 -0.109536886 -1.5269203
v -1.4110925 -0.109536886 0.67952514
v 0.976529 -0.109536886 -1.2245024
v -0.9765289 -0.109536886 1.2245023
v 1.4110925 -0.109536886 -0.67952514
v -0.3485124 -0.109536886 1.5269203
v 1.5661904 -0.109536886 3.8146973E-05
v 0.34851265 -0.109536886 1.5269203
v 1.4110925 -0.109536886 0.67952514
v 0.976529 -0.109536886 1.2245023
vt 0.37537327 0.31233248
vt 0.37537327 0.6886375
vt 0.3928307 0.6886375
vt 0.3928307 0.31233248
vt 0.41028816 0.6886375
vt 0.41028816 0.31233248
vt 0.42871547 0.6886375
vt 0.42871547 0.31233248
vt 0.44617292 0.6886375
vt 0.44617292 0.31233248
vt 0.46460024 0.6886375
vt 0.46460024 0.31233248
vt 0.48205766 0.6886375
vt 0.48205766 0.31233248
vt 0.49951512 0.6886375
vt 0.49951512 0.31233248
vt 0.5179424 0.6886375
vt 0.5179424 0.31233248
vt 0.5353999 0.6886375
vt 0.5353999 0.31233248
vt 0.55382717 0.6886375
vt 0.55382717 0.31233248
vt 0.57128465 0.6886375
vt 0.57128465 0.31233248
vt 0.5897119 0.6886375
vt 0.5897119 0.31233248
vt 0.6071694 0.6886375
vt 0.6071694 0.31233248
vt 0.6246269 0.6886375
vt 0.6246269 0.31233248
vt 0.6566322 0.1561853
vt 0.49951512 0.15036614
vt 0.6411145 0.22407538
vt 0.6411145 0.088295214
vt 0.59747076 0.27838743
vt 0.59747076 0.03398315
vt 0.53443 0.30845305
vt 0.53443 0.003917545
vt 0.4655701 0.30845305
vt 0.4655701 0.003917545
vt 0.4025293 0.27838743
vt 0.4025293 0.03398315
vt 0.35888568 0.22407538
vt 0.35888568 0.088295214
vt 0.34336793 0.1561853
vt 0.6411145 0.7759247
vt 0.6566322 0.84381485
vt 0.6566322 0.84381485
vt 0.6411145 0.7759247
vt 0.59747076 0.7216127
vt 0.6411145 0.9117049
vt 0.6411145 0.9117049
vt 0.59747076 0.7216127
vt 0.53443 0.69154704
vt 0.59747076 0.9660169
vt 0.59747076 0.9660169
vt 0.53443 0.69154704
vt 0.4655701 0.69154704
vt 0.53443 0.99608254
vt 0.53443 0.99608254
vt 0.4655701 0.69154704
vt 0.4025293 0.7216127
vt 0.4655701 0.99608254
vt 0.4655701 0.99608254
vt 0.4025293 0.7216127
vt 0.35888568 0.7759247
vt 0.4025293 0.9660169
vt 0.4025293 0.9660169
vt 0.35888568 0.7759247
vt 0.34336793 0.84381485
vt 0.35888568 0.9117049
vt 0.35888568 0.9117049
vt 0.34336793 0.84381485
vt 0.4655701 0.99608254
vt 0.4025293 0.9660169
vt 0.35888568 0.9117049
vt 0.34336793 0.84381485
vt 0.49951512 0.83702576
vt 0.53443 0.99608254
vt 0.35888568 0.7759247
vt 0.59747076 0.9660169
vt 0.4025293 0.7216127
vt 0.6411145 0.9117049
vt 0.4655701 0.69154704
vt 0.6566322 0.84381485
vt 0.53443 0.69154704
vt 0.6411145 0.7759247
vt 0.59747076 0.7216127
vn 0.31764466 -0.93724775 -0.14376546
vn 0.7803862 0.4980353 -0.3780981
vn 0.5372508 0.4980353 -0.68067783
vn 0.21568465 -0.93724775 -0.27394667
vn 0.19215542 0.4980353 -0.8455987
vn 0.07450926 -0.93724775 -0.34060976
vn -0.19215536 0.4980353 -0.8455987
vn -0.074509144 -0.93724775 -0.34060976
vn -0.53725076 0.4980353 -0.68067795
vn -0.21568453 -0.93724775 -0.2739468
vn -0.7803861 0.4980353 -0.37809834
vn -0.3176446 -0.93724775 -0.14376566
vn -0.86666 0.4980353 -0.029347947
vn -0.34897396 -0.9371325 -0
vn -0.7803861 0.4980353 0.37809834
vn -0.3176446 -0.93724775 0.14376566
vn -0.53725076 0.4980353 0.68067795
vn -0.21568453 -0.93724775 0.2739468
vn -0.19215536 0.4980353 0.8455987
vn -0.074509144 -0.93724775 0.34060976
vn 0.19215542 0.4980353 0.8455987
vn 0.07450926 -0.93724775 0.34060976
vn 0.5372508 0.4980353 0.68067783
vn 0.21568465 -0.93724775 0.27394667
vn 0.7803862 0.4980353 0.3780981
vn 0.31764466 -0.93724775 0.14376546
vn 0.86666006 0.4980353 -0.029345917
vn 0.34897402 -0.9371325 -0
vn 0.7803862 0.4980353 -0.3780981
vn 0.31764466 -0.93724775 -0.14376546
vn 0.34897402 -0.9371325 -0
vn -0.003921509 -0.9999924 -0
vn 0.31764466 -0.93724775 0.14376546
vn 0.31764466 -0.93724775 -0.14376546
vn 0.21568465 -0.93724775 0.27394667
vn 0.21568465 -0.93724775 -0.27394667
vn 0.07450926 -0.93724775 0.34060976
vn 0.07450926 -0.93724775 -0.34060976
vn -0.074509144 -0.93724775 0.34060976
vn -0.074509144 -0.93724775 -0.34060976
vn -0.21568453 -0.93724775 0.2739468
vn -0.21568453 -0.93724775 -0.2739468
vn -0.3176446 -0.93724775 0.14376566
vn -0.3176446 -0.93724775 -0.14376566
vn -0.34897396 -0.9371325 -0
vn 0.7803862 0.4980353 0.3780981
vn 0.07430387 0.99723566 -0
vn 0.86666006 0.4980353 -0.029345917
vn 0.06651905 0.9977852 -0
vn 0.5372508 0.4980353 0.68067783
vn 0.06651905 0.9977852 -0
vn 0.7803862 0.4980353 -0.3780981
vn 0.04309721 0.9990709 -0
vn 0.19215542 0.4980353 0.8455987
vn 0.04309721 0.9990709 -0
vn 0.5372508 0.4980353 -0.68067783
vn 0.019604107 0.9998079 -0
vn -0.19215536 0.4980353 0.8455987
vn 0.019604107 0.9998079 -0
vn 0.19215542 0.4980353 -0.8455987
vn -0.019604048 0.9998079 -0
vn -0.53725076 0.4980353 0.68067795
vn -0.019604048 0.9998079 -0
vn -0.19215536 0.4980353 -0.8455987
vn -0.04309709 0.9990709 -0
vn -0.7803861 0.4980353 0.37809834
vn -0.04309709 0.9990709 -0
vn -0.53725076 0.4980353 -0.68067795
vn -0.06651899 0.9977852 -0
vn -0.86666 0.4980353 -0.029347947
vn -0.06651899 0.9977852 -0
vn -0.7803861 0.4980353 -0.37809834
vn -0.07430375 0.99723566 -0
vn 0.098038495 0.8980323 0.42886642
vn 0.2705862 0.8980323 0.34687322
vn 0.39607543 0.8980323 0.19147381
vn 0.4352908 0.8980323 0.06371696
vn -0.003921509 0.99999225 -0.00034526698
vn -0.098038435 0.8980323 0.42886642
vn 0.39607543 0.8980323 -0.19147381
vn -0.27058613 0.8980323 0.3468733
vn 0.2705862 0.8980323 -0.34687322
vn -0.39607537 0.8980323 0.19147381
vn 0.098038495 0.8980323 -0.42886642
vn -0.4352907 0.8980323 -0.063717894
vn -0.098038435 0.8980323 -0.42886642
vn -0.39607537 0.8980323 -0.19147381
vn -0.27058613 0.8980323 -0.3468733
g COL_S01_Button_Collision_0
f 3/3/3 2/2/2 1/1/1
f 4/4/4 3/3/3 1/1/1
f 5/5/5 3/3/3 4/4/4
f 6/6/6 5/5/5 4/4/4
f 7/7/7 5/5/5 6/6/6
f 8/8/8 7/7/7 6/6/6
f 9/9/9 7/7/7 8/8/8
f 10/10/10 9/9/9 8/8/8
f 11/11/11 9/9/9 10/10/10
f 12/12/12 11/11/11 10/10/10
f 13/13/13 11/11/11 12/12/12
f 14/14/14 13/13/13 12/12/12
f 15/15/15 13/13/13 14/14/14
f 16/16/16 15/15/15 14/14/14
f 17/17/17 15/15/15 16/16/16
f 18/18/18 17/17/17 16/16/16
f 19/19/19 17/17/17 18/18/18
f 20/20/20 19/19/19 18/18/18
f 21/21/21 19/19/19 20/20/20
f 22/22/22 21/21/21 20/20/20
f 23/23/23 21/21/21 22/22/22
f 24/24/24 23/23/23 22/22/22
f 25/25/25 23/23/23 24/24/24
f 26/26/26 25/25/25 24/24/24
f 27/27/27 25/25/25 26/26/26
f 28/28/28 27/27/27 26/26/26
f 29/29/29 27/27/27 28/28/28
f 30/30/30 29/29/29 28/28/28
f 33/33/33 32/32/32 31/31/31
f 31/31/31 32/32/32 34/34/34
f 35/35/35 32/32/32 33/33/33
f 34/34/34 32/32/32 36/36/36
f 37/37/37 32/32/32 35/35/35
f 36/36/36 32/32/32 38/38/38
f 39/39/39 32/32/32 37/37/37
f 38/38/38 32/32/32 40/40/40
f 41/41/41 32/32/32 39/39/39
f 40/40/40 32/32/32 42/42/42
f 43/43/43 32/32/32 41/41/41
f 42/42/42 32/32/32 44/44/44
f 45/45/45 32/32/32 43/43/43
f 44/44/44 32/32/32 45/45/45
f 48/48/48 47/47/47 46/46/46
f 47/47/47 49/49/49 46/46/46
f 46/46/46 49/49/49 50/50/50
f 51/51/51 47/47/47 48/48/48
f 52/52/52 51/51/51 48/48/48
f 49/49/49 53/53/53 50/50/50
f 50/50/50 53/53/53 54/54/54
f 55/55/55 51/51/51 52/52/52
f 56/56/56 55/55/55 52/52/52
f 53/53/53 57/57/57 54/54/54
f 54/54/54 57/57/57 58/58/58
f 59/59/59 55/55/55 56/56/56
f 60/60/60 59/59/59 56/56/56
f 57/57/57 61/61/61 58/58/58
f 58/58/58 61/61/61 62/62/62
f 63/63/63 59/59/59 60/60/60
f 64/64/64 63/63/63 60/60/60
f 61/61/61 65/65/65 62/62/62
f 62/62/62 65/65/65 66/66/66
f 67/67/67 63/63/63 64/64/64
f 68/68/68 67/67/67 64/64/64
f 65/65/65 69/69/69 66/66/66
f 66/66/66 69/69/69 70/70/70
f 71/71/71 67/67/67 68/68/68
f 72/72/72 71/71/71 68/68/68
f 70/70/70 73/73/73 72/72/72
f 69/69/69 73/73/73 70/70/70
f 73/73/73 71/71/71 72/72/72
f 63/63/63 74/74/74 59/59/59
f 67/67/67 75/75/75 63/63/63
f 75/75/75 74/74/74 63/63/63
f 71/71/71 76/76/76 67/67/67
f 76/76/76 75/75/75 67/67/67
f 73/73/73 77/77/77 71/71/71
f 77/77/77 76/76/76 71/71/71
f 76/76/76 78/78/78 75/75/75
f 75/75/75 78/78/78 74/74/74
f 77/77/77 78/78/78 76/76/76
f 74/74/74 79/79/79 59/59/59
f 74/74/74 78/78/78 79/79/79
f 59/59/59 79/79/79 55/55/55
f 80/80/80 77/77/77 73/73/73
f 80/80/80 78/78/78 77/77/77
f 69/69/69 80/80/80 73/73/73
f 79/79/79 78/78/78 81/81/81
f 79/79/79 81/81/81 55/55/55
f 82/82/82 78/78/78 80/80/80
f 82/82/82 80/80/80 69/69/69
f 55/55/55 81/81/81 51/51/51
f 65/65/65 82/82/82 69/69/69
f 81/81/81 83/83/83 51/51/51
f 81/81/81 78/78/78 83/83/83
f 51/51/51 83/83/83 47/47/47
f 84/84/84 82/82/82 65/65/65
f 84/84/84 78/78/78 82/82/82
f 61/61/61 84/84/84 65/65/65
f 83/83/83 85/85/85 47/47/47
f 83/83/83 78/78/78 85/85/85
f 47/47/47 85/85/85 49/49/49
f 86/86/86 84/84/84 61/61/61
f 86/86/86 78/78/78 84/84/84
f 57/57/57 86/86/86 61/61/61
f 85/85/85 87/87/87 49/49/49
f 85/85/85 78/78/78 87/87/87
f 49/49/49 87/87/87 53/53/53
f 88/88/88 78/78/78 86/86/86
f 88/88/88 86/86/86 57/57/57
f 53/53/53 88/88/88 57/57/57
f 87/87/87 78/78/78 88/88/88
f 87/87/87 88/88/88 53/53/53
