g COL_SideWall_MO11
v -2.4274123 -12.274026 7.103679E-07
v -2.4274123 -6.1035155E-07 7.103679E-07
v -2.0040359E-07 -6.1035155E-07 7.103679E-07
v -2.0040359E-07 -12.274026 7.103679E-07
v -2.4274123 -6.1035155E-07 7.103679E-07
v -2.4274123 -6.1035155E-07 -1.9027971
v -2.0040359E-07 -6.1035155E-07 -1.9027971
v -2.0040359E-07 -6.1035155E-07 7.103679E-07
v -2.4274123 -6.1035155E-07 -1.9027971
v -2.4274123 -12.274026 -1.9027971
v -2.0040359E-07 -12.274026 -1.9027971
v -2.0040359E-07 -6.1035155E-07 -1.9027971
v -2.4274123 -12.274026 -1.9027971
v -2.4274123 -12.274026 7.103679E-07
v -2.0040359E-07 -12.274026 7.103679E-07
v -2.0040359E-07 -12.274026 -1.9027971
v -2.0040359E-07 -12.274026 7.103679E-07
v -2.0040359E-07 -6.1035155E-07 7.103679E-07
v -2.0040359E-07 -6.1035155E-07 -1.9027971
v -2.0040359E-07 -12.274026 -1.9027971
v -2.4274123 -12.274026 -1.9027971
v -2.4274123 -6.1035155E-07 -1.9027971
v -2.4274123 -6.1035155E-07 7.103679E-07
v -2.4274123 -12.274026 7.103679E-07
vt 0.375 0
vt 0.375 0.25
vt 0.625 0.25
vt 0.625 0
vt 0.375 0.25
vt 0.375 0.5
vt 0.625 0.5
vt 0.625 0.25
vt 0.375 0.5
vt 0.375 0.75
vt 0.625 0.75
vt 0.625 0.5
vt 0.375 0.75
vt 0.375 1
vt 0.625 1
vt 0.625 0.75
vt 0.625 0
vt 0.625 0.25
vt 0.875 0.25
vt 0.875 0
vt 0.125 0
vt 0.125 0.25
vt 0.375 0.25
vt 0.375 0
vn -0 0 1
vn -0 0 1
vn -0 0 1
vn -0 0 1
vn -0 1 0
vn -0 1 0
vn -0 1 0
vn -0 1 0
vn -0 0 -1
vn -0 0 -1
vn -0 0 -1
vn -0 0 -1
vn -0 -1 0
vn -0 -1 0
vn -0 -1 0
vn -0 -1 0
vn 1 0 0
vn 1 0 0
vn 1 0 0
vn 1 0 0
vn -1 0 0
vn -1 0 0
vn -1 0 0
vn -1 0 0
g COL_SideWall_MO11_0
f 3/3/3 2/2/2 1/1/1
f 4/4/4 3/3/3 1/1/1
f 7/7/7 6/6/6 5/5/5
f 8/8/8 7/7/7 5/5/5
f 11/11/11 10/10/10 9/9/9
f 12/12/12 11/11/11 9/9/9
f 15/15/15 14/14/14 13/13/13
f 16/16/16 15/15/15 13/13/13
f 19/19/19 18/18/18 17/17/17
f 20/20/20 19/19/19 17/17/17
f 23/23/23 22/22/22 21/21/21
f 24/24/24 23/23/23 21/21/21
