g COL_ButtonBody
v -1.8384246 -0.46286523 0
v -1.8384246 0.043563694 0
v -1.2999625 -0.46286523 1.2999625
v -1.2999625 0.043563694 1.2999625
v -1.2999625 -0.46286523 1.2999625
v -1.2999625 0.043563694 1.2999625
v 1.5010772E-07 -0.46286523 1.8384246
v 1.5010772E-07 0.043563694 1.8384246
v 1.5010772E-07 -0.46286523 1.8384246
v 1.5010772E-07 0.043563694 1.8384246
v 1.2999623 -0.46286523 1.2999625
v 1.2999623 0.043563694 1.2999625
v 1.2999623 -0.46286523 1.2999625
v 1.2999623 0.043563694 1.2999625
v 1.8384246 -0.46286523 -1.6072018E-07
v 1.8384246 0.043563694 -1.6072018E-07
v 1.8384246 -0.46286523 -1.6072018E-07
v 1.8384246 0.043563694 -1.6072018E-07
v 1.2999626 -0.46286523 -1.2999623
v 1.2999626 0.043563694 -1.2999623
v 1.2999626 -0.46286523 -1.2999623
v 1.2999626 0.043563694 -1.2999623
v -0 -0.46286523 -1.8384246
v -0 0.043563694 -1.8384246
v -0 -0.46286523 -1.8384246
v -0 0.043563694 -1.8384246
v -1.2999622 -0.46286523 -1.2999626
v -1.2999622 0.043563694 -1.2999626
v -1.2999622 -0.46286523 -1.2999626
v -1.2999622 0.043563694 -1.2999626
v -1.8384246 -0.46286523 0
v -1.8384246 0.043563694 0
v -1.8384246 0.043563694 0
v -1.46 0.29 0
v -1.2999625 0.043563694 1.2999625
v -1.0323759 0.29 1.0323759
v -1.2999625 0.043563694 1.2999625
v -1.0323759 0.29 1.0323759
v 1.5010772E-07 0.043563694 1.8384246
v 1.1920929E-07 0.29 1.46
v 1.5010772E-07 0.043563694 1.8384246
v 1.1920929E-07 0.29 1.46
v 1.2999623 0.043563694 1.2999625
v 1.0323758 0.29 1.0323759
v 1.2999623 0.043563694 1.2999625
v 1.0323758 0.29 1.0323759
v 1.8384246 0.043563694 -1.6072018E-07
v 1.46 0.29 -1.2763725E-07
v 1.8384246 0.043563694 -1.6072018E-07
v 1.46 0.29 -1.2763725E-07
v 1.2999626 0.043563694 -1.2999623
v 1.032376 0.29 -1.0323758
v 1.2999626 0.043563694 -1.2999623
v 1.032376 0.29 -1.0323758
v -0 0.043563694 -1.8384246
v -0 0.29 -1.46
v -0 0.043563694 -1.8384246
v -0 0.29 -1.46
v -1.2999622 0.043563694 -1.2999626
v -1.0323757 0.29 -1.032376
v -1.2999622 0.043563694 -1.2999626
v -1.0323757 0.29 -1.032376
v -1.8384246 0.043563694 0
v -1.46 0.29 0
v -1.2999625 -0.46286523 1.2999625
v -0 -0.29 0
v -1.8384246 -0.46286523 0
v 1.5010772E-07 -0.46286523 1.8384246
v -0 -0.29 0
v -1.2999625 -0.46286523 1.2999625
v 1.2999623 -0.46286523 1.2999625
v -0 -0.29 0
v 1.5010772E-07 -0.46286523 1.8384246
v 1.8384246 -0.46286523 -1.6072018E-07
v -0 -0.29 0
v 1.2999623 -0.46286523 1.2999625
v 1.2999626 -0.46286523 -1.2999623
v -0 -0.29 0
v 1.8384246 -0.46286523 -1.6072018E-07
v -0 -0.46286523 -1.8384246
v -0 -0.29 0
v 1.2999626 -0.46286523 -1.2999623
v -1.2999622 -0.46286523 -1.2999626
v -0 -0.29 0
v -0 -0.46286523 -1.8384246
v -1.8384246 -0.46286523 0
v -0 -0.29 0
v -1.2999622 -0.46286523 -1.2999626
v -1.46 0.29 0
v -0 0.29 0
v -1.0323759 0.29 1.0323759
v 1.1920929E-07 0.29 1.46
v 1.0323758 0.29 1.0323759
v 1.46 0.29 -1.2763725E-07
v 1.032376 0.29 -1.0323758
v -0 0.29 -1.46
v -1.0323757 0.29 -1.032376
vt -0.70353454 -0.46286523
vt -0.70353454 0.043563694
vt 0.7035347 -0.46286523
vt 0.7035347 0.043563694
vt -0.7035348 -0.46286523
vt -0.7035348 0.043563694
vt 0.70353466 -0.46286523
vt 0.70353466 0.043563694
vt -0.7035346 -0.46286523
vt -0.7035346 0.043563694
vt 0.7035344 -0.46286523
vt 0.7035344 0.043563694
vt -0.7035346 -0.46286523
vt -0.7035346 0.043563694
vt 0.70353484 -0.46286523
vt 0.70353484 0.043563694
vt -0.7035344 -0.46286523
vt -0.7035344 0.043563694
vt 0.7035345 -0.46286523
vt 0.7035345 0.043563694
vt -0.7035347 -0.46286523
vt -0.7035347 0.043563694
vt 0.7035347 -0.46286523
vt 0.7035347 0.043563694
vt -0.70353454 -0.46286523
vt -0.70353454 0.043563694
vt 0.70353436 -0.46286523
vt 0.70353436 0.043563694
vt -0.70353466 -0.46286523
vt -0.70353466 0.043563694
vt 0.7035349 -0.46286523
vt 0.7035349 0.043563694
vt 1.5167855 -0.22923832
vt 1.0651927 -0.22923832
vt 1.0655664 1.1035203
vt 0.7068534 0.82918286
vt 1.2437574 0.8979178
vt 0.92122436 0.58183485
vt -0.011345622 1.5339687
vt -0.075526044 1.08696
vt 0.011345338 1.5339687
vt 0.07552585 1.08696
vt -1.2437571 0.89791775
vt -0.9212241 0.5818348
vt -1.0655662 1.1035202
vt -0.7068533 0.8291828
vt -1.5167855 -0.22923858
vt -1.0651927 -0.22923854
vt -1.5167855 0.22923817
vt -1.0651927 0.2292382
vt -1.0655665 -1.1035199
vt -0.7068535 -0.8291827
vt -1.2437575 -0.8979174
vt -0.92122436 -0.58183455
vt 0.011345485 -1.5339686
vt 0.07552598 -1.0869598
vt -0.01134548 -1.5339687
vt -0.07552595 -1.08696
vt 1.243757 -0.8979179
vt 0.92122406 -0.5818349
vt 1.0655661 -1.1035203
vt 0.7068532 -0.8291829
vt 1.5167855 0.22923842
vt 1.0651927 0.2292384
vt -1.3375852 1.3121271
vt -0.027148658 0.01118755
vt -1.8736825 0.01118755
vt -0.018013904 1.8736292
vt -0.011286386 0.02710772
vt -1.3169917 1.3327956
vt 1.3169914 1.3327956
vt 0.011286391 0.02710772
vt 0.018014213 1.8736292
vt 1.8736825 0.011187393
vt 0.027148658 0.0111875525
vt 1.337585 1.3121271
vt 1.3375853 -1.3121269
vt 0.027148658 -0.01118755
vt 1.8736825 -0.011187711
vt 0.018014064 -1.8736292
vt 0.011286391 -0.02710772
vt 1.3169918 -1.3327954
vt -1.3169913 -1.3327957
vt -0.011286388 -0.02710772
vt -0.018014058 -1.8736292
vt -1.8736825 -0.011187555
vt -0.027148658 -0.011187555
vt -1.3375849 -1.3121272
vt 1.46 0
vt 0 0
vt 1.0323759 1.0323759
vt -1.1920929E-07 1.46
vt -1.0323758 1.0323759
vt -1.46 -1.2763725E-07
vt -1.032376 -1.0323758
vt 0 -1.46
vt 1.0323757 -1.032376
vn -1 0 -9.6773405E-08
vn -0.87201804 0.48947367 -8.4773745E-08
vn -0.70710677 0 0.70710677
vn -0.6166099 0.48947373 0.6166099
vn -0.70710677 0 0.70710677
vn -0.6166099 0.48947373 0.6166099
vn 6.45156E-08 0 1
vn 5.800309E-08 0.48947373 0.87201804
vn 6.45156E-08 0 1
vn 5.800309E-08 0.48947373 0.87201804
vn 0.70710677 0 0.70710677
vn 0.6166099 0.48947364 0.6166099
vn 0.70710677 0 0.70710677
vn 0.6166099 0.48947364 0.6166099
vn 1 0 4.8386703E-08
vn 0.87201804 0.48947367 4.461776E-08
vn 1 0 4.8386703E-08
vn 0.87201804 0.48947367 4.461776E-08
vn 0.7071068 0 -0.70710677
vn 0.61660993 0.48947367 -0.6166099
vn 0.7071068 0 -0.70710677
vn 0.61660993 0.48947367 -0.6166099
vn 4.8386703E-08 0 -1
vn 4.461776E-08 0.48947367 -0.87201804
vn 4.8386703E-08 0 -1
vn 4.461776E-08 0.48947367 -0.87201804
vn -0.7071067 0 -0.7071068
vn -0.6166098 0.48947367 -0.61661
vn -0.7071067 0 -0.7071068
vn -0.6166098 0.48947367 -0.61661
vn -1 0 -9.6773405E-08
vn -0.87201804 0.48947367 -8.4773745E-08
vn -0.87201804 0.48947367 -8.4773745E-08
vn -0.5457048 0.83797747 -6.110837E-08
vn -0.6166099 0.48947373 0.6166099
vn -0.38587153 0.8379776 0.38587153
vn -0.6166099 0.48947373 0.6166099
vn -0.38587153 0.8379776 0.38587153
vn 5.800309E-08 0.48947373 0.87201804
vn 3.0554187E-08 0.83797747 0.5457048
vn 5.800309E-08 0.48947373 0.87201804
vn 3.0554187E-08 0.83797747 0.5457048
vn 0.6166099 0.48947364 0.6166099
vn 0.3858716 0.8379774 0.3858716
vn 0.6166099 0.48947364 0.6166099
vn 0.3858716 0.8379774 0.3858716
vn 0.87201804 0.48947367 4.461776E-08
vn 0.5457048 0.83797747 1.5277093E-08
vn 0.87201804 0.48947367 4.461776E-08
vn 0.5457048 0.83797747 1.5277093E-08
vn 0.61660993 0.48947367 -0.6166099
vn 0.38587162 0.83797747 -0.3858716
vn 0.61660993 0.48947367 -0.6166099
vn 0.38587162 0.83797747 -0.3858716
vn 4.461776E-08 0.48947367 -0.87201804
vn 1.5277093E-08 0.83797747 -0.5457048
vn 4.461776E-08 0.48947367 -0.87201804
vn 1.5277093E-08 0.83797747 -0.5457048
vn -0.6166098 0.48947367 -0.61661
vn -0.38587156 0.83797747 -0.38587165
vn -0.6166098 0.48947367 -0.61661
vn -0.38587156 0.83797747 -0.38587165
vn -0.87201804 0.48947367 -8.4773745E-08
vn -0.5457048 0.83797747 -6.110837E-08
vn 0.093545765 -0.9948607 -0.03874792
vn 0.093545765 -0.9948607 -0.03874792
vn 0.093545765 -0.9948607 -0.03874792
vn 0.038747914 -0.9948607 -0.093545765
vn 0.038747914 -0.9948607 -0.093545765
vn 0.038747914 -0.9948607 -0.093545765
vn -0.038747933 -0.9948607 -0.093545765
vn -0.038747933 -0.9948607 -0.093545765
vn -0.038747933 -0.9948607 -0.093545765
vn -0.093545765 -0.9948607 -0.038747933
vn -0.093545765 -0.9948607 -0.038747933
vn -0.093545765 -0.9948607 -0.038747933
vn -0.093545765 -0.9948607 0.03874792
vn -0.093545765 -0.9948607 0.03874792
vn -0.093545765 -0.9948607 0.03874792
vn -0.038747933 -0.9948607 0.093545765
vn -0.038747933 -0.9948607 0.093545765
vn -0.038747933 -0.9948607 0.093545765
vn 0.03874792 -0.9948607 0.093545765
vn 0.03874792 -0.9948607 0.093545765
vn 0.03874792 -0.9948607 0.093545765
vn 0.093545765 -0.9948607 0.03874794
vn 0.093545765 -0.9948607 0.03874794
vn 0.093545765 -0.9948607 0.03874794
vn -0 1 0
vn -0 1 0
vn -0 1 0
vn -0 1 0
vn -0 1 0
vn -0 1 0
vn -0 1 0
vn -0 1 0
vn -0 1 0
g COL_ButtonBody_0
f 3/3/3 2/2/2 1/1/1
f 3/3/3 4/4/4 2/2/2
f 7/7/7 6/6/6 5/5/5
f 7/7/7 8/8/8 6/6/6
f 11/11/11 10/10/10 9/9/9
f 11/11/11 12/12/12 10/10/10
f 15/15/15 14/14/14 13/13/13
f 15/15/15 16/16/16 14/14/14
f 19/19/19 18/18/18 17/17/17
f 19/19/19 20/20/20 18/18/18
f 23/23/23 22/22/22 21/21/21
f 23/23/23 24/24/24 22/22/22
f 27/27/27 26/26/26 25/25/25
f 27/27/27 28/28/28 26/26/26
f 31/31/31 30/30/30 29/29/29
f 31/31/31 32/32/32 30/30/30
f 35/35/35 34/34/34 33/33/33
f 35/35/35 36/36/36 34/34/34
f 39/39/39 38/38/38 37/37/37
f 39/39/39 40/40/40 38/38/38
f 43/43/43 42/42/42 41/41/41
f 43/43/43 44/44/44 42/42/42
f 47/47/47 46/46/46 45/45/45
f 47/47/47 48/48/48 46/46/46
f 51/51/51 50/50/50 49/49/49
f 51/51/51 52/52/52 50/50/50
f 55/55/55 54/54/54 53/53/53
f 55/55/55 56/56/56 54/54/54
f 59/59/59 58/58/58 57/57/57
f 59/59/59 60/60/60 58/58/58
f 63/63/63 62/62/62 61/61/61
f 63/63/63 64/64/64 62/62/62
f 67/67/67 66/66/66 65/65/65
f 70/70/70 69/69/69 68/68/68
f 73/73/73 72/72/72 71/71/71
f 76/76/76 75/75/75 74/74/74
f 79/79/79 78/78/78 77/77/77
f 82/82/82 81/81/81 80/80/80
f 85/85/85 84/84/84 83/83/83
f 88/88/88 87/87/87 86/86/86
f 91/91/91 90/90/90 89/89/89
f 92/92/92 90/90/90 91/91/91
f 93/93/93 90/90/90 92/92/92
f 94/94/94 90/90/90 93/93/93
f 95/95/95 90/90/90 94/94/94
f 96/96/96 90/90/90 95/95/95
f 97/97/97 90/90/90 96/96/96
f 89/89/89 90/90/90 97/97/97
