g collisionMesh_wall04
v -0.5516681 -0.8967654 4.572614
v -1.0586632 -0.897659 4.5301237
v -0.11053281 -0.13765897 6.4117303
v 0.17180361 4.1938047 4.9345136
v -0.7455597 3.6883755 3.0502167
v -0.23856382 3.6892679 3.092702
v 0.11725771 -0.15246977 6.4118376
v 0.9262921 -1.0292153 4.5237613
v 0.42660338 -0.960375 4.573073
v 0.73970884 3.6256595 3.0931706
v 1.2393963 3.5568204 3.0438542
v 0.39959532 4.1789927 4.934621
v -0.23856382 3.6892679 3.092702
v -0.46373594 0.38339818 -5.3915997
v 0.5145355 0.3197873 -5.3911457
v 0.73970884 3.6256595 3.0931706
v 0.17180361 4.1938047 4.9345136
v 0.39959532 4.1789927 4.934621
v -0.46373594 0.38339818 -5.3915997
v -0.8286359 -3.9641554 -3.9218144
v 0.14963564 -4.0277653 -3.9213605
v 0.5145355 0.3197873 -5.3911457
v 0.73970884 3.6256595 3.0931706
v 0.5145355 0.3197873 -5.3911457
v 0.14963564 -4.0277653 -3.9213605
v 0.42660338 -0.960375 4.573073
v -0.8286359 -3.9641554 -3.9218144
v -0.46373594 0.38339818 -5.3915997
v -0.23856382 3.6892679 3.092702
v -0.5516681 -0.8967654 4.572614
v 0.17180361 4.1938047 4.9345136
v -1.0586632 -0.897659 4.5301237
v -0.7455597 3.6883755 3.0502167
v -0.11053281 -0.13765897 6.4117303
v 0.39959532 4.1789927 4.934621
v 0.11725771 -0.15246977 6.4118376
v 0.9262921 -1.0292153 4.5237613
v 1.2393963 3.5568204 3.0438542
v -0.23856382 3.6892679 3.092702
v -0.7455597 3.6883755 3.0502167
v -1.0586632 -0.897659 4.5301237
v -0.5516681 -0.8967654 4.572614
v 0.42660338 -0.960375 4.573073
v 0.9262921 -1.0292153 4.5237613
v 1.2393963 3.5568204 3.0438542
v 0.73970884 3.6256595 3.0931706
vt 0.352673 0
vt 0.352673 0
vt 0.375 0
vt 0.375 0.25
vt 0.352673 0.25
vt 0.352673 0.25
vt 0.625 0
vt 0.64732707 0
vt 0.64732707 0
vt 0.647327 0.25
vt 0.647327 0.25
vt 0.625 0.25
vt 0.37499997 0.27232698
vt 0.375 0.5
vt 0.625 0.5
vt 0.625 0.27232698
vt 0.375 0.25
vt 0.625 0.25
vt 0.375 0.5
vt 0.375 0.75
vt 0.625 0.75
vt 0.625 0.5
vt 0.647327 0.25
vt 0.875 0.25
vt 0.875 0
vt 0.64732707 0
vt 0.125 0
vt 0.125 0.25
vt 0.352673 0.25
vt 0.352673 0
vt 0.375 0.25
vt 0.352673 0
vt 0.352673 0.25
vt 0.375 0
vt 0.625 0.25
vt 0.625 0
vt 0.64732707 0
vt 0.647327 0.25
vt 0.352673 0.25
vt 0.352673 0.25
vt 0.352673 0
vt 0.352673 0
vt 0.64732707 0
vt 0.64732707 0
vt 0.647327 0.25
vt 0.647327 0.25
vn -0.030865347 -0.92128223 0.3876681
vn -0.030865347 -0.92128223 0.3876681
vn -0.030865347 -0.92128223 0.3876681
vn 0.060937457 0.9591327 -0.27631724
vn 0.02080026 0.9630683 -0.2684527
vn 0.057528265 0.9336977 -0.35341075
vn -0.08806408 -0.917341 0.38823995
vn -0.08806407 -0.917341 0.38823992
vn -0.08806408 -0.917341 0.38823995
vn 0.06432088 0.9333137 -0.3532537
vn 0.105444595 0.95755875 -0.26825896
vn 0.064078555 0.9589296 -0.27631122
vn 0.057528265 0.9336977 -0.35341075
vn 0.060609717 0.9295081 -0.3637872
vn 0.060609717 0.9295081 -0.3637872
vn 0.06432088 0.9333137 -0.3532537
vn 0.060937457 0.9591327 -0.27631724
vn 0.064078555 0.9589296 -0.27631122
vn -0.020279462 -0.31867087 -0.94764847
vn -0.020279462 -0.31867087 -0.94764847
vn -0.020279463 -0.31867087 -0.94764847
vn -0.020279463 -0.31867087 -0.94764847
vn 0.9971079 -0.075992584 -0.000963987
vn 0.9971079 -0.075992584 -0.0009639873
vn 0.9971079 -0.075992584 -0.0009639873
vn 0.9971079 -0.075992584 -0.00096398714
vn -0.9971079 0.07599255 0.00096389465
vn -0.9971079 0.07599255 0.00096389395
vn -0.9971079 0.07599255 0.000963894
vn -0.9971079 0.07599255 0.0009638943
vn -0.8633279 0.21058078 0.4586073
vn -0.90377563 0.18787351 0.38456872
vn -0.90377563 0.18787351 0.3845687
vn -0.8635695 0.21045971 0.4582078
vn 0.887023 0.09169135 0.45252952
vn 0.88727033 0.09152015 0.452079
vn 0.9236958 0.063607715 0.3778096
vn 0.9236958 0.06360771 0.37780958
vn 0.079907686 -0.31105965 -0.9470252
vn 0.07990768 -0.31105968 -0.9470252
vn 0.07990768 -0.31105968 -0.9470252
vn 0.079907686 -0.31105965 -0.9470252
vn -0.13411069 -0.29602566 -0.9457183
vn -0.13411069 -0.29602566 -0.9457183
vn -0.13411069 -0.29602566 -0.9457183
vn -0.13411069 -0.29602566 -0.9457183
g collisionMesh_wall04_0
f 3/3/3 2/2/2 1/1/1
f 6/6/6 5/5/5 4/4/4
f 9/9/9 8/8/8 7/7/7
f 12/12/12 11/11/11 10/10/10
f 15/15/15 14/14/14 13/13/13
f 16/16/16 15/15/15 13/13/13
f 16/16/16 13/13/13 17/17/17
f 18/18/18 16/16/16 17/17/17
f 21/21/21 20/20/20 19/19/19
f 22/22/22 21/21/21 19/19/19
f 25/25/25 24/24/24 23/23/23
f 26/26/26 25/25/25 23/23/23
f 29/29/29 28/28/28 27/27/27
f 30/30/30 29/29/29 27/27/27
f 33/33/33 32/32/32 31/31/31
f 32/32/32 34/34/34 31/31/31
f 35/35/35 31/31/31 34/34/34
f 36/36/36 35/35/35 34/34/34
f 36/36/36 37/37/37 35/35/35
f 37/37/37 38/38/38 35/35/35
f 41/41/41 40/40/40 39/39/39
f 42/42/42 41/41/41 39/39/39
f 45/45/45 44/44/44 43/43/43
f 46/46/46 45/45/45 43/43/43
