g collisionMesh_platform01
v -11.660405 0.851875 8.7022085
v -11.723173 -0.80473876 0.15691589
v -0 -2.4414062E-06 1.8310546E-06
v -0.06514648 1.6445825 8.547013
v -11.723173 -0.80473876 0.15691589
v -11.531026 -3.1809986 0.5848163
v 0.16647705 -2.3813035 0.42825377
v -0 -2.4414062E-06 1.8310546E-06
v -0.06514648 1.6445825 8.547013
v -0 -2.4414062E-06 1.8310546E-06
v 0.16647705 -2.3813035 0.42825377
v -0.041223142 1.2886157 8.680763
v -11.531026 -3.1809986 0.5848163
v -11.723173 -0.80473876 0.15691589
v -11.660405 0.851875 8.7022085
v -11.636481 0.4959082 8.835968
v -0.06514648 1.6445825 8.547013
v -0.041223142 1.2886157 8.680763
v -11.636481 0.4959082 8.835968
v -11.660405 0.851875 8.7022085
vt 0.375 0.125
vt 0.375 0.5
vt 0.625 0.5
vt 0.625 0.125
vt 0.375 0.5
vt 0.375 0.75
vt 0.625 0.75
vt 0.625 0.5
vt 0.625 0.125
vt 0.875 0.25
vt 0.875 0
vt 0.6888025 0.09309875
vt 0.125 0
vt 0.125 0.25
vt 0.375 0.125
vt 0.34428275 0.10964137
vt 0 0
vt 0 1
vt 1 1
vt 1 0
vn -0.06963146 0.97946966 -0.18918405
vn -0.06963146 0.97946966 -0.18918404
vn -0.06963146 0.97946966 -0.18918405
vn -0.06963146 0.97946966 -0.18918405
vn -0.0010350264 -0.17718652 -0.98417675
vn -0.0010350265 -0.17718652 -0.98417675
vn -0.0010350265 -0.17718652 -0.98417675
vn -0.0010350265 -0.17718652 -0.98417675
vn 0.99765116 0.06828626 -0.0053990497
vn 0.99765116 0.06828626 -0.005399052
vn 0.99765116 0.06828626 -0.0053990507
vn 0.99765116 0.06828626 -0.0053990516
vn -0.9969971 -0.074501894 0.021123523
vn -0.9969971 -0.07450191 0.021123523
vn -0.9969971 -0.07450191 0.021123523
vn -0.9969971 -0.07450191 0.021123523
vn -0.011468158 0.3510566 0.93628407
vn -0.011468158 0.3510566 0.93628407
vn -0.011468159 0.3510566 0.93628407
vn -0.01146816 0.3510566 0.93628407
g collisionMesh_platform01_0
f 3/3/3 2/2/2 1/1/1
f 4/4/4 3/3/3 1/1/1
f 7/7/7 6/6/6 5/5/5
f 8/8/8 7/7/7 5/5/5
f 11/11/11 10/10/10 9/9/9
f 12/12/12 11/11/11 9/9/9
f 15/15/15 14/14/14 13/13/13
f 16/16/16 15/15/15 13/13/13
f 19/19/19 18/18/18 17/17/17
f 20/20/20 19/19/19 17/17/17
