g collisionMesh_sideWalls_42
v -24.869318 -31.587639 -108.591805
v -26.090874 -31.587639 -108.591805
v -25.516647 -31.587639 -142.13472
v -24.29509 -31.587639 -142.13472
v -26.090874 -35.66285 -108.591805
v -25.516647 -35.66285 -142.13472
v -25.516647 -31.587639 -142.13472
v -26.090874 -31.587639 -108.591805
v -24.29509 -35.66285 -142.13472
v -24.869318 -35.66285 -108.591805
v -24.869318 -31.587639 -108.591805
v -24.29509 -31.587639 -142.13472
vt 0.375 0.25
vt 0.625 0.25
vt 0.625 0.5
vt 0.375 0.5
vt 0.625 0
vt 0.875 0
vt 0.875 0.25
vt 0.625 0.25
vt 0.125 0
vt 0.375 0
vt 0.375 0.25
vt 0.125 0.25
vn -0 1 0
vn -0 1 0
vn -0 1 0
vn -0 1 0
vn -0.9998535 0 -0.017116645
vn -0.9998535 0 -0.017116645
vn -0.9998535 0 -0.017116645
vn -0.9998535 0 -0.017116645
vn 0.9998535 0 0.017116714
vn 0.9998535 0 0.017116714
vn 0.9998535 0 0.017116714
vn 0.9998535 0 0.017116714
g collisionMesh_sideWalls_42_0
f 3/3/3 2/2/2 1/1/1
f 4/4/4 3/3/3 1/1/1
f 7/7/7 6/6/6 5/5/5
f 8/8/8 7/7/7 5/5/5
f 11/11/11 10/10/10 9/9/9
f 12/12/12 11/11/11 9/9/9
