g collisionMesh_prism09
v 1.9986225 1.9139827 -0.92414993
v 2.0176802 -1.9068521 0.8970793
v 0.16327105 -0.23613194 4.4215546
v 0.14421344 3.5847006 2.6003265
v 2.0176802 -1.9068521 0.8970793
v 1.9986225 1.9139827 -0.92414993
v 0.10282184 0.23660487 -4.4233494
v 0.12187702 -3.5842288 -2.6021209
v 0.12187702 -3.5842288 -2.6021209
v 0.10282184 0.23660487 -4.4233494
v -1.41314 0.23875332 -4.4051385
v -1.3940824 -3.5820792 -2.5839105
v 0.14421344 3.5847006 2.6003265
v 0.16327105 -0.23613194 4.4215546
v -1.3526933 -0.23398471 4.439765
v -1.3717484 3.586849 2.6185358
v 1.9986225 1.9139827 -0.92414993
v 0.14421344 3.5847006 2.6003265
v -1.3717484 3.586849 2.6185358
v -1.41314 0.23875332 -4.4051385
v 0.10282184 0.23660487 -4.4233494
vt 0.375 0.5
vt 0.375 0.75
vt 0.60000247 0.75
vt 0.60000247 0.5
vt 0.12500004 1.7663417E-09
vt 0.125 0.25
vt 0.35000256 0.25
vt 0.3500026 -3.7252903E-09
vt 0.3500026 -3.7252903E-09
vt 0.35000256 0.25
vt 0.39999747 0.25
vt 0.39999747 4.4703484E-08
vt 0.60000247 0.5
vt 0.60000247 0.75
vt 0.62499994 0.75
vt 0.625 0.47500244
vt 0.375 0.5
vt 0.60000247 0.5
vt 0.625 0.47500244
vt 0.39999747 0.25
vt 0.37500003 0.27499747
vn 0.90311235 0.18842512 0.3858548
vn 0.90311235 0.18842511 0.3858548
vn 0.90311235 0.18842511 0.3858548
vn 0.90311235 0.18842512 0.3858548
vn 0.8984932 -0.18522666 -0.3979964
vn 0.8984932 -0.18522663 -0.3979964
vn 0.8984932 -0.18522663 -0.3979964
vn 0.8984932 -0.18522663 -0.3979964
vn -0.011453289 -0.43029565 -0.9026154
vn -0.011453289 -0.43029565 -0.9026154
vn -0.011453289 -0.43029565 -0.9026154
vn -0.011453287 -0.43029565 -0.9026154
vn 0.011451844 0.43029565 0.9026154
vn 0.011451844 0.43029568 0.9026154
vn 0.011451844 0.43029565 0.9026154
vn 0.011451844 0.43029568 0.9026154
vn -0.0041904137 0.90268797 -0.4302753
vn -0.0038863982 0.90281594 -0.4300096
vn -0.00419723 0.9026997 -0.4302506
vn -0.0041974555 0.90267634 -0.43029976
vn -0.0038924427 0.9025613 -0.43054372
g collisionMesh_prism09_0
f 3/3/3 2/2/2 1/1/1
f 4/4/4 3/3/3 1/1/1
f 7/7/7 6/6/6 5/5/5
f 8/8/8 7/7/7 5/5/5
f 11/11/11 10/10/10 9/9/9
f 12/12/12 11/11/11 9/9/9
f 15/15/15 14/14/14 13/13/13
f 16/16/16 15/15/15 13/13/13
f 19/19/19 18/18/18 17/17/17
f 20/20/20 19/19/19 17/17/17
f 20/20/20 17/17/17 21/21/21
