g collisionMesh_sideWalls_57
v 5.8506055 42.84856 91.87954
v 6.2794776 42.86662 92.927086
v 5.8378367 43.278637 92.91729
v 5.537612 43.265995 92.184
v 5.537612 43.265995 92.184
v 4.8067236 43.26374 91.877686
v 4.8065186 42.84533 91.44196
v 5.8506055 42.84856 91.87954
v 4.8067236 43.26374 91.877686
v 4.073315 43.273182 92.17778
v 3.7588377 42.858826 91.87066
v 4.8065186 42.84533 91.44196
v 4.073315 43.273182 92.17778
v 3.7670066 43.288803 92.9085
v 3.3212793 42.881138 92.91452
v 3.7588377 42.858826 91.87066
v 3.7670066 43.288803 92.9085
v 4.0672364 43.301445 93.64183
v 3.7501514 42.899197 93.96207
v 3.3212793 42.881138 92.91452
v 4.0672364 43.301445 93.64183
v 4.79812 43.3037 93.94814
v 4.7942333 42.90242 94.39964
v 3.7501514 42.899197 93.96207
v 4.79812 43.3037 93.94814
v 5.531528 43.29426 93.648056
v 5.841919 42.88893 93.970955
v 4.7942333 42.90242 94.39964
v 5.531528 43.29426 93.648056
v 5.8378367 43.278637 92.91729
v 6.2794776 42.86662 92.927086
v 5.841919 42.88893 93.970955
v 5.82292 37.24109 91.91763
v 5.8506055 42.84856 91.87954
v 4.8065186 42.84533 91.44196
v 4.778833 37.23786 91.48005
v 4.778833 37.23786 91.48005
v 4.8065186 42.84533 91.44196
v 3.7588377 42.858826 91.87066
v 3.731157 37.251358 91.908745
v 3.731157 37.251358 91.908745
v 3.7588377 42.858826 91.87066
v 3.3212793 42.881138 92.91452
v 3.2935987 37.27367 92.95261
v 3.2935987 37.27367 92.95261
v 3.3212793 42.881138 92.91452
v 3.7501514 42.899197 93.96207
v 3.7224705 37.29173 94.00016
v 3.7224705 37.29173 94.00016
v 3.7501514 42.899197 93.96207
v 4.7942333 42.90242 94.39964
v 4.7665477 37.294952 94.43773
v 4.7665477 37.294952 94.43773
v 4.7942333 42.90242 94.39964
v 5.841919 42.88893 93.970955
v 5.8142333 37.28146 94.00904
v 5.8142333 37.28146 94.00904
v 5.841919 42.88893 93.970955
v 6.2794776 42.86662 92.927086
v 6.251792 37.25915 92.96517
v 6.251792 37.25915 92.96517
v 6.2794776 42.86662 92.927086
v 5.8506055 42.84856 91.87954
v 5.82292 37.24109 91.91763
v 5.531528 43.29426 93.648056
v 4.8024216 43.28372 92.912895
v 5.8378367 43.278637 92.91729
v 4.79812 43.3037 93.94814
v 5.537612 43.265995 92.184
v 4.0672364 43.301445 93.64183
v 4.8067236 43.26374 91.877686
v 3.7670066 43.288803 92.9085
v 4.073315 43.273182 92.17778
vt 0.62499994 0.6545655
vt 0.59375 0.65456545
vt 0.5984371 0.68843985
vt 0.6203129 0.6884398
vt 0.3796871 0.68843985
vt 0.40156296 0.68843985
vt 0.40625 0.6545655
vt 0.37500006 0.65456545
vt 0.4109371 0.68843985
vt 0.432813 0.68843985
vt 0.4375 0.65456545
vt 0.40625 0.6545655
vt 0.44218707 0.68843985
vt 0.464063 0.68843985
vt 0.46875 0.65456545
vt 0.4375 0.65456545
vt 0.473437 0.68843985
vt 0.49531323 0.68843985
vt 0.5 0.6545658
vt 0.46875 0.65456545
vt 0.50468713 0.68843985
vt 0.52656305 0.68843985
vt 0.53124994 0.65456545
vt 0.5 0.6545658
vt 0.53593695 0.68843985
vt 0.5578128 0.68843985
vt 0.5624998 0.65456545
vt 0.53124994 0.65456545
vt 0.5671868 0.68843985
vt 0.589063 0.68843985
vt 0.59375 0.65456545
vt 0.5624998 0.65456545
vt 0.37500003 0.3125005
vt 0.37500006 0.65456545
vt 0.40625 0.6545655
vt 0.40625003 0.3125005
vt 0.40625003 0.3125005
vt 0.40625 0.6545655
vt 0.4375 0.65456545
vt 0.4375 0.3125005
vt 0.4375 0.3125005
vt 0.4375 0.65456545
vt 0.46875 0.65456545
vt 0.46875 0.3125005
vt 0.46875 0.3125005
vt 0.46875 0.65456545
vt 0.5 0.6545658
vt 0.50000006 0.3125005
vt 0.50000006 0.3125005
vt 0.5 0.6545658
vt 0.53124994 0.65456545
vt 0.53125 0.31250054
vt 0.53125 0.31250054
vt 0.53124994 0.65456545
vt 0.5624998 0.65456545
vt 0.5625 0.3125005
vt 0.5625 0.3125005
vt 0.5624998 0.65456545
vt 0.59375 0.65456545
vt 0.59375 0.3125005
vt 0.59375 0.3125005
vt 0.59375 0.65456545
vt 0.62499994 0.6545655
vt 0.62499994 0.31250054
vt 0.57734287 0.764531
vt 0.5 0.8375
vt 0.6093796 0.8418752
vt 0.5 0.7324947
vt 0.57734287 0.9192181
vt 0.42265686 0.764531
vt 0.49999985 0.9512545
vt 0.39062008 0.8418752
vt 0.42265692 0.91921824
vn 0.65791416 0.69854146 -0.28140473
vn 0.65791416 0.69854146 -0.28140473
vn 0.6579142 0.69854146 -0.28140473
vn 0.6579142 0.69854146 -0.2814047
vn 0.27682662 0.69304067 -0.6656288
vn 0.2768266 0.69304055 -0.6656288
vn 0.27682662 0.69304067 -0.6656288
vn 0.27682662 0.69304067 -0.6656288
vn -0.2643446 0.6956953 -0.6679297
vn -0.2643446 0.6956953 -0.6679297
vn -0.2643446 0.6956953 -0.6679297
vn -0.2643446 0.6956952 -0.6679298
vn -0.6486156 0.70494896 -0.2869578
vn -0.6486156 0.7049489 -0.28695783
vn -0.6486156 0.7049489 -0.28695783
vn -0.6486156 0.7049489 -0.28695783
vn -0.65086883 0.7153898 0.25413996
vn -0.65086883 0.7153898 0.25413993
vn -0.65086883 0.7153898 0.25413996
vn -0.65086883 0.7153898 0.25413993
vn -0.2697705 0.7208899 0.63838995
vn -0.2697705 0.7208899 0.63838995
vn -0.2697705 0.7208899 0.63838995
vn -0.2697705 0.7208899 0.63838995
vn 0.27140057 0.718237 0.6406851
vn 0.27140057 0.7182369 0.64068514
vn 0.2714006 0.718237 0.6406851
vn 0.27140057 0.718237 0.6406851
vn 0.6556737 0.70898116 0.2596879
vn 0.6556736 0.7089812 0.25968793
vn 0.6556737 0.70898116 0.2596879
vn 0.6556737 0.70898116 0.25968784
vn 0.38653916 -0.008173062 -0.9222368
vn 0.38653913 -0.008173061 -0.9222368
vn 0.3865392 -0.008173062 -0.9222368
vn 0.38653916 -0.008173061 -0.9222368
vn -0.3787587 -0.0044160495 -0.925485
vn -0.3787587 -0.0044160495 -0.925485
vn -0.3787587 -0.00441605 -0.925485
vn -0.37875864 -0.0044160495 -0.925485
vn -0.9222362 0.0019265775 -0.38662222
vn -0.9222362 0.0019265777 -0.38662222
vn -0.9222362 0.0019265777 -0.38662222
vn -0.9222362 0.0019265777 -0.38662222
vn -0.925465 0.00714138 0.3787659
vn -0.925465 0.00714138 0.3787659
vn -0.925465 0.00714138 0.37876594
vn -0.925465 0.00714138 0.37876588
vn -0.38653472 0.008172916 0.92223865
vn -0.3865347 0.008172916 0.92223865
vn -0.3865347 0.008172916 0.92223865
vn -0.38653466 0.008172916 0.92223865
vn 0.3787499 0.004415949 0.9254886
vn 0.37874994 0.0044159484 0.9254886
vn 0.37874988 0.0044159484 0.9254886
vn 0.3787499 0.004415948 0.9254886
vn 0.9222385 -0.0019274532 0.38661665
vn 0.92223847 -0.0019274533 0.3866167
vn 0.9222385 -0.0019274532 0.38661665
vn 0.92223847 -0.0019274533 0.3866167
vn 0.9254627 -0.007142265 -0.37877128
vn 0.9254627 -0.007142265 -0.37877128
vn 0.9254627 -0.007142265 -0.37877128
vn 0.9254627 -0.007142265 -0.37877128
vn 0.0049880086 0.9998018 -0.01927654
vn 0.004989636 0.9998017 -0.019279553
vn 0.004989892 0.9998017 -0.019283032
vn 0.004989513 0.9998018 -0.019276882
vn 0.0049914476 0.9998016 -0.019283567
vn 0.0049912645 0.9998017 -0.019282864
vn 0.0049893786 0.9998018 -0.019275276
vn 0.0049897637 0.9998017 -0.019283034
vn 0.004987826 0.9998018 -0.019275256
g collisionMesh_sideWalls_57_0
f 3/3/3 2/2/2 1/1/1
f 4/4/4 3/3/3 1/1/1
f 7/7/7 6/6/6 5/5/5
f 8/8/8 7/7/7 5/5/5
f 11/11/11 10/10/10 9/9/9
f 12/12/12 11/11/11 9/9/9
f 15/15/15 14/14/14 13/13/13
f 16/16/16 15/15/15 13/13/13
f 19/19/19 18/18/18 17/17/17
f 20/20/20 19/19/19 17/17/17
f 23/23/23 22/22/22 21/21/21
f 24/24/24 23/23/23 21/21/21
f 27/27/27 26/26/26 25/25/25
f 28/28/28 27/27/27 25/25/25
f 31/31/31 30/30/30 29/29/29
f 32/32/32 31/31/31 29/29/29
f 35/35/35 34/34/34 33/33/33
f 36/36/36 35/35/35 33/33/33
f 39/39/39 38/38/38 37/37/37
f 40/40/40 39/39/39 37/37/37
f 43/43/43 42/42/42 41/41/41
f 44/44/44 43/43/43 41/41/41
f 47/47/47 46/46/46 45/45/45
f 48/48/48 47/47/47 45/45/45
f 51/51/51 50/50/50 49/49/49
f 52/52/52 51/51/51 49/49/49
f 55/55/55 54/54/54 53/53/53
f 56/56/56 55/55/55 53/53/53
f 59/59/59 58/58/58 57/57/57
f 60/60/60 59/59/59 57/57/57
f 63/63/63 62/62/62 61/61/61
f 64/64/64 63/63/63 61/61/61
f 67/67/67 66/66/66 65/65/65
f 65/65/65 66/66/66 68/68/68
f 69/69/69 66/66/66 67/67/67
f 68/68/68 66/66/66 70/70/70
f 71/71/71 66/66/66 69/69/69
f 70/70/70 66/66/66 72/72/72
f 73/73/73 66/66/66 71/71/71
f 72/72/72 66/66/66 73/73/73
