g collisionMesh_sideWalls_07
v 3.866217 51.53827 127.98794
v 24.659632 47.96995 108.7792
v 25.462402 47.96995 109.699936
v 4.6689878 51.53827 128.90868
v 4.6689878 47.045887 128.90868
v 4.6689878 51.53827 128.90868
v 25.462402 47.96995 109.699936
v 25.462402 43.2914 109.699936
v 24.659632 43.2914 108.7792
v 24.659632 47.96995 108.7792
v 3.866217 51.53827 127.98794
v 3.866217 47.045887 127.98794
vt 0.375 0.25
vt 0.375 0.5
vt 0.625 0.5
vt 0.625 0.25
vt 0.625 0
vt 0.625 0.25
vt 0.875 0.25
vt 0.875 0
vt 0.125 0
vt 0.125 0.25
vt 0.375 0.25
vt 0.375 0
vn 0.094304346 0.99214244 -0.0822203
vn 0.094304346 0.99214244 -0.0822203
vn 0.094304346 0.99214244 -0.0822203
vn 0.094304346 0.99214244 -0.0822203
vn 0.6785624 0 0.7345427
vn 0.6785624 0 0.7345427
vn 0.6785624 0 0.7345427
vn 0.6785624 0 0.7345427
vn -0.6785622 0 -0.7345429
vn -0.67856216 0 -0.7345429
vn -0.67856216 0 -0.7345429
vn -0.67856216 0 -0.7345429
g collisionMesh_sideWalls_07_0
f 3/3/3 2/2/2 1/1/1
f 4/4/4 3/3/3 1/1/1
f 7/7/7 6/6/6 5/5/5
f 8/8/8 7/7/7 5/5/5
f 11/11/11 10/10/10 9/9/9
f 12/12/12 11/11/11 9/9/9
