g collisionMesh_prism01
v 0.32779115 3.8107796 2.2367568
v 2.1178288 1.6943431 -1.0751169
v 1.8919549 -1.921569 1.1135299
v 0.10191716 0.19487013 4.425405
v -1.8919537 1.9215709 -1.1135299
v -2.1178288 -1.6943398 1.0751181
v -0.3277911 -3.8107784 -2.2367587
v -0.101915844 -0.19486772 -4.425406
v 1.8919549 -1.921569 1.1135299
v 2.1178288 1.6943431 -1.0751169
v 0.16374335 -0.20992205 -4.4228597
v -0.062131908 -3.825832 -2.2342124
v -2.1178288 -1.6943398 1.0751181
v -1.8919537 1.9215709 -1.1135299
v 0.062132616 3.825834 2.234214
v -0.163742 0.20992383 4.422861
v 0.062132616 3.825834 2.234214
v 2.1178288 1.6943431 -1.0751169
v 0.32779115 3.8107796 2.2367568
v -1.8919537 1.9215709 -1.1135299
v 0.16374335 -0.20992205 -4.4228597
v -0.101915844 -0.19486772 -4.425406
v -0.163742 0.20992383 4.422861
v 0.062132616 3.825834 2.234214
v 0.32779115 3.8107796 2.2367568
v 0.10191716 0.19487013 4.425405
v -0.101915844 -0.19486772 -4.425406
v -0.3277911 -3.8107784 -2.2367587
v -0.062131908 -3.825832 -2.2342124
v 0.16374335 -0.20992205 -4.4228597
vt 0.39999747 0.25
vt 0.625 0.25
vt 0.625 0
vt 0.39999747 4.4703484E-08
vt 0.375 0.5
vt 0.375 0.75
vt 0.60000247 0.75
vt 0.60000247 0.5
vt 0.625 0
vt 0.625 0.25
vt 0.85000247 0.25
vt 0.85000247 1.8626451E-09
vt 0.12500004 1.7663417E-09
vt 0.125 0.25
vt 0.35000256 0.25
vt 0.3500026 -3.7252903E-09
vt 0.37500003 0.27499747
vt 0.625 0.25
vt 0.39999747 0.25
vt 0.375 0.5
vt 0.625 0.47500244
vt 0.60000247 0.5
vt 0.3500026 -3.7252903E-09
vt 0.35000256 0.25
vt 0.39999747 0.25
vt 0.39999747 4.4703484E-08
vt 0.60000247 0.5
vt 0.60000247 0.75
vt 0.62499994 0.75
vt 0.625 0.47500244
vn 0.90849453 0.17339382 0.38022664
vn 0.90849453 0.17339382 0.38022664
vn 0.90849453 0.17339382 0.38022664
vn 0.90849453 0.17339379 0.38022658
vn -0.90849453 -0.1733935 -0.38022655
vn -0.90849453 -0.1733935 -0.38022655
vn -0.90849453 -0.1733935 -0.38022655
vn -0.90849453 -0.1733935 -0.38022655
vn 0.89018667 -0.275322 -0.36299536
vn 0.89018655 -0.27532202 -0.36299536
vn 0.89018667 -0.27532202 -0.36299536
vn 0.89018655 -0.27532202 -0.36299536
vn -0.89018667 0.27532208 0.36299536
vn -0.89018667 0.27532205 0.36299536
vn -0.89018667 0.27532205 0.36299533
vn -0.89018667 0.27532205 0.36299533
vn 0.053363517 0.85427403 -0.5170767
vn 0.05336364 0.85427386 -0.5170768
vn 0.053363517 0.85427403 -0.5170767
vn 0.05336364 0.85427386 -0.5170768
vn 0.053363774 0.85427386 -0.5170769
vn 0.053363774 0.85427386 -0.5170769
vn 0.021087436 0.5167354 0.85588545
vn 0.021087436 0.5167354 0.85588545
vn 0.021087438 0.5167354 0.8558854
vn 0.021087436 0.5167354 0.85588545
vn -0.021083334 -0.51673555 -0.8558854
vn -0.021083334 -0.51673555 -0.8558854
vn -0.021083334 -0.51673555 -0.8558854
vn -0.021083334 -0.51673555 -0.8558854
g collisionMesh_prism01_0
f 3/3/3 2/2/2 1/1/1
f 4/4/4 3/3/3 1/1/1
f 7/7/7 6/6/6 5/5/5
f 8/8/8 7/7/7 5/5/5
f 11/11/11 10/10/10 9/9/9
f 12/12/12 11/11/11 9/9/9
f 15/15/15 14/14/14 13/13/13
f 16/16/16 15/15/15 13/13/13
f 19/19/19 18/18/18 17/17/17
f 18/18/18 20/20/20 17/17/17
f 18/18/18 21/21/21 20/20/20
f 21/21/21 22/22/22 20/20/20
f 25/25/25 24/24/24 23/23/23
f 26/26/26 25/25/25 23/23/23
f 29/29/29 28/28/28 27/27/27
f 30/30/30 29/29/29 27/27/27
