g collisionMesh_Ground
v 14.048938 38.148876 108.49716
v 6.6104608 36.234955 95.60179
v 6.6104608 32.113026 95.60179
v 4.436303 38.3436 113.83664
v 6.6104608 36.234955 95.60179
v 14.048938 38.148876 108.49716
v -14.048937 38.148876 108.49716
v -6.6813684 32.113026 95.60179
v -6.610459 36.234955 95.60179
v -4.4363008 38.3436 113.83664
v -14.048937 38.148876 108.49716
v -6.610459 36.234955 95.60179
v 24.790768 -41.66033 -103.30355
v 24.793156 -33.613354 -85.23941
v -24.79144 -37.107563 -85.22666
v 24.790768 -41.66033 -103.30355
v -24.79144 -37.107563 -85.22666
v 13.358308 -41.66033 -103.30355
v -6.7248626 35.138767 96.40566
v -6.714348 32.070576 96.40566
v 6.619078 32.070576 96.40566
v 6.608564 35.138767 96.40566
v 6.6104608 36.234955 95.60179
v 4.436303 38.3436 113.83664
v 4.436303 32.1049 113.83664
v 6.6104608 32.113026 95.60179
v -6.610459 36.234955 95.60179
v -6.6813684 32.113026 95.60179
v -4.4363008 32.1049 113.83664
v -4.4363008 38.3436 113.83664
v 21.32982 38.153038 121.12892
v 14.669526 41.670784 127.520035
v 6.8528085 41.670864 113.996635
v 14.620283 38.14921 109.48837
v 14.669526 41.670784 127.520035
v 2.7513645 41.674965 128.1441
v 4.452246 41.674965 115.380646
v 6.8528085 41.670864 113.996635
v 2.7177253 32.1049 128.12967
v 4.452246 41.674965 115.380646
v 2.7513645 41.674965 128.1441
v 4.1503015 38.344418 115.34066
v 4.1503015 32.1049 115.34066
v 14.669526 41.670784 127.520035
v 4.596321 41.67497 131.27911
v 2.7513645 41.674965 128.1441
v 4.596322 41.67497 141.2787
v 2.7513645 41.674965 128.1441
v 4.596321 41.67497 131.27911
v 4.596321 32.1049 131.27911
v 2.7177253 32.1049 128.12967
v 24.790768 -41.67497 -141.2787
v 24.790768 -41.66033 -119.13338
v 13.358308 -41.66033 -119.13338
v -0.0015267944 -41.67497 -141.2787
v 6.063614 -41.66033 -119.13338
v -4.641689 -41.66033 -119.13338
v -24.793823 -41.67497 -141.2787
v -12.031684 -41.66033 -119.13338
v -24.793823 -41.66033 -119.13338
v -12.031684 -41.66033 -119.13338
v -12.031684 -41.66033 -103.30355
v -24.793823 -41.66033 -103.30355
v -24.793823 -41.66033 -119.13338
v 24.790768 -41.66033 -119.13338
v 24.790768 -41.66033 -103.30355
v 13.358308 -41.66033 -103.30355
v 13.358308 -41.66033 -119.13338
v 6.063614 -41.66033 -119.13338
v 6.063614 -41.66033 -103.30355
v -4.641689 -41.66033 -103.30355
v -4.641689 -41.66033 -119.13338
v 6.063614 -41.66033 -103.30355
v -24.79144 -37.107563 -85.22666
v -4.641689 -41.66033 -103.30355
v 13.358308 -41.66033 -103.30355
v -24.79144 -37.107563 -85.22666
v -12.031684 -41.66033 -103.30355
v -4.641689 -41.66033 -103.30355
v -24.793823 -41.66033 -103.30355
v 24.793156 -33.613354 -85.23941
v 24.795563 -25.471313 -67.17572
v -24.789036 -29.18561 -67.162964
v -24.79144 -37.107563 -85.22666
v 24.795563 -25.471313 -67.17572
v -24.69866 -20.653833 -50.268326
v -24.789036 -29.18561 -67.162964
v 24.79078 -22.229599 -50.30631
v 24.790775 -18.53482 -35.207817
v -24.793823 -14.616373 -35.207817
v -24.69866 -20.653833 -50.268326
v 24.79078 -22.229599 -50.30631
v 24.790775 -18.53482 -35.207817
v 24.79078 -13.637137 -20.109282
v -24.793823 -9.696481 -20.109291
v -24.793823 -14.616373 -35.207817
v 24.79078 -13.637137 -20.109282
v 24.79078 -4.424181 -6.4243503
v -24.793823 -0.4098352 -6.4243503
v -24.793823 -9.696481 -20.109291
v 24.79078 -4.424181 -6.4243503
v 24.79078 3.3758702 7.0732565
v -24.793823 7.401666 7.0732565
v -24.793823 -0.4098352 -6.4243503
v 24.79078 10.940338 20.570883
v -24.793823 14.038356 20.761822
v -24.793823 7.401666 7.0732565
v 24.79078 3.3758702 7.0732565
v 24.79078 10.940338 20.570883
v 24.79078 18.401855 33.998363
v -24.793823 14.038356 20.761822
v -24.793823 18.451159 34.029037
v 24.79078 18.401855 33.998363
v 24.79078 22.001621 49.008636
v -24.793823 22.001621 49.008636
v -24.793823 18.451159 34.029037
v 24.79078 22.001621 49.008636
v 24.79078 24.974463 61.535805
v -24.793823 24.974463 61.535805
v -24.793823 22.001621 49.008636
v 24.79078 24.974463 61.535805
v 24.792297 25.013027 67.35649
v -24.792294 25.013027 67.35649
v -24.793823 24.974463 61.535805
v 24.792297 25.013027 67.35649
v 24.792297 25.64379 67.35649
v -24.792294 25.64379 67.35649
v -24.792294 25.013027 67.35649
v 24.792297 25.64379 67.35649
v 24.792297 27.397612 73.56081
v -24.792294 27.397612 73.56081
v -24.792294 25.64379 67.35649
v 24.792297 27.397612 73.56081
v 24.792297 28.100443 73.56081
v -24.792294 28.100443 73.56081
v -24.792294 27.397612 73.56081
v 24.792297 28.100443 73.56081
v 24.792301 29.651289 80.35006
v -24.79229 29.651289 80.35006
v -24.792294 28.100443 73.56081
v 24.792301 29.651289 80.35006
v 24.792301 30.303188 80.35006
v -24.79229 30.303188 80.35006
v -24.79229 29.651289 80.35006
v 24.792301 30.303188 80.35006
v -24.79229 31.209764 86.50521
v -24.79229 30.303188 80.35006
v 24.792301 31.209764 86.50521
v -24.79229 32.113026 86.56265
v 24.792301 32.113026 86.56265
v 24.792301 32.113026 86.56265
v 17.531569 32.113026 89.34603
v -17.531569 32.113026 89.34603
v -24.79229 32.113026 86.56265
v 17.531569 32.113026 89.34603
v 6.6104608 32.113026 95.60179
v -6.6813684 32.113026 95.60179
v -17.531569 32.113026 89.34603
v 17.531569 32.113026 89.34603
v 24.984018 38.14889 102.184586
v 14.048938 38.148876 108.49716
v 6.6104608 32.113026 95.60179
v 24.984018 38.14889 102.184586
v 30.718597 38.14889 112.12261
v 21.32982 38.153038 121.12892
v 14.620283 38.14921 109.48837
v 14.048938 38.148876 108.49716
v 4.596321 41.67497 131.27911
v 4.596322 41.67497 141.2787
v 4.596321 32.1049 141.2787
v 4.596321 32.1049 131.27911
v -17.531569 32.113026 89.34603
v -6.6813684 32.113026 95.60179
v -14.048937 38.148876 108.49716
v -24.984018 38.14889 102.184586
v -24.984018 38.14889 102.184586
v -21.32982 38.153038 121.12892
v -30.718597 38.14889 112.12261
v -14.610261 38.149208 109.47099
v -14.048937 38.148876 108.49716
v -14.669523 41.670784 127.520035
v -4.5963187 41.67497 131.27911
v -4.5963182 41.67497 141.2787
v -2.7513616 41.674965 128.1441
v -4.5963187 41.67497 131.27911
v -4.5963187 32.1049 131.27911
v -4.5963187 32.1049 141.2787
v -4.5963182 41.67497 141.2787
v 4.596321 32.1049 141.2787
v 4.596322 41.67497 141.2787
v -4.5963182 41.67497 141.2787
v -4.5963187 32.1049 141.2787
v -21.32982 38.153038 121.12892
v -14.620281 38.14921 109.48837
v -6.852806 41.670864 113.996635
v -14.669523 41.670784 127.520035
v -14.669523 41.670784 127.520035
v -6.852806 41.670864 113.996635
v -4.4522433 41.674965 115.380646
v -2.7513616 41.674965 128.1441
v -2.7177227 32.1049 128.12967
v -2.7513616 41.674965 128.1441
v -4.4522433 41.674965 115.380646
v -4.150299 38.344418 115.34066
v -4.150299 32.1049 115.34066
v -2.7513616 41.674965 128.1441
v -2.7177227 32.1049 128.12967
v -4.5963187 32.1049 131.27911
v -4.5963187 41.67497 131.27911
v 6.6104608 32.113026 95.60179
v 6.6104608 32.1049 96.57416
v -6.6813684 32.1049 96.57416
v -6.6813684 32.113026 95.60179
vt 0 1
vt 1 1
vt 1 0
vt 0 2.2201206E-15
vt 0.75329024 1
vt 0.7436878 0
vt 0 1
vt 1 0
vt 1 1
vt 0 2.2201206E-15
vt 0.7436878 0
vt 0.75329024 1
vt 0.00012076254 1
vt 0 0
vt 0.2891173 0.5
vt 0.00012076254 1
vt 0.2891173 0.5
vt 0.5782346 1
vt 0.375 0.5
vt 0.375 0.75
vt 0.625 0.75
vt 0.625 0.5
vt 0.010552952 0
vt 0 0.997964
vt 0.3396969 1.0000001
vt 0.33925462 0
vt 0.010552952 0
vt 0.33925462 0
vt 0.3396969 1.0000001
vt 0 0.997964
vt 0 0
vt 0 1
vt 0.9340235 1
vt 0.9215277 0
vt 0 0
vt 0 1
vt 0.90328133 1
vt 0.9340235 0
vt 1 1
vt 0 0
vt 0 1
vt 0 0
vt 1 0
vt 0 0
vt 0.6619045 0.676191
vt 1 0
vt 0.5 1
vt 0 0
vt 0 0.676191
vt 1 0.677394
vt 1 0
vt 1 1
vt 1 0
vt 0.75928 0
vt 0.5 1
vt 0.63059306 0
vt 0.40611708 0
vt 0 1
vt 0.25311953 0
vt 0 0
vt 0 0
vt 0 1
vt 1 1
vt 1 0
vt 0 0
vt 0 1
vt 1 1
vt 1 0
vt 0 0
vt 0 1
vt 1 1
vt 1 0
vt 0.1912121 0.48863834
vt 0.99999994 0
vt 0.47182477 0.48863834
vt 0 0.48863834
vt 0 0
vt 0.8023842 0.18282318
vt 1 0
vt 0.46111187 0.49854937
vt 0 0
vt 0 1
vt 1 1
vt 1 0
vt 0 0
vt 1 1
vt 1 0
vt 0 1
vt 0 1
vt 1 1
vt 1 0
vt 0 0
vt 0 0
vt 0 1
vt 1 1
vt 1 0
vt 0 0
vt 0 1
vt 1 1
vt 1 0
vt 0 0
vt 0 1
vt 1 1
vt 1 0
vt 0 1
vt 1 1
vt 1 0
vt 0 0
vt 0 0
vt 0 1
vt 1 0
vt 1 1
vt 0 0
vt 0 1
vt 1 1
vt 1 0
vt 0 0
vt 0 1
vt 1 1
vt 1 0
vt 0 0
vt 0 1
vt 1 1
vt 1 0
vt 0 0
vt 0 1
vt 1 1
vt 1 0
vt 0 0
vt 0 1
vt 1 1
vt 1 0
vt 0 0
vt 0 1
vt 1 1
vt 1 0
vt 0 0
vt 0 1
vt 1 1
vt 1 0
vt 0 0
vt 0 1
vt 1 1
vt 1 0
vt 0 0
vt 1 0.8
vt 1 0
vt 0 0.8
vt 1 1
vt 0 1
vt 0 0
vt 0 1
vt 1 1
vt 1 0
vt 0 0
vt 0 1
vt 1 1
vt 1 0
vt 0 0
vt 0 1
vt 1 1
vt 1 0
vt 0 0
vt 0 1
vt 1 1
vt 1 0.0784723
vt 1 0
vt 0 0.676191
vt 0 0.676191
vt 1 0.677394
vt 1 0.677394
vt 0 0
vt 1 0
vt 1 1
vt 0 1
vt 0 0
vt 1 1
vt 0 1
vt 1 0.0784723
vt 1 0
vt 0 0
vt 0.6619045 0.676191
vt 0.5 1
vt 1 0
vt 0 0.676191
vt 1 0.677394
vt 1 0.677394
vt 0 0.676191
vt 1 0
vt 0 0
vt 0 0
vt 1 0
vt 0 0
vt 0.9215277 0
vt 0.9340235 1
vt 0 1
vt 0 0
vt 0.9340235 0
vt 0.90328133 1
vt 0 1
vt 1 1
vt 0 1
vt 0 0
vt 0 0
vt 1 0
vt 0 0
vt 1 0
vt 1 0.677394
vt 0 0.676191
vt 0 0
vt 0 1
vt 1 1
vt 1 0
vn 0.8662196 0 -0.49966347
vn 0.8662196 0 -0.49966353
vn 0.8662196 0 -0.49966353
vn -0.04670111 0.99164575 -0.12024055
vn -0.04670112 0.99164575 -0.120240554
vn -0.046701115 0.99164575 -0.12024058
vn -0.8651659 0.01488378 -0.5012648
vn -0.8651659 0.014883779 -0.50126475
vn -0.8651659 0.014883779 -0.50126475
vn 0.0467011 0.99164575 -0.12024058
vn 0.0467011 0.99164575 -0.12024058
vn 0.046701096 0.99164575 -0.120240584
vn -0.0643429 0.911575 -0.40606773
vn -0.06434289 0.911575 -0.4060677
vn -0.0643429 0.911575 -0.40606773
vn -0 0.9697174 -0.24423
vn -0 0.9697174 -0.24422997
vn -0 0.9697174 -0.24422997
vn -0 0 -1
vn -0 0 -1
vn -0 0 -1
vn -0 0 -1
vn -0.9929669 0 -0.11839231
vn -0.9929669 0 -0.118392296
vn -0.9929669 0 -0.11839228
vn -0.9929669 0 -0.118392296
vn 0.9927619 -0.0067944643 -0.11990679
vn 0.9927619 -0.0067944652 -0.11990679
vn 0.9927619 -0.0067944643 -0.11990679
vn 0.9927619 -0.006794464 -0.11990679
vn 0.31620902 0.930936 -0.18267503
vn 0.31620905 0.930936 -0.18267503
vn 0.31620905 0.930936 -0.18267505
vn 0.31620908 0.930936 -0.18267505
vn 0.00052143156 0.9999999 -0.000104580875
vn 0.00053074013 0.9999999 -0.00013772302
vn 0.0005604805 0.9999999 -0.00012761295
vn 0.0005604805 0.9999999 -0.00012761293
vn -0.99315685 0.022028806 -0.11469138
vn -0.9929772 0.026316814 -0.115341194
vn -0.9929772 0.026316814 -0.115341194
vn -0.9932066 0.020755876 -0.114498064
vn -0.99378467 0 -0.11131994
vn 0.00052143156 0.9999999 -0.000104580875
vn 0.00039605613 1 -5.2817417E-05
vn 0.00053074013 0.9999999 -0.00013772302
vn 0.0004154156 1 -9.927734E-07
vn -0.8603255 0.0011276366 0.5097439
vn -0.8603255 0.0011276366 0.5097439
vn -0.8603255 0.0011276368 0.509744
vn -0.8603255 0.0011276365 0.5097439
vn -0 0.99999976 -0.0006610031
vn -0 0.99999976 -0.00066100305
vn -0 0.99999976 -0.00066100305
vn -0 0.99999976 -0.00066097867
vn -0 0.99999976 -0.0006609788
vn -0 0.99999976 -0.00066097884
vn -0 0.99999976 -0.0006613074
vn -0 0.99999976 -0.0006613074
vn -0 0.99999976 -0.0006613075
vn -0 1 0
vn -0 1 0
vn -0 1 0
vn -0 1 0
vn -0 1 0
vn -0 1 0
vn -0 1 0
vn -0 1 0
vn -0 1 0
vn -0 1 0
vn -0 1 0
vn -0 1 0
vn -0 0.9697178 -0.2442281
vn -0 0.9697176 -0.24422877
vn -0 0.9697176 -0.24422908
vn -0 0.9697179 -0.24422777
vn -0 0.9697176 -0.24422891
vn -0 0.9697176 -0.24422911
vn -0 0.9697175 -0.24422935
vn -0 0.9697176 -0.2442288
vn -0.06637699 0.9117304 -0.40539083
vn -0.06637698 0.9117304 -0.4053908
vn -0.06637699 0.9117304 -0.40539083
vn -0.066376984 0.9117304 -0.4053908
vn 0.006805932 0.96677387 -0.25554252
vn 0.015830493 0.93957835 -0.34196794
vn -0.06684262 0.89078265 -0.44948673
vn 0.04507758 0.96310335 -0.26533002
vn 0.06374482 0.9494332 -0.30742988
vn 0.06411437 0.94939893 -0.3074591
vn 0.015830493 0.93957835 -0.34196794
vn 0.04507758 0.96310335 -0.26533002
vn 0.06374482 0.9494332 -0.30742988
vn 0.07515319 0.9483119 -0.3083123
vn 0.07515319 0.9483119 -0.30831236
vn 0.06411437 0.94939893 -0.3074591
vn 0.06631298 0.8266749 -0.5587587
vn 0.06810065 0.844595 -0.53105706
vn 0.06820157 0.8456011 -0.52944064
vn 0.06631298 0.82667476 -0.5587588
vn 0.06810065 0.844595 -0.53105706
vn 0.07021733 0.86568177 -0.49564558
vn 0.06582825 0.8740172 -0.4814151
vn 0.06820157 0.8456011 -0.52944064
vn 0.067689985 0.8756239 -0.4782267
vn 0.054459296 0.89848375 -0.435616
vn 0.06582825 0.8740172 -0.4814151
vn 0.07021733 0.86568177 -0.49564558
vn 0.05267007 0.87289405 -0.48505855
vn 0.015022991 0.95099336 -0.30884615
vn 0.011391449 0.93619555 -0.35129493
vn 0.0005171518 0.9660854 -0.25822243
vn 0.015022991 0.95099336 -0.30884615
vn 0.00022442301 0.97284544 -0.23145573
vn 0.00022442301 0.97284544 -0.23145573
vn 0.0005171518 0.9660854 -0.25822243
vn 0.00022442301 0.97284544 -0.23145573
vn -0 0.9729777 -0.2308989
vn -0 0.9729777 -0.2308989
vn 0.00022442301 0.97284544 -0.23145573
vn -0 0.99997807 -0.006625109
vn -0 0.99997807 -0.006625109
vn -0 0.99997807 -0.006625109
vn -0 0.99997807 -0.006625109
vn -0 0 -1
vn -0 0 -1
vn -0 0 -1
vn -0 0 -1
vn -0 0.96229196 -0.27201864
vn -0 0.96229196 -0.27201864
vn -0 0.96229196 -0.27201864
vn -0 0.96229196 -0.27201864
vn -0 0 -1
vn -0 0 -1
vn -0 0 -1
vn -0 0 -1
vn -0 0.9748892 -0.22269039
vn -0 0.9748892 -0.22269037
vn -0 0.9748892 -0.22269039
vn -0 0.9748892 -0.22269037
vn -0 0 -1
vn -0 0 -1
vn -0 0 -1
vn -0 0 -1
vn -0 0.9893265 -0.14571606
vn -0 0.9600899 -0.27969173
vn -0 0.9893265 -0.14571606
vn -0 0.9600899 -0.27969173
vn -0 0.06346519 -0.99798405
vn -0 0.06346519 -0.99798405
vn -0 1 -6.36652E-07
vn -0 1 -6.36652E-07
vn -0 1 -6.36652E-07
vn -0 1 -6.3665203E-07
vn -0.15219787 0.9522531 -0.2646694
vn -0.08489614 0.9853919 -0.14763275
vn -0 1 3.3058166E-07
vn -0 1 3.3058166E-07
vn -0.15219787 0.9522531 -0.2646694
vn -0.18753515 0.92653984 -0.32612038
vn -0.18753514 0.92653984 -0.32612035
vn -0.08489614 0.9853919 -0.14763275
vn 5.355204E-05 1 -0.00020849476
vn 5.411763E-05 1 -0.0002083612
vn 5.411763E-05 1 -0.00020836122
vn 4.616893E-05 1 -0.00021023778
vn -0.0001482325 1 -0.00025613248
vn -1 0 0
vn -1 0 0
vn -1 0 0
vn -1 0 0
vn 0.18818536 0.92638355 -0.3261896
vn 0.18818536 0.92638355 -0.32618964
vn 0.18818536 0.92638355 -0.3261896
vn 0.18818536 0.92638355 -0.32618964
vn -5.346335E-05 1 -0.00020877208
vn -5.4009302E-05 1 -0.0002086699
vn -5.4009306E-05 1 -0.00020866992
vn -4.6172074E-05 1 -0.00021013693
vn 0.00014868904 1 -0.0002466126
vn -0.00052143156 0.9999999 -0.00010428984
vn -0.0003960562 1 -5.2747648E-05
vn -0.00041541562 1 0
vn -0.00053074025 0.9999999 -0.00013785092
vn 1 0 0
vn 1 0 0
vn 1 0 0
vn 1 0 0
vn -0 0 -1
vn -0 0 -1
vn -0 0 -1
vn -0 0 -1
vn -0.3162087 0.93093604 -0.18267481
vn -0.31620866 0.93093604 -0.18267478
vn -0.3162087 0.93093604 -0.18267478
vn -0.3162087 0.93093604 -0.18267483
vn -0.00052143156 0.9999999 -0.00010428984
vn -0.00056048064 0.9999999 -0.00012735566
vn -0.0005604807 0.9999999 -0.00012735566
vn -0.00053074025 0.9999999 -0.00013785092
vn 0.99315697 0.022028781 -0.11469134
vn 0.9929772 0.02631678 -0.115341164
vn 0.9929772 0.02631678 -0.11534116
vn 0.9932066 0.02075585 -0.114498034
vn 0.99378467 0 -0.11131994
vn 0.8603256 0.001127652 0.50974363
vn 0.8603256 0.0011276519 0.5097436
vn 0.8603256 0.0011276521 0.5097436
vn 0.8603256 0.0011276521 0.5097436
vn -0 0.9999651 0.008356024
vn -0 0.9999651 0.008356024
vn -0 0.9999651 0.008356024
vn -0 0.9999651 0.008356024
g collisionMesh_Ground_0
f 3/3/3 2/2/2 1/1/1
f 6/6/6 5/5/5 4/4/4
f 9/9/9 8/8/8 7/7/7
f 12/12/12 11/11/11 10/10/10
f 15/15/15 14/14/14 13/13/13
f 18/18/18 17/17/17 16/16/16
f 21/21/21 20/20/20 19/19/19
f 22/22/22 21/21/21 19/19/19
f 25/25/25 24/24/24 23/23/23
f 26/26/26 25/25/25 23/23/23
f 29/29/29 28/28/28 27/27/27
f 30/30/30 29/29/29 27/27/27
f 33/33/33 32/32/32 31/31/31
f 34/34/34 33/33/33 31/31/31
f 37/37/37 36/36/36 35/35/35
f 38/38/38 37/37/37 35/35/35
f 41/41/41 40/40/40 39/39/39
f 40/40/40 42/42/42 39/39/39
f 42/42/42 43/43/43 39/39/39
f 46/46/46 45/45/45 44/44/44
f 45/45/45 47/47/47 44/44/44
f 50/50/50 49/49/49 48/48/48
f 51/51/51 50/50/50 48/48/48
f 54/54/54 53/53/53 52/52/52
f 54/54/54 52/52/52 55/55/55
f 56/56/56 54/54/54 55/55/55
f 57/57/57 56/56/56 55/55/55
f 57/57/57 55/55/55 58/58/58
f 59/59/59 57/57/57 58/58/58
f 59/59/59 58/58/58 60/60/60
f 63/63/63 62/62/62 61/61/61
f 64/64/64 63/63/63 61/61/61
f 67/67/67 66/66/66 65/65/65
f 68/68/68 67/67/67 65/65/65
f 71/71/71 70/70/70 69/69/69
f 72/72/72 71/71/71 69/69/69
f 75/75/75 74/74/74 73/73/73
f 74/74/74 76/76/76 73/73/73
f 79/79/79 78/78/78 77/77/77
f 78/78/78 80/80/80 77/77/77
f 83/83/83 82/82/82 81/81/81
f 84/84/84 83/83/83 81/81/81
f 87/87/87 86/86/86 85/85/85
f 86/86/86 88/88/88 85/85/85
f 91/91/91 90/90/90 89/89/89
f 91/91/91 89/89/89 92/92/92
f 95/95/95 94/94/94 93/93/93
f 96/96/96 95/95/95 93/93/93
f 99/99/99 98/98/98 97/97/97
f 100/100/100 99/99/99 97/97/97
f 103/103/103 102/102/102 101/101/101
f 104/104/104 103/103/103 101/101/101
f 107/107/107 106/106/106 105/105/105
f 107/107/107 105/105/105 108/108/108
f 111/111/111 110/110/110 109/109/109
f 111/111/111 112/112/112 110/110/110
f 115/115/115 114/114/114 113/113/113
f 116/116/116 115/115/115 113/113/113
f 119/119/119 118/118/118 117/117/117
f 120/120/120 119/119/119 117/117/117
f 123/123/123 122/122/122 121/121/121
f 124/124/124 123/123/123 121/121/121
f 127/127/127 126/126/126 125/125/125
f 128/128/128 127/127/127 125/125/125
f 131/131/131 130/130/130 129/129/129
f 132/132/132 131/131/131 129/129/129
f 135/135/135 134/134/134 133/133/133
f 136/136/136 135/135/135 133/133/133
f 139/139/139 138/138/138 137/137/137
f 140/140/140 139/139/139 137/137/137
f 143/143/143 142/142/142 141/141/141
f 144/144/144 143/143/143 141/141/141
f 147/147/147 146/146/146 145/145/145
f 146/146/146 148/148/148 145/145/145
f 146/146/146 149/149/149 148/148/148
f 149/149/149 150/150/150 148/148/148
f 153/153/153 152/152/152 151/151/151
f 154/154/154 153/153/153 151/151/151
f 157/157/157 156/156/156 155/155/155
f 158/158/158 157/157/157 155/155/155
f 161/161/161 160/160/160 159/159/159
f 162/162/162 161/161/161 159/159/159
f 165/165/165 164/164/164 163/163/163
f 166/166/166 165/165/165 163/163/163
f 167/167/167 166/166/166 163/163/163
f 170/170/170 169/169/169 168/168/168
f 171/171/171 170/170/170 168/168/168
f 174/174/174 173/173/173 172/172/172
f 175/175/175 174/174/174 172/172/172
f 178/178/178 177/177/177 176/176/176
f 177/177/177 179/179/179 176/176/176
f 179/179/179 180/180/180 176/176/176
f 183/183/183 182/182/182 181/181/181
f 182/182/182 184/184/184 181/181/181
f 187/187/187 186/186/186 185/185/185
f 188/188/188 187/187/187 185/185/185
f 191/191/191 190/190/190 189/189/189
f 192/192/192 191/191/191 189/189/189
f 195/195/195 194/194/194 193/193/193
f 196/196/196 195/195/195 193/193/193
f 199/199/199 198/198/198 197/197/197
f 200/200/200 199/199/199 197/197/197
f 203/203/203 202/202/202 201/201/201
f 204/204/204 203/203/203 201/201/201
f 205/205/205 204/204/204 201/201/201
f 208/208/208 207/207/207 206/206/206
f 209/209/209 208/208/208 206/206/206
f 212/212/212 211/211/211 210/210/210
f 213/213/213 212/212/212 210/210/210
