g Combined Mesh (root: scene) 3
v -13.762146 41.109924 -167.16714
v -13.762146 41.110058 -163.04588
v -22.418781 41.110058 -163.04588
v -22.418781 41.109924 -167.16714
v 4.3978534 34.37991 -25.667147
v 4.3978534 34.380054 -21.545883
v -4.258782 34.380054 -21.545883
v -4.258782 34.37991 -25.667147
v 15.907853 34.37991 -25.667147
v 15.907853 34.380054 -21.545883
v 7.251218 34.380054 -21.545883
v 7.251218 34.37991 -25.667147
v -7.2421465 34.37991 -25.667147
v -7.2421465 34.380054 -21.545883
v -15.898782 34.380054 -21.545883
v -15.898782 34.37991 -25.667147
v 15.907853 15.354933 90.98287
v 15.907853 15.355077 95.10413
v 7.251218 15.355077 95.10413
v 7.251218 15.354933 90.98287
v 23.567854 41.109924 -167.16714
v 23.567854 41.110058 -163.04588
v 14.911219 41.110058 -163.04588
v 14.911219 41.109924 -167.16714
v -7.2421465 37.52992 -103.51714
v -7.2421465 37.530064 -99.39588
v -15.898782 37.530064 -99.39588
v -15.898782 37.52992 -103.51714
v 15.907853 37.52992 -103.51714
v 15.907853 37.530064 -99.39588
v 7.251218 37.530064 -99.39588
v 7.251218 37.52992 -103.51714
v 4.3978534 15.354933 90.98287
v 4.3978534 15.355077 95.10413
v -4.258782 15.355077 95.10413
v -4.258782 15.354933 90.98287
v -7.2421465 15.354933 90.98287
v -7.2421465 15.355077 95.10413
v -15.898782 15.355077 95.10413
v -15.898782 15.354933 90.98287
v 4.3978534 37.52992 -103.51714
v 4.3978534 37.530064 -99.39588
v -4.258782 37.530064 -99.39588
v -4.258782 37.52992 -103.51714
v 4.967853 41.109924 -167.16714
v 4.967853 41.110058 -163.04588
v -3.6887822 41.110058 -163.04588
v -3.6887822 41.109924 -167.16714
vt 0.16834447 0.3465595
vt 0.16834447 0.6587564
vt 0.8241502 0.6587564
vt 0.8241502 0.3465595
vt 0.16834447 0.3465595
vt 0.16834447 0.6587564
vt 0.8241502 0.6587564
vt 0.8241502 0.3465595
vt 0.16834447 0.3465595
vt 0.16834447 0.6587564
vt 0.8241502 0.6587564
vt 0.8241502 0.3465595
vt 0.16834447 0.3465595
vt 0.16834447 0.6587564
vt 0.8241502 0.6587564
vt 0.8241502 0.3465595
vt 0.16834447 0.3465595
vt 0.16834447 0.6587564
vt 0.8241502 0.6587564
vt 0.8241502 0.3465595
vt 0.16834447 0.3465595
vt 0.16834447 0.6587564
vt 0.8241502 0.6587564
vt 0.8241502 0.3465595
vt 0.16834447 0.3465595
vt 0.16834447 0.6587564
vt 0.8241502 0.6587564
vt 0.8241502 0.3465595
vt 0.16834447 0.3465595
vt 0.16834447 0.6587564
vt 0.8241502 0.6587564
vt 0.8241502 0.3465595
vt 0.16834447 0.3465595
vt 0.16834447 0.6587564
vt 0.8241502 0.6587564
vt 0.8241502 0.3465595
vt 0.16834447 0.3465595
vt 0.16834447 0.6587564
vt 0.8241502 0.6587564
vt 0.8241502 0.3465595
vt 0.16834447 0.3465595
vt 0.16834447 0.6587564
vt 0.8241502 0.6587564
vt 0.8241502 0.3465595
vt 0.16834447 0.3465595
vt 0.16834447 0.6587564
vt 0.8241502 0.6587564
vt 0.8241502 0.3465595
vn -0 1 0
vn -0 1 0
vn -0 1 0
vn -0 1 0
vn -0 1 -2.9206276E-06
vn -0 1 -2.9206276E-06
vn -0 1 -2.9206276E-06
vn -0 1 -2.9206276E-06
vn -0 1 -2.9206276E-06
vn -0 1 -2.9206276E-06
vn -0 1 -2.9206276E-06
vn -0 1 -2.9206276E-06
vn -0 1 -2.9206276E-06
vn -0 1 -2.9206276E-06
vn -0 1 -2.9206276E-06
vn -0 1 -2.9206276E-06
vn -0 1 -2.9206276E-06
vn -0 1 -2.9206276E-06
vn -0 1 -2.9206276E-06
vn -0 1 -2.9206276E-06
vn -0 1 0
vn -0 1 0
vn -0 1 0
vn -0 1 0
vn -0 1 -2.9206276E-06
vn -0 1 -2.9206276E-06
vn -0 1 -2.9206276E-06
vn -0 1 -2.9206276E-06
vn -0 1 -2.9206276E-06
vn -0 1 -2.9206276E-06
vn -0 1 -2.9206276E-06
vn -0 1 -2.9206276E-06
vn -0 1 -2.9206276E-06
vn -0 1 -2.9206276E-06
vn -0 1 -2.9206276E-06
vn -0 1 -2.9206276E-06
vn -0 1 -2.9206276E-06
vn -0 1 -2.9206276E-06
vn -0 1 -2.9206276E-06
vn -0 1 -2.9206276E-06
vn -0 1 -2.9206276E-06
vn -0 1 -2.9206276E-06
vn -0 1 -2.9206276E-06
vn -0 1 -2.9206276E-06
vn -0 1 0
vn -0 1 0
vn -0 1 0
vn -0 1 0
g Combined Mesh (root: scene) 3_0
f 3/3/3 2/2/2 1/1/1
f 4/4/4 3/3/3 1/1/1
g Combined Mesh (root: scene) 3_1
f 7/7/7 6/6/6 5/5/5
f 8/8/8 7/7/7 5/5/5
g Combined Mesh (root: scene) 3_2
f 11/11/11 10/10/10 9/9/9
f 12/12/12 11/11/11 9/9/9
g Combined Mesh (root: scene) 3_3
f 15/15/15 14/14/14 13/13/13
f 16/16/16 15/15/15 13/13/13
g Combined Mesh (root: scene) 3_4
f 19/19/19 18/18/18 17/17/17
f 20/20/20 19/19/19 17/17/17
g Combined Mesh (root: scene) 3_5
f 23/23/23 22/22/22 21/21/21
f 24/24/24 23/23/23 21/21/21
g Combined Mesh (root: scene) 3_6
f 27/27/27 26/26/26 25/25/25
f 28/28/28 27/27/27 25/25/25
g Combined Mesh (root: scene) 3_7
f 31/31/31 30/30/30 29/29/29
f 32/32/32 31/31/31 29/29/29
g Combined Mesh (root: scene) 3_8
f 35/35/35 34/34/34 33/33/33
f 36/36/36 35/35/35 33/33/33
g Combined Mesh (root: scene) 3_9
f 39/39/39 38/38/38 37/37/37
f 40/40/40 39/39/39 37/37/37
g Combined Mesh (root: scene) 3_10
f 43/43/43 42/42/42 41/41/41
f 44/44/44 43/43/43 41/41/41
g Combined Mesh (root: scene) 3_11
f 47/47/47 46/46/46 45/45/45
f 48/48/48 47/47/47 45/45/45
