g Combined Mesh (root: scene) 27
v -14.689365 -17.375608 16.358519
v -14.738765 -17.383337 16.328508
v -14.689365 -17.358898 16.31373
v -14.754095 -17.407097 16.363407
v -14.754775 -21.815311 22.061382
v -14.6893635 -21.81247 22.092756
v -14.754889 -22.264442 22.641922
v -14.6893635 -22.264442 22.676933
v -7.378152 -17.375608 16.358517
v -7.378152 -17.358898 16.313728
v -7.338065 -17.39425 16.333166
v -7.313422 -17.407097 16.363403
v -7.37815 -21.81247 22.092754
v -7.312739 -21.815311 22.061378
v -7.37815 -22.264442 22.676931
v -7.312625 -22.264442 22.641918
v -14.689365 -17.358898 16.31373
v -7.378152 -17.358898 16.313728
v -7.378152 -17.375608 16.358517
v -14.689365 -17.375608 16.358519
v -14.750916 -17.456657 16.36534
v -14.745464 -17.419146 16.287243
v -14.738765 -17.383337 16.328508
v -14.754095 -17.407097 16.363407
v -14.740466 -21.850323 22.023983
v -14.754775 -21.815311 22.061382
v -14.73933 -22.297977 22.600544
v -14.754889 -22.264442 22.641922
v -14.738765 -17.383337 16.328508
v -14.745464 -17.419146 16.287243
v -14.692091 -17.401413 16.27474
v -14.689365 -17.358898 16.31373
v -7.393483 -17.401413 16.27269
v -7.3255734 -17.419146 16.285194
v -7.338065 -17.39425 16.333166
v -7.378152 -17.358898 16.313728
v -7.338065 -17.39425 16.333166
v -7.3255734 -17.419146 16.285194
v -7.3304567 -17.456657 16.346807
v -7.313422 -17.407097 16.363403
v -7.312739 -21.815311 22.061378
v -7.32841 -21.850323 22.022274
v -7.312625 -22.264442 22.641918
v -7.328183 -22.297977 22.600542
v -7.378152 -17.358898 16.313728
v -14.689365 -17.358898 16.31373
v -14.692091 -17.401413 16.27474
v -7.393483 -17.401413 16.27269
v -8.415876 -22.264442 22.676931
v -7.37815 -21.81247 22.092754
v -7.37815 -22.264442 22.676931
v -8.415876 -21.985483 22.316353
v -13.556472 -22.264442 22.676933
v -8.301292 -21.898977 22.204496
v -13.556472 -21.985483 22.316355
v -14.6893635 -22.264442 22.676933
v -8.244286 -21.81247 22.092754
v -8.301293 -21.725964 21.980898
v -14.6893635 -21.81247 22.092756
v -8.415876 -21.639341 21.869041
v -7.378152 -17.375608 16.358517
v -14.689365 -17.375608 16.358519
v -13.556472 -21.639341 21.869043
v -13.671056 -21.898977 22.204613
v -13.671056 -21.725964 21.9809
v -13.728064 -21.81247 22.092756
v -8.415876 -21.985483 22.316353
v -13.556472 -21.985483 22.316355
v -13.671056 -21.898977 22.204613
v -8.301292 -21.898977 22.204496
v -13.728064 -21.81247 22.092756
v -8.244286 -21.81247 22.092754
v -13.671056 -21.725964 21.9809
v -8.301293 -21.725964 21.980898
v -13.556472 -21.639341 21.869043
v -8.415876 -21.639341 21.869041
v 21.294613 -17.375608 16.358297
v 21.245214 -17.383337 16.328287
v 21.294613 -17.358898 16.313509
v 21.229883 -17.407097 16.363186
v 21.229204 -21.815311 22.061161
v 21.294615 -21.81247 22.092535
v 21.22909 -22.264442 22.6417
v 21.294615 -22.264442 22.676712
v 28.605825 -17.375608 16.358295
v 28.605825 -17.358898 16.313507
v 28.645912 -17.39425 16.332945
v 28.670555 -17.407097 16.363182
v 28.605827 -21.81247 22.092533
v 28.67124 -21.815311 22.061157
v 28.605827 -22.264442 22.67671
v 28.671352 -22.264442 22.641697
v 21.294613 -17.358898 16.313509
v 28.605825 -17.358898 16.313507
v 28.605825 -17.375608 16.358295
v 21.294613 -17.375608 16.358297
v 21.233063 -17.456657 16.365118
v 21.238514 -17.419146 16.287022
v 21.245214 -17.383337 16.328287
v 21.229883 -17.407097 16.363186
v 21.243511 -21.850323 22.023762
v 21.229204 -21.815311 22.061161
v 21.244648 -22.297977 22.600323
v 21.22909 -22.264442 22.6417
v 21.245214 -17.383337 16.328287
v 21.238514 -17.419146 16.287022
v 21.291887 -17.401413 16.274519
v 21.294613 -17.358898 16.313509
v 28.590496 -17.401413 16.272469
v 28.658405 -17.419146 16.284973
v 28.645912 -17.39425 16.332945
v 28.605825 -17.358898 16.313507
v 28.645912 -17.39425 16.332945
v 28.658405 -17.419146 16.284973
v 28.653522 -17.456657 16.346586
v 28.670555 -17.407097 16.363182
v 28.67124 -21.815311 22.061157
v 28.655567 -21.850323 22.022053
v 28.671352 -22.264442 22.641697
v 28.655796 -22.297977 22.60032
v 28.605825 -17.358898 16.313507
v 21.294613 -17.358898 16.313509
v 21.291887 -17.401413 16.274519
v 28.590496 -17.401413 16.272469
v 27.568102 -22.264442 22.67671
v 28.605827 -21.81247 22.092533
v 28.605827 -22.264442 22.67671
v 27.568102 -21.985483 22.316132
v 22.427505 -22.264442 22.676712
v 27.682686 -21.898977 22.204275
v 22.427505 -21.985483 22.316133
v 21.294615 -22.264442 22.676712
v 27.739693 -21.81247 22.092533
v 27.682686 -21.725964 21.980677
v 21.294615 -21.81247 22.092535
v 27.568102 -21.639341 21.86882
v 28.605825 -17.375608 16.358295
v 21.294613 -17.375608 16.358297
v 22.427505 -21.639341 21.868822
v 22.312923 -21.898977 22.204391
v 22.312922 -21.725964 21.980679
v 22.255915 -21.81247 22.092535
v 27.568102 -21.985483 22.316132
v 22.427505 -21.985483 22.316133
v 22.312923 -21.898977 22.204391
v 27.682686 -21.898977 22.204275
v 22.255915 -21.81247 22.092535
v 27.739693 -21.81247 22.092533
v 22.312922 -21.725964 21.980679
v 27.682686 -21.725964 21.980677
v 22.427505 -21.639341 21.868822
v 27.568102 -21.639341 21.86882
vt 0.48415095 0.4899831
vt 0.48350292 0.49127916
vt 0.48674303 0.49063113
vt 0.48091084 0.49192718
vt 0.06293782 0.49127916
vt 0.061641783 0.48674303
vt 0.021464529 0.4899831
vt 0.020168489 0.486095
vt 0.4828549 0.02340859
vt 0.485447 0.02276057
vt 0.48220688 0.02211255
vt 0.4796148 0.021464529
vt 0.05969772 0.031184832
vt 0.05969772 0.02664869
vt 0.01822443 0.032480873
vt 0.019520469 0.029240772
vt 0.48674303 0.49063113
vt 0.485447 0.02276057
vt 0.4828549 0.02340859
vt 0.48415095 0.4899831
vt 0.47896677 0.49451926
vt 0.48479897 0.49387124
vt 0.48350292 0.49127916
vt 0.48091084 0.49192718
vt 0.06293782 0.49451926
vt 0.06293782 0.49127916
vt 0.020168489 0.49192718
vt 0.021464529 0.4899831
vt 0.48350292 0.49127916
vt 0.48479897 0.49387124
vt 0.4893351 0.49127916
vt 0.48674303 0.49063113
vt 0.48868707 0.02276057
vt 0.48415095 0.020168489
vt 0.48220688 0.02211255
vt 0.485447 0.02276057
vt 0.48220688 0.02211255
vt 0.48415095 0.020168489
vt 0.47896677 0.01822443
vt 0.4796148 0.021464529
vt 0.05969772 0.02664869
vt 0.06034574 0.02340859
vt 0.019520469 0.029240772
vt 0.01822443 0.02729671
vt 0.485447 0.02276057
vt 0.48674303 0.49063113
vt 0.4893351 0.49127916
vt 0.48868707 0.02276057
vt 0.016280368 0.09080269
vt 0.05969772 0.031184832
vt 0.01822443 0.032480873
vt 0.043497216 0.091450706
vt 0.01822443 0.421293
vt 0.051273458 0.08432249
vt 0.044793256 0.42064497
vt 0.020168489 0.486095
vt 0.05969772 0.08108239
vt 0.068121985 0.08432249
vt 0.061641783 0.48674303
vt 0.076546244 0.09080269
vt 0.4828549 0.02340859
vt 0.48415095 0.4899831
vt 0.0784903 0.42064497
vt 0.05321752 0.42777318
vt 0.07006604 0.42777318
vt 0.061641783 0.4310133
vt 0.043497216 0.091450706
vt 0.044793256 0.42064497
vt 0.05321752 0.42777318
vt 0.051273458 0.08432249
vt 0.061641783 0.4310133
vt 0.05969772 0.08108239
vt 0.07006604 0.42777318
vt 0.068121985 0.08432249
vt 0.0784903 0.42064497
vt 0.076546244 0.09080269
vt 0.48415095 0.4899831
vt 0.48350292 0.49127916
vt 0.48674303 0.49063113
vt 0.48091084 0.49192718
vt 0.06293782 0.49127916
vt 0.061641783 0.48674303
vt 0.021464529 0.4899831
vt 0.020168489 0.486095
vt 0.4828549 0.02340859
vt 0.485447 0.02276057
vt 0.48220688 0.02211255
vt 0.4796148 0.021464529
vt 0.05969772 0.031184832
vt 0.05969772 0.02664869
vt 0.01822443 0.032480873
vt 0.019520469 0.029240772
vt 0.48674303 0.49063113
vt 0.485447 0.02276057
vt 0.4828549 0.02340859
vt 0.48415095 0.4899831
vt 0.47896677 0.49451926
vt 0.48479897 0.49387124
vt 0.48350292 0.49127916
vt 0.48091084 0.49192718
vt 0.06293782 0.49451926
vt 0.06293782 0.49127916
vt 0.020168489 0.49192718
vt 0.021464529 0.4899831
vt 0.48350292 0.49127916
vt 0.48479897 0.49387124
vt 0.4893351 0.49127916
vt 0.48674303 0.49063113
vt 0.48868707 0.02276057
vt 0.48415095 0.020168489
vt 0.48220688 0.02211255
vt 0.485447 0.02276057
vt 0.48220688 0.02211255
vt 0.48415095 0.020168489
vt 0.47896677 0.01822443
vt 0.4796148 0.021464529
vt 0.05969772 0.02664869
vt 0.06034574 0.02340859
vt 0.019520469 0.029240772
vt 0.01822443 0.02729671
vt 0.485447 0.02276057
vt 0.48674303 0.49063113
vt 0.4893351 0.49127916
vt 0.48868707 0.02276057
vt 0.016280368 0.09080269
vt 0.05969772 0.031184832
vt 0.01822443 0.032480873
vt 0.043497216 0.091450706
vt 0.01822443 0.421293
vt 0.051273458 0.08432249
vt 0.044793256 0.42064497
vt 0.020168489 0.486095
vt 0.05969772 0.08108239
vt 0.068121985 0.08432249
vt 0.061641783 0.48674303
vt 0.076546244 0.09080269
vt 0.4828549 0.02340859
vt 0.48415095 0.4899831
vt 0.0784903 0.42064497
vt 0.05321752 0.42777318
vt 0.07006604 0.42777318
vt 0.061641783 0.4310133
vt 0.043497216 0.091450706
vt 0.044793256 0.42064497
vt 0.05321752 0.42777318
vt 0.051273458 0.08432249
vt 0.061641783 0.4310133
vt 0.05969772 0.08108239
vt 0.07006604 0.42777318
vt 0.068121985 0.08432249
vt 0.0784903 0.42064497
vt 0.076546244 0.09080269
vn -0.17362219 0.85959226 0.4805793
vn -0.35674235 0.8595089 0.36603203
vn -0.15836015 0.92058754 0.3569884
vn -0.33385545 0.78329045 0.52440125
vn -0.31859696 0.7528052 0.5760038
vn -0.31859696 0.7528052 0.5760038
vn -0.31859693 0.7375586 0.5954018
vn -0.13546652 0.76811546 0.6258174
vn 0.2155781 0.8748256 0.43382737
vn 0.20031667 0.93582106 0.29002097
vn 0.5054627 0.85177654 0.13778347
vn 0.3758003 0.79089004 0.4829773
vn 0.3147688 0.752807 0.5781023
vn 0.3147688 0.752807 0.5781023
vn 0.13926868 0.7681146 0.62498325
vn 0.3147688 0.7375604 0.5974323
vn 0.0019011087 0.9358586 0.35237062
vn 0.0019011087 0.9358586 0.35237062
vn 0.0019011087 0.9358586 0.35237062
vn 0.0019011087 0.9358586 0.35237062
vn -0.9816387 -0.10853106 -0.15686437
vn -0.97402894 0.043803595 -0.22214593
vn -0.97402894 0.043803595 -0.22214593
vn -0.9816387 -0.017130658 -0.18997878
vn -0.9816387 -0.16184798 -0.100948974
vn -0.9816387 -0.16184798 -0.100948974
vn -0.9816387 -0.16184798 -0.100948974
vn -0.9816387 -0.16184798 -0.100948974
vn -0.28044933 0.06671208 -0.9575477
vn -0.28044933 0.06671208 -0.9575477
vn -0.15836062 0.043844093 -0.98640746
vn -0.1125731 0.036220685 -0.9929831
vn 0.15453054 0.097211204 -0.983194
vn 0.34528503 0.14294074 -0.92754847
vn 0.34528503 0.14294074 -0.92754847
vn 0.17742367 0.09721045 -0.97932166
vn 0.9473779 0.05142304 -0.31596002
vn 0.9473779 0.05142304 -0.31596002
vn 0.96259964 -0.14662 -0.22782564
vn 0.96259964 -0.08568413 -0.25702178
vn 0.95498896 -0.23802726 -0.17702828
vn 0.95498896 -0.23802726 -0.17702828
vn 0.95498896 -0.23802726 -0.17702828
vn 0.95498896 -0.23802726 -0.17702828
vn 0.0019007417 0.6842651 -0.7292309
vn 0.0019007417 0.6842651 -0.7292309
vn 0.0019006502 0.020973053 -0.9997783
vn 0.0019007417 0.6842651 -0.7292309
vn 0.0019011965 0.79100174 0.6118109
vn 0.0019011965 0.79100174 0.6118109
vn 0.0019012031 0.77575374 0.63103294
vn 0.0019011965 0.79100174 0.6118109
vn 0.0019011965 0.79100174 0.6118109
vn 0.0019011965 0.79100174 0.6118109
vn 0.0019011965 0.79100174 0.6118109
vn 0.0019012031 0.77575374 0.63103294
vn 0.0019011965 0.79100174 0.6118109
vn 0.0019011965 0.79100174 0.6118109
vn 0.0019011965 0.79100174 0.6118109
vn 0.0019011965 0.79100174 0.6118109
vn 0.0019011579 0.8672422 0.49788284
vn 0.0019011965 0.79100174 0.6118109
vn 0.0019011965 0.79100174 0.6118109
vn 0.0019011965 0.79100174 0.6118109
vn 0.0019011965 0.79100174 0.6118109
vn 0.0019011965 0.79100174 0.6118109
vn 0.0019011965 0.79100174 0.6118109
vn 0.0019011965 0.79100174 0.6118109
vn 0.0019011965 0.79100174 0.6118109
vn 0.0019011965 0.79100174 0.6118109
vn 0.0019011965 0.79100174 0.6118109
vn 0.0019011965 0.79100174 0.6118109
vn 0.0019011965 0.79100174 0.6118109
vn 0.0019011965 0.79100174 0.6118109
vn 0.0019011965 0.79100174 0.6118109
vn 0.0019011965 0.79100174 0.6118109
vn -0.17362219 0.85959226 0.4805793
vn -0.35674235 0.8595089 0.36603203
vn -0.15836015 0.92058754 0.3569884
vn -0.33385545 0.78329045 0.52440125
vn -0.31859696 0.7528052 0.5760038
vn -0.31859696 0.7528052 0.5760038
vn -0.31859693 0.7375586 0.5954018
vn -0.13546652 0.76811546 0.6258174
vn 0.2155781 0.8748256 0.43382737
vn 0.20031667 0.93582106 0.29002097
vn 0.5054627 0.85177654 0.13778347
vn 0.3758003 0.79089004 0.4829773
vn 0.3147688 0.752807 0.5781023
vn 0.3147688 0.752807 0.5781023
vn 0.13926868 0.7681146 0.62498325
vn 0.3147688 0.7375604 0.5974323
vn 0.0019011087 0.9358586 0.35237062
vn 0.0019011087 0.9358586 0.35237062
vn 0.0019011087 0.9358586 0.35237062
vn 0.0019011087 0.9358586 0.35237062
vn -0.9816387 -0.10853106 -0.15686437
vn -0.97402894 0.043803595 -0.22214593
vn -0.97402894 0.043803595 -0.22214593
vn -0.9816387 -0.017130658 -0.18997878
vn -0.9816387 -0.16184798 -0.100948974
vn -0.9816387 -0.16184798 -0.100948974
vn -0.9816387 -0.16184798 -0.100948974
vn -0.9816387 -0.16184798 -0.100948974
vn -0.28044933 0.06671208 -0.9575477
vn -0.28044933 0.06671208 -0.9575477
vn -0.15836062 0.043844093 -0.98640746
vn -0.1125731 0.036220685 -0.9929831
vn 0.15453054 0.097211204 -0.983194
vn 0.34528503 0.14294074 -0.92754847
vn 0.34528503 0.14294074 -0.92754847
vn 0.17742367 0.09721045 -0.97932166
vn 0.9473779 0.05142304 -0.31596002
vn 0.9473779 0.05142304 -0.31596002
vn 0.96259964 -0.14662 -0.22782564
vn 0.96259964 -0.08568413 -0.25702178
vn 0.95498896 -0.23802726 -0.17702828
vn 0.95498896 -0.23802726 -0.17702828
vn 0.95498896 -0.23802726 -0.17702828
vn 0.95498896 -0.23802726 -0.17702828
vn 0.0019007417 0.6842651 -0.7292309
vn 0.0019007417 0.6842651 -0.7292309
vn 0.0019006502 0.020973053 -0.9997783
vn 0.0019007417 0.6842651 -0.7292309
vn 0.0019011965 0.79100174 0.6118109
vn 0.0019011965 0.79100174 0.6118109
vn 0.0019012031 0.77575374 0.63103294
vn 0.0019011965 0.79100174 0.6118109
vn 0.0019011965 0.79100174 0.6118109
vn 0.0019011965 0.79100174 0.6118109
vn 0.0019011965 0.79100174 0.6118109
vn 0.0019012031 0.77575374 0.63103294
vn 0.0019011965 0.79100174 0.6118109
vn 0.0019011965 0.79100174 0.6118109
vn 0.0019011965 0.79100174 0.6118109
vn 0.0019011965 0.79100174 0.6118109
vn 0.0019011579 0.8672422 0.49788284
vn 0.0019011965 0.79100174 0.6118109
vn 0.0019011965 0.79100174 0.6118109
vn 0.0019011965 0.79100174 0.6118109
vn 0.0019011965 0.79100174 0.6118109
vn 0.0019011965 0.79100174 0.6118109
vn 0.0019011965 0.79100174 0.6118109
vn 0.0019011965 0.79100174 0.6118109
vn 0.0019011965 0.79100174 0.6118109
vn 0.0019011965 0.79100174 0.6118109
vn 0.0019011965 0.79100174 0.6118109
vn 0.0019011965 0.79100174 0.6118109
vn 0.0019011965 0.79100174 0.6118109
vn 0.0019011965 0.79100174 0.6118109
vn 0.0019011965 0.79100174 0.6118109
vn 0.0019011965 0.79100174 0.6118109
g Combined Mesh (root: scene) 27_0
f 3/3/3 2/2/2 1/1/1
f 2/2/2 4/4/4 1/1/1
f 1/1/1 4/4/4 5/5/5
f 6/6/6 1/1/1 5/5/5
f 6/6/6 5/5/5 7/7/7
f 8/8/8 6/6/6 7/7/7
f 11/11/11 10/10/10 9/9/9
f 12/12/12 11/11/11 9/9/9
f 12/12/12 9/9/9 13/13/13
f 14/14/14 12/12/12 13/13/13
f 14/14/14 13/13/13 15/15/15
f 16/16/16 14/14/14 15/15/15
f 19/19/19 18/18/18 17/17/17
f 20/20/20 19/19/19 17/17/17
f 23/23/23 22/22/22 21/21/21
f 24/24/24 23/23/23 21/21/21
f 24/24/24 21/21/21 25/25/25
f 26/26/26 24/24/24 25/25/25
f 26/26/26 25/25/25 27/27/27
f 28/28/28 26/26/26 27/27/27
f 31/31/31 30/30/30 29/29/29
f 32/32/32 31/31/31 29/29/29
f 35/35/35 34/34/34 33/33/33
f 36/36/36 35/35/35 33/33/33
f 39/39/39 38/38/38 37/37/37
f 40/40/40 39/39/39 37/37/37
f 39/39/39 40/40/40 41/41/41
f 42/42/42 39/39/39 41/41/41
f 42/42/42 41/41/41 43/43/43
f 44/44/44 42/42/42 43/43/43
f 47/47/47 46/46/46 45/45/45
f 48/48/48 47/47/47 45/45/45
f 51/51/51 50/50/50 49/49/49
f 50/50/50 52/52/52 49/49/49
f 53/53/53 49/49/49 52/52/52
f 54/54/54 52/52/52 50/50/50
f 55/55/55 53/53/53 52/52/52
f 56/56/56 53/53/53 55/55/55
f 57/57/57 54/54/54 50/50/50
f 58/58/58 57/57/57 50/50/50
f 59/59/59 56/56/56 55/55/55
f 60/60/60 58/58/58 50/50/50
f 50/50/50 61/61/61 60/60/60
f 60/60/60 61/61/61 62/62/62
f 63/63/63 60/60/60 62/62/62
f 59/59/59 63/63/63 62/62/62
f 55/55/55 64/64/64 59/59/59
f 65/65/65 63/63/63 59/59/59
f 64/64/64 66/66/66 59/59/59
f 66/66/66 65/65/65 59/59/59
f 69/69/69 68/68/68 67/67/67
f 70/70/70 69/69/69 67/67/67
f 71/71/71 69/69/69 70/70/70
f 72/72/72 71/71/71 70/70/70
f 73/73/73 71/71/71 72/72/72
f 74/74/74 73/73/73 72/72/72
f 75/75/75 73/73/73 74/74/74
f 76/76/76 75/75/75 74/74/74
g Combined Mesh (root: scene) 27_1
f 79/79/79 78/78/78 77/77/77
f 78/78/78 80/80/80 77/77/77
f 77/77/77 80/80/80 81/81/81
f 82/82/82 77/77/77 81/81/81
f 82/82/82 81/81/81 83/83/83
f 84/84/84 82/82/82 83/83/83
f 87/87/87 86/86/86 85/85/85
f 88/88/88 87/87/87 85/85/85
f 88/88/88 85/85/85 89/89/89
f 90/90/90 88/88/88 89/89/89
f 90/90/90 89/89/89 91/91/91
f 92/92/92 90/90/90 91/91/91
f 95/95/95 94/94/94 93/93/93
f 96/96/96 95/95/95 93/93/93
f 99/99/99 98/98/98 97/97/97
f 100/100/100 99/99/99 97/97/97
f 100/100/100 97/97/97 101/101/101
f 102/102/102 100/100/100 101/101/101
f 102/102/102 101/101/101 103/103/103
f 104/104/104 102/102/102 103/103/103
f 107/107/107 106/106/106 105/105/105
f 108/108/108 107/107/107 105/105/105
f 111/111/111 110/110/110 109/109/109
f 112/112/112 111/111/111 109/109/109
f 115/115/115 114/114/114 113/113/113
f 116/116/116 115/115/115 113/113/113
f 115/115/115 116/116/116 117/117/117
f 118/118/118 115/115/115 117/117/117
f 118/118/118 117/117/117 119/119/119
f 120/120/120 118/118/118 119/119/119
f 123/123/123 122/122/122 121/121/121
f 124/124/124 123/123/123 121/121/121
f 127/127/127 126/126/126 125/125/125
f 126/126/126 128/128/128 125/125/125
f 129/129/129 125/125/125 128/128/128
f 130/130/130 128/128/128 126/126/126
f 131/131/131 129/129/129 128/128/128
f 132/132/132 129/129/129 131/131/131
f 133/133/133 130/130/130 126/126/126
f 134/134/134 133/133/133 126/126/126
f 135/135/135 132/132/132 131/131/131
f 136/136/136 134/134/134 126/126/126
f 126/126/126 137/137/137 136/136/136
f 136/136/136 137/137/137 138/138/138
f 139/139/139 136/136/136 138/138/138
f 135/135/135 139/139/139 138/138/138
f 131/131/131 140/140/140 135/135/135
f 141/141/141 139/139/139 135/135/135
f 140/140/140 142/142/142 135/135/135
f 142/142/142 141/141/141 135/135/135
f 145/145/145 144/144/144 143/143/143
f 146/146/146 145/145/145 143/143/143
f 147/147/147 145/145/145 146/146/146
f 148/148/148 147/147/147 146/146/146
f 149/149/149 147/147/147 148/148/148
f 150/150/150 149/149/149 148/148/148
f 151/151/151 149/149/149 150/150/150
f 152/152/152 151/151/151 150/150/150
