g Combined Mesh (root: scene) 12
v 53.740334 23.266783 -163.33955
v 53.740334 22.691692 -162.37468
v -38.341183 22.691692 -162.37468
v -38.341183 23.266783 -163.33955
v -31.51678 3.6562095 -101.98063
v -31.51678 4.017238 -103.338486
v 46.919125 4.017238 -103.338486
v 46.91593 3.6562095 -101.98063
v 19.030682 49.63069 170.50249
v 19.030682 49.35963 169.36816
v 29.973236 49.35963 169.36816
v 29.973236 49.63069 170.50249
v 19.013002 62.659225 144.18909
v 19.013002 63.607933 143.51439
v 29.955559 63.607933 143.51439
v 29.955559 62.659225 144.18909
vt 17.428831 0.9869641
vt 17.428831 0.013690657
vt -16.408556 0.013690657
vt -16.408556 0.9869641
vt -14.554431 0.006978426
vt -14.554431 0.99419266
vt 15.575223 0.99419266
vt 15.575223 0.006978426
vt -2.0230858 0.0065443185
vt -2.0230858 0.99406457
vt 3.0010002 0.99406457
vt 3.0010002 0.0065443185
vt -2.0230858 0.0065443185
vt -2.0230858 0.99406457
vt 3.0010002 0.99406457
vt 3.0010002 0.0065443185
vn -0 0.8600486 0.5102121
vn -0 0.8600486 0.5102121
vn -0 0.8600486 0.5102121
vn -0 0.8600486 0.5102121
vn -0 0.9661339 0.2580413
vn -0 0.9661339 0.2580413
vn -0 0.9661339 0.2580413
vn -0 0.9661339 0.2580413
vn -0 0.9721556 -0.23433635
vn -0 0.9721556 -0.23433635
vn -0 0.9721556 -0.23433635
vn -0 0.9721556 -0.23433635
vn -0 0.57948095 0.8149858
vn -0 0.57948095 0.8149858
vn -0 0.57948095 0.8149858
vn -0 0.57948095 0.8149858
g Combined Mesh (root: scene) 12_0
f 3/3/3 2/2/2 1/1/1
f 4/4/4 3/3/3 1/1/1
f 7/7/7 6/6/6 5/5/5
f 8/8/8 7/7/7 5/5/5
g Combined Mesh (root: scene) 12_1
f 11/11/11 10/10/10 9/9/9
f 12/12/12 11/11/11 9/9/9
f 15/15/15 14/14/14 13/13/13
f 16/16/16 15/15/15 13/13/13
