g Combined Mesh (root: scene) 9
v 0.37273908 49.63999 181.06726
v -4.012738 49.63999 181.06726
v 0.37273908 49.640007 185.45273
v -4.012738 49.640007 185.45273
v 21.27274 49.63999 181.06726
v 16.88726 49.63999 181.06726
v 21.27274 49.640007 185.45273
v 16.88726 49.640007 185.45273
v 12.813632 49.639988 178.44637
v 4.266368 49.639988 178.44637
v 12.813632 49.64001 186.99364
v 4.266368 49.64001 186.99364
vt 0 0
vt 1 0
vt 0 1
vt 1 1
vt 0 0
vt 1 0
vt 0 1
vt 1 1
vt 0 0
vt 1 0
vt 0 1
vt 1 1
vn -0 1 -2.9206276E-06
vn -0 1 -2.9206276E-06
vn -0 1 -2.9206276E-06
vn -0 1 -2.9206276E-06
vn -0 1 -2.9206276E-06
vn -0 1 -2.9206276E-06
vn -0 1 -2.9206276E-06
vn -0 1 -2.9206276E-06
vn -0 1 -2.9206278E-06
vn -0 1 -2.9206278E-06
vn -0 1 -2.9206278E-06
vn -0 1 -2.9206278E-06
g Combined Mesh (root: scene) 9_0
f 2/2/2 4/4/4 1/1/1
f 3/3/3 1/1/1 4/4/4
g Combined Mesh (root: scene) 9_1
f 6/6/6 8/8/8 5/5/5
f 7/7/7 5/5/5 8/8/8
g Combined Mesh (root: scene) 9_2
f 10/10/10 12/12/12 9/9/9
f 11/11/11 9/9/9 12/12/12
