g Cube_5x5x5
v 2.3841858E-07 -2.3841858E-07 2.4999998
v 2.5000002 2.4999998 2.4999998
v 2.5000002 -2.3841858E-07 2.4999998
v 2.3841858E-07 2.4999998 2.4999998
v -2.4999998 -2.3841858E-07 2.4999998
v 2.5000002 5 2.4999998
v -2.4999998 2.4999998 2.4999998
v 2.3841858E-07 5 2.4999998
v -2.4999998 5 2.4999998
v 2.3841858E-07 5 2.4999998
v 2.5000002 5 -2.3841858E-07
v 2.5000002 5 2.4999998
v 2.3841858E-07 5 -2.3841858E-07
v -2.4999998 5 2.4999998
v 2.5000002 5 -2.5000002
v -2.4999998 5 -2.3841858E-07
v 2.3841858E-07 5 -2.5000002
v -2.4999998 5 -2.5000002
v 2.3841858E-07 5 -2.5000002
v 2.5000002 2.4999998 -2.5000002
v 2.5000002 5 -2.5000002
v 2.3841858E-07 2.4999998 -2.5000002
v -2.4999998 5 -2.5000002
v 2.5000002 -2.3841858E-07 -2.5000002
v -2.4999998 2.4999998 -2.5000002
v 2.3841858E-07 -2.3841858E-07 -2.5000002
v -2.4999998 -2.3841858E-07 -2.5000002
v 2.3841858E-07 -2.3841858E-07 -2.5000002
v 2.5000002 -2.3841858E-07 -2.3841858E-07
v 2.5000002 -2.3841858E-07 -2.5000002
v 2.3841858E-07 -2.3841858E-07 -2.3841858E-07
v -2.4999998 -2.3841858E-07 -2.5000002
v 2.5000002 -2.3841858E-07 2.4999998
v -2.4999998 -2.3841858E-07 -2.3841858E-07
v 2.3841858E-07 -2.3841858E-07 2.4999998
v -2.4999998 -2.3841858E-07 2.4999998
v 2.5000002 -2.3841858E-07 -2.3841858E-07
v 2.5000002 2.4999998 -2.5000002
v 2.5000002 -2.3841858E-07 -2.5000002
v 2.5000002 2.4999998 -2.3841858E-07
v 2.5000002 -2.3841858E-07 2.4999998
v 2.5000002 5 -2.5000002
v 2.5000002 2.4999998 2.4999998
v 2.5000002 5 -2.3841858E-07
v 2.5000002 5 2.4999998
v -2.4999998 -2.3841858E-07 -2.3841858E-07
v -2.4999998 2.4999998 2.4999998
v -2.4999998 -2.3841858E-07 2.4999998
v -2.4999998 2.4999998 -2.3841858E-07
v -2.4999998 -2.3841858E-07 -2.5000002
v -2.4999998 5 2.4999998
v -2.4999998 2.4999998 -2.5000002
v -2.4999998 5 -2.3841858E-07
v -2.4999998 5 -2.5000002
vt 0.50048876 0
vt 0.62463343 0.12512219
vt 0.62463343 0
vt 0.50048876 0.12512219
vt 0.37536657 0
vt 0.62463343 0.25024438
vt 0.37536657 0.12512219
vt 0.50048876 0.25024438
vt 0.37536657 0.25024438
vt 0.50048876 0.25024438
vt 0.62463343 0.37536657
vt 0.62463343 0.25024438
vt 0.50048876 0.37536657
vt 0.37536657 0.25024438
vt 0.62463343 0.50048876
vt 0.37536657 0.37536657
vt 0.50048876 0.50048876
vt 0.37536657 0.50048876
vt 0.50048876 0.50048876
vt 0.62463343 0.62463343
vt 0.62463343 0.50048876
vt 0.50048876 0.62463343
vt 0.37536657 0.50048876
vt 0.62463343 0.7497556
vt 0.37536657 0.62463343
vt 0.50048876 0.7497556
vt 0.37536657 0.7497556
vt 0.50048876 0.7497556
vt 0.62463343 0.8748778
vt 0.62463343 0.7497556
vt 0.50048876 0.8748778
vt 0.37536657 0.7497556
vt 0.62463343 1
vt 0.37536657 0.8748778
vt 0.50048876 1
vt 0.37536657 1
vt 0.7497556 0
vt 0.8748778 0.12512219
vt 0.8748778 0
vt 0.7497556 0.12512219
vt 0.62463343 0
vt 0.8748778 0.25024438
vt 0.62463343 0.12512219
vt 0.7497556 0.25024438
vt 0.62463343 0.25024438
vt 0.25024438 0
vt 0.37536657 0.12512219
vt 0.37536657 0
vt 0.25024438 0.12512219
vt 0.12512219 0
vt 0.37536657 0.25024438
vt 0.12512219 0.12512219
vt 0.25024438 0.25024438
vt 0.12512219 0.25024438
vn -0.003921509 0.003921509 0.9999846
vn -0.003921509 0.003921509 0.9999846
vn -0.003921509 0.003921509 0.9999846
vn -0.003921509 0.003921509 0.9999846
vn -0.003921509 0.003921509 0.9999846
vn -0.003921509 0.003921509 0.9999846
vn -0.003921509 0.003921509 0.9999846
vn -0.003921509 0.003921509 0.9999846
vn -0.003921509 0.003921509 0.9999846
vn -0.003921509 0.99999225 -0.00034526698
vn -0.003921509 0.99999225 -0.00034526698
vn -0.003921509 0.99999225 -0.00034526698
vn -0.003921509 0.99999225 -0.00034526698
vn -0.003921509 0.99999225 -0.00034526698
vn -0.003921509 0.99999225 -0.00034526698
vn -0.003921509 0.99999225 -0.00034526698
vn -0.003921509 0.99999225 -0.00034526698
vn -0.003921509 0.99999225 -0.00034526698
vn -0.003921509 0.003921509 -0.9999846
vn -0.003921509 0.003921509 -0.9999846
vn -0.003921509 0.003921509 -0.9999846
vn -0.003921509 0.003921509 -0.9999846
vn -0.003921509 0.003921509 -0.9999846
vn -0.003921509 0.003921509 -0.9999846
vn -0.003921509 0.003921509 -0.9999846
vn -0.003921509 0.003921509 -0.9999846
vn -0.003921509 0.003921509 -0.9999846
vn -0.003921509 -0.9999924 -0
vn -0.003921509 -0.9999924 -0
vn -0.003921509 -0.9999924 -0
vn -0.003921509 -0.9999924 -0
vn -0.003921509 -0.9999924 -0
vn -0.003921509 -0.9999924 -0
vn -0.003921509 -0.9999924 -0
vn -0.003921509 -0.9999924 -0
vn -0.003921509 -0.9999924 -0
vn 0.9999924 0.003921509 -0
vn 0.9999924 0.003921509 -0
vn 0.9999924 0.003921509 -0
vn 0.9999924 0.003921509 -0
vn 0.9999924 0.003921509 -0
vn 0.9999924 0.003921509 -0
vn 0.9999924 0.003921509 -0
vn 0.9999924 0.003921509 -0
vn 0.9999924 0.003921509 -0
vn -0.99999225 0.003921509 -0.00034492963
vn -0.99999225 0.003921509 -0.00034492963
vn -0.99999225 0.003921509 -0.00034492963
vn -0.99999225 0.003921509 -0.00034492963
vn -0.99999225 0.003921509 -0.00034492963
vn -0.99999225 0.003921509 -0.00034492963
vn -0.99999225 0.003921509 -0.00034492963
vn -0.99999225 0.003921509 -0.00034492963
vn -0.99999225 0.003921509 -0.00034492963
g Cube_5x5x5_0
f 3/3/3 2/2/2 1/1/1
f 2/2/2 4/4/4 1/1/1
f 1/1/1 4/4/4 5/5/5
f 2/2/2 6/6/6 4/4/4
f 4/4/4 7/7/7 5/5/5
f 6/6/6 8/8/8 4/4/4
f 4/4/4 8/8/8 7/7/7
f 8/8/8 9/9/9 7/7/7
f 12/12/12 11/11/11 10/10/10
f 11/11/11 13/13/13 10/10/10
f 10/10/10 13/13/13 14/14/14
f 11/11/11 15/15/15 13/13/13
f 13/13/13 16/16/16 14/14/14
f 15/15/15 17/17/17 13/13/13
f 13/13/13 17/17/17 16/16/16
f 17/17/17 18/18/18 16/16/16
f 21/21/21 20/20/20 19/19/19
f 20/20/20 22/22/22 19/19/19
f 19/19/19 22/22/22 23/23/23
f 20/20/20 24/24/24 22/22/22
f 22/22/22 25/25/25 23/23/23
f 24/24/24 26/26/26 22/22/22
f 22/22/22 26/26/26 25/25/25
f 26/26/26 27/27/27 25/25/25
f 30/30/30 29/29/29 28/28/28
f 29/29/29 31/31/31 28/28/28
f 28/28/28 31/31/31 32/32/32
f 29/29/29 33/33/33 31/31/31
f 31/31/31 34/34/34 32/32/32
f 33/33/33 35/35/35 31/31/31
f 31/31/31 35/35/35 34/34/34
f 35/35/35 36/36/36 34/34/34
f 39/39/39 38/38/38 37/37/37
f 38/38/38 40/40/40 37/37/37
f 37/37/37 40/40/40 41/41/41
f 38/38/38 42/42/42 40/40/40
f 40/40/40 43/43/43 41/41/41
f 42/42/42 44/44/44 40/40/40
f 40/40/40 44/44/44 43/43/43
f 44/44/44 45/45/45 43/43/43
f 48/48/48 47/47/47 46/46/46
f 47/47/47 49/49/49 46/46/46
f 46/46/46 49/49/49 50/50/50
f 47/47/47 51/51/51 49/49/49
f 49/49/49 52/52/52 50/50/50
f 51/51/51 53/53/53 49/49/49
f 49/49/49 53/53/53 52/52/52
f 53/53/53 54/54/54 52/52/52
