g Cylinder_Placement_12
v -12.973362 6.9344115 -15.602933
v -0 15.602928 -15.602934
v -14.415226 9.631952 -15.602934
v 14.415231 9.631945 -15.602934
v -0 15.602928 -15.602934
v 12.973364 6.9344034 -15.602934
v 12.973363 6.9344077 15.602934
v -1.9108085E-15 15.602928 15.602934
v 14.415228 9.631949 15.602934
v -14.415228 9.631948 15.602934
v -1.9108085E-15 15.602928 15.602934
v -12.973363 6.9344077 15.602934
v -14.415226 9.631952 -15.602934
v -14.415228 9.631948 15.602934
v -12.973363 6.9344077 15.602934
v -12.973362 6.9344115 -15.602933
v -12.973362 6.9344115 -15.602933
v -12.973363 6.9344077 15.602934
v -11.032938 4.569993 15.602934
v -11.032938 4.5699973 -15.602934
v -8.668524 2.6295772 15.602934
v -8.668525 2.6295526 -15.602934
v -5.9709826 1.1877024 15.602934
v -5.970985 1.1877048 -15.602933
v -3.0439806 0.29980585 15.602934
v -3.043983 0.29980698 -15.602934
v -0 0 15.602934
v -2.5575223E-06 0 -15.602933
v 3.0439806 0.29980582 15.602934
v 3.0439782 0.2998047 -15.602934
v 5.9709826 1.1877024 15.602934
v 5.9709806 1.1877 -15.602934
v 8.668524 2.6295583 15.602934
v 8.668522 2.629564 -15.602934
v 11.032938 4.569993 15.602934
v 11.032938 4.5699887 -15.602934
v 12.973363 6.9344077 15.602934
v 12.973364 6.9344034 -15.602934
v 12.973364 6.9344034 -15.602934
v 12.973363 6.9344077 15.602934
v 14.415228 9.631949 15.602934
v 14.415231 9.631945 -15.602934
v -11.032938 4.5699973 -15.602934
v -0 15.602928 -15.602934
v -12.973362 6.9344115 -15.602933
v -8.668525 2.6295526 -15.602934
v -5.970985 1.1877048 -15.602933
v -3.043983 0.29980698 -15.602934
v -2.5575223E-06 0 -15.602933
v 3.0439782 0.2998047 -15.602934
v 5.9709806 1.1877 -15.602934
v 8.668522 2.629564 -15.602934
v 11.032938 4.5699887 -15.602934
v 12.973364 6.9344034 -15.602934
v 11.032938 4.569993 15.602934
v -1.9108085E-15 15.602928 15.602934
v 12.973363 6.9344077 15.602934
v 8.668524 2.6295583 15.602934
v 5.9709826 1.1877024 15.602934
v 3.0439806 0.29980582 15.602934
v -0 0 15.602934
v -3.0439806 0.29980585 15.602934
v -5.9709826 1.1877024 15.602934
v -8.668524 2.6295772 15.602934
v -11.032938 4.569993 15.602934
v -12.973363 6.9344077 15.602934
v -0 15.602928 -15.602934
v -1.9108085E-15 15.602928 15.602934
v -14.415228 9.631948 15.602934
v -14.415226 9.631952 -15.602934
v 14.415231 9.631945 -15.602934
v 14.415228 9.631949 15.602934
v -1.9108085E-15 15.602928 15.602934
v -0 15.602928 -15.602934
vt 0.3700829 0.24305776
vt 0.5 0.15
vt 0.43172818 0.2642721
vt 0.6229593 0.26427215
vt 0.5 0.15
vt 0.6299171 0.24305785
vt 0.3700829 0.24305776
vt 0.5 0.15
vt 0.47860318 0.45224202
vt 0.5760843 0.45224208
vt 0.5 0.15
vt 0.6299171 0.24305785
vt 0.43172818 0.2642721
vt 0.5760843 0.45224208
vt 0.515625 0.68843985
vt 0.515625 0.3125
vt 0.515625 0.3125
vt 0.515625 0.68843985
vt 0.5234375 0.68843985
vt 0.5234375 0.3125
vt 0.53125 0.68843985
vt 0.53125 0.3125
vt 0.5390625 0.68843985
vt 0.5390625 0.3125
vt 0.546875 0.68843985
vt 0.546875 0.3125
vt 0.5546875 0.68843985
vt 0.5546875 0.3125
vt 0.5625 0.68843985
vt 0.5625 0.3125
vt 0.5703125 0.68843985
vt 0.5703125 0.3125
vt 0.578125 0.68843985
vt 0.578125 0.3125
vt 0.5859375 0.68843985
vt 0.5859375 0.3125
vt 0.59375 0.68843985
vt 0.59375 0.3125
vt 0.59375 0.3125
vt 0.59375 0.68843985
vt 0.47860318 0.45224202
vt 0.6229593 0.26427215
vt 0.3895146 0.26673535
vt 0.5 0.15
vt 0.3700829 0.24305776
vt 0.41319215 0.28616706
vt 0.4402057 0.3006061
vt 0.4695171 0.30949765
vt 0.49999997 0.31249994
vt 0.5304828 0.30949765
vt 0.55979425 0.30060616
vt 0.58680785 0.28616711
vt 0.61048543 0.26673543
vt 0.6299171 0.24305785
vt 0.3895146 0.26673535
vt 0.5 0.15
vt 0.3700829 0.24305776
vt 0.41319215 0.28616706
vt 0.4402057 0.3006061
vt 0.4695171 0.30949765
vt 0.49999997 0.31249994
vt 0.5304828 0.30949765
vt 0.55979425 0.30060616
vt 0.58680785 0.28616711
vt 0.61048543 0.26673543
vt 0.6299171 0.24305785
vt 0.5 0.15
vt 0.5 0.15
vt 0.5760843 0.45224208
vt 0.43172818 0.2642721
vt 0.6229593 0.26427215
vt 0.47860318 0.45224202
vt 0.5 0.15
vt 0.5 0.15
vn -0 0 -1
vn -0 0 -1
vn -0 -3.7049614E-07 -1
vn -0 0 -1
vn -0 0 -1
vn -0 0 -1
vn -2.6318543E-07 0 1
vn -0 0 1
vn 5.263709E-07 0 1
vn -2.6318546E-07 0 1
vn -0 0 1
vn -1.3159273E-07 0 1
vn -0.8819214 -0.47139663 -1.0722149E-07
vn -0.8819213 -0.4713966 -1.0722146E-07
vn -0.8314697 -0.5555701 -1.0253894E-07
vn -0.8314697 -0.55557007 -1.0253894E-07
vn -0.8314697 -0.55557007 -1.0253894E-07
vn -0.8314697 -0.5555701 -1.0253894E-07
vn -0.70710725 -0.70710623 0
vn -0.70710725 -0.70710623 0
vn -0.5555705 -0.8314695 3.0886736E-07
vn -0.5555705 -0.8314695 3.0886744E-07
vn -0.38268307 -0.92387974 1.5758347E-07
vn -0.38268298 -0.92387974 1.5758349E-07
vn -0.19509052 -0.98078525 0
vn -0.19509053 -0.98078525 0
vn -1.8849269E-07 -1 0
vn -2.0420035E-07 -1 0
vn 0.19509014 -0.98078537 0
vn 0.19509019 -0.98078537 0
vn 0.38268262 -0.9238799 0
vn 0.38268256 -0.9238799 0
vn 0.55557007 -0.8314697 0
vn 0.55557007 -0.8314697 0
vn 0.70710707 -0.7071065 0
vn 0.70710707 -0.7071065 0
vn 0.8314696 -0.5555702 1.1582207E-07
vn 0.8314696 -0.5555702 1.1582207E-07
vn 0.8314696 -0.5555702 1.1582207E-07
vn 0.8314696 -0.5555702 1.1582207E-07
vn 0.8819214 -0.4713965 1.1593962E-07
vn 0.8819214 -0.4713965 1.1593962E-07
vn -2.6318548E-07 1.4178218E-07 -1
vn -0 0 -1
vn -0 0 -1
vn 2.6318563E-07 -1.1139791E-07 -1
vn -0 0 -1
vn -5.2637097E-07 0 -1
vn -0 0 -1
vn -0 0 -1
vn 2.6318557E-07 0 -1
vn -0 0 -1
vn -2.6318543E-07 0 -1
vn -0 0 -1
vn -0 0 1
vn -0 0 1
vn -2.6318543E-07 0 1
vn 5.263707E-07 0 1
vn -0 0 1
vn -0 0 1
vn -0 0 1
vn -0 0 1
vn -0 0 1
vn -0 0 1
vn -0 0 1
vn -1.3159273E-07 0 1
vn -0.3826832 0.9238796 0
vn -0.3826832 0.9238796 0
vn -0.38268316 0.9238796 0
vn -0.3826832 0.9238796 0
vn 0.38268328 0.9238796 0
vn 0.38268328 0.9238795 0
vn 0.3826833 0.9238796 0
vn 0.3826833 0.9238796 0
g Cylinder_Placement_12_0
f 3/3/3 2/2/2 1/1/1
f 6/6/6 5/5/5 4/4/4
f 9/9/9 8/8/8 7/7/7
f 12/12/12 11/11/11 10/10/10
f 15/15/15 14/14/14 13/13/13
f 16/16/16 15/15/15 13/13/13
f 19/19/19 18/18/18 17/17/17
f 20/20/20 19/19/19 17/17/17
f 21/21/21 19/19/19 20/20/20
f 22/22/22 21/21/21 20/20/20
f 23/23/23 21/21/21 22/22/22
f 24/24/24 23/23/23 22/22/22
f 25/25/25 23/23/23 24/24/24
f 26/26/26 25/25/25 24/24/24
f 27/27/27 25/25/25 26/26/26
f 28/28/28 27/27/27 26/26/26
f 29/29/29 27/27/27 28/28/28
f 30/30/30 29/29/29 28/28/28
f 31/31/31 29/29/29 30/30/30
f 32/32/32 31/31/31 30/30/30
f 33/33/33 31/31/31 32/32/32
f 34/34/34 33/33/33 32/32/32
f 35/35/35 33/33/33 34/34/34
f 36/36/36 35/35/35 34/34/34
f 37/37/37 35/35/35 36/36/36
f 38/38/38 37/37/37 36/36/36
f 41/41/41 40/40/40 39/39/39
f 42/42/42 41/41/41 39/39/39
f 45/45/45 44/44/44 43/43/43
f 43/43/43 44/44/44 46/46/46
f 46/46/46 44/44/44 47/47/47
f 47/47/47 44/44/44 48/48/48
f 48/48/48 44/44/44 49/49/49
f 49/49/49 44/44/44 50/50/50
f 50/50/50 44/44/44 51/51/51
f 51/51/51 44/44/44 52/52/52
f 52/52/52 44/44/44 53/53/53
f 53/53/53 44/44/44 54/54/54
f 57/57/57 56/56/56 55/55/55
f 55/55/55 56/56/56 58/58/58
f 58/58/58 56/56/56 59/59/59
f 59/59/59 56/56/56 60/60/60
f 60/60/60 56/56/56 61/61/61
f 61/61/61 56/56/56 62/62/62
f 62/62/62 56/56/56 63/63/63
f 63/63/63 56/56/56 64/64/64
f 64/64/64 56/56/56 65/65/65
f 65/65/65 56/56/56 66/66/66
f 69/69/69 68/68/68 67/67/67
f 70/70/70 69/69/69 67/67/67
f 73/73/73 72/72/72 71/71/71
f 74/74/74 73/73/73 71/71/71
