g Decoration_Flag_Solo_Vanilla_MEDIUM
v -0.08670532 -2.960205E-05 0.00427124
v -0.04953491 -2.960205E-05 -0.06865356
v -0.08670776 3.9415486 0.0042687985
v -0.04953491 3.9453146 -0.068656005
v 0.03220581 -2.960205E-05 -0.072923586
v -0.09444946 3.9707882 0.0042687985
v 0.03220581 3.9535947 -0.072923586
v 0.07677124 -2.960205E-05 -0.0042687985
v -0.06510376 3.993624 -0.068656005
v -0.10571411 3.9778695 0.0042687985
v 0.01920288 4.0171027 -0.072923586
v 0.07677124 3.9581087 -0.00427124
v 0.039598387 3.9543428 0.06865356
v 0.039598387 -2.960205E-05 0.06865356
v -0.04213989 3.946064 0.07292114
v -0.04213989 -2.960205E-05 0.072923586
v 0.026116943 4.0201874 0.06865356
v 0.06088745 4.0356894 -0.00427124
v -0.020357665 4.0705795 -0.072923586
v -0.096954346 4.0145698 -0.068656005
v -0.08670776 3.9415486 0.0042687985
v -0.08670532 -2.960205E-05 0.00427124
v -0.09444946 3.9707882 0.0042687985
v -0.059266355 3.9981673 0.07292114
v -0.10571411 3.9778695 0.0042687985
v -0.015599365 4.0765815 0.06865356
v -0.09521118 4.021871 0.07292114
v -0.39017698 4.0327716 -0.068656005
v -0.38919067 3.995466 0.0042687985
v -0.71775997 3.957513 0.0042687985
v -0.72609985 3.9939694 -0.068656005
v -1.1147131 3.8194637 0.0042687985
v -0.39234984 4.1148043 -0.072923586
v -1.1315979 3.8529477 -0.068656005
v -1.4003186 3.6243405 0.0042687985
v 0.008319092 4.1067524 -0.00427124
v -0.07768921 4.0952706 -0.072923586
v -0.39353636 4.1595297 -0.00427124
v -0.74443233 4.0741353 -0.072923586
v -0.06718384 4.139272 -0.00427124
v -0.07594604 4.102573 0.06865356
v -0.3925476 4.122226 0.06865356
v -0.39037475 4.0401926 0.07292114
v -0.38919067 3.995466 0.0042687985
v -0.71775997 3.957513 0.0042687985
v -0.7277576 4.0012226 0.07292114
v -1.1147131 3.8194637 0.0042687985
v -0.74609005 4.081389 0.06865356
v -1.1349548 3.859609 0.07292114
v -1.4003186 3.6243405 0.0042687985
v -0.75442994 4.1178436 -0.00427124
v -1.1720812 3.9332395 0.06865356
v -1.4325597 3.656291 0.07292114
v -1.1687219 3.9265792 -0.072923586
v -1.188966 3.9667256 -0.00427124
v -1.4272082 3.6509883 -0.068656005
v -1.5922936 3.4178782 0.07292114
v -1.5521935 3.3976595 0.0042687985
v -1.639635 3.1533358 0.0042687985
v -1.4916857 3.7148886 0.06865356
v -1.4863391 3.709587 -0.072923586
v -1.5856408 3.4145236 -0.068656005
v -1.5521935 3.3976595 0.0042687985
v -1.639635 3.1533358 0.0042687985
v -1.665841 3.4549594 0.06865356
v -1.6992859 3.471822 -0.00427124
v -1.5185778 3.7415364 -0.00427124
v -1.6591858 3.4516037 -0.072923586
v -1.6768079 3.1597872 -0.068656005
v -1.6842004 3.16107 0.07292114
v -1.7585461 3.173973 -0.072923586
v -1.6768079 0.5544772 -0.06865356
v -1.639635 0.5594223 0.00427124
v -1.6356798 0.54598176 0.00427124
v -1.7659411 3.1752572 0.06865356
v -1.6842004 0.5534933 0.072923586
v -1.639635 0.5594223 0.00427124
v -1.6356798 0.54598176 0.00427124
v -1.8031116 3.1817086 -0.00427124
v -1.8031116 0.5376724 -0.0042687985
v -1.7585461 0.543602 -0.072923586
v -1.7659411 0.5426181 0.06865356
v -1.7426013 0.4847348 -0.072923586
v -1.7492248 0.48089874 0.06865356
v -1.6671935 0.51446563 0.072923586
v -1.6281629 0.49745208 0.072923586
v -1.6222376 0.54201996 0.00427124
v -1.661964 0.5196945 -0.06865356
v -1.782511 0.46161652 -0.0042687985
v -1.7007482 0.43242645 0.06865356
v -1.6969128 0.43904877 -0.072923586
v -1.6271789 0.5048471 -0.06865356
v -1.6222376 0.54201996 0.00427124
v -1.7200255 0.39913422 -0.0042687985
v -1.6439757 0.3785397 -0.0042687985
v -1.0903919 0.49745208 0.072923586
v -1.0903919 0.5420193 0.00427124
v -1.6390319 0.41571197 0.06865356
v -1.638048 0.423107 -0.072923586
v -1.0903919 0.5048471 -0.06865356
v -1.0903919 0.5420193 0.00427124
v -0.54768187 0.5420193 0.00427124
v -1.0903919 0.41571257 0.06865356
v -1.0903919 0.3785397 -0.0042687985
v -1.0903919 0.4231076 -0.072923586
v -0.54768187 0.49745208 0.072923586
v -0.54768187 0.5420193 0.00427124
v -0.54768187 0.5048471 -0.06865356
v -0.54768187 0.41571257 0.06865356
v -0.004967041 0.49745208 0.06687134
v -0.004967041 0.5420193 0.00427124
v -0.004967041 0.41571257 0.06295532
v -0.54768187 0.3785397 -0.0042687985
v -0.004967041 0.3785397 -0.0042687985
v -0.004967041 0.4231076 -0.066868894
v -0.54768187 0.4231076 -0.072923586
v -0.004967041 0.5048471 -0.06295532
v -0.004967041 0.5420193 0.00427124
v -0.053640746 4.0506735 0.048270263
v -0.053640746 0.47458708 0.048270263
v -0.57738584 4.063779 0.048270263
v -1.1402862 3.9148777 0.048270263
v -1.5605109 3.5947945 0.048270263
v -1.7451348 3.1484883 0.048270263
v -1.7451348 0.4745865 0.048270263
v -0.053640746 4.0506735 -0.030950926
v -0.57738584 4.063779 -0.030950926
v -0.053640746 0.47458708 -0.030950926
v -1.1402862 3.9148777 -0.030950926
v -1.5605109 3.5947945 -0.030950926
v -1.7451348 3.1484883 -0.030950926
v -1.7451348 0.4745865 -0.030950926
v -0.053640746 0.47458708 0.048270263
v -0.053640746 0.47458708 -0.030950926
v -1.7451348 0.4745865 -0.030950926
v -1.7451348 0.4745865 0.048270263
v -1.7451348 0.4745865 0.048270263
v -1.7451348 0.4745865 -0.030950926
v -1.7451348 3.1484883 -0.030950926
v -1.7451348 3.1484883 0.048270263
v -1.7451348 3.1484883 0.048270263
v -1.7451348 3.1484883 -0.030950926
v -1.5605109 3.5947945 -0.030950926
v -1.5605109 3.5947945 0.048270263
v -1.5605109 3.5947945 0.048270263
v -1.5605109 3.5947945 -0.030950926
v -1.1402862 3.9148777 -0.030950926
v -1.1402862 3.9148777 0.048270263
v -1.1402862 3.9148777 0.048270263
v -1.1402862 3.9148777 -0.030950926
v -0.57738584 4.063779 -0.030950926
v -0.57738584 4.063779 0.048270263
v -0.57738584 4.063779 0.048270263
v -0.57738584 4.063779 -0.030950926
v -0.053640746 4.0506735 -0.030950926
v -0.053640746 4.0506735 0.048270263
v -0.053640746 4.0506735 0.048270263
v -0.053640746 4.0506735 -0.030950926
v -0.053640746 0.47458708 -0.030950926
v -0.053640746 0.47458708 0.048270263
vt 0.9941693 0.012067944
vt 0.9863073 0.011165053
vt 0.9939601 0.38275778
vt 0.98627037 0.38151348
vt 0.9783107 0.009370178
vt 0.99337775 0.38815236
vt 0.97856545 0.37937963
vt 0.97017837 0.008419037
vt 0.98557085 0.3874541
vt 0.9933317 0.39207995
vt 0.97772974 0.38407987
vt 0.97021234 0.37830347
vt 0.9618092 0.37917626
vt 0.962041 0.009177327
vt 0.9540451 0.38124198
vt 0.9540379 0.010895193
vt 0.9625892 0.38394392
vt 0.97015285 0.3832736
vt 0.9774464 0.38894033
vt 0.9855195 0.39255413
vt 0.9463641 0.3825584
vt 0.9461744 0.011797309
vt 0.94699013 0.3881216
vt 0.9547543 0.38739616
vt 0.94702065 0.3923039
vt 0.9628805 0.38896042
vt 0.9548364 0.39275607
vt 0.9864628 0.42136633
vt 0.9942523 0.4210666
vt 0.99430597 0.4540673
vt 0.9864461 0.4541143
vt 0.9947175 0.49545336
vt 0.97864455 0.42181972
vt 0.9868882 0.49545246
vt 0.99537754 0.53019136
vt 0.97014254 0.3888672
vt 0.9778461 0.39341596
vt 0.97065485 0.42207688
vt 0.9785175 0.4541214
vt 0.97019714 0.3938135
vt 0.9625374 0.39353603
vt 0.96260774 0.42193377
vt 0.95470905 0.42158696
vt 0.9468945 0.4214188
vt 0.94703317 0.45442948
vt 0.9548443 0.45433846
vt 0.94760484 0.49590763
vt 0.9626531 0.45421723
vt 0.9554403 0.49568868
vt 0.9484138 0.53062516
vt 0.97054946 0.45414245
vt 0.96328855 0.49538285
vt 0.9562795 0.5305176
vt 0.9790417 0.4952814
vt 0.97116274 0.49521315
vt 0.9875019 0.53027725
vt 0.95622236 0.55849767
vt 0.94838315 0.55858797
vt 0.94881594 0.58538616
vt 0.9641292 0.5303855
vt 0.979644 0.53027576
vt 0.9880097 0.5582882
vt 0.9958438 0.55827063
vt 0.9957418 0.5851759
vt 0.964125 0.5583773
vt 0.97212726 0.5582935
vt 0.9718885 0.53029704
vt 0.9801211 0.5582747
vt 0.9879137 0.585032
vt 0.95665866 0.5851759
vt 0.9800963 0.5847703
vt 0.9879405 0.83076495
vt 0.99571747 0.83123106
vt 0.9955863 0.83568007
vt 0.9645018 0.58483666
vt 0.9566539 0.83084005
vt 0.9489036 0.8314225
vt 0.9490888 0.8359326
vt 0.9723046 0.58466303
vt 0.9722958 0.8296839
vt 0.98022544 0.82998437
vt 0.96436095 0.8300088
vt 0.9797247 0.83417666
vt 0.9648972 0.83422375
vt 0.9568681 0.83619285
vt 0.95654184 0.84141403
vt 0.94880414 0.8403313
vt 0.98777026 0.83598036
vt 0.9722948 0.83405375
vt 0.96488094 0.83890676
vt 0.97980773 0.8387308
vt 0.98812217 0.84105974
vt 0.99585044 0.84002465
vt 0.97233975 0.8393192
vt 0.97242 0.8438315
vt 0.9565934 0.8926046
vt 0.9488036 0.89213514
vt 0.9642696 0.8431483
vt 0.9805009 0.8429206
vt 0.9881328 0.892355
vt 0.99591047 0.8918545
vt 0.9958362 0.94336736
vt 0.9644284 0.8935246
vt 0.9723806 0.8939118
vt 0.9803214 0.89336824
vt 0.95670784 0.943737
vt 0.9489267 0.9435739
vt 0.98804533 0.9435678
vt 0.96446425 0.9440559
vt 0.95647 0.9946658
vt 0.94893545 0.9945656
vt 0.96470094 0.9948497
vt 0.97236276 0.9441764
vt 0.9723156 0.9949011
vt 0.97998196 0.9947679
vt 0.98027027 0.9439595
vt 0.9883003 0.994521
vt 0.9958705 0.99438584
vt 0.9397266 0.9857882
vt 0.9397266 0.009266537
vt 0.8003853 0.9893669
vt 0.6506268 0.9487066
vt 0.53882617 0.86130124
vt 0.48970735 0.7394289
vt 0.48970735 0.009266499
vt 0.011469054 0.9857882
vt 0.15081035 0.9893669
vt 0.011469016 0.009266537
vt 0.30056885 0.9487066
vt 0.41236943 0.86130124
vt 0.46148828 0.7394289
vt 0.46148828 0.009266499
vt 0.011469016 0.009266537
vt 0.011469016 0.009266537
vt 0.46148828 0.009266499
vt 0.46148828 0.009266499
vt 0.46148828 0.009266499
vt 0.46148828 0.009266499
vt 0.46148828 0.7394289
vt 0.46148828 0.7394289
vt 0.46148828 0.7394289
vt 0.46148828 0.7394289
vt 0.41236943 0.86130124
vt 0.41236943 0.86130124
vt 0.41236943 0.86130124
vt 0.41236943 0.86130124
vt 0.30056885 0.9487066
vt 0.30056885 0.9487066
vt 0.30056885 0.9487066
vt 0.30056885 0.9487066
vt 0.15081035 0.9893669
vt 0.15081035 0.9893669
vt 0.15081035 0.9893669
vt 0.15081035 0.9893669
vt 0.011469054 0.9857882
vt 0.011469054 0.9857882
vt 0.011469054 0.9857882
vt 0.011469054 0.9857882
vt 0.011469016 0.009266537
vt 0.011469016 0.009266537
vn -0.9986387 0 0.05216156
vn -0.54449236 -3.619306E-07 -0.83876574
vn -0.98744035 -0.14838481 0.05425509
vn -0.5036482 -0.07257229 -0.8608552
vn 0.45414612 -3.7139282E-07 -0.8909272
vn -0.7996124 -0.5975219 0.05989628
vn 0.47599173 0.047607742 -0.87816024
vn 0.9986387 0 -0.052161537
vn -0.36255467 -0.27335426 -0.89097226
vn -0.32073274 -0.94544935 0.057062875
vn 0.457907 0.20401412 -0.86527413
vn 0.9936272 0.10067631 -0.05068781
vn 0.5619921 0.057610787 0.82513386
vn 0.5444927 2.9569492E-07 0.8387655
vn -0.41029403 -0.060906958 0.9099171
vn -0.45414582 3.2408173E-07 0.8909274
vn 0.5340261 0.23827767 0.81119657
vn 0.9122039 0.40674388 -0.049431495
vn 0.3159976 0.39909405 -0.86073774
vn -0.14637925 -0.4558118 -0.8779571
vn -0.98744035 -0.14838481 0.05425509
vn -0.9986387 0 0.05216156
vn -0.7996124 -0.5975219 0.05989628
vn -0.2886198 -0.21714617 0.9324945
vn -0.32073274 -0.94544935 0.057062875
vn 0.3675153 0.46318114 0.80647117
vn -0.11918367 -0.36412734 0.9236918
vn 0.013867641 -0.52314484 -0.85213095
vn 0.026461573 -0.998201 0.0538008
vn 0.22262703 -0.9733931 0.05425086
vn 0.115450814 -0.5047867 -0.855489
vn 0.44955462 -0.8915735 0.05474895
vn -0.0125934305 0.47504598 -0.8798709
vn 0.23044996 -0.4570374 -0.85907483
vn 0.70917803 -0.70278895 0.056162983
vn 0.620463 0.7827004 -0.049047824
vn 0.11376089 0.4798863 -0.8699239
vn -0.026464956 0.99835557 -0.050849877
vn -0.10699542 0.46781892 -0.877324
vn 0.23191099 0.9714579 -0.04986728
vn 0.13487975 0.5614889 0.81641746
vn -0.014918671 0.56276524 0.82648206
vn 0.011408815 -0.4303931 0.90256935
vn 0.026461573 -0.998201 0.0538008
vn 0.22262703 -0.9733931 0.05425086
vn 0.09464185 -0.41380417 0.9054331
vn 0.44955462 -0.8915735 0.05474895
vn -0.12641811 0.5527411 0.82370853
vn 0.18818007 -0.37320623 0.9084632
vn 0.70917803 -0.70278895 0.056162983
vn -0.22266868 0.9735814 -0.05057625
vn -0.25712937 0.50994986 0.8208749
vn 0.28439942 -0.2818379 0.9163429
vn -0.21820837 0.4327599 -0.87470216
vn -0.44965845 0.8917829 -0.05030606
vn 0.3520137 -0.34884304 -0.8685591
vn 0.37556496 -0.18935569 0.907246
vn 0.89159685 -0.44953293 0.0545447
vn 0.9837429 -0.17073034 0.055686284
vn -0.41261315 0.40889677 0.813974
vn -0.35242572 0.34925056 -0.8682282
vn 0.45920065 -0.23152438 -0.85763115
vn 0.89159685 -0.44953293 0.0545447
vn 0.9837429 -0.17073034 0.055686284
vn -0.5085093 0.25638527 0.82200056
vn -0.89179003 0.4496321 -0.05041288
vn -0.70942074 0.7030318 -0.04968379
vn -0.43107897 0.2173454 -0.8757464
vn 0.49356332 -0.08565936 -0.8654812
vn 0.40016797 -0.06944978 0.91380644
vn -0.48534423 0.08423229 -0.8702562
vn 0.48917082 0.08979948 -0.8675529
vn 0.9805864 0.18830718 0.054686252
vn 0.7058041 0.70562 0.06277742
vn -0.56937 0.09881585 0.8161209
vn 0.3948216 0.075102724 0.91568315
vn 0.9805864 0.18830718 0.054686252
vn 0.7058041 0.70562 0.06277742
vn -0.9840456 0.17078389 -0.049871884
vn -0.99001116 -0.1317084 -0.050306756
vn -0.48089734 -0.06331168 -0.87448806
vn -0.565588 -0.07597324 0.821181
vn -0.4401522 -0.2546627 -0.8610534
vn -0.5111995 -0.29633853 0.80675805
vn 0.24484493 0.24481025 0.93814653
vn 0.07513073 0.3947988 0.91569066
vn 0.18841535 0.9805654 0.05469049
vn 0.30948555 0.3094356 -0.89914864
vn -0.86429226 -0.5005906 -0.049070958
vn -0.2963138 -0.5112103 0.8067602
vn -0.2546421 -0.44016147 -0.8610547
vn 0.089838274 0.48914236 -0.86756486
vn 0.18841535 0.9805654 0.05469049
vn -0.50053596 -0.864324 -0.04907083
vn -0.13168353 -0.99001455 -0.0503064
vn 1.12643626E-07 0.45414636 0.89092714
vn 2.4814346E-07 0.9986387 0.0521611
vn -0.075960994 -0.5655835 0.8211853
vn -0.06329957 -0.48089403 -0.8744907
vn 1.3844529E-07 0.5444918 -0.8387661
vn 2.4814346E-07 0.9986387 0.0521611
vn 0.0016233622 0.9985789 0.053268064
vn 2.0043264E-07 -0.54449147 0.83876634
vn 3.898437E-07 -0.9986387 -0.052160915
vn 1.9230104E-07 -0.4541459 -0.8909273
vn 0.0040122387 0.44928825 0.89337784
vn 0.0016233622 0.9985789 0.053268064
vn 0.0038258852 0.539857 -0.84174806
vn 0.0038258391 -0.5398566 0.84174836
vn 0.007986565 0.44720048 0.8943981
vn 0.0032646842 0.9985146 0.054387093
vn 0.00761673 -0.5381919 0.8427879
vn 0.0016233313 -0.9985789 -0.053268146
vn 0.0032643848 -0.9985146 -0.054387245
vn 0.0079864785 -0.44720048 -0.8943981
vn 0.004012249 -0.44928768 -0.89337814
vn 0.0076169474 0.5381919 -0.8427879
vn 0.0032646842 0.9985146 0.054387093
vn -0 0 1
vn -0 0 1
vn -0 0 1
vn -0 0 1
vn -0 0 1
vn -0 0 1
vn -0 0 1
vn -0 0 -1
vn -0 0 -1
vn -0 0 -1
vn -0 0 -1
vn -0 0 -1
vn -0 0 -1
vn -0 0 -1
vn 3.6083577E-07 -1 0
vn 3.6083577E-07 -1 0
vn 3.6083577E-07 -1 0
vn 3.6083577E-07 -1 0
vn -1 0 0
vn -1 0 0
vn -1 0 0
vn -1 0 0
vn -0.9240566 0.38225564 0
vn -0.9240566 0.38225564 0
vn -0.9240566 0.38225564 0
vn -0.9240566 0.38225564 0
vn -0.6059377 0.7955121 0
vn -0.6059377 0.7955121 0
vn -0.6059377 0.7955121 0
vn -0.6059377 0.7955121 0
vn -0.25572938 0.9667485 0
vn -0.25572938 0.9667485 0
vn -0.25572938 0.9667485 0
vn -0.25572938 0.9667485 0
vn 0.025014777 0.9996871 0
vn 0.025014777 0.9996871 0
vn 0.025014777 0.9996871 0
vn 0.025014777 0.9996871 0
vn 1 0 0
vn 1 0 0
vn 1 0 0
vn 1 0 0
g Decoration_Flag_Solo_Vanilla_MEDIUM_0
f 3/3/3 2/2/2 1/1/1
f 3/3/3 4/4/4 2/2/2
f 4/4/4 5/5/5 2/2/2
f 6/6/6 4/4/4 3/3/3
f 4/4/4 7/7/7 5/5/5
f 7/7/7 8/8/8 5/5/5
f 6/6/6 9/9/9 4/4/4
f 10/10/10 9/9/9 6/6/6
f 11/11/11 7/7/7 4/4/4
f 11/11/11 4/4/4 9/9/9
f 7/7/7 12/12/12 8/8/8
f 11/11/11 12/12/12 7/7/7
f 13/13/13 8/8/8 12/12/12
f 13/13/13 14/14/14 8/8/8
f 15/15/15 14/14/14 13/13/13
f 15/15/15 16/16/16 14/14/14
f 17/17/17 13/13/13 12/12/12
f 17/17/17 15/15/15 13/13/13
f 11/11/11 18/18/18 12/12/12
f 17/17/17 12/12/12 18/18/18
f 19/19/19 11/11/11 9/9/9
f 19/19/19 18/18/18 11/11/11
f 10/10/10 20/20/20 9/9/9
f 20/20/20 19/19/19 9/9/9
f 21/21/21 16/16/16 15/15/15
f 21/21/21 22/22/22 16/16/16
f 23/23/23 21/21/21 15/15/15
f 23/23/23 15/15/15 24/24/24
f 17/17/17 24/24/24 15/15/15
f 25/25/25 23/23/23 24/24/24
f 26/26/26 17/17/17 18/18/18
f 26/26/26 24/24/24 17/17/17
f 25/25/25 24/24/24 27/27/27
f 27/27/27 24/24/24 26/26/26
f 28/28/28 20/20/20 10/10/10
f 28/28/28 10/10/10 29/29/29
f 30/30/30 28/28/28 29/29/29
f 30/30/30 31/31/31 28/28/28
f 32/32/32 31/31/31 30/30/30
f 33/33/33 20/20/20 28/28/28
f 31/31/31 33/33/33 28/28/28
f 32/32/32 34/34/34 31/31/31
f 35/35/35 34/34/34 32/32/32
f 26/26/26 18/18/18 36/36/36
f 19/19/19 36/36/36 18/18/18
f 20/20/20 37/37/37 19/19/19
f 33/33/33 37/37/37 20/20/20
f 38/38/38 37/37/37 33/33/33
f 31/31/31 39/39/39 33/33/33
f 34/34/34 39/39/39 31/31/31
f 39/39/39 38/38/38 33/33/33
f 40/40/40 36/36/36 19/19/19
f 40/40/40 19/19/19 37/37/37
f 40/40/40 26/26/26 36/36/36
f 38/38/38 40/40/40 37/37/37
f 40/40/40 41/41/41 26/26/26
f 38/38/38 41/41/41 40/40/40
f 27/27/27 26/26/26 41/41/41
f 42/42/42 27/27/27 41/41/41
f 38/38/38 42/42/42 41/41/41
f 42/42/42 43/43/43 27/27/27
f 43/43/43 25/25/25 27/27/27
f 43/43/43 44/44/44 25/25/25
f 45/45/45 44/44/44 43/43/43
f 45/45/45 43/43/43 46/46/46
f 46/46/46 43/43/43 42/42/42
f 47/47/47 45/45/45 46/46/46
f 48/48/48 42/42/42 38/38/38
f 46/46/46 42/42/42 48/48/48
f 47/47/47 46/46/46 49/49/49
f 49/49/49 46/46/46 48/48/48
f 50/50/50 47/47/47 49/49/49
f 48/48/48 38/38/38 51/51/51
f 39/39/39 51/51/51 38/38/38
f 49/49/49 48/48/48 52/52/52
f 52/52/52 48/48/48 51/51/51
f 50/50/50 49/49/49 53/53/53
f 53/53/53 49/49/49 52/52/52
f 54/54/54 51/51/51 39/39/39
f 34/34/34 54/54/54 39/39/39
f 52/52/52 51/51/51 55/55/55
f 54/54/54 55/55/55 51/51/51
f 56/56/56 54/54/54 34/34/34
f 35/35/35 56/56/56 34/34/34
f 57/57/57 50/50/50 53/53/53
f 57/57/57 58/58/58 50/50/50
f 59/59/59 58/58/58 57/57/57
f 53/53/53 52/52/52 60/60/60
f 60/60/60 52/52/52 55/55/55
f 61/61/61 55/55/55 54/54/54
f 56/56/56 61/61/61 54/54/54
f 62/62/62 56/56/56 35/35/35
f 62/62/62 35/35/35 63/63/63
f 64/64/64 62/62/62 63/63/63
f 65/65/65 57/57/57 53/53/53
f 65/65/65 53/53/53 60/60/60
f 66/66/66 65/65/65 60/60/60
f 60/60/60 55/55/55 67/67/67
f 61/61/61 67/67/67 55/55/55
f 66/66/66 60/60/60 67/67/67
f 66/66/66 67/67/67 61/61/61
f 68/68/68 61/61/61 56/56/56
f 68/68/68 56/56/56 62/62/62
f 66/66/66 61/61/61 68/68/68
f 64/64/64 69/69/69 62/62/62
f 69/69/69 68/68/68 62/62/62
f 70/70/70 57/57/57 65/65/65
f 59/59/59 57/57/57 70/70/70
f 71/71/71 66/66/66 68/68/68
f 69/69/69 71/71/71 68/68/68
f 72/72/72 69/69/69 64/64/64
f 72/72/72 64/64/64 73/73/73
f 74/74/74 72/72/72 73/73/73
f 75/75/75 65/65/65 66/66/66
f 70/70/70 65/65/65 75/75/75
f 76/76/76 59/59/59 70/70/70
f 76/76/76 77/77/77 59/59/59
f 78/78/78 77/77/77 76/76/76
f 71/71/71 79/79/79 66/66/66
f 75/75/75 66/66/66 79/79/79
f 80/80/80 79/79/79 71/71/71
f 80/80/80 75/75/75 79/79/79
f 81/81/81 71/71/71 69/69/69
f 81/81/81 69/69/69 72/72/72
f 80/80/80 71/71/71 81/81/81
f 82/82/82 70/70/70 75/75/75
f 82/82/82 76/76/76 70/70/70
f 80/80/80 82/82/82 75/75/75
f 83/83/83 81/81/81 72/72/72
f 83/83/83 80/80/80 81/81/81
f 84/84/84 76/76/76 82/82/82
f 84/84/84 82/82/82 80/80/80
f 78/78/78 76/76/76 85/85/85
f 84/84/84 85/85/85 76/76/76
f 86/86/86 78/78/78 85/85/85
f 86/86/86 87/87/87 78/78/78
f 83/83/83 72/72/72 88/88/88
f 74/74/74 88/88/88 72/72/72
f 83/83/83 89/89/89 80/80/80
f 84/84/84 80/80/80 89/89/89
f 90/90/90 85/85/85 84/84/84
f 86/86/86 85/85/85 90/90/90
f 91/91/91 83/83/83 88/88/88
f 91/91/91 89/89/89 83/83/83
f 92/92/92 88/88/88 74/74/74
f 92/92/92 91/91/91 88/88/88
f 92/92/92 74/74/74 93/93/93
f 94/94/94 84/84/84 89/89/89
f 94/94/94 90/90/90 84/84/84
f 91/91/91 94/94/94 89/89/89
f 95/95/95 90/90/90 94/94/94
f 95/95/95 94/94/94 91/91/91
f 96/96/96 87/87/87 86/86/86
f 96/96/96 97/97/97 87/87/87
f 86/86/86 90/90/90 98/98/98
f 95/95/95 98/98/98 90/90/90
f 95/95/95 91/91/91 99/99/99
f 92/92/92 99/99/99 91/91/91
f 100/100/100 92/92/92 93/93/93
f 100/100/100 93/93/93 101/101/101
f 102/102/102 100/100/100 101/101/101
f 103/103/103 86/86/86 98/98/98
f 103/103/103 96/96/96 86/86/86
f 104/104/104 98/98/98 95/95/95
f 104/104/104 95/95/95 99/99/99
f 104/104/104 103/103/103 98/98/98
f 105/105/105 99/99/99 92/92/92
f 105/105/105 92/92/92 100/100/100
f 104/104/104 99/99/99 105/105/105
f 106/106/106 97/97/97 96/96/96
f 106/106/106 107/107/107 97/97/97
f 102/102/102 108/108/108 100/100/100
f 108/108/108 105/105/105 100/100/100
f 109/109/109 96/96/96 103/103/103
f 109/109/109 106/106/106 96/96/96
f 110/110/110 107/107/107 106/106/106
f 110/110/110 111/111/111 107/107/107
f 112/112/112 110/110/110 106/106/106
f 112/112/112 106/106/106 109/109/109
f 113/113/113 109/109/109 103/103/103
f 112/112/112 109/109/109 113/113/113
f 113/113/113 103/103/103 104/104/104
f 112/112/112 113/113/113 114/114/114
f 115/115/115 114/114/114 113/113/113
f 116/116/116 104/104/104 105/105/105
f 116/116/116 113/113/113 104/104/104
f 115/115/115 113/113/113 116/116/116
f 108/108/108 116/116/116 105/105/105
f 117/117/117 115/115/115 116/116/116
f 117/117/117 116/116/116 108/108/108
f 117/117/117 108/108/108 102/102/102
f 117/117/117 102/102/102 118/118/118
f 121/121/121 120/120/120 119/119/119
f 121/121/121 122/122/122 120/120/120
f 122/122/122 123/123/123 120/120/120
f 124/124/124 120/120/120 123/123/123
f 124/124/124 125/125/125 120/120/120
f 128/128/128 127/127/127 126/126/126
f 129/129/129 127/127/127 128/128/128
f 130/130/130 129/129/129 128/128/128
f 128/128/128 131/131/131 130/130/130
f 132/132/132 131/131/131 128/128/128
f 135/135/135 134/134/134 133/133/133
f 136/136/136 135/135/135 133/133/133
f 139/139/139 138/138/138 137/137/137
f 140/140/140 139/139/139 137/137/137
f 143/143/143 142/142/142 141/141/141
f 144/144/144 143/143/143 141/141/141
f 147/147/147 146/146/146 145/145/145
f 148/148/148 147/147/147 145/145/145
f 151/151/151 150/150/150 149/149/149
f 152/152/152 151/151/151 149/149/149
f 155/155/155 154/154/154 153/153/153
f 156/156/156 155/155/155 153/153/153
f 159/159/159 158/158/158 157/157/157
f 160/160/160 159/159/159 157/157/157
