g ENV_S06_InflatedWall_C
v 2.0865166 1.6898954 0.10911703
v 1.9884577 1.7069747 -1.3828278E-05
v 2.0710862 1.6941359 -1.3828278E-05
v 1.9809192 1.6973162 0.08196688
v 1.9832162 1.6492584 0.16106176
v 2.1144323 1.6602716 0.21441984
v 1.9750888 1.5673954 0.2211926
v 2.1159048 1.6364195 0.23332477
v 2.1099565 1.6081502 0.24528027
v 2.1054215 1.547018 0.27343178
v 1.9745587 1.3643284 0.24775386
v 2.0927594 1.4553199 0.28138256
v 2.0965285 1.375695 0.2841506
v 2.0978243 1.2722769 0.26530433
v 1.466891 1.7080348 0.07955217
v 1.4625916 1.7368929 -1.3828278E-05
v 1.469718 1.6437223 0.1608262
v 1.3828278E-05 1.7022042 0.09939957
v 1.3828278E-05 1.7368929 -1.3828278E-05
v 1.3828278E-05 1.6398354 0.17713976
v 1.3828278E-05 1.5401275 0.22932005
v 1.4700124 1.5442502 0.21589208
v 1.3828278E-05 1.3696289 0.25817823
v 1.4668322 1.3838224 0.24816608
v 1.3828278E-05 1.1254537 0.1535821
v 1.4656541 1.1362314 0.162534
v 1.9862198 1.1165018 0.16229844
v 2.1086607 1.1739235 0.23020339
v 2.1227365 1.1144993 0.20906043
v 2.1199684 0.57349753 0.2086482
v 1.9951128 0.56996393 0.16235733
v 2.1019468 0.6417558 0.21736455
v 2.0903447 0.7299793 0.26330185
v 1.9853363 0.8351643 0.2284956
v 2.0865166 0.843174 0.27508068
v 2.0915813 0.9116678 0.27696538
v 1.4751362 0.5809183 0.1649487
v 2.101829 1.0252159 0.25505686
v 1.4560544 0.8622556 0.24103999
v 1.3828278E-05 0.6017668 0.16630316
v 1.3828278E-05 0.8437629 0.25994492
v 1.9862198 1.1165018 0.16229844
v 2.1227365 1.1144993 0.20906043
v 1.4656541 1.1362314 0.162534
v 1.3828278E-05 1.1254537 0.1535821
v 2.1011224 0.5145445 0.2133596
v 1.9951128 0.56996393 0.16235733
v 2.1199684 0.57349753 0.2086482
v 1.9696116 0.2809701 0.2812059
v 2.0891669 0.43109155 0.26165295
v 2.0880477 0.28656507 0.31224298
v 2.1031835 0.17884779 0.29098225
v 1.4649475 0.28703618 0.281677
v 1.4751362 0.5809183 0.1649487
v 1.9808604 0.030611038 0.2032299
v 2.105657 0.051930666 0.22678757
v 2.104126 0.020775795 0.21553874
v 1.3828278E-05 0.28738976 0.30181885
v 1.3828278E-05 0.6017668 0.16630316
v 1.3828278E-05 0.07448721 0.23356032
v 1.4690112 0.05057621 0.2141254
v 1.3828278E-05 0.0021061897 0.14969516
v 1.4677155 0.0017528534 0.14303994
v 1.3828278E-05 -0.014207363 0.0710125
v 1.460766 -0.009201288 0.08620715
v 1.9891645 0.002989769 0.1372683
v 2.105127 0.012707233 0.17213368
v 1.983275 -0.009201288 0.08797407
v 2.1065996 0.0042853355 0.13008332
v 2.1065996 -0.009201288 0.082143545
v 2.0865166 1.6898954 -0.10914469
v 2.0710862 1.6941359 -1.3828278E-05
v 1.9884577 1.7069747 -1.3828278E-05
v 1.9809192 1.6973162 -0.081935644
v 1.4625916 1.7368929 -1.3828278E-05
v 1.9832162 1.6492584 -0.16103053
v 2.1144323 1.6602716 -0.21438861
v 1.9750888 1.5673954 -0.22116148
v 2.1159048 1.6364195 -0.23335254
v 2.1099565 1.6081502 -0.24524915
v 2.1054215 1.547018 -0.27345955
v 2.0927594 1.4553199 -0.28135133
v 1.9745587 1.3643284 -0.24772274
v 2.0965285 1.375695 -0.28411937
v 2.0978243 1.2722769 -0.2652732
v 2.1086607 1.1739235 -0.23023117
v 1.466891 1.7080348 -0.07952094
v 1.3828278E-05 1.7368929 -1.3828278E-05
v 1.3828278E-05 1.7022042 -0.099368334
v 1.469718 1.6437223 -0.16079497
v 1.3828278E-05 1.6398354 -0.17716753
v 1.4700124 1.5442502 -0.21586096
v 1.3828278E-05 1.5401275 -0.22928894
v 1.4668322 1.3838224 -0.24819386
v 1.3828278E-05 1.3696289 -0.258147
v 1.9862198 1.1165018 -0.16226733
v 2.1227365 1.1144993 -0.2090882
v 1.4656541 1.1362314 -0.16256177
v 1.3828278E-05 1.1254537 -0.15355098
v 2.1199684 0.57349753 -0.20861709
v 2.1019468 0.6417558 -0.21733332
v 1.9951128 0.56996393 -0.16232622
v 1.9853363 0.8351643 -0.22846437
v 2.0903447 0.7299793 -0.26332974
v 2.0865166 0.843174 -0.27510858
v 2.0915813 0.9116678 -0.27699316
v 1.4560544 0.8622556 -0.24100888
v 1.4751362 0.5809183 -0.16491759
v 1.9862198 1.1165018 -0.16226733
v 2.101829 1.0252159 -0.25502563
v 2.1227365 1.1144993 -0.2090882
v 1.4656541 1.1362314 -0.16256177
v 1.3828278E-05 1.1254537 -0.15355098
v 1.3828278E-05 0.8437629 -0.2599728
v 1.3828278E-05 0.6017668 -0.16627216
v 2.1011224 0.5145445 -0.21338749
v 2.1199684 0.57349753 -0.20861709
v 1.9951128 0.56996393 -0.16232622
v 2.0891669 0.43109155 -0.26162183
v 1.9696116 0.2809701 -0.28123355
v 2.0880477 0.28656507 -0.31221187
v 1.4751362 0.5809183 -0.16491759
v 2.1031835 0.17884779 -0.29095113
v 1.4649475 0.28703618 -0.28164577
v 1.3828278E-05 0.6017668 -0.16627216
v 1.3828278E-05 0.28738976 -0.3018465
v 1.9808604 0.030611038 -0.20319879
v 2.105657 0.051930666 -0.22675645
v 2.104126 0.020775795 -0.21556652
v 1.9891645 0.002989769 -0.1372962
v 2.105127 0.012707233 -0.17210269
v 2.1065996 0.0042853355 -0.1301111
v 2.1065996 -0.009201288 -0.0821712
v 1.983275 -0.009201288 -0.08800173
v 1.4690112 0.05057621 -0.21415305
v 1.3828278E-05 0.07448721 -0.23352933
v 1.4677155 0.0017528534 -0.14300895
v 1.460766 -0.009201288 -0.08617616
v 1.3828278E-05 0.0021061897 -0.14972281
v 1.3828278E-05 -0.014207363 -0.07104015
vt 0.4868459 0.96771526
vt 0.5160799 0.99933565
vt 0.4868459 0.99933565
vt 0.5160799 0.9748745
vt 0.5160799 0.9510101
vt 0.4868459 0.94385076
vt 0.5160799 0.92475915
vt 0.4868459 0.9366914
vt 0.4868459 0.92953205
vt 0.4868459 0.9140202
vt 0.5160799 0.88060987
vt 0.4868459 0.89313865
vt 0.4868459 0.88120645
vt 0.4868459 0.85018265
vt 0.6407718 0.9748745
vt 0.6407718 0.99933565
vt 0.6407718 0.9510101
vt 0.9909831 0.9748745
vt 0.9909831 0.99933565
vt 0.9909831 0.9510101
vt 0.9909831 0.92475915
vt 0.6407718 0.92475915
vt 0.9909831 0.88060987
vt 0.6407718 0.88060987
vt 0.9909831 0.81677234
vt 0.6407718 0.81677234
vt 0.5160799 0.81677234
vt 0.4868459 0.8251249
vt 0.4868459 0.81617576
vt 0.4868459 0.6861144
vt 0.5160799 0.6855177
vt 0.4868459 0.70102966
vt 0.4868459 0.7248941
vt 0.5160799 0.748162
vt 0.4868459 0.748162
vt 0.4868459 0.75651455
vt 0.6407718 0.6855177
vt 0.4868459 0.7845553
vt 0.6407718 0.748162
vt 0.9909831 0.6855177
vt 0.9909831 0.748162
vt 0.5160799 0.81677234
vt 0.4868459 0.81617576
vt 0.6407718 0.81677234
vt 0.9909831 0.81677234
vt 0.4868459 0.6688126
vt 0.5160799 0.6855177
vt 0.4868459 0.6861144
vt 0.5160799 0.6043785
vt 0.4868459 0.6455447
vt 0.4868459 0.61094123
vt 0.4868459 0.58648014
vt 0.6407718 0.6043785
vt 0.6407718 0.6855177
vt 0.5160799 0.55128
vt 0.4868459 0.5542631
vt 0.4868459 0.54710376
vt 0.9909831 0.6043785
vt 0.9909831 0.6855177
vt 0.9909831 0.55128
vt 0.6407718 0.55128
vt 0.9909831 0.5250291
vt 0.6407718 0.5250291
vt 0.9909831 0.50653416
vt 0.6407718 0.50653416
vt 0.5160799 0.5250291
vt 0.4868459 0.5369613
vt 0.5160799 0.50653416
vt 0.4868459 0.5274156
vt 0.4868459 0.50653416
vt 0.4868459 0.9748745
vt 0.4868459 0.99933565
vt 0.5160799 0.99933565
vt 0.5160799 0.9748745
vt 0.6407718 0.99933565
vt 0.5160799 0.9510101
vt 0.4868459 0.9510101
vt 0.5160799 0.92475915
vt 0.4868459 0.94385076
vt 0.4868459 0.93728805
vt 0.4868459 0.92177606
vt 0.4868459 0.900298
vt 0.5160799 0.88060987
vt 0.4868459 0.88120645
vt 0.4868459 0.857342
vt 0.4868459 0.8322843
vt 0.6407718 0.9748745
vt 0.9909831 0.99933565
vt 0.9909831 0.9748745
vt 0.6407718 0.9510101
vt 0.9909831 0.9510101
vt 0.6407718 0.92475915
vt 0.9909831 0.92475915
vt 0.6407718 0.88060987
vt 0.9909831 0.88060987
vt 0.5160799 0.81677234
vt 0.4868459 0.81617576
vt 0.6407718 0.81677234
vt 0.9909831 0.81677234
vt 0.4868459 0.6861144
vt 0.4868459 0.69685334
vt 0.5160799 0.6855177
vt 0.5160799 0.748162
vt 0.4868459 0.72071785
vt 0.4868459 0.748162
vt 0.4868459 0.7636739
vt 0.6407718 0.748162
vt 0.6407718 0.6855177
vt 0.5160799 0.81677234
vt 0.4868459 0.79171467
vt 0.4868459 0.81617576
vt 0.6407718 0.81677234
vt 0.9909831 0.81677234
vt 0.9909831 0.748162
vt 0.9909831 0.6855177
vt 0.4868459 0.6646363
vt 0.4868459 0.6861144
vt 0.5160799 0.6855177
vt 0.4868459 0.64136845
vt 0.5160799 0.6043785
vt 0.4868459 0.606765
vt 0.6407718 0.6855177
vt 0.4868459 0.5823039
vt 0.6407718 0.6043785
vt 0.9909831 0.6855177
vt 0.9909831 0.6043785
vt 0.5160799 0.55128
vt 0.4868459 0.5500868
vt 0.4868459 0.54292744
vt 0.5160799 0.5250291
vt 0.4868459 0.53278506
vt 0.4868459 0.52323925
vt 0.4868459 0.50653416
vt 0.5160799 0.50653416
vt 0.6407718 0.55128
vt 0.9909831 0.55128
vt 0.6407718 0.5250291
vt 0.6407718 0.50653416
vt 0.9909831 0.5250291
vt 0.9909831 0.50653416
vn -0.09075183 0.95336884 0.28784025
vn 0.041325476 0.9991458 -0
vn 0.15015924 0.9844542 -0.09111582
vn 0.018046677 0.9145122 0.40415555
vn -0.036352575 0.6969152 0.71623164
vn -0.29280633 0.77462846 0.560549
vn -0.059666574 0.30834895 0.94940025
vn -0.32389158 0.5259461 0.7864318
vn -0.28503495 0.41714746 0.86298496
vn -0.34720558 0.17623645 0.92108035
vn -0.0518952 -0.14238787 0.9884496
vn -0.34720558 0.114065826 0.9308261
vn -0.2772637 -0.087988615 0.9567564
vn -0.3394342 -0.31335706 0.88690007
vn 0.010275364 0.88342696 0.46845624
vn 0.0102748545 0.99994725 -0
vn 0.0025040507 0.64251596 0.76626825
vn 0.0025040507 0.86788434 0.49676
vn 0.0025040507 0.99999684 -0.00024414062
vn 0.010275364 0.6347446 0.7726537
vn 0.010275364 0.30057758 0.95370203
vn 0.0025040507 0.30057758 0.95375407
vn 0.0025040507 -0.15793055 0.9874471
vn 0.0025040507 -0.14238787 0.9898078
vn 0.0025040507 -0.359985 0.9329547
vn 0.0025040507 -0.35221362 0.9359163
vn -0.0518952 -0.32889968 0.9429379
vn -0.34720558 -0.336671 0.8752719
vn -0.30834895 -0.38329893 0.8706336
vn -0.33166295 -0.20455849 0.9209536
vn -0.036352575 -0.25895774 0.96520436
vn -0.40160483 -0.29004306 0.8686706
vn -0.4093762 -0.28227174 0.8676023
vn -0.036352575 -0.010275364 0.99928623
vn -0.41714746 -0.064674616 0.90653473
vn -0.51040334 0.19177908 0.8382775
vn 0.0025040507 -0.29004306 0.9570103
vn -0.4948607 0.23840708 0.8356285
vn 0.0025040507 0.013038635 0.99991184
vn 0.0025040507 -0.30558568 0.9521613
vn 0.0025040507 0.013038635 0.99991184
vn -0.028581202 0.2539497 0.966795
vn -0.2772637 0.48708946 0.8281719
vn 0.0025040507 0.30057758 0.95375407
vn 0.0025040507 0.3161202 0.9487158
vn -0.30057758 0.39383346 0.8686474
vn -0.020809948 0.37829083 0.9254529
vn -0.34720558 0.1840077 0.91955936
vn -0.020809948 0.08298057 0.9963339
vn -0.29280633 0.4093762 0.8641039
vn -0.2539497 0.09075183 0.9629505
vn -0.2539497 -0.31335706 0.9150502
vn 0.010275364 0.10629445 0.9942816
vn 0.010275364 0.37829083 0.9256298
vn -0.020809948 -0.47655487 0.87889844
vn -0.0985232 -0.43769825 0.8937077
vn -0.08298057 -0.7951791 0.6006699
vn 0.010275364 0.10629445 0.9942816
vn 0.010275364 0.3860622 0.92241555
vn 0.010275364 -0.45324087 0.8913289
vn 0.0025040507 -0.45324087 0.89138454
vn 0.0025040507 -0.88843507 0.4589955
vn 0.0025040507 -0.8962064 0.4436303
vn 0.0025040507 -0.98169094 0.19046427
vn 0.0025040507 -0.98169094 0.19046427
vn -0.0052672625 -0.935063 0.3544425
vn 0.02581799 -0.98169094 0.18872291
vn 0.0025040507 -0.97391963 0.22687942
vn 0.018046677 -0.97391963 0.22617438
vn 0.018046677 -0.9661483 0.25735524
vn -0.09075183 0.95336884 -0.28784025
vn 0.15015924 0.9844542 -0.09111582
vn 0.041325476 0.9991458 -0
vn 0.018046677 0.9145122 -0.40415555
vn 0.0102748545 0.99994725 -0
vn -0.036352575 0.6969152 -0.71623164
vn -0.29280633 0.77462846 -0.560549
vn -0.059666574 0.30834895 -0.94940025
vn -0.32389158 0.5259461 -0.7864318
vn -0.28503495 0.41714746 -0.86298496
vn -0.34720558 0.17623645 -0.92108035
vn -0.34720558 0.114065826 -0.9308261
vn -0.0518952 -0.14238787 -0.9884496
vn -0.2772637 -0.087988615 -0.9567564
vn -0.3394342 -0.31335706 -0.88690007
vn -0.34720558 -0.336671 -0.8752719
vn 0.010275364 0.88342696 -0.46845624
vn 0.0025040507 0.99999684 -0.00024414062
vn 0.0025040507 0.86788434 -0.49676
vn 0.0025040507 0.64251596 -0.76626825
vn 0.010275364 0.6347446 -0.7726537
vn 0.0025040507 0.30057758 -0.95375407
vn 0.010275364 0.30057758 -0.95370203
vn 0.0025040507 -0.14238787 -0.9898078
vn 0.0025040507 -0.15793055 -0.9874471
vn -0.0518952 -0.32889968 -0.9429379
vn -0.30834895 -0.38329893 -0.8706336
vn 0.0025040507 -0.35221362 -0.9359163
vn 0.0025040507 -0.359985 -0.9329547
vn -0.33166295 -0.20455849 -0.9209536
vn -0.40160483 -0.29004306 -0.8686706
vn -0.036352575 -0.25895774 -0.96520436
vn -0.036352575 -0.010275364 -0.99928623
vn -0.4093762 -0.28227174 -0.8676023
vn -0.41714746 -0.064674616 -0.90653473
vn -0.51040334 0.19177908 -0.8382775
vn 0.0025040507 0.013038635 -0.99991184
vn 0.0025040507 -0.29004306 -0.9570103
vn -0.028581202 0.2539497 -0.966795
vn -0.4948607 0.23840708 -0.8356285
vn -0.2772637 0.48708946 -0.8281719
vn 0.0025040507 0.30057758 -0.95375407
vn 0.0025040507 0.3161202 -0.9487158
vn 0.0025040507 0.013038635 -0.99991184
vn 0.0025040507 -0.30558568 -0.9521613
vn -0.30057758 0.39383346 -0.8686474
vn -0.34720558 0.1840077 -0.91955936
vn -0.020809948 0.37829083 -0.9254529
vn -0.29280633 0.4093762 -0.8641039
vn -0.020809948 0.08298057 -0.9963339
vn -0.2539497 0.09075183 -0.9629505
vn 0.010275364 0.37829083 -0.9256298
vn -0.2539497 -0.31335706 -0.9150502
vn 0.010275364 0.10629445 -0.9942816
vn 0.010275364 0.3860622 -0.92241555
vn 0.010275364 0.10629445 -0.9942816
vn -0.020809948 -0.47655487 -0.87889844
vn -0.0985232 -0.43769825 -0.8937077
vn -0.08298057 -0.7951791 -0.6006699
vn -0.0052672625 -0.935063 -0.3544425
vn 0.02581799 -0.98169094 -0.18872291
vn 0.018046677 -0.97391963 -0.22617438
vn 0.018046677 -0.9661483 -0.25735524
vn 0.0025040507 -0.97391963 -0.22687942
vn 0.0025040507 -0.45324087 -0.89138454
vn 0.010275364 -0.45324087 -0.8913289
vn 0.0025040507 -0.8962064 -0.4436303
vn 0.0025040507 -0.98169094 -0.19046427
vn 0.0025040507 -0.88843507 -0.4589955
vn 0.0025040507 -0.98169094 -0.19046427
g ENV_S06_InflatedWall_C_0
f 3/3/3 2/2/2 1/1/1
f 2/2/2 4/4/4 1/1/1
f 1/1/1 4/4/4 5/5/5
f 6/6/6 1/1/1 5/5/5
f 5/5/5 7/7/7 6/6/6
f 7/7/7 8/8/8 6/6/6
f 9/9/9 8/8/8 7/7/7
f 9/9/9 7/7/7 10/10/10
f 10/10/10 7/7/7 11/11/11
f 12/12/12 10/10/10 11/11/11
f 12/12/12 11/11/11 13/13/13
f 13/13/13 11/11/11 14/14/14
f 4/4/4 2/2/2 15/15/15
f 2/2/2 16/16/16 15/15/15
f 5/5/5 4/4/4 17/17/17
f 4/4/4 15/15/15 17/17/17
f 15/15/15 16/16/16 18/18/18
f 16/16/16 19/19/19 18/18/18
f 15/15/15 18/18/18 20/20/20
f 17/17/17 15/15/15 20/20/20
f 17/17/17 20/20/20 21/21/21
f 5/5/5 17/17/17 22/22/22
f 22/22/22 17/17/17 21/21/21
f 7/7/7 5/5/5 22/22/22
f 22/22/22 21/21/21 23/23/23
f 7/7/7 22/22/22 24/24/24
f 24/24/24 22/22/22 23/23/23
f 11/11/11 7/7/7 24/24/24
f 24/24/24 23/23/23 25/25/25
f 26/26/26 24/24/24 25/25/25
f 11/11/11 24/24/24 26/26/26
f 27/27/27 11/11/11 26/26/26
f 14/14/14 11/11/11 27/27/27
f 28/28/28 14/14/14 27/27/27
f 28/28/28 27/27/27 29/29/29
f 32/32/32 31/31/31 30/30/30
f 32/32/32 33/33/33 31/31/31
f 33/33/33 34/34/34 31/31/31
f 35/35/35 34/34/34 33/33/33
f 36/36/36 34/34/34 35/35/35
f 31/31/31 34/34/34 37/37/37
f 36/36/36 38/38/38 34/34/34
f 34/34/34 39/39/39 37/37/37
f 37/37/37 39/39/39 40/40/40
f 39/39/39 41/41/41 40/40/40
f 38/38/38 42/42/42 34/34/34
f 34/34/34 42/42/42 39/39/39
f 43/43/43 42/42/42 38/38/38
f 42/42/42 44/44/44 39/39/39
f 39/39/39 44/44/44 41/41/41
f 44/44/44 45/45/45 41/41/41
f 48/48/48 47/47/47 46/46/46
f 46/46/46 47/47/47 49/49/49
f 50/50/50 46/46/46 49/49/49
f 50/50/50 49/49/49 51/51/51
f 51/51/51 49/49/49 52/52/52
f 49/49/49 47/47/47 53/53/53
f 47/47/47 54/54/54 53/53/53
f 49/49/49 55/55/55 52/52/52
f 52/52/52 55/55/55 56/56/56
f 56/56/56 55/55/55 57/57/57
f 53/53/53 54/54/54 58/58/58
f 54/54/54 59/59/59 58/58/58
f 53/53/53 58/58/58 60/60/60
f 49/49/49 53/53/53 61/61/61
f 61/61/61 53/53/53 60/60/60
f 55/55/55 49/49/49 61/61/61
f 61/61/61 60/60/60 62/62/62
f 63/63/63 61/61/61 62/62/62
f 55/55/55 61/61/61 63/63/63
f 63/63/63 62/62/62 64/64/64
f 65/65/65 63/63/63 64/64/64
f 57/57/57 55/55/55 66/66/66
f 66/66/66 55/55/55 63/63/63
f 66/66/66 63/63/63 65/65/65
f 67/67/67 57/57/57 66/66/66
f 68/68/68 66/66/66 65/65/65
f 67/67/67 66/66/66 69/69/69
f 69/69/69 66/66/66 68/68/68
f 70/70/70 69/69/69 68/68/68
f 73/73/73 72/72/72 71/71/71
f 74/74/74 73/73/73 71/71/71
f 73/73/73 74/74/74 75/75/75
f 74/74/74 71/71/71 76/76/76
f 71/71/71 77/77/77 76/76/76
f 78/78/78 76/76/76 77/77/77
f 79/79/79 78/78/78 77/77/77
f 79/79/79 80/80/80 78/78/78
f 78/78/78 80/80/80 81/81/81
f 81/81/81 82/82/82 78/78/78
f 82/82/82 83/83/83 78/78/78
f 83/83/83 82/82/82 84/84/84
f 83/83/83 84/84/84 85/85/85
f 85/85/85 86/86/86 83/83/83
f 74/74/74 87/87/87 75/75/75
f 74/74/74 76/76/76 87/87/87
f 75/75/75 87/87/87 88/88/88
f 87/87/87 89/89/89 88/88/88
f 76/76/76 90/90/90 87/87/87
f 87/87/87 90/90/90 89/89/89
f 76/76/76 78/78/78 90/90/90
f 90/90/90 91/91/91 89/89/89
f 78/78/78 92/92/92 90/90/90
f 90/90/90 92/92/92 91/91/91
f 78/78/78 83/83/83 92/92/92
f 92/92/92 93/93/93 91/91/91
f 92/92/92 94/94/94 93/93/93
f 83/83/83 94/94/94 92/92/92
f 94/94/94 95/95/95 93/93/93
f 86/86/86 96/96/96 83/83/83
f 83/83/83 96/96/96 94/94/94
f 96/96/96 86/86/86 97/97/97
f 96/96/96 98/98/98 94/94/94
f 94/94/94 98/98/98 95/95/95
f 98/98/98 99/99/99 95/95/95
f 102/102/102 101/101/101 100/100/100
f 101/101/101 102/102/102 103/103/103
f 104/104/104 101/101/101 103/103/103
f 103/103/103 105/105/105 104/104/104
f 103/103/103 106/106/106 105/105/105
f 103/103/103 102/102/102 107/107/107
f 102/102/102 108/108/108 107/107/107
f 106/106/106 103/103/103 109/109/109
f 110/110/110 106/106/106 109/109/109
f 109/109/109 111/111/111 110/110/110
f 109/109/109 103/103/103 112/112/112
f 103/103/103 107/107/107 112/112/112
f 112/112/112 107/107/107 113/113/113
f 107/107/107 114/114/114 113/113/113
f 107/107/107 108/108/108 114/114/114
f 108/108/108 115/115/115 114/114/114
f 118/118/118 117/117/117 116/116/116
f 116/116/116 119/119/119 118/118/118
f 119/119/119 120/120/120 118/118/118
f 120/120/120 119/119/119 121/121/121
f 118/118/118 120/120/120 122/122/122
f 120/120/120 121/121/121 123/123/123
f 120/120/120 124/124/124 122/122/122
f 122/122/122 124/124/124 125/125/125
f 124/124/124 126/126/126 125/125/125
f 127/127/127 120/120/120 123/123/123
f 120/120/120 127/127/127 124/124/124
f 127/127/127 123/123/123 128/128/128
f 127/127/127 128/128/128 129/129/129
f 127/127/127 129/129/129 130/130/130
f 129/129/129 131/131/131 130/130/130
f 130/130/130 131/131/131 132/132/132
f 132/132/132 133/133/133 130/130/130
f 133/133/133 134/134/134 130/130/130
f 124/124/124 135/135/135 126/126/126
f 127/127/127 135/135/135 124/124/124
f 127/127/127 130/130/130 135/135/135
f 135/135/135 136/136/136 126/126/126
f 130/130/130 134/134/134 137/137/137
f 130/130/130 137/137/137 135/135/135
f 135/135/135 137/137/137 136/136/136
f 134/134/134 138/138/138 137/137/137
f 137/137/137 139/139/139 136/136/136
f 137/137/137 138/138/138 139/139/139
f 138/138/138 140/140/140 139/139/139
