g ENV_SY02_Forcefield_Medium_COL
v -3.5441196 -0.116650105 0.43096185
v -3.5441196 0.8784182 0.43096185
v 3.5441196 0.8784182 0.43096185
v 3.5441196 -0.116650105 0.43096185
v -2.96579 -0.8813386 0.43096185
v 2.9657903 -0.8813386 0.43096185
v -3.5441196 0.8784182 0.43096185
v -3.5441196 0.8784182 -0.6159148
v 3.5441196 0.8784182 -0.6159148
v 3.5441196 0.8784182 0.43096185
v -3.5441196 0.8784182 -0.6159148
v 3.5441196 -0.116650105 -0.6159148
v 3.5441196 0.8784182 -0.6159148
v -3.5441196 -0.116650105 -0.6159148
v 2.9657903 -0.8813386 -0.6159148
v -2.96579 -0.8813386 -0.6159148
v -2.96579 -0.8813386 -0.6159148
v -2.96579 -0.8813386 0.43096185
v 2.9657903 -0.8813386 0.43096185
v 2.9657903 -0.8813386 -0.6159148
v 3.5441196 -0.116650105 0.43096185
v 3.5441196 0.8784182 0.43096185
v 3.5441196 0.8784182 -0.6159148
v 3.5441196 -0.116650105 -0.6159148
v 2.9657903 -0.8813386 0.43096185
v 2.9657903 -0.8813386 -0.6159148
v -3.5441196 -0.116650105 -0.6159148
v -3.5441196 0.8784182 -0.6159148
v -3.5441196 0.8784182 0.43096185
v -3.5441196 -0.116650105 0.43096185
v -2.96579 -0.8813386 -0.6159148
v -2.96579 -0.8813386 0.43096185
vt 0.37536657 0.12512219
vt 0.37536657 0.25024438
vt 0.62463343 0.25024438
vt 0.62463343 0.12512219
vt 0.37536657 0
vt 0.62463343 0
vt 0.37536657 0.25024438
vt 0.37536657 0.50048876
vt 0.62463343 0.50048876
vt 0.62463343 0.25024438
vt 0.37536657 0.50048876
vt 0.62463343 0.62463343
vt 0.62463343 0.50048876
vt 0.37536657 0.62463343
vt 0.62463343 0.7497556
vt 0.37536657 0.7497556
vt 0.37536657 0.7497556
vt 0.37536657 1
vt 0.62463343 1
vt 0.62463343 0.7497556
vt 0.62463343 0.12512219
vt 0.62463343 0.25024438
vt 0.8748778 0.25024438
vt 0.8748778 0.12512219
vt 0.62463343 0
vt 0.8748778 0
vt 0.12512219 0.12512219
vt 0.12512219 0.25024438
vt 0.37536657 0.25024438
vt 0.37536657 0.12512219
vt 0.12512219 0
vt 0.37536657 0
vn -0.003921509 0.003921509 0.9999846
vn -0.003921509 0.003921509 0.9999846
vn -0.003921509 0.003921509 0.9999846
vn -0.003921509 0.003921509 0.9999846
vn -0.003921509 0.003921509 0.9999846
vn -0.003921509 0.003921509 0.9999846
vn -0.003921509 0.99999225 -0.00034526698
vn -0.003921509 0.99999225 -0.00034526698
vn -0.003921509 0.99999225 -0.00034526698
vn -0.003921509 0.99999225 -0.00034526698
vn -0.003921509 0.003921509 -0.9999846
vn -0.003921509 0.003921509 -0.9999846
vn -0.003921509 0.003921509 -0.9999846
vn -0.003921509 0.003921509 -0.9999846
vn -0.003921509 0.003921509 -0.9999846
vn -0.003921509 0.003921509 -0.9999846
vn -0.003921509 -0.9999924 -0
vn -0.003921509 -0.9999924 -0
vn -0.003921509 -0.9999924 -0
vn -0.003921509 -0.9999924 -0
vn 0.9510053 -0.30917457 -0
vn 0.9999924 0.003921509 -0
vn 0.9999924 0.003921509 -0
vn 0.9510053 -0.30917457 -0
vn 0.79607236 -0.59999543 -0.07921037
vn 0.79607236 -0.59999543 -0.07921037
vn -0.9510053 -0.30917463 -0
vn -0.99999225 0.003921509 -0.00034492963
vn -0.99999225 0.003921509 -0.00034492963
vn -0.9510053 -0.30917463 -0
vn -0.79607224 -0.59999543 -0.0792115
vn -0.79607224 -0.59999543 -0.0792115
g ENV_SY02_Forcefield_Medium_COL_0
f 3/3/3 2/2/2 1/1/1
f 4/4/4 3/3/3 1/1/1
f 4/4/4 1/1/1 5/5/5
f 6/6/6 4/4/4 5/5/5
f 9/9/9 8/8/8 7/7/7
f 10/10/10 9/9/9 7/7/7
f 13/13/13 12/12/12 11/11/11
f 12/12/12 14/14/14 11/11/11
f 12/12/12 15/15/15 14/14/14
f 15/15/15 16/16/16 14/14/14
f 19/19/19 18/18/18 17/17/17
f 20/20/20 19/19/19 17/17/17
f 23/23/23 22/22/22 21/21/21
f 24/24/24 23/23/23 21/21/21
f 24/24/24 21/21/21 25/25/25
f 26/26/26 24/24/24 25/25/25
f 29/29/29 28/28/28 27/27/27
f 30/30/30 29/29/29 27/27/27
f 30/30/30 27/27/27 31/31/31
f 32/32/32 30/30/30 31/31/31
