g ENV_RoundCloud_Small02
v 11.276489 -25.454014 18.238762
v 7.6323338 -23.894726 11.25795
v 0.2666092 -21.050934 21.749886
v 16.63804 -20.066292 3.3775482
v 12.020149 -17.74808 32.79139
v 23.881641 -20.753252 19.87547
v -2.9446526 -10.120653 29.968315
v -13.691746 -20.508999 29.811295
v 23.02567 -14.528095 5.267231
v 21.609224 -24.046293 -4.295677
v 32.479534 -18.804688 -8.212433
v 33.989754 -9.242872 -2.968647
v 35.183754 -10.45759 -17.207235
v 24.920803 -9.797892 28.489716
v 30.395758 -5.850603 14.794151
v 14.662216 -4.9553757 35.73005
v 25.221756 -5.0197086 4.9815407
v 25.555424 4.2269783 23.70499
v 22.109722 6.721836 9.066223
v 31.607204 1.5576515 -2.7429314
v 33.47726 3.569458 -13.274122
v 22.211132 11.589432 -9.839327
v 24.421394 5.194172 0.2884102
v 20.16552 20.768513 5.3762703
v 15.589066 12.245861 15.836586
v 14.347086 8.164452 29.610657
v 3.2303467 0.5021324 32.228737
v 3.7243004 11.36372 20.78923
v -3.3110313 3.9227524 22.658195
v 7.4164333 23.336433 14.643673
v -11.060585 -5.8636875 31.733688
v -21.493637 -8.535194 30.839554
v -28.301071 -15.20742 25.382042
v -14.531361 3.8224335 26.867184
v -4.828884 21.514355 14.562984
v -28.05246 0.91321945 21.998497
v -12.782345 10.506657 14.438679
v -23.268826 7.6432343 16.22586
v -34.383385 -7.5516434 13.058216
v -25.513985 -25.876003 20.066288
v -13.691746 -20.508999 29.811295
v -7.337921 -28.064459 19.87547
v 0.2666092 -21.050934 21.749886
v -6.251869 -28.305439 7.570179
v 7.6323338 -23.894726 11.25795
v -15.05476 -30.549505 12.062672
v 3.3590126 -30.920246 1.232708
v 16.63804 -20.066292 3.3775482
v 10.303843 -24.771416 -9.122927
v 21.609224 -24.046293 -4.295677
v -4.102669 -29.318432 -8.589716
v -13.396244 -25.17487 -1.2457962
v -23.542519 -25.581593 3.0536957
v 22.960243 -25.211945 -18.554983
v 32.479534 -18.804688 -8.212433
v -16.869205 -18.581154 -6.9540997
v -29.521248 -11.075853 -0.81290436
v -31.04673 -19.34117 6.5997124
v 6.115572 -21.9985 -15.6544895
v -3.840973 -22.591686 -15.970709
v -26.96532 1.9720078 3.2041702
v -19.367336 7.100212 3.94347
v -12.610058 23.228481 3.1027641
v 0.61117554 30.292168 5.632519
v 9.562363 30.602936 3.437519
v 1.8226242 30.920242 -8.594078
v 15.915098 26.967503 -4.558466
v 15.241224 20.811039 -13.141092
v -29.086174 10.7378235 -5.512575
v -17.052395 15.365528 -5.9225693
v -7.632332 23.954697 -10.890484
v 2.9261208 18.754524 -19.764248
v 12.292751 7.6443253 -20.582058
v -10.782528 14.341629 -16.146265
v -35.183746 2.0221672 -6.867956
v -23.130344 13.751717 -20.77506
v -3.0744133 5.064411 -22.618946
v 20.283285 7.6770363 -23.671192
v -32.18621 6.614979 -19.21141
v -34.255806 -6.2344284 -18.224588
v -11.263401 8.74128 -25.741882
v -27.220478 -0.79218674 -28.67618
v -27.389492 -16.382885 -13.399519
v -17.052395 1.5282097 -30.628016
v -25.231567 -13.536911 -22.192595
v -13.12146 -16.65985 -21.500183
v -13.2424965 -9.852411 -29.459095
v -8.102299 0.61880493 -27.821297
v -1.8138962 -23.120535 -27.877998
v -5.599804 -9.566725 -35.73005
v 3.2576065 -1.8215332 -34.45863
v 11.807518 -18.501553 -25.954514
v 5.4144382 -15.2554 -34.7574
v 9.915655 -0.13030624 -26.988224
v 13.070215 -8.716204 -29.63029
v 25.360239 -13.966534 -27.741697
v 21.528534 -3.236889 -29.726246
v 31.627922 -1.5031319 -22.615673
vt 0.8516321 0.87974375
vt 0.86129546 0.8812079
vt 0.8317197 0.8589529
vt 0.8662736 0.91371197
vt 0.8325982 0.875937
vt 0.8495823 0.8970207
vt 0.8068292 0.86480945
vt 0.78720963 0.84841096
vt 0.85602456 0.92308253
vt 0.8692019 0.93538135
vt 0.8525106 0.95822203
vt 0.8425544 0.9520726
vt 0.8194209 0.9798914
vt 0.8372835 0.89526373
vt 0.8425544 0.91517615
vt 0.82527745 0.8841362
vt 0.8434329 0.92981756
vt 0.83025557 0.90551275
vt 0.8296699 0.92249686
vt 0.83347666 0.9459232
vt 0.82410616 0.95910054
vt 0.81912804 0.9444591
vt 0.8305484 0.9356742
vt 0.8197137 0.92308253
vt 0.82000655 0.9090267
vt 0.8188352 0.8943852
vt 0.8109288 0.87974375
vt 0.8068292 0.89350677
vt 0.79833716 0.88179356
vt 0.80917186 0.90639126
vt 0.7895523 0.8662736
vt 0.7681757 0.8671521
vt 0.74299234 0.8744728
vt 0.78369564 0.875937
vt 0.796873 0.8990705
vt 0.7640761 0.87974375
vt 0.784867 0.8899928
vt 0.7722753 0.88647884
vt 0.75002027 0.88969994
vt 0.7277652 0.89526373
vt 0.7066815 0.8970207
vt 0.70990264 0.922204
vt 0.6984823 0.9327459
vt 0.7204445 0.93889534
vt 0.71195245 0.96027184
vt 0.72132295 0.9207399
vt 0.7274724 0.95910054
vt 0.73098636 0.98486954
vt 0.7476776 0.9763775
vt 0.7552912 0.9933616
vt 0.73713577 0.95441526
vt 0.7318648 0.9356742
vt 0.7327433 0.9186901
vt 0.77578926 0.98691934
vt 0.7898451 0.9980469
vt 0.7391856 0.93333155
vt 0.74650633 0.9099052
vt 0.73889273 0.90551275
vt 0.7535342 0.97052085
vt 0.7473848 0.95705074
vt 0.7617335 0.89936334
vt 0.7731538 0.8984848
vt 0.7880881 0.90639126
vt 0.8009726 0.91166216
vt 0.80770767 0.9181044
vt 0.7989228 0.923961
vt 0.81122166 0.92864627
vt 0.808879 0.93830967
vt 0.76876134 0.90873384
vt 0.77988887 0.9125407
vt 0.7898451 0.9219112
vt 0.7957017 0.9371383
vt 0.8009726 0.9509013
vt 0.7839885 0.927475
vt 0.75968367 0.9110765
vt 0.7749108 0.9242538
vt 0.7857455 0.94358057
vt 0.8068292 0.9567579
vt 0.76554024 0.92132556
vt 0.7552912 0.923961
vt 0.77959603 0.9368455
vt 0.7643689 0.9327459
vt 0.74709195 0.92776775
vt 0.771104 0.9391881
vt 0.7535342 0.93538135
vt 0.75265574 0.94709456
vt 0.7631976 0.9468017
vt 0.7769606 0.9447519
vt 0.759098 0.9614432
vt 0.7705183 0.95353675
vt 0.7822315 0.95587945
vt 0.772861 0.97286355
vt 0.7734466 0.96407866
vt 0.7918949 0.95763636
vt 0.7857455 0.9670069
vt 0.7942375 0.97754884
vt 0.79833716 0.9670069
vt 0.8135643 0.9690567
vn 0.10054886 -0.9825245 0.15663804
vn 0.19421 -0.9434991 0.2684994
vn 0.092743754 -0.82642263 0.55535954
vn 0.45928597 -0.8882885 -0
vn 0.05371827 -0.6391004 0.7672451
vn 0.68593097 -0.7171513 0.12325886
vn -0.14921415 -0.17079473 0.9739427
vn -0.0087224245 -0.49860868 0.8667833
vn 0.80300736 -0.55324435 0.22158489
vn 0.28787112 -0.8888634 0.35644373
vn 0.7405666 -0.6391004 0.20763381
vn 0.9044736 -0.06932849 0.42085752
vn 0.92008376 -0.24884564 -0.3025256
vn 0.7561768 -0.18640488 0.6272558
vn 0.99813473 -0.014692783 -0.059255384
vn 0.18640488 0.094578505 0.9779101
vn 0.9434991 0.15701926 0.2918123
vn 0.7639819 0.50824857 0.39751112
vn 0.8966685 0.4380027 0.06433696
vn 0.7249564 0.50044346 0.47328067
vn 0.84203285 0.5316638 -0.09118301
vn 0.7405666 0.6409352 -0.20189898
vn 0.8888634 0.36775684 0.27327055
vn 0.83422774 0.46922302 0.28964436
vn 0.5220239 0.6877657 0.50444955
vn 0.1473794 0.73459625 0.66230476
vn -0.40678227 0.4301976 0.8058897
vn -0.11799383 0.6409352 0.75847185
vn -0.18043458 0.5550791 0.8119917
vn 0.2722609 0.61751986 0.7379317
vn 0.13176924 0.21946001 0.966682
vn -0.38336706 0.13360393 0.9138817
vn -0.73459625 -0.19421 0.650116
vn -0.11799383 0.6877657 0.7162791
vn -0.37556195 0.5550791 0.74218625
vn -0.6877657 0.4223925 0.5903922
vn -0.48483324 0.6955708 0.5302056
vn -0.5706893 0.8126472 0.11797526
vn -0.9921644 0.11018872 0.058892325
vn -0.5862994 -0.7327615 0.34541792
vn -0.0087224245 -0.49860868 0.8667833
vn 0.19421 -0.88105834 0.43129885
vn 0.092743754 -0.82642263 0.55535954
vn 0.084938645 -0.9825245 0.1656231
vn 0.19421 -0.9434991 0.2684994
vn -0.12579894 -0.9903296 -0.05849652
vn 0.33470172 -0.935694 0.11158642
vn 0.45928597 -0.8882885 -0
vn 0.19421 -0.97471946 -0.110473834
vn 0.28787112 -0.8888634 0.35644373
vn -0.2116549 -0.9044736 -0.3703103
vn -0.28970587 -0.8888634 -0.3549541
vn -0.50824857 -0.7405666 -0.4395958
vn 0.30348128 -0.88105834 -0.3628159
vn 0.7405666 -0.6391004 0.20763381
vn -0.4614179 -0.8108125 -0.36010644
vn -0.9219185 -0.3659221 -0.12715062
vn -0.8828931 -0.443973 -0.15293068
vn 0.030303001 -0.9434991 -0.32998666
vn -0.35214663 -0.88105834 -0.315799
vn -0.85167265 0.49263835 0.17877676
vn -0.6565453 0.6955708 0.2917696
vn -0.71898603 0.6721555 0.17682222
vn -0.26629055 0.8985033 0.34897158
vn 0.3659221 0.8906982 0.2697365
vn -0.086773396 0.9141134 -0.3960645
vn 0.67032075 0.70337594 -0.23650026
vn 0.4908036 0.5316638 -0.6902503
vn -0.5784944 0.7658167 0.28083634
vn -0.5620841 0.82708013 -0
vn -0.5550791 0.6721555 -0.48999408
vn -0.016527534 0.48483324 -0.87445045
vn 0.20982015 0.50824857 -0.8352598
vn -0.1882397 0.7502065 -0.6338423
vn -0.96094406 0.10238361 0.25710726
vn -0.29751098 0.84386766 -0.44651386
vn 0.06932849 0.5941045 -0.80139464
vn 0.2722609 0.7502065 -0.6025481
vn -0.82825744 0.4614179 -0.31793576
vn -0.9219185 -0.30348128 -0.24075998
vn 0.24104053 0.6643504 -0.70748717
vn -0.5316638 0.0009173751 -0.84695506
vn -0.48483324 -0.8732532 -0.04863671
vn -0.03994286 0.3209263 -0.9462615
vn -0.4301976 -0.6469055 -0.6296374
vn -0.35995173 -0.8732532 -0.32842585
vn -0.37556195 -0.38933736 -0.8410527
vn -0.07896829 0.48483324 -0.87103426
vn -0.1960448 -0.8654481 -0.4610488
vn -0.35995173 -0.06932849 -0.9303915
vn 0.16298962 0.5394689 -0.8260797
vn 0.18640488 -0.7561768 -0.6272558
vn 0.29567623 -0.35031188 -0.88873905
vn 0.061523378 0.62532496 -0.77793545
vn 0.3190915 -0.03810811 -0.94695747
vn 0.443973 -0.3659221 -0.81791747
vn 0.22543037 0.25068045 -0.94145656
vn 0.6937361 0.28190076 -0.6627686
g ENV_RoundCloud_Small02_0
f 3/3/3 2/2/2 1/1/1
f 4/4/4 1/1/1 2/2/2
f 1/1/1 5/5/5 3/3/3
f 6/6/6 1/1/1 4/4/4
f 1/1/1 6/6/6 5/5/5
f 5/5/5 7/7/7 3/3/3
f 7/7/7 8/8/8 3/3/3
f 9/9/9 6/6/6 4/4/4
f 4/4/4 10/10/10 9/9/9
f 11/11/11 9/9/9 10/10/10
f 9/9/9 11/11/11 12/12/12
f 11/11/11 13/13/13 12/12/12
f 5/5/5 6/6/6 14/14/14
f 9/9/9 15/15/15 6/6/6
f 14/14/14 6/6/6 15/15/15
f 14/14/14 16/16/16 5/5/5
f 16/16/16 7/7/7 5/5/5
f 12/12/12 17/17/17 9/9/9
f 15/15/15 9/9/9 17/17/17
f 14/14/14 15/15/15 18/18/18
f 18/18/18 16/16/16 14/14/14
f 19/19/19 15/15/15 17/17/17
f 15/15/15 19/19/19 18/18/18
f 17/17/17 12/12/12 20/20/20
f 21/21/21 12/12/12 13/13/13
f 21/21/21 20/20/20 12/12/12
f 20/20/20 21/21/21 22/22/22
f 23/23/23 17/17/17 20/20/20
f 19/19/19 17/17/17 23/23/23
f 22/22/22 23/23/23 20/20/20
f 24/24/24 19/19/19 23/23/23
f 24/24/24 23/23/23 22/22/22
f 19/19/19 25/25/25 18/18/18
f 19/19/19 24/24/24 25/25/25
f 18/18/18 26/26/26 16/16/16
f 25/25/25 26/26/26 18/18/18
f 26/26/26 27/27/27 16/16/16
f 27/27/27 7/7/7 16/16/16
f 28/28/28 26/26/26 25/25/25
f 26/26/26 28/28/28 27/27/27
f 29/29/29 7/7/7 27/27/27
f 28/28/28 29/29/29 27/27/27
f 30/30/30 28/28/28 25/25/25
f 24/24/24 30/30/30 25/25/25
f 29/29/29 31/31/31 7/7/7
f 7/7/7 31/31/31 8/8/8
f 32/32/32 8/8/8 31/31/31
f 8/8/8 32/32/32 33/33/33
f 32/32/32 31/31/31 34/34/34
f 29/29/29 34/34/34 31/31/31
f 29/29/29 28/28/28 35/35/35
f 35/35/35 28/28/28 30/30/30
f 36/36/36 33/33/33 32/32/32
f 36/36/36 32/32/32 34/34/34
f 29/29/29 37/37/37 34/34/34
f 35/35/35 37/37/37 29/29/29
f 38/38/38 36/36/36 34/34/34
f 38/38/38 34/34/34 37/37/37
f 39/39/39 33/33/33 36/36/36
f 38/38/38 39/39/39 36/36/36
f 33/33/33 39/39/39 40/40/40
f 33/33/33 40/40/40 41/41/41
f 41/41/41 40/40/40 42/42/42
f 41/41/41 42/42/42 43/43/43
f 44/44/44 43/43/43 42/42/42
f 43/43/43 44/44/44 45/45/45
f 40/40/40 46/46/46 42/42/42
f 44/44/44 42/42/42 46/46/46
f 44/44/44 47/47/47 45/45/45
f 47/47/47 48/48/48 45/45/45
f 49/49/49 48/48/48 47/47/47
f 50/50/50 48/48/48 49/49/49
f 47/47/47 44/44/44 51/51/51
f 49/49/49 47/47/47 51/51/51
f 44/44/44 46/46/46 52/52/52
f 51/51/51 44/44/44 52/52/52
f 46/46/46 40/40/40 53/53/53
f 52/52/52 46/46/46 53/53/53
f 50/50/50 49/49/49 54/54/54
f 50/50/50 54/54/54 55/55/55
f 54/54/54 13/13/13 55/55/55
f 56/56/56 51/51/51 52/52/52
f 56/56/56 52/52/52 53/53/53
f 56/56/56 53/53/53 57/57/57
f 53/53/53 40/40/40 58/58/58
f 53/53/53 58/58/58 57/57/57
f 58/58/58 40/40/40 39/39/39
f 39/39/39 57/57/57 58/58/58
f 59/59/59 49/49/49 51/51/51
f 54/54/54 49/49/49 59/59/59
f 56/56/56 60/60/60 51/51/51
f 59/59/59 51/51/51 60/60/60
f 61/61/61 57/57/57 39/39/39
f 61/61/61 39/39/39 38/38/38
f 61/61/61 38/38/38 62/62/62
f 38/38/38 37/37/37 62/62/62
f 63/63/63 62/62/62 37/37/37
f 63/63/63 37/37/37 35/35/35
f 63/63/63 35/35/35 64/64/64
f 30/30/30 64/64/64 35/35/35
f 65/65/65 64/64/64 30/30/30
f 24/24/24 65/65/65 30/30/30
f 64/64/64 65/65/65 66/66/66
f 63/63/63 64/64/64 66/66/66
f 24/24/24 67/67/67 65/65/65
f 67/67/67 66/66/66 65/65/65
f 67/67/67 24/24/24 22/22/22
f 68/68/68 66/66/66 67/67/67
f 68/68/68 67/67/67 22/22/22
f 69/69/69 61/61/61 62/62/62
f 63/63/63 70/70/70 62/62/62
f 70/70/70 69/69/69 62/62/62
f 63/63/63 66/66/66 71/71/71
f 71/71/71 70/70/70 63/63/63
f 68/68/68 72/72/72 66/66/66
f 71/71/71 66/66/66 72/72/72
f 68/68/68 22/22/22 73/73/73
f 68/68/68 73/73/73 72/72/72
f 74/74/74 70/70/70 71/71/71
f 71/71/71 72/72/72 74/74/74
f 69/69/69 75/75/75 61/61/61
f 57/57/57 61/61/61 75/75/75
f 70/70/70 76/76/76 69/69/69
f 76/76/76 70/70/70 74/74/74
f 72/72/72 77/77/77 74/74/74
f 72/72/72 73/73/73 77/77/77
f 73/73/73 22/22/22 78/78/78
f 22/22/22 21/21/21 78/78/78
f 79/79/79 75/75/75 69/69/69
f 76/76/76 79/79/79 69/69/69
f 57/57/57 75/75/75 80/80/80
f 79/79/79 80/80/80 75/75/75
f 81/81/81 74/74/74 77/77/77
f 76/76/76 74/74/74 81/81/81
f 76/76/76 82/82/82 79/79/79
f 79/79/79 82/82/82 80/80/80
f 57/57/57 80/80/80 83/83/83
f 56/56/56 57/57/57 83/83/83
f 84/84/84 76/76/76 81/81/81
f 76/76/76 84/84/84 82/82/82
f 82/82/82 85/85/85 80/80/80
f 80/80/80 85/85/85 83/83/83
f 86/86/86 56/56/56 83/83/83
f 83/83/83 85/85/85 86/86/86
f 56/56/56 86/86/86 60/60/60
f 82/82/82 87/87/87 85/85/85
f 87/87/87 82/82/82 84/84/84
f 86/86/86 85/85/85 87/87/87
f 88/88/88 84/84/84 81/81/81
f 81/81/81 77/77/77 88/88/88
f 88/88/88 87/87/87 84/84/84
f 89/89/89 60/60/60 86/86/86
f 89/89/89 86/86/86 87/87/87
f 60/60/60 89/89/89 59/59/59
f 90/90/90 87/87/87 88/88/88
f 90/90/90 89/89/89 87/87/87
f 88/88/88 77/77/77 91/91/91
f 91/91/91 90/90/90 88/88/88
f 92/92/92 59/59/59 89/89/89
f 92/92/92 54/54/54 59/59/59
f 90/90/90 93/93/93 89/89/89
f 91/91/91 93/93/93 90/90/90
f 92/92/92 89/89/89 93/93/93
f 91/91/91 77/77/77 94/94/94
f 77/77/77 73/73/73 94/94/94
f 78/78/78 94/94/94 73/73/73
f 91/91/91 95/95/95 93/93/93
f 95/95/95 92/92/92 93/93/93
f 91/91/91 94/94/94 95/95/95
f 96/96/96 54/54/54 92/92/92
f 96/96/96 92/92/92 95/95/95
f 96/96/96 13/13/13 54/54/54
f 97/97/97 95/95/95 94/94/94
f 78/78/78 97/97/97 94/94/94
f 97/97/97 96/96/96 95/95/95
f 98/98/98 13/13/13 96/96/96
f 96/96/96 97/97/97 98/98/98
f 98/98/98 97/97/97 78/78/78
f 21/21/21 13/13/13 98/98/98
f 78/78/78 21/21/21 98/98/98
