g ENV_SY02_HBS_S2_Support_A
v 0.43002445 -0.031158626 -0.5074841
v -0.2779727 -0.031158626 -0.64354897
v -0.28848004 -0.14253622 -0.5915033
v 0.41947785 -0.14253622 -0.45545807
v -0.3010888 -0.19053605 -0.52329415
v 0.4627248 -0.13224494 -0.4306922
v 0.47246617 -0.02941066 -0.47871166
v 0.406928 -0.19053605 -0.38724884
v -0.31748807 -0.22620204 -0.43446308
v 0.4745873 -0.10736126 -0.38870218
v 0.48240393 -0.025207758 -0.42705882
v 0.4657297 -0.14161319 -0.33987752
v 0.45127478 -0.17619896 -0.3681589
v 0.43570036 -0.21013662 -0.2836879
v 0.39054835 -0.22620204 -0.29839814
v -0.33557642 -0.24144256 -0.33830634
v 0.4184173 -0.22472903 -0.19161624
v 0.37247968 -0.24144256 -0.20224142
v -0.436211 -0.24144256 0.20204502
v 0.31870577 -0.22472903 0.3452981
v 0.2721004 -0.24144256 0.33814925
v -0.454319 -0.22616276 0.29829997
v 0.3014816 -0.21009734 0.4374876
v 0.25411028 -0.22616276 0.43440413
v -0.47067893 -0.19059497 0.38671863
v 0.23771098 -0.19059497 0.5228621
v -0.48330736 -0.14226127 0.45534027
v 0.28592682 -0.17627752 0.5215658
v 0.22500399 -0.14226127 0.5914445
v -0.49295056 -0.030981839 0.5074055
v 0.21541974 -0.030981839 0.64354897
v 0.26550138 -0.029233932 0.63257027
v 0.27430004 -0.13195038 0.5844526
v 0.3007942 -0.1070863 0.5498079
v 0.3098089 -0.14173102 0.50064933
v 0.32336038 -0.171289 0.42711782
v 0.21541974 -0.030981839 0.64354897
v -0.49295056 -0.030981839 0.5074055
v -0.48861015 0.08691621 0.48153985
v 0.21966195 0.08691621 0.61764395
v -0.4733696 0.16889292 0.3996023
v 0.26939008 0.07931554 0.60866857
v 0.26550138 -0.029233932 0.63257027
v 0.23496142 0.16889292 0.53574586
v -0.45642042 0.2187782 0.30935717
v 0.2836879 0.15606815 0.53201425
v 0.25189096 0.2187782 0.4454614
v -0.43691802 0.24144256 0.20577657
v 0.30870906 0.12509608 0.5052451
v 0.29682696 0.061030865 0.56923175
v 0.3223784 0.16563272 0.43190992
v 0.29965508 0.2032234 0.44669867
v 0.29965508 0.2032234 0.44669867
v 0.3180969 0.22472906 0.34840125
v 0.27135405 0.24144256 0.34186113
v -0.33484972 0.24144256 -0.3420379
v 0.4190065 0.22472906 -0.19471934
v 0.37314743 0.24144256 -0.20597297
v -0.31538665 0.21885675 -0.44550067
v 0.43742868 0.20328236 -0.29291862
v 0.39261052 0.21885675 -0.3094554
v -0.29843742 0.16897148 -0.5359815
v 0.4533959 0.15612704 -0.37843055
v 0.40952045 0.16897148 -0.3999362
v -0.28319693 0.087112606 -0.61795825
v 0.42476097 0.087112606 -0.4818933
v -0.2779727 -0.031158626 -0.64354897
v 0.43002445 -0.031158626 -0.5074841
v 0.47246617 -0.02941066 -0.47871166
v 0.46761513 0.07953161 -0.4551242
v 0.47853488 0.061246872 -0.4083224
v 0.46673134 0.12513536 -0.34431612
v 0.49295056 -0.023361623 -0.37587738
v 0.48240393 -0.025207758 -0.42705882
v 0.4745873 -0.10736126 -0.38870218
v 0.4875496 -0.06672639 -0.350758
v 0.4657297 -0.14161319 -0.33987752
v 0.48081312 -0.09408474 -0.312421
v 0.4804596 -0.023381233 -0.30855194
v 0.49295056 -0.023361623 -0.37587738
v 0.469913 -0.023400903 -0.25175348
v 0.47005048 -0.12397659 -0.2528533
v 0.45791304 -0.023420513 -0.18709907
v 0.45785415 -0.13426787 -0.18717763
v 0.48951358 0.024166822 -0.35977268
v 0.47853488 0.061246872 -0.4083224
v 0.48240393 -0.025207758 -0.42705882
v 0.49295056 -0.023361623 -0.37587738
v 0.47930086 0.084284425 -0.30364197
v 0.4804596 -0.023381233 -0.30855194
v 0.4695595 0.12177694 -0.25041798
v 0.46673134 0.12513536 -0.34431612
v 0.469913 -0.023400903 -0.25175348
v 0.453062 0.16569167 -0.2707845
v 0.45785415 0.13499457 -0.18717763
v 0.45791304 -0.023420513 -0.18709907
v 0.43707517 0.18432987 -0.1853315
v 0.3570624 -0.0235973 0.3563161
v 0.45785415 -0.13426787 -0.18717763
v 0.3570624 0.13499457 0.3563161
v 0.33836526 0.18432987 0.34635866
v 0.34537667 0.12177694 0.41955638
v 0.3223784 0.16563272 0.43190992
v 0.34512135 -0.0235973 0.42100978
v 0.3570624 -0.13426787 0.3563161
v 0.33475152 -0.02355802 0.4778868
v 0.3356353 0.084284425 0.472584
v 0.34496424 -0.12397659 0.42201138
v 0.32336038 -0.171289 0.42711782
v 0.3386795 -0.18436915 0.34480715
v 0.43678057 -0.18436915 -0.18376032
v 0.47005048 -0.12397659 -0.2528533
v 0.45215857 -0.17134792 -0.26597273
v 0.48081312 -0.09408474 -0.312421
v 0.4657297 -0.14161319 -0.33987752
v 0.33418196 -0.09408474 0.48136306
v 0.3229283 -0.023361623 0.544839
v 0.32534403 0.024166822 0.5286951
v 0.327308 -0.06672639 0.51991606
v 0.29388097 -0.02507025 0.5882628
v 0.3007942 -0.1070863 0.5498079
v 0.47930086 0.084284425 -0.30364197
v 0.46673134 0.12513536 -0.34431612
v 0.47853488 0.061246872 -0.4083224
v 0.48951358 0.024166822 -0.35977268
v 0.32534403 0.024166822 0.5286951
v 0.29682696 0.061030865 0.56923175
v 0.30870906 0.12509608 0.5052451
v 0.3356353 0.084284425 0.472584
v 0.3356353 0.084284425 0.472584
v 0.3223784 0.16563272 0.43190992
v 0.3229283 -0.023361623 0.544839
v 0.29388097 -0.02507025 0.5882628
v 0.29682696 0.061030865 0.56923175
v 0.32534403 0.024166822 0.5286951
v 0.33418196 -0.09408474 0.48136306
v 0.3007942 -0.1070863 0.5498079
v 0.327308 -0.06672639 0.51991606
v 0.3098089 -0.14173102 0.50064933
v 0.34496424 -0.12397659 0.42201138
v 0.32336038 -0.171289 0.42711782
v 0.48240393 -0.025207758 -0.42705882
v 0.47853488 0.061246872 -0.4083224
v 0.46761513 0.07953161 -0.4551242
v 0.47246617 -0.02941066 -0.47871166
v 0.46673134 0.12513536 -0.34431612
v 0.43742868 0.20328236 -0.29291862
v 0.4533959 0.15612704 -0.37843055
v 0.453062 0.16569167 -0.2707845
v 0.4190065 0.22472906 -0.19471934
v 0.43707517 0.18432987 -0.1853315
v 0.3180969 0.22472906 0.34840125
v 0.33836526 0.18432987 0.34635866
v 0.3223784 0.16563272 0.43190992
v 0.29682696 0.061030865 0.56923175
v 0.29388097 -0.02507025 0.5882628
v 0.26550138 -0.029233932 0.63257027
v 0.26939008 0.07931554 0.60866857
v 0.29388097 -0.02507025 0.5882628
v 0.3007942 -0.1070863 0.5498079
v 0.27430004 -0.13195038 0.5844526
v 0.26550138 -0.029233932 0.63257027
v 0.32336038 -0.171289 0.42711782
v 0.31870577 -0.22472903 0.3452981
v 0.3014816 -0.21009734 0.4374876
v 0.3386795 -0.18436915 0.34480715
v 0.4184173 -0.22472903 -0.19161624
v 0.43678057 -0.18436915 -0.18376032
v 0.43570036 -0.21013662 -0.2836879
v 0.45215857 -0.17134792 -0.26597273
v 0.45127478 -0.17619896 -0.3681589
v 0.4657297 -0.14161319 -0.33987752
vt 0.8700189 0.77129465
vt 0.8707962 0.77129465
vt 0.8707962 0.77129465
vt 0.8700189 0.77129465
vt 0.8707962 0.7705173
vt 0.8700189 0.77129465
vt 0.8700189 0.77129465
vt 0.8700189 0.7705173
vt 0.8707962 0.7705173
vt 0.8700189 0.77129465
vt 0.8700189 0.77129465
vt 0.8700189 0.7705173
vt 0.8700189 0.7705173
vt 0.86924154 0.7705173
vt 0.8700189 0.7705173
vt 0.8700189 0.76974
vt 0.86924154 0.76974
vt 0.86924154 0.76974
vt 0.8700189 0.7642985
vt 0.86924154 0.7642985
vt 0.86924154 0.7642985
vt 0.8707962 0.76352113
vt 0.86924154 0.76352113
vt 0.8700189 0.76352113
vt 0.8707962 0.7619664
vt 0.8700189 0.7619664
vt 0.8707962 0.7619664
vt 0.8700189 0.7619664
vt 0.8700189 0.7619664
vt 0.8707962 0.76118904
vt 0.8700189 0.76118904
vt 0.8700189 0.76118904
vt 0.8700189 0.7619664
vt 0.8700189 0.7619664
vt 0.8700189 0.7619664
vt 0.86924154 0.76352113
vt 0.8606906 0.7705173
vt 0.8606906 0.77129465
vt 0.8606906 0.77129465
vt 0.8606906 0.7705173
vt 0.8622453 0.77129465
vt 0.8606906 0.7705173
vt 0.8606906 0.7705173
vt 0.8622453 0.7705173
vt 0.8630227 0.77129465
vt 0.8622453 0.7705173
vt 0.8630227 0.7705173
vt 0.8630227 0.77129465
vt 0.8622453 0.7705173
vt 0.8606906 0.7705173
vt 0.8630227 0.7705173
vt 0.8630227 0.7705173
vt 0.8630227 0.7705173
vt 0.8630227 0.7705173
vt 0.8630227 0.7705173
vt 0.8684642 0.77129465
vt 0.8684642 0.7705173
vt 0.8684642 0.7705173
vt 0.86924154 0.77129465
vt 0.86924154 0.7705173
vt 0.86924154 0.7705173
vt 0.8700189 0.77129465
vt 0.8700189 0.7705173
vt 0.8700189 0.7705173
vt 0.8707962 0.77129465
vt 0.8707962 0.7705173
vt 0.8707962 0.77129465
vt 0.8707962 0.7705173
vt 0.8707962 0.7705173
vt 0.8707962 0.7705173
vt 0.8707962 0.7705173
vt 0.8700189 0.7705173
vt 0.8700189 0.77129465
vt 0.8700189 0.77129465
vt 0.8700189 0.77129465
vt 0.8700189 0.77129465
vt 0.8700189 0.7705173
vt 0.8700189 0.7705173
vt 0.8707962 0.7705173
vt 0.8707962 0.7705173
vt 0.8700189 0.76974
vt 0.86924154 0.7705173
vt 0.8700189 0.76974
vt 0.86924154 0.76974
vt 0.8707962 0.7705173
vt 0.8707962 0.7705173
vt 0.8707962 0.7705173
vt 0.8707962 0.7705173
vt 0.8700189 0.7705173
vt 0.8707962 0.7705173
vt 0.86924154 0.7705173
vt 0.8700189 0.7705173
vt 0.8700189 0.76974
vt 0.86924154 0.7705173
vt 0.8684642 0.7705173
vt 0.8700189 0.76974
vt 0.8684642 0.7705173
vt 0.86690944 0.76663053
vt 0.86924154 0.76974
vt 0.8630227 0.7705173
vt 0.86380005 0.7705173
vt 0.8630227 0.7705173
vt 0.8630227 0.7705173
vt 0.8661321 0.76585317
vt 0.86924154 0.7642985
vt 0.8661321 0.76585317
vt 0.8622453 0.7705173
vt 0.86924154 0.76352113
vt 0.86924154 0.76352113
vt 0.86924154 0.7642985
vt 0.86924154 0.76974
vt 0.86924154 0.7705173
vt 0.86924154 0.7705173
vt 0.8700189 0.7705173
vt 0.8700189 0.7705173
vt 0.8700189 0.7619664
vt 0.8700189 0.76118904
vt 0.8606906 0.7705173
vt 0.8700189 0.7619664
vt 0.8700189 0.76118904
vt 0.8700189 0.7619664
vt 0.8700189 0.7705173
vt 0.8700189 0.7705173
vt 0.8707962 0.7705173
vt 0.8707962 0.7705173
vt 0.8606906 0.7705173
vt 0.8606906 0.7705173
vt 0.8622453 0.7705173
vt 0.8622453 0.7705173
vt 0.8622453 0.7705173
vt 0.8630227 0.7705173
vt 0.8606906 0.7705173
vt 0.8606906 0.7705173
vt 0.8606906 0.7705173
vt 0.8606906 0.7705173
vt 0.8700189 0.7619664
vt 0.8700189 0.7619664
vt 0.8700189 0.7619664
vt 0.8700189 0.7619664
vt 0.86924154 0.76352113
vt 0.86924154 0.76352113
vt 0.8707962 0.7705173
vt 0.8707962 0.7705173
vt 0.8707962 0.7705173
vt 0.8707962 0.7705173
vt 0.8700189 0.7705173
vt 0.86924154 0.7705173
vt 0.8700189 0.7705173
vt 0.86924154 0.7705173
vt 0.8684642 0.7705173
vt 0.8684642 0.7705173
vt 0.8630227 0.7705173
vt 0.86380005 0.7705173
vt 0.8630227 0.7705173
vt 0.8606906 0.7705173
vt 0.8606906 0.7705173
vt 0.8606906 0.7705173
vt 0.8606906 0.7705173
vt 0.8700189 0.76118904
vt 0.8700189 0.7619664
vt 0.8700189 0.7619664
vt 0.8700189 0.76118904
vt 0.86924154 0.76352113
vt 0.86924154 0.7642985
vt 0.86924154 0.76352113
vt 0.86924154 0.7642985
vt 0.86924154 0.76974
vt 0.86924154 0.76974
vt 0.86924154 0.7705173
vt 0.86924154 0.7705173
vt 0.8700189 0.7705173
vt 0.8700189 0.7705173
vn 0.20790577 -0.11382836 -0.9715031
vn 0.18438643 -0.11382836 -0.9762401
vn 0.1530273 -0.6077348 -0.7792567
vn 0.1687069 -0.6077348 -0.7760132
vn 0.090309024 -0.8821272 -0.46227252
vn 0.7488509 -0.46661866 -0.47062656
vn 0.7880498 -0.090309024 -0.60895133
vn 0.10598862 -0.8821272 -0.4589314
vn 0.05111009 -0.96836483 -0.24424851
vn 0.96052504 -0.2392649 -0.14192952
vn 0.98404443 -0.04327035 -0.1725811
vn 0.9370057 -0.3411821 -0.074933775
vn 0.6861326 -0.6861326 -0.24175204
vn 0.6626133 -0.7488509 -0.012884057
vn 0.06678969 -0.96836483 -0.2404344
vn 0.0040714145 -0.999724 -0.023139328
vn 0.63125414 -0.7723702 0.07044462
vn 0.027587866 -0.9996194 -0
vn -0.0037683845 -0.999724 0.023190789
vn 0.62341434 -0.7723702 0.1216504
vn 0.019750953 -0.999724 0.0127234515
vn -0.05080706 -0.96836483 0.2443117
vn 0.5842154 -0.7488509 0.31291324
vn -0.027287781 -0.96836483 0.2480422
vn -0.09000605 -0.8821272 0.46233156
vn -0.06648666 -0.8821272 0.46629512
vn -0.15272433 -0.6077348 0.7793161
vn 0.5528563 -0.6861326 0.47283393
vn -0.12920493 -0.6077348 0.7835589
vn -0.1840834 -0.11382836 0.9762973
vn -0.160564 -0.11382836 0.98043984
vn 0.5058176 -0.090309024 0.85790026
vn 0.52149713 -0.46661866 0.7143583
vn 0.8507681 -0.2471047 0.46382427
vn 0.8664476 -0.3568617 0.34916794
vn 0.8821272 -0.3960606 0.25492665
vn -0.160564 -0.11382836 0.98043984
vn -0.1840834 -0.11382836 0.9762973
vn -0.1684038 0.48199517 0.85983765
vn -0.14488453 0.48199517 0.8641118
vn -0.11352533 0.7955865 0.59510845
vn 0.51365733 0.37223822 0.77304256
vn 0.5058176 -0.090309024 0.85790026
vn -0.09000605 0.7955865 0.5991168
vn -0.06648666 0.93670267 0.34375522
vn 0.5450165 0.6152715 0.56955945
vn -0.04296726 0.93670267 0.34747934
vn -0.0037683845 0.99942094 0.03381678
vn 0.8664476 0.30951995 0.39174727
vn 0.8586079 0.1919232 0.47535035
vn 0.8742874 0.38007802 0.30193081
vn 0.56853586 0.73286825 0.37372595
vn 0.56853586 0.73286825 0.37372595
vn 0.6155746 0.77206725 0.15805084
vn 0.011911213 0.99942094 0.03187321
vn 0.0040714145 0.99942094 -0.03378151
vn 0.62341434 0.77206725 0.1235588
vn 0.027590752 0.99942094 -0.019912058
vn 0.06678969 0.93670267 -0.34369642
vn 0.6704531 0.72502846 -0.15756398
vn 0.082469225 0.93670267 -0.34027475
vn 0.11382836 0.7955865 -0.5950505
vn 0.71749175 0.6074317 -0.34092858
vn 0.13734776 0.7955865 -0.59006584
vn 0.1687069 0.48199517 -0.8597783
vn 0.18438643 0.48199517 -0.85655254
vn 0.18438643 -0.11382836 -0.9762401
vn 0.20790577 -0.11382836 -0.9715031
vn 0.7880498 -0.090309024 -0.60895133
vn 0.7645304 0.36439842 -0.53170204
vn 0.97620463 0.1840834 -0.1146202
vn 0.95268524 0.30168015 -0.037147302
vn 0.9996194 -0.027587866 -0
vn 0.98404443 -0.04327035 -0.1725811
vn 0.96052504 -0.2392649 -0.14192952
vn 0.98945624 -0.1448321 -0
vn 0.9370057 -0.3411821 -0.074933775
vn 0.98404443 -0.1530273 0.090770096
vn 0.98404443 -0.0040714145 0.17787632
vn 0.9996194 -0.027587866 -0
vn 0.98404443 0.0037683845 0.177883
vn 0.97620463 -0.1608671 0.14541756
vn 0.98404443 0.0037683845 0.177883
vn 0.97620463 -0.12166816 0.17950305
vn 0.9918842 0.09784573 0.08119117
vn 0.97620463 0.1840834 -0.1146202
vn 0.98404443 -0.04327035 -0.1725811
vn 0.9996194 -0.027587866 -0
vn 0.9918842 0.12136513 0.03789852
vn 0.98404443 -0.0040714145 0.17787632
vn 0.98404443 0.12920493 0.1223219
vn 0.95268524 0.30168015 -0.037147302
vn 0.98404443 0.0037683845 0.177883
vn 0.9282795 0.37188312 -0
vn 0.97620463 0.09784573 0.19352184
vn 0.98404443 0.0037683845 0.177883
vn 0.89780676 0.4035974 0.17621623
vn 0.98404443 0.0037683845 0.177883
vn 0.97620463 -0.12166816 0.17950305
vn 0.97620463 0.09784573 0.19352184
vn 0.89780676 0.4035974 0.17621623
vn 0.96052504 0.12920493 0.24636918
vn 0.8742874 0.38007802 0.30193081
vn 0.98404443 0.0037683845 0.177883
vn 0.97620463 -0.12166816 0.17950305
vn 0.98404443 0.0037683845 0.177883
vn 0.95268524 0.12920493 0.27513075
vn 0.96052504 -0.1608671 0.22696577
vn 0.8821272 -0.3960606 0.25492665
vn 0.89780676 -0.40390038 0.17552069
vn 0.89780676 -0.40390038 0.17552069
vn 0.97620463 -0.1608671 0.14541756
vn 0.92132616 -0.38822085 0.021039696
vn 0.98404443 -0.1530273 0.090770096
vn 0.9370057 -0.3411821 -0.074933775
vn 0.95268524 -0.1530273 0.26262802
vn 0.91348636 -0.027590752 0.40593275
vn 0.9291659 0.10568553 0.3542334
vn 0.92132616 -0.1451875 0.36066422
vn 0.8429283 -0.04327035 0.53628314
vn 0.8507681 -0.2471047 0.46382427
vn 0.9918842 0.12136513 0.03789852
vn 0.95268524 0.30168015 -0.037147302
vn 0.97620463 0.1840834 -0.1146202
vn 0.9918842 0.09784573 0.08119117
vn 0.9291659 0.10568553 0.3542334
vn 0.8586079 0.1919232 0.47535035
vn 0.8664476 0.30951995 0.39174727
vn 0.95268524 0.12920493 0.27513075
vn 0.95268524 0.12920493 0.27513075
vn 0.8742874 0.38007802 0.30193081
vn 0.91348636 -0.027590752 0.40593275
vn 0.8429283 -0.04327035 0.53628314
vn 0.8586079 0.1919232 0.47535035
vn 0.9291659 0.10568553 0.3542334
vn 0.95268524 -0.1530273 0.26262802
vn 0.8507681 -0.2471047 0.46382427
vn 0.92132616 -0.1451875 0.36066422
vn 0.8664476 -0.3568617 0.34916794
vn 0.96052504 -0.1608671 0.22696577
vn 0.8821272 -0.3960606 0.25492665
vn 0.98404443 -0.04327035 -0.1725811
vn 0.97620463 0.1840834 -0.1146202
vn 0.7645304 0.36439842 -0.53170204
vn 0.7880498 -0.090309024 -0.60895133
vn 0.95268524 0.30168015 -0.037147302
vn 0.6704531 0.72502846 -0.15756398
vn 0.71749175 0.6074317 -0.34092858
vn 0.9282795 0.37188312 -0
vn 0.62341434 0.77206725 0.1235588
vn 0.89780676 0.4035974 0.17621623
vn 0.6155746 0.77206725 0.15805084
vn 0.89780676 0.4035974 0.17621623
vn 0.8742874 0.38007802 0.30193081
vn 0.8586079 0.1919232 0.47535035
vn 0.8429283 -0.04327035 0.53628314
vn 0.5058176 -0.090309024 0.85790026
vn 0.51365733 0.37223822 0.77304256
vn 0.8429283 -0.04327035 0.53628314
vn 0.8507681 -0.2471047 0.46382427
vn 0.52149713 -0.46661866 0.7143583
vn 0.5058176 -0.090309024 0.85790026
vn 0.8821272 -0.3960606 0.25492665
vn 0.62341434 -0.7723702 0.1216504
vn 0.5842154 -0.7488509 0.31291324
vn 0.89780676 -0.40390038 0.17552069
vn 0.63125414 -0.7723702 0.07044462
vn 0.89780676 -0.40390038 0.17552069
vn 0.6626133 -0.7488509 -0.012884057
vn 0.92132616 -0.38822085 0.021039696
vn 0.6861326 -0.6861326 -0.24175204
vn 0.9370057 -0.3411821 -0.074933775
g ENV_SY02_HBS_S2_Support_A_0
f 3/3/3 2/2/2 1/1/1
f 4/4/4 3/3/3 1/1/1
f 5/5/5 3/3/3 4/4/4
f 4/4/4 1/1/1 6/6/6
f 1/1/1 7/7/7 6/6/6
f 8/8/8 5/5/5 4/4/4
f 9/9/9 5/5/5 8/8/8
f 6/6/6 7/7/7 10/10/10
f 7/7/7 11/11/11 10/10/10
f 6/6/6 10/10/10 12/12/12
f 13/13/13 6/6/6 12/12/12
f 4/4/4 6/6/6 13/13/13
f 8/8/8 4/4/4 13/13/13
f 13/13/13 14/14/14 8/8/8
f 15/15/15 9/9/9 8/8/8
f 14/14/14 15/15/15 8/8/8
f 16/16/16 9/9/9 15/15/15
f 15/15/15 14/14/14 17/17/17
f 18/18/18 16/16/16 15/15/15
f 18/18/18 15/15/15 17/17/17
f 19/19/19 16/16/16 18/18/18
f 18/18/18 17/17/17 20/20/20
f 21/21/21 19/19/19 18/18/18
f 21/21/21 18/18/18 20/20/20
f 22/22/22 19/19/19 21/21/21
f 21/21/21 20/20/20 23/23/23
f 24/24/24 22/22/22 21/21/21
f 24/24/24 21/21/21 23/23/23
f 25/25/25 22/22/22 24/24/24
f 26/26/26 25/25/25 24/24/24
f 27/27/27 25/25/25 26/26/26
f 24/24/24 23/23/23 28/28/28
f 26/26/26 24/24/24 28/28/28
f 29/29/29 27/27/27 26/26/26
f 30/30/30 27/27/27 29/29/29
f 31/31/31 30/30/30 29/29/29
f 31/31/31 29/29/29 32/32/32
f 29/29/29 33/33/33 32/32/32
f 29/29/29 26/26/26 33/33/33
f 26/26/26 28/28/28 33/33/33
f 33/33/33 28/28/28 34/34/34
f 28/28/28 35/35/35 34/34/34
f 28/28/28 23/23/23 35/35/35
f 23/23/23 36/36/36 35/35/35
f 39/39/39 38/38/38 37/37/37
f 40/40/40 39/39/39 37/37/37
f 41/41/41 39/39/39 40/40/40
f 40/40/40 37/37/37 42/42/42
f 37/37/37 43/43/43 42/42/42
f 44/44/44 41/41/41 40/40/40
f 45/45/45 41/41/41 44/44/44
f 40/40/40 42/42/42 46/46/46
f 44/44/44 40/40/40 46/46/46
f 47/47/47 45/45/45 44/44/44
f 48/48/48 45/45/45 47/47/47
f 46/46/46 42/42/42 49/49/49
f 42/42/42 50/50/50 49/49/49
f 46/46/46 49/49/49 51/51/51
f 52/52/52 46/46/46 51/51/51
f 44/44/44 46/46/46 53/53/53
f 47/47/47 44/44/44 53/53/53
f 47/47/47 53/53/53 54/54/54
f 55/55/55 48/48/48 47/47/47
f 55/55/55 47/47/47 54/54/54
f 56/56/56 48/48/48 55/55/55
f 55/55/55 54/54/54 57/57/57
f 58/58/58 56/56/56 55/55/55
f 58/58/58 55/55/55 57/57/57
f 59/59/59 56/56/56 58/58/58
f 58/58/58 57/57/57 60/60/60
f 61/61/61 59/59/59 58/58/58
f 61/61/61 58/58/58 60/60/60
f 62/62/62 59/59/59 61/61/61
f 61/61/61 60/60/60 63/63/63
f 64/64/64 62/62/62 61/61/61
f 64/64/64 61/61/61 63/63/63
f 65/65/65 62/62/62 64/64/64
f 66/66/66 65/65/65 64/64/64
f 67/67/67 65/65/65 66/66/66
f 68/68/68 67/67/67 66/66/66
f 68/68/68 66/66/66 69/69/69
f 66/66/66 70/70/70 69/69/69
f 66/66/66 64/64/64 70/70/70
f 64/64/64 63/63/63 70/70/70
f 70/70/70 63/63/63 71/71/71
f 63/63/63 72/72/72 71/71/71
f 75/75/75 74/74/74 73/73/73
f 76/76/76 75/75/75 73/73/73
f 77/77/77 75/75/75 76/76/76
f 78/78/78 77/77/77 76/76/76
f 79/79/79 78/78/78 76/76/76
f 80/80/80 79/79/79 76/76/76
f 79/79/79 81/81/81 78/78/78
f 81/81/81 82/82/82 78/78/78
f 81/81/81 83/83/83 82/82/82
f 83/83/83 84/84/84 82/82/82
f 87/87/87 86/86/86 85/85/85
f 88/88/88 87/87/87 85/85/85
f 88/88/88 85/85/85 89/89/89
f 90/90/90 88/88/88 89/89/89
f 90/90/90 89/89/89 91/91/91
f 89/89/89 92/92/92 91/91/91
f 93/93/93 90/90/90 91/91/91
f 92/92/92 94/94/94 91/91/91
f 93/93/93 91/91/91 95/95/95
f 91/91/91 94/94/94 95/95/95
f 96/96/96 93/93/93 95/95/95
f 94/94/94 97/97/97 95/95/95
f 96/96/96 95/95/95 98/98/98
f 96/96/96 98/98/98 99/99/99
f 95/95/95 97/97/97 100/100/100
f 95/95/95 100/100/100 98/98/98
f 97/97/97 101/101/101 100/100/100
f 100/100/100 101/101/101 102/102/102
f 101/101/101 103/103/103 102/102/102
f 98/98/98 100/100/100 104/104/104
f 100/100/100 102/102/102 104/104/104
f 98/98/98 105/105/105 99/99/99
f 98/98/98 104/104/104 105/105/105
f 104/104/104 102/102/102 106/106/106
f 102/102/102 107/107/107 106/106/106
f 104/104/104 108/108/108 105/105/105
f 104/104/104 106/106/106 108/108/108
f 108/108/108 109/109/109 105/105/105
f 109/109/109 110/110/110 105/105/105
f 105/105/105 110/110/110 99/99/99
f 110/110/110 111/111/111 99/99/99
f 99/99/99 111/111/111 112/112/112
f 111/111/111 113/113/113 112/112/112
f 112/112/112 113/113/113 114/114/114
f 113/113/113 115/115/115 114/114/114
f 106/106/106 116/116/116 108/108/108
f 106/106/106 107/107/107 117/117/117
f 106/106/106 117/117/117 116/116/116
f 107/107/107 118/118/118 117/117/117
f 117/117/117 119/119/119 116/116/116
f 117/117/117 120/120/120 119/119/119
f 120/120/120 121/121/121 119/119/119
f 124/124/124 123/123/123 122/122/122
f 125/125/125 124/124/124 122/122/122
f 128/128/128 127/127/127 126/126/126
f 129/129/129 128/128/128 126/126/126
f 131/131/131 128/128/128 130/130/130
f 102/102/102 131/131/131 130/130/130
f 134/134/134 133/133/133 132/132/132
f 135/135/135 134/134/134 132/132/132
f 138/138/138 137/137/137 136/136/136
f 137/137/137 139/139/139 136/136/136
f 136/136/136 139/139/139 140/140/140
f 139/139/139 141/141/141 140/140/140
f 144/144/144 143/143/143 142/142/142
f 145/145/145 144/144/144 142/142/142
f 148/148/148 147/147/147 146/146/146
f 147/147/147 149/149/149 146/146/146
f 147/147/147 150/150/150 149/149/149
f 150/150/150 151/151/151 149/149/149
f 150/150/150 152/152/152 151/151/151
f 152/152/152 153/153/153 151/151/151
f 152/152/152 52/52/52 153/153/153
f 52/52/52 154/154/154 153/153/153
f 157/157/157 156/156/156 155/155/155
f 158/158/158 157/157/157 155/155/155
f 161/161/161 160/160/160 159/159/159
f 162/162/162 161/161/161 159/159/159
f 165/165/165 164/164/164 163/163/163
f 164/164/164 166/166/166 163/163/163
f 164/164/164 167/167/167 166/166/166
f 167/167/167 168/168/168 166/166/166
f 167/167/167 169/169/169 168/168/168
f 169/169/169 170/170/170 168/168/168
f 170/170/170 169/169/169 171/171/171
f 172/172/172 170/170/170 171/171/171
