g ENV_S09_BBR_StripeDecal_MO
v -2.3546913 2.8435934E-07 0.22874591
v -2.3546913 2.8435934E-07 -0.22874676
v -2.0146706 2.8435934E-07 -0.22874676
v -2.0146706 2.8435934E-07 0.22874591
v 1.9796581 2.8435934E-07 -0.22874676
v 1.9796581 2.8435934E-07 0.22874591
v 2.3196795 2.8435934E-07 0.22874591
v 2.3196795 2.8435934E-07 -0.22874676
vt 8.87566E-07 0.34983557
vt 9.206356E-07 0.3950589
vt 0.033610873 0.395059
vt 0.033610765 0.34983566
vt 0.3023554 0.39505967
vt 0.30235538 0.34983635
vt 0.3359653 0.34983644
vt 0.33596534 0.39505976
vn -0 1 0
vn -0 1 0
vn -0 1 0
vn -0 1 0
vn -0 1 0
vn -0 1 0
vn -0 1 0
vn -0 1 0
g ENV_S09_BBR_StripeDecal_MO_0
f 3/3/3 2/2/2 1/1/1
f 4/4/4 3/3/3 1/1/1
f 5/5/5 3/3/3 4/4/4
f 6/6/6 5/5/5 4/4/4
f 6/6/6 7/7/7 5/5/5
f 7/7/7 8/8/8 5/5/5
