g ENV_SY02_TEST_CentralStruct_Platform_MO
v -3.0025773 4.204177 5.2136936
v -2.9247952 2.995356 5.07773
v -2.880643 2.9988637 5.034197
v -2.9582186 4.2089224 5.16459
v -3.0370326 4.288355 5.266099
v -2.8195724 3.0003076 5.014597
v -2.9928803 4.3283806 5.2258673
v -3.0634413 4.3116693 5.3098383
v -2.9002433 4.2165565 5.145196
v -2.6984634 3.0019584 4.995822
v -2.7681994 4.2151117 5.126628
v -2.5872579 3.0019584 4.996234
v -2.6497726 4.2165565 5.127453
v 2.5874197 3.0019584 4.996234
v -3.0256848 4.369438 5.286731
v -2.9365554 4.3403473 5.2070923
v -2.7981157 4.3312693 5.1881104
v -3.06633 4.3861504 5.359768
v -3.093564 4.3190966 5.360593
v -2.9759622 4.391514 5.275796
v -2.8350468 4.387388 5.264655
v -2.6782446 4.324873 5.1885233
v -3.0236216 4.4137964 5.359149
v -2.7166195 4.3851185 5.26548
v -2.8812618 4.4129715 5.3560543
v 2.6781998 4.324873 5.1885233
v 2.7165751 4.3851185 5.26548
v 2.6497278 4.2165565 5.127453
v 2.768361 4.2151117 5.126628
v 2.6986253 3.0019584 4.995822
v 2.819528 3.0003076 5.014597
v 2.798071 4.3312693 5.1881104
v 2.9001987 4.2165565 5.145196
v 2.9581742 4.2089224 5.16459
v 2.8808048 2.9988637 5.034197
v 3.0025327 4.204177 5.2136936
v 2.9247506 2.995356 5.07773
v 3.0369878 4.288355 5.266099
v 2.9928358 4.3283806 5.2258673
v 2.9365108 4.3403473 5.2070923
v 2.835002 4.387388 5.264655
v 3.0258467 4.369438 5.286731
v 3.0633967 4.3116693 5.3098383
v 2.9759176 4.391514 5.275796
v 3.0237837 4.4137964 5.359149
v 3.0662851 4.3861504 5.359768
v 3.0935192 4.3190966 5.360593
v 2.7636158 4.4142094 5.357704
v 2.8814237 4.4129715 5.3560543
v -2.7636604 4.4142094 5.357704
v 4.3611407 4.4142094 8.540582
v -4.361185 4.4142094 8.540582
v 4.564571 4.4129715 8.493542
v -4.5644093 4.4129715 8.493542
v 4.413752 4.379548 8.63033
v -4.4137964 4.379548 8.63033
v 4.7475758 4.4142094 8.411633
v 4.8063765 4.387594 8.387493
v 4.8263893 4.323429 8.370163
v 4.615532 4.3781033 8.583702
v 4.797092 4.379548 8.502207
v 4.8478465 4.3560276 8.460943
v 4.847434 4.3019724 8.405443
v 4.854449 4.259677 8.416791
v 4.8608446 4.2708178 8.485289
v 4.8546553 2.5641503 8.41741
v 4.8115344 4.275769 8.5331545
v 4.431289 4.275769 8.660247
v 4.8608446 2.553009 8.485495
v 4.631418 4.2743254 8.614032
v 4.8501163 2.516697 8.409776
v 4.824326 2.572403 8.366449
v 4.8284526 2.4977155 8.373258
v 3.068142 2.972661 5.3178854
v 4.848672 2.4661489 8.462387
v 4.8115344 2.5482635 8.5331545
v 4.631418 2.5482635 8.614032
v 3.0683484 2.8707395 5.3185043
v -2.2411346E-05 3.691269 2.2411346E-05
v 4.797092 2.4442792 8.502207
v 4.8069954 2.4356136 8.388525
v 3.0485418 2.7999725 5.3189163
v -2.2411346E-05 3.5542736 0.023542404
v 4.747782 2.4096174 8.411633
v 3.0017076 2.771294 5.320154
v -2.2411346E-05 3.5117712 0.098642826
v 2.8354146 2.7752142 5.323249
v 4.5647774 2.4096174 8.493542
v 4.615532 2.4442792 8.583702
v 4.413752 2.4442792 8.63033
v 4.3611407 2.4096174 8.540582
v -4.4137964 2.4442792 8.63033
v 4.431289 2.5482635 8.660247
v -4.4311275 2.5482635 8.660247
v 2.7198763 2.77769 5.3271694
v -2.7199206 2.77769 5.3271694
v -4.361185 2.4096174 8.540582
v -2.8354592 2.7752142 5.323249
v -4.4311275 4.275769 8.660247
v -4.6155767 4.3781033 8.583702
v -4.631463 4.2743254 8.614032
v -4.631463 2.5482635 8.614032
v -4.5646152 2.4096174 8.493542
v -3.001752 2.771294 5.320154
v -2.2411346E-05 3.5542736 0.023542404
v -4.8115788 4.275769 8.5331545
v -4.7969303 4.379548 8.502207
v -4.7478266 2.4096174 8.411633
v -3.0485864 2.7999725 5.3189163
v -2.2411346E-05 3.691269 2.2411346E-05
v -4.6155767 2.4442792 8.583702
v -4.7969303 2.4442792 8.502207
v -3.0683928 2.8707395 5.3185043
v -3.0681868 2.972661 5.3178854
v -4.80704 2.4356136 8.388525
v -4.828497 2.4977155 8.373258
v -4.8241644 2.572403 8.366449
v -4.8115788 2.5482635 8.5331545
v -4.8487167 2.4661489 8.462387
v -4.8501606 2.516697 8.409776
v -4.8547 2.5641503 8.41741
v -4.8608894 2.553009 8.485495
v -4.8606825 4.2708178 8.485289
v -4.854287 4.259677 8.416791
v -4.847891 4.3560276 8.460943
v -4.847479 4.3019724 8.405443
v -4.7474136 4.4142094 8.411633
v -4.8062143 4.387594 8.387493
v -4.826434 4.323429 8.370163
v -3.0865488 4.221508 5.349039
v -3.0370326 4.288355 5.266099
v -3.0634413 4.3116693 5.3098383
v -3.0025773 4.204177 5.2136936
v -3.0681868 2.972661 5.3178854
v -2.9247952 2.995356 5.07773
v -4.8241644 2.572403 8.366449
v -4.8231325 4.259677 8.364593
v -4.847479 4.3019724 8.405443
v -4.8547 2.5641503 8.41741
v -4.854287 4.259677 8.416791
v 3.0633967 4.3116693 5.3098383
v 3.0369878 4.288355 5.266099
v 3.0865045 4.221508 5.349039
v 3.0025327 4.204177 5.2136936
v 3.068142 2.972661 5.3178854
v 2.9247506 2.995356 5.07773
v 4.824326 2.572403 8.366449
v 4.8232946 4.251837 8.364593
v 4.847434 4.3019724 8.405443
v 4.8546553 2.5641503 8.41741
v 4.854449 4.259677 8.416791
vt 0.013528868 0.9527715
vt 0.010674027 0.9527715
vt 0.010674027 0.9527715
vt 0.013528868 0.9537231
vt 0.014480481 0.9527715
vt 0.010674027 0.9537231
vt 0.014480481 0.9527715
vt 0.014480481 0.9527715
vt 0.013528868 0.9537231
vt 0.010674027 0.9537231
vt 0.013528868 0.9537231
vt 0.010674027 0.9537231
vt 0.013528868 0.9546747
vt 0.010674027 0.9746586
vt 0.014480481 0.9527715
vt 0.014480481 0.9537231
vt 0.014480481 0.9537231
vt 0.014480481 0.9527715
vt 0.014480481 0.9527715
vt 0.014480481 0.9537231
vt 0.014480481 0.9537231
vt 0.013528868 0.9546747
vt 0.014480481 0.9527715
vt 0.014480481 0.9546747
vt 0.014480481 0.9537231
vt 0.013528868 0.97370696
vt 0.014480481 0.9746586
vt 0.013528868 0.97370696
vt 0.013528868 0.9746586
vt 0.010674027 0.9746586
vt 0.010674027 0.9746586
vt 0.014480481 0.9746586
vt 0.013528868 0.9746586
vt 0.013528868 0.9746586
vt 0.010674027 0.9756102
vt 0.013528868 0.9756102
vt 0.010674027 0.9756102
vt 0.014480481 0.9756102
vt 0.014480481 0.9756102
vt 0.014480481 0.9746586
vt 0.014480481 0.9746586
vt 0.014480481 0.9756102
vt 0.014480481 0.9756102
vt 0.014480481 0.9746586
vt 0.014480481 0.9756102
vt 0.014480481 0.9756102
vt 0.014480481 0.9756102
vt 0.014480481 0.9746586
vt 0.014480481 0.9746586
vt 0.014480481 0.9537231
vt 0.025899844 0.978465
vt 0.025899844 0.9499166
vt 0.025899844 0.97941667
vt 0.025899844 0.948965
vt 0.025899844 0.978465
vt 0.025899844 0.9499166
vt 0.025899844 0.97941667
vt 0.025899844 0.98036826
vt 0.025899844 0.98036826
vt 0.025899844 0.97941667
vt 0.025899844 0.97941667
vt 0.025899844 0.98036826
vt 0.025899844 0.98036826
vt 0.025899844 0.98036826
vt 0.025899844 0.98036826
vt 0.030657914 0.98036826
vt 0.025899844 0.98036826
vt 0.025899844 0.978465
vt 0.030657914 0.98036826
vt 0.025899844 0.97941667
vt 0.030657914 0.98036826
vt 0.030657914 0.98036826
vt 0.030657914 0.98036826
vt 0.041125663 0.9756102
vt 0.030657914 0.97941667
vt 0.030657914 0.97941667
vt 0.0297063 0.97941667
vt 0.041125663 0.9746586
vt 0.059206318 0.96419084
vt 0.030657914 0.97941667
vt 0.030657914 0.97941667
vt 0.041125663 0.9746586
vt 0.059206318 0.96419084
vt 0.030657914 0.97941667
vt 0.041125663 0.9746586
vt 0.058254708 0.96419084
vt 0.041125663 0.97370696
vt 0.030657914 0.978465
vt 0.030657914 0.97941667
vt 0.030657914 0.978465
vt 0.030657914 0.978465
vt 0.030657914 0.9499166
vt 0.0297063 0.978465
vt 0.0297063 0.9499166
vt 0.041125663 0.97370696
vt 0.041125663 0.9546747
vt 0.030657914 0.9499166
vt 0.041125663 0.9546747
vt 0.025899844 0.9499166
vt 0.025899844 0.948965
vt 0.025899844 0.948965
vt 0.0297063 0.948965
vt 0.030657914 0.9499166
vt 0.041125663 0.9537231
vt 0.059206318 0.96419084
vt 0.025899844 0.948965
vt 0.025899844 0.948965
vt 0.030657914 0.948965
vt 0.041125663 0.9537231
vt 0.059206318 0.96419084
vt 0.030657914 0.948965
vt 0.030657914 0.948965
vt 0.041125663 0.9537231
vt 0.041125663 0.9537231
vt 0.030657914 0.948965
vt 0.030657914 0.9480134
vt 0.030657914 0.9480134
vt 0.030657914 0.948965
vt 0.030657914 0.948965
vt 0.030657914 0.9480134
vt 0.030657914 0.9480134
vt 0.030657914 0.9480134
vt 0.025899844 0.9480134
vt 0.025899844 0.9480134
vt 0.025899844 0.9480134
vt 0.025899844 0.9480134
vt 0.025899844 0.948965
vt 0.025899844 0.9480134
vt 0.025899844 0.9480134
vt 0.014480481 0.9527715
vt 0.014480481 0.9527715
vt 0.014480481 0.9527715
vt 0.014480481 0.9527715
vt 0.013528868 0.9499166
vt 0.012577254 0.9499166
vt 0.023996618 0.94420695
vt 0.025899844 0.9480134
vt 0.025899844 0.9480134
vt 0.024948232 0.94420695
vt 0.025899844 0.9480134
vt 0.014480481 0.9756102
vt 0.014480481 0.9756102
vt 0.014480481 0.9756102
vt 0.014480481 0.9756102
vt 0.013528868 0.978465
vt 0.012577254 0.978465
vt 0.023996618 0.9841747
vt 0.025899844 0.98036826
vt 0.025899844 0.98036826
vt 0.024948232 0.9841747
vt 0.025899844 0.98036826
vn -0.8277481 0.013502777 -0.56093735
vn -0.8277481 0.0056735873 -0.56107116
vn -0.53023547 0.06047851 -0.84569067
vn -0.5380648 0.076137125 -0.8394578
vn -0.796431 0.09962493 -0.5964667
vn -0.20140558 0.09179562 -0.9751971
vn -0.5615526 0.35016197 -0.7496968
vn -0.8277481 0.14660066 -0.5416099
vn -0.20140558 0.13094205 -0.97071624
vn -0.076137125 0.09962493 -0.99210787
vn -0.076137125 0.13877136 -0.9873934
vn 0.0021557212 0.10745424 -0.9942077
vn 0.0021557212 0.14660066 -0.9891934
vn 0.0021557212 0.10745424 -0.9942077
vn -0.6241868 0.53023547 -0.5737954
vn -0.15442985 0.5928697 -0.7903524
vn -0.036990702 0.600699 -0.7986191
vn -0.63984543 0.67899185 -0.35995543
vn -0.85123605 0.17008847 -0.49645454
vn -0.11528355 0.89038247 -0.44037345
vn 0.0021557212 0.89038247 -0.4552081
vn 0.0021557212 0.66333324 -0.748321
vn -0.06036867 0.9981761 -0
vn 0.0021557212 0.90604097 -0.4231845
vn -0.00567354 0.99998397 -0
vn 0.0021557212 0.66333324 -0.748321
vn 0.0021557212 0.90604097 -0.4231845
vn 0.0021557212 0.14660066 -0.9891934
vn 0.07261926 0.13877136 -0.9876583
vn 0.07261926 0.09962493 -0.99237156
vn 0.19788778 0.09179562 -0.975917
vn 0.033472896 0.600699 -0.79877424
vn 0.19788778 0.13094205 -0.9714394
vn 0.5345469 0.076137125 -0.8417023
vn 0.52671766 0.06047851 -0.84788615
vn 0.8320596 0.013502777 -0.55452186
vn 0.8242304 0.0056735873 -0.56622624
vn 0.8007425 0.09962493 -0.590666
vn 0.5580348 0.35016197 -0.7523189
vn 0.15874135 0.5928697 -0.78949773
vn 0.0021557212 0.89038247 -0.4552081
vn 0.6284983 0.53023547 -0.5690696
vn 0.8320596 0.14660066 -0.53496265
vn 0.11176568 0.89038247 -0.44127938
vn 0.06465495 0.99790764 -0
vn 0.6363276 0.67899185 -0.36613825
vn 0.8555475 0.16225916 -0.4916406
vn 0.0021557212 0.9999923 -0.0032754901
vn 0.0021557212 0.9999923 -0.0032754901
vn 0.0021557212 0.9999923 -0.0032754901
vn 0.0021557212 0.9999923 0.0032754901
vn 0.0021557212 0.9999923 0.0032754901
vn 0.0021557212 0.9999923 0.0032754901
vn -0.00567354 0.99998397 -0
vn 0.0021557212 0.5693819 0.8220703
vn -0.0056735873 0.5693819 0.82205355
vn 0.11959499 0.9921631 -0.036185563
vn 0.675474 0.6241868 -0.3925885
vn 0.8555475 0.17008847 -0.48898715
vn 0.2292049 0.68682104 0.68974054
vn 0.37013197 0.70247966 0.60788536
vn 0.8085718 0.54589397 0.21957093
vn 0.9416696 0.20140558 -0.26961863
vn 0.96515745 0.0056735873 -0.26160827
vn 0.926011 0.013502777 0.37725487
vn 0.96515745 -0.0021557212 -0.2616609
vn 0.48757124 0.021332085 0.8728225
vn 0.0021557212 0.013502777 0.9999065
vn 0.926011 -0.00998503 0.37736437
vn 0.31532705 0.021332085 0.9487432
vn 0.9494989 -0.19788778 -0.24350005
vn 0.86337674 -0.0021557212 -0.5045552
vn 0.84771824 -0.15874135 -0.5061373
vn 0.86337674 -0.0021557212 -0.5045552
vn 0.7929132 -0.55020547 0.2618446
vn 0.48757124 -0.017814279 0.87290144
vn 0.31532705 -0.017814279 0.9488158
vn 0.8555475 -0.11176568 -0.5055165
vn 0.0021557212 -0.26052207 -0.9654655
vn 0.37013197 -0.69896185 0.611927
vn 0.6519861 -0.620669 -0.43552738
vn 0.7459375 -0.44842482 -0.4924352
vn 0.0021557212 -0.4171077 -0.90885454
vn 0.08827782 -0.98864526 -0.12160434
vn 0.13525355 -0.9729867 -0.18709186
vn 0.0021557212 -0.98864526 -0.15025283
vn -0.029161394 -0.99647456 -0.078664064
vn -0.021332085 -0.99647456 -0.08113774
vn 0.2292049 -0.68330324 0.6932257
vn 0.0021557212 -0.5658641 0.82449573
vn 0.0021557212 -0.99647456 -0.08386755
vn -0.0056735873 -0.5658641 0.824479
vn 0.0021557212 -0.017814279 0.999839
vn -0.0056735873 -0.017814279 0.99982524
vn 0.0021557212 -0.99647456 -0.08386755
vn 0.0021557212 -0.99647456 -0.08386755
vn 0.0021557212 -0.99647456 -0.08386755
vn 0.025643587 -0.99647456 -0.07987989
vn -0.0056735873 0.013502777 0.9998927
vn -0.2327227 0.68682104 0.68856156
vn -0.31884485 0.021332085 0.9475668
vn -0.31884485 -0.017814279 0.9476395
vn 0.025643587 -0.99647456 -0.07987989
vn -0.13877136 -0.9729867 -0.18449764
vn 0.0021557212 -0.4171077 -0.90885454
vn -0.48325974 0.021332085 0.8752171
vn -0.37364978 0.70247966 0.60572946
vn -0.083966315 -0.98864526 -0.12462034
vn -0.7494554 -0.44842482 -0.48706448
vn 0.0021557212 -0.26052207 -0.9654655
vn -0.2327227 -0.68330324 0.6920526
vn -0.37364978 -0.69896185 0.6097853
vn -0.85123605 -0.11176568 -0.51274323
vn -0.86689454 -0.0021557212 -0.4984869
vn -0.6555039 -0.620669 -0.43021458
vn -0.85123605 -0.15874135 -0.5001983
vn -0.86689454 -0.0021557212 -0.4984869
vn -0.48325974 -0.017814279 0.8752958
vn -0.796431 -0.55020547 0.2509415
vn -0.9451874 -0.19788778 -0.25973296
vn -0.960846 -0.0021557212 -0.27707455
vn -0.9216996 -0.00998503 0.38777596
vn -0.9216996 0.013502777 0.3876694
vn -0.960846 0.0056735873 -0.27702487
vn -0.8042603 0.54589397 0.23487255
vn -0.9451874 0.20140558 -0.25701475
vn -0.12311274 0.9921631 -0.021345207
vn -0.67899185 0.6241868 -0.38647234
vn -0.85123605 0.17791778 -0.4937028
vn -0.86689454 -0.0021557212 -0.4984869
vn -0.796431 0.09962493 -0.5964667
vn -0.8277481 0.14660066 -0.5416099
vn -0.8277481 0.013502777 -0.56093735
vn -0.86689454 -0.0021557212 -0.4984869
vn -0.8277481 0.0056735873 -0.56107116
vn -0.86689454 -0.0021557212 -0.4984869
vn -0.86689454 -0.0021557212 -0.4984869
vn -0.9451874 0.20140558 -0.25701475
vn -0.960846 -0.0021557212 -0.27707455
vn -0.960846 0.0056735873 -0.27702487
vn 0.8320596 0.14660066 -0.53496265
vn 0.8007425 0.09962493 -0.590666
vn 0.86337674 -0.0021557212 -0.5045552
vn 0.8320596 0.013502777 -0.55452186
vn 0.86337674 -0.0021557212 -0.5045552
vn 0.8242304 0.0056735873 -0.56622624
vn 0.86337674 -0.0021557212 -0.5045552
vn 0.86337674 -0.0021557212 -0.5045552
vn 0.9416696 0.20140558 -0.26961863
vn 0.96515745 -0.0021557212 -0.2616609
vn 0.96515745 0.0056735873 -0.26160827
g ENV_SY02_TEST_CentralStruct_Platform_MO_0
f 3/3/3 2/2/2 1/1/1
f 4/4/4 3/3/3 1/1/1
f 4/4/4 1/1/1 5/5/5
f 6/6/6 3/3/3 4/4/4
f 7/7/7 4/4/4 5/5/5
f 7/7/7 5/5/5 8/8/8
f 9/9/9 6/6/6 4/4/4
f 9/9/9 4/4/4 7/7/7
f 6/6/6 9/9/9 10/10/10
f 9/9/9 11/11/11 10/10/10
f 12/12/12 10/10/10 11/11/11
f 13/13/13 12/12/12 11/11/11
f 14/14/14 12/12/12 13/13/13
f 15/15/15 7/7/7 8/8/8
f 16/16/16 9/9/9 7/7/7
f 7/7/7 15/15/15 16/16/16
f 17/17/17 11/11/11 9/9/9
f 16/16/16 17/17/17 9/9/9
f 15/15/15 8/8/8 18/18/18
f 8/8/8 19/19/19 18/18/18
f 15/15/15 20/20/20 16/16/16
f 15/15/15 18/18/18 20/20/20
f 20/20/20 21/21/21 16/16/16
f 21/21/21 17/17/17 16/16/16
f 17/17/17 22/22/22 11/11/11
f 22/22/22 13/13/13 11/11/11
f 18/18/18 23/23/23 20/20/20
f 20/20/20 23/23/23 21/21/21
f 21/21/21 24/24/24 17/17/17
f 24/24/24 22/22/22 17/17/17
f 23/23/23 25/25/25 21/21/21
f 21/21/21 25/25/25 24/24/24
f 22/22/22 26/26/26 13/13/13
f 22/22/22 24/24/24 27/27/27
f 26/26/26 22/22/22 27/27/27
f 26/26/26 28/28/28 13/13/13
f 28/28/28 14/14/14 13/13/13
f 14/14/14 28/28/28 29/29/29
f 28/28/28 26/26/26 29/29/29
f 30/30/30 14/14/14 29/29/29
f 30/30/30 29/29/29 31/31/31
f 26/26/26 32/32/32 29/29/29
f 26/26/26 27/27/27 32/32/32
f 29/29/29 33/33/33 31/31/31
f 29/29/29 32/32/32 33/33/33
f 31/31/31 33/33/33 34/34/34
f 35/35/35 31/31/31 34/34/34
f 35/35/35 34/34/34 36/36/36
f 37/37/37 35/35/35 36/36/36
f 36/36/36 34/34/34 38/38/38
f 34/34/34 33/33/33 39/39/39
f 34/34/34 39/39/39 38/38/38
f 32/32/32 40/40/40 33/33/33
f 33/33/33 40/40/40 39/39/39
f 27/27/27 41/41/41 32/32/32
f 40/40/40 32/32/32 41/41/41
f 38/38/38 39/39/39 42/42/42
f 43/43/43 38/38/38 42/42/42
f 39/39/39 40/40/40 44/44/44
f 44/44/44 40/40/40 41/41/41
f 42/42/42 39/39/39 44/44/44
f 42/42/42 44/44/44 45/45/45
f 44/44/44 41/41/41 45/45/45
f 43/43/43 42/42/42 46/46/46
f 46/46/46 42/42/42 45/45/45
f 47/47/47 43/43/43 46/46/46
f 27/27/27 48/48/48 41/41/41
f 27/27/27 24/24/24 48/48/48
f 41/41/41 49/49/49 45/45/45
f 48/48/48 49/49/49 41/41/41
f 24/24/24 50/50/50 48/48/48
f 25/25/25 50/50/50 24/24/24
f 49/49/49 48/48/48 51/51/51
f 51/51/51 48/48/48 50/50/50
f 50/50/50 25/25/25 52/52/52
f 52/52/52 51/51/51 50/50/50
f 53/53/53 49/49/49 51/51/51
f 45/45/45 49/49/49 53/53/53
f 25/25/25 54/54/54 52/52/52
f 25/25/25 23/23/23 54/54/54
f 55/55/55 51/51/51 52/52/52
f 51/51/51 55/55/55 53/53/53
f 56/56/56 52/52/52 54/54/54
f 56/56/56 55/55/55 52/52/52
f 57/57/57 45/45/45 53/53/53
f 45/45/45 57/57/57 58/58/58
f 46/46/46 45/45/45 58/58/58
f 46/46/46 58/58/58 59/59/59
f 47/47/47 46/46/46 59/59/59
f 55/55/55 60/60/60 53/53/53
f 57/57/57 53/53/53 61/61/61
f 53/53/53 60/60/60 61/61/61
f 62/62/62 58/58/58 57/57/57
f 61/61/61 62/62/62 57/57/57
f 63/63/63 59/59/59 58/58/58
f 62/62/62 63/63/63 58/58/58
f 64/64/64 63/63/63 62/62/62
f 65/65/65 64/64/64 62/62/62
f 65/65/65 62/62/62 61/61/61
f 64/64/64 65/65/65 66/66/66
f 67/67/67 65/65/65 61/61/61
f 61/61/61 60/60/60 67/67/67
f 55/55/55 68/68/68 60/60/60
f 68/68/68 55/55/55 56/56/56
f 65/65/65 69/69/69 66/66/66
f 65/65/65 67/67/67 69/69/69
f 68/68/68 70/70/70 60/60/60
f 60/60/60 70/70/70 67/67/67
f 71/71/71 66/66/66 69/69/69
f 72/72/72 66/66/66 71/71/71
f 72/72/72 71/71/71 73/73/73
f 72/72/72 73/73/73 74/74/74
f 75/75/75 71/71/71 69/69/69
f 73/73/73 71/71/71 75/75/75
f 67/67/67 76/76/76 69/69/69
f 75/75/75 69/69/69 76/76/76
f 67/67/67 70/70/70 77/77/77
f 76/76/76 67/67/67 77/77/77
f 73/73/73 78/78/78 74/74/74
f 74/74/74 78/78/78 79/79/79
f 80/80/80 75/75/75 76/76/76
f 76/76/76 77/77/77 80/80/80
f 81/81/81 73/73/73 75/75/75
f 73/73/73 81/81/81 78/78/78
f 81/81/81 75/75/75 80/80/80
f 78/78/78 82/82/82 79/79/79
f 81/81/81 82/82/82 78/78/78
f 82/82/82 83/83/83 79/79/79
f 81/81/81 84/84/84 82/82/82
f 84/84/84 81/81/81 80/80/80
f 82/82/82 85/85/85 83/83/83
f 84/84/84 85/85/85 82/82/82
f 85/85/85 86/86/86 83/83/83
f 85/85/85 84/84/84 87/87/87
f 85/85/85 87/87/87 86/86/86
f 84/84/84 80/80/80 88/88/88
f 84/84/84 88/88/88 87/87/87
f 77/77/77 89/89/89 80/80/80
f 80/80/80 89/89/89 88/88/88
f 90/90/90 89/89/89 77/77/77
f 88/88/88 89/89/89 90/90/90
f 87/87/87 88/88/88 91/91/91
f 91/91/91 88/88/88 90/90/90
f 90/90/90 92/92/92 91/91/91
f 93/93/93 90/90/90 77/77/77
f 92/92/92 90/90/90 93/93/93
f 77/77/77 70/70/70 93/93/93
f 70/70/70 68/68/68 93/93/93
f 94/94/94 93/93/93 68/68/68
f 94/94/94 92/92/92 93/93/93
f 86/86/86 87/87/87 95/95/95
f 95/95/95 87/87/87 91/91/91
f 95/95/95 91/91/91 96/96/96
f 95/95/95 96/96/96 86/86/86
f 91/91/91 97/97/97 96/96/96
f 92/92/92 97/97/97 91/91/91
f 98/98/98 86/86/86 96/96/96
f 98/98/98 96/96/96 97/97/97
f 99/99/99 94/94/94 68/68/68
f 99/99/99 68/68/68 56/56/56
f 99/99/99 56/56/56 100/100/100
f 100/100/100 56/56/56 54/54/54
f 99/99/99 101/101/101 94/94/94
f 101/101/101 99/99/99 100/100/100
f 101/101/101 102/102/102 94/94/94
f 92/92/92 94/94/94 102/102/102
f 103/103/103 97/97/97 92/92/92
f 103/103/103 98/98/98 97/97/97
f 98/98/98 104/104/104 86/86/86
f 86/86/86 104/104/104 105/105/105
f 101/101/101 100/100/100 106/106/106
f 101/101/101 106/106/106 102/102/102
f 100/100/100 54/54/54 107/107/107
f 100/100/100 107/107/107 106/106/106
f 108/108/108 104/104/104 98/98/98
f 103/103/103 108/108/108 98/98/98
f 104/104/104 109/109/109 105/105/105
f 104/104/104 108/108/108 109/109/109
f 105/105/105 109/109/109 110/110/110
f 111/111/111 103/103/103 92/92/92
f 111/111/111 92/92/92 102/102/102
f 111/111/111 112/112/112 103/103/103
f 112/112/112 108/108/108 103/103/103
f 111/111/111 102/102/102 112/112/112
f 109/109/109 113/113/113 110/110/110
f 113/113/113 114/114/114 110/110/110
f 108/108/108 115/115/115 109/109/109
f 109/109/109 115/115/115 113/113/113
f 115/115/115 108/108/108 112/112/112
f 113/113/113 116/116/116 114/114/114
f 115/115/115 116/116/116 113/113/113
f 116/116/116 117/117/117 114/114/114
f 102/102/102 118/118/118 112/112/112
f 106/106/106 118/118/118 102/102/102
f 119/119/119 115/115/115 112/112/112
f 116/116/116 115/115/115 119/119/119
f 119/119/119 112/112/112 118/118/118
f 120/120/120 117/117/117 116/116/116
f 120/120/120 116/116/116 119/119/119
f 121/121/121 117/117/117 120/120/120
f 122/122/122 119/119/119 118/118/118
f 120/120/120 119/119/119 122/122/122
f 118/118/118 106/106/106 122/122/122
f 121/121/121 120/120/120 122/122/122
f 106/106/106 123/123/123 122/122/122
f 122/122/122 123/123/123 121/121/121
f 123/123/123 124/124/124 121/121/121
f 123/123/123 106/106/106 107/107/107
f 124/124/124 123/123/123 125/125/125
f 125/125/125 123/123/123 107/107/107
f 126/126/126 124/124/124 125/125/125
f 125/125/125 107/107/107 127/127/127
f 54/54/54 127/127/127 107/107/107
f 23/23/23 127/127/127 54/54/54
f 126/126/126 125/125/125 128/128/128
f 128/128/128 125/125/125 127/127/127
f 127/127/127 23/23/23 128/128/128
f 23/23/23 18/18/18 128/128/128
f 129/129/129 126/126/126 128/128/128
f 128/128/128 18/18/18 129/129/129
f 18/18/18 19/19/19 129/129/129
f 19/19/19 130/130/130 129/129/129
f 131/131/131 130/130/130 19/19/19
f 132/132/132 131/131/131 19/19/19
f 133/133/133 130/130/130 131/131/131
f 134/134/134 130/130/130 133/133/133
f 135/135/135 134/134/134 133/133/133
f 130/130/130 134/134/134 136/136/136
f 130/130/130 137/137/137 129/129/129
f 137/137/137 130/130/130 136/136/136
f 129/129/129 137/137/137 138/138/138
f 137/137/137 136/136/136 139/139/139
f 138/138/138 137/137/137 140/140/140
f 140/140/140 137/137/137 139/139/139
f 142/142/142 141/141/141 47/47/47
f 143/143/143 142/142/142 47/47/47
f 143/143/143 47/47/47 59/59/59
f 143/143/143 144/144/144 142/142/142
f 143/143/143 145/145/145 144/144/144
f 145/145/145 146/146/146 144/144/144
f 145/145/145 143/143/143 147/147/147
f 148/148/148 143/143/143 59/59/59
f 143/143/143 148/148/148 147/147/147
f 148/148/148 59/59/59 149/149/149
f 147/147/147 148/148/148 150/150/150
f 148/148/148 149/149/149 151/151/151
f 148/148/148 151/151/151 150/150/150
