g ENV_SY02_GX_Section04_Vinyl07_MO
v -5.488141 47.690468 61.98874
v -5.488141 46.657898 61.98874
v -5.5314226 46.657898 61.892906
v -5.5314226 47.690468 61.892906
v -5.488141 47.789394 61.892906
v -5.467531 47.769817 61.970192
v -5.488141 47.789394 57.450394
v -5.5314226 47.690468 57.450394
v -5.5314226 46.657898 57.450394
v -5.488141 47.690468 61.98874
v -5.38406 47.789394 61.98874
v -5.38406 47.690468 62.0279
v -5.488141 46.657898 61.98874
v -5.38406 46.657898 62.0279
v -0.03057909 47.690468 62.0279
v -0.03057909 47.789394 61.98874
v -0.03057909 46.657898 62.0279
v -5.488141 47.789394 61.892906
v -5.488141 47.789394 57.450394
v -5.38406 47.830616 57.450394
v -5.38406 47.830616 61.892906
v -5.38406 47.789394 61.98874
v -5.467531 47.769817 61.970192
v -0.03057909 47.789394 61.98874
v -0.03057909 47.830616 61.892906
v -0.03057909 47.830616 57.450394
v -5.488141 47.690468 44.08782
v -5.488141 46.657898 44.08782
v -5.38406 46.657898 44.048656
v -5.38406 47.690468 44.048656
v -5.38406 47.789394 44.08782
v -5.467531 47.769817 44.106365
v -0.03057909 47.789394 44.08782
v -0.03057909 47.690468 44.048656
v -0.03057909 46.657898 44.048656
v 5.358969 46.657898 44.048656
v 5.358969 47.789394 44.08782
v 5.358969 47.690468 44.048656
v 5.4630504 46.657898 44.08782
v 5.4630504 47.690468 44.08782
v 5.44244 47.769817 44.106365
v -5.488141 47.690468 44.08782
v -5.488141 47.789394 44.183655
v -5.5314226 47.690468 44.183655
v -5.488141 46.657898 44.08782
v -5.5314226 46.657898 44.183655
v -5.5314226 47.690468 48.51384
v -5.488141 47.789394 48.51384
v -5.5314226 46.657898 48.51384
v 5.4630504 47.789394 44.183655
v 5.4630504 47.690468 44.08782
v 5.5063314 47.690468 44.183655
v 5.4630504 47.789394 48.51384
v 5.5063314 46.657898 44.183655
v 5.4630504 46.657898 44.08782
v 5.5063314 47.690468 48.51384
v 5.4630504 47.789394 52.982117
v 5.5063314 46.657898 48.51384
v 5.5063314 47.690468 52.982117
v 5.4630504 47.789394 57.450394
v 5.5063314 46.657898 52.982117
v 5.5063314 47.690468 57.450394
v 5.5063314 46.657898 57.450394
v -5.38406 47.789394 44.08782
v -0.03057909 47.789394 44.08782
v -0.03057909 47.830616 44.183655
v -5.38406 47.830616 44.183655
v -5.488141 47.789394 44.183655
v -5.467531 47.769817 44.106365
v -5.488141 47.789394 48.51384
v -5.38406 47.830616 48.51384
v -0.03057909 47.830616 48.51384
v 5.4630504 47.690468 61.98874
v 5.4630504 46.657898 61.98874
v 5.358969 46.657898 62.0279
v 5.358969 47.690468 62.0279
v 5.358969 47.789394 61.98874
v 5.44244 47.769817 61.970192
v -0.03057909 47.789394 61.98874
v -0.03057909 47.690468 62.0279
v -0.03057909 46.657898 62.0279
v 5.4630504 47.690468 61.98874
v 5.4630504 47.789394 61.892906
v 5.5063314 47.690468 61.892906
v 5.4630504 46.657898 61.98874
v 5.5063314 46.657898 61.892906
v 5.5063314 47.690468 57.450394
v 5.4630504 47.789394 57.450394
v 5.5063314 46.657898 57.450394
v 5.358969 47.789394 61.98874
v -0.03057909 47.789394 61.98874
v -0.03057909 47.830616 61.892906
v 5.358969 47.830616 61.892906
v -0.03057909 47.830616 57.450394
v 5.358969 47.830616 57.450394
v 5.4630504 47.789394 57.450394
v 5.4630504 47.789394 61.892906
v 5.44244 47.769817 61.970192
v -5.5314226 47.690468 57.450394
v -5.488141 47.789394 52.982117
v -5.488141 47.789394 57.450394
v -5.5314226 47.690468 52.982117
v -5.5314226 46.657898 57.450394
v -5.488141 47.789394 48.51384
v -5.5314226 46.657898 52.982117
v -5.5314226 47.690468 48.51384
v -5.5314226 46.657898 48.51384
v -5.488141 47.789394 57.450394
v -5.488141 47.789394 52.982117
v -5.38406 47.830616 52.982117
v -5.38406 47.830616 57.450394
v -0.03057909 47.830616 52.982117
v -0.03057909 47.830616 57.450394
v 5.358969 47.830616 57.450394
v 5.4630504 47.789394 52.982117
v 5.4630504 47.789394 57.450394
v 5.358969 47.830616 52.982117
v -0.03057909 47.830616 52.982117
v -0.03057909 47.830616 57.450394
v -5.488141 47.789394 52.982117
v -5.488141 47.789394 48.51384
v -5.38406 47.830616 48.51384
v -5.38406 47.830616 52.982117
v -0.03057909 47.830616 48.51384
v -0.03057909 47.830616 52.982117
v 5.358969 47.830616 52.982117
v 5.4630504 47.789394 48.51384
v 5.4630504 47.789394 52.982117
v 5.358969 47.830616 48.51384
v -0.03057909 47.830616 48.51384
v -0.03057909 47.830616 52.982117
v 5.358969 47.830616 48.51384
v 5.4630504 47.789394 44.183655
v 5.4630504 47.789394 48.51384
v 5.358969 47.830616 44.183655
v -0.03057909 47.830616 44.183655
v -0.03057909 47.830616 48.51384
v -0.03057909 47.789394 44.08782
v 5.358969 47.789394 44.08782
v 5.44244 47.769817 44.106365
vt 0.78654766 -7.7160163
vt 0.98687077 -7.7160163
vt 0.988534 -7.7392907
vt 0.78737736 -7.7392907
vt 0.7624407 -7.7392907
vt 0.7665968 -7.7160163
vt 0.7624407 -8.79328
vt 0.78737736 -8.79328
vt 0.988534 -8.79328
vt 0.78654766 -7.7160163
vt 0.7607794 -7.691911
vt 0.78654766 -7.691911
vt 0.98687077 -7.7160163
vt 0.9901953 -7.691911
vt 0.78571606 -6.4991083
vt 0.7599478 -6.4991083
vt 0.9910269 -6.4991083
vt 0.49561977 0.9901953
vt 0.49561977 0.6543827
vt 0.48730755 0.6543827
vt 0.4881382 0.9893656
vt 0.4889698 0.9960146
vt 0.49561977 0.9960146
vt 0.11741352 0.9960146
vt 0.11741352 0.988534
vt 0.11741352 0.6543827
vt 0.761611 10.911654
vt 0.9561167 10.911654
vt 0.9594412 10.889211
vt 0.7607794 10.889211
vt 0.7358427 10.889211
vt 0.7416601 10.911654
vt 0.737504 9.721345
vt 0.7624407 9.721345
vt 0.9644289 9.721345
vt 0.9719095 8.545999
vt 0.74415493 8.545999
vt 0.7690916 8.545999
vt 0.9702463 8.522725
vt 0.7690916 8.522725
vt 0.74831104 8.522725
vt 0.761611 10.911654
vt 0.7383356 10.934928
vt 0.7624407 10.934928
vt 0.9561167 10.911654
vt 0.9569483 10.934928
vt 0.761611 11.949019
vt 0.737504 11.949019
vt 0.9552851 11.949019
vt 0.7433233 8.498618
vt 0.7690916 8.522725
vt 0.7690916 8.498618
vt 0.74914265 7.419694
vt 0.9735708 8.498618
vt 0.9702463 8.522725
vt 0.774909 7.419694
vt 0.75662327 6.3058577
vt 0.98105335 7.419694
vt 0.78155994 6.3058577
vt 0.7624407 5.192851
vt 0.98770237 6.3058577
vt 0.78820896 5.192851
vt 0.9943514 5.192851
vt 0.47982597 0.5080881
vt 0.102451324 0.5080881
vt 0.102451324 0.51556873
vt 0.47899532 0.5147371
vt 0.48647594 0.5139065
vt 0.48647594 0.5080881
vt 0.48647594 0.85553837
vt 0.47816372 0.85553837
vt 0.102451324 0.85553837
vt 0.78571606 -0.36635685
vt 0.988534 -0.36635685
vt 0.9910269 -0.39046288
vt 0.78571606 -0.39046288
vt 0.7599478 -0.39046288
vt 0.7649355 -0.36635685
vt 0.7599478 -1.5874214
vt 0.78571606 -1.5874214
vt 0.9918585 -1.5874214
vt 0.78571606 -0.36635685
vt 0.7599478 -0.34308243
vt 0.78571606 -0.34308243
vt 0.988534 -0.36635685
vt 0.9910269 -0.34308243
vt 0.78488445 0.7391672
vt 0.7591162 0.7391672
vt 0.9910269 0.7391672
vt 0.009354591 0.995183
vt 0.38091087 0.995183
vt 0.38091087 0.98687077
vt 0.010186195 0.98770237
vt 0.38091087 0.6535511
vt 0.011017799 0.6535511
vt 0.0035362244 0.6535511
vt 0.0035362244 0.988534
vt 0.0035362244 0.995183
vt 0.78737736 -13.123112
vt 0.7624407 -14.205361
vt 0.7624407 -13.123112
vt 0.78737736 -14.205361
vt 0.98770237 -13.123112
vt 0.7624407 -15.287612
vt 0.98770237 -14.205361
vt 0.78737736 -15.287612
vt 0.98770237 -15.287612
vt 0.49478817 0.90956783
vt 0.49478817 0.59370327
vt 0.48730755 0.59370327
vt 0.48730755 0.90956783
vt 0.14567566 0.59370327
vt 0.14567566 0.90956783
vt 0.013510704 0.8987627
vt 0.0051984787 0.5629482
vt 0.0051984787 0.8987627
vt 0.013510704 0.5629482
vt 0.37592316 0.5629482
vt 0.37592316 0.8987627
vt 0.49395657 0.893775
vt 0.49395657 0.5953665
vt 0.48647594 0.5953665
vt 0.48647594 0.893775
vt 0.16396236 0.5953665
vt 0.16396236 0.893775
vt 0.016004562 0.87964344
vt 0.008523941 0.5629482
vt 0.008523941 0.87964344
vt 0.016004562 0.5629482
vt 0.35846806 0.5629482
vt 0.35846806 0.87964344
vt 0.012680054 0.84639454
vt 0.0043678284 0.5130749
vt 0.0043678284 0.84639454
vt 0.01184845 0.5147371
vt 0.37924862 0.5147371
vt 0.37924862 0.84639454
vt 0.37924862 0.5072565
vt 0.011017799 0.5072565
vt 0.0043678284 0.5072565
vn -0.670583 0.02745068 0.74132645
vn -0.670583 0.003921509 0.74182415
vn -0.99999225 0.003921509 -0.00034492963
vn -0.9990709 0.04309709 -0
vn -0.68626916 0.7254846 0.05202602
vn -0.5450938 0.5764661 0.6087361
vn -0.68626916 0.7254846 -0.05202602
vn -0.9990709 0.04309709 -0
vn -0.99999225 0.003921509 -0.00034492963
vn -0.670583 0.02745068 0.74132645
vn -0.003921509 0.6941123 0.7198561
vn -0.003921509 0.043136835 0.99906147
vn -0.670583 0.003921509 0.74182415
vn -0.003921509 0.003921509 0.9999846
vn -0.003921509 0.043136835 0.99906147
vn -0.003921509 0.6941123 0.7198561
vn -0.003921509 0.003921509 0.9999846
vn -0.68626916 0.7254846 0.05202602
vn -0.68626916 0.7254846 -0.05202602
vn -0.003921509 0.99999225 -0.00034526698
vn -0.003921509 0.99999225 -0.00034526698
vn -0.003921509 0.6941123 0.7198561
vn -0.5450938 0.5764661 0.6087361
vn -0.003921509 0.6941123 0.7198561
vn -0.003921509 0.99999225 -0.00034526698
vn -0.003921509 0.99999225 -0.00034526698
vn -0.670583 0.02745068 -0.74132645
vn -0.670583 0.003921509 -0.74182415
vn -0.003921509 0.003921509 -0.9999846
vn -0.003921509 0.043136835 -0.99906147
vn -0.003921509 0.6941123 -0.7198561
vn -0.5450938 0.5764661 -0.6087361
vn -0.003921509 0.6941123 -0.7198561
vn -0.003921509 0.043136835 -0.99906147
vn -0.003921509 0.003921509 -0.9999846
vn 0.0039215684 0.003921509 -0.9999846
vn 0.0039215684 0.6941123 -0.7198561
vn 0.0039215684 0.043136835 -0.99906147
vn 0.6705831 0.003921509 -0.74182403
vn 0.6705831 0.02745068 -0.74132633
vn 0.5450939 0.5764661 -0.608736
vn -0.670583 0.02745068 -0.74132645
vn -0.68626916 0.7254846 -0.05202602
vn -0.9990709 0.04309709 -0
vn -0.670583 0.003921509 -0.74182415
vn -0.99999225 0.003921509 -0.00034492963
vn -0.9990709 0.04309709 -0
vn -0.68626916 0.7254846 -0.05202602
vn -0.99999225 0.003921509 -0.00034492963
vn 0.6862693 0.7254846 -0.05202487
vn 0.6705831 0.02745068 -0.74132633
vn 0.9990709 0.043097086 -0
vn 0.6862693 0.7254846 -0.05202487
vn 0.9999924 0.003921509 -0
vn 0.6705831 0.003921509 -0.74182403
vn 0.9990709 0.043097086 -0
vn 0.6862693 0.7254846 -0.05202487
vn 0.9999924 0.003921509 -0
vn 0.9990709 0.043097086 -0
vn 0.6862693 0.7254846 -0.05202487
vn 0.9999924 0.003921509 -0
vn 0.9990709 0.043097086 -0
vn 0.9999924 0.003921509 -0
vn -0.003921509 0.6941123 -0.7198561
vn -0.003921509 0.6941123 -0.7198561
vn -0.003921509 0.99999225 -0.00034526698
vn -0.003921509 0.99999225 -0.00034526698
vn -0.68626916 0.7254846 -0.05202602
vn -0.5450938 0.5764661 -0.6087361
vn -0.68626916 0.7254846 -0.05202602
vn -0.003921509 0.99999225 -0.00034526698
vn -0.003921509 0.99999225 -0.00034526698
vn 0.6705831 0.02745068 0.74132633
vn 0.6705831 0.003921509 0.74182403
vn 0.0039215684 0.003921509 0.9999846
vn 0.0039215684 0.043136835 0.99906147
vn 0.0039215684 0.6941123 0.7198561
vn 0.5450939 0.5764661 0.608736
vn -0.003921509 0.6941123 0.7198561
vn -0.003921509 0.043136835 0.99906147
vn -0.003921509 0.003921509 0.9999846
vn 0.6705831 0.02745068 0.74132633
vn 0.6862693 0.7254846 0.05202487
vn 0.9990709 0.043097086 -0
vn 0.6705831 0.003921509 0.74182403
vn 0.9999924 0.003921509 -0
vn 0.9990709 0.043097086 -0
vn 0.6862693 0.7254846 -0.05202487
vn 0.9999924 0.003921509 -0
vn 0.0039215684 0.6941123 0.7198561
vn -0.003921509 0.6941123 0.7198561
vn -0.003921509 0.99999225 -0.00034526698
vn 0.0039215684 0.99999225 -0.00034526698
vn -0.003921509 0.99999225 -0.00034526698
vn 0.0039215684 0.99999225 -0.00034526698
vn 0.6862693 0.7254846 -0.05202487
vn 0.6862693 0.7254846 0.05202487
vn 0.5450939 0.5764661 0.608736
vn -0.9990709 0.04309709 -0
vn -0.68626916 0.7254846 -0.05202602
vn -0.68626916 0.7254846 -0.05202602
vn -0.9990709 0.04309709 -0
vn -0.99999225 0.003921509 -0.00034492963
vn -0.68626916 0.7254846 -0.05202602
vn -0.99999225 0.003921509 -0.00034492963
vn -0.9990709 0.04309709 -0
vn -0.99999225 0.003921509 -0.00034492963
vn -0.68626916 0.7254846 -0.05202602
vn -0.68626916 0.7254846 -0.05202602
vn -0.003921509 0.99999225 -0.00034526698
vn -0.003921509 0.99999225 -0.00034526698
vn -0.003921509 0.99999225 -0.00034526698
vn -0.003921509 0.99999225 -0.00034526698
vn 0.0039215684 0.99999225 -0.00034526698
vn 0.6862693 0.7254846 -0.05202487
vn 0.6862693 0.7254846 -0.05202487
vn 0.0039215684 0.99999225 -0.00034526698
vn -0.003921509 0.99999225 -0.00034526698
vn -0.003921509 0.99999225 -0.00034526698
vn -0.68626916 0.7254846 -0.05202602
vn -0.68626916 0.7254846 -0.05202602
vn -0.003921509 0.99999225 -0.00034526698
vn -0.003921509 0.99999225 -0.00034526698
vn -0.003921509 0.99999225 -0.00034526698
vn -0.003921509 0.99999225 -0.00034526698
vn 0.0039215684 0.99999225 -0.00034526698
vn 0.6862693 0.7254846 -0.05202487
vn 0.6862693 0.7254846 -0.05202487
vn 0.0039215684 0.99999225 -0.00034526698
vn -0.003921509 0.99999225 -0.00034526698
vn -0.003921509 0.99999225 -0.00034526698
vn 0.0039215684 0.99999225 -0.00034526698
vn 0.6862693 0.7254846 -0.05202487
vn 0.6862693 0.7254846 -0.05202487
vn 0.0039215684 0.99999225 -0.00034526698
vn -0.003921509 0.99999225 -0.00034526698
vn -0.003921509 0.99999225 -0.00034526698
vn -0.003921509 0.6941123 -0.7198561
vn 0.0039215684 0.6941123 -0.7198561
vn 0.5450939 0.5764661 -0.608736
g ENV_SY02_GX_Section04_Vinyl07_MO_0
f 3/3/3 2/2/2 1/1/1
f 4/4/4 3/3/3 1/1/1
f 4/4/4 1/1/1 5/5/5
f 1/1/1 6/6/6 5/5/5
f 5/5/5 7/7/7 4/4/4
f 7/7/7 8/8/8 4/4/4
f 3/3/3 4/4/4 8/8/8
f 9/9/9 3/3/3 8/8/8
f 11/11/11 6/6/6 10/10/10
f 12/12/12 11/11/11 10/10/10
f 10/10/10 13/13/13 12/12/12
f 13/13/13 14/14/14 12/12/12
f 12/12/12 15/15/15 11/11/11
f 12/12/12 14/14/14 15/15/15
f 15/15/15 16/16/16 11/11/11
f 14/14/14 17/17/17 15/15/15
f 20/20/20 19/19/19 18/18/18
f 21/21/21 20/20/20 18/18/18
f 21/21/21 18/18/18 22/22/22
f 18/18/18 23/23/23 22/22/22
f 22/22/22 24/24/24 21/21/21
f 24/24/24 25/25/25 21/21/21
f 21/21/21 25/25/25 20/20/20
f 25/25/25 26/26/26 20/20/20
f 29/29/29 28/28/28 27/27/27
f 30/30/30 29/29/29 27/27/27
f 30/30/30 27/27/27 31/31/31
f 27/27/27 32/32/32 31/31/31
f 31/31/31 33/33/33 30/30/30
f 29/29/29 30/30/30 34/34/34
f 33/33/33 34/34/34 30/30/30
f 35/35/35 29/29/29 34/34/34
f 36/36/36 35/35/35 34/34/34
f 34/34/34 33/33/33 37/37/37
f 38/38/38 36/36/36 34/34/34
f 38/38/38 34/34/34 37/37/37
f 39/39/39 36/36/36 38/38/38
f 40/40/40 39/39/39 38/38/38
f 38/38/38 37/37/37 40/40/40
f 37/37/37 41/41/41 40/40/40
f 43/43/43 32/32/32 42/42/42
f 44/44/44 43/43/43 42/42/42
f 42/42/42 45/45/45 44/44/44
f 45/45/45 46/46/46 44/44/44
f 44/44/44 47/47/47 43/43/43
f 44/44/44 46/46/46 47/47/47
f 47/47/47 48/48/48 43/43/43
f 46/46/46 49/49/49 47/47/47
f 51/51/51 41/41/41 50/50/50
f 52/52/52 51/51/51 50/50/50
f 52/52/52 50/50/50 53/53/53
f 52/52/52 54/54/54 51/51/51
f 54/54/54 55/55/55 51/51/51
f 56/56/56 52/52/52 53/53/53
f 54/54/54 52/52/52 56/56/56
f 56/56/56 53/53/53 57/57/57
f 58/58/58 54/54/54 56/56/56
f 59/59/59 56/56/56 57/57/57
f 58/58/58 56/56/56 59/59/59
f 59/59/59 57/57/57 60/60/60
f 61/61/61 58/58/58 59/59/59
f 62/62/62 59/59/59 60/60/60
f 61/61/61 59/59/59 62/62/62
f 63/63/63 61/61/61 62/62/62
f 66/66/66 65/65/65 64/64/64
f 67/67/67 66/66/66 64/64/64
f 67/67/67 64/64/64 68/68/68
f 64/64/64 69/69/69 68/68/68
f 68/68/68 70/70/70 67/67/67
f 70/70/70 71/71/71 67/67/67
f 66/66/66 67/67/67 71/71/71
f 72/72/72 66/66/66 71/71/71
f 75/75/75 74/74/74 73/73/73
f 76/76/76 75/75/75 73/73/73
f 76/76/76 73/73/73 77/77/77
f 73/73/73 78/78/78 77/77/77
f 77/77/77 79/79/79 76/76/76
f 79/79/79 80/80/80 76/76/76
f 75/75/75 76/76/76 80/80/80
f 81/81/81 75/75/75 80/80/80
f 83/83/83 78/78/78 82/82/82
f 84/84/84 83/83/83 82/82/82
f 82/82/82 85/85/85 84/84/84
f 85/85/85 86/86/86 84/84/84
f 84/84/84 87/87/87 83/83/83
f 84/84/84 86/86/86 87/87/87
f 87/87/87 88/88/88 83/83/83
f 86/86/86 89/89/89 87/87/87
f 92/92/92 91/91/91 90/90/90
f 93/93/93 92/92/92 90/90/90
f 92/92/92 93/93/93 94/94/94
f 93/93/93 95/95/95 94/94/94
f 96/96/96 95/95/95 93/93/93
f 97/97/97 96/96/96 93/93/93
f 93/93/93 90/90/90 97/97/97
f 90/90/90 98/98/98 97/97/97
f 101/101/101 100/100/100 99/99/99
f 100/100/100 102/102/102 99/99/99
f 103/103/103 99/99/99 102/102/102
f 100/100/100 104/104/104 102/102/102
f 105/105/105 103/103/103 102/102/102
f 104/104/104 106/106/106 102/102/102
f 105/105/105 102/102/102 106/106/106
f 107/107/107 105/105/105 106/106/106
f 110/110/110 109/109/109 108/108/108
f 111/111/111 110/110/110 108/108/108
f 112/112/112 110/110/110 111/111/111
f 113/113/113 112/112/112 111/111/111
f 116/116/116 115/115/115 114/114/114
f 115/115/115 117/117/117 114/114/114
f 114/114/114 117/117/117 118/118/118
f 119/119/119 114/114/114 118/118/118
f 122/122/122 121/121/121 120/120/120
f 123/123/123 122/122/122 120/120/120
f 124/124/124 122/122/122 123/123/123
f 125/125/125 124/124/124 123/123/123
f 128/128/128 127/127/127 126/126/126
f 127/127/127 129/129/129 126/126/126
f 126/126/126 129/129/129 130/130/130
f 131/131/131 126/126/126 130/130/130
f 134/134/134 133/133/133 132/132/132
f 133/133/133 135/135/135 132/132/132
f 132/132/132 135/135/135 136/136/136
f 137/137/137 132/132/132 136/136/136
f 138/138/138 136/136/136 135/135/135
f 139/139/139 138/138/138 135/135/135
f 135/135/135 133/133/133 139/139/139
f 133/133/133 140/140/140 139/139/139
