g ENV_curve01_MO
v -2.8117237 -2.0000122 -2.3353205
v -2.8084912 -1.9651532 -2.3701792
v -2.8467574 -1.9651532 -2.3354952
v -2.8084912 1.9651532 -2.3701792
v -2.8117237 2.000012 -2.3353205
v -2.846583 1.9667258 -2.3370678
v 2.6633775 -2.0000122 2.3367186
v 2.630004 -1.9651532 2.3468528
v 2.6734245 -1.9651532 2.3701792
v 2.630004 1.9651532 2.3468528
v 2.6633775 2.000012 2.3367186
v 2.6734245 1.965066 2.3701792
v -2.8313813 1.965066 -2.1351664
v -2.8627453 1.965066 -2.1732576
v -2.828061 2.000012 -2.1699378
v -2.8314686 -1.9651532 -2.1352537
v -2.828061 -2.0000122 -2.1699378
v -2.8627453 -1.965066 -2.1732576
v 2.8278866 -1.9651532 -2.3701792
v 2.8278866 -2.0000122 -2.3353205
v 2.8627453 -1.9651532 -2.3353205
v 2.8278866 2.000012 -2.3353205
v 2.8278866 1.9651532 -2.3701792
v 2.8627453 1.9651532 -2.3353205
v 2.8627453 -1.9648912 2.2818527
v 2.8627453 -1.9651532 -2.3353205
v 2.8278866 -2.0000122 -2.3353205
v 2.828673 -2.0000122 2.287444
v 2.8329537 -1.9646292 2.3217788
v 2.8331285 1.9648914 2.3216915
v 2.8627453 1.9648914 2.2818527
v 2.8627453 -1.9648912 2.2818527
v 2.828673 -2.0000122 2.287444
v 2.6633775 -2.0000122 2.3367186
v 2.6734245 -1.9651532 2.3701792
v 2.8329537 -1.9646292 2.3217788
v 2.8627453 -1.9648912 2.2818527
v 2.828673 2.000012 2.287444
v 2.8278866 2.000012 -2.3353205
v 2.8627453 1.9651532 -2.3353205
v 2.8627453 1.9648914 2.2818527
v 2.8331285 1.9648914 2.3216915
v 2.6633775 2.000012 2.3367186
v 2.6734245 1.965066 2.3701792
v -2.8117237 -2.0000122 -2.3353205
v 2.8278866 -2.0000122 -2.3353205
v 2.8278866 -1.9651532 -2.3701792
v -2.8084912 -1.9651532 -2.3701792
v -2.8467574 -1.9651532 -2.3354952
v -2.8627453 -1.965066 -2.1732576
v -2.828061 -2.0000122 -2.1699378
v -2.8117237 -2.0000122 -2.3353205
v -2.8084912 -1.9651532 -2.3701792
v -2.8084912 1.9651532 -2.3701792
v -2.846583 1.9667258 -2.3370678
v -2.8467574 -1.9651532 -2.3354952
v -2.8084912 1.9651532 -2.3701792
v 2.8278866 1.9651532 -2.3701792
v 2.8278866 2.000012 -2.3353205
v -2.8117237 2.000012 -2.3353205
v -2.8117237 2.000012 -2.3353205
v -2.828061 2.000012 -2.1699378
v -2.8627453 1.965066 -2.1732576
v -2.846583 1.9667258 -2.3370678
v 2.6633775 -2.0000122 2.3367186
v 2.31776 -1.9651532 1.3100004
v 2.630004 -1.9651532 2.3468528
v 2.3500853 -2.0000122 1.2966332
v 1.801518 -1.9651532 0.34417605
v 1.8306106 -2.0000122 0.32469344
v 1.1067884 -1.9651532 -0.5023072
v 1.1315128 -2.0000122 -0.5271189
v 0.26021767 -1.9651532 -1.1971242
v 0.27970028 -2.0000122 -1.2262169
v -0.70560646 -1.9651532 -1.7133663
v -0.69215226 -2.0000122 -1.7456914
v -1.7535543 -1.9651532 -2.0312016
v -1.7467399 -2.0000122 -2.0656235
v -2.8314686 -1.9651532 -2.1352537
v -2.828061 -2.0000122 -2.1699378
v 2.630004 -1.9651532 2.3468528
v 2.630004 1.9651532 2.3468528
v 2.6734245 1.965066 2.3701792
v 2.6734245 -1.9651532 2.3701792
v 2.630004 1.9651532 2.3468528
v 2.3500853 2.000012 1.2966332
v 2.6633775 2.000012 2.3367186
v 2.31776 1.9651532 1.3100004
v 1.8306106 2.000012 0.32469344
v 1.801518 1.9651532 0.34417605
v 1.1315128 2.000012 -0.5271189
v 1.1067884 1.9651532 -0.5023072
v 0.27970028 2.000012 -1.2262169
v 0.26021767 1.9651532 -1.1971242
v -0.69215226 2.000012 -1.7456914
v -0.70560646 1.9651532 -1.7133663
v -1.7467399 2.000012 -2.0656235
v -1.7535543 1.9651532 -2.0312016
v -2.828061 2.000012 -2.1699378
v -2.8313813 1.965066 -2.1351664
v -2.8313813 1.965066 -2.1351664
v -2.8314686 -1.9651532 -2.1352537
v -2.8627453 -1.965066 -2.1732576
v -2.8627453 1.965066 -2.1732576
v 2.630004 -1.9651532 2.3468528
v 2.31776 1.9651532 1.3100004
v 2.630004 1.9651532 2.3468528
v 2.31776 -1.9651532 1.3100004
v 1.801518 1.9651532 0.34417605
v 1.801518 -1.9651532 0.34417605
v 1.1067884 1.9651532 -0.5023072
v 1.1067884 -1.9651532 -0.5023072
v 0.26021767 1.9651532 -1.1971242
v 0.26021767 -1.9651532 -1.1971242
v -0.70560646 1.9651532 -1.7133663
v -0.70560646 -1.9651532 -1.7133663
v -1.7535543 1.9651532 -2.0312016
v -1.7535543 -1.9651532 -2.0312016
v -2.8313813 1.965066 -2.1351664
v -2.8314686 -1.9651532 -2.1352537
v 2.8329537 -1.9646292 2.3217788
v 2.6734245 -1.9651532 2.3701792
v 2.6734245 1.965066 2.3701792
v 2.8331285 1.9648914 2.3216915
v 2.3500853 2.000012 1.2966332
v 2.828673 2.000012 2.287444
v 2.6633775 2.000012 2.3367186
v 2.8278866 2.000012 -2.3353205
v 1.8306106 2.000012 0.32469344
v 1.1315128 2.000012 -0.5271189
v 0.27970028 2.000012 -1.2262169
v -0.69215226 2.000012 -1.7456914
v -1.7467399 2.000012 -2.0656235
v -2.8117237 2.000012 -2.3353205
v -2.828061 2.000012 -2.1699378
v -2.846583 1.9667258 -2.3370678
v -2.8627453 1.965066 -2.1732576
v -2.8627453 -1.965066 -2.1732576
v -2.8467574 -1.9651532 -2.3354952
v 2.3500853 -2.0000122 1.2966332
v 2.6633775 -2.0000122 2.3367186
v 2.828673 -2.0000122 2.287444
v 2.8278866 -2.0000122 -2.3353205
v 1.8306106 -2.0000122 0.32469344
v 1.1315128 -2.0000122 -0.5271189
v 0.27970028 -2.0000122 -1.2262169
v -0.69215226 -2.0000122 -1.7456914
v -1.7467399 -2.0000122 -2.0656235
v -2.8117237 -2.0000122 -2.3353205
v -2.828061 -2.0000122 -2.1699378
vt 0.34912968 0.1720767
vt 0.33984172 0.17149615
vt 0.3479687 0.18136466
vt 0.5081872 -0.08566612
vt 0.5180557 -0.08624661
vt 0.51631427 -0.09553468
vt 1.250649 -0.9012711
vt 1.2535515 -0.8925636
vt 1.2593565 -0.90301263
vt 1.428863 0.9679446
vt 1.42538 0.9772327
vt 1.4346681 0.9789741
vt 0.55927134 -0.090890646
vt 0.5499834 -0.09901768
vt 0.5499834 -0.08972967
vt 0.39034534 0.17672074
vt 0.38105726 0.17555964
vt 0.38105726 0.18426716
vt 0.33635867 -0.9192667
vt 0.34564674 -0.9192667
vt 0.34564674 -0.9291352
vt 0.5192168 1.0074188
vt 0.5099287 1.0074188
vt 0.5192168 1.0172873
vt 1.239039 -0.94248676
vt 0.34564674 -0.9291352
vt 0.34564674 -0.9192667
vt 1.2402 -0.93319875
vt 0.27424502 1.3644273
vt -0.48853436 1.3644273
vt -0.48853436 1.374296
vt 0.27424502 1.374296
vt 1.2402 -0.93319875
vt 1.250649 -0.9012711
vt 1.2593565 -0.90301263
vt 1.2494879 -0.93552077
vt 1.239039 -0.94248676
vt 1.4160919 1.0085797
vt 0.5192168 1.0074188
vt 0.5192168 1.0172873
vt 1.414931 1.0184482
vt 1.4247994 1.0114822
vt 1.42538 0.9772327
vt 1.4346681 0.9789741
vt 0.34912968 0.1720767
vt 0.34564674 -0.9192667
vt 0.33635867 -0.9192667
vt 0.33984172 0.17149615
vt 0.3479687 0.18136466
vt 0.38105726 0.18426716
vt 0.38105726 0.17555964
vt 0.34912968 0.1720767
vt 0.27424502 -0.211635
vt -0.48853436 -0.21221554
vt -0.48853436 -0.20234698
vt 0.27424502 -0.20176649
vt 0.5081872 -0.08566612
vt 0.5099287 1.0074188
vt 0.5192168 1.0074188
vt 0.5180557 -0.08624661
vt 0.5180557 -0.08624661
vt 0.5499834 -0.08972967
vt 0.5499834 -0.09901768
vt 0.51631427 -0.09553468
vt 1.250649 -0.9012711
vt 1.0538589 -0.8287084
vt 1.2535515 -0.8925636
vt 1.0497954 -0.83741593
vt 0.8686788 -0.7259596
vt 0.8628738 -0.73408663
vt 0.7049773 -0.5860587
vt 0.6980113 -0.59302473
vt 0.57088137 -0.42177665
vt 0.5627544 -0.42700118
vt 0.47103512 -0.23485506
vt 0.4623276 -0.23833811
vt 0.41008246 -0.03225994
vt 0.4007944 -0.03400147
vt 0.39034534 0.17672074
vt 0.38105726 0.17555964
vt 0.27424502 1.3226311
vt -0.48853436 1.3226311
vt -0.48853436 1.3319192
vt 0.27424502 1.3319192
vt 1.428863 0.9679446
vt 1.2239459 0.9156995
vt 1.42538 0.9772327
vt 1.2274289 0.90699196
vt 1.0352829 0.81469214
vt 1.0410879 0.80656517
vt 0.87042034 0.6782743
vt 0.8768058 0.6718887
vt 0.73400235 0.5128312
vt 0.74212945 0.50760674
vt 0.6329951 0.32474864
vt 0.64170265 0.32068515
vt 0.57030094 0.11983156
vt 0.58016944 0.11809003
vt 0.5499834 -0.08972967
vt 0.55927134 -0.090890646
vt -0.48853436 -0.16055083
vt 0.27424502 -0.16055083
vt 0.27424502 -0.1704194
vt -0.48853436 -0.1704194
vt 0.27424502 1.3226311
vt -0.48853436 1.1124895
vt -0.48853436 1.3226311
vt 0.27424502 1.1124895
vt -0.48853436 0.90002596
vt 0.27424502 0.90002596
vt -0.48853436 0.6869818
vt 0.27424502 0.6869818
vt -0.48853436 0.47451806
vt 0.27424502 0.47451806
vt -0.48853436 0.26205444
vt 0.27424502 0.26205444
vt -0.48853436 0.049590766
vt 0.27424502 0.049590766
vt -0.48853436 -0.16055083
vt 0.27424502 -0.16055083
vt 0.27424502 1.3644273
vt 0.27424502 1.3319192
vt -0.48853436 1.3319192
vt -0.48853436 1.3644273
vt 1.2239459 0.9156995
vt 1.4160919 1.0085797
vt 1.42538 0.9772327
vt 0.5192168 1.0074188
vt 1.0352829 0.81469214
vt 0.87042034 0.6782743
vt 0.73400235 0.5128312
vt 0.6329951 0.32474864
vt 0.57030094 0.11983156
vt 0.5180557 -0.08624661
vt 0.5499834 -0.08972967
vt -0.48853436 -0.20234698
vt -0.48853436 -0.1704194
vt 0.27424502 -0.1704194
vt 0.27424502 -0.20176649
vt 1.0497954 -0.83741593
vt 1.250649 -0.9012711
vt 1.2402 -0.93319875
vt 0.34564674 -0.9192667
vt 0.8628738 -0.73408663
vt 0.6980113 -0.59302473
vt 0.5627544 -0.42700118
vt 0.4623276 -0.23833811
vt 0.4007944 -0.03400147
vt 0.34912968 0.1720767
vt 0.38105726 0.17555964
vn -0.5529369 -0.56078005 -0.6162682
vn -0.5529369 -0.56078005 -0.6162682
vn -0.5529369 -0.56078005 -0.6162682
vn -0.5215646 0.5764661 -0.6290129
vn -0.5215646 0.5764661 -0.6290129
vn -0.5215646 0.5764661 -0.6290129
vn -0.38823223 -0.5764662 0.719001
vn -0.38823223 -0.5764662 0.719001
vn -0.38823223 -0.5764662 0.719001
vn -0.38823223 0.5764661 0.71900105
vn -0.38823223 0.5764661 0.71900105
vn -0.38823223 0.5764661 0.71900105
vn -0.6313677 0.5764661 0.51871157
vn -0.6313677 0.5764661 0.51871157
vn -0.6313677 0.5764661 0.51871157
vn -0.6313677 -0.5764662 0.51871145
vn -0.6313677 -0.5764662 0.51871145
vn -0.6313677 -0.5764662 0.51871145
vn 0.5764662 -0.5764662 -0.5791144
vn 0.5764662 -0.5764662 -0.5791144
vn 0.5764662 -0.5764662 -0.5791144
vn 0.5764662 0.5764661 -0.57911444
vn 0.5764662 0.5764661 -0.57911444
vn 0.5764662 0.5764661 -0.57911444
vn 0.7097985 -0.70195544 -0.05869107
vn 0.7097985 -0.70195544 -0.05869107
vn 0.7097985 -0.70195544 -0.05869107
vn 0.7097985 -0.70195544 -0.05869107
vn 0.80391544 -0.0039215684 0.5947307
vn 0.80391544 -0.0039215684 0.5947307
vn 0.80391544 -0.0039215684 0.5947307
vn 0.80391544 -0.0039215684 0.5947307
vn 0.24705696 -0.69411236 0.6761441
vn 0.20784158 -0.70195544 0.6812198
vn 0.20784158 -0.70195544 0.6812198
vn 0.23921388 -0.69411236 0.6789586
vn 0.66274005 -0.56078005 0.4962876
vn 0.70195544 0.70979846 0.058691327
vn 0.7097985 0.7019553 -0.058692593
vn 0.7097985 0.7019553 -0.058692593
vn 0.7097985 0.7019553 0.058692593
vn 0.23921388 0.7019553 0.6708468
vn 0.20784158 0.7019553 0.68121994
vn 0.20784158 0.7019553 0.68121994
vn -0.003921509 -0.7097985 -0.70439386
vn -0.003921509 -0.7097985 -0.70439386
vn -0.003921509 -0.7097985 -0.70439386
vn -0.003921509 -0.7097985 -0.70439386
vn -0.7019553 -0.7097985 -0.05869285
vn -0.7019553 -0.7097985 -0.05869285
vn -0.7019553 -0.7097985 -0.05869285
vn -0.7019553 -0.7097985 -0.05869285
vn -0.66274 -0.0039215684 -0.7488393
vn -0.66274 -0.0039215684 -0.7488393
vn -0.66274 -0.0039215684 -0.7488393
vn -0.66274 -0.0039215684 -0.7488393
vn -0.003921509 0.70979846 -0.7043939
vn -0.003921509 0.70979846 -0.7043939
vn -0.003921509 0.70979846 -0.7043939
vn -0.003921509 0.70979846 -0.7043939
vn -0.6941123 0.7176415 -0.056558482
vn -0.6941123 0.7176415 -0.056558482
vn -0.6941123 0.7176415 -0.056558482
vn -0.6941123 0.7176415 -0.056558482
vn -0.67842615 -0.7097985 0.18953632
vn -0.65489686 -0.7097985 0.25941512
vn -0.67842615 -0.7097985 0.18953632
vn -0.65489686 -0.7097985 0.25941512
vn -0.5843092 -0.7097985 0.3934067
vn -0.5843092 -0.7097985 0.3934067
vn -0.4980353 -0.7097985 0.49814343
vn -0.4980353 -0.7097985 0.49814343
vn -0.38823223 -0.7097985 0.58776
vn -0.38823223 -0.7097985 0.58776
vn -0.27058613 -0.7097985 0.6503608
vn -0.27058613 -0.7097985 0.6503608
vn -0.13725376 -0.7097985 0.69090337
vn -0.13725376 -0.7097985 0.69090337
vn -0.066666126 -0.7097985 0.701243
vn -0.066666126 -0.7097985 0.701243
vn -0.47450614 0.003921509 0.8802435
vn -0.47450614 0.003921509 0.8802435
vn -0.47450614 0.003921509 0.8802435
vn -0.47450614 0.003921509 0.8802435
vn -0.67842615 0.70979846 0.18953648
vn -0.65489686 0.70979846 0.25941524
vn -0.67842615 0.70979846 0.18953648
vn -0.65489686 0.70979846 0.25941524
vn -0.5843092 0.70979846 0.39340678
vn -0.5843092 0.70979846 0.39340678
vn -0.4980353 0.70979846 0.4981435
vn -0.4980353 0.70979846 0.4981435
vn -0.38823223 0.70979846 0.58776003
vn -0.38823223 0.70979846 0.58776003
vn -0.27058613 0.70979846 0.6503609
vn -0.27058613 0.70979846 0.6503609
vn -0.13725376 0.70979846 0.6909034
vn -0.13725376 0.70979846 0.6909034
vn -0.066666126 0.70979846 0.70124304
vn -0.066666126 0.70979846 0.70124304
vn -0.7725431 -0.0039215684 0.6349503
vn -0.7725431 -0.0039215684 0.6349503
vn -0.7725431 -0.0039215684 0.6349503
vn -0.7725431 -0.0039215684 0.6349503
vn -0.9607769 0.003921509 0.27729464
vn -0.9215615 0.003921509 0.38821262
vn -0.9607769 0.003921509 0.27729464
vn -0.9215615 0.003921509 0.38821262
vn -0.8352877 0.003921509 0.54979914
vn -0.8352877 0.003921509 0.54979914
vn -0.70979846 0.003921509 0.7043939
vn -0.70979846 0.003921509 0.7043939
vn -0.5529369 0.003921509 0.8332139
vn -0.5529369 0.003921509 0.8332139
vn -0.3803892 0.003921509 0.9248182
vn -0.3803892 0.003921509 0.9248182
vn -0.19215536 -0.0039215684 0.9813567
vn -0.19215536 -0.0039215684 0.9813567
vn -0.098038435 -0.0039215684 0.9951749
vn -0.098038435 -0.0039215684 0.9951749
vn 0.29411542 -0.0039215684 0.95576185
vn 0.29411542 -0.0039215684 0.95576185
vn 0.29411542 -0.0039215684 0.95576185
vn 0.29411542 -0.0039215684 0.95576185
vn -0.003921509 0.99999225 -0.00034526698
vn -0.003921509 0.99999225 -0.00034526698
vn -0.003921509 0.99999225 -0.00034526698
vn -0.003921509 0.99999225 -0.00034526698
vn -0.003921509 0.99999225 -0.00034526698
vn -0.003921509 0.99999225 -0.00034526698
vn -0.003921509 0.99999225 -0.00034526698
vn -0.003921509 0.99999225 -0.00034526698
vn -0.003921509 0.99999225 -0.00034526698
vn -0.003921509 0.99999225 -0.00034526698
vn -0.003921509 0.99999225 -0.00034526698
vn -0.99214923 -0.0039215684 -0.124998085
vn -0.99214923 -0.0039215684 -0.124998085
vn -0.99214923 -0.0039215684 -0.124998085
vn -0.99214923 -0.0039215684 -0.124998085
vn -0.003921509 -0.9999924 -0
vn -0.003921509 -0.9999924 -0
vn -0.003921509 -0.9999924 -0
vn -0.003921509 -0.9999924 -0
vn -0.003921509 -0.9999924 -0
vn -0.003921509 -0.9999924 -0
vn -0.003921509 -0.9999924 -0
vn -0.003921509 -0.9999924 -0
vn -0.003921509 -0.9999924 -0
vn -0.003921509 -0.9999924 -0
vn -0.003921509 -0.9999924 -0
g ENV_curve01_MO_0
f 3/3/3 2/2/2 1/1/1
f 6/6/6 5/5/5 4/4/4
f 9/9/9 8/8/8 7/7/7
f 12/12/12 11/11/11 10/10/10
f 15/15/15 14/14/14 13/13/13
f 18/18/18 17/17/17 16/16/16
f 21/21/21 20/20/20 19/19/19
f 24/24/24 23/23/23 22/22/22
f 27/27/27 26/26/26 25/25/25
f 28/28/28 27/27/27 25/25/25
f 31/31/31 30/30/30 29/29/29
f 32/32/32 31/31/31 29/29/29
f 35/35/35 34/34/34 33/33/33
f 36/36/36 35/35/35 33/33/33
f 36/36/36 33/33/33 37/37/37
f 40/40/40 39/39/39 38/38/38
f 41/41/41 40/40/40 38/38/38
f 42/42/42 41/41/41 38/38/38
f 38/38/38 43/43/43 42/42/42
f 43/43/43 44/44/44 42/42/42
f 47/47/47 46/46/46 45/45/45
f 48/48/48 47/47/47 45/45/45
f 51/51/51 50/50/50 49/49/49
f 52/52/52 51/51/51 49/49/49
f 55/55/55 54/54/54 53/53/53
f 56/56/56 55/55/55 53/53/53
f 59/59/59 58/58/58 57/57/57
f 60/60/60 59/59/59 57/57/57
f 63/63/63 62/62/62 61/61/61
f 64/64/64 63/63/63 61/61/61
f 67/67/67 66/66/66 65/65/65
f 66/66/66 68/68/68 65/65/65
f 66/66/66 69/69/69 68/68/68
f 69/69/69 70/70/70 68/68/68
f 69/69/69 71/71/71 70/70/70
f 71/71/71 72/72/72 70/70/70
f 71/71/71 73/73/73 72/72/72
f 73/73/73 74/74/74 72/72/72
f 73/73/73 75/75/75 74/74/74
f 75/75/75 76/76/76 74/74/74
f 75/75/75 77/77/77 76/76/76
f 77/77/77 78/78/78 76/76/76
f 77/77/77 79/79/79 78/78/78
f 79/79/79 80/80/80 78/78/78
f 83/83/83 82/82/82 81/81/81
f 84/84/84 83/83/83 81/81/81
f 87/87/87 86/86/86 85/85/85
f 86/86/86 88/88/88 85/85/85
f 86/86/86 89/89/89 88/88/88
f 89/89/89 90/90/90 88/88/88
f 89/89/89 91/91/91 90/90/90
f 91/91/91 92/92/92 90/90/90
f 91/91/91 93/93/93 92/92/92
f 93/93/93 94/94/94 92/92/92
f 93/93/93 95/95/95 94/94/94
f 95/95/95 96/96/96 94/94/94
f 95/95/95 97/97/97 96/96/96
f 97/97/97 98/98/98 96/96/96
f 97/97/97 99/99/99 98/98/98
f 99/99/99 100/100/100 98/98/98
f 103/103/103 102/102/102 101/101/101
f 104/104/104 103/103/103 101/101/101
f 107/107/107 106/106/106 105/105/105
f 106/106/106 108/108/108 105/105/105
f 106/106/106 109/109/109 108/108/108
f 109/109/109 110/110/110 108/108/108
f 109/109/109 111/111/111 110/110/110
f 111/111/111 112/112/112 110/110/110
f 111/111/111 113/113/113 112/112/112
f 113/113/113 114/114/114 112/112/112
f 113/113/113 115/115/115 114/114/114
f 115/115/115 116/116/116 114/114/114
f 115/115/115 117/117/117 116/116/116
f 117/117/117 118/118/118 116/116/116
f 117/117/117 119/119/119 118/118/118
f 119/119/119 120/120/120 118/118/118
f 123/123/123 122/122/122 121/121/121
f 124/124/124 123/123/123 121/121/121
f 127/127/127 126/126/126 125/125/125
f 126/126/126 128/128/128 125/125/125
f 125/125/125 128/128/128 129/129/129
f 129/129/129 128/128/128 130/130/130
f 130/130/130 128/128/128 131/131/131
f 131/131/131 128/128/128 132/132/132
f 132/132/132 128/128/128 133/133/133
f 133/133/133 128/128/128 134/134/134
f 135/135/135 133/133/133 134/134/134
f 138/138/138 137/137/137 136/136/136
f 139/139/139 138/138/138 136/136/136
f 142/142/142 141/141/141 140/140/140
f 143/143/143 142/142/142 140/140/140
f 143/143/143 140/140/140 144/144/144
f 143/143/143 144/144/144 145/145/145
f 143/143/143 145/145/145 146/146/146
f 143/143/143 146/146/146 147/147/147
f 143/143/143 147/147/147 148/148/148
f 143/143/143 148/148/148 149/149/149
f 148/148/148 150/150/150 149/149/149
