g ENV_Step_5_45_VL_MO
v 0.02179432 0.014667034 4.9351454
v 0.033430815 0.021131992 4.9619093
v 0.07648635 0.014667034 4.952859
v 0.07364178 5.6743622E-05 4.9161386
v 0.38020205 0.014537811 4.828994
v 0.022182226 0.014279127 4.410722
v 0.38899422 5.6743622E-05 4.78749
v 1.7469872 0.014537811 4.271729
v 0.07493472 5.6743622E-05 4.401154
v 0.024121523 0.01233983 0.959043
v 1.7339283 5.6743622E-05 4.239146
v 0.41705132 5.6743622E-05 4.261773
v 0.569103 5.6743622E-05 1.3876586
v 0.08411479 5.6743622E-05 0.94042444
v 0.086054325 5.6743622E-05 0.2080934
v 0.024638891 0.011951923 0.14034247
v 0.081787586 0.011951923 0.11694002
v 0.04028368 0.0171237 0.0974164
v 0.66154957 0.01233983 0.69915867
v 0.34244776 5.6743622E-05 0.8351779
v 0.6056938 5.6743622E-05 0.72773314
v 3.0615368 5.6743622E-05 3.183447
v 3.105756 0.014279127 3.1533208
v 1.5536901 5.6743622E-05 3.7982478
v 2.6909752 5.6743622E-05 3.3345938
v 3.0788624 5.6743622E-05 3.690803
v 3.1137724 0.014537811 3.7144642
v 3.4269266 5.6743622E-05 3.5488367
v 3.4770935 0.014667034 3.5262098
v 3.451234 0.014408588 3.5767646
v 3.4880836 0.021002531 3.553362
v 3.4770935 0.9854193 3.5262098
v 3.487825 0.97882557 3.553362
v 3.450717 0.9854193 3.577023
v 3.4269266 1.00003 3.5488367
v 3.1470013 0.9854193 3.7008882
v 3.105756 0.9856782 3.1533208
v 3.1095057 1.00003 3.6782618
v 1.7803454 0.9854193 4.258153
v 3.0615368 1.00003 3.183447
v 0.66154957 0.9876175 0.69915867
v 1.7663815 1.00003 4.2259583
v 2.7177396 1.00003 3.3236036
v 0.5768609 1.00003 1.3841677
v 0.6056938 1.00003 0.72773314
v 0.086054325 1.00003 0.2080934
v 0.081787586 0.98813486 0.11694002
v 0.024638891 0.98813486 0.14034247
v 0.04028368 0.9828334 0.0974164
v 0.024121523 0.9876175 0.959043
v 0.3474903 1.00003 0.8331089
v 0.08411479 1.00003 0.94042444
v 0.07493472 1.00003 4.401154
v 0.022182226 0.9856782 4.410722
v 1.582523 1.00003 3.7864823
v 0.4420054 1.00003 4.251559
v 0.41756845 1.00003 4.775853
v 0.4135604 0.985549 4.8154173
v 0.07364178 1.00003 4.9161386
v 0.02179432 0.9854193 4.9351454
v 0.07609844 0.985549 4.9529886
v 0.03317237 0.9789548 4.962039
v 0.031362057 0.95917225 0.075953245
v 0.04028368 0.9828334 0.0974164
v -5.6743622E-05 0.95917225 0.11163902
v 0.024638891 0.98813486 0.14034247
v -5.6743622E-05 0.04091406 0.11163902
v 0.031362057 0.040784836 0.075953245
v 0.04028368 0.0171237 0.0974164
v 0.024638891 0.011951923 0.14034247
v -5.6743622E-05 0.9574914 0.966413
v 0.024121523 0.9876175 0.959043
v 0.022182226 0.9856782 4.410722
v -5.6743622E-05 0.042465687 0.966413
v 0.024121523 0.01233983 0.959043
v 0.022182226 0.014279127 4.410722
v -5.6743622E-05 0.9510269 4.4135666
v 0.02179432 0.9854193 4.9351454
v -5.6743622E-05 0.049059868 4.4135666
v 0.02179432 0.014667034 4.9351454
v -5.6743622E-05 0.049964905 4.941869
v 0.033430815 0.021131992 4.9619093
v 0.024638891 0.049964905 4.9718657
v -5.6743622E-05 0.9499922 4.941869
v 0.03317237 0.9789548 4.962039
v 0.024380207 0.9502511 4.9719944
v 0.031362057 0.040784836 0.075953245
v 0.04028368 0.0171237 0.0974164
v 0.07907224 0.04091406 0.07944417
v 0.081787586 0.011951923 0.11694002
v 0.07907224 0.95917225 0.07944417
v 0.031362057 0.95917225 0.075953245
v 0.04028368 0.9828334 0.0974164
v 0.081787586 0.98813486 0.11694002
v 0.68391776 0.042465687 0.68752193
v 0.66154957 0.01233983 0.69915867
v 3.105756 0.014279127 3.1533208
v 0.68391776 0.9574914 0.68752193
v 0.66154957 0.9876175 0.69915867
v 3.105756 0.9856782 3.1533208
v 3.1235988 0.049059868 3.1400037
v 3.4770935 0.014667034 3.5262098
v 3.1235988 0.9510269 3.1400037
v 3.4770935 0.9854193 3.5262098
v 3.497522 0.9499922 3.5158663
v 3.487825 0.97882557 3.553362
v 3.5011423 0.9499922 3.5543962
v 3.497522 0.049964905 3.5158663
v 3.4880836 0.021002531 3.553362
v 3.501401 0.04970622 3.554267
v 0.024380207 0.9502511 4.9719944
v 0.03317237 0.9789548 4.962039
v 0.07855511 0.95050955 4.967986
v 0.07609844 0.985549 4.9529886
v 0.079460144 0.049964905 4.967599
v 0.024638891 0.049964905 4.9718657
v 0.033430815 0.021131992 4.9619093
v 0.07648635 0.014667034 4.952859
v 0.38020205 0.014537811 4.828994
v 0.42054224 0.95050955 4.828476
v 0.4135604 0.985549 4.8154173
v 0.38964057 0.049964905 4.8411474
v 1.7493145 0.04970622 4.2867274
v 1.7469872 0.014537811 4.271729
v 1.7802162 0.9502511 4.2741857
v 1.7803454 0.9854193 4.258153
v 3.117522 0.049576998 3.728816
v 3.1137724 0.014537811 3.7144642
v 3.451234 0.014408588 3.5767646
v 3.1484237 0.9499922 3.7162747
v 3.1470013 0.9854193 3.7008882
v 3.4600263 0.049447775 3.5891767
v 3.4880836 0.021002531 3.553362
v 3.501401 0.04970622 3.554267
v 3.4592505 0.9499922 3.5895648
v 3.450717 0.9854193 3.577023
v 3.5011423 0.9499922 3.5543962
v 3.487825 0.97882557 3.553362
vt 0.007928848 0.0134830475
vt 0.014593124 0.009038925
vt 0.023479462 0.009593964
vt 0.020147324 0.015703201
vt 0.09289932 0.0268116
vt 0.007928848 0.06568527
vt 0.09178734 0.034585953
vt 0.3317051 0.17120552
vt 0.020147324 0.06790733
vt 0.007928848 0.41112137
vt 0.32559586 0.17731285
vt 0.09289932 0.09178734
vt 0.19230843 0.30837822
vt 0.025699615 0.40778923
vt 0.01625824 0.49220276
vt 0.007928848 0.4927597
vt 0.015703201 0.49997902
vt 0.007928848 0.49997902
vt 0.09511948 0.49997902
vt 0.08290291 0.42167282
vt 0.09734154 0.48331833
vt 0.43888855 0.48887062
vt 0.4411106 0.49997902
vt 0.28505325 0.21896553
vt 0.4116764 0.41223145
vt 0.4688778 0.41334152
vt 0.47498703 0.41334152
vt 0.49109268 0.48831558
vt 0.49386978 0.49997902
vt 0.49720192 0.48831558
vt 0.49942398 0.49997902
vt 0.4955349 0.9925842
vt 0.498312 0.99036217
vt 0.49720192 0.9848099
vt 0.49164772 0.9848099
vt 0.44555283 0.92316437
vt 0.41667366 0.9925842
vt 0.43777847 0.92038727
vt 0.29338455 0.71157074
vt 0.41389847 0.9848099
vt 0.0940094 0.9925842
vt 0.29171753 0.7137928
vt 0.3472538 0.9092808
vt 0.20119476 0.79987335
vt 0.106227875 0.9848099
vt 0.016815186 0.9848099
vt 0.01625824 0.9925842
vt 0.009038925 0.9848099
vt 0.009038925 0.9925842
vt 0.009038925 0.9070587
vt 0.09178734 0.9098358
vt 0.016815186 0.89484024
vt 0.016815186 0.572731
vt 0.009038925 0.572731
vt 0.2645054 0.73989487
vt 0.11900139 0.6077194
vt 0.10567284 0.523304
vt 0.10456085 0.5166397
vt 0.016815186 0.5066433
vt 0.009038925 0.50442123
vt 0.016815186 0.5027561
vt 0.010705948 0.5021992
vt 0.61771584 0.5021992
vt 0.621603 0.49942398
vt 0.61771584 0.49886703
vt 0.621603 0.49497986
vt 0.50997543 0.49886703
vt 0.50997543 0.5021992
vt 0.5055313 0.50053406
vt 0.5055313 0.49609184
vt 0.61771584 0.41334152
vt 0.621603 0.41334152
vt 0.621603 0.06679726
vt 0.50997543 0.41334152
vt 0.5055313 0.41334152
vt 0.5055313 0.06679726
vt 0.61771584 0.06679726
vt 0.621603 0.014038086
vt 0.50997543 0.06679726
vt 0.5055313 0.014038086
vt 0.50997543 0.014038086
vt 0.5055313 0.010705948
vt 0.50997543 0.010705948
vt 0.61771584 0.014038086
vt 0.621603 0.010705948
vt 0.61771584 0.010705948
vt 0.50886536 0.50886536
vt 0.5049763 0.51164055
vt 0.50886536 0.51275253
vt 0.5049763 0.5160847
vt 0.61938095 0.51275253
vt 0.61938095 0.50886536
vt 0.6238251 0.5110855
vt 0.6238251 0.51552963
vt 0.50886536 0.596056
vt 0.5049763 0.596056
vt 0.5049763 0.9331608
vt 0.61938095 0.596056
vt 0.6238251 0.596056
vt 0.6238251 0.9331608
vt 0.50886536 0.9331608
vt 0.5049763 0.9848099
vt 0.61938095 0.9331608
vt 0.6238251 0.9848099
vt 0.61938095 0.9848099
vt 0.6238251 0.988142
vt 0.61938095 0.988142
vt 0.50886536 0.9848099
vt 0.5049763 0.988142
vt 0.50886536 0.988142
vt 0.6171608 0.5021992
vt 0.621603 0.5021992
vt 0.6171608 0.49497986
vt 0.621603 0.49497986
vt 0.50886536 0.49497986
vt 0.50886536 0.5021992
vt 0.5049763 0.5021992
vt 0.5049763 0.49497986
vt 0.5049763 0.46665764
vt 0.6171608 0.46665764
vt 0.621603 0.46665764
vt 0.50886536 0.46665764
vt 0.50886536 0.25728607
vt 0.5049763 0.25728607
vt 0.6171608 0.25728607
vt 0.621603 0.25728607
vt 0.50886536 0.047359467
vt 0.5049763 0.047359467
vt 0.5049763 0.01903534
vt 0.6171608 0.047359467
vt 0.621603 0.047359467
vt 0.50886536 0.01903534
vt 0.5049763 0.011816025
vt 0.50886536 0.011816025
vt 0.6171608 0.01903534
vt 0.621603 0.01903534
vt 0.6171608 0.011816025
vt 0.621603 0.011816025
vn -0.5999954 -0.79607236 0.07921112
vn -0.22352767 -0.6705831 0.7073568
vn 0.24705696 -0.6862693 0.6841033
vn -0.043097086 -0.9990709 -0
vn 0.27842927 -0.6784262 0.679864
vn -0.5215646 -0.8509739 0.061755996
vn 0.019604106 -0.9998079 -0
vn 0.2705862 -0.7097985 0.6503608
vn -0.043097086 -0.9990709 -0
vn -0.4581441 -0.888878 -0
vn 0.011763922 -0.99993086 -0
vn -0.003921509 -0.9999924 -0
vn -0.003921509 -0.9999924 -0
vn -0.043097086 -0.9990709 -0
vn -0.019604046 -0.9998079 -0
vn -0.57529944 -0.8179429 -0
vn 0.39607543 -0.8117585 -0.4291531
vn -0.16078305 -0.90587544 -0.39183983
vn 0.32548773 -0.8901893 -0.31878015
vn -0.003921509 -0.9999924 -0
vn 0.035272185 -0.9993777 -0
vn 0.027440673 -0.9996234 -0
vn 0.3725462 -0.8509739 -0.3702064
vn -0.003921509 -0.9999924 -0
vn -0.003921509 -0.9999924 -0
vn 0.019604106 -0.9998079 -0
vn 0.27842927 -0.6784262 0.679864
vn 0.0509143 -0.998703 -0
vn 0.4431339 -0.79607236 -0.41219074
vn 0.3019585 -0.6862693 0.6617065
vn 0.654897 -0.6705831 0.34846553
vn 0.4431339 0.79607224 -0.41219094
vn 0.654897 0.670583 0.34846574
vn 0.30980158 0.68626916 0.65807116
vn 0.050914306 0.998703 -0
vn 0.27842927 0.670583 0.6876013
vn 0.3725462 0.85097384 -0.37020648
vn 0.019604107 0.9998079 -0
vn 0.2705862 0.70979846 0.6503608
vn 0.027440675 0.9996234 -0
vn 0.32548773 0.8901892 -0.31878045
vn 0.011763923 0.99993086 -0
vn -0.003921509 0.99999225 -0.00034526698
vn -0.003921509 0.99999225 -0.00034526698
vn 0.03527219 0.9993777 -0
vn -0.019604048 0.9998079 -0
vn 0.39607543 0.8117584 -0.42915332
vn -0.57529944 0.81794286 -0
vn -0.16078305 0.9058753 -0.39184016
vn -0.4581441 0.88887787 -0
vn -0.003921509 0.99999225 -0.00034526698
vn -0.04309709 0.9990709 -0
vn -0.03527213 0.9993777 -0
vn -0.5215646 0.85097384 0.06175648
vn -0.003921509 0.99999225 -0.00034526698
vn -0.003921509 0.99999225 -0.00034526698
vn 0.011763923 0.99993086 -0
vn 0.27842927 0.68626916 0.6719462
vn -0.03527213 0.9993777 -0
vn -0.5999954 0.79607224 0.079212256
vn 0.24705696 0.68626916 0.6841034
vn -0.22352767 0.670583 0.7073569
vn -0.3803892 0.02745068 -0.92441905
vn -0.16078305 0.9058753 -0.39184016
vn -0.9998079 0.019604048 -0
vn -0.57529944 0.81794286 -0
vn -0.9998079 -0.019604107 -0
vn -0.3803892 -0.0274508 -0.92441905
vn -0.16078305 -0.90587544 -0.39183983
vn -0.57529944 -0.8179429 -0
vn -0.9996234 0.027440555 -0
vn -0.4581441 0.88887787 -0
vn -0.5215646 0.85097384 0.06175648
vn -0.9996234 -0.027440675 -0
vn -0.4581441 -0.888878 -0
vn -0.5215646 -0.8509739 0.061755996
vn -0.9996234 0.027440555 -0
vn -0.5999954 0.79607224 0.079212256
vn -0.9996234 -0.027440675 -0
vn -0.5999954 -0.79607236 0.07921112
vn -0.9998079 -0.019604107 -0
vn -0.22352767 -0.6705831 0.7073568
vn -0.30980146 -0.011764646 0.9507285
vn -0.9998079 0.019604048 -0
vn -0.22352767 0.670583 0.7073569
vn -0.30980146 0.011764526 0.9507285
vn -0.3803892 -0.0274508 -0.92441905
vn -0.16078305 -0.90587544 -0.39183983
vn 0.6862693 -0.019607723 -0.72708327
vn 0.39607543 -0.8117585 -0.4291531
vn 0.6862693 0.019607663 -0.72708327
vn -0.3803892 0.02745068 -0.92441905
vn -0.16078305 0.9058753 -0.39184016
vn 0.39607543 0.8117584 -0.42915332
vn 0.7097985 -0.0274508 -0.7038697
vn 0.32548773 -0.8901893 -0.31878015
vn 0.3725462 -0.8509739 -0.3702064
vn 0.7097985 0.02745068 -0.7038697
vn 0.32548773 0.8901892 -0.31878045
vn 0.3725462 0.85097384 -0.37020648
vn 0.7097985 -0.019607723 -0.70413184
vn 0.4431339 -0.79607236 -0.41219074
vn 0.7097985 0.019607663 -0.70413184
vn 0.4431339 0.79607224 -0.41219094
vn 0.7411708 0.019607663 -0.6710301
vn 0.654897 0.670583 0.34846574
vn 0.8901893 0.011764526 0.45543894
vn 0.7411708 -0.019607723 -0.6710301
vn 0.654897 -0.6705831 0.34846553
vn 0.8901893 -0.011764646 0.45543894
vn -0.30980146 0.011764526 0.9507285
vn -0.22352767 0.670583 0.7073569
vn 0.3411739 0.011764526 0.93992656
vn 0.24705696 0.68626916 0.6841034
vn 0.3411739 -0.011764646 0.93992656
vn -0.30980146 -0.011764646 0.9507285
vn -0.22352767 -0.6705831 0.7073568
vn 0.24705696 -0.6862693 0.6841033
vn 0.27842927 -0.6784262 0.679864
vn 0.38038927 0.019607663 0.9246186
vn 0.27842927 0.68626916 0.6719462
vn 0.38038927 -0.019607723 0.9246186
vn 0.38038927 -0.019607723 0.9246186
vn 0.2705862 -0.7097985 0.6503608
vn 0.38038927 0.019607663 0.9246186
vn 0.2705862 0.70979846 0.6503608
vn 0.38038927 -0.019607723 0.9246186
vn 0.27842927 -0.6784262 0.679864
vn 0.3019585 -0.6862693 0.6617065
vn 0.38038927 0.019607663 0.9246186
vn 0.27842927 0.670583 0.6876013
vn 0.41176158 -0.011764646 0.91121566
vn 0.654897 -0.6705831 0.34846553
vn 0.8901893 -0.011764646 0.45543894
vn 0.41176158 0.011764526 0.91121566
vn 0.30980158 0.68626916 0.65807116
vn 0.8901893 0.011764526 0.45543894
vn 0.654897 0.670583 0.34846574
g ENV_Step_5_45_VL_MO_0
f 3/3/3 2/2/2 1/1/1
f 3/3/3 1/1/1 4/4/4
f 4/4/4 5/5/5 3/3/3
f 6/6/6 4/4/4 1/1/1
f 4/4/4 7/7/7 5/5/5
f 7/7/7 8/8/8 5/5/5
f 6/6/6 9/9/9 4/4/4
f 9/9/9 7/7/7 4/4/4
f 9/9/9 6/6/6 10/10/10
f 7/7/7 11/11/11 8/8/8
f 9/9/9 12/12/12 7/7/7
f 12/12/12 11/11/11 7/7/7
f 13/13/13 12/12/12 9/9/9
f 9/9/9 10/10/10 14/14/14
f 13/13/13 9/9/9 14/14/14
f 10/10/10 15/15/15 14/14/14
f 10/10/10 16/16/16 15/15/15
f 16/16/16 17/17/17 15/15/15
f 16/16/16 18/18/18 17/17/17
f 15/15/15 17/17/17 19/19/19
f 20/20/20 14/14/14 15/15/15
f 20/20/20 13/13/13 14/14/14
f 20/20/20 15/15/15 21/21/21
f 15/15/15 19/19/19 21/21/21
f 20/20/20 21/21/21 13/13/13
f 19/19/19 22/22/22 21/21/21
f 22/22/22 13/13/13 21/21/21
f 19/19/19 23/23/23 22/22/22
f 13/13/13 24/24/24 12/12/12
f 12/12/12 24/24/24 11/11/11
f 13/13/13 25/25/25 24/24/24
f 25/25/25 11/11/11 24/24/24
f 22/22/22 25/25/25 13/13/13
f 25/25/25 26/26/26 11/11/11
f 22/22/22 26/26/26 25/25/25
f 26/26/26 8/8/8 11/11/11
f 26/26/26 27/27/27 8/8/8
f 23/23/23 28/28/28 22/22/22
f 22/22/22 28/28/28 26/26/26
f 28/28/28 27/27/27 26/26/26
f 23/23/23 29/29/29 28/28/28
f 28/28/28 30/30/30 27/27/27
f 29/29/29 30/30/30 28/28/28
f 29/29/29 31/31/31 30/30/30
f 34/34/34 33/33/33 32/32/32
f 34/34/34 32/32/32 35/35/35
f 35/35/35 36/36/36 34/34/34
f 35/35/35 32/32/32 37/37/37
f 35/35/35 38/38/38 36/36/36
f 38/38/38 39/39/39 36/36/36
f 35/35/35 37/37/37 40/40/40
f 40/40/40 38/38/38 35/35/35
f 40/40/40 37/37/37 41/41/41
f 38/38/38 42/42/42 39/39/39
f 40/40/40 43/43/43 38/38/38
f 43/43/43 42/42/42 38/38/38
f 44/44/44 43/43/43 40/40/40
f 40/40/40 41/41/41 45/45/45
f 44/44/44 40/40/40 45/45/45
f 41/41/41 46/46/46 45/45/45
f 41/41/41 47/47/47 46/46/46
f 47/47/47 48/48/48 46/46/46
f 47/47/47 49/49/49 48/48/48
f 46/46/46 48/48/48 50/50/50
f 51/51/51 45/45/45 46/46/46
f 51/51/51 44/44/44 45/45/45
f 51/51/51 46/46/46 52/52/52
f 46/46/46 50/50/50 52/52/52
f 51/51/51 52/52/52 44/44/44
f 50/50/50 53/53/53 52/52/52
f 53/53/53 44/44/44 52/52/52
f 50/50/50 54/54/54 53/53/53
f 44/44/44 55/55/55 43/43/43
f 43/43/43 55/55/55 42/42/42
f 44/44/44 56/56/56 55/55/55
f 56/56/56 42/42/42 55/55/55
f 53/53/53 56/56/56 44/44/44
f 56/56/56 57/57/57 42/42/42
f 53/53/53 57/57/57 56/56/56
f 57/57/57 39/39/39 42/42/42
f 57/57/57 58/58/58 39/39/39
f 54/54/54 59/59/59 53/53/53
f 53/53/53 59/59/59 57/57/57
f 59/59/59 58/58/58 57/57/57
f 54/54/54 60/60/60 59/59/59
f 59/59/59 61/61/61 58/58/58
f 60/60/60 61/61/61 59/59/59
f 60/60/60 62/62/62 61/61/61
f 65/65/65 64/64/64 63/63/63
f 65/65/65 66/66/66 64/64/64
f 67/67/67 65/65/65 63/63/63
f 67/67/67 63/63/63 68/68/68
f 67/67/67 68/68/68 69/69/69
f 67/67/67 69/69/69 70/70/70
f 66/66/66 65/65/65 71/71/71
f 71/71/71 65/65/65 67/67/67
f 66/66/66 71/71/71 72/72/72
f 71/71/71 73/73/73 72/72/72
f 74/74/74 67/67/67 70/70/70
f 71/71/71 67/67/67 74/74/74
f 74/74/74 70/70/70 75/75/75
f 74/74/74 75/75/75 76/76/76
f 71/71/71 77/77/77 73/73/73
f 74/74/74 77/77/77 71/71/71
f 77/77/77 78/78/78 73/73/73
f 74/74/74 76/76/76 79/79/79
f 74/74/74 79/79/79 77/77/77
f 80/80/80 79/79/79 76/76/76
f 80/80/80 81/81/81 79/79/79
f 77/77/77 79/79/79 81/81/81
f 81/81/81 80/80/80 82/82/82
f 81/81/81 82/82/82 83/83/83
f 77/77/77 84/84/84 78/78/78
f 77/77/77 81/81/81 84/84/84
f 83/83/83 84/84/84 81/81/81
f 84/84/84 85/85/85 78/78/78
f 83/83/83 86/86/86 84/84/84
f 84/84/84 86/86/86 85/85/85
f 89/89/89 88/88/88 87/87/87
f 89/89/89 90/90/90 88/88/88
f 87/87/87 91/91/91 89/89/89
f 87/87/87 92/92/92 91/91/91
f 91/91/91 92/92/92 93/93/93
f 91/91/91 93/93/93 94/94/94
f 90/90/90 89/89/89 95/95/95
f 95/95/95 89/89/89 91/91/91
f 90/90/90 95/95/95 96/96/96
f 95/95/95 97/97/97 96/96/96
f 98/98/98 91/91/91 94/94/94
f 95/95/95 91/91/91 98/98/98
f 98/98/98 94/94/94 99/99/99
f 100/100/100 98/98/98 99/99/99
f 95/95/95 101/101/101 97/97/97
f 98/98/98 101/101/101 95/95/95
f 101/101/101 102/102/102 97/97/97
f 100/100/100 103/103/103 98/98/98
f 98/98/98 103/103/103 101/101/101
f 104/104/104 103/103/103 100/100/100
f 104/104/104 105/105/105 103/103/103
f 101/101/101 103/103/103 105/105/105
f 105/105/105 104/104/104 106/106/106
f 105/105/105 106/106/106 107/107/107
f 101/101/101 108/108/108 102/102/102
f 101/101/101 105/105/105 108/108/108
f 108/108/108 105/105/105 107/107/107
f 108/108/108 109/109/109 102/102/102
f 108/108/108 107/107/107 110/110/110
f 108/108/108 110/110/110 109/109/109
f 113/113/113 112/112/112 111/111/111
f 113/113/113 114/114/114 112/112/112
f 115/115/115 113/113/113 111/111/111
f 115/115/115 111/111/111 116/116/116
f 115/115/115 116/116/116 117/117/117
f 115/115/115 117/117/117 118/118/118
f 119/119/119 115/115/115 118/118/118
f 114/114/114 113/113/113 120/120/120
f 114/114/114 120/120/120 121/121/121
f 122/122/122 113/113/113 115/115/115
f 119/119/119 122/122/122 115/115/115
f 122/122/122 120/120/120 113/113/113
f 119/119/119 123/123/123 122/122/122
f 123/123/123 120/120/120 122/122/122
f 119/119/119 124/124/124 123/123/123
f 121/121/121 120/120/120 125/125/125
f 123/123/123 125/125/125 120/120/120
f 121/121/121 125/125/125 126/126/126
f 124/124/124 127/127/127 123/123/123
f 127/127/127 125/125/125 123/123/123
f 124/124/124 128/128/128 127/127/127
f 129/129/129 127/127/127 128/128/128
f 126/126/126 125/125/125 130/130/130
f 127/127/127 130/130/130 125/125/125
f 126/126/126 130/130/130 131/131/131
f 129/129/129 132/132/132 127/127/127
f 132/132/132 130/130/130 127/127/127
f 132/132/132 129/129/129 133/133/133
f 132/132/132 133/133/133 134/134/134
f 131/131/131 130/130/130 135/135/135
f 132/132/132 135/135/135 130/130/130
f 134/134/134 135/135/135 132/132/132
f 131/131/131 135/135/135 136/136/136
f 134/134/134 137/137/137 135/135/135
f 135/135/135 138/138/138 136/136/136
f 135/135/135 137/137/137 138/138/138
