g ENV_S05_DT_Section05_Front_HP05_MO
v 27.43499 33.928265 -39.124664
v 27.328812 33.077717 -39.168255
v 27.43499 33.077717 -39.124664
v 27.328812 33.928265 -39.168255
v 27.328812 34.034443 -39.124664
v 27.414871 34.014324 -39.10455
v 9.6015 33.928265 -39.168255
v 9.6015 33.077717 -39.168255
v 9.495321 33.077717 -39.124664
v 9.495321 33.928265 -39.124664
v 9.6015 34.034443 -39.124664
v 9.51544 34.014324 -39.10455
v 9.495321 34.034443 -39.018486
v 9.495321 33.928265 -39.124664
v 27.43499 34.034443 -39.018486
v 27.43499 33.928265 -39.124664
v 9.6015 34.07803 -39.018486
v 27.328812 34.07803 -39.018486
v 27.478579 33.928265 -39.018486
v 27.43499 33.077717 -39.124664
v 27.478579 33.077717 -39.018486
v 27.478579 33.077717 -34.453938
v 27.478579 33.928265 -34.453938
v 27.43499 34.034443 -34.453938
v 27.43499 33.928265 -34.34776
v 27.43499 33.077717 -34.34776
v 27.414871 34.014324 -34.36676
v 9.6015 34.07803 -34.453938
v 27.328812 34.07803 -34.453938
v 27.328812 34.034443 -34.34776
v 27.43499 33.928265 -34.34776
v 9.6015 34.034443 -34.34776
v 9.495321 34.034443 -34.453938
v 27.328812 33.928265 -34.30417
v 27.43499 33.077717 -34.34776
v 27.328812 33.077717 -34.30417
v 9.6015 33.928265 -34.30417
v 9.6015 33.077717 -34.30417
v 9.495321 33.928265 -34.34776
v 9.495321 33.077717 -34.34776
v 9.51544 34.014324 -34.36676
v 9.495321 33.928265 -34.34776
v 9.451733 33.928265 -39.018486
v 9.451733 33.077717 -39.018486
v 9.495321 33.077717 -39.124664
v 9.451733 33.928265 -34.453938
v 9.495321 33.077717 -34.34776
v 9.451733 33.077717 -34.453938
vt 0.3305351 -0.13532943
vt 0.2711805 -0.13049823
vt 0.27187067 -0.13878028
vt 0.32846457 -0.12773755
vt 0.33674663 -0.12704739
vt 0.3374368 -0.13394909
vt 0.3277744 1.1414845
vt 0.26980016 1.1442451
vt 0.27049035 1.151837
vt 0.3291548 1.1490763
vt 0.33605647 1.1407943
vt 0.33674663 1.147696
vt 0.3436483 1.1490763
vt 0.3353663 1.1539075
vt 0.34433848 -0.13463926
vt 0.33605647 -0.14085078
vt 0.3436483 1.1407943
vt 0.34433848 -0.12704739
vt 0.3436483 -0.14223112
vt 0.33329576 -0.20020537
vt 0.34088767 -0.20089555
vt 0.65974605 -0.19951521
vt 0.65698534 -0.14223112
vt 0.6562952 -0.13394909
vt 0.66457725 -0.14085078
vt 0.6673379 -0.19882503
vt 0.66319686 -0.13325891
vt 0.6562952 1.1407943
vt 0.6562952 -0.12635723
vt 0.663887 -0.12635723
vt 0.6700986 -0.13463926
vt 0.663887 1.1407943
vt 0.6562952 1.1483861
vt 0.6714789 -0.12704739
vt 0.728763 -0.1380901
vt 0.72945315 -0.12980807
vt 0.6714789 1.1414845
vt 0.73014337 1.1442451
vt 0.6700986 1.1490763
vt 0.72945315 1.151837
vt 0.66319686 1.147696
vt 0.66457725 1.1539075
vt 0.34295815 1.1566682
vt 0.32501376 1.2118818
vt 0.31742185 1.2091211
vt 0.65698534 1.1566682
vt 0.68252164 1.2091211
vt 0.6749298 1.2118818
vn 0.70977294 0.035291076 -0.7035459
vn 0.00392282 0.003919959 -0.9999846
vn 0.70977294 0.003919959 -0.7044196
vn 0.00392282 0.043133855 -0.9990616
vn 0.00392282 0.7097701 -0.7044225
vn 0.5764457 0.57644284 -0.579158
vn -0.003919959 0.043133855 -0.9990616
vn -0.003919959 0.003919959 -0.9999846
vn -0.7097701 0.003919959 -0.7044225
vn -0.7097701 0.035291076 -0.70354885
vn -0.003919959 0.7097701 -0.7044225
vn -0.57644284 0.57644284 -0.57916087
vn -0.7071068 0.7071068 -0
vn -0.7097701 0.035291076 -0.70354885
vn 0.70710826 0.7071054 -0
vn 0.70977294 0.035291076 -0.7035459
vn -0.003919959 0.9999529 -0.008876787
vn 0.00392282 0.9999529 -0.008876787
vn 0.999071 0.04309569 -0
vn 0.70977294 0.003919959 -0.7044196
vn 0.9999558 0.003919959 -0.008549106
vn 0.9999558 0.003919959 0.008549106
vn 0.999071 0.04309569 -0
vn 0.70710826 0.7071054 -0
vn 0.70977294 0.035291076 0.7035459
vn 0.70977294 0.003919959 0.7044196
vn 0.5764457 0.57644284 0.579158
vn -0.003919959 0.9999529 0.008876787
vn 0.00392282 0.9999529 0.008876787
vn 0.00392282 0.7097701 0.7044225
vn 0.70977294 0.035291076 0.7035459
vn -0.003919959 0.7097701 0.7044225
vn -0.7071068 0.7071068 -0
vn 0.00392282 0.043133855 0.9990616
vn 0.70977294 0.003919959 0.7044196
vn 0.00392282 0.003919959 0.9999846
vn -0.003919959 0.043133855 0.9990616
vn -0.003919959 0.003919959 0.9999846
vn -0.7097701 0.035291076 0.70354885
vn -0.7097701 0.003919959 0.7044225
vn -0.57644284 0.57644284 0.57916087
vn -0.7097701 0.035291076 0.70354885
vn -0.94505346 0.3254739 -0.030671244
vn -0.9215251 0.003919959 -0.388299
vn -0.7097701 0.003919959 -0.7044225
vn -0.94505346 0.3254739 0.030671244
vn -0.7097701 0.003919959 0.7044225
vn -0.9215251 0.003919959 0.388299
g ENV_S05_DT_Section05_Front_HP05_MO_0
f 3/3/3 2/2/2 1/1/1
f 2/2/2 4/4/4 1/1/1
f 1/1/1 4/4/4 5/5/5
f 6/6/6 1/1/1 5/5/5
f 4/4/4 2/2/2 7/7/7
f 2/2/2 8/8/8 7/7/7
f 8/8/8 9/9/9 7/7/7
f 9/9/9 10/10/10 7/7/7
f 4/4/4 7/7/7 11/11/11
f 11/11/11 7/7/7 10/10/10
f 5/5/5 4/4/4 11/11/11
f 12/12/12 11/11/11 10/10/10
f 12/12/12 13/13/13 11/11/11
f 12/12/12 14/14/14 13/13/13
f 6/6/6 5/5/5 15/15/15
f 6/6/6 15/15/15 16/16/16
f 5/5/5 11/11/11 17/17/17
f 13/13/13 17/17/17 11/11/11
f 18/18/18 5/5/5 17/17/17
f 5/5/5 18/18/18 15/15/15
f 15/15/15 19/19/19 16/16/16
f 20/20/20 16/16/16 19/19/19
f 21/21/21 20/20/20 19/19/19
f 22/22/22 21/21/21 19/19/19
f 23/23/23 19/19/19 15/15/15
f 23/23/23 22/22/22 19/19/19
f 24/24/24 23/23/23 15/15/15
f 24/24/24 15/15/15 18/18/18
f 22/22/22 23/23/23 25/25/25
f 25/25/25 23/23/23 24/24/24
f 26/26/26 22/22/22 25/25/25
f 27/27/27 25/25/25 24/24/24
f 18/18/18 17/17/17 28/28/28
f 28/28/28 17/17/17 13/13/13
f 29/29/29 24/24/24 18/18/18
f 29/29/29 18/18/18 28/28/28
f 27/27/27 24/24/24 30/30/30
f 24/24/24 29/29/29 30/30/30
f 27/27/27 30/30/30 31/31/31
f 29/29/29 28/28/28 32/32/32
f 30/30/30 29/29/29 32/32/32
f 33/33/33 28/28/28 13/13/13
f 32/32/32 28/28/28 33/33/33
f 30/30/30 34/34/34 31/31/31
f 35/35/35 31/31/31 34/34/34
f 36/36/36 35/35/35 34/34/34
f 34/34/34 30/30/30 37/37/37
f 34/34/34 37/37/37 36/36/36
f 30/30/30 32/32/32 37/37/37
f 37/37/37 38/38/38 36/36/36
f 38/38/38 37/37/37 39/39/39
f 39/39/39 37/37/37 32/32/32
f 40/40/40 38/38/38 39/39/39
f 41/41/41 39/39/39 32/32/32
f 41/41/41 32/32/32 33/33/33
f 41/41/41 33/33/33 42/42/42
f 33/33/33 13/13/13 43/43/43
f 14/14/14 43/43/43 13/13/13
f 44/44/44 43/43/43 14/14/14
f 45/45/45 44/44/44 14/14/14
f 46/46/46 33/33/33 43/43/43
f 33/33/33 46/46/46 42/42/42
f 47/47/47 42/42/42 46/46/46
f 48/48/48 47/47/47 46/46/46
