g ENV_S04_Path_M_EmmsiveStip_MO
v -0.00010871887 -1.0806599 -24.574287
v 9.115606 -1.1546345 -24.57009
v -0.00010871887 -1.1546345 -24.574812
v -9.058638 -1.1546345 -24.57009
v 9.116656 -1.0806599 -24.56904
v -0.00010871887 -1.0806599 -25.080046
v 9.19273 -1.1546345 -24.582157
v -9.059687 -1.0806599 -24.56904
v -9.135763 -1.1546345 -24.582157
v 9.193779 -1.0806599 -24.581633
v 9.261983 -1.1546345 -24.618357
v 9.262507 -1.0806599 -24.617308
v 9.316021 -1.1546345 -24.674494
v 9.350648 -1.0806599 -24.744272
v 9.31707 -1.0806599 -24.673445
v 9.350123 -1.1546345 -24.744797
v 9.358518 -1.1546345 -24.826641
v 9.357469 -1.0806599 -24.826641
v 9.344352 -1.1546345 -24.908485
v 9.345402 -1.0806599 -24.907436
v 9.307627 -1.1546345 -24.976166
v 9.308676 -1.0806599 -24.975117
v 9.252014 -1.1546345 -25.02968
v 9.18381 -1.0806599 -25.063257
v 9.253064 -1.0806599 -25.029156
v 9.183286 -1.1546345 -25.064306
v 9.106688 -1.1546345 -25.076372
v 9.107737 -1.0806599 -25.075323
v -0.00010871887 -1.1546345 -25.081095
v -9.049719 -1.1546345 -25.076372
v -9.050768 -1.0806599 -25.075323
v -9.126844 -1.0806599 -25.063257
v -9.126318 -1.1546345 -25.064306
v -9.196096 -1.0806599 -25.029156
v -9.195047 -1.1546345 -25.02968
v -9.251707 -1.0806599 -24.975117
v -9.250658 -1.1546345 -24.976166
v -9.288435 -1.0806599 -24.907436
v -9.287386 -1.1546345 -24.908485
v -9.300501 -1.0806599 -24.826641
v -9.30155 -1.1546345 -24.826641
v -9.29368 -1.0806599 -24.744272
v -9.293158 -1.1546345 -24.744797
v -9.136812 -1.0806599 -24.581633
v -9.205015 -1.1546345 -24.618357
v -9.205542 -1.0806599 -24.617308
v -9.259054 -1.1546345 -24.674494
v -9.260103 -1.0806599 -24.673445
vt 0.48742214 0.1184705
vt 0.24238607 0.12126558
vt 0.48742214 0.12126558
vt 0.7305948 0.12033389
vt 0.24238607 0.1184705
vt 0.48742214 0.10542675
vt 0.23959099 0.12033389
vt 0.72966313 0.1184705
vt 0.7324582 0.11940219
vt 0.24052268 0.1184705
vt 0.2377276 0.11940219
vt 0.23865929 0.1175388
vt 0.2358642 0.11660711
vt 0.2367959 0.113812014
vt 0.2377276 0.11567541
vt 0.23493251 0.11474372
vt 0.23493251 0.111948624
vt 0.2367959 0.111948624
vt 0.23493251 0.10915354
vt 0.2367959 0.110085234
vt 0.2367959 0.10729015
vt 0.2377276 0.108221844
vt 0.23865929 0.10542675
vt 0.24145438 0.10542675
vt 0.23959099 0.106358446
vt 0.24052268 0.10356336
vt 0.24331777 0.10356336
vt 0.24331777 0.10542675
vt 0.48742214 0.10356336
vt 0.72966313 0.102631666
vt 0.72966313 0.104495056
vt 0.7315265 0.10542675
vt 0.7324582 0.10356336
vt 0.7333899 0.106358446
vt 0.7343216 0.104495056
vt 0.7352533 0.10729015
vt 0.73618495 0.106358446
vt 0.73618495 0.10915354
vt 0.7380484 0.108221844
vt 0.73618495 0.11101693
vt 0.7380484 0.11101693
vt 0.73618495 0.113812014
vt 0.7380484 0.113812014
vt 0.7324582 0.1175388
vt 0.7352533 0.1184705
vt 0.7343216 0.11660711
vt 0.7371167 0.11660711
vt 0.7352533 0.11567541
vn -0.0035474896 0.9921582 0.124938235
vn 0.019805491 -0.012021184 0.9997316
vn -0.0035474896 -0.012021184 0.99992144
vn -0.019116163 -0.012021184 0.999745
vn 0.0042368174 0.99994254 0.009847677
vn -0.0035474896 0.9921582 -0.124938235
vn 0.3156103 -0.012021184 0.9488128
vn -0.0035474896 0.99994254 0.010116382
vn -0.3149209 -0.012021184 0.9490418
vn 0.0042368174 0.99994254 0.009847677
vn 0.5958464 -0.012021184 0.80300844
vn 0.012021006 0.99992776 -0
vn 0.82159215 -0.012021184 0.569949
vn 0.019802745 0.9998039 -0
vn 0.019802745 0.9998039 -0
vn 0.9617102 -0.012021184 0.2738046
vn 0.9850632 -0.0042368174 -0.1721411
vn 0.012021006 0.99992776 -0
vn 0.9383572 -0.0042368174 -0.34564123
vn 0.019802745 0.9998039 -0
vn 0.7982391 0.0035474896 -0.60233027
vn 0.012021006 0.99992776 -0
vn 0.5724934 0.0035474896 -0.8199017
vn 0.0042368174 0.99994254 -0.009847677
vn 0.012021006 0.99992776 -0
vn 0.30004162 0.011331856 -0.95385885
vn 0.027589858 0.011331856 -0.9995551
vn 0.0042368174 0.99994254 -0.009847677
vn -0.0035474896 0.011331856 -0.9999295
vn -0.02690053 0.011331856 -0.9995739
vn -0.0035474896 0.99994254 -0.010116382
vn -0.0035474896 0.99994254 -0.010116382
vn -0.2993523 0.011331856 -0.9540754
vn -0.011331781 0.99993587 -0
vn -0.57180405 0.0035474896 -0.8203826
vn -0.01911377 0.9998174 -0
vn -0.79754984 0.0035474896 -0.60324264
vn -0.01911377 0.9998174 -0
vn -0.93766785 -0.0042368174 -0.34750697
vn -0.011331781 0.99993587 -0
vn -0.9843739 -0.0042368174 -0.17603976
vn -0.01911377 0.9998174 -0
vn -0.9610208 -0.012021184 0.2762145
vn -0.0035474896 0.99994254 0.010116382
vn -0.595157 -0.012021184 0.8035195
vn -0.011331781 0.99993587 -0
vn -0.8209028 -0.012021184 0.5709413
vn -0.01911377 0.9998174 -0
g ENV_S04_Path_M_EmmsiveStip_MO_0
f 3/3/3 2/2/2 1/1/1
f 4/4/4 3/3/3 1/1/1
f 2/2/2 5/5/5 1/1/1
f 1/1/1 5/5/5 6/6/6
f 5/5/5 2/2/2 7/7/7
f 8/8/8 4/4/4 1/1/1
f 8/8/8 1/1/1 6/6/6
f 4/4/4 8/8/8 9/9/9
f 10/10/10 5/5/5 7/7/7
f 10/10/10 7/7/7 11/11/11
f 12/12/12 10/10/10 11/11/11
f 12/12/12 11/11/11 13/13/13
f 10/10/10 12/12/12 14/14/14
f 5/5/5 10/10/10 14/14/14
f 15/15/15 12/12/12 13/13/13
f 12/12/12 15/15/15 14/14/14
f 15/15/15 13/13/13 16/16/16
f 14/14/14 15/15/15 16/16/16
f 14/14/14 16/16/16 17/17/17
f 18/18/18 14/14/14 17/17/17
f 5/5/5 14/14/14 18/18/18
f 18/18/18 17/17/17 19/19/19
f 20/20/20 18/18/18 19/19/19
f 5/5/5 18/18/18 20/20/20
f 20/20/20 19/19/19 21/21/21
f 22/22/22 20/20/20 21/21/21
f 22/22/22 21/21/21 23/23/23
f 5/5/5 20/20/20 24/24/24
f 20/20/20 22/22/22 24/24/24
f 25/25/25 22/22/22 23/23/23
f 22/22/22 25/25/25 24/24/24
f 25/25/25 23/23/23 26/26/26
f 24/24/24 25/25/25 26/26/26
f 24/24/24 26/26/26 27/27/27
f 24/24/24 28/28/28 5/5/5
f 28/28/28 24/24/24 27/27/27
f 5/5/5 28/28/28 6/6/6
f 6/6/6 28/28/28 27/27/27
f 29/29/29 6/6/6 27/27/27
f 6/6/6 29/29/29 30/30/30
f 31/31/31 6/6/6 30/30/30
f 31/31/31 8/8/8 6/6/6
f 32/32/32 31/31/31 30/30/30
f 8/8/8 31/31/31 32/32/32
f 33/33/33 32/32/32 30/30/30
f 34/34/34 32/32/32 33/33/33
f 35/35/35 34/34/34 33/33/33
f 36/36/36 34/34/34 35/35/35
f 34/34/34 36/36/36 32/32/32
f 37/37/37 36/36/36 35/35/35
f 36/36/36 38/38/38 32/32/32
f 38/38/38 36/36/36 37/37/37
f 32/32/32 38/38/38 8/8/8
f 39/39/39 38/38/38 37/37/37
f 40/40/40 38/38/38 39/39/39
f 38/38/38 40/40/40 8/8/8
f 41/41/41 40/40/40 39/39/39
f 42/42/42 40/40/40 41/41/41
f 40/40/40 42/42/42 8/8/8
f 43/43/43 42/42/42 41/41/41
f 42/42/42 44/44/44 8/8/8
f 8/8/8 44/44/44 9/9/9
f 9/9/9 44/44/44 45/45/45
f 44/44/44 46/46/46 45/45/45
f 46/46/46 44/44/44 42/42/42
f 45/45/45 46/46/46 47/47/47
f 48/48/48 42/42/42 43/43/43
f 47/47/47 48/48/48 43/43/43
f 46/46/46 48/48/48 47/47/47
f 48/48/48 46/46/46 42/42/42
