g ENV_FFABB_MidPlatform_Garage_CornerLedge_MO
v 0.036553264 0.020495057 0.9229386
v 0.036553264 0.06998837 0.972401
v 0.045650184 0.029592037 0.9633349
v 0.016046643 0.06998837 0.9229386
v 0.03895855 0.020495057 0.06644213
v 0.016046643 0.9300002 0.9229386
v 0.018482804 0.06998837 0.06644213
v 0.04139465 0.06998837 0.020495057
v 0.05049157 0.029592037 0.029592037
v 0.036553264 0.9300002 0.972401
v 0.090887964 0.020495057 0.020495057
v 0.036553264 0.9794935 0.9229386
v 0.045650184 0.97039664 0.9633349
v 0.016046643 0.9300002 0.5983796
v 0.016046643 0.39454734 0.062895894
v 0.090887964 0.06998837 -1.1444092E-05
v 0.9508998 0.020495057 0.020495057
v 0.08845186 0.9794935 0.972401
v 0.036553264 0.9300002 0.972401
v 0.9508998 0.06998837 -1.1444092E-05
v 1.000393 0.06998837 0.020495057
v 0.9912962 0.029592037 0.029592037
v 1.000393 0.9300002 0.020495057
v 0.090887964 0.39454734 -1.1444092E-05
v 0.03895855 0.39843285 0.01694882
v 0.053266883 0.5790448 0.031257153
v 0.11765444 0.56356466 -1.1444092E-05
v 0.016046643 0.56356466 0.08966243
v 0.1928041 0.7110578 -1.1444092E-05
v 0.9508998 0.9300002 -1.1444092E-05
v 0.9508998 0.9794935 0.020495057
v 0.9912962 0.97039664 0.029592037
v 1.000393 0.9794935 0.06644213
v 1.000393 0.9300002 0.020495057
v 1.0208997 0.9300002 0.06644213
v 1.000393 0.06998837 0.020495057
v 0.036553264 0.7405071 0.124292254
v 0.016046643 0.7110578 0.16481209
v 0.15228432 0.7405071 0.020495057
v 0.30986118 0.8280841 -1.1444092E-05
v 0.06529331 0.6514808 0.04587388
v 0.016046643 0.8280841 0.28186917
v 0.036553264 0.8686347 0.25241983
v 0.016046643 0.90323377 0.4293623
v 0.036553264 0.9509077 0.41388214
v 0.036553264 0.9794935 0.59446335
v 0.08604658 1.0000001 0.59285975
v 0.08845186 1.0000001 0.9229386
v 0.07303339 0.96857727 0.39417732
v 0.6208519 1.0000001 0.06998837
v 0.4224469 0.96857727 0.056697726
v 0.07105982 0.8830664 0.22491324
v 0.073218405 0.7534895 0.094473004
v 0.25324452 0.8830664 0.05469334
v 0.120491445 0.7503133 0.054662466
v 0.2804119 0.8686347 0.020495057
v 0.4418742 0.9509077 0.020495057
v 0.4573543 0.90323377 -1.1444092E-05
v 0.62634087 0.9300002 -1.1444092E-05
v 0.62245536 0.9794935 0.020495057
v 0.9508998 1.0000001 0.06644213
v 1.000393 0.9794935 0.1216712
v 0.923054 1.0000001 0.32988226
v 1.0208997 0.9300002 0.122997165
v 0.971283 0.9794935 0.34280288
v 0.84321713 1.0000001 0.5226749
v 0.71619976 1.0000001 0.6882076
v 0.8864505 0.9794935 0.54762197
v 1.0208997 0.06998837 0.06644213
v 1.000393 0.020495057 0.06644213
v 0.9912962 0.029592037 0.029592037
v 0.9508998 0.020495057 0.020495057
v 0.99126536 0.9300002 0.34813774
v 1.0208997 0.06998837 0.122997165
v 0.9512081 -1.1444092E-05 0.0655787
v 0.090887964 0.020495057 0.020495057
v 0.99126536 0.06998837 0.34813774
v 1.000393 0.020495057 0.1216712
v 0.08845186 -1.1444092E-05 0.06644213
v 0.03895855 0.020495057 0.06644213
v 0.036553264 0.020495057 0.9229386
v 0.05049157 0.029592037 0.029592037
v 0.971283 0.020495057 0.34280288
v 0.9043668 0.06998837 0.5579524
v 0.923054 -1.1444092E-05 0.32988226
v 0.8864505 0.020495057 0.54762197
v 0.9043668 0.9300002 0.5579524
v 0.84321713 -1.1444092E-05 0.5226749
v 0.7660939 0.06998837 0.7381327
v 0.7514772 0.9794935 0.723516
v 0.7514772 0.020495057 0.723516
v 0.7660939 0.9300002 0.7381327
v 0.5506361 1.0000001 0.8152251
v 0.57561404 0.9794935 0.8584585
v 0.35787433 1.0000001 0.8950927
v 0.5859444 0.06998837 0.8763747
v 0.71619976 -1.1444092E-05 0.6882076
v 0.5859444 0.9300002 0.8763747
v 0.370795 0.9794935 0.94329095
v 0.57561404 0.020495057 0.8584585
v 0.1496324 0.9794935 0.972401
v 0.3761298 0.06998837 0.9632733
v 0.3761298 0.9300002 0.9632733
v 0.5506361 -1.1444092E-05 0.8152251
v 0.15098917 0.9300002 0.99290764
v 0.15098917 0.06998837 0.99290764
v 0.370795 0.020495057 0.94329095
v 0.08845186 0.9300002 0.99290764
v 0.08845186 0.06998837 0.99290764
v 0.036553264 0.06998837 0.972401
v 0.35787433 -1.1444092E-05 0.8950927
v 0.1496324 0.020495057 0.972401
v 0.08845186 0.020495057 0.972401
v 0.045650184 0.029592037 0.9633349
v 0.08845186 -1.1444092E-05 0.9229386
vt 0.0067118886 0.986872
vt 0.0067118886 0.986872
vt 0.0067118886 0.986872
vt 0.0067118886 0.986872
vt 0.0067118886 0.986872
vt 0.0067118886 0.986872
vt 0.0067118886 0.986872
vt 0.0067118886 0.986872
vt 0.0067118886 0.986872
vt 0.0067118886 0.986872
vt 0.0067118886 0.986872
vt 0.0067118886 0.986872
vt 0.0067118886 0.986872
vt 0.0067118886 0.986872
vt 0.0067118886 0.986872
vt 0.0067118886 0.986872
vt 0.0067118886 0.986872
vt 0.0067118886 0.986872
vt 0.0067118886 0.986872
vt 0.0067118886 0.986872
vt 0.0067118886 0.986872
vt 0.0067118886 0.986872
vt 0.0067118886 0.986872
vt 0.0067118886 0.986872
vt 0.0067118886 0.986872
vt 0.0067118886 0.986872
vt 0.0067118886 0.986872
vt 0.0067118886 0.986872
vt 0.0067118886 0.986872
vt 0.0067118886 0.986872
vt 0.0067118886 0.986872
vt 0.0067118886 0.986872
vt 0.0067118886 0.986872
vt 0.0067118886 0.986872
vt 0.0067118886 0.986872
vt 0.0067118886 0.986872
vt 0.0067118886 0.986872
vt 0.0067118886 0.986872
vt 0.0067118886 0.986872
vt 0.0067118886 0.986872
vt 0.0067118886 0.986872
vt 0.0067118886 0.986872
vt 0.0067118886 0.986872
vt 0.0067118886 0.986872
vt 0.0067118886 0.986872
vt 0.0067118886 0.986872
vt 0.0067118886 0.986872
vt 0.0067118886 0.986872
vt 0.0067118886 0.986872
vt 0.0067118886 0.986872
vt 0.0067118886 0.986872
vt 0.0067118886 0.986872
vt 0.0067118886 0.986872
vt 0.0067118886 0.986872
vt 0.0067118886 0.986872
vt 0.0067118886 0.986872
vt 0.0067118886 0.986872
vt 0.0067118886 0.986872
vt 0.0067118886 0.986872
vt 0.0067118886 0.986872
vt 0.0067118886 0.986872
vt 0.0067118886 0.986872
vt 0.0067118886 0.986872
vt 0.0067118886 0.986872
vt 0.0067118886 0.986872
vt 0.0067118886 0.986872
vt 0.0067118886 0.986872
vt 0.0067118886 0.986872
vt 0.0067118886 0.986872
vt 0.0067118886 0.986872
vt 0.0067118886 0.986872
vt 0.0067118886 0.986872
vt 0.0067118886 0.986872
vt 0.0067118886 0.986872
vt 0.0067118886 0.986872
vt 0.0067118886 0.986872
vt 0.0067118886 0.986872
vt 0.0067118886 0.986872
vt 0.0067118886 0.986872
vt 0.0067118886 0.986872
vt 0.0067118886 0.986872
vt 0.0067118886 0.986872
vt 0.0067118886 0.986872
vt 0.0067118886 0.986872
vt 0.0067118886 0.986872
vt 0.0067118886 0.986872
vt 0.0067118886 0.986872
vt 0.0067118886 0.986872
vt 0.0067118886 0.986872
vt 0.0067118886 0.986872
vt 0.0067118886 0.986872
vt 0.0067118886 0.986872
vt 0.0067118886 0.986872
vt 0.0067118886 0.986872
vt 0.0067118886 0.986872
vt 0.0067118886 0.986872
vt 0.0067118886 0.986872
vt 0.0067118886 0.986872
vt 0.0067118886 0.986872
vt 0.0067118886 0.986872
vt 0.0067118886 0.986872
vt 0.0067118886 0.986872
vt 0.0067118886 0.986872
vt 0.0067118886 0.986872
vt 0.0067118886 0.986872
vt 0.0067118886 0.986872
vt 0.0067118886 0.986872
vt 0.0067118886 0.986872
vt 0.0067118886 0.986872
vt 0.0067118886 0.986872
vt 0.0067118886 0.986872
vt 0.0067118886 0.986872
vt 0.0067118886 0.986872
vt 0.0067118886 0.986872
vt 0.0067118886 0.986872
vn -0.6993902 -0.71474004 -0
vn -0.69355345 -0.011614442 0.7203115
vn -0.56035507 -0.5835841 0.5877345
vn -0.99129105 -0.097801685 0.08818685
vn -0.7013887 -0.70894724 -0.07380844
vn -0.99129105 0.035396695 0.12684307
vn -0.99129105 -0.097801685 -0.08818685
vn -0.6622127 -0.04295528 -0.74808365
vn -0.5525199 -0.56007844 -0.6172794
vn -0.69355345 0.011891127 0.72030705
vn -0.011891127 -0.6932769 -0.72057325
vn -0.69925225 0.7148749 -0
vn -0.56035507 0.58386075 0.5874596
vn -0.99869627 0.051045135 -0
vn -0.9991263 0.004055977 -0.041594997
vn -0.035396695 -0.089966476 -0.99531555
vn 0.011614442 -0.6854416 -0.728035
vn -0.16075993 0.63870716 0.7524689
vn -0.69355345 0.011891127 0.72030705
vn 0.089966476 -0.089966476 -0.991873
vn 0.6854416 -0.011614442 -0.728035
vn 0.56791365 -0.56007844 -0.6031469
vn 0.6854416 0.011891127 -0.7280305
vn -0.051067114 0.004055977 -0.998687
vn -0.65437746 0.035396695 -0.7553391
vn -0.6622127 0.15292478 -0.73354506
vn -0.051067114 0.019726276 -0.9985004
vn -0.9991263 0.019726276 -0.036843844
vn -0.043231964 0.027561545 -0.99868476
vn 0.089966476 0.035396695 -0.99531555
vn 0.03512007 0.7013887 -0.7119132
vn 0.56791365 0.56819034 -0.59551144
vn 0.7481232 0.63870716 -0.17990215
vn 0.6854416 0.011891127 -0.7280305
vn 0.9831792 0.019726276 -0.18157507
vn 0.6854416 -0.011614442 -0.728035
vn -0.8189167 0.3331343 -0.46732965
vn -0.9991263 0.027561545 -0.031415857
vn -0.43499196 0.3331343 -0.83654267
vn -0.027561545 0.035396695 -0.99899316
vn -0.63870716 0.31746387 -0.70090646
vn -0.9991263 0.035396695 -0.02221866
vn -0.7954111 0.4976735 -0.34589344
vn -0.9990652 0.04322932 -0
vn -0.7405647 0.6465423 -0.18315819
vn -0.7013887 0.70922387 -0.07110153
vn -0.07443086 0.9972262 -0
vn -0.10591352 0.99129105 0.07825878
vn -0.22344148 0.95211506 -0.20868826
vn -0.035396695 0.9991263 -0.022218138
vn -0.19993591 0.95211506 -0.23130608
vn -0.45849752 0.7562351 -0.46678525
vn -0.5916959 0.52901435 -0.608309
vn -0.43499196 0.7640703 -0.4764228
vn -0.5525199 0.52901435 -0.64410055
vn -0.3488047 0.4976735 -0.7941387
vn -0.17643034 0.6465423 -0.7421963
vn -0.011891127 0.043231964 -0.9989943
vn -0.004055977 0.051067114 -0.998687
vn -0.035396695 0.7013887 -0.7118995
vn 0.05862564 0.99129105 -0.11791992
vn 0.65410084 0.7562351 0.016142847
vn 0.097801685 0.99129105 0.08818682
vn 0.9910144 0.019726276 0.13229236
vn 0.6854416 0.7013887 0.1955087
vn 0.07415628 0.99724656 -0
vn 0.02728486 0.9991263 0.03165648
vn 0.6305952 0.6857183 0.3635108
vn 0.9831792 -0.019449651 -0.18160492
vn 0.7481232 -0.6384305 -0.18088159
vn 0.56791365 -0.56007844 -0.6031469
vn 0.011614442 -0.6854416 -0.728035
vn 0.96750885 0.019726276 0.25206646
vn 0.9910144 -0.019449651 0.13233331
vn 0.019449651 -0.9910144 -0.13233323
vn -0.011891127 -0.6932769 -0.72057325
vn 0.96750885 -0.019449651 0.25208798
vn 0.65410084 -0.75595844 0.026056794
vn -0.09807837 -0.9910144 -0.09094525
vn -0.7013887 -0.70894724 -0.07380844
vn -0.6993902 -0.71474004 -0
vn -0.5525199 -0.56007844 -0.6172794
vn 0.6854416 -0.70111203 0.19649863
vn 0.86565125 -0.019449651 0.50026953
vn 0.04295528 -0.99884963 0.021313071
vn 0.6305952 -0.6854416 0.36403227
vn 0.86565125 0.019726276 0.5002587
vn 0.04295528 -0.99884963 0.021313071
vn 0.70894724 -0.019449651 0.70499325
vn 0.51306725 0.6857183 0.51628715
vn 0.51306725 -0.6854416 0.51665443
vn 0.70894724 0.019726276 0.70498556
vn 0.042953163 0.99907714 -0
vn 0.36419845 0.6857183 0.6301983
vn 0.02728486 0.99129105 0.12883179
vn 0.49739683 -0.019449651 0.86730504
vn 0.03512007 -0.99884963 0.032650102
vn 0.49739683 0.019726276 0.86729884
vn 0.17615366 0.70922387 0.682621
vn 0.36419845 -0.6854416 0.63049924
vn 0.06646085 0.7562351 0.6509158
vn 0.26234084 -0.019449651 0.9647792
vn 0.26234084 0.019726276 0.96477365
vn 0.02728486 -0.99884963 0.03943306
vn 0.105636895 0.019726276 0.9942091
vn 0.105636895 -0.019449651 0.99421453
vn 0.17615366 -0.70894724 0.68290824
vn -0.17643034 0.019726276 0.9841154
vn -0.17643034 -0.019449651 0.9841209
vn -0.69355345 -0.011614442 0.7203115
vn 0.011614442 -0.99884963 0.046524648
vn 0.06646085 -0.75595844 0.6512371
vn -0.16075993 -0.6462656 0.74598724
vn -0.56035507 -0.5835841 0.5877345
vn -0.11374867 -0.9910144 0.07036801
g ENV_FFABB_MidPlatform_Garage_CornerLedge_MO_0
f 3/3/3 2/2/2 1/1/1
f 2/2/2 4/4/4 1/1/1
f 1/1/1 4/4/4 5/5/5
f 4/4/4 2/2/2 6/6/6
f 4/4/4 7/7/7 5/5/5
f 5/5/5 7/7/7 8/8/8
f 9/9/9 5/5/5 8/8/8
f 2/2/2 10/10/10 6/6/6
f 9/9/9 8/8/8 11/11/11
f 12/12/12 6/6/6 10/10/10
f 13/13/13 12/12/12 10/10/10
f 4/4/4 6/6/6 14/14/14
f 14/14/14 6/6/6 12/12/12
f 7/7/7 4/4/4 15/15/15
f 8/8/8 7/7/7 15/15/15
f 8/8/8 16/16/16 11/11/11
f 17/17/17 11/11/11 16/16/16
f 13/13/13 18/18/18 12/12/12
f 13/13/13 19/19/19 18/18/18
f 20/20/20 17/17/17 16/16/16
f 17/17/17 20/20/20 21/21/21
f 22/22/22 17/17/17 21/21/21
f 21/21/21 20/20/20 23/23/23
f 24/24/24 20/20/20 16/16/16
f 24/24/24 16/16/16 8/8/8
f 25/25/25 24/24/24 8/8/8
f 25/25/25 8/8/8 15/15/15
f 26/26/26 25/25/25 15/15/15
f 27/27/27 24/24/24 25/25/25
f 27/27/27 20/20/20 24/24/24
f 26/26/26 27/27/27 25/25/25
f 28/28/28 26/26/26 15/15/15
f 15/15/15 4/4/4 28/28/28
f 29/29/29 20/20/20 27/27/27
f 27/27/27 26/26/26 29/29/29
f 20/20/20 30/30/30 23/23/23
f 23/23/23 30/30/30 31/31/31
f 32/32/32 23/23/23 31/31/31
f 32/32/32 31/31/31 33/33/33
f 32/32/32 33/33/33 34/34/34
f 33/33/33 35/35/35 34/34/34
f 36/36/36 34/34/34 35/35/35
f 26/26/26 28/28/28 37/37/37
f 28/28/28 4/4/4 38/38/38
f 28/28/28 38/38/38 37/37/37
f 26/26/26 39/39/39 29/29/29
f 40/40/40 20/20/20 29/29/29
f 29/29/29 39/39/39 40/40/40
f 41/41/41 26/26/26 37/37/37
f 26/26/26 41/41/41 39/39/39
f 38/38/38 4/4/4 42/42/42
f 37/37/37 38/38/38 43/43/43
f 38/38/38 42/42/42 43/43/43
f 42/42/42 4/4/4 44/44/44
f 44/44/44 4/4/4 14/14/14
f 42/42/42 44/44/44 45/45/45
f 43/43/43 42/42/42 45/45/45
f 44/44/44 14/14/14 46/46/46
f 45/45/45 44/44/44 46/46/46
f 45/45/45 46/46/46 47/47/47
f 46/46/46 14/14/14 12/12/12
f 46/46/46 12/12/12 48/48/48
f 47/47/47 46/46/46 48/48/48
f 18/18/18 48/48/48 12/12/12
f 43/43/43 45/45/45 49/49/49
f 49/49/49 45/45/45 47/47/47
f 47/47/47 50/50/50 49/49/49
f 50/50/50 51/51/51 49/49/49
f 52/52/52 43/43/43 49/49/49
f 49/49/49 51/51/51 52/52/52
f 37/37/37 43/43/43 52/52/52
f 53/53/53 37/37/37 52/52/52
f 53/53/53 41/41/41 37/37/37
f 52/52/52 54/54/54 53/53/53
f 51/51/51 54/54/54 52/52/52
f 53/53/53 55/55/55 41/41/41
f 54/54/54 55/55/55 53/53/53
f 41/41/41 55/55/55 39/39/39
f 39/39/39 55/55/55 56/56/56
f 55/55/55 54/54/54 56/56/56
f 39/39/39 56/56/56 40/40/40
f 54/54/54 51/51/51 57/57/57
f 56/56/56 54/54/54 57/57/57
f 40/40/40 56/56/56 58/58/58
f 56/56/56 57/57/57 58/58/58
f 58/58/58 20/20/20 40/40/40
f 59/59/59 20/20/20 58/58/58
f 58/58/58 57/57/57 59/59/59
f 30/30/30 20/20/20 59/59/59
f 57/57/57 51/51/51 60/60/60
f 57/57/57 60/60/60 59/59/59
f 59/59/59 60/60/60 30/30/30
f 51/51/51 50/50/50 60/60/60
f 60/60/60 31/31/31 30/30/30
f 60/60/60 50/50/50 31/31/31
f 50/50/50 61/61/61 31/31/31
f 31/31/31 61/61/61 33/33/33
f 61/61/61 62/62/62 33/33/33
f 33/33/33 62/62/62 35/35/35
f 63/63/63 61/61/61 50/50/50
f 61/61/61 63/63/63 62/62/62
f 62/62/62 64/64/64 35/35/35
f 63/63/63 65/65/65 62/62/62
f 62/62/62 65/65/65 64/64/64
f 66/66/66 63/63/63 50/50/50
f 63/63/63 66/66/66 65/65/65
f 67/67/67 66/66/66 50/50/50
f 67/67/67 50/50/50 47/47/47
f 66/66/66 68/68/68 65/65/65
f 66/66/66 67/67/67 68/68/68
f 69/69/69 35/35/35 64/64/64
f 69/69/69 36/36/36 35/35/35
f 36/36/36 69/69/69 70/70/70
f 71/71/71 36/36/36 70/70/70
f 71/71/71 70/70/70 72/72/72
f 65/65/65 73/73/73 64/64/64
f 65/65/65 68/68/68 73/73/73
f 74/74/74 69/69/69 64/64/64
f 69/69/69 74/74/74 70/70/70
f 70/70/70 75/75/75 72/72/72
f 72/72/72 75/75/75 76/76/76
f 77/77/77 74/74/74 64/64/64
f 73/73/73 77/77/77 64/64/64
f 74/74/74 78/78/78 70/70/70
f 70/70/70 78/78/78 75/75/75
f 74/74/74 77/77/77 78/78/78
f 75/75/75 79/79/79 76/76/76
f 76/76/76 79/79/79 80/80/80
f 81/81/81 80/80/80 79/79/79
f 82/82/82 76/76/76 80/80/80
f 78/78/78 83/83/83 75/75/75
f 77/77/77 83/83/83 78/78/78
f 84/84/84 77/77/77 73/73/73
f 77/77/77 84/84/84 83/83/83
f 83/83/83 85/85/85 75/75/75
f 85/85/85 79/79/79 75/75/75
f 83/83/83 86/86/86 85/85/85
f 84/84/84 86/86/86 83/83/83
f 87/87/87 84/84/84 73/73/73
f 68/68/68 87/87/87 73/73/73
f 88/88/88 79/79/79 85/85/85
f 86/86/86 88/88/88 85/85/85
f 84/84/84 89/89/89 86/86/86
f 89/89/89 84/84/84 87/87/87
f 68/68/68 90/90/90 87/87/87
f 67/67/67 90/90/90 68/68/68
f 86/86/86 91/91/91 88/88/88
f 89/89/89 91/91/91 86/86/86
f 92/92/92 89/89/89 87/87/87
f 90/90/90 92/92/92 87/87/87
f 67/67/67 93/93/93 90/90/90
f 93/93/93 67/67/67 47/47/47
f 93/93/93 94/94/94 90/90/90
f 90/90/90 94/94/94 92/92/92
f 95/95/95 93/93/93 47/47/47
f 93/93/93 95/95/95 94/94/94
f 95/95/95 47/47/47 48/48/48
f 96/96/96 89/89/89 92/92/92
f 89/89/89 96/96/96 91/91/91
f 91/91/91 97/97/97 88/88/88
f 97/97/97 79/79/79 88/88/88
f 94/94/94 98/98/98 92/92/92
f 98/98/98 96/96/96 92/92/92
f 95/95/95 99/99/99 94/94/94
f 99/99/99 95/95/95 48/48/48
f 94/94/94 99/99/99 98/98/98
f 91/91/91 100/100/100 97/97/97
f 96/96/96 100/100/100 91/91/91
f 101/101/101 99/99/99 48/48/48
f 18/18/18 101/101/101 48/48/48
f 102/102/102 96/96/96 98/98/98
f 96/96/96 102/102/102 100/100/100
f 99/99/99 103/103/103 98/98/98
f 103/103/103 99/99/99 101/101/101
f 103/103/103 102/102/102 98/98/98
f 100/100/100 104/104/104 97/97/97
f 104/104/104 79/79/79 97/97/97
f 105/105/105 101/101/101 18/18/18
f 105/105/105 103/103/103 101/101/101
f 106/106/106 102/102/102 103/103/103
f 105/105/105 106/106/106 103/103/103
f 102/102/102 107/107/107 100/100/100
f 100/100/100 107/107/107 104/104/104
f 107/107/107 102/102/102 106/106/106
f 108/108/108 105/105/105 18/18/18
f 105/105/105 108/108/108 106/106/106
f 19/19/19 108/108/108 18/18/18
f 109/109/109 108/108/108 19/19/19
f 108/108/108 109/109/109 106/106/106
f 110/110/110 109/109/109 19/19/19
f 111/111/111 79/79/79 104/104/104
f 107/107/107 111/111/111 104/104/104
f 112/112/112 107/107/107 106/106/106
f 112/112/112 106/106/106 109/109/109
f 111/111/111 107/107/107 112/112/112
f 113/113/113 109/109/109 110/110/110
f 113/113/113 112/112/112 109/109/109
f 114/114/114 113/113/113 110/110/110
f 114/114/114 81/81/81 113/113/113
f 115/115/115 81/81/81 79/79/79
f 115/115/115 79/79/79 111/111/111
f 115/115/115 111/111/111 112/112/112
f 81/81/81 115/115/115 113/113/113
f 115/115/115 112/112/112 113/113/113
