g ENV_SY02_HP_cube_MO
v -0 0.07002509 1.4229763
v 1.352951 0.020518899 1.4024572
v -0 0.020518899 1.4024572
v 1.352951 0.07002509 1.4229763
v 1.352951 0.74650073 1.4229763
v -0 0.74650073 1.4229763
v 1.4024572 0.74650073 1.4024572
v 1.4024572 0.07002509 1.4024572
v 1.3934028 0.029573321 1.3934028
v -1.4024572 2.7759273 1.4024572
v -1.4024572 0.74650073 1.4024572
v -1.4229763 0.74650073 1.352951
v -1.4229763 2.7759273 1.352951
v -1.4229763 0.74650073 0
v -1.4024572 2.8254335 1.352951
v -1.3934028 2.8163788 1.3934028
v -1.4024572 2.8254335 0
v -1.4229763 2.7759273 0
v -1.4229763 0.74650073 -1.352951
v -1.4024572 2.8254335 -1.352951
v -1.4229763 2.7759273 -1.352951
v -1.4024572 0.74650073 -1.4024572
v -1.4024572 2.7759273 -1.4024572
v -1.3934028 2.8163788 -1.3934028
v 1.4229763 0.07002509 0
v 1.4024572 0.020518899 -1.352951
v 1.4024572 0.020518899 0
v 1.4229763 0.07002509 -1.352951
v 1.4229763 0.74650073 -1.352951
v 1.4229763 0.74650073 0
v 1.4024572 0.74650073 -1.4024572
v 1.4024572 0.07002509 -1.4024572
v 1.3934028 0.029573321 -1.3934028
v 1.4024572 2.7759273 1.4024572
v 1.4024572 0.74650073 1.4024572
v 1.352951 0.74650073 1.4229763
v 1.352951 2.7759273 1.4229763
v -0 0.74650073 1.4229763
v 1.352951 2.8254335 1.4024572
v 1.3934028 2.8163788 1.3934028
v -0 2.8254335 1.4024572
v -0 2.7759273 1.4229763
v -1.352951 0.74650073 1.4229763
v -1.352951 2.8254335 1.4024572
v -1.352951 2.7759273 1.4229763
v -1.4024572 0.74650073 1.4024572
v -1.4024572 2.7759273 1.4024572
v -1.3934028 2.8163788 1.3934028
v -1.4024572 2.7759273 -1.4024572
v -1.4024572 0.74650073 -1.4024572
v -1.352951 0.74650073 -1.4229763
v -1.352951 2.7759273 -1.4229763
v -0 0.74650073 -1.4229763
v -1.352951 2.8254335 -1.4024572
v -1.3934028 2.8163788 -1.3934028
v -0 2.8254335 -1.4024572
v -0 2.7759273 -1.4229763
v 1.352951 0.74650073 -1.4229763
v 1.352951 2.8254335 -1.4024572
v 1.352951 2.7759273 -1.4229763
v 1.4024572 0.74650073 -1.4024572
v 1.4024572 2.7759273 -1.4024572
v 1.3934028 2.8163788 -1.3934028
v 1.4024572 2.7759273 -1.4024572
v 1.4024572 0.74650073 -1.4024572
v 1.4229763 0.74650073 -1.352951
v 1.4229763 2.7759273 -1.352951
v 1.4229763 0.74650073 0
v 1.4024572 2.8254335 -1.352951
v 1.3934028 2.8163788 -1.3934028
v 1.4024572 2.8254335 0
v 1.4229763 2.7759273 0
v 1.4229763 0.74650073 1.352951
v 1.4024572 2.8254335 1.352951
v 1.4229763 2.7759273 1.352951
v 1.4024572 0.74650073 1.4024572
v 1.4024572 2.7759273 1.4024572
v 1.3934028 2.8163788 1.3934028
v -1.4024572 0.07002509 1.4024572
v -1.3934028 0.029573321 1.3934028
v -1.4024572 0.020518899 1.352951
v -1.4229763 0.07002509 1.352951
v -1.4024572 0.74650073 1.4024572
v -1.4229763 0.74650073 1.352951
v -1.4229763 0.07002509 0
v -1.4024572 0.020518899 0
v -1.4229763 0.74650073 0
v -1.4024572 0.020518899 1.352951
v -1.3934028 0.029573321 1.3934028
v -1.352951 0.020518899 1.4024572
v -1.352951 0 1.352951
v -1.4024572 0.020518899 0
v -0 0 1.352951
v -0 0.020518899 1.4024572
v -1.352951 0 0
v -1.4024572 0.020518899 -1.352951
v 1.352951 0 1.352951
v 1.352951 0.020518899 1.4024572
v 1.4024572 0.020518899 1.352951
v 1.3934028 0.029573321 1.3934028
v 1.352951 0 0
v 1.4024572 0.020518899 0
v -0 0 0
v 1.352951 0 -1.352951
v 1.4024572 0.020518899 -1.352951
v -1.352951 0 -1.352951
v 1.352951 0.020518899 -1.4024572
v 1.3934028 0.029573321 -1.3934028
v -0 0 -1.352951
v -0 0.020518899 -1.4024572
v -1.352951 0.020518899 -1.4024572
v -1.3934028 0.029573321 -1.3934028
v -1.352951 0.020518899 1.4024572
v -1.3934028 0.029573321 1.3934028
v -1.4024572 0.07002509 1.4024572
v -1.352951 0.07002509 1.4229763
v -0 0.020518899 1.4024572
v -0 0.07002509 1.4229763
v -0 0.74650073 1.4229763
v -1.352951 0.74650073 1.4229763
v -1.4024572 0.74650073 1.4024572
v 1.4024572 0.020518899 1.352951
v 1.3934028 0.029573321 1.3934028
v 1.4024572 0.07002509 1.4024572
v 1.4229763 0.07002509 1.352951
v 1.4024572 0.020518899 0
v 1.4229763 0.07002509 0
v 1.4229763 0.74650073 0
v 1.4229763 0.74650073 1.352951
v 1.4024572 0.74650073 1.4024572
v -1.352951 2.8254335 1.4024572
v -1.3934028 2.8163788 1.3934028
v -1.4024572 2.8254335 1.352951
v -1.352951 2.8459523 1.352951
v -0 2.8254335 1.4024572
v -1.352951 2.8459523 0
v -1.4024572 2.8254335 0
v -0 2.8459523 1.352951
v 1.352951 2.8254335 1.4024572
v -0 2.8459523 0
v -1.352951 2.8459523 -1.352951
v -1.4024572 2.8254335 -1.352951
v 1.352951 2.8459523 1.352951
v -0 2.8459523 -1.352951
v -1.352951 2.8254335 -1.4024572
v -1.3934028 2.8163788 -1.3934028
v -0 2.8254335 -1.4024572
v 1.4024572 2.8254335 1.352951
v 1.3934028 2.8163788 1.3934028
v 1.4024572 2.8254335 0
v 1.352951 2.8459523 0
v 1.4024572 2.8254335 -1.352951
v 1.352951 2.8459523 -1.352951
v 1.352951 2.8254335 -1.4024572
v 1.3934028 2.8163788 -1.3934028
v -1.4024572 0.020518899 -1.352951
v -1.3934028 0.029573321 -1.3934028
v -1.4024572 0.07002509 -1.4024572
v -1.4229763 0.07002509 -1.352951
v -1.4024572 0.020518899 0
v -1.4229763 0.07002509 0
v -1.4229763 0.74650073 0
v -1.4229763 0.74650073 -1.352951
v -1.4024572 0.74650073 -1.4024572
v -1.4024572 0.07002509 -1.4024572
v -1.3934028 0.029573321 -1.3934028
v -1.352951 0.020518899 -1.4024572
v -1.352951 0.07002509 -1.4229763
v -1.4024572 0.74650073 -1.4024572
v -1.352951 0.74650073 -1.4229763
v -0 0.07002509 -1.4229763
v -0 0.020518899 -1.4024572
v -0 0.74650073 -1.4229763
v 1.352951 0.020518899 -1.4024572
v 1.3934028 0.029573321 -1.3934028
v 1.4024572 0.07002509 -1.4024572
v 1.352951 0.07002509 -1.4229763
v -0 0.020518899 -1.4024572
v -0 0.07002509 -1.4229763
v 1.352951 0.74650073 -1.4229763
v 1.4024572 0.74650073 -1.4024572
v -0 0.74650073 -1.4229763
vt 0.6061112 0.70608175
vt 0.5974599 0.4590392
vt 0.5974599 0.70608175
vt 0.6061112 0.4590392
vt 0.73011315 0.4590392
vt 0.73011315 0.70608175
vt 0.73011315 0.44942665
vt 0.6061112 0.44942665
vt 0.5984212 0.4513492
vt 0.37925506 0.9588918
vt 0.37925506 0.75606704
vt 0.37444878 0.75606704
vt 0.37444878 0.9588918
vt 0.23891182 0.75606704
vt 0.37444878 0.9636981
vt 0.3782938 0.96273685
vt 0.23891182 0.9636981
vt 0.23891182 0.9588918
vt 0.103374854 0.75606704
vt 0.103374854 0.9636981
vt 0.103374854 0.9588918
vt 0.09856858 0.75606704
vt 0.09856858 0.9588918
vt 0.09952984 0.96273685
vt 0.16585644 0.43885285
vt 0.3013934 0.43404657
vt 0.16585644 0.43404657
vt 0.3013934 0.43885285
vt 0.3013934 0.5061407
vt 0.16585644 0.5061407
vt 0.30619967 0.5061407
vt 0.30619967 0.43885285
vt 0.30523843 0.43500787
vt 0.085111015 0.75510573
vt 0.085111015 0.72146183
vt 0.085111015 0.72146183
vt 0.085111015 0.75510573
vt 0.06204089 0.72146183
vt 0.085111015 0.75606704
vt 0.085111015 0.75606704
vt 0.06204089 0.75606704
vt 0.06204089 0.75510573
vt 0.039932024 0.72146183
vt 0.039932024 0.75606704
vt 0.039932024 0.75510573
vt 0.03897077 0.72146183
vt 0.03897077 0.75510573
vt 0.03897077 0.75606704
vt 0.036087006 0.7156943
vt 0.036087006 0.7493382
vt 0.037048258 0.7493382
vt 0.037048258 0.7156943
vt 0.06011838 0.7493382
vt 0.037048258 0.71473306
vt 0.037048258 0.71473306
vt 0.06011838 0.71473306
vt 0.06011838 0.7156943
vt 0.082227245 0.7493382
vt 0.082227245 0.71473306
vt 0.082227245 0.7156943
vt 0.083188504 0.7493382
vt 0.083188504 0.7156943
vt 0.083188504 0.71473306
vt 0.3725263 0.70896554
vt 0.3725263 0.5061407
vt 0.36772 0.5061407
vt 0.36772 0.70896554
vt 0.23218304 0.5061407
vt 0.36772 0.7137718
vt 0.37156498 0.7128105
vt 0.23218304 0.7137718
vt 0.23218304 0.70896554
vt 0.09760733 0.5061407
vt 0.09760733 0.7137718
vt 0.09760733 0.70896554
vt 0.09280105 0.5061407
vt 0.09280105 0.70896554
vt 0.09376231 0.7128105
vt 0.31292844 0.6887792
vt 0.3119672 0.6839729
vt 0.30812216 0.68301165
vt 0.30812216 0.6887792
vt 0.31292844 0.75606704
vt 0.30812216 0.75606704
vt 0.17258522 0.6887792
vt 0.17258522 0.68301165
vt 0.17258522 0.75606704
vt 0.038009517 0.75510573
vt 0.03897077 0.75606704
vt 0.039932024 0.75606704
vt 0.039932024 0.75510573
vt 0.038009517 0.72530687
vt 0.06876968 0.75510573
vt 0.06876968 0.75606704
vt 0.039932024 0.72530687
vt 0.038009517 0.6964692
vt 0.09760733 0.75510573
vt 0.09760733 0.75606704
vt 0.09856858 0.75510573
vt 0.09856858 0.75606704
vt 0.09760733 0.72530687
vt 0.09856858 0.72530687
vt 0.06876968 0.72530687
vt 0.09760733 0.6964692
vt 0.09856858 0.6964692
vt 0.039932024 0.6964692
vt 0.09760733 0.69550794
vt 0.09856858 0.69550794
vt 0.06876968 0.6964692
vt 0.06876968 0.69550794
vt 0.039932024 0.69550794
vt 0.03897077 0.69550794
vt 0.5974599 0.9531243
vt 0.5984212 0.96081436
vt 0.6061112 0.96273685
vt 0.6061112 0.9531243
vt 0.5974599 0.70608175
vt 0.6061112 0.70608175
vt 0.73011315 0.70608175
vt 0.73011315 0.9531243
vt 0.73011315 0.96273685
vt 0.03128073 0.43404657
vt 0.027435709 0.43500787
vt 0.026474454 0.43885285
vt 0.03128073 0.43885285
vt 0.16585644 0.43404657
vt 0.16585644 0.43885285
vt 0.16585644 0.5061407
vt 0.03128073 0.5061407
vt 0.026474454 0.5061407
vt 0.084149756 0.05627336
vt 0.078382224 0.05819587
vt 0.07645972 0.0639634
vt 0.084149756 0.0639634
vt 0.29178083 0.05627336
vt 0.084149756 0.27255577
vt 0.07645972 0.27255577
vt 0.29178083 0.0639634
vt 0.5003732 0.05627336
vt 0.29178083 0.27255577
vt 0.084149756 0.48018682
vt 0.07645972 0.48018682
vt 0.5003732 0.0639634
vt 0.29178083 0.48018682
vt 0.084149756 0.4878769
vt 0.078382224 0.48595434
vt 0.29178083 0.4878769
vt 0.50806326 0.0639634
vt 0.5061407 0.05819587
vt 0.50806326 0.27255577
vt 0.5003732 0.27255577
vt 0.50806326 0.48018682
vt 0.5003732 0.48018682
vt 0.5003732 0.4878769
vt 0.5061407 0.48595434
vt 0.038009517 0.68301165
vt 0.034164496 0.6839729
vt 0.033203237 0.6887792
vt 0.038009517 0.6887792
vt 0.17258522 0.68301165
vt 0.17258522 0.6887792
vt 0.17258522 0.75606704
vt 0.038009517 0.75606704
vt 0.033203237 0.75606704
vt 0.989652 0.9223641
vt 0.9954195 0.9204416
vt 0.99734205 0.9146741
vt 0.989652 0.9146741
vt 0.88199145 0.9223641
vt 0.88199145 0.9146741
vt 0.989652 0.69839174
vt 0.99734205 0.69839174
vt 0.88199145 0.69839174
vt 0.99734205 0.4830706
vt 0.9954195 0.47634178
vt 0.989652 0.47538054
vt 0.989652 0.4830706
vt 0.99734205 0.69839174
vt 0.989652 0.69839174
vt 0.88199145 0.4830706
vt 0.88199145 0.47538054
vt 0.88199145 0.69839174
vn -0.003921509 -0.0274508 0.9996155
vn 0.011764646 -0.7097985 0.70430654
vn -0.003921509 -0.7097985 0.70439386
vn 0.011764646 -0.0274508 0.9995539
vn 0.011764646 0.003921509 0.9999231
vn -0.003921509 0.003921509 0.9999846
vn 0.7097985 0.003921509 0.70439386
vn 0.7097985 -0.019607723 0.70413184
vn 0.5764662 -0.5764662 0.5791144
vn -0.70979846 0.003921509 0.7043939
vn -0.70979846 0.003921509 0.7043939
vn -0.99999225 0.003921509 -0.00034492963
vn -0.99993086 0.011763804 -0
vn -0.99999225 0.003921509 -0.00034492963
vn -0.70710677 0.70710677 -0
vn -0.5764661 0.5764661 0.57911456
vn -0.70710677 0.70710677 -0
vn -0.99993086 0.011763804 -0
vn -0.99999225 0.003921509 -0.00034492963
vn -0.70710677 0.70710677 -0
vn -0.99993086 0.011763804 -0
vn -0.70979846 0.003921509 -0.7043939
vn -0.70979846 0.003921509 -0.7043939
vn -0.5764661 0.5764661 -0.57911456
vn 0.9996234 -0.027440673 -0
vn 0.70710677 -0.70710677 -0
vn 0.70710677 -0.70710677 -0
vn 0.9996234 -0.027440673 -0
vn 0.9999924 0.003921509 -0
vn 0.9999924 0.003921509 -0
vn 0.7097985 0.003921509 -0.70439386
vn 0.7097985 -0.019607723 -0.70413184
vn 0.5764662 -0.5764662 -0.5791144
vn 0.7097985 0.003921509 0.70439386
vn 0.7097985 0.003921509 0.70439386
vn 0.011764646 0.003921509 0.9999231
vn 0.011764646 0.011764526 0.9998616
vn -0.003921509 0.003921509 0.9999846
vn 0.011764646 0.70979846 0.70430654
vn 0.5764662 0.5764661 0.57911444
vn -0.003921509 0.70979846 0.7043939
vn -0.003921509 0.011764526 0.9999231
vn -0.011764526 0.003921509 0.9999231
vn -0.011764526 0.70979846 0.70430654
vn -0.011764526 0.011764526 0.9998616
vn -0.70979846 0.003921509 0.7043939
vn -0.70979846 0.003921509 0.7043939
vn -0.5764661 0.5764661 0.57911456
vn -0.70979846 0.003921509 -0.7043939
vn -0.70979846 0.003921509 -0.7043939
vn -0.011764526 0.003921509 -0.9999231
vn -0.011764526 0.011764526 -0.9998616
vn -0.003921509 0.003921509 -0.9999846
vn -0.011764526 0.70979846 -0.70430654
vn -0.5764661 0.5764661 -0.57911456
vn -0.003921509 0.70979846 -0.7043939
vn -0.003921509 0.011764526 -0.9999231
vn 0.011764646 0.003921509 -0.9999231
vn 0.011764646 0.70979846 -0.70430654
vn 0.011764646 0.011764526 -0.9998616
vn 0.7097985 0.003921509 -0.70439386
vn 0.7097985 0.003921509 -0.70439386
vn 0.5764662 0.5764661 -0.57911444
vn 0.7097985 0.003921509 -0.70439386
vn 0.7097985 0.003921509 -0.70439386
vn 0.9999924 0.003921509 -0
vn 0.99993086 0.011763803 -0
vn 0.9999924 0.003921509 -0
vn 0.7071068 0.70710677 -0
vn 0.5764662 0.5764661 -0.57911444
vn 0.7071068 0.70710677 -0
vn 0.99993086 0.011763803 -0
vn 0.9999924 0.003921509 -0
vn 0.7071068 0.70710677 -0
vn 0.99993086 0.011763803 -0
vn 0.7097985 0.003921509 0.70439386
vn 0.7097985 0.003921509 0.70439386
vn 0.5764662 0.5764661 0.57911444
vn -0.70979846 -0.019607723 0.70413184
vn -0.5764661 -0.5764662 0.57911444
vn -0.70710677 -0.7071068 -0
vn -0.9996234 -0.027440675 -0
vn -0.70979846 0.003921509 0.7043939
vn -0.99999225 0.003921509 -0.00034492963
vn -0.9996234 -0.027440675 -0
vn -0.70710677 -0.7071068 -0
vn -0.99999225 0.003921509 -0.00034492963
vn -0.70710677 -0.7071068 -0
vn -0.5764661 -0.5764662 0.57911444
vn -0.011764526 -0.7097985 0.70430654
vn -0.011763803 -0.99993086 -0
vn -0.70710677 -0.7071068 -0
vn -0.003921509 -0.9999924 -0
vn -0.003921509 -0.7097985 0.70439386
vn -0.011763803 -0.99993086 -0
vn -0.70710677 -0.7071068 -0
vn 0.011763922 -0.99993086 -0
vn 0.011764646 -0.7097985 0.70430654
vn 0.70710677 -0.70710677 -0
vn 0.5764662 -0.5764662 0.5791144
vn 0.011763922 -0.99993086 -0
vn 0.70710677 -0.70710677 -0
vn -0.003921509 -0.9999924 -0
vn 0.011763922 -0.99993086 -0
vn 0.70710677 -0.70710677 -0
vn -0.011763803 -0.99993086 -0
vn 0.011764646 -0.7097985 -0.70430654
vn 0.5764662 -0.5764662 -0.5791144
vn -0.003921509 -0.9999924 -0
vn -0.003921509 -0.7097985 -0.70439386
vn -0.011764526 -0.7097985 -0.70430654
vn -0.5764661 -0.5764662 -0.57911444
vn -0.011764526 -0.7097985 0.70430654
vn -0.5764661 -0.5764662 0.57911444
vn -0.70979846 -0.019607723 0.70413184
vn -0.011764526 -0.0274508 0.9995539
vn -0.003921509 -0.7097985 0.70439386
vn -0.003921509 -0.0274508 0.9996155
vn -0.003921509 0.003921509 0.9999846
vn -0.011764526 0.003921509 0.9999231
vn -0.70979846 0.003921509 0.7043939
vn 0.70710677 -0.70710677 -0
vn 0.5764662 -0.5764662 0.5791144
vn 0.7097985 -0.019607723 0.70413184
vn 0.9996234 -0.027440673 -0
vn 0.70710677 -0.70710677 -0
vn 0.9996234 -0.027440673 -0
vn 0.9999924 0.003921509 -0
vn 0.9999924 0.003921509 -0
vn 0.7097985 0.003921509 0.70439386
vn -0.011764526 0.70979846 0.70430654
vn -0.5764661 0.5764661 0.57911456
vn -0.70710677 0.70710677 -0
vn -0.011763804 0.99993086 -0
vn -0.003921509 0.70979846 0.7043939
vn -0.011763804 0.99993086 -0
vn -0.70710677 0.70710677 -0
vn -0.003921509 0.99999225 -0.00034526698
vn 0.011764646 0.70979846 0.70430654
vn -0.003921509 0.99999225 -0.00034526698
vn -0.011763804 0.99993086 -0
vn -0.70710677 0.70710677 -0
vn 0.011763923 0.99993086 -0
vn -0.003921509 0.99999225 -0.00034526698
vn -0.011764526 0.70979846 -0.70430654
vn -0.5764661 0.5764661 -0.57911456
vn -0.003921509 0.70979846 -0.7043939
vn 0.7071068 0.70710677 -0
vn 0.5764662 0.5764661 0.57911444
vn 0.7071068 0.70710677 -0
vn 0.011763923 0.99993086 -0
vn 0.7071068 0.70710677 -0
vn 0.011763923 0.99993086 -0
vn 0.011764646 0.70979846 -0.70430654
vn 0.5764662 0.5764661 -0.57911444
vn -0.70710677 -0.7071068 -0
vn -0.5764661 -0.5764662 -0.57911444
vn -0.70979846 -0.019607723 -0.70413184
vn -0.9996234 -0.027440675 -0
vn -0.70710677 -0.7071068 -0
vn -0.9996234 -0.027440675 -0
vn -0.99999225 0.003921509 -0.00034492963
vn -0.99999225 0.003921509 -0.00034492963
vn -0.70979846 0.003921509 -0.7043939
vn -0.70979846 -0.019607723 -0.70413184
vn -0.5764661 -0.5764662 -0.57911444
vn -0.011764526 -0.7097985 -0.70430654
vn -0.011764526 -0.0274508 -0.9995539
vn -0.70979846 0.003921509 -0.7043939
vn -0.011764526 0.003921509 -0.9999231
vn -0.003921509 -0.0274508 -0.9996155
vn -0.003921509 -0.7097985 -0.70439386
vn -0.003921509 0.003921509 -0.9999846
vn 0.011764646 -0.7097985 -0.70430654
vn 0.5764662 -0.5764662 -0.5791144
vn 0.7097985 -0.019607723 -0.70413184
vn 0.011764646 -0.0274508 -0.9995539
vn -0.003921509 -0.7097985 -0.70439386
vn -0.003921509 -0.0274508 -0.9996155
vn 0.011764646 0.003921509 -0.9999231
vn 0.7097985 0.003921509 -0.70439386
vn -0.003921509 0.003921509 -0.9999846
g ENV_SY02_HP_cube_MO_0
f 3/3/3 2/2/2 1/1/1
f 2/2/2 4/4/4 1/1/1
f 1/1/1 4/4/4 5/5/5
f 6/6/6 1/1/1 5/5/5
f 7/7/7 5/5/5 4/4/4
f 8/8/8 7/7/7 4/4/4
f 4/4/4 2/2/2 8/8/8
f 2/2/2 9/9/9 8/8/8
f 12/12/12 11/11/11 10/10/10
f 13/13/13 12/12/12 10/10/10
f 14/14/14 12/12/12 13/13/13
f 13/13/13 10/10/10 15/15/15
f 10/10/10 16/16/16 15/15/15
f 15/15/15 17/17/17 13/13/13
f 18/18/18 14/14/14 13/13/13
f 17/17/17 18/18/18 13/13/13
f 19/19/19 14/14/14 18/18/18
f 17/17/17 20/20/20 18/18/18
f 21/21/21 19/19/19 18/18/18
f 20/20/20 21/21/21 18/18/18
f 22/22/22 19/19/19 21/21/21
f 23/23/23 22/22/22 21/21/21
f 21/21/21 20/20/20 23/23/23
f 20/20/20 24/24/24 23/23/23
f 27/27/27 26/26/26 25/25/25
f 26/26/26 28/28/28 25/25/25
f 25/25/25 28/28/28 29/29/29
f 30/30/30 25/25/25 29/29/29
f 29/29/29 28/28/28 31/31/31
f 28/28/28 32/32/32 31/31/31
f 28/28/28 26/26/26 32/32/32
f 26/26/26 33/33/33 32/32/32
f 36/36/36 35/35/35 34/34/34
f 37/37/37 36/36/36 34/34/34
f 38/38/38 36/36/36 37/37/37
f 37/37/37 34/34/34 39/39/39
f 34/34/34 40/40/40 39/39/39
f 37/37/37 39/39/39 41/41/41
f 42/42/42 38/38/38 37/37/37
f 42/42/42 37/37/37 41/41/41
f 43/43/43 38/38/38 42/42/42
f 42/42/42 41/41/41 44/44/44
f 45/45/45 43/43/43 42/42/42
f 45/45/45 42/42/42 44/44/44
f 46/46/46 43/43/43 45/45/45
f 47/47/47 46/46/46 45/45/45
f 45/45/45 44/44/44 47/47/47
f 44/44/44 48/48/48 47/47/47
f 51/51/51 50/50/50 49/49/49
f 52/52/52 51/51/51 49/49/49
f 53/53/53 51/51/51 52/52/52
f 52/52/52 49/49/49 54/54/54
f 49/49/49 55/55/55 54/54/54
f 54/54/54 56/56/56 52/52/52
f 57/57/57 53/53/53 52/52/52
f 56/56/56 57/57/57 52/52/52
f 58/58/58 53/53/53 57/57/57
f 56/56/56 59/59/59 57/57/57
f 60/60/60 58/58/58 57/57/57
f 59/59/59 60/60/60 57/57/57
f 61/61/61 58/58/58 60/60/60
f 62/62/62 61/61/61 60/60/60
f 60/60/60 59/59/59 62/62/62
f 59/59/59 63/63/63 62/62/62
f 66/66/66 65/65/65 64/64/64
f 67/67/67 66/66/66 64/64/64
f 68/68/68 66/66/66 67/67/67
f 67/67/67 64/64/64 69/69/69
f 64/64/64 70/70/70 69/69/69
f 67/67/67 69/69/69 71/71/71
f 72/72/72 68/68/68 67/67/67
f 72/72/72 67/67/67 71/71/71
f 73/73/73 68/68/68 72/72/72
f 72/72/72 71/71/71 74/74/74
f 75/75/75 73/73/73 72/72/72
f 75/75/75 72/72/72 74/74/74
f 76/76/76 73/73/73 75/75/75
f 77/77/77 76/76/76 75/75/75
f 75/75/75 74/74/74 77/77/77
f 74/74/74 78/78/78 77/77/77
f 81/81/81 80/80/80 79/79/79
f 82/82/82 81/81/81 79/79/79
f 79/79/79 83/83/83 82/82/82
f 83/83/83 84/84/84 82/82/82
f 82/82/82 85/85/85 81/81/81
f 85/85/85 82/82/82 84/84/84
f 85/85/85 86/86/86 81/81/81
f 87/87/87 85/85/85 84/84/84
f 90/90/90 89/89/89 88/88/88
f 91/91/91 90/90/90 88/88/88
f 88/88/88 92/92/92 91/91/91
f 91/91/91 93/93/93 90/90/90
f 93/93/93 94/94/94 90/90/90
f 92/92/92 95/95/95 91/91/91
f 93/93/93 91/91/91 95/95/95
f 92/92/92 96/96/96 95/95/95
f 93/93/93 97/97/97 94/94/94
f 97/97/97 98/98/98 94/94/94
f 97/97/97 99/99/99 98/98/98
f 99/99/99 100/100/100 98/98/98
f 97/97/97 101/101/101 99/99/99
f 101/101/101 97/97/97 93/93/93
f 101/101/101 102/102/102 99/99/99
f 103/103/103 93/93/93 95/95/95
f 103/103/103 101/101/101 93/93/93
f 101/101/101 104/104/104 102/102/102
f 104/104/104 101/101/101 103/103/103
f 104/104/104 105/105/105 102/102/102
f 96/96/96 106/106/106 95/95/95
f 103/103/103 95/95/95 106/106/106
f 104/104/104 107/107/107 105/105/105
f 107/107/107 108/108/108 105/105/105
f 109/109/109 104/104/104 103/103/103
f 107/107/107 104/104/104 109/109/109
f 109/109/109 103/103/103 106/106/106
f 110/110/110 107/107/107 109/109/109
f 110/110/110 109/109/109 106/106/106
f 111/111/111 110/110/110 106/106/106
f 106/106/106 96/96/96 111/111/111
f 96/96/96 112/112/112 111/111/111
f 115/115/115 114/114/114 113/113/113
f 116/116/116 115/115/115 113/113/113
f 113/113/113 117/117/117 116/116/116
f 117/117/117 118/118/118 116/116/116
f 118/118/118 119/119/119 116/116/116
f 119/119/119 120/120/120 116/116/116
f 116/116/116 120/120/120 115/115/115
f 120/120/120 121/121/121 115/115/115
f 124/124/124 123/123/123 122/122/122
f 125/125/125 124/124/124 122/122/122
f 122/122/122 126/126/126 125/125/125
f 126/126/126 127/127/127 125/125/125
f 127/127/127 128/128/128 125/125/125
f 128/128/128 129/129/129 125/125/125
f 125/125/125 129/129/129 124/124/124
f 129/129/129 130/130/130 124/124/124
f 133/133/133 132/132/132 131/131/131
f 134/134/134 133/133/133 131/131/131
f 131/131/131 135/135/135 134/134/134
f 134/134/134 136/136/136 133/133/133
f 136/136/136 137/137/137 133/133/133
f 135/135/135 138/138/138 134/134/134
f 135/135/135 139/139/139 138/138/138
f 138/138/138 140/140/140 134/134/134
f 140/140/140 136/136/136 134/134/134
f 136/136/136 141/141/141 137/137/137
f 141/141/141 142/142/142 137/137/137
f 139/139/139 143/143/143 138/138/138
f 138/138/138 143/143/143 140/140/140
f 144/144/144 141/141/141 136/136/136
f 140/140/140 144/144/144 136/136/136
f 141/141/141 145/145/145 142/142/142
f 141/141/141 144/144/144 145/145/145
f 145/145/145 146/146/146 142/142/142
f 144/144/144 147/147/147 145/145/145
f 143/143/143 139/139/139 148/148/148
f 139/139/139 149/149/149 148/148/148
f 148/148/148 150/150/150 143/143/143
f 143/143/143 151/151/151 140/140/140
f 150/150/150 151/151/151 143/143/143
f 140/140/140 151/151/151 144/144/144
f 150/150/150 152/152/152 151/151/151
f 144/144/144 153/153/153 147/147/147
f 151/151/151 153/153/153 144/144/144
f 152/152/152 153/153/153 151/151/151
f 153/153/153 154/154/154 147/147/147
f 153/153/153 152/152/152 154/154/154
f 152/152/152 155/155/155 154/154/154
f 158/158/158 157/157/157 156/156/156
f 159/159/159 158/158/158 156/156/156
f 159/159/159 156/156/156 160/160/160
f 161/161/161 159/159/159 160/160/160
f 161/161/161 162/162/162 159/159/159
f 162/162/162 163/163/163 159/159/159
f 158/158/158 159/159/159 163/163/163
f 164/164/164 158/158/158 163/163/163
f 167/167/167 166/166/166 165/165/165
f 168/168/168 167/167/167 165/165/165
f 168/168/168 165/165/165 169/169/169
f 170/170/170 168/168/168 169/169/169
f 168/168/168 171/171/171 167/167/167
f 171/171/171 168/168/168 170/170/170
f 171/171/171 172/172/172 167/167/167
f 173/173/173 171/171/171 170/170/170
f 176/176/176 175/175/175 174/174/174
f 177/177/177 176/176/176 174/174/174
f 177/177/177 174/174/174 178/178/178
f 179/179/179 177/177/177 178/178/178
f 176/176/176 177/177/177 180/180/180
f 180/180/180 177/177/177 179/179/179
f 181/181/181 176/176/176 180/180/180
f 182/182/182 180/180/180 179/179/179
