g ENV_Slide_LargeRampDown_COL
v 18.549864 5.7908525 -26.56145
v 18.549862 7.314755 -18.072794
v 17.026104 8.260529 -18.222279
v 17.026102 6.7299685 -26.748251
v 15.508184 5.7514305 -17.8257
v 15.508184 4.2385345 -26.252672
v 13.883284 4.077079 -17.561062
v 13.883284 2.5759692 -25.921967
v 12.074269 2.598346 -17.32734
v 12.074269 1.1076458 -25.629902
v 10.105137 1.334845 -17.127636
v 10.105138 -0.14696082 -25.380344
v 8.001999 0.30332986 -16.9646
v 8.001999 -1.1712145 -25.176609
v 5.792749 -0.48251754 -16.840393
v 5.792749 -1.95153 -25.021393
v 3.506669 -1.0122818 -16.75666
v 3.506669 -2.477565 -24.916758
v 1.1740838 -1.2789326 -16.714516
v 1.1740838 -2.742339 -24.864092
v -1.174085 -2.742339 -24.864092
v 12.074269 3.6184924 -8.690357
v 10.105138 2.343234 -8.5901985
v 8.001999 1.3021203 -8.508429
v 5.792749 0.50895995 -8.446134
v 3.506669 -0.025733948 -8.404139
v 1.1740838 -0.29486609 -8.383001
v -1.174085 -1.2789326 -16.714516
v 13.883284 5.110986 -8.807578
v -3.5066702 -1.0122818 -16.75666
v -3.5066702 -2.477565 -24.916758
v -5.79275 -0.48251754 -16.840393
v -5.79275 -1.95153 -25.021393
v -8.002 0.30332986 -16.9646
v -8.002 -1.1712145 -25.176609
v -10.105139 1.334845 -17.127636
v -10.105139 -0.14696082 -25.380344
v -12.074269 2.598346 -17.32734
v -12.074269 1.1076458 -25.629902
v -13.883282 4.0770774 -17.561062
v -13.883282 2.5759673 -25.921967
v -15.508184 5.7514305 -17.8257
v -15.508184 4.238534 -26.252672
v -17.026104 8.260529 -18.222279
v -17.026102 6.7299685 -26.748251
v -18.549862 7.314755 -18.072794
v -18.549864 5.7908525 -26.56145
v -17.026104 9.3333645 -9.139205
v -18.549862 7.314755 -18.072794
v -15.508185 6.8009176 -8.940307
v -17.026102 9.69171 -2.8600851E-08
v -15.508184 7.1514654 -3.1793614E-09
v -18.549864 8.37879 -9.064232
v -13.883284 5.1109843 -8.807578
v -13.883282 5.4563274 -2.5057305E-09
v -12.074269 3.6184924 -8.690357
v -12.074269 3.9592395 -1.8542868E-09
v -10.105139 2.343234 -8.5901985
v -10.105139 2.6800537 -1.8329137E-09
v -8.002 1.3021203 -8.508429
v -8.002 1.635734 -1.2103101E-09
v -5.79275 0.50895995 -8.446134
v -5.79275 0.84013104 -1.2014516E-09
v -3.5066702 -0.025733948 -8.404139
v -3.5066702 0.3037905 -5.977381E-10
v -1.174085 -0.29486609 -8.383001
v -1.174085 0.033829574 0
v 1.1740838 0.033829574 0
v 3.506669 0.3037905 -5.977381E-10
v 5.792749 0.84013104 -1.2014516E-09
v 8.001999 1.635734 -1.2103101E-09
v 10.105138 2.6800537 -1.8329137E-09
v 12.074269 3.9592395 -1.8542868E-09
v 13.883284 5.4563293 -2.5057305E-09
v 15.508185 6.8009186 -8.940307
v 15.508184 7.151466 -3.179366E-09
v 17.026102 9.69171 -2.8600851E-08
v 17.026104 9.3333645 -9.139205
v 18.549864 8.734196 -2.836623E-08
v 18.549864 8.37879 -9.064232
v 18.549864 8.37879 -9.064232
v 18.549862 7.314755 -18.072794
v 14.724448 3.1833246 -17.419798
v 14.724448 1.688506 -25.745441
v 18.549864 5.7908525 -26.56145
v 6.1437216 -3.1133063 -24.790302
v 14.724449 4.2089143 -8.73673
v 18.549864 8.734196 -2.836623E-08
v 14.724448 4.5514793 -2.4855762E-09
v 6.1437216 -1.6525302 -16.655466
v -3.7191331 -3.6712127 -24.679325
v 6.1437216 -0.6719402 -8.353385
v 6.1437216 -0.34440577 -1.1882548E-09
v -3.7191331 -2.2143917 -16.56666
v -12.80583 0.1312194 -25.435678
v -3.7191331 -1.2390302 -8.308846
v -3.7191331 -0.91324216 -5.9096233E-10
v -12.80583 1.6149974 -17.171917
v -18.549864 5.7908525 -26.56145
v -12.80583 2.625993 -8.612407
v -12.80583 2.963684 -1.8376521E-09
v -18.549864 8.734196 -2.8366221E-08
v -17.026102 9.69171 -2.8600851E-08
v -17.026104 9.3333645 -9.139205
vt -2 0.97079766
vt -1.3333333 0.97079766
vt -1.3333333 0.97079766
vt -2 0.97079766
vt -1.3333333 0.9679992
vt -2 0.9679992
vt -1.3333333 0.96578467
vt -2 0.96578467
vt -1.3333333 0.96357024
vt -2 0.96357024
vt -1.3333333 0.96135575
vt -2 0.9613557
vt -1.3333333 0.95914125
vt -2 0.95914125
vt -1.3333333 0.9569267
vt -2 0.9569267
vt -1.3333333 0.9547123
vt -2 0.9547123
vt -1.3333333 0.9524977
vt -2 0.9524977
vt -2 0.9502833
vt -0.6666672 0.96357024
vt -0.6666672 0.9613558
vt -0.6666672 0.9591413
vt -0.6666672 0.9569267
vt -0.6666672 0.9547123
vt -0.6666672 0.9524977
vt -1.3333333 0.9502833
vt -0.6666672 0.9657847
vt -1.3333333 0.9480687
vt -2 0.94806874
vt -1.3333333 0.9458542
vt -2 0.9458542
vt -1.3333333 0.94363976
vt -2 0.94363976
vt -1.3333333 0.9414252
vt -2 0.9414252
vt -1.3333333 0.9392108
vt -2 0.9392108
vt -1.3333333 0.9369962
vt -2 0.9369962
vt -1.3333333 0.93478173
vt -2 0.9347818
vt -1.3333333 0.93198335
vt -2 0.93198335
vt -1.3333333 0.93198335
vt -2 0.93198335
vt -0.66666716 0.93198335
vt -1.3333333 0.93198335
vt -0.6666672 0.9347818
vt 0 0.93198335
vt 0 0.9347818
vt -0.66666716 0.93198335
vt -0.6666672 0.9369963
vt 0 0.9369962
vt -0.6666672 0.9392108
vt 0 0.9392108
vt -0.6666672 0.9414252
vt 0 0.9414252
vt -0.6666672 0.9436398
vt 0 0.94363976
vt -0.6666672 0.9458542
vt 0 0.9458542
vt -0.6666672 0.9480688
vt 0 0.94806874
vt -0.6666672 0.9502833
vt 0 0.95028317
vt 0 0.9524977
vt 0 0.9547123
vt 0 0.9569267
vt 0 0.95914125
vt 0 0.9613557
vt 0 0.96357024
vt -2.9802322E-08 0.96578467
vt -0.6666672 0.9679992
vt -2.9802322E-08 0.9679992
vt -2.9802322E-08 0.97079766
vt -0.6666672 0.97079766
vt -2.9802322E-08 0.97079766
vt -0.6666672 0.97079766
vt -0.6666672 0.97079766
vt -1.3333333 0.97079766
vt -1.3333333 0.96578467
vt -2 0.96578467
vt -2 0.97079766
vt -2 0.9569267
vt -0.6666672 0.9657847
vt -2.9802322E-08 0.97079766
vt -2.9802322E-08 0.96578467
vt -1.3333333 0.9569267
vt -2 0.94806874
vt -0.6666672 0.9569267
vt 0 0.9569267
vt -1.3333333 0.9480687
vt -2 0.9392108
vt -0.6666672 0.9480688
vt 0 0.94806874
vt -1.3333333 0.9392108
vt -2 0.93198335
vt -0.6666672 0.9392108
vt 0 0.9392108
vt 0 0.93198335
vt 0 0.93198335
vt -0.66666716 0.93198335
vn 0.9161513 -0.39452428 0.07083374
vn 0.91809094 -0.3920728 0.058206137
vn -0.45688784 0.87993616 -0.13025346
vn -0.4584815 0.8747205 -0.15703125
vn -0.80452704 0.5875175 -0.08694545
vn -0.80395186 0.5853362 -0.10508497
vn -0.6816298 0.7238005 -0.1072087
vn -0.6812893 0.72049415 -0.12935686
vn -0.59288037 0.7965882 -0.11806821
vn -0.59254736 0.7928572 -0.14235504
vn -0.49623924 0.858793 -0.12736185
vn -0.49593356 0.85469234 -0.15346316
vn -0.39299086 0.9095845 -0.13495943
vn -0.39273065 0.9051772 -0.16253296
vn -0.28450835 0.9482844 -0.14075391
vn -0.28430977 0.94364023 -0.1694434
vn -0.17223585 0.97437537 -0.14466323
vn -0.17211145 0.96957 -0.17410228
vn -0.057667926 0.9875087 -0.14663196
vn -0.057625588 0.9826218 -0.17644744
vn 0.057625588 0.9826218 -0.17644744
vn -0.59311956 0.80264264 -0.06303975
vn -0.49645728 0.8653962 -0.06796841
vn -0.3931753 0.9166407 -0.07199319
vn -0.28464833 0.9556889 -0.075060055
vn -0.17232326 0.98201627 -0.0771278
vn -0.057697672 0.9952691 -0.07816868
vn 0.057667926 0.9875087 -0.14663196
vn -0.6818764 0.7292217 -0.057273254
vn 0.17223585 0.97437537 -0.14466324
vn 0.17211145 0.96957 -0.17410228
vn 0.28450835 0.9482844 -0.14075392
vn 0.28430977 0.94364023 -0.16944337
vn 0.39299083 0.90958464 -0.13495943
vn 0.39273062 0.9051772 -0.16253296
vn 0.49623924 0.858793 -0.12736186
vn 0.49593347 0.85469234 -0.15346314
vn 0.59288037 0.79658824 -0.11806823
vn 0.5925475 0.79285717 -0.14235502
vn 0.68162966 0.72380054 -0.10720868
vn 0.6812892 0.7204942 -0.12935689
vn 0.804527 0.58751756 -0.086945444
vn 0.80395186 0.5853363 -0.10508499
vn 0.4568879 0.87993616 -0.13025343
vn 0.45848176 0.87472034 -0.15703128
vn -0.8528102 -0.51656437 0.07665544
vn -0.8507747 -0.51725954 0.09287065
vn 0.45549014 0.8875077 -0.069705084
vn -0.8528102 -0.51656437 0.07665544
vn 0.8049744 0.59148806 -0.046455633
vn 0.4552132 0.8896988 -0.034884933
vn 0.80475676 0.59314907 -0.02325732
vn -0.85454416 -0.5177843 0.04066688
vn 0.68187636 0.7292217 -0.05727325
vn 0.6815961 0.7311668 -0.028668942
vn 0.5931195 0.80264276 -0.063039765
vn 0.5928241 0.80471367 -0.031552684
vn 0.49645728 0.8653962 -0.06796841
vn 0.4961701 0.86755866 -0.034016795
vn 0.39317527 0.9166407 -0.07199319
vn 0.3929201 0.91886663 -0.03602856
vn 0.28464836 0.9556889 -0.075060055
vn 0.2844474 0.95795554 -0.037561223
vn 0.17232326 0.98201627 -0.0771278
vn 0.17219487 0.9843066 -0.038594443
vn 0.05769765 0.9952691 -0.07816868
vn 0.05765353 0.9975701 -0.03911451
vn -0.05765355 0.9975701 -0.03911451
vn -0.17219487 0.9843066 -0.038594443
vn -0.28444746 0.95795554 -0.037561227
vn -0.39292005 0.91886663 -0.036028564
vn -0.4961701 0.86755866 -0.034016795
vn -0.59282434 0.8047135 -0.031552654
vn -0.6815961 0.7311668 -0.028668901
vn -0.80497426 0.5914882 -0.046455648
vn -0.8047566 0.5931491 -0.023257313
vn -0.45521298 0.8896989 -0.034884933
vn -0.45549005 0.88750774 -0.069705084
vn 0.9196035 -0.392546 0.015391678
vn 0.9197124 -0.39138725 0.030739581
vn 0.9197124 -0.39138725 0.030739581
vn 0.91809094 -0.3920728 0.058206137
vn 0.5937676 -0.7959349 0.11801571
vn 0.5925877 -0.7928277 0.14235176
vn 0.9161513 -0.39452428 0.07083374
vn 0.2862359 -0.9430758 0.16934337
vn 0.59476775 -0.80142957 0.062944435
vn 0.9196035 -0.392546 0.015391678
vn 0.59447247 -0.80349857 0.03150501
vn 0.28742796 -0.9474238 0.1406178
vn -0.17331128 -0.9693628 0.17406616
vn 0.28847796 -0.9545469 0.07497035
vn 0.28827488 -0.95681244 0.03751642
vn -0.17405657 -0.97406083 0.14460243
vn -0.5481008 -0.8232472 0.14781624
vn -0.17471422 -0.9815963 0.077094816
vn -0.1745842 -0.98388624 0.038577985
vn -0.54967123 -0.82634497 0.12253755
vn -0.8507747 -0.51725954 0.09287065
vn -0.5510284 -0.83192456 0.06533955
vn -0.55073357 -0.8340402 0.032702535
vn -0.8543669 -0.5192712 0.020360505
vn 0.4552132 0.8896988 -0.034884933
vn 0.45549014 0.8875077 -0.069705084
g ENV_Slide_LargeRampDown_COL_0
f 3/3/3 2/2/2 1/1/1
f 4/4/4 3/3/3 1/1/1
f 5/5/5 3/3/3 4/4/4
f 6/6/6 5/5/5 4/4/4
f 7/7/7 5/5/5 6/6/6
f 8/8/8 7/7/7 6/6/6
f 9/9/9 7/7/7 8/8/8
f 10/10/10 9/9/9 8/8/8
f 11/11/11 9/9/9 10/10/10
f 12/12/12 11/11/11 10/10/10
f 13/13/13 11/11/11 12/12/12
f 14/14/14 13/13/13 12/12/12
f 15/15/15 13/13/13 14/14/14
f 16/16/16 15/15/15 14/14/14
f 17/17/17 15/15/15 16/16/16
f 18/18/18 17/17/17 16/16/16
f 19/19/19 17/17/17 18/18/18
f 20/20/20 19/19/19 18/18/18
f 20/20/20 21/21/21 19/19/19
f 9/9/9 22/22/22 7/7/7
f 11/11/11 23/23/23 9/9/9
f 23/23/23 22/22/22 9/9/9
f 13/13/13 24/24/24 11/11/11
f 24/24/24 23/23/23 11/11/11
f 15/15/15 25/25/25 13/13/13
f 25/25/25 24/24/24 13/13/13
f 17/17/17 26/26/26 15/15/15
f 26/26/26 25/25/25 15/15/15
f 19/19/19 27/27/27 17/17/17
f 27/27/27 26/26/26 17/17/17
f 21/21/21 28/28/28 19/19/19
f 19/19/19 28/28/28 27/27/27
f 22/22/22 29/29/29 7/7/7
f 7/7/7 29/29/29 5/5/5
f 30/30/30 28/28/28 21/21/21
f 31/31/31 30/30/30 21/21/21
f 32/32/32 30/30/30 31/31/31
f 33/33/33 32/32/32 31/31/31
f 34/34/34 32/32/32 33/33/33
f 35/35/35 34/34/34 33/33/33
f 36/36/36 34/34/34 35/35/35
f 37/37/37 36/36/36 35/35/35
f 38/38/38 36/36/36 37/37/37
f 39/39/39 38/38/38 37/37/37
f 40/40/40 38/38/38 39/39/39
f 41/41/41 40/40/40 39/39/39
f 42/42/42 40/40/40 41/41/41
f 43/43/43 42/42/42 41/41/41
f 44/44/44 42/42/42 43/43/43
f 45/45/45 44/44/44 43/43/43
f 46/46/46 44/44/44 45/45/45
f 47/47/47 46/46/46 45/45/45
f 44/44/44 48/48/48 42/42/42
f 44/44/44 49/49/49 48/48/48
f 42/42/42 50/50/50 40/40/40
f 48/48/48 50/50/50 42/42/42
f 48/48/48 51/51/51 50/50/50
f 51/51/51 52/52/52 50/50/50
f 49/49/49 53/53/53 48/48/48
f 50/50/50 54/54/54 40/40/40
f 50/50/50 52/52/52 54/54/54
f 40/40/40 54/54/54 38/38/38
f 52/52/52 55/55/55 54/54/54
f 54/54/54 56/56/56 38/38/38
f 54/54/54 55/55/55 56/56/56
f 38/38/38 56/56/56 36/36/36
f 55/55/55 57/57/57 56/56/56
f 56/56/56 58/58/58 36/36/36
f 56/56/56 57/57/57 58/58/58
f 36/36/36 58/58/58 34/34/34
f 57/57/57 59/59/59 58/58/58
f 58/58/58 60/60/60 34/34/34
f 58/58/58 59/59/59 60/60/60
f 34/34/34 60/60/60 32/32/32
f 59/59/59 61/61/61 60/60/60
f 60/60/60 62/62/62 32/32/32
f 60/60/60 61/61/61 62/62/62
f 32/32/32 62/62/62 30/30/30
f 61/61/61 63/63/63 62/62/62
f 62/62/62 64/64/64 30/30/30
f 62/62/62 63/63/63 64/64/64
f 30/30/30 64/64/64 28/28/28
f 63/63/63 65/65/65 64/64/64
f 64/64/64 66/66/66 28/28/28
f 64/64/64 65/65/65 66/66/66
f 65/65/65 67/67/67 66/66/66
f 28/28/28 66/66/66 27/27/27
f 66/66/66 67/67/67 68/68/68
f 27/27/27 66/66/66 68/68/68
f 27/27/27 68/68/68 26/26/26
f 68/68/68 69/69/69 26/26/26
f 26/26/26 69/69/69 25/25/25
f 69/69/69 70/70/70 25/25/25
f 25/25/25 70/70/70 24/24/24
f 70/70/70 71/71/71 24/24/24
f 24/24/24 71/71/71 23/23/23
f 71/71/71 72/72/72 23/23/23
f 23/23/23 72/72/72 22/22/22
f 72/72/72 73/73/73 22/22/22
f 22/22/22 73/73/73 29/29/29
f 73/73/73 74/74/74 29/29/29
f 29/29/29 74/74/74 75/75/75
f 74/74/74 76/76/76 75/75/75
f 29/29/29 75/75/75 5/5/5
f 75/75/75 76/76/76 77/77/77
f 5/5/5 75/75/75 78/78/78
f 78/78/78 75/75/75 77/77/77
f 78/78/78 77/77/77 79/79/79
f 80/80/80 78/78/78 79/79/79
f 3/3/3 5/5/5 78/78/78
f 3/3/3 78/78/78 81/81/81
f 82/82/82 3/3/3 81/81/81
f 82/82/82 81/81/81 83/83/83
f 82/82/82 83/83/83 84/84/84
f 85/85/85 82/82/82 84/84/84
f 84/84/84 83/83/83 86/86/86
f 81/81/81 87/87/87 83/83/83
f 81/81/81 88/88/88 87/87/87
f 88/88/88 89/89/89 87/87/87
f 83/83/83 90/90/90 86/86/86
f 83/83/83 87/87/87 90/90/90
f 86/86/86 90/90/90 91/91/91
f 87/87/87 89/89/89 92/92/92
f 87/87/87 92/92/92 90/90/90
f 89/89/89 93/93/93 92/92/92
f 90/90/90 94/94/94 91/91/91
f 90/90/90 92/92/92 94/94/94
f 91/91/91 94/94/94 95/95/95
f 92/92/92 93/93/93 96/96/96
f 92/92/92 96/96/96 94/94/94
f 93/93/93 97/97/97 96/96/96
f 94/94/94 98/98/98 95/95/95
f 94/94/94 96/96/96 98/98/98
f 95/95/95 98/98/98 99/99/99
f 98/98/98 49/49/49 99/99/99
f 49/49/49 98/98/98 53/53/53
f 96/96/96 97/97/97 100/100/100
f 96/96/96 100/100/100 98/98/98
f 98/98/98 100/100/100 53/53/53
f 97/97/97 101/101/101 100/100/100
f 100/100/100 101/101/101 102/102/102
f 53/53/53 100/100/100 102/102/102
f 53/53/53 102/102/102 103/103/103
f 104/104/104 53/53/53 103/103/103
