g ENV_S05_EG2_CentralStruct_Platform_MO
v -3.0025773 4.204177 5.2136936
v -2.9247952 3.3566198 5.07773
v -2.880643 3.3599215 5.034197
v -2.9582186 4.2089224 5.16459
v -3.0370326 4.288355 5.266099
v -2.8195724 3.3615713 5.014597
v -2.9928803 4.3283806 5.2258673
v -3.0634413 4.3116693 5.3098383
v -2.9002433 4.2165565 5.145196
v -2.6984634 3.3630161 4.995822
v -2.7681994 4.2151117 5.126628
v -2.5872579 3.3630161 4.996234
v -2.6497726 4.2165565 5.127453
v -2.2411346E-05 3.3630161 4.996234
v -3.0256848 4.369438 5.286731
v -2.9365554 4.3403473 5.2070923
v -2.7981157 4.3312693 5.1881104
v -2.6782446 4.324873 5.1885233
v -2.2411346E-05 4.2165565 5.127453
v -3.06633 4.3861504 5.359768
v -3.093564 4.3190966 5.360593
v -2.9759622 4.391514 5.275796
v -2.8350468 4.387388 5.264655
v -2.7166195 4.3851185 5.26548
v -3.0236216 4.4137964 5.359149
v 2.6497278 4.2165565 5.127453
v 2.5874197 3.3630161 4.996234
v -2.2411346E-05 4.323635 5.1864595
v 2.6781998 4.324873 5.1885233
v 2.768361 4.2151117 5.126628
v 2.6986253 3.3630161 4.995822
v 2.819528 3.3615713 5.014597
v -2.8812618 4.4129715 5.3560543
v -2.2411346E-05 4.3838806 5.2632103
v -2.7636604 4.4142094 5.357704
v 2.9001987 4.2165565 5.145196
v 2.798071 4.3312693 5.1881104
v 2.7165751 4.3851185 5.26548
v -2.2411346E-05 4.4142094 5.357704
v -4.361185 4.4142094 8.540582
v -4.5644093 4.4129715 8.493542
v 2.9581742 4.2089224 5.16459
v 2.8808048 3.3599215 5.034197
v 3.0025327 4.204177 5.2136936
v 2.9247506 3.3566198 5.07773
v 3.0369878 4.288355 5.266099
v 2.9928358 4.3283806 5.2258673
v 2.9365108 4.3403473 5.2070923
v 3.0258467 4.369438 5.286731
v 3.0633967 4.3116693 5.3098383
v 2.9759176 4.391514 5.275796
v 3.0237837 4.4137964 5.359149
v 2.835002 4.387388 5.264655
v 3.0662851 4.3861504 5.359768
v 3.0935192 4.3190966 5.360593
v 2.7636158 4.4142094 5.357704
v 2.8814237 4.4129715 5.3560543
v 4.3611407 4.4142094 8.540582
v 4.564571 4.4129715 8.493542
v -2.2411346E-05 4.4142094 8.540582
v -2.2411346E-05 4.379548 8.63033
v 4.413752 4.379548 8.63033
v -2.2411346E-05 4.275769 8.660247
v -4.4137964 4.379548 8.63033
v 4.7475758 4.4142094 8.411633
v 4.8063765 4.387594 8.387493
v 4.8263893 4.323429 8.370163
v 4.615532 4.3781033 8.583702
v 4.797092 4.379548 8.502207
v 4.8478465 4.3560276 8.460943
v 4.847434 4.3019724 8.405443
v 4.854449 4.259677 8.416791
v 4.8608446 4.2708178 8.485289
v 4.8546553 3.0591087 8.41741
v 4.8115344 4.275769 8.5331545
v 4.431289 4.275769 8.660247
v 4.8608446 3.0479674 8.485495
v 4.631418 4.2743254 8.614032
v 4.431289 3.043016 8.660247
v 4.631418 3.043016 8.614032
v 4.8501163 3.0116553 8.409776
v 4.824326 3.0673614 8.366449
v 4.8115344 3.043016 8.5331545
v 4.8284526 2.9926739 8.373258
v 3.068142 3.3339252 5.3178854
v 4.848672 2.9611073 8.462387
v 3.0683484 3.2317972 5.3185043
v -2.2411346E-05 3.691269 2.2411346E-05
v 4.797092 2.9392376 8.502207
v 4.8069954 2.9303656 8.388525
v 3.0485418 3.1610298 5.3189163
v -2.2411346E-05 3.5542736 0.023542404
v 4.747782 2.9045758 8.411633
v 3.0017076 3.1325579 5.320154
v -2.2411346E-05 3.5117712 0.098642826
v 2.8354146 3.136272 5.323249
v 4.5647774 2.9045758 8.493542
v 4.615532 2.9392376 8.583702
v 4.413752 2.9392376 8.63033
v 4.3611407 2.9045758 8.540582
v -2.2411346E-05 3.043016 8.660247
v 2.7198763 3.1387477 5.3271694
v -2.2411346E-05 2.9392376 8.63033
v -2.2411346E-05 3.122242 5.3566732
v -2.2411346E-05 2.9045758 8.540582
v -4.361185 2.9045758 8.540582
v -4.4137964 2.9392376 8.63033
v -4.4311275 3.043016 8.660247
v -2.7199206 3.1387477 5.3271694
v -2.8354592 3.136272 5.323249
v -4.4311275 4.275769 8.660247
v -4.6155767 4.3781033 8.583702
v -4.631463 4.2743254 8.614032
v -4.631463 3.043016 8.614032
v -4.5646152 2.9045758 8.493542
v -3.001752 3.1325579 5.320154
v -2.2411346E-05 3.5542736 0.023542404
v -4.8115788 4.275769 8.5331545
v -4.7969303 4.379548 8.502207
v -4.7478266 2.9045758 8.411633
v -3.0485864 3.1610298 5.3189163
v -2.2411346E-05 3.691269 2.2411346E-05
v -4.6155767 2.9392376 8.583702
v -4.7969303 2.9392376 8.502207
v -3.0683928 3.2317972 5.3185043
v -3.0681868 3.3339252 5.3178854
v -4.80704 2.9303656 8.388525
v -4.828497 2.9926739 8.373258
v -4.8241644 3.0673614 8.366449
v -4.8115788 3.043016 8.5331545
v -4.8487167 2.9611073 8.462387
v -4.8501606 3.0116553 8.409776
v -4.8547 3.0591087 8.41741
v -4.8608894 3.0479674 8.485495
v -4.8606825 4.2708178 8.485289
v -4.854287 4.259677 8.416791
v -4.847891 4.3560276 8.460943
v -4.847479 4.3019724 8.405443
v -4.7474136 4.4142094 8.411633
v -4.8062143 4.387594 8.387493
v -4.826434 4.323429 8.370163
v -3.0865488 4.221508 5.349039
v -3.0370326 4.288355 5.266099
v -3.0634413 4.3116693 5.3098383
v -3.0025773 4.204177 5.2136936
v -3.0681868 3.3339252 5.3178854
v -2.9247952 3.3566198 5.07773
v -4.8241644 3.0673614 8.366449
v -4.8231325 4.251837 8.364593
v -4.847479 4.3019724 8.405443
v -4.8547 3.0591087 8.41741
v -4.854287 4.259677 8.416791
v 3.0633967 4.3116693 5.3098383
v 3.0369878 4.288355 5.266099
v 3.0865045 4.221508 5.349039
v 3.0025327 4.204177 5.2136936
v 3.068142 3.3339252 5.3178854
v 2.9247506 3.3566198 5.07773
v 4.824326 3.0673614 8.366449
v 4.8232946 4.251837 8.364593
v 4.847434 4.3019724 8.405443
v 4.8546553 3.0591087 8.41741
v 4.854449 4.259677 8.416791
vt 0.07451807 0.18425663
vt 0.016219454 0.1808273
vt 0.014749741 0.18523644
vt 0.07304835 0.18866578
vt 0.08284644 0.18180712
vt 0.013769933 0.18964557
vt 0.08186663 0.18670616
vt 0.08725558 0.17935759
vt 0.07206854 0.192585
vt 0.011320411 0.19797395
vt 0.06912912 0.20189318
vt 0.009360794 0.20581242
vt 0.06765941 0.21022156
vt -0.0014171004 0.41108233
vt 0.08725558 0.18425663
vt 0.080886826 0.19111529
vt 0.0779474 0.20042348
vt 0.07598778 0.20875184
vt 0.056391608 0.41108233
vt 0.09264453 0.18131721
vt 0.09215462 0.17592826
vt 0.08676568 0.18866578
vt 0.08382625 0.19846386
vt 0.08284644 0.20679224
vt 0.09264453 0.18523644
vt 0.06765941 0.612433
vt 0.009360794 0.6163522
vt 0.06520989 0.41108233
vt 0.07598778 0.6134128
vt 0.06912912 0.6207614
vt 0.011320411 0.6246806
vt 0.013769933 0.63300896
vt 0.090684906 0.19552442
vt 0.071578644 0.41108233
vt 0.0892152 0.2038528
vt 0.07206854 0.62957966
vt 0.0779474 0.6217412
vt 0.08284644 0.6158623
vt 0.078927204 0.41108233
vt 0.31359136 0.11958926
vt 0.31408128 0.105871946
vt 0.07304835 0.6339888
vt 0.014749741 0.6374181
vt 0.07451807 0.63839793
vt 0.016219454 0.6418272
vt 0.08284644 0.64084744
vt 0.08186663 0.6359484
vt 0.080886826 0.6315393
vt 0.08725558 0.63790804
vt 0.08725558 0.64329696
vt 0.08676568 0.6339888
vt 0.09264453 0.6374181
vt 0.08382625 0.6241907
vt 0.09264453 0.64133734
vt 0.09215462 0.6462364
vt 0.0892152 0.6183118
vt 0.090684906 0.62713015
vt 0.31359136 0.7030653
vt 0.31408128 0.7167826
vt 0.2954649 0.41108233
vt 0.30232358 0.41108233
vt 0.31996012 0.70600474
vt 0.31016204 0.41108233
vt 0.31996012 0.11664984
vt 0.31310147 0.72952014
vt 0.31359136 0.7339293
vt 0.31359136 0.7383384
vt 0.32045004 0.71874225
vt 0.31996012 0.7309898
vt 0.32045004 0.73490906
vt 0.32045004 0.74029803
vt 0.3268188 0.7417677
vt 0.3268188 0.73735857
vt 0.41500157 0.7368687
vt 0.32730868 0.73294944
vt 0.3268188 0.7064946
vt 0.41353184 0.73294944
vt 0.32730868 0.7202119
vt 0.40569338 0.7025754
vt 0.4081429 0.7158028
vt 0.4194107 0.73441917
vt 0.42479965 0.7383384
vt 0.41157222 0.7285403
vt 0.42381984 0.7334394
vt 0.6388878 0.6349686
vt 0.41794097 0.7304999
vt 0.6369282 0.63104934
vt 1.0014169 0.4189208
vt 0.41696116 0.7260908
vt 0.42332992 0.72952014
vt 0.6349686 0.6261503
vt 0.9950483 0.41206214
vt 0.42284003 0.72462106
vt 0.6344787 0.62272096
vt 0.9891694 0.41108233
vt 0.6349686 0.6109633
vt 0.4199006 0.71188354
vt 0.41402176 0.7143331
vt 0.41255203 0.70110565
vt 0.4184309 0.69816625
vt 0.397365 0.41108233
vt 0.63545847 0.6031248
vt 0.40520346 0.41108233
vt 0.63104934 0.41108233
vt 0.41206214 0.41108233
vt 0.4184309 0.12448831
vt 0.41255203 0.12105898
vt 0.40569338 0.12007917
vt 0.63545847 0.21952975
vt 0.6349686 0.21169128
vt 0.3268188 0.115670025
vt 0.32045004 0.10391232
vt 0.32730868 0.102442615
vt 0.4081429 0.10685175
vt 0.4199006 0.110770985
vt 0.6344787 0.19993357
vt 0.9950483 0.4105924
vt 0.32730868 0.0897051
vt 0.31996012 0.09166472
vt 0.42284003 0.09754357
vt 0.6349686 0.19601433
vt 1.0014169 0.40324387
vt 0.41402176 0.108321466
vt 0.41696116 0.09607386
vt 0.6369282 0.1916052
vt 0.6388878 0.18768597
vt 0.42332992 0.09313443
vt 0.42381984 0.08872529
vt 0.42479965 0.08431615
vt 0.41157222 0.09362434
vt 0.41794097 0.09215462
vt 0.4194107 0.08774548
vt 0.41500157 0.08529596
vt 0.41353184 0.0897051
vt 0.3268188 0.08529596
vt 0.3268188 0.080886826
vt 0.32045004 0.08725558
vt 0.32045004 0.082356535
vt 0.31310147 0.09313443
vt 0.31359136 0.088235386
vt 0.31359136 0.08431615
vt 0.0892152 0.16955951
vt 0.08431615 0.17592826
vt 0.088235386 0.17641816
vt 0.0784373 0.17151912
vt 0.07059883 0.110770985
vt 0.052962277 0.11762965
vt 0.29105577 0.0049516554
vt 0.31212166 0.079907015
vt 0.3160409 0.082356535
vt 0.294975 0.0029920381
vt 0.3160409 0.07941711
vt 0.088235386 0.6462364
vt 0.08431615 0.6467263
vt 0.0892152 0.65309507
vt 0.0784373 0.65113544
vt 0.07059883 0.71188354
vt 0.052962277 0.7050249
vt 0.29105577 0.8177029
vt 0.31212166 0.74225765
vt 0.3160409 0.74029803
vt 0.294975 0.8191726
vt 0.3160409 0.74323744
vn -0.8353651 0.01223439 -0.54955935
vn -0.8275258 0.01223439 -0.5612944
vn -0.5217915 0.08278841 -0.84904635
vn -0.53747016 0.09846717 -0.8375142
vn -0.7961684 0.09846717 -0.5970093
vn -0.2003786 0.12982446 -0.97107875
vn -0.56098825 0.34932595 -0.75050884
vn -0.8275258 0.15334255 -0.54008067
vn -0.2003786 0.17686051 -0.96362275
vn -0.06710976 0.1455031 -0.9870791
vn -0.074949086 0.18469983 -0.97993296
vn 0.003444314 0.15334255 -0.9881671
vn 0.003444314 0.2003786 -0.9797125
vn 0.003444314 0.15334255 -0.9881671
vn -0.62370294 0.52963084 -0.574879
vn -0.15334255 0.59234554 -0.7909569
vn -0.035752356 0.6080243 -0.793113
vn 0.003444314 0.65506023 -0.7555688
vn 0.003444314 0.19253916 -0.98128325
vn -0.6393816 0.6785783 -0.36155587
vn -0.85104376 0.16118187 -0.49974486
vn -0.114145815 0.8902405 -0.4409564
vn -0.0043950677 0.8902405 -0.45546958
vn 0.003444314 0.90591913 -0.4234367
vn -0.06695974 0.9977557 -0
vn 0.003444314 0.2003786 -0.9797125
vn 0.003444314 0.15334255 -0.9881671
vn 0.003444314 0.63154227 -0.7753338
vn -0.0043950677 0.65506023 -0.75556386
vn 0.07399839 0.18469983 -0.9800052
vn 0.07399839 0.1455031 -0.9865866
vn 0.19942784 0.12982446 -0.9712745
vn -0.004395064 0.9999904 -0
vn 0.003444314 0.88240117 -0.4704852
vn 0.003444314 0.99999124 -0.0023795885
vn 0.19942784 0.17686051 -0.96382
vn 0.034801662 0.6080243 -0.7931553
vn -0.0043950677 0.90591913 -0.4234279
vn 0.003444314 0.99999124 -0.0023795885
vn -0.004395064 0.9999904 -0
vn -0.004395064 0.9999904 -0
vn 0.5443588 0.09846717 -0.83305323
vn 0.52084076 0.08278841 -0.8496299
vn 0.83441436 0.01223439 -0.5510018
vn 0.82657504 0.01223439 -0.56269354
vn 0.803057 0.09846717 -0.5877105
vn 0.5600375 0.34932595 -0.75121856
vn 0.16023111 0.59234554 -0.78959024
vn 0.6227522 0.52963084 -0.5759087
vn 0.83441436 0.15334255 -0.5293758
vn 0.11319506 0.8902405 -0.44120142
vn 0.06601527 0.9978186 -0
vn 0.003444314 0.8902405 -0.45547774
vn 0.6384309 0.6785783 -0.36323202
vn 0.85793245 0.16118187 -0.48782405
vn 0.003444314 0.99999124 -0.0023795885
vn 0.003444314 0.99999124 -0.0023795885
vn 0.003444314 0.99999124 0.0023795885
vn 0.003444314 0.99999124 0.0023795885
vn 0.003444314 0.99999124 0.0023795885
vn 0.003444314 0.65506023 0.7555688
vn 0.011283636 0.56882757 0.8223794
vn 0.003444314 0.020073712 0.9997926
vn -0.01223439 0.56882757 0.8223658
vn 0.12103444 0.9921519 -0.031388927
vn 0.67762756 0.62370294 -0.38963512
vn 0.85793245 0.16902119 -0.48516363
vn 0.23078519 0.68641764 0.68961513
vn 0.3718933 0.7020963 0.607253
vn 0.803057 0.5453095 0.24028523
vn 0.94416517 0.2003786 -0.26153505
vn 0.9598438 0.0043950677 -0.28050047
vn 0.92064714 0.020073712 0.38987932
vn 0.9598438 -0.003444314 -0.28051376
vn 0.48948342 0.027913034 0.87156576
vn 0.011283636 0.020073712 0.9997348
vn 0.92064714 -0.019123018 0.38992712
vn 0.3170179 0.027913034 0.9480087
vn 0.011283636 -0.019123018 0.9997535
vn 0.3170179 -0.02696234 0.94803625
vn 0.94416517 -0.19942784 -0.26226074
vn 0.8657718 -0.003444314 -0.5004272
vn 0.48948342 -0.02696234 0.8715957
vn 0.85009307 -0.15239179 -0.5041017
vn 0.8657718 -0.003444314 -0.5004272
vn 0.7952177 -0.5521982 0.25041166
vn 0.85793245 -0.11319506 -0.5011375
vn 0.003444314 -0.26214254 -0.965023
vn 0.3718933 -0.70114565 0.6083504
vn 0.66978824 -0.61491287 -0.41625223
vn 0.76386034 -0.44244736 -0.4698486
vn 0.003444314 -0.44244736 -0.8967879
vn 0.09751642 -0.9912012 -0.08950243
vn 0.15239179 -0.9755225 -0.15853244
vn 0.003444314 -0.9912012 -0.13231881
vn -0.020073712 -0.99904054 -0.03892416
vn -0.020073712 -0.99904054 -0.03892416
vn 0.23078519 -0.6854669 0.69056016
vn 0.011283636 -0.57571614 0.8175718
vn 0.003444314 -0.99904054 -0.043659553
vn 0.003444314 -0.019123018 0.99981123
vn 0.003444314 -0.99904054 -0.043659553
vn 0.003444314 -0.6541096 0.75639194
vn 0.003444314 -0.99904054 -0.043659553
vn 0.003444314 -0.99904054 -0.043659553
vn -0.0043950677 -0.99904054 -0.043574143
vn -0.0043950677 -0.57571614 0.81763786
vn -0.01223439 -0.019123018 0.99974227
vn -0.0043950677 -0.99904054 -0.043574143
vn 0.019123018 -0.99904054 -0.039399788
vn -0.01223439 0.020073712 0.9997237
vn -0.23173589 0.68641764 0.68929625
vn -0.31796867 0.027913034 0.94769025
vn -0.31796867 -0.02696234 0.9477178
vn 0.019123018 -0.99904054 -0.039399788
vn -0.15334255 -0.9755225 -0.15761314
vn 0.003444314 -0.44244736 -0.8967879
vn -0.4825948 0.027913034 0.8753988
vn -0.37284404 0.7020963 0.60666966
vn -0.09846717 -0.9912012 -0.088455416
vn -0.7648111 -0.44244736 -0.4682994
vn 0.003444314 -0.26214254 -0.965023
vn -0.23173589 -0.6854669 0.6902417
vn -0.37284404 -0.70114565 0.6077681
vn -0.8588831 -0.11319506 -0.4995065
vn -0.8667225 -0.003444314 -0.4987787
vn -0.6628997 -0.61491287 -0.42713723
vn -0.85104376 -0.15239179 -0.50249505
vn -0.8667225 -0.003444314 -0.4987787
vn -0.4825948 -0.02696234 0.8754286
vn -0.7961684 -0.5521982 0.2473724
vn -0.94511586 -0.19942784 -0.25881377
vn -0.9607945 -0.003444314 -0.27724004
vn -0.9215979 -0.019123018 0.3876746
vn -0.9215979 0.020073712 0.38762656
vn -0.9607945 0.0043950677 -0.2772266
vn -0.8040077 0.5453095 0.23708469
vn -0.94511586 0.2003786 -0.25807837
vn -0.12198514 0.9921519 -0.027463378
vn -0.6785783 0.62370294 -0.38797694
vn -0.85104376 0.16902119 -0.49714825
vn -0.8667225 -0.003444314 -0.4987787
vn -0.7961684 0.09846717 -0.5970093
vn -0.8275258 0.15334255 -0.54008067
vn -0.8353651 0.01223439 -0.54955935
vn -0.8667225 -0.003444314 -0.4987787
vn -0.8275258 0.01223439 -0.5612944
vn -0.8667225 -0.003444314 -0.4987787
vn -0.8667225 -0.003444314 -0.4987787
vn -0.94511586 0.2003786 -0.25807837
vn -0.9607945 -0.003444314 -0.27724004
vn -0.9607945 0.0043950677 -0.2772266
vn 0.83441436 0.15334255 -0.5293758
vn 0.803057 0.09846717 -0.5877105
vn 0.8657718 -0.003444314 -0.5004272
vn 0.83441436 0.01223439 -0.5510018
vn 0.8657718 -0.003444314 -0.5004272
vn 0.82657504 0.01223439 -0.56269354
vn 0.8657718 -0.003444314 -0.5004272
vn 0.8657718 -0.003444314 -0.5004272
vn 0.94416517 0.2003786 -0.26153505
vn 0.9598438 -0.003444314 -0.28051376
vn 0.9598438 0.0043950677 -0.28050047
g ENV_S05_EG2_CentralStruct_Platform_MO_0
f 3/3/3 2/2/2 1/1/1
f 4/4/4 3/3/3 1/1/1
f 4/4/4 1/1/1 5/5/5
f 6/6/6 3/3/3 4/4/4
f 7/7/7 4/4/4 5/5/5
f 7/7/7 5/5/5 8/8/8
f 9/9/9 6/6/6 4/4/4
f 9/9/9 4/4/4 7/7/7
f 6/6/6 9/9/9 10/10/10
f 9/9/9 11/11/11 10/10/10
f 12/12/12 10/10/10 11/11/11
f 13/13/13 12/12/12 11/11/11
f 14/14/14 12/12/12 13/13/13
f 15/15/15 7/7/7 8/8/8
f 16/16/16 9/9/9 7/7/7
f 7/7/7 15/15/15 16/16/16
f 17/17/17 11/11/11 9/9/9
f 16/16/16 17/17/17 9/9/9
f 18/18/18 13/13/13 11/11/11
f 17/17/17 18/18/18 11/11/11
f 19/19/19 14/14/14 13/13/13
f 19/19/19 13/13/13 18/18/18
f 15/15/15 8/8/8 20/20/20
f 8/8/8 21/21/21 20/20/20
f 15/15/15 22/22/22 16/16/16
f 15/15/15 20/20/20 22/22/22
f 23/23/23 17/17/17 16/16/16
f 22/22/22 23/23/23 16/16/16
f 24/24/24 18/18/18 17/17/17
f 23/23/23 24/24/24 17/17/17
f 22/22/22 25/25/25 23/23/23
f 20/20/20 25/25/25 22/22/22
f 14/14/14 19/19/19 26/26/26
f 27/27/27 14/14/14 26/26/26
f 28/28/28 19/19/19 18/18/18
f 28/28/28 18/18/18 24/24/24
f 26/26/26 19/19/19 29/29/29
f 19/19/19 28/28/28 29/29/29
f 27/27/27 26/26/26 30/30/30
f 26/26/26 29/29/29 30/30/30
f 31/31/31 27/27/27 30/30/30
f 31/31/31 30/30/30 32/32/32
f 23/23/23 33/33/33 24/24/24
f 25/25/25 33/33/33 23/23/23
f 34/34/34 28/28/28 24/24/24
f 28/28/28 34/34/34 29/29/29
f 33/33/33 35/35/35 24/24/24
f 34/34/34 24/24/24 35/35/35
f 30/30/30 36/36/36 32/32/32
f 29/29/29 37/37/37 30/30/30
f 30/30/30 37/37/37 36/36/36
f 34/34/34 38/38/38 29/29/29
f 29/29/29 38/38/38 37/37/37
f 39/39/39 34/34/34 35/35/35
f 34/34/34 39/39/39 38/38/38
f 35/35/35 33/33/33 40/40/40
f 35/35/35 40/40/40 39/39/39
f 33/33/33 25/25/25 41/41/41
f 33/33/33 41/41/41 40/40/40
f 32/32/32 36/36/36 42/42/42
f 43/43/43 32/32/32 42/42/42
f 43/43/43 42/42/42 44/44/44
f 45/45/45 43/43/43 44/44/44
f 44/44/44 42/42/42 46/46/46
f 42/42/42 36/36/36 47/47/47
f 42/42/42 47/47/47 46/46/46
f 36/36/36 48/48/48 47/47/47
f 37/37/37 48/48/48 36/36/36
f 46/46/46 47/47/47 49/49/49
f 50/50/50 46/46/46 49/49/49
f 47/47/47 48/48/48 51/51/51
f 49/49/49 47/47/47 51/51/51
f 49/49/49 51/51/51 52/52/52
f 48/48/48 37/37/37 53/53/53
f 51/51/51 48/48/48 53/53/53
f 51/51/51 53/53/53 52/52/52
f 38/38/38 53/53/53 37/37/37
f 50/50/50 49/49/49 54/54/54
f 54/54/54 49/49/49 52/52/52
f 55/55/55 50/50/50 54/54/54
f 38/38/38 56/56/56 53/53/53
f 39/39/39 56/56/56 38/38/38
f 56/56/56 57/57/57 53/53/53
f 53/53/53 57/57/57 52/52/52
f 58/58/58 56/56/56 39/39/39
f 57/57/57 56/56/56 58/58/58
f 52/52/52 57/57/57 59/59/59
f 59/59/59 57/57/57 58/58/58
f 60/60/60 58/58/58 39/39/39
f 40/40/40 60/60/60 39/39/39
f 60/60/60 61/61/61 58/58/58
f 61/61/61 60/60/60 40/40/40
f 58/58/58 62/62/62 59/59/59
f 61/61/61 62/62/62 58/58/58
f 61/61/61 63/63/63 62/62/62
f 64/64/64 61/61/61 40/40/40
f 63/63/63 61/61/61 64/64/64
f 64/64/64 40/40/40 41/41/41
f 65/65/65 52/52/52 59/59/59
f 52/52/52 65/65/65 66/66/66
f 54/54/54 52/52/52 66/66/66
f 54/54/54 66/66/66 67/67/67
f 55/55/55 54/54/54 67/67/67
f 62/62/62 68/68/68 59/59/59
f 65/65/65 59/59/59 69/69/69
f 59/59/59 68/68/68 69/69/69
f 70/70/70 66/66/66 65/65/65
f 69/69/69 70/70/70 65/65/65
f 71/71/71 67/67/67 66/66/66
f 70/70/70 71/71/71 66/66/66
f 72/72/72 71/71/71 70/70/70
f 73/73/73 72/72/72 70/70/70
f 73/73/73 70/70/70 69/69/69
f 72/72/72 73/73/73 74/74/74
f 75/75/75 73/73/73 69/69/69
f 69/69/69 68/68/68 75/75/75
f 62/62/62 76/76/76 68/68/68
f 63/63/63 76/76/76 62/62/62
f 73/73/73 77/77/77 74/74/74
f 73/73/73 75/75/75 77/77/77
f 76/76/76 78/78/78 68/68/68
f 68/68/68 78/78/78 75/75/75
f 78/78/78 76/76/76 79/79/79
f 79/79/79 76/76/76 63/63/63
f 75/75/75 78/78/78 80/80/80
f 80/80/80 78/78/78 79/79/79
f 81/81/81 74/74/74 77/77/77
f 82/82/82 74/74/74 81/81/81
f 75/75/75 83/83/83 77/77/77
f 83/83/83 75/75/75 80/80/80
f 82/82/82 81/81/81 84/84/84
f 82/82/82 84/84/84 85/85/85
f 86/86/86 81/81/81 77/77/77
f 86/86/86 77/77/77 83/83/83
f 84/84/84 81/81/81 86/86/86
f 84/84/84 87/87/87 85/85/85
f 85/85/85 87/87/87 88/88/88
f 89/89/89 86/86/86 83/83/83
f 83/83/83 80/80/80 89/89/89
f 90/90/90 84/84/84 86/86/86
f 84/84/84 90/90/90 87/87/87
f 90/90/90 86/86/86 89/89/89
f 87/87/87 91/91/91 88/88/88
f 90/90/90 91/91/91 87/87/87
f 91/91/91 92/92/92 88/88/88
f 90/90/90 93/93/93 91/91/91
f 93/93/93 90/90/90 89/89/89
f 91/91/91 94/94/94 92/92/92
f 93/93/93 94/94/94 91/91/91
f 94/94/94 95/95/95 92/92/92
f 94/94/94 93/93/93 96/96/96
f 94/94/94 96/96/96 95/95/95
f 93/93/93 89/89/89 97/97/97
f 93/93/93 97/97/97 96/96/96
f 80/80/80 98/98/98 89/89/89
f 89/89/89 98/98/98 97/97/97
f 99/99/99 98/98/98 80/80/80
f 97/97/97 98/98/98 99/99/99
f 79/79/79 99/99/99 80/80/80
f 96/96/96 97/97/97 100/100/100
f 100/100/100 97/97/97 99/99/99
f 99/99/99 79/79/79 101/101/101
f 101/101/101 79/79/79 63/63/63
f 95/95/95 96/96/96 102/102/102
f 102/102/102 96/96/96 100/100/100
f 103/103/103 99/99/99 101/101/101
f 100/100/100 99/99/99 103/103/103
f 102/102/102 100/100/100 104/104/104
f 102/102/102 104/104/104 95/95/95
f 105/105/105 100/100/100 103/103/103
f 100/100/100 105/105/105 104/104/104
f 106/106/106 105/105/105 103/103/103
f 105/105/105 106/106/106 104/104/104
f 107/107/107 103/103/103 101/101/101
f 107/107/107 106/106/106 103/103/103
f 108/108/108 101/101/101 63/63/63
f 108/108/108 107/107/107 101/101/101
f 104/104/104 109/109/109 95/95/95
f 106/106/106 109/109/109 104/104/104
f 110/110/110 95/95/95 109/109/109
f 110/110/110 109/109/109 106/106/106
f 111/111/111 108/108/108 63/63/63
f 111/111/111 63/63/63 64/64/64
f 111/111/111 64/64/64 112/112/112
f 112/112/112 64/64/64 41/41/41
f 111/111/111 113/113/113 108/108/108
f 113/113/113 111/111/111 112/112/112
f 113/113/113 114/114/114 108/108/108
f 107/107/107 108/108/108 114/114/114
f 115/115/115 106/106/106 107/107/107
f 115/115/115 110/110/110 106/106/106
f 110/110/110 116/116/116 95/95/95
f 95/95/95 116/116/116 117/117/117
f 113/113/113 112/112/112 118/118/118
f 113/113/113 118/118/118 114/114/114
f 112/112/112 41/41/41 119/119/119
f 112/112/112 119/119/119 118/118/118
f 120/120/120 116/116/116 110/110/110
f 115/115/115 120/120/120 110/110/110
f 116/116/116 121/121/121 117/117/117
f 116/116/116 120/120/120 121/121/121
f 117/117/117 121/121/121 122/122/122
f 123/123/123 115/115/115 107/107/107
f 123/123/123 107/107/107 114/114/114
f 123/123/123 124/124/124 115/115/115
f 124/124/124 120/120/120 115/115/115
f 123/123/123 114/114/114 124/124/124
f 121/121/121 125/125/125 122/122/122
f 125/125/125 126/126/126 122/122/122
f 120/120/120 127/127/127 121/121/121
f 121/121/121 127/127/127 125/125/125
f 127/127/127 120/120/120 124/124/124
f 125/125/125 128/128/128 126/126/126
f 127/127/127 128/128/128 125/125/125
f 128/128/128 129/129/129 126/126/126
f 114/114/114 130/130/130 124/124/124
f 118/118/118 130/130/130 114/114/114
f 131/131/131 127/127/127 124/124/124
f 128/128/128 127/127/127 131/131/131
f 131/131/131 124/124/124 130/130/130
f 132/132/132 129/129/129 128/128/128
f 132/132/132 128/128/128 131/131/131
f 133/133/133 129/129/129 132/132/132
f 134/134/134 131/131/131 130/130/130
f 132/132/132 131/131/131 134/134/134
f 130/130/130 118/118/118 134/134/134
f 133/133/133 132/132/132 134/134/134
f 118/118/118 135/135/135 134/134/134
f 134/134/134 135/135/135 133/133/133
f 135/135/135 136/136/136 133/133/133
f 135/135/135 118/118/118 119/119/119
f 136/136/136 135/135/135 137/137/137
f 137/137/137 135/135/135 119/119/119
f 138/138/138 136/136/136 137/137/137
f 137/137/137 119/119/119 139/139/139
f 41/41/41 139/139/139 119/119/119
f 25/25/25 139/139/139 41/41/41
f 138/138/138 137/137/137 140/140/140
f 140/140/140 137/137/137 139/139/139
f 139/139/139 25/25/25 140/140/140
f 25/25/25 20/20/20 140/140/140
f 141/141/141 138/138/138 140/140/140
f 140/140/140 20/20/20 141/141/141
f 20/20/20 21/21/21 141/141/141
f 21/21/21 142/142/142 141/141/141
f 143/143/143 142/142/142 21/21/21
f 144/144/144 143/143/143 21/21/21
f 145/145/145 142/142/142 143/143/143
f 146/146/146 142/142/142 145/145/145
f 147/147/147 146/146/146 145/145/145
f 142/142/142 146/146/146 148/148/148
f 142/142/142 149/149/149 141/141/141
f 149/149/149 142/142/142 148/148/148
f 141/141/141 149/149/149 150/150/150
f 149/149/149 148/148/148 151/151/151
f 150/150/150 149/149/149 152/152/152
f 152/152/152 149/149/149 151/151/151
f 154/154/154 153/153/153 55/55/55
f 155/155/155 154/154/154 55/55/55
f 155/155/155 55/55/55 67/67/67
f 155/155/155 156/156/156 154/154/154
f 155/155/155 157/157/157 156/156/156
f 157/157/157 158/158/158 156/156/156
f 157/157/157 155/155/155 159/159/159
f 160/160/160 155/155/155 67/67/67
f 155/155/155 160/160/160 159/159/159
f 160/160/160 67/67/67 161/161/161
f 159/159/159 160/160/160 162/162/162
f 160/160/160 161/161/161 163/163/163
f 160/160/160 163/163/163 162/162/162
