g ENV_FFABB_MidPlatform_Balcony_Vinyl_01_MO
v -0.041044235 -0.13996696 0.0075502396
v -0.041044235 -1.0001287 0.0075502396
v -0.14010239 -1.0001287 0.048527718
v -0.14010239 -0.13996696 0.048527718
v -4.6614733 -0.13996696 0.048527718
v -4.6614733 -1.0001287 0.048527718
v -9.323236 -0.13996696 0.048527718
v -9.323236 -1.0001287 0.048527718
v -13.844606 -1.0001287 0.048527718
v -13.844606 -0.13996696 0.048527718
v -13.943665 -1.0001287 0.0075502396
v -13.943665 -0.13996696 0.0075502396
v -13.844606 -0.040909767 0.0075502396
v -9.323236 -0.040909767 0.0075502396
v -4.6614733 -0.040909767 0.0075502396
v -0.14010239 -0.040909767 0.0075502396
v -13.924423 -0.0601511 -0.011691093
v -0.06028557 -0.0601511 -0.011691093
v -13.943665 -0.040909767 -0.09150696
v -0.041044235 -0.040909767 -0.09150696
v -13.984642 -0.13996696 -0.09150696
v -13.943665 -0.040909767 -4.712649
v -6.771088E-05 -0.13996696 -0.09150696
v -0.041044235 -1.0001287 0.0075502396
v -6.771088E-05 -1.0001287 -0.09150696
v -6.771088E-05 -0.13996696 -1.5000486
v -6.771088E-05 -1.0001287 -1.5000486
v -0.041044235 -0.040909767 -1.5000486
v -6.771088E-05 -1.0001287 -2.8601298
v -6.771088E-05 -0.13996696 -2.8601298
v -0.042113304 -0.040909767 -2.8722448
v -0.034630775 -0.13996696 -2.9777164
v -0.034630775 -1.0001287 -2.9777164
v -0.05636692 -0.0601511 -2.96382
v -13.984642 -0.13996696 -4.712649
v -13.944733 -0.040909767 -9.260032
v -13.984642 -1.0001287 -0.09150696
v -13.943665 -1.0001287 0.0075502396
v -13.984642 -1.0001287 -4.712649
v -13.984642 -1.0001287 -9.285331
v -13.984642 -0.13996696 -9.285331
v -13.930481 -1.0001287 -9.34056
v -13.930481 -0.13996696 -9.34056
v -13.915871 -0.0601511 -9.318468
v -13.851021 -0.040909767 -9.32025
v -13.857435 -0.13996696 -9.366928
v -9.34034 -0.040909767 -7.246455
v -13.857435 -1.0001287 -9.366928
v -13.930481 -1.0001287 -9.34056
v -9.323236 -0.13996696 -7.2835126
v -4.6785765 -0.040909767 -5.104603
v -9.323236 -1.0001287 -7.2835126
v -4.6614733 -0.13996696 -5.1416607
v -4.6614733 -1.0001287 -5.1416607
v -0.12727451 -1.0001287 -3.0586014
v -0.13368797 -0.040909767 -3.01513
v -0.12727451 -0.13996696 -3.0586014
v -0.034630775 -1.0001287 -2.9777164
v -0.034630775 -0.13996696 -2.9777164
v -0.05636692 -0.0601511 -2.96382
v -0.14010239 -0.040909767 0.0075502396
v -4.6614733 -0.040909767 0.0075502396
v -4.6614733 6.771088E-05 -0.09150696
v -0.14010239 6.771088E-05 -0.09150696
v -4.6614733 6.771088E-05 -2.5707965
v -0.14010239 6.771088E-05 -1.5000486
v -0.041044235 -0.040909767 -1.5000486
v -0.041044235 -0.040909767 -0.09150696
v -0.06028557 -0.0601511 -0.011691093
v -4.6614733 -0.040909767 0.0075502396
v -9.323236 -0.040909767 0.0075502396
v -9.323236 6.771088E-05 -0.09150696
v -4.6614733 6.771088E-05 -0.09150696
v -9.323236 6.771088E-05 -3.6419005
v -4.6614733 6.771088E-05 -2.5707965
v -0.042113304 -0.040909767 -2.8722448
v -0.041044235 -0.040909767 -1.5000486
v -0.14010239 6.771088E-05 -1.5000486
v -0.14010239 6.771088E-05 -2.9103713
v -4.6614733 6.771088E-05 -2.5707965
v -4.7199106 6.771088E-05 -5.0144534
v -4.6785765 -0.040909767 -5.104603
v -0.13368797 -0.040909767 -3.01513
v -0.05636692 -0.0601511 -2.96382
v -4.7199106 6.771088E-05 -5.0144534
v -9.34034 -0.040909767 -7.246455
v -4.6785765 -0.040909767 -5.104603
v -9.381672 6.771088E-05 -7.156306
v -9.323236 6.771088E-05 -3.6419005
v -4.6614733 6.771088E-05 -2.5707965
v -13.943665 -0.040909767 -0.09150696
v -13.943665 -0.040909767 -4.712649
v -13.844606 6.771088E-05 -4.712649
v -13.844606 6.771088E-05 -0.09150696
v -13.844606 -0.040909767 0.0075502396
v -13.924423 -0.0601511 -0.011691093
v -9.323236 -0.040909767 0.0075502396
v -9.323236 6.771088E-05 -0.09150696
v -9.323236 6.771088E-05 -3.6419005
v -9.381672 6.771088E-05 -7.156306
v -13.851021 -0.040909767 -9.32025
v -9.34034 -0.040909767 -7.246455
v -13.844606 6.771088E-05 -9.20694
v -13.844606 6.771088E-05 -4.712649
v -9.323236 6.771088E-05 -3.6419005
v -13.943665 -0.040909767 -4.712649
v -13.944733 -0.040909767 -9.260032
v -13.915871 -0.0601511 -9.318468
vt 0.77819157 5.171312
vt 0.99323034 5.171312
vt 0.99323034 5.144748
vt 0.77819157 5.144748
vt 0.77819157 4.015161
vt 0.99323034 4.015161
vt 0.77819157 2.8507876
vt 0.99323034 2.8507876
vt 0.99323034 1.7212005
vt 0.77819157 1.7212005
vt 0.99323034 1.6946368
vt 0.77819157 1.6946368
vt 0.75415754 1.7212005
vt 0.75415754 2.8507876
vt 0.75415754 4.015161
vt 0.75415754 5.144748
vt 0.75415754 1.6946368
vt 0.75415754 5.171312
vt 0.75415754 1.6687059
vt 0.75415754 5.1959777
vt 0.77819157 1.6687059
vt 0.75415754 0.52583694
vt 0.77819157 5.1959777
vt 0.99323034 5.171312
vt 0.99323034 5.1959777
vt 0.77819157 5.536878
vt 0.99323034 5.536878
vt 0.75415754 5.536878
vt 0.99323034 5.8777776
vt 0.77819157 5.8777776
vt 0.75415754 5.8777776
vt 0.77819157 5.9056067
vt 0.99323034 5.9056067
vt 0.75415754 5.9056067
vt 0.77819157 0.52583694
vt 0.75415754 -0.6145022
vt 0.99323034 1.6687059
vt 0.99323034 1.6946368
vt 0.99323034 0.52583694
vt 0.99323034 -0.6145022
vt 0.77819157 -0.6145022
vt 0.99323034 -0.6341088
vt 0.77819157 -0.6341088
vt 0.75415754 -0.6341088
vt 0.75415754 -0.65434766
vt 0.77819157 -0.65434766
vt 0.75415754 -1.899044
vt 0.99323034 -0.65434766
vt 0.99323034 -0.6341088
vt 0.77819157 -1.899044
vt 0.75415754 -3.1804233
vt 0.99323034 -1.899044
vt 0.77819157 -3.1804233
vt 0.99323034 -3.1804233
vt 0.99323034 -4.4276495
vt 0.75415754 -4.4276495
vt 0.77819157 -4.4276495
vt 0.99323034 -4.4561105
vt 0.77819157 -4.4561105
vt 0.75415754 -4.4561105
vt 0.4910512 0.98753834
vt 0.4910512 0.6947055
vt 0.4828291 0.6947055
vt 0.47776937 0.98753834
vt 0.3025756 0.6947055
vt 0.3025756 0.9862733
vt 0.3025756 0.99323034
vt 0.4796667 0.99323034
vt 0.4910512 0.99323034
vt 0.4910512 0.9053173
vt 0.4910512 0.596673
vt 0.48409414 0.596673
vt 0.48093176 0.9053173
vt 0.25640583 0.596673
vt 0.25640583 0.9053173
vt 0.016067982 0.99323034
vt 0.19442368 0.99323034
vt 0.19442368 0.9862733
vt 0.017965317 0.9869056
vt 0.19442368 0.6915436
vt 0.011640549 0.6915436
vt 0.0040512085 0.6915436
vt 0.0040512085 0.98753834
vt 0.0040512085 0.99323034
vt 0.013537884 0.9053173
vt 0.0040512085 0.596673
vt 0.0040512085 0.9053173
vt 0.011008263 0.596673
vt 0.23869658 0.596673
vt 0.23869658 0.9053173
vt 0.48599148 0.503068
vt 0.21972275 0.503068
vt 0.21972275 0.5131874
vt 0.48535872 0.5125551
vt 0.4910512 0.5112901
vt 0.4910512 0.503068
vt 0.4910512 0.93694067
vt 0.4828291 0.93694067
vt 0.21972275 0.93694067
vt 0.011640549 0.933146
vt 0.0040512085 0.50876045
vt 0.0040512085 0.933146
vt 0.009743214 0.5112901
vt 0.27285004 0.5131874
vt 0.27285004 0.933146
vt 0.27285004 0.503068
vt 0.007845879 0.503068
vt 0.0040512085 0.503068
vn 0.7097985 0.02745068 0.7038697
vn 0.7097985 0.003921509 0.70439386
vn 0.011764646 0.003921509 0.9999231
vn 0.011764646 0.043136835 0.9989999
vn -0.003921509 0.043136835 0.99906147
vn -0.003921509 0.003921509 0.9999846
vn -0.003921509 0.043136835 0.99906147
vn -0.003921509 0.003921509 0.9999846
vn -0.011764526 0.003921509 0.9999231
vn -0.011764526 0.043136835 0.9989999
vn -0.70979846 0.003921509 0.7043939
vn -0.70979846 0.02745068 0.7038697
vn -0.003921509 0.70979846 0.7043939
vn -0.003921509 0.70979846 0.7043939
vn -0.003921509 0.70979846 0.7043939
vn 0.0039215684 0.70979846 0.7043939
vn -0.5764661 0.5764661 0.57911456
vn 0.5764662 0.5764661 0.57911444
vn -0.70710677 0.70710677 -0
vn 0.7071068 0.70710677 -0
vn -0.9990709 0.04309709 -0
vn -0.70710677 0.70710677 -0
vn 0.9990709 0.043097086 -0
vn 0.7097985 0.003921509 0.70439386
vn 0.9999924 0.003921509 -0
vn 0.9990709 0.043097086 -0
vn 0.9999924 0.003921509 -0
vn 0.70195544 0.70979846 -0.058691327
vn 0.9999924 0.003921509 -0
vn 0.9990709 0.043097086 -0
vn 0.6705831 0.74117076 -0.031370882
vn 0.8431308 0.02745068 -0.5370073
vn 0.8431308 0.003921509 -0.53769416
vn 0.69411236 0.5607799 -0.4513689
vn -0.9990709 0.04309709 -0
vn -0.77046067 0.63748765 -0
vn -0.99999225 0.003921509 -0.00034492963
vn -0.70979846 0.003921509 0.7043939
vn -0.99999225 0.003921509 -0.00034492963
vn -0.99999225 0.003921509 -0.00034492963
vn -0.9993777 0.03527213 -0
vn -0.53725076 0.003921509 -0.8434135
vn -0.53725076 0.035293818 -0.8426838
vn -0.41960454 0.62352455 -0.6596584
vn 0.31764466 0.6392107 -0.7003653
vn 0.4039185 0.035293818 -0.9141139
vn 0.29411542 0.70979846 -0.6400643
vn 0.4039185 0.003921509 -0.9147866
vn -0.53725076 0.003921509 -0.8434135
vn 0.41960466 0.043136835 -0.90668136
vn 0.29411542 0.70979846 -0.6400643
vn 0.41960466 0.003921509 -0.9076985
vn 0.41960466 0.043136835 -0.90668136
vn 0.41960466 0.003921509 -0.9076985
vn 0.42744774 0.003921509 -0.9040315
vn 0.28627235 0.74117076 -0.60721827
vn 0.41960466 0.043136835 -0.90668136
vn 0.8431308 0.003921509 -0.53769416
vn 0.8431308 0.02745068 -0.5370073
vn 0.69411236 0.5607799 -0.4513689
vn 0.0039215684 0.70979846 0.7043939
vn -0.003921509 0.70979846 0.7043939
vn -0.003921509 0.99999225 -0.00034526698
vn 0.0039215684 0.99999225 -0.00034526698
vn -0.003921509 0.99999225 -0.00034526698
vn 0.0039215684 0.99999225 -0.00034526698
vn 0.70195544 0.70979846 -0.058691327
vn 0.7071068 0.70710677 -0
vn 0.5764662 0.5764661 0.57911444
vn -0.003921509 0.70979846 0.7043939
vn -0.003921509 0.70979846 0.7043939
vn -0.003921509 0.99999225 -0.00034526698
vn -0.003921509 0.99999225 -0.00034526698
vn -0.003921509 0.99999225 -0.00034526698
vn -0.003921509 0.99999225 -0.00034526698
vn 0.6705831 0.74117076 -0.031370882
vn 0.70195544 0.70979846 -0.058691327
vn 0.0039215684 0.99999225 -0.00034526698
vn 0.011763923 0.99993086 -0
vn -0.003921509 0.99999225 -0.00034526698
vn 0.0039215684 0.99999225 -0.00034526698
vn 0.29411542 0.70979846 -0.6400643
vn 0.28627235 0.74117076 -0.60721827
vn 0.69411236 0.5607799 -0.4513689
vn 0.0039215684 0.99999225 -0.00034526698
vn 0.29411542 0.70979846 -0.6400643
vn 0.29411542 0.70979846 -0.6400643
vn 0.0039215684 0.99999225 -0.00034526698
vn -0.003921509 0.99999225 -0.00034526698
vn -0.003921509 0.99999225 -0.00034526698
vn -0.70710677 0.70710677 -0
vn -0.70710677 0.70710677 -0
vn -0.011763804 0.99993086 -0
vn -0.011763804 0.99993086 -0
vn -0.003921509 0.70979846 0.7043939
vn -0.5764661 0.5764661 0.57911456
vn -0.003921509 0.70979846 0.7043939
vn -0.003921509 0.99999225 -0.00034526698
vn -0.003921509 0.99999225 -0.00034526698
vn 0.0039215684 0.99999225 -0.00034526698
vn 0.31764466 0.6392107 -0.7003653
vn 0.29411542 0.70979846 -0.6400643
vn -0.011763804 0.99993086 -0
vn -0.011763804 0.99993086 -0
vn -0.003921509 0.99999225 -0.00034526698
vn -0.70710677 0.70710677 -0
vn -0.77046067 0.63748765 -0
vn -0.41960454 0.62352455 -0.6596584
g ENV_FFABB_MidPlatform_Balcony_Vinyl_01_MO_0
f 3/3/3 2/2/2 1/1/1
f 4/4/4 3/3/3 1/1/1
f 3/3/3 4/4/4 5/5/5
f 6/6/6 3/3/3 5/5/5
f 6/6/6 5/5/5 7/7/7
f 8/8/8 6/6/6 7/7/7
f 9/9/9 8/8/8 7/7/7
f 10/10/10 9/9/9 7/7/7
f 11/11/11 9/9/9 10/10/10
f 12/12/12 11/11/11 10/10/10
f 10/10/10 7/7/7 13/13/13
f 10/10/10 13/13/13 12/12/12
f 7/7/7 14/14/14 13/13/13
f 14/14/14 7/7/7 5/5/5
f 15/15/15 14/14/14 5/5/5
f 15/15/15 5/5/5 4/4/4
f 16/16/16 15/15/15 4/4/4
f 4/4/4 1/1/1 16/16/16
f 13/13/13 17/17/17 12/12/12
f 1/1/1 18/18/18 16/16/16
f 12/12/12 17/17/17 19/19/19
f 20/20/20 18/18/18 1/1/1
f 21/21/21 12/12/12 19/19/19
f 19/19/19 22/22/22 21/21/21
f 23/23/23 20/20/20 1/1/1
f 1/1/1 24/24/24 23/23/23
f 24/24/24 25/25/25 23/23/23
f 23/23/23 26/26/26 20/20/20
f 23/23/23 25/25/25 26/26/26
f 25/25/25 27/27/27 26/26/26
f 26/26/26 28/28/28 20/20/20
f 27/27/27 29/29/29 26/26/26
f 28/28/28 26/26/26 30/30/30
f 29/29/29 30/30/30 26/26/26
f 31/31/31 28/28/28 30/30/30
f 30/30/30 29/29/29 32/32/32
f 30/30/30 32/32/32 31/31/31
f 29/29/29 33/33/33 32/32/32
f 32/32/32 34/34/34 31/31/31
f 22/22/22 35/35/35 21/21/21
f 22/22/22 36/36/36 35/35/35
f 37/37/37 21/21/21 35/35/35
f 21/21/21 37/37/37 12/12/12
f 37/37/37 38/38/38 12/12/12
f 39/39/39 37/37/37 35/35/35
f 40/40/40 39/39/39 35/35/35
f 41/41/41 40/40/40 35/35/35
f 36/36/36 41/41/41 35/35/35
f 42/42/42 40/40/40 41/41/41
f 43/43/43 42/42/42 41/41/41
f 41/41/41 36/36/36 43/43/43
f 36/36/36 44/44/44 43/43/43
f 43/43/43 44/44/44 45/45/45
f 46/46/46 43/43/43 45/45/45
f 46/46/46 45/45/45 47/47/47
f 46/46/46 48/48/48 43/43/43
f 48/48/48 49/49/49 43/43/43
f 50/50/50 46/46/46 47/47/47
f 48/48/48 46/46/46 50/50/50
f 50/50/50 47/47/47 51/51/51
f 52/52/52 48/48/48 50/50/50
f 53/53/53 50/50/50 51/51/51
f 52/52/52 50/50/50 53/53/53
f 54/54/54 52/52/52 53/53/53
f 55/55/55 54/54/54 53/53/53
f 53/53/53 51/51/51 56/56/56
f 57/57/57 55/55/55 53/53/53
f 57/57/57 53/53/53 56/56/56
f 58/58/58 55/55/55 57/57/57
f 59/59/59 58/58/58 57/57/57
f 57/57/57 56/56/56 59/59/59
f 56/56/56 60/60/60 59/59/59
f 63/63/63 62/62/62 61/61/61
f 64/64/64 63/63/63 61/61/61
f 63/63/63 64/64/64 65/65/65
f 64/64/64 66/66/66 65/65/65
f 67/67/67 66/66/66 64/64/64
f 68/68/68 67/67/67 64/64/64
f 64/64/64 61/61/61 68/68/68
f 61/61/61 69/69/69 68/68/68
f 72/72/72 71/71/71 70/70/70
f 73/73/73 72/72/72 70/70/70
f 74/74/74 72/72/72 73/73/73
f 75/75/75 74/74/74 73/73/73
f 78/78/78 77/77/77 76/76/76
f 79/79/79 78/78/78 76/76/76
f 78/78/78 79/79/79 80/80/80
f 79/79/79 81/81/81 80/80/80
f 82/82/82 81/81/81 79/79/79
f 83/83/83 82/82/82 79/79/79
f 79/79/79 76/76/76 83/83/83
f 76/76/76 84/84/84 83/83/83
f 87/87/87 86/86/86 85/85/85
f 86/86/86 88/88/88 85/85/85
f 85/85/85 88/88/88 89/89/89
f 90/90/90 85/85/85 89/89/89
f 93/93/93 92/92/92 91/91/91
f 94/94/94 93/93/93 91/91/91
f 94/94/94 91/91/91 95/95/95
f 91/91/91 96/96/96 95/95/95
f 95/95/95 97/97/97 94/94/94
f 97/97/97 98/98/98 94/94/94
f 93/93/93 94/94/94 98/98/98
f 99/99/99 93/93/93 98/98/98
f 102/102/102 101/101/101 100/100/100
f 101/101/101 103/103/103 100/100/100
f 100/100/100 103/103/103 104/104/104
f 105/105/105 100/100/100 104/104/104
f 104/104/104 103/103/103 106/106/106
f 103/103/103 107/107/107 106/106/106
f 103/103/103 101/101/101 107/107/107
f 101/101/101 108/108/108 107/107/107
