g ENV_S06_Scaffolding_Tube03_MO
v 1.5682034 -1.096873 0.7329087
v -1.7466049 -0.73264456 1.0965886
v 1.5682034 -0.73305607 1.0968628
v -1.7466049 -1.0964618 0.73263454
v 1.5682034 -1.2939351 0.2574644
v -1.7466049 -1.2933865 0.25719023
v 1.5682034 -1.2939351 -0.25720024
v -1.7466049 -1.2933865 -0.25747442
v 1.5683405 -1.096873 -0.73264456
v -1.7464676 -1.0964618 -0.732919
v 1.5684776 -0.73305607 -1.0965989
v -1.7464676 -0.73264456 -1.096873
v 1.5684776 -0.25747442 -1.2935236
v -1.7463303 -0.2570634 -1.293798
v 1.5686147 0.2570529 -1.2935236
v -1.7463303 0.25760126 -1.293798
v 1.5686147 0.73263454 -1.0965989
v -1.7461934 0.7330456 -1.096873
v 1.5686147 1.0964513 -0.73264456
v -1.7461934 1.0968628 -0.732919
v 1.5686147 1.2935133 -0.25720024
v -1.7461934 1.2939248 -0.25747442
v 1.5684776 1.293376 0.2574644
v -1.7463303 1.2939248 0.25719023
v 1.5684776 1.0964513 0.7329087
v -1.7463303 1.0968628 0.73263454
v 1.5683405 0.73263454 1.0968628
v -1.7464676 0.7330456 1.0965886
v 1.5683405 0.2570529 1.2937875
v -1.7466049 0.25760126 1.2935133
v 1.5682034 -0.25747442 1.2937875
v -1.7466049 -0.2570634 1.2935133
v 1.5682034 -0.73305607 1.0968628
v -1.7466049 -0.73264456 1.0965886
v 4.4046874 -0.881161 -0.5876939
v -4.5824027 -0.8802011 -0.588928
v -4.5824027 -1.038454 -0.20714617
v 4.4046874 -1.0392768 -0.20591211
v -4.5824027 -1.038454 0.20603895
v 4.4046874 -1.0392768 0.207273
v -4.5824027 -0.8804753 0.58782053
v 4.4046874 -0.88129807 0.58905506
v -4.5824027 -0.5882423 0.8800535
v 4.4046874 -0.5890651 0.88128805
v -4.5824027 -0.2065978 1.0381694
v 4.4046874 -0.20742083 1.0394034
v -4.5824027 0.20658731 1.0383067
v 4.4046874 0.20576477 1.0395408
v -4.5824027 0.58836937 0.88019085
v 4.4046874 0.58754635 0.8814249
v -4.5824027 0.88060236 0.5880947
v 4.4046874 0.87977934 0.58932924
v -4.5824027 1.0388551 0.20631313
v 4.4046874 1.038032 0.20754766
v -4.5824027 1.0388551 -0.20687199
v 4.4046874 1.038032 -0.20563793
v -4.5824027 0.8807392 -0.5886538
v 4.4046874 0.87991667 -0.5874195
v -4.5824027 0.58864355 -0.8808868
v 4.4046874 0.58782053 -0.8796525
v -4.5824027 0.20686197 -1.0390024
v 4.4046874 0.20603895 -1.0377684
v -4.5824027 -0.20632362 -1.0391397
v 4.4046874 -0.20714617 -1.0379055
v -4.5824027 -0.5881052 -0.8810239
v 4.4046874 -0.588928 -0.8797896
v -4.5824027 -0.8802011 -0.588928
v 4.4046874 -0.881161 -0.5876939
v -1.8897729 0.24100828 1.2104101
v -1.8897729 0.68600893 1.0261016
v -1.7464676 0.7330456 1.0965886
v -1.7466049 0.25760126 1.2935133
v -1.7463303 1.0968628 0.73263454
v -1.8899097 -0.24060726 1.2104101
v -1.7466049 -0.2570634 1.2935133
v -1.8896356 1.0265131 0.6855974
v -1.7463303 1.2939248 0.25719023
v -1.8899097 -0.6854706 1.0261016
v -1.7466049 -0.73264456 1.0965886
v -1.8896356 1.2108212 0.24059677
v -1.7461934 1.2939248 -0.25747442
v -1.8899097 -1.0259748 0.6855974
v -1.7466049 -1.0964618 0.73263454
v -1.8894987 1.2108212 -0.2410183
v -1.7461934 1.0968628 -0.732919
v -1.8899097 -1.210283 0.24059677
v -1.7466049 -1.2933865 0.25719023
v -1.8894987 1.0265131 -0.68588185
v -1.7461934 0.7330456 -1.096873
v -1.8899097 -1.210283 -0.2410183
v -1.7466049 -1.2933865 -0.25747442
v -1.8894987 0.68600893 -1.0265234
v -1.7463303 0.25760126 -1.293798
v -1.8897729 -1.0259748 -0.68588185
v -1.7464676 -1.0964618 -0.732919
v -1.8896356 0.24100828 -1.2108316
v -1.7463303 -0.2570634 -1.293798
v -1.8897729 -0.6854706 -1.0265234
v -1.7464676 -0.73264456 -1.096873
v -1.8896356 -0.24060726 -1.2108316
v -1.9728761 -1.066978 -0.21249485
v -1.9728761 -0.9046109 -0.6048355
v -1.9728761 0.00020074844 -0.00021076202
v -1.9730134 -1.066978 0.21207285
v -1.9727392 -0.60428715 -0.9050224
v -1.9730134 -0.9046109 0.604414
v -1.9727392 -0.21208334 -1.0675263
v -1.9730134 -0.60428715 0.9046006
v -1.9727392 0.21248436 -1.0675263
v -1.9730134 -0.21208334 1.0671048
v -1.9726019 0.6048255 -0.9050224
v -1.9728761 0.21248436 1.0671048
v -1.9726019 0.90501213 -0.6048355
v -1.9728761 0.6048255 0.9046006
v -1.9726019 1.0675163 -0.21249485
v -1.9727392 0.90501213 0.604414
v -1.9727392 1.0675163 0.21207285
v 1.7115088 0.24059677 1.2108212
v 1.5683405 0.2570529 1.2937875
v 1.5683405 0.73263454 1.0968628
v 1.7115088 -0.2410183 1.2108212
v 1.5682034 -0.25747442 1.2937875
v 1.7116458 0.6854601 1.0265131
v 1.5684776 1.0964513 0.7329087
v 1.7115088 -0.68601894 1.0265131
v 1.5682034 -0.73305607 1.0968628
v 1.7117829 1.0261016 0.6858716
v 1.5684776 1.293376 0.2574644
v 1.7115088 -1.0265234 0.6858716
v 1.5682034 -1.096873 0.7329087
v 1.7117829 1.2102728 0.24100828
v 1.5686147 1.2935133 -0.25720024
v 1.7115088 -1.2108316 0.24100828
v 1.5682034 -1.2939351 0.2574644
v 1.71192 1.2102728 -0.24060726
v 1.5686147 1.0964513 -0.73264456
v 1.7115088 -1.2108316 -0.24060726
v 1.5682034 -1.2939351 -0.25720024
v 1.71192 1.0261016 -0.6856077
v 1.5686147 0.73263454 -1.0965989
v 1.7116458 -1.0265234 -0.6856077
v 1.5683405 -1.096873 -0.73264456
v 1.71192 0.6854601 -1.0261118
v 1.5686147 0.2570529 -1.2935236
v 1.7116458 -0.68601894 -1.0261118
v 1.5684776 -0.73305607 -1.0965989
v 1.7117829 0.24059677 -1.2104204
v 1.5684776 -0.25747442 -1.2935236
v 1.7117829 -0.2410183 -1.2104204
v 1.7948864 1.0671048 -0.21208334
v 1.7948864 0.9046006 -0.60442424
v 1.794749 -0.00021076202 0.00020074844
v 1.7948864 1.0671048 0.21248436
v 1.7948864 0.60427666 -0.9046109
v 1.794749 0.9046006 0.6048255
v 1.7948864 0.21207285 -1.0671151
v 1.794749 0.60427666 0.90501213
v 1.7948864 -0.21249485 -1.0671151
v 1.7946119 0.21207285 1.0675163
v 1.794749 -0.6048355 -0.9046109
v 1.7946119 -0.21249485 1.0675163
v 1.794749 -0.9050224 -0.60442424
v 1.7946119 -0.6048355 0.90501213
v 1.7946119 -1.0675263 -0.21208334
v 1.7946119 -0.9050224 0.6048255
v 1.7946119 -1.0675263 0.21248436
vt 0.054936413 0.27368534
vt 0.054936413 0.2622058
vt 0.054936413 0.2622058
vt 0.054936413 0.27368534
vt 0.054298658 0.28580263
vt 0.054298658 0.28580263
vt 0.054298658 0.29728216
vt 0.054298658 0.29728216
vt 0.054298658 0.30939946
vt 0.054298658 0.30939946
vt 0.054298658 0.32087898
vt 0.054298658 0.32087898
vt 0.054298658 0.3323585
vt 0.054298658 0.3323585
vt 0.054298658 0.3444758
vt 0.054298658 0.3444758
vt 0.054298658 0.35595533
vt 0.054298658 0.35595533
vt 0.054298658 0.36807263
vt 0.054298658 0.36807263
vt 0.054298658 0.37955216
vt 0.054298658 0.37955216
vt 0.054298658 0.39166945
vt 0.054298658 0.39166945
vt 0.054298658 0.40314898
vt 0.054298658 0.40314898
vt 0.054298658 0.41462854
vt 0.054298658 0.41462854
vt 0.054298658 0.4267458
vt 0.054298658 0.4267458
vt 0.054298658 0.43822536
vt 0.054298658 0.43822536
vt 0.054298658 0.45034263
vt 0.054298658 0.45034263
vt 0.6741936 0.46437317
vt 0.45353138 0.46437317
vt 0.45353138 0.47457722
vt 0.6741936 0.47457722
vt 0.45353138 0.48478124
vt 0.6741936 0.48478124
vt 0.45353138 0.49498528
vt 0.6741936 0.49498528
vt 0.45353138 0.5051893
vt 0.6741936 0.5051893
vt 0.45353138 0.5153934
vt 0.6741936 0.5153934
vt 0.45353138 0.52559733
vt 0.6741936 0.52559733
vt 0.45353138 0.53516364
vt 0.6741936 0.53516364
vt 0.45353138 0.5453677
vt 0.6741936 0.5453677
vt 0.45353138 0.5555717
vt 0.6741936 0.5555717
vt 0.45353138 0.56577575
vt 0.6741936 0.56577575
vt 0.45353138 0.5759798
vt 0.6741936 0.5759798
vt 0.45353138 0.5861838
vt 0.6741936 0.5861838
vt 0.45353138 0.59638786
vt 0.6741936 0.59638786
vt 0.45353138 0.6065918
vt 0.6741936 0.6065918
vt 0.45353138 0.6167959
vt 0.6741936 0.6167959
vt 0.45353138 0.627
vt 0.6741936 0.627
vt 0.14804819 0.2928179
vt 0.15378797 0.30238417
vt 0.15761448 0.30174643
vt 0.15123697 0.29090464
vt 0.15888998 0.31386372
vt 0.13911967 0.28644037
vt 0.14103293 0.2832516
vt 0.15506347 0.31386372
vt 0.15570122 0.325981
vt 0.1282779 0.2832516
vt 0.1282779 0.2794251
vt 0.15251246 0.32470548
vt 0.14804819 0.33618504
vt 0.1174361 0.28516486
vt 0.11552285 0.2819761
vt 0.14613494 0.33363402
vt 0.1372064 0.34256256
vt 0.107869826 0.29090464
vt 0.105318815 0.28835362
vt 0.13656867 0.33873603
vt 0.12508914 0.3444758
vt 0.10085455 0.29983318
vt 0.097665794 0.29855767
vt 0.12508914 0.3406493
vt 0.11297184 0.34128705
vt 0.09830355 0.31067497
vt 0.094477035 0.31067497
vt 0.114247344 0.3380983
vt 0.10276781 0.33363402
vt 0.1002168 0.32151672
vt 0.09639029 0.32279223
vt 0.10595657 0.33108303
vt 0.10468107 0.30174643
vt 0.102130055 0.31067497
vt 0.12700239 0.31195045
vt 0.11042083 0.29345566
vt 0.10340556 0.32024124
vt 0.118711606 0.2889914
vt 0.10850757 0.328532
vt 0.1282779 0.28707814
vt 0.1161606 0.3342718
vt 0.1372064 0.28962913
vt 0.12572688 0.33682278
vt 0.14549719 0.2953689
vt 0.13529316 0.33554727
vt 0.14996146 0.30365968
vt 0.14358394 0.33044526
vt 0.15123697 0.31322595
vt 0.1493237 0.32279223
vt 0.14804819 0.2928179
vt 0.15123697 0.29090464
vt 0.15761448 0.30174643
vt 0.13911967 0.28644037
vt 0.14103293 0.2832516
vt 0.15378797 0.30238417
vt 0.15888998 0.31386372
vt 0.1282779 0.2832516
vt 0.1282779 0.2794251
vt 0.15506347 0.31386372
vt 0.15570122 0.325981
vt 0.1174361 0.28516486
vt 0.11552285 0.2819761
vt 0.15251246 0.32470548
vt 0.14804819 0.33618504
vt 0.107869826 0.29090464
vt 0.105318815 0.28835362
vt 0.14613494 0.33363402
vt 0.1372064 0.34256256
vt 0.10085455 0.29983318
vt 0.097665794 0.29855767
vt 0.13656867 0.33873603
vt 0.12508914 0.3444758
vt 0.09830355 0.31067497
vt 0.094477035 0.31067497
vt 0.12508914 0.3406493
vt 0.11297184 0.34128705
vt 0.1002168 0.32151672
vt 0.09639029 0.32279223
vt 0.114247344 0.3380983
vt 0.10276781 0.33363402
vt 0.10595657 0.33108303
vt 0.14358394 0.33044526
vt 0.13529316 0.33554727
vt 0.12700239 0.31195045
vt 0.1493237 0.32279223
vt 0.12572688 0.33682278
vt 0.15123697 0.31322595
vt 0.1161606 0.3342718
vt 0.14996146 0.30365968
vt 0.10850757 0.328532
vt 0.14549719 0.2953689
vt 0.10340556 0.32024124
vt 0.1372064 0.28962913
vt 0.102130055 0.31067497
vt 0.1282779 0.28707814
vt 0.10468107 0.30174643
vt 0.118711606 0.2889914
vt 0.11042083 0.29345566
vn 0.043136954 -0.8274447 0.55988795
vn -0.043136835 -0.552937 0.8321057
vn 0.043136954 -0.552937 0.8321057
vn -0.043136835 -0.8274447 0.55988795
vn 0.043136954 -0.97646314 0.21132666
vn -0.043136835 -0.97646314 0.21132666
vn 0.043136954 -0.97646314 -0.21132666
vn -0.043136835 -0.97646314 -0.21132666
vn 0.043136954 -0.8274447 -0.55988795
vn -0.043136835 -0.8274447 -0.55988795
vn 0.043136954 -0.552937 -0.8321057
vn -0.043136835 -0.552937 -0.8321057
vn 0.043136954 -0.19215542 -0.980416
vn -0.043136835 -0.19215542 -0.980416
vn 0.043136954 0.19215536 -0.980416
vn -0.043136835 0.19215536 -0.980416
vn 0.043136954 0.5529369 -0.83210576
vn -0.043136835 0.5529369 -0.83210576
vn 0.043136954 0.82744455 -0.5598881
vn -0.043136835 0.82744455 -0.5598881
vn 0.043136954 0.9764631 -0.21132694
vn -0.043136835 0.9764631 -0.21132694
vn 0.043136954 0.9764631 0.21132694
vn -0.043136835 0.9764631 0.21132694
vn 0.043136954 0.82744455 0.5598881
vn -0.043136835 0.82744455 0.5598881
vn 0.043136954 0.5529369 0.83210576
vn -0.043136835 0.5529369 0.83210576
vn 0.043136954 0.19215536 0.980416
vn -0.043136835 0.19215536 0.980416
vn 0.043136954 -0.19215542 0.980416
vn -0.043136835 -0.19215542 0.980416
vn 0.043136954 -0.552937 0.8321057
vn -0.043136835 -0.552937 0.8321057
vn -0.003921509 -0.6470539 -0.7624342
vn -0.003921509 -0.6470539 -0.7624342
vn -0.003921509 -0.8901893 -0.455574
vn -0.003921509 -0.8901893 -0.455574
vn -0.003921509 -0.9999924 -0
vn -0.003921509 -0.9999924 -0
vn -0.003921509 -0.9529339 0.30315277
vn -0.003921509 -0.9529339 0.30315277
vn -0.003921509 -0.76470006 0.6443745
vn -0.003921509 -0.76470006 0.6443745
vn -0.003921509 -0.45882004 0.88852054
vn -0.003921509 -0.45882004 0.88852054
vn -0.003921509 -0.08235234 0.99659556
vn -0.003921509 -0.08235234 0.99659556
vn -0.003921509 0.30195844 0.95331305
vn -0.003921509 0.30195844 0.95331305
vn -0.003921509 0.64705384 0.76243424
vn -0.003921509 0.64705384 0.76243424
vn 0.0039215684 0.8901892 0.45557418
vn 0.0039215684 0.8901892 0.45557418
vn 0.0039215684 0.99999225 -0.00034526698
vn 0.0039215684 0.99999225 -0.00034526698
vn 0.0039215684 0.9529338 -0.30315316
vn 0.0039215684 0.9529338 -0.30315316
vn 0.0039215684 0.76469994 -0.6443746
vn 0.0039215684 0.76469994 -0.6443746
vn 0.0039215684 0.45882 -0.8885206
vn 0.0039215684 0.45882 -0.8885206
vn 0.0039215684 0.08235228 -0.99659556
vn 0.0039215684 0.08235228 -0.99659556
vn 0.0039215684 -0.3019585 -0.953313
vn 0.0039215684 -0.3019585 -0.953313
vn -0.003921509 -0.6470539 -0.7624342
vn -0.003921509 -0.6470539 -0.7624342
vn -0.68626916 0.1450969 0.7127282
vn -0.68626916 0.4039184 0.6048839
vn -0.043136835 0.5529369 0.83210576
vn -0.043136835 0.19215536 0.980416
vn -0.043136835 0.82744455 0.5598881
vn -0.68626916 -0.14509696 0.7127282
vn -0.043136835 -0.19215542 0.980416
vn -0.68626916 0.5999954 0.41114494
vn -0.043136835 0.9764631 0.21132694
vn -0.68626916 -0.4039185 0.60488385
vn -0.043136835 -0.552937 0.8321057
vn -0.68626916 0.70979846 0.15881042
vn -0.043136835 0.9764631 -0.21132694
vn -0.68626916 -0.59999543 0.41114485
vn -0.043136835 -0.8274447 0.55988795
vn -0.68626916 0.70979846 -0.15881042
vn -0.043136835 0.82744455 -0.5598881
vn -0.68626916 -0.7097985 0.15881024
vn -0.043136835 -0.97646314 0.21132666
vn -0.68626916 0.5999954 -0.41114494
vn -0.043136835 0.5529369 -0.83210576
vn -0.68626916 -0.7097985 -0.15881024
vn -0.043136835 -0.97646314 -0.21132666
vn -0.68626916 0.4039184 -0.6048839
vn -0.043136835 0.19215536 -0.980416
vn -0.68626916 -0.59999543 -0.41114485
vn -0.043136835 -0.8274447 -0.55988795
vn -0.68626916 0.1450969 -0.7127282
vn -0.043136835 -0.19215542 -0.980416
vn -0.68626916 -0.4039185 -0.60488385
vn -0.043136835 -0.552937 -0.8321057
vn -0.68626916 -0.14509696 -0.7127282
vn -0.9894747 -0.14470582 -0
vn -0.99214923 -0.121567726 -0.029346028
vn -0.99999225 0.003921509 -0.00034492963
vn -0.9894747 -0.14470582 -0
vn -0.99214923 -0.08235234 -0.09411691
vn -0.99214923 -0.121567726 0.029346028
vn -0.99214923 -0.0274508 -0.12200965
vn -0.99214923 -0.08235234 0.09411691
vn -0.99214923 0.02745068 -0.12200968
vn -0.99214923 -0.0274508 0.12200965
vn -0.99214923 0.08235228 -0.09411696
vn -0.99214923 0.02745068 0.12200968
vn -0.99214923 0.12156761 -0.02934652
vn -0.99214923 0.08235228 0.09411696
vn -0.9894747 0.14470576 -0
vn -0.99214923 0.12156761 0.02934652
vn -0.9894747 0.14470576 -0
vn 0.6862693 0.1450969 0.7127281
vn 0.043136954 0.19215536 0.980416
vn 0.043136954 0.5529369 0.83210576
vn 0.6862693 -0.14509696 0.7127281
vn 0.043136954 -0.19215542 0.980416
vn 0.6862693 0.4039184 0.6048838
vn 0.043136954 0.82744455 0.5598881
vn 0.6862693 -0.4039185 0.60488373
vn 0.043136954 -0.552937 0.8321057
vn 0.6862693 0.5999954 0.41114482
vn 0.043136954 0.9764631 0.21132694
vn 0.6862693 -0.59999543 0.4111447
vn 0.043136954 -0.8274447 0.55988795
vn 0.6862693 0.70979846 0.15881005
vn 0.043136954 0.9764631 -0.21132694
vn 0.6862693 -0.7097985 0.15880987
vn 0.043136954 -0.97646314 0.21132666
vn 0.6862693 0.70979846 -0.15881005
vn 0.043136954 0.82744455 -0.5598881
vn 0.6862693 -0.7097985 -0.15880987
vn 0.043136954 -0.97646314 -0.21132666
vn 0.6862693 0.5999954 -0.41114482
vn 0.043136954 0.5529369 -0.83210576
vn 0.6862693 -0.59999543 -0.4111447
vn 0.043136954 -0.8274447 -0.55988795
vn 0.6862693 0.4039184 -0.6048838
vn 0.043136954 0.19215536 -0.980416
vn 0.6862693 -0.4039185 -0.60488373
vn 0.043136954 -0.552937 -0.8321057
vn 0.6862693 0.1450969 -0.7127281
vn 0.043136954 -0.19215542 -0.980416
vn 0.6862693 -0.14509696 -0.7127281
vn 0.9894748 0.14470576 -0
vn 0.9921493 0.12156761 -0.029344488
vn 0.9999924 -0.0039215684 -0
vn 0.9894748 0.14470576 -0
vn 0.9921493 0.08235228 -0.09411633
vn 0.9921493 0.12156761 0.029344488
vn 0.9921493 0.02745068 -0.12200919
vn 0.9921493 0.08235228 0.09411633
vn 0.9921493 -0.0274508 -0.122009166
vn 0.9921493 0.02745068 0.12200919
vn 0.9921493 -0.08235234 -0.09411628
vn 0.9921493 -0.0274508 0.122009166
vn 0.9921493 -0.121567726 -0.029343996
vn 0.9921493 -0.08235234 0.09411628
vn 0.9894748 -0.14470582 -0
vn 0.9921493 -0.121567726 0.029343996
vn 0.9894748 -0.14470582 -0
g ENV_S06_Scaffolding_Tube03_MO_0
f 3/3/3 2/2/2 1/1/1
f 2/2/2 4/4/4 1/1/1
f 1/1/1 4/4/4 5/5/5
f 4/4/4 6/6/6 5/5/5
f 5/5/5 6/6/6 7/7/7
f 6/6/6 8/8/8 7/7/7
f 7/7/7 8/8/8 9/9/9
f 8/8/8 10/10/10 9/9/9
f 9/9/9 10/10/10 11/11/11
f 10/10/10 12/12/12 11/11/11
f 11/11/11 12/12/12 13/13/13
f 12/12/12 14/14/14 13/13/13
f 13/13/13 14/14/14 15/15/15
f 14/14/14 16/16/16 15/15/15
f 15/15/15 16/16/16 17/17/17
f 16/16/16 18/18/18 17/17/17
f 17/17/17 18/18/18 19/19/19
f 18/18/18 20/20/20 19/19/19
f 19/19/19 20/20/20 21/21/21
f 20/20/20 22/22/22 21/21/21
f 21/21/21 22/22/22 23/23/23
f 22/22/22 24/24/24 23/23/23
f 23/23/23 24/24/24 25/25/25
f 24/24/24 26/26/26 25/25/25
f 25/25/25 26/26/26 27/27/27
f 26/26/26 28/28/28 27/27/27
f 27/27/27 28/28/28 29/29/29
f 28/28/28 30/30/30 29/29/29
f 29/29/29 30/30/30 31/31/31
f 30/30/30 32/32/32 31/31/31
f 31/31/31 32/32/32 33/33/33
f 32/32/32 34/34/34 33/33/33
f 37/37/37 36/36/36 35/35/35
f 38/38/38 37/37/37 35/35/35
f 39/39/39 37/37/37 38/38/38
f 40/40/40 39/39/39 38/38/38
f 41/41/41 39/39/39 40/40/40
f 42/42/42 41/41/41 40/40/40
f 43/43/43 41/41/41 42/42/42
f 44/44/44 43/43/43 42/42/42
f 45/45/45 43/43/43 44/44/44
f 46/46/46 45/45/45 44/44/44
f 47/47/47 45/45/45 46/46/46
f 48/48/48 47/47/47 46/46/46
f 49/49/49 47/47/47 48/48/48
f 50/50/50 49/49/49 48/48/48
f 51/51/51 49/49/49 50/50/50
f 52/52/52 51/51/51 50/50/50
f 53/53/53 51/51/51 52/52/52
f 54/54/54 53/53/53 52/52/52
f 55/55/55 53/53/53 54/54/54
f 56/56/56 55/55/55 54/54/54
f 57/57/57 55/55/55 56/56/56
f 58/58/58 57/57/57 56/56/56
f 59/59/59 57/57/57 58/58/58
f 60/60/60 59/59/59 58/58/58
f 61/61/61 59/59/59 60/60/60
f 62/62/62 61/61/61 60/60/60
f 63/63/63 61/61/61 62/62/62
f 64/64/64 63/63/63 62/62/62
f 65/65/65 63/63/63 64/64/64
f 66/66/66 65/65/65 64/64/64
f 67/67/67 65/65/65 66/66/66
f 68/68/68 67/67/67 66/66/66
f 71/71/71 70/70/70 69/69/69
f 72/72/72 71/71/71 69/69/69
f 71/71/71 73/73/73 70/70/70
f 72/72/72 69/69/69 74/74/74
f 75/75/75 72/72/72 74/74/74
f 73/73/73 76/76/76 70/70/70
f 76/76/76 73/73/73 77/77/77
f 75/75/75 74/74/74 78/78/78
f 79/79/79 75/75/75 78/78/78
f 80/80/80 76/76/76 77/77/77
f 77/77/77 81/81/81 80/80/80
f 79/79/79 78/78/78 82/82/82
f 83/83/83 79/79/79 82/82/82
f 81/81/81 84/84/84 80/80/80
f 81/81/81 85/85/85 84/84/84
f 83/83/83 82/82/82 86/86/86
f 87/87/87 83/83/83 86/86/86
f 85/85/85 88/88/88 84/84/84
f 85/85/85 89/89/89 88/88/88
f 87/87/87 86/86/86 90/90/90
f 91/91/91 87/87/87 90/90/90
f 89/89/89 92/92/92 88/88/88
f 89/89/89 93/93/93 92/92/92
f 91/91/91 90/90/90 94/94/94
f 95/95/95 91/91/91 94/94/94
f 93/93/93 96/96/96 92/92/92
f 93/93/93 97/97/97 96/96/96
f 95/95/95 94/94/94 98/98/98
f 99/99/99 95/95/95 98/98/98
f 97/97/97 99/99/99 100/100/100
f 97/97/97 100/100/100 96/96/96
f 99/99/99 98/98/98 100/100/100
f 90/90/90 86/86/86 101/101/101
f 94/94/94 90/90/90 102/102/102
f 90/90/90 101/101/101 102/102/102
f 101/101/101 103/103/103 102/102/102
f 86/86/86 104/104/104 101/101/101
f 104/104/104 103/103/103 101/101/101
f 86/86/86 82/82/82 104/104/104
f 94/94/94 102/102/102 105/105/105
f 98/98/98 94/94/94 105/105/105
f 102/102/102 103/103/103 105/105/105
f 82/82/82 106/106/106 104/104/104
f 106/106/106 103/103/103 104/104/104
f 82/82/82 78/78/78 106/106/106
f 98/98/98 105/105/105 107/107/107
f 100/100/100 98/98/98 107/107/107
f 105/105/105 103/103/103 107/107/107
f 78/78/78 108/108/108 106/106/106
f 108/108/108 103/103/103 106/106/106
f 78/78/78 74/74/74 108/108/108
f 100/100/100 107/107/107 109/109/109
f 107/107/107 103/103/103 109/109/109
f 110/110/110 103/103/103 108/108/108
f 74/74/74 110/110/110 108/108/108
f 109/109/109 103/103/103 111/111/111
f 96/96/96 100/100/100 109/109/109
f 96/96/96 109/109/109 111/111/111
f 74/74/74 69/69/69 110/110/110
f 92/92/92 96/96/96 111/111/111
f 69/69/69 112/112/112 110/110/110
f 112/112/112 103/103/103 110/110/110
f 69/69/69 70/70/70 112/112/112
f 92/92/92 111/111/111 113/113/113
f 111/111/111 103/103/103 113/113/113
f 88/88/88 92/92/92 113/113/113
f 70/70/70 114/114/114 112/112/112
f 114/114/114 103/103/103 112/112/112
f 70/70/70 76/76/76 114/114/114
f 88/88/88 113/113/113 115/115/115
f 113/113/113 103/103/103 115/115/115
f 84/84/84 88/88/88 115/115/115
f 76/76/76 116/116/116 114/114/114
f 116/116/116 103/103/103 114/114/114
f 116/116/116 76/76/76 80/80/80
f 115/115/115 103/103/103 117/117/117
f 84/84/84 115/115/115 117/117/117
f 80/80/80 84/84/84 117/117/117
f 117/117/117 103/103/103 116/116/116
f 117/117/117 116/116/116 80/80/80
f 120/120/120 119/119/119 118/118/118
f 118/118/118 119/119/119 121/121/121
f 119/119/119 122/122/122 121/121/121
f 123/123/123 120/120/120 118/118/118
f 124/124/124 120/120/120 123/123/123
f 121/121/121 122/122/122 125/125/125
f 122/122/122 126/126/126 125/125/125
f 127/127/127 124/124/124 123/123/123
f 124/124/124 127/127/127 128/128/128
f 125/125/125 126/126/126 129/129/129
f 126/126/126 130/130/130 129/129/129
f 127/127/127 131/131/131 128/128/128
f 132/132/132 128/128/128 131/131/131
f 129/129/129 130/130/130 133/133/133
f 130/130/130 134/134/134 133/133/133
f 135/135/135 132/132/132 131/131/131
f 136/136/136 132/132/132 135/135/135
f 133/133/133 134/134/134 137/137/137
f 134/134/134 138/138/138 137/137/137
f 139/139/139 136/136/136 135/135/135
f 140/140/140 136/136/136 139/139/139
f 137/137/137 138/138/138 141/141/141
f 138/138/138 142/142/142 141/141/141
f 143/143/143 140/140/140 139/139/139
f 144/144/144 140/140/140 143/143/143
f 141/141/141 142/142/142 145/145/145
f 142/142/142 146/146/146 145/145/145
f 147/147/147 144/144/144 143/143/143
f 148/148/148 144/144/144 147/147/147
f 146/146/146 148/148/148 149/149/149
f 145/145/145 146/146/146 149/149/149
f 149/149/149 148/148/148 147/147/147
f 139/139/139 135/135/135 150/150/150
f 143/143/143 139/139/139 151/151/151
f 151/151/151 139/139/139 150/150/150
f 152/152/152 151/151/151 150/150/150
f 150/150/150 135/135/135 153/153/153
f 152/152/152 150/150/150 153/153/153
f 135/135/135 131/131/131 153/153/153
f 154/154/154 143/143/143 151/151/151
f 147/147/147 143/143/143 154/154/154
f 152/152/152 154/154/154 151/151/151
f 155/155/155 153/153/153 131/131/131
f 152/152/152 153/153/153 155/155/155
f 127/127/127 155/155/155 131/131/131
f 156/156/156 147/147/147 154/154/154
f 149/149/149 147/147/147 156/156/156
f 152/152/152 156/156/156 154/154/154
f 155/155/155 127/127/127 157/157/157
f 152/152/152 155/155/155 157/157/157
f 127/127/127 123/123/123 157/157/157
f 158/158/158 149/149/149 156/156/156
f 152/152/152 158/158/158 156/156/156
f 152/152/152 157/157/157 159/159/159
f 157/157/157 123/123/123 159/159/159
f 152/152/152 160/160/160 158/158/158
f 145/145/145 149/149/149 158/158/158
f 160/160/160 145/145/145 158/158/158
f 123/123/123 118/118/118 159/159/159
f 141/141/141 145/145/145 160/160/160
f 159/159/159 118/118/118 161/161/161
f 152/152/152 159/159/159 161/161/161
f 118/118/118 121/121/121 161/161/161
f 162/162/162 141/141/141 160/160/160
f 152/152/152 162/162/162 160/160/160
f 137/137/137 141/141/141 162/162/162
f 161/161/161 121/121/121 163/163/163
f 152/152/152 161/161/161 163/163/163
f 121/121/121 125/125/125 163/163/163
f 164/164/164 137/137/137 162/162/162
f 152/152/152 164/164/164 162/162/162
f 133/133/133 137/137/137 164/164/164
f 163/163/163 125/125/125 165/165/165
f 152/152/152 163/163/163 165/165/165
f 125/125/125 129/129/129 165/165/165
f 152/152/152 166/166/166 164/164/164
f 166/166/166 133/133/133 164/164/164
f 152/152/152 165/165/165 166/166/166
f 129/129/129 133/133/133 166/166/166
f 165/165/165 129/129/129 166/166/166
