g ENV_EndSection_Large
v -0.00035858154 0.03543663 23.443539
v -9.699924 0.03543663 23.443539
v -9.699924 0.049755096 23.407745
v -0.00035858154 0.049755096 23.407745
v 9.516655 0.03543663 23.443539
v -9.699924 0.049755096 -23.457855
v 9.516655 0.049755096 23.407745
v -0.00035858154 0.049755096 -23.457855
v 9.516655 0.049755096 -23.457855
v 9.516655 0.00035858154 23.457855
v 9.516655 -0.04975319 23.457855
v -0.00035858154 -0.04975319 23.457855
v -0.00035858154 0.00035858154 23.457855
v -9.699924 -0.04975319 23.457855
v -9.699924 0.00035858154 23.457855
v -9.699924 0.03543663 23.443539
v -0.00035858154 0.03543663 23.443539
v 9.516655 0.03543663 23.443539
vt 0.5000355 1.9681213
vt 1.528405 1.9681213
vt 1.528405 1.9642527
vt 0.5000355 1.9642527
vt -0.5283334 1.9681213
vt 1.528405 -3.3033183
vt -0.5283334 1.9642527
vt 0.5000355 -3.3033183
vt -0.5283334 -3.3033183
vt -0.5283334 1.9719899
vt -0.5283334 1.9777925
vt 0.5000355 1.9777925
vt 0.5000355 1.9719899
vt 1.528405 1.9777925
vt 1.528405 1.9719899
vt 1.528405 1.9681213
vt 0.5000355 1.9681213
vt -0.5283334 1.9681213
vn -0 0.9254902 0.37877157
vn -0 0.9254902 0.37877157
vn -0 1 -0
vn -0 1 -0
vn -0 0.9254902 0.37877157
vn -0 1 -0
vn -0 1 -0
vn -0 1 -0
vn -0 1 -0
vn -0 0.16862746 0.98567986
vn -0 0 1
vn -0 0 1
vn -0 0.16862746 0.98567986
vn -0 0 1
vn -0 0.16862746 0.98567986
vn -0 0.38431373 0.9232026
vn -0 0.38431373 0.9232026
vn -0 0.38431373 0.9232026
g ENV_EndSection_Large_0
f 3/3/3 2/2/2 1/1/1
f 4/4/4 3/3/3 1/1/1
f 1/1/1 5/5/5 4/4/4
f 3/3/3 4/4/4 6/6/6
f 5/5/5 7/7/7 4/4/4
f 4/4/4 8/8/8 6/6/6
f 4/4/4 7/7/7 8/8/8
f 7/7/7 9/9/9 8/8/8
f 12/12/12 11/11/11 10/10/10
f 13/13/13 12/12/12 10/10/10
f 14/14/14 12/12/12 13/13/13
f 15/15/15 14/14/14 13/13/13
f 16/16/16 15/15/15 13/13/13
f 17/17/17 16/16/16 13/13/13
f 13/13/13 10/10/10 17/17/17
f 10/10/10 18/18/18 17/17/17
