g ENV_BasketFall_OuterWall_02_MO
v 25.245615 4.9841537 61.65343
v 25.170618 5.0317497 61.744297
v 26.377789 4.982712 62.311108
v 26.369137 5.0317497 62.42937
v 25.138887 5.1399193 61.773144
v 26.376347 5.1399193 62.469753
v 26.360481 10.345036 62.46831
v 25.154753 10.345036 61.77891
v 26.334522 10.43734 62.378887
v 26.396538 10.4200325 62.394756
v 25.239845 10.435898 61.72122
v 25.179272 10.418591 61.70103
v 26.377789 10.441666 62.31976
v 26.439806 10.424358 62.337063
v 25.245615 10.441666 61.650547
v 31.90453 7.774929 46.65826
v 30.371407 7.774929 46.65826
v 25.18504 10.422916 61.6318
v 30.299294 7.75618 46.65826
v 25.136003 10.369553 61.686604
v 25.154753 10.345036 61.77891
v 25.118696 10.303207 61.680836
v 25.138887 5.1399193 61.773144
v 25.140331 10.372437 61.617374
v 30.24593 7.707142 46.65826
v 25.118696 5.1370354 61.67795
v 25.170618 5.0317497 61.744297
v 25.124466 10.304653 61.611607
v 25.124466 5.1399193 61.610165
v 25.154753 5.028866 61.675068
v 25.245615 4.9841537 61.65343
v 25.160522 5.0317497 61.617374
v 30.225739 7.6393547 46.65826
v 30.256027 7.6970444 46.604893
v 30.261795 2.3823166 46.666912
v 30.359869 2.3347244 46.67412
v 30.22718 2.515007 46.653927
v 30.27766 2.3852005 46.61787
v 30.315159 2.3866425 46.586147
v 30.24593 2.517891 46.59624
v 30.299294 2.517891 46.551533
v 30.24593 7.6393547 46.597683
v 30.299294 7.6393547 46.552975
v 30.307947 7.6970444 46.561626
v 30.307947 7.7460823 46.604893
v 30.371407 7.707142 46.552975
v 30.371407 7.75618 46.597683
v 31.90453 7.75618 46.597683
v 31.90453 7.707142 46.552975
v 31.966547 7.7460823 46.604893
v 30.371407 7.6393547 46.535664
v 30.307947 7.6970444 46.561626
v 30.299294 7.6393547 46.552975
v 31.976643 7.75618 46.65826
v 30.371407 2.519333 46.53422
v 30.299294 2.517891 46.551533
v 30.315159 2.3866425 46.586147
v 30.375734 2.3866425 46.57172
v 30.359869 2.3347244 46.67412
v 31.913183 2.3332787 46.66403
v 31.900204 2.3866425 46.57172
v 31.959335 2.3866425 46.586147
v 31.90453 2.517891 46.53422
v 31.976643 2.519333 46.551533
v 31.90453 7.6393547 46.535664
v 31.976643 7.6393547 46.552975
v 31.966547 7.6970444 46.561626
v 31.966547 7.6970444 46.561626
v 32.018467 7.6970444 46.604893
v 31.976643 7.6393547 46.552975
v 32.030006 7.6393547 46.597683
v 32.030006 2.516449 46.59624
v 31.976643 2.519333 46.551533
v 31.959335 2.3866425 46.586147
v 32.048756 7.6393547 46.65826
v 32.030006 7.707142 46.65826
v 31.996834 2.3852005 46.61787
v 31.913183 2.3332787 46.66403
v 26.483074 10.3738785 62.35149
v 32.048756 2.5121193 46.65682
v 26.500381 10.306095 62.355816
v 26.44125 10.370995 62.407734
v 26.396538 10.4200325 62.394756
v 26.360481 10.345036 62.46831
v 26.458555 10.303207 62.410618
v 26.376347 5.1399193 62.469753
v 26.500381 5.1384773 62.354374
v 26.46 5.1355934 62.409176
v 26.369137 5.0317497 62.42937
v 32.011257 2.3808746 46.65682
v 26.46865 5.030308 62.337063
v 26.43548 5.027424 62.38322
v 26.377789 4.982712 62.311108
v 30.359869 2.3347244 46.67412
v 25.245615 4.9841537 61.65343
vt 1.1973094 0.32676053
vt 1.1890272 0.32768077
vt 1.2175547 0.4141835
vt 1.2101928 0.4197049
vt 1.1816653 0.328601
vt 1.2037511 0.42338598
vt 0.85681987 0.50436723
vt 0.8356544 0.41050255
vt 0.8476175 0.5006863
vt 0.8476175 0.5052875
vt 0.8273722 0.41602397
vt 0.8273722 0.41142285
vt 0.84301627 0.50344694
vt 0.84301627 0.507128
vt 0.82277095 0.4151038
vt -0.2999242 0.49700534
vt -0.26955622 0.39761913
vt 0.82277095 0.41050255
vt -0.268636 0.393018
vt 0.8273722 0.4059013
vt 0.8338138 0.40406084
vt 0.8264519 0.4003799
vt 0.78780174 0.049767733
vt 0.82277095 0.4059013
vt -0.26771575 0.38841677
vt 0.78136003 0.05068797
vt 0.7841208 0.041485548
vt 0.82185066 0.4013002
vt 0.7758386 0.051608205
vt 0.77859926 0.04332602
vt 0.7758386 0.036884308
vt 0.7749183 0.04332602
vt -0.268636 0.38289535
vt -0.2713967 0.38749647
vt -0.32569098 0.028602183
vt -0.3284517 0.021240234
vt -0.32477075 0.037804604
vt -0.32937196 0.029522419
vt -0.33213267 0.028602183
vt -0.3284517 0.03872484
vt -0.3330529 0.039645076
vt -0.27231696 0.38381553
vt -0.27691817 0.38473582
vt -0.2759979 0.39025724
vt -0.27231696 0.393018
vt -0.27875865 0.39485848
vt -0.27415743 0.39669895
vt -0.3045254 0.49608505
vt -0.30820638 0.49608505
vt -0.3045254 0.5006863
vt -0.28335986 0.39393818
vt -0.27875865 0.39025724
vt -0.28243962 0.38841677
vt -0.3017647 0.50160646
vt -0.6229291 0.30283427
vt -0.6210886 0.2973128
vt -0.6312113 0.29639256
vt -0.6321315 0.3000735
vt -0.63949347 0.2973128
vt -0.6661805 0.4003799
vt -0.65881854 0.4013002
vt -0.660659 0.40498114
vt -0.6496161 0.40406084
vt -0.6514566 0.40866208
vt -0.3128076 0.49424458
vt -0.31372783 0.499766
vt -0.31004688 0.499766
vt -0.30912662 0.50252676
vt -0.3063659 0.5052875
vt -0.3128076 0.5080482
vt -0.30820638 0.50988865
vt -0.37538403 0.8531389
vt -0.37998524 0.8522186
vt -0.37722453 0.8641819
vt -0.3045254 0.51080894
vt -0.30268493 0.5062077
vt -0.37354356 0.8632616
vt -0.37078282 0.8697033
vt 0.842096 0.5117291
vt -0.37078282 0.8540591
vt 0.8411758 0.51725066
vt 0.8466972 0.5126494
vt 0.8485377 0.5089685
vt 0.8540591 0.5154102
vt 0.84577703 0.51725066
vt 0.7988447 0.8697033
vt 0.78688145 0.8678628
vt 0.7914827 0.868783
vt 0.79424345 0.8779855
vt -0.37078282 0.8632616
vt 0.785041 0.8752247
vt 0.7896422 0.876145
vt 0.7859613 0.8825866
vt -0.3348934 0.97092986
vt 0.7684766 0.97092986
vn -0.067610264 -0.9873477 0.14343402
vn -0.40116322 -0.6460378 0.64938676
vn -0.005553901 -0.9873477 0.15847266
vn -0.362378 -0.6072526 0.7070548
vn -0.5330329 -0.009960175 0.8460359
vn -0.43219137 -0.009960175 0.9017269
vn -0.4477054 0.005553901 0.89416385
vn -0.5252758 0.013310909 0.85082793
vn -0.2925645 0.8122865 0.5045757
vn 0.30472785 0.7967725 0.52181846
vn -0.2770505 0.84331465 0.46050346
vn -0.54078996 0.82004356 0.18728259
vn 0.048745394 0.9906986 -0.12704395
vn 0.48956338 0.87196773 -0
vn 0.02547425 0.9829415 -0.18214576
vn 0.0565024 0.9829415 -0.17502414
vn 0.033231318 0.9829415 -0.1808914
vn -0.43994844 0.84331465 -0.3086515
vn -0.4244343 0.8588288 -0.28682512
vn -0.88985693 0.45546246 0.026618887
vn -0.5252758 0.013310909 0.85082793
vn -0.9906986 0.005553901 0.13596123
vn -0.5330329 -0.009960175 0.8460359
vn -0.7890154 0.50200474 -0.35418347
vn -0.7967725 0.4864906 -0.35844177
vn -0.9906986 -0.0022031069 0.13605678
vn -0.40116322 -0.6460378 0.64938676
vn -0.9441563 0.005553901 -0.32945114
vn -0.9441563 -0.0022031069 -0.3294906
vn -0.8588288 -0.50641096 0.077208094
vn -0.067610264 -0.9873477 0.14343402
vn -0.7890154 -0.59173846 -0.16522802
vn -0.9441563 0.005553901 -0.32945114
vn -0.7735013 0.4244343 -0.47069237
vn -0.7424731 -0.6537948 -0.14589725
vn -0.059853196 -0.9873477 0.14684018
vn -0.9441563 -0.009960175 -0.3293474
vn -0.73471606 -0.44435465 -0.51258296
vn -0.38564909 -0.44435465 -0.8085937
vn -0.82780063 -0.0022031069 -0.56101805
vn -0.43994844 -0.0022031069 -0.8980203
vn -0.82780063 0.005553901 -0.5609949
vn -0.43994844 0.005553901 -0.89800584
vn -0.37013495 0.39340615 -0.8415651
vn -0.38564909 0.8045294 -0.45167157
vn -0.005553901 0.46321952 -0.8862262
vn -0.005553901 0.84331465 -0.53739136
vn 0.009960175 0.84331465 -0.5373278
vn 0.009960175 0.46321952 -0.8861876
vn 0.3822983 0.8045294 -0.45451117
vn -0.013310909 0.005553901 -0.99989593
vn -0.37013495 0.39340615 -0.8415651
vn -0.43994844 0.005553901 -0.89800584
vn 0.55295324 0.82780063 0.094809584
vn -0.013310909 -0.009960175 -0.9998618
vn -0.43994844 -0.0022031069 -0.8980203
vn -0.38564909 -0.44435465 -0.8085937
vn -0.005553901 -0.59949553 -0.80035883
vn -0.059853196 -0.9873477 0.14684018
vn 0.009960175 -0.9873477 0.158257
vn 0.0022031069 -0.59949553 -0.8003751
vn 0.3900553 -0.4210835 -0.81886846
vn 0.009960175 -0.009960175 -0.9999008
vn 0.44435465 -0.0022031069 -0.8958483
vn 0.009960175 0.005553901 -0.999935
vn 0.4365976 0.005553901 -0.8996397
vn 0.36678421 0.39340615 -0.8430308
vn 0.36678421 0.39340615 -0.8430308
vn 0.77790755 0.4244343 -0.4633739
vn 0.4365976 0.005553901 -0.8996397
vn 0.8244498 0.005553901 -0.5659079
vn 0.83220685 -0.0022031069 -0.5544609
vn 0.44435465 -0.0022031069 -0.8958483
vn 0.3900553 -0.4210835 -0.81886846
vn 0.94080544 0.005553901 0.3389016
vn 0.863235 0.4477054 0.23320644
vn 0.73136526 -0.4210835 -0.536464
vn 0.009960175 -0.9873477 0.158257
vn 0.83220685 0.5175189 0.1990125
vn 0.94080544 -0.009960175 0.33880076
vn 0.94080544 0.005553901 0.3389016
vn 0.6227666 0.43219137 0.65220577
vn 0.30472785 0.7967725 0.52181846
vn -0.4477054 0.005553901 0.89416385
vn 0.6460378 0.005553901 0.7632852
vn -0.43219137 -0.009960175 0.9017269
vn 0.94080544 -0.0022031069 0.33893996
vn 0.6537948 -0.0022031069 0.7566687
vn -0.362378 -0.6072526 0.7070548
vn 0.73912233 -0.5684674 0.36130735
vn 0.73912233 -0.5762244 0.3488031
vn 0.5839814 -0.50641096 0.63443965
vn -0.005553901 -0.9873477 0.15847266
vn -0.059853196 -0.9873477 0.14684018
vn -0.067610264 -0.9873477 0.14343402
g ENV_BasketFall_OuterWall_02_MO_0
f 3/3/3 2/2/2 1/1/1
f 3/3/3 4/4/4 2/2/2
f 4/4/4 5/5/5 2/2/2
f 4/4/4 6/6/6 5/5/5
f 5/5/5 6/6/6 7/7/7
f 5/5/5 7/7/7 8/8/8
f 9/9/9 8/8/8 7/7/7
f 10/10/10 9/9/9 7/7/7
f 9/9/9 11/11/11 8/8/8
f 11/11/11 12/12/12 8/8/8
f 10/10/10 13/13/13 9/9/9
f 11/11/11 9/9/9 13/13/13
f 10/10/10 14/14/14 13/13/13
f 12/12/12 11/11/11 15/15/15
f 11/11/11 13/13/13 15/15/15
f 16/16/16 13/13/13 14/14/14
f 17/17/17 15/15/15 13/13/13
f 17/17/17 13/13/13 16/16/16
f 12/12/12 15/15/15 18/18/18
f 19/19/19 15/15/15 17/17/17
f 19/19/19 18/18/18 15/15/15
f 20/20/20 12/12/12 18/18/18
f 12/12/12 20/20/20 21/21/21
f 20/20/20 22/22/22 21/21/21
f 22/22/22 23/23/23 21/21/21
f 20/20/20 18/18/18 24/24/24
f 22/22/22 20/20/20 24/24/24
f 25/25/25 24/24/24 18/18/18
f 25/25/25 18/18/18 19/19/19
f 22/22/22 26/26/26 23/23/23
f 27/27/27 23/23/23 26/26/26
f 22/22/22 24/24/24 28/28/28
f 28/28/28 24/24/24 25/25/25
f 22/22/22 28/28/28 29/29/29
f 22/22/22 29/29/29 26/26/26
f 27/27/27 26/26/26 30/30/30
f 31/31/31 27/27/27 30/30/30
f 26/26/26 32/32/32 30/30/30
f 30/30/30 32/32/32 31/31/31
f 26/26/26 29/29/29 32/32/32
f 28/28/28 25/25/25 33/33/33
f 29/29/29 28/28/28 33/33/33
f 34/34/34 25/25/25 19/19/19
f 34/34/34 33/33/33 25/25/25
f 31/31/31 32/32/32 35/35/35
f 31/31/31 35/35/35 36/36/36
f 32/32/32 29/29/29 37/37/37
f 32/32/32 37/37/37 35/35/35
f 29/29/29 33/33/33 37/37/37
f 36/36/36 35/35/35 38/38/38
f 38/38/38 35/35/35 37/37/37
f 36/36/36 38/38/38 39/39/39
f 38/38/38 37/37/37 40/40/40
f 39/39/39 38/38/38 40/40/40
f 40/40/40 37/37/37 33/33/33
f 39/39/39 40/40/40 41/41/41
f 40/40/40 33/33/33 42/42/42
f 41/41/41 40/40/40 42/42/42
f 34/34/34 42/42/42 33/33/33
f 41/41/41 42/42/42 43/43/43
f 43/43/43 42/42/42 34/34/34
f 43/43/43 34/34/34 44/44/44
f 45/45/45 44/44/44 34/34/34
f 34/34/34 19/19/19 45/45/45
f 45/45/45 19/19/19 17/17/17
f 45/45/45 46/46/46 44/44/44
f 45/45/45 17/17/17 47/47/47
f 45/45/45 47/47/47 46/46/46
f 47/47/47 17/17/17 16/16/16
f 46/46/46 47/47/47 48/48/48
f 47/47/47 16/16/16 48/48/48
f 46/46/46 48/48/48 49/49/49
f 50/50/50 48/48/48 16/16/16
f 49/49/49 48/48/48 50/50/50
f 51/51/51 46/46/46 49/49/49
f 52/52/52 46/46/46 51/51/51
f 52/52/52 51/51/51 53/53/53
f 50/50/50 16/16/16 54/54/54
f 16/16/16 14/14/14 54/54/54
f 55/55/55 53/53/53 51/51/51
f 55/55/55 56/56/56 53/53/53
f 57/57/57 56/56/56 55/55/55
f 57/57/57 55/55/55 58/58/58
f 59/59/59 57/57/57 58/58/58
f 60/60/60 59/59/59 58/58/58
f 60/60/60 58/58/58 61/61/61
f 61/61/61 58/58/58 55/55/55
f 60/60/60 61/61/61 62/62/62
f 61/61/61 55/55/55 63/63/63
f 62/62/62 61/61/61 63/63/63
f 63/63/63 55/55/55 51/51/51
f 62/62/62 63/63/63 64/64/64
f 63/63/63 51/51/51 65/65/65
f 64/64/64 63/63/63 65/65/65
f 64/64/64 65/65/65 66/66/66
f 67/67/67 66/66/66 65/65/65
f 51/51/51 49/49/49 65/65/65
f 67/67/67 65/65/65 49/49/49
f 49/49/49 50/50/50 68/68/68
f 50/50/50 69/69/69 68/68/68
f 69/69/69 70/70/70 68/68/68
f 54/54/54 69/69/69 50/50/50
f 69/69/69 71/71/71 70/70/70
f 72/72/72 70/70/70 71/71/71
f 72/72/72 73/73/73 70/70/70
f 74/74/74 73/73/73 72/72/72
f 69/69/69 75/75/75 71/71/71
f 72/72/72 71/71/71 75/75/75
f 54/54/54 76/76/76 69/69/69
f 69/69/69 76/76/76 75/75/75
f 74/74/74 72/72/72 77/77/77
f 78/78/78 74/74/74 77/77/77
f 54/54/54 79/79/79 76/76/76
f 54/54/54 14/14/14 79/79/79
f 77/77/77 72/72/72 80/80/80
f 72/72/72 75/75/75 80/80/80
f 76/76/76 81/81/81 75/75/75
f 76/76/76 79/79/79 81/81/81
f 82/82/82 79/79/79 14/14/14
f 82/82/82 14/14/14 83/83/83
f 82/82/82 83/83/83 84/84/84
f 85/85/85 79/79/79 82/82/82
f 85/85/85 82/82/82 84/84/84
f 85/85/85 81/81/81 79/79/79
f 86/86/86 85/85/85 84/84/84
f 87/87/87 75/75/75 81/81/81
f 85/85/85 87/87/87 81/81/81
f 87/87/87 80/80/80 75/75/75
f 86/86/86 88/88/88 85/85/85
f 85/85/85 88/88/88 87/87/87
f 88/88/88 86/86/86 89/89/89
f 77/77/77 80/80/80 90/90/90
f 78/78/78 77/77/77 90/90/90
f 80/80/80 87/87/87 91/91/91
f 80/80/80 91/91/91 90/90/90
f 91/91/91 87/87/87 88/88/88
f 91/91/91 78/78/78 90/90/90
f 88/88/88 89/89/89 92/92/92
f 91/91/91 88/88/88 92/92/92
f 92/92/92 89/89/89 93/93/93
f 93/93/93 91/91/91 92/92/92
f 91/91/91 93/93/93 78/78/78
f 93/93/93 94/94/94 78/78/78
f 93/93/93 95/95/95 94/94/94
