g ENV_Bumper_01
v 9.329926 -152.27994 58.25798
v 11.364761 -155.79195 60.053818
v 11.119125 -157.4882 56.96338
v 9.094238 -153.98616 55.160904
v 9.329926 -152.27994 58.25798
v 11.215378 -148.86752 56.193268
v 13.210388 -152.33969 57.995743
v 11.364761 -155.79195 60.053818
v 11.119125 -157.4882 56.96338
v 11.364761 -155.79195 60.053818
v 13.210388 -152.33969 57.995743
v 12.994629 -154.10234 54.94182
v 12.994629 -154.10234 54.94182
v 13.210388 -152.33969 57.995743
v 11.215378 -148.86752 56.193268
v 10.983017 -150.61357 53.116104
v 10.983017 -150.61357 53.116104
v 11.215378 -148.86752 56.193268
v 9.329926 -152.27994 58.25798
v 9.094238 -153.98616 55.160904
vt 0.004552 0.49785608
vt 0.49688882 0.49785608
vt 0.4997906 0.009388315
vt 0.004552 0.010355578
vt 0.53461206 0.9872911
vt 0.9766512 0.7493444
vt 0.5336448 0.5113978
vt 0.08773661 0.7454754
vt 0.4997906 0.009388315
vt 0.49688882 0.49785608
vt 0.99406195 0.49785608
vt 0.98632383 0.009388315
vt 0.004552 0.010355578
vt 0.004552 0.49785608
vt 0.49301976 0.49785608
vt 0.4949543 0.008421052
vt 0.4949543 0.008421052
vt 0.49301976 0.49785608
vt 0.99406195 0.49882334
vt 0.98632383 0.009388315
vn -0.88617206 -0.3731389 0.27471158
vn -0.88617206 -0.3731389 0.27471158
vn -0.88617206 -0.3731389 0.27471158
vn -0.88617206 -0.3731389 0.27471158
vn 0.068923295 0.4899844 0.8690022
vn 0.068923295 0.4899844 0.8690022
vn 0.068923295 0.4899844 0.8690022
vn 0.068923295 0.4899844 0.8690022
vn 0.90374744 -0.401438 0.14862074
vn 0.90374744 -0.401438 0.14862074
vn 0.90374744 -0.401438 0.14862074
vn 0.90374744 -0.401438 0.14862074
vn 0.8895979 0.36971307 -0.26819366
vn 0.8895979 0.36971307 -0.26819366
vn 0.8895979 0.36971307 -0.26819366
vn 0.8895979 0.36971307 -0.26819366
vn -0.9003216 0.405087 -0.15913995
vn -0.9003216 0.405087 -0.15913995
vn -0.9003216 0.405087 -0.15913995
vn -0.9003216 0.405087 -0.15913995
g ENV_Bumper_01_0
f 3/3/3 2/2/2 1/1/1
f 4/4/4 3/3/3 1/1/1
f 7/7/7 6/6/6 5/5/5
f 8/8/8 7/7/7 5/5/5
f 11/11/11 10/10/10 9/9/9
f 12/12/12 11/11/11 9/9/9
f 15/15/15 14/14/14 13/13/13
f 16/16/16 15/15/15 13/13/13
f 19/19/19 18/18/18 17/17/17
f 20/20/20 19/19/19 17/17/17
