g ENV_S09_Bgr_Pillar_Module_B
v -0.008535385 17.267426 -16.481783
v 6.1504345 17.428204 -14.86941
v -0.008260727 17.428204 -16.091747
v 6.2995434 17.267426 -15.229808
v 11.373007 17.428204 -11.383531
v -0.008649826 16.879269 -16.643341
v 11.648619 17.267426 -11.659495
v 14.863935 17.428204 -6.1648226
v 6.361307 16.879269 -15.379089
v 15.224207 17.267426 -6.314239
v 16.092102 17.428204 -0.008848193
v 6.361307 0.5489502 -15.379089
v -0.008649826 0.5489502 -16.643341
v -0.008535385 0.16079712 -16.481783
v 11.762781 16.879269 -11.773804
v 16.482134 17.267426 -0.009065332
v 14.870436 17.428204 6.1516128
v 11.762781 0.5489502 -11.773804
v 6.2995434 0.16079712 -15.229808
v 15.373434 16.879269 -6.376129
v 15.23086 17.267426 6.300682
v 11.384829 17.428204 11.372482
v 6.1504345 1.5258789E-05 -14.8694105
v -0.008260727 1.5258789E-05 -16.091747
v 11.373007 1.5258789E-05 -11.383531
v 15.373434 0.5489502 -6.376129
v 11.648619 0.16079712 -11.659495
v 15.224207 0.16079712 -6.314239
v 14.863935 1.5258789E-05 -6.1648226
v 16.092102 1.5258789E-05 -0.008848193
v 16.64369 0.5489502 -0.009155273
v 16.482134 0.16079712 -0.009065332
v 14.87044 1.5258789E-05 6.1516128
v 16.64369 16.879269 -0.009155273
v 15.23086 0.16079712 6.300682
v 11.384829 1.5258789E-05 11.372482
v 15.380152 0.5489502 6.3624287
v 15.380152 16.879269 6.3624287
v 11.660723 0.16079712 11.648168
v 6.165827 7.6293945E-06 14.865049
v 11.775003 0.5489502 11.76236
v 11.660723 17.267426 11.648168
v 6.165827 17.428196 14.865049
v 6.31534 0.16078949 15.225294
v 0.008451462 7.6293945E-06 16.091766
v 11.775003 16.879269 11.76236
v 6.31534 17.267418 15.225294
v 0.008451462 17.428196 16.091766
v 6.3772717 0.54894257 15.374512
v 0.008588791 0.16078949 16.481789
v -6.150408 7.6293945E-06 14.87166
v 6.3772717 16.879261 15.374512
v 0.008588791 17.267418 16.481789
v -6.150408 17.428196 14.87166
v 0.008646011 0.54894257 16.643341
v -6.2995167 0.16078949 15.232085
v -11.373087 1.5258789E-05 11.385752
v 0.008646011 16.879261 16.643341
v -6.2995167 17.267418 15.232085
v -11.373087 17.428204 11.385752
v -6.3612804 0.54894257 15.381378
v -11.648703 0.16079712 11.661743
v -14.863951 1.5258789E-05 6.1670732
v -6.3612804 16.879261 15.381378
v -11.648703 17.267426 11.661743
v -14.863951 17.428204 6.1670732
v -11.762865 0.5489502 11.776062
v -15.224222 0.16079712 6.3165164
v -16.092104 1.5258789E-05 0.008847552
v -11.762865 16.879269 11.776062
v -15.224222 17.267426 6.3165164
v -16.092104 17.428204 0.008847552
v -15.373449 0.5489502 6.378418
v -16.482134 0.16079712 0.009065144
v -14.870478 1.5258789E-05 -6.149272
v -15.373449 16.879269 6.378418
v -16.482134 17.267426 0.009065144
v -14.870478 17.428204 -6.149272
v -16.64369 0.5489502 0.009155273
v -15.230879 0.16079712 -6.2983766
v -11.384741 1.5258789E-05 -11.372558
v -16.64369 16.879269 0.009155273
v -15.230879 17.267426 -6.2983766
v -11.384741 17.428204 -11.372558
v -15.380163 0.5489502 -6.360138
v -11.6607 0.16079712 -11.64819
v -6.1660023 1.5258789E-05 -14.862711
v -15.380163 16.879269 -6.360138
v -11.6607 17.267426 -11.64819
v -6.1660023 17.428204 -14.862711
v -11.775007 0.5489502 -11.76236
v -6.315405 0.16079712 -15.22299
v -0.008260727 1.5258789E-05 -16.091747
v -0.008535385 0.16079712 -16.481783
v -0.008649826 0.5489502 -16.643341
v -6.377287 0.5489502 -15.372223
v -11.775007 16.879269 -11.76236
v -6.315405 17.267426 -15.22299
v -0.008260727 17.428204 -16.091747
v -0.008535385 17.267426 -16.481783
v -6.377287 16.879269 -15.372223
v -0.008649826 16.879269 -16.643341
v 5.722046E-06 17.4282 0.0005418109
v 11.373007 17.428204 -11.383531
v 14.863935 17.428204 -6.1648226
v 16.092102 17.428204 -0.008848193
v 6.1504345 17.428204 -14.86941
v 14.870436 17.428204 6.1516128
v -0.008260727 17.428204 -16.091747
v 11.384829 17.428204 11.372482
v -6.1660023 17.428204 -14.862711
v 6.165827 17.428196 14.865049
v -11.384741 17.428204 -11.372558
v 0.008451462 17.428196 16.091766
v -14.870478 17.428204 -6.149272
v -6.150408 17.428196 14.87166
v -16.092104 17.428204 0.008847552
v -11.373087 17.428204 11.385752
v -14.863951 17.428204 6.1670732
v 9.536743E-06 0 0.0005413636
v 11.373007 1.5258789E-05 -11.383531
v 6.1504345 1.5258789E-05 -14.8694105
v -0.008260727 1.5258789E-05 -16.091747
v 14.863935 1.5258789E-05 -6.1648226
v -6.1660023 1.5258789E-05 -14.862711
v 16.092102 1.5258789E-05 -0.008848193
v -11.384741 1.5258789E-05 -11.372558
v 14.87044 1.5258789E-05 6.1516128
v -14.870478 1.5258789E-05 -6.149272
v 11.384829 1.5258789E-05 11.372482
v -16.092104 1.5258789E-05 0.008847552
v 6.165827 7.6293945E-06 14.865049
v -14.863951 1.5258789E-05 6.1670732
v 0.008451462 7.6293945E-06 16.091766
v -11.373087 1.5258789E-05 11.385752
v -6.150408 7.6293945E-06 14.87166
vt 0.013713529 0.112675756
vt 0.014308081 0.11263743
vt 0.013713529 0.11263743
vt 0.014308081 0.112675756
vt 0.014906721 0.11263743
vt 0.013713529 0.11271474
vt 0.014906721 0.112675756
vt 0.015505974 0.11263743
vt 0.014308081 0.11271474
vt 0.015505974 0.112675756
vt 0.016105238 0.11263743
vt 0.0143080745 0.114227444
vt 0.013713529 0.114227444
vt 0.013713529 0.11426619
vt 0.014906721 0.11271474
vt 0.016105238 0.112675756
vt 0.01670482 0.11263743
vt 0.014906727 0.114227444
vt 0.014308081 0.11426613
vt 0.015505974 0.11271474
vt 0.01670482 0.112675756
vt 0.017304072 0.11263743
vt 0.0143080745 0.114304334
vt 0.013713529 0.114304334
vt 0.014906727 0.114304334
vt 0.015505974 0.114227444
vt 0.014906721 0.11426619
vt 0.015505974 0.11426613
vt 0.015505974 0.114304334
vt 0.016105238 0.114304334
vt 0.016105238 0.114227444
vt 0.016105238 0.11426619
vt 0.01670482 0.114304334
vt 0.016105238 0.11271474
vt 0.01670482 0.11426613
vt 0.017304072 0.114304334
vt 0.01670482 0.114227444
vt 0.01670482 0.11271474
vt 0.017304067 0.11426619
vt 0.017903557 0.114304334
vt 0.017304072 0.114227444
vt 0.017304072 0.112675756
vt 0.017903557 0.11263743
vt 0.017903557 0.11426613
vt 0.018502906 0.114304334
vt 0.017304072 0.11271474
vt 0.017903557 0.112675756
vt 0.018502912 0.11263743
vt 0.017903557 0.114227444
vt 0.018502906 0.11426613
vt 0.019102272 0.114304334
vt 0.017903557 0.11271474
vt 0.018502912 0.112675756
vt 0.019102272 0.11263743
vt 0.018502906 0.114227444
vt 0.019102277 0.11426619
vt 0.01970171 0.114304334
vt 0.018502906 0.11271474
vt 0.019102272 0.112675756
vt 0.019701716 0.11263737
vt 0.019102272 0.114227444
vt 0.019701716 0.11426613
vt 0.0203011 0.114304334
vt 0.019102272 0.11271474
vt 0.019701716 0.112675756
vt 0.0203011 0.11263743
vt 0.01970171 0.114227444
vt 0.0203011 0.11426619
vt 0.02090058 0.114304334
vt 0.019701716 0.11271468
vt 0.0203011 0.112675756
vt 0.02090058 0.11263737
vt 0.0203011 0.114227444
vt 0.02090058 0.11426613
vt 0.021499928 0.114304334
vt 0.0203011 0.11271474
vt 0.02090058 0.112675756
vt 0.021499928 0.11263743
vt 0.020900585 0.114227444
vt 0.021499922 0.11426613
vt 0.022099277 0.114304334
vt 0.02090058 0.11271474
vt 0.021499928 0.112675756
vt 0.022099271 0.11263743
vt 0.021499928 0.114227444
vt 0.022099264 0.11426613
vt 0.022698 0.114304334
vt 0.021499928 0.11271474
vt 0.022099271 0.112675756
vt 0.022698 0.11263743
vt 0.022099277 0.114227444
vt 0.022697994 0.11426619
vt 0.023292597 0.114304334
vt 0.023292594 0.11426619
vt 0.023292597 0.114227444
vt 0.022698 0.114227444
vt 0.022099271 0.11271474
vt 0.022698 0.112675756
vt 0.023292594 0.11263743
vt 0.023292594 0.112675756
vt 0.022698 0.11271474
vt 0.023292594 0.11271474
vt 0.010853982 0.10923448
vt 0.01056378 0.11069372
vt 0.011144297 0.11069372
vt 0.011680515 0.110471636
vt 0.010027414 0.11047158
vt 0.012091138 0.11006102
vt 0.009616872 0.11006108
vt 0.012313169 0.10952476
vt 0.00939477 0.1095247
vt 0.012313276 0.10894415
vt 0.009394704 0.10894421
vt 0.012091008 0.108407885
vt 0.009616919 0.108407825
vt 0.011680634 0.10799733
vt 0.010027358 0.10799739
vt 0.01114426 0.10777518
vt 0.01056375 0.10777518
vt 0.011469561 0.112615496
vt 0.012296153 0.11385259
vt 0.012706658 0.11344203
vt 0.012928843 0.11290571
vt 0.01175984 0.11407474
vt 0.012928742 0.11232516
vt 0.011179453 0.1140748
vt 0.01270664 0.11178884
vt 0.010642955 0.11385265
vt 0.012296057 0.11137834
vt 0.010232581 0.11344221
vt 0.011759768 0.111156255
vt 0.010010267 0.11290583
vt 0.011179173 0.111156255
vt 0.010010367 0.11232534
vt 0.010642862 0.11137846
vt 0.010232355 0.11178896
vn -0.0003958276 0.6811784 -0.7321174
vn 0.009272308 0.99970573 -0.022414478
vn -1.2730363E-05 0.9997056 -0.024260093
vn 0.27985793 0.68118507 -0.67651045
vn 0.01714412 0.99970573 -0.017161041
vn -0.00053917896 0.009167776 -0.9999578
vn 0.51742035 0.6811841 -0.5179424
vn 0.022405062 0.99970573 -0.009295103
vn 0.382242 0.009167695 -0.9240168
vn 0.6762269 0.68118197 -0.28055
vn 0.024257068 0.99970573 -1.2222897E-05
vn 0.38224202 -0.009167711 -0.9240167
vn -0.0005391769 -0.009167821 -0.9999578
vn -0.00039577935 -0.68117946 -0.7321164
vn 0.70671713 0.009167786 -0.70743686
vn 0.7321097 0.6811865 -0.0003856579
vn 0.022417849 0.9997056 0.009272322
vn 0.7067171 -0.0091677755 -0.7074369
vn 0.27985787 -0.68118405 -0.6765115
vn 0.9236232 0.009167754 -0.383192
vn 0.67653763 0.6811764 0.27981323
vn 0.017158289 0.99970585 0.017141158
vn 0.00927296 -0.99970573 -0.022416353
vn -1.2731189E-05 -0.9997056 -0.024262076
vn 0.017145276 -0.9997056 -0.01716257
vn 0.9236232 -0.009167742 -0.38319203
vn 0.51741916 -0.6811821 -0.51794624
vn 0.6762258 -0.68118113 -0.28055468
vn 0.022406565 -0.99970573 -0.009296305
vn 0.02425876 -0.99970573 -1.2860867E-05
vn 0.9999579 -0.00916777 -0.00052731216
vn 0.73211014 -0.68118614 -0.0003861939
vn 0.022419484 -0.9997056 0.009273194
vn 0.9999579 0.00916778 -0.0005273087
vn 0.6765363 -0.68117565 0.27981845
vn 0.017160377 -0.99970573 0.017141879
vn 0.92404133 -0.009167664 0.3821826
vn 0.92404145 0.009167692 0.38218245
vn 0.5179337 -0.681197 0.51741195
vn 0.009297148 -0.9997056 0.022411587
vn 0.707438 -0.009167951 0.70671594
vn 0.51793575 0.6811992 0.5174071
vn 0.009295715 0.9997056 0.022411121
vn 0.2805258 -0.6811719 0.6762471
vn 1.35154405E-05 -0.99970585 0.024253255
vn 0.70743823 0.009167987 0.70671576
vn 0.28052524 0.68117154 0.67624766
vn 1.3515441E-05 0.99970585 0.024252376
vn 0.38314974 -0.009167671 0.9236408
vn 0.00039443377 -0.6811957 0.7321013
vn -0.0092703905 -0.9997056 0.022420038
vn 0.38314986 0.009167624 0.9236408
vn 0.00039365437 0.6811953 0.7321016
vn -0.009268968 0.9997056 0.02242003
vn 0.0005388305 -0.009167834 0.9999578
vn -0.27973986 -0.68119425 0.67655015
vn -0.017144965 -0.99970573 0.01716061
vn 0.00053879945 0.009167807 0.9999578
vn -0.27973998 0.6811932 0.6765511
vn -0.017142864 0.99970573 0.017160175
vn -0.38208845 -0.009168131 0.9240803
vn -0.51740724 -0.68119836 0.51793677
vn -0.02240751 -0.99970573 0.009294071
vn -0.38208866 0.009168136 0.9240802
vn -0.5174074 0.6811976 0.51793766
vn -0.022405986 0.99970573 0.009293969
vn -0.7067153 -0.009168129 0.7074386
vn -0.6762415 -0.6811871 0.28050217
vn -0.024258664 -0.99970573 1.25126135E-05
vn -0.70671546 0.009168149 0.70743847
vn -0.676243 0.6811866 0.28049996
vn -0.024257027 0.99970573 1.3201642E-05
vn -0.92365146 -0.009167899 0.38312382
vn -0.7321099 -0.68118644 0.00038484746
vn -0.022416651 -0.99970573 -0.009271528
vn -0.9236516 0.009167892 0.38312373
vn -0.7321103 0.6811859 0.00038483972
vn -0.022415107 0.99970573 -0.0092705125
vn -0.9999579 -0.009167988 0.0005271027
vn -0.676526 -0.6811882 -0.27981287
vn -0.017163813 -0.9997056 -0.017146654
vn -0.9999579 0.009167975 0.0005270685
vn -0.6765269 0.6811883 -0.27981058
vn -0.017162666 0.9997056 -0.017145103
vn -0.92404145 -0.0091679795 -0.38218248
vn -0.5179492 -0.68117726 -0.5174226
vn -0.009294435 -0.99970573 -0.022404868
vn -0.92404145 0.009167985 -0.38218245
vn -0.51795006 0.6811785 -0.51742005
vn -0.00929379 0.99970573 -0.022403127
vn -0.70743847 -0.009167678 -0.7067154
vn -0.28051606 -0.68119496 -0.6762279
vn -1.2731189E-05 -0.9997056 -0.024262076
vn -0.00039577935 -0.68117946 -0.7321164
vn -0.0005391769 -0.009167821 -0.9999578
vn -0.3831493 -0.009167966 -0.92364097
vn -0.70743847 0.00916767 -0.7067154
vn -0.28051528 0.6811939 -0.67622924
vn -1.2730363E-05 0.9997056 -0.024260093
vn -0.0003958276 0.6811784 -0.7321174
vn -0.3831492 0.009167914 -0.92364097
vn -0.00053917896 0.009167776 -0.9999578
vn -0 1 0
vn 0.01714412 0.99970573 -0.017161041
vn 0.022405062 0.99970573 -0.009295103
vn 0.024257068 0.99970573 -1.2222897E-05
vn 0.009272308 0.99970573 -0.022414478
vn 0.022417849 0.9997056 0.009272322
vn -1.2730363E-05 0.9997056 -0.024260093
vn 0.017158289 0.99970585 0.017141158
vn -0.00929379 0.99970573 -0.022403127
vn 0.009295715 0.9997056 0.022411121
vn -0.017162666 0.9997056 -0.017145103
vn 1.3515441E-05 0.99970585 0.024252376
vn -0.022415107 0.99970573 -0.0092705125
vn -0.009268968 0.9997056 0.02242003
vn -0.024257027 0.99970573 1.3201642E-05
vn -0.017142864 0.99970573 0.017160175
vn -0.022405986 0.99970573 0.009293969
vn -0 -1 0
vn 0.017145276 -0.9997056 -0.01716257
vn 0.00927296 -0.99970573 -0.022416353
vn -1.2731189E-05 -0.9997056 -0.024262076
vn 0.022406565 -0.99970573 -0.009296305
vn -0.009294435 -0.99970573 -0.022404868
vn 0.02425876 -0.99970573 -1.2860867E-05
vn -0.017163813 -0.9997056 -0.017146654
vn 0.022419484 -0.9997056 0.009273194
vn -0.022416651 -0.99970573 -0.009271528
vn 0.017160377 -0.99970573 0.017141879
vn -0.024258664 -0.99970573 1.25126135E-05
vn 0.009297148 -0.9997056 0.022411587
vn -0.02240751 -0.99970573 0.009294071
vn 1.35154405E-05 -0.99970585 0.024253255
vn -0.017144965 -0.99970573 0.01716061
vn -0.0092703905 -0.9997056 0.022420038
g ENV_S09_Bgr_Pillar_Module_B_0
f 3/3/3 2/2/2 1/1/1
f 2/2/2 4/4/4 1/1/1
f 2/2/2 5/5/5 4/4/4
f 1/1/1 4/4/4 6/6/6
f 5/5/5 7/7/7 4/4/4
f 5/5/5 8/8/8 7/7/7
f 4/4/4 9/9/9 6/6/6
f 4/4/4 7/7/7 9/9/9
f 8/8/8 10/10/10 7/7/7
f 8/8/8 11/11/11 10/10/10
f 6/6/6 9/9/9 12/12/12
f 13/13/13 6/6/6 12/12/12
f 14/14/14 13/13/13 12/12/12
f 7/7/7 15/15/15 9/9/9
f 7/7/7 10/10/10 15/15/15
f 11/11/11 16/16/16 10/10/10
f 11/11/11 17/17/17 16/16/16
f 12/12/12 9/9/9 18/18/18
f 9/9/9 15/15/15 18/18/18
f 19/19/19 14/14/14 12/12/12
f 19/19/19 12/12/12 18/18/18
f 10/10/10 20/20/20 15/15/15
f 10/10/10 16/16/16 20/20/20
f 17/17/17 21/21/21 16/16/16
f 17/17/17 22/22/22 21/21/21
f 19/19/19 23/23/23 14/14/14
f 23/23/23 24/24/24 14/14/14
f 25/25/25 23/23/23 19/19/19
f 18/18/18 15/15/15 26/26/26
f 15/15/15 20/20/20 26/26/26
f 27/27/27 19/19/19 18/18/18
f 27/27/27 25/25/25 19/19/19
f 27/27/27 18/18/18 26/26/26
f 25/25/25 27/27/27 28/28/28
f 28/28/28 27/27/27 26/26/26
f 29/29/29 25/25/25 28/28/28
f 30/30/30 29/29/29 28/28/28
f 26/26/26 20/20/20 31/31/31
f 28/28/28 26/26/26 31/31/31
f 32/32/32 30/30/30 28/28/28
f 32/32/32 28/28/28 31/31/31
f 33/33/33 30/30/30 32/32/32
f 20/20/20 34/34/34 31/31/31
f 16/16/16 34/34/34 20/20/20
f 16/16/16 21/21/21 34/34/34
f 35/35/35 33/33/33 32/32/32
f 36/36/36 33/33/33 35/35/35
f 32/32/32 31/31/31 37/37/37
f 31/31/31 34/34/34 37/37/37
f 35/35/35 32/32/32 37/37/37
f 21/21/21 38/38/38 34/34/34
f 34/34/34 38/38/38 37/37/37
f 39/39/39 36/36/36 35/35/35
f 40/40/40 36/36/36 39/39/39
f 35/35/35 37/37/37 41/41/41
f 37/37/37 38/38/38 41/41/41
f 39/39/39 35/35/35 41/41/41
f 21/21/21 42/42/42 38/38/38
f 22/22/22 42/42/42 21/21/21
f 22/22/22 43/43/43 42/42/42
f 44/44/44 40/40/40 39/39/39
f 45/45/45 40/40/40 44/44/44
f 38/38/38 46/46/46 41/41/41
f 42/42/42 46/46/46 38/38/38
f 43/43/43 47/47/47 42/42/42
f 42/42/42 47/47/47 46/46/46
f 43/43/43 48/48/48 47/47/47
f 39/39/39 41/41/41 49/49/49
f 41/41/41 46/46/46 49/49/49
f 44/44/44 39/39/39 49/49/49
f 50/50/50 45/45/45 44/44/44
f 51/51/51 45/45/45 50/50/50
f 47/47/47 52/52/52 46/46/46
f 46/46/46 52/52/52 49/49/49
f 48/48/48 53/53/53 47/47/47
f 47/47/47 53/53/53 52/52/52
f 48/48/48 54/54/54 53/53/53
f 44/44/44 49/49/49 55/55/55
f 49/49/49 52/52/52 55/55/55
f 50/50/50 44/44/44 55/55/55
f 56/56/56 51/51/51 50/50/50
f 57/57/57 51/51/51 56/56/56
f 53/53/53 58/58/58 52/52/52
f 52/52/52 58/58/58 55/55/55
f 54/54/54 59/59/59 53/53/53
f 53/53/53 59/59/59 58/58/58
f 54/54/54 60/60/60 59/59/59
f 50/50/50 55/55/55 61/61/61
f 55/55/55 58/58/58 61/61/61
f 56/56/56 50/50/50 61/61/61
f 62/62/62 57/57/57 56/56/56
f 63/63/63 57/57/57 62/62/62
f 59/59/59 64/64/64 58/58/58
f 58/58/58 64/64/64 61/61/61
f 60/60/60 65/65/65 59/59/59
f 59/59/59 65/65/65 64/64/64
f 60/60/60 66/66/66 65/65/65
f 56/56/56 61/61/61 67/67/67
f 61/61/61 64/64/64 67/67/67
f 62/62/62 56/56/56 67/67/67
f 68/68/68 63/63/63 62/62/62
f 69/69/69 63/63/63 68/68/68
f 65/65/65 70/70/70 64/64/64
f 64/64/64 70/70/70 67/67/67
f 66/66/66 71/71/71 65/65/65
f 65/65/65 71/71/71 70/70/70
f 66/66/66 72/72/72 71/71/71
f 62/62/62 67/67/67 73/73/73
f 67/67/67 70/70/70 73/73/73
f 68/68/68 62/62/62 73/73/73
f 74/74/74 69/69/69 68/68/68
f 75/75/75 69/69/69 74/74/74
f 71/71/71 76/76/76 70/70/70
f 70/70/70 76/76/76 73/73/73
f 72/72/72 77/77/77 71/71/71
f 71/71/71 77/77/77 76/76/76
f 72/72/72 78/78/78 77/77/77
f 68/68/68 73/73/73 79/79/79
f 73/73/73 76/76/76 79/79/79
f 74/74/74 68/68/68 79/79/79
f 80/80/80 75/75/75 74/74/74
f 81/81/81 75/75/75 80/80/80
f 77/77/77 82/82/82 76/76/76
f 76/76/76 82/82/82 79/79/79
f 78/78/78 83/83/83 77/77/77
f 77/77/77 83/83/83 82/82/82
f 78/78/78 84/84/84 83/83/83
f 74/74/74 79/79/79 85/85/85
f 79/79/79 82/82/82 85/85/85
f 80/80/80 74/74/74 85/85/85
f 86/86/86 81/81/81 80/80/80
f 87/87/87 81/81/81 86/86/86
f 83/83/83 88/88/88 82/82/82
f 82/82/82 88/88/88 85/85/85
f 84/84/84 89/89/89 83/83/83
f 83/83/83 89/89/89 88/88/88
f 84/84/84 90/90/90 89/89/89
f 80/80/80 85/85/85 91/91/91
f 85/85/85 88/88/88 91/91/91
f 86/86/86 80/80/80 91/91/91
f 92/92/92 87/87/87 86/86/86
f 93/93/93 87/87/87 92/92/92
f 94/94/94 93/93/93 92/92/92
f 94/94/94 92/92/92 95/95/95
f 92/92/92 86/86/86 96/96/96
f 86/86/86 91/91/91 96/96/96
f 92/92/92 96/96/96 95/95/95
f 88/88/88 97/97/97 91/91/91
f 89/89/89 97/97/97 88/88/88
f 91/91/91 97/97/97 96/96/96
f 90/90/90 98/98/98 89/89/89
f 89/89/89 98/98/98 97/97/97
f 90/90/90 99/99/99 98/98/98
f 99/99/99 100/100/100 98/98/98
f 96/96/96 101/101/101 95/95/95
f 97/97/97 101/101/101 96/96/96
f 98/98/98 101/101/101 97/97/97
f 98/98/98 100/100/100 101/101/101
f 101/101/101 102/102/102 95/95/95
f 100/100/100 102/102/102 101/101/101
f 105/105/105 104/104/104 103/103/103
f 105/105/105 103/103/103 106/106/106
f 104/104/104 107/107/107 103/103/103
f 108/108/108 106/106/106 103/103/103
f 107/107/107 109/109/109 103/103/103
f 110/110/110 108/108/108 103/103/103
f 109/109/109 111/111/111 103/103/103
f 112/112/112 110/110/110 103/103/103
f 111/111/111 113/113/113 103/103/103
f 114/114/114 112/112/112 103/103/103
f 113/113/113 115/115/115 103/103/103
f 116/116/116 114/114/114 103/103/103
f 115/115/115 117/117/117 103/103/103
f 118/118/118 116/116/116 103/103/103
f 119/119/119 103/103/103 117/117/117
f 119/119/119 118/118/118 103/103/103
f 122/122/122 121/121/121 120/120/120
f 123/123/123 122/122/122 120/120/120
f 121/121/121 124/124/124 120/120/120
f 125/125/125 123/123/123 120/120/120
f 126/126/126 120/120/120 124/124/124
f 127/127/127 125/125/125 120/120/120
f 126/126/126 128/128/128 120/120/120
f 129/129/129 127/127/127 120/120/120
f 128/128/128 130/130/130 120/120/120
f 131/131/131 129/129/129 120/120/120
f 130/130/130 132/132/132 120/120/120
f 131/131/131 120/120/120 133/133/133
f 132/132/132 134/134/134 120/120/120
f 135/135/135 133/133/133 120/120/120
f 134/134/134 136/136/136 120/120/120
f 136/136/136 135/135/135 120/120/120
