g ENV_S04_BasketFall_Floor_Ramp1_MO
v 0.85528564 0.28551102 21.577229
v 0.786953 0.24564743 21.475674
v 0.8220711 0.28456116 21.451946
v 0.786953 0.1981926 21.35609
v 0.89040375 0.31967545 21.539265
v 0.93880844 0.3035431 21.623734
v 0.8220711 0.24280167 21.34755
v 0.85528564 0.15738297 21.25549
v 0.89040375 0.20768356 21.259285
v 0.93880844 0.13935089 21.208984
v 0.97297287 0.33581161 21.580074
v 13.994385 0.3035431 21.623734
v 0.97297287 0.19250107 21.219421
v 13.994385 0.13935089 21.208984
v 13.960218 0.33581161 21.580074
v 13.960218 0.19250107 21.219421
v 14.043737 0.20768356 21.259285
v 14.077906 0.15738297 21.25549
v 14.043737 0.31967545 21.539265
v 14.077906 0.28551102 21.577229
v 14.111122 0.24280167 21.34755
v 14.146238 0.1981926 21.35609
v 14.111122 0.28456116 21.451946
v 14.146238 0.24564743 21.475674
v 15.627756 0.28551102 21.577229
v 15.559423 0.24564743 21.475674
v 15.59454 0.28456116 21.451946
v 15.559423 0.1981926 21.35609
v 15.661924 0.31967545 21.539265
v 15.711275 0.3035431 21.623734
v 15.59454 0.24280167 21.34755
v 15.627756 0.15738297 21.25549
v 15.661924 0.20768356 21.259285
v 15.711275 0.13935089 21.208984
v 15.745443 0.33581161 21.580074
v 31.889336 0.3035431 21.623734
v 15.745443 0.19250107 21.219421
v 31.889336 0.13935089 21.208984
v 31.854221 0.33581161 21.580074
v 31.854221 0.19250107 21.219421
v 31.93774 0.20768356 21.259285
v 31.972857 0.15738297 21.25549
v 31.93774 0.31967545 21.539265
v 31.972857 0.28551102 21.577229
v 32.006073 0.24280167 21.34755
v 32.04119 0.1981926 21.35609
v 32.006073 0.28456116 21.451946
v 32.04119 0.24564743 21.475674
v 32.923836 -0.29248047 20.74583
v 32.922886 -0.97297287 20.74678
v 32.964645 -0.9198265 20.886295
v 32.966545 -0.2393341 20.884396
v 32.883026 -0.14632416 20.770508
v 31.946281 2.155201 29.028473
v 32.92763 -0.096019745 20.900532
v 32.76819 -0.02294159 20.848331
v 31.848526 2.9002304 29.027523
v 31.889336 2.1950645 29.132874
v 31.79158 2.8907394 29.131924
v 31.809614 3.0463905 29.030373
v 31.75172 3.0350037 29.13667
v 32.811844 0.028308868 20.978355
v 31.706163 3.1507912 29.027523
v 31.645422 3.1365547 29.139515
v 32.56888 0.06342316 20.982151
v 31.5638 3.190651 29.030373
v 32.634365 -0.044769287 20.792336
v 32.747307 -0.16815186 20.714512
v 32.883026 -0.14632416 20.770508
v 32.790966 -0.31525803 20.686039
v 32.923836 -0.29248047 20.74583
v 32.922886 -0.97297287 20.74678
v 32.789066 -0.9948025 20.686989
v 23.790815 -0.28583908 20.686989
v 23.790815 -0.9948025 20.686989
v 23.790815 -0.15296555 20.713562
v 23.790815 -0.040973663 20.78949
v 15.047867 -0.28583908 20.686989
v 15.047867 -0.9948025 20.686989
v 15.047867 -0.15296555 20.713562
v 14.901709 -0.35417175 20.79898
v 14.901709 -0.95209503 20.799927
v 14.901709 -0.22319794 20.825554
v 15.047867 -0.040973663 20.78949
v 14.901709 -0.113105774 20.901482
v 15.047867 0.03305435 20.903378
v 14.901709 -0.040973663 21.01442
v 14.901709 3.0653725 28.94875
v 23.790815 0.03305435 20.903378
v 15.047867 3.1916008 29.033218
v 14.902658 3.0378494 29.066437
v 23.790815 3.1925507 29.034168
v 15.048817 3.1659737 29.149956
v 31.496416 3.1707191 29.14616
v 15.049765 3.0853043 29.230629
v 14.905504 2.9609718 29.14521
v 23.790815 3.1669235 29.150906
v 15.049765 2.2311287 29.22968
v 14.905504 2.1988602 29.14521
v 23.790815 3.0853043 29.231579
v 23.790815 2.2311287 29.230629
v 31.38917 3.0853043 29.231579
v 31.529634 3.0463905 29.230629
v 31.632135 2.9429398 29.230629
v 31.75172 3.0350037 29.13667
v 31.79158 2.8907394 29.131924
v 31.671047 2.801529 29.22778
v 31.768803 2.2301788 29.22778
v 31.889336 2.1950645 29.132874
v 14.905504 2.9609718 29.14521
v 14.905504 2.1988602 29.14521
v 14.760296 2.2311287 29.22968
v 14.760296 3.0853043 29.230629
v 14.902658 3.0378494 29.066437
v 7.5814342 3.0853043 29.231579
v 7.529236 2.2311287 29.22968
v 14.757448 3.1659737 29.149956
v 14.75555 3.1916008 29.033218
v 14.901709 3.0653725 28.94875
v 7.538727 3.1688232 29.14806
v 0.3095665 3.0853043 29.231579
v 14.75555 0.03305435 20.903378
v 14.901709 -0.040973663 21.01442
v 14.901709 -0.113105774 20.901482
v 14.75555 -0.040973663 20.78949
v 14.901709 -0.22319794 20.825554
v 7.612755 0.032104492 20.902428
v 7.5149994 3.190651 29.031322
v 0.26495743 0.059627533 20.97266
v 0.22604752 3.1707191 29.14711
v 7.536829 -0.042873383 20.790436
v 14.75555 -0.15296555 20.713562
v 14.75555 -0.28583908 20.686989
v 14.901709 -0.35417175 20.79898
v 7.4884243 -0.15866089 20.713562
v 14.75555 -0.9948025 20.686989
v 14.901709 -0.95209503 20.799927
v 7.471342 -0.2962761 20.686989
v 7.471342 -0.9948025 20.686989
v 0.22604752 -0.043823242 20.790436
v 0.12829208 -0.16340637 20.713562
v 0.0950737 -0.30576706 20.686989
v 0.0950737 -0.9948025 20.686989
v -0.0406456 -0.9748726 20.741085
v -0.04159546 -0.28583908 20.740135
v -0.0064811707 -0.14347458 20.764812
v 0.09222412 -0.023891449 20.841686
v 0.03622818 0.024513245 20.966019
v -0.06247711 -0.0950737 20.89009
v -0.0064811707 -0.14347458 20.764812
v -0.0975914 -0.23648453 20.867313
v -0.04159546 -0.28583908 20.740135
v -0.09664154 -0.9264679 20.87016
v -0.0406456 -0.9748726 20.741085
v -0.09284592 2.154255 29.026577
v -0.09284592 2.9154167 29.023727
v -0.049186707 2.1960144 29.137619
v -0.052036285 2.9040298 29.13572
v -0.05583191 3.0549316 29.031322
v -0.013122559 3.0387993 29.141415
v 0.043823242 3.153637 29.029423
v 0.17954254 3.190651 29.031322
v 0.08652878 3.1375046 29.143314
v 0.07609177 2.9514809 29.231579
v -0.052036285 2.9040298 29.13572
v 0.17479706 3.0492363 29.231579
v 0.040023804 2.8176613 29.22873
v -0.049186707 2.1960144 29.137619
v 0.040023804 2.2311287 29.22873
vt 0.10607311 0.0779573
vt 0.10411155 0.08122659
vt 0.10607311 0.08122659
vt 0.10411155 0.085149735
vt 0.10803467 0.078611165
vt 0.109342396 0.07599574
vt 0.10607311 0.08449587
vt 0.10607311 0.08841899
vt 0.10803467 0.087111294
vt 0.10868853 0.09038058
vt 0.10999623 0.07730344
vt 0.56965685 0.07599574
vt 0.10999623 0.08841899
vt 0.56965685 0.09038058
vt 0.569003 0.07730344
vt 0.569003 0.08841899
vt 0.5709646 0.087111294
vt 0.57227224 0.08841899
vt 0.5709646 0.078611165
vt 0.57227224 0.0779573
vt 0.5729261 0.08449587
vt 0.5748877 0.085149735
vt 0.5729261 0.08122659
vt 0.5748877 0.08122659
vt 0.10607311 0.052456945
vt 0.10411155 0.0557262
vt 0.10607311 0.056380063
vt 0.10411155 0.05964935
vt 0.10803467 0.05311078
vt 0.109342396 0.050495356
vt 0.10607311 0.058995485
vt 0.10607311 0.06291863
vt 0.10803467 0.06226477
vt 0.10868853 0.06488019
vt 0.10999623 0.052456945
vt 0.56965685 0.050495356
vt 0.10999623 0.06291863
vt 0.56965685 0.06488019
vt 0.569003 0.052456945
vt 0.569003 0.06291863
vt 0.5709646 0.06226477
vt 0.57227224 0.06291863
vt 0.5709646 0.05311078
vt 0.57227224 0.052456945
vt 0.5729261 0.058995485
vt 0.5748877 0.05964935
vt 0.5729261 0.056380063
vt 0.5748877 0.0557262
vt 0.58731097 0.3231532
vt 0.60038805 0.3264225
vt 0.6010419 0.32380706
vt 0.58731097 0.32119167
vt 0.58404166 0.32249933
vt 0.63635015 0.2080746
vt 0.58404166 0.3205378
vt 0.58142626 0.32119167
vt 0.5670414 0.19434363
vt 0.63635015 0.2067669
vt 0.56769526 0.19303593
vt 0.564426 0.19368976
vt 0.564426 0.19238207
vt 0.5820801 0.31857622
vt 0.56181055 0.19368976
vt 0.5611567 0.1917282
vt 0.57815695 0.31857622
vt 0.559849 0.19303593
vt 0.5788108 0.32184553
vt 0.5807724 0.32380706
vt 0.5827339 0.3231532
vt 0.58142626 0.3264225
vt 0.5833878 0.32576865
vt 0.58404166 0.3394996
vt 0.5820801 0.3394996
vt 0.44803965 0.3290379
vt 0.4486935 0.3427689
vt 0.44803965 0.3264225
vt 0.44803965 0.32446092
vt 0.3205378 0.33034563
vt 0.31988394 0.34473044
vt 0.3205378 0.32838404
vt 0.3172685 0.3309995
vt 0.3172685 0.34407663
vt 0.31792235 0.32838404
vt 0.3205378 0.3264225
vt 0.31792235 0.3264225
vt 0.3205378 0.32446092
vt 0.31792235 0.32380706
vt 0.31923008 0.19499749
vt 0.44803965 0.32249933
vt 0.32184553 0.19368976
vt 0.31923008 0.1917282
vt 0.44607812 0.1917282
vt 0.32184553 0.1917282
vt 0.55919516 0.1917282
vt 0.32184553 0.19042051
vt 0.31923008 0.18911278
vt 0.44607812 0.19042051
vt 0.3205378 0.11522707
vt 0.3172685 0.11522707
vt 0.44607812 0.18845892
vt 0.4473858 0.11588094
vt 0.5572336 0.19042051
vt 0.559849 0.18976665
vt 0.5611567 0.18780509
vt 0.5631183 0.18976665
vt 0.56377214 0.18715122
vt 0.56181055 0.1858435
vt 0.564426 0.11718866
vt 0.5670414 0.11718866
vt 0.31923008 0.18911278
vt 0.3172685 0.11522707
vt 0.31399924 0.11522707
vt 0.3172685 0.19042051
vt 0.31923008 0.1917282
vt 0.21592087 0.19107434
vt 0.21069002 0.11915022
vt 0.3172685 0.1917282
vt 0.3172685 0.19368976
vt 0.31923008 0.19499749
vt 0.21592087 0.19303593
vt 0.11391938 0.19238207
vt 0.31530696 0.32446092
vt 0.31792235 0.32380706
vt 0.31792235 0.3264225
vt 0.3146531 0.3264225
vt 0.31792235 0.32838404
vt 0.21069002 0.3231532
vt 0.21526703 0.19434363
vt 0.10084227 0.3166147
vt 0.11261165 0.19368976
vt 0.20938233 0.3251148
vt 0.3146531 0.32838404
vt 0.3146531 0.33034563
vt 0.3172685 0.3309995
vt 0.2080746 0.32707638
vt 0.3146531 0.34473044
vt 0.3172685 0.34407663
vt 0.2080746 0.3290379
vt 0.2067669 0.34146118
vt 0.100188404 0.31988394
vt 0.09888068 0.32184553
vt 0.098226845 0.32380706
vt 0.09757298 0.33753806
vt 0.09561142 0.3368842
vt 0.09626526 0.3231532
vt 0.09691912 0.32119167
vt 0.098226845 0.31923008
vt 0.09757298 0.3166147
vt 0.09495756 0.31857622
vt 0.09495756 0.3205378
vt 0.092996 0.31923008
vt 0.092996 0.32119167
vt 0.078611165 0.32249933
vt 0.078611165 0.32446092
vt 0.038725972 0.20938233
vt 0.106726974 0.19565135
vt 0.038725972 0.20742074
vt 0.106726974 0.19368976
vt 0.10868853 0.19499749
vt 0.10868853 0.19303593
vt 0.11065009 0.19499749
vt 0.11261165 0.19499749
vt 0.11065009 0.19368976
vt 0.10999623 0.19107434
vt 0.10803467 0.19107434
vt 0.11195782 0.19238207
vt 0.109342396 0.18976665
vt 0.100188404 0.124381065
vt 0.10280383 0.12307337
vn -0.5466015 0.8045643 0.23217042
vn -0.73392683 0.67922866 -0
vn -0.32772392 0.9140031 -0.23915565
vn -0.7342108 0.51533324 -0.44200245
vn -0.13229758 0.9609054 -0.2432246
vn -0.0072246194 0.8123813 0.5830818
vn -0.32772392 0.83583254 -0.44043273
vn -0.5466015 0.4137115 -0.7280588
vn -0.13229758 0.85928375 -0.4940939
vn -0.0072246194 0.1870169 -0.9823301
vn 0.00059241056 0.97653955 -0.21533729
vn 0.0084094405 0.8123813 0.5830659
vn 0.00059241056 0.8671008 -0.49813238
vn 0.0084094405 0.1870169 -0.9823207
vn 0.00059241056 0.97653955 -0.21533729
vn 0.00059241056 0.8671008 -0.49813238
vn 0.13348234 0.85928375 -0.49377513
vn 0.5399692 0.4137115 -0.7329912
vn 0.13348234 0.9609054 -0.2425764
vn 0.5399692 0.8045643 0.24720344
vn 0.32890874 0.83583254 -0.43954867
vn 0.7353956 0.51533324 -0.44002834
vn 0.32890874 0.9140031 -0.23752362
vn 0.7344725 0.6786385 -0
vn -0.5466015 0.8045643 0.23217042
vn -0.73392683 0.67922866 -0
vn -0.32772392 0.9140031 -0.23915565
vn -0.7342108 0.51533324 -0.44200245
vn -0.13229758 0.9609054 -0.2432246
vn -0.0072246194 0.8123813 0.5830818
vn -0.32772392 0.83583254 -0.44043273
vn -0.5466015 0.4137115 -0.7280588
vn -0.13229758 0.85928375 -0.4940939
vn -0.0072246194 0.1870169 -0.9823301
vn 0.00059241056 0.97653955 -0.21533729
vn 0.00059241056 0.8123813 0.58312625
vn 0.00059241056 0.8671008 -0.49813238
vn 0.00059241056 0.1870169 -0.9823565
vn 0.00059241056 0.97653955 -0.21533729
vn 0.00059241056 0.8671008 -0.49813238
vn 0.13348234 0.85928375 -0.49377513
vn 0.5399692 0.4137115 -0.7329912
vn 0.13348234 0.9609054 -0.2425764
vn 0.5399692 0.8045643 0.24720344
vn 0.32890874 0.83583254 -0.43954867
vn 0.7353956 0.51533324 -0.44002834
vn 0.32890874 0.9140031 -0.23752362
vn 0.7344725 0.6786385 -0
vn 0.7666638 0.04630989 -0.64037645
vn 0.69631034 -0.00059241056 -0.7177406
vn 0.99335843 0.061944067 0.096963696
vn 0.99335843 0.08539516 0.077114806
vn 0.5399692 0.49969918 -0.677299
vn 0.99335843 0.0697611 0.0915009
vn 0.9141285 0.4054246 -0
vn 0.24292111 0.8045643 -0.5419092
vn 0.9855414 0.1166634 0.12287315
vn 0.78229797 0.10884637 0.61332077
vn 0.75102973 0.124480546 0.648428
vn 0.82138324 0.56223565 -0.09602427
vn 0.61813974 0.37462622 0.691056
vn 0.4696157 0.84364957 -0.2602239
vn 0.3523599 0.89055187 -0.28768024
vn 0.37581104 0.67167443 0.63845086
vn 0.0084094405 0.92963725 -0.36838004
vn 0.00059241056 0.9374543 -0.3481079
vn 0.00059241056 0.6951255 -0.71888816
vn 0.0084094405 0.3199069 -0.9474117
vn 0.5399692 0.49969918 -0.677299
vn 0.0084094405 0.022858799 -0.99970335
vn 0.7666638 0.04630989 -0.64037645
vn 0.69631034 -0.00059241056 -0.7177406
vn 0.0084094405 -0.00059241056 -0.9999645
vn 0.00059241056 0.030675828 -0.99952924
vn 0.00059241056 -0.00059241056 -0.99999964
vn 0.00059241056 0.38244337 -0.92397875
vn 0.00059241056 0.72639376 -0.6872785
vn -0.0072246194 0.030675828 -0.99950325
vn -0.0072246194 -0.00059241056 -0.9999737
vn -0.015041769 0.3902604 -0.92058164
vn -0.616955 0.015041769 -0.7868547
vn -0.60913795 -0.00059241056 -0.79306406
vn -0.6638573 0.28082162 -0.6931325
vn -0.015041769 0.7185767 -0.69528496
vn -0.6638573 0.5466015 -0.5104119
vn -0.0072246194 0.92963725 -0.36840513
vn -0.5544185 0.77329606 -0.30762532
vn -0.56223565 0.77329606 -0.29309425
vn 0.00059241056 0.92963725 -0.3684755
vn -0.0072246194 0.9374543 -0.3480334
vn -0.7185767 0.60913795 0.33555686
vn 0.00059241056 0.9374543 -0.3481079
vn -0.015041769 0.88273484 0.4696307
vn 0.0084094405 0.9374543 0.34800684
vn -0.0072246194 0.08539516 0.99632096
vn -0.53878444 0.054127038 0.840703
vn 0.00059241056 0.88273484 0.46987113
vn -0.0072246194 -0.00059241056 0.9999737
vn -0.5075162 -0.00059241056 0.861642
vn 0.00059241056 0.08539516 0.996347
vn 0.00059241056 -0.00059241056 0.99999964
vn 0.00059241056 0.0697611 0.99756354
vn 0.00059241056 -0.00059241056 0.99999964
vn 0.00059241056 -0.00059241056 0.99999964
vn 0.61813974 0.37462622 0.691056
vn 0.75102973 0.124480546 0.648428
vn 0.0084094405 -0.00059241056 0.9999645
vn 0.01622653 -0.00059241056 0.99986815
vn 0.78229797 0.10884637 0.61332077
vn 0.5399692 0.054127038 0.8399426
vn 0.50870097 -0.00059241056 0.8609431
vn 0.0084094405 -0.00059241056 0.9999645
vn 0.0084094405 0.08539516 0.99631166
vn 0.7197615 0.616955 0.3182922
vn 0.00059241056 0.08539516 0.996347
vn 0.00059241056 -0.00059241056 0.99999964
vn 0.01622653 0.88273484 0.4695913
vn 0.0084094405 0.9374543 -0.34800684
vn 0.5556033 0.77329606 -0.30548012
vn 0.00059241056 0.88273484 0.46987113
vn 0.00059241056 0.061944067 0.9980795
vn 0.0084094405 0.92963725 -0.36838004
vn 0.5556033 0.77329606 -0.30548012
vn 0.6650421 0.5466015 -0.5088672
vn 0.01622653 0.7107597 -0.7032477
vn 0.6650421 0.28082162 -0.6919958
vn 0.00059241056 0.92963725 -0.3684755
vn 0.00059241056 0.9374543 -0.3481079
vn -0.0072246194 0.92963725 -0.36840513
vn -0.0072246194 0.92963725 0.36840513
vn 0.00059241056 0.72639376 -0.6872785
vn 0.01622653 0.38244337 -0.92383647
vn 0.0084094405 0.030675828 -0.999494
vn 0.61813974 0.015041769 -0.78592426
vn 0.00059241056 0.37462622 -0.92717576
vn 0.0084094405 -0.00059241056 -0.9999645
vn 0.6103227 -0.00059241056 -0.79215264
vn 0.00059241056 0.030675828 -0.99952924
vn 0.00059241056 -0.00059241056 -0.99999964
vn 0.00059241056 0.70294255 -0.7112464
vn -0.0072246194 0.3199069 -0.94742143
vn -0.0072246194 0.030675828 -0.99950325
vn -0.0072246194 -0.00059241056 -0.9999737
vn -0.6404062 -0.00059241056 -0.7680361
vn -0.7107597 0.03849286 -0.7023809
vn -0.51533324 0.47624797 -0.7124742
vn -0.23391932 0.79674727 -0.5572033
vn -0.44497973 0.83583254 -0.32152292
vn -0.898369 0.40589446 -0.16787744
vn -0.51533324 0.47624797 -0.7124742
vn -0.9997388 0.022853041 -0
vn -0.7107597 0.03849286 -0.7023809
vn -0.99999064 -0.00059241056 -0.0042854296
vn -0.6404062 -0.00059241056 -0.7680361
vn -0.99999064 -0.00059241056 0.0042854296
vn -0.9980869 0.061826143 -0
vn -0.8671008 -0.00059241056 0.49813238
vn -0.8514666 0.03849286 0.52299416
vn -0.8123813 0.5466015 -0.20313396
vn -0.67949146 0.40589446 0.61118
vn -0.3668092 0.8671008 -0.3370271
vn -0.0072246194 0.9374543 -0.3480334
vn -0.39807743 0.7107597 0.57996124
vn 0.00059241056 -0.00059241056 0.99999964
vn -0.8514666 0.03849286 0.52299416
vn 0.00059241056 -0.00059241056 0.99999964
vn -0.0072246194 -0.00059241056 0.9999737
vn -0.8671008 -0.00059241056 0.49813238
vn -0.0072246194 -0.00059241056 0.9999737
g ENV_S04_BasketFall_Floor_Ramp1_MO_0
f 3/3/3 2/2/2 1/1/1
f 3/3/3 4/4/4 2/2/2
f 3/3/3 1/1/1 5/5/5
f 5/5/5 1/1/1 6/6/6
f 3/3/3 7/7/7 4/4/4
f 7/7/7 3/3/3 5/5/5
f 7/7/7 8/8/8 4/4/4
f 7/7/7 9/9/9 8/8/8
f 7/7/7 5/5/5 9/9/9
f 9/9/9 10/10/10 8/8/8
f 5/5/5 6/6/6 11/11/11
f 9/9/9 5/5/5 11/11/11
f 11/11/11 6/6/6 12/12/12
f 9/9/9 13/13/13 10/10/10
f 9/9/9 11/11/11 13/13/13
f 14/14/14 10/10/10 13/13/13
f 11/11/11 12/12/12 15/15/15
f 13/13/13 11/11/11 15/15/15
f 14/14/14 13/13/13 16/16/16
f 13/13/13 15/15/15 16/16/16
f 14/14/14 16/16/16 17/17/17
f 15/15/15 17/17/17 16/16/16
f 14/14/14 17/17/17 18/18/18
f 19/19/19 15/15/15 12/12/12
f 15/15/15 19/19/19 17/17/17
f 19/19/19 12/12/12 20/20/20
f 18/18/18 17/17/17 21/21/21
f 19/19/19 21/21/21 17/17/17
f 18/18/18 21/21/21 22/22/22
f 23/23/23 19/19/19 20/20/20
f 19/19/19 23/23/23 21/21/21
f 22/22/22 21/21/21 23/23/23
f 23/23/23 20/20/20 24/24/24
f 22/22/22 23/23/23 24/24/24
f 27/27/27 26/26/26 25/25/25
f 27/27/27 28/28/28 26/26/26
f 27/27/27 25/25/25 29/29/29
f 29/29/29 25/25/25 30/30/30
f 27/27/27 31/31/31 28/28/28
f 31/31/31 27/27/27 29/29/29
f 31/31/31 32/32/32 28/28/28
f 31/31/31 33/33/33 32/32/32
f 31/31/31 29/29/29 33/33/33
f 33/33/33 34/34/34 32/32/32
f 29/29/29 30/30/30 35/35/35
f 33/33/33 29/29/29 35/35/35
f 35/35/35 30/30/30 36/36/36
f 33/33/33 37/37/37 34/34/34
f 33/33/33 35/35/35 37/37/37
f 38/38/38 34/34/34 37/37/37
f 35/35/35 36/36/36 39/39/39
f 37/37/37 35/35/35 39/39/39
f 38/38/38 37/37/37 40/40/40
f 37/37/37 39/39/39 40/40/40
f 38/38/38 40/40/40 41/41/41
f 39/39/39 41/41/41 40/40/40
f 38/38/38 41/41/41 42/42/42
f 43/43/43 39/39/39 36/36/36
f 39/39/39 43/43/43 41/41/41
f 43/43/43 36/36/36 44/44/44
f 42/42/42 41/41/41 45/45/45
f 43/43/43 45/45/45 41/41/41
f 42/42/42 45/45/45 46/46/46
f 47/47/47 43/43/43 44/44/44
f 43/43/43 47/47/47 45/45/45
f 46/46/46 45/45/45 47/47/47
f 47/47/47 44/44/44 48/48/48
f 46/46/46 47/47/47 48/48/48
g ENV_S04_BasketFall_Floor_Ramp1_MO_1
f 51/51/51 50/50/50 49/49/49
f 51/51/51 49/49/49 52/52/52
f 52/52/52 49/49/49 53/53/53
f 52/52/52 54/54/54 51/51/51
f 52/52/52 53/53/53 55/55/55
f 55/55/55 53/53/53 56/56/56
f 52/52/52 57/57/57 54/54/54
f 57/57/57 52/52/52 55/55/55
f 58/58/58 54/54/54 57/57/57
f 58/58/58 57/57/57 59/59/59
f 59/59/59 57/57/57 60/60/60
f 57/57/57 55/55/55 60/60/60
f 59/59/59 60/60/60 61/61/61
f 60/60/60 55/55/55 62/62/62
f 55/55/55 56/56/56 62/62/62
f 61/61/61 60/60/60 63/63/63
f 60/60/60 62/62/62 63/63/63
f 61/61/61 63/63/63 64/64/64
f 63/63/63 62/62/62 65/65/65
f 65/65/65 62/62/62 56/56/56
f 64/64/64 63/63/63 66/66/66
f 63/63/63 65/65/65 66/66/66
f 65/65/65 56/56/56 67/67/67
f 56/56/56 68/68/68 67/67/67
f 56/56/56 69/69/69 68/68/68
f 69/69/69 70/70/70 68/68/68
f 69/69/69 71/71/71 70/70/70
f 72/72/72 70/70/70 71/71/71
f 72/72/72 73/73/73 70/70/70
f 73/73/73 74/74/74 70/70/70
f 74/74/74 68/68/68 70/70/70
f 73/73/73 75/75/75 74/74/74
f 76/76/76 67/67/67 68/68/68
f 74/74/74 76/76/76 68/68/68
f 77/77/77 65/65/65 67/67/67
f 76/76/76 77/77/77 67/67/67
f 75/75/75 78/78/78 74/74/74
f 75/75/75 79/79/79 78/78/78
f 74/74/74 80/80/80 76/76/76
f 74/74/74 78/78/78 80/80/80
f 81/81/81 78/78/78 79/79/79
f 81/81/81 79/79/79 82/82/82
f 78/78/78 81/81/81 83/83/83
f 78/78/78 83/83/83 80/80/80
f 76/76/76 80/80/80 84/84/84
f 84/84/84 80/80/80 83/83/83
f 76/76/76 84/84/84 77/77/77
f 84/84/84 83/83/83 85/85/85
f 86/86/86 84/84/84 85/85/85
f 77/77/77 84/84/84 86/86/86
f 86/86/86 85/85/85 87/87/87
f 86/86/86 87/87/87 88/88/88
f 77/77/77 86/86/86 89/89/89
f 77/77/77 89/89/89 65/65/65
f 89/89/89 66/66/66 65/65/65
f 86/86/86 88/88/88 90/90/90
f 89/89/89 86/86/86 90/90/90
f 90/90/90 88/88/88 91/91/91
f 89/89/89 92/92/92 66/66/66
f 89/89/89 90/90/90 92/92/92
f 90/90/90 91/91/91 93/93/93
f 92/92/92 90/90/90 93/93/93
f 92/92/92 94/94/94 66/66/66
f 64/64/64 66/66/66 94/94/94
f 95/95/95 93/93/93 91/91/91
f 95/95/95 91/91/91 96/96/96
f 92/92/92 93/93/93 97/97/97
f 92/92/92 97/97/97 94/94/94
f 97/97/97 93/93/93 95/95/95
f 98/98/98 95/95/95 96/96/96
f 98/98/98 96/96/96 99/99/99
f 98/98/98 100/100/100 95/95/95
f 97/97/97 95/95/95 100/100/100
f 98/98/98 101/101/101 100/100/100
f 97/97/97 100/100/100 102/102/102
f 97/97/97 102/102/102 94/94/94
f 102/102/102 100/100/100 101/101/101
f 103/103/103 94/94/94 102/102/102
f 103/103/103 64/64/64 94/94/94
f 102/102/102 101/101/101 103/103/103
f 104/104/104 64/64/64 103/103/103
f 103/103/103 101/101/101 104/104/104
f 104/104/104 105/105/105 64/64/64
f 104/104/104 106/106/106 105/105/105
f 104/104/104 101/101/101 107/107/107
f 104/104/104 107/107/107 106/106/106
f 107/107/107 101/101/101 108/108/108
f 109/109/109 106/106/106 107/107/107
f 109/109/109 107/107/107 108/108/108
f 112/112/112 111/111/111 110/110/110
f 112/112/112 110/110/110 113/113/113
f 114/114/114 113/113/113 110/110/110
f 112/112/112 113/113/113 115/115/115
f 112/112/112 115/115/115 116/116/116
f 114/114/114 117/117/117 113/113/113
f 115/115/115 113/113/113 117/117/117
f 114/114/114 118/118/118 117/117/117
f 114/114/114 119/119/119 118/118/118
f 115/115/115 117/117/117 120/120/120
f 118/118/118 120/120/120 117/117/117
f 121/121/121 116/116/116 115/115/115
f 121/121/121 115/115/115 120/120/120
f 119/119/119 122/122/122 118/118/118
f 119/119/119 123/123/123 122/122/122
f 124/124/124 122/122/122 123/123/123
f 124/124/124 125/125/125 122/122/122
f 126/126/126 125/125/125 124/124/124
f 118/118/118 122/122/122 127/127/127
f 127/127/127 122/122/122 125/125/125
f 118/118/118 128/128/128 120/120/120
f 118/118/118 127/127/127 128/128/128
f 128/128/128 127/127/127 129/129/129
f 121/121/121 120/120/120 130/130/130
f 130/130/130 120/120/120 128/128/128
f 127/127/127 125/125/125 131/131/131
f 129/129/129 127/127/127 131/131/131
f 126/126/126 132/132/132 125/125/125
f 131/131/131 125/125/125 132/132/132
f 126/126/126 133/133/133 132/132/132
f 126/126/126 134/134/134 133/133/133
f 131/131/131 132/132/132 135/135/135
f 135/135/135 132/132/132 133/133/133
f 136/136/136 133/133/133 134/134/134
f 136/136/136 134/134/134 137/137/137
f 136/136/136 138/138/138 133/133/133
f 135/135/135 133/133/133 138/138/138
f 136/136/136 139/139/139 138/138/138
f 140/140/140 131/131/131 135/135/135
f 129/129/129 131/131/131 140/140/140
f 141/141/141 135/135/135 138/138/138
f 140/140/140 135/135/135 141/141/141
f 139/139/139 142/142/142 138/138/138
f 141/141/141 138/138/138 142/142/142
f 139/139/139 143/143/143 142/142/142
f 142/142/142 143/143/143 144/144/144
f 142/142/142 144/144/144 145/145/145
f 142/142/142 145/145/145 146/146/146
f 142/142/142 146/146/146 141/141/141
f 147/147/147 141/141/141 146/146/146
f 147/147/147 140/140/140 141/141/141
f 147/147/147 129/129/129 140/140/140
f 147/147/147 148/148/148 129/129/129
f 149/149/149 148/148/148 147/147/147
f 149/149/149 147/147/147 150/150/150
f 150/150/150 151/151/151 149/149/149
f 150/150/150 152/152/152 151/151/151
f 152/152/152 153/153/153 151/151/151
f 152/152/152 154/154/154 153/153/153
f 151/151/151 153/153/153 155/155/155
f 151/151/151 155/155/155 156/156/156
f 149/149/149 151/151/151 156/156/156
f 156/156/156 155/155/155 157/157/157
f 156/156/156 157/157/157 158/158/158
f 149/149/149 156/156/156 159/159/159
f 159/159/159 156/156/156 158/158/158
f 148/148/148 149/149/149 159/159/159
f 159/159/159 158/158/158 160/160/160
f 148/148/148 159/159/159 161/161/161
f 129/129/129 148/148/148 161/161/161
f 160/160/160 161/161/161 159/159/159
f 129/129/129 161/161/161 162/162/162
f 128/128/128 129/129/129 162/162/162
f 130/130/130 128/128/128 162/162/162
f 163/163/163 162/162/162 161/161/161
f 160/160/160 163/163/163 161/161/161
f 163/163/163 130/130/130 162/162/162
f 164/164/164 163/163/163 160/160/160
f 165/165/165 164/164/164 160/160/160
f 166/166/166 130/130/130 163/163/163
f 164/164/164 166/166/166 163/163/163
f 166/166/166 121/121/121 130/130/130
f 121/121/121 166/166/166 116/116/116
f 116/116/116 166/166/166 164/164/164
f 165/165/165 167/167/167 164/164/164
f 116/116/116 164/164/164 167/167/167
f 168/168/168 167/167/167 165/165/165
f 116/116/116 167/167/167 169/169/169
f 168/168/168 169/169/169 167/167/167
