g ENV_G1_Wall_01_MO
v -0.811388 8.010157 19.87647
v -0.811388 8.010157 -19.876474
v -0.79374313 8.0539665 -19.876474
v -0.79374313 8.0539665 19.87647
v -0.79374313 8.0539665 19.87647
v -0.79374313 8.0539665 -19.876474
v -0.74993324 8.071611 -19.876474
v -0.74993324 8.071611 19.87647
v 0.7316818 8.071611 -19.876474
v 0.73229027 8.071611 19.87708
v 0.7754917 8.0539665 -19.876474
v 0.7754917 8.0539665 19.87708
v -0.79374313 8.010157 19.919672
v -0.79374313 0.00091171265 19.919672
v -0.811388 0.00030326843 19.87647
v -0.811388 8.010157 19.87647
v -0.79374313 8.0539665 19.87647
v -0.78583336 8.045448 19.911764
v 0.7754917 8.0539665 19.87708
v 0.7754917 8.0539665 -19.876474
v 0.79374504 8.010157 -19.876474
v 0.79374504 8.010765 19.87708
v 0.81139183 0.00030326843 19.87647
v 0.81139183 0.00030326843 -19.876474
v 0.79374504 8.010765 19.87708
v 0.81139183 0.00030326843 19.87647
v 0.79374504 -0.017951965 19.919672
v 0.77610016 8.010765 19.920282
v 0.7754917 8.0539665 19.87708
v 0.76758194 8.045448 19.91237
v 0.77610016 8.010765 19.920282
v 0.79374504 -0.017951965 19.919672
v 0.75115395 -0.061151505 19.937925
v 0.73229027 8.010157 19.937925
v -0.74993324 0.0033454895 19.937925
v 0.73229027 8.0539665 19.920282
v 0.76758194 8.045448 19.91237
v -0.74993324 8.0539665 19.919672
v -0.74993324 8.010157 19.937925
v -0.79374313 0.00091171265 19.919672
v -0.79374313 8.010157 19.919672
v -0.78583336 8.045448 19.911764
v -0.811388 8.010157 -19.876474
v -0.811388 0.00030326843 -19.876474
v -0.79374313 0.00091171265 -19.919676
v -0.79374313 8.010157 -19.919676
v -0.79374313 8.0539665 -19.876474
v -0.78583336 8.045448 -19.911764
v -0.79374313 8.010157 -19.919676
v -0.79374313 0.00091171265 -19.919676
v -0.74993324 0.0033454895 -19.93793
v -0.74993324 8.010157 -19.93793
v 0.75115395 -0.061151505 -19.93793
v -0.74993324 8.0539665 -19.919676
v -0.78583336 8.045448 -19.911764
v 0.7316818 8.0539665 -19.919676
v 0.73229027 8.010157 -19.93793
v 0.79374504 -0.017951965 -19.919676
v 0.77610016 8.010157 -19.919676
v 0.76758194 8.045448 -19.911764
v 0.77610016 8.010157 -19.919676
v 0.79374504 -0.017951965 -19.919676
v 0.81139183 0.00030326843 -19.876474
v 0.79374504 8.010157 -19.876474
v 0.7754917 8.0539665 -19.876474
v 0.76758194 8.045448 -19.911764
v -0.811388 0.00030326843 -19.876474
v -0.811388 8.010157 -19.876474
v -0.811388 8.010157 19.87647
v -0.811388 0.00030326843 19.87647
v -0.74993324 8.0539665 19.919672
v -0.78583336 8.045448 19.911764
v -0.79374313 8.0539665 19.87647
v -0.74993324 8.071611 19.87647
v 0.73229027 8.0539665 19.920282
v 0.73229027 8.071611 19.87708
v 0.7754917 8.0539665 19.87708
v 0.76758194 8.045448 19.91237
v -0.79374313 8.0539665 -19.876474
v -0.78583336 8.045448 -19.911764
v -0.74993324 8.0539665 -19.919676
v -0.74993324 8.071611 -19.876474
v 0.7316818 8.071611 -19.876474
v 0.7316818 8.0539665 -19.919676
v 0.7754917 8.0539665 -19.876474
v 0.76758194 8.045448 -19.911764
vt 0.8789406 0.07982038
vt 0.12105938 0.07982038
vt 0.12105938 0.0807368
vt 0.8789406 0.0807368
vt 0.8789406 0.0807368
vt 0.12105938 0.0807368
vt 0.12105938 0.08165322
vt 0.8789406 0.08165322
vt 0.12105938 0.11006231
vt 0.8789406 0.11006231
vt 0.12105938 0.11097873
vt 0.8789406 0.11097873
vt 0.2988453 0.4592192
vt 0.45188782 0.4592192
vt 0.45188782 0.45830277
vt 0.2988453 0.45830277
vt 0.29792887 0.4592192
vt 0.2988453 0.4592192
vt 0.8789406 0.11097873
vt 0.12105938 0.11097873
vt 0.12105938 0.11189516
vt 0.8789406 0.11189516
vt 0.8789406 0.26493767
vt 0.12105938 0.26493767
vt 0.2988453 0.49037755
vt 0.45188782 0.49037755
vt 0.45188782 0.48946112
vt 0.2988453 0.48946112
vt 0.29792887 0.48946112
vt 0.2988453 0.48946112
vt 0.2988453 0.48946112
vt 0.45188782 0.48946112
vt 0.45280424 0.4885447
vt 0.2997617 0.4885447
vt 0.45188782 0.4601356
vt 0.2988453 0.4885447
vt 0.2988453 0.48946112
vt 0.29792887 0.4601356
vt 0.2988453 0.4601356
vt 0.45188782 0.4592192
vt 0.2988453 0.4592192
vt 0.2988453 0.4592192
vt 0.12289222 0.49037755
vt 0.27593476 0.49037755
vt 0.27593476 0.48946112
vt 0.12289222 0.48946112
vt 0.1219758 0.48946112
vt 0.1219758 0.48946112
vt 0.12289222 0.48946112
vt 0.27593476 0.48946112
vt 0.27593476 0.4885447
vt 0.12289222 0.4885447
vt 0.27685118 0.4601356
vt 0.1219758 0.4885447
vt 0.1219758 0.48946112
vt 0.1219758 0.4601356
vt 0.12289222 0.4601356
vt 0.27593476 0.4592192
vt 0.12289222 0.4592192
vt 0.12289222 0.4601356
vt 0.12289222 0.4592192
vt 0.27593476 0.4592192
vt 0.27593476 0.45830277
vt 0.12289222 0.45830277
vt 0.1219758 0.4592192
vt 0.12289222 0.4601356
vt 0.8789406 0.43814147
vt 0.8789406 0.28509897
vt 0.12105938 0.28509897
vt 0.12105938 0.43814147
vt 0.29792887 0.4601356
vt 0.2988453 0.4592192
vt 0.29792887 0.4592192
vt 0.29701245 0.4601356
vt 0.2988453 0.4885447
vt 0.29792887 0.4885447
vt 0.29792887 0.48946112
vt 0.2988453 0.48946112
vt 0.1219758 0.48946112
vt 0.1219758 0.48946112
vt 0.1219758 0.4885447
vt 0.12105938 0.4885447
vt 0.12105938 0.4601356
vt 0.1219758 0.4601356
vt 0.1219758 0.4592192
vt 0.12289222 0.4601356
vn -0.99980664 0.019664932 -0
vn -0.99980664 0.019664932 -0
vn -0.92151034 0.3804046 -0.07817324
vn -0.92151034 0.3804046 0.07817324
vn -0.3804046 0.92151034 0.07817305
vn -0.3804046 0.92151034 -0.07817305
vn -0.011825307 0.99993014 -0
vn -0.011825307 0.99993014 -0
vn 0.011700988 0.99993145 -0.00042286396
vn 0.011700988 0.99993145 -0.00042286396
vn 0.37871018 0.92551535 -0
vn 0.37871018 0.92551535 -0
vn -0.92151034 0.011825323 0.38817376
vn -0.92151034 -0.019543111 0.3878618
vn -0.999809 -0.019540718 -0
vn -0.99980664 0.019664932 -0
vn -0.92151034 0.3804046 0.07817324
vn -0.89014184 0.3255098 0.31889006
vn 0.91870797 0.39493757 -0
vn 0.91870797 0.39493757 -0
vn 0.99937546 0.03533637 -0
vn 0.99937546 0.03533637 -0
vn 0.99980664 0.019667378 -0
vn 0.99980664 0.019667378 -0
vn 0.99937546 0.03533637 -0
vn 0.99980664 0.019667378 -0
vn 0.921386 0.011825323 0.38846877
vn 0.921386 0.02750957 0.3876739
vn 0.91870797 0.39493757 -0
vn 0.88217545 0.33335185 0.33263046
vn 0.38028026 0.019667387 0.9246621
vn 0.38028026 0.003983259 0.92486274
vn 0.003858924 0.003983259 0.9999846
vn 0.011700988 0.019667387 0.9997381
vn -0.011825323 -0.003858924 0.99992263
vn 0.003858924 0.3804046 0.9248121
vn 0.3175434 0.3255098 0.89062315
vn -0.003983259 0.3804046 0.9248116
vn -0.011825323 0.019667387 0.9997366
vn -0.3804046 -0.011700988 0.92474616
vn -0.3804046 0.011825323 0.92474455
vn -0.3255098 0.3255098 0.8877425
vn -0.99980664 0.019664932 -0
vn -0.999809 -0.019540718 -0
vn -0.92151034 -0.019543111 -0.3878618
vn -0.92151034 0.011825323 -0.38817376
vn -0.92151034 0.3804046 -0.07817324
vn -0.89014184 0.3255098 -0.31889006
vn -0.3804046 0.011825323 -0.92474455
vn -0.3804046 -0.011700988 -0.92474616
vn -0.011825323 -0.003858924 -0.99992263
vn -0.011825323 0.019667387 -0.9997366
vn 0.003858924 0.003983259 -0.9999846
vn -0.003983259 0.3804046 -0.9248116
vn -0.3255098 0.3255098 -0.8877425
vn 0.003858924 0.3804046 -0.9248121
vn 0.011700988 0.019667387 -0.9997381
vn 0.38028026 0.003983259 -0.92486274
vn 0.38028026 0.019667387 -0.9246621
vn 0.3253855 0.33335185 -0.88487333
vn 0.921386 0.02750957 -0.3876739
vn 0.921386 0.019667387 -0.38815078
vn 0.99980664 0.019667378 -0
vn 0.99937546 0.03533637 -0
vn 0.91870797 0.39493757 -0
vn 0.88217545 0.34119403 -0.3245814
vn -0.999809 -0.019540718 -0
vn -0.99980664 0.019664932 -0
vn -0.99980664 0.019664932 -0
vn -0.999809 -0.019540718 -0
vn -0.003983259 0.92151034 0.38833344
vn -0.3255098 0.89014184 0.3188901
vn -0.3804046 0.92151034 0.07817305
vn -0.011825307 0.99993014 -0
vn 0.003858924 0.92151034 0.38833466
vn 0.011700988 0.99993145 -0.00042286396
vn 0.37871018 0.92551535 -0
vn 0.3175434 0.89014184 0.3268237
vn -0.3804046 0.92151034 -0.07817305
vn -0.3255098 0.89014184 -0.3188901
vn -0.003983259 0.92151034 -0.38833344
vn -0.011825307 0.99993014 -0
vn 0.011700988 0.99993145 -0.00042286396
vn 0.003858924 0.92151034 -0.38833466
vn 0.37871018 0.92551535 -0
vn 0.3253855 0.89014184 -0.31901687
g ENV_G1_Wall_01_MO_0
f 3/3/3 2/2/2 1/1/1
f 4/4/4 3/3/3 1/1/1
f 7/7/7 6/6/6 5/5/5
f 8/8/8 7/7/7 5/5/5
f 9/9/9 7/7/7 8/8/8
f 10/10/10 9/9/9 8/8/8
f 11/11/11 9/9/9 10/10/10
f 12/12/12 11/11/11 10/10/10
f 15/15/15 14/14/14 13/13/13
f 16/16/16 15/15/15 13/13/13
f 16/16/16 13/13/13 17/17/17
f 13/13/13 18/18/18 17/17/17
f 21/21/21 20/20/20 19/19/19
f 22/22/22 21/21/21 19/19/19
f 21/21/21 22/22/22 23/23/23
f 24/24/24 21/21/21 23/23/23
f 27/27/27 26/26/26 25/25/25
f 28/28/28 27/27/27 25/25/25
f 25/25/25 29/29/29 28/28/28
f 29/29/29 30/30/30 28/28/28
f 33/33/33 32/32/32 31/31/31
f 34/34/34 33/33/33 31/31/31
f 33/33/33 34/34/34 35/35/35
f 34/34/34 31/31/31 36/36/36
f 31/31/31 37/37/37 36/36/36
f 34/34/34 36/36/36 38/38/38
f 34/34/34 39/39/39 35/35/35
f 39/39/39 34/34/34 38/38/38
f 40/40/40 35/35/35 39/39/39
f 41/41/41 40/40/40 39/39/39
f 39/39/39 38/38/38 41/41/41
f 38/38/38 42/42/42 41/41/41
f 45/45/45 44/44/44 43/43/43
f 46/46/46 45/45/45 43/43/43
f 43/43/43 47/47/47 46/46/46
f 47/47/47 48/48/48 46/46/46
f 51/51/51 50/50/50 49/49/49
f 52/52/52 51/51/51 49/49/49
f 53/53/53 51/51/51 52/52/52
f 52/52/52 49/49/49 54/54/54
f 49/49/49 55/55/55 54/54/54
f 54/54/54 56/56/56 52/52/52
f 57/57/57 53/53/53 52/52/52
f 56/56/56 57/57/57 52/52/52
f 58/58/58 53/53/53 57/57/57
f 59/59/59 58/58/58 57/57/57
f 57/57/57 56/56/56 59/59/59
f 56/56/56 60/60/60 59/59/59
f 63/63/63 62/62/62 61/61/61
f 64/64/64 63/63/63 61/61/61
f 64/64/64 61/61/61 65/65/65
f 61/61/61 66/66/66 65/65/65
f 69/69/69 68/68/68 67/67/67
f 70/70/70 69/69/69 67/67/67
f 73/73/73 72/72/72 71/71/71
f 74/74/74 73/73/73 71/71/71
f 71/71/71 75/75/75 74/74/74
f 75/75/75 76/76/76 74/74/74
f 76/76/76 75/75/75 77/77/77
f 75/75/75 78/78/78 77/77/77
f 81/81/81 80/80/80 79/79/79
f 82/82/82 81/81/81 79/79/79
f 82/82/82 83/83/83 81/81/81
f 83/83/83 84/84/84 81/81/81
f 83/83/83 85/85/85 84/84/84
f 85/85/85 86/86/86 84/84/84
