g ENV_inflWall01_Col
v -3.9203918 6.533795 -29.079107
v -3.9238684 -0.5673883 -2.6390295
v -3.8273914 7.9500713 -2.268241
v -3.8730822 14.977712 -28.665201
v -4.1111045 15.679035 -28.449856
v -3.8730822 14.977712 -28.665201
v -3.8273914 7.9500713 -2.268241
v -4.120262 8.689207 -2.068258
v -4.5823865 15.687523 -28.448496
v -4.6612315 8.698806 -2.0660632
v -4.972926 7.9534845 -2.2650867
v -4.845416 14.981884 -28.663073
v -4.845416 14.981884 -28.663073
v -4.972926 7.9534845 -2.2650867
v -4.8774085 -0.5672046 -2.6394129
v -4.797706 6.5338054 -29.079386
v -4.5823865 15.687523 -28.448496
v -4.1111045 15.679035 -28.449856
v -4.120262 8.689207 -2.068258
v -4.6612315 8.698806 -2.0660632
v -3.9238684 -0.5673883 -2.6390295
v -3.946471 -6.6076145 19.858595
v -3.833153 1.9214495 20.221457
v -3.8273914 7.9500713 -2.268241
v -4.120262 8.689207 -2.068258
v -3.8273914 7.9500713 -2.268241
v -3.833153 1.9214495 20.221457
v -4.1475987 2.6603289 20.463535
v -4.6612315 8.698806 -2.0660632
v -4.6888633 2.6309333 20.528324
v -4.9822936 1.8838067 20.364586
v -4.972926 7.9534845 -2.2650867
v -4.972926 7.9534845 -2.2650867
v -4.9822936 1.8838067 20.364586
v -4.8894935 -6.62019 19.982832
v -4.8774085 -0.5672046 -2.6394129
v -4.8894935 -6.62019 19.982832
v -3.946471 -6.6076145 19.858595
v -3.9238684 -0.5673883 -2.6390295
v -4.8774085 -0.5672046 -2.6394129
v -4.6612315 8.698806 -2.0660632
v -4.120262 8.689207 -2.068258
v -4.1475987 2.6603289 20.463535
v -4.6888633 2.6309333 20.528324
v -3.5428967 1.5168743 24.438934
v -3.782335 0.7560052 24.374165
v -4.45193 1.3091131 22.44683
v -4.1605554 2.0810578 22.572441
v -3.782335 0.7560052 24.374165
v -3.705282 -7.737416 23.967299
v -4.3434825 -7.1987634 22.043013
v -4.45193 1.3091131 22.44683
v -4.9822936 1.8838067 20.364586
v -4.45193 1.3091131 22.44683
v -4.3434825 -7.1987634 22.043013
v -4.8894935 -6.62019 19.982832
v -4.6888633 2.6309333 20.528324
v -4.1605554 2.0810578 22.572441
v -4.45193 1.3091131 22.44683
v -4.9822936 1.8838067 20.364586
v -3.6411657 2.1277447 22.433603
v -3.3315442 1.3880535 22.140205
v -2.7812219 0.90567195 23.80419
v -3.0650792 1.621618 24.172714
v -3.3315442 1.3880535 22.140205
v -3.4520738 -7.1424084 21.796278
v -2.88682 -7.6487303 23.49036
v -2.7812219 0.90567195 23.80419
v -4.1605554 2.0810578 22.572441
v -3.6411657 2.1277447 22.433603
v -3.0650792 1.621618 24.172714
v -3.5428967 1.5168743 24.438934
v -3.4520738 -7.1424084 21.796278
v -4.3434825 -7.1987634 22.043013
v -3.705282 -7.737416 23.967299
v -2.88682 -7.6487303 23.49036
v -3.946471 -6.6076145 19.858595
v -4.8894935 -6.62019 19.982832
v -4.3434825 -7.1987634 22.043013
v -3.4520738 -7.1424084 21.796278
v -3.3315442 1.3880535 22.140205
v -3.833153 1.9214495 20.221457
v -3.946471 -6.6076145 19.858595
v -3.4520738 -7.1424084 21.796278
v -3.6411657 2.1277447 22.433603
v -4.1475987 2.6603289 20.463535
v -3.833153 1.9214495 20.221457
v -3.3315442 1.3880535 22.140205
v -4.1475987 2.6603289 20.463535
v -3.6411657 2.1277447 22.433603
v -4.1605554 2.0810578 22.572441
v -4.6888633 2.6309333 20.528324
v -0.4727307 0.7792071 27.28225
v -0.60543334 -0.0048187254 27.309721
v -2.2508678 0.34117615 26.003252
v -2.048114 1.1411749 26.001621
v -0.60543334 -0.0048187254 27.309721
v -0.5626965 -8.494 26.87665
v -2.1746302 -8.15332 25.559546
v -2.2508678 0.34117615 26.003252
v -3.782335 0.7560052 24.374165
v -2.2508678 0.34117615 26.003252
v -2.1746302 -8.15332 25.559546
v -3.705282 -7.737416 23.967299
v -3.5428967 1.5168743 24.438934
v -2.048114 1.1411749 26.001621
v -2.2508678 0.34117615 26.003252
v -3.782335 0.7560052 24.374165
v -1.6726305 1.2552887 25.62957
v -1.4413879 0.54797304 25.192074
v -0.029036865 0.24207947 26.34706
v -0.19525024 0.9290387 26.828539
v -1.4413879 0.54797304 25.192074
v -1.5310339 -8.000432 24.911083
v -0.087535396 -8.316133 26.071346
v -0.029036865 0.24207947 26.34706
v -2.048114 1.1411749 26.001621
v -1.6726305 1.2552887 25.62957
v -0.19525024 0.9290387 26.828539
v -0.4727307 0.7792071 27.28225
v -1.5310339 -8.000432 24.911083
v -2.1746302 -8.15332 25.559546
v -0.5626965 -8.494 26.87665
v -0.087535396 -8.316133 26.071346
v -2.88682 -7.6487303 23.49036
v -3.705282 -7.737416 23.967299
v -2.1746302 -8.15332 25.559546
v -1.5310339 -8.000432 24.911083
v -1.4413879 0.54797304 25.192074
v -2.7812219 0.90567195 23.80419
v -2.88682 -7.6487303 23.49036
v -1.5310339 -8.000432 24.911083
v -1.6726305 1.2552887 25.62957
v -3.0650792 1.621618 24.172714
v -2.7812219 0.90567195 23.80419
v -1.4413879 0.54797304 25.192074
v -3.0650792 1.621618 24.172714
v -1.6726305 1.2552887 25.62957
v -2.048114 1.1411749 26.001621
v -3.5428967 1.5168743 24.438934
v 4.9111166 0.359776 28.849453
v 4.8740635 -0.39461243 28.885038
v 1.7428894 -0.23205383 28.180317
v 1.8234899 0.58541197 28.106659
v 4.8740635 -0.39461243 28.885038
v 4.8569226 -8.845581 28.48308
v 1.7764124 -8.721682 27.71142
v 1.7428894 -0.23205383 28.180317
v -0.60543334 -0.0048187254 27.309721
v 1.7428894 -0.23205383 28.180317
v 1.7764124 -8.721682 27.71142
v -0.5626965 -8.494 26.87665
v -0.4727307 0.7792071 27.28225
v 1.8234899 0.58541197 28.106659
v 1.7428894 -0.23205383 28.180317
v -0.60543334 -0.0048187254 27.309721
v 1.9791052 0.7324078 27.609028
v 2.0701087 0.043637086 27.09772
v 5.1331067 -0.15605773 27.95787
v 5.036478 0.48893005 28.399536
v 2.0701087 0.043637086 27.09772
v 2.033551 -8.51228 26.847826
v 5.084728 -8.633996 27.650688
v 5.1331067 -0.15605773 27.95787
v 1.8234899 0.58541197 28.106659
v 1.9791052 0.7324078 27.609028
v 5.036478 0.48893005 28.399536
v 4.9111166 0.359776 28.849453
v 2.033551 -8.51228 26.847826
v 1.7764124 -8.721682 27.71142
v 4.8569226 -8.845581 28.48308
v 5.084728 -8.633996 27.650688
v -0.087535396 -8.316133 26.071346
v -0.5626965 -8.494 26.87665
v 1.7764124 -8.721682 27.71142
v 2.033551 -8.51228 26.847826
v 2.0701087 0.043637086 27.09772
v -0.029036865 0.24207947 26.34706
v -0.087535396 -8.316133 26.071346
v 2.033551 -8.51228 26.847826
v 1.9791052 0.7324078 27.609028
v -0.19525024 0.9290387 26.828539
v -0.029036865 0.24207947 26.34706
v 2.0701087 0.043637086 27.09772
v -0.19525024 0.9290387 26.828539
v 1.9791052 0.7324078 27.609028
v 1.8234899 0.58541197 28.106659
v -0.4727307 0.7792071 27.28225
v 4.8740635 -0.39461243 28.885038
v 5.1331067 -0.15605773 27.95787
v 5.084728 -8.633996 27.650688
v 4.8569226 -8.845581 28.48308
v 4.9111166 0.359776 28.849453
v 5.036478 0.48893005 28.399536
v 5.1331067 -0.15605773 27.95787
v 4.8740635 -0.39461243 28.885038
v -4.797706 6.5338054 -29.079386
v -4.8774085 -0.5672046 -2.6394129
v -3.9238684 -0.5673883 -2.6390295
v -3.9203918 6.533795 -29.079107
v -4.797706 6.5338054 -29.079386
v -3.9203918 6.533795 -29.079107
v -3.8730822 14.977712 -28.665201
v -4.845416 14.981884 -28.663073
v -4.845416 14.981884 -28.663073
v -3.8730822 14.977712 -28.665201
v -4.1111045 15.679035 -28.449856
v -4.5823865 15.687523 -28.448496
vt 0.641353 0.554263
vt 0.092885 0.255301
vt 0.092885 0.098051
vt 0.641353 0.396993
vt 0.641353 0.318194
vt 0.641353 0.396993
vt 0.092885 0.098051
vt 0.092885 0.019469
vt 0.641353 0.342638
vt 0.092885 0.043889
vt 0.092885 0.098051
vt 0.641353 0.396993
vt 0.641353 0.396993
vt 0.092885 0.098051
vt 0.092885 0.255301
vt 0.641353 0.554263
vt 0.641353 0.342638
vt 0.641353 0.318194
vt 0.092885 0.019469
vt 0.092885 0.043889
vt 0.641353 0.554263
vt 0.092885 0.255301
vt 0.092885 0.098051
vt 0.641353 0.396993
vt 0.641353 0.318194
vt 0.641353 0.396993
vt 0.092885 0.098051
vt 0.092885 0.019469
vt 0.641353 0.342638
vt 0.092885 0.043889
vt 0.092885 0.098051
vt 0.641353 0.396993
vt 0.641353 0.396993
vt 0.092885 0.098051
vt 0.092885 0.255301
vt 0.641353 0.554263
vt 0.092885 0.255301
vt 0.092885 0.255301
vt 0.641353 0.554263
vt 0.641353 0.554263
vt 0.641353 0.342638
vt 0.641353 0.318194
vt 0.092885 0.019469
vt 0.092885 0.043889
vt 0.641353 0.318194
vt 0.641353 0.396993
vt 0.003532 0.396993
vt 0.003532 0.318194
vt 0.641353 0.396993
vt 0.641353 0.554263
vt 0.003532 0.554263
vt 0.003532 0.396993
vt 0.092885 0.098051
vt 0.731273 0.098051
vt 0.731273 0.255301
vt 0.092885 0.255301
vt 0.092885 0.019469
vt 0.731273 0.019469
vt 0.731273 0.098051
vt 0.092885 0.098051
vt 0.003532 0.342638
vt 0.003532 0.396993
vt 0.641353 0.396993
vt 0.641353 0.342638
vt 0.003532 0.396993
vt 0.003532 0.554263
vt 0.641353 0.554263
vt 0.641353 0.396993
vt 0.003532 0.318194
vt 0.003532 0.342638
vt 0.641353 0.342638
vt 0.641353 0.318194
vt 0.003532 0.554263
vt 0.003532 0.554263
vt 0.641353 0.554263
vt 0.641353 0.554263
vt 0.092885 0.255301
vt 0.092885 0.255301
vt 0.731273 0.255301
vt 0.731273 0.255301
vt 0.731273 0.098051
vt 0.092885 0.098051
vt 0.092885 0.255301
vt 0.731273 0.255301
vt 0.731273 0.043889
vt 0.092885 0.043889
vt 0.092885 0.098051
vt 0.731273 0.098051
vt 0.092885 0.043889
vt 0.731273 0.043889
vt 0.731273 0.019469
vt 0.092885 0.019469
vt 0.641353 0.318194
vt 0.641353 0.396993
vt 0.003532 0.396993
vt 0.003532 0.318194
vt 0.641353 0.396993
vt 0.641353 0.554263
vt 0.003532 0.554263
vt 0.003532 0.396993
vt 0.092885 0.098051
vt 0.731273 0.098051
vt 0.731273 0.255301
vt 0.092885 0.255301
vt 0.092885 0.019469
vt 0.731273 0.019469
vt 0.731273 0.098051
vt 0.092885 0.098051
vt 0.003532 0.342638
vt 0.003532 0.396993
vt 0.641353 0.396993
vt 0.641353 0.342638
vt 0.003532 0.396993
vt 0.003532 0.554263
vt 0.641353 0.554263
vt 0.641353 0.396993
vt 0.003532 0.318194
vt 0.003532 0.342638
vt 0.641353 0.342638
vt 0.641353 0.318194
vt 0.003532 0.554263
vt 0.003532 0.554263
vt 0.641353 0.554263
vt 0.641353 0.554263
vt 0.092885 0.255301
vt 0.092885 0.255301
vt 0.731273 0.255301
vt 0.731273 0.255301
vt 0.731273 0.098051
vt 0.092885 0.098051
vt 0.092885 0.255301
vt 0.731273 0.255301
vt 0.731273 0.043889
vt 0.092885 0.043889
vt 0.092885 0.098051
vt 0.731273 0.098051
vt 0.092885 0.043889
vt 0.731273 0.043889
vt 0.731273 0.019469
vt 0.092885 0.019469
vt 0.641353 0.318194
vt 0.641353 0.396993
vt 0.003532 0.396993
vt 0.003532 0.318194
vt 0.641353 0.396993
vt 0.641353 0.554263
vt 0.003532 0.554263
vt 0.003532 0.396993
vt 0.092885 0.098051
vt 0.731273 0.098051
vt 0.731273 0.255301
vt 0.092885 0.255301
vt 0.092885 0.019469
vt 0.731273 0.019469
vt 0.731273 0.098051
vt 0.092885 0.098051
vt 0.003532 0.342638
vt 0.003532 0.396993
vt 0.641353 0.396993
vt 0.641353 0.342638
vt 0.003532 0.396993
vt 0.003532 0.554263
vt 0.5577172 0.5119119
vt 0.641353 0.396993
vt 0.003532 0.318194
vt 0.003532 0.342638
vt 0.641353 0.342638
vt 0.641353 0.318194
vt 0.003532 0.554263
vt 0.003532 0.554263
vt 0.641353 0.554263
vt 0.5577172 0.5119119
vt 0.092885 0.255301
vt 0.092885 0.255301
vt 0.731273 0.255301
vt 0.731273 0.255301
vt 0.731273 0.098051
vt 0.092885 0.098051
vt 0.092885 0.255301
vt 0.731273 0.255301
vt 0.731273 0.043889
vt 0.092885 0.043889
vt 0.092885 0.098051
vt 0.731273 0.098051
vt 0.092885 0.043889
vt 0.731273 0.043889
vt 0.731273 0.019469
vt 0.092885 0.019469
vt 0.43620571 1
vt 0.80395633 0
vt 0.48045617 0.9998035
vt 0.87860024 1.9432455E-14
vt 0.6577891 0
vt 0.057214115 0.50551575
vt 0.3350825 1
vt 0.5005468 0
vt 0.8645395 0
vt 0.092885 0.255301
vt 0.092885 0.255301
vt 0.641353 0.554263
vt 0 0
vt 0.0005748956 0.43277326
vt 1.0000001 0.430118
vt 0.9994287 4.014481E-15
vt 0 0
vt 0.4544571 0.9685126
vt 0.99999994 0.36501658
vt 0.83666724 0
vn 0.99996066 -0.00833672 -0.0030282321
vn 0.99996066 -0.00833672 -0.0030282321
vn 0.99996066 -0.00833672 -0.003028232
vn 0.99996066 -0.00833672 -0.0030282324
vn 0.942608 0.3228751 0.08509855
vn 0.942608 0.32287508 0.08509855
vn 0.942608 0.32287508 0.08509855
vn 0.942608 0.3228751 0.08509855
vn -0.934448 0.34505922 0.08798399
vn -0.934448 0.34505922 0.08798399
vn -0.934448 0.34505925 0.087983996
vn -0.934448 0.34505925 0.087983996
vn -0.99994814 -0.008156301 -0.0061024115
vn -0.99994814 -0.008156301 -0.0061024115
vn -0.99994814 -0.008156301 -0.0061024115
vn -0.99994814 -0.008156303 -0.0061024115
vn 0.018168084 0.96648484 0.25608
vn 0.018168084 0.96648484 0.25608003
vn 0.018168086 0.96648484 0.25608003
vn 0.018168086 0.96648484 0.25608
vn 0.99992216 -0.012192441 -0.0026404895
vn 0.99992216 -0.012192441 -0.0026404893
vn 0.99992216 -0.01219244 -0.002640489
vn 0.99992216 -0.012192441 -0.0026404893
vn 0.9304479 0.35377884 0.09543185
vn 0.9304479 0.35377887 0.09543185
vn 0.9304479 0.35377893 0.09543185
vn 0.9304479 0.35377893 0.09543185
vn -0.9303642 0.35429505 0.09432707
vn -0.9303642 0.35429507 0.09432706
vn -0.9303642 0.35429505 0.09432707
vn -0.9303642 0.35429505 0.09432707
vn -0.9999348 -0.010909726 -0.003396721
vn -0.9999348 -0.010909724 -0.0033967204
vn -0.9999348 -0.010909724 -0.0033967209
vn -0.9999348 -0.010909724 -0.0033967204
vn -0.010595775 -0.96585155 -0.25887963
vn -0.010595776 -0.96585155 -0.25887966
vn -0.010595776 -0.96585155 -0.25887963
vn -0.010595776 -0.96585155 -0.25887963
vn -0.0016409763 0.965897 0.2589212
vn -0.0016409763 0.965897 0.2589212
vn -0.0016409762 0.965897 0.2589212
vn -0.0016409763 0.965897 0.2589212
vn -0.88828987 0.260646 0.37815967
vn -0.88828987 0.260646 0.37815964
vn -0.88828987 0.260646 0.37815964
vn -0.88828987 0.260646 0.3781596
vn -0.9487668 -0.02537055 0.31495705
vn -0.9487668 -0.02537055 0.31495705
vn -0.9487668 -0.02537055 0.31495702
vn -0.9487668 -0.02537055 0.31495708
vn -0.9691349 -0.022799911 0.24547458
vn -0.9691349 -0.022799915 0.24547458
vn -0.9691349 -0.022799913 0.24547455
vn -0.9691349 -0.022799915 0.24547455
vn -0.9052896 0.28925827 0.31109563
vn -0.9052896 0.28925827 0.31109563
vn -0.9052896 0.28925824 0.31109565
vn -0.9052896 0.28925827 0.31109565
vn 0.88443744 0.4361104 -0.16606675
vn 0.88443744 0.4361104 -0.16606675
vn 0.88443744 0.43611038 -0.16606675
vn 0.88443744 0.4361104 -0.16606675
vn 0.9489662 -0.0004184879 -0.31537744
vn 0.9489662 -0.0004184879 -0.31537744
vn 0.9489662 -0.0004184879 -0.31537744
vn 0.9489662 -0.0004184879 -0.3153774
vn -0.026353518 0.95590746 0.29248312
vn -0.026353518 0.95590746 0.29248318
vn -0.02635352 0.95590746 0.29248315
vn -0.026353518 0.95590746 0.29248318
vn -0.031575378 -0.96300906 -0.26761293
vn -0.03157538 -0.96300906 -0.2676129
vn -0.031575385 -0.96300906 -0.2676129
vn -0.031575378 -0.96300906 -0.26761293
vn -0.017169276 -0.9643447 -0.26409182
vn -0.017169274 -0.9643447 -0.26409182
vn -0.017169276 -0.9643447 -0.26409182
vn -0.017169276 -0.9643447 -0.26409185
vn 0.9680315 -0.002878178 -0.25081217
vn 0.9680314 -0.0028781777 -0.25081217
vn 0.9680315 -0.002878178 -0.25081217
vn 0.9680315 -0.0028781777 -0.25081214
vn 0.89899194 0.4219452 -0.11737024
vn 0.89899194 0.4219452 -0.117370255
vn 0.8989918 0.4219452 -0.11737024
vn 0.8989918 0.4219452 -0.117370225
vn -0.018340737 0.96415097 0.26471967
vn -0.018340738 0.96415097 0.26471967
vn -0.01834074 0.96415097 0.26471972
vn -0.018340737 0.96415097 0.26471967
vn -0.60080045 0.1416879 0.7867422
vn -0.60080045 0.1416879 0.7867422
vn -0.60080045 0.1416879 0.7867422
vn -0.60080045 0.1416879 0.7867422
vn -0.63230675 -0.04435821 0.7734472
vn -0.63230675 -0.044358213 0.7734472
vn -0.6323067 -0.04435821 0.7734472
vn -0.63230675 -0.044358205 0.77344716
vn -0.729418 -0.04077192 0.6828522
vn -0.729418 -0.04077192 0.6828522
vn -0.729418 -0.04077192 0.6828522
vn -0.729418 -0.04077192 0.68285215
vn -0.69416124 0.16834462 0.69985735
vn -0.69416124 0.16834463 0.69985735
vn -0.6941612 0.16834462 0.69985735
vn -0.6941611 0.16834463 0.6998574
vn 0.59542435 0.5535321 -0.58229893
vn 0.5954243 0.55353206 -0.5822989
vn 0.5954243 0.55353206 -0.5822989
vn 0.5954243 0.55353206 -0.5822989
vn 0.63221794 0.019731 -0.77453935
vn 0.632218 0.019730996 -0.7745393
vn 0.63221806 0.019731 -0.7745393
vn 0.63221806 0.019730996 -0.7745393
vn -0.019915491 0.956795 0.29008058
vn -0.01991549 0.956795 0.29008055
vn -0.019915488 0.956795 0.29008055
vn -0.01991549 0.956795 0.29008058
vn -0.018162508 -0.97180635 -0.23507987
vn -0.01816251 -0.97180635 -0.23507988
vn -0.018162508 -0.97180635 -0.23507987
vn -0.018162508 -0.97180635 -0.23507988
vn -0.01728632 -0.97273815 -0.23126088
vn -0.01728632 -0.97273815 -0.23126088
vn -0.01728632 -0.97273815 -0.23126087
vn -0.017286321 -0.97273815 -0.2312609
vn 0.7233657 0.015749535 -0.69028556
vn 0.7233657 0.015749536 -0.6902855
vn 0.7233657 0.015749533 -0.6902855
vn 0.7233657 0.015749533 -0.6902855
vn 0.6737615 0.5334378 -0.51136047
vn 0.6737614 0.5334379 -0.51136047
vn 0.6737614 0.53343785 -0.5113605
vn 0.6737615 0.5334379 -0.5113604
vn -0.04069469 0.9605909 0.27497107
vn -0.040694695 0.9605909 0.27497107
vn -0.040694688 0.9605909 0.27497107
vn -0.04069469 0.9605909 0.27497107
vn -0.22092174 0.084066615 0.9716617
vn -0.22092174 0.08406661 0.9716617
vn -0.22092173 0.08406659 0.9716617
vn -0.22092174 0.084066615 0.9716617
vn -0.2331335 -0.05014874 0.97115076
vn -0.23313347 -0.050148737 0.97115076
vn -0.2331335 -0.050148744 0.97115076
vn -0.2331335 -0.050148748 0.97115076
vn -0.34583893 -0.05132381 0.93688923
vn -0.34583896 -0.051323812 0.9368891
vn -0.34583896 -0.051323812 0.9368891
vn -0.34583893 -0.051323805 0.9368891
vn -0.33269337 0.10350027 0.9373381
vn -0.33269337 0.103500254 0.9373381
vn -0.33269337 0.10350026 0.9373381
vn -0.3326934 0.10350027 0.9373381
vn 0.2502953 0.58591425 -0.77075076
vn 0.2502953 0.58591425 -0.77075076
vn 0.2502953 0.58591425 -0.77075076
vn 0.2502953 0.58591425 -0.77075076
vn 0.26381686 0.03021447 -0.96409947
vn 0.26381686 0.030214468 -0.96409947
vn 0.26381686 0.03021447 -0.96409947
vn 0.26381686 0.03021447 -0.96409947
vn 0.0032365355 0.95979637 0.28067854
vn 0.0032365357 0.95979637 0.28067854
vn 0.0032365357 0.95979637 0.28067854
vn 0.0032365357 0.95979637 0.28067857
vn 0.021439156 -0.9717396 -0.2350796
vn 0.021439152 -0.9717396 -0.2350796
vn 0.021439156 -0.9717396 -0.2350796
vn 0.021439152 -0.9717396 -0.23507957
vn -0.00940388 -0.9731573 -0.22994894
vn -0.00940388 -0.9731573 -0.22994894
vn -0.009403881 -0.9731573 -0.22994894
vn -0.009403881 -0.9731573 -0.22994894
vn 0.34237155 0.026942136 -0.9391783
vn 0.3423715 0.026942138 -0.9391783
vn 0.3423715 0.026942132 -0.9391783
vn 0.3423715 0.026942136 -0.9391783
vn 0.31960386 0.5930592 -0.73900896
vn 0.31960386 0.59305924 -0.73900896
vn 0.31960386 0.5930592 -0.73900896
vn 0.31960386 0.59305924 -0.73900896
vn -0.020299403 0.9570068 0.2893544
vn -0.0202994 0.9570068 0.28935438
vn -0.020299403 0.9570068 0.2893544
vn -0.020299403 0.9570068 0.2893544
vn 0.96464765 -0.014756018 0.26312965
vn 0.96464765 -0.014756018 0.26312962
vn 0.96464765 -0.014756017 0.26312965
vn 0.96464765 -0.014756019 0.26312965
vn 0.9649495 -0.034418702 0.26016855
vn 0.9649495 -0.034418702 0.26016855
vn 0.9649495 -0.034418702 0.26016855
vn 0.9649495 -0.034418702 0.26016852
vn -7.980293E-06 -0.965775 -0.25938112
vn -7.980293E-06 -0.965775 -0.25938112
vn -7.980292E-06 -0.965775 -0.2593811
vn -7.980293E-06 -0.965775 -0.25938112
vn -0.00088750495 0.049089532 -0.99879396
vn -0.000887505 0.04908953 -0.99879396
vn -0.00088750507 0.049089532 -0.99879396
vn -0.000887505 0.04908953 -0.99879396
vn 0.00025316872 0.29222837 -0.9563485
vn 0.00025316878 0.29222843 -0.9563485
vn 0.00025316878 0.29222843 -0.9563485
vn 0.00025316875 0.2922284 -0.9563485
g ENV_inflWall01_Col_0
f 3/3/3 2/2/2 1/1/1
f 4/4/4 3/3/3 1/1/1
f 7/7/7 6/6/6 5/5/5
f 8/8/8 7/7/7 5/5/5
f 11/11/11 10/10/10 9/9/9
f 12/12/12 11/11/11 9/9/9
f 15/15/15 14/14/14 13/13/13
f 16/16/16 15/15/15 13/13/13
f 19/19/19 18/18/18 17/17/17
f 20/20/20 19/19/19 17/17/17
f 23/23/23 22/22/22 21/21/21
f 24/24/24 23/23/23 21/21/21
f 27/27/27 26/26/26 25/25/25
f 28/28/28 27/27/27 25/25/25
f 31/31/31 30/30/30 29/29/29
f 32/32/32 31/31/31 29/29/29
f 35/35/35 34/34/34 33/33/33
f 36/36/36 35/35/35 33/33/33
f 39/39/39 38/38/38 37/37/37
f 40/40/40 39/39/39 37/37/37
f 43/43/43 42/42/42 41/41/41
f 44/44/44 43/43/43 41/41/41
f 47/47/47 46/46/46 45/45/45
f 48/48/48 47/47/47 45/45/45
f 51/51/51 50/50/50 49/49/49
f 52/52/52 51/51/51 49/49/49
f 55/55/55 54/54/54 53/53/53
f 56/56/56 55/55/55 53/53/53
f 59/59/59 58/58/58 57/57/57
f 60/60/60 59/59/59 57/57/57
f 63/63/63 62/62/62 61/61/61
f 64/64/64 63/63/63 61/61/61
f 67/67/67 66/66/66 65/65/65
f 68/68/68 67/67/67 65/65/65
f 71/71/71 70/70/70 69/69/69
f 72/72/72 71/71/71 69/69/69
f 75/75/75 74/74/74 73/73/73
f 76/76/76 75/75/75 73/73/73
f 79/79/79 78/78/78 77/77/77
f 80/80/80 79/79/79 77/77/77
f 83/83/83 82/82/82 81/81/81
f 84/84/84 83/83/83 81/81/81
f 87/87/87 86/86/86 85/85/85
f 88/88/88 87/87/87 85/85/85
f 91/91/91 90/90/90 89/89/89
f 92/92/92 91/91/91 89/89/89
f 95/95/95 94/94/94 93/93/93
f 96/96/96 95/95/95 93/93/93
f 99/99/99 98/98/98 97/97/97
f 100/100/100 99/99/99 97/97/97
f 103/103/103 102/102/102 101/101/101
f 104/104/104 103/103/103 101/101/101
f 107/107/107 106/106/106 105/105/105
f 108/108/108 107/107/107 105/105/105
f 111/111/111 110/110/110 109/109/109
f 112/112/112 111/111/111 109/109/109
f 115/115/115 114/114/114 113/113/113
f 116/116/116 115/115/115 113/113/113
f 119/119/119 118/118/118 117/117/117
f 120/120/120 119/119/119 117/117/117
f 123/123/123 122/122/122 121/121/121
f 124/124/124 123/123/123 121/121/121
f 127/127/127 126/126/126 125/125/125
f 128/128/128 127/127/127 125/125/125
f 131/131/131 130/130/130 129/129/129
f 132/132/132 131/131/131 129/129/129
f 135/135/135 134/134/134 133/133/133
f 136/136/136 135/135/135 133/133/133
f 139/139/139 138/138/138 137/137/137
f 140/140/140 139/139/139 137/137/137
f 143/143/143 142/142/142 141/141/141
f 144/144/144 143/143/143 141/141/141
f 147/147/147 146/146/146 145/145/145
f 148/148/148 147/147/147 145/145/145
f 151/151/151 150/150/150 149/149/149
f 152/152/152 151/151/151 149/149/149
f 155/155/155 154/154/154 153/153/153
f 156/156/156 155/155/155 153/153/153
f 159/159/159 158/158/158 157/157/157
f 160/160/160 159/159/159 157/157/157
f 163/163/163 162/162/162 161/161/161
f 164/164/164 163/163/163 161/161/161
f 167/167/167 166/166/166 165/165/165
f 168/168/168 167/167/167 165/165/165
f 171/171/171 170/170/170 169/169/169
f 172/172/172 171/171/171 169/169/169
f 175/175/175 174/174/174 173/173/173
f 176/176/176 175/175/175 173/173/173
f 179/179/179 178/178/178 177/177/177
f 180/180/180 179/179/179 177/177/177
f 183/183/183 182/182/182 181/181/181
f 184/184/184 183/183/183 181/181/181
f 187/187/187 186/186/186 185/185/185
f 188/188/188 187/187/187 185/185/185
f 191/191/191 190/190/190 189/189/189
f 192/192/192 191/191/191 189/189/189
f 195/195/195 194/194/194 193/193/193
f 196/196/196 195/195/195 193/193/193
f 199/199/199 198/198/198 197/197/197
f 200/200/200 199/199/199 197/197/197
f 203/203/203 202/202/202 201/201/201
f 204/204/204 203/203/203 201/201/201
f 207/207/207 206/206/206 205/205/205
f 208/208/208 207/207/207 205/205/205
