g ENV_Floor_Stairs_D
v 22.600405 -0.26657677 -3.369627
v 22.600405 0.9162941 3.4323921
v -22.600405 0.9162941 3.4323921
v -22.600405 -0.26657677 -3.369627
v -22.600405 -0.29278564 -3.4144592
v 22.600405 -0.29278564 -3.4144592
v -22.600405 -0.9162922 -3.4234257
v 22.600405 -0.9162922 -3.4234257
v 22.600405 -0.8418026 -3.4323921
v -22.600405 -0.8418026 -3.4323921
v -22.600405 -0.34175682 -3.4323921
v 22.600405 -0.34175682 -3.4323921
v 22.600405 -0.29278564 -3.4144592
v -22.600405 -0.29278564 -3.4144592
vt 1.8413657 0.10957897
vt 1.8413657 -0.4148953
vt -1.6451961 -0.4148953
vt -1.6451961 0.10957897
vt -1.6451961 0.11298466
vt 1.8413657 0.11298466
vt -1.6451961 0.1589613
vt 1.8413657 0.1589613
vt 1.8413657 0.1555556
vt -1.6451961 0.1555556
vt -1.6451961 0.11639035
vt 1.8413657 0.11639035
vt 1.8413657 0.11298466
vt -1.6451961 0.11298466
vn 0.00026794523 0.9852143 -0.17132637
vn 0.00026794523 0.9852143 -0.17132637
vn 0.00026794523 0.9852143 -0.17132637
vn 0.00026794523 0.9852143 -0.17132637
vn 0.00026794523 0.8685124 -0.4956674
vn 0.00026794523 0.8685124 -0.4956674
vn 0.00026794523 -0.11696978 -0.99313545
vn 0.00026794523 -0.11696978 -0.99313545
vn 0.00026794523 -0.0132348165 -0.9999124
vn 0.00026794523 -0.0132348165 -0.9999124
vn 0.00026794523 0.034310386 -0.9994112
vn 0.00026794523 0.034310386 -0.9994112
vn 0.00026794523 0.34119296 -0.93999326
vn 0.00026794523 0.34119296 -0.93999326
g ENV_Floor_Stairs_D_0
f 3/3/3 2/2/2 1/1/1
f 4/4/4 3/3/3 1/1/1
f 4/4/4 1/1/1 5/5/5
f 1/1/1 6/6/6 5/5/5
f 9/9/9 8/8/8 7/7/7
f 10/10/10 9/9/9 7/7/7
f 10/10/10 11/11/11 9/9/9
f 11/11/11 12/12/12 9/9/9
f 13/13/13 12/12/12 11/11/11
f 14/14/14 13/13/13 11/11/11
