g ENV_SY02_GX_Section05_Slime_MO
v 11.388431 62.186073 143.87682
v 14.3132305 62.209686 143.87682
v 14.316181 59.93418 145.50891
v 11.379577 59.91057 145.48825
v 14.3132305 62.209686 143.87682
v 19.870644 62.209686 143.87682
v 19.870644 59.93418 145.50597
v 14.316181 58.17517 146.75143
v 11.379577 59.91057 145.48825
v 11.379577 58.157463 146.72783
v 14.316181 56.790985 147.76375
v 11.382527 56.773277 147.74014
v 19.873596 58.17517 146.74849
v 22.639023 58.160416 146.72487
v 22.639023 59.91352 145.4853
v 22.627216 62.189026 143.87386
v 19.870644 62.209686 143.87682
v 22.639023 56.776222 147.7372
v 19.873596 56.79393 147.7608
v 22.641973 55.2061 149.1804
v 14.316181 55.22381 149.20107
v 11.382527 56.773277 147.74014
v 11.382527 55.203148 149.18336
v 19.873596 55.22676 149.20107
v 22.641973 54.202637 150.23404
v 19.876547 54.223297 150.2547
v 14.319133 54.223297 150.2547
v 11.382527 54.199684 150.237
v 14.319133 52.86862 151.91042
v 11.382527 54.199684 150.237
v 11.382527 52.84501 151.89272
v 19.876547 52.871574 151.91042
v 22.641973 52.84796 151.89272
v 22.641973 54.202637 150.23404
v 14.319133 52.009773 153.14113
v 11.382527 52.84501 151.89272
v 11.385479 51.983215 153.12637
v 19.876547 52.009773 153.14113
v 22.644924 51.986168 153.12343
v 22.641973 52.84796 151.89272
v 22.644924 50.841034 154.90309
v 14.322084 50.864647 154.9208
v 11.385479 51.983215 153.12637
v 11.385479 50.841034 154.90605
v 19.876547 50.864647 154.91786
v 22.644924 50.044167 156.25188
v 14.322084 50.06778 156.26663
v 11.385479 50.041214 156.25482
v 19.879498 50.06778 156.26663
v 22.644924 49.232544 158.08171
v 19.879498 49.25911 158.09352
v 14.322084 49.25911 158.09352
v 11.385479 50.041214 156.25482
v 11.385479 49.232544 158.08467
v 14.322084 48.612755 159.96468
v 11.388431 48.586197 159.95879
v 14.325035 48.246788 161.69418
v 11.388431 48.217278 161.69122
v 19.879498 48.615707 159.96468
v 22.647877 48.586197 159.95583
v 22.644924 49.232544 158.08171
v 14.325035 47.992973 163.41188
v 11.391382 47.963455 163.40892
v 19.88245 48.246788 161.69418
v 22.647877 48.217278 161.68828
v 22.647877 48.586197 159.95583
v 14.325035 47.874916 165.12662
v 11.391382 47.845406 165.12662
v 19.88245 47.992973 163.41188
v 14.327987 47.936897 166.55803
v 11.391382 47.907387 166.56097
v 22.650827 47.966408 163.40892
v 22.647877 48.217278 161.68828
v 22.650827 47.84836 165.12662
v 19.88245 47.874916 165.12662
v 22.650827 47.91033 166.55803
v 19.8854 47.93985 166.55803
v 22.647877 48.255646 168.65054
v 19.88245 48.282204 168.64464
v 14.325035 48.282204 168.64464
v 11.391382 48.252693 168.65349
v 14.327987 48.84001 170.76666
v 11.403187 48.825256 170.75781
v 19.8854 48.842964 170.76666
v 22.647877 48.255646 168.65054
v 22.639023 48.82821 170.75487
vt 0.36451992 0.999808
vt 0.4507099 1.0007764
vt 0.4507099 0.89328104
vt 0.3635515 0.89328104
vt 0.4507099 1.0007764
vt 0.61631095 1.0007764
vt 0.61631095 0.89328104
vt 0.4507099 0.8293649
vt 0.3635515 0.89328104
vt 0.3635515 0.8293649
vt 0.4507099 0.77803826
vt 0.3635515 0.77900666
vt 0.61631095 0.8293649
vt 0.69862723 0.8293649
vt 0.69862723 0.89328104
vt 0.69765884 1.0007764
vt 0.61631095 1.0007764
vt 0.69862723 0.77900666
vt 0.61631095 0.77803826
vt 0.69862723 0.7150905
vt 0.4507099 0.7150905
vt 0.3635515 0.77900666
vt 0.3635515 0.7150905
vt 0.61631095 0.7150905
vt 0.69862723 0.6724797
vt 0.61631095 0.6724797
vt 0.4507099 0.6724797
vt 0.3635515 0.6724797
vt 0.4507099 0.60856354
vt 0.3635515 0.6724797
vt 0.3635515 0.60856354
vt 0.61631095 0.60856354
vt 0.69862723 0.60856354
vt 0.69862723 0.6724797
vt 0.4507099 0.5640159
vt 0.3635515 0.60856354
vt 0.3635515 0.5640159
vt 0.61631095 0.5640159
vt 0.69862723 0.5640159
vt 0.69862723 0.60856354
vt 0.69862723 0.5010681
vt 0.4507099 0.5010681
vt 0.3635515 0.5640159
vt 0.3635515 0.5010681
vt 0.61631095 0.5010681
vt 0.69862723 0.45458362
vt 0.4507099 0.45458362
vt 0.3635515 0.45458362
vt 0.61631095 0.45458362
vt 0.69862723 0.39550957
vt 0.61631095 0.39454114
vt 0.4507099 0.39550957
vt 0.3635515 0.45458362
vt 0.3635515 0.39550957
vt 0.4507099 0.33643553
vt 0.3635515 0.33643553
vt 0.4507099 0.2841405
vt 0.3635515 0.2841405
vt 0.61631095 0.33643553
vt 0.69862723 0.33643553
vt 0.69862723 0.39550957
vt 0.4507099 0.23184542
vt 0.3635515 0.23184542
vt 0.61631095 0.28317204
vt 0.69862723 0.28317204
vt 0.69862723 0.33643553
vt 0.4507099 0.18148723
vt 0.3635515 0.1805188
vt 0.61631095 0.23184542
vt 0.4507099 0.13887644
vt 0.3635515 0.13790801
vt 0.69862723 0.23184542
vt 0.69862723 0.28317204
vt 0.69862723 0.1805188
vt 0.61631095 0.1805188
vt 0.69862723 0.13790801
vt 0.61631095 0.13887644
vt 0.69862723 0.07496026
vt 0.61631095 0.07592869
vt 0.4507099 0.07592869
vt 0.3635515 0.07496026
vt 0.4507099 0.01007566
vt 0.36451992 0.01007566
vt 0.61631095 0.01007566
vt 0.69862723 0.07496026
vt 0.69765884 0.01007566
vn -0.009205384 0.57981235 0.81469804
vn -0.0012802873 0.57981235 0.814749
vn -0.0012802873 0.57981235 0.814749
vn -0.009205384 0.57981235 0.81469804
vn -0.0012802873 0.57981235 0.814749
vn 0.0026822612 0.57981235 0.8147456
vn 0.0026822612 0.57981235 0.8147456
vn -0.0052428357 0.5837749 0.8118986
vn -0.009205384 0.57981235 0.81469804
vn -0.009205384 0.5837749 0.81186336
vn -0.0052428357 0.6392506 0.7689807
vn -0.009205384 0.6392506 0.76894337
vn 0.0026822612 0.5837749 0.81191105
vn 0.010607358 0.5837749 0.81184626
vn 0.010607358 0.57981235 0.814681
vn 0.0066448096 0.57981235 0.81472296
vn 0.0026822612 0.57981235 0.8147456
vn 0.010607358 0.6392506 0.7689253
vn 0.0026822612 0.6392506 0.76899385
vn 0.010607358 0.6947263 0.71919596
vn -0.0052428357 0.6947263 0.7192551
vn -0.009205384 0.6392506 0.76894337
vn -0.009205384 0.6947263 0.7192153
vn 0.0026822612 0.6947263 0.7192692
vn 0.010607358 0.7541645 0.6565999
vn 0.0026822612 0.7541645 0.65668005
vn -0.0052428357 0.7541645 0.6566646
vn -0.009205384 0.7541645 0.65662104
vn -0.0052428357 0.79379 0.6081694
vn -0.009205384 0.7541645 0.65662104
vn -0.009205384 0.79379 0.6081223
vn 0.0026822612 0.79379 0.60818607
vn 0.010607358 0.79379 0.60809946
vn 0.010607358 0.7541645 0.6565999
vn -0.0052428357 0.8334155 0.5526221
vn -0.009205384 0.79379 0.6081223
vn -0.009205384 0.8334155 0.5525702
vn 0.0026822612 0.8334155 0.5526404
vn 0.010607358 0.8334155 0.5525451
vn 0.010607358 0.79379 0.60809946
vn 0.010607358 0.8492657 0.52785915
vn -0.0052428357 0.8492657 0.5279397
vn -0.009205384 0.8334155 0.5525702
vn -0.009205384 0.8492657 0.52788544
vn 0.0026822612 0.8492657 0.52795887
vn 0.010607358 0.8928537 0.45022193
vn -0.0052428357 0.8928537 0.45031637
vn -0.009205384 0.8928537 0.45025277
vn 0.0026822612 0.8928537 0.45033887
vn 0.010607358 0.9324792 0.3610679
vn 0.0026822612 0.9324792 0.3612137
vn -0.0052428357 0.9324792 0.36118564
vn -0.009205384 0.8928537 0.45025277
vn -0.009205384 0.9324792 0.36110634
vn -0.0052428357 0.9641796 0.26519853
vn -0.009205384 0.9641796 0.26509053
vn -0.0052428357 0.98399234 0.17813367
vn -0.009205384 0.98399234 0.17797282
vn 0.0026822612 0.9641796 0.26523674
vn 0.010607358 0.9641796 0.26503813
vn 0.010607358 0.9324792 0.3610679
vn -0.0052428357 0.99588 0.09052911
vn -0.009205384 0.99588 0.09021219
vn 0.0026822612 0.98399234 0.17819054
vn 0.010607358 0.98399234 0.17789477
vn 0.010607358 0.9641796 0.26503813
vn -0.0052428357 0.9998425 0.016955035
vn -0.009205384 0.9998425 0.015172117
vn 0.0026822612 0.99588 0.09064097
vn -0.0052428357 0.9919174 -0.12677717
vn -0.009205384 0.9919174 -0.12655106
vn 0.010607358 0.99588 0.09005811
vn 0.010607358 0.98399234 0.17789477
vn 0.010607358 0.9998425 0.014227346
vn 0.0026822612 0.9998425 0.017542485
vn 0.010607358 0.9919174 -0.12644127
vn 0.0026822612 0.9919174 -0.12685707
vn 0.010607358 0.97606725 -0.21720998
vn 0.0026822612 0.97606725 -0.21745229
vn -0.0012802873 0.97606725 -0.21746503
vn -0.009205384 0.97606725 -0.2172739
vn -0.0012802873 0.96814215 -0.25039783
vn -0.009205384 0.9641796 -0.26509053
vn 0.0026822612 0.96814215 -0.25038677
vn 0.010607358 0.97606725 -0.21720998
vn 0.0066448096 0.9641796 -0.26516706
g ENV_SY02_GX_Section05_Slime_MO_0
f 3/3/3 2/2/2 1/1/1
f 4/4/4 3/3/3 1/1/1
f 6/6/6 5/5/5 3/3/3
f 7/7/7 6/6/6 3/3/3
f 3/3/3 8/8/8 7/7/7
f 8/8/8 3/3/3 9/9/9
f 10/10/10 8/8/8 9/9/9
f 11/11/11 8/8/8 10/10/10
f 12/12/12 11/11/11 10/10/10
f 8/8/8 13/13/13 7/7/7
f 8/8/8 11/11/11 13/13/13
f 7/7/7 13/13/13 14/14/14
f 15/15/15 7/7/7 14/14/14
f 15/15/15 16/16/16 7/7/7
f 16/16/16 17/17/17 7/7/7
f 14/14/14 13/13/13 18/18/18
f 13/13/13 19/19/19 18/18/18
f 11/11/11 19/19/19 13/13/13
f 18/18/18 19/19/19 20/20/20
f 11/11/11 21/21/21 19/19/19
f 21/21/21 11/11/11 22/22/22
f 23/23/23 21/21/21 22/22/22
f 19/19/19 24/24/24 20/20/20
f 21/21/21 24/24/24 19/19/19
f 20/20/20 24/24/24 25/25/25
f 24/24/24 26/26/26 25/25/25
f 27/27/27 21/21/21 23/23/23
f 21/21/21 27/27/27 24/24/24
f 27/27/27 26/26/26 24/24/24
f 28/28/28 27/27/27 23/23/23
f 27/27/27 29/29/29 26/26/26
f 29/29/29 27/27/27 30/30/30
f 31/31/31 29/29/29 30/30/30
f 29/29/29 32/32/32 26/26/26
f 26/26/26 32/32/32 33/33/33
f 34/34/34 26/26/26 33/33/33
f 29/29/29 35/35/35 32/32/32
f 35/35/35 29/29/29 36/36/36
f 37/37/37 35/35/35 36/36/36
f 35/35/35 38/38/38 32/32/32
f 32/32/32 38/38/38 39/39/39
f 40/40/40 32/32/32 39/39/39
f 39/39/39 38/38/38 41/41/41
f 35/35/35 42/42/42 38/38/38
f 42/42/42 35/35/35 43/43/43
f 44/44/44 42/42/42 43/43/43
f 38/38/38 45/45/45 41/41/41
f 42/42/42 45/45/45 38/38/38
f 41/41/41 45/45/45 46/46/46
f 47/47/47 42/42/42 44/44/44
f 42/42/42 47/47/47 45/45/45
f 48/48/48 47/47/47 44/44/44
f 45/45/45 49/49/49 46/46/46
f 47/47/47 49/49/49 45/45/45
f 46/46/46 49/49/49 50/50/50
f 49/49/49 51/51/51 50/50/50
f 47/47/47 52/52/52 49/49/49
f 52/52/52 51/51/51 49/49/49
f 52/52/52 47/47/47 53/53/53
f 54/54/54 52/52/52 53/53/53
f 55/55/55 52/52/52 54/54/54
f 52/52/52 55/55/55 51/51/51
f 56/56/56 55/55/55 54/54/54
f 57/57/57 55/55/55 56/56/56
f 58/58/58 57/57/57 56/56/56
f 55/55/55 59/59/59 51/51/51
f 55/55/55 57/57/57 59/59/59
f 51/51/51 59/59/59 60/60/60
f 61/61/61 51/51/51 60/60/60
f 62/62/62 57/57/57 58/58/58
f 63/63/63 62/62/62 58/58/58
f 57/57/57 64/64/64 59/59/59
f 57/57/57 62/62/62 64/64/64
f 59/59/59 64/64/64 65/65/65
f 66/66/66 59/59/59 65/65/65
f 67/67/67 62/62/62 63/63/63
f 68/68/68 67/67/67 63/63/63
f 62/62/62 69/69/69 64/64/64
f 62/62/62 67/67/67 69/69/69
f 70/70/70 67/67/67 68/68/68
f 71/71/71 70/70/70 68/68/68
f 64/64/64 69/69/69 72/72/72
f 73/73/73 64/64/64 72/72/72
f 72/72/72 69/69/69 74/74/74
f 67/67/67 75/75/75 69/69/69
f 69/69/69 75/75/75 74/74/74
f 67/67/67 70/70/70 75/75/75
f 74/74/74 75/75/75 76/76/76
f 75/75/75 77/77/77 76/76/76
f 70/70/70 77/77/77 75/75/75
f 76/76/76 77/77/77 78/78/78
f 77/77/77 79/79/79 78/78/78
f 80/80/80 70/70/70 71/71/71
f 70/70/70 80/80/80 77/77/77
f 80/80/80 79/79/79 77/77/77
f 81/81/81 80/80/80 71/71/71
f 82/82/82 80/80/80 81/81/81
f 79/79/79 80/80/80 82/82/82
f 83/83/83 82/82/82 81/81/81
f 84/84/84 79/79/79 82/82/82
f 85/85/85 79/79/79 84/84/84
f 86/86/86 85/85/85 84/84/84
