g ENV_S07_Bgr_Goop_Center_WallDoor
v 336.70767 32.12439 241.54068
v 316.49338 24.81955 205.20529
v 342.54315 24.945496 231.53848
v 313.05084 32.07193 217.7474
v 330.22147 38.946472 251.56381
v 308.60077 38.95694 229.96414
v 323.49387 44.120728 261.05173
v 303.51047 44.11023 240.9949
v 315.33887 48.42386 271.4003
v 296.82486 48.42386 252.88626
v 307.8451 50.953278 280.56284
v 290.08676 50.953278 262.78348
v 299.0499 52.349182 290.16617
v 281.76382 52.349182 272.88016
v 290.11823 52.349182 299.09787
v 272.83218 52.349182 281.8118
v 262.73553 50.953278 290.13474
v 280.51486 50.953278 307.89304
v 252.8383 48.42386 296.87283
v 271.35233 48.42386 315.3868
v 240.94693 44.11023 303.55844
v 261.00378 44.120728 323.54184
v 229.91618 38.95694 308.6487
v 251.51587 38.946472 330.26944
v 217.69945 32.07193 313.0988
v 241.49269 32.12439 336.75565
v 205.15735 24.81955 316.54135
v 231.49051 24.945496 342.5911
v 313.05084 32.07193 217.7474
v 315.59076 24.809052 205.08987
v 316.49338 24.81955 205.20529
v 312.17972 31.788544 217.15964
v 314.97153 24.809052 206.45425
v 307.71915 38.652588 229.30295
v 308.60077 38.95694 229.96414
v 303.51047 44.11023 240.9949
v 311.88586 31.116821 217.548
v 313.52316 24.809052 210.35861
v 307.3833 37.928406 229.51285
v 302.61835 43.79538 240.29172
v 311.18265 29.301117 218.69199
v 313.26077 24.809052 212.04837
v 306.73257 35.881775 230.41544
v 311.22464 28.639893 219.40567
v 313.43918 24.809052 213.04544
v 311.5605 28.377502 220.02493
v 307.1104 34.874207 231.53848
v 306.77457 35.17859 230.9927
v 302.34546 43.029205 240.44913
v 295.91174 48.119507 252.19357
v 296.82486 48.42386 252.88626
v 290.08676 50.953278 262.78348
v 301.86267 40.079956 241.6561
v 302.2195 39.765106 242.19138
v 295.7543 43.88983 253.65244
v 301.8102 40.825134 241.17331
v 295.62836 47.332336 252.23557
v 289.22614 50.61743 261.9963
v 295.37646 44.21518 253.20114
v 295.282 44.99185 252.82327
v 288.8378 46.58716 262.57358
v 289.22614 46.26181 263.02487
v 281.19708 47.594727 272.69125
v 288.98474 49.809265 261.95438
v 288.72235 47.384827 262.2587
v 280.9242 52.013336 272.0615
v 281.76382 52.349182 272.88016
v 272.83218 52.349182 281.8118
v 280.79825 47.920105 272.2609
v 280.6303 48.72824 272.03
v 280.7248 51.19467 271.93558
v 272.02405 52.013336 280.97214
v 262.73553 50.953278 290.13474
v 272.21295 47.920105 280.84622
v 272.64325 47.594727 281.24503
v 271.8876 51.19467 280.77274
v 271.98206 48.72824 280.6783
v 261.94836 50.61743 289.27408
v 262.52563 46.58716 288.88577
v 262.97693 46.26181 289.26358
v 253.60446 43.88983 295.80228
v 261.9064 49.809265 289.03268
v 262.21075 47.384827 288.7703
v 252.1456 48.119507 295.9597
v 252.8383 48.42386 296.87283
v 240.94693 44.11023 303.55844
v 253.15317 44.21518 295.4244
v 252.18759 47.332336 295.6763
v 252.77533 44.99185 295.33
v 240.24373 43.79538 302.6663
v 241.60814 40.079956 301.9106
v 242.1434 39.765106 302.2675
v 231.49051 34.874207 307.15836
v 240.40115 43.029205 302.3934
v 241.12535 40.825134 301.8582
v 229.25497 38.652588 307.76712
v 229.91618 38.95694 308.6487
v 217.69945 32.07193 313.0988
v 230.94473 35.17859 306.82254
v 229.46487 37.928406 307.43124
v 230.3675 35.881775 306.78055
v 217.1117 31.788544 312.2277
v 219.35773 28.639893 311.2726
v 219.97696 28.377502 311.60843
v 212.99747 24.809052 313.48715
v 212.0004 24.809052 313.30875
v 218.64404 29.301117 311.23062
v 210.31062 24.809052 313.57114
v 217.50003 31.116821 311.9338
v 206.40631 24.809052 315.0195
v 205.0419 24.809052 315.6387
v 205.15735 24.81955 316.54135
v 212.99747 24.809052 313.48715
v 242.68918 24.809052 343.16837
v 247.17075 28.44049 338.6763
v 219.97696 28.377502 311.60843
v 250.5083 24.809052 343.93454
v 255.08434 34.86371 330.76273
v 231.49051 34.874207 307.15836
v 242.1434 39.765106 302.2675
v 260.20612 32.680664 334.23672
v 260.80438 24.809052 337.19644
v 262.89297 39.786102 322.95407
v 263.9635 27.380432 334.03732
v 337.14847 24.798553 260.85233
v 271.8351 43.88983 314.02243
v 253.60446 43.88983 295.80228
v 262.97693 46.26181 289.26358
v 267.84683 37.48758 326.59598
v 333.98932 27.380432 264.01144
v 343.88657 24.798553 250.55624
v 279.79068 46.26181 306.05637
v 276.58957 41.507355 317.84274
v 271.1949 31.935486 326.80594
v 326.75793 31.935486 271.24283
v 334.18875 32.670166 260.25406
v 288.62787 47.594727 297.22964
v 272.64325 47.594727 281.24503
v 281.19708 47.594727 272.69125
v 284.3772 43.826843 310.06564
v 279.50732 35.74533 318.4935
v 297.1817 47.594727 288.6758
v 289.22614 46.26181 263.02487
v 293.01498 45.128296 301.42783
v 286.84366 37.938904 311.15714
v 318.44553 35.74533 279.55527
v 326.54803 37.48758 267.8948
v 306.0084 46.26181 279.83865
v 301.37988 45.128296 293.06296
v 295.03012 39.16687 302.97067
v 311.1092 37.938904 286.88113
v 313.97446 43.88983 271.8726
v 295.7543 43.88983 253.65244
v 302.2195 39.765106 242.19138
v 310.01767 43.826843 284.4252
v 302.92273 39.16687 295.0781
v 317.7948 41.507355 276.63754
v 322.9061 39.786102 262.94095
v 330.71475 34.86371 255.1323
v 307.1104 34.874207 231.53848
v 311.5605 28.377502 220.02493
v 338.62833 28.44049 247.21872
v 313.43918 24.809052 213.04544
v 343.1204 24.798553 242.73715
vt 0.073510244 0.19966556
vt 0.07218924 0.19966556
vt 0.07218924 0.19867481
vt 0.07317999 0.20032606
vt 0.07450099 0.20032606
vt 0.07450099 0.2013168
vt 0.07582198 0.20098655
vt 0.07582198 0.2019773
vt 0.07714298 0.20164706
vt 0.07714298 0.20230755
vt 0.07813373 0.2019773
vt 0.07813373 0.2026378
vt 0.079454735 0.2019773
vt 0.079454735 0.20296805
vt 0.08077573 0.2019773
vt 0.08077573 0.20296805
vt 0.082096726 0.2026378
vt 0.082096726 0.2019773
vt 0.083087474 0.20230755
vt 0.083087474 0.20164706
vt 0.08440848 0.2019773
vt 0.08440848 0.20098655
vt 0.08572947 0.2013168
vt 0.08572947 0.20032606
vt 0.08705047 0.20032606
vt 0.08705047 0.19966556
vt 0.088041216 0.19966556
vt 0.088041216 0.19867481
vt 0.07317999 0.20032606
vt 0.07218924 0.19966556
vt 0.07218924 0.19966556
vt 0.073510244 0.20032606
vt 0.07251949 0.19966556
vt 0.07450099 0.2013168
vt 0.07450099 0.2013168
vt 0.07582198 0.2019773
vt 0.073510244 0.20032606
vt 0.072849736 0.19966556
vt 0.07450099 0.20098655
vt 0.07582198 0.2019773
vt 0.073510244 0.1999958
vt 0.072849736 0.19966556
vt 0.07483123 0.20098655
vt 0.073510244 0.1999958
vt 0.072849736 0.19966556
vt 0.073510244 0.1999958
vt 0.07483123 0.20065631
vt 0.07483123 0.20065631
vt 0.07582198 0.20164706
vt 0.07714298 0.20230755
vt 0.07714298 0.20230755
vt 0.07813373 0.2026378
vt 0.07582198 0.2013168
vt 0.07582198 0.2013168
vt 0.07714298 0.20164706
vt 0.07582198 0.2013168
vt 0.07714298 0.20230755
vt 0.07813373 0.2026378
vt 0.07714298 0.20164706
vt 0.07714298 0.2019773
vt 0.07813373 0.2019773
vt 0.07813373 0.2019773
vt 0.079454735 0.20230755
vt 0.07813373 0.2026378
vt 0.07813373 0.20230755
vt 0.079454735 0.2026378
vt 0.079454735 0.20296805
vt 0.08077573 0.20296805
vt 0.079454735 0.20230755
vt 0.079454735 0.20230755
vt 0.079454735 0.2026378
vt 0.08077573 0.2026378
vt 0.082096726 0.2026378
vt 0.08077573 0.20230755
vt 0.08077573 0.20230755
vt 0.08077573 0.2026378
vt 0.08077573 0.20230755
vt 0.082096726 0.2026378
vt 0.082096726 0.2019773
vt 0.082096726 0.2019773
vt 0.083087474 0.20164706
vt 0.082096726 0.2026378
vt 0.082096726 0.20230755
vt 0.083087474 0.20230755
vt 0.083087474 0.20230755
vt 0.08440848 0.2019773
vt 0.083087474 0.20164706
vt 0.083087474 0.20230755
vt 0.083087474 0.2019773
vt 0.08440848 0.2019773
vt 0.08440848 0.2013168
vt 0.08440848 0.2013168
vt 0.085399225 0.20065631
vt 0.08440848 0.20164706
vt 0.08440848 0.2013168
vt 0.08572947 0.2013168
vt 0.08572947 0.2013168
vt 0.08705047 0.20032606
vt 0.085399225 0.20065631
vt 0.08572947 0.20098655
vt 0.085399225 0.20098655
vt 0.08705047 0.20032606
vt 0.08672022 0.1999958
vt 0.08672022 0.1999958
vt 0.08738072 0.19966556
vt 0.08738072 0.19966556
vt 0.08672022 0.1999958
vt 0.08738072 0.19966556
vt 0.08672022 0.20032606
vt 0.08771097 0.19966556
vt 0.088041216 0.19966556
vt 0.088041216 0.19966556
vt 0.084738724 0.049071774
vt 0.083747976 0.04444828
vt 0.083087474 0.04444828
vt 0.08407822 0.049071774
vt 0.083087474 0.04378778
vt 0.082096726 0.04510878
vt 0.083087474 0.049071774
vt 0.08176648 0.049071774
vt 0.082096726 0.04444828
vt 0.082096726 0.04345753
vt 0.08110598 0.045769278
vt 0.08176648 0.04378778
vt 0.073510244 0.043127283
vt 0.08011523 0.04609953
vt 0.08077573 0.049071774
vt 0.079454735 0.049071774
vt 0.08110598 0.04477853
vt 0.073840484 0.04345753
vt 0.07251949 0.04345753
vt 0.07912448 0.046429776
vt 0.08011523 0.045439027
vt 0.08077573 0.04411803
vt 0.07483123 0.04411803
vt 0.073840484 0.04411803
vt 0.07813373 0.046429776
vt 0.07846399 0.049071774
vt 0.07714298 0.049071774
vt 0.07912448 0.045769278
vt 0.08011523 0.04477853
vt 0.07714298 0.046429776
vt 0.07582198 0.049071774
vt 0.07813373 0.045769278
vt 0.07912448 0.04477853
vt 0.07549174 0.04444828
vt 0.07450099 0.04477853
vt 0.076152235 0.046429776
vt 0.07747324 0.045769278
vt 0.07813373 0.04510878
vt 0.07648249 0.04477853
vt 0.07549174 0.04609953
vt 0.07483123 0.049071774
vt 0.073510244 0.048741527
vt 0.07648249 0.045439027
vt 0.07747324 0.04510878
vt 0.07549174 0.04510878
vt 0.07450099 0.045439027
vt 0.073510244 0.04510878
vt 0.07251949 0.048741527
vt 0.07152874 0.048741527
vt 0.07251949 0.04444828
vt 0.07086824 0.048741527
vt 0.07185899 0.04411803
vn 0.37184483 0.8575789 -0.3553729
vn 0.37184483 0.8419175 -0.39103234
vn 0.37967557 0.8419175 -0.38343364
vn 0.36401415 0.84974813 -0.3813421
vn 0.3248605 0.8889018 -0.32298476
vn 0.3248605 0.8810711 -0.3437723
vn 0.25438398 0.93588614 -0.2437333
vn 0.25438398 0.9280554 -0.27203304
vn 0.18390745 0.9672091 -0.17517017
vn 0.18390745 0.95937836 -0.21394214
vn 0.11343092 0.9907012 -0.075130284
vn 0.10560024 0.9907012 -0.0857886
vn 0.035123706 0.99853194 -0.04123448
vn 0.027292967 0.99853194 -0.046787817
vn -0.035352826 0.99853194 0.041038144
vn -0.051014304 0.99853194 0.01820772
vn -0.121490836 0.9907012 0.061246216
vn -0.10582936 0.9907012 0.08550605
vn -0.1997981 0.95937836 0.19918314
vn -0.18413663 0.9672091 0.17492928
vn -0.27027452 0.9280554 0.2562516
vn -0.25461316 0.93588614 0.2434939
vn -0.34075105 0.8810711 0.32802817
vn -0.3250897 0.8889018 0.32275409
vn -0.37990475 0.84974813 0.36551398
vn -0.372074 0.8575789 0.35513297
vn -0.3877355 0.8419175 0.3752813
vn -0.37990475 0.8419175 0.38320655
vn 0.36401415 0.84974813 -0.3813421
vn -0.14498293 0.8419175 -0.5197642
vn 0.37184483 0.8419175 -0.39103234
vn -0.42688906 0.7166259 -0.55155504
vn -0.9045633 0.1997981 -0.37662438
vn -0.40339684 0.7322873 -0.5486586
vn 0.3248605 0.8810711 -0.3437723
vn 0.25438398 0.9280554 -0.27203304
vn -0.91239405 0.15281367 -0.37971708
vn -0.93588614 0.12932158 -0.3277088
vn -0.8889018 0.12932158 -0.439465
vn -0.41122758 0.74794877 -0.5210225
vn -0.9437169 0.027522087 -0.32960728
vn -0.9515476 -0.28570688 -0.11370438
vn -0.92022467 -0.0038008094 -0.3913721
vn -0.89673257 -0.42665994 -0.11760947
vn -0.372074 -0.8651805 0.3361899
vn -0.36424327 -0.8651805 0.3446586
vn -0.34075105 -0.880842 0.32864285
vn -0.87324035 -0.47364426 -0.1145095
vn -0.8654096 0.09799862 -0.49138832
vn -0.41122758 0.76361024 -0.49778634
vn 0.18390745 0.95937836 -0.21394214
vn 0.10560024 0.9907012 -0.0857886
vn -0.82625604 -0.5127979 -0.2331079
vn -0.27027452 -0.9278263 0.25707996
vn -0.1997981 -0.9591492 0.20028372
vn -0.89673257 -0.035123706 -0.44117686
vn -0.8340868 0.0745064 -0.54657847
vn -0.41905832 0.7792717 -0.4659675
vn -0.771441 -0.55978227 -0.30252704
vn -0.8575789 -0.0664466 -0.5100425
vn -0.6931337 -0.5911051 -0.41250512
vn -0.121490836 -0.9904721 0.064846344
vn -0.051014304 -0.9983028 0.028089968
vn -0.78710234 0.0745064 -0.61230606
vn -0.8027638 -0.08210802 -0.59061706
vn -0.42688906 0.7792717 -0.45880422
vn 0.027292967 0.99853194 -0.046787817
vn -0.051014304 0.99853194 0.01820772
vn -0.61482644 -0.59893584 -0.5130929
vn -0.740118 -0.08210802 -0.6674456
vn -0.7322873 0.0745064 -0.6769077
vn -0.45038128 0.7792717 -0.43576634
vn -0.121490836 0.9907012 0.061246216
vn -0.5130271 -0.59893584 -0.61488134
vn 0.027292967 -0.9983028 -0.05144536
vn -0.6696415 0.0745064 -0.7389378
vn -0.6696415 -0.08210802 -0.7381318
vn -0.47387338 0.7792717 -0.4100971
vn -0.41122758 -0.5911051 -0.69389236
vn 0.10560024 -0.9904721 -0.08839475
vn 0.18390745 -0.9591492 -0.21496718
vn -0.61482644 0.0745064 -0.78513515
vn -0.5913342 -0.08210802 -0.8022357
vn -0.4973656 0.76361024 -0.41173643
vn -0.1997981 0.95937836 0.19918314
vn -0.27027452 0.9280554 0.2562516
vn -0.30159748 -0.55978227 -0.77180487
vn -0.5443499 0.0745064 -0.8355429
vn -0.5130271 -0.0664466 -0.85579675
vn -0.5208578 0.74794877 -0.4114362
vn -0.21545947 -0.5127979 -0.8310328
vn 0.25438398 -0.9278263 -0.27281347
vn 0.3248605 -0.880842 -0.34435886
vn -0.48953485 0.09799862 -0.86645937
vn -0.44255054 -0.035123706 -0.89605546
vn -0.55218065 0.7322873 -0.39856216
vn -0.34075105 0.8810711 0.32802817
vn -0.37990475 0.84974813 0.36551398
vn -0.121490836 -0.47364426 -0.87229645
vn -0.4347198 0.12932158 -0.8912321
vn -0.37990475 -0.0038008094 -0.9250178
vn -0.55218065 0.7166259 -0.42607954
vn -0.0745064 -0.42665994 -0.9013379
vn 0.34835267 -0.8651805 -0.36071196
vn 0.34052193 -0.8651805 -0.36811346
vn -0.1136601 -0.28570688 -0.9515529
vn -0.3329203 0.027522087 -0.9425533
vn -0.3329203 0.12932158 -0.934045
vn -0.3877355 0.15281367 -0.9090155
vn -0.36424327 0.1997981 -0.90961945
vn -0.52868843 0.8419175 -0.107997395
vn -0.3877355 0.8419175 0.3752813
vn 0.34052193 -0.8651805 -0.36811346
vn 0.34052193 -0.8651805 -0.36811346
vn 0.30919904 -0.8651805 -0.39478937
vn 0.34835267 -0.8651805 -0.36071196
vn -0.0745064 -0.7398889 -0.6685905
vn 0.27787614 -0.88867265 -0.36475444
vn 0.3248605 -0.880842 -0.34435886
vn 0.25438398 -0.9278263 -0.27281347
vn -0.23112094 -0.66158164 -0.7133672
vn -0.7087952 -0.16041529 -0.68693256
vn 0.2073996 -0.9278263 -0.31003842
vn -0.7087952 -0.16041529 -0.68693256
vn -0.7087952 -0.16041529 -0.68693256
vn 0.13692313 -0.9591492 -0.24755788
vn 0.18390745 -0.9591492 -0.21496718
vn 0.10560024 -0.9904721 -0.08839475
vn -0.30159748 -0.6772431 -0.6711041
vn -0.7087952 -0.16041529 -0.68693256
vn -0.6696415 -0.7398889 -0.064379565
vn 0.050785124 -0.98264134 -0.17842889
vn -0.35641253 -0.7007353 -0.6180131
vn -0.7087952 -0.16041529 -0.68693256
vn -0.7087952 -0.16041529 -0.68693256
vn -0.7087952 -0.66158164 -0.24478382
vn -0.019691348 -0.9983028 -0.054806717
vn 0.027292967 -0.9983028 -0.05144536
vn -0.051014304 -0.9983028 0.028089968
vn -0.41122758 -0.7163967 -0.5636201
vn -0.7087952 -0.16041529 -0.68693256
vn -0.097695634 -0.9952163 -0
vn -0.121490836 -0.9904721 0.064846344
vn -0.45821202 -0.7242274 -0.5153022
vn -0.7087952 -0.16041529 -0.68693256
vn -0.7087952 -0.16041529 -0.68693256
vn -0.6696415 -0.6772431 -0.3048312
vn -0.16847515 -0.98264134 0.077667035
vn -0.5130271 -0.7242274 -0.4607579
vn -0.7087952 -0.16041529 -0.68693256
vn -0.7087952 -0.16041529 -0.68693256
vn -0.23895168 -0.9591492 0.15144277
vn -0.1997981 -0.9591492 0.20028372
vn -0.27027452 -0.9278263 0.25707996
vn -0.5678421 -0.7163967 -0.4053777
vn -0.7087952 -0.16041529 -0.68693256
vn -0.6226572 -0.7007353 -0.3482357
vn -0.30159748 -0.9278263 0.21949342
vn -0.372074 -0.88867265 0.267996
vn -0.34075105 -0.880842 0.32864285
vn -0.36424327 -0.8651805 0.3446586
vn -0.39556623 -0.8651805 0.3082046
vn -0.372074 -0.8651805 0.3361899
vn -0.36424327 -0.8651805 0.3446586
g ENV_S07_Bgr_Goop_Center_WallDoor_0
f 3/3/3 2/2/2 1/1/1
f 2/2/2 4/4/4 1/1/1
f 5/5/5 1/1/1 4/4/4
f 6/6/6 5/5/5 4/4/4
f 5/5/5 6/6/6 7/7/7
f 6/6/6 8/8/8 7/7/7
f 9/9/9 7/7/7 8/8/8
f 10/10/10 9/9/9 8/8/8
f 9/9/9 10/10/10 11/11/11
f 10/10/10 12/12/12 11/11/11
f 13/13/13 11/11/11 12/12/12
f 14/14/14 13/13/13 12/12/12
f 15/15/15 13/13/13 14/14/14
f 16/16/16 15/15/15 14/14/14
f 15/15/15 16/16/16 17/17/17
f 18/18/18 15/15/15 17/17/17
f 17/17/17 19/19/19 18/18/18
f 19/19/19 20/20/20 18/18/18
f 20/20/20 19/19/19 21/21/21
f 22/22/22 20/20/20 21/21/21
f 21/21/21 23/23/23 22/22/22
f 23/23/23 24/24/24 22/22/22
f 24/24/24 23/23/23 25/25/25
f 26/26/26 24/24/24 25/25/25
f 25/25/25 27/27/27 26/26/26
f 27/27/27 28/28/28 26/26/26
f 31/31/31 30/30/30 29/29/29
f 30/30/30 32/32/32 29/29/29
f 30/30/30 33/33/33 32/32/32
f 32/32/32 34/34/34 29/29/29
f 34/34/34 35/35/35 29/29/29
f 35/35/35 34/34/34 36/36/36
f 33/33/33 37/37/37 32/32/32
f 33/33/33 38/38/38 37/37/37
f 39/39/39 34/34/34 32/32/32
f 37/37/37 39/39/39 32/32/32
f 34/34/34 40/40/40 36/36/36
f 34/34/34 39/39/39 40/40/40
f 38/38/38 41/41/41 37/37/37
f 38/38/38 42/42/42 41/41/41
f 43/43/43 39/39/39 37/37/37
f 41/41/41 43/43/43 37/37/37
f 42/42/42 44/44/44 41/41/41
f 42/42/42 45/45/45 44/44/44
f 45/45/45 46/46/46 44/44/44
f 46/46/46 47/47/47 44/44/44
f 44/44/44 48/48/48 41/41/41
f 47/47/47 48/48/48 44/44/44
f 48/48/48 43/43/43 41/41/41
f 39/39/39 43/43/43 49/49/49
f 39/39/39 49/49/49 40/40/40
f 40/40/40 50/50/50 36/36/36
f 50/50/50 51/51/51 36/36/36
f 51/51/51 50/50/50 52/52/52
f 48/48/48 47/47/47 53/53/53
f 47/47/47 54/54/54 53/53/53
f 54/54/54 55/55/55 53/53/53
f 43/43/43 48/48/48 56/56/56
f 48/48/48 53/53/53 56/56/56
f 43/43/43 56/56/56 49/49/49
f 57/57/57 50/50/50 40/40/40
f 49/49/49 57/57/57 40/40/40
f 50/50/50 58/58/58 52/52/52
f 50/50/50 57/57/57 58/58/58
f 55/55/55 59/59/59 53/53/53
f 53/53/53 59/59/59 56/56/56
f 56/56/56 60/60/60 49/49/49
f 60/60/60 57/57/57 49/49/49
f 59/59/59 60/60/60 56/56/56
f 59/59/59 55/55/55 61/61/61
f 55/55/55 62/62/62 61/61/61
f 62/62/62 63/63/63 61/61/61
f 57/57/57 60/60/60 64/64/64
f 57/57/57 64/64/64 58/58/58
f 60/60/60 59/59/59 65/65/65
f 59/59/59 61/61/61 65/65/65
f 60/60/60 65/65/65 64/64/64
f 58/58/58 66/66/66 52/52/52
f 66/66/66 67/67/67 52/52/52
f 68/68/68 67/67/67 66/66/66
f 63/63/63 69/69/69 61/61/61
f 61/61/61 69/69/69 65/65/65
f 65/65/65 70/70/70 64/64/64
f 69/69/69 70/70/70 65/65/65
f 64/64/64 71/71/71 58/58/58
f 71/71/71 66/66/66 58/58/58
f 70/70/70 71/71/71 64/64/64
f 72/72/72 68/68/68 66/66/66
f 72/72/72 66/66/66 71/71/71
f 68/68/68 72/72/72 73/73/73
f 74/74/74 69/69/69 63/63/63
f 75/75/75 74/74/74 63/63/63
f 76/76/76 71/71/71 70/70/70
f 76/76/76 72/72/72 71/71/71
f 77/77/77 70/70/70 69/69/69
f 74/74/74 77/77/77 69/69/69
f 77/77/77 76/76/76 70/70/70
f 72/72/72 78/78/78 73/73/73
f 72/72/72 76/76/76 78/78/78
f 74/74/74 75/75/75 79/79/79
f 75/75/75 80/80/80 79/79/79
f 80/80/80 81/81/81 79/79/79
f 76/76/76 77/77/77 82/82/82
f 76/76/76 82/82/82 78/78/78
f 77/77/77 74/74/74 83/83/83
f 74/74/74 79/79/79 83/83/83
f 77/77/77 83/83/83 82/82/82
f 78/78/78 84/84/84 73/73/73
f 84/84/84 85/85/85 73/73/73
f 85/85/85 84/84/84 86/86/86
f 81/81/81 87/87/87 79/79/79
f 79/79/79 87/87/87 83/83/83
f 82/82/82 88/88/88 78/78/78
f 88/88/88 84/84/84 78/78/78
f 83/83/83 89/89/89 82/82/82
f 87/87/87 89/89/89 83/83/83
f 89/89/89 88/88/88 82/82/82
f 84/84/84 90/90/90 86/86/86
f 84/84/84 88/88/88 90/90/90
f 87/87/87 81/81/81 91/91/91
f 81/81/81 92/92/92 91/91/91
f 92/92/92 93/93/93 91/91/91
f 88/88/88 89/89/89 94/94/94
f 88/88/88 94/94/94 90/90/90
f 89/89/89 87/87/87 95/95/95
f 87/87/87 91/91/91 95/95/95
f 89/89/89 95/95/95 94/94/94
f 90/90/90 96/96/96 86/86/86
f 96/96/96 97/97/97 86/86/86
f 97/97/97 96/96/96 98/98/98
f 93/93/93 99/99/99 91/91/91
f 91/91/91 99/99/99 95/95/95
f 94/94/94 100/100/100 90/90/90
f 100/100/100 96/96/96 90/90/90
f 95/95/95 101/101/101 94/94/94
f 99/99/99 101/101/101 95/95/95
f 101/101/101 100/100/100 94/94/94
f 96/96/96 102/102/102 98/98/98
f 96/96/96 100/100/100 102/102/102
f 99/99/99 93/93/93 103/103/103
f 93/93/93 104/104/104 103/103/103
f 104/104/104 105/105/105 103/103/103
f 105/105/105 106/106/106 103/103/103
f 99/99/99 103/103/103 107/107/107
f 103/103/103 106/106/106 107/107/107
f 101/101/101 99/99/99 107/107/107
f 106/106/106 108/108/108 107/107/107
f 100/100/100 101/101/101 109/109/109
f 101/101/101 107/107/107 109/109/109
f 107/107/107 108/108/108 109/109/109
f 100/100/100 109/109/109 102/102/102
f 108/108/108 110/110/110 109/109/109
f 109/109/109 110/110/110 102/102/102
f 110/110/110 111/111/111 102/102/102
f 102/102/102 111/111/111 98/98/98
f 111/111/111 112/112/112 98/98/98
f 115/115/115 114/114/114 113/113/113
f 116/116/116 115/115/115 113/113/113
f 114/114/114 115/115/115 117/117/117
f 118/118/118 115/115/115 116/116/116
f 115/115/115 118/118/118 117/117/117
f 119/119/119 118/118/118 116/116/116
f 119/119/119 120/120/120 118/118/118
f 118/118/118 121/121/121 117/117/117
f 117/117/117 121/121/121 122/122/122
f 120/120/120 123/123/123 118/118/118
f 121/121/121 118/118/118 123/123/123
f 121/121/121 124/124/124 122/122/122
f 125/125/125 122/122/122 124/124/124
f 126/126/126 123/123/123 120/120/120
f 127/127/127 126/126/126 120/120/120
f 127/127/127 128/128/128 126/126/126
f 129/129/129 121/121/121 123/123/123
f 124/124/124 121/121/121 129/129/129
f 129/129/129 123/123/123 126/126/126
f 130/130/130 125/125/125 124/124/124
f 125/125/125 130/130/130 131/131/131
f 128/128/128 132/132/132 126/126/126
f 133/133/133 129/129/129 126/126/126
f 133/133/133 126/126/126 132/132/132
f 134/134/134 124/124/124 129/129/129
f 134/134/134 129/129/129 133/133/133
f 135/135/135 130/130/130 124/124/124
f 134/134/134 135/135/135 124/124/124
f 130/130/130 136/136/136 131/131/131
f 136/136/136 130/130/130 135/135/135
f 137/137/137 132/132/132 128/128/128
f 138/138/138 137/137/137 128/128/128
f 137/137/137 138/138/138 139/139/139
f 140/140/140 133/133/133 132/132/132
f 132/132/132 137/137/137 140/140/140
f 141/141/141 134/134/134 133/133/133
f 134/134/134 141/141/141 135/135/135
f 141/141/141 133/133/133 140/140/140
f 142/142/142 137/137/137 139/139/139
f 142/142/142 139/139/139 143/143/143
f 137/137/137 144/144/144 140/140/140
f 144/144/144 137/137/137 142/142/142
f 145/145/145 141/141/141 140/140/140
f 140/140/140 144/144/144 145/145/145
f 141/141/141 146/146/146 135/135/135
f 141/141/141 145/145/145 146/146/146
f 147/147/147 136/136/136 135/135/135
f 147/147/147 135/135/135 146/146/146
f 148/148/148 142/142/142 143/143/143
f 149/149/149 144/144/144 142/142/142
f 142/142/142 148/148/148 149/149/149
f 144/144/144 150/150/150 145/145/145
f 150/150/150 144/144/144 149/149/149
f 145/145/145 151/151/151 146/146/146
f 145/145/145 150/150/150 151/151/151
f 148/148/148 143/143/143 152/152/152
f 143/143/143 153/153/153 152/152/152
f 152/152/152 153/153/153 154/154/154
f 148/148/148 155/155/155 149/149/149
f 148/148/148 152/152/152 155/155/155
f 156/156/156 150/150/150 149/149/149
f 150/150/150 156/156/156 151/151/151
f 149/149/149 155/155/155 156/156/156
f 155/155/155 151/151/151 156/156/156
f 157/157/157 146/146/146 151/151/151
f 155/155/155 157/157/157 151/151/151
f 152/152/152 157/157/157 155/155/155
f 157/157/157 147/147/147 146/146/146
f 152/152/152 158/158/158 157/157/157
f 158/158/158 152/152/152 154/154/154
f 158/158/158 147/147/147 157/157/157
f 158/158/158 154/154/154 159/159/159
f 158/158/158 159/159/159 147/147/147
f 154/154/154 160/160/160 159/159/159
f 159/159/159 136/136/136 147/147/147
f 159/159/159 160/160/160 161/161/161
f 136/136/136 159/159/159 162/162/162
f 162/162/162 159/159/159 161/161/161
f 131/131/131 136/136/136 162/162/162
f 162/162/162 161/161/161 163/163/163
f 162/162/162 164/164/164 131/131/131
f 164/164/164 162/162/162 163/163/163
