g ENV_BLO_Trip_6
v 3.0012975 0.71700597 0.98600703
v -2.9965186 0.74699986 0.9494234
v 3.0012975 0.74699986 0.9494234
v -2.9965186 0.71700597 0.98600703
v -2.9965186 0.64700997 1
v 3.0012975 0.64700997 1
v -2.9965186 0.06269283 1
v 3.0012975 0.06269283 1
v 3.0012975 0.016789638 0.9809863
v -2.9965186 0.016789638 0.9809863
v 3.0012975 0.74699986 -0.9494234
v -2.9965186 0.74699986 -0.9494234
v -2.9965186 0.71700597 -0.98600703
v 3.0012975 0.71700597 -0.98600703
v 3.0012975 0.64700997 -1
v -2.9965186 0.64700997 -1
v -2.9965186 0.06269283 -1
v 3.0012975 0.06269283 -1
v -2.9965186 0.016789638 -0.9809863
v 3.0012975 0.016789638 -0.9809863
v -2.9965186 -0.0022240877 -0.9350831
v 3.0012975 -0.0022240877 -0.9350831
v 3.0012975 -0.0022240877 0.9350831
v -2.9965186 -0.0022240877 0.9350831
v -2.9965186 0.016789638 0.9809863
v 3.0012975 0.016789638 0.9809863
vt 0.635848 0.5119441
vt 0.44912225 0.5138922
vt 0.63585097 0.5134164
vt 0.44912225 0.5123871
vt 0.4491171 0.5101651
vt 0.6358434 0.5097227
vt 0.4490752 0.4919718
vt 0.6358059 0.49153668
vt 0.6358025 0.4899901
vt 0.44907153 0.49042493
vt 0.6359788 0.5725055
vt 0.44926372 0.5730011
vt 0.44926727 0.57447386
vt 0.63598233 0.57397735
vt 0.6359874 0.57619804
vt 0.44927302 0.5766963
vt 0.44931987 0.5948867
vt 0.63603127 0.59437686
vt 0.44932383 0.5964335
vt 0.63603514 0.59592277
vt 0.449328 0.59798014
vt 0.636039 0.59746885
vt 0.63619685 0.6556684
vt 0.44949055 0.6561961
vt 0.44949484 0.65774286
vt 0.6362012 0.65721476
vn -0 0.4513617 0.89234114
vn -0 0.99987996 0.015495408
vn -0 0.99987996 0.015495408
vn -0 0.4513617 0.89234114
vn -0 0.021380844 0.9997714
vn -0 0.021380844 0.9997714
vn -0 -0.030156204 0.99954516
vn -0 -0.030156204 0.99954516
vn -0 -0.7071067 0.70710677
vn -0 -0.7071067 0.70710677
vn -0 0.99987996 -0.015495408
vn -0 0.99987996 -0.015495408
vn -0 0.4513617 -0.89234114
vn -0 0.4513617 -0.89234114
vn -0 0.021380844 -0.9997714
vn -0 0.021380844 -0.9997714
vn -0 -0.030156204 -0.99954516
vn -0 -0.030156204 -0.99954516
vn -0 -0.7071067 -0.70710677
vn -0 -0.7071067 -0.70710677
vn -0 -0.99995077 -0.009922809
vn -0 -0.99995077 -0.009922809
vn -0 -0.99995077 0.009922809
vn -0 -0.99995077 0.009922809
vn -0 -0.7071067 0.70710677
vn -0 -0.7071067 0.70710677
g ENV_BLO_Trip_6_0
f 3/3/3 2/2/2 1/1/1
f 2/2/2 4/4/4 1/1/1
f 4/4/4 5/5/5 1/1/1
f 5/5/5 6/6/6 1/1/1
f 5/5/5 7/7/7 6/6/6
f 7/7/7 8/8/8 6/6/6
f 8/8/8 7/7/7 9/9/9
f 7/7/7 10/10/10 9/9/9
f 13/13/13 12/12/12 11/11/11
f 14/14/14 13/13/13 11/11/11
f 13/13/13 14/14/14 15/15/15
f 16/16/16 13/13/13 15/15/15
f 17/17/17 16/16/16 15/15/15
f 18/18/18 17/17/17 15/15/15
f 19/19/19 17/17/17 18/18/18
f 20/20/20 19/19/19 18/18/18
f 21/21/21 19/19/19 20/20/20
f 22/22/22 21/21/21 20/20/20
f 21/21/21 22/22/22 23/23/23
f 24/24/24 21/21/21 23/23/23
f 25/25/25 24/24/24 23/23/23
f 26/26/26 25/25/25 23/23/23
g ENV_BLO_Trip_6_1
f 2/2/2 3/3/3 11/11/11
f 12/12/12 2/2/2 11/11/11
