g ENV_S04_SLC2_FlatBorder_Straight_01_MO1
v 28.028435 -3.570755 0.7189388
v 28.001919 -3.6331978 0.7189388
v 27.989943 -3.620367 0.77197266
v 28.001919 -3.5681896 0.7830925
v 27.999352 -3.6400414 -0.99180603
v 28.026724 -3.1370811 0.7215061
v 27.99422 -3.1319504 0.77539444
v 28.02587 -3.5775986 -0.99266243
v 27.987377 -3.6272106 -1.0456944
v 27.999352 -3.5758877 -1.0568142
v 28.023302 -3.1439247 -0.9995041
v 27.991653 -3.138792 -1.0533924
v 28.022448 -2.9044209 -0.9952278
v 27.99593 -2.9018536 -1.0593815
v 28.025013 -2.8975773 0.71551704
v 27.998497 -2.895012 0.7805271
v 28.024158 -2.741045 0.71551704
v 27.99764 -2.739334 0.7796707
v 27.985666 -2.6854458 0.7676964
v 28.021591 -2.7478867 -0.9960842
v 27.995075 -2.7461758 -1.060236
v 27.9831 -2.6931438 -1.0482616
v 27.99764 -2.6751804 0.71466255
v 27.933489 -2.6443863 0.71466255
v 27.995075 -2.682024 -0.9960842
v 27.930067 -2.6512299 -0.9960842
v 27.933489 -2.6700478 0.7796707
v 27.933489 -2.7342014 0.8061867
v 27.99764 -2.739334 0.7796707
v 27.934343 -2.8898792 0.8070431
v 27.998497 -2.895012 0.7805271
v 27.932632 -3.129383 0.80789757
v 27.99422 -3.1319504 0.77539444
v -27.85308 3.418497 1.0841827
v -27.835117 3.572464 1.0833282
v -27.828274 3.6357613 1.0559559
v 27.937765 -3.5639133 0.80960846
v 28.001919 -3.5681896 0.7830925
v 27.989943 -3.620367 0.77197266
v -27.824852 3.6622772 0.9918041
v -27.881306 3.6340504 1.044836
v -27.83255 3.6554356 -0.71894264
v -27.898415 3.5844383 1.0568123
v -27.916378 3.429617 1.0576668
v -27.938618 3.1926785 1.0525341
v -27.877888 3.1798477 1.0850391
v -27.994217 2.7607155 1.0602341
v -27.93092 2.7487392 1.08675
v -27.989086 2.7059708 1.0491142
v -27.891571 3.6477356 0.9926586
v -27.938618 2.6845856 1.0602341
v -27.94204 2.6580696 0.9960804
v -28.001915 2.6965618 0.9960804
v -28.009613 2.6897182 -0.71466637
v 27.937765 -3.628065 0.7830925
v 27.937765 -3.6554375 0.7189388
v 28.001919 -3.6331978 0.7189388
v 27.9352 -3.662281 -0.99180603
v 27.999352 -3.6400414 -0.99180603
v 27.987377 -3.6272106 -1.0456944
v 27.9352 -3.635765 -1.0559597
v -27.949738 2.651226 -0.71466637
v -27.996784 2.6991272 -0.7676983
v -27.94717 2.677744 -0.77967453
v -27.898415 3.5844383 1.0568123
v -27.92493 3.5887165 0.9926586
v -27.942894 3.4338932 0.993515
v -27.916378 3.429617 1.0576668
v -27.898415 3.6417484 -0.71894264
v -27.932629 3.5827274 -0.71808624
v -27.889008 3.6272068 -0.7711201
v -27.971123 3.1961002 0.9995022
v -27.938618 3.1926785 1.0525341
v -28.020733 2.7649918 0.9960804
v -27.994217 2.7607155 1.0602341
v -27.989086 2.7059708 1.0491142
v -28.001915 2.6965618 0.9960804
v -27.977966 3.1892567 -0.721508
v -28.02843 2.7590046 -0.71466637
v -28.009613 2.6897182 -0.71466637
v -27.996784 2.6991272 -0.7676983
v -28.00277 2.753872 -0.77967453
v -27.946316 3.185835 -0.77539635
v -27.924076 3.4227734 -0.7822399
v -27.950592 3.427906 -0.71808624
v -27.906113 3.5775967 -0.7830963
v -27.84367 3.5656204 -0.8096123
v -27.906113 3.5775967 -0.7830963
v -27.924076 3.4227734 -0.7822399
v -27.835972 3.6289177 -0.7830963
v 27.930067 -2.6777458 -1.060236
v 27.930922 -2.7418995 -1.0867519
v 27.995075 -2.7461758 -1.060236
v -27.861633 3.410799 -0.8087559
v -27.946316 3.185835 -0.77539635
v 27.931778 -2.8975773 -1.0858974
v 27.99593 -2.9018536 -1.0593815
v 27.92921 -3.1362267 -1.085043
v 27.991653 -3.138792 -1.0533924
v -27.885586 3.1730042 -0.8079014
v -28.00277 2.753872 -0.77967453
v -27.939472 2.7410412 -0.8061905
v -27.996784 2.6991272 -0.7676983
v -27.94717 2.677744 -0.77967453
v 27.934343 -3.5716114 -1.0833321
v 27.999352 -3.5758877 -1.0568142
v 27.9352 -3.635765 -1.0559597
v 27.987377 -3.6272106 -1.0456944
vt 0.17990813 -0.11454478
vt 0.17938232 -0.11927706
vt 0.17570165 -0.11875125
vt 0.17517585 -0.11454478
vt 0.2976893 -0.11927706
vt 0.17885649 -0.08509949
vt 0.17465004 -0.084573686
vt 0.2976893 -0.11454478
vt 0.30136994 -0.11822544
vt 0.30242157 -0.11454478
vt 0.2982151 -0.08509949
vt 0.30242157 -0.084573686
vt 0.2976893 -0.06879942
vt 0.30242157 -0.06827361
vt 0.17938232 -0.06879942
vt 0.17465004 -0.06827361
vt 0.17990813 -0.057757437
vt 0.17517585 -0.056705818
vt 0.17570165 -0.052499346
vt 0.2971635 -0.057757437
vt 0.30189577 -0.056705818
vt 0.30136994 -0.052499346
vt 0.17990813 -0.053025156
vt 0.17990813 -0.048292875
vt 0.2971635 -0.053025156
vt 0.2971635 -0.048292875
vt 0.17517585 -0.048292875
vt 0.17044356 -0.048818685
vt 0.17149517 -0.053550966
vt 0.1599274 -0.049344495
vt 0.1599274 -0.054076776
vt 0.14362732 -0.049344495
vt 0.14362732 -0.054076776
vt 0.1599274 0.8871209
vt 0.17044356 0.8865951
vt 0.17517585 0.8865951
vt 0.114182025 -0.048818685
vt 0.113130406 -0.053025156
vt 0.10892394 -0.051973537
vt 0.17990813 0.88606924
vt 0.17570165 0.8902758
vt 0.29663765 0.8865951
vt 0.17149517 0.8913273
vt 0.1604532 0.89185315
vt 0.14362732 0.8913273
vt 0.14362732 0.8865951
vt 0.11365622 0.8902758
vt 0.11365622 0.8855435
vt 0.10892394 0.8892241
vt 0.17990813 0.8908016
vt 0.10892394 0.8855435
vt 0.10419166 0.8855435
vt 0.10471746 0.8902758
vt -0.012537882 0.8929048
vt 0.109449744 -0.048292875
vt 0.10419166 -0.048818685
vt 0.10471746 -0.053025156
vt -0.013063692 -0.050396115
vt -0.013063692 -0.055128388
vt -0.016744353 -0.054602586
vt -0.017795973 -0.050921924
vt -0.012537882 0.88817257
vt -0.016218543 0.892379
vt -0.017270163 0.88817257
vt 0.17465004 0.8944822
vt 0.17990813 0.89553386
vt 0.17938232 0.90605
vt 0.17465004 0.90605
vt 0.29663765 0.8908016
vt 0.2971635 0.89553386
vt 0.30084413 0.8902758
vt 0.17885649 0.9223501
vt 0.17465004 0.9223501
vt 0.17938232 0.95232123
vt 0.17465004 0.95232123
vt 0.17570165 0.95652765
vt 0.17938232 0.9570535
vt 0.2976893 0.9223501
vt 0.2971635 0.95232123
vt 0.2971635 0.9570535
vt 0.30136994 0.95652765
vt 0.30189577 0.95232123
vt 0.30242157 0.9223501
vt 0.30242157 0.90605
vt 0.2976893 0.90605
vt 0.30189577 0.8944822
vt 0.30610222 0.8865951
vt 0.3050506 0.8913273
vt 0.31609258 0.89185315
vt 0.30136994 0.8865951
vt 0.30189577 -0.048292875
vt 0.30662802 -0.048818685
vt 0.30610222 -0.053550966
vt 0.3166184 0.8871209
vt 0.33291847 0.89185315
vt 0.31714422 -0.049344495
vt 0.31714422 -0.054076776
vt 0.33344427 -0.048818685
vt 0.33344427 -0.054076776
vt 0.33344427 0.8871209
vt 0.36288956 0.8913273
vt 0.36288956 0.8865951
vt 0.36657023 0.8908016
vt 0.36762184 0.8865951
vt 0.3634154 -0.048818685
vt 0.3639412 -0.053550966
vt 0.36814767 -0.049344495
vt 0.36762184 -0.053025156
vn 0.9841912 -0.16947186 0.05144909
vn 0.62383455 -0.7805114 -0.040402878
vn 0.5063269 -0.6708376 0.5418579
vn 0.6786714 -0.15380418 0.71815693
vn 0.62383455 -0.7805114 -0.040402878
vn 0.992025 -0.11463493 0.052394647
vn 0.68650526 -0.12246883 0.716737
vn 0.9841912 -0.16947186 -0.05144909
vn 0.5063269 -0.60033303 -0.6190584
vn 0.68650526 -0.0676319 -0.72397274
vn 0.992025 -0.11463493 -0.052394647
vn 0.68650526 -0.036296546 -0.72621834
vn 0.992025 -0.11463493 -0.052394647
vn 0.6943391 -0.044130385 -0.7182936
vn 0.992025 -0.11463493 0.052394647
vn 0.68650526 -0.13030267 0.71535426
vn 0.99985886 -0.0049611926 0.016052233
vn 0.7100068 -0.036296546 0.7032588
vn 0.6395022 0.472903 0.606135
vn 0.99985886 0.0028725863 -0.016554028
vn 0.7100068 0.049875617 -0.7024264
vn 0.6395022 0.54340756 -0.54382455
vn 0.7805114 0.62174594 0.065068856
vn 0.12246883 0.9899365 0.07090257
vn 0.7805114 0.62174594 0.065068856
vn 0.12246883 0.9899365 0.07090257
vn 0.08329958 0.66091514 0.74582326
vn 0.012795031 0.06554341 0.9977677
vn 0.7100068 -0.036296546 0.7032588
vn 0.0049611926 -0.05979806 0.99819815
vn 0.68650526 -0.13030267 0.71535426
vn 0.0049611926 -0.05979806 0.99819815
vn 0.68650526 -0.12246883 0.716737
vn -0.010706425 -0.05979806 0.9981531
vn 0.0049611926 0.06554341 0.99783736
vn 0.07546574 0.66091514 0.7466566
vn -0.0028725863 -0.11463493 0.99340355
vn 0.6786714 -0.15380418 0.71815693
vn 0.5063269 -0.6708376 0.5418579
vn 0.11463493 0.9899365 0.0829737
vn -0.5120722 0.60607827 0.608647
vn 0.11463493 0.9899365 0.0829737
vn -0.6922505 0.12821412 0.71017635
vn -0.6922505 0.026374102 0.7211752
vn -0.68441665 0.03420794 0.7282882
vn -0.010706425 -0.05979806 0.9981531
vn -0.6922505 0.010706425 0.7215779
vn -0.010706425 -0.11463493 0.99335
vn -0.64524746 -0.53766227 0.5427476
vn -0.6202691 0.7843891 -0
vn -0.08904493 -0.7413422 0.66519374
vn -0.12038028 -0.992025 -0.03734873
vn -0.7833756 -0.62154865 -0
vn -0.7862567 -0.6160007 -0.04841069
vn -0.08121109 -0.7413422 0.6661955
vn -0.112546444 -0.992025 -0.056742083
vn 0.62383455 -0.7805114 -0.040402878
vn -0.112546444 -0.992025 -0.056742083
vn 0.62383455 -0.7805114 -0.040402878
vn 0.5063269 -0.60033303 -0.6190584
vn -0.07337725 -0.66300374 -0.74501127
vn -0.12038028 -0.992025 -0.03734873
vn -0.6374136 -0.46715772 -0.61275405
vn -0.08121109 -0.66300374 -0.744198
vn -0.6922505 0.12821412 0.71017635
vn -0.97323555 0.22981004 -0
vn -0.9899365 0.112546444 0.08578512
vn -0.6922505 0.026374102 0.7211752
vn -0.6202691 0.7843891 -0
vn -0.97323555 0.22981004 -0
vn -0.50423837 0.6765828 -0.53663707
vn -0.9899365 0.112546444 0.08578512
vn -0.68441665 0.03420794 0.7282882
vn -0.9977703 0.06554341 0.012589472
vn -0.6922505 0.010706425 0.7215779
vn -0.64524746 -0.53766227 0.5427476
vn -0.7833756 -0.62154865 -0
vn -0.9899365 0.12038028 -0.07439339
vn -0.9977703 0.06554341 -0.012589472
vn -0.7862567 -0.6160007 -0.04841069
vn -0.6374136 -0.46715772 -0.61275405
vn -0.6922505 0.09687877 -0.715125
vn -0.68441665 0.12038028 -0.71908444
vn -0.6922505 0.112546444 -0.71282715
vn -0.9899365 0.12038028 -0.07439339
vn -0.68441665 0.21438634 -0.6968589
vn 0.012795031 0.18305099 -0.9830201
vn -0.68441665 0.21438634 -0.6968589
vn -0.6922505 0.112546444 -0.71282715
vn 0.08329958 0.74708736 -0.65948594
vn 0.091133416 0.74708736 -0.65844905
vn 0.02062887 0.18305099 -0.98288697
vn 0.7100068 0.049875617 -0.7024264
vn -0.0028725863 0.057709455 -0.9983293
vn -0.68441665 0.12038028 -0.71908444
vn 0.0049611926 0.057709455 -0.99832106
vn 0.6943391 -0.044130385 -0.7182936
vn 0.0049611926 0.057709455 -0.99832106
vn 0.68650526 -0.036296546 -0.72621834
vn -0.0028725863 0.057709455 -0.9983293
vn -0.6922505 0.09687877 -0.715125
vn -0.010706425 0.010706425 -0.9998854
vn -0.6374136 -0.46715772 -0.61275405
vn -0.08121109 -0.66300374 -0.744198
vn 0.0049611926 0.010706425 -0.9999304
vn 0.68650526 -0.0676319 -0.72397274
vn -0.07337725 -0.66300374 -0.74501127
vn 0.5063269 -0.60033303 -0.6190584
g ENV_S04_SLC2_FlatBorder_Straight_01_MO1_0
f 3/3/3 2/2/2 1/1/1
f 4/4/4 3/3/3 1/1/1
f 1/1/1 2/2/2 5/5/5
f 4/4/4 1/1/1 6/6/6
f 7/7/7 4/4/4 6/6/6
f 8/8/8 1/1/1 5/5/5
f 6/6/6 1/1/1 8/8/8
f 8/8/8 5/5/5 9/9/9
f 10/10/10 8/8/8 9/9/9
f 8/8/8 10/10/10 11/11/11
f 11/11/11 6/6/6 8/8/8
f 10/10/10 12/12/12 11/11/11
f 11/11/11 12/12/12 13/13/13
f 11/11/11 13/13/13 6/6/6
f 12/12/12 14/14/14 13/13/13
f 6/6/6 15/15/15 7/7/7
f 13/13/13 15/15/15 6/6/6
f 15/15/15 16/16/16 7/7/7
f 15/15/15 17/17/17 16/16/16
f 17/17/17 15/15/15 13/13/13
f 17/17/17 18/18/18 16/16/16
f 19/19/19 18/18/18 17/17/17
f 13/13/13 14/14/14 20/20/20
f 20/20/20 17/17/17 13/13/13
f 14/14/14 21/21/21 20/20/20
f 20/20/20 21/21/21 22/22/22
f 23/23/23 17/17/17 20/20/20
f 23/23/23 19/19/19 17/17/17
f 19/19/19 23/23/23 24/24/24
f 25/25/25 23/23/23 20/20/20
f 25/25/25 20/20/20 22/22/22
f 24/24/24 23/23/23 25/25/25
f 26/26/26 25/25/25 22/22/22
f 26/26/26 24/24/24 25/25/25
f 27/27/27 19/19/19 24/24/24
f 19/19/19 27/27/27 28/28/28
f 29/29/29 19/19/19 28/28/28
f 29/29/29 28/28/28 30/30/30
f 31/31/31 29/29/29 30/30/30
f 31/31/31 30/30/30 32/32/32
f 33/33/33 31/31/31 32/32/32
f 34/34/34 30/30/30 28/28/28
f 32/32/32 30/30/30 34/34/34
f 35/35/35 28/28/28 27/27/27
f 35/35/35 34/34/34 28/28/28
f 36/36/36 27/27/27 24/24/24
f 36/36/36 35/35/35 27/27/27
f 33/33/33 32/32/32 37/37/37
f 38/38/38 33/33/33 37/37/37
f 39/39/39 38/38/38 37/37/37
f 40/40/40 36/36/36 24/24/24
f 35/35/35 36/36/36 41/41/41
f 36/36/36 40/40/40 41/41/41
f 42/42/42 40/40/40 24/24/24
f 26/26/26 42/42/42 24/24/24
f 43/43/43 35/35/35 41/41/41
f 35/35/35 43/43/43 44/44/44
f 34/34/34 35/35/35 44/44/44
f 34/34/34 44/44/44 45/45/45
f 46/46/46 34/34/34 45/45/45
f 46/46/46 45/45/45 47/47/47
f 46/46/46 32/32/32 34/34/34
f 48/48/48 46/46/46 47/47/47
f 46/46/46 48/48/48 32/32/32
f 48/48/48 47/47/47 49/49/49
f 48/48/48 37/37/37 32/32/32
f 40/40/40 50/50/50 41/41/41
f 50/50/50 40/40/40 42/42/42
f 51/51/51 48/48/48 49/49/49
f 48/48/48 51/51/51 37/37/37
f 52/52/52 51/51/51 49/49/49
f 53/53/53 52/52/52 49/49/49
f 52/52/52 53/53/53 54/54/54
f 51/51/51 55/55/55 37/37/37
f 51/51/51 52/52/52 55/55/55
f 55/55/55 39/39/39 37/37/37
f 39/39/39 55/55/55 56/56/56
f 52/52/52 56/56/56 55/55/55
f 57/57/57 39/39/39 56/56/56
f 57/57/57 56/56/56 58/58/58
f 58/58/58 56/56/56 52/52/52
f 59/59/59 57/57/57 58/58/58
f 59/59/59 58/58/58 60/60/60
f 58/58/58 61/61/61 60/60/60
f 62/62/62 52/52/52 54/54/54
f 62/62/62 58/58/58 52/52/52
f 61/61/61 58/58/58 62/62/62
f 54/54/54 63/63/63 62/62/62
f 64/64/64 61/61/61 62/62/62
f 63/63/63 64/64/64 62/62/62
f 66/66/66 65/65/65 41/41/41
f 50/50/50 66/66/66 41/41/41
f 65/65/65 66/66/66 67/67/67
f 68/68/68 65/65/65 67/67/67
f 66/66/66 50/50/50 69/69/69
f 69/69/69 50/50/50 42/42/42
f 70/70/70 66/66/66 69/69/69
f 67/67/67 66/66/66 70/70/70
f 71/71/71 69/69/69 42/42/42
f 69/69/69 71/71/71 70/70/70
f 68/68/68 67/67/67 72/72/72
f 73/73/73 68/68/68 72/72/72
f 72/72/72 74/74/74 73/73/73
f 74/74/74 75/75/75 73/73/73
f 75/75/75 74/74/74 76/76/76
f 74/74/74 77/77/77 76/76/76
f 78/78/78 72/72/72 67/67/67
f 74/74/74 72/72/72 78/78/78
f 77/77/77 74/74/74 79/79/79
f 79/79/79 74/74/74 78/78/78
f 80/80/80 77/77/77 79/79/79
f 81/81/81 80/80/80 79/79/79
f 82/82/82 81/81/81 79/79/79
f 83/83/83 82/82/82 79/79/79
f 78/78/78 83/83/83 79/79/79
f 84/84/84 83/83/83 78/78/78
f 85/85/85 78/78/78 67/67/67
f 85/85/85 84/84/84 78/78/78
f 85/85/85 67/67/67 70/70/70
f 86/86/86 84/84/84 85/85/85
f 70/70/70 86/86/86 85/85/85
f 71/71/71 86/86/86 70/70/70
f 88/88/88 71/71/71 87/87/87
f 88/88/88 87/87/87 89/89/89
f 71/71/71 90/90/90 87/87/87
f 90/90/90 71/71/71 42/42/42
f 42/42/42 26/26/26 90/90/90
f 26/26/26 91/91/91 90/90/90
f 90/90/90 91/91/91 87/87/87
f 91/91/91 26/26/26 22/22/22
f 92/92/92 91/91/91 22/22/22
f 91/91/91 92/92/92 87/87/87
f 93/93/93 92/92/92 22/22/22
f 87/87/87 94/94/94 89/89/89
f 87/87/87 92/92/92 94/94/94
f 95/95/95 89/89/89 94/94/94
f 96/96/96 92/92/92 93/93/93
f 92/92/92 96/96/96 94/94/94
f 97/97/97 96/96/96 93/93/93
f 96/96/96 97/97/97 98/98/98
f 94/94/94 96/96/96 98/98/98
f 97/97/97 99/99/99 98/98/98
f 100/100/100 95/95/95 94/94/94
f 100/100/100 94/94/94 98/98/98
f 95/95/95 100/100/100 101/101/101
f 100/100/100 102/102/102 101/101/101
f 100/100/100 98/98/98 102/102/102
f 103/103/103 101/101/101 102/102/102
f 104/104/104 103/103/103 102/102/102
f 105/105/105 98/98/98 99/99/99
f 98/98/98 105/105/105 102/102/102
f 102/102/102 105/105/105 104/104/104
f 106/106/106 105/105/105 99/99/99
f 105/105/105 107/107/107 104/104/104
f 105/105/105 106/106/106 108/108/108
f 107/107/107 105/105/105 108/108/108
