g ENV_S10_Retro_Fan_Plane_MO
v -5.1668787 7.867813E-05 -2.0460162
v -2.0460162 7.867813E-05 -5.1668787
v 2.0460162 7.867813E-05 -5.1668787
v 5.1668787 7.867813E-05 -2.0460162
v -5.1668787 7.867813E-05 2.0460162
v 5.1668787 7.867813E-05 2.0460162
v 2.0460162 7.867813E-05 5.1668787
v -2.0460162 7.867813E-05 5.1668787
vt 0.0068098903 0.6952512
vt 0.3047488 0.99319017
vt 0.6952512 0.99319017
vt 0.99319017 0.6952512
vt 0.0068098903 0.3047488
vt 0.99319017 0.3047488
vt 0.6952512 0.0068098903
vt 0.3047488 0.0068098903
vn -0 1 -0
vn -0 1 -0
vn -0 1 -0
vn -0 1 -0
vn -0 1 -0
vn -0 1 -0
vn -0 1 -0
vn -0 1 -0
g ENV_S10_Retro_Fan_Plane_MO_0
f 3/3/3 2/2/2 1/1/1
f 4/4/4 3/3/3 1/1/1
f 4/4/4 1/1/1 5/5/5
f 6/6/6 4/4/4 5/5/5
f 7/7/7 6/6/6 5/5/5
f 8/8/8 7/7/7 5/5/5
