g ENV_S10_Retro_Big_Fan_Center_Medium_01c_MO
v 1.500747 2.4420395 -0.03196132
v 1.4529167 2.4678688 -3.1113625E-05
v 0.7264415 2.4678688 -1.2582858
v 0.7780359 2.4420395 -1.2836611
v 1.7576158 2.1910763 -0.03196132
v 0.72267735 2.4420395 -1.3156562
v -0.726444 2.4678688 -1.2582858
v 0.90653515 2.1910763 -1.5061336
v 1.7852626 2.1307855 -0.029884577
v 0.85111177 2.1910763 -1.5381286
v -0.72267985 2.4420395 -1.3156562
v 0.9184765 2.1307855 -1.5311196
v 0.9184765 0.28396535 -1.5311196
v 1.7852626 0.28396535 -0.029884577
v 0.8667523 2.1307855 -1.5610378
v -0.7780385 2.4420395 -1.2836611
v -1.4529192 2.4678688 -3.1113625E-05
v -0.8511143 2.1910763 -1.5381286
v -0.9065378 2.1910763 -1.5061336
v -1.5006847 2.4420395 -0.03196132
v 0.90653515 0.2236743 -1.5061336
v 1.7576158 0.2236743 -0.03196132
v 0.7780359 -0.027353525 -1.2836611
v 1.500747 -0.027353525 -0.03196132
v 0.85111177 0.2236743 -1.5381286
v 0.7264415 -0.05318308 -1.2582858
v 1.4529167 -0.05318308 -3.1113625E-05
v 0.72267735 -0.027353525 -1.3156562
v -0.726444 -0.05318308 -1.2582858
v -0.72267985 -0.027353525 -1.3156562
v 0.8667523 0.28396535 -1.5610378
v -0.8511143 0.2236743 -1.5381286
v -0.7780385 -0.027353525 -1.2836611
v -1.4529192 -0.05318308 -3.1113625E-05
v -0.866755 0.28396535 -1.5610378
v -0.9065378 0.2236743 -1.5061336
v -1.5006847 -0.027353525 -0.03196132
v -0.866755 2.1307855 -1.5610378
v -0.9184792 0.28396535 -1.5311196
v -0.9184792 2.1307855 -1.5311196
v -1.7576184 0.2236743 -0.03196132
v -1.5006847 -0.027353525 0.031963825
v -0.726444 -0.05318308 1.2582884
v -1.7852652 0.28396535 -0.029884577
v -1.7576184 0.2236743 0.031963825
v -1.7576184 2.1910763 -0.03196132
v -0.7780385 -0.027353525 1.2836637
v -1.7852652 2.1307855 -0.029884577
v -1.7576184 2.1910763 0.031963825
v -1.7852652 0.28396535 0.02988708
v -0.72267985 -0.027353525 1.3156588
v 0.7264415 -0.05318308 1.2582884
v -0.9065378 0.2236743 1.5061362
v -1.7852652 2.1307855 0.02988708
v -0.8511143 0.2236743 1.5381312
v -0.9184792 0.28396535 1.5311222
v 0.72267735 -0.027353525 1.3156588
v -1.5006847 2.4420395 0.031963825
v -0.726444 2.4678688 1.2582884
v -0.7780385 2.4420395 1.2836637
v -0.9065378 2.1910763 1.5061362
v -0.9184792 2.1307855 1.5311222
v -0.866755 0.28396535 1.5610404
v -0.72267985 2.4420395 1.3156588
v 0.7264415 2.4678688 1.2582884
v -0.8511143 2.1910763 1.5381312
v 0.72267735 2.4420395 1.3156588
v -0.866755 2.1307855 1.5610404
v 0.85111177 0.2236743 1.5381312
v 0.8667523 0.28396535 1.5610404
v 0.85111177 2.1910763 1.5381312
v 0.7780359 2.4420395 1.2836637
v 1.4529167 2.4678688 -3.1113625E-05
v 0.90653515 0.2236743 1.5061362
v 0.8667523 2.1307855 1.5610404
v 0.90653515 2.1910763 1.5061362
v 1.500747 2.4420395 0.031963825
v 1.500747 2.4420395 -0.03196132
v 1.7576158 2.1910763 -0.03196132
v 0.9184765 0.28396535 1.5311222
v 1.7576158 2.1910763 0.031963825
v 0.9184765 2.1307855 1.5311222
v 1.7852626 2.1307855 0.02988708
v 1.7852626 2.1307855 -0.029884577
v 1.7852626 0.28396535 -0.029884577
v 1.7852626 0.28396535 0.02988708
v 1.7576158 0.2236743 -0.03196132
v 1.7576158 0.2236743 0.031963825
v 1.500747 -0.027353525 0.031963825
v 1.500747 -0.027353525 -0.03196132
v 1.4529167 -0.05318308 -3.1113625E-05
v 0.7780359 -0.027353525 1.2836637
v 0.7264415 -0.05318308 1.2582884
v 3.1113625E-05 -0.05318308 -3.1113625E-05
v -0.726444 -0.05318308 1.2582884
v 1.4529167 -0.05318308 -3.1113625E-05
v -1.4529192 -0.05318308 -3.1113625E-05
v 0.7264415 -0.05318308 -1.2582858
v -0.726444 -0.05318308 -1.2582858
v 0.7264415 2.4678688 1.2582884
v -0.726444 2.4678688 1.2582884
v 3.1113625E-05 2.4678688 -3.1113625E-05
v 1.4529167 2.4678688 -3.1113625E-05
v -1.4529192 2.4678688 -3.1113625E-05
v 0.7264415 2.4678688 -1.2582858
v -0.726444 2.4678688 -1.2582858
vt 0.96612775 0.027750969
vt 0.96612775 0.027750969
vt 0.9700377 0.027192414
vt 0.9694791 0.027192414
vt 0.96556926 0.026633859
vt 0.9700377 0.027192414
vt 0.9739475 0.027750969
vt 0.9694791 0.026633859
vt 0.96556926 0.026633859
vt 0.9700377 0.026633859
vt 0.9739475 0.027192414
vt 0.9694791 0.026633859
vt 0.9694791 0.023841068
vt 0.96556926 0.023282513
vt 0.9700377 0.026633859
vt 0.9739475 0.027192414
vt 0.9778575 0.027750969
vt 0.9739475 0.026633859
vt 0.9739475 0.026633859
vt 0.9778575 0.027192414
vt 0.9694791 0.023282513
vt 0.96556926 0.023282513
vt 0.9694791 0.022723958
vt 0.96612775 0.022723958
vt 0.9700377 0.023282513
vt 0.9700377 0.022723958
vt 0.96612775 0.022165403
vt 0.9700377 0.022723958
vt 0.9739475 0.022723958
vt 0.9739475 0.022723958
vt 0.9700377 0.023841068
vt 0.9739475 0.023282513
vt 0.9739475 0.022723958
vt 0.9778575 0.022723958
vt 0.9739475 0.023841068
vt 0.9739475 0.023282513
vt 0.9778575 0.022723958
vt 0.9739475 0.026633859
vt 0.9739475 0.023841068
vt 0.9739475 0.026633859
vt 0.9778575 0.023282513
vt 0.9778575 0.022723958
vt 0.9817674 0.022723958
vt 0.9778575 0.023841068
vt 0.9778575 0.023282513
vt 0.9778575 0.026633859
vt 0.9817674 0.022723958
vt 0.9778575 0.026633859
vt 0.9778575 0.026633859
vt 0.9778575 0.023841068
vt 0.9817674 0.022723958
vt 0.98567724 0.022723958
vt 0.9817674 0.023282513
vt 0.9778575 0.026633859
vt 0.9817674 0.023282513
vt 0.9817674 0.023841068
vt 0.98567724 0.022723958
vt 0.9778575 0.027192414
vt 0.9817674 0.027750969
vt 0.9817674 0.027192414
vt 0.9817674 0.026633859
vt 0.9817674 0.026633859
vt 0.9817674 0.023841068
vt 0.9817674 0.027192414
vt 0.98567724 0.027750969
vt 0.9817674 0.026633859
vt 0.98567724 0.027192414
vt 0.9817674 0.026633859
vt 0.98567724 0.023282513
vt 0.98567724 0.023841068
vt 0.98567724 0.026633859
vt 0.98567724 0.027192414
vt 0.9890286 0.027750969
vt 0.98567724 0.023282513
vt 0.98567724 0.026633859
vt 0.98567724 0.026633859
vt 0.9890286 0.027750969
vt 0.9895872 0.027750969
vt 0.9895872 0.026633859
vt 0.98567724 0.023841068
vt 0.9895872 0.026633859
vt 0.98567724 0.026633859
vt 0.9895872 0.026633859
vt 0.9901457 0.026633859
vt 0.9901457 0.023282513
vt 0.9895872 0.023282513
vt 0.9895872 0.023282513
vt 0.9895872 0.023282513
vt 0.9890286 0.022723958
vt 0.9895872 0.022723958
vt 0.9890286 0.022165403
vt 0.98567724 0.022723958
vt 0.9795332 0.027750969
vt 0.9778575 0.024958193
vt 0.97618175 0.027750969
vt 0.9806503 0.024958193
vt 0.97450614 0.024958193
vt 0.9795332 0.022165403
vt 0.97618175 0.022165403
vt 0.9795332 0.027750969
vt 0.9806503 0.024958193
vt 0.9778575 0.024958193
vt 0.97618175 0.027750969
vt 0.9795332 0.022723958
vt 0.97506464 0.024958193
vt 0.97618175 0.022723958
vn 0.6156816 0.70979846 -0.34223133
vn 0.027440675 0.9996234 -0
vn 0.011763923 0.99993086 -0
vn 0.6078385 0.7019553 -0.37120226
vn 0.70195544 0.5999954 -0.38375005
vn 0.011764646 0.70979846 -0.70430654
vn -0.011763804 0.99993086 -0
vn 0.6784262 0.6078384 -0.4126383
vn 0.87450314 0.011764526 -0.48487717
vn 0.019607723 0.5999954 -0.7997632
vn -0.011764526 0.7019553 -0.7121239
vn 0.858817 0.011764526 -0.5121474
vn 0.858817 -0.011764646 -0.5121474
vn 0.87450314 -0.011764646 -0.48487717
vn 0.019607723 0.011764526 -0.9997385
vn -0.6078384 0.70979846 -0.35597563
vn -0.027440555 0.9996234 -0
vn -0.019607663 0.6078384 -0.79381865
vn -0.68626916 0.5999954 -0.41114494
vn -0.62352455 0.7019553 -0.34420326
vn 0.6784262 -0.6078385 -0.41263813
vn 0.70195544 -0.59999543 -0.38374993
vn 0.6078385 -0.70195544 -0.37120202
vn 0.6156816 -0.7097985 -0.34223124
vn 0.019607723 -0.59999543 -0.7997631
vn 0.011763922 -0.99993086 -0
vn 0.027440673 -0.9996234 -0
vn 0.011764646 -0.7097985 -0.70430654
vn -0.011763803 -0.99993086 -0
vn -0.011764526 -0.70195544 -0.7121237
vn 0.019607723 -0.011764646 -0.9997385
vn -0.019607663 -0.6078385 -0.7938186
vn -0.6078384 -0.7097985 -0.35597554
vn -0.027440554 -0.9996234 -0
vn -0.019607663 -0.011764646 -0.9997385
vn -0.68626916 -0.59999543 -0.41114485
vn -0.62352455 -0.70195544 -0.344203
vn -0.019607663 0.011764526 -0.9997385
vn -0.85881686 -0.011764646 -0.5121476
vn -0.85881686 0.011764526 -0.5121476
vn -0.6941123 -0.6078385 -0.3856689
vn -0.6156815 -0.7097985 0.34223142
vn -0.011763803 -0.99993086 -0
vn -0.874503 -0.011764646 -0.48487735
vn -0.7019553 -0.59999543 0.38375023
vn -0.6941123 0.6078384 -0.38566908
vn -0.6078384 -0.70195544 0.3712022
vn -0.874503 0.011764526 -0.48487735
vn -0.7019553 0.5999954 0.38375035
vn -0.874503 -0.011764646 0.48487735
vn -0.011764526 -0.7097985 0.70430654
vn 0.011763922 -0.99993086 -0
vn -0.67842615 -0.6078385 0.41263822
vn -0.874503 0.011764526 0.48487735
vn -0.019607663 -0.59999543 0.7997631
vn -0.85881686 -0.011764646 0.5121476
vn 0.011764646 -0.70195544 0.7121237
vn -0.6156815 0.70979846 0.3422315
vn -0.011763804 0.99993086 -0
vn -0.6078384 0.7019553 0.37120244
vn -0.67842615 0.6078384 0.4126384
vn -0.85881686 0.011764526 0.5121476
vn -0.019607663 -0.011764646 0.9997385
vn -0.011764526 0.70979846 0.70430654
vn 0.011763923 0.99993086 -0
vn -0.019607663 0.5999954 0.7997632
vn 0.011764646 0.7019553 0.7121239
vn -0.019607663 0.011764526 0.9997385
vn 0.019607723 -0.6078385 0.7938186
vn 0.019607723 -0.011764646 0.9997385
vn 0.019607723 0.6078384 0.79381865
vn 0.6078385 0.70979846 0.35597545
vn 0.027440675 0.9996234 -0
vn 0.6862693 -0.59999543 0.4111447
vn 0.019607723 0.011764526 0.9997385
vn 0.6862693 0.5999954 0.41114482
vn 0.62352467 0.7019553 0.34420308
vn 0.6156816 0.70979846 -0.34223133
vn 0.70195544 0.5999954 -0.38375005
vn 0.858817 -0.011764646 0.5121474
vn 0.69411236 0.6078384 0.38566893
vn 0.858817 0.011764526 0.5121474
vn 0.87450314 0.011764526 0.48487717
vn 0.87450314 0.011764526 -0.48487717
vn 0.87450314 -0.011764646 -0.48487717
vn 0.87450314 -0.011764646 0.48487717
vn 0.70195544 -0.59999543 -0.38374993
vn 0.69411236 -0.6078385 0.38566875
vn 0.62352467 -0.70195544 0.34420282
vn 0.6156816 -0.7097985 -0.34223124
vn 0.027440673 -0.9996234 -0
vn 0.6078385 -0.7097985 0.35597536
vn 0.011763922 -0.99993086 -0
vn -0.003921509 -0.9999924 -0
vn -0.011763803 -0.99993086 -0
vn 0.027440673 -0.9996234 -0
vn -0.027440554 -0.9996234 -0
vn 0.011763922 -0.99993086 -0
vn -0.011763803 -0.99993086 -0
vn 0.011763923 0.99993086 -0
vn -0.011763804 0.99993086 -0
vn -0.003921509 0.99999225 -0.00034526698
vn 0.027440675 0.9996234 -0
vn -0.027440555 0.9996234 -0
vn 0.011763923 0.99993086 -0
vn -0.011763804 0.99993086 -0
g ENV_S10_Retro_Big_Fan_Center_Medium_01c_MO_0
f 3/3/3 2/2/2 1/1/1
f 3/3/3 1/1/1 4/4/4
f 4/4/4 1/1/1 5/5/5
f 4/4/4 6/6/6 3/3/3
f 6/6/6 7/7/7 3/3/3
f 4/4/4 5/5/5 8/8/8
f 8/8/8 5/5/5 9/9/9
f 10/10/10 6/6/6 4/4/4
f 10/10/10 4/4/4 8/8/8
f 6/6/6 11/11/11 7/7/7
f 10/10/10 11/11/11 6/6/6
f 8/8/8 9/9/9 12/12/12
f 10/10/10 8/8/8 12/12/12
f 9/9/9 13/13/13 12/12/12
f 9/9/9 14/14/14 13/13/13
f 10/10/10 12/12/12 15/15/15
f 15/15/15 12/12/12 13/13/13
f 11/11/11 16/16/16 7/7/7
f 16/16/16 17/17/17 7/7/7
f 10/10/10 18/18/18 11/11/11
f 15/15/15 18/18/18 10/10/10
f 19/19/19 16/16/16 11/11/11
f 19/19/19 11/11/11 18/18/18
f 16/16/16 20/20/20 17/17/17
f 19/19/19 20/20/20 16/16/16
f 14/14/14 21/21/21 13/13/13
f 14/14/14 22/22/22 21/21/21
f 22/22/22 23/23/23 21/21/21
f 22/22/22 24/24/24 23/23/23
f 13/13/13 21/21/21 25/25/25
f 23/23/23 25/25/25 21/21/21
f 24/24/24 26/26/26 23/23/23
f 24/24/24 27/27/27 26/26/26
f 28/28/28 23/23/23 26/26/26
f 23/23/23 28/28/28 25/25/25
f 29/29/29 28/28/28 26/26/26
f 29/29/29 30/30/30 28/28/28
f 30/30/30 25/25/25 28/28/28
f 13/13/13 25/25/25 31/31/31
f 15/15/15 13/13/13 31/31/31
f 32/32/32 31/31/31 25/25/25
f 30/30/30 32/32/32 25/25/25
f 33/33/33 30/30/30 29/29/29
f 34/34/34 33/33/33 29/29/29
f 15/15/15 31/31/31 35/35/35
f 32/32/32 35/35/35 31/31/31
f 30/30/30 36/36/36 32/32/32
f 30/30/30 33/33/33 36/36/36
f 35/35/35 32/32/32 36/36/36
f 34/34/34 37/37/37 33/33/33
f 37/37/37 36/36/36 33/33/33
f 15/15/15 35/35/35 38/38/38
f 15/15/15 38/38/38 18/18/18
f 19/19/19 18/18/18 38/38/38
f 35/35/35 36/36/36 39/39/39
f 38/38/38 35/35/35 39/39/39
f 19/19/19 38/38/38 40/40/40
f 38/38/38 39/39/39 40/40/40
f 41/41/41 39/39/39 36/36/36
f 37/37/37 41/41/41 36/36/36
f 42/42/42 37/37/37 34/34/34
f 43/43/43 42/42/42 34/34/34
f 41/41/41 44/44/44 39/39/39
f 40/40/40 39/39/39 44/44/44
f 37/37/37 45/45/45 41/41/41
f 37/37/37 42/42/42 45/45/45
f 44/44/44 41/41/41 45/45/45
f 40/40/40 46/46/46 19/19/19
f 19/19/19 46/46/46 20/20/20
f 43/43/43 47/47/47 42/42/42
f 47/47/47 45/45/45 42/42/42
f 40/40/40 44/44/44 48/48/48
f 40/40/40 48/48/48 46/46/46
f 49/49/49 20/20/20 46/46/46
f 49/49/49 46/46/46 48/48/48
f 44/44/44 45/45/45 50/50/50
f 48/48/48 44/44/44 50/50/50
f 51/51/51 47/47/47 43/43/43
f 52/52/52 51/51/51 43/43/43
f 47/47/47 53/53/53 45/45/45
f 53/53/53 50/50/50 45/45/45
f 48/48/48 50/50/50 54/54/54
f 49/49/49 48/48/48 54/54/54
f 47/47/47 51/51/51 55/55/55
f 47/47/47 55/55/55 53/53/53
f 53/53/53 56/56/56 50/50/50
f 54/54/54 50/50/50 56/56/56
f 56/56/56 53/53/53 55/55/55
f 52/52/52 57/57/57 51/51/51
f 57/57/57 55/55/55 51/51/51
f 49/49/49 58/58/58 20/20/20
f 20/20/20 58/58/58 17/17/17
f 58/58/58 59/59/59 17/17/17
f 49/49/49 60/60/60 58/58/58
f 58/58/58 60/60/60 59/59/59
f 54/54/54 61/61/61 49/49/49
f 49/49/49 61/61/61 60/60/60
f 54/54/54 56/56/56 62/62/62
f 54/54/54 62/62/62 61/61/61
f 56/56/56 55/55/55 63/63/63
f 62/62/62 56/56/56 63/63/63
f 60/60/60 64/64/64 59/59/59
f 64/64/64 65/65/65 59/59/59
f 66/66/66 60/60/60 61/61/61
f 66/66/66 61/61/61 62/62/62
f 66/66/66 64/64/64 60/60/60
f 64/64/64 67/67/67 65/65/65
f 66/66/66 67/67/67 64/64/64
f 66/66/66 62/62/62 68/68/68
f 62/62/62 63/63/63 68/68/68
f 69/69/69 63/63/63 55/55/55
f 57/57/57 69/69/69 55/55/55
f 69/69/69 70/70/70 63/63/63
f 68/68/68 63/63/63 70/70/70
f 68/68/68 71/71/71 66/66/66
f 66/66/66 71/71/71 67/67/67
f 67/67/67 72/72/72 65/65/65
f 73/73/73 65/65/65 72/72/72
f 57/57/57 74/74/74 69/69/69
f 70/70/70 69/69/69 74/74/74
f 68/68/68 75/75/75 71/71/71
f 68/68/68 70/70/70 75/75/75
f 76/76/76 67/67/67 71/71/71
f 76/76/76 72/72/72 67/67/67
f 76/76/76 71/71/71 75/75/75
f 73/73/73 72/72/72 77/77/77
f 76/76/76 77/77/77 72/72/72
f 78/78/78 73/73/73 77/77/77
f 77/77/77 79/79/79 78/78/78
f 75/75/75 70/70/70 80/80/80
f 70/70/70 74/74/74 80/80/80
f 76/76/76 81/81/81 77/77/77
f 77/77/77 81/81/81 79/79/79
f 76/76/76 75/75/75 82/82/82
f 81/81/81 76/76/76 82/82/82
f 75/75/75 80/80/80 82/82/82
f 79/79/79 81/81/81 83/83/83
f 81/81/81 82/82/82 83/83/83
f 79/79/79 83/83/83 84/84/84
f 83/83/83 85/85/85 84/84/84
f 82/82/82 86/86/86 83/83/83
f 83/83/83 86/86/86 85/85/85
f 82/82/82 80/80/80 86/86/86
f 86/86/86 87/87/87 85/85/85
f 80/80/80 88/88/88 86/86/86
f 86/86/86 88/88/88 87/87/87
f 80/80/80 74/74/74 88/88/88
f 87/87/87 88/88/88 89/89/89
f 89/89/89 88/88/88 74/74/74
f 87/87/87 89/89/89 90/90/90
f 91/91/91 90/90/90 89/89/89
f 89/89/89 74/74/74 92/92/92
f 92/92/92 91/91/91 89/89/89
f 57/57/57 92/92/92 74/74/74
f 92/92/92 52/52/52 91/91/91
f 92/92/92 57/57/57 52/52/52
f 95/95/95 94/94/94 93/93/93
f 93/93/93 94/94/94 96/96/96
f 97/97/97 94/94/94 95/95/95
f 94/94/94 98/98/98 96/96/96
f 97/97/97 99/99/99 94/94/94
f 99/99/99 98/98/98 94/94/94
f 102/102/102 101/101/101 100/100/100
f 102/102/102 100/100/100 103/103/103
f 102/102/102 104/104/104 101/101/101
f 105/105/105 102/102/102 103/103/103
f 106/106/106 104/104/104 102/102/102
f 105/105/105 106/106/106 102/102/102
