g ENV_S07_Bgr_Little_Light_PInk
v 605.54614 233.16187 1.140564
v 606.23865 230.49463 -0.0006713867
v 605.48206 233.37982 -0.0006713867
v 605.7001 232.53351 2.102295
v 605.54614 233.16187 -1.1419067
v 605.94366 231.59741 2.7562866
v 605.7001 232.53351 -2.1036377
v 606.23865 230.49463 2.9871216
v 605.94366 231.59741 -2.7576294
v 606.52075 229.39185 2.7562866
v 606.23865 230.49463 -2.975647
v 606.76434 228.45575 2.102295
v 606.52075 229.39185 -2.7576294
v 606.9311 227.82745 1.140564
v 606.76434 228.45575 -2.1036377
v 606.98236 227.60944 -0.0006713867
v 606.9311 227.82745 -1.1419067
vt 0.017810002 0.7707997
vt 0.012523214 0.77306545
vt 0.018565258 0.77306545
vt 0.017054748 0.76853395
vt 0.017810002 0.77533126
vt 0.014788981 0.7677787
vt 0.017054748 0.777597
vt 0.012523214 0.76702344
vt 0.014788981 0.77835226
vt 0.010257448 0.7677787
vt 0.012523214 0.7791075
vt 0.007991682 0.76853395
vt 0.010257448 0.77835226
vt 0.007236426 0.7707997
vt 0.007991682 0.777597
vt 0.0064811707 0.77306545
vt 0.007236426 0.77533126
vn -0.96796477 -0.2510861 -0
vn -0.96796477 -0.2510861 -0
vn -0.96796477 -0.2510861 -0
vn -0.96796477 -0.2510861 -0
vn -0.96796477 -0.2510861 -0
vn -0.96796477 -0.2510861 -0
vn -0.96796477 -0.2510861 -0
vn -0.96796477 -0.2510861 -0
vn -0.96796477 -0.2510861 -0
vn -0.96796477 -0.2510861 -0
vn -0.96796477 -0.2510861 -0
vn -0.96796477 -0.2510861 -0
vn -0.96796477 -0.2510861 -0
vn -0.96796477 -0.2510861 -0
vn -0.96796477 -0.2510861 -0
vn -0.96796477 -0.2510861 -0
vn -0.96796477 -0.2510861 -0
g ENV_S07_Bgr_Little_Light_PInk_0
f 3/3/3 2/2/2 1/1/1
f 1/1/1 2/2/2 4/4/4
f 5/5/5 2/2/2 3/3/3
f 4/4/4 2/2/2 6/6/6
f 7/7/7 2/2/2 5/5/5
f 6/6/6 2/2/2 8/8/8
f 9/9/9 2/2/2 7/7/7
f 8/8/8 2/2/2 10/10/10
f 11/11/11 2/2/2 9/9/9
f 10/10/10 2/2/2 12/12/12
f 13/13/13 2/2/2 11/11/11
f 12/12/12 2/2/2 14/14/14
f 15/15/15 2/2/2 13/13/13
f 14/14/14 2/2/2 16/16/16
f 17/17/17 2/2/2 15/15/15
f 16/16/16 2/2/2 17/17/17
