g ENV_PachinkoPillar02_Col
v 1.4683533 -0.23976177 9.628684
v 1.322367 0.6652588 9.628772
v 1.322367 0.6652588 -9.576386
v 1.4683533 -0.23976177 -9.576282
v 1.0490017 -1.0548576 9.628122
v 1.4683533 -0.23976177 9.628684
v 1.4683533 -0.23976177 -9.576282
v 1.0490017 -1.0548576 -9.57561
v 0.23250854 -1.4593465 9.623923
v 1.0490017 -1.0548576 9.628122
v 1.0490017 -1.0548576 -9.57561
v 0.23250854 -1.4593465 -9.570613
v -0.6691908 -1.3250684 9.628806
v 0.23250854 -1.4593465 9.623923
v 0.23250854 -1.4593465 -9.570613
v -0.6691908 -1.3250684 -9.576428
v -1.3136446 -0.67774665 9.626697
v -0.6691908 -1.3250684 9.628806
v -0.6691908 -1.3250684 -9.576428
v -1.3136446 -0.67774665 -9.573918
v -1.463668 0.22562404 9.62821
v -1.3136446 -0.67774665 9.626697
v -1.3136446 -0.67774665 -9.573918
v -1.463668 0.22562404 -9.575723
v -1.0472736 1.043265 9.629216
v -1.463668 0.22562404 9.62821
v -1.463668 0.22562404 -9.575723
v -1.0472736 1.043265 -9.576914
v -0.22848235 1.4526498 9.626985
v -1.0472736 1.043265 9.629216
v -1.0472736 1.043265 -9.576914
v -0.22848235 1.4526498 -9.574263
v 0.675206 1.3116523 9.628337
v -0.22848235 1.4526498 9.626985
v -0.22848235 1.4526498 -9.574263
v 0.675206 1.3116523 -9.575867
v 1.322367 0.6652588 9.628772
v 0.675206 1.3116523 9.628337
v 0.675206 1.3116523 -9.575867
v 1.322367 0.6652588 -9.576386
v 0.0026226805 -0.007087364 -9.904904
v 0.23250854 -1.4593465 -9.570613
v 1.0490017 -1.0548576 -9.57561
v -0.6691908 -1.3250684 -9.576428
v 1.4683533 -0.23976177 -9.576282
v -1.3136446 -0.67774665 -9.573918
v 1.322367 0.6652588 -9.576386
v -1.463668 0.22562404 -9.575723
v 0.675206 1.3116523 -9.575867
v -1.0472736 1.043265 -9.576914
v -0.22848235 1.4526498 -9.574263
v 0.0026226805 -0.007087364 9.904904
v 1.0490017 -1.0548576 9.628122
v 0.23250854 -1.4593465 9.623923
v -0.6691908 -1.3250684 9.628806
v 1.4683533 -0.23976177 9.628684
v -1.3136446 -0.67774665 9.626697
v 1.322367 0.6652588 9.628772
v -1.463668 0.22562404 9.62821
v 0.675206 1.3116523 9.628337
v -1.0472736 1.043265 9.629216
v -0.22848235 1.4526498 9.626985
vt 0.83389246 0.0163665
vt 0.9091215 0.0196095
vt 0.9091215 0.0196095
vt 0.83389246 0.0163665
vt 0.771557 0.0582425
vt 0.83389246 0.0163665
vt 0.83389246 0.0163665
vt 0.771557 0.0582425
vt 0.745643 0.1285525
vt 0.771557 0.0582425
vt 0.771557 0.0582425
vt 0.745643 0.1285525
vt 0.7659265 0.200587
vt 0.745643 0.1285525
vt 0.745643 0.1285525
vt 0.7659265 0.200587
vt 0.824317 0.24755651
vt 0.7659265 0.200587
vt 0.7659265 0.200587
vt 0.824317 0.24755651
vt 0.899546 0.25112098
vt 0.824317 0.24755651
vt 0.824317 0.24755651
vt 0.899546 0.25112098
vt 0.96226203 0.20942101
vt 0.899546 0.25112098
vt 0.899546 0.25112098
vt 0.96226203 0.20942101
vt 0.98852646 0.138684
vt 0.96226203 0.20942101
vt 0.96226203 0.20942101
vt 0.98852646 0.138684
vt 0.967959 0.066408
vt 0.98852646 0.138684
vt 0.98852646 0.138684
vt 0.967959 0.066408
vt 0.9091215 0.0196095
vt 0.967959 0.066408
vt 0.967959 0.066408
vt 0.9091215 0.0196095
vt 0.866875 0.133585
vt 0.745643 0.1285525
vt 0.771557 0.0582425
vt 0.7659265 0.200587
vt 0.83389246 0.0163665
vt 0.824317 0.24755651
vt 0.9091215 0.0196095
vt 0.899546 0.25112098
vt 0.967959 0.066408
vt 0.96226203 0.20942101
vt 0.98852646 0.138684
vt 0.866875 0.133585
vt 0.771557 0.0582425
vt 0.745643 0.1285525
vt 0.7659265 0.200587
vt 0.83389246 0.0163665
vt 0.824317 0.24755651
vt 0.9091215 0.0196095
vt 0.899546 0.25112098
vt 0.967959 0.066408
vt 0.96226203 0.20942101
vt 0.98852646 0.138684
vn 0.9872385 0.1592485 0
vn 0.9872385 0.15924852 0
vn 0.9872385 0.15924853 0
vn 0.9872385 0.1592485 0
vn 0.8892172 -0.45748535 0
vn 0.8892172 -0.45748535 0
vn 0.8892172 -0.45748535 0
vn 0.8892172 -0.45748535 0
vn 0.4439114 -0.8960706 0
vn 0.4439114 -0.8960706 0
vn 0.44391146 -0.8960706 0
vn 0.4439114 -0.8960706 0
vn -0.14729261 -0.98909295 0
vn -0.14729263 -0.98909295 0
vn -0.14729264 -0.98909295 0
vn -0.14729263 -0.98909295 0
vn -0.7086748 -0.7055353 0
vn -0.7086748 -0.7055353 0
vn -0.7086748 -0.7055353 0
vn -0.70867485 -0.7055353 0
vn -0.9864891 -0.16382693 0
vn -0.9864891 -0.1638269 0
vn -0.9864891 -0.1638269 0
vn -0.9864891 -0.16382691 0
vn -0.89110106 0.453805 0
vn -0.89110106 0.453805 0
vn -0.89110106 0.45380494 0
vn -0.89110106 0.453805 0
vn -0.44720438 0.89443177 0
vn -0.44720432 0.8944318 0
vn -0.44720432 0.89443177 0
vn -0.44720438 0.89443177 0
vn 0.15415932 0.98804593 0
vn 0.15415932 0.98804593 0
vn 0.15415932 0.98804593 0
vn 0.15415932 0.98804593 0
vn 0.70668703 0.70752627 0
vn 0.70668703 0.7075263 0
vn 0.70668703 0.70752627 0
vn 0.70668703 0.70752627 0
vn -0.00013043027 -0.0006473161 -0.99999976
vn 0.034947533 -0.2189278 -0.975115
vn 0.15047452 -0.1565118 -0.9761462
vn -0.096303545 -0.1942116 -0.9762211
vn 0.21344866 -0.034357265 -0.97635
vn -0.19482496 -0.0992128 -0.97580737
vn 0.19274135 0.09869286 -0.9762738
vn -0.21415435 0.03165775 -0.9762867
vn 0.09724172 0.19397001 -0.9761761
vn -0.15153937 0.1534453 -0.9764683
vn -0.033156827 0.2157938 -0.9758758
vn -0.000112573485 -0.0005494791 0.9999999
vn 0.12736918 -0.13246161 0.9829705
vn 0.029583637 -0.18535711 0.9822258
vn -0.08151949 -0.16437575 0.98302346
vn 0.18065149 -0.029075678 0.98311734
vn -0.16491891 -0.083982475 0.9827252
vn 0.16312875 0.08352981 0.9830625
vn -0.18125348 0.026800826 0.98307115
vn 0.08230931 0.16417503 0.9829912
vn -0.12825826 0.12986231 0.9832017
vn -0.02807162 0.18266632 0.98277414
g ENV_PachinkoPillar02_Col_0
f 3/3/3 2/2/2 1/1/1
f 4/4/4 3/3/3 1/1/1
f 7/7/7 6/6/6 5/5/5
f 8/8/8 7/7/7 5/5/5
f 11/11/11 10/10/10 9/9/9
f 12/12/12 11/11/11 9/9/9
f 15/15/15 14/14/14 13/13/13
f 16/16/16 15/15/15 13/13/13
f 19/19/19 18/18/18 17/17/17
f 20/20/20 19/19/19 17/17/17
f 23/23/23 22/22/22 21/21/21
f 24/24/24 23/23/23 21/21/21
f 27/27/27 26/26/26 25/25/25
f 28/28/28 27/27/27 25/25/25
f 31/31/31 30/30/30 29/29/29
f 32/32/32 31/31/31 29/29/29
f 35/35/35 34/34/34 33/33/33
f 36/36/36 35/35/35 33/33/33
f 39/39/39 38/38/38 37/37/37
f 40/40/40 39/39/39 37/37/37
f 43/43/43 42/42/42 41/41/41
f 42/42/42 44/44/44 41/41/41
f 45/45/45 43/43/43 41/41/41
f 44/44/44 46/46/46 41/41/41
f 47/47/47 45/45/45 41/41/41
f 46/46/46 48/48/48 41/41/41
f 49/49/49 47/47/47 41/41/41
f 48/48/48 50/50/50 41/41/41
f 51/51/51 49/49/49 41/41/41
f 50/50/50 51/51/51 41/41/41
f 54/54/54 53/53/53 52/52/52
f 55/55/55 54/54/54 52/52/52
f 53/53/53 56/56/56 52/52/52
f 57/57/57 55/55/55 52/52/52
f 56/56/56 58/58/58 52/52/52
f 59/59/59 57/57/57 52/52/52
f 58/58/58 60/60/60 52/52/52
f 61/61/61 59/59/59 52/52/52
f 60/60/60 62/62/62 52/52/52
f 62/62/62 61/61/61 52/52/52
