g ENV_S04_Taper_Ramp_Round_M_HardPlastic_White_MO
v 11.919791 -1.0009222 18.032356
v 11.911078 -0.9926691 18.079128
v 11.918416 -0.95415115 18.089672
v 11.9376745 -0.95369244 18.032814
v 11.9376745 -0.2741289 18.032814
v 11.918416 -0.2736702 18.089672
v 4.487697 2.941187 11.07027
v 4.487697 3.6519318 11.07027
v 11.919791 -0.22689915 18.032356
v 4.469814 2.8939571 11.07027
v 11.873478 -1.0284357 18.032814
v 4.423501 2.8893719 11.07027
v 4.4230423 2.8930397 11.01341
v 4.4611015 2.9022112 11.023955
v 4.468438 2.9402695 11.01341
v 4.468438 3.6528482 11.01341
v 4.469814 3.6991615 11.07027
v 11.911078 -0.2351532 18.079128
v 11.873478 -0.22644043 18.089672
v 11.873478 -0.1993866 18.032814
v 4.4611015 3.6909075 11.023955
v 4.4230423 3.6996202 11.01341
v 4.423501 3.7110834 11.07027
v 11.252608 -0.22644043 18.09013
v 11.252608 -0.1993866 18.034649
v 4.4216666 3.653307 10.990024
v 4.468438 2.9402695 11.01341
v 3.8021727 3.6996202 11.012952
v 3.8021727 3.7110834 11.068435
v 3.8021727 3.653307 10.990024
v 4.4216666 2.939353 10.990024
v -3.6496391 3.6996202 11.012952
v -3.6496391 3.7110834 11.068435
v -4.293435 3.7110834 11.07027
v 4.4230423 2.8930397 11.01341
v 4.4611015 2.9022112 11.023955
v -3.6496391 3.653307 10.990024
v 3.8021727 2.939353 10.990024
v 3.8021727 2.8930397 11.012952
v 4.423501 2.8893719 11.07027
v 3.8021727 2.8893719 11.068435
v -3.6496391 2.939353 10.990024
v -3.6496391 2.8930397 11.012952
v -3.6496391 2.8893719 11.068435
v -4.293435 2.8893719 11.07027
v -4.2929773 2.8930397 11.01341
v -4.29206 2.939353 10.990024
v -4.29206 3.653307 10.990024
v -4.2929773 3.6996202 11.01341
v -4.338372 3.6528482 11.01341
v -4.29206 2.939353 10.990024
v -4.338372 2.9402695 11.01341
v -4.2929773 2.8930397 11.01341
v -4.3397493 3.6991615 11.07027
v -4.3310366 3.6909075 11.023955
v -4.3576326 3.6519318 11.07027
v -11.980481 -0.22689915 18.032356
v -11.934167 -0.1993866 18.032814
v -11.998364 -0.2741289 18.032814
v -4.3576326 2.941187 11.07027
v -4.3310366 2.9022112 11.023955
v -4.3397493 2.8939571 11.07027
v -4.293435 2.8893719 11.07027
v -11.998364 -0.95369244 18.032814
v -11.980481 -1.0009222 18.032356
v -11.934167 -1.0284357 18.032814
v -11.933709 -1.0013809 18.089672
v -11.979104 -0.2736702 18.089672
v -11.979104 -0.95415115 18.089672
v -11.971768 -0.9926691 18.079128
v -11.932792 -0.95506763 18.11306
v -11.932792 -0.27275372 18.11306
v -11.971768 -0.2351532 18.079128
v -11.933709 -0.22644043 18.089672
v -11.29037 -0.27275372 18.11306
v -11.932792 -0.95506763 18.11306
v -11.29037 -0.22644043 18.09013
v -11.29037 -0.1993866 18.034649
v -11.29037 -0.95506763 18.11306
v -11.933709 -1.0013809 18.089672
v 11.252608 -0.27275372 18.11306
v 11.872103 -0.27275372 18.11306
v 11.252608 -0.95506763 18.11306
v 11.872103 -0.95506763 18.11306
v 11.918416 -0.95415115 18.089672
v 11.873478 -1.0013809 18.089672
v 11.911078 -0.9926691 18.079128
v 11.919791 -1.0009222 18.032356
v 11.873478 -1.0284357 18.032814
v 11.252608 -1.0013809 18.09013
v 11.252608 -1.0284357 18.034649
v -11.29037 -1.0013809 18.09013
v -11.29037 -1.0284357 18.034649
v -11.934167 -1.0284357 18.032814
vt 1.3335394 0.51027715
vt 1.3343457 0.5135025
vt 1.3319267 0.5159214
vt 1.3311204 0.5118898
vt 1.2867723 0.52479106
vt 1.2859659 0.5288227
vt 0.8344215 -0.0017419755
vt 0.7924924 0.017609954
vt 1.2835469 0.52479106
vt 0.8368405 -0.003354609
vt 1.335152 0.5070518
vt 0.83764684 -0.0065799356
vt 0.8344215 -0.008192599
vt 0.8344215 -0.005773604
vt 0.8320025 -0.0049672723
vt 0.7900734 0.014384627
vt 0.78926706 0.018416256
vt 1.2835469 0.52721006
vt 1.2811279 0.5280164
vt 1.2803216 0.52479106
vt 0.78846073 0.01599729
vt 0.78604174 0.015190959
vt 0.78604174 0.018416256
vt 1.2400051 0.52962905
vt 1.2400051 0.5255974
vt 0.78684807 0.012771964
vt 0.7908797 -0.031576157
vt 0.7457253 0.01599729
vt 0.7457253 0.019222587
vt 0.7457253 0.011965632
vt 0.7876544 -0.031576157
vt 0.25789607 0.033736527
vt 0.2587024 0.037768185
vt 0.21677327 0.03938082
vt 0.78846073 -0.035607785
vt 0.7908797 -0.03399512
vt 0.25789607 0.0305112
vt 0.74491894 -0.03399512
vt 0.74491894 -0.03802678
vt 0.78846073 -0.03883311
vt 0.74491894 -0.041252106
vt 0.2538644 -0.015449554
vt 0.2538644 -0.019481212
vt 0.2538644 -0.022706538
vt 0.21112895 -0.019481212
vt 0.21193528 -0.016255885
vt 0.21193528 -0.013030559
vt 0.21516061 0.032930195
vt 0.21596694 0.036155522
vt 0.21274161 0.03534919
vt 0.17323148 0.013578296
vt 0.17161885 0.016803622
vt 0.16919985 0.013578296
vt 0.21354795 0.03938082
vt 0.21435428 0.036961854
vt 0.21032262 0.03938082
vt -0.26379898 0.5715582
vt -0.26057366 0.5715582
vt -0.2670243 0.5715582
vt 0.16919985 0.020028919
vt 0.16919985 0.01599729
vt 0.16678086 0.017609954
vt 0.16597453 0.015190959
vt -0.30975977 0.55785054
vt -0.31217873 0.55623794
vt -0.31459773 0.55381894
vt -0.31540406 0.5594632
vt -0.26621798 0.5747835
vt -0.3113724 0.5618822
vt -0.31298506 0.5594632
vt -0.31298506 0.5643012
vt -0.2646053 0.5788151
vt -0.26379898 0.5739772
vt -0.26218632 0.57558984
vt -0.2202572 0.57962143
vt -0.26218632 0.62396955
vt -0.2202572 0.57639617
vt -0.2202572 0.5723645
vt -0.21945086 0.62396955
vt -0.26218632 0.6271949
vt 1.2408115 0.5336607
vt 1.2819343 0.5304354
vt 1.2448431 0.57720244
vt 1.2867723 0.57317084
vt 1.2899976 0.5723645
vt 1.2867723 0.57639617
vt 1.2899976 0.57558984
vt 1.2908039 0.5788151
vt 1.2875786 0.58042777
vt 1.2456495 0.5812341
vt 1.2456495 0.58526576
vt -0.21945086 0.6271949
vt -0.21945086 0.63122654
vt -0.26218632 0.63122654
vn 0.722557 -0.6913113 -0
vn 0.62352467 -0.59999543 0.501221
vn 0.77254313 -0.0039215684 0.63495016
vn 0.9999924 -0.0039215684 -0
vn 0.9999924 0.003921509 -0
vn 0.77254313 0.003921509 0.63495016
vn 0.9999924 -0.0039215684 -0
vn 0.9999924 0.003921509 -0
vn 0.722557 0.69131124 -0
vn 0.722557 -0.6913113 -0
vn 0.027440673 -0.9996234 -0
vn 0.027440673 -0.9996234 -0
vn 0.019607723 -0.77254313 -0.63465947
vn 0.63136774 -0.59999543 -0.4913046
vn 0.76470006 -0.0039215684 -0.6443745
vn 0.76470006 0.003921509 -0.6443745
vn 0.722557 0.69131124 -0
vn 0.62352467 0.5999954 0.50122106
vn 0.019607723 0.7725431 0.6346595
vn 0.027440675 0.9996234 -0
vn 0.63136774 0.5999954 -0.4913047
vn 0.019607723 0.7725431 -0.6346595
vn 0.027440675 0.9996234 -0
vn 0.0039215684 0.76469994 0.6443746
vn -0.003921509 0.99999225 -0.00034526698
vn 0.035293877 0.011764526 -0.9993077
vn 0.76470006 -0.0039215684 -0.6443745
vn 0.0039215684 0.76469994 -0.6443746
vn -0.003921509 0.99999225 -0.00034526698
vn -0.003921509 0.011764526 -0.9999231
vn 0.035293877 -0.011764646 -0.9993077
vn -0.003921509 0.76469994 -0.6443746
vn -0.003921509 0.99999225 -0.00034526698
vn -0.027440555 0.9996234 -0
vn 0.019607723 -0.77254313 -0.63465947
vn 0.63136774 -0.59999543 -0.4913046
vn -0.003921509 0.011764526 -0.9999231
vn -0.003921509 -0.011764646 -0.9999231
vn 0.0039215684 -0.76470006 -0.6443745
vn 0.027440673 -0.9996234 -0
vn -0.003921509 -0.9999924 -0
vn -0.003921509 -0.011764646 -0.9999231
vn -0.003921509 -0.76470006 -0.6443745
vn -0.003921509 -0.9999924 -0
vn -0.027440554 -0.9996234 -0
vn -0.019607663 -0.77254313 -0.63465947
vn -0.035293818 -0.011764646 -0.9993077
vn -0.035293818 0.011764526 -0.9993077
vn -0.019607663 0.7725431 -0.6346595
vn -0.76469994 0.003921509 -0.6443746
vn -0.035293818 -0.011764646 -0.9993077
vn -0.76469994 -0.0039215684 -0.6443746
vn -0.019607663 -0.77254313 -0.63465947
vn -0.722557 0.6913113 -0
vn -0.6313677 0.5999954 -0.4913048
vn -0.99999225 0.003921509 -0.00034492963
vn -0.722557 0.6913113 -0
vn -0.027440555 0.9996234 -0
vn -0.99999225 0.003921509 -0.00034492963
vn -0.99999225 -0.0039215684 -0.00034425134
vn -0.6313677 -0.59999543 -0.49130473
vn -0.722557 -0.69131136 -0
vn -0.027440554 -0.9996234 -0
vn -0.99999225 -0.0039215684 -0.00034425134
vn -0.722557 -0.69131136 -0
vn -0.027440554 -0.9996234 -0
vn -0.019607663 -0.77254313 0.63465947
vn -0.7725431 0.003921509 0.6349503
vn -0.7725431 -0.0039215684 0.6349503
vn -0.62352455 -0.59999543 0.5012211
vn -0.035293818 -0.011764646 0.9993077
vn -0.035293818 0.011764526 0.9993077
vn -0.62352455 0.5999954 0.5012212
vn -0.019607663 0.7725431 0.6346595
vn -0.003921509 0.011764526 0.9999231
vn -0.035293818 -0.011764646 0.9993077
vn -0.003921509 0.76469994 0.6443746
vn -0.003921509 0.99999225 -0.00034526698
vn -0.003921509 -0.011764646 0.9999231
vn -0.019607663 -0.77254313 0.63465947
vn -0.003921509 0.011764526 0.9999231
vn 0.035293877 0.011764526 0.9993077
vn -0.003921509 -0.011764646 0.9999231
vn 0.035293877 -0.011764646 0.9993077
vn 0.77254313 -0.0039215684 0.63495016
vn 0.019607723 -0.77254313 0.63465947
vn 0.62352467 -0.59999543 0.501221
vn 0.722557 -0.6913113 -0
vn 0.027440673 -0.9996234 -0
vn 0.0039215684 -0.76470006 0.6443745
vn -0.003921509 -0.9999924 -0
vn -0.003921509 -0.76470006 0.6443745
vn -0.003921509 -0.9999924 -0
vn -0.027440554 -0.9996234 -0
g ENV_S04_Taper_Ramp_Round_M_HardPlastic_White_MO_0
f 3/3/3 2/2/2 1/1/1
f 4/4/4 3/3/3 1/1/1
f 3/3/3 4/4/4 5/5/5
f 6/6/6 3/3/3 5/5/5
f 7/7/7 4/4/4 1/1/1
f 5/5/5 4/4/4 8/8/8
f 4/4/4 7/7/7 8/8/8
f 6/6/6 5/5/5 9/9/9
f 5/5/5 8/8/8 9/9/9
f 10/10/10 7/7/7 1/1/1
f 10/10/10 1/1/1 11/11/11
f 12/12/12 10/10/10 11/11/11
f 10/10/10 12/12/12 13/13/13
f 14/14/14 10/10/10 13/13/13
f 14/14/14 15/15/15 10/10/10
f 15/15/15 7/7/7 10/10/10
f 7/7/7 15/15/15 16/16/16
f 8/8/8 7/7/7 16/16/16
f 8/8/8 17/17/17 9/9/9
f 8/8/8 16/16/16 17/17/17
f 18/18/18 6/6/6 9/9/9
f 18/18/18 9/9/9 19/19/19
f 18/18/18 19/19/19 6/6/6
f 9/9/9 17/17/17 20/20/20
f 9/9/9 20/20/20 19/19/19
f 16/16/16 21/21/21 17/17/17
f 17/17/17 21/21/21 22/22/22
f 22/22/22 21/21/21 16/16/16
f 17/17/17 23/23/23 20/20/20
f 23/23/23 17/17/17 22/22/22
f 24/24/24 19/19/19 20/20/20
f 25/25/25 24/24/24 20/20/20
f 26/26/26 22/22/22 16/16/16
f 16/16/16 27/27/27 26/26/26
f 22/22/22 28/28/28 23/23/23
f 28/28/28 29/29/29 23/23/23
f 26/26/26 30/30/30 22/22/22
f 30/30/30 28/28/28 22/22/22
f 27/27/27 31/31/31 26/26/26
f 26/26/26 31/31/31 30/30/30
f 28/28/28 32/32/32 29/29/29
f 32/32/32 33/33/33 29/29/29
f 33/33/33 32/32/32 34/34/34
f 35/35/35 31/31/31 27/27/27
f 36/36/36 35/35/35 27/27/27
f 30/30/30 37/37/37 28/28/28
f 37/37/37 32/32/32 28/28/28
f 31/31/31 38/38/38 30/30/30
f 38/38/38 31/31/31 35/35/35
f 30/30/30 38/38/38 37/37/37
f 39/39/39 38/38/38 35/35/35
f 39/39/39 35/35/35 40/40/40
f 41/41/41 39/39/39 40/40/40
f 42/42/42 38/38/38 39/39/39
f 38/38/38 42/42/42 37/37/37
f 43/43/43 39/39/39 41/41/41
f 43/43/43 42/42/42 39/39/39
f 44/44/44 43/43/43 41/41/41
f 43/43/43 44/44/44 45/45/45
f 46/46/46 43/43/43 45/45/45
f 42/42/42 43/43/43 46/46/46
f 47/47/47 42/42/42 46/46/46
f 42/42/42 47/47/47 48/48/48
f 37/37/37 42/42/42 48/48/48
f 32/32/32 37/37/37 49/49/49
f 37/37/37 48/48/48 49/49/49
f 32/32/32 49/49/49 34/34/34
f 49/49/49 48/48/48 50/50/50
f 48/48/48 51/51/51 50/50/50
f 51/51/51 52/52/52 50/50/50
f 51/51/51 53/53/53 52/52/52
f 54/54/54 34/34/34 49/49/49
f 55/55/55 49/49/49 50/50/50
f 55/55/55 54/54/54 49/49/49
f 55/55/55 50/50/50 54/54/54
f 50/50/50 52/52/52 56/56/56
f 50/50/50 56/56/56 54/54/54
f 34/34/34 54/54/54 57/57/57
f 58/58/58 34/34/34 57/57/57
f 54/54/54 56/56/56 59/59/59
f 57/57/57 54/54/54 59/59/59
f 52/52/52 60/60/60 56/56/56
f 56/56/56 60/60/60 59/59/59
f 53/53/53 61/61/61 52/52/52
f 52/52/52 61/61/61 62/62/62
f 62/62/62 61/61/61 53/53/53
f 60/60/60 52/52/52 62/62/62
f 63/63/63 62/62/62 53/53/53
f 60/60/60 64/64/64 59/59/59
f 60/60/60 62/62/62 64/64/64
f 62/62/62 63/63/63 65/65/65
f 62/62/62 65/65/65 64/64/64
f 63/63/63 66/66/66 65/65/65
f 65/65/65 66/66/66 67/67/67
f 59/59/59 64/64/64 68/68/68
f 59/59/59 68/68/68 57/57/57
f 69/69/69 64/64/64 65/65/65
f 64/64/64 69/69/69 68/68/68
f 70/70/70 65/65/65 67/67/67
f 70/70/70 69/69/69 65/65/65
f 70/70/70 67/67/67 69/69/69
f 67/67/67 71/71/71 69/69/69
f 69/69/69 71/71/71 72/72/72
f 68/68/68 69/69/69 72/72/72
f 68/68/68 73/73/73 57/57/57
f 57/57/57 73/73/73 74/74/74
f 74/74/74 73/73/73 68/68/68
f 72/72/72 74/74/74 68/68/68
f 58/58/58 57/57/57 74/74/74
f 72/72/72 75/75/75 74/74/74
f 72/72/72 76/76/76 75/75/75
f 74/74/74 77/77/77 58/58/58
f 75/75/75 77/77/77 74/74/74
f 77/77/77 78/78/78 58/58/58
f 78/78/78 77/77/77 25/25/25
f 77/77/77 24/24/24 25/25/25
f 77/77/77 75/75/75 24/24/24
f 76/76/76 79/79/79 75/75/75
f 79/79/79 76/76/76 80/80/80
f 75/75/75 81/81/81 24/24/24
f 75/75/75 79/79/79 81/81/81
f 24/24/24 81/81/81 19/19/19
f 81/81/81 82/82/82 19/19/19
f 19/19/19 82/82/82 6/6/6
f 81/81/81 83/83/83 82/82/82
f 79/79/79 83/83/83 81/81/81
f 82/82/82 84/84/84 6/6/6
f 83/83/83 84/84/84 82/82/82
f 84/84/84 85/85/85 6/6/6
f 84/84/84 86/86/86 85/85/85
f 84/84/84 83/83/83 86/86/86
f 86/86/86 87/87/87 85/85/85
f 88/88/88 87/87/87 86/86/86
f 89/89/89 88/88/88 86/86/86
f 83/83/83 90/90/90 86/86/86
f 86/86/86 90/90/90 89/89/89
f 83/83/83 79/79/79 90/90/90
f 90/90/90 91/91/91 89/89/89
f 79/79/79 92/92/92 90/90/90
f 90/90/90 92/92/92 91/91/91
f 92/92/92 79/79/79 80/80/80
f 92/92/92 93/93/93 91/91/91
f 92/92/92 80/80/80 94/94/94
f 93/93/93 92/92/92 94/94/94
