g ENV_S05_Sphere_Cookie_MO
v 1044.7518 56.627686 1044.752
v 965.522 533.65466 965.522
v 1459.3391 56.627686 231.12048
v 213.6178 533.65466 1348.6667
v 231.12048 56.627686 1459.3391
v 1348.6667 533.65466 213.6178
v 1316.5116 56.627686 -670.7816
v -619.9214 533.65466 1216.617
v -670.7815 56.627686 1316.467
v 1216.617 533.65466 -619.92126
v 670.7816 56.627686 -1316.467
v -1216.617 533.65466 619.9214
v -1316.467 56.627686 670.7815
v 619.92126 533.65466 -1216.617
v -231.12048 56.627686 -1459.3391
v -1348.6667 533.65466 -213.6178
v -1459.3391 56.627686 -231.12048
v -213.6178 533.65466 -1348.6667
v -1044.752 56.627686 -1044.7518
v -965.522 533.65466 -965.522
v 1145.5818 937.5088 181.46265
v 1033.4397 937.5088 -526.5735
v 526.5735 937.5088 -1033.4397
v -181.46265 937.5088 -1145.5818
v -820.156 937.5088 -820.15594
v -1145.5818 937.5088 -181.46265
v 820.15594 937.5088 820.156
v -1033.4397 937.5088 526.5735
v 181.46265 937.5088 1145.5818
v -526.5735 937.5088 1033.4397
v -124.90173 1191.1868 -788.6689
v -564.6073 1191.1868 -564.60736
v 0.022216797 1431.8157 0.022216797
v 362.5022 1191.1868 -711.4431
v -788.66895 1191.1868 -124.90173
v -711.4431 1191.1868 362.5022
v 711.4431 1191.1868 -362.5022
v -362.5022 1191.1868 711.4431
v 788.6689 1191.1868 124.90173
v 124.90173 1191.1868 788.66895
v 564.60736 1191.1868 564.6073
v 1044.7518 56.627686 1044.752
v 1459.3391 56.627686 231.12048
v 1345.6383 -532.36316 213.1278
v 963.3843 -532.36316 963.3843
v 231.12048 56.627686 1459.3391
v 1213.9448 -532.36316 -618.54065
v 1316.5116 56.627686 -670.7816
v 213.1278 -532.36316 1345.6382
v -670.7815 56.627686 1316.467
v 618.54065 -532.36316 -1213.9448
v 670.7816 56.627686 -1316.467
v -618.5408 -532.36316 1213.9448
v -1316.467 56.627686 670.7815
v -213.1278 -532.36316 -1345.6383
v -231.12048 56.627686 -1459.3391
v -1213.9448 -532.36316 618.5408
v -1459.3391 56.627686 -231.12048
v -963.3843 -532.36316 -963.3843
v -1044.752 56.627686 -1044.7518
v -1345.6382 -532.36316 -213.1278
v 526.5735 -937.5087 -1033.4397
v -181.46265 -937.5087 -1145.5818
v -820.156 -937.5087 -820.15594
v -1145.5818 -937.5087 -181.46265
v -1033.4397 -937.5087 526.5735
v -526.5735 -937.5087 1033.4397
v 1033.4397 -937.5087 -526.5735
v 181.46265 -937.5087 1145.5818
v 1145.5818 -937.5087 181.46265
v 820.15594 -937.5087 820.156
v -711.4431 -1191.1868 362.5022
v -362.5022 -1191.1868 711.4431
v 0.022216797 -1431.8158 0.022216797
v 124.90173 -1191.1868 788.66895
v -788.66895 -1191.1868 -124.90173
v 564.60736 -1191.1868 564.6073
v -564.6073 -1191.1868 -564.60736
v 788.6689 -1191.1868 124.90173
v -124.90173 -1191.1868 -788.6689
v 711.4431 -1191.1868 -362.5022
v 362.5022 -1191.1868 -711.4431
vt 0.78692913 0.8859323
vt 0.720927 0.7988462
vt 0.5110036 0.9757685
vt 0.85293126 0.6200905
vt 0.9574346 0.65217483
vt 0.50917023 0.8666817
vt 0.23599482 0.8859323
vt 0.853848 0.39733332
vt 0.9574346 0.3615822
vt 0.29833016 0.7970128
vt 0.06548936 0.65217483
vt 0.7245938 0.21674421
vt 0.78692913 0.1278247
vt 0.169076 0.61642367
vt 0.06548936 0.3615822
vt 0.5137537 0.1470753
vt 0.5110036 0.037988476
vt 0.16999272 0.39366654
vt 0.23599482 0.1278247
vt 0.30199695 0.2149108
vt 0.5082535 0.76951194
vt 0.3542486 0.71817696
vt 0.25982893 0.58525604
vt 0.262579 0.4230008
vt 0.35974878 0.29191327
vt 0.51467043 0.24424508
vt 0.66317517 0.7218437
vt 0.66867536 0.29558006
vt 0.760345 0.5907562
vt 0.76217836 0.42850098
vt 0.35058182 0.4514184
vt 0.41383386 0.36708236
vt 0.5110036 0.50733685
vt 0.34874845 0.55683845
vt 0.5137537 0.3368314
vt 0.61367357 0.37074915
vt 0.40925038 0.6430079
vt 0.6741755 0.45691857
vt 0.5082535 0.6769256
vt 0.6723421 0.5623386
vt 0.6090901 0.64667463
vt 0.06548936 0.65217483
vt 0.23599482 0.8859323
vt 0.3074971 0.78234565
vt 0.18465984 0.6100068
vt 0.06548936 0.3615822
vt 0.5082535 0.84926444
vt 0.5110036 0.9757685
vt 0.18649325 0.39825
vt 0.23599482 0.1278247
vt 0.70992666 0.78509575
vt 0.78692913 0.8859323
vt 0.31299728 0.22866124
vt 0.5110036 0.037988476
vt 0.835514 0.615507
vt 0.9574346 0.65217483
vt 0.51467043 0.16449252
vt 0.78692913 0.1278247
vt 0.83734745 0.4037502
vt 0.9574346 0.3615822
vt 0.71451014 0.23141134
vt 0.6558416 0.71176004
vt 0.7484279 0.5880061
vt 0.75117797 0.4330845
vt 0.6613418 0.30658042
vt 0.5155871 0.25616214
vt 0.36708236 0.30199695
vt 0.50733685 0.7575949
vt 0.27449605 0.4257509
vt 0.3606655 0.70717657
vt 0.27174595 0.58067256
vt 0.51467043 0.34416497
vt 0.41841733 0.37349924
vt 0.5110036 0.50642014
vt 0.3579154 0.45325178
vt 0.6090901 0.377166
vt 0.356082 0.55408835
vt 0.666842 0.45966867
vt 0.41291717 0.636591
vt 0.66500854 0.5605052
vt 0.5082535 0.669592
vt 0.6045066 0.6402578
vn 0.7097985 -0.0039215684 0.70439386
vn 0.6705831 0.3254876 0.66661537
vn 0.9843062 -0.0039215684 0.17642535
vn 0.14509696 0.3254876 0.9343472
vn 0.15294003 -0.0039215684 0.98822767
vn 0.93724775 0.3254876 0.124997854
vn 0.8901893 -0.0039215684 -0.455574
vn -0.42744768 0.3254876 0.8434135
vn -0.45097685 -0.0039215684 0.89252704
vn 0.8431308 0.3254876 -0.42800492
vn 0.45097697 -0.0039215684 -0.892527
vn -0.8431307 0.3254876 0.4280052
vn -0.8901892 -0.0039215684 0.45557418
vn 0.42744774 0.3254876 -0.8434134
vn -0.15293992 -0.0039215684 -0.9882277
vn -0.93724763 0.3254876 -0.12499881
vn -0.9843061 -0.0039215684 -0.17642602
vn -0.1450969 0.3254876 -0.9343472
vn -0.70979846 -0.0039215684 -0.7043939
vn -0.670583 0.3254876 -0.6666155
vn 0.7882293 0.6078384 0.09605778
vn 0.7097985 0.6078384 -0.35597554
vn 0.36470312 0.6078384 -0.7053539
vn -0.12156761 0.6078384 -0.78469986
vn -0.5607799 0.6078384 -0.5621907
vn -0.7882292 0.6078384 -0.0960584
vn 0.56078005 0.6078384 0.5621906
vn -0.70979846 0.6078384 0.35597563
vn 0.121567726 0.6078384 0.7846998
vn -0.36470306 0.6078384 0.705354
vn -0.074509144 0.874503 -0.4792628
vn -0.34117377 0.874503 -0.34473893
vn -0.003921509 0.99999225 -0.00034526698
vn 0.21568465 0.874503 -0.43442443
vn -0.47450614 0.874503 -0.10044095
vn -0.42744768 0.874503 0.22920072
vn 0.42744774 0.874503 -0.22920047
vn -0.21568453 0.874503 0.4344245
vn 0.4745062 0.874503 0.10044065
vn 0.07450926 0.874503 0.4792628
vn 0.3411739 0.874503 0.34473875
vn 0.7097985 -0.0039215684 0.70439386
vn 0.9843062 -0.0039215684 0.17642535
vn 0.94509083 -0.28627235 0.1576434
vn 0.6784262 -0.28627235 0.67659885
vn 0.15294003 -0.0039215684 0.98822767
vn 0.8509739 -0.28627235 -0.44033122
vn 0.8901893 -0.0039215684 -0.455574
vn 0.15294003 -0.28627235 0.94586337
vn -0.45097685 -0.0039215684 0.89252704
vn 0.4352908 -0.28627235 -0.85356313
vn 0.45097697 -0.0039215684 -0.892527
vn -0.4352907 -0.28627235 0.8535632
vn -0.8901892 -0.0039215684 0.45557418
vn -0.15293992 -0.28627235 -0.94586337
vn -0.15293992 -0.0039215684 -0.9882277
vn -0.85097384 -0.28627235 0.44033128
vn -0.9843061 -0.0039215684 -0.17642602
vn -0.67842615 -0.28627235 -0.6765989
vn -0.70979846 -0.0039215684 -0.7043939
vn -0.9450908 -0.28627235 -0.15764378
vn 0.36470312 -0.59999543 -0.71203727
vn -0.12156761 -0.59999543 -0.79071283
vn -0.56862307 -0.59999543 -0.5627373
vn -0.7882292 -0.59999543 -0.13674861
vn -0.70979846 -0.59999543 0.36904147
vn -0.36470306 -0.59999543 0.7120373
vn 0.7097985 -0.59999543 -0.36904138
vn 0.121567726 -0.59999543 0.7907128
vn 0.7882293 -0.59999543 0.13674818
vn 0.5686231 -0.59999543 0.5627372
vn -0.42744768 -0.87450314 0.22920033
vn -0.21568453 -0.87450314 0.43442428
vn -0.003921509 -0.9999924 -0
vn 0.07450926 -0.87450314 0.4792626
vn -0.47450614 -0.87450314 -0.100440055
vn 0.3411739 -0.87450314 0.34473848
vn -0.34117377 -0.87450314 -0.34473866
vn 0.4745062 -0.87450314 0.100439765
vn -0.074509144 -0.87450314 -0.4792626
vn 0.42744774 -0.87450314 -0.22920007
vn 0.21568465 -0.87450314 -0.43442422
g ENV_S05_Sphere_Cookie_MO_0
f 3/3/3 2/2/2 1/1/1
f 1/1/1 2/2/2 4/4/4
f 1/1/1 4/4/4 5/5/5
f 3/3/3 6/6/6 2/2/2
f 7/7/7 6/6/6 3/3/3
f 5/5/5 4/4/4 8/8/8
f 5/5/5 8/8/8 9/9/9
f 7/7/7 10/10/10 6/6/6
f 11/11/11 10/10/10 7/7/7
f 9/9/9 8/8/8 12/12/12
f 9/9/9 12/12/12 13/13/13
f 11/11/11 14/14/14 10/10/10
f 15/15/15 14/14/14 11/11/11
f 13/13/13 12/12/12 16/16/16
f 13/13/13 16/16/16 17/17/17
f 15/15/15 18/18/18 14/14/14
f 19/19/19 18/18/18 15/15/15
f 17/17/17 20/20/20 19/19/19
f 17/17/17 16/16/16 20/20/20
f 19/19/19 20/20/20 18/18/18
f 10/10/10 21/21/21 6/6/6
f 14/14/14 22/22/22 10/10/10
f 10/10/10 22/22/22 21/21/21
f 18/18/18 23/23/23 14/14/14
f 14/14/14 23/23/23 22/22/22
f 20/20/20 24/24/24 18/18/18
f 18/18/18 24/24/24 23/23/23
f 16/16/16 25/25/25 20/20/20
f 20/20/20 25/25/25 24/24/24
f 12/12/12 26/26/26 16/16/16
f 16/16/16 26/26/26 25/25/25
f 6/6/6 21/21/21 27/27/27
f 6/6/6 27/27/27 2/2/2
f 12/12/12 28/28/28 26/26/26
f 8/8/8 28/28/28 12/12/12
f 2/2/2 27/27/27 29/29/29
f 2/2/2 29/29/29 4/4/4
f 4/4/4 30/30/30 8/8/8
f 8/8/8 30/30/30 28/28/28
f 4/4/4 29/29/29 30/30/30
f 25/25/25 31/31/31 24/24/24
f 26/26/26 32/32/32 25/25/25
f 25/25/25 32/32/32 31/31/31
f 32/32/32 33/33/33 31/31/31
f 31/31/31 33/33/33 34/34/34
f 24/24/24 31/31/31 34/34/34
f 35/35/35 33/33/33 32/32/32
f 26/26/26 35/35/35 32/32/32
f 28/28/28 35/35/35 26/26/26
f 24/24/24 34/34/34 23/23/23
f 28/28/28 36/36/36 35/35/35
f 30/30/30 36/36/36 28/28/28
f 36/36/36 33/33/33 35/35/35
f 23/23/23 34/34/34 37/37/37
f 34/34/34 33/33/33 37/37/37
f 23/23/23 37/37/37 22/22/22
f 30/30/30 38/38/38 36/36/36
f 38/38/38 33/33/33 36/36/36
f 29/29/29 38/38/38 30/30/30
f 22/22/22 37/37/37 39/39/39
f 37/37/37 33/33/33 39/39/39
f 22/22/22 39/39/39 21/21/21
f 29/29/29 40/40/40 38/38/38
f 40/40/40 33/33/33 38/38/38
f 27/27/27 40/40/40 29/29/29
f 21/21/21 41/41/41 27/27/27
f 21/21/21 39/39/39 41/41/41
f 39/39/39 33/33/33 41/41/41
f 27/27/27 41/41/41 40/40/40
f 41/41/41 33/33/33 40/40/40
f 44/44/44 43/43/43 42/42/42
f 44/44/44 42/42/42 45/45/45
f 45/45/45 42/42/42 46/46/46
f 47/47/47 43/43/43 44/44/44
f 47/47/47 48/48/48 43/43/43
f 45/45/45 46/46/46 49/49/49
f 49/49/49 46/46/46 50/50/50
f 51/51/51 48/48/48 47/47/47
f 51/51/51 52/52/52 48/48/48
f 49/49/49 50/50/50 53/53/53
f 53/53/53 50/50/50 54/54/54
f 55/55/55 52/52/52 51/51/51
f 55/55/55 56/56/56 52/52/52
f 53/53/53 54/54/54 57/57/57
f 57/57/57 54/54/54 58/58/58
f 59/59/59 56/56/56 55/55/55
f 59/59/59 60/60/60 56/56/56
f 61/61/61 58/58/58 60/60/60
f 57/57/57 58/58/58 61/61/61
f 61/61/61 60/60/60 59/59/59
f 62/62/62 51/51/51 47/47/47
f 63/63/63 55/55/55 51/51/51
f 63/63/63 51/51/51 62/62/62
f 64/64/64 59/59/59 55/55/55
f 64/64/64 55/55/55 63/63/63
f 65/65/65 61/61/61 59/59/59
f 65/65/65 59/59/59 64/64/64
f 66/66/66 57/57/57 61/61/61
f 66/66/66 61/61/61 65/65/65
f 67/67/67 53/53/53 57/57/57
f 67/67/67 57/57/57 66/66/66
f 62/62/62 47/47/47 68/68/68
f 68/68/68 47/47/47 44/44/44
f 69/69/69 53/53/53 67/67/67
f 69/69/69 49/49/49 53/53/53
f 68/68/68 44/44/44 70/70/70
f 70/70/70 44/44/44 45/45/45
f 71/71/71 45/45/45 49/49/49
f 71/71/71 49/49/49 69/69/69
f 70/70/70 45/45/45 71/71/71
f 72/72/72 66/66/66 65/65/65
f 73/73/73 67/67/67 66/66/66
f 73/73/73 66/66/66 72/72/72
f 72/72/72 74/74/74 73/73/73
f 73/73/73 74/74/74 75/75/75
f 75/75/75 67/67/67 73/73/73
f 75/75/75 69/69/69 67/67/67
f 76/76/76 74/74/74 72/72/72
f 72/72/72 65/65/65 76/76/76
f 76/76/76 65/65/65 64/64/64
f 77/77/77 69/69/69 75/75/75
f 77/77/77 71/71/71 69/69/69
f 75/75/75 74/74/74 77/77/77
f 76/76/76 64/64/64 78/78/78
f 78/78/78 74/74/74 76/76/76
f 78/78/78 64/64/64 63/63/63
f 79/79/79 71/71/71 77/77/77
f 79/79/79 70/70/70 71/71/71
f 77/77/77 74/74/74 79/79/79
f 78/78/78 63/63/63 80/80/80
f 80/80/80 74/74/74 78/78/78
f 80/80/80 63/63/63 62/62/62
f 81/81/81 70/70/70 79/79/79
f 79/79/79 74/74/74 81/81/81
f 81/81/81 68/68/68 70/70/70
f 82/82/82 62/62/62 68/68/68
f 80/80/80 62/62/62 82/82/82
f 82/82/82 74/74/74 80/80/80
f 82/82/82 68/68/68 81/81/81
f 81/81/81 74/74/74 82/82/82
