g ENV_S05_Bground_WaterDropPiece_A
v -3.6928596 1.3949909 -8.717848
v -3.6836872 -2.460153 -8.724323
v -2.819254 -3.4629922 -8.840606
v -1.8255882 3.324586 -8.805263
v 3.4462647 -3.410921 -8.812277
v 3.617856 3.7012234 -8.712722
v 4.0592456 3.5733395 -8.142908
v 4.075973 -3.4128098 -8.262698
v 4.0821786 3.431696 8.299661
v 3.9939547 -3.5096674 8.369269
v 3.375308 -3.4969869 8.840606
v 3.4254904 3.4756727 8.826846
v 3.5644364 4.0533104 8.359826
v -2.6004477 4.1196804 8.197408
v -2.831935 3.5342188 8.797439
v -3.4424877 1.3070364 8.775584
v -3.699335 -2.4588041 8.82307
v -3.4640713 -3.6451058 8.688439
v -0.91043377 1.1287003 5.6604967
v -0.88884926 -1.0159245 5.6793823
v -1.1241131 1.1386824 -5.7120285
v -1.0955143 -0.92257404 -5.760052
v -3.6577864 0.9446974 -6.0603375
v -3.5930347 1.4384279 -5.7519584
v -1.1241131 1.1386824 -5.7120285
v -3.66615 -0.5078945 -6.1032352
v -1.0955143 -0.92257404 -5.760052
v -3.6030169 -1.2161145 -5.891444
v -3.5657854 -1.4899592 -5.4139013
v -3.6707363 -1.5768342 5.26929
v -0.88884926 -1.0159245 5.6793823
v -3.6453753 -1.3232241 5.9108696
v -3.674244 -0.7113228 6.1644793
v -3.648613 0.73749256 6.1542273
v -0.91043377 1.1287003 5.6604967
v -3.6677685 1.3715181 5.952958
v -3.5458202 1.604084 5.1681156
v -3.5679436 1.6121778 -5.0653224
v -1.1241131 1.1386824 -5.7120285
v -3.5930347 1.4384279 -5.7519584
v -4.082178 0.7499037 6.7226915
v -3.648613 0.73749256 6.1542273
v -3.6677685 1.3715181 5.952958
v -3.674244 -0.7113228 6.1644793
v -4.082178 1.7799921 6.32366
v -4.082178 2.0597725 5.2857475
v -3.5458202 1.604084 5.1681156
v -4.082178 2.048171 -5.0005713
v -3.5679436 1.6121778 -5.0653224
v -3.5930347 1.4384279 -5.7519584
v -4.082178 1.8781986 -6.0085363
v -3.6577864 0.9446974 -6.0603375
v -4.082178 1.0178127 -6.5537977
v -3.66615 -0.5078945 -6.1032352
v -4.082178 -0.5872154 -6.632039
v -4.082178 1.6113682 -8.302089
v -3.6030169 -1.2161145 -5.891444
v -4.082178 2.7812128 -7.078285
v -4.082178 3.3469791 -5.743864
v -4.082178 3.4832268 -3.0866241
v -4.082178 -1.5317783 -6.351989
v -3.5657854 -1.4899592 -5.4139013
v -2.8920994 4.107539 -7.0642557
v -1.5431099 4.1909075 -7.972666
v -3.4306164 4.099715 -5.726058
v -4.082178 3.1036215 5.596285
v -3.6022081 4.1226482 -2.8721347
v -4.082178 2.3406324 7.4962015
v -3.2795296 4.1094284 6.119423
v -2.6004477 4.1196804 8.197408
v -4.082178 1.126811 8.352811
v -2.831935 3.5342188 8.797439
v 3.5644364 4.0533104 8.359826
v -3.4424877 1.3070364 8.775584
v -4.082178 -0.74342823 6.6843805
v -4.082178 -2.1550117 8.236527
v -3.699335 -2.4588041 8.82307
v -4.082178 -1.657774 6.36413
v -3.6453753 -1.3232241 5.9108696
v -4.082178 -2.0363002 5.5134573
v -3.6707363 -1.5768342 5.26929
v -4.082178 -3.3110957 7.59171
v -4.082178 -3.5099368 -6.9576855
v -3.4640713 -3.6451058 8.688439
v -4.082178 -2.062201 -5.433057
v -4.082178 -2.1032104 -8.280505
v -3.6928596 1.3949909 -8.717848
v -3.6836872 -2.460153 -8.724323
v -1.8255882 3.324586 -8.805263
v 3.617856 3.7012234 -8.712722
v -2.819254 -3.4629922 -8.840606
v 3.528283 4.0638323 -8.068444
v 4.0592456 3.5733395 -8.142908
v 4.0821786 3.431696 8.299661
v -3.551756 -4.190907 -6.919644
v -2.4137478 -4.009873 -8.23383
v 3.4462647 -3.410921 -8.812277
v 3.4049854 -4.0873046 -8.354969
v 4.075973 -3.4128098 -8.262698
v 3.4791799 -4.0881143 8.130767
v 3.9939547 -3.5096674 8.369269
v 3.375308 -3.4969869 8.840606
v -3.5247755 -4.005556 7.829133
vt 0.53708977 0.18690914
vt 0.53708977 0.2033682
vt 0.54106265 0.20790863
vt 0.54503554 0.1789634
vt 0.56773764 0.20790863
vt 0.5683052 0.17726073
vt 0.5717105 0.17782828
vt 0.571143 0.20790863
vt 0.5365222 0.24479961
vt 0.53708977 0.27487996
vt 0.5404951 0.2743124
vt 0.53992754 0.24423207
vt 0.53936 0.2413943
vt 0.5671701 0.24196185
vt 0.56603503 0.24536717
vt 0.5671701 0.25444803
vt 0.57000786 0.26920444
vt 0.5705754 0.2743124
vt 0.57284564 0.22947568
vt 0.57284564 0.22266503
vt 0.534252 0.22947568
vt 0.534252 0.22266503
vt 0.5847643 0.2743124
vt 0.5847643 0.27601507
vt 0.5932776 0.2743124
vt 0.5847643 0.26920444
vt 0.5932776 0.26636666
vt 0.5847643 0.26636666
vt 0.5847643 0.264664
vt 0.5847643 0.23061077
vt 0.5932776 0.22834057
vt 0.5847643 0.22834057
vt 0.5847643 0.22607034
vt 0.5847643 0.22266503
vt 0.5932776 0.22039482
vt 0.5847643 0.22039482
vt 0.5847643 0.21755704
vt 0.5847643 0.18350382
vt 0.5932776 0.18350382
vt 0.5847643 0.18123361
vt 0.53992754 0.119937815
vt 0.5427653 0.119937815
vt 0.5433329 0.11823515
vt 0.5427653 0.12504579
vt 0.5416302 0.115964934
vt 0.5456031 0.11482983
vt 0.5456031 0.117100045
vt 0.58022386 0.11482983
vt 0.58022386 0.11653249
vt 0.5824941 0.117100045
vt 0.5836292 0.11539738
vt 0.58419675 0.118802704
vt 0.58589935 0.11823515
vt 0.58419675 0.12334313
vt 0.5864669 0.12391069
vt 0.59214246 0.11482983
vt 0.5836292 0.12561335
vt 0.58703446 0.111424506
vt 0.5824941 0.1102894
vt 0.5734132 0.1102894
vt 0.58533186 0.12731601
vt 0.5819265 0.12674846
vt 0.5864669 0.10574897
vt 0.58987224 0.10120854
vt 0.5824941 0.10688408
vt 0.544468 0.111424506
vt 0.57284564 0.10745163
vt 0.5382249 0.11369472
vt 0.54219776 0.10745163
vt 0.53368443 0.10518142
vt 0.53481954 0.11823515
vt 0.53198177 0.10801919
vt 0.53481954 0.08418193
vt 0.53198177 0.117100045
vt 0.5404951 0.12504579
vt 0.5353871 0.13015378
vt 0.5325493 0.132424
vt 0.5416302 0.12845111
vt 0.5433329 0.12674846
vt 0.54503554 0.12958622
vt 0.5456031 0.12788355
vt 0.5376573 0.13412666
vt 0.587602 0.13355911
vt 0.5325493 0.13753197
vt 0.5819265 0.12901866
vt 0.59214246 0.12958622
vt 0.5938451 0.11482983
vt 0.5938451 0.13128889
vt 0.5938451 0.102911204
vt 0.5932776 0.08361438
vt 0.5944127 0.13753197
vt 0.5904398 0.08361438
vt 0.59100735 0.081344165
vt 0.53481954 0.081344165
vt 0.58703446 0.13639687
vt 0.5915749 0.13923463
vt 0.5955478 0.15966657
vt 0.59271 0.15966657
vt 0.59271 0.16307189
vt 0.5365222 0.16080168
vt 0.5353871 0.16363944
vt 0.5331169 0.16080168
vt 0.53708977 0.13696443
vn -0.24755698 0.036206424 -0.9681966
vn -0.23972923 -0.0577271 -0.969122
vn -0.020550907 -0.06555492 -0.99763733
vn -0.020550907 0.09100109 -0.9956387
vn 0.08903831 -0.0577271 -0.99435395
vn 0.08903831 0.09100109 -0.9918624
vn 0.8170235 0.5137021 -0.26188302
vn 0.8013679 -0.55870616 -0.21367493
vn 0.7935401 0.54501337 0.27065572
vn 0.7935401 -0.53522277 0.28953528
vn 0.10469389 -0.1829719 0.97752774
vn 0.081210494 0.09100109 0.992534
vn 0.10469389 0.9911979 0.08103041
vn -0.012723029 0.99902564 0.042259607
vn -0.036206424 0.083173215 0.99587715
vn -0.05186206 0.00489527 0.99864227
vn -0.14579564 -0.026415884 0.988962
vn -0.11448449 -0.6135008 0.78135145
vn -0.7641917 -0.6369841 -0.10130321
vn -0.7563639 0.6467747 -0.09795958
vn -0.7641917 -0.62915635 0.142033
vn -0.7407083 0.65460247 0.15115173
vn -0.13014 -0.081210494 0.9881642
vn -0.10665661 -0.8170235 0.5666542
vn -0.7641917 -0.62915635 0.142033
vn -0.13014 0.012723029 0.991414
vn -0.7407083 0.65460247 0.15115173
vn -0.10665661 0.5606689 0.8211424
vn -0.20841807 0.97554225 0.06985153
vn -0.20841807 0.97554225 -0.06985153
vn -0.7563639 0.6467747 -0.09795958
vn -0.13796788 0.7172249 -0.68304706
vn -0.16927904 0.044034302 -0.984584
vn -0.16927904 -0.04989928 -0.98430413
vn -0.7641917 -0.6369841 -0.10130321
vn -0.13796788 -0.72308993 -0.6768351
vn -0.18493468 -0.9814073 -0.051369995
vn -0.18493468 -0.9814073 0.051369995
vn -0.7641917 -0.62915635 0.142033
vn -0.10665661 -0.8170235 0.5666542
vn -0.9911979 -0.010760307 -0.1319506
vn -0.7876751 -0.081210494 -0.61071503
vn -0.77201945 -0.4726004 -0.42501158
vn -0.7876751 0.09100109 -0.60933304
vn -0.9911979 -0.081210494 -0.1045543
vn -0.9673789 -0.2533342 -0
vn -0.65460247 -0.7544011 -0.04873037
vn -0.90493125 -0.42555797 -0
vn -0.6467747 -0.7622289 0.026259592
vn -0.7172249 -0.5743618 0.39458454
vn -0.9911979 -0.09686607 0.090242505
vn -0.7563639 -0.15166068 0.63632745
vn -0.9911979 -0.018588126 0.13107719
vn -0.77201945 0.044034302 0.6340717
vn -0.9911979 0.00489527 0.13229808
vn -0.9364032 0.13796788 -0.32266685
vn -0.7641917 0.39628524 0.5088901
vn -0.9207477 0.32583505 -0.21460481
vn -0.90509206 0.41976863 -0.06784288
vn -0.97288936 0.23127083 -0
vn -0.9911979 0.05968982 0.11816882
vn -0.7449864 0.6670797 -0
vn -0.34931844 0.8972643 -0.26998785
vn 0.002932489 0.99902564 -0.044036094
vn -0.404113 0.9129198 -0.057184696
vn -0.9364032 0.34931844 0.03355091
vn -0.28618464 0.95817447 -0
vn -0.90509206 0.34931844 0.24245617
vn -0.26321262 0.9598866 0.09662727
vn -0.012723029 0.99902564 0.042259607
vn -0.9364032 0.05968982 0.34581232
vn -0.036206424 0.083173215 0.99587715
vn 0.10469389 0.9911979 0.08103041
vn -0.05186206 0.00489527 0.99864227
vn -0.9911979 0.012723029 -0.13177584
vn -0.92857546 -0.034243703 0.36956057
vn -0.14579564 -0.026415884 0.988962
vn -0.98337 0.13796788 -0.11810286
vn -0.79550284 0.4275964 -0.42934433
vn -0.9911979 0.12231225 -0.050660238
vn -0.74853605 0.66243035 -0.029662332
vn -0.90509206 -0.4178058 0.07903598
vn -0.92857546 -0.36301124 -0.07726887
vn -0.11448449 -0.6135008 0.78135145
vn -0.9893547 0.14552453 -0
vn -0.95205885 -0.034243703 -0.30399227
vn -0.24755698 0.036206424 -0.9681966
vn -0.23972923 -0.0577271 -0.969122
vn -0.020550907 0.09100109 -0.9956387
vn 0.08903831 0.09100109 -0.9918624
vn -0.020550907 -0.06555492 -0.99763733
vn 0.10469389 0.9911979 -0.08103041
vn 0.8170235 0.5137021 -0.26188302
vn 0.7935401 0.54501337 0.27065572
vn -0.083129495 -0.99653876 -0
vn -0.044034302 -0.8639903 -0.5015792
vn 0.08903831 -0.0577271 -0.99435395
vn 0.08894665 -0.9960364 -0
vn 0.8013679 -0.55870616 -0.21367493
vn 0.104428194 -0.99453247 -0
vn 0.7935401 -0.53522277 0.28953528
vn 0.10469389 -0.1829719 0.97752774
vn -0.0675177 -0.99706286 0.0361526
g ENV_S05_Bground_WaterDropPiece_A_0
f 3/3/3 2/2/2 1/1/1
f 3/3/3 1/1/1 4/4/4
f 5/5/5 3/3/3 4/4/4
f 5/5/5 4/4/4 6/6/6
f 7/7/7 5/5/5 6/6/6
f 7/7/7 8/8/8 5/5/5
f 11/11/11 10/10/10 9/9/9
f 11/11/11 9/9/9 12/12/12
f 12/12/12 9/9/9 13/13/13
f 14/14/14 12/12/12 13/13/13
f 14/14/14 15/15/15 12/12/12
f 12/12/12 15/15/15 16/16/16
f 12/12/12 16/16/16 11/11/11
f 11/11/11 16/16/16 17/17/17
f 11/11/11 17/17/17 18/18/18
f 21/21/21 20/20/20 19/19/19
f 21/21/21 22/22/22 20/20/20
f 25/25/25 24/24/24 23/23/23
f 25/25/25 23/23/23 26/26/26
f 25/25/25 26/26/26 27/27/27
f 28/28/28 27/27/27 26/26/26
f 28/28/28 29/29/29 27/27/27
f 27/27/27 29/29/29 30/30/30
f 27/27/27 30/30/30 31/31/31
f 30/30/30 32/32/32 31/31/31
f 32/32/32 33/33/33 31/31/31
f 31/31/31 33/33/33 34/34/34
f 31/31/31 34/34/34 35/35/35
f 34/34/34 36/36/36 35/35/35
f 36/36/36 37/37/37 35/35/35
f 35/35/35 37/37/37 38/38/38
f 35/35/35 38/38/38 39/39/39
f 39/39/39 38/38/38 40/40/40
f 43/43/43 42/42/42 41/41/41
f 41/41/41 42/42/42 44/44/44
f 43/43/43 41/41/41 45/45/45
f 46/46/46 43/43/43 45/45/45
f 46/46/46 47/47/47 43/43/43
f 48/48/48 47/47/47 46/46/46
f 48/48/48 49/49/49 47/47/47
f 48/48/48 50/50/50 49/49/49
f 48/48/48 51/51/51 50/50/50
f 52/52/52 50/50/50 51/51/51
f 52/52/52 51/51/51 53/53/53
f 54/54/54 52/52/52 53/53/53
f 54/54/54 53/53/53 55/55/55
f 56/56/56 55/55/55 53/53/53
f 57/57/57 54/54/54 55/55/55
f 53/53/53 51/51/51 58/58/58
f 53/53/53 58/58/58 56/56/56
f 51/51/51 48/48/48 59/59/59
f 51/51/51 59/59/59 58/58/58
f 60/60/60 48/48/48 46/46/46
f 60/60/60 59/59/59 48/48/48
f 57/57/57 55/55/55 61/61/61
f 62/62/62 57/57/57 61/61/61
f 59/59/59 63/63/63 58/58/58
f 56/56/56 58/58/58 63/63/63
f 56/56/56 63/63/63 64/64/64
f 65/65/65 64/64/64 63/63/63
f 59/59/59 65/65/65 63/63/63
f 60/60/60 65/65/65 59/59/59
f 60/60/60 46/46/46 66/66/66
f 45/45/45 66/66/66 46/46/46
f 60/60/60 67/67/67 65/65/65
f 65/65/65 67/67/67 64/64/64
f 66/66/66 67/67/67 60/60/60
f 45/45/45 68/68/68 66/66/66
f 68/68/68 45/45/45 41/41/41
f 66/66/66 69/69/69 67/67/67
f 69/69/69 66/66/66 68/68/68
f 67/67/67 69/69/69 70/70/70
f 69/69/69 68/68/68 70/70/70
f 67/67/67 70/70/70 64/64/64
f 68/68/68 41/41/41 71/71/71
f 70/70/70 68/68/68 71/71/71
f 71/71/71 72/72/72 70/70/70
f 64/64/64 70/70/70 73/73/73
f 71/71/71 74/74/74 72/72/72
f 71/71/71 41/41/41 75/75/75
f 41/41/41 44/44/44 75/75/75
f 74/74/74 71/71/71 76/76/76
f 71/71/71 75/75/75 76/76/76
f 74/74/74 76/76/76 77/77/77
f 44/44/44 78/78/78 75/75/75
f 76/76/76 75/75/75 78/78/78
f 44/44/44 79/79/79 78/78/78
f 79/79/79 80/80/80 78/78/78
f 76/76/76 78/78/78 80/80/80
f 79/79/79 81/81/81 80/80/80
f 77/77/77 76/76/76 82/82/82
f 82/82/82 76/76/76 80/80/80
f 83/83/83 82/82/82 80/80/80
f 77/77/77 82/82/82 84/84/84
f 81/81/81 85/85/85 80/80/80
f 83/83/83 80/80/80 85/85/85
f 81/81/81 62/62/62 85/85/85
f 62/62/62 61/61/61 85/85/85
f 61/61/61 83/83/83 85/85/85
f 61/61/61 86/86/86 83/83/83
f 61/61/61 55/55/55 86/86/86
f 56/56/56 86/86/86 55/55/55
f 86/86/86 56/56/56 87/87/87
f 86/86/86 87/87/87 88/88/88
f 88/88/88 83/83/83 86/86/86
f 89/89/89 87/87/87 56/56/56
f 64/64/64 89/89/89 56/56/56
f 90/90/90 89/89/89 64/64/64
f 88/88/88 91/91/91 83/83/83
f 90/90/90 64/64/64 92/92/92
f 92/92/92 93/93/93 90/90/90
f 64/64/64 73/73/73 92/92/92
f 94/94/94 93/93/93 92/92/92
f 94/94/94 92/92/92 73/73/73
f 91/91/91 95/95/95 83/83/83
f 95/95/95 82/82/82 83/83/83
f 91/91/91 96/96/96 95/95/95
f 97/97/97 96/96/96 91/91/91
f 97/97/97 98/98/98 96/96/96
f 98/98/98 95/95/95 96/96/96
f 98/98/98 97/97/97 99/99/99
f 99/99/99 100/100/100 98/98/98
f 100/100/100 95/95/95 98/98/98
f 99/99/99 101/101/101 100/100/100
f 102/102/102 100/100/100 101/101/101
f 100/100/100 102/102/102 84/84/84
f 95/95/95 103/103/103 82/82/82
f 103/103/103 84/84/84 82/82/82
f 100/100/100 84/84/84 103/103/103
f 100/100/100 103/103/103 95/95/95
