g ENV_RoundHedge
v -6.1405945 0.38018036 28.66978
v -2.4983025 3.969429 31.855488
v -3.1291885 0.71551704 32.221138
v 1.8705597 0.5658474 32.5129
v -5.862095 3.8074417 28.072044
v -6.9003143 4.7803 22.667809
v -7.4004784 0.14620209 23.19355
v -6.840637 3.8169174 18.303684
v -6.9448395 0.24282455 18.249691
v 2.1727428 6.4503555 30.607918
v -2.087181 9.805626 28.068256
v -4.403282 9.244835 25.433868
v -3.915432 10.359787 19.353271
v 5.99502 3.409584 27.594616
v 6.11722 -0.079250336 27.870274
v -1.3577747 12.121727 23.510887
v 7.3231087 0.33850098 22.288895
v 5.7799873 -0.06409454 19.250965
v -7.100193 6.1424904 9.633221
v -4.228985 12.7753525 15.448578
v -7.41753 1.1351643 8.976757
v -5.468025 -0.06409454 2.346735
v 1.8137226 10.627865 26.90689
v 1.4537563 12.124569 23.658665
v 4.36475 8.732357 25.891407
v -0.99780846 12.113201 20.037209
v 4.536207 9.679638 22.905575
v -0.8973961 14.58466 16.884659
v 1.223566 12.159618 20.275925
v 6.9441967 4.610737 22.669704
v 1.8677177 14.383835 17.004963
v 3.9290009 9.962875 18.945942
v 6.3313065 5.3894043 18.302738
v 6.934723 1.5102863 17.966454
v 6.7537937 6.54319 14.101547
v 5.164255 10.5795555 14.691704
v 6.9640884 0.81687737 9.085693
v 5.8406143 -0.06409454 2.650814
v 0.06030464 16.788982 9.384087
v 2.604702 15.618141 9.322514
v 4.850706 12.349075 8.928444
v 6.924303 6.848217 9.067696
v 7.415943 3.1178207 8.9473915
v 6.564337 3.792286 2.6858635
v 5.9514465 7.923378 4.4942207
v 3.9706821 12.392651 4.3369713
v 7.310795 2.3287373 -3.4913578
v 5.6994686 -0.06409454 -11.697653
v 2.23242 14.749485 4.1389923
v 5.185095 13.342773 -0.11998367
v 7.123232 8.487011 -4.303177
v 6.4099293 3.161396 -11.271376
v 7.178175 1.5974369 -15.026398
v 7.186701 0.41238785 -19.682285
v 6.7831593 6.223957 -21.184671
v 5.416233 0.2873478 -25.042
v 6.623068 7.793602 -16.365852
v 5.9381847 7.247967 -12.201607
v 5.223934 15.105663 -5.502434
v 2.986456 18.475143 -1.0094814
v 3.4638863 12.302658 -14.015649
v 5.5763226 10.942364 -19.817745
v 3.418417 13.583382 -25.55448
v 5.366026 7.298172 -25.228615
v 2.6492252 3.354641 -28.49768
v 1.2103043 0.09410095 -28.66156
v 3.1133919 7.976425 -28.183184
v 0.40606308 7.867489 -29.567162
v -2.2633743 0.34986687 -28.096981
v 5.2021465 11.514523 -10.571335
v 1.6574211 13.988819 -13.66326
v 3.8996353 16.74825 -8.427639
v 2.6255417 19.78239 -4.546629
v 1.7767792 19.103191 -8.441847
v 0.17682076 21.11332 -4.86302
v 0.9289627 12.090469 -28.55736
v 0.22039604 19.662086 -0.022413254
v -0.838665 15.226917 4.5662155
v -2.718071 15.304592 9.379349
v -2.5816612 14.375309 4.542534
v -5.238785 11.605461 9.366089
v -6.1368065 7.05188 3.6918755
v -4.8778725 11.229389 4.7708282
v -7.2043915 7.6297226 -3.2564316
v -6.541298 2.968151 2.9539413
v -3.0704575 18.44862 -0.90717506
v -7.3786926 2.967205 -3.2583256
v -6.491089 0.96560097 -11.300741
v -6.5602417 -0.06409454 -19.050447
v -2.5485077 19.762497 -4.410219
v -5.593067 14.232269 -3.4695702
v -5.1847916 14.4492 -7.289953
v -6.471199 6.098915 -11.984678
v -7.163658 1.8257313 -15.209223
v -0.34418297 19.39495 -8.921171
v -7.422268 1.0139122 -19.806377
v -5.3060417 0.31955528 -24.826967
v -7.28207 5.109955 -15.683811
v -2.593975 17.42366 -9.419441
v -0.3906002 16.341866 -12.038673
v -4.6344185 10.919628 -13.119522
v -2.6820717 12.978069 -12.841021
v -1.1076927 13.935772 -13.322239
v -6.416256 9.007069 -17.021372
v -4.0508957 14.04755 -20.11898
v -2.1686478 15.3993225 -18.719847
v -6.239113 8.267242 -21.935865
v -4.845665 7.2763863 -26.161686
v -3.2476006 13.889355 -24.799496
v -1.9147758 7.781288 -28.90217
v -1.2336807 12.395493 -28.199287
v -0.10736275 15.145451 -26.691216
v -2.5816612 15.987583 -22.6558
v 0.6694069 16.44133 -23.119967
v 3.1901226 14.762749 -22.7079
v 0.9573803 15.820862 -18.27273
v 3.734808 13.68853 -17.77446
vt 0.23345768 0.4620211
vt 0.23441003 0.44106948
vt 0.22583891 0.4439265
vt 0.22583891 0.42297485
vt 0.24202882 0.45630702
vt 0.25821874 0.4658305
vt 0.2496476 0.47630635
vt 0.27059925 0.47440165
vt 0.26774222 0.48487747
vt 0.24298117 0.4277366
vt 0.25250465 0.44106948
vt 0.2572664 0.44868827
vt 0.27440864 0.4515453
vt 0.24583821 0.409642
vt 0.24012412 0.40202323
vt 0.26583752 0.44011712
vt 0.25821874 0.39535677
vt 0.26583752 0.38678566
vt 0.30012202 0.47440165
vt 0.2877415 0.45059294
vt 0.30012202 0.48868686
vt 0.32297838 0.49916267
vt 0.2572664 0.43059364
vt 0.26678985 0.43249834
vt 0.2572664 0.42202252
vt 0.27536097 0.44011712
vt 0.26583752 0.42107016
vt 0.28583682 0.4391648
vt 0.27536097 0.43249834
vt 0.2620281 0.40583262
vt 0.28488445 0.431546
vt 0.27726567 0.4191655
vt 0.27536097 0.40392792
vt 0.27250394 0.3915474
vt 0.2877415 0.40297556
vt 0.28869385 0.4153561
vt 0.3010744 0.38297626
vt 0.32297838 0.37440515
vt 0.3058361 0.43630773
vt 0.3058361 0.42868894
vt 0.3058361 0.4172608
vt 0.30393142 0.40011853
vt 0.30297908 0.38964272
vt 0.32297838 0.38773802
vt 0.31821662 0.40107086
vt 0.31916898 0.4172608
vt 0.34488237 0.38392863
vt 0.37726218 0.37916687
vt 0.31916898 0.4277366
vt 0.3315495 0.41440374
vt 0.3458347 0.40011853
vt 0.37345278 0.38869035
vt 0.38869035 0.38964272
vt 0.40678495 0.39440444
vt 0.40107086 0.40868965
vt 0.4258319 0.41249904
vt 0.38488096 0.40678495
vt 0.37250045 0.40202323
vt 0.34678707 0.4172608
vt 0.33440652 0.4277366
vt 0.3715481 0.42107016
vt 0.38964272 0.4172608
vt 0.39821383 0.4296413
vt 0.40868965 0.42011783
vt 0.42297485 0.43249834
vt 0.431546 0.43821242
vt 0.4115467 0.43059364
vt 0.4134514 0.4391648
vt 0.42868894 0.45440233
vt 0.3639293 0.41249904
vt 0.3696434 0.4296413
vt 0.35440585 0.42392722
vt 0.34297767 0.4296413
vt 0.35250115 0.431546
vt 0.34297767 0.4353554
vt 0.40488026 0.4372601
vt 0.33250186 0.4353554
vt 0.31821662 0.4391648
vt 0.30488375 0.44487888
vt 0.3172643 0.44678357
vt 0.30297908 0.45821172
vt 0.31916898 0.47440165
vt 0.31631193 0.46011642
vt 0.3401206 0.47440165
vt 0.32107368 0.4877345
vt 0.3334542 0.4439265
vt 0.3420253 0.48678216
vt 0.37059575 0.4896392
vt 0.39821383 0.4877345
vt 0.3420253 0.44202182
vt 0.3401206 0.4572594
vt 0.35059646 0.4553547
vt 0.36869106 0.47440165
vt 0.38297626 0.48487747
vt 0.35250115 0.4372601
vt 0.39916617 0.48297277
vt 0.41821313 0.4715446
vt 0.38107157 0.475354
vt 0.35535818 0.4439265
vt 0.36202464 0.4372601
vt 0.36869106 0.45821172
vt 0.36678636 0.44868827
vt 0.3677387 0.44106948
vt 0.38107157 0.4639258
vt 0.38392863 0.4496406
vt 0.38011923 0.44297418
vt 0.39535677 0.4620211
vt 0.4077373 0.4572594
vt 0.39440444 0.44678357
vt 0.4115467 0.44678357
vt 0.40297556 0.44202182
vt 0.39726147 0.4391648
vt 0.38964272 0.44297418
vt 0.38964272 0.4353554
vt 0.39059505 0.42868894
vt 0.38011923 0.43440303
vt 0.38107157 0.42487955
vn -0.89800143 0.15311384 0.41249195
vn -0.34129596 0.38050056 0.8594977
vn -0.45890987 0.18447757 0.86912006
vn 0.42711437 0.2158413 0.878058
vn -0.843115 0.30209136 0.44485724
vn -0.945047 0.31777322 0.07685264
vn -0.9842516 0.10606837 0.14141516
vn -0.97474945 0.22330159 -0
vn -0.99993336 -0.011545478 -0
vn 0.38790977 0.443228 0.8081305
vn -0.35697782 0.66277385 0.6582535
vn -0.7960695 0.5530009 0.24589288
vn -0.8274332 0.5294781 0.18710214
vn 0.8505242 0.22368217 0.47599882
vn 0.88188785 0.011977315 0.4713071
vn -0.38050056 0.9058424 0.18619576
vn 0.92825097 -0.37195447 -0
vn 0.69370574 -0.71722853 -0.06599704
vn -0.97641075 0.2158413 0.0058800015
vn -0.8352741 0.5137963 0.19578183
vn -0.9528879 -0.30165964 -0.03171938
vn -0.9058424 -0.41143256 -0.10086
vn 0.30165964 0.77254677 0.5587244
vn 0.31734145 0.9215243 0.22380213
vn 0.77995586 0.49027348 0.388974
vn -0.34913695 0.89016056 0.2927756
vn 0.82700145 0.5608418 0.0390522
vn -0.2942505 0.88231957 0.3673266
vn 0.44279623 0.85095596 0.28249857
vn 0.9524562 0.27856863 0.12339684
vn 0.56041 0.7647058 0.31806558
vn 0.8348423 0.5216372 0.1758776
vn 0.94461524 0.31777322 0.081989005
vn 0.98381984 -0.16836393 0.06125455
vn 0.96813804 0.23936403 0.073577166
vn 0.86620605 0.45890987 0.19770887
vn 0.84268326 -0.5368873 -0.040459264
vn 0.9524562 -0.30165964 -0.04276357
vn -0.051118396 0.9986926 -0
vn 0.6623421 0.7490239 0.016315464
vn 0.88188785 0.46675074 -0.06646479
vn 0.96813804 0.23936403 -0.073577166
vn 0.9995017 0.019818187 -0.024568085
vn 0.9995017 0.004136324 0.031292845
vn 0.96813804 0.23936403 0.073577166
vn 0.8740469 0.4824326 0.05745208
vn 0.97309405 -0.23040825 -0
vn 0.94461524 -0.31734145 0.08364462
vn 0.6231375 0.73334205 0.2718624
vn 0.9132516 0.34913695 0.20994039
vn 0.98381984 0.1687957 -0.060054485
vn 0.9995017 -0.01938641 -0.024910206
vn 0.9916608 -0.089954734 0.09228781
vn 0.9916608 -0.0037046075 -0.12882224
vn 0.9759789 0.12175012 -0.18067113
vn 0.8740469 -0.042909205 -0.48394293
vn 0.9524562 0.2864095 0.10390794
vn 0.96813804 0.23152304 -0.09542442
vn 0.9367743 0.34129596 -0.07727186
vn 0.74075127 0.5922055 0.3171438
vn 0.81916046 0.5686828 0.074672915
vn 0.9210925 0.38834155 -0.02791783
vn 0.77995586 0.45890987 -0.42552388
vn 0.8975697 0.12175012 -0.4237281
vn 0.6152965 -0.0821138 -0.7840074
vn 0.15268213 -0.17620486 -0.97244024
vn 0.6858648 0.12175012 -0.71747226
vn 0.050750136 0.027659059 -0.9983283
vn -0.50595534 -0.097795665 -0.8569978
vn 0.88188785 0.3256141 -0.3409535
vn 0.5368873 0.7960695 -0.27933028
vn 0.7956377 0.4824326 -0.36635962
vn 0.7250694 0.6862966 0.05719564
vn 0.50552356 0.7176603 -0.4789672
vn -0.035480056 0.99937034 -0
vn 0.3957507 0.3648188 -0.84278625
vn 0.035068274 0.85879683 0.51111466
vn -0.113909245 0.9607289 0.253031
vn -0.66267246 0.74890935 -0
vn -0.6862966 0.6706147 0.28155443
vn -0.9058424 0.41970527 -0.05741939
vn -0.9828848 0.18422139 -0
vn -0.9215243 0.37265968 0.10916854
vn -0.9842516 0.16095483 0.07309097
vn -0.9972528 -0.074073754 -0
vn -0.73334205 0.6000464 0.31961504
vn -0.97484314 -0.22289197 -0
vn -0.9842516 -0.16836393 0.053873338
vn -0.81959224 -0.568251 0.073207796
vn -0.69413745 0.7176603 -0.056007795
vn -0.93720603 0.3334551 0.10223777
vn -0.9215243 0.34129596 -0.18522982
vn -0.9842516 0.15311384 -0.08834535
vn -0.9842516 -0.15268213 0.08908938
vn -0.23152304 0.8274332 -0.51161635
vn -0.97641075 -0.0821138 -0.19969817
vn -0.85879683 -0.058591068 -0.5089549
vn -0.9842516 0.16095483 0.07309097
vn -0.7176603 0.5530009 -0.42326543
vn -0.07470465 0.6706147 -0.73803467
vn -0.88231957 0.45890987 -0.104469724
vn -0.70197845 0.6862966 -0.19032402
vn -0.3648188 0.9215243 -0.1330423
vn -0.945047 0.3256141 0.029353151
vn -0.8274332 0.5608418 -0.028473014
vn -0.41970527 0.8744787 0.24317583
vn -0.9528879 0.2158413 -0.2131131
vn -0.843115 0.09822738 -0.5286857
vn -0.81175137 0.43538702 -0.3892273
vn -0.53731906 0.04334092 -0.84226465
vn -0.5686828 0.35697782 -0.7410578
vn 0.011545479 0.7960695 -0.6050951
vn -0.5922055 0.8039104 -0.05496093
vn 0.20756859 0.96856976 -0.13706882
vn 0.73291034 0.6706147 -0.11453539
vn 0.20756859 0.9528879 0.22117847
vn 0.74075127 0.647092 0.18044263
g ENV_RoundHedge_0
f 3/3/3 2/2/2 1/1/1
f 2/2/2 3/3/3 4/4/4
f 2/2/2 5/5/5 1/1/1
f 5/5/5 6/6/6 1/1/1
f 6/6/6 7/7/7 1/1/1
f 7/7/7 6/6/6 8/8/8
f 9/9/9 7/7/7 8/8/8
f 4/4/4 10/10/10 2/2/2
f 2/2/2 11/11/11 5/5/5
f 10/10/10 11/11/11 2/2/2
f 12/12/12 6/6/6 5/5/5
f 11/11/11 12/12/12 5/5/5
f 6/6/6 12/12/12 13/13/13
f 6/6/6 13/13/13 8/8/8
f 14/14/14 10/10/10 4/4/4
f 15/15/15 14/14/14 4/4/4
f 11/11/11 16/16/16 12/12/12
f 12/12/12 16/16/16 13/13/13
f 15/15/15 17/17/17 14/14/14
f 18/18/18 17/17/17 15/15/15
f 8/8/8 19/19/19 9/9/9
f 13/13/13 20/20/20 8/8/8
f 20/20/20 19/19/19 8/8/8
f 19/19/19 21/21/21 9/9/9
f 22/22/22 9/9/9 21/21/21
f 23/23/23 11/11/11 10/10/10
f 16/16/16 11/11/11 24/24/24
f 11/11/11 23/23/23 24/24/24
f 23/23/23 10/10/10 25/25/25
f 24/24/24 23/23/23 25/25/25
f 25/25/25 10/10/10 14/14/14
f 16/16/16 26/26/26 13/13/13
f 16/16/16 24/24/24 26/26/26
f 27/27/27 25/25/25 14/14/14
f 27/27/27 24/24/24 25/25/25
f 28/28/28 20/20/20 13/13/13
f 26/26/26 28/28/28 13/13/13
f 24/24/24 29/29/29 26/26/26
f 24/24/24 27/27/27 29/29/29
f 30/30/30 27/27/27 14/14/14
f 17/17/17 30/30/30 14/14/14
f 29/29/29 31/31/31 26/26/26
f 31/31/31 28/28/28 26/26/26
f 27/27/27 32/32/32 29/29/29
f 27/27/27 30/30/30 32/32/32
f 32/32/32 31/31/31 29/29/29
f 30/30/30 17/17/17 33/33/33
f 30/30/30 33/33/33 32/32/32
f 17/17/17 34/34/34 33/33/33
f 34/34/34 17/17/17 18/18/18
f 33/33/33 35/35/35 32/32/32
f 34/34/34 35/35/35 33/33/33
f 36/36/36 31/31/31 32/32/32
f 35/35/35 36/36/36 32/32/32
f 34/34/34 18/18/18 37/37/37
f 18/18/18 38/38/38 37/37/37
f 39/39/39 28/28/28 31/31/31
f 31/31/31 36/36/36 40/40/40
f 39/39/39 31/31/31 40/40/40
f 36/36/36 35/35/35 41/41/41
f 36/36/36 41/41/41 40/40/40
f 42/42/42 35/35/35 34/34/34
f 35/35/35 42/42/42 41/41/41
f 37/37/37 43/43/43 34/34/34
f 43/43/43 42/42/42 34/34/34
f 38/38/38 44/44/44 37/37/37
f 44/44/44 43/43/43 37/37/37
f 42/42/42 43/43/43 45/45/45
f 42/42/42 45/45/45 41/41/41
f 43/43/43 44/44/44 45/45/45
f 41/41/41 46/46/46 40/40/40
f 45/45/45 46/46/46 41/41/41
f 38/38/38 47/47/47 44/44/44
f 38/38/38 48/48/48 47/47/47
f 46/46/46 49/49/49 40/40/40
f 39/39/39 40/40/40 49/49/49
f 50/50/50 46/46/46 45/45/45
f 46/46/46 50/50/50 49/49/49
f 51/51/51 45/45/45 44/44/44
f 47/47/47 51/51/51 44/44/44
f 50/50/50 45/45/45 51/51/51
f 48/48/48 52/52/52 47/47/47
f 51/51/51 47/47/47 52/52/52
f 52/52/52 48/48/48 53/53/53
f 53/53/53 48/48/48 54/54/54
f 54/54/54 55/55/55 53/53/53
f 55/55/55 54/54/54 56/56/56
f 53/53/53 57/57/57 52/52/52
f 55/55/55 57/57/57 53/53/53
f 58/58/58 51/51/51 52/52/52
f 57/57/57 58/58/58 52/52/52
f 59/59/59 50/50/50 51/51/51
f 59/59/59 51/51/51 58/58/58
f 50/50/50 60/60/60 49/49/49
f 60/60/60 50/50/50 59/59/59
f 58/58/58 57/57/57 61/61/61
f 62/62/62 57/57/57 55/55/55
f 57/57/57 62/62/62 61/61/61
f 63/63/63 62/62/62 55/55/55
f 64/64/64 55/55/55 56/56/56
f 64/64/64 63/63/63 55/55/55
f 64/64/64 56/56/56 65/65/65
f 56/56/56 66/66/66 65/65/65
f 67/67/67 64/64/64 65/65/65
f 63/63/63 64/64/64 67/67/67
f 66/66/66 68/68/68 65/65/65
f 68/68/68 67/67/67 65/65/65
f 66/66/66 69/69/69 68/68/68
f 70/70/70 59/59/59 58/58/58
f 61/61/61 70/70/70 58/58/58
f 71/71/71 70/70/70 61/61/61
f 59/59/59 70/70/70 72/72/72
f 70/70/70 71/71/71 72/72/72
f 72/72/72 73/73/73 59/59/59
f 73/73/73 60/60/60 59/59/59
f 72/72/72 74/74/74 73/73/73
f 74/74/74 72/72/72 71/71/71
f 60/60/60 73/73/73 75/75/75
f 73/73/73 74/74/74 75/75/75
f 76/76/76 63/63/63 67/67/67
f 68/68/68 76/76/76 67/67/67
f 77/77/77 60/60/60 75/75/75
f 60/60/60 77/77/77 49/49/49
f 77/77/77 78/78/78 49/49/49
f 39/39/39 49/49/49 78/78/78
f 39/39/39 78/78/78 79/79/79
f 28/28/28 39/39/39 79/79/79
f 20/20/20 28/28/28 79/79/79
f 78/78/78 80/80/80 79/79/79
f 80/80/80 78/78/78 77/77/77
f 20/20/20 79/79/79 81/81/81
f 79/79/79 80/80/80 81/81/81
f 19/19/19 20/20/20 81/81/81
f 19/19/19 81/81/81 82/82/82
f 21/21/21 19/19/19 82/82/82
f 80/80/80 83/83/83 81/81/81
f 81/81/81 83/83/83 82/82/82
f 82/82/82 83/83/83 84/84/84
f 85/85/85 21/21/21 82/82/82
f 85/85/85 82/82/82 84/84/84
f 21/21/21 85/85/85 22/22/22
f 86/86/86 80/80/80 77/77/77
f 80/80/80 86/86/86 83/83/83
f 85/85/85 87/87/87 22/22/22
f 87/87/87 85/85/85 84/84/84
f 22/22/22 87/87/87 88/88/88
f 87/87/87 84/84/84 88/88/88
f 88/88/88 89/89/89 22/22/22
f 90/90/90 86/86/86 77/77/77
f 75/75/75 90/90/90 77/77/77
f 86/86/86 91/91/91 83/83/83
f 83/83/83 91/91/91 84/84/84
f 86/86/86 90/90/90 91/91/91
f 91/91/91 92/92/92 84/84/84
f 90/90/90 92/92/92 91/91/91
f 84/84/84 93/93/93 88/88/88
f 92/92/92 93/93/93 84/84/84
f 94/94/94 89/89/89 88/88/88
f 88/88/88 93/93/93 94/94/94
f 90/90/90 75/75/75 95/95/95
f 74/74/74 95/95/95 75/75/75
f 96/96/96 89/89/89 94/94/94
f 96/96/96 97/97/97 89/89/89
f 93/93/93 98/98/98 94/94/94
f 98/98/98 96/96/96 94/94/94
f 99/99/99 90/90/90 95/95/95
f 99/99/99 92/92/92 90/90/90
f 95/95/95 74/74/74 100/100/100
f 100/100/100 99/99/99 95/95/95
f 74/74/74 71/71/71 100/100/100
f 101/101/101 93/93/93 92/92/92
f 93/93/93 101/101/101 98/98/98
f 99/99/99 102/102/102 92/92/92
f 102/102/102 101/101/101 92/92/92
f 99/99/99 100/100/100 103/103/103
f 102/102/102 99/99/99 103/103/103
f 71/71/71 103/103/103 100/100/100
f 101/101/101 104/104/104 98/98/98
f 98/98/98 104/104/104 96/96/96
f 102/102/102 105/105/105 101/101/101
f 105/105/105 102/102/102 103/103/103
f 105/105/105 104/104/104 101/101/101
f 106/106/106 103/103/103 71/71/71
f 106/106/106 105/105/105 103/103/103
f 104/104/104 107/107/107 96/96/96
f 104/104/104 105/105/105 107/107/107
f 107/107/107 108/108/108 96/96/96
f 108/108/108 97/97/97 96/96/96
f 97/97/97 108/108/108 69/69/69
f 105/105/105 109/109/109 107/107/107
f 109/109/109 105/105/105 106/106/106
f 109/109/109 108/108/108 107/107/107
f 69/69/69 108/108/108 110/110/110
f 69/69/69 110/110/110 68/68/68
f 110/110/110 108/108/108 111/111/111
f 110/110/110 111/111/111 68/68/68
f 108/108/108 109/109/109 111/111/111
f 111/111/111 76/76/76 68/68/68
f 112/112/112 76/76/76 111/111/111
f 109/109/109 112/112/112 111/111/111
f 76/76/76 112/112/112 63/63/63
f 112/112/112 109/109/109 113/113/113
f 113/113/113 109/109/109 106/106/106
f 114/114/114 112/112/112 113/113/113
f 63/63/63 112/112/112 114/114/114
f 114/114/114 113/113/113 106/106/106
f 115/115/115 63/63/63 114/114/114
f 62/62/62 63/63/63 115/115/115
f 116/116/116 114/114/114 106/106/106
f 115/115/115 114/114/114 116/116/116
f 116/116/116 106/106/106 71/71/71
f 71/71/71 61/61/61 116/116/116
f 62/62/62 117/117/117 61/61/61
f 117/117/117 62/62/62 115/115/115
f 61/61/61 117/117/117 116/116/116
f 117/117/117 115/115/115 116/116/116
