g ENV_S06_Bar_B_MO
v 0.09943509 -0.24451113 1.6093254E-05
v -1.6093254E-05 -0.26430178 -1.9162881
v -1.6093254E-05 -0.26430178 1.6093254E-05
v 0.09943509 -0.24451113 -1.9162881
v 0.18374455 -0.18819416 1.6093254E-05
v 0.18374455 -0.18819416 -1.9162881
v 0.24006152 -0.1038847 1.6093254E-05
v 0.24006152 -0.1038847 -1.9162881
v 0.25985217 -0.004466653 1.6093254E-05
v 0.25985217 -0.004466653 -1.9162881
v 0.24006152 0.09498453 1.6093254E-05
v 0.24006152 0.09498453 -1.9162881
v 0.18374455 0.17929387 1.6093254E-05
v 0.18374455 0.17929387 -1.9162881
v 0.09943509 0.23561096 1.6093254E-05
v 0.09943509 0.23561096 -1.9162881
v -1.6093254E-05 0.2554016 1.6093254E-05
v -1.6093254E-05 0.2554016 -1.9162881
v -0.09943414 0.23561096 1.6093254E-05
v -0.09943414 0.23561096 -1.9162881
v -0.18374348 0.17929387 1.6093254E-05
v -0.18374348 0.17929387 -1.9162881
v -0.24006057 0.09498453 1.6093254E-05
v -0.24006057 0.09498453 -1.9162881
v -0.25985122 -0.004466653 1.6093254E-05
v -0.25985122 -0.004466653 -1.9162881
v -0.24006057 -0.1038847 1.6093254E-05
v -0.24006057 -0.1038847 -1.9162881
v -0.18374348 -0.18819416 1.6093254E-05
v -0.18374348 -0.18819416 -1.9162881
v -0.09943414 -0.24451113 1.6093254E-05
v -0.09943414 -0.24451113 -1.9162881
v -1.6093254E-05 -0.26430178 1.6093254E-05
v -1.6093254E-05 -0.26430178 -1.9162881
vt 0.46289426 0.80345976
vt 0.694725 0.7911501
vt 0.46289426 0.7911501
vt 0.694725 0.80345976
vt 0.46289426 0.8157693
vt 0.694725 0.8157693
vt 0.46289426 0.82807887
vt 0.694725 0.82807887
vt 0.46289426 0.84038854
vt 0.694725 0.84038854
vt 0.46289426 0.8526981
vt 0.694725 0.8526981
vt 0.46289426 0.8650077
vt 0.694725 0.8650077
vt 0.46289426 0.8773173
vt 0.694725 0.8773173
vt 0.46289426 0.88962686
vt 0.694725 0.88962686
vt 0.46289426 0.9014236
vt 0.694725 0.9014236
vt 0.46289426 0.9137332
vt 0.694725 0.9137332
vt 0.46289426 0.9260428
vt 0.694725 0.9260428
vt 0.46289426 0.93835235
vt 0.694725 0.93835235
vt 0.46289426 0.95066196
vt 0.694725 0.95066196
vt 0.46289426 0.96297157
vt 0.694725 0.96297157
vt 0.46289426 0.9752811
vt 0.694725 0.9752811
vt 0.46289426 0.98759073
vt 0.694725 0.98759073
vn 0.38038927 -0.9215616 -0.07764171
vn -0.003921509 -0.9999924 -0
vn -0.003921509 -0.9999924 -0
vn 0.38038927 -0.9215616 -0.07764171
vn 0.70710677 -0.70710677 -0
vn 0.70710677 -0.70710677 -0
vn 0.9215616 -0.38038927 -0.07764171
vn 0.9215616 -0.38038927 -0.07764171
vn 0.9999924 0.003921509 -0
vn 0.9999924 0.003921509 -0
vn 0.9215616 0.3803892 -0.077641994
vn 0.9215616 0.3803892 -0.077641994
vn 0.7071068 0.70710677 -0
vn 0.7071068 0.70710677 -0
vn 0.38038927 0.9215615 -0.07764286
vn 0.38038927 0.9215615 -0.07764286
vn -0.003921509 0.99999225 -0.00034526698
vn -0.003921509 0.99999225 -0.00034526698
vn -0.3803892 0.9215615 -0.077643245
vn -0.3803892 0.9215615 -0.077643245
vn -0.70710677 0.70710677 -0
vn -0.70710677 0.70710677 -0
vn -0.9215615 0.3803892 -0.07764315
vn -0.9215615 0.3803892 -0.07764315
vn -0.99999225 0.003921509 -0.00034492963
vn -0.99999225 0.003921509 -0.00034492963
vn -0.9215615 -0.38038927 -0.07764286
vn -0.9215615 -0.38038927 -0.07764286
vn -0.70710677 -0.7071068 -0
vn -0.70710677 -0.7071068 -0
vn -0.3803892 -0.9215616 -0.07764209
vn -0.3803892 -0.9215616 -0.07764209
vn -0.003921509 -0.9999924 -0
vn -0.003921509 -0.9999924 -0
g ENV_S06_Bar_B_MO_0
f 3/3/3 2/2/2 1/1/1
f 2/2/2 4/4/4 1/1/1
f 1/1/1 4/4/4 5/5/5
f 4/4/4 6/6/6 5/5/5
f 5/5/5 6/6/6 7/7/7
f 6/6/6 8/8/8 7/7/7
f 7/7/7 8/8/8 9/9/9
f 8/8/8 10/10/10 9/9/9
f 9/9/9 10/10/10 11/11/11
f 10/10/10 12/12/12 11/11/11
f 11/11/11 12/12/12 13/13/13
f 12/12/12 14/14/14 13/13/13
f 13/13/13 14/14/14 15/15/15
f 14/14/14 16/16/16 15/15/15
f 15/15/15 16/16/16 17/17/17
f 16/16/16 18/18/18 17/17/17
f 17/17/17 18/18/18 19/19/19
f 18/18/18 20/20/20 19/19/19
f 19/19/19 20/20/20 21/21/21
f 20/20/20 22/22/22 21/21/21
f 21/21/21 22/22/22 23/23/23
f 22/22/22 24/24/24 23/23/23
f 23/23/23 24/24/24 25/25/25
f 24/24/24 26/26/26 25/25/25
f 25/25/25 26/26/26 27/27/27
f 26/26/26 28/28/28 27/27/27
f 27/27/27 28/28/28 29/29/29
f 28/28/28 30/30/30 29/29/29
f 29/29/29 30/30/30 31/31/31
f 30/30/30 32/32/32 31/31/31
f 31/31/31 32/32/32 33/33/33
f 32/32/32 34/34/34 33/33/33
