g ENV_Ramp_Short07_MO
v -2.5000458 2.2888184E-05 0.9999924
v -2.5000458 4 0.9999924
v 2.5 2.2888184E-05 0.9999924
v -2.5000458 4 -1.0000458
v -2.5000458 2.2888184E-05 -1.0000458
v 2.5 2.2888184E-05 -1.0000458
v -2.5000458 4 -1.0000458
v 2.5 2.2888184E-05 -1.0000458
v 2.5 2.2888184E-05 0.9999924
v -2.5000458 4 0.9999924
v -2.5000458 2.2888184E-05 -1.0000458
v -2.5000458 2.2888184E-05 0.9999924
v 2.5 2.2888184E-05 0.9999924
v 2.5 2.2888184E-05 -1.0000458
v -2.5000458 2.2888184E-05 -1.0000458
v -2.5000458 4 -1.0000458
v -2.5000458 4 0.9999924
v -2.5000458 2.2888184E-05 0.9999924
vt 0.0002450943 0.0002450943
vt 0.0002450943 4.0003076
vt 5.000125 0.0002450943
vt 10.000005 2.9996967
vt 10.000005 -1.0003656
vt 5.000125 -1.0003656
vt 4.0003076 5.3794203
vt 4.0003076 -1.0003656
vt 1.9998798 -1.0003656
vt 1.9998798 5.3794203
vt 0.0002450943 -3
vt 0.0002450943 -1.0003656
vt 5.000125 -1.0003656
vt 5.000125 -3
vt -3 0.0002450943
vt -3 4.0003076
vt -1.0003656 4.0003076
vt -1.0003656 0.0002450943
vn -0.003921509 0.003921509 0.9999846
vn -0.003921509 0.003921509 0.9999846
vn -0.003921509 0.003921509 0.9999846
vn -0.003921509 0.003921509 -0.9999846
vn -0.003921509 0.003921509 -0.9999846
vn -0.003921509 0.003921509 -0.9999846
vn 0.62352467 0.7803861 -0.047059014
vn 0.62352467 0.7803861 -0.047059014
vn 0.62352467 0.7803861 -0.047059014
vn 0.62352467 0.7803861 -0.047059014
vn -0.003921509 -0.9999924 -0
vn -0.003921509 -0.9999924 -0
vn -0.003921509 -0.9999924 -0
vn -0.003921509 -0.9999924 -0
vn -0.99999225 0.003921509 -0.00034492963
vn -0.99999225 0.003921509 -0.00034492963
vn -0.99999225 0.003921509 -0.00034492963
vn -0.99999225 0.003921509 -0.00034492963
g ENV_Ramp_Short07_MO_0
f 3/3/3 2/2/2 1/1/1
f 6/6/6 5/5/5 4/4/4
f 9/9/9 8/8/8 7/7/7
f 10/10/10 9/9/9 7/7/7
f 13/13/13 12/12/12 11/11/11
f 14/14/14 13/13/13 11/11/11
f 17/17/17 16/16/16 15/15/15
f 18/18/18 17/17/17 15/15/15
