g ENV_S10_Retro_Quarter_Shape_S_01a_COL
v 3.9099252 1.9898107 2.0188673
v 3.9099252 1.9898107 -2.0188687
v 3.9099252 5.9127808E-05 2.0188673
v 3.9099252 5.9127808E-05 -2.0188687
v 1.9410653 3.9586709 -2.0188687
v 1.9410653 3.9586709 2.0188673
v -5.9127808E-05 3.9586709 -2.0188687
v -5.9127808E-05 3.9586709 2.0188673
v 1.9410653 3.9586709 2.0188673
v 1.9410653 3.9586709 -2.0188687
v 2.0081828 3.449106 -2.0188687
v 2.0081828 3.449106 2.0188673
v 2.2048526 2.9742405 -2.0188687
v 2.2048526 2.9742405 2.0188673
v 2.5177474 2.5664928 -2.0188687
v 2.5177474 2.5664928 2.0188673
v 2.9254951 2.253598 -2.0188687
v 2.9254951 2.253598 2.0188673
v 3.4003606 2.0569284 -2.0188687
v 3.4003606 2.0569284 2.0188673
v 3.9099252 1.9898107 -2.0188687
v 3.9099252 1.9898107 2.0188673
v -5.9127808E-05 3.9586709 2.0188673
v 1.9410653 3.9586709 2.0188673
v 2.0081828 3.449106 2.0188673
v 2.2048526 2.9742405 2.0188673
v -5.9127808E-05 5.9127808E-05 2.0188673
v 2.5177474 2.5664928 2.0188673
v 2.9254951 2.253598 2.0188673
v 3.4003606 2.0569284 2.0188673
v 3.9099252 5.9127808E-05 2.0188673
v 3.9099252 1.9898107 2.0188673
v 3.9099252 5.9127808E-05 -2.0188687
v 3.9099252 1.9898107 -2.0188687
v 3.4003606 2.0569284 -2.0188687
v -5.9127808E-05 5.9127808E-05 -2.0188687
v 2.9254951 2.253598 -2.0188687
v 2.5177474 2.5664928 -2.0188687
v 2.2048526 2.9742405 -2.0188687
v -5.9127808E-05 3.9586709 -2.0188687
v 2.0081828 3.449106 -2.0188687
v 1.9410653 3.9586709 -2.0188687
v -5.9127808E-05 5.9127808E-05 -2.0188687
v -5.9127808E-05 3.9586709 -2.0188687
v -5.9127808E-05 5.9127808E-05 2.0188673
v -5.9127808E-05 3.9586709 2.0188673
v -5.9127808E-05 5.9127808E-05 -2.0188687
v -5.9127808E-05 5.9127808E-05 2.0188673
v 3.9099252 5.9127808E-05 -2.0188687
v 3.9099252 5.9127808E-05 2.0188673
vt 0.62463343 0.1260997
vt 0.8748778 0.1260997
vt 0.62463343 0
vt 0.8748778 0
vt 0.49951124 0.50048876
vt 0.49951124 0.25024438
vt 0.37536657 0.50048876
vt 0.37536657 0.25024438
vt 0.49462366 0.6471163
vt 0.49462366 0.3841642
vt 0.50537634 0.3841642
vt 0.50537634 0.6471163
vt 0.5151515 0.3841642
vt 0.5151515 0.6471163
vt 0.5259042 0.3841642
vt 0.5259042 0.6471163
vt 0.5366569 0.3841642
vt 0.5366569 0.6471163
vt 0.5464321 0.3841642
vt 0.5464321 0.6471163
vt 0.55718476 0.3841642
vt 0.55718476 0.6471163
vt 0.37536657 0.25024438
vt 0.49951124 0.25024438
vt 0.5034213 0.21798632
vt 0.516129 0.18768328
vt 0.37536657 0
vt 0.5356794 0.16226783
vt 0.56207234 0.1427175
vt 0.59237534 0.13000977
vt 0.62463343 0
vt 0.62463343 0.1260997
vt 0.62463343 0.7497556
vt 0.62463343 0.62463343
vt 0.59237534 0.61974585
vt 0.37536657 0.7497556
vt 0.56207234 0.60801566
vt 0.5356794 0.58748776
vt 0.516129 0.56207234
vt 0.37536657 0.50048876
vt 0.5034213 0.53176934
vt 0.49951124 0.50048876
vt 0.12512219 0
vt 0.12512219 0.25024438
vt 0.37536657 0
vt 0.37536657 0.25024438
vt 0.37536657 0.7497556
vt 0.37536657 1
vt 0.62463343 0.7497556
vt 0.62463343 1
vn 0.9999924 0.003921509 -0
vn 0.9999924 0.003921509 -0
vn 0.9999924 0.003921509 -0
vn 0.9999924 0.003921509 -0
vn -0.003921509 0.99999225 -0.00034526698
vn -0.003921509 0.99999225 -0.00034526698
vn -0.003921509 0.99999225 -0.00034526698
vn -0.003921509 0.99999225 -0.00034526698
vn 0.99160045 0.12933916 -0
vn 0.99160045 0.12933916 -0
vn 0.9670746 0.25449327 -0
vn 0.9670746 0.25449327 -0
vn 0.86666006 0.4980353 -0.029345917
vn 0.86666006 0.4980353 -0.029345917
vn 0.7071068 0.70710677 -0
vn 0.7071068 0.70710677 -0
vn 0.49803543 0.86666 -0.029345663
vn 0.49803543 0.86666 -0.029345663
vn 0.25449336 0.9670746 -0
vn 0.25449336 0.9670746 -0
vn 0.12933922 0.9916004 -0
vn 0.12933922 0.9916004 -0
vn -0.003921509 0.003921509 0.9999846
vn -0.003921509 0.003921509 0.9999846
vn -0.003921509 0.003921509 0.9999846
vn -0.003921509 0.003921509 0.9999846
vn -0.003921509 0.003921509 0.9999846
vn -0.003921509 0.003921509 0.9999846
vn -0.003921509 0.003921509 0.9999846
vn -0.003921509 0.003921509 0.9999846
vn -0.003921509 0.003921509 0.9999846
vn -0.003921509 0.003921509 0.9999846
vn -0.003921509 0.003921509 -0.9999846
vn -0.003921509 0.003921509 -0.9999846
vn -0.003921509 0.003921509 -0.9999846
vn -0.003921509 0.003921509 -0.9999846
vn -0.003921509 0.003921509 -0.9999846
vn -0.003921509 0.003921509 -0.9999846
vn -0.003921509 0.003921509 -0.9999846
vn -0.003921509 0.003921509 -0.9999846
vn 0.0039215684 0.003921509 -0.9999846
vn -0.003921509 0.003921509 -0.9999846
vn -0.99999225 0.003921509 -0.00034492963
vn -0.99999225 0.003921509 -0.00034492963
vn -0.99999225 0.003921509 -0.00034492963
vn -0.99999225 0.003921509 -0.00034492963
vn -0.003921509 -0.9999924 -0
vn -0.003921509 -0.9999924 -0
vn -0.003921509 -0.9999924 -0
vn -0.003921509 -0.9999924 -0
g ENV_S10_Retro_Quarter_Shape_S_01a_COL_0
f 3/3/3 2/2/2 1/1/1
f 3/3/3 4/4/4 2/2/2
f 7/7/7 6/6/6 5/5/5
f 7/7/7 8/8/8 6/6/6
f 11/11/11 10/10/10 9/9/9
f 11/11/11 9/9/9 12/12/12
f 13/13/13 11/11/11 12/12/12
f 13/13/13 12/12/12 14/14/14
f 15/15/15 13/13/13 14/14/14
f 15/15/15 14/14/14 16/16/16
f 16/16/16 17/17/17 15/15/15
f 16/16/16 18/18/18 17/17/17
f 18/18/18 19/19/19 17/17/17
f 18/18/18 20/20/20 19/19/19
f 20/20/20 21/21/21 19/19/19
f 20/20/20 22/22/22 21/21/21
f 25/25/25 24/24/24 23/23/23
f 25/25/25 23/23/23 26/26/26
f 26/26/26 23/23/23 27/27/27
f 28/28/28 26/26/26 27/27/27
f 28/28/28 27/27/27 29/29/29
f 27/27/27 30/30/30 29/29/29
f 31/31/31 30/30/30 27/27/27
f 31/31/31 32/32/32 30/30/30
f 35/35/35 34/34/34 33/33/33
f 35/35/35 33/33/33 36/36/36
f 35/35/35 36/36/36 37/37/37
f 38/38/38 37/37/37 36/36/36
f 38/38/38 36/36/36 39/39/39
f 40/40/40 39/39/39 36/36/36
f 41/41/41 39/39/39 40/40/40
f 42/42/42 41/41/41 40/40/40
f 45/45/45 44/44/44 43/43/43
f 45/45/45 46/46/46 44/44/44
f 49/49/49 48/48/48 47/47/47
f 49/49/49 50/50/50 48/48/48
