g ENV_S09_Coral_Flower_Piece_01h_MO
v -0.10838236 0.6105479 -4.690523
v 2.5720863 1.4810047 -2.6938043
v -1.0468198 1.4810047 -3.574351
v 2.251305 0.6105479 -4.1163044
v 4.0080237 0.6105479 -2.439117
v 3.6131802 1.4810047 0.9043205
v 4.690524 0.6105479 -0.10841383
v 4.1163054 0.6105479 2.2513518
v 1.0467739 1.4810047 3.5743988
v 2.4391174 0.6105479 4.0079145
v 0.10849264 0.6105479 4.6904926
v -2.571976 1.4810047 2.6937737
v -2.251351 0.6105479 4.1163516
v -4.007757 0.6105479 2.4391642
v -3.619007 1.4810047 -0.88060135
v -4.69057 0.6105479 0.108383045
v -4.1161947 0.6105479 -2.2513044
v -1.0468198 1.4810047 -3.574351
v -2.4391637 0.6105479 -4.007945
v -0.10838236 0.6105479 -4.690523
v -0.09166361 -1.8415625 -3.9627104
v -0.10713235 -0.8259826 -4.6319294
v -2.4086947 -0.8259826 -3.9577887
v -2.0607262 -1.8415625 -3.3859918
v -0.10838236 0.6105479 -4.690523
v -2.4391637 0.6105479 -4.007945
v -3.477601 -1.8415625 -1.9020076
v -4.1161947 0.6105479 -2.2513044
v -4.0647883 -0.8259826 -2.2232575
v -4.6318197 -0.8259826 0.10705492
v -3.962757 -1.8415625 0.09166429
v -4.69057 0.6105479 0.108383045
v -3.3860385 -1.8415625 2.0607266
v -4.007757 0.6105479 2.4391642
v -3.9577572 -0.8259826 2.4086173
v -2.223226 -0.8259826 4.0648675
v -1.9019761 -1.8415625 3.47768
v -2.251351 0.6105479 4.1163516
v 0.09161764 -1.8415625 3.9626799
v 0.10849264 0.6105479 4.6904926
v 0.10708639 -0.8259826 4.631899
v 2.4086487 -0.8259826 3.9577582
v 2.0606802 -1.8415625 3.3860393
v 2.4391174 0.6105479 4.0079145
v 3.4777114 -1.8415625 1.9020549
v 4.1163054 0.6105479 2.2513518
v 4.064899 -0.8259826 2.2232268
v 4.631774 -0.8259826 -0.107085705
v 3.9627113 -1.8415625 -0.091538824
v 4.690524 0.6105479 -0.10841383
v 3.3859928 -1.8415625 -2.0607576
v 4.0080237 0.6105479 -2.439117
v 3.9577115 -0.8259826 -2.4086483
v 2.22318 -0.8259826 -4.06482
v 1.9019301 -1.8415625 -3.4775543
v 2.251305 0.6105479 -4.1163044
v -0.09166361 -1.8415625 -3.9627104
v -0.10838236 0.6105479 -4.690523
v -0.10713235 -0.8259826 -4.6319294
v 2.5720863 1.4810047 -2.6938043
v 5.513996E-05 1.8415626 2.3668315E-05
v -1.0468198 1.4810047 -3.574351
v 3.6131802 1.4810047 0.9043205
v -3.619007 1.4810047 -0.88060135
v 1.0467739 1.4810047 3.5743988
v -2.571976 1.4810047 2.6937737
vt 0.01914408 0.7006817
vt 0.017408505 0.7006817
vt 0.01914408 0.7006817
vt 0.018246988 0.7006817
vt 0.017408505 0.7006817
vt 0.015604999 0.7006817
vt 0.01642866 0.7006817
vt 0.015604999 0.7006817
vt 0.014026918 0.7006817
vt 0.01457341 0.7006817
vt 0.013606334 0.7006817
vt 0.012255621 0.7006817
vt 0.012620942 0.7006817
vt 0.011654904 0.7006817
vt 0.010656551 0.7006817
vt 0.010656551 0.7006817
vt 0.00979946 0.7006817
vt 0.008895057 0.7006817
vt 0.008895057 0.7006817
vt 0.007973717 0.7006817
vt 0.007973717 0.6991778
vt 0.007973717 0.6996996
vt 0.008895057 0.6996996
vt 0.008895057 0.6991778
vt 0.007973717 0.7006817
vt 0.008895057 0.7006817
vt 0.00979946 0.6991778
vt 0.00979946 0.7006817
vt 0.00979946 0.6996996
vt 0.010656551 0.6996996
vt 0.010656551 0.6991778
vt 0.010656551 0.7006817
vt 0.011654904 0.6991778
vt 0.011654904 0.7006817
vt 0.011654904 0.6996996
vt 0.012620942 0.6996996
vt 0.012620942 0.6991778
vt 0.012620942 0.7006817
vt 0.013606334 0.6991778
vt 0.013606334 0.7006817
vt 0.013606334 0.6996996
vt 0.01457341 0.6996996
vt 0.01457341 0.6991778
vt 0.01457341 0.7006817
vt 0.015604999 0.6991778
vt 0.015604999 0.7006817
vt 0.015604999 0.6996996
vt 0.01642866 0.6996996
vt 0.01642866 0.6991778
vt 0.01642866 0.7006817
vt 0.017408505 0.6991778
vt 0.017408505 0.7006817
vt 0.017408505 0.6996996
vt 0.018246988 0.6996996
vt 0.018246988 0.6991778
vt 0.018246988 0.7006817
vt 0.01914408 0.6991778
vt 0.01914408 0.7006817
vt 0.01914408 0.6996996
vt 0.010262285 0.699697
vt 0.009277486 0.6999526
vt 0.009991224 0.7006777
vt 0.009542124 0.6989702
vt 0.009006428 0.7009332
vt 0.008563757 0.6992275
vt 0.008292695 0.7002082
vn 0.042116124 0.44897813 -0.89254963
vn 0.23084788 0.94272995 -0.24076873
vn -0.09381325 0.94265443 -0.3203151
vn 0.37267515 0.4489781 -0.8121157
vn 0.79327786 0.4514173 -0.40857384
vn 0.32398975 0.94265175 0.080239624
vn 0.8880245 0.4522009 -0.08322807
vn 0.7533246 0.44572818 0.4835581
vn 0.09320459 0.9425792 0.32071373
vn 0.51707494 0.44652426 0.73023945
vn -0.042116687 0.44897857 0.89254946
vn -0.23049416 0.9426545 0.24140199
vn -0.37267503 0.4489787 0.81211543
vn -0.7940285 0.4489786 0.40980113
vn -0.3243075 0.94265443 -0.078912884
vn -0.8896502 0.44897842 0.08331149
vn -0.75191265 0.448978 -0.4827486
vn -0.09381325 0.94265443 -0.3203151
vn -0.5169755 0.44897825 -0.7288037
vn 0.042116124 0.44897813 -0.89254963
vn -0.0192953 -0.550294 -0.83474797
vn -0.022310909 -0.2605485 -0.965203
vn -0.50192314 -0.2605483 -0.824735
vn -0.43408418 -0.55029356 -0.7132658
vn 0.042116124 0.44897813 -0.89254963
vn -0.5169755 0.44897825 -0.7288037
vn -0.732561 -0.55029327 -0.40066412
vn -0.75191265 0.448978 -0.4827486
vn -0.84704566 -0.2605482 -0.46328
vn -0.965203 -0.26054853 0.022310423
vn -0.83474815 -0.5502937 0.01929457
vn -0.8896502 0.44897842 0.08331149
vn -0.7132655 -0.55029416 0.43408385
vn -0.7940285 0.4489786 0.40980113
vn -0.8247348 -0.26054868 0.5019232
vn -0.46327987 -0.26054856 0.84704554
vn -0.40066397 -0.55029386 0.73256063
vn -0.37267503 0.4489787 0.81211543
vn 0.019295128 -0.5502941 0.8347479
vn -0.042116687 0.44897857 0.89254946
vn 0.022310141 -0.26054868 0.96520287
vn 0.5019231 -0.26054865 0.8247349
vn 0.4340844 -0.5502939 0.7132653
vn 0.51707494 0.44652426 0.73023945
vn 0.7325609 -0.5502934 0.40066412
vn 0.7533246 0.44572818 0.4835581
vn 0.84704554 -0.2605484 0.46328
vn 0.965203 -0.2605482 -0.022310559
vn 0.8347484 -0.55029327 -0.019295333
vn 0.8880245 0.4522009 -0.08322807
vn 0.71326584 -0.55029356 -0.4340841
vn 0.79327786 0.4514173 -0.40857384
vn 0.82473516 -0.26054832 -0.5019229
vn 0.46327996 -0.26054868 -0.8470455
vn 0.4006641 -0.550294 -0.7325605
vn 0.37267515 0.4489781 -0.8121157
vn -0.0192953 -0.550294 -0.83474797
vn 0.042116124 0.44897813 -0.89254963
vn -0.022310909 -0.2605485 -0.965203
vn 0.23084788 0.94272995 -0.24076873
vn 2.9115654E-05 1 -0.000112914946
vn -0.09381325 0.94265443 -0.3203151
vn 0.32398975 0.94265175 0.080239624
vn -0.3243075 0.94265443 -0.078912884
vn 0.09320459 0.9425792 0.32071373
vn -0.23049416 0.9426545 0.24140199
g ENV_S09_Coral_Flower_Piece_01h_MO_0
f 3/3/3 2/2/2 1/1/1
f 2/2/2 4/4/4 1/1/1
f 4/4/4 2/2/2 5/5/5
f 5/5/5 2/2/2 6/6/6
f 7/7/7 5/5/5 6/6/6
f 6/6/6 8/8/8 7/7/7
f 8/8/8 6/6/6 9/9/9
f 10/10/10 8/8/8 9/9/9
f 10/10/10 9/9/9 11/11/11
f 11/11/11 9/9/9 12/12/12
f 13/13/13 11/11/11 12/12/12
f 13/13/13 12/12/12 14/14/14
f 14/14/14 12/12/12 15/15/15
f 16/16/16 14/14/14 15/15/15
f 16/16/16 15/15/15 17/17/17
f 17/17/17 15/15/15 18/18/18
f 19/19/19 17/17/17 18/18/18
f 19/19/19 18/18/18 20/20/20
f 23/23/23 22/22/22 21/21/21
f 24/24/24 23/23/23 21/21/21
f 25/25/25 22/22/22 23/23/23
f 26/26/26 25/25/25 23/23/23
f 24/24/24 27/27/27 23/23/23
f 28/28/28 26/26/26 23/23/23
f 27/27/27 29/29/29 23/23/23
f 29/29/29 28/28/28 23/23/23
f 30/30/30 29/29/29 27/27/27
f 28/28/28 29/29/29 30/30/30
f 31/31/31 30/30/30 27/27/27
f 32/32/32 28/28/28 30/30/30
f 31/31/31 33/33/33 30/30/30
f 34/34/34 32/32/32 30/30/30
f 33/33/33 35/35/35 30/30/30
f 35/35/35 34/34/34 30/30/30
f 36/36/36 35/35/35 33/33/33
f 34/34/34 35/35/35 36/36/36
f 37/37/37 36/36/36 33/33/33
f 38/38/38 34/34/34 36/36/36
f 37/37/37 39/39/39 36/36/36
f 40/40/40 38/38/38 36/36/36
f 39/39/39 41/41/41 36/36/36
f 41/41/41 40/40/40 36/36/36
f 42/42/42 41/41/41 39/39/39
f 40/40/40 41/41/41 42/42/42
f 43/43/43 42/42/42 39/39/39
f 44/44/44 40/40/40 42/42/42
f 43/43/43 45/45/45 42/42/42
f 46/46/46 44/44/44 42/42/42
f 45/45/45 47/47/47 42/42/42
f 47/47/47 46/46/46 42/42/42
f 48/48/48 47/47/47 45/45/45
f 46/46/46 47/47/47 48/48/48
f 49/49/49 48/48/48 45/45/45
f 50/50/50 46/46/46 48/48/48
f 49/49/49 51/51/51 48/48/48
f 52/52/52 50/50/50 48/48/48
f 51/51/51 53/53/53 48/48/48
f 53/53/53 52/52/52 48/48/48
f 54/54/54 53/53/53 51/51/51
f 52/52/52 53/53/53 54/54/54
f 55/55/55 54/54/54 51/51/51
f 56/56/56 52/52/52 54/54/54
f 54/54/54 55/55/55 57/57/57
f 58/58/58 56/56/56 54/54/54
f 59/59/59 54/54/54 57/57/57
f 59/59/59 58/58/58 54/54/54
f 62/62/62 61/61/61 60/60/60
f 60/60/60 61/61/61 63/63/63
f 64/64/64 61/61/61 62/62/62
f 63/63/63 61/61/61 65/65/65
f 66/66/66 61/61/61 64/64/64
f 65/65/65 61/61/61 66/66/66
