g ENV_S05_CutOutTransition_MO
v -6.442603 0.4431162 -0.013876438
v -6.442603 0.4431162 -0.09423113
v 6.5279493 0.4431162 -0.09423113
v 6.5279493 0.4431162 -0.013876438
v -6.442603 -0.5407338 -0.09423113
v -6.442603 -0.5407338 -0.013876438
v 6.5279493 -0.44296217 -0.013876438
v 6.5279493 -0.44296217 -0.09423113
v 6.5279493 -0.44296217 -0.013876438
v 6.5279493 0.4431162 -0.013876438
v 6.5279493 0.4431162 -0.09423113
v 6.5279493 -0.44296217 -0.09423113
v -6.442603 -0.5407338 -0.09423113
v -6.442603 0.4431162 -0.09423113
v -6.442603 0.4431162 -0.013876438
v -6.442603 -0.5407338 -0.013876438
v 6.3502192 -0.3115449 -0.013876438
v 6.3502192 -0.3115449 -0.09423113
v 6.3502192 0.35306358 -0.09423113
v 6.3502192 0.35306358 -0.013876438
v 6.3502192 0.35306358 -0.013876438
v 6.3502192 0.35306358 -0.09423113
v -6.2648726 0.35306358 -0.09423113
v -6.2648726 0.35306358 -0.013876438
v -6.2648726 0.35306358 -0.013876438
v -6.2648726 0.35306358 -0.09423113
v -6.2648726 -0.40911818 -0.09423113
v -6.2648726 -0.40911818 -0.013876438
v -6.2648726 -0.40911818 -0.013876438
v -6.2648726 -0.40911818 -0.09423113
v 6.3502192 -0.3115449 -0.09423113
v 6.3502192 -0.3115449 -0.013876438
v 6.5279493 -0.44296217 -0.09423113
v -6.2648726 -0.40911818 -0.09423113
v -6.442603 -0.5407338 -0.09423113
v 6.3502192 -0.3115449 -0.09423113
v -6.2648726 0.35306358 -0.09423113
v 6.5279493 0.4431162 -0.09423113
v -6.442603 0.4431162 -0.09423113
v 6.3502192 0.35306358 -0.09423113
v 6.5279493 0.4431162 -0.013876438
v -6.2648726 0.35306358 -0.013876438
v -6.442603 0.4431162 -0.013876438
v 6.3502192 0.35306358 -0.013876438
v -6.2648726 -0.40911818 -0.013876438
v 6.5279493 -0.44296217 -0.013876438
v -6.442603 -0.5407338 -0.013876438
v 6.3502192 -0.3115449 -0.013876438
vt 0.48804063 0.10888612
vt 0.48804063 0.10622849
vt 0.046874866 0.10622849
vt 0.046874866 0.10888612
vt 0.046874866 0.12128837
vt 0.046874866 0.123945996
vt 0.48804063 0.123945996
vt 0.48804063 0.12128837
vt 0.48804063 0.050418366
vt 0.48804063 0.08053812
vt 0.49069828 0.08053812
vt 0.49069828 0.050418366
vt 0.5217039 0.10622849
vt 0.48804063 0.10622849
vt 0.48804063 0.10888612
vt 0.5217039 0.10888612
vt 0.95312506 0.094712116
vt 0.95312506 0.092054494
vt 0.9300923 0.092054494
vt 0.9300923 0.094712116
vt 0.9300923 0.094712116
vt 0.9300923 0.092054494
vt 0.50132877 0.092054494
vt 0.50132877 0.094712116
vt 0.50132877 0.094712116
vt 0.50132877 0.092054494
vt 0.4756384 0.092054494
vt 0.4756384 0.094712116
vt 0.4756384 0.094712116
vt 0.4756384 0.092054494
vt 0.046874866 0.092054494
vt 0.046874866 0.094712116
vt 0.49069828 0.050418366
vt 0.92566293 0.05130424
vt 0.931864 0.046874866
vt 0.49689937 0.05484774
vt 0.92566293 0.07699461
vt 0.49069828 0.08053812
vt 0.931864 0.08053812
vt 0.49689937 0.07699461
vt 0.48804063 0.08053812
vt 0.05307599 0.07699461
vt 0.046874866 0.08053812
vt 0.48183948 0.07699461
vt 0.05307599 0.05130424
vt 0.48804063 0.050418366
vt 0.046874866 0.046874866
vt 0.48183948 0.05484774
vn -0.003921509 0.99999225 -0.00034526698
vn -0.003921509 0.99999225 -0.00034526698
vn -0.003921509 0.99999225 -0.00034526698
vn -0.003921509 0.99999225 -0.00034526698
vn 0.0039215684 -0.9999924 -0
vn 0.0039215684 -0.9999924 -0
vn 0.0039215684 -0.9999924 -0
vn 0.0039215684 -0.9999924 -0
vn 0.9999924 0.003921509 -0
vn 0.9999924 0.003921509 -0
vn 0.9999924 0.003921509 -0
vn 0.9999924 0.003921509 -0
vn -0.99999225 0.003921509 -0.00034492963
vn -0.99999225 0.003921509 -0.00034492963
vn -0.99999225 0.003921509 -0.00034492963
vn -0.99999225 0.003921509 -0.00034492963
vn -0.99999225 0.003921509 -0.00034492963
vn -0.99999225 0.003921509 -0.00034492963
vn -0.99999225 0.003921509 -0.00034492963
vn -0.99999225 0.003921509 -0.00034492963
vn -0.003921509 -0.9999924 -0
vn -0.003921509 -0.9999924 -0
vn -0.003921509 -0.9999924 -0
vn -0.003921509 -0.9999924 -0
vn 0.9999924 0.003921509 -0
vn 0.9999924 0.003921509 -0
vn 0.9999924 0.003921509 -0
vn 0.9999924 0.003921509 -0
vn -0.003921509 0.99999225 -0.00034526698
vn -0.003921509 0.99999225 -0.00034526698
vn -0.003921509 0.99999225 -0.00034526698
vn -0.003921509 0.99999225 -0.00034526698
vn -0.003921509 0.003921509 -0.9999846
vn -0.003921509 0.003921509 -0.9999846
vn -0.003921509 0.003921509 -0.9999846
vn -0.003921509 0.003921509 -0.9999846
vn -0.003921509 0.003921509 -0.9999846
vn -0.003921509 0.003921509 -0.9999846
vn -0.003921509 0.003921509 -0.9999846
vn -0.003921509 0.003921509 -0.9999846
vn -0.003921509 0.003921509 0.9999846
vn -0.003921509 0.003921509 0.9999846
vn -0.003921509 0.003921509 0.9999846
vn -0.003921509 0.003921509 0.9999846
vn -0.003921509 0.003921509 0.9999846
vn -0.003921509 0.003921509 0.9999846
vn -0.003921509 0.003921509 0.9999846
vn -0.003921509 0.003921509 0.9999846
g ENV_S05_CutOutTransition_MO_0
f 3/3/3 2/2/2 1/1/1
f 4/4/4 3/3/3 1/1/1
f 7/7/7 6/6/6 5/5/5
f 8/8/8 7/7/7 5/5/5
f 11/11/11 10/10/10 9/9/9
f 12/12/12 11/11/11 9/9/9
f 15/15/15 14/14/14 13/13/13
f 16/16/16 15/15/15 13/13/13
f 19/19/19 18/18/18 17/17/17
f 20/20/20 19/19/19 17/17/17
f 23/23/23 22/22/22 21/21/21
f 24/24/24 23/23/23 21/21/21
f 27/27/27 26/26/26 25/25/25
f 28/28/28 27/27/27 25/25/25
f 31/31/31 30/30/30 29/29/29
f 32/32/32 31/31/31 29/29/29
f 35/35/35 34/34/34 33/33/33
f 34/34/34 36/36/36 33/33/33
f 37/37/37 34/34/34 35/35/35
f 33/33/33 36/36/36 38/38/38
f 39/39/39 37/37/37 35/35/35
f 36/36/36 40/40/40 38/38/38
f 40/40/40 37/37/37 39/39/39
f 38/38/38 40/40/40 39/39/39
f 43/43/43 42/42/42 41/41/41
f 42/42/42 44/44/44 41/41/41
f 45/45/45 42/42/42 43/43/43
f 41/41/41 44/44/44 46/46/46
f 47/47/47 45/45/45 43/43/43
f 44/44/44 48/48/48 46/46/46
f 48/48/48 45/45/45 47/47/47
f 46/46/46 48/48/48 47/47/47
