g ENV_S06_G8_Conveyor_COL
v -3.498092 10.040467 8.878573
v -3.498092 10.676104 8.878573
v 3.498092 10.676104 8.878573
v 3.498092 10.040467 8.878573
v -3.5447152 10.856797 8.5597105
v -6.04624 1.0021116 -8.548627
v 6.04624 1.0021116 -8.548627
v 3.5447152 10.856797 8.5597105
v -6.04624 1.0021116 -8.548627
v -6.0544796 -0.030348612 -8.6049795
v 6.0544796 -0.030348612 -8.6049795
v 6.04624 1.0021116 -8.548627
v -6.0544796 -0.030348612 -8.6049795
v -3.498092 10.040467 8.878573
v 3.498092 10.040467 8.878573
v 6.0544796 -0.030348612 -8.6049795
v 3.498092 10.040467 8.878573
v 6.04624 1.0021116 -8.548627
v 6.0544796 -0.030348612 -8.6049795
v 3.5447152 10.856797 8.5597105
v 3.498092 10.676104 8.878573
v -3.5447152 10.856797 8.5597105
v -3.498092 10.676104 8.878573
v -3.498092 10.040467 8.878573
v -6.04624 1.0021116 -8.548627
v -6.0544796 -0.030348612 -8.6049795
v -3.5447152 10.856797 8.5597105
v 3.5447152 10.856797 8.5597105
v 3.498092 10.676104 8.878573
v -3.498092 10.676104 8.878573
vt 0.375 0
vt 0.375 0.15890911
vt 0.625 0.15890913
vt 0.625 0
vt 0.375 0.25455952
vt 0.37055922 0.4992
vt 0.630542 0.4992216
vt 0.625 0.25455946
vt 0.37055922 0.4992
vt 0.375 0.75
vt 0.625 0.75
vt 0.630542 0.4992216
vt 0.375 0.75
vt 0.375 1
vt 0.625 1
vt 0.625 0.75
vt 0.625 0
vt 0.8741832 0.24998187
vt 0.875 1.3646452E-05
vt 0.6295594 0.24999997
vt 0.625 0.15890913
vt 0.37042704 0.25
vt 0.375 0.15890911
vt 0.375 0
vt 0.12580521 0.24998727
vt 0.125 0
vt 0.375 0.25455952
vt 0.625 0.25455946
vt 0.625 0.15890913
vt 0.375 0.15890911
vn -0 0 1
vn -0 0 1
vn -0 0 1
vn -0 0 1
vn -0 0.8665254 -0.49913287
vn -0 0.8665254 -0.49913293
vn -0 0.8665254 -0.49913293
vn -0 0.8665254 -0.49913287
vn -0 0 -1
vn -0 0 -1
vn -0 0 -1
vn -0 0 -1
vn -0 -0.8665254 0.49913296
vn -0 -0.8665254 0.49913296
vn -0 -0.8665254 0.49913296
vn -0 -0.8665254 0.49913296
vn 0.98947877 0 0.1446784
vn 0.98947877 0 0.14467841
vn 0.98947877 0 0.1446784
vn 0.98947865 0 0.1446793
vn 0.98947865 0 0.14467928
vn -0.98947865 0 0.1446793
vn -0.98947865 0 0.14467928
vn -0.98947865 0 0.14467928
vn -0.98947877 0 0.14467835
vn -0.98947877 0 0.1446784
vn -0 0.87001795 0.49302003
vn -0 0.87001795 0.49302003
vn -0 0.87001795 0.49302003
vn -0 0.87001795 0.49302003
g ENV_S06_G8_Conveyor_COL_0
f 3/3/3 2/2/2 1/1/1
f 4/4/4 3/3/3 1/1/1
f 7/7/7 6/6/6 5/5/5
f 8/8/8 7/7/7 5/5/5
f 11/11/11 10/10/10 9/9/9
f 12/12/12 11/11/11 9/9/9
f 15/15/15 14/14/14 13/13/13
f 16/16/16 15/15/15 13/13/13
f 19/19/19 18/18/18 17/17/17
f 18/18/18 20/20/20 17/17/17
f 20/20/20 21/21/21 17/17/17
f 24/24/24 23/23/23 22/22/22
f 24/24/24 22/22/22 25/25/25
f 24/24/24 25/25/25 26/26/26
f 29/29/29 28/28/28 27/27/27
f 30/30/30 29/29/29 27/27/27
