g ENV_S09_Coral_Piece_01l_MO
v 43.358448 6.9569488 4.3106365
v 42.27251 6.9569488 0.7310271
v 43.064228 4.6415243 0.03680836
v 44.336258 4.6415243 4.230402
v 38.932667 6.9569488 18.838917
v 44.336258 -4.6415176 4.230402
v 43.064228 -4.6415176 0.03680836
v 42.27251 -6.9569426 0.7310271
v 43.358448 -6.9569426 4.3106365
v 39.77048 4.6415243 19.322588
v 30.856419 6.9569488 30.343605
v 39.77048 -4.6415176 19.322588
v 38.932667 -6.9569426 18.838917
v 31.54048 -4.6415176 31.027668
v 30.856419 -6.9569426 30.343605
v 31.54048 4.6415243 31.027668
v 19.542511 6.9569488 38.324463
v 20.026106 -4.6415176 39.16212
v 19.542511 -6.9569426 38.324463
v 4.8232927 -6.9569426 42.845478
v 20.026106 4.6415243 39.16212
v 4.8232927 6.9569488 42.845478
v 4.7431364 -4.6415176 43.823368
v 4.7431364 4.6415243 43.823368
v 1.243918 6.9569488 41.759697
v 0.5496992 -4.6415176 42.551258
v 1.243918 -6.9569426 41.759697
v 0.5496992 4.6415243 42.551258
v -0.29983208 6.9569488 38.352512
v -1.2588946 -4.6415176 38.5597
v -0.29983208 -6.9569426 38.352512
v -1.2588946 4.6415243 38.5597
v -0.29983208 6.9569488 6.0812616
v -1.2588946 4.6415243 5.8904023
v 1.7193867 6.9569488 1.2064959
v -1.2588946 -4.6415176 5.8904023
v -0.29983208 -6.9569426 6.0812616
v 0.98532414 -4.6415176 0.47243336
v 1.7193867 -6.9569426 1.2064959
v 0.98532414 4.6415243 0.47243336
v 6.59423 6.9569488 -0.81272286
v 6.403449 -4.6415176 -1.7717854
v 6.59423 -6.9569426 -0.81272286
v 6.403449 4.6415243 -1.7717854
v 38.865322 6.9569488 -0.81272286
v 39.072666 4.6415243 -1.7717854
v 42.27251 6.9569488 0.7310271
v 43.064228 4.6415243 0.03680836
v 43.064228 -4.6415176 0.03680836
v 39.072666 -4.6415176 -1.7717854
v 38.865322 -6.9569426 -0.81272286
v 42.27251 -6.9569426 0.7310271
v 42.27251 -6.9569426 0.7310271
v 38.865322 -6.9569426 -0.81272286
v 38.36548 -7.9160247 1.5027457
v 6.59423 -6.9569426 -0.81272286
v 40.36126 -7.9160247 2.407199
v 43.358448 -6.9569426 4.3106365
v 40.997353 -7.9160247 4.5041523
v 38.932667 -6.9569426 18.838917
v 7.054699 -7.9160247 1.5027457
v 36.910324 -7.9160247 17.671183
v 30.856419 -6.9569426 30.343605
v 3.491574 -7.9160247 2.9786835
v 1.7193867 -6.9569426 1.2064959
v 2.0157928 -7.9160247 6.541808
v -0.29983208 -6.9569426 6.0812616
v -0.29983208 -6.9569426 38.352512
v 29.205168 -7.9160247 28.692278
v 19.542511 -6.9569426 38.324463
v 18.374855 -7.9160247 36.301964
v 4.8232927 -6.9569426 42.845478
v 5.0170426 -7.9160247 40.48462
v 1.243918 -6.9569426 41.759697
v 2.9200115 -7.9160247 39.848526
v 2.0157928 -7.9160247 37.852432
v 40.997353 7.916031 4.5041523
v 43.358448 6.9569488 4.3106365
v 38.932667 6.9569488 18.838917
v 42.27251 6.9569488 0.7310271
v 40.36126 7.916031 2.407199
v 38.865322 6.9569488 -0.81272286
v 38.36548 7.916031 1.5027457
v 6.59423 6.9569488 -0.81272286
v 7.054699 7.916031 1.5027457
v 1.7193867 6.9569488 1.2064959
v 36.910324 7.916031 17.671183
v 3.491574 7.916031 2.9786835
v -0.29983208 6.9569488 6.0812616
v 29.205168 7.916031 28.692278
v 30.856419 6.9569488 30.343605
v 2.0157928 7.916031 6.541808
v -0.29983208 6.9569488 38.352512
v 18.374855 7.916031 36.301964
v 19.542511 6.9569488 38.324463
v 5.0170426 7.916031 40.48462
v 4.8232927 6.9569488 42.845478
v 2.0157928 7.916031 37.852432
v 1.243918 6.9569488 41.759697
v 2.9200115 7.916031 39.848526
vt 0.013539195 0.35803726
vt 0.01340735 0.35803723
vt 0.01340735 0.35925025
vt 0.013539195 0.35925025
vt 0.014056265 0.35803726
vt 0.013539195 0.36372894
vt 0.01340735 0.36372894
vt 0.01340735 0.36495265
vt 0.013539195 0.36495265
vt 0.014056265 0.35925025
vt 0.014536567 0.35803726
vt 0.014056265 0.36372894
vt 0.014056265 0.36495265
vt 0.014536567 0.36372894
vt 0.014536567 0.36495265
vt 0.014536567 0.35925022
vt 0.015010253 0.3580372
vt 0.015010253 0.36372894
vt 0.015010253 0.36495265
vt 0.015537731 0.36495268
vt 0.015010253 0.35925025
vt 0.015537731 0.35803723
vt 0.015537731 0.363729
vt 0.015537731 0.35925025
vt 0.015680835 0.35803723
vt 0.015680835 0.36372894
vt 0.015680835 0.36495268
vt 0.015680835 0.35925025
vt 0.015823558 0.35803723
vt 0.015823558 0.363729
vt 0.015823558 0.36495268
vt 0.015823558 0.35925025
vt 0.01691705 0.3580372
vt 0.01691705 0.35925025
vt 0.01710993 0.35803726
vt 0.01691705 0.363729
vt 0.01691705 0.36495268
vt 0.01710993 0.36372894
vt 0.01710993 0.36495265
vt 0.01710993 0.3592502
vt 0.017302692 0.35803723
vt 0.017302692 0.36372897
vt 0.017302692 0.36495265
vt 0.017302692 0.35925025
vt 0.018393755 0.35803726
vt 0.018393755 0.35925025
vt 0.018524408 0.35803723
vt 0.018524408 0.35925025
vt 0.018524408 0.36372894
vt 0.018393755 0.36372894
vt 0.018393755 0.36495265
vt 0.018524408 0.36495265
vt 0.016430259 0.36349443
vt 0.016400933 0.36362475
vt 0.016489267 0.36362472
vt 0.016641498 0.36472934
vt 0.01650536 0.36355004
vt 0.016546369 0.36342818
vt 0.016572237 0.36351275
vt 0.017079353 0.36346918
vt 0.016722322 0.36469418
vt 0.017053485 0.3635526
vt 0.017535567 0.36366114
vt 0.016799212 0.36480463
vt 0.016749144 0.36488247
vt 0.016931653 0.364829
vt 0.016933203 0.36491716
vt 0.018038273 0.36467916
vt 0.01748848 0.36373433
vt 0.017894506 0.3639913
vt 0.017829299 0.3640493
vt 0.018157005 0.36446542
vt 0.018069267 0.3644768
vt 0.018144727 0.36459845
vt 0.018063068 0.36455315
vt 0.018001676 0.3645987
vt 0.014728785 0.35780954
vt 0.014711022 0.3577261
vt 0.014281034 0.35801023
vt 0.014839888 0.3577276
vt 0.014802694 0.3578096
vt 0.014925718 0.35782367
vt 0.014851332 0.35786504
vt 0.015240192 0.3588674
vt 0.015155315 0.35887557
vt 0.015220881 0.35904697
vt 0.014341831 0.35806844
vt 0.015142441 0.35900486
vt 0.01508224 0.35916236
vt 0.014060378 0.35842532
vt 0.01398623 0.3583857
vt 0.015042186 0.35908732
vt 0.014039278 0.35947907
vt 0.013920546 0.35885036
vt 0.013838291 0.35883206
vt 0.0139184 0.35932317
vt 0.013839126 0.35935456
vt 0.014032483 0.35939416
vt 0.013911843 0.3594609
vt 0.013959289 0.3593846
vn 0.7526559 0.6437515 0.1381776
vn 0.57949525 0.637113 -0.50820506
vn 0.74959564 0.077411324 -0.6573537
vn 0.98286736 0.07518469 0.1682823
vn 0.6630312 0.6775824 0.3182322
vn 0.9828675 -0.07518384 0.16828212
vn 0.7495959 -0.07741128 -0.6573535
vn 0.57949865 -0.63711 -0.50820476
vn 0.7526552 -0.6437524 0.13817735
vn 0.8992906 0.07852547 0.4302442
vn 0.5160316 0.68557847 0.51351094
vn 0.8992905 -0.07852488 0.4302445
vn 0.6630314 -0.6775823 0.31823188
vn 0.7065192 -0.08017778 0.7031374
vn 0.5160308 -0.68557805 0.5135125
vn 0.7065192 0.08017778 0.7031375
vn 0.3183292 0.67733425 0.66323817
vn 0.43022603 -0.078476205 0.89930373
vn 0.3183277 -0.6773387 0.66323423
vn 0.14059454 -0.64353335 0.75239486
vn 0.43022582 0.078475684 0.89930373
vn 0.1405946 0.6435251 0.7524018
vn 0.17135969 -0.075146995 0.98233837
vn 0.17135943 0.075145654 0.9823386
vn -0.50821364 0.63709605 0.5795063
vn -0.6573703 -0.077403516 0.7495819
vn -0.5082169 -0.63709986 0.5794992
vn -0.6573699 0.07740202 0.74958235
vn -0.73694915 0.67518216 0.032173373
vn -0.9957112 -0.07874862 0.04855857
vn -0.73694915 -0.6751821 0.032174166
vn -0.9957112 0.07874863 0.04855854
vn -0.7335676 0.6784341 -0.04007281
vn -0.9951616 0.07914985 -0.058212563
vn -0.5353555 0.6532854 -0.5353621
vn -0.9951616 -0.07914985 -0.058212563
vn -0.7335683 -0.67843336 -0.040072758
vn -0.70491713 -0.07854093 -0.70492774
vn -0.5353563 -0.65328306 -0.53536433
vn -0.70491713 0.07854093 -0.70492774
vn -0.040074937 0.6784329 -0.7335686
vn -0.05821335 -0.07916241 -0.9951605
vn -0.04007491 -0.6784327 -0.7335687
vn -0.058213353 0.079162374 -0.9951605
vn 0.032173 0.6751786 -0.73695236
vn 0.048560474 0.07875895 -0.99571025
vn 0.57949525 0.637113 -0.50820506
vn 0.74959564 0.077411324 -0.6573537
vn 0.7495959 -0.07741128 -0.6573535
vn 0.04856045 -0.07875898 -0.99571025
vn 0.03217267 -0.6751779 -0.7369531
vn 0.57949865 -0.63711 -0.50820476
vn 0.57949865 -0.63711 -0.50820476
vn 0.03217267 -0.6751779 -0.7369531
vn 0.007386992 -0.9780707 -0.20814236
vn -0.04007491 -0.6784327 -0.7335687
vn 0.0550729 -0.99731356 -0.04829592
vn 0.7526552 -0.6437524 0.13817735
vn 0.06818676 -0.99756914 0.014359615
vn 0.6630314 -0.6775823 0.31823188
vn -0.0032478923 -0.99775285 -0.0669224
vn 0.04862193 -0.9985483 0.023174712
vn 0.5160308 -0.68557805 0.5135125
vn -0.015300752 -0.9997658 -0.015300539
vn -0.5353563 -0.65328306 -0.53536433
vn -0.06741451 -0.9977196 -0.0032715132
vn -0.7335683 -0.67843336 -0.040072758
vn -0.73694915 -0.6751821 0.032174166
vn 0.03440108 -0.99882203 0.034221984
vn 0.3183277 -0.6773387 0.66323423
vn 0.023198068 -0.9985468 0.04864292
vn 0.14059454 -0.64353335 0.75239486
vn 0.014613763 -0.9975592 0.06828003
vn -0.5082169 -0.63709986 0.5794992
vn -0.04830654 -0.9973127 0.05507911
vn -0.20813525 -0.97807217 0.00738601
vn 0.06818513 0.99756926 0.01435978
vn 0.7526559 0.6437515 0.1381776
vn 0.6630312 0.6775824 0.3182322
vn 0.57949525 0.637113 -0.50820506
vn 0.05507346 0.9973137 -0.04829456
vn 0.032173 0.6751786 -0.73695236
vn 0.0073873396 0.9780709 -0.20814092
vn -0.040074937 0.6784329 -0.7335686
vn -0.0032479041 0.99775285 -0.06692258
vn -0.5353555 0.6532854 -0.5353621
vn 0.048622984 0.9985482 0.023175694
vn -0.015301127 0.9997658 -0.0153008355
vn -0.7335676 0.6784341 -0.04007281
vn 0.034402847 0.9988219 0.034222875
vn 0.5160316 0.68557847 0.51351094
vn -0.06741614 0.9977196 -0.003271718
vn -0.73694915 0.67518216 0.032173373
vn 0.023198366 0.99854666 0.048643623
vn 0.3183292 0.67733425 0.66323817
vn 0.014614154 0.99755895 0.06828273
vn 0.1405946 0.6435251 0.7524018
vn -0.20813927 0.9780713 0.0073853615
vn -0.50821364 0.63709605 0.5795063
vn -0.048304223 0.9973127 0.055080656
g ENV_S09_Coral_Piece_01l_MO_0
f 3/3/3 2/2/2 1/1/1
f 4/4/4 3/3/3 1/1/1
f 4/4/4 1/1/1 5/5/5
f 3/3/3 4/4/4 6/6/6
f 7/7/7 3/3/3 6/6/6
f 8/8/8 7/7/7 6/6/6
f 9/9/9 8/8/8 6/6/6
f 10/10/10 4/4/4 5/5/5
f 6/6/6 4/4/4 10/10/10
f 10/10/10 5/5/5 11/11/11
f 6/6/6 12/12/12 9/9/9
f 12/12/12 6/6/6 10/10/10
f 12/12/12 13/13/13 9/9/9
f 13/13/13 12/12/12 14/14/14
f 12/12/12 10/10/10 14/14/14
f 15/15/15 13/13/13 14/14/14
f 16/16/16 10/10/10 11/11/11
f 10/10/10 16/16/16 14/14/14
f 16/16/16 11/11/11 17/17/17
f 15/15/15 14/14/14 18/18/18
f 14/14/14 16/16/16 18/18/18
f 19/19/19 15/15/15 18/18/18
f 20/20/20 19/19/19 18/18/18
f 21/21/21 16/16/16 17/17/17
f 16/16/16 21/21/21 18/18/18
f 17/17/17 22/22/22 21/21/21
f 23/23/23 20/20/20 18/18/18
f 23/23/23 18/18/18 21/21/21
f 22/22/22 24/24/24 21/21/21
f 24/24/24 23/23/23 21/21/21
f 22/22/22 25/25/25 24/24/24
f 23/23/23 26/26/26 20/20/20
f 23/23/23 24/24/24 26/26/26
f 26/26/26 27/27/27 20/20/20
f 25/25/25 28/28/28 24/24/24
f 24/24/24 28/28/28 26/26/26
f 28/28/28 25/25/25 29/29/29
f 27/27/27 26/26/26 30/30/30
f 26/26/26 28/28/28 30/30/30
f 31/31/31 27/27/27 30/30/30
f 32/32/32 28/28/28 29/29/29
f 28/28/28 32/32/32 30/30/30
f 29/29/29 33/33/33 32/32/32
f 33/33/33 34/34/34 32/32/32
f 32/32/32 34/34/34 30/30/30
f 33/33/33 35/35/35 34/34/34
f 30/30/30 36/36/36 31/31/31
f 34/34/34 36/36/36 30/30/30
f 36/36/36 37/37/37 31/31/31
f 36/36/36 38/38/38 37/37/37
f 36/36/36 34/34/34 38/38/38
f 38/38/38 39/39/39 37/37/37
f 35/35/35 40/40/40 34/34/34
f 34/34/34 40/40/40 38/38/38
f 40/40/40 35/35/35 41/41/41
f 39/39/39 38/38/38 42/42/42
f 38/38/38 40/40/40 42/42/42
f 43/43/43 39/39/39 42/42/42
f 44/44/44 40/40/40 41/41/41
f 40/40/40 44/44/44 42/42/42
f 41/41/41 45/45/45 44/44/44
f 45/45/45 46/46/46 44/44/44
f 44/44/44 46/46/46 42/42/42
f 45/45/45 47/47/47 46/46/46
f 47/47/47 48/48/48 46/46/46
f 46/46/46 48/48/48 49/49/49
f 42/42/42 50/50/50 43/43/43
f 46/46/46 50/50/50 42/42/42
f 50/50/50 46/46/46 49/49/49
f 50/50/50 51/51/51 43/43/43
f 51/51/51 50/50/50 49/49/49
f 52/52/52 51/51/51 49/49/49
f 55/55/55 54/54/54 53/53/53
f 56/56/56 54/54/54 55/55/55
f 57/57/57 55/55/55 53/53/53
f 57/57/57 53/53/53 58/58/58
f 59/59/59 57/57/57 58/58/58
f 55/55/55 57/57/57 59/59/59
f 58/58/58 60/60/60 59/59/59
f 61/61/61 56/56/56 55/55/55
f 61/61/61 55/55/55 59/59/59
f 60/60/60 62/62/62 59/59/59
f 61/61/61 59/59/59 62/62/62
f 62/62/62 60/60/60 63/63/63
f 61/61/61 64/64/64 56/56/56
f 61/61/61 62/62/62 64/64/64
f 64/64/64 65/65/65 56/56/56
f 65/65/65 64/64/64 66/66/66
f 67/67/67 65/65/65 66/66/66
f 68/68/68 67/67/67 66/66/66
f 69/69/69 62/62/62 63/63/63
f 62/62/62 69/69/69 64/64/64
f 69/69/69 63/63/63 70/70/70
f 69/69/69 71/71/71 64/64/64
f 71/71/71 69/69/69 70/70/70
f 71/71/71 66/66/66 64/64/64
f 71/71/71 70/70/70 72/72/72
f 73/73/73 71/71/71 72/72/72
f 71/71/71 73/73/73 66/66/66
f 72/72/72 74/74/74 73/73/73
f 74/74/74 75/75/75 73/73/73
f 75/75/75 74/74/74 68/68/68
f 73/73/73 75/75/75 66/66/66
f 76/76/76 75/75/75 68/68/68
f 76/76/76 68/68/68 66/66/66
f 75/75/75 76/76/76 66/66/66
f 79/79/79 78/78/78 77/77/77
f 78/78/78 80/80/80 77/77/77
f 80/80/80 81/81/81 77/77/77
f 81/81/81 80/80/80 82/82/82
f 83/83/83 81/81/81 82/82/82
f 83/83/83 82/82/82 84/84/84
f 81/81/81 83/83/83 85/85/85
f 85/85/85 83/83/83 84/84/84
f 77/77/77 81/81/81 85/85/85
f 84/84/84 86/86/86 85/85/85
f 87/87/87 79/79/79 77/77/77
f 87/87/87 77/77/77 85/85/85
f 86/86/86 88/88/88 85/85/85
f 87/87/87 85/85/85 88/88/88
f 88/88/88 86/86/86 89/89/89
f 79/79/79 87/87/87 90/90/90
f 90/90/90 87/87/87 88/88/88
f 91/91/91 79/79/79 90/90/90
f 92/92/92 88/88/88 89/89/89
f 90/90/90 88/88/88 92/92/92
f 92/92/92 89/89/89 93/93/93
f 91/91/91 90/90/90 94/94/94
f 94/94/94 90/90/90 92/92/92
f 95/95/95 91/91/91 94/94/94
f 94/94/94 96/96/96 95/95/95
f 96/96/96 94/94/94 92/92/92
f 96/96/96 97/97/97 95/95/95
f 98/98/98 92/92/92 93/93/93
f 96/96/96 92/92/92 98/98/98
f 93/93/93 99/99/99 98/98/98
f 100/100/100 99/99/99 97/97/97
f 96/96/96 100/100/100 97/97/97
f 99/99/99 100/100/100 98/98/98
f 100/100/100 96/96/96 98/98/98
