g ENV_TerrainIslandLarge
v -33.51578 10.779415 -11.52607
v -52.25745 -12.26284 -2.628872
v -51.576595 -12.26284 -15.772381
v -49.405743 -12.26284 -24.011744
v -34.339718 10.767902 -2.423298
v -33.76576 10.782703 3.1633492
v -49.037357 -12.26284 14.004444
v -32.180378 12.113171 -5.3391457
v -29.509571 12.259541 -15.984535
v -32.37444 10.710346 -15.662193
v -30.391071 10.846844 -20.00225
v -45.12325 -12.26284 -32.759285
v -31.01601 12.169086 4.941143
v -32.382664 10.675808 9.055893
v -28.03603 10.771191 -23.503569
v -38.207775 -12.26284 -40.837475
v -29.438854 10.6511345 15.349712
v -43.27309 -12.26284 25.677692
v -28.026157 12.073704 13.437061
v -24.687656 10.812305 21.549793
v -34.791973 -12.26284 35.73103
v -24.339008 12.136196 -24.381775
v -16.426914 12.256252 -29.374731
v -25.508305 10.799152 -26.282913
v -20.933071 10.807377 -29.881262
v -29.4109 -12.26284 -47.11485
v -12.496357 10.828754 -33.606243
v -18.56158 -12.26284 -51.62923
v -17.311703 10.710346 28.093586
v -19.969349 -12.26284 46.979984
v 0.0024719238 11.067219 -9.508163
v -25.898067 12.262829 12.963421
v -10.976765 12.254604 29.330318
v -21.373821 12.127972 21.694515
v -5.964077 10.78764 -35.137352
v -6.9310913 -12.26284 -53.880665
v -12.432224 10.749813 31.265987
v -6.9639816 10.726788 33.84799
v -4.215885 -12.26284 53.147167
v 1.2457771 10.830395 35.36923
v 6.712372 -12.26284 53.888874
v -1.6437569 12.157574 32.803677
v 6.784733 10.723499 35.068264
v 16.551914 -12.26284 51.754208
v 8.733566 12.262829 29.499706
v 5.797985 12.137844 32.788876
v 12.08358 10.78764 33.466442
v 11.87801 12.0539665 31.292301
v 16.39568 10.749813 31.463337
v 27.879805 -12.26284 46.15769
v 17.34296 12.157574 27.970242
v 22.33098 10.700474 27.226894
v 37.57791 -12.26284 37.847614
v 23.613756 12.243092 22.19611
v 27.032845 10.784351 22.010273
v 46.287624 -12.26284 25.348782
v 29.39282 12.106594 13.76762
v 30.499626 10.616604 16.708141
v 32.53562 10.781063 11.299107
v 51.250977 -12.26284 10.971828
v 31.698526 12.175663 3.7504654
v 33.499344 10.825466 7.276451
v 34.260788 10.833683 -3.434719
v 52.25746 -12.26284 -3.8869781
v 31.716618 12.144421 -6.3094482
v 33.287193 10.715275 -10.39624
v 48.466698 -12.26284 -22.039888
v 28.85011 12.146061 -15.6671295
v 31.122923 10.73666 -16.203262
v 40.7388 -12.26284 -34.507477
v 27.26473 10.698833 -22.09745
v 15.11784 12.238163 -29.011278
v 22.378674 10.679096 -27.042711
v 31.543936 -12.26284 -43.330666
v 22.602337 12.088505 -23.807816
v 18.048485 10.827106 -30.150974
v 20.566341 -12.26284 -49.86788
v 12.826935 10.690609 -33.124382
v 8.578976 12.178959 -32.0406
v 7.501774 10.836979 -34.694958
v 6.436081 -12.26284 -53.88889
v -8.63488 12.137844 -32.305378
v 0.8132515 12.0704155 -33.326664
v 2.1667442 10.595219 -35.609344
vt 0.3834392 0.49094373
vt 0.37644976 0.48761544
vt 0.3767826 0.49227506
vt 0.37744826 0.49560338
vt 0.38310638 0.4872826
vt 0.3834392 0.4852856
vt 0.3777811 0.48129165
vt 0.38410488 0.48861393
vt 0.38510337 0.4926079
vt 0.38377205 0.49227506
vt 0.38477054 0.49393922
vt 0.37911242 0.49859887
vt 0.3844377 0.48461995
vt 0.38377205 0.4829558
vt 0.3854362 0.49527055
vt 0.38177505 0.5019272
vt 0.38510337 0.480626
vt 0.3797781 0.47696483
vt 0.3854362 0.48162448
vt 0.38676754 0.47829616
vt 0.38310638 0.47297084
vt 0.38676754 0.49560338
vt 0.38976303 0.49760038
vt 0.3864347 0.49626905
vt 0.38809887 0.49760038
vt 0.38510337 0.504257
vt 0.39142716 0.4989317
vt 0.38909736 0.5059211
vt 0.3894302 0.47596633
vt 0.3884317 0.46897689
vt 0.3960868 0.48994526
vt 0.3864347 0.48162448
vt 0.39176 0.4756335
vt 0.38809887 0.47829616
vt 0.393757 0.49959737
vt 0.39342415 0.5065868
vt 0.39142716 0.474635
vt 0.39342415 0.47396934
vt 0.39442265 0.46664706
vt 0.39641964 0.47330368
vt 0.39841664 0.46631423
vt 0.39542115 0.47430217
vt 0.39841664 0.47330368
vt 0.40207776 0.4669799
vt 0.39941514 0.47530067
vt 0.3980838 0.47430217
vt 0.40041363 0.47396934
vt 0.40041363 0.474635
vt 0.40207776 0.474635
vt 0.40640458 0.46930972
vt 0.4024106 0.47596633
vt 0.4044076 0.47629917
vt 0.41006574 0.47230518
vt 0.40474042 0.47829616
vt 0.40607175 0.47829616
vt 0.41339403 0.47696483
vt 0.40707025 0.48129165
vt 0.40740308 0.48029315
vt 0.40806875 0.48229015
vt 0.4150582 0.48229015
vt 0.4077359 0.48495278
vt 0.40840158 0.48362145
vt 0.4087344 0.48761544
vt 0.41572386 0.48794827
vt 0.4077359 0.48894677
vt 0.40840158 0.4902781
vt 0.4140597 0.4946049
vt 0.40673742 0.49227506
vt 0.4077359 0.4926079
vt 0.41139704 0.49926454
vt 0.40607175 0.4946049
vt 0.40174496 0.49726754
vt 0.4044076 0.49660188
vt 0.4077359 0.50259286
vt 0.4044076 0.49527055
vt 0.40274343 0.4979332
vt 0.40374193 0.50525546
vt 0.40074646 0.4989317
vt 0.3990823 0.49859887
vt 0.39874947 0.49959737
vt 0.39841664 0.5065868
vt 0.3927585 0.49859887
vt 0.39641964 0.4989317
vt 0.39675248 0.4999302
vn -0.76135474 0.64203924 -0.09013618
vn -0.78936934 0.61391854 0
vn -0.7753919 0.62098354 -0.114659704
vn -0.72626203 0.6350207 -0.26323414
vn -0.7753919 0.6280021 -0.06618733
vn -0.76135474 0.6350207 0.13071981
vn -0.76135474 0.59992784 0.24581602
vn -0.25601822 0.96489316 -0.058616124
vn 0.017703213 0.9998433 -0
vn -0.7122249 0.6560764 -0.24959865
vn -0.64203924 0.67713207 -0.35955217
vn -0.64203924 0.6350207 -0.4295746
vn -0.11564696 0.9929674 0.025327163
vn -0.72626203 0.6350207 0.26323414
vn -0.5858907 0.66309494 -0.4658725
vn -0.5227236 0.64203924 -0.5608437
vn -0.67713207 0.62098354 0.3948058
vn -0.6701135 0.5929093 0.44654956
vn -0.29812962 0.9368189 0.1830003
vn -0.5718536 0.6280021 0.5278228
vn -0.5437793 0.5929093 0.5939383
vn -0.15073979 0.9789303 -0.13774249
vn 0.003668666 0.999986 0.0038135985
vn -0.5016679 0.66309494 -0.5555487
vn -0.34024101 0.6560764 -0.6736467
vn -0.35427815 0.6350207 -0.6864661
vn -0.27005535 0.6490578 -0.711192
vn -0.25601822 0.6350207 -0.728837
vn -0.47359365 0.6280021 0.61751306
vn -0.39638954 0.5929093 0.7009522
vn 0.003668666 0.999986 0.0038135985
vn 0.024717096 0.99969447 -0
vn 0.003668666 0.999986 -0.0038135985
vn -0.1577583 0.9719117 0.17464231
vn -0.09459126 0.6560764 -0.7487432
vn -0.07353556 0.6280021 -0.77472955
vn -0.3823524 0.6280021 0.67780524
vn -0.24198109 0.6350207 0.733617
vn -0.18583256 0.6069464 0.77271104
vn -0.066516995 0.6490578 0.7578255
vn 0.05279857 0.6280021 0.77641845
vn -0.031424165 0.98594886 0.16406523
vn 0.13702136 0.6560764 0.74215156
vn 0.2633555 0.6280021 0.7322959
vn -0.0033499002 0.999986 -0.0040998184
vn 0.038761437 0.96489316 0.25976667
vn 0.27037406 0.6490578 0.7110709
vn 0.1300028 0.9368189 0.3247609
vn 0.38968965 0.6490578 0.65334976
vn 0.43180102 0.62098354 0.6541615
vn 0.1300028 0.9719117 0.19618078
vn 0.5019866 0.6490578 0.571606
vn 0.5862094 0.613965 0.52858824
vn -0.0033499002 0.999986 -0.0040998184
vn 0.6072651 0.6490578 0.4582063
vn 0.70552504 0.613965 0.35395125
vn 0.21422553 0.9719117 0.097442396
vn 0.68446934 0.64203924 0.34537995
vn 0.73359925 0.6280021 0.25970274
vn 0.77571064 0.613965 0.14601375
vn 0.003668666 0.999986 -0.0038135985
vn 0.7686921 0.6280021 0.12135017
vn 0.77571064 0.6280021 0.06234053
vn 0.78948945 0.61376417 -0
vn 0.010686772 0.99994296 -0
vn 0.7476364 0.6350207 -0.1943929
vn 0.7406178 0.613965 -0.27300605
vn 0.003668666 0.999986 0.0038135985
vn 0.6774508 0.6350207 -0.3712266
vn 0.6142837 0.62098354 -0.48686242
vn 0.5862094 0.6560764 -0.47531283
vn -0.0033499002 0.999986 0.0040998184
vn 0.5090052 0.64203924 -0.5733231
vn 0.47391242 0.62098354 -0.6243288
vn 0.2001884 0.9578746 -0.20591463
vn 0.40372676 0.6560764 -0.63762724
vn 0.3054669 0.62098354 -0.72185135
vn 0.29844832 0.6560764 -0.6931756
vn 0.03174287 0.9929674 -0.11405288
vn 0.17913276 0.6490578 -0.739348
vn 0.1089471 0.6280021 -0.77054775
vn -0.03844273 0.9789303 -0.20054336
vn 0.003668666 0.94383746 -0.33038974
vn 0.024724305 0.6490578 -0.7603372
g ENV_TerrainIslandLarge_0
f 3/3/3 2/2/2 1/1/1
f 1/1/1 4/4/4 3/3/3
f 2/2/2 5/5/5 1/1/1
f 5/5/5 2/2/2 6/6/6
f 2/2/2 7/7/7 6/6/6
f 1/1/1 5/5/5 8/8/8
f 5/5/5 6/6/6 8/8/8
f 1/1/1 8/8/8 9/9/9
f 1/1/1 9/9/9 10/10/10
f 10/10/10 4/4/4 1/1/1
f 11/11/11 4/4/4 10/10/10
f 11/11/11 10/10/10 9/9/9
f 12/12/12 4/4/4 11/11/11
f 6/6/6 13/13/13 8/8/8
f 13/13/13 9/9/9 8/8/8
f 6/6/6 7/7/7 14/14/14
f 6/6/6 14/14/14 13/13/13
f 15/15/15 12/12/12 11/11/11
f 16/16/16 12/12/12 15/15/15
f 14/14/14 7/7/7 17/17/17
f 17/17/17 7/7/7 18/18/18
f 14/14/14 19/19/19 13/13/13
f 17/17/17 19/19/19 14/14/14
f 17/17/17 18/18/18 20/20/20
f 17/17/17 20/20/20 19/19/19
f 18/18/18 21/21/21 20/20/20
f 11/11/11 22/22/22 15/15/15
f 11/11/11 9/9/9 22/22/22
f 9/9/9 23/23/23 22/22/22
f 24/24/24 16/16/16 15/15/15
f 15/15/15 22/22/22 24/24/24
f 25/25/25 16/16/16 24/24/24
f 25/25/25 24/24/24 22/22/22
f 25/25/25 22/22/22 23/23/23
f 26/26/26 16/16/16 25/25/25
f 26/26/26 25/25/25 27/27/27
f 25/25/25 23/23/23 27/27/27
f 28/28/28 26/26/26 27/27/27
f 21/21/21 29/29/29 20/20/20
f 21/21/21 30/30/30 29/29/29
f 31/31/31 23/23/23 9/9/9
f 32/32/32 31/31/31 9/9/9
f 33/33/33 31/31/31 32/32/32
f 32/32/32 9/9/9 13/13/13
f 13/13/13 19/19/19 32/32/32
f 20/20/20 34/34/34 19/19/19
f 19/19/19 34/34/34 32/32/32
f 20/20/20 29/29/29 34/34/34
f 33/33/33 32/32/32 34/34/34
f 29/29/29 33/33/33 34/34/34
f 35/35/35 28/28/28 27/27/27
f 36/36/36 28/28/28 35/35/35
f 29/29/29 30/30/30 37/37/37
f 29/29/29 37/37/37 33/33/33
f 37/37/37 30/30/30 38/38/38
f 37/37/37 38/38/38 33/33/33
f 30/30/30 39/39/39 38/38/38
f 39/39/39 40/40/40 38/38/38
f 39/39/39 41/41/41 40/40/40
f 38/38/38 42/42/42 33/33/33
f 40/40/40 42/42/42 38/38/38
f 40/40/40 41/41/41 43/43/43
f 41/41/41 44/44/44 43/43/43
f 45/45/45 33/33/33 42/42/42
f 45/45/45 31/31/31 33/33/33
f 40/40/40 46/46/46 42/42/42
f 43/43/43 46/46/46 40/40/40
f 46/46/46 45/45/45 42/42/42
f 43/43/43 44/44/44 47/47/47
f 43/43/43 48/48/48 46/46/46
f 43/43/43 47/47/47 48/48/48
f 47/47/47 44/44/44 49/49/49
f 49/49/49 48/48/48 47/47/47
f 49/49/49 44/44/44 50/50/50
f 48/48/48 51/51/51 46/46/46
f 51/51/51 45/45/45 46/46/46
f 49/49/49 51/51/51 48/48/48
f 49/49/49 50/50/50 52/52/52
f 49/49/49 52/52/52 51/51/51
f 50/50/50 53/53/53 52/52/52
f 54/54/54 45/45/45 51/51/51
f 52/52/52 54/54/54 51/51/51
f 54/54/54 31/31/31 45/45/45
f 52/52/52 53/53/53 55/55/55
f 55/55/55 54/54/54 52/52/52
f 55/55/55 53/53/53 56/56/56
f 55/55/55 57/57/57 54/54/54
f 55/55/55 56/56/56 58/58/58
f 58/58/58 57/57/57 55/55/55
f 58/58/58 56/56/56 59/59/59
f 58/58/58 59/59/59 57/57/57
f 59/59/59 56/56/56 60/60/60
f 61/61/61 54/54/54 57/57/57
f 61/61/61 31/31/31 54/54/54
f 59/59/59 62/62/62 57/57/57
f 59/59/59 60/60/60 62/62/62
f 62/62/62 61/61/61 57/57/57
f 63/63/63 62/62/62 60/60/60
f 62/62/62 63/63/63 61/61/61
f 64/64/64 63/63/63 60/60/60
f 63/63/63 65/65/65 61/61/61
f 65/65/65 31/31/31 61/61/61
f 63/63/63 64/64/64 66/66/66
f 65/65/65 63/63/63 66/66/66
f 66/66/66 64/64/64 67/67/67
f 68/68/68 31/31/31 65/65/65
f 65/65/65 66/66/66 68/68/68
f 66/66/66 67/67/67 69/69/69
f 68/68/68 66/66/66 69/69/69
f 67/67/67 70/70/70 69/69/69
f 69/69/69 70/70/70 71/71/71
f 69/69/69 71/71/71 68/68/68
f 72/72/72 31/31/31 68/68/68
f 31/31/31 72/72/72 23/23/23
f 71/71/71 70/70/70 73/73/73
f 73/73/73 70/70/70 74/74/74
f 71/71/71 75/75/75 68/68/68
f 71/71/71 73/73/73 75/75/75
f 75/75/75 72/72/72 68/68/68
f 73/73/73 74/74/74 76/76/76
f 73/73/73 76/76/76 75/75/75
f 76/76/76 72/72/72 75/75/75
f 76/76/76 74/74/74 77/77/77
f 76/76/76 78/78/78 72/72/72
f 76/76/76 77/77/77 78/78/78
f 23/23/23 72/72/72 79/79/79
f 78/78/78 79/79/79 72/72/72
f 78/78/78 77/77/77 80/80/80
f 78/78/78 80/80/80 79/79/79
f 77/77/77 81/81/81 80/80/80
f 82/82/82 23/23/23 79/79/79
f 27/27/27 23/23/23 82/82/82
f 35/35/35 27/27/27 82/82/82
f 83/83/83 82/82/82 79/79/79
f 80/80/80 83/83/83 79/79/79
f 35/35/35 82/82/82 83/83/83
f 80/80/80 81/81/81 84/84/84
f 80/80/80 84/84/84 83/83/83
f 35/35/35 83/83/83 84/84/84
f 81/81/81 36/36/36 84/84/84
f 84/84/84 36/36/36 35/35/35
