g ENV_S06_Scaffolding_Diagonal_MO2
v 10.752219 -7.894149 -0.6141081
v -10.2705145 8.511373 -0.6141081
v -10.752219 7.894149 -0.6141081
v 10.2705145 -8.5113735 -0.6141081
v 10.2705145 -8.5113735 -0.6141081
v -10.752219 7.894149 -0.6141081
v -10.752219 7.894149 0.21410847
v 10.2705145 -8.5113735 0.21410847
v -10.679044 7.987996 0.46939945
v 10.343689 -8.417526 0.46939945
v -10.534007 8.17372 0.5678406
v 10.488726 -8.231801 0.5678406
v 10.623261 -8.059201 0.48154068
v -10.399472 8.345992 0.48154068
v -10.2705145 8.511373 0.21410847
v 10.752219 -7.894149 0.21410847
v 10.752219 -7.894149 -0.6141081
v -10.2705145 8.511373 -0.6141081
vt 0.9999999 0.96676433
vt -1.4901161E-08 0.96676433
vt -1.4901161E-08 0.9960898
vt 0.9999999 0.9960898
vt 0.9999999 0.8572824
vt -1.4901161E-08 0.8572824
vt -1.4901161E-08 0.8885629
vt 0.9999999 0.8885629
vt -1.4901161E-08 0.9032257
vt 0.9999999 0.9032257
vt -1.4901161E-08 0.9090908
vt 0.9999999 0.9090908
vt 0.9999999 0.9149559
vt -1.4901161E-08 0.9149559
vt -1.4901161E-08 0.93548375
vt 0.9999999 0.93548375
vt 0.9999999 0.96676433
vt -1.4901161E-08 0.96676433
vn -0.0030910373 0.0030910373 -0.99999046
vn -0.0030910373 0.0030910373 -0.99999046
vn -0.0030910373 0.0030910373 -0.99999046
vn -0.0030910373 0.0030910373 -0.99999046
vn -0.6152234 -0.7883528 -0
vn -0.6152234 -0.7883528 -0
vn -0.6152234 -0.7883528 -0
vn -0.6152234 -0.7883528 -0
vn -0.3678972 -0.4668288 0.8041906
vn -0.3678972 -0.4668288 0.8041906
vn -0.102021575 -0.13293839 0.9858595
vn -0.102021575 -0.13293839 0.9858595
vn 0.10202259 0.13293731 0.9858596
vn 0.10202259 0.13293731 0.9858596
vn 0.61522454 0.78835183 -0.00042286396
vn 0.61522454 0.78835183 -0.00042286396
vn 0.61522454 0.78835183 -0.00042286396
vn 0.61522454 0.78835183 -0.00042286396
g ENV_S06_Scaffolding_Diagonal_MO2_0
f 3/3/3 2/2/2 1/1/1
f 4/4/4 3/3/3 1/1/1
f 7/7/7 6/6/6 5/5/5
f 8/8/8 7/7/7 5/5/5
f 7/7/7 8/8/8 9/9/9
f 8/8/8 10/10/10 9/9/9
f 11/11/11 9/9/9 10/10/10
f 12/12/12 11/11/11 10/10/10
f 11/11/11 12/12/12 13/13/13
f 14/14/14 11/11/11 13/13/13
f 14/14/14 13/13/13 15/15/15
f 13/13/13 16/16/16 15/15/15
f 15/15/15 16/16/16 17/17/17
f 18/18/18 15/15/15 17/17/17
