g ENV_ramp10_Col
v 3.0888503 -1.5096536 -3.0148177
v 3.072195 1.417116 -3.0526106
v 3.0734913 -1.5096536 -3.0518978
v 3.0888503 1.4229205 -3.0171225
v 3.0888479 1.4213693 2.8814664
v 3.0888479 -1.5096536 2.8803139
v 3.073489 -1.5096536 2.917394
v 3.072084 1.4162766 2.9177945
v 3.0734913 -1.5096536 -3.0518978
v 3.072195 1.417116 -3.0526106
v 3.0332327 1.4003555 -3.0672543
v 3.0364125 -1.5096536 -3.0672543
v -2.7938974 -1.5096536 -3.067259
v 3.072084 1.4162766 2.9177945
v 3.073489 -1.5096536 2.917394
v 3.03641 -1.5096536 2.9327505
v 3.0332303 1.4003555 2.9327505
v -2.7938986 -1.5096536 2.932748
v 3.0300918 1.4422296 -3.0522983
v -2.8768075 -1.5096536 -3.0518978
v 3.0624013 1.4478506 -3.045887
v -2.8768098 -1.5096536 2.9173892
v 3.0300894 1.4422296 2.917792
v 3.0623415 1.4474627 2.911149
v 3.0300894 1.4422296 2.917792
v -2.8768098 -1.5096536 2.9173892
v -2.911153 -1.5096536 2.880309
v 3.0271523 1.4594989 2.8814664
v -2.9111507 -1.5096536 -3.0148177
v 3.0686295 1.4576327 2.8814735
v 3.0623415 1.4474627 2.911149
v 3.068633 1.4581426 -3.0165608
v 3.0271547 1.4594989 -3.01597
v -2.8768075 -1.5096536 -3.0518978
v 3.0300918 1.4422296 -3.0522983
v 3.0624013 1.4478506 -3.045887
v 3.068633 1.4581426 -3.0165608
v 3.0624013 1.4478506 -3.045887
v 3.0686295 1.4576327 2.8814735
v 3.0623415 1.4474627 2.911149
v -1.9197553 -0.9649811 2.418295
v -1.6276131 -0.81813294 2.2823648
v -1.8223872 -0.9160382 2.4393227
v -1.3354695 -0.6712848 2.418295
v -1.6276131 -0.81813294 2.2823648
v -1.2641915 -0.6354565 2.3608437
v -1.8223872 -0.9160382 2.4393227
v -1.6276131 -0.81813294 2.2823648
v -1.4328376 -0.72022766 2.4393227
v -2.0171223 -1.0139236 -9.607131E-07
v -2.0171223 -1.0139236 2.2823648
v -1.6276131 -0.81813294 -9.607131E-07
v -1.2381027 -0.6223425 2.2823648
v -1.2381027 -0.6223425 -9.607131E-07
v -1.4328376 -0.72022766 2.4393227
v -1.6276131 -0.81813294 2.2823648
v -1.3354695 -0.6712848 2.418295
v -1.2641915 -0.6354565 2.3608437
v -1.6276131 -0.81813294 2.2823648
v -1.2381027 -0.6223425 2.2823648
v -1.6276131 -0.81813294 2.2823648
v -1.9910334 -1.0008096 2.3608437
v -2.0171223 -1.0139236 2.2823648
v -1.9197553 -0.9649811 2.418295
v -1.9910334 -1.0008096 2.3608437
v -1.6276131 -0.81813294 2.2823648
v -1.9197553 -0.9649811 -2.4182968
v -1.8223872 -0.9160382 -2.4393246
v -1.6276131 -0.81813294 -2.2823665
v -1.3354695 -0.6712848 -2.4182968
v -1.2641915 -0.6354565 -2.3608456
v -1.6276131 -0.81813294 -2.2823665
v -1.8223872 -0.9160382 -2.4393246
v -1.4328376 -0.72022766 -2.4393246
v -1.6276131 -0.81813294 -2.2823665
v -2.0171223 -1.0139236 -9.607131E-07
v -2.0171223 -1.0139236 -2.2823665
v -1.6276131 -0.81813294 -9.607131E-07
v -1.2381027 -0.6223425 -2.2823665
v -1.2381027 -0.6223425 -9.607131E-07
v -1.4328376 -0.72022766 -2.4393246
v -1.3354695 -0.6712848 -2.4182968
v -1.6276131 -0.81813294 -2.2823665
v -1.2641915 -0.6354565 -2.3608456
v -1.2381027 -0.6223425 -2.2823665
v -1.6276131 -0.81813294 -2.2823665
v -1.6276131 -0.81813294 -2.2823665
v -2.0171223 -1.0139236 -2.2823665
v -1.9910334 -1.0008096 -2.3608456
v -1.9197553 -0.9649811 -2.4182968
v -1.6276131 -0.81813294 -2.2823665
v -1.9910334 -1.0008096 -2.3608456
v -0.29214317 -0.14684844 2.418295
v -8.391425E-07 -3.0457488E-07 2.2823648
v -0.194775 -0.097905576 2.4393227
v 0.29214272 0.14684783 2.418295
v -8.391425E-07 -3.0457488E-07 2.2823648
v 0.36342078 0.18267608 2.3608437
v -0.194775 -0.097905576 2.4393227
v -8.391425E-07 -3.0457488E-07 2.2823648
v 0.19477455 0.097904965 2.4393227
v -0.3895101 -0.19579071 -9.607131E-07
v -0.3895101 -0.19579071 2.2823648
v -8.391425E-07 -3.0457488E-07 -9.607131E-07
v 0.38950965 0.1957901 2.2823648
v 0.38950965 0.1957901 -9.607131E-07
v 0.19477455 0.097904965 2.4393227
v -8.391425E-07 -3.0457488E-07 2.2823648
v 0.29214272 0.14684783 2.418295
v 0.36342078 0.18267608 2.3608437
v -8.391425E-07 -3.0457488E-07 2.2823648
v 0.38950965 0.1957901 2.2823648
v -8.391425E-07 -3.0457488E-07 2.2823648
v -0.36342123 -0.18267669 2.3608437
v -0.3895101 -0.19579071 2.2823648
v -0.29214317 -0.14684844 2.418295
v -0.36342123 -0.18267669 2.3608437
v -8.391425E-07 -3.0457488E-07 2.2823648
v -0.29214317 -0.14684844 -2.4182968
v -0.194775 -0.097905576 -2.4393246
v -8.391425E-07 -3.0457488E-07 -2.2823665
v 0.29214272 0.14684783 -2.4182968
v 0.36342078 0.18267608 -2.3608456
v -8.391425E-07 -3.0457488E-07 -2.2823665
v -0.194775 -0.097905576 -2.4393246
v 0.19477455 0.097904965 -2.4393246
v -8.391425E-07 -3.0457488E-07 -2.2823665
v -0.3895101 -0.19579071 -9.607131E-07
v -0.3895101 -0.19579071 -2.2823665
v -8.391425E-07 -3.0457488E-07 -9.607131E-07
v 0.38950965 0.1957901 -2.2823665
v 0.38950965 0.1957901 -9.607131E-07
v 0.19477455 0.097904965 -2.4393246
v 0.29214272 0.14684783 -2.4182968
v -8.391425E-07 -3.0457488E-07 -2.2823665
v 0.36342078 0.18267608 -2.3608456
v 0.38950965 0.1957901 -2.2823665
v -8.391425E-07 -3.0457488E-07 -2.2823665
v -8.391425E-07 -3.0457488E-07 -2.2823665
v -0.3895101 -0.19579071 -2.2823665
v -0.36342123 -0.18267669 -2.3608456
v -0.29214317 -0.14684844 -2.4182968
v -8.391425E-07 -3.0457488E-07 -2.2823665
v -0.36342123 -0.18267669 -2.3608456
v 1.3354667 0.67128384 2.418295
v 1.627609 0.818132 2.2823648
v 1.4328349 0.7202267 2.4393227
v 1.9197526 0.9649801 2.418295
v 1.627609 0.818132 2.2823648
v 1.9910307 1.0008084 2.3608437
v 1.4328349 0.7202267 2.4393227
v 1.627609 0.818132 2.2823648
v 1.8223845 0.91603726 2.4393227
v 1.2380997 0.6223416 -9.607131E-07
v 1.2380997 0.6223416 2.2823648
v 1.627609 0.818132 -9.607131E-07
v 2.0171196 1.0139225 2.2823648
v 2.0171196 1.0139225 -9.607131E-07
v 1.8223845 0.91603726 2.4393227
v 1.627609 0.818132 2.2823648
v 1.9197526 0.9649801 2.418295
v 1.9910307 1.0008084 2.3608437
v 1.627609 0.818132 2.2823648
v 2.0171196 1.0139225 2.2823648
v 1.627609 0.818132 2.2823648
v 1.2641885 0.6354556 2.3608437
v 1.2380997 0.6223416 2.2823648
v 1.3354667 0.67128384 2.418295
v 1.2641885 0.6354556 2.3608437
v 1.627609 0.818132 2.2823648
v 1.3354667 0.67128384 -2.4182968
v 1.4328349 0.7202267 -2.4393246
v 1.627609 0.818132 -2.2823665
v 1.9197526 0.9649801 -2.4182968
v 1.9910307 1.0008084 -2.3608456
v 1.627609 0.818132 -2.2823665
v 1.4328349 0.7202267 -2.4393246
v 1.8223845 0.91603726 -2.4393246
v 1.627609 0.818132 -2.2823665
v 1.2380997 0.6223416 -9.607131E-07
v 1.2380997 0.6223416 -2.2823665
v 1.627609 0.818132 -9.607131E-07
v 2.0171196 1.0139225 -2.2823665
v 2.0171196 1.0139225 -9.607131E-07
v 1.8223845 0.91603726 -2.4393246
v 1.9197526 0.9649801 -2.4182968
v 1.627609 0.818132 -2.2823665
v 1.9910307 1.0008084 -2.3608456
v 2.0171196 1.0139225 -2.2823665
v 1.627609 0.818132 -2.2823665
v 1.627609 0.818132 -2.2823665
v 1.2380997 0.6223416 -2.2823665
v 1.2641885 0.6354556 -2.3608456
v 1.3354667 0.67128384 -2.4182968
v 1.627609 0.818132 -2.2823665
v 1.2641885 0.6354556 -2.3608456
vt 0.23381683 0.8538967
vt 0.2338514 0.5949101
vt 0.23026606 0.85384566
vt 0.2373273 0.59449124
vt 0.7591244 0.6020528
vt 0.7553301 0.8613307
vt 0.75888 0.8613817
vt 0.76265955 0.6025078
vt 0 0.47040352
vt 0.2300554 0.58931446
vt 0.23038785 0.5853399
vt 0.0016317912 0.4672502
vt 0.23878215 0.009176871
vt 0.76671064 0.59697306
vt 1 0.4846889
vt 0.9984579 0.4814903
vt 0.7664251 0.5930216
vt 0.7744779 0.01682152
vt 0.2340423 0.5867906
vt 0.24242508 0.002666987
vt 0.2340744 0.59042865
vt 0.7710218 0.010210421
vt 0.7627303 0.5943678
vt 0.7625888 0.5979918
vt 0.7627303 0.5943678
vt 0.7710218 0.010210421
vt 0.7675105 0.007441396
vt 0.7591968 0.59473896
vt 0.24601372 0
vt 0.75916886 0.5983942
vt 0.7625888 0.5979918
vt 0.23743673 0.59091413
vt 0.23756428 0.58726215
vt 0.24242508 0.002666987
vt 0.2340423 0.5867906
vt 0.2340744 0.59042865
vt 0.23743673 0.59091413
vt 0.2340744 0.59042865
vt 0.75916886 0.5983942
vt 0.7625888 0.5979918
vt 0.625 0.5
vt 0.61150825 0.37499988
vt 0.625 0.4375062
vt 0.625 0.25
vt 0.61150825 0.37499988
vt 0.6157556 0.25
vt 0.625 0.4375062
vt 0.61150825 0.37499988
vt 0.625 0.31249356
vt 0.49999997 0.5
vt 0.61150825 0.5
vt 0.5 0.37499988
vt 0.61150825 0.25
vt 0.5 0.25
vt 0.625 0.31249356
vt 0.61150825 0.37499988
vt 0.625 0.25
vt 0.6157556 0.25
vt 0.61150825 0.37499988
vt 0.61150825 0.25
vt 0.61150825 0.37499988
vt 0.6157556 0.5
vt 0.61150825 0.5
vt 0.625 0.5
vt 0.6157556 0.5
vt 0.61150825 0.37499988
vt 0.625 0.5
vt 0.625 0.4375062
vt 0.61150825 0.37499988
vt 0.625 0.25
vt 0.6157556 0.25
vt 0.61150825 0.37499988
vt 0.625 0.4375062
vt 0.625 0.31249356
vt 0.61150825 0.37499988
vt 0.49999997 0.5
vt 0.61150825 0.5
vt 0.5 0.37499988
vt 0.61150825 0.25
vt 0.5 0.25
vt 0.625 0.31249356
vt 0.625 0.25
vt 0.61150825 0.37499988
vt 0.6157556 0.25
vt 0.61150825 0.25
vt 0.61150825 0.37499988
vt 0.61150825 0.37499988
vt 0.61150825 0.5
vt 0.6157556 0.5
vt 0.625 0.5
vt 0.61150825 0.37499988
vt 0.6157556 0.5
vt 0.625 0.5
vt 0.61150825 0.37499988
vt 0.625 0.4375062
vt 0.625 0.25
vt 0.61150825 0.37499988
vt 0.6157556 0.25
vt 0.625 0.4375062
vt 0.61150825 0.37499988
vt 0.625 0.31249356
vt 0.49999997 0.5
vt 0.61150825 0.5
vt 0.5 0.37499988
vt 0.61150825 0.25
vt 0.5 0.25
vt 0.625 0.31249356
vt 0.61150825 0.37499988
vt 0.625 0.25
vt 0.6157556 0.25
vt 0.61150825 0.37499988
vt 0.61150825 0.25
vt 0.61150825 0.37499988
vt 0.6157556 0.5
vt 0.61150825 0.5
vt 0.625 0.5
vt 0.6157556 0.5
vt 0.61150825 0.37499988
vt 0.625 0.5
vt 0.625 0.4375062
vt 0.61150825 0.37499988
vt 0.625 0.25
vt 0.6157556 0.25
vt 0.61150825 0.37499988
vt 0.625 0.4375062
vt 0.625 0.31249356
vt 0.61150825 0.37499988
vt 0.49999997 0.5
vt 0.61150825 0.5
vt 0.5 0.37499988
vt 0.61150825 0.25
vt 0.5 0.25
vt 0.625 0.31249356
vt 0.625 0.25
vt 0.61150825 0.37499988
vt 0.6157556 0.25
vt 0.61150825 0.25
vt 0.61150825 0.37499988
vt 0.61150825 0.37499988
vt 0.61150825 0.5
vt 0.6157556 0.5
vt 0.625 0.5
vt 0.61150825 0.37499988
vt 0.6157556 0.5
vt 0.625 0.5
vt 0.61150825 0.37499988
vt 0.625 0.4375062
vt 0.625 0.25
vt 0.61150825 0.37499988
vt 0.6157556 0.25
vt 0.625 0.4375062
vt 0.61150825 0.37499988
vt 0.625 0.31249356
vt 0.49999997 0.5
vt 0.61150825 0.5
vt 0.5 0.37499988
vt 0.61150825 0.25
vt 0.5 0.25
vt 0.625 0.31249356
vt 0.61150825 0.37499988
vt 0.625 0.25
vt 0.6157556 0.25
vt 0.61150825 0.37499988
vt 0.61150825 0.25
vt 0.61150825 0.37499988
vt 0.6157556 0.5
vt 0.61150825 0.5
vt 0.625 0.5
vt 0.6157556 0.5
vt 0.61150825 0.37499988
vt 0.625 0.5
vt 0.625 0.4375062
vt 0.61150825 0.37499988
vt 0.625 0.25
vt 0.6157556 0.25
vt 0.61150825 0.37499988
vt 0.625 0.4375062
vt 0.625 0.31249356
vt 0.61150825 0.37499988
vt 0.49999997 0.5
vt 0.61150825 0.5
vt 0.5 0.37499988
vt 0.61150825 0.25
vt 0.5 0.25
vt 0.625 0.31249356
vt 0.625 0.25
vt 0.61150825 0.37499988
vt 0.6157556 0.25
vt 0.61150825 0.25
vt 0.61150825 0.37499988
vt 0.61150825 0.37499988
vt 0.61150825 0.5
vt 0.6157556 0.5
vt 0.625 0.5
vt 0.61150825 0.37499988
vt 0.6157556 0.5
vn 0.9999964 0 -0.002693133
vn 0.91481966 0.0036037902 -0.4038466
vn 0.9149255 -5.6207055E-06 -0.40362263
vn 0.99997425 0.006751769 -0.00244425
vn 0.9999738 0.0068052206 0.0024865258
vn 0.9999964 7.683629E-07 0.002703035
vn 0.91613007 0.000113971524 0.4008811
vn 0.9160543 0.00380974 0.40103614
vn 0.3669344 0.00016802042 -0.93024683
vn 0.36404207 0.0056132977 -0.9313655
vn -2.1052372E-05 0.01708558 -0.9998541
vn 0.0051009892 2.3363295E-06 -0.999987
vn -0.025583075 0.05120498 -0.99836046
vn 0.3680002 0.005551629 0.92980915
vn 0.37069607 0.00022757228 0.92875415
vn 0.0051528094 3.1628858E-06 0.99998677
vn -1.1342747E-05 0.017091168 0.99985397
vn -0.025590986 0.051205035 0.9983602
vn -0.16316031 0.33173513 -0.92915577
vn -0.16575217 0.33174774 -0.92869246
vn 0.17827387 0.3105526 -0.9336893
vn -0.16579667 0.3317428 0.9286863
vn -0.16311704 0.331731 0.92916495
vn 0.19096753 0.30917722 0.9316334
vn -0.40817374 0.8201597 0.40091425
vn -0.409657 0.81945384 0.40084466
vn -0.44721273 0.8944262 0.0015801336
vn -0.444534 0.8957585 0.0024818366
vn -0.44721276 0.8944262 -0.001580532
vn 0.03861065 0.9992526 0.0018505334
vn -0.0076150196 0.9234841 0.3835612
vn 0.038535506 0.9992556 -0.0018002248
vn -0.4445108 0.8957701 -0.0024815705
vn -0.40966752 0.81945497 -0.40083188
vn -0.40823734 0.8201344 -0.40090132
vn -0.022854649 0.92221165 -0.3860093
vn 0.870495 0.4921742 -0.0016886309
vn 0.819884 0.41641235 -0.3929261
vn 0.8705315 0.4921088 0.001913261
vn 0.8293845 0.40616533 0.38360292
vn -0.4491396 0.8934616 0
vn -0.4491396 0.8934616 0
vn -0.4491396 0.8934616 0
vn -0.44912162 0.89347064 -1.3183865E-05
vn -0.44912168 0.89347064 -1.3183868E-05
vn -0.44912162 0.89347064 -1.3183867E-05
vn -0.44909626 0.89348334 2.854087E-06
vn -0.44909632 0.89348334 2.854087E-06
vn -0.44909626 0.89348334 2.854087E-06
vn -0.44911355 0.8934747 0
vn -0.44911334 0.8934748 0
vn -0.44911197 0.8934755 0
vn -0.44911212 0.89347535 0
vn -0.44911197 0.8934755 0
vn -0.44913602 0.8934634 9.005053E-06
vn -0.44913608 0.8934634 9.005053E-06
vn -0.44913608 0.8934634 9.005054E-06
vn -0.4490988 0.89348215 1.1417572E-05
vn -0.4490988 0.89348215 1.1417574E-05
vn -0.4490988 0.89348215 1.1417572E-05
vn -0.44911695 0.8934729 -1.1417456E-05
vn -0.44911706 0.8934729 -1.1417456E-05
vn -0.44911695 0.8934729 -1.1417455E-05
vn -0.44912556 0.8934686 8.239988E-06
vn -0.44912562 0.8934686 8.239989E-06
vn -0.44912562 0.8934686 8.239989E-06
vn -0.4491396 0.8934616 0
vn -0.4491396 0.8934616 0
vn -0.4491396 0.8934616 0
vn -0.44910982 0.8934766 9.887931E-06
vn -0.44910976 0.8934766 9.887929E-06
vn -0.44910976 0.8934766 9.887928E-06
vn -0.4491055 0.8934788 0
vn -0.44910544 0.8934788 0
vn -0.4491055 0.8934788 0
vn -0.44911355 0.8934747 0
vn -0.44911373 0.89347464 0
vn -0.44911197 0.8934755 0
vn -0.44911182 0.8934756 0
vn -0.44911197 0.8934755 0
vn -0.4491369 0.8934629 -4.5025354E-06
vn -0.4491369 0.8934629 -4.502535E-06
vn -0.4491369 0.8934629 -4.5025354E-06
vn -0.4491033 0.8934798 -8.563156E-06
vn -0.4491033 0.8934798 -8.563156E-06
vn -0.4491033 0.8934798 -8.563156E-06
vn -0.4490988 0.89348215 0
vn -0.4490988 0.89348215 0
vn -0.4490988 0.89348215 0
vn -0.44912425 0.8934693 -6.5919726E-06
vn -0.4491242 0.8934693 -6.5919717E-06
vn -0.4491242 0.8934693 -6.5919717E-06
vn -0.4491433 0.8934598 0
vn -0.4491433 0.8934598 0
vn -0.44914326 0.8934597 0
vn -0.44912162 0.89347064 0
vn -0.44912162 0.89347064 0
vn -0.44912156 0.89347064 0
vn -0.44909626 0.89348334 2.854087E-06
vn -0.44909632 0.89348334 2.854087E-06
vn -0.44909626 0.89348334 2.854087E-06
vn -0.44911322 0.8934749 0
vn -0.44911334 0.8934748 0
vn -0.44911197 0.8934755 0
vn -0.44911212 0.89347535 0
vn -0.44911197 0.8934755 0
vn -0.44913602 0.8934634 -4.5025263E-06
vn -0.44913608 0.8934634 -4.5025263E-06
vn -0.44913608 0.8934634 -4.502527E-06
vn -0.4490988 0.89348215 0
vn -0.4490988 0.89348215 0
vn -0.4490988 0.89348215 0
vn -0.4490988 0.89348215 5.708786E-06
vn -0.44909877 0.89348215 5.7087864E-06
vn -0.4490988 0.89348215 5.7087864E-06
vn -0.44911772 0.8934726 3.2959863E-06
vn -0.44911772 0.8934726 3.2959865E-06
vn -0.4491176 0.8934726 3.2959858E-06
vn -0.4491424 0.89346015 0
vn -0.4491424 0.89346015 0
vn -0.4491424 0.89346015 0
vn -0.44910848 0.89347726 1.6479833E-06
vn -0.44910845 0.89347726 1.6479835E-06
vn -0.4491084 0.89347726 1.6479833E-06
vn -0.4491055 0.8934788 -2.8540726E-06
vn -0.44910544 0.8934788 -2.8540726E-06
vn -0.4491055 0.8934788 -2.8540726E-06
vn -0.44911322 0.8934749 0
vn -0.44911298 0.8934749 0
vn -0.44911197 0.8934755 0
vn -0.44911182 0.8934756 0
vn -0.44911197 0.8934755 0
vn -0.44913876 0.89346206 4.502554E-06
vn -0.44913876 0.89346206 4.502554E-06
vn -0.44913873 0.89346206 4.5025536E-06
vn -0.4491033 0.8934798 -2.140789E-06
vn -0.4491033 0.8934798 -2.140789E-06
vn -0.4491033 0.8934798 -2.140789E-06
vn -0.4490988 0.89348215 0
vn -0.4490988 0.89348215 0
vn -0.4490988 0.89348215 0
vn -0.44912162 0.89347064 -6.5919335E-06
vn -0.44912168 0.89347064 -6.5919335E-06
vn -0.44912162 0.89347064 -6.5919326E-06
vn -0.44913608 0.8934634 9.0050535E-06
vn -0.44913602 0.8934634 9.005052E-06
vn -0.44913608 0.8934634 9.0050535E-06
vn -0.44911635 0.89347327 0
vn -0.44911623 0.89347327 0
vn -0.44911635 0.89347327 0
vn -0.44909626 0.89348334 0
vn -0.44909632 0.89348334 0
vn -0.44909626 0.89348334 0
vn -0.4491144 0.8934742 0
vn -0.44911462 0.89347416 0
vn -0.44911197 0.8934755 0
vn -0.44911212 0.89347535 0
vn -0.44911197 0.8934755 0
vn -0.44914326 0.8934597 4.5025986E-06
vn -0.4491433 0.8934598 4.5025995E-06
vn -0.44914326 0.8934597 4.5025995E-06
vn -0.4490988 0.89348215 0
vn -0.4490988 0.89348215 0
vn -0.4490988 0.89348215 0
vn -0.4490988 0.89348215 0
vn -0.44909877 0.89348215 0
vn -0.4490988 0.89348215 0
vn -0.44912162 0.89347064 0
vn -0.44912162 0.89347064 0
vn -0.44912168 0.89347064 0
vn -0.44913876 0.89346206 -4.5025536E-06
vn -0.44913876 0.89346206 -4.502554E-06
vn -0.44913876 0.89346206 -4.502554E-06
vn -0.44910577 0.89347863 0
vn -0.44910577 0.89347863 0
vn -0.44910583 0.89347863 0
vn -0.4491055 0.8934788 0
vn -0.44910544 0.8934788 0
vn -0.4491055 0.8934788 0
vn -0.4491144 0.8934742 0
vn -0.44911426 0.89347434 0
vn -0.44911197 0.8934755 0
vn -0.44911182 0.8934756 0
vn -0.44911197 0.8934755 0
vn -0.44914144 0.8934607 -2.2512904E-06
vn -0.44914147 0.89346063 -2.2512907E-06
vn -0.44914144 0.8934607 -2.2512904E-06
vn -0.4491033 0.8934798 -1.7839908E-06
vn -0.4491033 0.8934798 -1.7839909E-06
vn -0.4491033 0.8934798 -1.7839909E-06
vn -0.4490988 0.89348215 0
vn -0.4490988 0.89348215 0
vn -0.4490988 0.89348215 0
vn -0.44912687 0.89346796 0
vn -0.44912687 0.89346796 0
vn -0.44912687 0.893468 0
g ENV_ramp10_Col_0
f 3/3/3 2/2/2 1/1/1
f 2/2/2 4/4/4 1/1/1
f 1/1/1 4/4/4 5/5/5
f 6/6/6 1/1/1 5/5/5
f 7/7/7 6/6/6 5/5/5
f 8/8/8 7/7/7 5/5/5
f 11/11/11 10/10/10 9/9/9
f 12/12/12 11/11/11 9/9/9
f 12/12/12 13/13/13 11/11/11
f 16/16/16 15/15/15 14/14/14
f 17/17/17 16/16/16 14/14/14
f 17/17/17 18/18/18 16/16/16
g ENV_ramp10_Col_1
f 13/13/13 20/20/20 19/19/19
f 11/11/11 13/13/13 19/19/19
f 11/11/11 19/19/19 10/10/10
f 19/19/19 21/21/21 10/10/10
f 22/22/22 18/18/18 17/17/17
f 23/23/23 22/22/22 17/17/17
f 17/17/17 14/14/14 23/23/23
f 14/14/14 24/24/24 23/23/23
f 27/27/27 26/26/26 25/25/25
f 28/28/28 27/27/27 25/25/25
f 29/29/29 27/27/27 28/28/28
f 28/28/28 25/25/25 30/30/30
f 25/25/25 31/31/31 30/30/30
f 28/28/28 30/30/30 32/32/32
f 33/33/33 29/29/29 28/28/28
f 33/33/33 28/28/28 32/32/32
f 34/34/34 29/29/29 33/33/33
f 35/35/35 34/34/34 33/33/33
f 33/33/33 32/32/32 35/35/35
f 32/32/32 36/36/36 35/35/35
f 2/2/2 38/38/38 37/37/37
f 4/4/4 2/2/2 37/37/37
f 37/37/37 39/39/39 4/4/4
f 39/39/39 5/5/5 4/4/4
f 5/5/5 39/39/39 8/8/8
f 39/39/39 40/40/40 8/8/8
g ENV_ramp10_Col_2
f 43/43/43 42/42/42 41/41/41
f 46/46/46 45/45/45 44/44/44
f 49/49/49 48/48/48 47/47/47
f 51/51/51 48/48/48 50/50/50
f 48/48/48 52/52/52 50/50/50
f 52/52/52 48/48/48 53/53/53
f 54/54/54 52/52/52 53/53/53
f 57/57/57 56/56/56 55/55/55
f 60/60/60 59/59/59 58/58/58
f 63/63/63 62/62/62 61/61/61
f 66/66/66 65/65/65 64/64/64
f 69/69/69 68/68/68 67/67/67
f 72/72/72 71/71/71 70/70/70
f 75/75/75 74/74/74 73/73/73
f 75/75/75 77/77/77 76/76/76
f 78/78/78 75/75/75 76/76/76
f 75/75/75 78/78/78 79/79/79
f 78/78/78 80/80/80 79/79/79
f 83/83/83 82/82/82 81/81/81
f 86/86/86 85/85/85 84/84/84
f 89/89/89 88/88/88 87/87/87
f 92/92/92 91/91/91 90/90/90
f 95/95/95 94/94/94 93/93/93
f 98/98/98 97/97/97 96/96/96
f 101/101/101 100/100/100 99/99/99
f 103/103/103 100/100/100 102/102/102
f 100/100/100 104/104/104 102/102/102
f 104/104/104 100/100/100 105/105/105
f 106/106/106 104/104/104 105/105/105
f 109/109/109 108/108/108 107/107/107
f 112/112/112 111/111/111 110/110/110
f 115/115/115 114/114/114 113/113/113
f 118/118/118 117/117/117 116/116/116
f 121/121/121 120/120/120 119/119/119
f 124/124/124 123/123/123 122/122/122
f 127/127/127 126/126/126 125/125/125
f 127/127/127 129/129/129 128/128/128
f 130/130/130 127/127/127 128/128/128
f 127/127/127 130/130/130 131/131/131
f 130/130/130 132/132/132 131/131/131
f 135/135/135 134/134/134 133/133/133
f 138/138/138 137/137/137 136/136/136
f 141/141/141 140/140/140 139/139/139
f 144/144/144 143/143/143 142/142/142
f 147/147/147 146/146/146 145/145/145
f 150/150/150 149/149/149 148/148/148
f 153/153/153 152/152/152 151/151/151
f 155/155/155 152/152/152 154/154/154
f 152/152/152 156/156/156 154/154/154
f 156/156/156 152/152/152 157/157/157
f 158/158/158 156/156/156 157/157/157
f 161/161/161 160/160/160 159/159/159
f 164/164/164 163/163/163 162/162/162
f 167/167/167 166/166/166 165/165/165
f 170/170/170 169/169/169 168/168/168
f 173/173/173 172/172/172 171/171/171
f 176/176/176 175/175/175 174/174/174
f 179/179/179 178/178/178 177/177/177
f 179/179/179 181/181/181 180/180/180
f 182/182/182 179/179/179 180/180/180
f 179/179/179 182/182/182 183/183/183
f 182/182/182 184/184/184 183/183/183
f 187/187/187 186/186/186 185/185/185
f 190/190/190 189/189/189 188/188/188
f 193/193/193 192/192/192 191/191/191
f 196/196/196 195/195/195 194/194/194
