g ENV_S09_BRB_StartLineSection_SideLedge_MO
v 9.686074 -1 19.148212
v 9.686074 -1 0.06999511
v 9.616082 -0.9300067 0.06999511
v 9.616082 -0.9300067 19.148212
v 9.686074 -0.9300067 19.218208
v 9.686074 -0.06999329 19.218208
v 9.616082 -0.06999329 19.148212
v 9.616082 -0.06999329 0.06999511
v 9.686074 0 19.148212
v 9.686074 0 0.06999511
v 11.016144 0 19.148212
v 11.016144 0 0.06999511
v 11.316112 -0.0803772 0.06999511
v 11.316112 -0.0803772 19.148212
v 11.5357065 -0.2999707 0.06999511
v 11.5357065 -0.2999707 19.148212
v 11.616082 -0.5999402 0.06999511
v 11.616082 -0.5999402 19.148212
v 11.616082 -0.9300067 19.148212
v 11.616082 -0.9300067 0.06999511
v 11.54609 -1 0.06999511
v 11.54609 -1 19.148212
v 9.686074 -1 0.06999511
v 11.54609 -0.9300067 -4.5474734E-15
v 9.686074 -0.9300067 -4.5474734E-15
v 9.616082 -0.9300067 0.06999511
v 9.686074 -1 19.148212
v 11.616082 -0.9300067 0.06999511
v 9.616082 -0.06999329 0.06999511
v 9.686074 -0.9300067 19.218208
v 11.54609 -0.60915464 -4.5474734E-15
v 11.616082 -0.5999402 0.06999511
v 11.472953 -0.3362018 -4.5474734E-15
v 11.5357065 -0.2999707 0.06999511
v 11.2798815 -0.1431311 -4.5474734E-15
v 11.316112 -0.0803772 0.06999511
v 11.006929 -0.06999329 -4.5474734E-15
v 11.016144 0 0.06999511
v 9.686074 -0.06999329 -4.5474734E-15
v 9.686074 0 0.06999511
v 11.54609 -0.9300067 19.218208
v 11.616082 -0.9300067 19.148212
v 11.616082 -0.5999402 19.148212
v 11.54609 -0.60915464 19.218208
v 11.5357065 -0.2999707 19.148212
v 11.472953 -0.3362018 19.218208
v 11.316112 -0.0803772 19.148212
v 11.2798815 -0.1431311 19.218208
v 11.016144 0 19.148212
v 11.006929 -0.06999329 19.218208
v 9.686074 -0.06999329 19.218208
v 9.686074 0 19.148212
vt 0.988184 0.98366755
vt 0.9751418 0.9835938
vt 0.9751413 0.98366153
vt 0.98817635 0.9837347
vt 0.9882436 0.98372734
vt 0.9882394 0.9843303
vt 0.9881736 0.98432225
vt 0.9751372 0.98424995
vt 0.9881803 0.98438954
vt 0.9751368 0.9843176
vt 0.98817533 0.9852989
vt 0.9751319 0.985227
vt 0.97513074 0.9854393
vt 0.9881742 0.9855112
vt 0.9751296 0.9856516
vt 0.98817307 0.9857235
vt 0.9751285 0.9858639
vt 0.9881719 0.9859358
vt 0.9881707 0.9861615
vt 0.9751272 0.9860896
vt 0.97512686 0.9861573
vt 0.9881703 0.9862291
vt 0.97512084 0.9874288
vt 0.975059 0.9861641
vt 0.9750547 0.98742115
vt 0.9750637 0.98748827
vt 0.98816466 0.9875009
vt 0.97507095 0.98609877
vt 0.97447175 0.98750126
vt 0.9882334 0.98750126
vt 0.9748378 0.986155
vt 0.9748315 0.9860871
vt 0.9746492 0.98620546
vt 0.9746149 0.98614633
vt 0.9745159 0.986339
vt 0.9744564 0.9863039
vt 0.97446483 0.9865263
vt 0.97439706 0.98651934
vt 0.97447795 0.9874352
vt 0.97441137 0.9874451
vt 0.9882364 0.9862361
vt 0.9882246 0.9861707
vt 0.9884595 0.9861593
vt 0.98845327 0.9862273
vt 0.9886727 0.9862167
vt 0.9886382 0.9862766
vt 0.98882836 0.98637104
vt 0.9887698 0.98640645
vt 0.98888826 0.9865811
vt 0.9888208 0.98659086
vt 0.988826 0.98749375
vt 0.98889387 0.98749256
vn -0.036156747 -0.99933976 0.0035649436
vn -0.036156755 -0.99933976 -0.0035649436
vn -0.9971865 -0.0748803 -0.0034627782
vn -0.9971865 -0.0748803 0.0034627782
vn -0 0 1
vn -0 0 1
vn -0.9971865 0.0748803 0.0034627765
vn -0.9971865 0.0748803 -0.0034627765
vn -0.04981567 0.99875224 0.0035175693
vn -0.04981568 0.99875224 -0.0035175693
vn 0.04924417 0.9987809 0.0034191424
vn 0.049244184 0.9987809 -0.003419142
vn 0.4999923 0.8660241 -0.0031593614
vn 0.4999923 0.8660241 0.0031593689
vn 0.866024 0.49999243 -0.0031593614
vn 0.866024 0.49999243 0.0031593598
vn 0.9919556 0.12654188 -0.0033693323
vn 0.9919556 0.12654187 0.0033692978
vn 0.98509026 -0.17200942 0.003140788
vn 0.98509026 -0.17200942 -0.0031408335
vn 0.036156755 -0.99933976 -0.0035649436
vn 0.036156747 -0.99933976 0.0035649436
vn -0.036156755 -0.99933976 -0.0035649436
vn -0 0 -1
vn -0 0 -1
vn -0.9971865 -0.0748803 -0.0034627782
vn -0.036156747 -0.99933976 0.0035649436
vn 0.98509026 -0.17200942 -0.0031408335
vn -0.9971865 0.0748803 -0.0034627765
vn -0 0 1
vn -0 0 -1
vn 0.9919556 0.12654188 -0.0033693323
vn -0 0 -1
vn 0.866024 0.49999243 -0.0031593614
vn -0 0 -1
vn 0.4999923 0.8660241 -0.0031593614
vn -0 0 -1
vn 0.049244184 0.9987809 -0.003419142
vn -0 0 -1
vn -0.04981568 0.99875224 -0.0035175693
vn -0 0 1
vn 0.98509026 -0.17200942 0.003140788
vn 0.9919556 0.12654187 0.0033692978
vn -0 0 1
vn 0.866024 0.49999243 0.0031593598
vn -0 0 1
vn 0.4999923 0.8660241 0.0031593689
vn -0 0 1
vn 0.04924417 0.9987809 0.0034191424
vn -0 0 1
vn -0 0 1
vn -0.04981567 0.99875224 0.0035175693
g ENV_S09_BRB_StartLineSection_SideLedge_MO_0
f 3/3/3 2/2/2 1/1/1
f 4/4/4 3/3/3 1/1/1
f 1/1/1 5/5/5 4/4/4
f 5/5/5 6/6/6 4/4/4
f 4/4/4 7/7/7 3/3/3
f 6/6/6 7/7/7 4/4/4
f 7/7/7 8/8/8 3/3/3
f 7/7/7 6/6/6 9/9/9
f 10/10/10 8/8/8 7/7/7
f 9/9/9 10/10/10 7/7/7
f 9/9/9 11/11/11 10/10/10
f 11/11/11 12/12/12 10/10/10
f 13/13/13 12/12/12 11/11/11
f 14/14/14 13/13/13 11/11/11
f 15/15/15 13/13/13 14/14/14
f 16/16/16 15/15/15 14/14/14
f 17/17/17 15/15/15 16/16/16
f 18/18/18 17/17/17 16/16/16
f 17/17/17 18/18/18 19/19/19
f 20/20/20 17/17/17 19/19/19
f 21/21/21 20/20/20 19/19/19
f 22/22/22 21/21/21 19/19/19
f 21/21/21 22/22/22 23/23/23
f 21/21/21 23/23/23 24/24/24
f 23/23/23 25/25/25 24/24/24
f 26/26/26 25/25/25 23/23/23
f 22/22/22 27/27/27 23/23/23
f 21/21/21 24/24/24 28/28/28
f 26/26/26 29/29/29 25/25/25
f 30/30/30 27/27/27 22/22/22
f 24/24/24 31/31/31 28/28/28
f 25/25/25 31/31/31 24/24/24
f 31/31/31 32/32/32 28/28/28
f 31/31/31 33/33/33 32/32/32
f 25/25/25 33/33/33 31/31/31
f 33/33/33 34/34/34 32/32/32
f 34/34/34 33/33/33 35/35/35
f 25/25/25 35/35/35 33/33/33
f 36/36/36 34/34/34 35/35/35
f 36/36/36 35/35/35 37/37/37
f 25/25/25 37/37/37 35/35/35
f 38/38/38 36/36/36 37/37/37
f 29/29/29 39/39/39 25/25/25
f 39/39/39 37/37/37 25/25/25
f 38/38/38 37/37/37 39/39/39
f 29/29/29 40/40/40 39/39/39
f 40/40/40 38/38/38 39/39/39
f 41/41/41 30/30/30 22/22/22
f 22/22/22 42/42/42 41/41/41
f 42/42/42 43/43/43 41/41/41
f 43/43/43 44/44/44 41/41/41
f 30/30/30 41/41/41 44/44/44
f 43/43/43 45/45/45 44/44/44
f 45/45/45 46/46/46 44/44/44
f 30/30/30 44/44/44 46/46/46
f 46/46/46 45/45/45 47/47/47
f 48/48/48 46/46/46 47/47/47
f 48/48/48 30/30/30 46/46/46
f 48/48/48 47/47/47 49/49/49
f 48/48/48 50/50/50 30/30/30
f 50/50/50 48/48/48 49/49/49
f 50/50/50 51/51/51 30/30/30
f 50/50/50 49/49/49 52/52/52
f 51/51/51 50/50/50 52/52/52
