g ENV_S05_DT_Section05_Block_Mid02_MO
v -29.764748 7.9579067 22.523193
v -29.728899 7.798276 22.487347
v -29.764748 7.762427 22.327715
v -29.845577 7.9579067 22.327715
v -29.764748 18.799606 22.523193
v -29.845577 7.9579067 13.873036
v -29.764748 7.762427 13.873036
v -29.845577 18.799606 22.327715
v -29.764748 7.9579067 13.677557
v -29.728899 7.798276 13.713406
v -29.845577 18.799606 13.873036
v -29.764748 18.799606 13.677557
v -29.764748 18.994747 13.873036
v -29.728899 18.958897 13.713406
v -29.764748 18.994747 22.327715
v -29.728899 18.958897 22.487347
v -29.569267 18.994747 13.677557
v -29.764748 18.799606 13.677557
v -29.569267 19.075577 13.873036
v -29.569267 18.994747 22.523193
v -29.764748 18.799606 22.523193
v -29.569267 19.075577 22.327715
v -22.71022 19.075577 13.873036
v -29.569267 18.799606 22.604025
v -29.764748 7.9579067 22.523193
v -29.569267 18.799606 13.596726
v -22.71022 18.994747 13.677557
v -29.569267 7.9579067 13.596726
v -29.764748 7.9579067 13.677557
v -29.569267 7.762427 13.677557
v -29.728899 7.798276 13.713406
v -22.71022 7.9579067 13.596726
v -22.71022 7.762427 13.677557
v -22.71022 18.799606 13.596726
v -22.51474 7.9579067 13.677557
v -22.550589 7.798276 13.713406
v -22.51474 18.799606 13.677557
v -22.550589 18.958897 13.713406
v -22.51474 18.994747 13.873036
v -22.51474 18.799606 13.677557
v -22.71022 19.075577 22.327715
v -22.71022 18.994747 22.523193
v -22.51474 18.994747 22.327715
v -22.43391 18.799606 13.873036
v -22.71022 18.799606 22.604025
v -22.43391 7.9579067 13.873036
v -22.51474 7.9579067 13.677557
v -22.51474 7.762427 13.873036
v -22.550589 7.798276 13.713406
v -22.43391 7.9579067 22.327715
v -22.51474 7.762427 22.327715
v -22.43391 18.799606 22.327715
v -22.51474 7.9579067 22.523193
v -22.550589 7.798276 22.487347
v -22.51474 18.799606 22.523193
v -22.550589 18.958897 22.487347
v -22.51474 18.799606 22.523193
v -22.71022 7.9579067 22.604025
v -22.51474 7.9579067 22.523193
v -29.569267 7.9579067 22.604025
v -22.71022 7.762427 22.523193
v -22.550589 7.798276 22.487347
v -22.51474 7.762427 22.327715
v -29.569267 7.762427 22.523193
v -29.728899 7.798276 22.487347
v -29.764748 7.762427 22.327715
v -22.71022 7.6815968 22.327715
v -29.569267 7.6815968 22.327715
v -29.764748 7.762427 13.873036
v -22.71022 7.6815968 13.873036
v -22.51474 7.762427 13.873036
v -29.569267 7.6815968 13.873036
v -22.71022 7.762427 13.677557
v -22.550589 7.798276 13.713406
v -29.569267 7.762427 13.677557
v -29.728899 7.798276 13.713406
vt 2.0580137 0.24018693
vt 2.0763757 0.23859024
vt 2.0795689 0.23300183
vt 2.0572155 0.23140514
vt 0.8421376 0.2306068
vt 2.0580137 0.12841892
vt 2.0803673 0.12762058
vt 0.84373426 0.22182512
vt 2.0588121 0.11963713
vt 2.077174 0.122032166
vt 0.8445325 0.11883879
vt 0.8429358 0.110057116
vt 0.8229773 0.11883879
vt 0.82217884 0.113250375
vt 0.82217884 0.22102678
vt 0.8213806 0.22661507
vt 0.8030187 0.110057116
vt 0.8261707 0.092493534
vt 0.80222034 0.11883879
vt 0.8030187 0.2290101
vt 0.8253722 0.24737203
vt 0.801422 0.22022843
vt 0.0900985 0.10766208
vt 0.8046154 0.24976707
vt 0.8213806 1.4592566
vt 0.8054137 0.0900985
vt 0.089300156 0.09888029
vt 0.81659055 -1.1345595
vt 0.8373475 -1.1337612
vt 0.81659055 -1.1553165
vt 0.8341541 -1.1505264
vt 0.08530843 -1.1265761
vt 0.08530843 -1.147333
vt 0.08690512 0.07812333
vt 0.06534982 -1.1265761
vt 0.068543196 -1.1433413
vt 0.06614816 0.080518365
vt 0.070139885 0.10207367
vt 0.06934154 0.10766208
vt 0.049383044 0.09808195
vt 0.089300156 0.20984995
vt 0.08770347 0.2178334
vt 0.068543196 0.20984995
vt 0.047786355 0.10686374
vt 0.08530843 0.23859024
vt -1.1664932 0.10047698
vt -1.1664932 0.09169519
vt -1.1880485 0.09888029
vt -1.1848551 0.09329188
vt -1.1664932 0.2034632
vt -1.1888468 0.20505989
vt 0.04698801 0.20984995
vt -1.1672915 0.21224499
vt -1.1856534 0.20984995
vt 0.0485847 0.21863174
vt 0.06934154 0.21543837
vt 0.06534982 0.2361952
vt 0.07333326 1.4592566
vt 0.052576423 1.4592566
vt 0.80062366 1.4592566
vt 0.07413161 1.4800134
vt 0.056568027 1.4784167
vt 0.053374767 1.4840052
vt 0.7998253 1.4800134
vt 0.8173888 1.4784167
vt 0.8213806 1.4848034
vt 0.07492995 1.4887953
vt 0.79902697 1.4887953
vt 0.8229773 1.5917814
vt 0.071736574 1.5909832
vt 0.049383044 1.5917814
vt 0.801422 1.5909832
vt 0.07093823 1.5997648
vt 0.051778078 1.5973699
vt 0.80222034 1.5997648
vt 0.82058215 1.5965714
vn -0.7097546 -0.0039212704 0.7044381
vn -0.57643056 -0.57643044 0.5791854
vn -0.7071068 -0.7071067 -0
vn -0.9999305 -0.0039212704 0.0111185275
vn -0.7097546 0.0039212704 0.7044381
vn -0.9999305 -0.0039212704 -0.0111185275
vn -0.7071068 -0.7071067 -0
vn -0.9999305 0.0039212704 0.0111185275
vn -0.7097546 -0.0039212704 -0.7044381
vn -0.57643056 -0.57643044 -0.5791854
vn -0.9999305 0.0039212704 -0.0111185275
vn -0.7097546 0.0039212704 -0.7044381
vn -0.7071067 0.7071067 -0
vn -0.57643056 0.57643056 -0.5791853
vn -0.7071067 0.7071067 -0
vn -0.57643056 0.57643056 0.5791853
vn -0.0039212704 0.7097546 -0.7044381
vn -0.7097546 0.0039212704 -0.7044381
vn -0.01176393 0.9999305 -0.00077204045
vn -0.0039212704 0.7097546 0.7044381
vn -0.7097546 0.0039212704 0.7044381
vn -0.01176393 0.9999305 0.00077204045
vn 0.011763871 0.9999305 -0.00077204045
vn -0.01176393 0.0039212704 0.9999231
vn -0.7097546 -0.0039212704 0.7044381
vn -0.01176393 0.0039212704 -0.9999231
vn 0.0039212704 0.7097546 -0.7044381
vn -0.01176393 -0.0039212704 -0.9999231
vn -0.7097546 -0.0039212704 -0.7044381
vn -0.0039212704 -0.70975447 -0.7044382
vn -0.57643056 -0.57643044 -0.5791854
vn 0.011763871 -0.0039212704 -0.9999231
vn 0.0039212704 -0.70975447 -0.7044382
vn 0.011763871 0.0039212704 -0.9999231
vn 0.70975447 -0.0039212704 -0.7044382
vn 0.57643044 -0.57643044 -0.57918555
vn 0.70975447 0.0039212704 -0.7044382
vn 0.57643044 0.57643056 -0.5791854
vn 0.7071067 0.7071068 -0
vn 0.70975447 0.0039212704 -0.7044382
vn 0.011763871 0.9999305 0.00077204045
vn 0.0039212704 0.7097546 0.7044381
vn 0.7071067 0.7071068 -0
vn 0.9999304 0.0039212704 -0.011129244
vn 0.011763871 0.0039212704 0.9999231
vn 0.9999304 -0.0039212704 -0.011129244
vn 0.70975447 -0.0039212704 -0.7044382
vn 0.70710677 -0.70710677 -0
vn 0.57643044 -0.57643044 -0.57918555
vn 0.9999304 -0.0039212704 0.011129244
vn 0.70710677 -0.70710677 -0
vn 0.9999304 0.0039212704 0.011129244
vn 0.70975447 -0.0039212704 0.7044382
vn 0.57643044 -0.57643044 0.57918555
vn 0.70975447 0.0039212704 0.7044382
vn 0.57643044 0.57643056 0.5791854
vn 0.70975447 0.0039212704 0.7044382
vn 0.011763871 -0.0039212704 0.9999231
vn 0.70975447 -0.0039212704 0.7044382
vn -0.01176393 -0.0039212704 0.9999231
vn 0.0039212704 -0.70975447 0.7044382
vn 0.57643044 -0.57643044 0.57918555
vn 0.70710677 -0.70710677 -0
vn -0.0039212704 -0.70975447 0.7044382
vn -0.57643056 -0.57643044 0.5791854
vn -0.7071068 -0.7071067 -0
vn 0.011763871 -0.9999304 0.0009134906
vn -0.01176393 -0.9999304 0.0009134906
vn -0.7071068 -0.7071067 -0
vn 0.011763871 -0.9999304 -0.0009134906
vn 0.70710677 -0.70710677 -0
vn -0.01176393 -0.9999304 -0.0009134906
vn 0.0039212704 -0.70975447 -0.7044382
vn 0.57643044 -0.57643044 -0.57918555
vn -0.0039212704 -0.70975447 -0.7044382
vn -0.57643056 -0.57643044 -0.5791854
g ENV_S05_DT_Section05_Block_Mid02_MO_0
f 3/3/3 2/2/2 1/1/1
f 4/4/4 3/3/3 1/1/1
f 1/1/1 5/5/5 4/4/4
f 4/4/4 6/6/6 3/3/3
f 6/6/6 7/7/7 3/3/3
f 5/5/5 8/8/8 4/4/4
f 4/4/4 8/8/8 6/6/6
f 6/6/6 9/9/9 7/7/7
f 9/9/9 10/10/10 7/7/7
f 9/9/9 6/6/6 11/11/11
f 8/8/8 11/11/11 6/6/6
f 12/12/12 9/9/9 11/11/11
f 11/11/11 13/13/13 12/12/12
f 13/13/13 11/11/11 8/8/8
f 13/13/13 14/14/14 12/12/12
f 8/8/8 5/5/5 15/15/15
f 15/15/15 13/13/13 8/8/8
f 5/5/5 16/16/16 15/15/15
f 17/17/17 14/14/14 13/13/13
f 18/18/18 14/14/14 17/17/17
f 19/19/19 13/13/13 15/15/15
f 19/19/19 17/17/17 13/13/13
f 15/15/15 16/16/16 20/20/20
f 20/20/20 16/16/16 21/21/21
f 22/22/22 19/19/19 15/15/15
f 22/22/22 15/15/15 20/20/20
f 19/19/19 23/23/23 17/17/17
f 23/23/23 19/19/19 22/22/22
f 24/24/24 20/20/20 21/21/21
f 24/24/24 21/21/21 25/25/25
f 26/26/26 18/18/18 17/17/17
f 23/23/23 27/27/27 17/17/17
f 17/17/17 27/27/27 26/26/26
f 26/26/26 28/28/28 18/18/18
f 28/28/28 29/29/29 18/18/18
f 28/28/28 30/30/30 29/29/29
f 30/30/30 31/31/31 29/29/29
f 28/28/28 32/32/32 30/30/30
f 32/32/32 28/28/28 26/26/26
f 32/32/32 33/33/33 30/30/30
f 34/34/34 32/32/32 26/26/26
f 27/27/27 34/34/34 26/26/26
f 32/32/32 35/35/35 33/33/33
f 35/35/35 32/32/32 34/34/34
f 35/35/35 36/36/36 33/33/33
f 37/37/37 35/35/35 34/34/34
f 34/34/34 27/27/27 37/37/37
f 27/27/27 38/38/38 37/37/37
f 39/39/39 38/38/38 27/27/27
f 23/23/23 39/39/39 27/27/27
f 40/40/40 38/38/38 39/39/39
f 39/39/39 23/23/23 41/41/41
f 41/41/41 23/23/23 22/22/22
f 42/42/42 41/41/41 22/22/22
f 20/20/20 42/42/42 22/22/22
f 43/43/43 39/39/39 41/41/41
f 41/41/41 42/42/42 43/43/43
f 44/44/44 40/40/40 39/39/39
f 44/44/44 39/39/39 43/43/43
f 45/45/45 42/42/42 20/20/20
f 24/24/24 45/45/45 20/20/20
f 44/44/44 46/46/46 40/40/40
f 46/46/46 47/47/47 40/40/40
f 46/46/46 48/48/48 47/47/47
f 48/48/48 49/49/49 47/47/47
f 48/48/48 46/46/46 50/50/50
f 46/46/46 44/44/44 50/50/50
f 51/51/51 48/48/48 50/50/50
f 44/44/44 52/52/52 50/50/50
f 52/52/52 44/44/44 43/43/43
f 50/50/50 53/53/53 51/51/51
f 50/50/50 52/52/52 53/53/53
f 53/53/53 54/54/54 51/51/51
f 52/52/52 55/55/55 53/53/53
f 52/52/52 43/43/43 55/55/55
f 43/43/43 56/56/56 55/55/55
f 42/42/42 56/56/56 43/43/43
f 57/57/57 56/56/56 42/42/42
f 45/45/45 57/57/57 42/42/42
f 57/57/57 45/45/45 58/58/58
f 59/59/59 57/57/57 58/58/58
f 58/58/58 45/45/45 60/60/60
f 45/45/45 24/24/24 60/60/60
f 60/60/60 24/24/24 25/25/25
f 58/58/58 61/61/61 59/59/59
f 61/61/61 58/58/58 60/60/60
f 61/61/61 62/62/62 59/59/59
f 63/63/63 62/62/62 61/61/61
f 60/60/60 25/25/25 64/64/64
f 64/64/64 61/61/61 60/60/60
f 25/25/25 65/65/65 64/64/64
f 64/64/64 65/65/65 66/66/66
f 67/67/67 63/63/63 61/61/61
f 67/67/67 61/61/61 64/64/64
f 68/68/68 64/64/64 66/66/66
f 68/68/68 67/67/67 64/64/64
f 66/66/66 69/69/69 68/68/68
f 67/67/67 70/70/70 63/63/63
f 70/70/70 71/71/71 63/63/63
f 67/67/67 68/68/68 72/72/72
f 69/69/69 72/72/72 68/68/68
f 70/70/70 67/67/67 72/72/72
f 70/70/70 73/73/73 71/71/71
f 73/73/73 70/70/70 72/72/72
f 73/73/73 74/74/74 71/71/71
f 75/75/75 73/73/73 72/72/72
f 72/72/72 69/69/69 75/75/75
f 69/69/69 76/76/76 75/75/75
