g ENV_SY01_Bluejay_InnerRing_Platform_02_MO
v 7.430228 0.020446777 19.979248
v 7.4705124 0.02960205 19.970703
v 7.4796677 0.020446777 19.92981
v 7.430228 0.00030517578 19.92981
v -7.4302273 0.020446777 19.979248
v 7.430228 0.00030517578 -19.929808
v 7.4796677 0.020446777 -19.929808
v -7.4302273 0.00030517578 19.92981
v 7.430228 0.020446777 -19.979248
v 7.4705124 0.02960205 -19.970703
v -7.4302273 0.00030517578 -19.929808
v -7.4302273 0.020446777 -19.979248
v -7.4796677 0.020446777 -19.929808
v -7.4705124 0.02960205 -19.970703
v -7.4796677 0.020446777 19.92981
v -7.4705124 0.02960205 19.970703
v 7.4796677 0.020446777 19.92981
v 7.4705124 0.02960205 19.970703
v 7.4796677 0.06988716 19.979248
v 7.4998093 0.06988716 19.92981
v 7.4796677 0.020446777 -19.929808
v 7.4998093 3.953003 19.92981
v 7.4796677 3.953003 19.979248
v 7.4998093 0.06988716 -19.929808
v 7.4796677 4.0024414 19.92981
v 7.4705124 3.9932861 19.970703
v 7.4998093 3.953003 -19.929808
v 7.4796677 4.0024414 -19.929808
v 7.4796677 3.953003 -19.979248
v 7.4705124 3.9932861 -19.970703
v 7.4796677 0.06988716 -19.979248
v 7.4705124 0.02960205 -19.970703
v 7.4796677 0.06988716 19.979248
v 7.4705124 0.02960205 19.970703
v 7.430228 0.020446777 19.979248
v 7.430228 0.06988716 20
v 7.4796677 3.953003 19.979248
v -7.4302273 0.06988716 20
v -7.4302273 0.020446777 19.979248
v -7.4796677 0.06988716 19.979248
v -7.4705124 0.02960205 19.970703
v -7.4302273 3.953003 20
v -7.4796677 3.953003 19.979248
v 7.430228 3.953003 20
v -7.4302273 4.0024414 19.979248
v -7.4705124 3.9932861 19.970703
v 7.430228 4.0024414 19.979248
v 7.4705124 3.9932861 19.970703
v 7.4796677 4.0024414 19.92981
v 7.4705124 3.9932861 19.970703
v 7.430228 4.0024414 19.979248
v 7.430228 4.0231934 19.92981
v 7.4796677 4.0024414 -19.929808
v -7.4302273 4.0231934 19.92981
v -7.4302273 4.0024414 19.979248
v -7.4796677 4.0024414 19.92981
v -7.4705124 3.9932861 19.970703
v -7.4302273 4.0231934 -19.929808
v -7.4796677 4.0024414 -19.929808
v 7.430228 4.0231934 -19.929808
v -7.4302273 4.0024414 -19.979248
v -7.4705124 3.9932861 -19.970703
v 7.430228 4.0024414 -19.979248
v 7.4705124 3.9932861 -19.970703
v -7.4796677 4.0024414 19.92981
v -7.4705124 3.9932861 19.970703
v -7.4796677 3.953003 19.979248
v -7.4998093 3.953003 19.92981
v -7.4796677 4.0024414 -19.929808
v -7.4998093 0.06988716 19.92981
v -7.4796677 0.06988716 19.979248
v -7.4998093 3.953003 -19.929808
v -7.4796677 0.020446777 19.92981
v -7.4705124 0.02960205 19.970703
v -7.4998093 0.06988716 -19.929808
v -7.4796677 0.020446777 -19.929808
v -7.4796677 0.06988716 -19.979248
v -7.4705124 0.02960205 -19.970703
v -7.4796677 3.953003 -19.979248
v -7.4705124 3.9932861 -19.970703
v -7.4302273 4.0024414 -19.979248
v -7.4705124 3.9932861 -19.970703
v -7.4796677 3.953003 -19.979248
v -7.4302273 3.953003 -20
v 7.430228 4.0024414 -19.979248
v -7.4302273 0.06988716 -20
v -7.4796677 0.06988716 -19.979248
v 7.430228 3.953003 -20
v -7.4302273 0.020446777 -19.979248
v -7.4705124 0.02960205 -19.970703
v 7.430228 0.06988716 -20
v 7.430228 0.020446777 -19.979248
v 7.4796677 0.06988716 -19.979248
v 7.4705124 0.02960205 -19.970703
v 7.4796677 3.953003 -19.979248
v 7.4705124 3.9932861 -19.970703
vt 1.304833 2.0196142
vt 1.3086759 2.0196142
vt 1.3086759 2.0157714
vt 1.3032957 2.014234
vt 0.14196849 2.0196142
vt 1.3032957 -1.0954485
vt 1.3086759 -1.0977542
vt 0.14350569 2.014234
vt 1.304833 -1.1008285
vt 1.3086759 -1.1008285
vt 0.14350569 -1.0954485
vt 0.14196849 -1.1008285
vt 0.13812554 -1.0977542
vt 0.13812554 -1.1008285
vt 0.13812554 2.0157714
vt 0.13812554 2.0196142
vt -0.008673549 2.01116
vt -0.008673549 2.0150027
vt -0.0055992603 2.0150027
vt -0.0032935143 2.0096226
vt -0.008673549 -1.0931427
vt 0.29875922 2.0096226
vt 0.30106497 2.0150027
vt -0.0032935143 -1.090837
vt 0.30413926 2.01116
vt 0.30413926 2.0150027
vt 0.29875922 -1.090837
vt 0.30413926 -1.0931427
vt 0.30106497 -1.096217
vt 0.30413926 -1.096217
vt -0.0055992603 -1.096217
vt -0.008673549 -1.096217
vt 0.7952632 -0.40987337
vt 0.7921889 -0.40987337
vt 0.7921889 -0.40603042
vt 0.7975689 -0.40372467
vt 1.1019274 -0.40987337
vt 0.7975689 0.75068545
vt 0.7921889 0.7529912
vt 0.7952632 0.7560655
vt 0.7921889 0.7560655
vt 1.0996217 0.75068545
vt 1.1019274 0.7560655
vt 1.0996217 -0.40372467
vt 1.1050018 0.7529912
vt 1.1050018 0.7560655
vt 1.1050018 -0.40603042
vt 1.1050018 -0.40987337
vt 0.95743406 -1.0977542
vt 0.95743406 -1.1008285
vt 0.95435965 -1.1008285
vt 0.9520539 -1.0954485
vt 0.95743406 2.0157714
vt -0.20696771 -1.0954485
vt -0.20927346 -1.1008285
vt -0.2123478 -1.0977542
vt -0.2123478 -1.1008285
vt -0.20696771 2.014234
vt -0.2123478 2.0157714
vt 0.9520539 2.014234
vt -0.20927346 2.0196142
vt -0.2123478 2.0196142
vt 0.95435965 2.0196142
vt 0.95743406 2.0196142
vt 0.20422363 -1.0931427
vt 0.20422363 -1.096217
vt 0.20114934 -1.096217
vt 0.1988436 -1.090837
vt 0.20422363 2.01116
vt -0.10320914 -1.090837
vt -0.10474628 -1.096217
vt 0.1988436 2.0096226
vt -0.10858923 -1.0931427
vt -0.10858923 -1.096217
vt -0.10320914 2.0096226
vt -0.10858923 2.01116
vt -0.10474628 2.0150027
vt -0.10858923 2.0150027
vt 0.20114934 2.0150027
vt 0.20422363 2.0150027
vt 0.7960317 1.1003903
vt 0.7960317 1.1034645
vt 0.7991061 1.1034645
vt 0.80141187 1.0980846
vt 0.7960317 -0.059399962
vt 1.1026961 1.0980846
vt 1.1050018 1.1034645
vt 0.80141187 -0.057094216
vt 1.108076 1.1003903
vt 1.108076 1.1034645
vt 1.1026961 -0.057094216
vt 1.108076 -0.059399962
vt 1.1050018 -0.06247425
vt 1.108076 -0.06247425
vt 0.7991061 -0.06247425
vt 0.7960317 -0.06247425
vn 0.0039215684 -0.7097985 0.70439386
vn 0.5764662 -0.5764662 0.5791144
vn 0.70710677 -0.70710677 -0
vn 0.0039215684 -0.9999924 -0
vn -0.003921509 -0.7097985 0.70439386
vn 0.0039215684 -0.9999924 -0
vn 0.70710677 -0.70710677 -0
vn -0.003921509 -0.9999924 -0
vn 0.0039215684 -0.7097985 -0.70439386
vn 0.5764662 -0.5764662 -0.5791144
vn -0.003921509 -0.9999924 -0
vn -0.003921509 -0.7097985 -0.70439386
vn -0.70710677 -0.7071068 -0
vn -0.5764661 -0.5764662 -0.57911444
vn -0.70710677 -0.7071068 -0
vn -0.5764661 -0.5764662 0.57911444
vn 0.70710677 -0.70710677 -0
vn 0.5764662 -0.5764662 0.5791144
vn 0.7097985 -0.0039215684 0.70439386
vn 0.9999924 -0.0039215684 -0
vn 0.70710677 -0.70710677 -0
vn 0.9999924 0.003921509 -0
vn 0.7097985 0.003921509 0.70439386
vn 0.9999924 -0.0039215684 -0
vn 0.7071068 0.70710677 -0
vn 0.5764662 0.5764661 0.57911444
vn 0.9999924 0.003921509 -0
vn 0.7071068 0.70710677 -0
vn 0.7097985 0.003921509 -0.70439386
vn 0.5764662 0.5764661 -0.57911444
vn 0.7097985 -0.0039215684 -0.70439386
vn 0.5764662 -0.5764662 -0.5791144
vn 0.7097985 -0.0039215684 0.70439386
vn 0.5764662 -0.5764662 0.5791144
vn 0.0039215684 -0.7097985 0.70439386
vn 0.0039215684 -0.0039215684 0.9999846
vn 0.7097985 0.003921509 0.70439386
vn -0.003921509 -0.0039215684 0.9999846
vn -0.003921509 -0.7097985 0.70439386
vn -0.70979846 -0.0039215684 0.7043939
vn -0.5764661 -0.5764662 0.57911444
vn -0.003921509 0.003921509 0.9999846
vn -0.70979846 0.003921509 0.7043939
vn 0.0039215684 0.003921509 0.9999846
vn -0.003921509 0.70979846 0.7043939
vn -0.5764661 0.5764661 0.57911456
vn 0.0039215684 0.70979846 0.7043939
vn 0.5764662 0.5764661 0.57911444
vn 0.7071068 0.70710677 -0
vn 0.5764662 0.5764661 0.57911444
vn 0.0039215684 0.70979846 0.7043939
vn 0.0039215684 0.99999225 -0.00034526698
vn 0.7071068 0.70710677 -0
vn -0.003921509 0.99999225 -0.00034526698
vn -0.003921509 0.70979846 0.7043939
vn -0.70710677 0.70710677 -0
vn -0.5764661 0.5764661 0.57911456
vn -0.003921509 0.99999225 -0.00034526698
vn -0.70710677 0.70710677 -0
vn 0.0039215684 0.99999225 -0.00034526698
vn -0.003921509 0.70979846 -0.7043939
vn -0.5764661 0.5764661 -0.57911456
vn 0.0039215684 0.70979846 -0.7043939
vn 0.5764662 0.5764661 -0.57911444
vn -0.70710677 0.70710677 -0
vn -0.5764661 0.5764661 0.57911456
vn -0.70979846 0.003921509 0.7043939
vn -0.99999225 0.003921509 -0.00034492963
vn -0.70710677 0.70710677 -0
vn -0.99999225 -0.0039215684 -0.00034425134
vn -0.70979846 -0.0039215684 0.7043939
vn -0.99999225 0.003921509 -0.00034492963
vn -0.70710677 -0.7071068 -0
vn -0.5764661 -0.5764662 0.57911444
vn -0.99999225 -0.0039215684 -0.00034425134
vn -0.70710677 -0.7071068 -0
vn -0.70979846 -0.0039215684 -0.7043939
vn -0.5764661 -0.5764662 -0.57911444
vn -0.70979846 0.003921509 -0.7043939
vn -0.5764661 0.5764661 -0.57911456
vn -0.003921509 0.70979846 -0.7043939
vn -0.5764661 0.5764661 -0.57911456
vn -0.70979846 0.003921509 -0.7043939
vn -0.003921509 0.003921509 -0.9999846
vn 0.0039215684 0.70979846 -0.7043939
vn -0.003921509 -0.0039215684 -0.9999846
vn -0.70979846 -0.0039215684 -0.7043939
vn 0.0039215684 0.003921509 -0.9999846
vn -0.003921509 -0.7097985 -0.70439386
vn -0.5764661 -0.5764662 -0.57911444
vn 0.0039215684 -0.0039215684 -0.9999846
vn 0.0039215684 -0.7097985 -0.70439386
vn 0.7097985 -0.0039215684 -0.70439386
vn 0.5764662 -0.5764662 -0.5791144
vn 0.7097985 0.003921509 -0.70439386
vn 0.5764662 0.5764661 -0.57911444
g ENV_SY01_Bluejay_InnerRing_Platform_02_MO_0
f 3/3/3 2/2/2 1/1/1
f 4/4/4 3/3/3 1/1/1
f 1/1/1 5/5/5 4/4/4
f 4/4/4 6/6/6 3/3/3
f 6/6/6 7/7/7 3/3/3
f 5/5/5 8/8/8 4/4/4
f 4/4/4 8/8/8 6/6/6
f 6/6/6 9/9/9 7/7/7
f 9/9/9 10/10/10 7/7/7
f 9/9/9 6/6/6 11/11/11
f 8/8/8 11/11/11 6/6/6
f 12/12/12 9/9/9 11/11/11
f 11/11/11 13/13/13 12/12/12
f 13/13/13 11/11/11 8/8/8
f 13/13/13 14/14/14 12/12/12
f 15/15/15 13/13/13 8/8/8
f 8/8/8 5/5/5 15/15/15
f 5/5/5 16/16/16 15/15/15
f 19/19/19 18/18/18 17/17/17
f 20/20/20 19/19/19 17/17/17
f 17/17/17 21/21/21 20/20/20
f 20/20/20 22/22/22 19/19/19
f 22/22/22 23/23/23 19/19/19
f 21/21/21 24/24/24 20/20/20
f 22/22/22 20/20/20 24/24/24
f 22/22/22 25/25/25 23/23/23
f 25/25/25 26/26/26 23/23/23
f 22/22/22 27/27/27 25/25/25
f 27/27/27 22/22/22 24/24/24
f 27/27/27 28/28/28 25/25/25
f 27/27/27 29/29/29 28/28/28
f 27/27/27 24/24/24 29/29/29
f 29/29/29 30/30/30 28/28/28
f 24/24/24 31/31/31 29/29/29
f 24/24/24 21/21/21 31/31/31
f 21/21/21 32/32/32 31/31/31
f 35/35/35 34/34/34 33/33/33
f 36/36/36 35/35/35 33/33/33
f 33/33/33 37/37/37 36/36/36
f 36/36/36 38/38/38 35/35/35
f 38/38/38 39/39/39 35/35/35
f 38/38/38 40/40/40 39/39/39
f 40/40/40 41/41/41 39/39/39
f 40/40/40 38/38/38 42/42/42
f 42/42/42 38/38/38 36/36/36
f 43/43/43 40/40/40 42/42/42
f 37/37/37 44/44/44 36/36/36
f 44/44/44 42/42/42 36/36/36
f 42/42/42 45/45/45 43/43/43
f 45/45/45 42/42/42 44/44/44
f 45/45/45 46/46/46 43/43/43
f 47/47/47 45/45/45 44/44/44
f 44/44/44 37/37/37 47/47/47
f 37/37/37 48/48/48 47/47/47
f 51/51/51 50/50/50 49/49/49
f 52/52/52 51/51/51 49/49/49
f 49/49/49 53/53/53 52/52/52
f 52/52/52 54/54/54 51/51/51
f 54/54/54 55/55/55 51/51/51
f 54/54/54 56/56/56 55/55/55
f 56/56/56 57/57/57 55/55/55
f 54/54/54 58/58/58 56/56/56
f 58/58/58 54/54/54 52/52/52
f 58/58/58 59/59/59 56/56/56
f 53/53/53 60/60/60 52/52/52
f 60/60/60 58/58/58 52/52/52
f 58/58/58 61/61/61 59/59/59
f 58/58/58 60/60/60 61/61/61
f 61/61/61 62/62/62 59/59/59
f 60/60/60 63/63/63 61/61/61
f 60/60/60 53/53/53 63/63/63
f 53/53/53 64/64/64 63/63/63
f 67/67/67 66/66/66 65/65/65
f 68/68/68 67/67/67 65/65/65
f 65/65/65 69/69/69 68/68/68
f 68/68/68 70/70/70 67/67/67
f 70/70/70 71/71/71 67/67/67
f 69/69/69 72/72/72 68/68/68
f 68/68/68 72/72/72 70/70/70
f 70/70/70 73/73/73 71/71/71
f 73/73/73 74/74/74 71/71/71
f 70/70/70 75/75/75 73/73/73
f 72/72/72 75/75/75 70/70/70
f 75/75/75 76/76/76 73/73/73
f 75/75/75 77/77/77 76/76/76
f 77/77/77 75/75/75 72/72/72
f 77/77/77 78/78/78 76/76/76
f 79/79/79 77/77/77 72/72/72
f 72/72/72 69/69/69 79/79/79
f 69/69/69 80/80/80 79/79/79
f 83/83/83 82/82/82 81/81/81
f 84/84/84 83/83/83 81/81/81
f 81/81/81 85/85/85 84/84/84
f 84/84/84 86/86/86 83/83/83
f 86/86/86 87/87/87 83/83/83
f 85/85/85 88/88/88 84/84/84
f 84/84/84 88/88/88 86/86/86
f 86/86/86 89/89/89 87/87/87
f 89/89/89 90/90/90 87/87/87
f 86/86/86 91/91/91 89/89/89
f 88/88/88 91/91/91 86/86/86
f 91/91/91 92/92/92 89/89/89
f 91/91/91 93/93/93 92/92/92
f 93/93/93 91/91/91 88/88/88
f 93/93/93 94/94/94 92/92/92
f 95/95/95 93/93/93 88/88/88
f 88/88/88 85/85/85 95/95/95
f 85/85/85 96/96/96 95/95/95
