g ENV_SY01_Bluejay_CentralPlatform_SidePlastic_01_MO
v 2.4795318 4.0159664 3.9300041
v 2.470457 4.006892 3.9703488
v 2.4299898 4.0159664 3.979546
v 2.4299898 4.0364456 3.9300041
v 2.4795318 4.0159664 -3.9299793
v -2.4300146 4.0364456 3.9300041
v -2.4300146 4.0159664 3.979546
v 2.4299898 4.0364456 -3.9299793
v -2.4795566 4.0159664 3.9300041
v -2.4703593 4.006892 3.9703488
v -2.4300146 4.0364456 -3.9299793
v -2.4795566 4.0159664 -3.9299793
v -2.4300146 4.0159664 -3.979521
v -2.4703593 4.006892 -3.9704466
v 2.4299898 4.0159664 -3.979521
v 2.470457 4.006892 -3.9704466
v 2.4299898 4.0159664 3.979546
v 2.470457 4.006892 3.9703488
v 2.4795318 3.966425 3.979546
v 2.4299898 3.966425 4.000025
v -2.4300146 4.0159664 3.979546
v 2.4299898 0.07420254 4.000025
v 2.4795318 0.07420254 3.979546
v -2.4300146 3.966425 4.000025
v 2.4299898 0.024660587 3.979546
v 2.470457 0.033735275 3.9703488
v -2.4300146 0.07420254 4.000025
v -2.4300146 0.024660587 3.979546
v -2.4795566 0.07420254 3.979546
v -2.4703593 0.033735275 3.9703488
v -2.4795566 3.966425 3.979546
v -2.4703593 4.006892 3.9703488
v 2.4795318 3.966425 3.979546
v 2.470457 4.006892 3.9703488
v 2.4795318 4.0159664 3.9300041
v 2.5000105 3.966425 3.9300041
v 2.4795318 0.07420254 3.979546
v 2.5000105 3.966425 -3.9299793
v 2.4795318 4.0159664 -3.9299793
v 2.5000105 0.07420254 3.9300041
v 2.4795318 3.966425 -3.979521
v 2.470457 4.006892 -3.9704466
v 2.5000105 0.07420254 -3.9299793
v 2.4795318 0.07420254 -3.979521
v 2.4795318 0.024660587 -3.9299793
v 2.470457 0.033735275 -3.9704466
v 2.4795318 0.024660587 3.9300041
v 2.470457 0.033735275 3.9703488
v 2.4299898 0.024660587 3.979546
v 2.470457 0.033735275 3.9703488
v 2.4795318 0.024660587 3.9300041
v 2.4299898 0.004181862 3.9300041
v -2.4300146 0.024660587 3.979546
v 2.4299898 0.004181862 -3.9299793
v 2.4795318 0.024660587 -3.9299793
v 2.4299898 0.024660587 -3.979521
v 2.470457 0.033735275 -3.9704466
v -2.4300146 0.004181862 -3.9299793
v -2.4300146 0.024660587 -3.979521
v -2.4300146 0.004181862 3.9300041
v -2.4795566 0.024660587 -3.9299793
v -2.4703593 0.033735275 -3.9704466
v -2.4795566 0.024660587 3.9300041
v -2.4703593 0.033735275 3.9703488
v 2.4795318 3.966425 -3.979521
v 2.470457 4.006892 -3.9704466
v 2.4299898 4.0159664 -3.979521
v 2.4299898 3.966425 -4
v 2.4795318 0.07420254 -3.979521
v -2.4300146 3.966425 -4
v -2.4300146 4.0159664 -3.979521
v -2.4795566 3.966425 -3.979521
v -2.4703593 4.006892 -3.9704466
v -2.4300146 0.07420254 -4
v -2.4795566 0.07420254 -3.979521
v 2.4299898 0.07420254 -4
v -2.4300146 0.024660587 -3.979521
v -2.4703593 0.033735275 -3.9704466
v 2.4299898 0.024660587 -3.979521
v 2.470457 0.033735275 -3.9704466
v -2.4795566 4.0159664 3.9300041
v -2.4703593 4.006892 3.9703488
v -2.4795566 3.966425 3.979546
v -2.5000358 3.966425 3.9300041
v -2.4795566 4.0159664 -3.9299793
v -2.5000358 0.07420254 3.9300041
v -2.4795566 0.07420254 3.979546
v -2.4795566 0.024660587 3.9300041
v -2.4703593 0.033735275 3.9703488
v -2.5000358 0.07420254 -3.9299793
v -2.4795566 0.024660587 -3.9299793
v -2.5000358 3.966425 -3.9299793
v -2.4795566 0.07420254 -3.979521
v -2.4703593 0.033735275 -3.9704466
v -2.4795566 3.966425 -3.979521
v -2.4703593 4.006892 -3.9704466
vt 0.86405903 -0.0574565
vt 0.86405903 -0.060743716
vt 0.86077183 -0.060743716
vt 0.85858035 -0.055265028
vt 0.86405903 0.5578003
vt 0.48055074 -0.055265028
vt 0.47890714 -0.060743716
vt 0.85858035 0.5556088
vt 0.47561994 -0.0574565
vt 0.47561994 -0.060743716
vt 0.48055074 0.5556088
vt 0.47561994 0.5578003
vt 0.47890714 0.56108755
vt 0.47561994 0.56108755
vt 0.86077183 0.56108755
vt 0.86405903 0.56108755
vt 0.37809926 0.46630618
vt 0.37809926 0.46301898
vt 0.37481207 0.46301898
vt 0.37262058 0.46849766
vt 0.37809926 0.847623
vt 0.07129268 0.46849766
vt 0.069101214 0.46301898
vt 0.37262058 0.8454315
vt 0.065814 0.46630618
vt 0.065814 0.46301898
vt 0.07129268 0.8454315
vt 0.065814 0.847623
vt 0.069101214 0.8509102
vt 0.065814 0.8509102
vt 0.37481207 0.8509102
vt 0.37809926 0.8509102
vt 0.5358856 0.56053966
vt 0.53917277 0.56053966
vt 0.53917277 0.55725247
vt 0.534242 0.555061
vt 0.23017466 0.56053966
vt 0.534242 -0.055265028
vt 0.53917277 -0.056908634
vt 0.23236614 0.555061
vt 0.5358856 -0.060743716
vt 0.53917277 -0.060743716
vt 0.23236614 -0.055265028
vt 0.23017466 -0.060743716
vt 0.22688746 -0.056908634
vt 0.22688746 -0.060743716
vt 0.22688746 0.55725247
vt 0.22688746 0.56053966
vt 0.9539095 1.0607439
vt 0.9571967 1.0607439
vt 0.9571967 1.0574567
vt 0.9517181 1.0552653
vt 0.5720449 1.0607439
vt 0.9517181 0.4443914
vt 0.9571967 0.44219992
vt 0.9539095 0.43891272
vt 0.9571967 0.43891272
vt 0.5736885 0.4443914
vt 0.5720449 0.43891272
vt 0.5736885 1.0552653
vt 0.5682098 0.44219992
vt 0.5682098 0.43891272
vt 0.5682098 1.0574567
vt 0.5682098 1.0607439
vt 0.3244081 0.46301898
vt 0.32112092 0.46301898
vt 0.32112092 0.46630618
vt 0.3265996 0.46849766
vt 0.630119 0.46301898
vt 0.3265996 0.8454315
vt 0.32112092 0.847623
vt 0.3244081 0.8509102
vt 0.32112092 0.8509102
vt 0.62792754 0.8454315
vt 0.630119 0.8509102
vt 0.62792754 0.46849766
vt 0.6334062 0.847623
vt 0.6334062 0.8509102
vt 0.6334062 0.46630618
vt 0.6334062 0.46301898
vt 0.2827701 -0.056908634
vt 0.2827701 -0.060743716
vt 0.27948287 -0.060743716
vt 0.2772914 -0.055265028
vt 0.2827701 0.55725247
vt -0.024036497 -0.055265028
vt -0.026227973 -0.060743716
vt -0.029515188 -0.056908634
vt -0.029515188 -0.060743716
vt -0.024036497 0.555061
vt -0.029515188 0.55725247
vt 0.2772914 0.555061
vt -0.026227973 0.56053966
vt -0.029515188 0.56053966
vt 0.27948287 0.56053966
vt 0.2827701 0.56053966
vn 0.7071068 0.7071068 -0
vn 0.57646364 0.5764637 0.5791194
vn 0.003921509 0.70979536 0.704397
vn 0.003921509 0.99998796 0.0029499624
vn 0.7071068 0.7071068 -0
vn -0.003921509 0.99998796 0.0029499624
vn -0.003921509 0.70979536 0.704397
vn 0.003921509 0.99998796 -0.0029499624
vn -0.7071068 0.7071068 -0
vn -0.5764637 0.5764637 0.57911927
vn -0.003921509 0.99998796 -0.0029499624
vn -0.7071068 0.7071068 -0
vn -0.003921509 0.70979536 -0.704397
vn -0.5764637 0.5764637 -0.57911927
vn 0.003921509 0.70979536 -0.704397
vn 0.57646364 0.5764637 -0.5791194
vn 0.003921509 0.70979536 0.704397
vn 0.57646364 0.5764637 0.5791194
vn 0.70979536 0.003921509 0.704397
vn 0.003921509 0.003921509 0.9999846
vn -0.003921509 0.70979536 0.704397
vn 0.003921509 -0.003921509 0.9999846
vn 0.70979536 -0.003921509 0.704397
vn -0.003921509 0.003921509 0.9999846
vn 0.003921509 -0.70979536 0.704397
vn 0.57646364 -0.57646364 0.57911944
vn -0.003921509 -0.003921509 0.9999846
vn -0.003921509 -0.70979536 0.704397
vn -0.70979536 -0.003921509 0.704397
vn -0.5764637 -0.57646364 0.5791194
vn -0.70979536 0.003921509 0.704397
vn -0.5764637 0.5764637 0.57911927
vn 0.70979536 0.003921509 0.704397
vn 0.57646364 0.5764637 0.5791194
vn 0.7071068 0.7071068 -0
vn 0.99998796 0.003921509 0.002949923
vn 0.70979536 -0.003921509 0.704397
vn 0.99998796 0.003921509 -0.002949923
vn 0.7071068 0.7071068 -0
vn 0.99998796 -0.003921509 0.002949923
vn 0.70979536 0.003921509 -0.704397
vn 0.57646364 0.5764637 -0.5791194
vn 0.99998796 -0.003921509 -0.002949923
vn 0.70979536 -0.003921509 -0.704397
vn 0.7071068 -0.7071068 -0
vn 0.57646364 -0.57646364 -0.57911944
vn 0.7071068 -0.7071068 -0
vn 0.57646364 -0.57646364 0.57911944
vn 0.003921509 -0.70979536 0.704397
vn 0.57646364 -0.57646364 0.57911944
vn 0.7071068 -0.7071068 -0
vn 0.003921509 -0.99998796 0.0029499624
vn -0.003921509 -0.70979536 0.704397
vn 0.003921509 -0.99998796 -0.0029499624
vn 0.7071068 -0.7071068 -0
vn 0.003921509 -0.70979536 -0.704397
vn 0.57646364 -0.57646364 -0.57911944
vn -0.003921509 -0.99998796 -0.0029499624
vn -0.003921509 -0.70979536 -0.704397
vn -0.003921509 -0.99998796 0.0029499624
vn -0.7071068 -0.7071068 -0
vn -0.5764637 -0.57646364 -0.5791194
vn -0.7071068 -0.7071068 -0
vn -0.5764637 -0.57646364 0.5791194
vn 0.70979536 0.003921509 -0.704397
vn 0.57646364 0.5764637 -0.5791194
vn 0.003921509 0.70979536 -0.704397
vn 0.003921509 0.003921509 -0.9999846
vn 0.70979536 -0.003921509 -0.704397
vn -0.003921509 0.003921509 -0.9999846
vn -0.003921509 0.70979536 -0.704397
vn -0.70979536 0.003921509 -0.704397
vn -0.5764637 0.5764637 -0.57911927
vn -0.003921509 -0.003921509 -0.9999846
vn -0.70979536 -0.003921509 -0.704397
vn 0.003921509 -0.003921509 -0.9999846
vn -0.003921509 -0.70979536 -0.704397
vn -0.5764637 -0.57646364 -0.5791194
vn 0.003921509 -0.70979536 -0.704397
vn 0.57646364 -0.57646364 -0.57911944
vn -0.7071068 0.7071068 -0
vn -0.5764637 0.5764637 0.57911927
vn -0.70979536 0.003921509 0.704397
vn -0.99998796 0.003921509 0.002949923
vn -0.7071068 0.7071068 -0
vn -0.99998796 -0.003921509 0.002949923
vn -0.70979536 -0.003921509 0.704397
vn -0.7071068 -0.7071068 -0
vn -0.5764637 -0.57646364 0.5791194
vn -0.99998796 -0.003921509 -0.002949923
vn -0.7071068 -0.7071068 -0
vn -0.99998796 0.003921509 -0.002949923
vn -0.70979536 -0.003921509 -0.704397
vn -0.5764637 -0.57646364 -0.5791194
vn -0.70979536 0.003921509 -0.704397
vn -0.5764637 0.5764637 -0.57911927
g ENV_SY01_Bluejay_CentralPlatform_SidePlastic_01_MO_0
f 3/3/3 2/2/2 1/1/1
f 4/4/4 3/3/3 1/1/1
f 1/1/1 5/5/5 4/4/4
f 4/4/4 6/6/6 3/3/3
f 6/6/6 7/7/7 3/3/3
f 5/5/5 8/8/8 4/4/4
f 6/6/6 4/4/4 8/8/8
f 6/6/6 9/9/9 7/7/7
f 9/9/9 10/10/10 7/7/7
f 6/6/6 11/11/11 9/9/9
f 11/11/11 6/6/6 8/8/8
f 11/11/11 12/12/12 9/9/9
f 11/11/11 13/13/13 12/12/12
f 13/13/13 11/11/11 8/8/8
f 13/13/13 14/14/14 12/12/12
f 15/15/15 13/13/13 8/8/8
f 8/8/8 5/5/5 15/15/15
f 5/5/5 16/16/16 15/15/15
f 19/19/19 18/18/18 17/17/17
f 20/20/20 19/19/19 17/17/17
f 17/17/17 21/21/21 20/20/20
f 20/20/20 22/22/22 19/19/19
f 22/22/22 23/23/23 19/19/19
f 21/21/21 24/24/24 20/20/20
f 20/20/20 24/24/24 22/22/22
f 22/22/22 25/25/25 23/23/23
f 25/25/25 26/26/26 23/23/23
f 22/22/22 27/27/27 25/25/25
f 24/24/24 27/27/27 22/22/22
f 27/27/27 28/28/28 25/25/25
f 27/27/27 29/29/29 28/28/28
f 29/29/29 27/27/27 24/24/24
f 29/29/29 30/30/30 28/28/28
f 31/31/31 29/29/29 24/24/24
f 24/24/24 21/21/21 31/31/31
f 21/21/21 32/32/32 31/31/31
f 35/35/35 34/34/34 33/33/33
f 36/36/36 35/35/35 33/33/33
f 33/33/33 37/37/37 36/36/36
f 36/36/36 38/38/38 35/35/35
f 38/38/38 39/39/39 35/35/35
f 37/37/37 40/40/40 36/36/36
f 38/38/38 36/36/36 40/40/40
f 38/38/38 41/41/41 39/39/39
f 41/41/41 42/42/42 39/39/39
f 38/38/38 43/43/43 41/41/41
f 43/43/43 38/38/38 40/40/40
f 43/43/43 44/44/44 41/41/41
f 43/43/43 45/45/45 44/44/44
f 45/45/45 43/43/43 40/40/40
f 45/45/45 46/46/46 44/44/44
f 47/47/47 45/45/45 40/40/40
f 40/40/40 37/37/37 47/47/47
f 37/37/37 48/48/48 47/47/47
f 51/51/51 50/50/50 49/49/49
f 52/52/52 51/51/51 49/49/49
f 49/49/49 53/53/53 52/52/52
f 52/52/52 54/54/54 51/51/51
f 54/54/54 55/55/55 51/51/51
f 54/54/54 56/56/56 55/55/55
f 56/56/56 57/57/57 55/55/55
f 54/54/54 58/58/58 56/56/56
f 54/54/54 52/52/52 58/58/58
f 58/58/58 59/59/59 56/56/56
f 53/53/53 60/60/60 52/52/52
f 52/52/52 60/60/60 58/58/58
f 58/58/58 61/61/61 59/59/59
f 61/61/61 58/58/58 60/60/60
f 61/61/61 62/62/62 59/59/59
f 63/63/63 61/61/61 60/60/60
f 60/60/60 53/53/53 63/63/63
f 53/53/53 64/64/64 63/63/63
f 67/67/67 66/66/66 65/65/65
f 68/68/68 67/67/67 65/65/65
f 65/65/65 69/69/69 68/68/68
f 68/68/68 70/70/70 67/67/67
f 70/70/70 71/71/71 67/67/67
f 70/70/70 72/72/72 71/71/71
f 72/72/72 73/73/73 71/71/71
f 70/70/70 74/74/74 72/72/72
f 74/74/74 70/70/70 68/68/68
f 74/74/74 75/75/75 72/72/72
f 69/69/69 76/76/76 68/68/68
f 76/76/76 74/74/74 68/68/68
f 74/74/74 77/77/77 75/75/75
f 77/77/77 74/74/74 76/76/76
f 77/77/77 78/78/78 75/75/75
f 79/79/79 77/77/77 76/76/76
f 76/76/76 69/69/69 79/79/79
f 69/69/69 80/80/80 79/79/79
f 83/83/83 82/82/82 81/81/81
f 84/84/84 83/83/83 81/81/81
f 81/81/81 85/85/85 84/84/84
f 84/84/84 86/86/86 83/83/83
f 86/86/86 87/87/87 83/83/83
f 86/86/86 88/88/88 87/87/87
f 88/88/88 89/89/89 87/87/87
f 86/86/86 90/90/90 88/88/88
f 90/90/90 86/86/86 84/84/84
f 90/90/90 91/91/91 88/88/88
f 85/85/85 92/92/92 84/84/84
f 92/92/92 90/90/90 84/84/84
f 90/90/90 93/93/93 91/91/91
f 93/93/93 90/90/90 92/92/92
f 93/93/93 94/94/94 91/91/91
f 95/95/95 93/93/93 92/92/92
f 92/92/92 85/85/85 95/95/95
f 85/85/85 96/96/96 95/95/95
