g ENV_S05_KOTH_PentagonPiece_04_MO
v 7.1776543 0.29937744 10.453489
v 5.6530848 0.29937744 8.293802
v 5.7959976 0.38706207 7.999256
v 7.3418837 0.38706207 10.186071
v 6.6626825 0.38706207 5.315876
v 8.702225 0.29937744 12.613661
v 8.443043 0.38706207 6.7614803
v 8.888254 0.38706207 12.372404
v 10.223888 0.38706207 8.206602
v 10.048517 0.29889297 14.521917
v 8.888254 0.38706207 12.372404
v 10.256347 0.38706207 14.307304
v 10.223888 0.38706207 8.206602
v 11.952898 0.38706207 9.579538
v 12.188826 0.2751541 9.7767105
v 10.4593315 0.2751541 14.60718
v 10.193852 0.255291 14.726355
v 10.4593315 0.2751541 14.60718
v 12.188826 0.2751541 9.7767105
v 12.284263 0.00434494 9.859066
v 10.541204 0.00579834 14.732653
v 12.285716 -1.6151772 9.854221
v 10.543627 -1.6151772 14.724901
v 10.303823 -1.6151772 14.879442
v 10.289289 0.0009536743 14.860064
v 10.193852 0.255291 14.726355
v 16.72814 0.00046920776 -5.3885736
v 16.75091 -1.6151772 -5.396325
v 16.868147 -1.6151772 -5.175415
v 16.869116 0.0009536743 -5.179291
v 16.732016 0.27418518 -5.131814
v 16.574085 0.255291 -5.340129
v 15.322745 0.27418518 -0.1686039
v 15.4462805 0.0019226074 -0.1729641
v 15.445796 -1.6151772 -0.17199516
v 3.8993683 -0.0009841919 5.806141
v 3.9003372 -1.462575 5.763994
v 3.9826937 -1.462575 5.3909664
v 3.9662228 -0.00049972534 5.415674
v 4.566943 -1.462575 3.5892906
v 4.5548315 -1.5258789E-05 3.6067295
v 4.6502686 0.2737007 3.6856956
v 4.0480947 0.2737007 5.53388
v 3.9899607 0.255291 5.93985
v 4.0480947 0.2737007 5.53388
v 4.6502686 0.2737007 3.6856956
v 4.8823214 0.38706207 3.8702717
v 4.249627 0.38706207 5.8129234
v 4.1285143 0.29937744 6.1336308
v 3.9899607 0.255291 5.93985
v 5.6530848 0.29937744 8.293802
v 5.7959976 0.38706207 7.999256
v 6.6626825 0.38706207 5.315876
v 16.340578 0.29937744 -5.2669764
v 16.574085 0.255291 -5.340129
v 16.732016 0.27418518 -5.131814
v 16.398228 0.38706207 -5.021844
v 14.208021 0.29937744 -4.545143
v 14.230791 0.38706207 -4.2903214
v 15.0219 0.38706207 -0.1613369
v 15.322745 0.27418518 -0.1686039
v 12.895157 0.38706207 -0.12451935
v 14.230791 0.38706207 -4.2903214
v 11.759117 0.29937744 -3.7772865
v 11.747005 0.38706207 -3.5127754
v 12.895157 0.38706207 -0.12451935
v 9.310212 0.29937744 -3.0099144
v 10.645846 0.38706207 -0.08818436
v 9.26322 0.38706207 -2.7352304
v 8.396051 0.38706207 -0.051851273
v 6.4853725 -0.001953125 -2.1223984
v 6.637491 0.255291 -2.1703596
v 6.4553366 0.2737007 -1.8588572
v 6.3206596 0.00046920776 -1.8186474
v 6.4606657 -1.462575 -2.1151323
v 6.320175 -1.462575 -1.8152561
v 5.7359257 -1.462575 -0.0140628815
v 5.73205 -1.5258789E-05 -0.010189056
v 5.853647 0.2737007 -0.010673523
v 6.4553366 0.2737007 -1.8588572
v 6.637491 0.255291 -2.1703596
v 6.861307 0.29937744 -2.2420588
v 6.7789507 0.38706207 -1.9581699
v 5.853647 0.2737007 -0.010673523
v 6.146741 0.38706207 -0.015031815
v 9.26322 0.38706207 -2.7352304
v 9.310212 0.29937744 -3.0099144
v 8.396051 0.38706207 -0.051851273
v 13.903301 0.003376007 4.879385
v 15.445796 -1.6151772 -0.17199516
v 13.90427 -1.6151772 4.877447
v 15.4462805 0.0019226074 -0.1729641
v 13.794299 0.27466965 4.8406296
v 15.322745 0.27418518 -0.1686039
v 13.525429 0.38706207 4.745676
v 15.322745 0.27418518 -0.1686039
v 13.794299 0.27466965 4.8406296
v 15.0219 0.38706207 -0.1613369
v 11.559523 0.38706207 4.040798
v 12.895157 0.38706207 -0.12451935
v 5.251958 0.2737007 1.8375111
v 5.853647 0.2737007 -0.010673523
v 6.146741 0.38706207 -0.015031815
v 5.514531 0.38706207 1.9276199
v 8.396051 0.38706207 -0.051851273
v 7.5293665 0.38706207 2.6320133
v 5.143441 -1.5258789E-05 1.7982712
v 5.853647 0.2737007 -0.010673523
v 5.251958 0.2737007 1.8375111
v 5.73205 -1.5258789E-05 -0.010189056
v 5.151677 -1.462575 1.7876129
v 5.7359257 -1.462575 -0.0140628815
v 11.559523 0.38706207 4.040798
v 10.645846 0.38706207 -0.08818436
v 12.895157 0.38706207 -0.12451935
v 9.544687 0.38706207 3.3364067
v 8.396051 0.38706207 -0.051851273
v 7.5293665 0.38706207 2.6320133
v 8.443043 0.38706207 6.7614803
v 10.223888 0.38706207 8.206602
v 6.6626825 0.38706207 5.315876
v 12.284263 0.00434494 9.859066
v 13.90427 -1.6151772 4.877447
v 12.285716 -1.6151772 9.854221
v 13.903301 0.003376007 4.879385
v 12.188826 0.2751541 9.7767105
v 13.794299 0.27466965 4.8406296
v 11.952898 0.38706207 9.579538
v 13.794299 0.27466965 4.8406296
v 12.188826 0.2751541 9.7767105
v 13.525429 0.38706207 4.745676
v 11.559523 0.38706207 4.040798
v 10.223888 0.38706207 8.206602
v 4.6502686 0.2737007 3.6856956
v 5.251958 0.2737007 1.8375111
v 5.514531 0.38706207 1.9276199
v 4.8823214 0.38706207 3.8702717
v 7.5293665 0.38706207 2.6320133
v 6.6626825 0.38706207 5.315876
v 4.5548315 -1.5258789E-05 3.6067295
v 5.251958 0.2737007 1.8375111
v 4.6502686 0.2737007 3.6856956
v 5.143441 -1.5258789E-05 1.7982712
v 4.566943 -1.462575 3.5892906
v 5.151677 -1.462575 1.7876129
vt 0.498384 0.7457907
vt 0.498384 0.6318337
vt 0.48538888 0.6318337
vt 0.48538888 0.7457907
vt 0.2989592 0.6318337
vt 0.498384 0.8597477
vt 0.2989592 0.7457907
vt 0.48538888 0.8597477
vt 0.2989592 0.8597477
vt 0.49938363 0.97420454
vt 0.4773919 0.8597477
vt 0.4773919 0.97420454
vt 0.1610112 0.8597477
vt 0.1610112 0.97420454
vt 0.1610112 0.98719966
vt 0.4773919 0.98719966
vt 0.49938363 0.98719966
vt 0.018564917 0.49338585
vt 0.13652045 0.4938857
vt 0.13552082 0.4379068
vt 0.017065484 0.43840662
vt 0.13552082 0.37642998
vt 0.017065484 0.37642998
vt 0.010567933 0.37642998
vt 0.010567933 0.437407
vt 0.012067366 0.4893874
vt 0.49688452 0.437407
vt 0.49638474 0.37642998
vt 0.4908868 0.37642998
vt 0.4908868 0.437407
vt 0.48988718 0.49338585
vt 0.4953851 0.4893874
vt 0.3729313 0.49338585
vt 0.37343112 0.437407
vt 0.37343112 0.37642998
vt 0.4938857 0.44840282
vt 0.4938857 0.3989215
vt 0.47189397 0.3989215
vt 0.47189397 0.44840282
vt 0.36143562 0.3989215
vt 0.36143562 0.44840282
vt 0.36143562 0.49338585
vt 0.47189397 0.49338585
vt 0.4938857 0.49338585
vt 0.47189397 0.50538135
vt 0.2944609 0.50538135
vt 0.2944609 0.51737684
vt 0.47189397 0.51737684
vt 0.49138665 0.51737684
vt 0.49138665 0.50538135
vt 0.49138665 0.6318337
vt 0.47189397 0.6318337
vt 0.2944609 0.6318337
vt 0.0040703826 0.97420454
vt 0.0040703826 0.98719966
vt 0.030060582 0.98719966
vt 0.030060582 0.97420454
vt 0.0030707605 0.8597477
vt 0.030060582 0.8597477
vt 0.21299161 0.97420454
vt 0.21299161 0.98719966
vt 0.21299161 0.8597477
vt 0.02006435 0.8597477
vt 0.0030707605 0.7457907
vt 0.02006435 0.7457907
vt 0.2339837 0.8597477
vt 0.0030707605 0.6318337
vt 0.2339837 0.7457907
vt 0.02006435 0.6318337
vt 0.2339837 0.6318337
vt 0.014066614 0.44840282
vt 0.014066614 0.49338585
vt 0.033559263 0.49338585
vt 0.033559263 0.44840282
vt 0.014066614 0.3989215
vt 0.033559263 0.3989215
vt 0.14251818 0.3989215
vt 0.14251818 0.44840282
vt 0.14251818 0.49338585
vt 0.030560397 0.50538135
vt 0.0045701936 0.50538135
vt 0.0045701936 0.51737684
vt 0.030560397 0.51737684
vt 0.17550574 0.50538135
vt 0.17550574 0.51737684
vt 0.030560397 0.6318337
vt 0.0045701936 0.6318337
vt 0.17550574 0.6318337
vt 0.22148839 0.4379068
vt 0.40541905 0.37642998
vt 0.22148839 0.37642998
vt 0.40591887 0.437407
vt 0.2219882 0.49338585
vt 0.40491924 0.49338585
vt 0.37143186 0.97420454
vt 0.13252194 0.98719966
vt 0.37143186 0.98719966
vt 0.13252194 0.97420454
vt 0.37143186 0.8597477
vt 0.13252194 0.8597477
vt 0.25697502 0.50538135
vt 0.10203344 0.50538135
vt 0.10203344 0.51737684
vt 0.25697502 0.51737684
vt 0.10203344 0.6318337
vt 0.25697502 0.6318337
vt 0.2859641 0.44840282
vt 0.12252572 0.49338585
vt 0.2859641 0.49338585
vt 0.12252572 0.44840282
vt 0.2859641 0.3989215
vt 0.12252572 0.3989215
vt 0.24397993 0.8597477
vt 0.11552836 0.7457907
vt 0.11552836 0.8597477
vt 0.24397993 0.7457907
vt 0.11552836 0.6318337
vt 0.24397993 0.6318337
vt 0.3689328 0.7457907
vt 0.3689328 0.8597477
vt 0.3689328 0.6318337
vt 0.11202967 0.4379068
vt 0.2959603 0.37642998
vt 0.11202967 0.37642998
vt 0.2959603 0.4379068
vt 0.1135291 0.4938857
vt 0.29646012 0.49338585
vt 0.37642998 0.97420454
vt 0.14701648 0.98719966
vt 0.37642998 0.98719966
vt 0.14701648 0.97420454
vt 0.14701648 0.8597477
vt 0.37642998 0.8597477
vt 0.38042846 0.50538135
vt 0.23198444 0.50538135
vt 0.23198444 0.51737684
vt 0.38042846 0.51737684
vt 0.23198444 0.6318337
vt 0.38042846 0.6318337
vt 0.39692226 0.44840282
vt 0.21549067 0.49338585
vt 0.39692226 0.49338585
vt 0.21549067 0.44840282
vt 0.39692226 0.3989215
vt 0.21549067 0.3989215
vn -0.23815203 0.9538274 0.18302163
vn -0.23815203 0.9538274 0.18302163
vn -0.030361362 0.999539 -0
vn -0.022674097 0.9997429 -0
vn 0.00040632486 0.9999999 -0.00024414062
vn -0.23815203 0.9538274 0.18302163
vn 0.00040632486 0.9999999 -0.00024414062
vn -0.014982807 0.9998877 -0
vn 0.00040632486 0.9999999 -0.00024414062
vn -0.2073704 0.9615228 0.1801981
vn -0.014982807 0.9998877 -0
vn 0.061851174 0.9980854 -0
vn 0.00040632486 0.9999999 -0.00024414062
vn 0.046528503 0.998917 -0
vn 0.66221356 0.7229644 0.19696611
vn 0.72377706 0.6383146 0.26210922
vn 0.16970587 0.8153095 0.5535976
vn 0.72377706 0.6383146 0.26210922
vn 0.66221356 0.7229644 0.19696611
vn 0.9469446 0.061157107 0.31552452
vn 0.93924916 0.05346167 0.339047
vn 0.95464003 -0.00040632486 0.29776204
vn 0.93924916 -0.00040632486 0.34323588
vn 0.5006095 0.0072891116 0.86564255
vn 0.4852186 0.09193885 0.86954594
vn 0.16970587 0.8153095 0.5535976
vn 0.846904 0.09193885 -0.52373743
vn 0.8545994 0.0072891116 -0.5192366
vn 0.96233547 -0.00040632486 0.2718645
vn 0.96233547 0.05346167 0.2665564
vn 0.7391679 0.6383146 0.21490748
vn 0.42365515 0.79991865 -0.42502525
vn 0.66221356 0.71526897 0.22330141
vn 0.9469446 0.061157107 0.31552452
vn 0.95464003 -0.00040632486 0.29776204
vn -0.9769137 0.07654798 -0.19944935
vn -0.9846091 -0.00040632486 -0.17477046
vn -0.9538274 -0.008101761 -0.300246
vn -0.9538274 0.068852544 -0.29235703
vn -0.9538274 -0.008101761 -0.300246
vn -0.94613194 0.061157107 -0.31795302
vn -0.6614009 0.71526897 -0.22569701
vn -0.62292373 0.76144147 -0.17936811
vn -0.67570627 0.73717093 -0
vn -0.62292373 0.76144147 -0.17936811
vn -0.6614009 0.71526897 -0.22569701
vn -0.038043242 0.9992761 -0
vn -0.038043242 0.9992761 -0
vn -0.2535429 0.9538274 0.16102569
vn -0.67570627 0.73717093 -0
vn -0.23815203 0.9538274 0.18302163
vn -0.030361362 0.999539 -0
vn 0.00040632486 0.9999999 -0.00024414062
vn -0.068852544 0.94613194 -0.31637582
vn 0.42365515 0.79991865 -0.42502525
vn 0.7391679 0.6383146 0.21490748
vn 0.07713024 0.997021 -0
vn -0.09963429 0.94613194 -0.30807036
vn -0.007288919 0.9999734 -0
vn 0.046528503 0.998917 -0
vn 0.66221356 0.71526897 0.22330141
vn 0.00040632486 0.9999999 -0.00024414062
vn -0.007288919 0.9999734 -0
vn -0.09963429 0.94613194 -0.30807036
vn -0.007288919 0.9999734 -0
vn 0.00040632486 0.9999999 -0.00024414062
vn -0.09963429 0.94613194 -0.30807036
vn 0.00040632486 0.9999999 -0.00024414062
vn -0.007288919 0.9999734 -0
vn 0.00040632486 0.9999999 -0.00024414062
vn -0.88456845 0.07654798 -0.46008593
vn -0.5690557 0.7229644 -0.39178827
vn -0.6152283 0.76144147 -0.20420842
vn -0.9384365 0.07654798 -0.33686393
vn -0.8922639 0.0072891116 -0.45145547
vn -0.94613194 -0.00040632486 -0.323781
vn -0.9538274 -0.00040632486 -0.30035502
vn -0.94613194 0.068852544 -0.3163758
vn -0.6614009 0.71526897 -0.22569701
vn -0.6152283 0.76144147 -0.20420842
vn -0.5690557 0.7229644 -0.39178827
vn -0.11502516 0.9384365 -0.32573932
vn -0.030361362 0.999539 -0
vn -0.6614009 0.71526897 -0.22569701
vn -0.038043242 0.9992761 -0
vn -0.007288919 0.9999734 -0
vn -0.09963429 0.94613194 -0.30807036
vn 0.00040632486 0.9999999 -0.00024414062
vn 0.9469446 0.061157107 0.31552452
vn 0.95464003 -0.00040632486 0.29776204
vn 0.95464003 -0.00040632486 0.29776204
vn 0.9469446 0.061157107 0.31552452
vn 0.66221356 0.7229644 0.19696611
vn 0.66221356 0.71526897 0.22330141
vn 0.046528503 0.998917 -0
vn 0.66221356 0.71526897 0.22330141
vn 0.66221356 0.7229644 0.19696611
vn 0.046528503 0.998917 -0
vn 0.00040632486 0.9999999 -0.00024414062
vn 0.00040632486 0.9999999 -0.00024414062
vn -0.6614009 0.71526897 -0.22569701
vn -0.6614009 0.71526897 -0.22569701
vn -0.038043242 0.9992761 -0
vn -0.038043242 0.9992761 -0
vn 0.00040632486 0.9999999 -0.00024414062
vn 0.00040632486 0.9999999 -0.00024414062
vn -0.94613194 0.061157107 -0.31795302
vn -0.6614009 0.71526897 -0.22569701
vn -0.6614009 0.71526897 -0.22569701
vn -0.94613194 0.068852544 -0.3163758
vn -0.9538274 -0.00040632486 -0.30035502
vn -0.9538274 -0.00040632486 -0.30035502
vn 0.00040632486 0.9999999 -0.00024414062
vn 0.00040632486 0.9999999 -0.00024414062
vn 0.00040632486 0.9999999 -0.00024414062
vn 0.00040632486 0.9999999 -0.00024414062
vn 0.00040632486 0.9999999 -0.00024414062
vn 0.00040632486 0.9999999 -0.00024414062
vn 0.00040632486 0.9999999 -0.00024414062
vn 0.00040632486 0.9999999 -0.00024414062
vn 0.00040632486 0.9999999 -0.00024414062
vn 0.9469446 0.061157107 0.31552452
vn 0.95464003 -0.00040632486 0.29776204
vn 0.95464003 -0.00040632486 0.29776204
vn 0.9469446 0.061157107 0.31552452
vn 0.66221356 0.7229644 0.19696611
vn 0.66221356 0.7229644 0.19696611
vn 0.046528503 0.998917 -0
vn 0.66221356 0.7229644 0.19696611
vn 0.66221356 0.7229644 0.19696611
vn 0.046528503 0.998917 -0
vn 0.00040632486 0.9999999 -0.00024414062
vn 0.00040632486 0.9999999 -0.00024414062
vn -0.6614009 0.71526897 -0.22569701
vn -0.6614009 0.71526897 -0.22569701
vn -0.038043242 0.9992761 -0
vn -0.038043242 0.9992761 -0
vn 0.00040632486 0.9999999 -0.00024414062
vn 0.00040632486 0.9999999 -0.00024414062
vn -0.94613194 0.061157107 -0.31795302
vn -0.6614009 0.71526897 -0.22569701
vn -0.6614009 0.71526897 -0.22569701
vn -0.94613194 0.061157107 -0.31795302
vn -0.9538274 -0.008101761 -0.300246
vn -0.9538274 -0.00040632486 -0.30035502
g ENV_S05_KOTH_PentagonPiece_04_MO_0
f 3/3/3 2/2/2 1/1/1
f 4/4/4 3/3/3 1/1/1
f 5/5/5 3/3/3 4/4/4
f 4/4/4 1/1/1 6/6/6
f 7/7/7 5/5/5 4/4/4
f 8/8/8 4/4/4 6/6/6
f 7/7/7 4/4/4 8/8/8
f 9/9/9 7/7/7 8/8/8
f 11/11/11 6/6/6 10/10/10
f 12/12/12 11/11/11 10/10/10
f 13/13/13 11/11/11 12/12/12
f 14/14/14 13/13/13 12/12/12
f 15/15/15 14/14/14 12/12/12
f 16/16/16 15/15/15 12/12/12
f 12/12/12 10/10/10 16/16/16
f 10/10/10 17/17/17 16/16/16
f 20/20/20 19/19/19 18/18/18
f 21/21/21 20/20/20 18/18/18
f 22/22/22 20/20/20 21/21/21
f 23/23/23 22/22/22 21/21/21
f 24/24/24 23/23/23 21/21/21
f 25/25/25 24/24/24 21/21/21
f 21/21/21 18/18/18 25/25/25
f 18/18/18 26/26/26 25/25/25
f 29/29/29 28/28/28 27/27/27
f 30/30/30 29/29/29 27/27/27
f 30/30/30 27/27/27 31/31/31
f 27/27/27 32/32/32 31/31/31
f 30/30/30 31/31/31 33/33/33
f 34/34/34 30/30/30 33/33/33
f 29/29/29 30/30/30 34/34/34
f 35/35/35 29/29/29 34/34/34
f 38/38/38 37/37/37 36/36/36
f 39/39/39 38/38/38 36/36/36
f 40/40/40 38/38/38 39/39/39
f 41/41/41 40/40/40 39/39/39
f 42/42/42 41/41/41 39/39/39
f 43/43/43 42/42/42 39/39/39
f 39/39/39 36/36/36 43/43/43
f 36/36/36 44/44/44 43/43/43
f 47/47/47 46/46/46 45/45/45
f 48/48/48 47/47/47 45/45/45
f 48/48/48 45/45/45 49/49/49
f 45/45/45 50/50/50 49/49/49
f 48/48/48 49/49/49 51/51/51
f 52/52/52 48/48/48 51/51/51
f 47/47/47 48/48/48 52/52/52
f 53/53/53 47/47/47 52/52/52
f 56/56/56 55/55/55 54/54/54
f 57/57/57 56/56/56 54/54/54
f 54/54/54 58/58/58 57/57/57
f 58/58/58 59/59/59 57/57/57
f 56/56/56 57/57/57 60/60/60
f 60/60/60 57/57/57 59/59/59
f 61/61/61 56/56/56 60/60/60
f 62/62/62 60/60/60 59/59/59
f 58/58/58 64/64/64 63/63/63
f 64/64/64 65/65/65 63/63/63
f 66/66/66 63/63/63 65/65/65
f 64/64/64 67/67/67 65/65/65
f 68/68/68 66/66/66 65/65/65
f 67/67/67 69/69/69 65/65/65
f 68/68/68 65/65/65 69/69/69
f 70/70/70 68/68/68 69/69/69
f 73/73/73 72/72/72 71/71/71
f 74/74/74 73/73/73 71/71/71
f 71/71/71 75/75/75 74/74/74
f 75/75/75 76/76/76 74/74/74
f 74/74/74 76/76/76 77/77/77
f 78/78/78 74/74/74 77/77/77
f 73/73/73 74/74/74 78/78/78
f 79/79/79 73/73/73 78/78/78
f 82/82/82 81/81/81 80/80/80
f 83/83/83 82/82/82 80/80/80
f 83/83/83 80/80/80 84/84/84
f 85/85/85 83/83/83 84/84/84
f 82/82/82 83/83/83 86/86/86
f 86/86/86 83/83/83 85/85/85
f 87/87/87 82/82/82 86/86/86
f 88/88/88 86/86/86 85/85/85
f 91/91/91 90/90/90 89/89/89
f 90/90/90 92/92/92 89/89/89
f 89/89/89 92/92/92 93/93/93
f 92/92/92 94/94/94 93/93/93
f 97/97/97 96/96/96 95/95/95
f 96/96/96 98/98/98 95/95/95
f 99/99/99 95/95/95 98/98/98
f 100/100/100 99/99/99 98/98/98
f 103/103/103 102/102/102 101/101/101
f 104/104/104 103/103/103 101/101/101
f 105/105/105 103/103/103 104/104/104
f 106/106/106 105/105/105 104/104/104
f 109/109/109 108/108/108 107/107/107
f 108/108/108 110/110/110 107/107/107
f 107/107/107 110/110/110 111/111/111
f 110/110/110 112/112/112 111/111/111
f 115/115/115 114/114/114 113/113/113
f 114/114/114 116/116/116 113/113/113
f 116/116/116 114/114/114 117/117/117
f 118/118/118 116/116/116 117/117/117
f 113/113/113 116/116/116 119/119/119
f 119/119/119 116/116/116 118/118/118
f 120/120/120 113/113/113 119/119/119
f 121/121/121 119/119/119 118/118/118
f 124/124/124 123/123/123 122/122/122
f 123/123/123 125/125/125 122/122/122
f 122/122/122 125/125/125 126/126/126
f 125/125/125 127/127/127 126/126/126
f 130/130/130 129/129/129 128/128/128
f 129/129/129 131/131/131 128/128/128
f 128/128/128 131/131/131 132/132/132
f 133/133/133 128/128/128 132/132/132
f 136/136/136 135/135/135 134/134/134
f 137/137/137 136/136/136 134/134/134
f 138/138/138 136/136/136 137/137/137
f 139/139/139 138/138/138 137/137/137
f 142/142/142 141/141/141 140/140/140
f 141/141/141 143/143/143 140/140/140
f 140/140/140 143/143/143 144/144/144
f 143/143/143 145/145/145 144/144/144
