g ENV_S04_Taper_Ramp_Round_M_HardPlasticDark_MO1
v -3.1071167 4.544883 11.075147
v -10.660047 0.5562115 18.085255
v -10.589976 0.5216198 18.079933
v -3.171421 4.5728226 11.0875635
v -3.1062298 4.5981007 11.021928
v -3.166543 4.6078577 11.038781
v -3.1062298 4.5981007 11.021928
v -3.1071167 4.544883 11.075147
v 3.388555 4.544883 11.075147
v 3.388555 4.597657 11.021928
v -10.589976 0.5216198 18.079933
v 10.758328 0.5202894 18.167744
v 10.756555 0.5216198 18.087029
v -10.590421 0.5216198 18.160648
v -10.660047 0.5562115 18.085255
v -10.64763 0.5424633 18.148232
v -10.586429 1.2604599 18.128273
v -3.1106644 5.2832785 11.123929
v 3.3925462 5.2832785 11.123929
v 10.751676 1.2609034 18.134483
v -3.1798477 4.6677275 11.033458
v -3.171421 4.5728226 11.0875635
v -3.166543 4.6078577 11.038781
v -3.2095604 4.6433353 11.100425
v -3.1301775 5.201236 11.035676
v -10.660047 0.5562115 18.085255
v -3.2095604 5.1648703 11.111512
v -10.688874 0.64047337 18.091908
v -3.1807346 5.2486887 11.118163
v -3.1173162 5.262435 11.05519
v -10.688874 1.1620073 18.102993
v -10.659604 1.2320776 18.115856
v -10.660047 0.6036644 18.167744
v -10.64763 0.5424633 18.148232
v -10.659604 1.1376152 18.16996
v -10.6463 1.1974859 18.164639
v -3.1062298 4.5981007 11.021928
v -3.1798477 4.6677275 11.033458
v -3.166543 4.6078577 11.038781
v -3.1057863 4.671275 11.002416
v 3.388555 4.597657 11.021928
v -3.0601072 5.2136526 11.002416
v -3.1301775 5.201236 11.035676
v -3.0601072 5.2832785 11.042771
v -3.1173162 5.262435 11.05519
v 3.3038502 5.2172003 11.002416
v 3.3029633 5.28461 11.042771
v 3.388555 4.670388 11.002416
v 3.3721461 5.203452 11.035232
v 3.3592854 5.263322 11.05519
v 3.4617295 4.667284 11.033458
v 3.4484248 4.6074133 11.038781
v 3.388555 4.597657 11.021928
v 3.4617295 4.5728226 11.0875635
v 3.4484248 4.6074133 11.038781
v 3.388555 4.544883 11.075147
v 10.826624 0.5562115 18.09235
v 10.756555 0.5216198 18.087029
v 10.758328 0.5202894 18.167744
v 10.814651 0.5415764 18.15577
v 3.4617295 4.5728226 11.0875635
v 3.4617295 4.667284 11.033458
v 3.4484248 4.6074133 11.038781
v 3.4914427 4.6433353 11.100425
v 10.855451 0.64047337 18.099445
v 10.826624 0.5562115 18.09235
v 3.4914427 5.1648703 11.111512
v 3.3721461 5.203452 11.035232
v 10.827511 0.60189056 18.175282
v 10.814651 0.5415764 18.15577
v 10.825737 1.1376152 18.177055
v 10.855451 1.1620073 18.110092
v 10.825294 1.232521 18.122952
v 10.81199 1.1979294 18.171734
v 3.4626164 5.2486887 11.118163
v 3.3592854 5.263322 11.05519
v -3.0601072 5.2832785 11.042771
v -3.1807346 5.2486887 11.118163
v -3.1173162 5.262435 11.05519
v -3.1106644 5.2832785 11.123929
v 3.3029633 5.28461 11.042771
v -10.659604 1.2320776 18.115856
v 3.3925462 5.2832785 11.123929
v -10.586429 1.2604599 18.128273
v 3.4626164 5.2486887 11.118163
v 3.3592854 5.263322 11.05519
v 10.751676 1.2609034 18.134483
v 10.825294 1.232521 18.122952
v -10.585986 1.207242 18.181492
v -10.6463 1.1974859 18.164639
v 10.752119 1.2076855 18.188587
v 10.81199 1.1979294 18.171734
v -10.585986 1.207242 18.181492
v -10.659604 1.1376152 18.16996
v -10.6463 1.1974859 18.164639
v -10.586429 1.134511 18.201004
v 10.752119 1.2076855 18.188587
v -10.589976 0.59169006 18.201004
v -10.660047 0.6036644 18.167744
v -10.590421 0.5216198 18.160648
v -10.64763 0.5424633 18.148232
v 10.759215 0.58769894 18.2081
v 10.758328 0.5202894 18.167744
v 10.7525625 1.134511 18.2081
v 10.827511 0.60189056 18.175282
v 10.814651 0.5415764 18.15577
v 10.825737 1.1376152 18.177055
v 10.81199 1.1979294 18.171734
vt 0.33724335 0.42717493
vt 0.001954982 0.07429125
vt 0.000977465 0.0772238
vt 0.33822086 0.42424238
vt 0.3401759 0.42717493
vt 0.3401759 0.4252199
vt 0.3695014 0.44574773
vt 0.3695014 0.44868028
vt 0.66080153 0.4369501
vt 0.659824 0.43304002
vt 0.03225801 0.02639291
vt 0.9648093 0.0039100163
vt 0.9648093 -5.2154064E-08
vt 0.03323553 0.030302979
vt 0.029325461 0.027370427
vt 0.030302979 0.030302979
vt -5.2154064E-08 0.44868028
vt 0.32551312 0.8044965
vt 0.61094815 0.80645156
vt 0.9354838 0.4535679
vt 0.34213093 0.42326486
vt 0.33822086 0.42424238
vt 0.3401759 0.4252199
vt 0.3401759 0.4213098
vt 0.36461383 0.4154447
vt 0.001954982 0.07429125
vt 0.36168128 0.41251215
vt 0.0048875334 0.07233621
vt 0.36461383 0.41153464
vt 0.36754638 0.4144672
vt 0.027370427 0.064516075
vt 0.030302979 0.064516075
vt 0.001954982 0.06940366
vt -5.2154064E-08 0.071358696
vt 0.02639291 0.061583526
vt 0.030302979 0.061583526
vt 0.3695014 0.44574773
vt 0.36559135 0.44281518
vt 0.36656886 0.44477022
vt 0.3695014 0.44183767
vt 0.659824 0.43304002
vt 0.37047893 0.41837725
vt 0.36754638 0.41837725
vt 0.37047893 0.4144672
vt 0.36754638 0.4144672
vt 0.65298134 0.40664706
vt 0.65298134 0.402737
vt 0.659824 0.43010747
vt 0.65689147 0.40664706
vt 0.6559139 0.402737
vt 0.6637341 0.43010747
vt 0.66275656 0.43304002
vt 0.68523943 0.4144672
vt 0.68719447 0.41055712
vt 0.6842619 0.41251215
vt 0.688172 0.4144672
vt 0.9960899 0.047898285
vt 0.9970674 0.050830837
vt 0.99999994 0.047898285
vt 0.9980449 0.045943253
vt 0.68719447 0.41055712
vt 0.6823069 0.41153464
vt 0.6842619 0.41251215
vt 0.6842619 0.4086021
vt 0.9921798 0.044965737
vt 0.9960899 0.047898285
vt 0.6637341 0.39980444
vt 0.6588465 0.40469202
vt 0.9960899 0.0430107
vt 0.9980449 0.045943253
vt 0.971652 0.035190564
vt 0.97067446 0.038123116
vt 0.96676433 0.038123116
vt 0.96774185 0.035190564
vt 0.659824 0.39882693
vt 0.6559139 0.402737
vt 0.37047893 0.4144672
vt 0.36461383 0.41153464
vt 0.36754638 0.4144672
vt 0.3685239 0.41153464
vt 0.65298134 0.402737
vt 0.030302979 0.064516075
vt 0.65689147 0.39980444
vt 0.034213047 0.06353856
vt 0.659824 0.39882693
vt 0.6559139 0.402737
vt 0.9638318 0.0371456
vt 0.96676433 0.038123116
vt 0.03323553 0.06060601
vt 0.030302979 0.061583526
vt 0.9638318 0.034213047
vt 0.96774185 0.035190564
vt 0.03323553 0.06060601
vt 0.030302979 0.057673458
vt 0.030302979 0.061583526
vt 0.03323553 0.057673458
vt 0.9638318 0.034213047
vt 0.03323553 0.03323553
vt 0.029325461 0.03323553
vt 0.03323553 0.030302979
vt 0.030302979 0.030302979
vt 0.9648093 0.0068425676
vt 0.9648093 0.0039100163
vt 0.9638318 0.031280495
vt 0.96774185 0.007820085
vt 0.96676433 0.0048875334
vt 0.96774185 0.031280495
vt 0.96774185 0.035190564
vn -0.1764704 -0.6627234 -0.72777456
vn -0.3647008 -0.5842941 -0.72497845
vn -0.14509869 -0.9450691 -0.29290068
vn -0.3647008 -0.5842941 -0.72497845
vn -0.0039259195 -0.70978105 -0.7044114
vn -0.3568579 -0.6940952 -0.62520736
vn -0.0039259195 -0.70978105 -0.7044114
vn -0.1764704 -0.6627234 -0.72777456
vn 0.16861862 -0.6705664 -0.7224324
vn 0.0039170384 -0.70978105 -0.7044115
vn -0.14509869 -0.9450691 -0.29290068
vn 0.0039170384 -0.9999696 -0.006743763
vn 0.1372469 -0.9450691 -0.2966609
vn -0.0039259195 -0.9999696 -0.0067349193
vn -0.3647008 -0.5842941 -0.72497845
vn -0.39607263 -0.91369736 -0.09101437
vn -0.0039259195 0.86664855 0.49890363
vn -0.0039259195 0.86664855 0.49890363
vn 0.0039170384 0.86664855 0.49890375
vn 0.0039170384 0.86664855 0.49890375
vn -0.811748 0.027454734 -0.58336216
vn -0.62351763 -0.17646158 -0.76163447
vn -0.85096276 -0.30979145 -0.42413634
vn -0.67841816 -0.011759996 -0.7345818
vn -0.7882192 0.09804106 -0.6075347
vn -0.62351763 -0.17646158 -0.76163447
vn -0.701947 0.08235526 -0.7074518
vn -0.68626106 -0.019602895 -0.72709113
vn -0.7333187 0.3568579 -0.5787021
vn -0.7176329 0.31764328 -0.6197627
vn -0.6941041 0.04314053 -0.71858084
vn -0.7333187 0.3568579 -0.5787021
vn -0.937235 -0.058817565 0.343702
vn -0.937235 -0.3019485 0.17440662
vn -0.9215491 0.011768818 0.3880835
vn -0.85880566 0.25489974 0.44438607
vn -0.0039259195 -0.25489092 -0.96696186
vn -0.40391552 0.011768818 -0.9147206
vn -0.33332908 -0.19999039 -0.9213553
vn -0.0039259195 -0.03528875 -0.99936944
vn 0.0039170384 -0.25489092 -0.9669619
vn -0.0039259195 0.058826447 -0.9982605
vn -0.41175842 0.066669345 -0.908851
vn -0.0039259195 0.5058737 -0.8625986
vn -0.39607263 0.41175842 -0.8207201
vn 0.0039170384 0.058826447 -0.99826056
vn 0.0039170384 0.5058737 -0.86259866
vn 0.0039170384 -0.03528875 -0.9993695
vn 0.4195925 0.09804106 -0.9024024
vn 0.4117496 0.42744434 -0.8048314
vn 0.4117496 0.035297632 -0.9106132
vn 0.34116316 -0.20783329 -0.9167404
vn 0.0039170384 -0.70978105 -0.7044115
vn 0.34900612 -0.59998 -0.71987414
vn 0.33332026 -0.6940952 -0.63806695
vn 0.16861862 -0.6705664 -0.7224324
vn 0.35684907 -0.6078229 -0.709373
vn 0.1372469 -0.9450691 -0.2966609
vn 0.0039170384 -0.9999696 -0.006743763
vn 0.40390664 -0.91369736 -0.04490595
vn 0.63919467 -0.14508986 -0.7552345
vn 0.71762395 0.05098355 -0.69456214
vn 0.8587968 -0.25489092 -0.44440827
vn 0.68625224 -0.0039170384 -0.7273531
vn 0.6940952 -0.011759996 -0.7197872
vn 0.6470376 -0.14508986 -0.7485261
vn 0.70978105 0.08235526 -0.69959164
vn 0.67840934 0.12156987 -0.7245561
vn 0.9372261 -0.058817565 0.34372616
vn 0.9372261 -0.3019485 0.17445427
vn 0.9293832 0.011768818 0.36892867
vn 0.70193815 0.04314053 -0.7109302
vn 0.74115276 0.3568579 -0.56863433
vn 0.8587968 0.26274276 0.4398117
vn 0.73330986 0.3568579 -0.5787133
vn 0.55292237 0.30195737 -0.7765942
vn -0.0039259195 0.9999784 0.005264614
vn -0.41175842 0.9058633 0.099331334
vn -0.40391552 0.8823345 -0.24153283
vn -0.0039259195 0.86664855 0.49890363
vn 0.0039170384 0.9999784 0.0052759238
vn -0.41175842 0.9058633 0.099331334
vn 0.0039170384 0.86664855 0.49890375
vn -0.0039259195 0.86664855 0.49890363
vn 0.4117496 0.9058633 0.09936793
vn 0.3882208 0.81959105 -0.42137292
vn 0.0039170384 0.86664855 0.49890375
vn 0.4117496 0.9058633 0.09936793
vn -0.0039259195 0.7097899 0.7044025
vn -0.33332908 0.6941041 0.6380527
vn 0.0039170384 0.7097899 0.7044026
vn 0.33332026 0.6941041 0.6380573
vn -0.0039259195 0.26274276 0.96485794
vn -0.40391552 0.019611716 0.91458607
vn -0.3411721 0.20784211 0.9167351
vn -0.0039259195 0.035297632 0.99936914
vn 0.0039170384 0.26274276 0.964858
vn -0.0039259195 -0.06666052 0.997768
vn -0.41175842 -0.03528875 0.9106095
vn -0.0039259195 -0.5058648 0.86260384
vn -0.39607263 -0.4117496 0.82072455
vn 0.0039170384 -0.06666052 0.99776804
vn 0.0039170384 -0.5058648 0.8626039
vn 0.0039170384 0.027454734 0.9996154
vn 0.4117496 -0.03528875 0.9106135
vn 0.4117496 -0.42743546 0.80483615
vn 0.40390664 0.019611716 0.91458994
vn 0.33332026 0.20784211 0.9196191
g ENV_S04_Taper_Ramp_Round_M_HardPlasticDark_MO1_0
f 3/3/3 2/2/2 1/1/1
f 2/2/2 4/4/4 1/1/1
f 5/5/5 1/1/1 4/4/4
f 6/6/6 5/5/5 4/4/4
f 9/9/9 8/8/8 7/7/7
f 10/10/10 9/9/9 7/7/7
f 13/13/13 12/12/12 11/11/11
f 12/12/12 14/14/14 11/11/11
f 15/15/15 11/11/11 14/14/14
f 16/16/16 15/15/15 14/14/14
f 19/19/19 18/18/18 17/17/17
f 20/20/20 19/19/19 17/17/17
f 23/23/23 22/22/22 21/21/21
f 22/22/22 24/24/24 21/21/21
f 25/25/25 21/21/21 24/24/24
f 24/24/24 22/22/22 26/26/26
f 27/27/27 25/25/25 24/24/24
f 28/28/28 24/24/24 26/26/26
f 27/27/27 24/24/24 28/28/28
f 25/25/25 27/27/27 29/29/29
f 30/30/30 25/25/25 29/29/29
f 29/29/29 27/27/27 31/31/31
f 31/31/31 27/27/27 28/28/28
f 32/32/32 29/29/29 31/31/31
f 33/33/33 28/28/28 26/26/26
f 28/28/28 33/33/33 31/31/31
f 34/34/34 33/33/33 26/26/26
f 33/33/33 35/35/35 31/31/31
f 32/32/32 31/31/31 35/35/35
f 36/36/36 32/32/32 35/35/35
f 39/39/39 38/38/38 37/37/37
f 38/38/38 40/40/40 37/37/37
f 41/41/41 37/37/37 40/40/40
f 42/42/42 40/40/40 38/38/38
f 43/43/43 42/42/42 38/38/38
f 44/44/44 42/42/42 43/43/43
f 45/45/45 44/44/44 43/43/43
f 46/46/46 42/42/42 44/44/44
f 42/42/42 46/46/46 40/40/40
f 47/47/47 46/46/46 44/44/44
f 48/48/48 41/41/41 40/40/40
f 46/46/46 48/48/48 40/40/40
f 49/49/49 46/46/46 47/47/47
f 46/46/46 49/49/49 48/48/48
f 50/50/50 49/49/49 47/47/47
f 49/49/49 51/51/51 48/48/48
f 41/41/41 48/48/48 51/51/51
f 52/52/52 41/41/41 51/51/51
f 55/55/55 54/54/54 53/53/53
f 54/54/54 56/56/56 53/53/53
f 56/56/56 54/54/54 57/57/57
f 58/58/58 56/56/56 57/57/57
f 59/59/59 58/58/58 57/57/57
f 60/60/60 59/59/59 57/57/57
f 63/63/63 62/62/62 61/61/61
f 62/62/62 64/64/64 61/61/61
f 61/61/61 64/64/64 65/65/65
f 66/66/66 61/61/61 65/65/65
f 67/67/67 64/64/64 62/62/62
f 68/68/68 67/67/67 62/62/62
f 66/66/66 65/65/65 69/69/69
f 70/70/70 66/66/66 69/69/69
f 69/69/69 65/65/65 71/71/71
f 65/65/65 64/64/64 72/72/72
f 65/65/65 72/72/72 71/71/71
f 64/64/64 67/67/67 72/72/72
f 71/71/71 72/72/72 73/73/73
f 72/72/72 67/67/67 73/73/73
f 74/74/74 71/71/71 73/73/73
f 67/67/67 75/75/75 73/73/73
f 75/75/75 67/67/67 68/68/68
f 76/76/76 75/75/75 68/68/68
f 79/79/79 78/78/78 77/77/77
f 78/78/78 80/80/80 77/77/77
f 81/81/81 77/77/77 80/80/80
f 80/80/80 78/78/78 82/82/82
f 83/83/83 81/81/81 80/80/80
f 84/84/84 80/80/80 82/82/82
f 81/81/81 83/83/83 85/85/85
f 86/86/86 81/81/81 85/85/85
f 85/85/85 83/83/83 87/87/87
f 88/88/88 85/85/85 87/87/87
f 89/89/89 84/84/84 82/82/82
f 87/87/87 84/84/84 89/89/89
f 90/90/90 89/89/89 82/82/82
f 91/91/91 87/87/87 89/89/89
f 88/88/88 87/87/87 91/91/91
f 92/92/92 88/88/88 91/91/91
f 95/95/95 94/94/94 93/93/93
f 94/94/94 96/96/96 93/93/93
f 97/97/97 93/93/93 96/96/96
f 98/98/98 96/96/96 94/94/94
f 99/99/99 98/98/98 94/94/94
f 100/100/100 98/98/98 99/99/99
f 101/101/101 100/100/100 99/99/99
f 102/102/102 98/98/98 100/100/100
f 98/98/98 102/102/102 96/96/96
f 103/103/103 102/102/102 100/100/100
f 104/104/104 97/97/97 96/96/96
f 102/102/102 104/104/104 96/96/96
f 105/105/105 102/102/102 103/103/103
f 102/102/102 105/105/105 104/104/104
f 106/106/106 105/105/105 103/103/103
f 105/105/105 107/107/107 104/104/104
f 97/97/97 104/104/104 107/107/107
f 108/108/108 97/97/97 107/107/107
