g ENV_DF_Conveyor_Collision
v 21.862116 -5.316957 38.70463
v -21.945808 -8.06569 38.3931
v -21.945808 -5.316957 38.70463
v 21.862116 -8.06569 38.3931
v 21.862116 -4.3004355 37.812717
v -21.945808 -4.3004355 37.812717
v 21.862116 5.8655887 -38.101624
v -21.945808 5.8655887 -38.101624
v 21.862116 2.3028288 -39.50756
v -21.945808 4.9736753 -39.118145
v -21.945808 2.3028288 -39.50756
v 21.862116 4.9736753 -39.118145
v -21.945808 -8.957604 37.37658
v 21.862116 -8.957604 37.37658
v -21.945808 1.2863075 -38.615646
v 21.862116 1.2863075 -38.615646
v 21.862116 -8.957604 37.37658
v 21.862116 -8.06569 38.3931
v 21.862116 -5.316957 38.70463
v 21.862116 -4.3004355 37.812717
v 21.862116 1.2863075 -38.615646
v 21.862116 5.8655887 -38.101624
v 21.862116 2.3028288 -39.50756
v 21.862116 4.9736753 -39.118145
v -21.945808 -8.957604 37.37658
v -21.945808 -8.06569 38.3931
v 21.862116 -8.957604 37.37658
v 21.862116 -8.06569 38.3931
v -21.945808 -5.316957 38.70463
v -21.945808 -4.3004355 37.812717
v 21.862116 -5.316957 38.70463
v 21.862116 -4.3004355 37.812717
v 21.862116 5.8655887 -38.101624
v -21.945808 5.8655887 -38.101624
v -21.945808 4.9736753 -39.118145
v 21.862116 4.9736753 -39.118145
v -21.945808 2.3028288 -39.50756
v -21.945808 1.2863075 -38.615646
v 21.862116 2.3028288 -39.50756
v 21.862116 1.2863075 -38.615646
v -21.945808 -5.316957 38.70463
v -21.945808 -8.06569 38.3931
v -21.945808 -8.957604 37.37658
v -21.945808 -4.3004355 37.812717
v -21.945808 1.2863075 -38.615646
v -21.945808 5.8655887 -38.101624
v -21.945808 2.3028288 -39.50756
v -21.945808 4.9736753 -39.118145
vt 0.625 0.19516698
vt 0.375 0.06249343
vt 0.375 0.19516696
vt 0.625 0.062493697
vt 0.625 0.2529235
vt 0.375 0.25304055
vt 0.625 0.49666807
vt 0.375 0.4966691
vt 0.625 0.6951669
vt 0.375 0.56249374
vt 0.375 0.6951669
vt 0.625 0.56249374
vt 0.375 0.9966705
vt 0.625 0.99666804
vt 0.375 0.75304055
vt 0.625 0.7529235
vt 0.62833196 1.0244548E-08
vt 0.625 0.062493697
vt 0.625 0.19516698
vt 0.6279235 0.25
vt 0.8720765 4.0978193E-08
vt 0.87166804 0.24999999
vt 0.875 0.054833084
vt 0.875 0.18750626
vt 0.37166843 1.0219515E-05
vt 0.375 0.06249343
vt 0.62833196 1.0244548E-08
vt 0.625 0.062493697
vt 0.375 0.19516696
vt 0.375 0.25304055
vt 0.625 0.19516698
vt 0.625 0.2529235
vt 0.625 0.49666807
vt 0.375 0.4966691
vt 0.375 0.56249374
vt 0.625 0.56249374
vt 0.375 0.6951669
vt 0.375 0.75304055
vt 0.625 0.6951669
vt 0.625 0.7529235
vt 0.375 0.19516696
vt 0.375 0.06249343
vt 0.37166843 1.0219515E-05
vt 0.37207648 0.25
vt 0.1279235 7.9839964E-08
vt 0.12833193 0.24999999
vt 0.125 0.054833084
vt 0.125 0.18750626
vn -0 0 1
vn -0 0 1
vn -0 0 1
vn -0 0 1
vn -0 0.99115235 0.13272958
vn -0 0.99115235 0.13272958
vn -0 0.99115235 0.13272958
vn -0 0.99115235 0.13272958
vn -0 0 -1
vn -0 0 -1
vn -0 0 -1
vn -0 0 -1
vn -0 -0.9911522 -0.13272962
vn -0 -0.9911522 -0.13272962
vn -0 -0.9911522 -0.13272962
vn -0 -0.9911522 -0.13272962
vn 1 0 0
vn 1 0 0
vn 1 0 0
vn 1 0 0
vn 1 0 0
vn 1 0 0
vn 1 0 0
vn 1 0 0
vn -0 -0.7516756 0.6595331
vn -0 -0.7516756 0.6595331
vn -0 -0.7516756 0.6595331
vn -0 -0.7516756 0.6595331
vn -0 0.6595335 0.7516752
vn -0 0.6595335 0.7516752
vn -0 0.6595335 0.7516752
vn -0 0.6595335 0.7516752
vn -0 0.75167567 -0.65953296
vn -0 0.75167567 -0.65953296
vn -0 0.75167567 -0.65953296
vn -0 0.75167567 -0.65953296
vn -0 -0.6595335 -0.7516752
vn -0 -0.6595335 -0.7516752
vn -0 -0.6595335 -0.7516752
vn -0 -0.6595335 -0.7516752
vn -1 0 0
vn -1 0 0
vn -1 0 0
vn -1 0 0
vn -1 0 0
vn -1 0 0
vn -1 0 0
vn -1 0 0
g ENV_DF_Conveyor_Collision_0
f 3/3/3 2/2/2 1/1/1
f 2/2/2 4/4/4 1/1/1
f 7/7/7 6/6/6 5/5/5
f 7/7/7 8/8/8 6/6/6
f 11/11/11 10/10/10 9/9/9
f 10/10/10 12/12/12 9/9/9
f 15/15/15 14/14/14 13/13/13
f 15/15/15 16/16/16 14/14/14
f 19/19/19 18/18/18 17/17/17
f 17/17/17 20/20/20 19/19/19
f 21/21/21 20/20/20 17/17/17
f 21/21/21 22/22/22 20/20/20
f 22/22/22 21/21/21 23/23/23
f 23/23/23 24/24/24 22/22/22
f 27/27/27 26/26/26 25/25/25
f 26/26/26 27/27/27 28/28/28
f 31/31/31 30/30/30 29/29/29
f 30/30/30 31/31/31 32/32/32
f 35/35/35 34/34/34 33/33/33
f 33/33/33 36/36/36 35/35/35
f 39/39/39 38/38/38 37/37/37
f 38/38/38 39/39/39 40/40/40
f 43/43/43 42/42/42 41/41/41
f 41/41/41 44/44/44 43/43/43
f 45/45/45 43/43/43 44/44/44
f 44/44/44 46/46/46 45/45/45
f 46/46/46 47/47/47 45/45/45
f 46/46/46 48/48/48 47/47/47
