g ENV_S09_Cutout_corals_01k_MO
v -0 149.19598 -31.99578
v -0 159.61464 -28.071718
v -0 159.34402 -35.51359
v -0 158.26157 -27.395155
v -0 154.06705 -20.630156
v -0 159.61464 -26.447968
v -0 160.56178 -25.36578
v -0 155.96135 -19.547344
v -0 161.77954 -24.147655
v -0 160.8324 -18.87078
v -0 152.03745 -18.464844
v -0 137.01834 -36.596092
v -0 147.84291 -34.025467
v -0 147.16638 -36.596092
v -0 143.51308 -38.355156
v -0 137.83018 -40.113907
v -0 130.76517 -38.227654
v -0 134.98875 -39.572968
v -0 132.1473 -40.519844
v -0 110.84236 -50.459843
v -0 119.92436 -50.89234
v -0 150.68437 -16.164843
v -0 104.93186 -43.972656
v -0 152.71396 -6.2873435
v -0 152.71396 3.8604686
v -0 153.66113 11.032031
v -0 153.93175 49.18859
v -0 151.6315 55.277344
v -0 150.14314 59.471718
v -0 147.84291 62.854843
v -0 159.20871 48.647343
v -0 165.83876 48.647343
v -0 142.56595 63.260468
v -0 171.9276 51.75953
v -0 140.80695 68.94328
v -0 158.93811 13.061718
v -0 164.48569 13.061718
v -0 139.31857 72.86734
v -0 175.17496 12.655781
v -0 134.31221 75.43828
v -0 130.5236 74.6264
v -0 175.44559 55.683594
v -0 94.26411 77.055466
v -0 124.24914 81.812965
v -0 99.30967 -41.377968
v -0 110.84236 85.99328
v -0 122.519226 90.46234
v -0 101.616196 84.40734
v -0 113.06631 94.37359
v -0 116.46456 95.507965
v -0 82.92004 -39.05578
v -0 82.92004 74.6264
v -0 85.182106 -43.25203
v -0 94.84074 -45.270157
v -0 74.02298 -44.330467
v -0 47.64338 -52.633904
v -0 78.12315 79.50422
v -0 69.01852 80.05453
v -0 61.29256 81.01047
v -0 72.96598 -54.94578
v -0 53.309074 -61.390156
v -0 58.974773 -64.22328
v -0 70.048645 -62.162655
v -0 43.007805 84.79953
v -0 59.74737 86.74484
v -0 52.27895 91.04578
v -0 30.903814 81.45203
v -0 23.950457 82.73953
v -0 20.087479 96.646095
v -0 25.49565 90.46547
v -0 38.62977 -58.557343
v -0 36.569515 -67.57109
v -0 35.539383 -78.129845
v -0 30.388752 -88.68859
v -0 24.465523 -88.94609
v -0 24.207987 -95.89953
v -0 18.79982 -97.70219
v -0 15.451906 -101.050156
v -0 12.619056 -108.26093
v -0 0.5150635 -109.80609
v -0 0 100.25172
v -0 256.08862 55.954216
v -0 254.05898 59.336716
v -0 255.81798 59.471718
v -0 252.97656 55.683594
v -0 254.7071 52.62078
v -0 252.3298 53.755466
v -0 252.70593 50.27109
v -0 250.27043 52.165154
v -0 247.42896 47.42953
v -0 247.42896 51.624218
v -0 217.12015 56.76578
v -0 247.69957 57.17172
v -0 216.0377 60.82484
v -0 215.63179 53.38297
v -0 247.29364 69.75547
v -0 248.1055 43.370155
v -0 215.22588 70.97297
v -0 215.76709 83.15078
v -0 249.05263 33.76359
v -0 218.06732 5.078281
v -0 249.72916 26.998281
v -0 251.62349 24.427343
v -0 216.98486 90.186714
v -0 252.43535 22.532969
v -0 211.84319 51.624218
v -0 223.4796 93.43391
v -0 220.09691 93.83984
v -0 246.75244 88.42766
v -0 223.20898 95.86984
v -0 224.96799 100.87578
v -0 242.69319 102.228905
v -0 228.21535 107.10015
v -0 233.62761 109.80609
v -0 238.76929 108.58828
v -0 251.21756 15.091093
v -0 252.57062 19.150156
v -0 250.4057 9.814531
v -0 219.42038 2.2370312
v -0 220.50285 -7.9110937
v -0 248.91734 -10.887968
v -0 223.75018 -19.952969
v -0 247.02303 -21.306406
v -0 226.99757 -25.230469
v -0 231.4627 -29.695469
v -0 236.60439 -31.58953
v -0 243.09914 -30.236717
v -0 212.2491 5.4842186
v -0 205.21313 51.353592
v -0 202.10107 63.801716
v -0 174.63373 61.366405
v -0 200.07146 71.51421
v -0 174.63373 69.213905
v -0 198.85368 74.761406
v -0 194.52386 79.63265
v -0 193.0355 82.60953
v -0 174.76904 82.20359
v -0 190.19406 93.975464
v -0 175.8515 93.43391
v -0 178.15172 98.16984
v -0 181.80501 99.793594
v -0 186.94667 98.71109
v -0 207.24274 1.1545312
v -0 176.1221 4.6723437
v -0 177.6105 -3.0398438
v -0 179.50478 -6.2873435
v -0 181.9403 -8.181719
v -0 206.02498 -8.046406
v -0 209.81357 0.07234375
v -0 213.33156 4.1314063
v -0 215.36115 3.1842186
v -0 214.68463 -2.6339061
v -0 217.52606 0.61328125
v -0 205.48375 -20.900469
v -0 187.08199 -27.936718
v -0 189.3822 -30.507343
v -0 191.81773 -32.53703
v -0 200.07146 -31.724844
vt 0.050389826 0.9735695
vt 0.05015114 0.9748626
vt 0.050603747 0.974829
vt 0.050110012 0.9746946
vt 0.04969853 0.974174
vt 0.050052345 0.9748626
vt 0.04998657 0.97498024
vt 0.0496327 0.97440916
vt 0.049912483 0.97513133
vt 0.04959154 0.9750138
vt 0.049566865 0.9739221
vt 0.05066961 0.972058
vt 0.050513208 0.9734015
vt 0.05066961 0.97331756
vt 0.05077648 0.9728641
vt 0.050883472 0.97215873
vt 0.050768793 0.9712818
vt 0.05085063 0.97180605
vt 0.050908208 0.97145337
vt 0.05151272 0.9688091
vt 0.051539063 0.96993625
vt 0.049426973 0.9737542
vt 0.051118195 0.9680753
vt 0.048826218 0.9740061
vt 0.04820904 0.9740061
vt 0.047772914 0.97412366
vt 0.045452237 0.97415715
vt 0.04508193 0.9738717
vt 0.04482682 0.973687
vt 0.04462108 0.9734015
vt 0.045485154 0.97481215
vt 0.045485154 0.97563505
vt 0.04459642 0.97274655
vt 0.04529588 0.97639096
vt 0.044250786 0.9725283
vt 0.047649413 0.97477865
vt 0.047649413 0.9754672
vt 0.04401213 0.9723435
vt 0.04767409 0.9767939
vt 0.043855764 0.97172207
vt 0.043905146 0.9712519
vt 0.045057222 0.9768275
vt 0.0437574 0.96675134
vt 0.043468058 0.9704731
vt 0.05096042 0.9673776
vt 0.043213826 0.9688091
vt 0.042942025 0.9702583
vt 0.043310273 0.9676639
vt 0.042704146 0.9690851
vt 0.04263515 0.96950686
vt 0.0508191 0.96534336
vt 0.043905146 0.96534336
vt 0.051074326 0.96562415
vt 0.05119711 0.966823
vt 0.05113995 0.96423906
vt 0.05164492 0.96096486
vt 0.043608494 0.964748
vt 0.04357501 0.963618
vt 0.043516867 0.962659
vt 0.05178559 0.964108
vt 0.05217749 0.961668
vt 0.052349806 0.96237123
vt 0.052224517 0.9637458
vt 0.043286417 0.9603895
vt 0.043168113 0.9624672
vt 0.042906545 0.9615402
vt 0.043490022 0.95888716
vt 0.04341171 0.95802414
vt 0.042565934 0.9575446
vt 0.04294183 0.95821595
vt 0.05200517 0.959846
vt 0.052553415 0.95959044
vt 0.053195536 0.9594625
vt 0.053837776 0.9588233
vt 0.053853452 0.95808804
vt 0.054276347 0.9580561
vt 0.05438596 0.9573848
vt 0.05458957 0.95696926
vt 0.05502814 0.9566177
vt 0.055122137 0.9551154
vt 0.042346638 0.9550514
vt 0.04504077 0.98683685
vt 0.04483503 0.9865849
vt 0.04482682 0.98680323
vt 0.045057222 0.98645055
vt 0.0452435 0.98666537
vt 0.045174494 0.98637027
vt 0.04538639 0.98641694
vt 0.045271218 0.9861147
vt 0.045559227 0.98576194
vt 0.04530409 0.98576194
vt 0.044991404 0.9820001
vt 0.044966713 0.9857956
vt 0.044744536 0.98186564
vt 0.04519713 0.98181534
vt 0.04420139 0.9857452
vt 0.04580611 0.985846
vt 0.04412733 0.9817649
vt 0.043386705 0.98183215
vt 0.046390355 0.98596346
vt 0.048135012 0.98211765
vt 0.046801805 0.9860475
vt 0.046958208 0.98628265
vt 0.042958777 0.9819833
vt 0.047073424 0.9863834
vt 0.04530409 0.98134506
vt 0.042761292 0.9827894
vt 0.0427366 0.98236966
vt 0.04306577 0.985678
vt 0.04261314 0.9827558
vt 0.042308684 0.9829742
vt 0.042226378 0.9851742
vt 0.041930135 0.9833773
vt 0.041765556 0.98404896
vt 0.04183961 0.9846871
vt 0.047526002 0.98623216
vt 0.04727912 0.9864002
vt 0.047846943 0.9861315
vt 0.048307776 0.9822856
vt 0.048924983 0.98241985
vt 0.04910603 0.9859467
vt 0.049657375 0.982823
vt 0.04973966 0.9857116
vt 0.049978346 0.98322606
vt 0.050249904 0.98378026
vt 0.05036509 0.9844184
vt 0.050282806 0.98522455
vt 0.048110276 0.9813955
vt 0.045320585 0.9805223
vt 0.044563487 0.9801358
vt 0.044711605 0.9767268
vt 0.04409442 0.97988415
vt 0.04423432 0.9767268
vt 0.043896936 0.979733
vt 0.04360068 0.9791955
vt 0.04341963 0.9790108
vt 0.043444313 0.9767436
vt 0.042728357 0.97865814
vt 0.042761292 0.976878
vt 0.042473264 0.97716343
vt 0.0423745 0.9776168
vt 0.042440332 0.97825503
vt 0.04837361 0.98077416
vt 0.04815969 0.9769114
vt 0.048628718 0.9770962
vt 0.048826218 0.97733134
vt 0.048941433 0.9776336
vt 0.048933208 0.980623
vt 0.048439443 0.9810933
vt 0.04819259 0.98152995
vt 0.04825017 0.98178184
vt 0.04860401 0.9816978
vt 0.04840654 0.98205054
vt 0.049714953 0.9805558
vt 0.050142914 0.97827184
vt 0.050299257 0.9785573
vt 0.050422728 0.97885954
vt 0.050373256 0.97988415
vn 1 0 0
vn 1 0 0
vn 1 0 0
vn 1 0 0
vn 1 0 0
vn 1 0 0
vn 1 0 0
vn 1 0 0
vn 1 0 0
vn 1 0 0
vn 1 0 0
vn 1 0 0
vn 1 0 0
vn 1 0 0
vn 1 0 0
vn 1 0 0
vn 1 0 0
vn 1 0 0
vn 1 0 0
vn 1 0 0
vn 1 0 0
vn 1 0 0
vn 1 0 0
vn 1 0 0
vn 1 0 0
vn 1 0 0
vn 1 0 0
vn 1 0 0
vn 1 0 0
vn 1 0 0
vn 1 0 0
vn 1 0 0
vn 1 0 0
vn 1 0 0
vn 1 0 0
vn 1 0 0
vn 1 0 0
vn 1 0 0
vn 1 0 0
vn 1 0 0
vn 1 0 0
vn 1 0 0
vn 1 0 0
vn 1 0 0
vn 1 0 0
vn 1 0 0
vn 1 0 0
vn 1 0 0
vn 1 0 0
vn 1 0 0
vn 1 0 0
vn 1 0 0
vn 1 0 0
vn 1 0 0
vn 1 0 0
vn 1 0 0
vn 1 0 0
vn 1 0 0
vn 1 0 0
vn 1 0 0
vn 1 0 0
vn 1 0 0
vn 1 0 0
vn 1 0 0
vn 1 0 0
vn 1 0 0
vn 1 0 0
vn 1 0 0
vn 1 0 0
vn 1 0 0
vn 1 0 0
vn 1 0 0
vn 1 0 0
vn 1 0 0
vn 1 0 0
vn 1 0 0
vn 1 0 0
vn 1 0 0
vn 1 0 0
vn 1 0 0
vn 1 0 0
vn 1 0 0
vn 1 0 0
vn 1 0 0
vn 1 0 0
vn 1 0 0
vn 1 0 0
vn 1 0 0
vn 1 0 0
vn 1 0 0
vn 1 0 0
vn 1 0 0
vn 1 0 0
vn 1 0 0
vn 1 0 0
vn 1 0 0
vn 1 0 0
vn 1 0 0
vn 1 0 0
vn 1 0 0
vn 1 0 0
vn 1 0 0
vn 1 0 0
vn 1 0 0
vn 1 0 0
vn 1 0 0
vn 1 0 0
vn 1 0 0
vn 1 0 0
vn 1 0 0
vn 1 0 0
vn 1 0 0
vn 1 0 0
vn 1 0 0
vn 1 0 0
vn 1 0 0
vn 1 0 0
vn 1 0 0
vn 1 0 0
vn 1 0 0
vn 1 0 0
vn 1 0 0
vn 1 0 0
vn 1 0 0
vn 1 0 0
vn 1 0 0
vn 1 0 0
vn 1 0 0
vn 1 0 0
vn 1 0 0
vn 1 0 0
vn 1 0 0
vn 1 0 0
vn 1 0 0
vn 1 0 0
vn 1 0 0
vn 1 0 0
vn 1 0 0
vn 1 0 0
vn 1 0 0
vn 1 0 0
vn 1 0 0
vn 1 0 0
vn 1 0 0
vn 1 0 0
vn 1 0 0
vn 1 0 0
vn 1 0 0
vn 1 0 0
vn 1 0 0
vn 1 0 0
vn 1 0 0
vn 1 0 0
vn 1 0 0
vn 1 0 0
vn 1 0 0
vn 1 0 0
vn 1 0 0
g ENV_S09_Cutout_corals_01k_MO_0
f 3/3/3 2/2/2 1/1/1
f 2/2/2 4/4/4 1/1/1
f 4/4/4 5/5/5 1/1/1
f 5/5/5 4/4/4 6/6/6
f 5/5/5 6/6/6 7/7/7
f 8/8/8 5/5/5 7/7/7
f 8/8/8 7/7/7 9/9/9
f 10/10/10 8/8/8 9/9/9
f 5/5/5 11/11/11 1/1/1
f 11/11/11 12/12/12 1/1/1
f 12/12/12 13/13/13 1/1/1
f 13/13/13 12/12/12 14/14/14
f 12/12/12 15/15/15 14/14/14
f 15/15/15 12/12/12 16/16/16
f 12/12/12 11/11/11 17/17/17
f 12/12/12 17/17/17 18/18/18
f 18/18/18 17/17/17 19/19/19
f 17/17/17 11/11/11 20/20/20
f 17/17/17 20/20/20 21/21/21
f 20/20/20 11/11/11 22/22/22
f 23/23/23 20/20/20 22/22/22
f 23/23/23 22/22/22 24/24/24
f 25/25/25 23/23/23 24/24/24
f 23/23/23 25/25/25 26/26/26
f 27/27/27 23/23/23 26/26/26
f 23/23/23 27/27/27 28/28/28
f 23/23/23 28/28/28 29/29/29
f 23/23/23 29/29/29 30/30/30
f 31/31/31 27/27/27 26/26/26
f 31/31/31 26/26/26 32/32/32
f 33/33/33 23/23/23 30/30/30
f 32/32/32 26/26/26 34/34/34
f 23/23/23 33/33/33 35/35/35
f 34/34/34 26/26/26 36/36/36
f 34/34/34 36/36/36 37/37/37
f 38/38/38 23/23/23 35/35/35
f 34/34/34 37/37/37 39/39/39
f 23/23/23 38/38/38 40/40/40
f 41/41/41 23/23/23 40/40/40
f 42/42/42 34/34/34 39/39/39
f 23/23/23 41/41/41 43/43/43
f 41/41/41 44/44/44 43/43/43
f 23/23/23 43/43/43 45/45/45
f 43/43/43 44/44/44 46/46/46
f 46/46/46 44/44/44 47/47/47
f 48/48/48 43/43/43 46/46/46
f 49/49/49 46/46/46 47/47/47
f 49/49/49 47/47/47 50/50/50
f 51/51/51 45/45/45 43/43/43
f 52/52/52 51/51/51 43/43/43
f 45/45/45 51/51/51 53/53/53
f 54/54/54 45/45/45 53/53/53
f 52/52/52 55/55/55 51/51/51
f 55/55/55 52/52/52 56/56/56
f 52/52/52 57/57/57 56/56/56
f 58/58/58 56/56/56 57/57/57
f 59/59/59 56/56/56 58/58/58
f 60/60/60 55/55/55 56/56/56
f 61/61/61 60/60/60 56/56/56
f 60/60/60 61/61/61 62/62/62
f 63/63/63 60/60/60 62/62/62
f 59/59/59 64/64/64 56/56/56
f 64/64/64 59/59/59 65/65/65
f 66/66/66 64/64/64 65/65/65
f 64/64/64 67/67/67 56/56/56
f 68/68/68 56/56/56 67/67/67
f 56/56/56 68/68/68 69/69/69
f 69/69/69 68/68/68 70/70/70
f 71/71/71 56/56/56 69/69/69
f 71/71/71 69/69/69 72/72/72
f 72/72/72 69/69/69 73/73/73
f 74/74/74 73/73/73 69/69/69
f 75/75/75 74/74/74 69/69/69
f 76/76/76 75/75/75 69/69/69
f 77/77/77 76/76/76 69/69/69
f 77/77/77 69/69/69 78/78/78
f 78/78/78 69/69/69 79/79/79
f 80/80/80 79/79/79 69/69/69
f 81/81/81 80/80/80 69/69/69
f 84/84/84 83/83/83 82/82/82
f 83/83/83 85/85/85 82/82/82
f 82/82/82 85/85/85 86/86/86
f 85/85/85 87/87/87 86/86/86
f 86/86/86 87/87/87 88/88/88
f 87/87/87 89/89/89 88/88/88
f 88/88/88 89/89/89 90/90/90
f 89/89/89 91/91/91 90/90/90
f 91/91/91 92/92/92 90/90/90
f 92/92/92 91/91/91 93/93/93
f 94/94/94 92/92/92 93/93/93
f 92/92/92 95/95/95 90/90/90
f 94/94/94 93/93/93 96/96/96
f 95/95/95 97/97/97 90/90/90
f 98/98/98 94/94/94 96/96/96
f 99/99/99 98/98/98 96/96/96
f 97/97/97 95/95/95 100/100/100
f 95/95/95 101/101/101 100/100/100
f 100/100/100 101/101/101 102/102/102
f 102/102/102 101/101/101 103/103/103
f 104/104/104 99/99/99 96/96/96
f 105/105/105 103/103/103 101/101/101
f 95/95/95 106/106/106 101/101/101
f 107/107/107 104/104/104 96/96/96
f 104/104/104 107/107/107 108/108/108
f 109/109/109 107/107/107 96/96/96
f 107/107/107 109/109/109 110/110/110
f 111/111/111 110/110/110 109/109/109
f 112/112/112 111/111/111 109/109/109
f 113/113/113 111/111/111 112/112/112
f 114/114/114 113/113/113 112/112/112
f 114/114/114 112/112/112 115/115/115
f 116/116/116 105/105/105 101/101/101
f 105/105/105 116/116/116 117/117/117
f 118/118/118 116/116/116 101/101/101
f 119/119/119 118/118/118 101/101/101
f 118/118/118 119/119/119 120/120/120
f 121/121/121 118/118/118 120/120/120
f 121/121/121 120/120/120 122/122/122
f 123/123/123 121/121/121 122/122/122
f 123/123/123 122/122/122 124/124/124
f 125/125/125 123/123/123 124/124/124
f 123/123/123 125/125/125 126/126/126
f 127/127/127 123/123/123 126/126/126
f 106/106/106 128/128/128 101/101/101
f 128/128/128 106/106/106 39/39/39
f 106/106/106 129/129/129 39/39/39
f 129/129/129 42/42/42 39/39/39
f 42/42/42 129/129/129 130/130/130
f 131/131/131 42/42/42 130/130/130
f 131/131/131 130/130/130 132/132/132
f 133/133/133 131/131/131 132/132/132
f 133/133/133 132/132/132 134/134/134
f 135/135/135 133/133/133 134/134/134
f 133/133/133 135/135/135 136/136/136
f 137/137/137 133/133/133 136/136/136
f 137/137/137 136/136/136 138/138/138
f 139/139/139 137/137/137 138/138/138
f 140/140/140 139/139/139 138/138/138
f 141/141/141 140/140/140 138/138/138
f 141/141/141 138/138/138 142/142/142
f 144/144/144 143/143/143 39/39/39
f 143/143/143 144/144/144 145/145/145
f 146/146/146 143/143/143 145/145/145
f 143/143/143 128/128/128 39/39/39
f 143/143/143 146/146/146 147/147/147
f 148/148/148 143/143/143 147/147/147
f 128/128/128 143/143/143 149/149/149
f 150/150/150 128/128/128 149/149/149
f 151/151/151 150/150/150 149/149/149
f 152/152/152 151/151/151 149/149/149
f 151/151/151 152/152/152 153/153/153
f 154/154/154 148/148/148 147/147/147
f 155/155/155 154/154/154 147/147/147
f 154/154/154 155/155/155 156/156/156
f 154/154/154 156/156/156 157/157/157
f 158/158/158 154/154/154 157/157/157
