g ENV_S09_Bar_B_MO
v 0.0994409 -0.24007122 9.234875E-10
v 1.315107E-07 -0.25985122 -1.9184147
v 1.315107E-07 -0.25985128 -2.3749509E-07
v 0.0994409 -0.24007116 -1.9184147
v 0.1837427 -0.18374245 9.234875E-10
v 0.1837427 -0.18374245 -1.9184152
v 0.2400713 -0.09944062 9.234875E-10
v 0.2400713 -0.09944062 -1.9184133
v 0.25985122 -4.49502E-08 9.234875E-10
v 0.25985122 -4.49502E-08 -1.9184142
v 0.24007118 0.09944077 9.234875E-10
v 0.24007118 0.09944077 -1.9184142
v 0.18374252 0.18374248 9.234875E-10
v 0.18374252 0.1837426 -1.9184142
v 0.09944075 0.24007113 9.234875E-10
v 0.09944075 0.24007125 -1.9184142
v -3.8688505E-08 0.25985128 9.234875E-10
v -3.8688505E-08 0.25985122 -1.9184142
v -0.09944081 0.24007113 -2.3749509E-07
v -0.09944081 0.24007119 -1.9184142
v -0.18374264 0.18374248 9.234875E-10
v -0.18374264 0.18374254 -1.9184142
v -0.2400713 0.09944065 -2.3749509E-07
v -0.2400713 0.09944065 -1.9184142
v -0.25985122 -1.6415949E-07 9.234875E-10
v -0.25985122 -4.49502E-08 -1.9184147
v -0.24007118 -0.09944086 9.234875E-10
v -0.24007118 -0.09944086 -1.9184133
v -0.18374246 -0.18374269 9.234875E-10
v -0.18374246 -0.18374263 -1.9184147
v -0.099440634 -0.24007122 9.234875E-10
v -0.099440634 -0.24007128 -1.9184147
v 1.315107E-07 -0.25985128 -2.3749509E-07
v 1.315107E-07 -0.25985122 -1.9184147
vt 0.82169944 0.02342892
vt 0.8326336 0.23046333
vt 0.8326413 0.02342928
vt 0.8216918 0.23046297
vt 0.81075764 0.023428438
vt 0.81075 0.23046254
vt 0.79981583 0.023428198
vt 0.7998082 0.23046194
vt 0.78887403 0.023427717
vt 0.7888664 0.23046164
vt 0.77793217 0.023427235
vt 0.77792454 0.23046128
vt 0.76699036 0.023426995
vt 0.76698273 0.23046085
vt 0.75604856 0.023426514
vt 0.7560409 0.23046038
vt 0.7451068 0.023426032
vt 0.745099 0.23046008
vt 0.73416495 0.023425791
vt 0.7341572 0.23045954
vt 0.7232231 0.02342531
vt 0.72321546 0.23045923
vt 0.7122812 0.023424828
vt 0.7122736 0.23045875
vt 0.7013394 0.023424467
vt 0.7013318 0.23045851
vt 0.6903976 0.023423987
vt 0.69038993 0.23045786
vt 0.67945576 0.023423625
vt 0.6794481 0.2304576
vt 0.66851395 0.023423264
vt 0.6685063 0.23045725
vt 0.6575721 0.023422783
vt 0.65756446 0.23045677
vn 0.38268405 -0.9238793 0
vn -0 -1 0
vn -0 -1 0
vn 0.3826842 -0.9238792 0
vn 0.7071072 -0.70710635 0
vn 0.7071066 -0.70710695 0
vn 0.92387974 -0.3826831 0
vn 0.92387944 -0.3826836 0
vn 1 0 0
vn 1 0 0
vn 0.92387944 0.38268355 0
vn 0.92387944 0.38268355 0
vn 0.7071068 0.7071067 0
vn 0.7071068 0.7071067 0
vn 0.38268375 0.92387944 0
vn 0.38268366 0.92387944 0
vn -0 1 0
vn -0 1 0
vn -0.38268372 0.92387944 0
vn -0.38268375 0.92387944 0
vn -0.7071068 0.70710665 0
vn -0.7071069 0.70710665 0
vn -0.92387974 0.38268292 0
vn -0.9238798 0.38268268 0
vn -1 0 0
vn -1 0 0
vn -0.92387944 -0.38268378 0
vn -0.92387944 -0.38268378 0
vn -0.70710635 -0.7071072 0
vn -0.70710576 -0.7071078 0
vn -0.38268316 -0.9238796 0
vn -0.3826831 -0.92387974 0
vn -0 -1 0
vn -0 -1 0
g ENV_S09_Bar_B_MO_0
f 3/3/3 2/2/2 1/1/1
f 2/2/2 4/4/4 1/1/1
f 1/1/1 4/4/4 5/5/5
f 4/4/4 6/6/6 5/5/5
f 5/5/5 6/6/6 7/7/7
f 6/6/6 8/8/8 7/7/7
f 7/7/7 8/8/8 9/9/9
f 8/8/8 10/10/10 9/9/9
f 9/9/9 10/10/10 11/11/11
f 10/10/10 12/12/12 11/11/11
f 11/11/11 12/12/12 13/13/13
f 12/12/12 14/14/14 13/13/13
f 13/13/13 14/14/14 15/15/15
f 14/14/14 16/16/16 15/15/15
f 15/15/15 16/16/16 17/17/17
f 16/16/16 18/18/18 17/17/17
f 17/17/17 18/18/18 19/19/19
f 18/18/18 20/20/20 19/19/19
f 19/19/19 20/20/20 21/21/21
f 20/20/20 22/22/22 21/21/21
f 21/21/21 22/22/22 23/23/23
f 22/22/22 24/24/24 23/23/23
f 23/23/23 24/24/24 25/25/25
f 24/24/24 26/26/26 25/25/25
f 25/25/25 26/26/26 27/27/27
f 26/26/26 28/28/28 27/27/27
f 27/27/27 28/28/28 29/29/29
f 28/28/28 30/30/30 29/29/29
f 29/29/29 30/30/30 31/31/31
f 30/30/30 32/32/32 31/31/31
f 31/31/31 32/32/32 33/33/33
f 32/32/32 34/34/34 33/33/33
