g ENV_S04_Path_M_HardPlastic_White_MO
v 28.56874 -0.62002563 -4.806181
v 28.566996 -0.5449772 -4.8855934
v 28.556524 -0.60606384 -4.8716297
v 28.594921 -0.5441036 -4.806181
v 28.594921 0.5441036 -4.806181
v 28.566996 0.5449772 -4.8855934
v 28.594921 -0.56853867 4.8053093
v 28.594921 0.56853867 4.8053093
v 28.56874 0.62002563 -4.806181
v 28.56874 -0.6444607 4.8053093
v 28.501547 -0.66365814 -4.806181
v 28.501547 -0.6514416 4.8053093
v 28.501547 -0.64533234 4.88472
v 28.556524 -0.63137054 4.870758
v 28.566996 -0.5702839 4.88472
v 28.566996 0.5702839 4.88472
v 28.56874 0.6444607 4.8053093
v 28.556524 0.60606384 -4.8716297
v 28.501547 0.62002563 -4.8855934
v 28.501547 0.66365814 -4.806181
v 28.556524 0.63137054 4.870758
v 28.501547 0.64533234 4.88472
v 28.501547 0.66365814 4.8053093
v 27.601833 0.62002563 -4.886465
v 27.601833 0.66365814 -4.8087997
v 28.499802 0.57115555 4.9187546
v 28.566996 -0.5702839 4.88472
v 27.601833 0.64533234 4.8855934
v 27.601833 0.66365814 4.807926
v 27.601833 0.57115555 4.9187546
v 28.499802 -0.57115746 4.9187546
v -27.569546 0.64533234 4.8855934
v -27.569546 0.66365814 4.807926
v -28.501545 0.66365814 4.8053093
v 28.501547 -0.64533234 4.88472
v 28.556524 -0.63137054 4.870758
v -27.569546 0.57115555 4.9187546
v 27.601833 -0.57115746 4.9187546
v 27.601833 -0.64533234 4.8855934
v 28.501547 -0.6514416 4.8053093
v 27.601833 -0.6514416 4.807926
v -27.569546 -0.57115746 4.9187546
v -27.569546 -0.64533234 4.8855934
v -27.569546 -0.6514416 4.807926
v -28.501545 -0.6514416 4.8053093
v -28.501545 -0.64533234 4.88472
v -28.499802 -0.57115746 4.9187546
v -28.499802 0.57115555 4.9187546
v -28.501545 0.64533234 4.88472
v -28.566994 0.5702839 4.88472
v -28.499802 -0.57115746 4.9187546
v -28.566994 -0.5702839 4.88472
v -28.501545 -0.64533234 4.88472
v -28.56874 0.6444607 4.8053093
v -28.556522 0.63137054 4.870758
v -28.594921 0.56853867 4.8053093
v -28.56874 0.62002563 -4.806181
v -28.501545 0.66365814 -4.806181
v -28.594921 0.5441036 -4.806181
v -28.594921 -0.56853867 4.8053093
v -28.556522 -0.63137054 4.870758
v -28.56874 -0.6444607 4.8053093
v -28.501545 -0.6514416 4.8053093
v -28.594921 -0.5441036 -4.806181
v -28.56874 -0.62002563 -4.806181
v -28.501545 -0.66365814 -4.806181
v -28.501545 -0.62002563 -4.8855934
v -28.566994 0.5449772 -4.8855934
v -28.566994 -0.5449772 -4.8855934
v -28.556522 -0.60606384 -4.8716297
v -28.499802 -0.54584885 -4.9187546
v -28.499802 0.54584885 -4.9187546
v -28.556522 0.60606384 -4.8716297
v -28.501545 0.62002563 -4.8855934
v -27.569546 0.54584885 -4.9187546
v -28.499802 -0.54584885 -4.9187546
v -27.569546 0.62002563 -4.886465
v -27.569546 0.66365814 -4.8087997
v -27.569546 -0.54584885 -4.9187546
v -28.501545 -0.62002563 -4.8855934
v 27.601833 0.54584885 -4.9187546
v 28.499802 0.54584885 -4.9187546
v 27.601833 -0.54584885 -4.9187546
v 28.499802 -0.54584885 -4.9187546
v 28.566996 -0.5449772 -4.8855934
v 28.501547 -0.62002563 -4.8855934
v 28.556524 -0.60606384 -4.8716297
v 28.56874 -0.62002563 -4.806181
v 28.501547 -0.66365814 -4.806181
v 27.601833 -0.62002563 -4.886465
v 27.601833 -0.66365814 -4.8087997
v -27.569546 -0.62002563 -4.886465
v -27.569546 -0.66365814 -4.8087997
v -28.501545 -0.66365814 -4.806181
vt -1.9668865 0.6830678
vt -1.9617426 0.6787813
vt -1.9651718 0.6787813
vt -1.9617426 0.68392515
vt -1.9000161 0.6916411
vt -1.8974441 0.6864972
vt -1.9728876 1.2523236
vt -1.90516 1.2523236
vt -1.8957295 0.6924982
vt -1.9771743 1.2523236
vt -1.971173 0.6830678
vt -1.9814608 1.2523236
vt -1.9806035 1.2574675
vt -1.9771743 1.2566102
vt -1.9728876 1.2574675
vt -1.9034454 1.2574675
vt -1.9008734 1.2514663
vt -1.8948722 0.68906903
vt -1.8914429 0.68906903
vt -1.8905857 0.69335556
vt -1.9008734 1.2548957
vt -1.8974441 1.255753
vt -1.8965868 1.2514663
vt -1.8382895 0.6882117
vt -1.8382895 0.69335556
vt -1.8983015 1.2600396
vt -1.9068745 1.3251953
vt -1.8442907 1.2608969
vt -1.8442907 1.2566102
vt -1.8442907 1.2660408
vt -1.9017307 1.3260527
vt 1.3869219 1.2608969
vt 1.3869219 1.2566102
vt 1.4409325 1.2566102
vt -1.902588 1.3303392
vt -1.9060173 1.3294818
vt 1.3869219 1.2660408
vt -1.8460053 1.332911
vt -1.8460053 1.3371978
vt -1.9034454 1.3354831
vt -1.8460053 1.3423417
vt 1.390351 1.332911
vt 1.390351 1.3371978
vt 1.3912084 1.3423417
vt 1.4460764 1.340627
vt 1.4460764 1.3354831
vt 1.4460764 1.3311965
vt 1.4443617 1.2651834
vt 1.4417899 1.2608969
vt 1.4469337 1.261754
vt 1.5138042 1.2746139
vt 1.5138042 1.2703273
vt 1.5198054 1.2720418
vt 1.445219 1.2566102
vt 1.4443617 1.2600396
vt 1.4495056 1.2566102
vt 1.4503629 0.70021415
vt 1.4460764 0.70021415
vt 1.4555068 0.70021415
vt 1.5146616 1.2651834
vt 1.5180907 1.26947
vt 1.5189481 1.2660408
vt 1.5232346 1.2668979
vt 1.5198054 0.69849944
vt 1.5249493 0.69849944
vt 1.5292358 0.69849944
vt 1.5258064 0.6924982
vt 1.452935 0.69507027
vt 1.5198054 0.69335556
vt 1.5232346 0.6942129
vt 1.5198054 0.68906903
vt 1.4503629 0.69078374
vt 1.4503629 0.696785
vt 1.4477911 0.69507027
vt 1.3920658 0.6830678
vt 1.4503629 0.6239133
vt 1.3920658 0.6873543
vt 1.3912084 0.6924982
vt 1.3937802 0.6187694
vt 1.4503629 0.61962676
vt -1.8391469 0.6830678
vt -1.8923002 0.68563986
vt -1.8434334 0.61962676
vt -1.8974441 0.6239133
vt -1.9017307 0.6239133
vt -1.8974441 0.6187694
vt -1.9008734 0.61962676
vt -1.9034454 0.61619735
vt -1.8991587 0.6136255
vt -1.8434334 0.6144829
vt -1.8442907 0.609339
vt 1.3937802 0.6144829
vt 1.3929231 0.609339
vt 1.4512203 0.6136255
vn 0.722557 -0.6913113 -0
vn 0.756857 -0.0039215684 -0.6535688
vn 0.62352467 -0.59215236 -0.5104631
vn 0.9999924 -0.0039215684 -0
vn 0.9999924 0.003921509 -0
vn 0.756857 0.003921509 -0.6535688
vn 0.9999924 -0.0039215684 -0
vn 0.9999924 0.003921509 -0
vn 0.722557 0.69131124 -0
vn 0.722557 -0.6913113 -0
vn 0.027440673 -0.9996234 -0
vn 0.027440673 -0.9996234 -0
vn 0.019607723 -0.76470006 0.64408803
vn 0.62352467 -0.59999543 0.501221
vn 0.756857 -0.0039215684 0.6535688
vn 0.756857 0.003921509 0.6535688
vn 0.722557 0.69131124 -0
vn 0.62352467 0.59215224 -0.5104633
vn 0.019607723 0.7568569 -0.6532864
vn 0.027440675 0.9996234 -0
vn 0.62352467 0.5999954 0.50122106
vn 0.019607723 0.76469994 0.64408815
vn 0.027440675 0.9996234 -0
vn 0.0039215684 0.7568569 -0.6535688
vn -0.003921509 0.99999225 -0.00034526698
vn 0.035293877 0.011764526 0.9993077
vn 0.756857 -0.0039215684 0.6535688
vn 0.0039215684 0.7568569 0.6535688
vn -0.003921509 0.99999225 -0.00034526698
vn -0.003921509 0.011764526 0.9999231
vn 0.035293877 -0.011764646 0.9993077
vn -0.003921509 0.7568569 0.6535688
vn -0.003921509 0.99999225 -0.00034526698
vn -0.027440555 0.9996234 -0
vn 0.019607723 -0.76470006 0.64408803
vn 0.62352467 -0.59999543 0.501221
vn -0.003921509 0.011764526 0.9999231
vn -0.003921509 -0.011764646 0.9999231
vn 0.0039215684 -0.756857 0.6535688
vn 0.027440673 -0.9996234 -0
vn -0.003921509 -0.9999924 -0
vn -0.003921509 -0.011764646 0.9999231
vn -0.003921509 -0.756857 0.6535688
vn -0.003921509 -0.9999924 -0
vn -0.027440554 -0.9996234 -0
vn -0.019607663 -0.76470006 0.64408803
vn -0.035293818 -0.011764646 0.9993077
vn -0.035293818 0.011764526 0.9993077
vn -0.019607663 0.76469994 0.64408815
vn -0.7568569 0.003921509 0.6535688
vn -0.035293818 -0.011764646 0.9993077
vn -0.7568569 -0.0039215684 0.6535688
vn -0.019607663 -0.76470006 0.64408803
vn -0.722557 0.6913113 -0
vn -0.62352455 0.5999954 0.5012212
vn -0.99999225 0.003921509 -0.00034492963
vn -0.722557 0.6913113 -0
vn -0.027440555 0.9996234 -0
vn -0.99999225 0.003921509 -0.00034492963
vn -0.99999225 -0.0039215684 -0.00034425134
vn -0.62352455 -0.59999543 0.5012211
vn -0.722557 -0.69131136 -0
vn -0.027440554 -0.9996234 -0
vn -0.99999225 -0.0039215684 -0.00034425134
vn -0.722557 -0.69131136 -0
vn -0.027440554 -0.9996234 -0
vn -0.019607663 -0.756857 -0.6532864
vn -0.7568569 0.003921509 -0.6535688
vn -0.7568569 -0.0039215684 -0.6535688
vn -0.62352455 -0.59215236 -0.51046324
vn -0.035293818 -0.011764646 -0.9993077
vn -0.035293818 0.011764526 -0.9993077
vn -0.62352455 0.59215224 -0.5104634
vn -0.019607663 0.7568569 -0.6532864
vn -0.003921509 0.011764526 -0.9999231
vn -0.035293818 -0.011764646 -0.9993077
vn -0.003921509 0.7568569 -0.6535688
vn -0.003921509 0.99999225 -0.00034526698
vn -0.003921509 -0.011764646 -0.9999231
vn -0.019607663 -0.756857 -0.6532864
vn -0.003921509 0.011764526 -0.9999231
vn 0.035293877 0.011764526 -0.9993077
vn -0.003921509 -0.011764646 -0.9999231
vn 0.035293877 -0.011764646 -0.9993077
vn 0.756857 -0.0039215684 -0.6535688
vn 0.019607723 -0.756857 -0.6532864
vn 0.62352467 -0.59215236 -0.5104631
vn 0.722557 -0.6913113 -0
vn 0.027440673 -0.9996234 -0
vn 0.0039215684 -0.756857 -0.6535688
vn -0.003921509 -0.9999924 -0
vn -0.003921509 -0.756857 -0.6535688
vn -0.003921509 -0.9999924 -0
vn -0.027440554 -0.9996234 -0
g ENV_S04_Path_M_HardPlastic_White_MO_0
f 3/3/3 2/2/2 1/1/1
f 2/2/2 4/4/4 1/1/1
f 4/4/4 2/2/2 5/5/5
f 2/2/2 6/6/6 5/5/5
f 4/4/4 7/7/7 1/1/1
f 4/4/4 5/5/5 8/8/8
f 7/7/7 4/4/4 8/8/8
f 5/5/5 6/6/6 9/9/9
f 8/8/8 5/5/5 9/9/9
f 7/7/7 10/10/10 1/1/1
f 1/1/1 10/10/10 11/11/11
f 10/10/10 12/12/12 11/11/11
f 12/12/12 10/10/10 13/13/13
f 10/10/10 14/14/14 13/13/13
f 15/15/15 14/14/14 10/10/10
f 7/7/7 15/15/15 10/10/10
f 15/15/15 7/7/7 16/16/16
f 7/7/7 8/8/8 16/16/16
f 17/17/17 8/8/8 9/9/9
f 16/16/16 8/8/8 17/17/17
f 6/6/6 18/18/18 9/9/9
f 9/9/9 18/18/18 19/19/19
f 19/19/19 18/18/18 6/6/6
f 17/17/17 9/9/9 20/20/20
f 20/20/20 9/9/9 19/19/19
f 21/21/21 16/16/16 17/17/17
f 21/21/21 17/17/17 22/22/22
f 21/21/21 22/22/22 16/16/16
f 23/23/23 17/17/17 20/20/20
f 17/17/17 23/23/23 22/22/22
f 19/19/19 24/24/24 20/20/20
f 24/24/24 25/25/25 20/20/20
f 22/22/22 26/26/26 16/16/16
f 27/27/27 16/16/16 26/26/26
f 28/28/28 22/22/22 23/23/23
f 29/29/29 28/28/28 23/23/23
f 30/30/30 26/26/26 22/22/22
f 28/28/28 30/30/30 22/22/22
f 31/31/31 27/27/27 26/26/26
f 31/31/31 26/26/26 30/30/30
f 32/32/32 28/28/28 29/29/29
f 33/33/33 32/32/32 29/29/29
f 32/32/32 33/33/33 34/34/34
f 31/31/31 35/35/35 27/27/27
f 35/35/35 36/36/36 27/27/27
f 37/37/37 30/30/30 28/28/28
f 32/32/32 37/37/37 28/28/28
f 38/38/38 31/31/31 30/30/30
f 31/31/31 38/38/38 35/35/35
f 38/38/38 30/30/30 37/37/37
f 38/38/38 39/39/39 35/35/35
f 35/35/35 39/39/39 40/40/40
f 39/39/39 41/41/41 40/40/40
f 38/38/38 42/42/42 39/39/39
f 42/42/42 38/38/38 37/37/37
f 39/39/39 43/43/43 41/41/41
f 42/42/42 43/43/43 39/39/39
f 43/43/43 44/44/44 41/41/41
f 44/44/44 43/43/43 45/45/45
f 43/43/43 46/46/46 45/45/45
f 43/43/43 42/42/42 46/46/46
f 42/42/42 47/47/47 46/46/46
f 47/47/47 42/42/42 48/48/48
f 42/42/42 37/37/37 48/48/48
f 37/37/37 32/32/32 49/49/49
f 48/48/48 37/37/37 49/49/49
f 49/49/49 32/32/32 34/34/34
f 48/48/48 49/49/49 50/50/50
f 51/51/51 48/48/48 50/50/50
f 52/52/52 51/51/51 50/50/50
f 53/53/53 51/51/51 52/52/52
f 34/34/34 54/54/54 49/49/49
f 49/49/49 55/55/55 50/50/50
f 54/54/54 55/55/55 49/49/49
f 50/50/50 55/55/55 54/54/54
f 52/52/52 50/50/50 56/56/56
f 56/56/56 50/50/50 54/54/54
f 54/54/54 34/34/34 57/57/57
f 34/34/34 58/58/58 57/57/57
f 56/56/56 54/54/54 59/59/59
f 54/54/54 57/57/57 59/59/59
f 60/60/60 52/52/52 56/56/56
f 60/60/60 56/56/56 59/59/59
f 61/61/61 53/53/53 52/52/52
f 61/61/61 52/52/52 62/62/62
f 61/61/61 62/62/62 53/53/53
f 52/52/52 60/60/60 62/62/62
f 62/62/62 63/63/63 53/53/53
f 64/64/64 60/60/60 59/59/59
f 62/62/62 60/60/60 64/64/64
f 63/63/63 62/62/62 65/65/65
f 65/65/65 62/62/62 64/64/64
f 66/66/66 63/63/63 65/65/65
f 66/66/66 65/65/65 67/67/67
f 64/64/64 59/59/59 68/68/68
f 68/68/68 59/59/59 57/57/57
f 64/64/64 69/69/69 65/65/65
f 69/69/69 64/64/64 68/68/68
f 65/65/65 70/70/70 67/67/67
f 69/69/69 70/70/70 65/65/65
f 67/67/67 70/70/70 69/69/69
f 71/71/71 67/67/67 69/69/69
f 71/71/71 69/69/69 72/72/72
f 69/69/69 68/68/68 72/72/72
f 73/73/73 68/68/68 57/57/57
f 73/73/73 57/57/57 74/74/74
f 73/73/73 74/74/74 68/68/68
f 74/74/74 72/72/72 68/68/68
f 57/57/57 58/58/58 74/74/74
f 75/75/75 72/72/72 74/74/74
f 76/76/76 72/72/72 75/75/75
f 77/77/77 74/74/74 58/58/58
f 77/77/77 75/75/75 74/74/74
f 78/78/78 77/77/77 58/58/58
f 77/77/77 78/78/78 25/25/25
f 24/24/24 77/77/77 25/25/25
f 75/75/75 77/77/77 24/24/24
f 79/79/79 76/76/76 75/75/75
f 76/76/76 79/79/79 80/80/80
f 81/81/81 75/75/75 24/24/24
f 79/79/79 75/75/75 81/81/81
f 81/81/81 24/24/24 19/19/19
f 82/82/82 81/81/81 19/19/19
f 82/82/82 19/19/19 6/6/6
f 83/83/83 81/81/81 82/82/82
f 83/83/83 79/79/79 81/81/81
f 84/84/84 82/82/82 6/6/6
f 84/84/84 83/83/83 82/82/82
f 85/85/85 84/84/84 6/6/6
f 86/86/86 84/84/84 85/85/85
f 83/83/83 84/84/84 86/86/86
f 87/87/87 86/86/86 85/85/85
f 87/87/87 88/88/88 86/86/86
f 88/88/88 89/89/89 86/86/86
f 90/90/90 83/83/83 86/86/86
f 90/90/90 86/86/86 89/89/89
f 79/79/79 83/83/83 90/90/90
f 91/91/91 90/90/90 89/89/89
f 92/92/92 79/79/79 90/90/90
f 92/92/92 90/90/90 91/91/91
f 79/79/79 92/92/92 80/80/80
f 93/93/93 92/92/92 91/91/91
f 80/80/80 92/92/92 94/94/94
f 92/92/92 93/93/93 94/94/94
