g ENV_SY01_Bluejay_CentralPlatform_SideVinyl_03_MO
v -2.3599172 4.0090213 8.541846
v -2.4407434 3.9845204 8.559527
v -2.458929 3.9097567 8.540584
v -2.3599172 3.9271846 8.499918
v 2.360071 4.0090213 8.541846
v -2.3599172 3.2022762 8.499918
v -2.458929 3.192173 8.541341
v 2.360071 3.9271846 8.499918
v -2.3599172 3.0886145 8.536542
v -2.4407434 3.1030116 8.556496
v 2.360071 3.2022762 8.499918
v 2.360071 3.0886145 8.536542
v 2.4590828 3.192173 8.541341
v 2.440897 3.1030116 8.556496
v 2.4590828 3.9097567 8.540584
v 2.440897 3.9845204 8.559527
v -2.458929 3.9097567 8.540584
v -2.4407434 3.9845204 8.559527
v -2.458929 3.9789639 8.636312
v -2.5001001 3.8728795 8.6401005
v -2.458929 3.192173 8.541341
v -2.5001001 0.044756413 13.91299
v -2.458929 0.14730453 13.916526
v -2.458929 0.015709639 14.011497
v -2.4407434 0.104870796 13.996341
v -2.5001001 -0.36972976 13.430812
v -2.458929 -0.45156598 13.498504
v -2.5001001 3.163126 8.6401005
v -2.458929 -0.46343732 13.3808
v -2.4407434 -0.50688136 13.444451
v -2.458929 3.0605779 8.636312
v -2.4407434 3.1030116 8.556496
v -2.458929 3.9789639 8.636312
v -2.4407434 3.9845204 8.559527
v -2.3599172 4.0090213 8.541846
v -2.3599172 4.022913 8.632775
v -2.458929 0.14730453 13.916526
v 2.360071 4.022913 8.632775
v 2.360071 4.0090213 8.541846
v -2.3599172 0.19554758 13.920062
v 2.4590828 3.9789639 8.636312
v 2.440897 3.9845204 8.559527
v 2.360071 0.19554758 13.920062
v 2.4590828 0.14730453 13.916526
v 2.360071 0.11926794 14.016295
v 2.440897 0.104870796 13.996341
v -2.3599172 0.11926794 14.016295
v -2.4407434 0.104870796 13.996341
v -2.458929 0.015709639 14.011497
v -2.4407434 0.104870796 13.996341
v -2.3599172 0.11926794 14.016295
v -2.3599172 0.0056061745 14.05292
v -2.458929 -0.45156598 13.498504
v 2.360071 0.0056061745 14.05292
v 2.360071 0.11926794 14.016295
v 2.4590828 0.015709639 14.011497
v 2.440897 0.104870796 13.996341
v 2.360071 -0.4869275 13.524772
v 2.4590828 -0.45156598 13.498504
v -2.3599172 -0.4869275 13.524772
v 2.360071 -0.53668594 13.447482
v 2.440897 -0.50688136 13.444451
v -2.3599172 -0.53668594 13.447482
v -2.4407434 -0.50688136 13.444451
v 2.4590828 0.015709639 14.011497
v 2.440897 0.104870796 13.996341
v 2.4590828 0.14730453 13.916526
v 2.500001 0.044756413 13.91299
v 2.4590828 -0.45156598 13.498504
v 2.500001 3.8728795 8.6401005
v 2.4590828 3.9789639 8.636312
v 2.4590828 3.9097567 8.540584
v 2.440897 3.9845204 8.559527
v 2.500001 3.163126 8.6401005
v 2.4590828 3.192173 8.541341
v 2.500001 -0.36972976 13.430812
v 2.4590828 3.0605779 8.636312
v 2.440897 3.1030116 8.556496
v 2.4590828 -0.46343732 13.3808
v 2.440897 -0.50688136 13.444451
v -2.458929 -0.46343732 13.3808
v -2.4407434 -0.50688136 13.444451
v -2.3599172 -0.53668594 13.447482
v -2.3599172 -0.50309265 13.361856
v -2.458929 3.0605779 8.636312
v 2.360071 -0.50309265 13.361856
v 2.360071 -0.53668594 13.447482
v 2.4590828 -0.46343732 13.3808
v 2.440897 -0.50688136 13.444451
v 2.360071 3.017892 8.632775
v 2.4590828 3.0605779 8.636312
v -2.3599172 3.017892 8.632775
v 2.360071 3.0886145 8.536542
v 2.440897 3.1030116 8.556496
v -2.3599172 3.0886145 8.536542
v -2.4407434 3.1030116 8.556496
vt 0.51188415 0.9784478
vt 0.51188415 0.98701733
vt 0.5214059 0.98701733
vt 0.52616674 0.97368693
vt 0.51188415 0.52331024
vt 0.6004361 0.97368693
vt 0.6032926 0.98701733
vt 0.52616674 0.5280711
vt 0.6147186 0.9784478
vt 0.6147186 0.98701733
vt 0.6004361 0.5280711
vt 0.6147186 0.52235806
vt 0.6032926 0.5147407
vt 0.6147186 0.5147407
vt 0.5214059 0.5147407
vt 0.51188415 0.5147407
vt 0.6051969 0.98701733
vt 0.6147186 0.98701733
vt 0.6147186 0.9794
vt 0.5994839 0.97273475
vt 0.52235806 0.98701733
vt 0.5994839 0.5290233
vt 0.6147186 0.5242624
vt 0.6032926 0.5147407
vt 0.6147186 0.5147407
vt 0.5271189 0.5290233
vt 0.5214059 0.5147407
vt 0.5271189 0.97273475
vt 0.51188415 0.52235806
vt 0.51188415 0.5147407
vt 0.51188415 0.9774956
vt 0.51188415 0.98701733
vt 0.48046255 0.98035216
vt 0.4890321 0.98035216
vt 0.4890321 0.97273475
vt 0.47474954 0.96702176
vt 0.022468489 0.98035216
vt 0.47474954 0.51950157
vt 0.4890321 0.5147407
vt 0.027229343 0.96702176
vt 0.48046255 0.50617117
vt 0.4890321 0.50617117
vt 0.027229343 0.51950157
vt 0.022468489 0.50617117
vt 0.012946784 0.5147407
vt 0.012946784 0.50617117
vt 0.012946784 0.97273475
vt 0.012946784 0.98035216
vt 0.6032926 0.98701733
vt 0.6147186 0.98701733
vt 0.6147186 0.9784478
vt 0.6004361 0.97368693
vt 0.5214059 0.98701733
vt 0.6004361 0.5280711
vt 0.6147186 0.52235806
vt 0.6032926 0.5147407
vt 0.6147186 0.5147407
vt 0.52616674 0.5280711
vt 0.5214059 0.5147407
vt 0.52616674 0.97368693
vt 0.51188415 0.52331024
vt 0.51188415 0.5147407
vt 0.51188415 0.9784478
vt 0.51188415 0.98701733
vt 0.6032926 0.98701733
vt 0.6147186 0.98701733
vt 0.6147186 0.9774956
vt 0.5994839 0.97273475
vt 0.5214059 0.98701733
vt 0.5994839 0.5290233
vt 0.6147186 0.52235806
vt 0.6051969 0.5147407
vt 0.6147186 0.5147407
vt 0.5271189 0.5290233
vt 0.52235806 0.5147407
vt 0.5271189 0.97273475
vt 0.51188415 0.5242624
vt 0.51188415 0.5147407
vt 0.51188415 0.9794
vt 0.51188415 0.98701733
vt 0.02151632 0.98035216
vt 0.012946784 0.98035216
vt 0.012946784 0.97273475
vt 0.027229343 0.96702176
vt 0.4795104 0.98035216
vt 0.027229343 0.51950157
vt 0.012946784 0.5147407
vt 0.02151632 0.50617117
vt 0.012946784 0.50617117
vt 0.47474954 0.51950157
vt 0.4795104 0.50617117
vt 0.47474954 0.96702176
vt 0.4890321 0.5147407
vt 0.4890321 0.50617117
vt 0.4890321 0.97273475
vt 0.4890321 0.98035216
vn -0.0039196014 0.811362 -0.58453083
vn -0.6232201 0.6310594 -0.46190986
vn -0.67025554 0.03527665 -0.7412915
vn -0.0039196014 0.050955176 -0.9986932
vn 0.0039196014 0.811362 -0.58453083
vn -0.0117589235 -0.043115795 -0.9990009
vn -0.7251303 -0.02743733 -0.6880648
vn 0.0039196014 0.050955176 -0.9986932
vn -0.0039196014 -0.58402383 -0.81172705
vn -0.5605061 -0.4821136 -0.6733494
vn 0.011758804 -0.043115795 -0.9990009
vn 0.0039196014 -0.58402383 -0.81172705
vn 0.7251302 -0.02743733 -0.68806493
vn 0.5605061 -0.4821136 -0.6733494
vn 0.67025554 0.03527665 -0.7412915
vn 0.62322 0.6310594 -0.46191
vn -0.67025554 0.03527665 -0.7412915
vn -0.6232201 0.6310594 -0.46190986
vn -0.5683454 0.67025554 0.47722214
vn -0.99166465 0.09799063 0.083660275
vn -0.7251303 -0.02743733 -0.6880648
vn -0.9993778 0.0352722 -0
vn -0.7172911 0.5605061 0.41391593
vn -0.6388986 -0.5056313 0.5797806
vn -0.5683454 0.4742744 0.6723446
vn -0.9987031 -0.050914228 -0
vn -0.69377327 -0.5448276 0.4710006
vn -0.99950397 -0.019598067 -0.024652325
vn -0.67809486 -0.59186304 -0.43575853
vn -0.6232201 -0.780005 0.056470416
vn -0.75648725 -0.52914906 -0.3843544
vn -0.5605061 -0.4821136 -0.6733494
vn -0.5683454 0.67025554 0.47722214
vn -0.6232201 0.6310594 -0.46190986
vn -0.0039196014 0.811362 -0.58453083
vn -0.0039196014 0.81920123 0.57349277
vn -0.7172911 0.5605061 0.41391593
vn 0.0039196014 0.81920123 0.57349277
vn 0.0039196014 0.811362 -0.58453083
vn -0.0117589235 0.811362 0.5844257
vn 0.5683453 0.67025554 0.47722226
vn 0.62322 0.6310594 -0.46191
vn 0.011758804 0.811362 0.5844257
vn 0.717291 0.5605061 0.41391608
vn 0.0039196014 0.57618463 0.81731015
vn 0.5683453 0.4742744 0.6723447
vn -0.0039196014 0.57618463 0.81731015
vn -0.5683454 0.4742744 0.6723446
vn -0.6388986 -0.5056313 0.5797806
vn -0.5683454 0.4742744 0.6723446
vn -0.0039196014 0.57618463 0.81731015
vn -0.0039196014 -0.6310593 0.7757247
vn -0.69377327 -0.5448276 0.4710006
vn 0.0039196014 -0.6310593 0.7757247
vn 0.0039196014 0.57618463 0.81731015
vn 0.6388985 -0.5056313 0.5797807
vn 0.5683453 0.4742744 0.6723447
vn 0.0039196014 -0.748648 0.6629561
vn 0.69377327 -0.5448276 0.4710006
vn -0.0039196014 -0.748648 0.6629561
vn 0.0039196014 -0.9916646 0.12878643
vn 0.62322 -0.780005 0.056471474
vn -0.0039196014 -0.9916646 0.12878643
vn -0.6232201 -0.780005 0.056470416
vn 0.6388985 -0.5056313 0.5797807
vn 0.5683453 0.4742744 0.6723447
vn 0.717291 0.5605061 0.41391608
vn 0.9993778 0.035272203 -0
vn 0.69377327 -0.5448276 0.4710006
vn 0.9916646 0.09799063 0.08366098
vn 0.5683453 0.67025554 0.47722226
vn 0.67025554 0.03527665 -0.7412915
vn 0.62322 0.6310594 -0.46191
vn 0.99950385 -0.019598067 -0.02465716
vn 0.7251302 -0.02743733 -0.68806493
vn 0.9987031 -0.050914235 -0
vn 0.75648725 -0.52914906 -0.3843544
vn 0.5605061 -0.4821136 -0.6733494
vn 0.67809474 -0.59186304 -0.43575868
vn 0.62322 -0.780005 0.056471474
vn -0.67809486 -0.59186304 -0.43575853
vn -0.6232201 -0.780005 0.056470416
vn -0.0039196014 -0.9916646 0.12878643
vn -0.0039196014 -0.8035227 -0.5952612
vn -0.75648725 -0.52914906 -0.3843544
vn 0.0039196014 -0.8035227 -0.5952612
vn 0.0039196014 -0.9916646 0.12878643
vn 0.67809474 -0.59186304 -0.43575868
vn 0.62322 -0.780005 0.056471474
vn 0.011758804 -0.8035227 -0.595158
vn 0.75648725 -0.52914906 -0.3843544
vn -0.0117589235 -0.8035227 -0.595158
vn 0.0039196014 -0.58402383 -0.81172705
vn 0.5605061 -0.4821136 -0.6733494
vn -0.0039196014 -0.58402383 -0.81172705
vn -0.5605061 -0.4821136 -0.6733494
g ENV_SY01_Bluejay_CentralPlatform_SideVinyl_03_MO_0
f 3/3/3 2/2/2 1/1/1
f 4/4/4 3/3/3 1/1/1
f 1/1/1 5/5/5 4/4/4
f 4/4/4 6/6/6 3/3/3
f 6/6/6 7/7/7 3/3/3
f 5/5/5 8/8/8 4/4/4
f 6/6/6 4/4/4 8/8/8
f 6/6/6 9/9/9 7/7/7
f 9/9/9 10/10/10 7/7/7
f 9/9/9 6/6/6 11/11/11
f 11/11/11 6/6/6 8/8/8
f 12/12/12 9/9/9 11/11/11
f 11/11/11 13/13/13 12/12/12
f 13/13/13 11/11/11 8/8/8
f 13/13/13 14/14/14 12/12/12
f 15/15/15 13/13/13 8/8/8
f 8/8/8 5/5/5 15/15/15
f 5/5/5 16/16/16 15/15/15
f 19/19/19 18/18/18 17/17/17
f 20/20/20 19/19/19 17/17/17
f 17/17/17 21/21/21 20/20/20
f 20/20/20 22/22/22 19/19/19
f 22/22/22 23/23/23 19/19/19
f 22/22/22 24/24/24 23/23/23
f 24/24/24 25/25/25 23/23/23
f 22/22/22 26/26/26 24/24/24
f 22/22/22 20/20/20 26/26/26
f 26/26/26 27/27/27 24/24/24
f 21/21/21 28/28/28 20/20/20
f 20/20/20 28/28/28 26/26/26
f 26/26/26 29/29/29 27/27/27
f 26/26/26 28/28/28 29/29/29
f 29/29/29 30/30/30 27/27/27
f 28/28/28 31/31/31 29/29/29
f 28/28/28 21/21/21 31/31/31
f 21/21/21 32/32/32 31/31/31
f 35/35/35 34/34/34 33/33/33
f 36/36/36 35/35/35 33/33/33
f 33/33/33 37/37/37 36/36/36
f 36/36/36 38/38/38 35/35/35
f 38/38/38 39/39/39 35/35/35
f 37/37/37 40/40/40 36/36/36
f 38/38/38 36/36/36 40/40/40
f 38/38/38 41/41/41 39/39/39
f 41/41/41 42/42/42 39/39/39
f 41/41/41 38/38/38 43/43/43
f 43/43/43 38/38/38 40/40/40
f 44/44/44 41/41/41 43/43/43
f 43/43/43 45/45/45 44/44/44
f 45/45/45 43/43/43 40/40/40
f 45/45/45 46/46/46 44/44/44
f 47/47/47 45/45/45 40/40/40
f 40/40/40 37/37/37 47/47/47
f 37/37/37 48/48/48 47/47/47
f 51/51/51 50/50/50 49/49/49
f 52/52/52 51/51/51 49/49/49
f 49/49/49 53/53/53 52/52/52
f 52/52/52 54/54/54 51/51/51
f 54/54/54 55/55/55 51/51/51
f 54/54/54 56/56/56 55/55/55
f 56/56/56 57/57/57 55/55/55
f 54/54/54 58/58/58 56/56/56
f 58/58/58 54/54/54 52/52/52
f 58/58/58 59/59/59 56/56/56
f 53/53/53 60/60/60 52/52/52
f 60/60/60 58/58/58 52/52/52
f 58/58/58 61/61/61 59/59/59
f 61/61/61 58/58/58 60/60/60
f 61/61/61 62/62/62 59/59/59
f 63/63/63 61/61/61 60/60/60
f 60/60/60 53/53/53 63/63/63
f 53/53/53 64/64/64 63/63/63
f 67/67/67 66/66/66 65/65/65
f 68/68/68 67/67/67 65/65/65
f 65/65/65 69/69/69 68/68/68
f 68/68/68 70/70/70 67/67/67
f 70/70/70 71/71/71 67/67/67
f 70/70/70 72/72/72 71/71/71
f 72/72/72 73/73/73 71/71/71
f 70/70/70 74/74/74 72/72/72
f 74/74/74 70/70/70 68/68/68
f 74/74/74 75/75/75 72/72/72
f 69/69/69 76/76/76 68/68/68
f 76/76/76 74/74/74 68/68/68
f 74/74/74 77/77/77 75/75/75
f 77/77/77 74/74/74 76/76/76
f 77/77/77 78/78/78 75/75/75
f 79/79/79 77/77/77 76/76/76
f 76/76/76 69/69/69 79/79/79
f 69/69/69 80/80/80 79/79/79
f 83/83/83 82/82/82 81/81/81
f 84/84/84 83/83/83 81/81/81
f 81/81/81 85/85/85 84/84/84
f 84/84/84 86/86/86 83/83/83
f 86/86/86 87/87/87 83/83/83
f 86/86/86 88/88/88 87/87/87
f 88/88/88 89/89/89 87/87/87
f 86/86/86 90/90/90 88/88/88
f 90/90/90 86/86/86 84/84/84
f 90/90/90 91/91/91 88/88/88
f 85/85/85 92/92/92 84/84/84
f 92/92/92 90/90/90 84/84/84
f 90/90/90 93/93/93 91/91/91
f 90/90/90 92/92/92 93/93/93
f 93/93/93 94/94/94 91/91/91
f 92/92/92 95/95/95 93/93/93
f 92/92/92 85/85/85 95/95/95
f 85/85/85 96/96/96 95/95/95
