g ENV_S06_G8_Section04_SmallRamp_Vinyl_MO
v 15.135541 10.415966 -8.450045
v 15.212641 10.106258 -8.423909
v 15.212206 10.405949 -8.423473
v 15.1368475 10.112358 -8.450045
v 5.60126 10.419016 -8.450045
v 15.138155 10.033951 -8.427394
v 15.20088 10.04397 -8.414762
v 15.227887 10.010429 -8.365104
v 15.151222 9.981243 -8.36946
v 5.604309 9.980808 -8.36946
v 5.604745 10.034386 -8.428265
v 5.604309 10.110615 -8.450045
v 5.5267735 10.408562 -8.415632
v 5.527644 10.107567 -8.41781
v 5.542019 10.04484 -8.411277
v 18.046616 6.4795036 -0.5278969
v 18.031805 6.1985455 -0.45297432
v 18.032677 6.456852 -0.45036125
v 18.042696 6.2338295 -0.5396576
v 17.291296 7.5105553 -3.1340551
v 17.29478 7.7723465 -3.1244726
v 16.380033 8.786844 -5.728018
v 16.382647 9.065189 -5.721484
v 15.875179 9.42499 -7.025217
v 15.876922 9.711611 -7.01999
v 15.260992 10.375893 -8.355956
v 16.380033 8.786844 -5.728018
v 15.2596855 10.08143 -8.359877
v 15.212206 10.405949 -8.423473
v 15.212641 10.106258 -8.423909
v 15.227887 10.010429 -8.365104
v 15.20088 10.04397 -8.414762
v 15.842945 9.352682 -7.0300083
v 15.151222 9.981243 -8.36946
v 15.766281 9.323061 -7.033929
v 16.3478 8.71323 -5.732809
v 17.291296 7.5105553 -3.1340551
v 16.27157 8.682737 -5.735858
v 17.259062 7.4338894 -3.1379757
v 18.042696 6.2338295 -0.5396576
v 17.182398 7.402092 -3.140154
v 18.00959 6.1545506 -0.5431423
v 18.031805 6.1985455 -0.45297432
v 17.933361 6.1218815 -0.544014
v 18.01351 6.1410465 -0.47301102
v 17.952963 6.120575 -0.45602417
v 5.4962816 10.3763275 -8.336354
v 5.527644 10.107567 -8.41781
v 5.5267735 10.408562 -8.415632
v 5.4962816 10.084915 -8.346374
v 5.500202 9.711611 -7.0016947
v 5.527644 10.010864 -8.35857
v 5.542019 10.04484 -8.411277
v 5.604745 10.034386 -8.428265
v 5.604309 9.980808 -8.36946
v 5.607358 9.322189 -7.0326214
v 5.531129 9.353117 -7.023039
v 5.606922 8.681431 -5.7336807
v 5.500202 9.429346 -7.011277
v 5.500202 9.0647545 -5.7044954
v 5.531129 8.71323 -5.724969
v 5.6056156 7.399914 -3.1357975
v 5.500202 8.791201 -5.714079
v 5.500202 7.771475 -3.110098
v 5.530694 7.4334545 -3.128828
v 5.604745 6.1188316 -0.5379162
v 5.530694 6.153679 -0.533123
v 5.500202 7.5149097 -3.1201162
v 5.500202 6.477762 -0.5156994
v 5.500202 6.2390556 -0.5257187
v 5.531129 6.4551105 -0.44426346
v 5.5298223 6.205515 -0.44600487
v 5.530694 6.153679 -0.533123
v 5.5433254 6.14279 -0.46647835
v 5.6082296 6.4520607 -0.41202927
v 5.5298223 6.205515 -0.44600487
v 5.531129 6.4551105 -0.44426346
v 5.6025667 6.193754 -0.41202927
v 17.95732 6.453804 -0.41202927
v 5.6030025 6.1218815 -0.4534111
v 5.5433254 6.14279 -0.46647835
v 17.952963 6.120575 -0.45602417
v 17.957754 6.185478 -0.41202927
v 18.032677 6.456852 -0.45036125
v 18.031805 6.1985455 -0.45297432
v 18.01351 6.1410465 -0.47301102
v 17.933361 6.1218815 -0.544014
v 5.6030025 6.1218815 -0.4534111
v 17.952963 6.120575 -0.45602417
v 5.604745 6.1188316 -0.5379162
v 5.530694 6.153679 -0.533123
v 5.5433254 6.14279 -0.46647835
v 15.231372 10.463882 -8.342453
v 15.201752 10.472158 -8.402129
v 15.212206 10.405949 -8.423473
v 15.260992 10.375893 -8.355956
v 5.531129 6.4551105 -0.44426346
v 5.5459394 6.5182724 -0.45079613
v 5.6091003 6.5287266 -0.43424416
v 5.6082296 6.4520607 -0.41202927
v 17.95732 6.453804 -0.41202927
v 5.5315647 6.552248 -0.5035038
v 5.531129 6.4551105 -0.44426346
v 5.500202 6.477762 -0.5156994
v 17.950785 6.5295963 -0.43467903
v 18.032677 6.456852 -0.45036125
v 18.014818 6.519579 -0.4555874
v 5.6091003 6.582304 -0.4934845
v 5.5315647 7.8494473 -3.0996437
v 5.500202 7.771475 -3.110098
v 18.014381 6.5535545 -0.51047325
v 18.032677 6.456852 -0.45036125
v 18.046616 6.4795036 -0.5278969
v 17.29478 7.7723465 -3.1244726
v 17.93162 6.5831757 -0.4952278
v 5.607794 7.8812447 -3.090932
v 17.262981 7.8511887 -3.1083555
v 16.382647 9.065189 -5.721484
v 5.531129 9.1466465 -5.695348
v 5.500202 9.0647545 -5.7044954
v 17.183268 7.882988 -3.0944166
v 16.351719 9.148823 -5.7066736
v 15.876922 9.711611 -7.01999
v 5.6060514 9.180187 -5.688814
v 5.530694 9.795244 -6.9934187
v 5.500202 9.711611 -7.0016947
v 15.846866 9.797422 -7.005615
v 15.260992 10.375893 -8.355956
v 15.231372 10.463882 -8.342453
v 16.275055 9.1823635 -5.6936054
v 5.6056156 9.829657 -6.98732
v 15.771508 9.83227 -6.992983
v 5.5272093 10.461704 -8.329385
v 5.4962816 10.3763275 -8.336354
v 5.5267735 10.408562 -8.415632
v 5.5402765 10.472593 -8.395596
v 15.157321 10.500036 -8.330256
v 5.60126 10.496986 -8.324158
v 5.6008244 10.493067 -8.408663
v 5.5267735 10.408562 -8.415632
v 5.60126 10.419016 -8.450045
v 15.1394615 10.492632 -8.40997
v 15.201752 10.472158 -8.402129
v 15.135541 10.415966 -8.450045
v 15.212206 10.405949 -8.423473
vt 0.37698576 0.87516403
vt 0.37889814 0.8722955
vt 0.37889814 0.87516403
vt 0.37698576 0.8722955
vt 0.12741852 0.87516403
vt 0.37698576 0.87133926
vt 0.37889814 0.87133926
vt 0.37889814 0.8694269
vt 0.37698576 0.8694269
vt 0.12741852 0.8694269
vt 0.12741852 0.87133926
vt 0.12741852 0.8722955
vt 0.12550612 0.87516403
vt 0.12550612 0.8722955
vt 0.12550612 0.87133926
vt 0.37889814 0.62177205
vt 0.37889814 0.61603487
vt 0.37889814 0.61890346
vt 0.37889814 0.61699104
vt 0.37889814 0.7001801
vt 0.37889814 0.7059173
vt 0.37889814 0.7843254
vt 0.37889814 0.7862378
vt 0.37889814 0.82544184
vt 0.37889814 0.82831043
vt 0.37889814 0.8703831
vt 0.37889814 0.7843254
vt 0.37889814 0.8675145
vt 0.37889814 0.87516403
vt 0.37889814 0.8722955
vt 0.37889814 0.8694269
vt 0.37889814 0.87133926
vt 0.37889814 0.82448566
vt 0.37698576 0.8694269
vt 0.37698576 0.82448566
vt 0.37889814 0.7833692
vt 0.37889814 0.7001801
vt 0.37698576 0.7833692
vt 0.37889814 0.69922394
vt 0.37889814 0.61699104
vt 0.37698576 0.69922394
vt 0.37889814 0.6179472
vt 0.37889814 0.61603487
vt 0.37698576 0.6179472
vt 0.37889814 0.61603487
vt 0.37698576 0.61603487
vt 0.12550612 0.87420785
vt 0.12550612 0.8722955
vt 0.12550612 0.87516403
vt 0.12550612 0.87133926
vt 0.12550612 0.83309144
vt 0.12550612 0.8694269
vt 0.12550612 0.87133926
vt 0.12741852 0.87133926
vt 0.12741852 0.8694269
vt 0.12741852 0.8292666
vt 0.12550612 0.8292666
vt 0.12741852 0.7881502
vt 0.12550612 0.83022285
vt 0.12550612 0.7910188
vt 0.12550612 0.7881502
vt 0.12741852 0.7040049
vt 0.12550612 0.7881502
vt 0.12550612 0.7078297
vt 0.12550612 0.7040049
vt 0.12741852 0.6179472
vt 0.12550612 0.6179472
vt 0.12550612 0.7049611
vt 0.12550612 0.62464064
vt 0.12550612 0.62177205
vt 0.12550612 0.61890346
vt 0.12550612 0.61603487
vt 0.12550612 0.6179472
vt 0.12550612 0.61603487
vt 0.12741852 0.61890346
vt 0.12550612 0.61603487
vt 0.12550612 0.61890346
vt 0.12741852 0.61603487
vt 0.37698576 0.61890346
vt 0.12741852 0.61603487
vt 0.12550612 0.61603487
vt 0.37698576 0.61603487
vt 0.37698576 0.61603487
vt 0.37889814 0.61890346
vt 0.37889814 0.61603487
vt 0.37889814 0.61603487
vt 0.37698576 0.6179472
vt 0.12741852 0.61603487
vt 0.37698576 0.61603487
vt 0.12741852 0.6179472
vt 0.12550612 0.6179472
vt 0.12550612 0.61603487
vt 0.4907731 0.98608285
vt 0.4907731 0.9899076
vt 0.48981693 0.9899076
vt 0.4907731 0.98130184
vt 0.013631143 0.50702846
vt 0.013631143 0.5089408
vt 0.017455928 0.5089408
vt 0.017455928 0.50702846
vt 0.48790455 0.50702846
vt 0.013631143 0.51276565
vt 0.013631143 0.50702846
vt 0.013631143 0.5165904
vt 0.48790455 0.5089408
vt 0.4907731 0.50702846
vt 0.4907731 0.5089408
vt 0.017455928 0.51276565
vt 0.013631143 0.66958183
vt 0.013631143 0.67436284
vt 0.4907731 0.51276565
vt 0.4907731 0.50702846
vt 0.4907731 0.51276565
vt 0.4907731 0.66958183
vt 0.48790455 0.51276565
vt 0.017455928 0.66958183
vt 0.4907731 0.66958183
vt 0.4907731 0.82257324
vt 0.013631143 0.82831043
vt 0.013631143 0.831179
vt 0.48790455 0.66958183
vt 0.4907731 0.82831043
vt 0.4907731 0.90193754
vt 0.017455928 0.82831043
vt 0.013631143 0.90767473
vt 0.013631143 0.90958714
vt 0.4907731 0.90767473
vt 0.4907731 0.98130184
vt 0.4907731 0.98608285
vt 0.48790455 0.82831043
vt 0.017455928 0.90767473
vt 0.48790455 0.90767473
vt 0.013631143 0.98608285
vt 0.013631143 0.9879952
vt 0.013631143 0.9899076
vt 0.013631143 0.9899076
vt 0.48790455 0.98608285
vt 0.017455928 0.98608285
vt 0.017455928 0.9899076
vt 0.013631143 0.9899076
vt 0.017455928 0.9899076
vt 0.48790455 0.9899076
vt 0.4907731 0.9899076
vt 0.48790455 0.9899076
vt 0.48981693 0.9899076
vn 0.0030477047 0.10637522 -0.99432135
vn 0.60487354 -0.034311414 -0.795582
vn 0.5814258 0.082927346 -0.8093622
vn 0.0030477047 -0.057759166 -0.9983259
vn -0.0047682524 0.10637522 -0.9943146
vn 0.0030477047 -0.5345302 -0.84514385
vn 0.46418697 -0.42510736 -0.7770548
vn 0.5814258 -0.5892417 -0.56101537
vn 0.04994321 -0.753376 -0.65569067
vn -0.059479594 -0.7611919 -0.6457934
vn -0.0047682524 -0.5267143 -0.850029
vn -0.0047682524 -0.057759166 -0.99831915
vn -0.7003851 0.082927346 -0.7089314
vn -0.72383285 -0.034311414 -0.6891217
vn -0.55969846 -0.43292326 -0.7066223
vn 0.97222173 0.06729555 -0.22417895
vn 0.79245555 -0.10465467 0.600884
vn 0.82371926 0.0438478 0.56529987
vn 0.940958 -0.120286524 -0.31643188
vn 0.940958 -0.089022815 -0.32660818
vn 0.9565899 0.09855926 -0.27426603
vn 0.9253262 -0.07339096 -0.3720015
vn 0.948774 0.10637522 -0.2975101
vn 0.9096944 -0.07339096 -0.40874186
vn 0.9331421 0.0907433 -0.34786695
vn 0.9175103 0.12200701 -0.37853563
vn 0.9253262 -0.07339096 -0.3720015
vn 0.8940625 -0.04994321 -0.44514933
vn 0.5814258 0.082927346 -0.8093622
vn 0.60487354 -0.034311414 -0.795582
vn 0.5814258 -0.5892417 -0.56101537
vn 0.46418697 -0.42510736 -0.7770548
vn 0.60487354 -0.5892417 -0.5356512
vn 0.04994321 -0.753376 -0.65569067
vn 0.33131635 -0.78463966 -0.5239943
vn 0.61268944 -0.5970576 -0.5178164
vn 0.940958 -0.089022815 -0.32660818
vn 0.33913225 -0.79245555 -0.50695515
vn 0.6283213 -0.5970576 -0.49873295
vn 0.940958 -0.120286524 -0.31643188
vn 0.33913225 -0.79245555 -0.50695515
vn 0.62050533 -0.62050533 -0.47952712
vn 0.79245555 -0.10465467 0.600884
vn 0.06557506 -0.9956695 -0.06589491
vn 0.6830327 -0.69866455 0.21291827
vn 0.0030477047 -0.8549829 0.5186472
vn -0.9895741 0.114191055 0.08776978
vn -0.72383285 -0.034311414 -0.6891217
vn -0.7003851 0.082927346 -0.7089314
vn -0.99739003 -0.057759166 -0.04332459
vn -0.9965613 0.08285844 -0
vn -0.72383285 -0.62050533 -0.3017269
vn -0.55969846 -0.43292326 -0.7066223
vn -0.0047682524 -0.5267143 -0.850029
vn -0.059479594 -0.7611919 -0.6457934
vn -0.38774824 -0.82371926 -0.4136882
vn -0.7003851 -0.6439531 -0.30787194
vn -0.3955642 -0.82371926 -0.4062211
vn -0.99604034 -0.08890235 -0
vn -0.9951531 0.09833822 -0
vn -0.72383285 -0.62050533 -0.3017269
vn -0.40338016 -0.82371926 -0.39846084
vn -0.9973037 -0.073384605 -0
vn -0.9958868 0.09060654 -0
vn -0.72383285 -0.62050533 -0.3017269
vn -0.06729555 -0.9956695 -0.064137004
vn -0.6847532 -0.65958494 -0.30993673
vn -0.99604034 -0.08890235 -0
vn -0.99739003 0.06729555 0.026162002
vn -0.9895741 -0.12810242 -0.065824784
vn -0.72383285 0.0438478 0.6885807
vn -0.70820093 -0.089022815 0.70037585
vn -0.6847532 -0.65958494 -0.30993673
vn -0.6613054 -0.65176904 0.37131152
vn -0.0047682524 0.06729555 0.9977217
vn -0.70820093 -0.089022815 0.70037585
vn -0.72383285 0.0438478 0.6885807
vn -0.0047682524 -0.12810242 0.99174947
vn 0.0030477047 0.059479594 0.99822485
vn -0.0047682524 -0.8784307 0.47784594
vn -0.6613054 -0.65176904 0.37131152
vn 0.0030477047 -0.8549829 0.5186472
vn 0.0030477047 -0.120286524 0.99273455
vn 0.82371926 0.0438478 0.56529987
vn 0.79245555 -0.10465467 0.600884
vn 0.6830327 -0.69866455 0.21291827
vn 0.06557506 -0.9956695 -0.06589491
vn -0.0047682524 -0.8784307 0.47784594
vn 0.0030477047 -0.8549829 0.5186472
vn -0.06729555 -0.9956695 -0.064137004
vn -0.6847532 -0.65958494 -0.30993673
vn -0.6613054 -0.65176904 0.37131152
vn 0.6904324 0.72339684 -0
vn 0.5657939 0.6222259 -0.54102886
vn 0.5814258 0.082927346 -0.8093622
vn 0.9175103 0.12200701 -0.37853563
vn -0.72383285 0.0438478 0.6885807
vn -0.55969846 0.43464375 0.70556533
vn -0.0047682524 0.52843475 0.8489605
vn -0.0047682524 0.06729555 0.9977217
vn 0.0030477047 0.059479594 0.99822485
vn -0.72383285 0.6144099 0.31395292
vn -0.72383285 0.0438478 0.6885807
vn -0.99739003 0.06729555 0.026162002
vn 0.0030477047 0.504987 0.8631215
vn 0.82371926 0.0438478 0.56529987
vn 0.6283213 0.4893552 0.60476756
vn -0.0047682524 0.8879671 0.45988226
vn -0.70820093 0.6378577 0.30263674
vn -0.9958868 0.09060654 -0
vn 0.74556005 0.6534895 0.13073531
vn 0.82371926 0.0438478 0.56529987
vn 0.97222173 0.06729555 -0.22417895
vn 0.9565899 0.09855926 -0.27426603
vn 0.0030477047 0.8879671 0.45989686
vn -0.0047682524 0.89578307 0.44446597
vn 0.7221123 0.6847532 0.09832049
vn 0.948774 0.10637522 -0.2975101
vn -0.7003851 0.6378577 0.32030967
vn -0.9951531 0.09833822 -0
vn 0.0030477047 0.89578307 0.44448105
vn 0.71429634 0.69256914 0.100641474
vn 0.9331421 0.0907433 -0.34786695
vn -0.0047682524 0.89578307 0.44446597
vn -0.7316487 0.6144099 0.29528064
vn -0.9965613 0.08285844 -0
vn 0.753376 0.6534895 0.0733221
vn 0.9175103 0.12200701 -0.37853563
vn 0.6904324 0.72339684 -0
vn 0.0030477047 0.89578307 0.44448105
vn -0.0047682524 0.89578307 0.44446597
vn 0.0030477047 0.89578307 0.44448105
vn -0.69256914 0.6534895 0.30544963
vn -0.9895741 0.114191055 0.08776978
vn -0.7003851 0.082927346 -0.7089314
vn -0.6534895 0.64567363 -0.39504066
vn 0.0030477047 0.9035989 0.42836863
vn -0.0047682524 0.9035989 0.42835298
vn -0.0047682524 0.83325565 -0.55286735
vn -0.7003851 0.082927346 -0.7089314
vn -0.0047682524 0.10637522 -0.9943146
vn 0.0030477047 0.8567034 -0.51580036
vn 0.5657939 0.6222259 -0.54102886
vn 0.0030477047 0.10637522 -0.99432135
vn 0.5814258 0.082927346 -0.8093622
g ENV_S06_G8_Section04_SmallRamp_Vinyl_MO_0
f 3/3/3 2/2/2 1/1/1
f 2/2/2 4/4/4 1/1/1
f 1/1/1 4/4/4 5/5/5
f 4/4/4 2/2/2 6/6/6
f 2/2/2 7/7/7 6/6/6
f 6/6/6 7/7/7 8/8/8
f 9/9/9 6/6/6 8/8/8
f 9/9/9 10/10/10 6/6/6
f 10/10/10 11/11/11 6/6/6
f 6/6/6 11/11/11 4/4/4
f 4/4/4 12/12/12 5/5/5
f 11/11/11 12/12/12 4/4/4
f 5/5/5 12/12/12 13/13/13
f 12/12/12 14/14/14 13/13/13
f 12/12/12 11/11/11 14/14/14
f 11/11/11 15/15/15 14/14/14
f 18/18/18 17/17/17 16/16/16
f 17/17/17 19/19/19 16/16/16
f 16/16/16 19/19/19 20/20/20
f 21/21/21 16/16/16 20/20/20
f 21/21/21 20/20/20 22/22/22
f 23/23/23 21/21/21 22/22/22
f 25/25/25 23/23/23 24/24/24
f 25/25/25 24/24/24 26/26/26
f 23/23/23 27/27/27 24/24/24
f 24/24/24 28/28/28 26/26/26
f 26/26/26 28/28/28 29/29/29
f 28/28/28 30/30/30 29/29/29
f 28/28/28 31/31/31 30/30/30
f 31/31/31 28/28/28 24/24/24
f 31/31/31 32/32/32 30/30/30
f 33/33/33 31/31/31 24/24/24
f 33/33/33 24/24/24 27/27/27
f 34/34/34 31/31/31 33/33/33
f 35/35/35 34/34/34 33/33/33
f 36/36/36 33/33/33 27/27/27
f 35/35/35 33/33/33 36/36/36
f 36/36/36 27/27/27 37/37/37
f 38/38/38 35/35/35 36/36/36
f 39/39/39 36/36/36 37/37/37
f 38/38/38 36/36/36 39/39/39
f 39/39/39 37/37/37 40/40/40
f 41/41/41 38/38/38 39/39/39
f 42/42/42 39/39/39 40/40/40
f 41/41/41 39/39/39 42/42/42
f 40/40/40 43/43/43 42/42/42
f 44/44/44 41/41/41 42/42/42
f 43/43/43 45/45/45 42/42/42
f 44/44/44 42/42/42 46/46/46
f 42/42/42 45/45/45 46/46/46
f 49/49/49 48/48/48 47/47/47
f 48/48/48 50/50/50 47/47/47
f 47/47/47 50/50/50 51/51/51
f 50/50/50 48/48/48 52/52/52
f 48/48/48 53/53/53 52/52/52
f 52/52/52 53/53/53 54/54/54
f 55/55/55 52/52/52 54/54/54
f 52/52/52 55/55/55 56/56/56
f 57/57/57 52/52/52 56/56/56
f 50/50/50 52/52/52 57/57/57
f 57/57/57 56/56/56 58/58/58
f 50/50/50 59/59/59 51/51/51
f 59/59/59 50/50/50 57/57/57
f 51/51/51 59/59/59 60/60/60
f 61/61/61 57/57/57 58/58/58
f 59/59/59 57/57/57 61/61/61
f 61/61/61 58/58/58 62/62/62
f 59/59/59 63/63/63 60/60/60
f 63/63/63 59/59/59 61/61/61
f 60/60/60 63/63/63 64/64/64
f 65/65/65 61/61/61 62/62/62
f 63/63/63 61/61/61 65/65/65
f 65/65/65 62/62/62 66/66/66
f 67/67/67 65/65/65 66/66/66
f 63/63/63 68/68/68 64/64/64
f 68/68/68 63/63/63 65/65/65
f 68/68/68 65/65/65 67/67/67
f 64/64/64 68/68/68 69/69/69
f 70/70/70 68/68/68 67/67/67
f 68/68/68 70/70/70 69/69/69
f 69/69/69 70/70/70 71/71/71
f 70/70/70 72/72/72 71/71/71
f 70/70/70 73/73/73 72/72/72
f 73/73/73 74/74/74 72/72/72
f 77/77/77 76/76/76 75/75/75
f 76/76/76 78/78/78 75/75/75
f 75/75/75 78/78/78 79/79/79
f 78/78/78 76/76/76 80/80/80
f 76/76/76 81/81/81 80/80/80
f 78/78/78 80/80/80 82/82/82
f 78/78/78 83/83/83 79/79/79
f 83/83/83 78/78/78 82/82/82
f 79/79/79 83/83/83 84/84/84
f 83/83/83 85/85/85 84/84/84
f 83/83/83 82/82/82 85/85/85
f 82/82/82 86/86/86 85/85/85
f 89/89/89 88/88/88 87/87/87
f 88/88/88 90/90/90 87/87/87
f 90/90/90 88/88/88 91/91/91
f 88/88/88 92/92/92 91/91/91
f 95/95/95 94/94/94 93/93/93
f 96/96/96 95/95/95 93/93/93
f 99/99/99 98/98/98 97/97/97
f 100/100/100 99/99/99 97/97/97
f 99/99/99 100/100/100 101/101/101
f 102/102/102 98/98/98 99/99/99
f 103/103/103 98/98/98 102/102/102
f 104/104/104 103/103/103 102/102/102
f 105/105/105 99/99/99 101/101/101
f 101/101/101 106/106/106 105/105/105
f 106/106/106 107/107/107 105/105/105
f 108/108/108 102/102/102 99/99/99
f 108/108/108 99/99/99 105/105/105
f 104/104/104 102/102/102 109/109/109
f 110/110/110 104/104/104 109/109/109
f 105/105/105 107/107/107 111/111/111
f 111/111/111 107/107/107 112/112/112
f 113/113/113 111/111/111 112/112/112
f 111/111/111 113/113/113 114/114/114
f 115/115/115 108/108/108 105/105/105
f 115/115/115 105/105/105 111/111/111
f 102/102/102 108/108/108 116/116/116
f 109/109/109 102/102/102 116/116/116
f 116/116/116 108/108/108 115/115/115
f 117/117/117 111/111/111 114/114/114
f 115/115/115 111/111/111 117/117/117
f 117/117/117 114/114/114 118/118/118
f 110/110/110 109/109/109 119/119/119
f 120/120/120 110/110/110 119/119/119
f 121/121/121 116/116/116 115/115/115
f 121/121/121 115/115/115 117/117/117
f 122/122/122 117/117/117 118/118/118
f 121/121/121 117/117/117 122/122/122
f 122/122/122 118/118/118 123/123/123
f 109/109/109 116/116/116 124/124/124
f 124/124/124 116/116/116 121/121/121
f 119/119/119 109/109/109 124/124/124
f 120/120/120 119/119/119 125/125/125
f 126/126/126 120/120/120 125/125/125
f 127/127/127 122/122/122 123/123/123
f 127/127/127 123/123/123 128/128/128
f 129/129/129 127/127/127 128/128/128
f 130/130/130 121/121/121 122/122/122
f 130/130/130 124/124/124 121/121/121
f 130/130/130 122/122/122 127/127/127
f 119/119/119 124/124/124 131/131/131
f 131/131/131 124/124/124 130/130/130
f 125/125/125 119/119/119 131/131/131
f 132/132/132 130/130/130 127/127/127
f 132/132/132 127/127/127 129/129/129
f 132/132/132 131/131/131 130/130/130
f 126/126/126 125/125/125 133/133/133
f 134/134/134 126/126/126 133/133/133
f 134/134/134 133/133/133 135/135/135
f 133/133/133 136/136/136 135/135/135
f 137/137/137 132/132/132 129/129/129
f 132/132/132 137/137/137 131/131/131
f 125/125/125 131/131/131 138/138/138
f 133/133/133 125/125/125 138/138/138
f 137/137/137 138/138/138 131/131/131
f 139/139/139 136/136/136 133/133/133
f 138/138/138 139/139/139 133/133/133
f 139/139/139 138/138/138 137/137/137
f 140/140/140 136/136/136 139/139/139
f 141/141/141 140/140/140 139/139/139
f 137/137/137 129/129/129 142/142/142
f 142/142/142 139/139/139 137/137/137
f 141/141/141 139/139/139 142/142/142
f 129/129/129 143/143/143 142/142/142
f 144/144/144 141/141/141 142/142/142
f 142/142/142 143/143/143 145/145/145
f 144/144/144 142/142/142 145/145/145
