g ENV_S2_InflatedWall_A15
v 1.0251564 0.8285426 -0.10914165
v 1.0097059 0.83278584 1.5735626E-05
v 0.9270767 0.84564507 1.5735626E-05
v 0.9195297 0.8359926 -0.081965685
v 0.9218294 0.7879244 -0.16106427
v 1.0530449 0.7989373 -0.2144121
v 0.91369927 0.70600784 -0.22118175
v 1.0545673 0.7750976 -0.23332834
v 1.048575 0.74682033 -0.2452482
v 1.0440726 0.68569875 -0.2734607
v 0.91321343 0.50294924 -0.2477423
v 1.0314078 0.5939354 -0.28136408
v 1.0351652 0.51431847 -0.2841497
v 1.0364608 0.41089427 -0.2652982
v 0.40555078 0.8467139 -0.07953638
v 0.40121043 0.8755418 1.5735626E-05
v 0.40836883 0.78235316 -0.16083753
v -1.0613685 0.8408512 -0.099392
v -1.0613685 0.8755418 1.5735626E-05
v -1.0613685 0.7785311 -0.17716253
v -1.0613685 0.6787995 -0.22931188
v 0.40862793 0.6829132 -0.21586967
v -1.0613685 0.50829375 -0.2581398
v 0.40542126 0.52248096 -0.24819577
v -1.0613685 0.2641312 -0.15358198
v 0.40428758 0.27488494 -0.16252184
v 0.9248742 0.2551589 -0.16226274
v 1.0473118 0.31262028 -0.23021883
v 1.0613694 0.25315058 -0.20906758
v 1.0251564 -0.018188 -0.27508026
v 1.0302094 0.050351143 -0.2769913
v 0.9239996 -0.026188493 -0.22846973
v 1.0404773 0.1638813 -0.25506264
v 0.9248742 0.2551589 -0.16226274
v 1.0613694 0.25315058 -0.20906758
v 0.39469987 0.000890255 -0.241005
v 0.40428758 0.27488494 -0.16252184
v -1.0613685 -0.017604947 -0.2599861
v -1.0613685 0.2641312 -0.15358198
v 1.0585839 -0.28784227 -0.20861411
v 1.0405744 -0.2195946 -0.21735966
v 0.93374926 -0.29137284 -0.1623599
v 1.0289785 -0.13139421 -0.26328993
v 0.9239996 -0.026188493 -0.22846973
v 1.0251564 -0.018188 -0.27508026
v 0.4137457 -0.2804247 -0.16491878
v 0.39469987 0.000890255 -0.241005
v -1.0613685 -0.259565 -0.16631156
v -1.0613685 -0.017604947 -0.2599861
v 1.0397646 -0.3467937 -0.21337557
v 1.0585839 -0.28784227 -0.20861411
v 0.93374926 -0.29137284 -0.1623599
v 0.9082576 -0.58036447 -0.28120214
v 1.0278125 -0.43023264 -0.261638
v 1.0266464 -0.5747933 -0.3122326
v 1.0418053 -0.68249303 -0.29098415
v 0.40360737 -0.57430744 -0.2816556
v 0.4137457 -0.2804247 -0.16491878
v 0.91949725 -0.8307462 -0.20323724
v 1.044267 -0.80940056 -0.22678542
v 1.0427446 -0.84059304 -0.21554577
v -1.0613685 -0.5739187 -0.30183512
v -1.0613685 -0.259565 -0.16631156
v -1.0613685 -0.7868889 -0.23355508
v 0.4076562 -0.810761 -0.21415293
v -1.0613685 -0.8592502 -0.14969504
v 0.4063282 -0.8595741 -0.14302254
v -1.0613685 -0.8755428 -0.07104993
v 0.3993641 -0.8705546 -0.086176515
v 0.92782176 -0.8583756 -0.13725692
v 1.0437487 -0.8486583 -0.17214197
v 0.9218942 -0.8705546 -0.0879904
v 1.0452387 -0.8570476 -0.13009852
v 1.0452387 -0.8705546 -0.082159996
v 1.0251564 0.8285426 0.109140635
v 0.9270767 0.84564507 1.5735626E-05
v 1.0097059 0.83278584 1.5735626E-05
v 0.9195297 0.8359926 0.08196473
v 0.40121043 0.8755418 1.5735626E-05
v 0.9218294 0.7879244 0.16106331
v 1.0530449 0.7989373 0.21437871
v 0.91369927 0.70600784 0.22114837
v 1.0545673 0.7750976 0.23332739
v 1.048575 0.74682033 0.24524724
v 1.0440726 0.68569875 0.27342737
v 1.0314078 0.5939354 0.28136313
v 0.91321343 0.50294924 0.24774134
v 1.0351652 0.51431847 0.28411627
v 1.0364608 0.41089427 0.26529717
v 1.0473118 0.31262028 0.23021781
v 0.40555078 0.8467139 0.079535365
v -1.0613685 0.8755418 1.5735626E-05
v -1.0613685 0.8408512 0.09939098
v 0.40836883 0.78235316 0.16080415
v -1.0613685 0.7785311 0.17716157
v 0.40862793 0.6829132 0.21586871
v -1.0613685 0.6787995 0.22931087
v 0.40542126 0.52248096 0.24819481
v -1.0613685 0.50829375 0.25813878
v 0.9248742 0.2551589 0.16226172
v 1.0613694 0.25315058 0.20906663
v 0.40428758 0.27488494 0.16255331
v -1.0613685 0.2641312 0.1535486
v 1.0251564 -0.018188 0.27507925
v 0.9239996 -0.026188493 0.22846878
v 1.0302094 0.050351143 0.2769903
v 0.9248742 0.2551589 0.16226172
v 1.0404773 0.1638813 0.25502932
v 1.0613694 0.25315058 0.20906663
v 0.40428758 0.27488494 0.16255331
v 0.39469987 0.000890255 0.24103642
v -1.0613685 0.2641312 0.1535486
v -1.0613685 -0.017604947 0.25995266
v 1.0585839 -0.28784227 0.20861316
v 0.93374926 -0.29137284 0.16235888
v 1.0405744 -0.2195946 0.21735871
v 0.9239996 -0.026188493 0.22846878
v 1.0289785 -0.13139421 0.2633214
v 1.0251564 -0.018188 0.27507925
v 0.39469987 0.000890255 0.24103642
v 0.4137457 -0.2804247 0.16491783
v -1.0613685 -0.017604947 0.25995266
v -1.0613685 -0.259565 0.16631055
v 1.0397646 -0.3467937 0.21337461
v 0.93374926 -0.29137284 0.16235888
v 1.0585839 -0.28784227 0.20861316
v 1.0278125 -0.43023264 0.2616371
v 0.9082576 -0.58036447 0.28120112
v 1.0266464 -0.5747933 0.31223166
v 0.4137457 -0.2804247 0.16491783
v 1.0418053 -0.68249303 0.2909832
v 0.40360737 -0.57430744 0.2816546
v -1.0613685 -0.259565 0.16631055
v -1.0613685 -0.5739187 0.3018341
v 0.91949725 -0.8307462 0.20323622
v 1.044267 -0.80940056 0.22678447
v 1.0427446 -0.84059304 0.21557713
v 0.92782176 -0.8583756 0.1372559
v 1.0437487 -0.8486583 0.17214096
v 1.0452387 -0.8570476 0.13009763
v 1.0452387 -0.8705546 0.08215904
v 0.9218942 -0.8705546 0.08798945
v 0.4076562 -0.810761 0.21415198
v -1.0613685 -0.7868889 0.23355412
v 0.4063282 -0.8595741 0.14302158
v 0.3993641 -0.8705546 0.08617556
v -1.0613685 -0.8592502 0.14969409
v -1.0613685 -0.8755428 0.07101655
vt 0.46016365 0.9709742
vt 0.46016365 0.99911964
vt 0.488908 0.99911964
vt 0.488908 0.9745672
vt 0.488908 0.9512124
vt 0.46016365 0.94702053
vt 0.488908 0.92426467
vt 0.46016365 0.9398345
vt 0.46016365 0.9326484
vt 0.46016365 0.9170786
vt 0.488908 0.8805493
vt 0.46016365 0.89611924
vt 0.46016365 0.88114816
vt 0.46016365 0.8524039
vt 0.6134667 0.9745672
vt 0.6134667 0.99911964
vt 0.6134667 0.9512124
vt 0.9907359 0.9745672
vt 0.9907359 0.99911964
vt 0.9907359 0.9512124
vt 0.9907359 0.92426467
vt 0.6134667 0.92426467
vt 0.9907359 0.8805493
vt 0.6134667 0.8805493
vt 0.9907359 0.8170723
vt 0.6134667 0.8170723
vt 0.488908 0.8170723
vt 0.46016365 0.8266537
vt 0.46016365 0.81587464
vt 0.46016365 0.7482057
vt 0.46016365 0.7571883
vt 0.488908 0.7482057
vt 0.46016365 0.78533375
vt 0.488908 0.8170723
vt 0.46016365 0.81587464
vt 0.6134667 0.7482057
vt 0.6134667 0.8170723
vt 0.9907359 0.7482057
vt 0.9907359 0.8170723
vt 0.46016365 0.6859263
vt 0.46016365 0.7014962
vt 0.488908 0.68532753
vt 0.46016365 0.7254498
vt 0.488908 0.7482057
vt 0.46016365 0.7482057
vt 0.6134667 0.68532753
vt 0.6134667 0.7482057
vt 0.9907359 0.68532753
vt 0.9907359 0.7482057
vt 0.46016365 0.66855997
vt 0.46016365 0.6859263
vt 0.488908 0.68532753
vt 0.488908 0.6044841
vt 0.46016365 0.6452052
vt 0.46016365 0.60987365
vt 0.46016365 0.58532125
vt 0.6134667 0.6044841
vt 0.6134667 0.68532753
vt 0.488908 0.55118734
vt 0.46016365 0.5529839
vt 0.46016365 0.5451989
vt 0.9907359 0.6044841
vt 0.9907359 0.68532753
vt 0.9907359 0.55118734
vt 0.6134667 0.55118734
vt 0.9907359 0.5248384
vt 0.6134667 0.5248384
vt 0.9907359 0.5068732
vt 0.6134667 0.5068732
vt 0.488908 0.5248384
vt 0.46016365 0.53561753
vt 0.488908 0.5068732
vt 0.46016365 0.5260361
vt 0.46016365 0.5068732
vt 0.46016365 0.97816026
vt 0.488908 0.99911964
vt 0.46016365 0.99911964
vt 0.488908 0.9745672
vt 0.6134667 0.99911964
vt 0.488908 0.9512124
vt 0.46016365 0.9542067
vt 0.488908 0.92426467
vt 0.46016365 0.94702053
vt 0.46016365 0.9398345
vt 0.46016365 0.92426467
vt 0.46016365 0.9027064
vt 0.488908 0.8805493
vt 0.46016365 0.88114816
vt 0.46016365 0.85958993
vt 0.46016365 0.83383983
vt 0.6134667 0.9745672
vt 0.9907359 0.99911964
vt 0.9907359 0.9745672
vt 0.6134667 0.9512124
vt 0.9907359 0.9512124
vt 0.6134667 0.92426467
vt 0.9907359 0.92426467
vt 0.6134667 0.8805493
vt 0.9907359 0.8805493
vt 0.488908 0.8170723
vt 0.46016365 0.81587464
vt 0.6134667 0.8170723
vt 0.9907359 0.8170723
vt 0.46016365 0.7482057
vt 0.488908 0.7482057
vt 0.46016365 0.7643744
vt 0.488908 0.8170723
vt 0.46016365 0.79251987
vt 0.46016365 0.81587464
vt 0.6134667 0.8170723
vt 0.6134667 0.7482057
vt 0.9907359 0.8170723
vt 0.9907359 0.7482057
vt 0.46016365 0.6859263
vt 0.488908 0.68532753
vt 0.46016365 0.69670546
vt 0.488908 0.7482057
vt 0.46016365 0.7212579
vt 0.46016365 0.7482057
vt 0.6134667 0.7482057
vt 0.6134667 0.68532753
vt 0.9907359 0.7482057
vt 0.9907359 0.68532753
vt 0.46016365 0.6643681
vt 0.488908 0.68532753
vt 0.46016365 0.6859263
vt 0.46016365 0.6410133
vt 0.488908 0.6044841
vt 0.46016365 0.6056818
vt 0.6134667 0.68532753
vt 0.46016365 0.5811293
vt 0.6134667 0.6044841
vt 0.9907359 0.68532753
vt 0.9907359 0.6044841
vt 0.488908 0.55118734
vt 0.46016365 0.54819316
vt 0.46016365 0.54100704
vt 0.488908 0.5248384
vt 0.46016365 0.5308268
vt 0.46016365 0.52124536
vt 0.46016365 0.5068732
vt 0.488908 0.5068732
vt 0.6134667 0.55118734
vt 0.9907359 0.55118734
vt 0.6134667 0.5248384
vt 0.6134667 0.5068732
vt 0.9907359 0.5248384
vt 0.9907359 0.5068732
vn -0.090751946 0.95336896 -0.28783974
vn 0.15015912 0.98445433 -0.09111451
vn 0.041325353 0.9991458 -0
vn 0.018046558 0.91451234 -0.4041553
vn -0.036352694 0.6969153 -0.71623147
vn -0.29280645 0.7746286 -0.5605488
vn -0.059666693 0.30834907 -0.9494002
vn -0.3238917 0.5259462 -0.7864316
vn -0.28503507 0.41714758 -0.86298484
vn -0.3472057 0.17623657 -0.9210803
vn -0.05189532 -0.14238775 -0.9884496
vn -0.3472057 0.114065945 -0.93082607
vn -0.27726382 -0.087988496 -0.9567564
vn -0.33943433 -0.31335694 -0.88690007
vn 0.010275245 0.8834271 -0.468456
vn 0.010274734 0.99994725 -0
vn 0.0025039315 0.6425161 -0.76626813
vn 0.0025039315 0.86788446 -0.49675983
vn 0.0025039313 0.99999684 -0
vn 0.010275245 0.6347447 -0.7726536
vn 0.010275245 0.3005777 -0.953702
vn 0.0025039315 0.3005777 -0.95375407
vn 0.0025039315 -0.15793043 -0.9874471
vn 0.0025039315 -0.14238775 -0.9898078
vn 0.0025039315 -0.35998487 -0.9329548
vn 0.0025039315 -0.3522135 -0.9359163
vn -0.05189532 -0.32889956 -0.94293797
vn -0.3472057 -0.33667088 -0.8752719
vn -0.30834907 -0.3832988 -0.8706336
vn -0.41714758 -0.0646745 -0.9065347
vn -0.51040345 0.1917792 -0.8382774
vn -0.036352694 -0.010275245 -0.99928623
vn -0.49486083 0.2384072 -0.8356284
vn -0.028581321 0.25394982 -0.966795
vn -0.27726382 0.48708957 -0.8281718
vn 0.0025039315 0.013038754 -0.99991184
vn 0.0025039315 0.3005777 -0.95375407
vn 0.0025039315 0.013038754 -0.99991184
vn 0.0025039315 0.31612033 -0.9487158
vn -0.33166307 -0.20455837 -0.9209536
vn -0.40160495 -0.29004294 -0.8686706
vn -0.036352694 -0.25895762 -0.96520436
vn -0.40937632 -0.28227162 -0.8676023
vn -0.036352694 -0.010275245 -0.99928623
vn -0.41714758 -0.0646745 -0.9065347
vn 0.0025039315 -0.29004294 -0.9570103
vn 0.0025039315 0.013038754 -0.99991184
vn 0.0025039315 -0.30558556 -0.9521613
vn 0.0025039315 0.013038754 -0.99991184
vn -0.3005777 0.39383358 -0.86864734
vn -0.3472057 0.18400782 -0.9195593
vn -0.020810068 0.37829095 -0.92545277
vn -0.020810068 0.08298069 -0.99633384
vn -0.29280645 0.40937632 -0.8641038
vn -0.25394982 0.090751946 -0.96295047
vn -0.25394982 -0.31335694 -0.9150502
vn 0.010275245 0.10629457 -0.9942816
vn 0.010275245 0.37829095 -0.92562973
vn -0.020810068 -0.47655475 -0.87889844
vn -0.09852332 -0.43769813 -0.89370775
vn -0.08298069 -0.795179 -0.6006701
vn 0.010275245 0.10629457 -0.9942816
vn 0.010275245 0.38606232 -0.9224155
vn 0.010275245 -0.45324075 -0.89132893
vn 0.0025039315 -0.45324075 -0.89138466
vn 0.0025039315 -0.88843495 -0.45899573
vn 0.0025039315 -0.89620626 -0.44363058
vn 0.0025039315 -0.9816908 -0.1904649
vn 0.0025039315 -0.9816908 -0.1904649
vn -0.0052673817 -0.9350629 -0.35444275
vn 0.025817871 -0.9816908 -0.18872355
vn 0.0025039315 -0.9739195 -0.22687995
vn 0.018046558 -0.9739195 -0.2261749
vn 0.018046558 -0.9661482 -0.25735572
vn -0.090751946 0.95336896 0.28783974
vn 0.041325353 0.9991458 -0
vn 0.15015912 0.98445433 -0.09111451
vn 0.018046558 0.91451234 0.4041553
vn 0.010274734 0.99994725 -0
vn -0.036352694 0.6969153 0.71623147
vn -0.29280645 0.7746286 0.5605488
vn -0.059666693 0.30834907 0.9494002
vn -0.3238917 0.5259462 0.7864316
vn -0.28503507 0.41714758 0.86298484
vn -0.3472057 0.17623657 0.9210803
vn -0.3472057 0.114065945 0.93082607
vn -0.05189532 -0.14238775 0.9884496
vn -0.27726382 -0.087988496 0.9567564
vn -0.33943433 -0.31335694 0.88690007
vn -0.3472057 -0.33667088 0.8752719
vn 0.010275245 0.8834271 0.468456
vn 0.0025039313 0.99999684 -0
vn 0.0025039315 0.86788446 0.49675983
vn 0.0025039315 0.6425161 0.76626813
vn 0.010275245 0.6347447 0.7726536
vn 0.0025039315 0.3005777 0.95375407
vn 0.010275245 0.3005777 0.953702
vn 0.0025039315 -0.14238775 0.9898078
vn 0.0025039315 -0.15793043 0.9874471
vn -0.05189532 -0.32889956 0.94293797
vn -0.30834907 -0.3832988 0.8706336
vn 0.0025039315 -0.3522135 0.9359163
vn 0.0025039315 -0.35998487 0.9329548
vn -0.41714758 -0.0646745 0.9065347
vn -0.036352694 -0.010275245 0.99928623
vn -0.51040345 0.1917792 0.8382774
vn -0.028581321 0.25394982 0.966795
vn -0.49486083 0.2384072 0.8356284
vn -0.27726382 0.48708957 0.8281718
vn 0.0025039315 0.3005777 0.95375407
vn 0.0025039315 0.013038754 0.99991184
vn 0.0025039315 0.31612033 0.9487158
vn 0.0025039315 0.013038754 0.99991184
vn -0.33166307 -0.20455837 0.9209536
vn -0.036352694 -0.25895762 0.96520436
vn -0.40160495 -0.29004294 0.8686706
vn -0.036352694 -0.010275245 0.99928623
vn -0.40937632 -0.28227162 0.8676023
vn -0.41714758 -0.0646745 0.9065347
vn 0.0025039315 0.013038754 0.99991184
vn 0.0025039315 -0.29004294 0.9570103
vn 0.0025039315 0.013038754 0.99991184
vn 0.0025039315 -0.30558556 0.9521613
vn -0.3005777 0.39383358 0.86864734
vn -0.020810068 0.37829095 0.92545277
vn -0.3472057 0.18400782 0.9195593
vn -0.29280645 0.40937632 0.8641038
vn -0.020810068 0.08298069 0.99633384
vn -0.25394982 0.090751946 0.96295047
vn 0.010275245 0.37829095 0.92562973
vn -0.25394982 -0.31335694 0.9150502
vn 0.010275245 0.10629457 0.9942816
vn 0.010275245 0.38606232 0.9224155
vn 0.010275245 0.10629457 0.9942816
vn -0.020810068 -0.47655475 0.87889844
vn -0.09852332 -0.43769813 0.89370775
vn -0.08298069 -0.795179 0.6006701
vn -0.0052673817 -0.9350629 0.35444275
vn 0.025817871 -0.9816908 0.18872355
vn 0.018046558 -0.9739195 0.2261749
vn 0.018046558 -0.9661482 0.25735572
vn 0.0025039315 -0.9739195 0.22687995
vn 0.0025039315 -0.45324075 0.89138466
vn 0.010275245 -0.45324075 0.89132893
vn 0.0025039315 -0.89620626 0.44363058
vn 0.0025039315 -0.9816908 0.1904649
vn 0.0025039315 -0.88843495 0.45899573
vn 0.0025039315 -0.9816908 0.1904649
g ENV_S2_InflatedWall_A15_0
f 3/3/3 2/2/2 1/1/1
f 4/4/4 3/3/3 1/1/1
f 4/4/4 1/1/1 5/5/5
f 1/1/1 6/6/6 5/5/5
f 7/7/7 5/5/5 6/6/6
f 8/8/8 7/7/7 6/6/6
f 8/8/8 9/9/9 7/7/7
f 7/7/7 9/9/9 10/10/10
f 11/11/11 7/7/7 10/10/10
f 12/12/12 11/11/11 10/10/10
f 11/11/11 12/12/12 13/13/13
f 11/11/11 13/13/13 14/14/14
f 4/4/4 15/15/15 3/3/3
f 15/15/15 16/16/16 3/3/3
f 5/5/5 17/17/17 4/4/4
f 17/17/17 15/15/15 4/4/4
f 15/15/15 18/18/18 16/16/16
f 18/18/18 19/19/19 16/16/16
f 20/20/20 18/18/18 15/15/15
f 17/17/17 20/20/20 15/15/15
f 21/21/21 20/20/20 17/17/17
f 22/22/22 17/17/17 5/5/5
f 22/22/22 21/21/21 17/17/17
f 7/7/7 22/22/22 5/5/5
f 23/23/23 21/21/21 22/22/22
f 24/24/24 22/22/22 7/7/7
f 24/24/24 23/23/23 22/22/22
f 11/11/11 24/24/24 7/7/7
f 25/25/25 23/23/23 24/24/24
f 26/26/26 25/25/25 24/24/24
f 26/26/26 24/24/24 11/11/11
f 27/27/27 26/26/26 11/11/11
f 27/27/27 11/11/11 14/14/14
f 28/28/28 27/27/27 14/14/14
f 27/27/27 28/28/28 29/29/29
f 32/32/32 31/31/31 30/30/30
f 31/31/31 32/32/32 33/33/33
f 32/32/32 34/34/34 33/33/33
f 34/34/34 35/35/35 33/33/33
f 32/32/32 36/36/36 34/34/34
f 36/36/36 37/37/37 34/34/34
f 36/36/36 38/38/38 37/37/37
f 38/38/38 39/39/39 37/37/37
f 42/42/42 41/41/41 40/40/40
f 41/41/41 42/42/42 43/43/43
f 42/42/42 44/44/44 43/43/43
f 44/44/44 45/45/45 43/43/43
f 42/42/42 46/46/46 44/44/44
f 46/46/46 47/47/47 44/44/44
f 46/46/46 48/48/48 47/47/47
f 48/48/48 49/49/49 47/47/47
f 52/52/52 51/51/51 50/50/50
f 53/53/53 52/52/52 50/50/50
f 54/54/54 53/53/53 50/50/50
f 53/53/53 54/54/54 55/55/55
f 53/53/53 55/55/55 56/56/56
f 53/53/53 57/57/57 52/52/52
f 57/57/57 58/58/58 52/52/52
f 59/59/59 53/53/53 56/56/56
f 59/59/59 56/56/56 60/60/60
f 59/59/59 60/60/60 61/61/61
f 57/57/57 62/62/62 58/58/58
f 62/62/62 63/63/63 58/58/58
f 64/64/64 62/62/62 57/57/57
f 65/65/65 57/57/57 53/53/53
f 65/65/65 64/64/64 57/57/57
f 59/59/59 65/65/65 53/53/53
f 66/66/66 64/64/64 65/65/65
f 67/67/67 66/66/66 65/65/65
f 67/67/67 65/65/65 59/59/59
f 68/68/68 66/66/66 67/67/67
f 69/69/69 68/68/68 67/67/67
f 59/59/59 61/61/61 70/70/70
f 70/70/70 67/67/67 59/59/59
f 69/69/69 67/67/67 70/70/70
f 61/61/61 71/71/71 70/70/70
f 72/72/72 69/69/69 70/70/70
f 70/70/70 71/71/71 73/73/73
f 72/72/72 70/70/70 73/73/73
f 74/74/74 72/72/72 73/73/73
f 77/77/77 76/76/76 75/75/75
f 76/76/76 78/78/78 75/75/75
f 76/76/76 79/79/79 78/78/78
f 75/75/75 78/78/78 80/80/80
f 81/81/81 75/75/75 80/80/80
f 80/80/80 82/82/82 81/81/81
f 82/82/82 83/83/83 81/81/81
f 84/84/84 83/83/83 82/82/82
f 84/84/84 82/82/82 85/85/85
f 85/85/85 82/82/82 86/86/86
f 82/82/82 87/87/87 86/86/86
f 86/86/86 87/87/87 88/88/88
f 88/88/88 87/87/87 89/89/89
f 89/89/89 87/87/87 90/90/90
f 79/79/79 91/91/91 78/78/78
f 78/78/78 91/91/91 80/80/80
f 79/79/79 92/92/92 91/91/91
f 92/92/92 93/93/93 91/91/91
f 91/91/91 94/94/94 80/80/80
f 91/91/91 93/93/93 94/94/94
f 80/80/80 94/94/94 82/82/82
f 93/93/93 95/95/95 94/94/94
f 94/94/94 96/96/96 82/82/82
f 94/94/94 95/95/95 96/96/96
f 82/82/82 96/96/96 87/87/87
f 95/95/95 97/97/97 96/96/96
f 96/96/96 97/97/97 98/98/98
f 96/96/96 98/98/98 87/87/87
f 97/97/97 99/99/99 98/98/98
f 87/87/87 100/100/100 90/90/90
f 87/87/87 98/98/98 100/100/100
f 90/90/90 100/100/100 101/101/101
f 98/98/98 102/102/102 100/100/100
f 98/98/98 99/99/99 102/102/102
f 99/99/99 103/103/103 102/102/102
f 106/106/106 105/105/105 104/104/104
f 107/107/107 105/105/105 106/106/106
f 108/108/108 107/107/107 106/106/106
f 109/109/109 107/107/107 108/108/108
f 107/107/107 110/110/110 105/105/105
f 110/110/110 111/111/111 105/105/105
f 110/110/110 112/112/112 111/111/111
f 112/112/112 113/113/113 111/111/111
f 116/116/116 115/115/115 114/114/114
f 117/117/117 115/115/115 116/116/116
f 118/118/118 117/117/117 116/116/116
f 119/119/119 117/117/117 118/118/118
f 117/117/117 120/120/120 115/115/115
f 120/120/120 121/121/121 115/115/115
f 120/120/120 122/122/122 121/121/121
f 122/122/122 123/123/123 121/121/121
f 126/126/126 125/125/125 124/124/124
f 124/124/124 125/125/125 127/127/127
f 125/125/125 128/128/128 127/127/127
f 127/127/127 128/128/128 129/129/129
f 125/125/125 130/130/130 128/128/128
f 129/129/129 128/128/128 131/131/131
f 130/130/130 132/132/132 128/128/128
f 130/130/130 133/133/133 132/132/132
f 133/133/133 134/134/134 132/132/132
f 128/128/128 135/135/135 131/131/131
f 128/128/128 132/132/132 135/135/135
f 131/131/131 135/135/135 136/136/136
f 136/136/136 135/135/135 137/137/137
f 137/137/137 135/135/135 138/138/138
f 139/139/139 137/137/137 138/138/138
f 139/139/139 138/138/138 140/140/140
f 140/140/140 138/138/138 141/141/141
f 138/138/138 142/142/142 141/141/141
f 132/132/132 134/134/134 143/143/143
f 132/132/132 143/143/143 135/135/135
f 135/135/135 143/143/143 138/138/138
f 134/134/134 144/144/144 143/143/143
f 138/138/138 145/145/145 142/142/142
f 143/143/143 145/145/145 138/138/138
f 143/143/143 144/144/144 145/145/145
f 145/145/145 146/146/146 142/142/142
f 144/144/144 147/147/147 145/145/145
f 145/145/145 147/147/147 146/146/146
f 147/147/147 148/148/148 146/146/146
