g ENV_BasketFall_OuterWall_03_MO
v 33.86745 2.3865051 29.311028
v 33.83358 2.5157166 29.293465
v 33.823544 2.3865051 29.38002
v 33.784657 2.5157166 29.368736
v 30.302269 2.5157166 46.48211
v 30.343666 2.3865051 46.48085
v 30.356213 2.3865051 46.519737
v 30.321087 2.5157166 46.54357
v 33.828564 7.5686913 29.299736
v 30.321087 7.5887604 46.54483
v 33.7834 7.621376 29.375008
v 33.846127 7.637684 29.303505
v 30.302269 7.5887604 46.48462
v 30.332376 7.6464653 46.5373
v 33.80222 7.6891174 29.376259
v 33.896305 7.6878624 29.306007
v 30.321087 7.656502 46.48462
v 30.375029 7.7054253 46.48462
v 30.38381 7.695389 46.5373
v 33.854908 7.739296 29.377518
v 30.446533 7.724243 46.48462
v 30.446533 7.7054253 46.54483
v 33.927666 7.758114 29.38002
v 33.969063 7.702915 29.306007
v 31.979485 7.724243 46.48462
v 31.979485 7.7054253 46.54483
v 35.45811 7.7355347 29.371239
v 32.04221 7.695389 46.5373
v 32.052246 7.7054253 46.48462
v 32.093643 7.6464653 46.5373
v 31.979485 7.656502 46.58999
v 32.04221 7.695389 46.5373
v 30.446533 7.656502 46.58999
v 30.38381 7.695389 46.5373
v 32.04221 7.6464653 46.581207
v 32.093643 7.6464653 46.5373
v 31.979485 7.5887604 46.6063
v 32.052246 7.5887604 46.58999
v 32.10493 7.5887604 46.54483
v 30.38381 7.6464653 46.581207
v 30.332376 7.6464653 46.5373
v 32.052246 2.5157166 46.588737
v 32.10493 2.5157166 46.54357
v 32.069805 2.3865051 46.520996
v 32.03343 2.3865051 46.5511
v 31.979485 2.5157166 46.60504
v 31.975721 2.3865051 46.564903
v 30.45155 2.3865051 46.564903
v 30.446533 2.5157166 46.60504
v 30.392591 2.3865051 46.5511
v 30.446533 7.5887604 46.6063
v 30.375029 2.5157166 46.588737
v 30.356213 2.3865051 46.519737
v 30.321087 2.5157166 46.54357
v 30.375029 7.5887604 46.58999
v 30.321087 7.5887604 46.54483
v 33.86745 2.3865051 29.311028
v 33.823544 2.3865051 29.38002
v 33.9515 2.3338203 29.366226
v 30.445278 2.3338203 46.467056
v 31.981995 2.3338203 46.459526
v 30.343666 2.3865051 46.48085
v 30.356213 2.3865051 46.519737
v 35.448074 2.3338203 29.314789
v 33.975334 2.3865051 29.228233
v 33.86745 2.3865051 29.311028
v 35.4832 2.3865051 29.220703
v 35.549686 2.3865051 29.293465
v 35.56223 2.3865051 29.368736
v 35.588573 2.5157166 29.284683
v 35.60237 2.5157166 29.372498
v 35.581047 7.5486183 29.27716
v 32.086113 2.3865051 46.47207
v 35.60488 7.598797 29.362457
v 32.125004 7.5887604 46.48462
v 35.5685 7.626396 29.284683
v 35.583557 7.6677933 29.368736
v 35.51707 7.679081 29.292213
v 32.125004 2.5157166 46.48211
v 32.069805 2.3865051 46.520996
v 32.10493 2.5157166 46.54357
v 32.03343 2.3865051 46.5511
v 31.975721 2.3865051 46.564903
v 32.10493 7.5887604 46.54483
v 30.45155 2.3865051 46.564903
v 30.392591 2.3865051 46.5511
v 30.356213 2.3865051 46.519737
v 32.10493 7.656502 46.48462
v 35.53087 7.716717 29.371239
v 35.44682 7.699154 29.294724
v 34.085728 7.5185127 29.20816
v 34.020496 7.502201 29.20816
v 33.896305 7.6878624 29.306007
v 35.436783 7.499695 29.195618
v 35.51707 7.679081 29.292213
v 33.846127 7.637684 29.303505
v 35.5685 7.626396 29.284683
v 35.37155 7.5172577 29.198128
v 33.972824 7.4570427 29.20565
v 33.955265 7.3930664 29.201889
v 33.828564 7.5686913 29.299736
v 33.83358 2.5157166 29.293465
v 35.485706 7.4532776 29.190598
v 35.581047 7.5486183 29.27716
v 35.50327 7.3918114 29.189346
v 35.588573 2.5157166 29.284683
v 35.50327 2.5157166 29.190598
v 35.549686 2.3865051 29.293465
v 35.4832 2.3865051 29.220703
v 33.956516 2.5157166 29.198128
v 33.86745 2.3865051 29.311028
v 33.975334 2.3865051 29.228233
vt 1.0973212 1.2051827
vt 1.0973212 1.195721
vt 1.0916442 1.2051827
vt 1.0916442 1.1966672
vt -0.11280918 1.1976134
vt -0.11280918 1.2070749
vt -0.115647644 1.2070749
vt -0.11753994 1.1976134
vt 1.0850211 0.8541597
vt -0.10997072 0.84753656
vt 1.0793442 0.8513212
vt 1.0850211 0.84753656
vt -0.10523996 0.84753656
vt -0.109024554 0.84280586
vt 1.0793442 0.84564435
vt 1.0859673 0.8418597
vt -0.10523996 0.84280586
vt -0.10429379 0.83807504
vt -0.10807842 0.8371289
vt 1.0793442 0.84091353
vt -0.10334763 0.8323982
vt -0.10807842 0.8323982
vt 1.0802903 0.8361827
vt 1.0869135 0.83523667
vt -0.08347842 0.7292675
vt -0.08820918 0.7283213
vt 1.1039442 0.7339982
vt -0.08631688 0.72453666
vt -0.08253226 0.72453666
vt -0.08537072 0.7188598
vt -0.09293994 0.7283213
vt -0.08820918 0.7235905
vt -0.11186302 0.831452
vt -0.109024554 0.8361827
vt -0.09293994 0.7235905
vt -0.091047645 0.7188598
vt -0.097670704 0.72737515
vt -0.09672457 0.7226443
vt -0.095778406 0.7179136
vt -0.113755316 0.83523667
vt -0.113755316 0.83996737
vt -0.4373398 0.65925205
vt -0.4373398 0.65452135
vt -0.44680133 0.65452135
vt -0.44680133 0.6583059
vt -0.43828595 0.66398287
vt -0.4477475 0.66209054
vt -0.46667057 0.7661674
vt -0.45815518 0.76711357
vt -0.4676167 0.76995206
vt -0.11659378 0.83050585
vt -0.45910135 0.77279043
vt -0.46856287 0.77279043
vt -0.46004748 0.7765751
vt -0.11753994 0.83523667
vt -0.11848611 0.83996737
vt 1.0982673 0.245783
vt 1.0935365 0.24389067
vt 1.096375 0.2533522
vt -0.10807842 0.24862143
vt -0.08347842 0.3517522
vt -0.11091685 0.24105224
vt -0.113755316 0.24294451
vt 1.1162442 0.3526983
vt 1.1067827 0.2533522
vt 1.1001595 0.24672917
vt 1.1238134 0.35459062
vt 1.1190827 0.36026755
vt 1.1143519 0.36215988
vt 1.1209749 0.3716214
vt 1.1143519 0.3716214
vt 1.1124595 0.71696746
vt -0.08253226 0.3593214
vt 1.1067827 0.71980584
vt -0.08158612 0.71507514
vt 1.1115134 0.7235905
vt 1.1058365 0.72453666
vt 1.1105672 0.7292675
vt -0.08347842 0.3687829
vt -0.08631688 0.3593214
vt -0.08726302 0.3687829
vt -0.089155346 0.35742912
vt -0.091047645 0.35364446
vt -0.08631688 0.71507514
vt -0.115647644 0.25145993
vt -0.115647644 0.24767527
vt -0.11470148 0.24389067
vt -0.08158612 0.71980584
vt 1.1048903 0.7292675
vt 1.1096212 0.7358905
vt 1.102998 0.83050585
vt 1.102998 0.83523667
vt 1.0869135 0.84091353
vt 1.1247596 0.7406212
vt 1.1124595 0.7311597
vt 1.0897518 0.84564435
vt 1.1171904 0.7283213
vt 1.1219211 0.74440587
vt 1.1048903 0.8390212
vt 1.1096212 0.84091353
vt 1.0944827 0.8484827
vt 1.4341518 0.9222827
vt 1.1285442 0.73778284
vt 1.1228672 0.72737515
vt 1.1323287 0.73778284
vt 1.4596978 0.80022895
vt 1.4578056 0.8087443
vt 1.4682133 0.80495965
vt 1.466321 0.8115828
vt 1.4360441 0.911875
vt 1.4436133 0.9222827
vt 1.4445595 0.9128212
vn -0.62359273 -0.4507125 -0.63874125
vn -0.7098508 -0.003738761 -0.7043422
vn -0.7333758 -0.6624369 -0.15276542
vn -0.9764668 -0.003738761 -0.21563554
vn -0.9764668 -0.003738761 -0.21563554
vn -0.78826725 -0.5918621 -0.16832712
vn -0.7333758 -0.45855415 0.50188446
vn -0.82747555 -0.003738761 0.5614893
vn -0.7647424 0.004102826 -0.6443231
vn -0.82747555 0.004102826 0.5614867
vn -0.9764668 0.004102826 -0.2156289
vn -0.45107663 0.309927 -0.8369439
vn -0.9764668 0.004102826 -0.2156289
vn -0.77258396 0.41971004 0.47640055
vn -0.83531713 0.529493 -0.14792717
vn -0.23935223 0.4824432 -0.8425907
vn -0.8510004 0.4981264 -0.16633809
vn -0.4981264 0.85884213 -0.11941647
vn -0.38050175 0.80395055 0.45703602
vn -0.45107663 0.882367 -0.13400874
vn -0.004102826 0.99999166 -0
vn -0.011944532 0.84315884 0.53753185
vn -0.004102826 0.99999166 -0
vn -0.011944532 0.662801 -0.74870026
vn 0.019418554 0.9998115 -0
vn 0.011580408 0.84315884 0.53753984
vn 0.019418554 0.9998115 -0
vn 0.38797933 0.80395055 0.45070562
vn 0.4507125 0.8902086 0.066233695
vn 0.7722199 0.41971004 0.4769905
vn 0.011580408 0.4589182 0.88840306
vn 0.38797933 0.80395055 0.45070562
vn -0.004102826 0.4589182 0.88846904
vn -0.38050175 0.80395055 0.45703602
vn 0.3644544 0.38834345 0.8463819
vn 0.7722199 0.41971004 0.4769905
vn 0.011580408 0.004102826 0.99992454
vn 0.4350292 0.004102826 0.900407
vn 0.8271114 0.004102826 0.562023
vn -0.36481845 0.38834345 0.846225
vn -0.77258396 0.41971004 0.47640055
vn 0.4350292 -0.003738761 0.90040857
vn 0.8271114 -0.003738761 0.56202555
vn 0.7330117 -0.4663958 0.4951452
vn 0.38013768 -0.4663958 0.79873043
vn 0.011580408 -0.011580408 0.9998659
vn 0.003738761 -0.615387 0.78821623
vn -0.004102826 -0.6075454 0.7942744
vn -0.011944532 -0.011580408 0.9998616
vn -0.38834345 -0.45855415 0.79932314
vn -0.011944532 0.004102826 0.99992025
vn -0.43539333 -0.003738761 0.90023255
vn -0.7333758 -0.45855415 0.50188446
vn -0.82747555 -0.003738761 0.5614893
vn -0.43539333 0.004102826 0.900231
vn -0.82747555 0.004102826 0.5614867
vn -0.62359273 -0.4507125 -0.63874125
vn -0.7333758 -0.6624369 -0.15276542
vn -0.027627569 -0.9996183 -0
vn -0.043286644 -0.9990627 -0
vn 0.027263701 -0.9996276 -0.0011708573
vn -0.78826725 -0.5918621 -0.16832712
vn -0.7333758 -0.45855415 0.50188446
vn 0.03509679 -0.999384 -0
vn -0.035469413 -0.615387 -0.78742665
vn -0.62359273 -0.4507125 -0.63874125
vn 0.027263701 -0.5604955 -0.8277086
vn 0.7879032 -0.44287086 -0.42787144
vn 0.7330117 -0.6624369 0.15450293
vn 0.8741613 -0.003738761 -0.48562127
vn 0.9839443 -0.003738761 0.17843665
vn 0.92905277 0.004102826 -0.3699245
vn 0.748695 -0.6467536 0.14548375
vn 0.9839443 0.004102826 0.17842865
vn 0.97610265 0.004102826 0.21727124
vn 0.5448122 0.38834345 -0.7432153
vn 0.85063636 0.4902848 0.18983836
vn 0.27819633 0.56085956 -0.7797714
vn 0.97610265 -0.003738761 0.21727782
vn 0.7330117 -0.4663958 0.4951452
vn 0.8271114 -0.003738761 0.56202555
vn 0.38013768 -0.4663958 0.79873043
vn 0.003738761 -0.615387 0.78821623
vn 0.8271114 0.004102826 0.562023
vn -0.004102826 -0.6075454 0.7942744
vn -0.38834345 -0.45855415 0.79932314
vn -0.7333758 -0.45855415 0.50188446
vn 0.8271114 0.529493 0.18847775
vn 0.49776238 0.85884213 0.1209248
vn 0.003738761 0.639276 -0.7689682
vn -0.011944532 0.2785604 -0.96034443
vn -0.027627826 0.090361 -0.9955258
vn -0.23935223 0.4824432 -0.8425907
vn 0.011580408 0.090361 -0.99584174
vn 0.27819633 0.56085956 -0.7797714
vn -0.45107663 0.309927 -0.8369439
vn 0.5448122 0.38834345 -0.7432153
vn -0.004102826 0.2785604 -0.96040994
vn -0.04331112 0.074677706 -0.9962667
vn -0.090361 0.004102826 -0.99590063
vn -0.7647424 0.004102826 -0.6443231
vn -0.7098508 -0.003738761 -0.7043422
vn 0.027263701 0.074677706 -0.99683493
vn 0.92905277 0.004102826 -0.3699245
vn 0.08215523 0.004102826 -0.9966111
vn 0.8741613 -0.003738761 -0.48562127
vn 0.05078864 -0.003738761 -0.9987024
vn 0.7879032 -0.44287086 -0.42787144
vn 0.027263701 -0.5604955 -0.8277086
vn -0.066836 -0.003738761 -0.99775696
vn -0.62359273 -0.4507125 -0.63874125
vn -0.035469413 -0.615387 -0.78742665
g ENV_BasketFall_OuterWall_03_MO_0
f 3/3/3 2/2/2 1/1/1
f 3/3/3 4/4/4 2/2/2
f 5/5/5 4/4/4 3/3/3
f 5/5/5 3/3/3 6/6/6
f 5/5/5 6/6/6 7/7/7
f 5/5/5 7/7/7 8/8/8
f 4/4/4 9/9/9 2/2/2
f 10/10/10 5/5/5 8/8/8
f 4/4/4 11/11/11 9/9/9
f 5/5/5 11/11/11 4/4/4
f 12/12/12 9/9/9 11/11/11
f 10/10/10 13/13/13 5/5/5
f 5/5/5 13/13/13 11/11/11
f 14/14/14 13/13/13 10/10/10
f 12/12/12 11/11/11 15/15/15
f 16/16/16 12/12/12 15/15/15
f 17/17/17 11/11/11 13/13/13
f 14/14/14 17/17/17 13/13/13
f 17/17/17 15/15/15 11/11/11
f 18/18/18 17/17/17 14/14/14
f 18/18/18 15/15/15 17/17/17
f 18/18/18 14/14/14 19/19/19
f 16/16/16 15/15/15 20/20/20
f 18/18/18 20/20/20 15/15/15
f 19/19/19 21/21/21 18/18/18
f 21/21/21 20/20/20 18/18/18
f 19/19/19 22/22/22 21/21/21
f 16/16/16 20/20/20 23/23/23
f 21/21/21 23/23/23 20/20/20
f 16/16/16 23/23/23 24/24/24
f 25/25/25 23/23/23 21/21/21
f 21/21/21 22/22/22 26/26/26
f 21/21/21 26/26/26 25/25/25
f 27/27/27 24/24/24 23/23/23
f 25/25/25 27/27/27 23/23/23
f 28/28/28 25/25/25 26/26/26
f 28/28/28 29/29/29 25/25/25
f 29/29/29 27/27/27 25/25/25
f 30/30/30 29/29/29 28/28/28
f 22/22/22 31/31/31 26/26/26
f 32/32/32 26/26/26 31/31/31
f 22/22/22 33/33/33 31/31/31
f 33/33/33 22/22/22 34/34/34
f 32/32/32 31/31/31 35/35/35
f 35/35/35 36/36/36 32/32/32
f 35/35/35 31/31/31 37/37/37
f 33/33/33 37/37/37 31/31/31
f 38/38/38 36/36/36 35/35/35
f 35/35/35 37/37/37 38/38/38
f 38/38/38 39/39/39 36/36/36
f 33/33/33 34/34/34 40/40/40
f 40/40/40 34/34/34 41/41/41
f 39/39/39 38/38/38 42/42/42
f 39/39/39 42/42/42 43/43/43
f 42/42/42 44/44/44 43/43/43
f 42/42/42 45/45/45 44/44/44
f 38/38/38 46/46/46 42/42/42
f 45/45/45 42/42/42 46/46/46
f 38/38/38 37/37/37 46/46/46
f 45/45/45 46/46/46 47/47/47
f 46/46/46 48/48/48 47/47/47
f 46/46/46 49/49/49 48/48/48
f 37/37/37 49/49/49 46/46/46
f 49/49/49 50/50/50 48/48/48
f 33/33/33 51/51/51 37/37/37
f 40/40/40 51/51/51 33/33/33
f 37/37/37 51/51/51 49/49/49
f 49/49/49 52/52/52 50/50/50
f 51/51/51 52/52/52 49/49/49
f 52/52/52 53/53/53 50/50/50
f 52/52/52 54/54/54 53/53/53
f 40/40/40 55/55/55 51/51/51
f 51/51/51 55/55/55 52/52/52
f 55/55/55 54/54/54 52/52/52
f 41/41/41 55/55/55 40/40/40
f 55/55/55 56/56/56 54/54/54
f 41/41/41 56/56/56 55/55/55
f 59/59/59 58/58/58 57/57/57
f 58/58/58 59/59/59 60/60/60
f 59/59/59 61/61/61 60/60/60
f 58/58/58 60/60/60 62/62/62
f 63/63/63 62/62/62 60/60/60
f 59/59/59 64/64/64 61/61/61
f 65/65/65 64/64/64 59/59/59
f 66/66/66 65/65/65 59/59/59
f 65/65/65 67/67/67 64/64/64
f 64/64/64 67/67/67 68/68/68
f 64/64/64 68/68/68 69/69/69
f 61/61/61 64/64/64 69/69/69
f 69/69/69 68/68/68 70/70/70
f 69/69/69 70/70/70 71/71/71
f 71/71/71 70/70/70 72/72/72
f 61/61/61 69/69/69 73/73/73
f 73/73/73 69/69/69 71/71/71
f 71/71/71 72/72/72 74/74/74
f 75/75/75 71/71/71 74/74/74
f 76/76/76 74/74/74 72/72/72
f 76/76/76 77/77/77 74/74/74
f 75/75/75 74/74/74 77/77/77
f 78/78/78 77/77/77 76/76/76
f 73/73/73 71/71/71 79/79/79
f 75/75/75 79/79/79 71/71/71
f 80/80/80 73/73/73 79/79/79
f 61/61/61 73/73/73 80/80/80
f 80/80/80 79/79/79 81/81/81
f 75/75/75 81/81/81 79/79/79
f 80/80/80 82/82/82 61/61/61
f 61/61/61 82/82/82 83/83/83
f 75/75/75 84/84/84 81/81/81
f 83/83/83 60/60/60 61/61/61
f 83/83/83 85/85/85 60/60/60
f 85/85/85 86/86/86 60/60/60
f 86/86/86 87/87/87 60/60/60
f 30/30/30 84/84/84 75/75/75
f 30/30/30 75/75/75 88/88/88
f 30/30/30 88/88/88 29/29/29
f 75/75/75 77/77/77 88/88/88
f 88/88/88 89/89/89 29/29/29
f 88/88/88 77/77/77 89/89/89
f 78/78/78 89/89/89 77/77/77
f 29/29/29 89/89/89 27/27/27
f 78/78/78 27/27/27 89/89/89
f 78/78/78 90/90/90 27/27/27
f 27/27/27 90/90/90 24/24/24
f 90/90/90 91/91/91 24/24/24
f 24/24/24 91/91/91 92/92/92
f 24/24/24 92/92/92 93/93/93
f 91/91/91 94/94/94 92/92/92
f 90/90/90 95/95/95 94/94/94
f 96/96/96 93/93/93 92/92/92
f 97/97/97 94/94/94 95/95/95
f 90/90/90 98/98/98 91/91/91
f 90/90/90 94/94/94 98/98/98
f 98/98/98 94/94/94 91/91/91
f 96/96/96 92/92/92 99/99/99
f 92/92/92 94/94/94 99/99/99
f 99/99/99 94/94/94 100/100/100
f 101/101/101 96/96/96 99/99/99
f 101/101/101 99/99/99 100/100/100
f 102/102/102 101/101/101 100/100/100
f 97/97/97 103/103/103 94/94/94
f 100/100/100 94/94/94 103/103/103
f 104/104/104 103/103/103 97/97/97
f 104/104/104 105/105/105 103/103/103
f 100/100/100 103/103/103 105/105/105
f 106/106/106 105/105/105 104/104/104
f 106/106/106 107/107/107 105/105/105
f 107/107/107 100/100/100 105/105/105
f 108/108/108 107/107/107 106/106/106
f 108/108/108 109/109/109 107/107/107
f 102/102/102 100/100/100 110/110/110
f 107/107/107 110/110/110 100/100/100
f 110/110/110 107/107/107 109/109/109
f 110/110/110 111/111/111 102/102/102
f 110/110/110 109/109/109 112/112/112
f 110/110/110 112/112/112 111/111/111
