g ENV_S04_SLC2_Ramp_To_Goal_Floor_Slippery_MO
v 17.21555 7.007969 15.415222
v 17.21555 7.007969 17.069141
v 15.811189 6.436348 16.675102
v 15.811189 6.436348 15.058483
v 17.21555 7.007969 -15.4576025
v 7.9025297 3.216772 12.921732
v 7.9025297 3.216772 14.452187
v 15.811189 6.435297 -15.095611
v 17.21555 7.007969 -17.069492
v 15.811189 6.435297 -16.669146
v 7.9020042 3.216772 -14.419437
v 7.9020042 3.216772 -12.926811
v -0.0071811676 -0.0028018951 -12.168676
v -0.0071811676 -0.0028018951 -10.758011
v -7.9163647 -3.2223768 -9.918442
v -0.0061302185 -0.0022773743 10.786032
v -0.0061302185 -0.0022773743 12.230322
v -7.9163647 -3.2223768 -8.589211
v -15.82555 -6.4419518 -7.6676817
v -7.9153137 -3.2218513 8.6503315
v -7.9153137 -3.2218513 10.007933
v -15.82555 -6.4419518 -6.4209366
v -15.823975 -6.4409018 6.514105
v -15.823975 -6.4409018 7.785017
v -17.21415 -7.0067434 7.394655
v -17.21415 -7.0067434 6.12059
v -17.215725 -7.0077944 -6.022167
v -17.215725 -7.0077944 -7.2725897
vt 0.7309631 0.7489873
vt 0.755476 0.7489873
vt 0.7497083 0.7273582
vt 0.7259163 0.7273582
vt 0.27891582 0.7511502
vt 0.6941937 0.6019097
vt 0.71654373 0.6019097
vt 0.2839626 0.7288002
vt 0.25512385 0.7511502
vt 0.26089162 0.7288002
vt 0.2933352 0.60407263
vt 0.3156852 0.60407263
vt 0.32577878 0.4786241
vt 0.34668687 0.4786241
vt 0.35822237 0.35317558
vt 0.66247106 0.47718215
vt 0.6833792 0.47718215
vt 0.3776885 0.35317558
vt 0.39066595 0.22844802
vt 0.63074845 0.3524546
vt 0.6502146 0.3524546
vt 0.40941113 0.22844802
vt 0.59830487 0.22700608
vt 0.61705005 0.22700608
vt 0.6112823 0.20537703
vt 0.5925371 0.20537703
vt 0.41517887 0.20609799
vt 0.39643368 0.20609799
vn -0.37682712 0.92628354 -0.00042286396
vn -0.37682712 0.92628354 -0.00042286396
vn -0.37682712 0.92628354 -0.00042286396
vn -0.37682712 0.92628354 -0.00042286396
vn -0.37682712 0.92628354 -0.00042286396
vn -0.37682712 0.92628354 -0.00042286396
vn -0.37682712 0.92628354 -0.00042286396
vn -0.37682712 0.92628354 -0.00042286396
vn -0.37682712 0.92628354 -0.00042286396
vn -0.37682712 0.92628354 -0.00042286396
vn -0.37682712 0.92628354 -0.00042286396
vn -0.37682712 0.92628354 -0.00042286396
vn -0.37682712 0.92628354 -0.00042286396
vn -0.37682712 0.92628354 -0.00042286396
vn -0.37682712 0.92628354 -0.00042286396
vn -0.37682712 0.92628354 -0.00042286396
vn -0.37682712 0.92628354 0.00042286396
vn -0.37682712 0.92628354 -0.00042286396
vn -0.37682712 0.92628354 0.00042286396
vn -0.37682712 0.92628354 -0.00042286396
vn -0.37682712 0.92628354 0.00042286396
vn -0.37682712 0.92628354 -0.00042286396
vn -0.37682712 0.92628354 -0.00042286396
vn -0.37682712 0.92628354 0.00042286396
vn -0.37682712 0.92628354 0.00042286396
vn -0.37682712 0.92628354 -0.00042286396
vn -0.37682712 0.92628354 -0.00042286396
vn -0.37682712 0.92628354 0.00042286396
g ENV_S04_SLC2_Ramp_To_Goal_Floor_Slippery_MO_0
f 3/3/3 2/2/2 1/1/1
f 4/4/4 3/3/3 1/1/1
f 4/4/4 1/1/1 5/5/5
f 3/3/3 4/4/4 6/6/6
f 7/7/7 3/3/3 6/6/6
f 8/8/8 4/4/4 5/5/5
f 8/8/8 5/5/5 9/9/9
f 10/10/10 8/8/8 9/9/9
f 8/8/8 10/10/10 11/11/11
f 4/4/4 8/8/8 12/12/12
f 12/12/12 8/8/8 11/11/11
f 6/6/6 4/4/4 12/12/12
f 12/12/12 11/11/11 13/13/13
f 14/14/14 12/12/12 13/13/13
f 6/6/6 12/12/12 14/14/14
f 14/14/14 13/13/13 15/15/15
f 7/7/7 6/6/6 16/16/16
f 16/16/16 6/6/6 14/14/14
f 17/17/17 7/7/7 16/16/16
f 18/18/18 14/14/14 15/15/15
f 16/16/16 14/14/14 18/18/18
f 18/18/18 15/15/15 19/19/19
f 17/17/17 16/16/16 20/20/20
f 20/20/20 16/16/16 18/18/18
f 21/21/21 17/17/17 20/20/20
f 22/22/22 18/18/18 19/19/19
f 20/20/20 18/18/18 22/22/22
f 21/21/21 20/20/20 23/23/23
f 23/23/23 20/20/20 22/22/22
f 24/24/24 21/21/21 23/23/23
f 24/24/24 23/23/23 25/25/25
f 23/23/23 26/26/26 25/25/25
f 23/23/23 22/22/22 26/26/26
f 22/22/22 27/27/27 26/26/26
f 22/22/22 19/19/19 27/27/27
f 19/19/19 28/28/28 27/27/27
