g ENV_SY02_GX_Section02_Vinyl03_MO
v -39.12494 3.1087418 -81.62456
v -39.12494 2.2475586 -81.62456
v -39.147446 2.2475586 -81.7841
v -39.147446 3.1087418 -81.7841
v -39.12494 3.206932 -81.767746
v -39.11267 3.1885223 -81.64501
v -39.135178 3.206932 -88.25013
v -39.16176 3.1087418 -88.270584
v -39.16176 2.2475586 -88.270584
v -39.12494 3.1087418 -81.62456
v -39.069717 3.206932 -81.58364
v -39.069717 3.1087418 -81.52432
v -39.12494 2.2475586 -81.62456
v -39.069717 2.2475586 -81.52432
v -36.355255 3.1087418 -79.42762
v -36.355255 2.2475586 -79.42762
v -36.34912 3.206932 -79.48489
v -33.563065 2.2475586 -77.27364
v -33.563065 3.1087418 -77.27364
v -33.55284 3.206932 -77.32683
v -30.770874 2.2475586 -75.11967
v -30.770874 3.1087418 -75.11967
v -30.756554 3.206932 -75.17081
v -27.980728 2.2475586 -72.96569
v -27.980728 3.1087418 -72.96569
v -27.95823 3.206932 -73.01274
v -25.188538 2.2475586 -70.811714
v -25.188538 3.1087418 -70.811714
v -25.161942 3.206932 -70.85672
v -22.47203 2.2475586 -68.71501
v -22.47203 3.1087418 -68.71501
v -22.441345 3.206932 -68.75797
v -22.38816 3.1087418 -68.71706
v -22.38816 2.2475586 -68.71706
v -22.382027 3.1885223 -68.7457
v -22.38816 3.1087418 -68.71706
v -22.310432 3.206932 -68.819336
v -22.287926 3.1087418 -68.80093
v -22.38816 2.2475586 -68.71706
v -22.287926 2.2475586 -68.80093
v -18.781837 3.1087418 -73.45458
v -18.808426 3.206932 -73.47504
v -18.781837 2.2475586 -73.45458
v -39.069717 3.247841 -81.724785
v -36.34912 3.206932 -79.48489
v -39.069717 3.206932 -81.58364
v -36.336853 3.247841 -79.6199
v -39.069717 3.247841 -88.20308
v -35.76613 3.247841 -85.80159
v -39.12494 3.206932 -81.767746
v -39.135178 3.206932 -88.25013
v -36.336853 3.247841 -79.6199
v -33.55284 3.206932 -77.32683
v -36.34912 3.206932 -79.48489
v -33.526245 3.247841 -77.455696
v -35.76613 3.247841 -85.80159
v -32.368454 3.247841 -83.332596
v -39.147446 3.1087418 -94.87161
v -39.147446 2.2475586 -94.87161
v -39.069717 2.2475586 -94.87775
v -39.069717 3.1087418 -94.87775
v -39.069717 3.206932 -94.81843
v -39.13109 3.1885223 -94.83479
v -35.181107 3.206932 -92.1142
v -35.177017 3.1087418 -92.169426
v -35.177017 2.2475586 -92.169426
v -31.18612 3.206932 -89.33223
v -31.175896 3.1087418 -89.385414
v -31.175896 2.2475586 -89.385414
v -27.189095 3.206932 -86.55231
v -27.17273 3.1087418 -86.6014
v -27.17273 2.2475586 -86.6014
v -23.19207 3.206932 -83.77035
v -23.171608 3.1087418 -83.8174
v -23.171608 2.2475586 -83.8174
v -19.197083 3.206932 -80.98838
v -19.170494 3.1087418 -81.03543
v -19.170494 2.2475586 -81.03543
v -15.277786 2.2475586 -78.32711
v -15.308472 3.206932 -78.28415
v -15.277786 3.1087418 -78.32711
v -15.232788 2.2475586 -78.230965
v -15.232788 3.1087418 -78.230965
v -15.261421 3.1885223 -78.22074
v -15.308472 3.206932 -78.12869
v -15.232788 3.1087418 -78.230965
v -15.277786 3.1087418 -78.106186
v -18.808426 3.206932 -73.47504
v -18.781837 3.1087418 -73.45458
v -15.277786 2.2475586 -78.106186
v -15.232788 2.2475586 -78.230965
v -18.781837 2.2475586 -73.45458
v -39.1454 3.206932 -94.73047
v -39.135178 3.206932 -88.25013
v -39.16176 3.1087418 -88.270584
v -39.17813 3.1087418 -94.75297
v -39.147446 3.1087418 -94.87161
v -39.147446 2.2475586 -94.87161
v -39.17813 2.2475586 -94.75297
v -39.16176 2.2475586 -88.270584
v -39.069717 3.206932 -94.81843
v -35.181107 3.206932 -92.1142
v -35.19542 3.247841 -91.97714
v -39.069717 3.247841 -94.677284
v -39.1454 3.206932 -94.73047
v -39.13109 3.1885223 -94.83479
v -39.135178 3.206932 -88.25013
v -39.069717 3.247841 -88.20308
v -35.76613 3.247841 -85.80159
v -35.181107 3.206932 -92.1142
v -31.18612 3.206932 -89.33223
v -31.21067 3.247841 -89.20336
v -35.19542 3.247841 -91.97714
v -32.368454 3.247841 -83.332596
v -35.76613 3.247841 -85.80159
v -22.441345 3.206932 -68.75797
v -25.161942 3.206932 -70.85672
v -25.098534 3.247841 -70.96513
v -22.363617 3.247841 -68.860245
v -22.177467 3.247841 -75.92562
v -18.873886 3.247841 -73.52208
v -18.808426 3.206932 -73.47504
v -22.310432 3.206932 -68.819336
v -22.382027 3.1885223 -68.7457
v -18.873886 3.247841 -73.52208
v -15.308472 3.206932 -78.12869
v -18.808426 3.206932 -73.47504
v -15.386208 3.247841 -78.18187
v -19.260498 3.247841 -80.87997
v -22.177467 3.247841 -75.92562
v -19.197083 3.206932 -80.98838
v -15.308472 3.206932 -78.28415
v -15.261421 3.1885223 -78.22074
v -33.526245 3.247841 -77.455696
v -30.756554 3.206932 -75.17081
v -33.55284 3.206932 -77.32683
v -30.71769 3.247841 -75.29354
v -32.368454 3.247841 -83.332596
v -28.972824 3.247841 -80.8636
v -31.18612 3.206932 -89.33223
v -27.189095 3.206932 -86.55231
v -27.227959 3.247841 -86.42958
v -31.21067 3.247841 -89.20336
v -28.972824 3.247841 -80.8636
v -32.368454 3.247841 -83.332596
v -30.71769 3.247841 -75.29354
v -27.95823 3.206932 -73.01274
v -30.756554 3.206932 -75.17081
v -27.90709 3.247841 -73.12933
v -28.972824 3.247841 -80.8636
v -25.57515 3.247841 -78.39461
v -27.189095 3.206932 -86.55231
v -23.19207 3.206932 -83.77035
v -23.245255 3.247841 -83.65579
v -27.227959 3.247841 -86.42958
v -25.57515 3.247841 -78.39461
v -28.972824 3.247841 -80.8636
v -27.90709 3.247841 -73.12933
v -25.161942 3.206932 -70.85672
v -27.95823 3.206932 -73.01274
v -25.098534 3.247841 -70.96513
v -25.57515 3.247841 -78.39461
v -22.177467 3.247841 -75.92562
v -23.19207 3.206932 -83.77035
v -19.197083 3.206932 -80.98838
v -19.260498 3.247841 -80.87997
v -23.245255 3.247841 -83.65579
v -22.177467 3.247841 -75.92562
v -25.57515 3.247841 -78.39461
v -39.069717 3.206932 -81.58364
v -39.11267 3.1885223 -81.64501
v -39.12494 3.206932 -81.767746
v -39.069717 3.247841 -81.724785
vt 0.7687645 -4.375653
vt 0.9687915 -4.375653
vt 0.9708257 -4.3993845
vt 0.7687645 -4.3987064
vt 0.74367666 -4.3987064
vt 0.74774504 -4.3749747
vt 0.7416425 -5.453085
vt 0.76605225 -5.453085
vt 0.96743536 -5.453763
vt 0.7687645 -4.375653
vt 0.74232054 -4.3519206
vt 0.76808643 -4.3519206
vt 0.9687915 -4.375653
vt 0.9721818 -4.3519206
vt 0.7707987 -3.1585405
vt 0.9762502 -3.1585405
vt 0.7450328 -3.1585405
vt 0.9796405 -1.9312577
vt 0.77351093 -1.9305797
vt 0.7484231 -1.9305797
vt 0.9830308 -0.70329666
vt 0.77690125 -0.7026186
vt 0.75113535 -0.7026186
vt 0.98574305 0.5246639
vt 0.78029156 0.525342
vt 0.75452566 0.525342
vt 0.98981094 1.752625
vt 0.78368187 1.753303
vt 0.7579155 1.753303
vt 0.9925232 2.9493952
vt 0.7870722 2.9500732
vt 0.7613058 2.9500732
vt 0.7870722 2.9738054
vt 0.990489 2.9731274
vt 0.76605225 2.9738054
vt 0.7870722 2.9738054
vt 0.7613058 2.9975376
vt 0.7870722 2.9975376
vt 0.990489 2.9731274
vt 0.9925232 2.9968596
vt 0.78910637 4.0790377
vt 0.76334 4.0790377
vt 0.99523544 4.0790377
vt 0.48804903 0.98370886
vt 0.26768064 0.99320126
vt 0.48804903 0.99320126
vt 0.26768064 0.98370886
vt 0.48804903 0.59314775
vt 0.26768064 0.59314775
vt 0.49279547 0.98370886
vt 0.49279547 0.59314775
vt 0.4121065 0.9830308
vt 0.100878716 0.9891329
vt 0.4121065 0.9891329
vt 0.100878716 0.9830308
vt 0.4121065 0.70773935
vt 0.100878716 0.70773935
vt 0.7687645 15.726699
vt 0.9626889 15.72602
vt 0.96607924 15.703645
vt 0.7674084 15.704322
vt 0.74232054 15.704322
vt 0.7484231 15.726699
vt 0.7409644 14.536708
vt 0.76605225 14.536708
vt 0.96743536 14.536031
vt 0.7416425 13.333158
vt 0.7667303 13.333158
vt 0.9687915 13.33248
vt 0.74367666 12.129607
vt 0.7687645 12.129607
vt 0.9701476 12.128928
vt 0.74571085 10.925378
vt 0.7707987 10.925378
vt 0.9721818 10.924701
vt 0.74774504 9.7218275
vt 0.77351093 9.7218275
vt 0.97489405 9.721149
vt 0.9796405 8.546077
vt 0.7518134 8.546077
vt 0.77690125 8.546077
vt 0.9776063 8.522345
vt 0.77690125 8.522345
vt 0.7558813 8.522345
vt 0.7504573 8.49929
vt 0.77690125 8.522345
vt 0.7762232 8.49929
vt 0.7538476 7.4198246
vt 0.7796135 7.4198246
vt 0.9809966 8.498612
vt 0.9776063 8.522345
vt 0.98574305 7.4191465
vt 0.7450328 15.749753
vt 0.7463889 16.764126
vt 0.7707987 16.764126
vt 0.76944256 15.749753
vt 0.7687645 15.726699
vt 0.9626889 15.72602
vt 0.96404505 15.749074
vt 0.96743536 16.763447
vt 0.49076128 0.5050006
vt 0.2175045 0.5050006
vt 0.2175045 0.51313734
vt 0.49076128 0.51313734
vt 0.49550772 0.51313734
vt 0.49550772 0.5050006
vt 0.49550772 0.92200565
vt 0.49076128 0.92200565
vt 0.2175045 0.92200565
vt 0.3992238 0.50906897
vt 0.09884453 0.50906897
vt 0.09884453 0.5158496
vt 0.3992238 0.5158496
vt 0.09884453 0.7809696
vt 0.3992238 0.7809696
vt 0.007306576 0.99726963
vt 0.2792077 0.99726963
vt 0.2792077 0.98777676
vt 0.007306576 0.98777676
vt 0.2792077 0.56941605
vt 0.007306576 0.56941605
vt 0.0018825531 0.56941605
vt 0.0018825531 0.98777676
vt 0.0018825531 0.99726963
vt 0.007984638 0.91319084
vt 0.0018825531 0.51449347
vt 0.0018825531 0.91319084
vt 0.007984638 0.51449347
vt 0.3124323 0.51449347
vt 0.3124323 0.91319084
vt 0.3124323 0.5063567
vt 0.007984638 0.5063567
vt 0.0018825531 0.5063567
vt 0.41346264 0.9843869
vt 0.09952259 0.990489
vt 0.41346264 0.990489
vt 0.09952259 0.9843869
vt 0.41346264 0.7063832
vt 0.09952259 0.7063832
vt 0.40057993 0.5083909
vt 0.0974884 0.5083909
vt 0.0974884 0.51449347
vt 0.40057993 0.51449347
vt 0.0974884 0.78232574
vt 0.40057993 0.78232574
vt 0.41549683 0.985065
vt 0.0974884 0.99184513
vt 0.41549683 0.99184513
vt 0.0974884 0.985065
vt 0.41549683 0.7050271
vt 0.0974884 0.7050271
vt 0.401258 0.5070348
vt 0.09613228 0.5070348
vt 0.09613228 0.51313734
vt 0.401258 0.51313734
vt 0.09613228 0.78368187
vt 0.401258 0.78368187
vt 0.41685295 0.98642063
vt 0.09613228 0.99320126
vt 0.41685295 0.99320126
vt 0.09613228 0.98642063
vt 0.41685295 0.703671
vt 0.09613228 0.703671
vt 0.40261412 0.50567865
vt 0.09477615 0.50567865
vt 0.09477615 0.5124593
vt 0.40261412 0.5124593
vt 0.09477615 0.78435993
vt 0.40261412 0.78435993
vt 0.48804903 0.99320126
vt 0.49279547 0.94777155
vt 0.49279547 0.98370886
vt 0.48804903 0.98370886
vn -0.9844359 0.027610898 0.17356144
vn -0.9844359 -0.0035052896 0.17570898
vn -0.8288547 -0.0035052896 -0.55945295
vn -0.8288547 0.04316902 -0.55779594
vn -0.5954827 0.69661057 -0.40016752
vn -0.81329644 0.56436646 0.14156061
vn -0.5954827 0.69661057 -0.40016752
vn -0.82107556 0.04316902 -0.56918484
vn -0.82107556 -0.0035052896 -0.57080877
vn -0.9844359 0.027610898 0.17356144
vn -0.41656423 0.68883145 0.59328365
vn -0.5799246 0.04316902 0.8135256
vn -0.9844359 -0.0035052896 0.17570898
vn -0.5799246 -0.0035052896 0.81466264
vn -0.57214546 0.04316902 0.81901526
vn -0.57214546 -0.0035052896 0.82014465
vn -0.41656423 0.68883145 0.59328365
vn -0.57214546 -0.0035052896 0.82014465
vn -0.57214546 0.04316902 0.81901526
vn -0.41656423 0.68883145 0.59328365
vn -0.57214546 -0.0035052896 0.82014465
vn -0.57214546 0.04316902 0.81901526
vn -0.41656423 0.68883145 0.59328365
vn -0.57214546 -0.0035052896 0.82014465
vn -0.57214546 0.04316902 0.81901526
vn -0.41656423 0.68883145 0.59328365
vn -0.57214546 -0.0035052896 0.82014465
vn -0.57214546 0.04316902 0.81901526
vn -0.41656423 0.68883145 0.59328365
vn -0.56436646 -0.0035052896 0.82551694
vn -0.56436646 0.04316902 0.82439494
vn -0.4087851 0.68883145 0.5986702
vn 0.17464477 0.027610898 0.98424435
vn 0.17464477 -0.0035052896 0.9846253
vn 0.14352846 0.56436646 0.8129515
vn 0.17464477 0.027610898 0.98424435
vn 0.58693516 0.69661057 0.41260245
vn 0.8125281 0.04316902 0.5813214
vn 0.17464477 -0.0035052896 0.9846253
vn 0.8125281 -0.0035052896 0.58291155
vn 0.82030714 0.04316902 0.57029176
vn 0.5947143 0.69661057 0.40130863
vn 0.82030714 -0.0035052896 0.5719125
vn -0.012052031 0.9999274 -0
vn -0.41656423 0.68883145 0.59328365
vn -0.41656423 0.68883145 0.59328365
vn -0.004273759 0.99999094 -0
vn -0.004273759 0.99999094 -0
vn 0.003505289 0.9999939 -0
vn -0.5954827 0.69661057 -0.40016752
vn -0.5954827 0.69661057 -0.40016752
vn -0.004273759 0.99999094 -0
vn -0.41656423 0.68883145 0.59328365
vn -0.41656423 0.68883145 0.59328365
vn -0.004273759 0.99999094 -0
vn 0.003505289 0.9999939 -0
vn 0.003505289 0.9999939 -0
vn -0.17541313 0.027610898 -0.9841077
vn -0.17541313 -0.0035052896 -0.98448867
vn 0.563598 -0.0035052896 -0.82604176
vn 0.563598 0.04316902 -0.8249205
vn 0.40801668 0.68883145 -0.5991941
vn -0.14429688 0.56436646 -0.8128155
vn 0.41579574 0.68883145 -0.5938225
vn 0.57137704 0.04316902 -0.8195516
vn 0.57137704 -0.0035052896 -0.8206802
vn 0.41579574 0.68883145 -0.5938225
vn 0.57137704 0.04316902 -0.8195516
vn 0.57137704 -0.0035052896 -0.8206802
vn 0.41579574 0.68883145 -0.5938225
vn 0.57137704 0.04316902 -0.8195516
vn 0.57137704 -0.0035052896 -0.8206802
vn 0.41579574 0.68883145 -0.5938225
vn 0.57137704 0.04316902 -0.8195516
vn 0.57137704 -0.0035052896 -0.8206802
vn 0.41579574 0.68883145 -0.5938225
vn 0.57137704 0.04316902 -0.8195516
vn 0.57137704 -0.0035052896 -0.8206802
vn 0.57915616 -0.0035052896 -0.8152091
vn 0.41579574 0.68883145 -0.5938225
vn 0.57915616 0.04316902 -0.81407285
vn 0.9836675 -0.0035052896 -0.1799611
vn 0.9836675 0.027610898 -0.1778649
vn 0.8125281 0.56436646 -0.14590634
vn 0.5947143 0.69661057 0.40130863
vn 0.9836675 0.027610898 -0.1778649
vn 0.8280862 0.04316902 0.5589362
vn 0.5947143 0.69661057 0.40130863
vn 0.82030714 0.04316902 0.57029176
vn 0.8280862 -0.0035052896 0.56058985
vn 0.9836675 -0.0035052896 -0.1799611
vn 0.82030714 -0.0035052896 0.5719125
vn -0.5877036 0.69661057 -0.41150722
vn -0.5954827 0.69661057 -0.40016752
vn -0.82107556 0.04316902 -0.56918484
vn -0.81329644 0.04316902 -0.5802459
vn -0.17541313 0.027610898 -0.9841077
vn -0.17541313 -0.0035052896 -0.98448867
vn -0.81329644 -0.0035052896 -0.581839
vn -0.82107556 -0.0035052896 -0.57080877
vn 0.40801668 0.68883145 -0.5991941
vn 0.41579574 0.68883145 -0.5938225
vn 0.003505289 0.9999939 -0
vn -0.004273759 0.99999094 -0
vn -0.5877036 0.69661057 -0.41150722
vn -0.14429688 0.56436646 -0.8128155
vn -0.5954827 0.69661057 -0.40016752
vn -0.004273759 0.99999094 -0
vn 0.003505289 0.9999939 -0
vn 0.41579574 0.68883145 -0.5938225
vn 0.41579574 0.68883145 -0.5938225
vn 0.003505289 0.9999939 -0
vn 0.003505289 0.9999939 -0
vn 0.003505289 0.9999939 -0
vn 0.003505289 0.9999939 -0
vn -0.4087851 0.68883145 0.5986702
vn -0.41656423 0.68883145 0.59328365
vn -0.004273759 0.99999094 -0
vn 0.003505289 0.9999939 -0
vn 0.003505289 0.9999939 -0
vn 0.003505289 0.9999939 -0
vn 0.5947143 0.69661057 0.40130863
vn 0.58693516 0.69661057 0.41260245
vn 0.14352846 0.56436646 0.8129515
vn 0.003505289 0.9999939 -0
vn 0.5947143 0.69661057 0.40130863
vn 0.5947143 0.69661057 0.40130863
vn 0.01128376 0.99993634 -0
vn 0.003505289 0.9999939 -0
vn 0.003505289 0.9999939 -0
vn 0.41579574 0.68883145 -0.5938225
vn 0.41579574 0.68883145 -0.5938225
vn 0.8125281 0.56436646 -0.14590634
vn -0.004273759 0.99999094 -0
vn -0.41656423 0.68883145 0.59328365
vn -0.41656423 0.68883145 0.59328365
vn -0.004273759 0.99999094 -0
vn 0.003505289 0.9999939 -0
vn 0.003505289 0.9999939 -0
vn 0.41579574 0.68883145 -0.5938225
vn 0.41579574 0.68883145 -0.5938225
vn 0.003505289 0.9999939 -0
vn 0.003505289 0.9999939 -0
vn 0.003505289 0.9999939 -0
vn 0.003505289 0.9999939 -0
vn -0.004273759 0.99999094 -0
vn -0.41656423 0.68883145 0.59328365
vn -0.41656423 0.68883145 0.59328365
vn -0.004273759 0.99999094 -0
vn 0.003505289 0.9999939 -0
vn 0.003505289 0.9999939 -0
vn 0.41579574 0.68883145 -0.5938225
vn 0.41579574 0.68883145 -0.5938225
vn 0.003505289 0.9999939 -0
vn 0.003505289 0.9999939 -0
vn 0.003505289 0.9999939 -0
vn 0.003505289 0.9999939 -0
vn -0.004273759 0.99999094 -0
vn -0.41656423 0.68883145 0.59328365
vn -0.41656423 0.68883145 0.59328365
vn -0.004273759 0.99999094 -0
vn 0.003505289 0.9999939 -0
vn 0.003505289 0.9999939 -0
vn 0.41579574 0.68883145 -0.5938225
vn 0.41579574 0.68883145 -0.5938225
vn 0.003505289 0.9999939 -0
vn 0.003505289 0.9999939 -0
vn 0.003505289 0.9999939 -0
vn 0.003505289 0.9999939 -0
vn -0.41656423 0.68883145 0.59328365
vn -0.81329644 0.56436646 0.14156061
vn -0.5954827 0.69661057 -0.40016752
vn -0.012052031 0.9999274 -0
g ENV_SY02_GX_Section02_Vinyl03_MO_0
f 3/3/3 2/2/2 1/1/1
f 4/4/4 3/3/3 1/1/1
f 4/4/4 1/1/1 5/5/5
f 1/1/1 6/6/6 5/5/5
f 5/5/5 7/7/7 4/4/4
f 7/7/7 8/8/8 4/4/4
f 3/3/3 4/4/4 8/8/8
f 9/9/9 3/3/3 8/8/8
f 11/11/11 6/6/6 10/10/10
f 12/12/12 11/11/11 10/10/10
f 10/10/10 13/13/13 12/12/12
f 13/13/13 14/14/14 12/12/12
f 12/12/12 15/15/15 11/11/11
f 12/12/12 14/14/14 15/15/15
f 14/14/14 16/16/16 15/15/15
f 15/15/15 17/17/17 11/11/11
f 16/16/16 18/18/18 15/15/15
f 15/15/15 19/19/19 17/17/17
f 18/18/18 19/19/19 15/15/15
f 19/19/19 20/20/20 17/17/17
f 18/18/18 21/21/21 19/19/19
f 19/19/19 22/22/22 20/20/20
f 21/21/21 22/22/22 19/19/19
f 22/22/22 23/23/23 20/20/20
f 21/21/21 24/24/24 22/22/22
f 22/22/22 25/25/25 23/23/23
f 24/24/24 25/25/25 22/22/22
f 25/25/25 26/26/26 23/23/23
f 24/24/24 27/27/27 25/25/25
f 25/25/25 28/28/28 26/26/26
f 27/27/27 28/28/28 25/25/25
f 28/28/28 29/29/29 26/26/26
f 27/27/27 30/30/30 28/28/28
f 29/29/29 28/28/28 31/31/31
f 30/30/30 31/31/31 28/28/28
f 32/32/32 29/29/29 31/31/31
f 31/31/31 30/30/30 33/33/33
f 31/31/31 33/33/33 32/32/32
f 30/30/30 34/34/34 33/33/33
f 33/33/33 35/35/35 32/32/32
f 37/37/37 35/35/35 36/36/36
f 38/38/38 37/37/37 36/36/36
f 36/36/36 39/39/39 38/38/38
f 39/39/39 40/40/40 38/38/38
f 38/38/38 41/41/41 37/37/37
f 38/38/38 40/40/40 41/41/41
f 41/41/41 42/42/42 37/37/37
f 40/40/40 43/43/43 41/41/41
f 46/46/46 45/45/45 44/44/44
f 45/45/45 47/47/47 44/44/44
f 44/44/44 47/47/47 48/48/48
f 47/47/47 49/49/49 48/48/48
f 44/44/44 48/48/48 50/50/50
f 48/48/48 51/51/51 50/50/50
f 54/54/54 53/53/53 52/52/52
f 53/53/53 55/55/55 52/52/52
f 52/52/52 55/55/55 56/56/56
f 55/55/55 57/57/57 56/56/56
f 60/60/60 59/59/59 58/58/58
f 61/61/61 60/60/60 58/58/58
f 61/61/61 58/58/58 62/62/62
f 58/58/58 63/63/63 62/62/62
f 62/62/62 64/64/64 61/61/61
f 60/60/60 61/61/61 65/65/65
f 64/64/64 65/65/65 61/61/61
f 66/66/66 60/60/60 65/65/65
f 64/64/64 67/67/67 65/65/65
f 66/66/66 65/65/65 68/68/68
f 67/67/67 68/68/68 65/65/65
f 69/69/69 66/66/66 68/68/68
f 67/67/67 70/70/70 68/68/68
f 69/69/69 68/68/68 71/71/71
f 70/70/70 71/71/71 68/68/68
f 72/72/72 69/69/69 71/71/71
f 70/70/70 73/73/73 71/71/71
f 72/72/72 71/71/71 74/74/74
f 73/73/73 74/74/74 71/71/71
f 75/75/75 72/72/72 74/74/74
f 73/73/73 76/76/76 74/74/74
f 75/75/75 74/74/74 77/77/77
f 76/76/76 77/77/77 74/74/74
f 78/78/78 75/75/75 77/77/77
f 79/79/79 78/78/78 77/77/77
f 77/77/77 76/76/76 80/80/80
f 81/81/81 79/79/79 77/77/77
f 81/81/81 77/77/77 80/80/80
f 82/82/82 79/79/79 81/81/81
f 83/83/83 82/82/82 81/81/81
f 81/81/81 80/80/80 83/83/83
f 80/80/80 84/84/84 83/83/83
f 86/86/86 84/84/84 85/85/85
f 87/87/87 86/86/86 85/85/85
f 87/87/87 85/85/85 88/88/88
f 89/89/89 87/87/87 88/88/88
f 87/87/87 90/90/90 86/86/86
f 90/90/90 87/87/87 89/89/89
f 90/90/90 91/91/91 86/86/86
f 92/92/92 90/90/90 89/89/89
f 95/95/95 94/94/94 93/93/93
f 96/96/96 95/95/95 93/93/93
f 96/96/96 93/93/93 97/97/97
f 93/93/93 63/63/63 97/97/97
f 97/97/97 98/98/98 96/96/96
f 98/98/98 99/99/99 96/96/96
f 96/96/96 99/99/99 95/95/95
f 99/99/99 100/100/100 95/95/95
f 103/103/103 102/102/102 101/101/101
f 104/104/104 103/103/103 101/101/101
f 104/104/104 101/101/101 105/105/105
f 101/101/101 106/106/106 105/105/105
f 105/105/105 107/107/107 104/104/104
f 107/107/107 108/108/108 104/104/104
f 103/103/103 104/104/104 108/108/108
f 109/109/109 103/103/103 108/108/108
f 112/112/112 111/111/111 110/110/110
f 113/113/113 112/112/112 110/110/110
f 114/114/114 112/112/112 113/113/113
f 115/115/115 114/114/114 113/113/113
f 118/118/118 117/117/117 116/116/116
f 119/119/119 118/118/118 116/116/116
f 118/118/118 119/119/119 120/120/120
f 119/119/119 121/121/121 120/120/120
f 122/122/122 121/121/121 119/119/119
f 123/123/123 122/122/122 119/119/119
f 119/119/119 116/116/116 123/123/123
f 116/116/116 124/124/124 123/123/123
f 127/127/127 126/126/126 125/125/125
f 126/126/126 128/128/128 125/125/125
f 125/125/125 128/128/128 129/129/129
f 130/130/130 125/125/125 129/129/129
f 131/131/131 129/129/129 128/128/128
f 132/132/132 131/131/131 128/128/128
f 128/128/128 126/126/126 132/132/132
f 126/126/126 133/133/133 132/132/132
f 136/136/136 135/135/135 134/134/134
f 135/135/135 137/137/137 134/134/134
f 134/134/134 137/137/137 138/138/138
f 137/137/137 139/139/139 138/138/138
f 142/142/142 141/141/141 140/140/140
f 143/143/143 142/142/142 140/140/140
f 144/144/144 142/142/142 143/143/143
f 145/145/145 144/144/144 143/143/143
f 148/148/148 147/147/147 146/146/146
f 147/147/147 149/149/149 146/146/146
f 146/146/146 149/149/149 150/150/150
f 149/149/149 151/151/151 150/150/150
f 154/154/154 153/153/153 152/152/152
f 155/155/155 154/154/154 152/152/152
f 156/156/156 154/154/154 155/155/155
f 157/157/157 156/156/156 155/155/155
f 160/160/160 159/159/159 158/158/158
f 159/159/159 161/161/161 158/158/158
f 158/158/158 161/161/161 162/162/162
f 161/161/161 163/163/163 162/162/162
f 166/166/166 165/165/165 164/164/164
f 167/167/167 166/166/166 164/164/164
f 168/168/168 166/166/166 167/167/167
f 169/169/169 168/168/168 167/167/167
f 172/172/172 171/171/171 170/170/170
f 173/173/173 172/172/172 170/170/170
