g ENV_S04_Path_M_HardPlastic_White_MO
v 19.7196 -0.38701248 -2.9554558
v 19.718395 -0.34063148 -3.0132809
v 19.711166 -0.3785801 -3.0024395
v 19.73767 -0.34002876 -2.9566593
v 19.73767 0.34002876 -2.9566593
v 19.718395 0.34063148 -3.0132809
v 19.73767 -0.35508728 3.761406
v 19.73767 0.3550892 3.761406
v 19.7196 0.38701248 -2.9554558
v 19.7196 -0.40267372 3.7602024
v 19.67322 -0.41472054 -2.9566593
v 19.67322 -0.40689087 3.761406
v 19.67322 -0.40327644 3.8180275
v 19.711166 -0.39424133 3.8071861
v 19.718395 -0.35629272 3.8180275
v 19.718395 0.35629272 3.8180275
v 19.7196 0.40267372 3.7602024
v 19.711166 0.3785801 -3.0024395
v 19.67322 0.3876152 -3.0132809
v 19.67322 0.41472244 -2.9566593
v 19.711166 0.39424133 3.8071861
v 19.67322 0.40327644 3.8180275
v 19.67322 0.41472244 3.761406
v 19.05219 0.3876152 -3.0126781
v 19.05219 0.41472244 -2.9578648
v 19.672014 0.35689545 3.8415203
v 19.718395 -0.35629272 3.8180275
v 19.05219 0.40327644 3.8180275
v 19.05219 0.41472244 3.763214
v 19.05219 0.35689545 3.8415203
v 19.672014 -0.35689545 3.8415203
v -19.029903 0.40327644 3.8180275
v -19.029903 0.41472244 3.763214
v -19.673218 0.41472244 3.761406
v 19.67322 -0.40327644 3.8180275
v 19.711166 -0.39424133 3.8071861
v -19.029903 0.35689545 3.8415203
v 19.05219 -0.35689545 3.8415203
v 19.05219 -0.40327644 3.8180275
v 19.67322 -0.40689087 3.761406
v 19.05219 -0.40689087 3.763214
v -19.029903 -0.35689545 3.8415203
v -19.029903 -0.40327644 3.8180275
v -19.029903 -0.40689087 3.763214
v -19.673218 -0.40689087 3.761406
v -19.673218 -0.40327644 3.8180275
v -19.672016 -0.35689545 3.8415203
v -19.672016 0.35689545 3.8415203
v -19.673218 0.40327644 3.8180275
v -19.718395 0.35629272 3.8180275
v -19.672016 -0.35689545 3.8415203
v -19.718395 -0.35629272 3.8180275
v -19.673218 -0.40327644 3.8180275
v -19.7196 0.40267372 3.7602024
v -19.711166 0.39424133 3.8071861
v -19.73767 0.3550892 3.761406
v -19.7196 0.38701248 -2.9554558
v -19.673218 0.41472244 -2.9566593
v -19.73767 0.34002876 -2.9566593
v -19.73767 -0.35508728 3.761406
v -19.711166 -0.39424133 3.8071861
v -19.7196 -0.40267372 3.7602024
v -19.673218 -0.40689087 3.761406
v -19.73767 -0.34002876 -2.9566593
v -19.7196 -0.38701248 -2.9554558
v -19.673218 -0.41472054 -2.9566593
v -19.673218 -0.3876152 -3.0132809
v -19.718395 0.34063148 -3.0132809
v -19.718395 -0.34063148 -3.0132809
v -19.711166 -0.3785801 -3.0024395
v -19.672016 -0.3412342 -3.036171
v -19.672016 0.3412342 -3.036171
v -19.711166 0.3785801 -3.0024395
v -19.673218 0.3876152 -3.0132809
v -19.029903 0.3412342 -3.036171
v -19.672016 -0.3412342 -3.036171
v -19.029903 0.3876152 -3.0126781
v -19.029903 0.41472244 -2.9578648
v -19.029903 -0.3412342 -3.036171
v -19.673218 -0.3876152 -3.0132809
v 19.05219 0.3412342 -3.036171
v 19.672014 0.3412342 -3.036171
v 19.05219 -0.3412342 -3.036171
v 19.672014 -0.3412342 -3.036171
v 19.718395 -0.34063148 -3.0132809
v 19.67322 -0.3876152 -3.0132809
v 19.711166 -0.3785801 -3.0024395
v 19.7196 -0.38701248 -2.9554558
v 19.67322 -0.41472054 -2.9566593
v 19.05219 -0.3876152 -3.0126781
v 19.05219 -0.41472054 -2.9578648
v -19.029903 -0.3876152 -3.0126781
v -19.029903 -0.41472054 -2.9578648
v -19.673218 -0.41472054 -2.9566593
vt -2.1193852 0.11851025
vt -2.112388 0.1115129
vt -2.117477 0.112149
vt -2.113024 0.11851025
vt -2.029055 0.12868834
vt -2.0252385 0.12105489
vt -2.123202 0.87486553
vt -2.0322359 0.87359333
vt -2.0226939 0.12996054
vt -2.1295633 0.87422943
vt -2.1263826 0.117874146
vt -2.1352885 0.87486553
vt -2.1340163 0.8818629
vt -2.1289272 0.8805907
vt -2.123202 0.882499
vt -2.029055 0.8818629
vt -2.0258746 0.8729572
vt -2.0220578 0.12487149
vt -2.0169687 0.12423539
vt -2.0156965 0.13059664
vt -2.0252385 0.8780463
vt -2.0201495 0.8793185
vt -2.0195134 0.8729572
vt -1.938089 0.12232709
vt -1.9374529 0.13059664
vt -2.0220578 0.8844075
vt -2.033508 0.9728291
vt -1.9406335 0.8863158
vt -1.9412696 0.8786824
vt -1.9406335 0.89267707
vt -2.0265107 0.9734652
vt 2.8761218 0.8697765
vt 2.8754857 0.86277914
vt 2.95691 0.86214304
vt -2.027783 0.97982645
vt -2.032872 0.97791815
vt 2.8767579 0.87613773
vt -1.943178 0.9830072
vt -1.943178 0.98936844
vt -2.028419 0.98746014
vt -1.943178 0.9963658
vt 2.881211 0.96646786
vt 2.881211 0.9728291
vt 2.8818471 0.97982645
vt 2.9639075 0.97791815
vt 2.9639075 0.9702847
vt 2.9632714 0.96392345
vt 2.961363 0.87550163
vt 2.9588182 0.8691404
vt 2.9658158 0.8697765
vt 3.056146 0.8882241
vt 3.056146 0.8812268
vt 3.0637796 0.8844075
vt 2.9626353 0.86214304
vt 2.9619992 0.8672321
vt 2.9689963 0.86277914
vt 2.9683602 0.12359929
vt 2.9619992 0.12359929
vt 2.9747217 0.12359929
vt 3.056782 0.87422943
vt 3.0612347 0.8805907
vt 3.063143 0.87486553
vt 3.0688684 0.87613773
vt 3.0618708 0.12105489
vt 3.0682323 0.12169099
vt 3.0752294 0.12041879
vt 3.0695045 0.1115129
vt 2.9721773 0.11596584
vt 3.0618708 0.1140573
vt 3.06696 0.11532974
vt 3.062507 0.107059956
vt 2.9683602 0.1096046
vt 2.9683602 0.11851025
vt 2.9645436 0.11596584
vt 2.881211 0.09879041
vt 2.967724 0.019910574
vt 2.880575 0.105787754
vt 2.880575 0.1134212
vt 2.8824832 0.012913227
vt 2.9683602 0.013549328
vt -1.938089 0.11596584
vt -2.0182412 0.11914635
vt -1.9444503 0.029452562
vt -2.0246024 0.03581381
vt -2.0309637 0.03644991
vt -2.0252385 0.029452562
vt -2.0303276 0.030724764
vt -2.033508 0.024999619
vt -2.0271468 0.021818876
vt -1.9444503 0.023091316
vt -1.9450865 0.01545763
vt 2.8824832 0.00591588
vt 2.8824832 -0.0017178059
vt 2.9689963 0.005279541
vn 0.722557 -0.6913113 -0
vn 0.77254313 -0.0039215684 -0.63495016
vn 0.62352467 -0.59999543 -0.501221
vn 0.9999924 -0.0039215684 -0
vn 0.9999924 0.003921509 -0
vn 0.77254313 0.003921509 -0.63495016
vn 0.9999924 -0.0039215684 -0
vn 0.9999924 0.003921509 -0
vn 0.722557 0.69131124 -0
vn 0.722557 -0.6913113 -0
vn 0.027440673 -0.9996234 -0
vn 0.027440673 -0.9996234 -0
vn 0.019607723 -0.77254313 0.63465947
vn 0.63136774 -0.59999543 0.4913046
vn 0.76470006 -0.0039215684 0.6443745
vn 0.76470006 0.003921509 0.6443745
vn 0.722557 0.69131124 -0
vn 0.62352467 0.5999954 -0.50122106
vn 0.019607723 0.7725431 -0.6346595
vn 0.027440675 0.9996234 -0
vn 0.63136774 0.5999954 0.4913047
vn 0.019607723 0.7725431 0.6346595
vn 0.027440675 0.9996234 -0
vn 0.0039215684 0.76469994 -0.6443746
vn -0.003921509 0.99999225 -0.00034526698
vn 0.035293877 0.011764526 0.9993077
vn 0.76470006 -0.0039215684 0.6443745
vn 0.0039215684 0.76469994 0.6443746
vn -0.003921509 0.99999225 -0.00034526698
vn -0.003921509 0.011764526 0.9999231
vn 0.035293877 -0.011764646 0.9993077
vn -0.003921509 0.76469994 0.6443746
vn -0.003921509 0.99999225 -0.00034526698
vn -0.027440555 0.9996234 -0
vn 0.019607723 -0.77254313 0.63465947
vn 0.63136774 -0.59999543 0.4913046
vn -0.003921509 0.011764526 0.9999231
vn -0.003921509 -0.011764646 0.9999231
vn 0.0039215684 -0.76470006 0.6443745
vn 0.027440673 -0.9996234 -0
vn -0.003921509 -0.9999924 -0
vn -0.003921509 -0.011764646 0.9999231
vn -0.003921509 -0.76470006 0.6443745
vn -0.003921509 -0.9999924 -0
vn -0.027440554 -0.9996234 -0
vn -0.019607663 -0.77254313 0.63465947
vn -0.035293818 -0.011764646 0.9993077
vn -0.035293818 0.011764526 0.9993077
vn -0.019607663 0.7725431 0.6346595
vn -0.76469994 0.003921509 0.6443746
vn -0.035293818 -0.011764646 0.9993077
vn -0.76469994 -0.0039215684 0.6443746
vn -0.019607663 -0.77254313 0.63465947
vn -0.722557 0.6913113 -0
vn -0.6313677 0.5999954 0.4913048
vn -0.99999225 0.003921509 -0.00034492963
vn -0.722557 0.6913113 -0
vn -0.027440555 0.9996234 -0
vn -0.99999225 0.003921509 -0.00034492963
vn -0.99999225 -0.0039215684 -0.00034425134
vn -0.6313677 -0.59999543 0.49130473
vn -0.722557 -0.69131136 -0
vn -0.027440554 -0.9996234 -0
vn -0.99999225 -0.0039215684 -0.00034425134
vn -0.722557 -0.69131136 -0
vn -0.027440554 -0.9996234 -0
vn -0.019607663 -0.77254313 -0.63465947
vn -0.7725431 0.003921509 -0.6349503
vn -0.7725431 -0.0039215684 -0.6349503
vn -0.62352455 -0.59999543 -0.5012211
vn -0.035293818 -0.011764646 -0.9993077
vn -0.035293818 0.011764526 -0.9993077
vn -0.62352455 0.5999954 -0.5012212
vn -0.019607663 0.7725431 -0.6346595
vn -0.003921509 0.011764526 -0.9999231
vn -0.035293818 -0.011764646 -0.9993077
vn -0.003921509 0.76469994 -0.6443746
vn -0.003921509 0.99999225 -0.00034526698
vn -0.003921509 -0.011764646 -0.9999231
vn -0.019607663 -0.77254313 -0.63465947
vn -0.003921509 0.011764526 -0.9999231
vn 0.035293877 0.011764526 -0.9993077
vn -0.003921509 -0.011764646 -0.9999231
vn 0.035293877 -0.011764646 -0.9993077
vn 0.77254313 -0.0039215684 -0.63495016
vn 0.019607723 -0.77254313 -0.63465947
vn 0.62352467 -0.59999543 -0.501221
vn 0.722557 -0.6913113 -0
vn 0.027440673 -0.9996234 -0
vn 0.0039215684 -0.76470006 -0.6443745
vn -0.003921509 -0.9999924 -0
vn -0.003921509 -0.76470006 -0.6443745
vn -0.003921509 -0.9999924 -0
vn -0.027440554 -0.9996234 -0
g ENV_S04_Path_M_HardPlastic_White_MO_0
f 3/3/3 2/2/2 1/1/1
f 2/2/2 4/4/4 1/1/1
f 4/4/4 2/2/2 5/5/5
f 2/2/2 6/6/6 5/5/5
f 4/4/4 7/7/7 1/1/1
f 4/4/4 5/5/5 8/8/8
f 7/7/7 4/4/4 8/8/8
f 5/5/5 6/6/6 9/9/9
f 8/8/8 5/5/5 9/9/9
f 7/7/7 10/10/10 1/1/1
f 1/1/1 10/10/10 11/11/11
f 10/10/10 12/12/12 11/11/11
f 12/12/12 10/10/10 13/13/13
f 10/10/10 14/14/14 13/13/13
f 15/15/15 14/14/14 10/10/10
f 7/7/7 15/15/15 10/10/10
f 15/15/15 7/7/7 16/16/16
f 7/7/7 8/8/8 16/16/16
f 17/17/17 8/8/8 9/9/9
f 16/16/16 8/8/8 17/17/17
f 6/6/6 18/18/18 9/9/9
f 9/9/9 18/18/18 19/19/19
f 19/19/19 18/18/18 6/6/6
f 17/17/17 9/9/9 20/20/20
f 20/20/20 9/9/9 19/19/19
f 21/21/21 16/16/16 17/17/17
f 21/21/21 17/17/17 22/22/22
f 21/21/21 22/22/22 16/16/16
f 23/23/23 17/17/17 20/20/20
f 17/17/17 23/23/23 22/22/22
f 19/19/19 24/24/24 20/20/20
f 24/24/24 25/25/25 20/20/20
f 22/22/22 26/26/26 16/16/16
f 27/27/27 16/16/16 26/26/26
f 28/28/28 22/22/22 23/23/23
f 29/29/29 28/28/28 23/23/23
f 30/30/30 26/26/26 22/22/22
f 28/28/28 30/30/30 22/22/22
f 31/31/31 27/27/27 26/26/26
f 31/31/31 26/26/26 30/30/30
f 32/32/32 28/28/28 29/29/29
f 33/33/33 32/32/32 29/29/29
f 32/32/32 33/33/33 34/34/34
f 31/31/31 35/35/35 27/27/27
f 35/35/35 36/36/36 27/27/27
f 37/37/37 30/30/30 28/28/28
f 32/32/32 37/37/37 28/28/28
f 38/38/38 31/31/31 30/30/30
f 31/31/31 38/38/38 35/35/35
f 38/38/38 30/30/30 37/37/37
f 38/38/38 39/39/39 35/35/35
f 35/35/35 39/39/39 40/40/40
f 39/39/39 41/41/41 40/40/40
f 38/38/38 42/42/42 39/39/39
f 42/42/42 38/38/38 37/37/37
f 39/39/39 43/43/43 41/41/41
f 42/42/42 43/43/43 39/39/39
f 43/43/43 44/44/44 41/41/41
f 44/44/44 43/43/43 45/45/45
f 43/43/43 46/46/46 45/45/45
f 43/43/43 42/42/42 46/46/46
f 42/42/42 47/47/47 46/46/46
f 47/47/47 42/42/42 48/48/48
f 42/42/42 37/37/37 48/48/48
f 37/37/37 32/32/32 49/49/49
f 48/48/48 37/37/37 49/49/49
f 49/49/49 32/32/32 34/34/34
f 48/48/48 49/49/49 50/50/50
f 51/51/51 48/48/48 50/50/50
f 52/52/52 51/51/51 50/50/50
f 53/53/53 51/51/51 52/52/52
f 34/34/34 54/54/54 49/49/49
f 49/49/49 55/55/55 50/50/50
f 54/54/54 55/55/55 49/49/49
f 50/50/50 55/55/55 54/54/54
f 52/52/52 50/50/50 56/56/56
f 56/56/56 50/50/50 54/54/54
f 54/54/54 34/34/34 57/57/57
f 34/34/34 58/58/58 57/57/57
f 56/56/56 54/54/54 59/59/59
f 54/54/54 57/57/57 59/59/59
f 60/60/60 52/52/52 56/56/56
f 60/60/60 56/56/56 59/59/59
f 61/61/61 53/53/53 52/52/52
f 61/61/61 52/52/52 62/62/62
f 61/61/61 62/62/62 53/53/53
f 52/52/52 60/60/60 62/62/62
f 62/62/62 63/63/63 53/53/53
f 64/64/64 60/60/60 59/59/59
f 62/62/62 60/60/60 64/64/64
f 63/63/63 62/62/62 65/65/65
f 65/65/65 62/62/62 64/64/64
f 66/66/66 63/63/63 65/65/65
f 66/66/66 65/65/65 67/67/67
f 64/64/64 59/59/59 68/68/68
f 68/68/68 59/59/59 57/57/57
f 64/64/64 69/69/69 65/65/65
f 69/69/69 64/64/64 68/68/68
f 65/65/65 70/70/70 67/67/67
f 69/69/69 70/70/70 65/65/65
f 67/67/67 70/70/70 69/69/69
f 71/71/71 67/67/67 69/69/69
f 71/71/71 69/69/69 72/72/72
f 69/69/69 68/68/68 72/72/72
f 73/73/73 68/68/68 57/57/57
f 73/73/73 57/57/57 74/74/74
f 73/73/73 74/74/74 68/68/68
f 74/74/74 72/72/72 68/68/68
f 57/57/57 58/58/58 74/74/74
f 75/75/75 72/72/72 74/74/74
f 76/76/76 72/72/72 75/75/75
f 77/77/77 74/74/74 58/58/58
f 77/77/77 75/75/75 74/74/74
f 78/78/78 77/77/77 58/58/58
f 77/77/77 78/78/78 25/25/25
f 24/24/24 77/77/77 25/25/25
f 75/75/75 77/77/77 24/24/24
f 79/79/79 76/76/76 75/75/75
f 76/76/76 79/79/79 80/80/80
f 81/81/81 75/75/75 24/24/24
f 79/79/79 75/75/75 81/81/81
f 81/81/81 24/24/24 19/19/19
f 82/82/82 81/81/81 19/19/19
f 82/82/82 19/19/19 6/6/6
f 83/83/83 81/81/81 82/82/82
f 83/83/83 79/79/79 81/81/81
f 84/84/84 82/82/82 6/6/6
f 84/84/84 83/83/83 82/82/82
f 85/85/85 84/84/84 6/6/6
f 86/86/86 84/84/84 85/85/85
f 83/83/83 84/84/84 86/86/86
f 87/87/87 86/86/86 85/85/85
f 87/87/87 88/88/88 86/86/86
f 88/88/88 89/89/89 86/86/86
f 90/90/90 83/83/83 86/86/86
f 90/90/90 86/86/86 89/89/89
f 79/79/79 83/83/83 90/90/90
f 91/91/91 90/90/90 89/89/89
f 92/92/92 79/79/79 90/90/90
f 92/92/92 90/90/90 91/91/91
f 79/79/79 92/92/92 80/80/80
f 93/93/93 92/92/92 91/91/91
f 80/80/80 92/92/92 94/94/94
f 92/92/92 93/93/93 94/94/94
