g ENV_S06_FTL_Casing_Lid_MO
v -26.162968 -5.623993 48.947163
v -16.110073 -5.623993 53.110584
v -0.0008392334 -5.623993 0.0008392334
v -35.20956 -5.623993 42.902615
v -5.440254 -5.623993 55.232746
v -42.902615 -5.623993 35.20956
v 5.440262 -5.623993 55.232746
v -48.947163 -5.623993 26.162968
v 16.11008 -5.623993 53.110584
v -53.110584 -5.623993 16.110073
v 26.162973 -5.623993 48.947163
v -55.232746 -5.623993 5.440254
v 35.209564 -5.623993 42.902615
v -55.232746 -5.623993 -5.440262
v 42.902622 -5.623993 35.20956
v -53.110584 -5.623993 -16.11008
v 48.947166 -5.623993 26.162968
v -48.947163 -5.623993 -26.162973
v 53.110588 -5.623993 16.110073
v -42.902615 -5.623993 -35.209564
v 55.232754 -5.623993 5.440254
v -35.20956 -5.623993 -42.902622
v 55.232754 -5.623993 -5.440262
v -26.162968 -5.623993 -48.947166
v 53.110588 -5.623993 -16.11008
v -16.110073 -5.623993 -53.110588
v 48.947166 -5.623993 -26.162973
v -5.440254 -5.623993 -55.232754
v 42.902622 -5.623993 -35.209564
v 5.440262 -5.623993 -55.232754
v 35.209564 -5.623993 -42.902622
v 16.11008 -5.623993 -53.110588
v 26.162973 -5.623993 -48.947166
v -26.162968 -1.066143 48.947163
v -0.0008392334 -1.066143 0.0008392334
v -16.110073 -1.066143 53.110584
v -35.20956 -1.066143 42.902615
v -5.440254 -1.066143 55.232746
v -42.902615 -1.066143 35.20956
v 5.440262 -1.066143 55.232746
v -48.947163 -1.066143 26.162968
v 16.11008 -1.066143 53.110584
v -53.110584 -1.066143 16.110073
v 26.162973 -1.066143 48.947163
v -55.232746 -1.066143 5.440254
v 35.209564 -1.066143 42.902615
v -55.232746 -1.066143 -5.440262
v 42.902622 -1.066143 35.20956
v -53.110584 -1.066143 -16.11008
v 48.947166 -1.066143 26.162968
v -48.947163 -1.066143 -26.162973
v 53.110588 -1.066143 16.110073
v -42.902615 -1.066143 -35.209564
v 55.232754 -1.066143 5.440254
v -35.20956 -1.066143 -42.902622
v 55.232754 -1.066143 -5.440262
v -26.162968 -1.066143 -48.947166
v 53.110588 -1.066143 -16.11008
v -16.110073 -1.066143 -53.110588
v 48.947166 -1.066143 -26.162973
v -5.440254 -1.066143 -55.232754
v 42.902622 -1.066143 -35.209564
v 5.440262 -1.066143 -55.232754
v 35.209564 -1.066143 -42.902622
v 16.11008 -1.066143 -53.110588
v 26.162973 -1.066143 -48.947166
vt -1.7996593 -3.80212
vt -0.9160638 -4.167766
vt 0.5002966 0.5002966
vt -2.5943618 -3.2705402
vt 0.022052765 -4.354441
vt -3.2705402 -2.5943618
vt 0.9779477 -4.354441
vt -3.80212 -1.7996593
vt 1.9160643 -4.167766
vt -4.167766 -0.9160638
vt 2.7996597 -3.80212
vt -4.354441 0.022052765
vt 3.5943623 -3.2705402
vt -4.354441 0.9779477
vt 4.2705407 -2.5943618
vt -4.167766 1.9160643
vt 4.8021207 -1.7996593
vt -3.80212 2.7996597
vt 5.167766 -0.9160638
vt -3.2705402 3.5943623
vt 5.354441 0.022052765
vt -2.5943618 4.2705407
vt 5.354441 0.9779477
vt -1.7996593 4.8021207
vt 5.167766 1.9160643
vt -0.9160638 5.167766
vt 4.8021207 2.7996597
vt 0.022052765 5.354441
vt 4.2705407 3.5943623
vt 0.9779477 5.354441
vt 3.5943623 4.2705407
vt 1.9160643 5.167766
vt 2.7996597 4.8021207
vt -1.7996593 -3.80212
vt 0.5002966 0.5002966
vt -0.9160638 -4.167766
vt -2.5943618 -3.2705402
vt 0.022052765 -4.354441
vt -3.2705402 -2.5943618
vt 0.9779477 -4.354441
vt -3.80212 -1.7996593
vt 1.9160643 -4.167766
vt -4.167766 -0.9160638
vt 2.7996597 -3.80212
vt -4.354441 0.022052765
vt 3.5943623 -3.2705402
vt -4.354441 0.9779477
vt 4.2705407 -2.5943618
vt -4.167766 1.9160643
vt 4.8021207 -1.7996593
vt -3.80212 2.7996597
vt 5.167766 -0.9160638
vt -3.2705402 3.5943623
vt 5.354441 0.022052765
vt -2.5943618 4.2705407
vt 5.354441 0.9779477
vt -1.7996593 4.8021207
vt 5.167766 1.9160643
vt -0.9160638 5.167766
vt 4.8021207 2.7996597
vt 0.022052765 5.354441
vt 4.2705407 3.5943623
vt 0.9779477 5.354441
vt 3.5943623 4.2705407
vt 1.9160643 5.167766
vt 2.7996597 4.8021207
vn -0.003921509 -0.9999924 -0
vn -0.003921509 -0.9999924 -0
vn -0.003921509 -0.9999924 -0
vn -0.003921509 -0.9999924 -0
vn -0.003921509 -0.9999924 -0
vn -0.003921509 -0.9999924 -0
vn -0.003921509 -0.9999924 -0
vn -0.003921509 -0.9999924 -0
vn -0.003921509 -0.9999924 -0
vn -0.003921509 -0.9999924 -0
vn -0.003921509 -0.9999924 -0
vn -0.003921509 -0.9999924 -0
vn -0.003921509 -0.9999924 -0
vn -0.003921509 -0.9999924 -0
vn -0.003921509 -0.9999924 -0
vn -0.003921509 -0.9999924 -0
vn -0.003921509 -0.9999924 -0
vn -0.003921509 -0.9999924 -0
vn -0.003921509 -0.9999924 -0
vn -0.003921509 -0.9999924 -0
vn -0.003921509 -0.9999924 -0
vn -0.003921509 -0.9999924 -0
vn -0.003921509 -0.9999924 -0
vn -0.003921509 -0.9999924 -0
vn -0.003921509 -0.9999924 -0
vn -0.003921509 -0.9999924 -0
vn -0.003921509 -0.9999924 -0
vn -0.003921509 -0.9999924 -0
vn -0.003921509 -0.9999924 -0
vn -0.003921509 -0.9999924 -0
vn -0.003921509 -0.9999924 -0
vn -0.003921509 -0.9999924 -0
vn -0.003921509 -0.9999924 -0
vn -0.003921509 0.99999225 -0.00034526698
vn -0.003921509 0.99999225 -0.00034526698
vn -0.003921509 0.99999225 -0.00034526698
vn -0.003921509 0.99999225 -0.00034526698
vn -0.003921509 0.99999225 -0.00034526698
vn -0.003921509 0.99999225 -0.00034526698
vn -0.003921509 0.99999225 -0.00034526698
vn -0.003921509 0.99999225 -0.00034526698
vn -0.003921509 0.99999225 -0.00034526698
vn -0.003921509 0.99999225 -0.00034526698
vn -0.003921509 0.99999225 -0.00034526698
vn -0.003921509 0.99999225 -0.00034526698
vn -0.003921509 0.99999225 -0.00034526698
vn -0.003921509 0.99999225 -0.00034526698
vn -0.003921509 0.99999225 -0.00034526698
vn -0.003921509 0.99999225 -0.00034526698
vn -0.003921509 0.99999225 -0.00034526698
vn -0.003921509 0.99999225 -0.00034526698
vn -0.003921509 0.99999225 -0.00034526698
vn -0.003921509 0.99999225 -0.00034526698
vn -0.003921509 0.99999225 -0.00034526698
vn -0.003921509 0.99999225 -0.00034526698
vn -0.003921509 0.99999225 -0.00034526698
vn -0.003921509 0.99999225 -0.00034526698
vn -0.003921509 0.99999225 -0.00034526698
vn -0.003921509 0.99999225 -0.00034526698
vn -0.003921509 0.99999225 -0.00034526698
vn -0.003921509 0.99999225 -0.00034526698
vn -0.003921509 0.99999225 -0.00034526698
vn -0.003921509 0.99999225 -0.00034526698
vn -0.003921509 0.99999225 -0.00034526698
vn -0.003921509 0.99999225 -0.00034526698
vn -0.003921509 0.99999225 -0.00034526698
g ENV_S06_FTL_Casing_Lid_MO_0
f 3/3/3 2/2/2 1/1/1
f 3/3/3 1/1/1 4/4/4
f 3/3/3 5/5/5 2/2/2
f 3/3/3 4/4/4 6/6/6
f 3/3/3 7/7/7 5/5/5
f 3/3/3 6/6/6 8/8/8
f 3/3/3 9/9/9 7/7/7
f 3/3/3 8/8/8 10/10/10
f 3/3/3 11/11/11 9/9/9
f 3/3/3 10/10/10 12/12/12
f 3/3/3 13/13/13 11/11/11
f 3/3/3 12/12/12 14/14/14
f 3/3/3 15/15/15 13/13/13
f 3/3/3 14/14/14 16/16/16
f 3/3/3 17/17/17 15/15/15
f 3/3/3 16/16/16 18/18/18
f 3/3/3 19/19/19 17/17/17
f 3/3/3 18/18/18 20/20/20
f 3/3/3 21/21/21 19/19/19
f 3/3/3 20/20/20 22/22/22
f 3/3/3 23/23/23 21/21/21
f 3/3/3 22/22/22 24/24/24
f 3/3/3 25/25/25 23/23/23
f 3/3/3 24/24/24 26/26/26
f 3/3/3 27/27/27 25/25/25
f 3/3/3 26/26/26 28/28/28
f 3/3/3 29/29/29 27/27/27
f 3/3/3 28/28/28 30/30/30
f 3/3/3 31/31/31 29/29/29
f 3/3/3 30/30/30 32/32/32
f 3/3/3 33/33/33 31/31/31
f 3/3/3 32/32/32 33/33/33
f 36/36/36 35/35/35 34/34/34
f 34/34/34 35/35/35 37/37/37
f 38/38/38 35/35/35 36/36/36
f 37/37/37 35/35/35 39/39/39
f 40/40/40 35/35/35 38/38/38
f 39/39/39 35/35/35 41/41/41
f 42/42/42 35/35/35 40/40/40
f 41/41/41 35/35/35 43/43/43
f 44/44/44 35/35/35 42/42/42
f 43/43/43 35/35/35 45/45/45
f 46/46/46 35/35/35 44/44/44
f 45/45/45 35/35/35 47/47/47
f 48/48/48 35/35/35 46/46/46
f 47/47/47 35/35/35 49/49/49
f 50/50/50 35/35/35 48/48/48
f 49/49/49 35/35/35 51/51/51
f 52/52/52 35/35/35 50/50/50
f 51/51/51 35/35/35 53/53/53
f 54/54/54 35/35/35 52/52/52
f 53/53/53 35/35/35 55/55/55
f 56/56/56 35/35/35 54/54/54
f 55/55/55 35/35/35 57/57/57
f 58/58/58 35/35/35 56/56/56
f 57/57/57 35/35/35 59/59/59
f 60/60/60 35/35/35 58/58/58
f 59/59/59 35/35/35 61/61/61
f 62/62/62 35/35/35 60/60/60
f 61/61/61 35/35/35 63/63/63
f 64/64/64 35/35/35 62/62/62
f 63/63/63 35/35/35 65/65/65
f 66/66/66 35/35/35 64/64/64
f 65/65/65 35/35/35 66/66/66
