g ENV_DOD_DoorBlockkSmall
v 1.0795596 -1.859969 0.3477582
v 1.0681559 -1.9034153 -0.3477579
v 1.0681559 -1.9034153 0.3477582
v 1.0795596 -1.859969 -0.3477579
v 1.0795597 2.0869398 -0.34775808
v 1.0795597 2.0869398 0.34775802
v 1.068156 2.130386 0.34775802
v 1.068156 2.130386 -0.34775808
v 1.0370002 2.1621914 0.34775802
v 1.0370002 2.1621914 -0.34775808
v 0.9944404 2.173833 0.34775802
v 0.9944404 2.173833 -0.34775808
v -0.99444026 2.173833 0.34775802
v -0.99444026 2.173833 -0.34775808
v -1.037 2.1621914 0.34775802
v -1.0369997 2.1621914 -0.34775808
v -1.068156 2.130386 0.34775802
v -1.068156 2.130386 -0.34775808
v -1.0795598 2.0869398 0.34775802
v -1.0795598 2.0869398 -0.34775808
v -1.0795598 -1.859969 -0.3477579
v -1.0795598 -1.859969 0.3477582
v -1.068156 -1.9034153 0.3477582
v -1.068156 -1.9034153 -0.3477579
v -1.0369997 -1.9352202 0.3477582
v -1.037 -1.9352202 -0.3477579
v -0.9944405 -1.9468616 0.3477582
v -0.9944405 -1.9468616 -0.3477579
v 0.99444026 -1.9468616 0.3477582
v 0.99444026 -1.9468616 -0.3477579
v 1.0370001 -1.9352202 0.3477582
v 1.0370001 -1.9352202 -0.3477579
v 1.0681559 -1.9034153 0.3477582
v 1.0681559 -1.9034153 -0.3477579
v -0.9944405 -1.9468616 -0.3477579
v 0.99444026 -1.9468616 -0.3477579
v 0.99444026 -1.9352202 -0.39227262
v 1.0370001 -1.9352202 -0.3477579
v -0.9944405 -1.9352202 -0.39227262
v -1.037 -1.9352202 -0.3477579
v -1.0312191 -1.9286859 -0.38622606
v -1.068156 -1.9034153 -0.3477579
v 1.031219 -1.9286859 -0.38622606
v 0.99444026 -1.9034153 -0.42485958
v 1.0617548 -1.8975139 -0.38622606
v 1.0681559 -1.9034153 -0.3477579
v 1.031219 -1.8975139 -0.41816452
v 1.0681559 -1.859969 -0.39227262
v 1.0795596 -1.859969 -0.3477579
v 1.0370001 -1.859969 -0.42485958
v 1.068156 2.0869398 -0.3922728
v 1.0795597 2.0869398 -0.34775808
v 1.068156 2.130386 -0.34775808
v 1.0370002 2.0869398 -0.4248599
v 1.061755 2.124485 -0.3862263
v 1.0312191 2.1556568 -0.3862263
v 1.0370002 2.1621914 -0.34775808
v 1.0312191 2.124485 -0.41816488
v 0.9944404 2.1621914 -0.3922728
v 0.9944404 2.173833 -0.34775808
v 0.9944404 2.130386 -0.4248599
v 0.9944404 2.0869398 -0.4367876
v -0.99444026 2.1621914 -0.3922728
v -0.99444026 2.173833 -0.34775808
v -1.0369997 2.1621914 -0.34775808
v 0.99444026 -1.859969 -0.4367873
v -0.99444026 2.0869398 -0.4367876
v -0.99444026 2.130386 -0.4248599
v -1.0312191 2.1556568 -0.3862263
v -0.9944405 -1.9034153 -0.42485958
v -0.9944405 -1.859969 -0.4367873
v -1.061755 2.124485 -0.3862263
v -1.068156 2.130386 -0.34775808
v -1.037 2.0869398 -0.4248599
v -1.0312191 2.124485 -0.41816488
v -1.068156 2.0869398 -0.3922728
v -1.0795598 2.0869398 -0.34775808
v -1.0369997 -1.859969 -0.42485958
v -1.0312191 -1.8975139 -0.41816452
v -1.068156 -1.859969 -0.39227262
v -1.0795598 -1.859969 -0.3477579
v -1.061755 -1.8975139 -0.38622606
v 1.0681559 -1.859969 0.39227292
v 1.0795597 2.0869398 0.34775802
v 1.0795596 -1.859969 0.3477582
v 1.0681559 -1.9034153 0.3477582
v 1.068156 2.0869398 0.39227268
v 1.068156 2.130386 0.34775802
v 1.061755 2.124485 0.38622624
v 1.0370002 2.1621914 0.34775802
v 1.0617548 -1.8975139 0.38622648
v 1.0370001 -1.859969 0.42486
v 1.031219 -1.9286859 0.38622648
v 1.0370001 -1.9352202 0.3477582
v 1.031219 -1.8975139 0.41816494
v 0.99444026 -1.9352202 0.39227292
v 0.99444026 -1.9468616 0.3477582
v 0.99444026 -1.9034153 0.42486
v -0.9944405 -1.9352202 0.39227292
v -0.9944405 -1.9468616 0.3477582
v -1.0369997 -1.9352202 0.3477582
v -0.9944405 -1.9034153 0.42486
v -1.0312191 -1.9286859 0.38622648
v -1.061755 -1.8975139 0.38622648
v -1.068156 -1.9034153 0.3477582
v -1.0312191 -1.8975139 0.41816494
v -1.068156 -1.859969 0.39227292
v -1.0795598 -1.859969 0.3477582
v -1.037 -1.859969 0.42486
v -0.9944405 -1.859969 0.4367876
v -1.068156 2.0869398 0.39227268
v -1.0795598 2.0869398 0.34775802
v -1.068156 2.130386 0.34775802
v -1.0369997 2.0869398 0.42485976
v -1.061755 2.124485 0.38622624
v -1.0312191 2.1556568 0.38622624
v -1.037 2.1621914 0.34775802
v -1.0312191 2.124485 0.4181647
v -0.99444026 2.1621914 0.39227268
v -0.99444026 2.173833 0.34775802
v -0.99444026 2.0869398 0.43678743
v -0.99444026 2.130386 0.42485976
v 0.9944404 2.1621914 0.39227268
v 0.9944404 2.173833 0.34775802
v 0.9944404 2.0869398 0.43678743
v 0.9944404 2.130386 0.42485976
v 1.0312191 2.1556568 0.38622624
v 1.0312191 2.124485 0.4181647
v 1.0370002 2.0869398 0.42485976
v 0.99444026 -1.859969 0.4367876
vt 0.27831528 -0.0281595
vt 0.33045968 -0.031619668
vt 0.27832004 -0.031612754
vt 0.33046505 -0.028163552
vt 0.33046985 0.24818665
vt 0.27828068 0.24819213
vt 0.27827173 0.25165182
vt 0.33047783 0.25164396
vt 0.2782594 0.25511652
vt 0.3304913 0.25510114
vt 0.2782516 0.25857657
vt 0.33049995 0.25856537
vt 0.27822268 0.46407062
vt 0.33051646 0.4640941
vt 0.27821457 0.46753258
vt 0.33052045 0.46756244
vt 0.27820265 0.4709987
vt 0.3305297 0.47102976
vt 0.27819693 0.47447026
vt 0.33053178 0.47449374
vt 0.33051527 0.75181013
vt 0.27817267 0.75180715
vt 0.2781822 0.75527906
vt 0.33051395 0.75527596
vt 0.27820367 0.7587437
vt 0.3305195 0.75874573
vt 0.27821386 0.7622103
vt 0.33051586 0.7622089
vt 0.27822667 0.9677676
vt 0.33050418 0.96777296
vt 0.27822602 0.97122663
vt 0.33050412 0.9712396
vt 0.27822495 0.9746913
vt 0.33049434 0.9747008
vt 0.68343693 0.7831973
vt 0.43942466 0.783767
vt 0.4394964 0.777384
vt 0.43250567 0.7807605
vt 0.68333054 0.7768158
vt 0.69032866 0.78014255
vt 0.68730855 0.77525264
vt 0.69553155 0.7739768
vt 0.43549246 0.7758414
vt 0.43957716 0.7716589
vt 0.4318446 0.77141666
vt 0.42726213 0.77462107
vt 0.4362604 0.7706346
vt 0.43079615 0.7666818
vt 0.42559814 0.76675594
vt 0.4354802 0.7666083
vt 0.42974854 0.32216072
vt 0.42455113 0.3221153
vt 0.4261834 0.31420237
vt 0.43443215 0.32221055
vt 0.4307758 0.31739527
vt 0.43440968 0.31294352
vt 0.43138814 0.3080333
vt 0.43518323 0.31817144
vt 0.43839064 0.3114087
vt 0.43828627 0.30502367
vt 0.438502 0.3171363
vt 0.4385824 0.32223976
vt 0.6822586 0.31116378
vt 0.6823374 0.3047788
vt 0.6893653 0.3078481
vt 0.4396314 0.7665594
vt 0.682109 0.32198107
vt 0.68217003 0.31688595
vt 0.686289 0.3127432
vt 0.68321735 0.77109414
vt 0.6831349 0.7659986
vt 0.6899113 0.31717563
vt 0.69450915 0.31402344
vt 0.6862561 0.3219369
vt 0.68549013 0.31793278
vt 0.6909356 0.321868
vt 0.6961274 0.32179683
vt 0.6872835 0.7660237
vt 0.6865339 0.7700412
vt 0.6919647 0.76607054
vt 0.6971598 0.7661153
vt 0.6909397 0.7708034
vt 0.43078142 0.76785827
vt 0.42447686 0.32051167
vt 0.42447934 0.76782584
vt 0.4257092 0.77520335
vt 0.43077967 0.32047924
vt 0.42570218 0.3131327
vt 0.43175992 0.31567222
vt 0.43182465 0.30440372
vt 0.43175983 0.77266634
vt 0.4364685 0.76787984
vt 0.43611807 0.7777233
vt 0.43183514 0.7839353
vt 0.43727046 0.77207756
vt 0.44120425 0.77905166
vt 0.4410548 0.7855749
vt 0.44137987 0.77316475
vt 0.6814966 0.77903414
vt 0.6816461 0.7855582
vt 0.69089633 0.78391314
vt 0.68132335 0.7731464
vt 0.6866126 0.77769876
vt 0.6909488 0.77263725
vt 0.6970096 0.77515805
vt 0.68542045 0.77205944
vt 0.69192505 0.76783633
vt 0.6982268 0.7678025
vt 0.6862369 0.7678597
vt 0.681193 0.7678927
vt 0.6919128 0.32050624
vt 0.6982142 0.32053784
vt 0.6969809 0.3131693
vt 0.6862264 0.320485
vt 0.69093376 0.3157035
vt 0.6865775 0.31064898
vt 0.6908598 0.30444223
vt 0.68542486 0.3162911
vt 0.6814934 0.309318
vt 0.6816442 0.30279678
vt 0.6811833 0.32045346
vt 0.68131596 0.31520247
vt 0.44121245 0.3092891
vt 0.44106504 0.30276793
vt 0.44151333 0.32042766
vt 0.4413842 0.3151756
vt 0.4360992 0.31061786
vt 0.4372873 0.31625736
vt 0.43646905 0.32045832
vt 0.44151238 0.76791155
vn 0.9998779 -0.0028147246 0.015367521
vn 0.8704629 -0.49209404 -0.0117398
vn 0.8704629 -0.49209404 0.011739799
vn 0.9998779 -0.002814726 -0.015367516
vn 0.9998779 0.0028146724 -0.015367522
vn 0.9998779 0.0028146745 0.015367522
vn 0.8704643 0.49209154 0.011739915
vn 0.8704643 0.49209154 -0.011739806
vn 0.5074982 0.8615713 0.011849975
vn 0.5074982 0.8615713 -0.011849907
vn 0.0056440555 0.9998616 0.015648939
vn 0.0056440546 0.9998616 -0.015648939
vn -0.005644057 0.9998616 0.015648944
vn -0.005644057 0.9998616 -0.015648946
vn -0.5074974 0.86157185 0.011849796
vn -0.5074972 0.8615719 -0.011850087
vn -0.8704619 0.49209586 0.011739682
vn -0.87046176 0.4920959 -0.011739907
vn -0.9998779 0.0028147257 0.015367678
vn -0.9998779 0.0028147239 -0.01536768
vn -0.9998779 -0.002814716 -0.015367677
vn -0.9998779 -0.0028147146 0.015367682
vn -0.8704608 -0.49209774 0.011739726
vn -0.87046087 -0.49209768 -0.011739633
vn -0.5074945 -0.8615735 0.011849761
vn -0.5074947 -0.8615734 -0.011849691
vn -0.0056439964 -0.9998616 0.015648935
vn -0.0056439964 -0.9998616 -0.015648935
vn 0.005643995 -0.9998616 0.015648937
vn 0.005643995 -0.9998616 -0.015648937
vn 0.50749373 -0.86157393 0.011849943
vn 0.5074938 -0.86157393 -0.01184994
vn 0.8704629 -0.49209404 0.011739799
vn 0.8704629 -0.49209404 -0.0117398
vn -0.0056439964 -0.9998616 -0.015648935
vn 0.005643995 -0.9998616 -0.015648937
vn 0.0043298295 -0.8712217 -0.4908705
vn 0.5074938 -0.86157393 -0.01184994
vn -0.004329831 -0.87122184 -0.4908705
vn -0.5074947 -0.8615734 -0.011849691
vn -0.42479545 -0.8094853 -0.4053175
vn -0.87046087 -0.49209768 -0.011739633
vn 0.42479375 -0.8094849 -0.40532023
vn 0.0043771523 -0.50906163 -0.860719
vn 0.81803846 -0.411838 -0.40150052
vn 0.8704629 -0.49209404 -0.0117398
vn 0.42946395 -0.42032555 -0.7993041
vn 0.87548745 -0.0021696466 -0.483236
vn 0.9998779 -0.002814726 -0.015367516
vn 0.51688486 -0.0022137994 -0.8560521
vn 0.87548745 0.0021695483 -0.483236
vn 0.9998779 0.0028146724 -0.015367522
vn 0.8704643 0.49209154 -0.011739806
vn 0.51688486 0.002213634 -0.8560521
vn 0.818039 0.4118369 -0.40150025
vn 0.42479485 0.8094848 -0.4053193
vn 0.5074982 0.8615713 -0.011849907
vn 0.42946395 0.4203255 -0.7993042
vn 0.004329846 0.87122107 -0.49087185
vn 0.0056440546 0.9998616 -0.015648939
vn 0.0043771174 0.50906074 -0.86071956
vn 0.00585536 0.0029731488 -0.9999784
vn -0.0043298397 0.87122107 -0.49087185
vn -0.005644057 0.9998616 -0.015648946
vn -0.5074972 0.8615719 -0.011850087
vn 0.00585536 -0.0029733062 -0.9999784
vn -0.0058553615 0.0029731493 -0.9999784
vn -0.0043771113 0.50906074 -0.86071956
vn -0.4247952 0.80948484 -0.4053187
vn -0.004377155 -0.50906163 -0.860719
vn -0.005855362 -0.0029733065 -0.9999784
vn -0.8180382 0.4118383 -0.40150052
vn -0.87046176 0.4920959 -0.011739907
vn -0.5168848 0.0022136285 -0.8560521
vn -0.42946398 0.42032516 -0.79930437
vn -0.8754851 0.0021695383 -0.48324016
vn -0.9998779 0.0028147239 -0.01536768
vn -0.5168848 -0.0022137666 -0.8560521
vn -0.42946547 -0.42032403 -0.7993042
vn -0.8754851 -0.0021696207 -0.48324016
vn -0.9998779 -0.002814716 -0.015367677
vn -0.8180382 -0.41183773 -0.40150112
vn 0.87548745 -0.0021695918 0.48323607
vn 0.9998779 0.0028146745 0.015367522
vn 0.9998779 -0.0028147246 0.015367521
vn 0.8704629 -0.49209404 0.011739799
vn 0.87548745 0.0021695914 0.48323607
vn 0.8704643 0.49209154 0.011739915
vn 0.8180386 0.41183594 0.4015021
vn 0.5074982 0.8615713 0.011849975
vn 0.8180386 -0.41183785 0.40150017
vn 0.51688457 -0.0022136893 0.8560522
vn 0.42479357 -0.8094853 0.40531966
vn 0.50749373 -0.86157393 0.011849943
vn 0.42946306 -0.42032576 0.7993045
vn 0.004329813 -0.8712221 0.49086985
vn 0.005643995 -0.9998616 0.015648937
vn 0.004377117 -0.5090616 0.860719
vn -0.004329818 -0.8712221 0.49086985
vn -0.0056439964 -0.9998616 0.015648935
vn -0.5074945 -0.8615735 0.011849761
vn -0.00437712 -0.50906163 0.860719
vn -0.42479593 -0.8094857 0.4053164
vn -0.81803846 -0.41183832 0.40150017
vn -0.8704608 -0.49209774 0.011739726
vn -0.42946497 -0.4203243 0.79930425
vn -0.8754851 -0.0021695269 0.48324016
vn -0.9998779 -0.0028147146 0.015367682
vn -0.51688457 -0.0022136138 0.8560522
vn -0.005855333 -0.0029731567 0.9999784
vn -0.8754851 0.002169612 0.48324016
vn -0.9998779 0.0028147257 0.015367678
vn -0.8704619 0.49209586 0.011739682
vn -0.5168845 0.0022137556 0.8560523
vn -0.8180385 0.41183603 0.40150216
vn -0.4247944 0.8094844 0.40532032
vn -0.5074974 0.86157185 0.011849796
vn -0.4294637 0.42032358 0.79930544
vn -0.004329842 0.8712208 0.49087226
vn -0.005644057 0.9998616 0.015648944
vn -0.0058553317 0.002973262 0.9999784
vn -0.0043771053 0.50906026 0.8607198
vn 0.0043298407 0.8712208 0.49087226
vn 0.0056440555 0.9998616 0.015648939
vn 0.005855331 0.0029732615 0.9999784
vn 0.004377108 0.5090602 0.8607198
vn 0.42479447 0.8094846 0.40532008
vn 0.42946377 0.4203245 0.7993048
vn 0.51688457 0.0022137256 0.8560523
vn 0.0058553307 -0.0029731565 0.9999784
g ENV_DOD_DoorBlockkSmall_0
f 3/3/3 2/2/2 1/1/1
f 2/2/2 4/4/4 1/1/1
f 4/4/4 5/5/5 1/1/1
f 5/5/5 6/6/6 1/1/1
f 6/6/6 5/5/5 7/7/7
f 5/5/5 8/8/8 7/7/7
f 7/7/7 8/8/8 9/9/9
f 8/8/8 10/10/10 9/9/9
f 9/9/9 10/10/10 11/11/11
f 10/10/10 12/12/12 11/11/11
f 11/11/11 12/12/12 13/13/13
f 12/12/12 14/14/14 13/13/13
f 13/13/13 14/14/14 15/15/15
f 14/14/14 16/16/16 15/15/15
f 15/15/15 16/16/16 17/17/17
f 16/16/16 18/18/18 17/17/17
f 17/17/17 18/18/18 19/19/19
f 18/18/18 20/20/20 19/19/19
f 19/19/19 20/20/20 21/21/21
f 22/22/22 19/19/19 21/21/21
f 22/22/22 21/21/21 23/23/23
f 21/21/21 24/24/24 23/23/23
f 23/23/23 24/24/24 25/25/25
f 24/24/24 26/26/26 25/25/25
f 25/25/25 26/26/26 27/27/27
f 26/26/26 28/28/28 27/27/27
f 29/29/29 27/27/27 28/28/28
f 30/30/30 29/29/29 28/28/28
f 29/29/29 30/30/30 31/31/31
f 30/30/30 32/32/32 31/31/31
f 31/31/31 32/32/32 33/33/33
f 32/32/32 34/34/34 33/33/33
g ENV_DOD_DoorBlockkSmall_1
f 37/37/37 36/36/36 35/35/35
f 36/36/36 37/37/37 38/38/38
f 39/39/39 37/37/37 35/35/35
f 35/35/35 40/40/40 39/39/39
f 40/40/40 41/41/41 39/39/39
f 40/40/40 42/42/42 41/41/41
f 37/37/37 43/43/43 38/38/38
f 44/44/44 37/37/37 39/39/39
f 37/37/37 44/44/44 43/43/43
f 38/38/38 43/43/43 45/45/45
f 46/46/46 38/38/38 45/45/45
f 43/43/43 47/47/47 45/45/45
f 44/44/44 47/47/47 43/43/43
f 46/46/46 45/45/45 48/48/48
f 48/48/48 45/45/45 47/47/47
f 49/49/49 46/46/46 48/48/48
f 50/50/50 47/47/47 44/44/44
f 50/50/50 48/48/48 47/47/47
f 49/49/49 48/48/48 51/51/51
f 52/52/52 49/49/49 51/51/51
f 52/52/52 51/51/51 53/53/53
f 51/51/51 48/48/48 54/54/54
f 48/48/48 50/50/50 54/54/54
f 51/51/51 55/55/55 53/53/53
f 51/51/51 54/54/54 55/55/55
f 53/53/53 55/55/55 56/56/56
f 57/57/57 53/53/53 56/56/56
f 58/58/58 56/56/56 55/55/55
f 54/54/54 58/58/58 55/55/55
f 57/57/57 56/56/56 59/59/59
f 59/59/59 56/56/56 58/58/58
f 60/60/60 57/57/57 59/59/59
f 61/61/61 58/58/58 54/54/54
f 61/61/61 59/59/59 58/58/58
f 54/54/54 50/50/50 62/62/62
f 62/62/62 61/61/61 54/54/54
f 60/60/60 59/59/59 63/63/63
f 64/64/64 60/60/60 63/63/63
f 64/64/64 63/63/63 65/65/65
f 50/50/50 66/66/66 62/62/62
f 66/66/66 50/50/50 44/44/44
f 61/61/61 62/62/62 67/67/67
f 62/62/62 66/66/66 67/67/67
f 59/59/59 61/61/61 68/68/68
f 63/63/63 59/59/59 68/68/68
f 68/68/68 61/61/61 67/67/67
f 63/63/63 69/69/69 65/65/65
f 63/63/63 68/68/68 69/69/69
f 66/66/66 44/44/44 70/70/70
f 70/70/70 44/44/44 39/39/39
f 66/66/66 71/71/71 67/67/67
f 71/71/71 66/66/66 70/70/70
f 65/65/65 69/69/69 72/72/72
f 73/73/73 65/65/65 72/72/72
f 67/67/67 74/74/74 68/68/68
f 67/67/67 71/71/71 74/74/74
f 68/68/68 75/75/75 69/69/69
f 72/72/72 69/69/69 75/75/75
f 74/74/74 75/75/75 68/68/68
f 73/73/73 72/72/72 76/76/76
f 76/76/76 72/72/72 75/75/75
f 74/74/74 76/76/76 75/75/75
f 77/77/77 73/73/73 76/76/76
f 71/71/71 78/78/78 74/74/74
f 71/71/71 70/70/70 78/78/78
f 74/74/74 78/78/78 76/76/76
f 70/70/70 39/39/39 79/79/79
f 70/70/70 79/79/79 78/78/78
f 39/39/39 41/41/41 79/79/79
f 76/76/76 80/80/80 77/77/77
f 78/78/78 80/80/80 76/76/76
f 80/80/80 81/81/81 77/77/77
f 81/81/81 80/80/80 42/42/42
f 78/78/78 79/79/79 82/82/82
f 82/82/82 79/79/79 41/41/41
f 42/42/42 82/82/82 41/41/41
f 80/80/80 82/82/82 42/42/42
f 80/80/80 78/78/78 82/82/82
f 85/85/85 84/84/84 83/83/83
f 85/85/85 83/83/83 86/86/86
f 84/84/84 87/87/87 83/83/83
f 84/84/84 88/88/88 87/87/87
f 88/88/88 89/89/89 87/87/87
f 88/88/88 90/90/90 89/89/89
f 83/83/83 91/91/91 86/86/86
f 83/83/83 87/87/87 92/92/92
f 83/83/83 92/92/92 91/91/91
f 86/86/86 91/91/91 93/93/93
f 94/94/94 86/86/86 93/93/93
f 91/91/91 95/95/95 93/93/93
f 92/92/92 95/95/95 91/91/91
f 94/94/94 93/93/93 96/96/96
f 96/96/96 93/93/93 95/95/95
f 97/97/97 94/94/94 96/96/96
f 98/98/98 95/95/95 92/92/92
f 98/98/98 96/96/96 95/95/95
f 97/97/97 96/96/96 99/99/99
f 100/100/100 97/97/97 99/99/99
f 100/100/100 99/99/99 101/101/101
f 99/99/99 96/96/96 102/102/102
f 96/96/96 98/98/98 102/102/102
f 99/99/99 103/103/103 101/101/101
f 99/99/99 102/102/102 103/103/103
f 101/101/101 103/103/103 104/104/104
f 105/105/105 101/101/101 104/104/104
f 103/103/103 106/106/106 104/104/104
f 102/102/102 106/106/106 103/103/103
f 105/105/105 104/104/104 107/107/107
f 107/107/107 104/104/104 106/106/106
f 108/108/108 105/105/105 107/107/107
f 109/109/109 106/106/106 102/102/102
f 109/109/109 107/107/107 106/106/106
f 102/102/102 98/98/98 110/110/110
f 110/110/110 109/109/109 102/102/102
f 107/107/107 111/111/111 108/108/108
f 111/111/111 112/112/112 108/108/108
f 112/112/112 111/111/111 113/113/113
f 109/109/109 114/114/114 107/107/107
f 114/114/114 111/111/111 107/107/107
f 111/111/111 115/115/115 113/113/113
f 111/111/111 114/114/114 115/115/115
f 113/113/113 115/115/115 116/116/116
f 117/117/117 113/113/113 116/116/116
f 115/115/115 118/118/118 116/116/116
f 114/114/114 118/118/118 115/115/115
f 117/117/117 116/116/116 119/119/119
f 119/119/119 116/116/116 118/118/118
f 120/120/120 117/117/117 119/119/119
f 121/121/121 114/114/114 109/109/109
f 110/110/110 121/121/121 109/109/109
f 122/122/122 118/118/118 114/114/114
f 121/121/121 122/122/122 114/114/114
f 122/122/122 119/119/119 118/118/118
f 119/119/119 123/123/123 120/120/120
f 123/123/123 124/124/124 120/120/120
f 124/124/124 123/123/123 90/90/90
f 125/125/125 121/121/121 110/110/110
f 121/121/121 125/125/125 122/122/122
f 122/122/122 126/126/126 119/119/119
f 126/126/126 123/123/123 119/119/119
f 125/125/125 126/126/126 122/122/122
f 123/123/123 127/127/127 90/90/90
f 123/123/123 126/126/126 127/127/127
f 90/90/90 127/127/127 89/89/89
f 127/127/127 128/128/128 89/89/89
f 126/126/126 128/128/128 127/127/127
f 87/87/87 89/89/89 128/128/128
f 129/129/129 128/128/128 126/126/126
f 129/129/129 87/87/87 128/128/128
f 125/125/125 129/129/129 126/126/126
f 87/87/87 129/129/129 92/92/92
f 130/130/130 125/125/125 110/110/110
f 129/129/129 125/125/125 130/130/130
f 92/92/92 129/129/129 130/130/130
f 98/98/98 130/130/130 110/110/110
f 130/130/130 98/98/98 92/92/92
