g ENV_BBR_AngledPlatform_COL
v 5.1636987 -1.9962634 5.168741
v 5.8466973 -1.9962634 5.5993066
v 11.270012 -1.9962634 -2.1154883
v 5.8466973 0.003736572 5.599305
v 11.270012 0.003736572 -2.1154895
v 9.994397 -1.9962634 -2.9618444
v 5.1636987 0.003736572 5.1687403
v 9.994397 0.003736572 -2.9618456
v 4.4838014 0.003736572 4.7992673
v 4.4838014 -1.9962634 4.7992687
v 8.677924 -1.9962634 -3.6772656
v 8.677924 0.003736572 -3.6772656
v 3.7776024 0.003736572 4.4829197
v 3.7776024 -1.9962634 4.4829197
v 7.310554 -1.9962634 -4.2897935
v 7.310554 0.003736572 -4.289795
v 3.0492625 0.003736572 4.221553
v 3.0492625 -1.9962634 4.221554
v 5.9003053 -1.9962634 -4.795869
v 5.9003053 0.003736572 -4.795869
v 2.3030663 0.003736572 4.016709
v 2.3030663 -1.9962634 4.016709
v 4.455459 -1.9962634 -5.1925
v 4.455459 0.003736572 -5.1925
v 1.543369 0.003736572 3.8695996
v 1.543369 -1.9962634 3.8695996
v 2.98448 -1.9962634 -5.4773583
v 2.98448 0.003736572 -5.4773583
v 0.77466065 0.003736572 3.7810643
v 0.77466065 -1.9962634 3.7810643
v 1.4960278 -1.9962634 -5.6487794
v 1.4960278 0.003736572 -5.6487794
v -4.5474734E-15 0.003736572 3.7516124
v -4.5474734E-15 -1.9962634 3.7516124
v -4.5474734E-15 -1.9962634 -5.7057176
v -4.5474734E-15 0.003736572 -5.7057176
v -1.4960278 -1.9962634 -5.6487794
v -1.4960278 0.003736572 -5.6487794
v -0.77466065 0.003736572 3.7810643
v -0.77466065 -1.9962634 3.7810643
v -2.98448 -1.9962634 -5.4773583
v -2.98448 0.003736572 -5.4773583
v -1.543369 0.003736572 3.8695996
v -1.543369 -1.9962634 3.8695996
v -4.455459 -1.9962634 -5.1925
v -4.455459 0.003736572 -5.1925
v -2.3030663 0.003736572 4.016709
v -2.3030663 -1.9962634 4.016708
v -5.9003053 -1.9962634 -4.795869
v -5.9003053 0.003736572 -4.795869
v -3.0492625 0.003736572 4.221553
v -3.0492625 -1.9962634 4.221553
v -7.310554 -1.9962634 -4.289795
v -7.310554 0.003736572 -4.289795
v -3.7776024 0.003736572 4.4829197
v -3.7776024 -1.9962634 4.4829197
v -8.677924 -1.9962634 -3.6772642
v -8.677924 0.003736572 -3.6772656
v -4.4838014 0.003736572 4.7992673
v -4.4838014 -1.9962634 4.7992673
v -9.994397 -1.9962634 -2.9618444
v -9.994397 0.003736572 -2.9618456
v -5.1636987 0.003736572 5.1687403
v -5.1636987 -1.9962634 5.168741
v -11.270012 -1.9962634 -2.1154883
v -11.270012 0.003736572 -2.1154895
v -5.8466973 -1.9962634 5.599307
v -5.8466973 0.003736572 5.599305
vn -0.07130706 -0.99002993 0.12147419
vn 0.6574607 -0.51379496 0.5511445
vn 0.781882 -0.49514303 0.3788059
vn 0.6574607 0.5137951 0.55114436
vn 0.7818819 0.4951435 0.3788055
vn 0.14193988 -0.96143436 -0.2355783
vn -0.07130709 0.99002993 0.12147377
vn 0.14194001 0.9614341 -0.23557892
vn -0.06175055 0.9902581 0.12480236
vn -0.061750583 -0.9902581 0.12480292
vn 0.12189765 -0.961482 -0.2463604
vn 0.12189762 0.96148187 -0.24636084
vn -0.052016888 0.990258 0.1291642
vn -0.05201684 -0.990258 0.12916447
vn 0.10268016 -0.96148264 -0.2549665
vn 0.10268024 0.9614825 -0.25496703
vn -0.041977208 0.9902581 0.13276571
vn -0.041977238 -0.9902581 0.13276604
vn 0.08286269 -0.96148217 -0.2620798
vn 0.0828627 0.96148205 -0.26208004
vn -0.031689364 0.9902582 0.13558878
vn -0.031689353 -0.99025834 0.1355886
vn 0.062556714 -0.961482 -0.26765484
vn 0.062556714 0.961482 -0.26765472
vn -0.021217432 0.9902581 0.1376177
vn -0.02121743 -0.9902582 0.13761748
vn 0.04188378 -0.96148187 -0.27165836
vn 0.041883785 0.961482 -0.2716582
vn -0.010622635 0.99024194 0.13895328
vn -0.010622635 -0.99024194 0.13895328
vn 0.020961728 -0.9615145 -0.2739536
vn 0.020961732 0.9615145 -0.27395362
vn -0 0.990221 0.13950738
vn -0 -0.990221 0.13950738
vn -0 -0.961559 -0.27459818
vn -0 0.961559 -0.27459818
vn -0.020961732 -0.9615145 -0.27395353
vn -0.020961732 0.9615145 -0.27395353
vn 0.010622635 0.99024194 0.13895342
vn 0.010622635 -0.99024194 0.13895342
vn -0.041883785 -0.961482 -0.2716582
vn -0.041883785 0.961482 -0.27165797
vn 0.021217428 0.9902581 0.13761789
vn 0.021217437 -0.9902581 0.13761777
vn -0.062556714 -0.961482 -0.26765484
vn -0.062556714 0.961482 -0.26765496
vn 0.031689372 0.99025834 0.1355886
vn 0.031689342 -0.99025834 0.13558854
vn -0.0828627 -0.96148205 -0.26208004
vn -0.082862675 0.96148205 -0.26208004
vn 0.041977204 0.9902581 0.13276564
vn 0.041977227 -0.9902581 0.13276578
vn -0.10268025 -0.9614825 -0.25496683
vn -0.102680214 0.96148264 -0.25496665
vn 0.052016877 0.99025786 0.12916452
vn 0.052016888 -0.990258 0.12916447
vn -0.12189758 -0.961482 -0.24636012
vn -0.12189762 0.96148187 -0.24636069
vn 0.061750557 0.9902581 0.12480252
vn 0.061750524 -0.9902581 0.12480287
vn -0.14193994 -0.96143436 -0.23557825
vn -0.14194001 0.9614341 -0.23557898
vn 0.071307145 0.99002993 0.12147368
vn 0.07130716 -0.99002993 0.12147433
vn -0.7818821 -0.4951429 0.378806
vn -0.7818819 0.49514356 0.37880537
vn -0.65746075 -0.51379466 0.55114466
vn -0.6574607 0.51379514 0.55114424
g ENV_BBR_AngledPlatform_COL_0
f 3/3/3 2/2/2 1/1/1
f 2/2/2 4/4/4 1/1/1
f 2/2/2 3/3/3 4/4/4
f 3/3/3 5/5/5 4/4/4
f 6/6/6 3/3/3 1/1/1
f 3/3/3 6/6/6 5/5/5
f 4/4/4 5/5/5 7/7/7
f 4/4/4 7/7/7 1/1/1
f 5/5/5 8/8/8 7/7/7
f 6/6/6 8/8/8 5/5/5
f 1/1/1 7/7/7 9/9/9
f 7/7/7 8/8/8 9/9/9
f 6/6/6 1/1/1 10/10/10
f 10/10/10 1/1/1 9/9/9
f 6/6/6 11/11/11 8/8/8
f 11/11/11 6/6/6 10/10/10
f 8/8/8 12/12/12 9/9/9
f 11/11/11 12/12/12 8/8/8
f 10/10/10 9/9/9 13/13/13
f 9/9/9 12/12/12 13/13/13
f 11/11/11 10/10/10 14/14/14
f 14/14/14 10/10/10 13/13/13
f 11/11/11 15/15/15 12/12/12
f 15/15/15 11/11/11 14/14/14
f 12/12/12 16/16/16 13/13/13
f 15/15/15 16/16/16 12/12/12
f 14/14/14 13/13/13 17/17/17
f 13/13/13 16/16/16 17/17/17
f 15/15/15 14/14/14 18/18/18
f 18/18/18 14/14/14 17/17/17
f 15/15/15 19/19/19 16/16/16
f 19/19/19 15/15/15 18/18/18
f 16/16/16 20/20/20 17/17/17
f 19/19/19 20/20/20 16/16/16
f 18/18/18 17/17/17 21/21/21
f 17/17/17 20/20/20 21/21/21
f 19/19/19 18/18/18 22/22/22
f 22/22/22 18/18/18 21/21/21
f 19/19/19 23/23/23 20/20/20
f 23/23/23 19/19/19 22/22/22
f 20/20/20 24/24/24 21/21/21
f 23/23/23 24/24/24 20/20/20
f 22/22/22 21/21/21 25/25/25
f 21/21/21 24/24/24 25/25/25
f 23/23/23 22/22/22 26/26/26
f 26/26/26 22/22/22 25/25/25
f 23/23/23 27/27/27 24/24/24
f 27/27/27 23/23/23 26/26/26
f 24/24/24 28/28/28 25/25/25
f 27/27/27 28/28/28 24/24/24
f 26/26/26 25/25/25 29/29/29
f 25/25/25 28/28/28 29/29/29
f 27/27/27 26/26/26 30/30/30
f 30/30/30 26/26/26 29/29/29
f 27/27/27 31/31/31 28/28/28
f 31/31/31 27/27/27 30/30/30
f 28/28/28 32/32/32 29/29/29
f 31/31/31 32/32/32 28/28/28
f 30/30/30 29/29/29 33/33/33
f 29/29/29 32/32/32 33/33/33
f 31/31/31 30/30/30 34/34/34
f 34/34/34 30/30/30 33/33/33
f 31/31/31 35/35/35 32/32/32
f 35/35/35 31/31/31 34/34/34
f 35/35/35 36/36/36 32/32/32
f 32/32/32 36/36/36 33/33/33
f 35/35/35 37/37/37 36/36/36
f 37/37/37 35/35/35 34/34/34
f 36/36/36 38/38/38 33/33/33
f 37/37/37 38/38/38 36/36/36
f 34/34/34 33/33/33 39/39/39
f 38/38/38 39/39/39 33/33/33
f 40/40/40 37/37/37 34/34/34
f 40/40/40 34/34/34 39/39/39
f 37/37/37 41/41/41 38/38/38
f 41/41/41 37/37/37 40/40/40
f 38/38/38 42/42/42 39/39/39
f 41/41/41 42/42/42 38/38/38
f 40/40/40 39/39/39 43/43/43
f 42/42/42 43/43/43 39/39/39
f 44/44/44 41/41/41 40/40/40
f 44/44/44 40/40/40 43/43/43
f 41/41/41 45/45/45 42/42/42
f 45/45/45 41/41/41 44/44/44
f 42/42/42 46/46/46 43/43/43
f 45/45/45 46/46/46 42/42/42
f 44/44/44 43/43/43 47/47/47
f 46/46/46 47/47/47 43/43/43
f 48/48/48 45/45/45 44/44/44
f 48/48/48 44/44/44 47/47/47
f 45/45/45 49/49/49 46/46/46
f 49/49/49 45/45/45 48/48/48
f 46/46/46 50/50/50 47/47/47
f 49/49/49 50/50/50 46/46/46
f 48/48/48 47/47/47 51/51/51
f 50/50/50 51/51/51 47/47/47
f 52/52/52 49/49/49 48/48/48
f 52/52/52 48/48/48 51/51/51
f 49/49/49 53/53/53 50/50/50
f 53/53/53 49/49/49 52/52/52
f 50/50/50 54/54/54 51/51/51
f 53/53/53 54/54/54 50/50/50
f 52/52/52 51/51/51 55/55/55
f 54/54/54 55/55/55 51/51/51
f 56/56/56 53/53/53 52/52/52
f 56/56/56 52/52/52 55/55/55
f 53/53/53 57/57/57 54/54/54
f 57/57/57 53/53/53 56/56/56
f 54/54/54 58/58/58 55/55/55
f 57/57/57 58/58/58 54/54/54
f 56/56/56 55/55/55 59/59/59
f 58/58/58 59/59/59 55/55/55
f 60/60/60 57/57/57 56/56/56
f 60/60/60 56/56/56 59/59/59
f 57/57/57 61/61/61 58/58/58
f 61/61/61 57/57/57 60/60/60
f 58/58/58 62/62/62 59/59/59
f 61/61/61 62/62/62 58/58/58
f 60/60/60 59/59/59 63/63/63
f 62/62/62 63/63/63 59/59/59
f 64/64/64 61/61/61 60/60/60
f 64/64/64 60/60/60 63/63/63
f 61/61/61 65/65/65 62/62/62
f 65/65/65 61/61/61 64/64/64
f 65/65/65 66/66/66 62/62/62
f 62/62/62 66/66/66 63/63/63
f 67/67/67 65/65/65 64/64/64
f 64/64/64 63/63/63 67/67/67
f 65/65/65 67/67/67 66/66/66
f 66/66/66 68/68/68 63/63/63
f 67/67/67 68/68/68 66/66/66
f 63/63/63 68/68/68 67/67/67
