g ENV_S01_Trapeze_Bar_A_MO
v -0.12063551 -0.2912327 0.9009557
v -1.6331673E-05 -0.31525862 1.0696595
v -1.6331673E-05 -0.31525862 0.9009557
v -0.12063551 -0.2912327 1.0696595
v -0.22290897 -0.22290897 0.9009557
v -0.22290897 -0.22290897 1.0696595
v -0.2912326 -0.12063563 0.9009557
v -0.2912326 -0.12063563 1.0696595
v -0.3152585 -1.6331673E-05 0.9009557
v -0.3152585 -1.6331673E-05 1.0696595
v -0.2912326 0.12063551 0.9009557
v -0.2912326 0.12063551 1.0696595
v -0.22290897 0.22290897 0.9009557
v -0.22290897 0.22290897 1.0696595
v -0.12063551 0.2912326 0.9009557
v -0.12063551 0.2912326 1.0696595
v -1.6331673E-05 0.3152585 0.9009557
v -1.6331673E-05 0.3152585 1.0696595
v 0.12063563 0.2912326 0.9009557
v 0.12063563 0.2912326 1.0696595
v 0.22290897 0.22290897 0.9009557
v 0.22290897 0.22290897 1.0696595
v 0.2912327 0.12063551 0.9009557
v 0.2912327 0.12063551 1.0696595
v 0.31525862 -1.6331673E-05 0.9009557
v 0.31525862 -1.6331673E-05 1.0696595
v 0.2912327 -0.12063563 0.9009557
v 0.2912327 -0.12063563 1.0696595
v 0.22290897 -0.22290897 0.9009557
v 0.22290897 -0.22290897 1.0696595
v 0.12063563 -0.2912327 0.9009557
v 0.12063563 -0.2912327 1.0696595
v -1.6331673E-05 -0.31525862 0.9009557
v -1.6331673E-05 -0.31525862 1.0696595
v 0.12063563 -0.2912327 -0.90095574
v 1.6331673E-05 -0.31525862 -1.0696595
v 1.6331673E-05 -0.31525862 -0.90095574
v 0.12063563 -0.2912327 -1.0696595
v 0.22290897 -0.22290897 -0.90095574
v 0.22290897 -0.22290897 -1.0696595
v 0.2912327 -0.12063563 -0.90095574
v 0.2912327 -0.12063563 -1.0696595
v 0.31525862 -1.6331673E-05 -0.90095574
v 0.31525862 -1.6331673E-05 -1.0696595
v 0.2912327 0.12063551 -0.90095574
v 0.2912327 0.12063551 -1.0696595
v 0.22290897 0.22290897 -0.90095574
v 0.22290897 0.22290897 -1.0696595
v 0.12063563 0.2912326 -0.90095574
v 0.12063563 0.2912326 -1.0696595
v -1.6331673E-05 0.3152585 -0.90095574
v -1.6331673E-05 0.3152585 -1.0696595
v -0.12063551 0.2912326 -0.90095574
v -0.12063551 0.2912326 -1.0696595
v -0.22290897 0.22290897 -0.90095574
v -0.22290897 0.22290897 -1.0696595
v -0.2912326 0.12063551 -0.90095574
v -0.2912326 0.12063551 -1.0696595
v -0.3152585 -1.6331673E-05 -0.90095574
v -0.3152585 -1.6331673E-05 -1.0696595
v -0.2912326 -0.12063563 -0.90095574
v -0.2912326 -0.12063563 -1.0696595
v -0.22290897 -0.22290897 -0.90095574
v -0.22290897 -0.22290897 -1.0696595
v -0.12063551 -0.2912327 -0.90095574
v -0.12063551 -0.2912327 -1.0696595
v 1.6331673E-05 -0.31525862 -0.90095574
v 1.6331673E-05 -0.31525862 -1.0696595
v 0.099449694 -0.2445193 0.93395853
v 1.6331673E-05 -0.26430148 -0.91939956
v 1.6331673E-05 -0.26430148 0.93395853
v 0.099449694 -0.2445193 -0.91939956
v 0.18373632 -0.18820852 0.93395853
v 0.18373632 -0.18820852 -0.91939956
v 0.2400797 -0.10388929 0.93395853
v 0.2400797 -0.10388929 -0.91939956
v 0.2598619 -0.004455924 0.93395853
v 0.2598619 -0.004455924 -0.91939956
v 0.2400797 0.09497738 0.93395853
v 0.2400797 0.09497738 -0.91939956
v 0.18373632 0.17929661 0.93395853
v 0.18373632 0.17929661 -0.91939956
v 0.099449694 0.23560739 0.93395853
v 0.099449694 0.23560739 -0.91939956
v -1.6331673E-05 0.25538957 0.93395853
v -1.6331673E-05 0.25538957 -0.91939956
v -0.099449635 0.23560739 0.93395853
v -0.099449635 0.23560739 -0.91939956
v -0.1837362 0.17929661 0.93395853
v -0.1837362 0.17929661 -0.91939956
v -0.24007964 0.09497738 0.93395853
v -0.24007964 0.09497738 -0.91939956
v -0.25986183 -0.004455924 0.93395853
v -0.25986183 -0.004455924 -0.91939956
v -0.24007964 -0.10388929 0.93395853
v -0.24007964 -0.10388929 -0.91939956
v -0.1837362 -0.18820852 0.93395853
v -0.1837362 -0.18820852 -0.91939956
v -0.099449635 -0.2445193 0.93395853
v -0.099449635 -0.2445193 -0.91939956
v 1.6331673E-05 -0.26430148 0.93395853
v 1.6331673E-05 -0.26430148 -0.91939956
v 0.2912327 0.12063551 -1.0696595
v -1.6331673E-05 -1.6331673E-05 -1.0696595
v 0.31525862 -1.6331673E-05 -1.0696595
v 0.22290897 0.22290897 -1.0696595
v 0.2912327 -0.12063563 -1.0696595
v 0.12063563 0.2912326 -1.0696595
v 0.22290897 -0.22290897 -1.0696595
v -1.6331673E-05 0.3152585 -1.0696595
v 0.12063563 -0.2912327 -1.0696595
v -0.12063551 0.2912326 -1.0696595
v 1.6331673E-05 -0.31525862 -1.0696595
v -0.22290897 0.22290897 -1.0696595
v -0.12063551 -0.2912327 -1.0696595
v -0.2912326 0.12063551 -1.0696595
v -0.22290897 -0.22290897 -1.0696595
v -0.3152585 -1.6331673E-05 -1.0696595
v -0.2912326 -0.12063563 -1.0696595
v 0.31525862 -1.6331673E-05 -0.90095574
v -1.6331673E-05 -1.6331673E-05 -0.90095574
v 0.2912327 0.12063551 -0.90095574
v 0.2912327 -0.12063563 -0.90095574
v 0.22290897 0.22290897 -0.90095574
v 0.22290897 -0.22290897 -0.90095574
v 0.12063563 0.2912326 -0.90095574
v 0.12063563 -0.2912327 -0.90095574
v -1.6331673E-05 0.3152585 -0.90095574
v 1.6331673E-05 -0.31525862 -0.90095574
v -0.12063551 0.2912326 -0.90095574
v -0.12063551 -0.2912327 -0.90095574
v -0.22290897 0.22290897 -0.90095574
v -0.22290897 -0.22290897 -0.90095574
v -0.2912326 0.12063551 -0.90095574
v -0.2912326 -0.12063563 -0.90095574
v -0.3152585 -1.6331673E-05 -0.90095574
v -0.2912326 0.12063551 1.0696595
v -1.6331673E-05 -1.6331673E-05 1.0696595
v -0.3152585 -1.6331673E-05 1.0696595
v -0.22290897 0.22290897 1.0696595
v -0.2912326 -0.12063563 1.0696595
v -0.12063551 0.2912326 1.0696595
v -0.22290897 -0.22290897 1.0696595
v -1.6331673E-05 0.3152585 1.0696595
v -0.12063551 -0.2912327 1.0696595
v 0.12063563 0.2912326 1.0696595
v -1.6331673E-05 -0.31525862 1.0696595
v 0.22290897 0.22290897 1.0696595
v 0.12063563 -0.2912327 1.0696595
v 0.2912327 0.12063551 1.0696595
v 0.22290897 -0.22290897 1.0696595
v 0.31525862 -1.6331673E-05 1.0696595
v 0.2912327 -0.12063563 1.0696595
v -0.3152585 -1.6331673E-05 0.9009557
v -1.6331673E-05 -1.6331673E-05 0.9009557
v -0.2912326 0.12063551 0.9009557
v -0.2912326 -0.12063563 0.9009557
v -0.22290897 0.22290897 0.9009557
v -0.22290897 -0.22290897 0.9009557
v -0.12063551 0.2912326 0.9009557
v -0.12063551 -0.2912327 0.9009557
v -1.6331673E-05 0.3152585 0.9009557
v -1.6331673E-05 -0.31525862 0.9009557
v 0.12063563 0.2912326 0.9009557
v 0.12063563 -0.2912327 0.9009557
v 0.22290897 0.22290897 0.9009557
v 0.22290897 -0.22290897 0.9009557
v 0.2912327 0.12063551 0.9009557
v 0.2912327 -0.12063563 0.9009557
v 0.31525862 -1.6331673E-05 0.9009557
vt 0.3362917 0.7777268
vt 0.35780412 0.8078442
vt 0.35780412 0.7777268
vt 0.3362917 0.8078442
vt 0.31477928 0.7777268
vt 0.31477928 0.8078442
vt 0.29240635 0.7777268
vt 0.29240635 0.8078442
vt 0.2708939 0.7777268
vt 0.2708939 0.8078442
vt 0.2493815 0.7777268
vt 0.2493815 0.8078442
vt 0.22700857 0.7777268
vt 0.22700857 0.8078442
vt 0.20549613 0.7777268
vt 0.20549613 0.8078442
vt 0.1839837 0.7777268
vt 0.1839837 0.8078442
vt 0.16161078 0.7777268
vt 0.16161078 0.8078442
vt 0.14009835 0.7777268
vt 0.14009835 0.8078442
vt 0.11858591 0.7777268
vt 0.11858591 0.8078442
vt 0.096212976 0.7777268
vt 0.096212976 0.8078442
vt 0.07470055 0.7777268
vt 0.07470055 0.8078442
vt 0.053188115 0.7777268
vt 0.053188115 0.8078442
vt 0.030815188 0.7777268
vt 0.030815188 0.8078442
vt 0.009302758 0.7777268
vt 0.009302758 0.8078442
vt 0.3362917 0.7777268
vt 0.35780412 0.8078442
vt 0.35780412 0.7777268
vt 0.3362917 0.8078442
vt 0.31477928 0.7777268
vt 0.31477928 0.8078442
vt 0.29240635 0.7777268
vt 0.29240635 0.8078442
vt 0.2708939 0.7777268
vt 0.2708939 0.8078442
vt 0.2493815 0.7777268
vt 0.2493815 0.8078442
vt 0.22700857 0.7777268
vt 0.22700857 0.8078442
vt 0.20549613 0.7777268
vt 0.20549613 0.8078442
vt 0.1839837 0.7777268
vt 0.1839837 0.8078442
vt 0.16161078 0.7777268
vt 0.16161078 0.8078442
vt 0.14009835 0.7777268
vt 0.14009835 0.8078442
vt 0.11858591 0.7777268
vt 0.11858591 0.8078442
vt 0.096212976 0.7777268
vt 0.096212976 0.8078442
vt 0.07470055 0.7777268
vt 0.07470055 0.8078442
vt 0.053188115 0.7777268
vt 0.053188115 0.8078442
vt 0.030815188 0.7777268
vt 0.030815188 0.8078442
vt 0.009302758 0.7777268
vt 0.009302758 0.8078442
vt 0.47827375 0.019628726
vt 0.7493304 0.005000272
vt 0.47827375 0.005000272
vt 0.7493304 0.019628726
vt 0.47827375 0.034257177
vt 0.7493304 0.034257177
vt 0.47827375 0.049746126
vt 0.7493304 0.049746126
vt 0.47827375 0.06437458
vt 0.7493304 0.06437458
vt 0.47827375 0.079003036
vt 0.7493304 0.079003036
vt 0.47827375 0.09363148
vt 0.7493304 0.09363148
vt 0.47827375 0.109120436
vt 0.7493304 0.109120436
vt 0.47827375 0.12374889
vt 0.7493304 0.12374889
vt 0.47827375 0.13837735
vt 0.7493304 0.13837735
vt 0.47827375 0.15300581
vt 0.7493304 0.15300581
vt 0.47827375 0.16763426
vt 0.7493304 0.16763426
vt 0.47827375 0.1831232
vt 0.7493304 0.1831232
vt 0.47827375 0.19775166
vt 0.7493304 0.19775166
vt 0.47827375 0.21238011
vt 0.7493304 0.21238011
vt 0.47827375 0.22700857
vt 0.7493304 0.22700857
vt 0.47827375 0.24249752
vt 0.7493304 0.24249752
vt 0.47138977 0.80009973
vt 0.44557485 0.8388221
vt 0.48429722 0.8130072
vt 0.45504034 0.79321575
vt 0.4911812 0.8302171
vt 0.4361094 0.79321575
vt 0.4911812 0.8482876
vt 0.41889945 0.80009973
vt 0.48429722 0.8654975
vt 0.40599197 0.8130072
vt 0.47138977 0.878405
vt 0.399108 0.8302171
vt 0.45504034 0.88528895
vt 0.399108 0.8482876
vt 0.4361094 0.88528895
vt 0.40599197 0.8654975
vt 0.41975993 0.878405
vt 0.6985611 0.6236978
vt 0.6727462 0.5841149
vt 0.68221164 0.6305818
vt 0.71232903 0.6107904
vt 0.66328067 0.6305818
vt 0.719213 0.5935804
vt 0.64693123 0.6236978
vt 0.719213 0.57464945
vt 0.6340238 0.6107904
vt 0.7114685 0.5583
vt 0.6262793 0.5935804
vt 0.6985611 0.5453926
vt 0.6262793 0.57550997
vt 0.68221164 0.5385086
vt 0.6331633 0.5583
vt 0.66328067 0.5385086
vt 0.64693123 0.5453926
vt 0.47138977 0.80009973
vt 0.44557485 0.8388221
vt 0.48429722 0.8130072
vt 0.45504034 0.79321575
vt 0.4911812 0.8302171
vt 0.4361094 0.79321575
vt 0.4911812 0.8482876
vt 0.41889945 0.80009973
vt 0.48429722 0.8654975
vt 0.40599197 0.8130072
vt 0.47138977 0.878405
vt 0.399108 0.8302171
vt 0.45504034 0.88528895
vt 0.399108 0.8482876
vt 0.4361094 0.88528895
vt 0.40599197 0.8654975
vt 0.41975993 0.878405
vt 0.6985611 0.6236978
vt 0.6727462 0.5841149
vt 0.68221164 0.6305818
vt 0.71232903 0.6107904
vt 0.66328067 0.6305818
vt 0.719213 0.5935804
vt 0.64693123 0.6236978
vt 0.719213 0.57464945
vt 0.6340238 0.6107904
vt 0.7114685 0.5583
vt 0.6262793 0.5935804
vt 0.6985611 0.5453926
vt 0.6262793 0.57550997
vt 0.68221164 0.5385086
vt 0.6331633 0.5583
vt 0.66328067 0.5385086
vt 0.64693123 0.5453926
vn -0.3803892 -0.9215616 -0.07764209
vn -0.003921509 -0.9999924 -0
vn -0.003921509 -0.9999924 -0
vn -0.3803892 -0.9215616 -0.07764209
vn -0.70710677 -0.7071068 -0
vn -0.70710677 -0.7071068 -0
vn -0.9215615 -0.38038927 -0.07764286
vn -0.9215615 -0.38038927 -0.07764286
vn -0.99999225 0.003921509 -0.00034492963
vn -0.99999225 0.003921509 -0.00034492963
vn -0.9215615 0.3803892 -0.07764315
vn -0.9215615 0.3803892 -0.07764315
vn -0.70710677 0.70710677 -0
vn -0.70710677 0.70710677 -0
vn -0.3803892 0.9215615 -0.077643245
vn -0.3803892 0.9215615 -0.077643245
vn -0.003921509 0.99999225 -0.00034526698
vn -0.003921509 0.99999225 -0.00034526698
vn 0.38038927 0.9215615 -0.07764286
vn 0.38038927 0.9215615 -0.07764286
vn 0.7071068 0.70710677 -0
vn 0.7071068 0.70710677 -0
vn 0.9215616 0.3803892 -0.077641994
vn 0.9215616 0.3803892 -0.077641994
vn 0.9999924 0.003921509 -0
vn 0.9999924 0.003921509 -0
vn 0.9215616 -0.38038927 -0.07764171
vn 0.9215616 -0.38038927 -0.07764171
vn 0.70710677 -0.70710677 -0
vn 0.70710677 -0.70710677 -0
vn 0.38038927 -0.9215616 -0.07764171
vn 0.38038927 -0.9215616 -0.07764171
vn -0.003921509 -0.9999924 -0
vn -0.003921509 -0.9999924 -0
vn 0.38038927 -0.9215616 -0.07764171
vn -0.003921509 -0.9999924 -0
vn -0.003921509 -0.9999924 -0
vn 0.38038927 -0.9215616 -0.07764171
vn 0.70710677 -0.70710677 -0
vn 0.70710677 -0.70710677 -0
vn 0.9215616 -0.38038927 -0.07764171
vn 0.9215616 -0.38038927 -0.07764171
vn 0.9999924 0.003921509 -0
vn 0.9999924 0.003921509 -0
vn 0.9215616 0.3803892 -0.077641994
vn 0.9215616 0.3803892 -0.077641994
vn 0.7071068 0.70710677 -0
vn 0.7071068 0.70710677 -0
vn 0.38038927 0.9215615 -0.07764286
vn 0.38038927 0.9215615 -0.07764286
vn -0.003921509 0.99999225 -0.00034526698
vn -0.003921509 0.99999225 -0.00034526698
vn -0.3803892 0.9215615 -0.077643245
vn -0.3803892 0.9215615 -0.077643245
vn -0.70710677 0.70710677 -0
vn -0.70710677 0.70710677 -0
vn -0.9215615 0.3803892 -0.07764315
vn -0.9215615 0.3803892 -0.07764315
vn -0.99999225 0.003921509 -0.00034492963
vn -0.99999225 0.003921509 -0.00034492963
vn -0.9215615 -0.38038927 -0.07764286
vn -0.9215615 -0.38038927 -0.07764286
vn -0.70710677 -0.7071068 -0
vn -0.70710677 -0.7071068 -0
vn -0.3803892 -0.9215616 -0.07764209
vn -0.3803892 -0.9215616 -0.07764209
vn -0.003921509 -0.9999924 -0
vn -0.003921509 -0.9999924 -0
vn 0.38038927 -0.9215616 -0.07764171
vn -0.003921509 -0.9999924 -0
vn -0.003921509 -0.9999924 -0
vn 0.38038927 -0.9215616 -0.07764171
vn 0.70710677 -0.70710677 -0
vn 0.70710677 -0.70710677 -0
vn 0.9215616 -0.38038927 -0.07764171
vn 0.9215616 -0.38038927 -0.07764171
vn 0.9999924 0.003921509 -0
vn 0.9999924 0.003921509 -0
vn 0.9215616 0.3803892 -0.077641994
vn 0.9215616 0.3803892 -0.077641994
vn 0.7071068 0.70710677 -0
vn 0.7071068 0.70710677 -0
vn 0.38038927 0.9215615 -0.07764286
vn 0.38038927 0.9215615 -0.07764286
vn -0.003921509 0.99999225 -0.00034526698
vn -0.003921509 0.99999225 -0.00034526698
vn -0.3803892 0.9215615 -0.077643245
vn -0.3803892 0.9215615 -0.077643245
vn -0.70710677 0.70710677 -0
vn -0.70710677 0.70710677 -0
vn -0.9215615 0.3803892 -0.07764315
vn -0.9215615 0.3803892 -0.07764315
vn -0.99999225 0.003921509 -0.00034492963
vn -0.99999225 0.003921509 -0.00034492963
vn -0.9215615 -0.38038927 -0.07764286
vn -0.9215615 -0.38038927 -0.07764286
vn -0.70710677 -0.7071068 -0
vn -0.70710677 -0.7071068 -0
vn -0.3803892 -0.9215616 -0.07764209
vn -0.3803892 -0.9215616 -0.07764209
vn -0.003921509 -0.9999924 -0
vn -0.003921509 -0.9999924 -0
vn -0.003921509 0.003921509 -0.9999846
vn -0.003921509 0.003921509 -0.9999846
vn -0.003921509 0.003921509 -0.9999846
vn -0.003921509 0.003921509 -0.9999846
vn -0.003921509 0.003921509 -0.9999846
vn -0.003921509 0.003921509 -0.9999846
vn -0.003921509 0.003921509 -0.9999846
vn -0.003921509 0.003921509 -0.9999846
vn -0.003921509 0.003921509 -0.9999846
vn -0.003921509 0.003921509 -0.9999846
vn -0.003921509 0.003921509 -0.9999846
vn -0.003921509 0.003921509 -0.9999846
vn -0.003921509 0.003921509 -0.9999846
vn -0.003921509 0.003921509 -0.9999846
vn -0.003921509 0.003921509 -0.9999846
vn -0.003921509 0.003921509 -0.9999846
vn -0.003921509 0.003921509 -0.9999846
vn -0.003921509 0.003921509 0.9999846
vn -0.003921509 0.003921509 0.9999846
vn -0.003921509 0.003921509 0.9999846
vn -0.003921509 0.003921509 0.9999846
vn -0.003921509 0.003921509 0.9999846
vn -0.003921509 0.003921509 0.9999846
vn -0.003921509 0.003921509 0.9999846
vn -0.003921509 0.003921509 0.9999846
vn -0.003921509 0.003921509 0.9999846
vn -0.003921509 0.003921509 0.9999846
vn -0.003921509 0.003921509 0.9999846
vn -0.003921509 0.003921509 0.9999846
vn -0.003921509 0.003921509 0.9999846
vn -0.003921509 0.003921509 0.9999846
vn -0.003921509 0.003921509 0.9999846
vn -0.003921509 0.003921509 0.9999846
vn -0.003921509 0.003921509 0.9999846
vn -0.003921509 0.003921509 0.9999846
vn -0.003921509 0.003921509 0.9999846
vn -0.003921509 0.003921509 0.9999846
vn -0.003921509 0.003921509 0.9999846
vn -0.003921509 0.003921509 0.9999846
vn -0.003921509 0.003921509 0.9999846
vn -0.003921509 0.003921509 0.9999846
vn -0.003921509 0.003921509 0.9999846
vn -0.003921509 0.003921509 0.9999846
vn -0.003921509 0.003921509 0.9999846
vn -0.003921509 0.003921509 0.9999846
vn -0.003921509 0.003921509 0.9999846
vn -0.003921509 0.003921509 0.9999846
vn -0.003921509 0.003921509 0.9999846
vn -0.003921509 0.003921509 0.9999846
vn -0.003921509 0.003921509 0.9999846
vn -0.003921509 0.003921509 0.9999846
vn -0.003921509 0.003921509 -0.9999846
vn -0.003921509 0.003921509 -0.9999846
vn -0.003921509 0.003921509 -0.9999846
vn -0.003921509 0.003921509 -0.9999846
vn -0.003921509 0.003921509 -0.9999846
vn -0.003921509 0.003921509 -0.9999846
vn -0.003921509 0.003921509 -0.9999846
vn -0.003921509 0.003921509 -0.9999846
vn -0.003921509 0.003921509 -0.9999846
vn -0.003921509 0.003921509 -0.9999846
vn -0.003921509 0.003921509 -0.9999846
vn -0.003921509 0.003921509 -0.9999846
vn -0.003921509 0.003921509 -0.9999846
vn -0.003921509 0.003921509 -0.9999846
vn -0.003921509 0.003921509 -0.9999846
vn -0.003921509 0.003921509 -0.9999846
vn -0.003921509 0.003921509 -0.9999846
g ENV_S01_Trapeze_Bar_A_MO_0
f 3/3/3 2/2/2 1/1/1
f 2/2/2 4/4/4 1/1/1
f 1/1/1 4/4/4 5/5/5
f 4/4/4 6/6/6 5/5/5
f 5/5/5 6/6/6 7/7/7
f 6/6/6 8/8/8 7/7/7
f 7/7/7 8/8/8 9/9/9
f 8/8/8 10/10/10 9/9/9
f 9/9/9 10/10/10 11/11/11
f 10/10/10 12/12/12 11/11/11
f 11/11/11 12/12/12 13/13/13
f 12/12/12 14/14/14 13/13/13
f 13/13/13 14/14/14 15/15/15
f 14/14/14 16/16/16 15/15/15
f 15/15/15 16/16/16 17/17/17
f 16/16/16 18/18/18 17/17/17
f 17/17/17 18/18/18 19/19/19
f 18/18/18 20/20/20 19/19/19
f 19/19/19 20/20/20 21/21/21
f 20/20/20 22/22/22 21/21/21
f 21/21/21 22/22/22 23/23/23
f 22/22/22 24/24/24 23/23/23
f 23/23/23 24/24/24 25/25/25
f 24/24/24 26/26/26 25/25/25
f 25/25/25 26/26/26 27/27/27
f 26/26/26 28/28/28 27/27/27
f 27/27/27 28/28/28 29/29/29
f 28/28/28 30/30/30 29/29/29
f 29/29/29 30/30/30 31/31/31
f 30/30/30 32/32/32 31/31/31
f 31/31/31 32/32/32 33/33/33
f 32/32/32 34/34/34 33/33/33
f 37/37/37 36/36/36 35/35/35
f 36/36/36 38/38/38 35/35/35
f 35/35/35 38/38/38 39/39/39
f 38/38/38 40/40/40 39/39/39
f 39/39/39 40/40/40 41/41/41
f 40/40/40 42/42/42 41/41/41
f 41/41/41 42/42/42 43/43/43
f 42/42/42 44/44/44 43/43/43
f 43/43/43 44/44/44 45/45/45
f 44/44/44 46/46/46 45/45/45
f 45/45/45 46/46/46 47/47/47
f 46/46/46 48/48/48 47/47/47
f 47/47/47 48/48/48 49/49/49
f 48/48/48 50/50/50 49/49/49
f 49/49/49 50/50/50 51/51/51
f 50/50/50 52/52/52 51/51/51
f 51/51/51 52/52/52 53/53/53
f 52/52/52 54/54/54 53/53/53
f 53/53/53 54/54/54 55/55/55
f 54/54/54 56/56/56 55/55/55
f 55/55/55 56/56/56 57/57/57
f 56/56/56 58/58/58 57/57/57
f 57/57/57 58/58/58 59/59/59
f 58/58/58 60/60/60 59/59/59
f 59/59/59 60/60/60 61/61/61
f 60/60/60 62/62/62 61/61/61
f 61/61/61 62/62/62 63/63/63
f 62/62/62 64/64/64 63/63/63
f 63/63/63 64/64/64 65/65/65
f 64/64/64 66/66/66 65/65/65
f 65/65/65 66/66/66 67/67/67
f 66/66/66 68/68/68 67/67/67
f 71/71/71 70/70/70 69/69/69
f 70/70/70 72/72/72 69/69/69
f 69/69/69 72/72/72 73/73/73
f 72/72/72 74/74/74 73/73/73
f 73/73/73 74/74/74 75/75/75
f 74/74/74 76/76/76 75/75/75
f 75/75/75 76/76/76 77/77/77
f 76/76/76 78/78/78 77/77/77
f 77/77/77 78/78/78 79/79/79
f 78/78/78 80/80/80 79/79/79
f 79/79/79 80/80/80 81/81/81
f 80/80/80 82/82/82 81/81/81
f 81/81/81 82/82/82 83/83/83
f 82/82/82 84/84/84 83/83/83
f 83/83/83 84/84/84 85/85/85
f 84/84/84 86/86/86 85/85/85
f 85/85/85 86/86/86 87/87/87
f 86/86/86 88/88/88 87/87/87
f 87/87/87 88/88/88 89/89/89
f 88/88/88 90/90/90 89/89/89
f 89/89/89 90/90/90 91/91/91
f 90/90/90 92/92/92 91/91/91
f 91/91/91 92/92/92 93/93/93
f 92/92/92 94/94/94 93/93/93
f 93/93/93 94/94/94 95/95/95
f 94/94/94 96/96/96 95/95/95
f 95/95/95 96/96/96 97/97/97
f 96/96/96 98/98/98 97/97/97
f 97/97/97 98/98/98 99/99/99
f 98/98/98 100/100/100 99/99/99
f 99/99/99 100/100/100 101/101/101
f 100/100/100 102/102/102 101/101/101
f 105/105/105 104/104/104 103/103/103
f 103/103/103 104/104/104 106/106/106
f 107/107/107 104/104/104 105/105/105
f 106/106/106 104/104/104 108/108/108
f 109/109/109 104/104/104 107/107/107
f 108/108/108 104/104/104 110/110/110
f 111/111/111 104/104/104 109/109/109
f 110/110/110 104/104/104 112/112/112
f 113/113/113 104/104/104 111/111/111
f 112/112/112 104/104/104 114/114/114
f 115/115/115 104/104/104 113/113/113
f 114/114/114 104/104/104 116/116/116
f 117/117/117 104/104/104 115/115/115
f 116/116/116 104/104/104 118/118/118
f 119/119/119 104/104/104 117/117/117
f 118/118/118 104/104/104 119/119/119
f 122/122/122 121/121/121 120/120/120
f 120/120/120 121/121/121 123/123/123
f 124/124/124 121/121/121 122/122/122
f 123/123/123 121/121/121 125/125/125
f 126/126/126 121/121/121 124/124/124
f 125/125/125 121/121/121 127/127/127
f 128/128/128 121/121/121 126/126/126
f 127/127/127 121/121/121 129/129/129
f 130/130/130 121/121/121 128/128/128
f 129/129/129 121/121/121 131/131/131
f 132/132/132 121/121/121 130/130/130
f 131/131/131 121/121/121 133/133/133
f 134/134/134 121/121/121 132/132/132
f 133/133/133 121/121/121 135/135/135
f 136/136/136 121/121/121 134/134/134
f 135/135/135 121/121/121 136/136/136
f 139/139/139 138/138/138 137/137/137
f 137/137/137 138/138/138 140/140/140
f 141/141/141 138/138/138 139/139/139
f 140/140/140 138/138/138 142/142/142
f 143/143/143 138/138/138 141/141/141
f 142/142/142 138/138/138 144/144/144
f 145/145/145 138/138/138 143/143/143
f 144/144/144 138/138/138 146/146/146
f 147/147/147 138/138/138 145/145/145
f 146/146/146 138/138/138 148/148/148
f 149/149/149 138/138/138 147/147/147
f 148/148/148 138/138/138 150/150/150
f 151/151/151 138/138/138 149/149/149
f 150/150/150 138/138/138 152/152/152
f 153/153/153 138/138/138 151/151/151
f 152/152/152 138/138/138 153/153/153
f 156/156/156 155/155/155 154/154/154
f 154/154/154 155/155/155 157/157/157
f 158/158/158 155/155/155 156/156/156
f 157/157/157 155/155/155 159/159/159
f 160/160/160 155/155/155 158/158/158
f 159/159/159 155/155/155 161/161/161
f 162/162/162 155/155/155 160/160/160
f 161/161/161 155/155/155 163/163/163
f 164/164/164 155/155/155 162/162/162
f 163/163/163 155/155/155 165/165/165
f 166/166/166 155/155/155 164/164/164
f 165/165/165 155/155/155 167/167/167
f 168/168/168 155/155/155 166/166/166
f 167/167/167 155/155/155 169/169/169
f 170/170/170 155/155/155 168/168/168
f 169/169/169 155/155/155 170/170/170
