g ENV_S06_IB_TopCorner_FloorHP01_MO
v -36.807457 0.7783293 8.564588
v -36.742817 1.5942765 8.537146
v -36.742207 0.78869635 8.536535
v -36.811726 1.5814701 8.564588
v -36.814777 1.6509904 8.537146
v -36.75806 1.6491609 8.524949
v -39.296158 1.0911701 8.536535
v -39.2925 1.0240892 8.564588
v -39.28823 0.22094843 8.564588
v -39.54009 1.0356759 8.543854
v -39.53582 0.96920484 8.571905
v -39.53216 0.16606408 8.571905
v -39.755966 0.9868898 8.632888
v -39.751698 0.92041874 8.66094
v -39.74804 0.11727801 8.66094
v -39.935863 0.94603145 8.887185
v -39.931595 0.8795604 8.915237
v -39.927326 0.07641967 8.915237
v -39.99624 0.063613325 8.887795
v -39.997456 0.86858356 8.887185
v -39.9877 0.92407775 8.874379
v -36.817825 1.680262 3.1840928
v -36.745865 1.6637967 0.5404972
v -36.745865 1.6637967 3.1840928
v -36.817825 1.680262 0.5404972
v -39.300426 1.119222 3.1847026
v -36.814777 1.6509904 0.47463602
v -36.75806 1.6491609 0.48683253
v -39.29677 1.0911701 0.47524586
v -39.300426 1.119222 0.5423267
v -39.544968 1.063728 3.187142
v -39.5407 1.0356759 0.47524586
v -39.544968 1.0631181 0.5429365
v -39.760845 1.0143319 3.2170234
v -39.756577 0.9868898 0.47524586
v -39.760845 1.0143319 0.5429365
v -39.940742 0.9734736 3.3017893
v -39.936474 0.94603145 0.47524586
v -39.940742 0.9734736 0.5429365
v -40.001118 0.9350546 3.3017893
v -40.001118 0.9350546 0.5429365
v -39.9877 0.92407775 0.48744237
v -39.997456 0.86858356 8.887185
v -39.99624 0.063613325 8.887795
v -40.0249 0.059954368 8.821934
v -40.0249 0.86675406 8.818885
v -40.001118 0.9350546 8.818885
v -39.9877 0.92407775 8.874379
v -40.001118 0.9350546 6.060032
v -40.0249 0.8673639 6.060032
v -40.0249 0.059954368 6.061251
v -40.001118 0.9350546 3.3017893
v -40.0249 0.8673639 3.3017893
v -40.0249 0.059954368 3.3011794
v -40.001118 0.9350546 0.5429365
v -40.0249 0.8673639 0.5429365
v -40.0249 0.059954368 0.5404972
v -39.99624 0.063613325 0.47463602
v -39.997456 0.8691934 0.47524586
v -39.9877 0.92407775 0.48744237
v -39.997456 0.8691934 0.47524586
v -39.99624 0.063613325 0.47463602
v -39.927326 0.07641967 0.44719386
v -39.931595 0.8795604 0.44719386
v -39.936474 0.94603145 0.47524586
v -39.9877 0.92407775 0.48744237
v -39.756577 0.9868898 0.47524586
v -39.751698 0.92041874 0.44719386
v -39.74804 0.11727801 0.44719386
v -39.5407 1.0356759 0.47524586
v -39.53582 0.96920484 0.44719386
v -39.53216 0.16606408 0.44719386
v -39.29677 1.0911701 0.47524586
v -39.2925 1.0240892 0.44719386
v -39.28823 0.22094843 0.44719386
v -36.814777 1.6509904 0.47463602
v -36.811726 1.5814701 0.44719386
v -36.807457 0.7783293 0.44719386
v -36.742207 0.78869635 0.47524586
v -36.742817 1.5942765 0.47463602
v -36.75806 1.6491609 0.48683253
v -36.742817 1.5942765 0.47463602
v -36.742207 0.78869635 0.47524586
v -36.714153 0.79052585 0.5435463
v -36.714153 1.5979354 0.5404972
v -36.745865 1.6637967 0.5404972
v -36.75806 1.6491609 0.48683253
v -36.745865 1.6637967 3.1840928
v -36.714153 1.5979354 3.1840928
v -36.714153 0.79052585 3.1853125
v -36.745865 1.6637967 5.827688
v -36.714153 1.5979354 5.827688
v -36.714153 0.79052585 5.8264685
v -36.745865 1.6637967 8.471284
v -36.714153 1.5979354 8.4706745
v -36.714153 0.79052585 8.468235
v -36.742207 0.78869635 8.536535
v -36.742817 1.5942765 8.537146
v -36.75806 1.6491609 8.524949
v -36.745865 1.6637967 8.471284
v -36.75806 1.6491609 8.524949
v -36.814777 1.6509904 8.537146
v -36.817825 1.680262 8.4706745
v -36.745865 1.6637967 5.827688
v -36.817825 1.680262 5.827688
v -39.300426 1.119222 5.8264685
v -39.300426 1.119222 8.468844
v -39.296158 1.0911701 8.536535
v -39.544357 1.063728 5.831957
v -39.544357 1.063728 8.476163
v -39.54009 1.0356759 8.543854
v -39.760235 1.0143319 5.89111
v -39.760235 1.0143319 8.565197
v -39.755966 0.9868898 8.632888
v -39.940132 0.9734736 6.060032
v -39.940132 0.9734736 8.818885
v -39.935863 0.94603145 8.887185
v -40.001118 0.9350546 8.818885
v -40.001118 0.9350546 6.060032
v -39.9877 0.92407775 8.874379
v -40.001118 0.9350546 6.060032
v -40.001118 0.9350546 3.3017893
v -39.940742 0.9734736 3.3017893
v -39.940132 0.9734736 6.060032
v -39.760845 1.0143319 3.2170234
v -39.760235 1.0143319 5.89111
v -39.544968 1.063728 3.187142
v -39.544357 1.063728 5.831957
v -39.300426 1.119222 3.1847026
v -39.300426 1.119222 5.8264685
v -36.817825 1.680262 3.1840928
v -36.817825 1.680262 5.827688
v -36.745865 1.6637967 3.1840928
v -36.745865 1.6637967 5.827688
vt 0.7657796 0.21650186
vt 0.9707918 0.19909516
vt 0.7657796 0.19909516
vt 0.9707918 0.21650186
vt 0.9881985 0.21650186
vt 0.9881985 0.19909516
vt 0.9881985 0.824769
vt 0.9707918 0.824769
vt 0.7657796 0.824769
vt 0.9881985 0.8866595
vt 0.9707918 0.8866595
vt 0.7657796 0.8866595
vt 0.9881985 0.94081366
vt 0.9707918 0.94081366
vt 0.7657796 0.94081366
vt 0.98529744 0.9920666
vt 0.97175884 0.9920666
vt 0.7657796 0.9920666
vt 0.7657796 1.0085063
vt 0.97175884 1.0085063
vt 0.98529744 1.0085063
vt 0.61685574 0.88859355
vt 0.6197568 0.97949517
vt 0.6197568 0.88859355
vt 0.61685574 0.97949517
vt 0.53369045 0.88859355
vt 0.61685574 0.9814292
vt 0.6197568 0.9814292
vt 0.53369045 0.9814292
vt 0.53369045 0.97949517
vt 0.5249871 0.88859355
vt 0.5249871 0.9814292
vt 0.5249871 0.97949517
vt 0.5172508 0.88859355
vt 0.5172508 0.9814292
vt 0.5172508 0.97949517
vt 0.5104816 0.88859355
vt 0.5104816 0.9814292
vt 0.5104816 0.97949517
vt 0.5085474 0.88859355
vt 0.5085474 0.97949517
vt 0.5085474 0.9814292
vt 0.96885777 -0.38596305
vt 0.7725489 -0.38596305
vt 0.7725489 -0.36855635
vt 0.96885777 -0.36855635
vt 0.9814292 -0.36855635
vt 0.9814292 -0.38596305
vt 0.9814292 0.24357894
vt 0.96885777 0.24357894
vt 0.7725489 0.24357894
vt 0.9814292 0.91663766
vt 0.96885777 0.91663766
vt 0.7725489 0.91663766
vt 0.9814292 1.5761578
vt 0.96885777 1.5761578
vt 0.7725489 1.5761578
vt 0.7725489 1.5935645
vt 0.96885777 1.5935645
vt 0.9814292 1.5935645
vt 0.78028524 1.0085063
vt 0.9746599 1.0085063
vt 0.9746599 0.9920666
vt 0.78028524 0.9920666
vt 0.7793182 0.9920666
vt 0.7793182 1.0085063
vt 0.7793182 0.94081366
vt 0.78028524 0.94081366
vt 0.9746599 0.94081366
vt 0.7793182 0.8866595
vt 0.78028524 0.8866595
vt 0.9746599 0.8866595
vt 0.7793182 0.824769
vt 0.78028524 0.824769
vt 0.9746599 0.824769
vt 0.7793182 0.21650186
vt 0.78028524 0.21650186
vt 0.9746599 0.21650186
vt 0.9746599 0.19909516
vt 0.78028524 0.19909516
vt 0.7793182 0.19909516
vt 0.78802156 1.5925975
vt 0.9843303 1.5925975
vt 0.9843303 1.5742238
vt 0.78802156 1.5742238
vt 0.76964784 1.5742238
vt 0.76964784 1.5925975
vt 0.76964784 0.91567063
vt 0.78802156 0.91567063
vt 0.9843303 0.91567063
vt 0.76964784 0.27162305
vt 0.78802156 0.27162305
vt 0.9843303 0.27162305
vt 0.76964784 -0.36662227
vt 0.78802156 -0.36662227
vt 0.9843303 -0.36662227
vt 0.9843303 -0.38499603
vt 0.78802156 -0.38499603
vt 0.76964784 -0.38499603
vt 0.6197568 0.51628375
vt 0.6197568 0.5133827
vt 0.61685574 0.5133827
vt 0.61685574 0.51628375
vt 0.6197568 0.6013832
vt 0.61685574 0.6013832
vt 0.53369045 0.6013832
vt 0.53369045 0.51628375
vt 0.53369045 0.5133827
vt 0.5249871 0.6013832
vt 0.5249871 0.51628375
vt 0.5249871 0.5133827
vt 0.5172508 0.6013832
vt 0.5172508 0.51628375
vt 0.5172508 0.5133827
vt 0.5104816 0.6013832
vt 0.5104816 0.5153167
vt 0.5104816 0.5133827
vt 0.5085474 0.5153167
vt 0.5085474 0.6013832
vt 0.5085474 0.5133827
vt 0.5085474 0.6526362
vt 0.5085474 0.7435378
vt 0.5104816 0.7435378
vt 0.5104816 0.6526362
vt 0.5172508 0.7435378
vt 0.5172508 0.6526362
vt 0.5249871 0.7435378
vt 0.5249871 0.6526362
vt 0.53369045 0.7435378
vt 0.53369045 0.6526362
vt 0.61685574 0.7435378
vt 0.61685574 0.6526362
vt 0.6197568 0.7435378
vt 0.6197568 0.6526362
vn 0.011764646 0.003921509 0.9999231
vn 0.7176416 0.02745068 0.6958714
vn 0.6862693 0.003921509 0.727337
vn 0.0039215684 0.035293818 0.99936926
vn -0.15293992 0.7019553 0.6956063
vn 0.49019235 0.62352455 0.60903907
vn -0.15293992 0.670583 0.72589797
vn -0.003921509 0.02745068 0.9996155
vn 0.0039215684 0.003921509 0.9999846
vn -0.02745068 0.7254846 0.68769073
vn 0.17646927 0.035293818 0.98367316
vn 0.2313708 0.003921509 0.9728577
vn 0.36470312 0.7019553 0.6117601
vn 0.63136774 0.02745068 0.7749976
vn 0.6784262 0.003921509 0.73465806
vn 0.5450939 0.5294076 0.6500771
vn 0.69411236 0.019607663 0.7195996
vn 0.6470539 0.003921509 0.7624342
vn -0.7254846 -0.0039215684 0.68822724
vn -0.6941123 0.019607663 0.71959966
vn -0.64705384 0.51372147 0.56339294
vn -0.20784152 0.9764631 -0.05763477
vn 0.62352467 0.7803861 -0.047059014
vn 0.62352467 0.7803861 -0.047059014
vn -0.20784152 0.9764631 -0.05763477
vn -0.22314367 0.97478557 -0
vn -0.15293992 0.7019553 -0.6956063
vn 0.49019235 0.62352455 -0.60903907
vn -0.15293992 0.670583 -0.72589797
vn -0.22314367 0.97478557 -0
vn -0.22314367 0.97478557 -0
vn -0.16078305 0.6941123 -0.7016815
vn -0.22314367 0.97478557 -0
vn -0.22314367 0.97478557 -0
vn -0.16078305 0.6941123 -0.7016815
vn -0.22314367 0.97478557 -0
vn -0.3176446 0.9450908 -0.076846145
vn -0.22352767 0.67842615 -0.6998381
vn -0.30917454 0.9510054 -0
vn -0.7803861 0.62352455 0.04706028
vn -0.7803861 0.62352455 -0.04706028
vn -0.64705384 0.51372147 -0.56339294
vn -0.6941123 0.019607663 0.71959966
vn -0.7254846 -0.0039215684 0.68822724
vn -0.99999225 0.003921509 -0.00034492963
vn -0.9996234 0.027440555 -0
vn -0.7803861 0.62352455 0.04706028
vn -0.64705384 0.51372147 0.56339294
vn -0.7803861 0.62352455 0.04706028
vn -0.9996234 0.027440555 -0
vn -0.99999225 0.003921509 -0.00034492963
vn -0.7803861 0.62352455 0.04706028
vn -0.9996234 0.027440555 -0
vn -0.99999225 0.003921509 -0.00034492963
vn -0.7803861 0.62352455 -0.04706028
vn -0.9996234 0.027440555 -0
vn -0.99999225 0.003921509 -0.00034492963
vn -0.7254846 -0.0039215684 -0.68822724
vn -0.6941123 0.019607663 -0.71959966
vn -0.64705384 0.51372147 -0.56339294
vn -0.6941123 0.019607663 -0.71959966
vn -0.7254846 -0.0039215684 -0.68822724
vn -0.12941074 -0.0039215684 -0.99158335
vn -0.098038435 0.02745068 -0.99480397
vn -0.22352767 0.67842615 -0.6998381
vn -0.64705384 0.51372147 -0.56339294
vn -0.16078305 0.6941123 -0.7016815
vn -0.003921509 0.035293818 -0.99936926
vn -0.003921509 0.003921509 -0.9999846
vn -0.16078305 0.6941123 -0.7016815
vn -0.003921509 0.035293818 -0.99936926
vn -0.003921509 0.003921509 -0.9999846
vn -0.15293992 0.670583 -0.72589797
vn -0.003921509 0.02745068 -0.9996155
vn -0.003921509 0.003921509 -0.9999846
vn -0.15293992 0.7019553 -0.6956063
vn 0.0039215684 0.035293818 -0.99936926
vn 0.011764646 0.003921509 -0.9999231
vn 0.6862693 0.003921509 -0.727337
vn 0.7176416 0.02745068 -0.6958714
vn 0.49019235 0.62352455 -0.60903907
vn 0.7176416 0.02745068 -0.6958714
vn 0.6862693 0.003921509 -0.727337
vn 0.9999924 0.003921509 -0
vn 0.9993777 0.035272125 -0
vn 0.62352467 0.7803861 -0.047059014
vn 0.49019235 0.62352455 -0.60903907
vn 0.62352467 0.7803861 -0.047059014
vn 0.9993777 0.035272125 -0
vn 0.9999924 0.003921509 -0
vn 0.62352467 0.7803861 -0.047059014
vn 0.9993777 0.035272125 -0
vn 0.9999924 0.003921509 -0
vn 0.62352467 0.7803861 0.047059014
vn 0.9993777 0.035272125 -0
vn 0.9999924 0.003921509 -0
vn 0.6862693 0.003921509 0.727337
vn 0.7176416 0.02745068 0.6958714
vn 0.49019235 0.62352455 0.60903907
vn 0.62352467 0.7803861 0.047059014
vn 0.49019235 0.62352455 0.60903907
vn -0.15293992 0.7019553 0.6956063
vn -0.20784152 0.9764631 0.05763477
vn 0.62352467 0.7803861 -0.047059014
vn -0.20784152 0.9764631 -0.05763477
vn -0.22314367 0.97478557 -0
vn -0.22314367 0.97478557 -0
vn -0.15293992 0.670583 0.72589797
vn -0.22314367 0.97478557 -0
vn -0.22314367 0.97478557 -0
vn -0.02745068 0.7254846 0.68769073
vn -0.22314367 0.97478557 -0
vn -0.22314367 0.97478557 -0
vn 0.36470312 0.7019553 0.6117601
vn -0.3176446 0.9450908 -0.076846145
vn -0.37206578 0.9282064 -0
vn 0.5450939 0.5294076 0.6500771
vn -0.7803861 0.62352455 0.04706028
vn -0.7803861 0.62352455 0.04706028
vn -0.64705384 0.51372147 0.56339294
vn -0.7803861 0.62352455 0.04706028
vn -0.7803861 0.62352455 0.04706028
vn -0.3176446 0.9450908 -0.076846145
vn -0.3176446 0.9450908 -0.076846145
vn -0.22314367 0.97478557 -0
vn -0.22314367 0.97478557 -0
vn -0.22314367 0.97478557 -0
vn -0.22314367 0.97478557 -0
vn -0.22314367 0.97478557 -0
vn -0.22314367 0.97478557 -0
vn -0.20784152 0.9764631 -0.05763477
vn -0.20784152 0.9764631 -0.05763477
vn 0.62352467 0.7803861 -0.047059014
vn 0.62352467 0.7803861 -0.047059014
g ENV_S06_IB_TopCorner_FloorHP01_MO_0
f 3/3/3 2/2/2 1/1/1
f 2/2/2 4/4/4 1/1/1
f 4/4/4 2/2/2 5/5/5
f 2/2/2 6/6/6 5/5/5
f 5/5/5 7/7/7 4/4/4
f 4/4/4 8/8/8 1/1/1
f 7/7/7 8/8/8 4/4/4
f 8/8/8 9/9/9 1/1/1
f 7/7/7 10/10/10 8/8/8
f 8/8/8 11/11/11 9/9/9
f 10/10/10 11/11/11 8/8/8
f 11/11/11 12/12/12 9/9/9
f 10/10/10 13/13/13 11/11/11
f 11/11/11 14/14/14 12/12/12
f 13/13/13 14/14/14 11/11/11
f 14/14/14 15/15/15 12/12/12
f 13/13/13 16/16/16 14/14/14
f 14/14/14 17/17/17 15/15/15
f 16/16/16 17/17/17 14/14/14
f 17/17/17 18/18/18 15/15/15
f 19/19/19 18/18/18 17/17/17
f 20/20/20 19/19/19 17/17/17
f 17/17/17 16/16/16 20/20/20
f 16/16/16 21/21/21 20/20/20
f 24/24/24 23/23/23 22/22/22
f 23/23/23 25/25/25 22/22/22
f 22/22/22 25/25/25 26/26/26
f 25/25/25 23/23/23 27/27/27
f 23/23/23 28/28/28 27/27/27
f 25/25/25 27/27/27 29/29/29
f 25/25/25 30/30/30 26/26/26
f 30/30/30 25/25/25 29/29/29
f 26/26/26 30/30/30 31/31/31
f 30/30/30 29/29/29 32/32/32
f 30/30/30 33/33/33 31/31/31
f 33/33/33 30/30/30 32/32/32
f 31/31/31 33/33/33 34/34/34
f 33/33/33 32/32/32 35/35/35
f 33/33/33 36/36/36 34/34/34
f 36/36/36 33/33/33 35/35/35
f 34/34/34 36/36/36 37/37/37
f 36/36/36 35/35/35 38/38/38
f 36/36/36 39/39/39 37/37/37
f 39/39/39 36/36/36 38/38/38
f 37/37/37 39/39/39 40/40/40
f 39/39/39 41/41/41 40/40/40
f 39/39/39 38/38/38 41/41/41
f 38/38/38 42/42/42 41/41/41
f 45/45/45 44/44/44 43/43/43
f 46/46/46 45/45/45 43/43/43
f 46/46/46 43/43/43 47/47/47
f 43/43/43 48/48/48 47/47/47
f 47/47/47 49/49/49 46/46/46
f 46/46/46 50/50/50 45/45/45
f 49/49/49 50/50/50 46/46/46
f 50/50/50 51/51/51 45/45/45
f 49/49/49 52/52/52 50/50/50
f 50/50/50 53/53/53 51/51/51
f 52/52/52 53/53/53 50/50/50
f 53/53/53 54/54/54 51/51/51
f 52/52/52 55/55/55 53/53/53
f 53/53/53 56/56/56 54/54/54
f 55/55/55 56/56/56 53/53/53
f 56/56/56 57/57/57 54/54/54
f 58/58/58 57/57/57 56/56/56
f 59/59/59 58/58/58 56/56/56
f 56/56/56 55/55/55 59/59/59
f 55/55/55 60/60/60 59/59/59
f 63/63/63 62/62/62 61/61/61
f 64/64/64 63/63/63 61/61/61
f 64/64/64 61/61/61 65/65/65
f 61/61/61 66/66/66 65/65/65
f 65/65/65 67/67/67 64/64/64
f 64/64/64 68/68/68 63/63/63
f 67/67/67 68/68/68 64/64/64
f 68/68/68 69/69/69 63/63/63
f 67/67/67 70/70/70 68/68/68
f 68/68/68 71/71/71 69/69/69
f 70/70/70 71/71/71 68/68/68
f 71/71/71 72/72/72 69/69/69
f 70/70/70 73/73/73 71/71/71
f 71/71/71 74/74/74 72/72/72
f 73/73/73 74/74/74 71/71/71
f 74/74/74 75/75/75 72/72/72
f 73/73/73 76/76/76 74/74/74
f 74/74/74 77/77/77 75/75/75
f 76/76/76 77/77/77 74/74/74
f 77/77/77 78/78/78 75/75/75
f 79/79/79 78/78/78 77/77/77
f 80/80/80 79/79/79 77/77/77
f 77/77/77 76/76/76 80/80/80
f 76/76/76 81/81/81 80/80/80
f 84/84/84 83/83/83 82/82/82
f 85/85/85 84/84/84 82/82/82
f 85/85/85 82/82/82 86/86/86
f 82/82/82 87/87/87 86/86/86
f 85/85/85 86/86/86 88/88/88
f 85/85/85 89/89/89 84/84/84
f 89/89/89 85/85/85 88/88/88
f 89/89/89 90/90/90 84/84/84
f 89/89/89 88/88/88 91/91/91
f 89/89/89 92/92/92 90/90/90
f 92/92/92 89/89/89 91/91/91
f 92/92/92 93/93/93 90/90/90
f 92/92/92 91/91/91 94/94/94
f 92/92/92 95/95/95 93/93/93
f 95/95/95 92/92/92 94/94/94
f 95/95/95 96/96/96 93/93/93
f 96/96/96 95/95/95 97/97/97
f 95/95/95 98/98/98 97/97/97
f 95/95/95 94/94/94 98/98/98
f 94/94/94 99/99/99 98/98/98
f 102/102/102 101/101/101 100/100/100
f 103/103/103 102/102/102 100/100/100
f 100/100/100 104/104/104 103/103/103
f 104/104/104 105/105/105 103/103/103
f 105/105/105 106/106/106 103/103/103
f 103/103/103 107/107/107 102/102/102
f 106/106/106 107/107/107 103/103/103
f 107/107/107 108/108/108 102/102/102
f 106/106/106 109/109/109 107/107/107
f 107/107/107 110/110/110 108/108/108
f 109/109/109 110/110/110 107/107/107
f 110/110/110 111/111/111 108/108/108
f 109/109/109 112/112/112 110/110/110
f 110/110/110 113/113/113 111/111/111
f 112/112/112 113/113/113 110/110/110
f 113/113/113 114/114/114 111/111/111
f 112/112/112 115/115/115 113/113/113
f 113/113/113 116/116/116 114/114/114
f 115/115/115 116/116/116 113/113/113
f 116/116/116 117/117/117 114/114/114
f 116/116/116 115/115/115 118/118/118
f 116/116/116 118/118/118 117/117/117
f 115/115/115 119/119/119 118/118/118
f 118/118/118 120/120/120 117/117/117
f 123/123/123 122/122/122 121/121/121
f 124/124/124 123/123/123 121/121/121
f 125/125/125 123/123/123 124/124/124
f 126/126/126 125/125/125 124/124/124
f 127/127/127 125/125/125 126/126/126
f 128/128/128 127/127/127 126/126/126
f 129/129/129 127/127/127 128/128/128
f 130/130/130 129/129/129 128/128/128
f 131/131/131 129/129/129 130/130/130
f 132/132/132 131/131/131 130/130/130
f 133/133/133 131/131/131 132/132/132
f 134/134/134 133/133/133 132/132/132
