g ENV_spinPlat_main_Col
v 0.00012832641 3.665924E-05 0.0010412597
v -0.0002798462 3.665924E-05 0.0010107422
v -0 3.8490296E-05 0
v -0.0006451416 3.665924E-05 0.0008270263
v -0.0009124756 3.665924E-05 0.0005169678
v -0.0010412597 3.665924E-05 0.00012832641
v 0.00012832641 3.665924E-05 0.0010412597
v 0.00012832641 -3.665924E-05 0.0010412597
v -0.0002798462 -3.665924E-05 0.0010107422
v -0.0002798462 3.665924E-05 0.0010107422
v -0.0006451416 -3.665924E-05 0.0008270263
v -0.0006451416 3.665924E-05 0.0008270263
v -0.0009124756 -3.665924E-05 0.0005169678
v -0.0009124756 3.665924E-05 0.0005169678
v -0.0010412597 -3.665924E-05 0.00012832641
v -0.0010412597 3.665924E-05 0.00012832641
v 0.00012832641 -3.665924E-05 0.0010412597
v -0 -3.852844E-05 0
v -0.0002798462 -3.665924E-05 0.0010107422
v -0.0006451416 -3.665924E-05 0.0008270263
v -0.0009124756 -3.665924E-05 0.0005169678
v -0.0010412597 -3.665924E-05 0.00012832641
v 0.0010412597 3.665924E-05 -0.00012832641
v 0.0010107422 3.665924E-05 0.0002798462
v -0 3.8490296E-05 0
v 0.0008270263 3.665924E-05 0.0006451416
v 0.0005169678 3.665924E-05 0.0009124756
v 0.00012832641 3.665924E-05 0.0010412597
v 0.0010412597 3.665924E-05 -0.00012832641
v 0.0010412597 -3.665924E-05 -0.00012832641
v 0.0010107422 -3.665924E-05 0.0002798462
v 0.0010107422 3.665924E-05 0.0002798462
v 0.0008270263 -3.665924E-05 0.0006451416
v 0.0008270263 3.665924E-05 0.0006451416
v 0.0005169678 -3.665924E-05 0.0009124756
v 0.0005169678 3.665924E-05 0.0009124756
v 0.00012832641 -3.665924E-05 0.0010412597
v 0.00012832641 3.665924E-05 0.0010412597
v 0.0010412597 -3.665924E-05 -0.00012832641
v -0 -3.852844E-05 0
v 0.0010107422 -3.665924E-05 0.0002798462
v 0.0008270263 -3.665924E-05 0.0006451416
v 0.0005169678 -3.665924E-05 0.0009124756
v 0.00012832641 -3.665924E-05 0.0010412597
v -0.00012832641 3.665924E-05 -0.0010412597
v 0.0002798462 3.665924E-05 -0.0010107422
v -0 3.8490296E-05 0
v 0.0006451416 3.665924E-05 -0.0008270263
v 0.0009124756 3.665924E-05 -0.0005169678
v 0.0010412597 3.665924E-05 -0.00012832641
v -0.00012832641 3.665924E-05 -0.0010412597
v -0.00012832641 -3.665924E-05 -0.0010412597
v 0.0002798462 -3.665924E-05 -0.0010107422
v 0.0002798462 3.665924E-05 -0.0010107422
v 0.0006451416 -3.665924E-05 -0.0008270263
v 0.0006451416 3.665924E-05 -0.0008270263
v 0.0009124756 -3.665924E-05 -0.0005169678
v 0.0009124756 3.665924E-05 -0.0005169678
v 0.0010412597 -3.665924E-05 -0.00012832641
v 0.0010412597 3.665924E-05 -0.00012832641
v -0.00012832641 -3.665924E-05 -0.0010412597
v -0 -3.852844E-05 0
v 0.0002798462 -3.665924E-05 -0.0010107422
v 0.0006451416 -3.665924E-05 -0.0008270263
v 0.0009124756 -3.665924E-05 -0.0005169678
v 0.0010412597 -3.665924E-05 -0.00012832641
v -0.0010412597 3.665924E-05 0.00012832641
v -0.0010107422 3.665924E-05 -0.0002798462
v -0 3.8490296E-05 0
v -0.0008270263 3.665924E-05 -0.0006451416
v -0.0005169678 3.665924E-05 -0.0009124756
v -0.00012832641 3.665924E-05 -0.0010412597
v -0.0010412597 3.665924E-05 0.00012832641
v -0.0010412597 -3.665924E-05 0.00012832641
v -0.0010107422 -3.665924E-05 -0.0002798462
v -0.0010107422 3.665924E-05 -0.0002798462
v -0.0008270263 -3.665924E-05 -0.0006451416
v -0.0008270263 3.665924E-05 -0.0006451416
v -0.0005169678 -3.665924E-05 -0.0009124756
v -0.0005169678 3.665924E-05 -0.0009124756
v -0.00012832641 -3.665924E-05 -0.0010412597
v -0.00012832641 3.665924E-05 -0.0010412597
v -0.0010412597 -3.665924E-05 0.00012832641
v -0 -3.852844E-05 0
v -0.0010107422 -3.665924E-05 -0.0002798462
v -0.0008270263 -3.665924E-05 -0.0006451416
v -0.0005169678 -3.665924E-05 -0.0009124756
v -0.00012832641 -3.665924E-05 -0.0010412597
vt 0.17062783 0.020365193
vt 0.087224334 0.13860764
vt 0.43672013 0.4145325
vt 0.014612712 0.35835826
vt 0.031638272 0.5891676
vt 0.13279146 0.79292977
vt 0.99001455 0.029180061
vt 0.9485769 0.029180054
vt 0.9485769 0.17458957
vt 0.99001455 0.17458957
vt 0.9485769 0.40884906
vt 0.99001455 0.40884906
vt 0.9485769 0.64310765
vt 0.99001455 0.64310765
vt 0.9485769 0.87320197
vt 0.9900147 0.87320197
vt 0.62592643 0.8416108
vt 0.88628924 0.43100247
vt 0.54252195 0.7233691
vt 0.46990857 0.5036191
vt 0.48693258 0.27280968
vt 0.5880842 0.0690466
vt 0.17062783 0.020365193
vt 0.087224334 0.13860764
vt 0.43672013 0.4145325
vt 0.014612712 0.35835826
vt 0.031638272 0.5891676
vt 0.13279146 0.79292977
vt 0.99001455 0.029180061
vt 0.9485769 0.029180054
vt 0.9485769 0.17458957
vt 0.99001455 0.17458957
vt 0.9485769 0.40884906
vt 0.99001455 0.40884906
vt 0.9485769 0.64310765
vt 0.99001455 0.64310765
vt 0.9485769 0.87320197
vt 0.9900147 0.87320197
vt 0.62592643 0.8416108
vt 0.88628924 0.43100247
vt 0.54252195 0.7233691
vt 0.46990857 0.5036191
vt 0.48693258 0.27280968
vt 0.5880842 0.0690466
vt 0.17062783 0.020365193
vt 0.087224334 0.13860764
vt 0.43672013 0.4145325
vt 0.014612712 0.35835826
vt 0.031638272 0.5891676
vt 0.13279146 0.79292977
vt 0.99001455 0.029180061
vt 0.9485769 0.029180054
vt 0.9485769 0.17458957
vt 0.99001455 0.17458957
vt 0.9485769 0.40884906
vt 0.99001455 0.40884906
vt 0.9485769 0.64310765
vt 0.99001455 0.64310765
vt 0.9485769 0.87320197
vt 0.9900147 0.87320197
vt 0.62592643 0.8416108
vt 0.88628924 0.43100247
vt 0.54252195 0.7233691
vt 0.46990857 0.5036191
vt 0.48693258 0.27280968
vt 0.5880842 0.0690466
vt 0.17062783 0.020365193
vt 0.087224334 0.13860764
vt 0.43672013 0.4145325
vt 0.014612712 0.35835826
vt 0.031638272 0.5891676
vt 0.13279146 0.79292977
vt 0.99001455 0.029180061
vt 0.9485769 0.029180054
vt 0.9485769 0.17458957
vt 0.99001455 0.17458957
vt 0.9485769 0.40884906
vt 0.99001455 0.40884906
vt 0.9485769 0.64310765
vt 0.99001455 0.64310765
vt 0.9485769 0.87320197
vt 0.9900147 0.87320197
vt 0.62592643 0.8416108
vt 0.88628924 0.43100247
vt 0.54252195 0.7233691
vt 0.46990857 0.5036191
vt 0.48693258 0.27280968
vt 0.5880842 0.0690466
vn 0.00021433007 0.99999845 0.0017377343
vn -0.0004665393 0.99999845 0.0016872118
vn -0 1 0
vn -0.0010770232 0.99999845 0.0013800116
vn -0.0015233075 0.99999845 0.0008625288
vn -0.0017377314 0.99999845 0.00021432963
vn 0.12241136 0 0.99247944
vn 0.12241136 0 0.99247944
vn -0.26648057 0 0.96384037
vn -0.26648057 0 0.96384037
vn -0.61525154 0 0.78833085
vn -0.61525154 0 0.78833085
vn -0.8702064 0 0.49268734
vn -0.8702064 0 0.49268734
vn -0.99247944 0 0.12241157
vn -0.99247944 0 0.12241157
vn 0.00021754595 -0.99999845 0.0017638085
vn -0 -1 0
vn -0.00047353978 -0.99999845 0.0017125332
vn -0.0010931838 -0.99999845 0.0014007187
vn -0.0015461644 -0.99999845 0.0008754742
vn -0.0017638056 -0.99999845 0.00021755612
vn 0.0017377314 0.99999845 -0.00021432963
vn 0.0016872117 0.99999845 0.00046654567
vn -0 1 0
vn 0.0013800112 0.99999845 0.0010770204
vn 0.0008625218 0.99999845 0.0015233086
vn 0.00021433007 0.99999845 0.0017377343
vn 0.99247944 0 -0.12241157
vn 0.99247944 0 -0.12241157
vn 0.96384037 0 0.26648045
vn 0.96384037 0 0.26648045
vn 0.78833085 0 0.6152515
vn 0.78833085 0 0.6152515
vn 0.49268734 0 0.8702064
vn 0.49268734 0 0.8702064
vn 0.12241136 0 0.99247944
vn 0.12241136 0 0.99247944
vn 0.0017638056 -0.99999845 -0.00021755612
vn -0 -1 0
vn 0.0017125279 -0.99999845 0.0004735415
vn 0.001400718 -0.99999845 0.0010931868
vn 0.00087546394 -0.99999845 0.001546166
vn 0.00021754595 -0.99999845 0.0017638085
vn -0.00021433007 0.99999845 -0.0017377343
vn 0.0004665393 0.99999845 -0.0016872118
vn -0 1 0
vn 0.0010770232 0.99999845 -0.0013800116
vn 0.0015233075 0.99999845 -0.0008625288
vn 0.0017377314 0.99999845 -0.00021432963
vn -0.12241136 0 -0.99247944
vn -0.12241136 0 -0.99247944
vn 0.26648057 0 -0.96384037
vn 0.26648057 0 -0.96384037
vn 0.61525154 0 -0.78833085
vn 0.61525154 0 -0.78833085
vn 0.8702064 0 -0.49268734
vn 0.8702064 0 -0.49268734
vn 0.99247944 0 -0.12241157
vn 0.99247944 0 -0.12241157
vn -0.00021754595 -0.99999845 -0.0017638085
vn -0 -1 0
vn 0.00047353978 -0.99999845 -0.0017125332
vn 0.0010931838 -0.99999845 -0.0014007187
vn 0.0015461644 -0.99999845 -0.0008754742
vn 0.0017638056 -0.99999845 -0.00021755612
vn -0.0017377314 0.99999845 0.00021432963
vn -0.0016872117 0.99999845 -0.00046654567
vn -0 1 0
vn -0.0013800112 0.99999845 -0.0010770204
vn -0.0008625218 0.99999845 -0.0015233086
vn -0.00021433007 0.99999845 -0.0017377343
vn -0.99247944 0 0.12241157
vn -0.99247944 0 0.12241157
vn -0.96384037 0 -0.26648045
vn -0.96384037 0 -0.26648045
vn -0.78833085 0 -0.6152515
vn -0.78833085 0 -0.6152515
vn -0.49268734 0 -0.8702064
vn -0.49268734 0 -0.8702064
vn -0.12241136 0 -0.99247944
vn -0.12241136 0 -0.99247944
vn -0.0017638056 -0.99999845 0.00021755612
vn -0 -1 0
vn -0.0017125279 -0.99999845 -0.0004735415
vn -0.001400718 -0.99999845 -0.0010931868
vn -0.00087546394 -0.99999845 -0.001546166
vn -0.00021754595 -0.99999845 -0.0017638085
g ENV_spinPlat_main_Col_0
f 3/3/3 2/2/2 1/1/1
f 3/3/3 4/4/4 2/2/2
f 3/3/3 5/5/5 4/4/4
f 3/3/3 6/6/6 5/5/5
f 9/9/9 8/8/8 7/7/7
f 10/10/10 9/9/9 7/7/7
f 11/11/11 9/9/9 10/10/10
f 12/12/12 11/11/11 10/10/10
f 13/13/13 11/11/11 12/12/12
f 14/14/14 13/13/13 12/12/12
f 15/15/15 13/13/13 14/14/14
f 16/16/16 15/15/15 14/14/14
f 19/19/19 18/18/18 17/17/17
f 20/20/20 18/18/18 19/19/19
f 21/21/21 18/18/18 20/20/20
f 22/22/22 18/18/18 21/21/21
f 25/25/25 24/24/24 23/23/23
f 25/25/25 26/26/26 24/24/24
f 25/25/25 27/27/27 26/26/26
f 25/25/25 28/28/28 27/27/27
f 31/31/31 30/30/30 29/29/29
f 32/32/32 31/31/31 29/29/29
f 33/33/33 31/31/31 32/32/32
f 34/34/34 33/33/33 32/32/32
f 35/35/35 33/33/33 34/34/34
f 36/36/36 35/35/35 34/34/34
f 37/37/37 35/35/35 36/36/36
f 38/38/38 37/37/37 36/36/36
f 41/41/41 40/40/40 39/39/39
f 42/42/42 40/40/40 41/41/41
f 43/43/43 40/40/40 42/42/42
f 44/44/44 40/40/40 43/43/43
f 47/47/47 46/46/46 45/45/45
f 47/47/47 48/48/48 46/46/46
f 47/47/47 49/49/49 48/48/48
f 47/47/47 50/50/50 49/49/49
f 53/53/53 52/52/52 51/51/51
f 54/54/54 53/53/53 51/51/51
f 55/55/55 53/53/53 54/54/54
f 56/56/56 55/55/55 54/54/54
f 57/57/57 55/55/55 56/56/56
f 58/58/58 57/57/57 56/56/56
f 59/59/59 57/57/57 58/58/58
f 60/60/60 59/59/59 58/58/58
f 63/63/63 62/62/62 61/61/61
f 64/64/64 62/62/62 63/63/63
f 65/65/65 62/62/62 64/64/64
f 66/66/66 62/62/62 65/65/65
f 69/69/69 68/68/68 67/67/67
f 69/69/69 70/70/70 68/68/68
f 69/69/69 71/71/71 70/70/70
f 69/69/69 72/72/72 71/71/71
f 75/75/75 74/74/74 73/73/73
f 76/76/76 75/75/75 73/73/73
f 77/77/77 75/75/75 76/76/76
f 78/78/78 77/77/77 76/76/76
f 79/79/79 77/77/77 78/78/78
f 80/80/80 79/79/79 78/78/78
f 81/81/81 79/79/79 80/80/80
f 82/82/82 81/81/81 80/80/80
f 85/85/85 84/84/84 83/83/83
f 86/86/86 84/84/84 85/85/85
f 87/87/87 84/84/84 86/86/86
f 88/88/88 84/84/84 87/87/87
