g ENV_S04_Block_Mid_Big_B
v -15.907177 15.303467 -17.84201
v -15.751232 15.548965 -17.46527
v -17.465092 15.548965 -15.751408
v -17.841835 15.303467 -15.907353
v -15.907177 0.00068473816 -17.84201
v -17.841835 0.00068473816 -15.907353
v -17.841835 15.303467 15.907177
v -17.465092 15.548965 15.751232
v -17.841835 0.00068473816 15.907177
v -15.751232 15.548965 17.465092
v -15.907177 15.303467 17.841835
v -15.907177 0.00068473816 17.841835
v 15.907353 15.303467 17.841835
v 15.751408 15.548965 17.465092
v 15.907353 0.00068473816 17.841835
v 17.46527 15.548965 15.751232
v 17.84201 15.303467 15.907177
v 17.84201 0.00068473816 15.907177
v 17.84201 15.303467 -15.907353
v 17.46527 15.548965 -15.751408
v 17.84201 0.00068473816 -15.907353
v 15.751408 15.548965 -17.46527
v 15.907353 15.303467 -17.84201
v -15.751232 15.548965 -17.46527
v 15.907353 0.00068473816 -17.84201
v -15.907177 15.303467 -17.84201
v -15.907177 0.00068473816 -17.84201
v -15.751232 19.671497 -17.46527
v -15.751232 15.548965 -17.46527
v 15.751408 15.548965 -17.46527
v 15.751408 19.671497 -17.46527
v 17.46527 15.548965 -15.751408
v 17.46527 19.671497 -15.751408
v 17.46527 15.548965 15.751232
v 17.46527 19.671497 15.751232
v 15.751408 15.548965 17.465092
v 15.751408 19.671497 17.465092
v -15.751232 15.548965 17.465092
v -15.751232 19.671497 17.465092
v -17.465092 15.548965 15.751232
v -17.465092 19.671497 15.751232
v -17.465092 15.548965 -15.751408
v -17.465092 19.671497 -15.751408
v -15.751232 15.548965 -17.46527
v -15.751232 19.671497 -17.46527
v -15.708 80.75293 -17.360277
v -15.708 80.081276 -17.360277
v 15.708175 80.081276 -17.360277
v 15.708175 80.75293 -17.360277
v 17.360277 80.081276 -15.708175
v 17.360277 80.75293 -15.708175
v 17.360277 80.081276 15.708
v 17.360277 80.75293 15.708
v 15.708175 80.081276 17.3601
v 15.708175 80.75293 17.3601
v -15.708 80.081276 17.3601
v -15.708 80.75293 17.3601
v -17.3601 80.081276 15.708
v -17.3601 80.75293 15.708
v -17.3601 80.081276 -15.708175
v -17.3601 80.75293 -15.708175
v -15.708 80.081276 -17.360277
v -15.708 80.75293 -17.360277
v -15.751232 80.96137 -17.46527
v -15.708 80.75293 -17.360277
v 15.708175 80.75293 -17.360277
v 15.751408 80.96137 -17.46527
v 17.360277 80.75293 -15.708175
v 15.751408 81.88315 -17.46527
v -15.751232 81.88315 -17.46527
v 17.46527 80.96137 -15.751408
v 17.46527 81.88315 -15.751408
v 17.360277 80.75293 15.708
v 17.46527 81.88315 15.751232
v 17.46527 80.96137 15.751232
v 15.708175 80.75293 17.3601
v 15.751408 80.96137 17.465092
v 15.751408 81.88315 17.465092
v -15.708 80.75293 17.3601
v -15.751232 81.88315 17.465092
v -15.751232 80.96137 17.465092
v -17.3601 80.75293 15.708
v -17.465092 80.96137 15.751232
v -17.465092 81.88315 15.751232
v -17.3601 80.75293 -15.708175
v -17.465092 81.88315 -15.751408
v -17.465092 80.96137 -15.751408
v -15.708 80.75293 -17.360277
v -15.751232 80.96137 -17.46527
v -15.751232 81.88315 -17.46527
v -17.3601 80.081276 -15.708175
v -15.751232 79.86974 -17.46527
v -15.708 80.081276 -17.360277
v -17.465092 79.86974 -15.751408
v -17.3601 80.081276 15.708
v -15.751232 27.919651 -17.46527
v -17.465092 79.86974 15.751232
v -15.708 80.081276 17.3601
v -17.465092 27.919651 -15.751408
v -15.5412445 27.549088 -16.958832
v -16.958656 27.549088 -15.541421
v -17.465092 27.919651 15.751232
v -16.958656 27.549088 15.5412445
v -15.751232 79.86974 17.465092
v 15.708175 80.081276 17.3601
v -15.751232 27.919651 17.465092
v -15.5412445 27.549088 16.958656
v 15.751408 79.86974 17.465092
v 17.360277 80.081276 15.708
v 15.751408 27.919651 17.465092
v 15.541421 27.549088 16.958656
v 17.46527 79.86974 15.751232
v 17.360277 80.081276 -15.708175
v 17.46527 27.919651 15.751232
v 16.958832 27.549088 15.5412445
v 17.46527 79.86974 -15.751408
v 15.708175 80.081276 -17.360277
v 17.46527 27.919651 -15.751408
v 16.958832 27.549088 -15.541421
v 15.751408 79.86974 -17.46527
v -15.708 80.081276 -17.360277
v -15.751232 79.86974 -17.46527
v 15.751408 27.919651 -17.46527
v 15.541421 27.549088 -16.958832
v -15.751232 27.919651 -17.46527
v -15.5412445 27.549088 -16.958832
v -15.5412445 19.960228 -16.958832
v -15.751232 19.671497 -17.46527
v 15.751408 19.671497 -17.46527
v 15.541421 19.960228 -16.958832
v 17.46527 19.671497 -15.751408
v 16.958832 19.960228 -15.541421
v 17.46527 19.671497 15.751232
v 16.958832 19.960228 15.5412445
v 15.751408 19.671497 17.465092
v 15.541421 19.960228 16.958656
v -15.751232 19.671497 17.465092
v -15.5412445 19.960228 16.958656
v -17.465092 19.671497 15.751232
v -16.958656 19.960228 15.5412445
v -17.465092 19.671497 -15.751408
v -16.958656 19.960228 -15.541421
v -15.751232 19.671497 -17.46527
v -15.5412445 19.960228 -16.958832
v -15.5412445 27.549088 -16.958832
v -15.5412445 19.960228 -16.958832
v 15.541421 19.960228 -16.958832
v 15.541421 27.549088 -16.958832
v 16.958832 19.960228 -15.541421
v 16.958832 27.549088 -15.541421
v 16.958832 19.960228 15.5412445
v 16.958832 27.549088 15.5412445
v 15.541421 19.960228 16.958656
v 15.541421 27.549088 16.958656
v -15.5412445 19.960228 16.958656
v -15.5412445 27.549088 16.958656
v -16.958656 19.960228 15.5412445
v -16.958656 27.549088 15.5412445
v -16.958656 19.960228 -15.541421
v -16.958656 27.549088 -15.541421
v -15.5412445 19.960228 -16.958832
v -15.5412445 27.549088 -16.958832
v -17.465092 81.88315 15.751232
v -16.131062 83.34534 16.131062
v -15.751232 81.88315 17.465092
v -17.465092 81.88315 -15.751408
v 16.131237 83.34534 16.131062
v 15.751408 81.88315 17.465092
v 17.46527 81.88315 15.751232
v 16.131237 83.34534 -16.131237
v 17.46527 81.88315 -15.751408
v 15.751408 81.88315 -17.46527
v -16.131062 83.34534 -16.131237
v -15.751232 81.88315 -17.46527
vt 0.26261297 0.2100044
vt 0.26261297 0.21351163
vt 0.2643666 0.21351163
vt 0.2643666 0.2100044
vt 0.26261297 0.1740552
vt 0.2643666 0.1740552
vt 0.28716365 0.2100044
vt 0.28716365 0.21351163
vt 0.28716365 0.1740552
vt 0.28891724 0.21351163
vt 0.28891724 0.2100044
vt 0.28891724 0.1740552
vt 0.3117143 0.2100044
vt 0.3117143 0.21351163
vt 0.3117143 0.1740552
vt 0.31346792 0.21351163
vt 0.31346792 0.2100044
vt 0.31346792 0.1740552
vt 0.33714178 0.2100044
vt 0.33714178 0.21351163
vt 0.33714178 0.1740552
vt 0.3388954 0.21351163
vt 0.3388954 0.2100044
vt 0.36169246 0.21351163
vt 0.3388954 0.1740552
vt 0.36169246 0.2100044
vt 0.36169246 0.1740552
vt 0.35467798 0.3117143
vt 0.3555548 0.30733025
vt 0.33714178 0.30733025
vt 0.33626497 0.3117143
vt 0.33538815 0.30733025
vt 0.33451134 0.3117143
vt 0.31697518 0.30733025
vt 0.31609836 0.3117143
vt 0.31522155 0.30733025
vt 0.31434473 0.3117143
vt 0.29680854 0.30733025
vt 0.29593173 0.3117143
vt 0.2950549 0.30733025
vt 0.29417813 0.3117143
vt 0.2766419 0.30733025
vt 0.2748883 0.3117143
vt 0.2748883 0.30733025
vt 0.2740115 0.3117143
vt 0.690496 0.39150396
vt 0.690496 0.38098225
vt 0.6799743 0.38098225
vt 0.6799743 0.39150396
vt 0.67909753 0.38098225
vt 0.67909753 0.39150396
vt 0.66857576 0.38098225
vt 0.66857576 0.39150396
vt 0.667699 0.38098225
vt 0.667699 0.39150396
vt 0.65717727 0.38098225
vt 0.65717727 0.39150396
vt 0.6563005 0.38098225
vt 0.6563005 0.39150396
vt 0.6457787 0.38098225
vt 0.6457787 0.39150396
vt 0.64490193 0.38098225
vt 0.64490193 0.39150396
vt 0.35204753 0.34590986
vt 0.35204753 0.34590986
vt 0.33188093 0.34590986
vt 0.33188093 0.34590986
vt 0.3301273 0.34590986
vt 0.33188093 0.34678668
vt 0.35204753 0.34678668
vt 0.3301273 0.34590986
vt 0.3301273 0.34678668
vt 0.3099607 0.34590986
vt 0.3099607 0.34678668
vt 0.3099607 0.34590986
vt 0.30820706 0.34590986
vt 0.30820706 0.34590986
vt 0.30820706 0.34678668
vt 0.28804046 0.34590986
vt 0.28804046 0.34678668
vt 0.28804046 0.34590986
vt 0.28628683 0.34590986
vt 0.28628683 0.34590986
vt 0.28628683 0.34678668
vt 0.2661202 0.34590986
vt 0.2661202 0.34678668
vt 0.2661202 0.34590986
vt 0.2652434 0.34590986
vt 0.2643666 0.34590986
vt 0.2643666 0.34678668
vt 0.26699704 0.34503308
vt 0.2652434 0.34503308
vt 0.2652434 0.34503308
vt 0.26699704 0.34503308
vt 0.28716365 0.34503308
vt 0.27138108 0.3204824
vt 0.28716365 0.34503308
vt 0.28804046 0.34503308
vt 0.27313468 0.3204824
vt 0.27138108 0.3196056
vt 0.27313468 0.3196056
vt 0.2924245 0.3204824
vt 0.2924245 0.3196056
vt 0.28804046 0.34503308
vt 0.30820706 0.34503308
vt 0.29417813 0.3204824
vt 0.29417813 0.3196056
vt 0.30820706 0.34503308
vt 0.3099607 0.34503308
vt 0.3125911 0.3196056
vt 0.3125911 0.3196056
vt 0.3099607 0.34503308
vt 0.3301273 0.34503308
vt 0.31434473 0.3196056
vt 0.31434473 0.3196056
vt 0.3301273 0.34503308
vt 0.33188093 0.34503308
vt 0.33363456 0.3196056
vt 0.33363456 0.3196056
vt 0.33188093 0.34503308
vt 0.35204753 0.34503308
vt 0.35204753 0.34503308
vt 0.33538815 0.3196056
vt 0.33538815 0.3196056
vt 0.35380116 0.3196056
vt 0.35380116 0.3196056
vt 0.35467798 0.31785196
vt 0.35467798 0.31785196
vt 0.33538815 0.31785196
vt 0.33538815 0.31785196
vt 0.33363456 0.31785196
vt 0.33363456 0.31785196
vt 0.31434473 0.31785196
vt 0.31434473 0.31785196
vt 0.31346792 0.31785196
vt 0.31346792 0.31785196
vt 0.29417813 0.31785196
vt 0.29417813 0.31872877
vt 0.2924245 0.31785196
vt 0.2924245 0.31872877
vt 0.2740115 0.31785196
vt 0.2740115 0.31872877
vt 0.27225786 0.31785196
vt 0.27225786 0.31872877
vt 0.51075006 0.19334501
vt 0.51075006 0.20386674
vt 0.5282862 0.20386674
vt 0.5282862 0.19334501
vt 0.5607282 0.20386674
vt 0.5607282 0.19334501
vt 0.56423545 0.20386674
vt 0.56423545 0.19334501
vt 0.58264846 0.20386674
vt 0.58264846 0.19334501
vt 0.5896629 0.20386674
vt 0.5896629 0.19334501
vt 0.6036919 0.20386674
vt 0.6036919 0.19334501
vt 0.6159672 0.20386674
vt 0.6159672 0.19334501
vt 0.63613385 0.20386674
vt 0.63613385 0.19334501
vt 0.2652434 0.2766419
vt 0.26962745 0.2766419
vt 0.26962745 0.27138108
vt 0.2652434 0.3485403
vt 0.34240264 0.2766419
vt 0.34240264 0.27138108
vt 0.34678668 0.2766419
vt 0.34240264 0.3485403
vt 0.34678668 0.3485403
vt 0.34240264 0.35380116
vt 0.26962745 0.3485403
vt 0.26962745 0.35380116
vn -0.058767617 0.019589245 -0.9980795
vn -0.027424872 0.842336 -0.5382545
vn -0.5367443 0.842336 -0.048740767
vn -0.9990497 0.019589245 -0.03893483
vn -0.058767617 0.003917873 -0.998264
vn -0.9990497 0.003917873 -0.04340864
vn -0.9990497 0.019589245 0.03893483
vn -0.5367443 0.842336 0.048740767
vn -0.9990497 0.003917873 0.04340864
vn -0.027424872 0.842336 0.5382545
vn -0.058767617 0.019589245 0.9980795
vn -0.058767617 0.003917873 0.998264
vn 0.058767617 0.019589245 0.9980795
vn 0.027424932 0.842336 0.5382545
vn 0.058767617 0.003917873 0.998264
vn 0.53674436 0.842336 0.048739545
vn 0.9990497 0.019589245 0.03893483
vn 0.9990497 0.003917873 0.04340864
vn 0.9990497 0.019589245 -0.03893483
vn 0.53674436 0.842336 -0.048739545
vn 0.9990497 0.003917873 -0.04340864
vn 0.027424932 0.842336 -0.5382545
vn 0.058767617 0.019589245 -0.9980795
vn -0.027424872 0.842336 -0.5382545
vn 0.058767617 0.003917873 -0.998264
vn -0.058767617 0.019589245 -0.9980795
vn -0.058767617 0.003917873 -0.998264
vn -0.05093199 0.003917873 -0.9986944
vn -0.05093199 0.003917873 -0.9986944
vn 0.05093193 0.003917873 -0.9986944
vn 0.05093193 0.003917873 -0.9986944
vn 0.9990497 0.003917873 -0.04340864
vn 0.9990497 0.003917873 -0.04340864
vn 0.9990497 0.003917873 0.04340864
vn 0.9990497 0.003917873 0.04340864
vn 0.05093193 0.003917873 0.9986944
vn 0.05093193 0.003917873 0.9986944
vn -0.05093199 0.003917873 0.9986944
vn -0.05093199 0.003917873 0.9986944
vn -0.9990497 0.003917873 0.04340864
vn -0.9990497 0.003917873 0.04340864
vn -0.9990497 0.003917873 -0.04340864
vn -0.9990497 0.003917873 -0.04340864
vn -0.05093199 0.003917873 -0.9986944
vn -0.05093199 0.003917873 -0.9986944
vn -0.05093199 0.003917873 -0.9986944
vn -0.05093199 0.003917873 -0.9986944
vn 0.05093193 0.003917873 -0.9986944
vn 0.05093193 0.003917873 -0.9986944
vn 0.9990497 0.003917873 -0.04340864
vn 0.9990497 0.003917873 -0.04340864
vn 0.9990497 0.003917873 0.04340864
vn 0.9990497 0.003917873 0.04340864
vn 0.05093193 0.003917873 0.9986944
vn 0.05093193 0.003917873 0.9986944
vn -0.05093199 0.003917873 0.9986944
vn -0.05093199 0.003917873 0.9986944
vn -0.9990497 0.003917873 0.04340864
vn -0.9990497 0.003917873 0.04340864
vn -0.9990497 0.003917873 -0.04340864
vn -0.9990497 0.003917873 -0.04340864
vn -0.05093199 0.003917873 -0.9986944
vn -0.05093199 0.003917873 -0.9986944
vn -0.05093199 -0.082274675 -0.9953074
vn -0.043096244 -0.45838755 -0.88770694
vn 0.043096244 -0.45838755 -0.88770694
vn 0.05093193 -0.082274675 -0.9953074
vn 0.8888779 -0.45814413 -0
vn 0.027424932 0.49756593 -0.8669925
vn -0.027424872 0.49756593 -0.8669925
vn 0.99121404 -0.082274675 -0.103564546
vn 0.86584306 0.49756593 -0.052382533
vn 0.8888779 -0.45814413 -0
vn 0.86584306 0.49756593 0.052382533
vn 0.99121404 -0.082274675 0.103564546
vn 0.043096244 -0.45838755 0.88770694
vn 0.05093193 -0.082274675 0.9953074
vn 0.027424932 0.49756593 0.8669925
vn -0.043096244 -0.45838755 0.88770694
vn -0.027424872 0.49756593 0.8669925
vn -0.05093199 -0.082274675 0.9953074
vn -0.888878 -0.4581442 -0
vn -0.991214 -0.082274675 0.10356513
vn -0.8658431 0.49756593 0.052381963
vn -0.888878 -0.4581442 -0
vn -0.8658431 0.49756593 -0.052381963
vn -0.991214 -0.082274675 -0.10356513
vn -0.043096244 -0.45838755 -0.88770694
vn -0.05093199 -0.082274675 -0.9953074
vn -0.027424872 0.49756593 -0.8669925
vn -0.8893501 0.4505518 -0.07784249
vn -0.05093199 0.003917873 -0.9986944
vn -0.043096244 0.4505518 -0.8917095
vn -0.9990497 0.003917873 -0.04340864
vn -0.8893501 0.4505518 0.07784249
vn -0.05093199 -0.003917873 -0.9986944
vn -0.9990497 0.003917873 0.04340864
vn -0.043096244 0.4505518 0.8917095
vn -0.9990497 -0.003917873 -0.04340864
vn -0.027424872 -0.8109933 -0.5844123
vn -0.5837584 -0.8109933 -0.038935646
vn -0.9990497 -0.003917873 0.04340864
vn -0.5837584 -0.8109933 0.038935646
vn -0.05093199 0.003917873 0.9986944
vn 0.043096244 0.4505518 0.8917095
vn -0.05093199 -0.003917873 0.9986944
vn -0.027424872 -0.8109933 0.5844123
vn 0.05093193 0.003917873 0.9986944
vn 0.8893502 0.4505518 0.07784172
vn 0.05093193 -0.003917873 0.9986944
vn 0.027424932 -0.8109933 0.5844123
vn 0.9990497 0.003917873 0.04340864
vn 0.8893502 0.4505518 -0.07784172
vn 0.9990497 -0.003917873 0.04340864
vn 0.5837585 -0.8109933 0.03893488
vn 0.9990497 0.003917873 -0.04340864
vn 0.043096244 0.4505518 -0.8917095
vn 0.9990497 -0.003917873 -0.04340864
vn 0.5837585 -0.8109933 -0.03893488
vn 0.05093193 0.003917873 -0.9986944
vn -0.043096244 0.4505518 -0.8917095
vn -0.05093199 0.003917873 -0.9986944
vn 0.05093193 -0.003917873 -0.9986944
vn 0.027424932 -0.8109933 -0.5844123
vn -0.05093199 -0.003917873 -0.9986944
vn -0.027424872 -0.8109933 -0.5844123
vn -0.019589245 0.87367874 -0.48610875
vn -0.019589245 0.87367874 -0.48610875
vn 0.019589245 0.87367874 -0.48610875
vn 0.019589245 0.87367874 -0.48610875
vn 0.48896065 0.87230575 -0
vn 0.48896065 0.87230575 -0
vn 0.48896065 0.87230575 -0
vn 0.48896065 0.87230575 -0
vn 0.019589245 0.87367874 0.48610875
vn 0.019589245 0.87367874 0.48610875
vn -0.019589245 0.87367874 0.48610875
vn -0.019589245 0.87367874 0.48610875
vn -0.4889607 0.87230575 -0
vn -0.4889607 0.87230575 -0
vn -0.4889607 0.87230575 -0
vn -0.4889607 0.87230575 -0
vn -0.019589245 0.87367874 -0.48610875
vn -0.019589245 0.87367874 -0.48610875
vn -0.043096244 0.003917873 -0.99906325
vn -0.043096244 0.003917873 -0.99906325
vn 0.043096244 0.003917873 -0.99906325
vn 0.043096244 0.003917873 -0.99906325
vn 0.9990497 0.003917873 -0.04340864
vn 0.9990497 0.003917873 -0.04340864
vn 0.9990497 0.003917873 0.04340864
vn 0.9990497 0.003917873 0.04340864
vn 0.043096244 0.003917873 0.99906325
vn 0.043096244 0.003917873 0.99906325
vn -0.043096244 0.003917873 0.99906325
vn -0.043096244 0.003917873 0.99906325
vn -0.9990497 0.003917873 0.04340864
vn -0.9990497 0.003917873 0.04340864
vn -0.9990497 0.003917873 -0.04340864
vn -0.9990497 0.003917873 -0.04340864
vn -0.043096244 0.003917873 -0.99906325
vn -0.043096244 0.003917873 -0.99906325
vn -0.8658431 0.49756593 0.052381963
vn -0.035260618 0.9990497 0.025619648
vn -0.027424872 0.49756593 0.8669925
vn -0.8658431 0.49756593 -0.052381963
vn 0.035260618 0.9990497 0.025619648
vn 0.027424932 0.49756593 0.8669925
vn 0.86584306 0.49756593 0.052382533
vn 0.035260618 0.9990497 -0.025619648
vn 0.86584306 0.49756593 -0.052382533
vn 0.027424932 0.49756593 -0.8669925
vn -0.035260618 0.9990497 -0.025619648
vn -0.027424872 0.49756593 -0.8669925
g ENV_S04_Block_Mid_Big_B_0
f 3/3/3 2/2/2 1/1/1
f 4/4/4 3/3/3 1/1/1
f 4/4/4 1/1/1 5/5/5
f 6/6/6 4/4/4 5/5/5
f 4/4/4 7/7/7 3/3/3
f 4/4/4 6/6/6 7/7/7
f 7/7/7 8/8/8 3/3/3
f 6/6/6 9/9/9 7/7/7
f 10/10/10 8/8/8 7/7/7
f 11/11/11 7/7/7 9/9/9
f 11/11/11 10/10/10 7/7/7
f 12/12/12 11/11/11 9/9/9
f 11/11/11 13/13/13 10/10/10
f 11/11/11 12/12/12 13/13/13
f 13/13/13 14/14/14 10/10/10
f 12/12/12 15/15/15 13/13/13
f 16/16/16 14/14/14 13/13/13
f 17/17/17 13/13/13 15/15/15
f 17/17/17 16/16/16 13/13/13
f 18/18/18 17/17/17 15/15/15
f 17/17/17 19/19/19 16/16/16
f 17/17/17 18/18/18 19/19/19
f 19/19/19 20/20/20 16/16/16
f 18/18/18 21/21/21 19/19/19
f 22/22/22 20/20/20 19/19/19
f 23/23/23 19/19/19 21/21/21
f 23/23/23 22/22/22 19/19/19
f 22/22/22 23/23/23 24/24/24
f 25/25/25 23/23/23 21/21/21
f 23/23/23 26/26/26 24/24/24
f 23/23/23 25/25/25 26/26/26
f 25/25/25 27/27/27 26/26/26
f 30/30/30 29/29/29 28/28/28
f 31/31/31 30/30/30 28/28/28
f 32/32/32 30/30/30 31/31/31
f 33/33/33 32/32/32 31/31/31
f 34/34/34 32/32/32 33/33/33
f 35/35/35 34/34/34 33/33/33
f 34/34/34 35/35/35 36/36/36
f 35/35/35 37/37/37 36/36/36
f 38/38/38 36/36/36 37/37/37
f 39/39/39 38/38/38 37/37/37
f 38/38/38 39/39/39 40/40/40
f 39/39/39 41/41/41 40/40/40
f 42/42/42 40/40/40 41/41/41
f 43/43/43 42/42/42 41/41/41
f 44/44/44 42/42/42 43/43/43
f 45/45/45 44/44/44 43/43/43
f 48/48/48 47/47/47 46/46/46
f 49/49/49 48/48/48 46/46/46
f 50/50/50 48/48/48 49/49/49
f 51/51/51 50/50/50 49/49/49
f 52/52/52 50/50/50 51/51/51
f 53/53/53 52/52/52 51/51/51
f 52/52/52 53/53/53 54/54/54
f 53/53/53 55/55/55 54/54/54
f 56/56/56 54/54/54 55/55/55
f 57/57/57 56/56/56 55/55/55
f 56/56/56 57/57/57 58/58/58
f 57/57/57 59/59/59 58/58/58
f 60/60/60 58/58/58 59/59/59
f 61/61/61 60/60/60 59/59/59
f 62/62/62 60/60/60 61/61/61
f 63/63/63 62/62/62 61/61/61
f 66/66/66 65/65/65 64/64/64
f 67/67/67 66/66/66 64/64/64
f 68/68/68 66/66/66 67/67/67
f 67/67/67 64/64/64 69/69/69
f 64/64/64 70/70/70 69/69/69
f 71/71/71 68/68/68 67/67/67
f 71/71/71 67/67/67 69/69/69
f 72/72/72 71/71/71 69/69/69
f 73/73/73 68/68/68 71/71/71
f 71/71/71 72/72/72 74/74/74
f 75/75/75 73/73/73 71/71/71
f 75/75/75 71/71/71 74/74/74
f 73/73/73 75/75/75 76/76/76
f 75/75/75 74/74/74 77/77/77
f 75/75/75 77/77/77 76/76/76
f 74/74/74 78/78/78 77/77/77
f 79/79/79 76/76/76 77/77/77
f 77/77/77 78/78/78 80/80/80
f 81/81/81 79/79/79 77/77/77
f 81/81/81 77/77/77 80/80/80
f 79/79/79 81/81/81 82/82/82
f 81/81/81 80/80/80 83/83/83
f 81/81/81 83/83/83 82/82/82
f 80/80/80 84/84/84 83/83/83
f 85/85/85 82/82/82 83/83/83
f 83/83/83 84/84/84 86/86/86
f 87/87/87 85/85/85 83/83/83
f 87/87/87 83/83/83 86/86/86
f 88/88/88 85/85/85 87/87/87
f 89/89/89 88/88/88 87/87/87
f 89/89/89 87/87/87 86/86/86
f 90/90/90 89/89/89 86/86/86
f 93/93/93 92/92/92 91/91/91
f 92/92/92 94/94/94 91/91/91
f 91/91/91 94/94/94 95/95/95
f 92/92/92 96/96/96 94/94/94
f 94/94/94 97/97/97 95/95/95
f 98/98/98 95/95/95 97/97/97
f 96/96/96 99/99/99 94/94/94
f 94/94/94 99/99/99 97/97/97
f 96/96/96 100/100/100 99/99/99
f 100/100/100 101/101/101 99/99/99
f 99/99/99 101/101/101 102/102/102
f 99/99/99 102/102/102 97/97/97
f 101/101/101 103/103/103 102/102/102
f 104/104/104 98/98/98 97/97/97
f 104/104/104 97/97/97 102/102/102
f 98/98/98 104/104/104 105/105/105
f 106/106/106 102/102/102 103/103/103
f 106/106/106 104/104/104 102/102/102
f 107/107/107 106/106/106 103/103/103
f 104/104/104 108/108/108 105/105/105
f 104/104/104 106/106/106 108/108/108
f 109/109/109 105/105/105 108/108/108
f 106/106/106 107/107/107 110/110/110
f 106/106/106 110/110/110 108/108/108
f 107/107/107 111/111/111 110/110/110
f 112/112/112 109/109/109 108/108/108
f 112/112/112 108/108/108 110/110/110
f 109/109/109 112/112/112 113/113/113
f 114/114/114 110/110/110 111/111/111
f 114/114/114 112/112/112 110/110/110
f 115/115/115 114/114/114 111/111/111
f 112/112/112 116/116/116 113/113/113
f 112/112/112 114/114/114 116/116/116
f 113/113/113 116/116/116 117/117/117
f 114/114/114 115/115/115 118/118/118
f 114/114/114 118/118/118 116/116/116
f 115/115/115 119/119/119 118/118/118
f 116/116/116 120/120/120 117/117/117
f 116/116/116 118/118/118 120/120/120
f 117/117/117 120/120/120 121/121/121
f 120/120/120 122/122/122 121/121/121
f 118/118/118 119/119/119 123/123/123
f 118/118/118 123/123/123 120/120/120
f 120/120/120 123/123/123 122/122/122
f 119/119/119 124/124/124 123/123/123
f 123/123/123 125/125/125 122/122/122
f 123/123/123 124/124/124 125/125/125
f 124/124/124 126/126/126 125/125/125
f 129/129/129 128/128/128 127/127/127
f 130/130/130 129/129/129 127/127/127
f 131/131/131 129/129/129 130/130/130
f 132/132/132 131/131/131 130/130/130
f 133/133/133 131/131/131 132/132/132
f 134/134/134 133/133/133 132/132/132
f 133/133/133 134/134/134 135/135/135
f 134/134/134 136/136/136 135/135/135
f 137/137/137 135/135/135 136/136/136
f 138/138/138 137/137/137 136/136/136
f 137/137/137 138/138/138 139/139/139
f 138/138/138 140/140/140 139/139/139
f 141/141/141 139/139/139 140/140/140
f 142/142/142 141/141/141 140/140/140
f 143/143/143 141/141/141 142/142/142
f 144/144/144 143/143/143 142/142/142
f 147/147/147 146/146/146 145/145/145
f 148/148/148 147/147/147 145/145/145
f 149/149/149 147/147/147 148/148/148
f 150/150/150 149/149/149 148/148/148
f 151/151/151 149/149/149 150/150/150
f 152/152/152 151/151/151 150/150/150
f 153/153/153 151/151/151 152/152/152
f 154/154/154 153/153/153 152/152/152
f 155/155/155 153/153/153 154/154/154
f 156/156/156 155/155/155 154/154/154
f 157/157/157 155/155/155 156/156/156
f 158/158/158 157/157/157 156/156/156
f 159/159/159 157/157/157 158/158/158
f 160/160/160 159/159/159 158/158/158
f 161/161/161 159/159/159 160/160/160
f 162/162/162 161/161/161 160/160/160
f 165/165/165 164/164/164 163/163/163
f 163/163/163 164/164/164 166/166/166
f 167/167/167 164/164/164 165/165/165
f 168/168/168 167/167/167 165/165/165
f 169/169/169 167/167/167 168/168/168
f 170/170/170 167/167/167 169/169/169
f 167/167/167 170/170/170 164/164/164
f 171/171/171 170/170/170 169/169/169
f 172/172/172 170/170/170 171/171/171
f 164/164/164 173/173/173 166/166/166
f 170/170/170 173/173/173 164/164/164
f 173/173/173 170/170/170 172/172/172
f 166/166/166 173/173/173 174/174/174
f 174/174/174 173/173/173 172/172/172
