g ENV_S04_Path_M_HardPlastic_Grey_MO3
v -17.055752 -0.26879692 2.1376076
v -17.042194 -0.32823944 2.1240501
v -17.055752 -0.34179688 2.064087
v -17.085995 -0.26879692 2.064087
v -17.055752 -0.19266891 2.1376076
v -17.085995 -0.19266891 2.064087
v -17.085995 -0.26879692 -2.064084
v -17.055752 -0.34179688 -2.064084
v -17.085995 -0.19266891 -2.064084
v -17.055752 -0.26879692 -2.1376066
v -17.042194 -0.32823944 -2.1240492
v -17.055752 -0.19266891 -2.1376066
v -17.055752 -0.34179688 2.064087
v -17.042194 -0.32823944 2.1240501
v -16.982754 -0.34179688 2.1376076
v -16.982754 -0.3720398 2.064087
v -17.055752 -0.34179688 -2.064084
v 16.982752 -0.31728935 2.0646076
v 16.982752 -0.28652573 2.1376076
v -16.982754 -0.3720398 -2.064084
v 17.055752 -0.28652573 2.0646076
v 17.042194 -0.273489 2.1240501
v 16.982752 -0.31728935 -2.0646057
v 17.055752 -0.28652573 -2.0646057
v 16.982752 -0.28652573 -2.1376066
v 17.042194 -0.273489 -2.1240492
v 17.055752 -0.21352577 -2.1376066
v -16.982754 -0.34179688 -2.1376066
v -17.042194 -0.32823944 -2.1240492
v -17.055752 -0.26879692 -2.1376066
v 16.982752 -0.21352577 -2.1678495
v -16.982754 -0.2682762 -2.1678495
v -17.055752 -0.19266891 -2.1376066
v -16.982754 -0.19266891 -2.1678495
v 16.982752 -0.16555405 -2.1678495
v 17.055752 -0.16555405 -2.1376066
v -16.982754 -0.34179688 2.1376076
v -17.042194 -0.32823944 2.1240501
v -17.055752 -0.26879692 2.1376076
v -16.982754 -0.2682762 2.1678505
v 16.982752 -0.28652573 2.1376076
v -16.982754 -0.19266891 2.1678505
v -17.055752 -0.19266891 2.1376076
v 16.982752 -0.16555405 2.1678505
v 16.982752 -0.21352577 2.1678505
v 17.055752 -0.16555405 2.1376076
v 17.055752 -0.21352577 2.1376076
v 17.042194 -0.273489 2.1240501
v 17.055752 -0.28652573 2.0646076
v 17.042194 -0.273489 2.1240501
v 17.055752 -0.21352577 2.1376076
v 17.085995 -0.21352577 2.0646076
v 17.055752 -0.28652573 -2.0646057
v 17.085995 -0.16555405 2.0646076
v 17.055752 -0.16555405 2.1376076
v 17.085995 -0.16555405 -2.0646057
v 17.085995 -0.21352577 -2.0646057
v 17.055752 -0.16555405 -2.1376066
v 17.055752 -0.21352577 -2.1376066
v 17.042194 -0.273489 -2.1240492
v -17.055752 -0.19266891 2.1376076
v -17.085995 0.19266891 2.0646076
v -17.055752 0.19266891 2.1376076
v -17.085995 -0.19266891 2.064087
v -17.085995 0.19266891 -2.0646057
v -17.085995 -0.19266891 -2.064084
v -17.055752 0.19266891 -2.1376066
v -17.055752 -0.19266891 -2.1376066
v -17.055752 0.19266891 2.1376076
v -16.982754 -0.19266891 2.1678505
v -17.055752 -0.19266891 2.1376076
v -16.982754 0.19266891 2.1678505
v 16.982752 -0.16555405 2.1678505
v 16.982752 0.22030449 2.1678505
v 17.055752 -0.16555405 2.1376076
v 17.055752 0.22030449 2.1376076
v 17.055752 0.22030449 2.1376076
v 17.085995 -0.16555405 2.0646076
v 17.055752 -0.16555405 2.1376076
v 17.085995 0.22030449 2.0646076
v 17.085995 -0.16555405 -2.0646057
v 17.085995 0.22030449 -2.0646057
v 17.055752 -0.16555405 -2.1376066
v 17.055752 0.22030449 -2.1376066
v 17.055752 0.22030449 -2.1376066
v 16.982752 -0.16555405 -2.1678495
v 17.055752 -0.16555405 -2.1376066
v 16.982752 0.22030449 -2.1678495
v -16.982754 -0.19266891 -2.1678495
v -16.982754 0.19266891 -2.1678495
v -17.055752 -0.19266891 -2.1376066
v -17.055752 0.19266891 -2.1376066
v -17.085995 0.19266891 2.0646076
v -17.055752 0.2682762 2.1376076
v -17.055752 0.19266891 2.1376076
v -17.085995 0.2682762 2.0646076
v -17.085995 0.19266891 -2.0646057
v -17.055752 0.34179878 2.0646076
v -17.042194 0.32824135 2.1240501
v -17.085995 0.2682762 -2.0646057
v -17.055752 0.19266891 -2.1376066
v -17.055752 0.2682762 -2.1376066
v -17.055752 0.34179878 -2.0646057
v -17.042194 0.32824135 -2.1240492
v -16.982754 0.34179878 -2.1376066
v -17.055752 0.2682762 -2.1376066
v -16.982754 0.34179878 2.1376076
v -17.055752 0.2682762 2.1376076
v -16.982754 0.3720417 -2.0646057
v -16.982754 0.3720417 2.0646076
v -16.982754 0.2682762 2.1678505
v -17.055752 0.19266891 2.1376076
v -16.982754 0.19266891 2.1678505
v 16.982752 0.2682762 2.1678505
v 16.982752 0.22030449 2.1678505
v 16.982752 0.34179878 2.1376076
v 17.055752 0.2682762 2.1376076
v 17.055752 0.22030449 2.1376076
v 17.042194 0.32824135 2.1240501
v 16.982752 0.3720417 -2.0646057
v 16.982752 0.3720417 2.0646076
v 17.055752 0.34179878 2.0646076
v 17.055752 0.2682762 2.1376076
v 17.055752 0.34179878 -2.0646057
v 16.982752 0.34179878 -2.1376066
v 17.085995 0.2682762 2.0646076
v 17.055752 0.22030449 2.1376076
v 17.085995 0.22030449 2.0646076
v 17.085995 0.2682762 -2.0646057
v 17.085995 0.22030449 -2.0646057
v 17.055752 0.2682762 -2.1376066
v 17.055752 0.22030449 -2.1376066
v 17.042194 0.32824135 -2.1240492
v 17.055752 0.2682762 -2.1376066
v -16.982754 0.2682762 -2.1678495
v 16.982752 0.2682762 -2.1678495
v 17.055752 0.22030449 -2.1376066
v 16.982752 0.22030449 -2.1678495
v -16.982754 0.19266891 -2.1678495
v -17.055752 0.19266891 -2.1376066
vt -0.4869604 0.24421024
vt -0.4900627 0.24498558
vt -0.4916134 0.24886227
vt -0.4869604 0.24886227
vt -0.4823084 0.24421024
vt -0.4823084 0.24886227
vt -0.4869604 0.49310303
vt -0.4916134 0.49310303
vt -0.4823084 0.49310303
vt -0.4869604 0.49775505
vt -0.4900627 0.4969797
vt -0.4823084 0.49775505
vt -0.4567213 0.7846403
vt -0.45594597 0.788517
vt -0.45206928 0.78929234
vt -0.45206928 0.7846403
vt -0.45129395 0.54117584
vt 1.5468264 0.783865
vt 1.5468264 0.788517
vt -0.44664192 0.5419512
vt 1.5514784 0.783865
vt 1.550703 0.78774166
vt 1.541398 0.5427265
vt 1.546051 0.5419512
vt 1.541398 0.53807354
vt 1.5452757 0.53807354
vt 1.546051 0.5334215
vt -0.44664192 0.5372982
vt -0.4505186 0.5372982
vt -0.45129395 0.5326462
vt 1.541398 0.5334215
vt -0.44664192 0.5326462
vt -0.45129395 0.5287695
vt -0.44664192 0.52799416
vt 1.541398 0.53032017
vt 1.546051 0.53032017
vt -0.44741726 0.20466614
vt -0.45129395 0.20544147
vt -0.45129395 0.20931816
vt -0.44741726 0.20931816
vt 1.5429487 0.21164417
vt -0.44664192 0.21397114
vt -0.45129395 0.21397114
vt 1.5429487 0.2193985
vt 1.5429487 0.21629715
vt 1.5476017 0.2193985
vt 1.5476017 0.21629715
vt 1.5468264 0.21241951
vt 1.5840435 0.25273895
vt 1.5832682 0.24886227
vt 1.5793915 0.24808693
vt 1.5793915 0.25273895
vt 1.5832682 0.4969797
vt 1.5762901 0.25273895
vt 1.5762901 0.24808693
vt 1.5755148 0.4969797
vt 1.5786161 0.4969797
vt 1.5755148 0.50163174
vt 1.5786161 0.50163174
vt 1.5824928 0.5008564
vt -0.4823084 0.24421024
vt -0.45982265 0.2496376
vt -0.45904732 0.24498558
vt -0.4823084 0.24886227
vt -0.45982265 0.4923277
vt -0.4823084 0.49310303
vt -0.45904732 0.4969797
vt -0.4823084 0.49775505
vt -0.45129395 0.23723125
vt -0.44664192 0.21397114
vt -0.45129395 0.21397114
vt -0.44664192 0.23645592
vt 1.5429487 0.2193985
vt 1.5421734 0.24188423
vt 1.5476017 0.2193985
vt 1.5468264 0.24265957
vt 1.5530291 0.24886227
vt 1.5762901 0.25273895
vt 1.5762901 0.24808693
vt 1.5538044 0.2535143
vt 1.5755148 0.4969797
vt 1.5530291 0.49620438
vt 1.5755148 0.50163174
vt 1.5522537 0.5008564
vt 1.546051 0.5070591
vt 1.541398 0.53032017
vt 1.546051 0.53032017
vt 1.541398 0.50783443
vt -0.44664192 0.52799416
vt -0.44664192 0.5055084
vt -0.45129395 0.5287695
vt -0.45129395 0.5055084
vt -0.45982265 0.2496376
vt -0.4543953 0.24498558
vt -0.45904732 0.24498558
vt -0.45517063 0.2496376
vt -0.45982265 0.4923277
vt -0.4505186 0.2496376
vt -0.44974327 0.24576092
vt -0.45517063 0.4923277
vt -0.45904732 0.4969797
vt -0.4543953 0.4969797
vt -0.4505186 0.4923277
vt -0.4505186 0.49620438
vt -0.44586658 0.49620438
vt -0.45129395 0.5008564
vt -0.44586658 0.24576092
vt -0.4505186 0.24188423
vt -0.44586658 0.49155235
vt -0.44586658 0.25041294
vt -0.44586658 0.2411089
vt -0.45129395 0.23723125
vt -0.44664192 0.23645592
vt 1.5421734 0.24421024
vt 1.5421734 0.24188423
vt 1.5421734 0.24886227
vt 1.5468264 0.24498558
vt 1.5468264 0.24265957
vt 1.546051 0.2496376
vt 1.541398 0.49542904
vt 1.5421734 0.2535143
vt 1.5468264 0.2535143
vt 1.550703 0.24886227
vt 1.546051 0.49620438
vt 1.541398 0.50008106
vt 1.550703 0.2535143
vt 1.5530291 0.24886227
vt 1.5538044 0.2535143
vt 1.550703 0.49620438
vt 1.5530291 0.49620438
vt 1.5499277 0.5008564
vt 1.5522537 0.5008564
vt 1.5452757 0.50008106
vt 1.546051 0.5047331
vt -0.44664192 0.5008564
vt 1.541398 0.5047331
vt 1.546051 0.5070591
vt 1.541398 0.50783443
vt -0.44664192 0.5055084
vt -0.45129395 0.5055084
vn -0.7019427 -0.15293723 0.69561964
vn -0.5764557 -0.5764557 0.57913524
vn -0.7071068 -0.7071068 -0
vn -0.9764453 -0.1999948 0.08097311
vn -0.9215448 -0.003921449 0.3882523
vn -0.99997413 0.003921509 0.0060298094
vn -0.9764453 -0.1999948 -0.08097311
vn -0.7071068 -0.7071068 -0
vn -0.99997413 0.003921509 -0.0060298094
vn -0.7019427 -0.15293723 -0.69561964
vn -0.5764557 -0.5764557 -0.57913524
vn -0.9215448 -0.003921449 -0.3882523
vn -0.7071068 -0.7071068 -0
vn -0.5764557 -0.5764557 0.57913524
vn 0.003921449 -0.7097856 0.70440686
vn 0.003921449 -0.99997413 0.0060298285
vn -0.7071068 -0.7071068 -0
vn 0.003921449 -0.99997413 0.0060298285
vn 0.003921449 -0.7097856 0.70440686
vn 0.003921449 -0.99997413 -0.0060298285
vn 0.7071068 -0.7071068 -0
vn 0.5764557 -0.5764557 0.57913524
vn 0.003921449 -0.99997413 -0.0060298285
vn 0.7071068 -0.7071068 -0
vn 0.003921449 -0.7097856 -0.70440686
vn 0.5764557 -0.5764557 -0.57913524
vn 0.69409966 -0.1921519 -0.6937603
vn 0.003921449 -0.7097856 -0.70440686
vn -0.5764557 -0.5764557 -0.57913524
vn -0.7019427 -0.15293723 -0.69561964
vn 0.003921449 -0.21568066 -0.9764561
vn -0.003921509 -0.21568066 -0.9764561
vn -0.3803823 -0.003921449 -0.924821
vn -0.003921509 0.003921509 -0.9999846
vn 0.003921449 0.003921509 -0.9999846
vn 0.3803823 0.003921509 -0.924821
vn 0.003921449 -0.7097856 0.70440686
vn -0.5764557 -0.5764557 0.57913524
vn -0.7019427 -0.15293723 0.69561964
vn -0.003921509 -0.21568066 0.9764561
vn 0.003921449 -0.7097856 0.70440686
vn -0.003921509 0.003921509 0.9999846
vn -0.3803823 -0.003921449 0.924821
vn 0.003921449 0.003921509 0.9999846
vn 0.003921449 -0.21568066 0.9764561
vn 0.3803823 0.003921509 0.924821
vn 0.69409966 -0.1921519 0.6937603
vn 0.5764557 -0.5764557 0.57913524
vn 0.7071068 -0.7071068 -0
vn 0.5764557 -0.5764557 0.57913524
vn 0.69409966 -0.1921519 0.6937603
vn 0.9686024 -0.23920947 0.067736186
vn 0.7071068 -0.7071068 -0
vn 0.99997413 0.003921509 0.0060298094
vn 0.9215448 0.003921509 0.3882523
vn 0.99997413 0.003921509 -0.0060298094
vn 0.9686024 -0.23920947 -0.067736186
vn 0.9215448 0.003921509 -0.3882523
vn 0.69409966 -0.1921519 -0.6937603
vn 0.5764557 -0.5764557 -0.57913524
vn -0.9215448 -0.003921449 0.3882523
vn -0.99997413 0.003921509 0.0060298094
vn -0.9215448 -0.003921449 0.3882523
vn -0.99997413 0.003921509 0.0060298094
vn -0.99997413 0.003921509 -0.0060298094
vn -0.99997413 0.003921509 -0.0060298094
vn -0.9215448 -0.003921449 -0.3882523
vn -0.9215448 -0.003921449 -0.3882523
vn -0.3803823 -0.003921449 0.924821
vn -0.003921509 0.003921509 0.9999846
vn -0.3803823 -0.003921449 0.924821
vn -0.003921509 0.003921509 0.9999846
vn 0.003921449 0.003921509 0.9999846
vn 0.003921449 0.003921509 0.9999846
vn 0.3803823 0.003921509 0.924821
vn 0.3803823 0.003921509 0.924821
vn 0.9215448 0.003921509 0.3882523
vn 0.99997413 0.003921509 0.0060298094
vn 0.9215448 0.003921509 0.3882523
vn 0.99997413 0.003921509 0.0060298094
vn 0.99997413 0.003921509 -0.0060298094
vn 0.99997413 0.003921509 -0.0060298094
vn 0.9215448 0.003921509 -0.3882523
vn 0.9215448 0.003921509 -0.3882523
vn 0.3803823 0.003921509 -0.924821
vn 0.003921449 0.003921509 -0.9999846
vn 0.3803823 0.003921509 -0.924821
vn 0.003921449 0.003921509 -0.9999846
vn -0.003921509 0.003921509 -0.9999846
vn -0.003921509 0.003921509 -0.9999846
vn -0.3803823 -0.003921449 -0.924821
vn -0.3803823 -0.003921449 -0.924821
vn -0.99997413 0.003921509 0.0060298094
vn -0.7019427 0.1529373 0.69561964
vn -0.9215448 -0.003921449 0.3882523
vn -0.9764453 0.1999948 0.08097311
vn -0.99997413 0.003921509 -0.0060298094
vn -0.7071068 0.7071068 -0
vn -0.5764557 0.5764557 0.57913524
vn -0.9764453 0.1999948 -0.08097311
vn -0.9215448 -0.003921449 -0.3882523
vn -0.7019427 0.1529373 -0.69561964
vn -0.7071068 0.7071068 -0
vn -0.5764557 0.5764557 -0.57913524
vn -0.003921509 0.7097856 -0.70440686
vn -0.7019427 0.1529373 -0.69561964
vn -0.003921509 0.7097856 0.70440686
vn -0.7019427 0.1529373 0.69561964
vn -0.003921509 0.99997413 -0.0060298285
vn -0.003921509 0.99997413 0.0060298285
vn -0.003921509 0.21568072 0.9764561
vn -0.3803823 -0.003921449 0.924821
vn -0.003921509 0.003921509 0.9999846
vn 0.003921449 0.21568072 0.9764561
vn 0.003921449 0.003921509 0.9999846
vn 0.003921449 0.7097856 0.70440686
vn 0.69409966 0.1921519 0.6937603
vn 0.3803823 0.003921509 0.924821
vn 0.5764557 0.5764557 0.57913524
vn 0.003921449 0.99997413 -0.0060298285
vn 0.003921449 0.99997413 0.0060298285
vn 0.7071068 0.7071068 -0
vn 0.69409966 0.1921519 0.6937603
vn 0.7071068 0.7071068 -0
vn 0.003921449 0.7097856 -0.70440686
vn 0.9686024 0.23920953 0.06773596
vn 0.9215448 0.003921509 0.3882523
vn 0.99997413 0.003921509 0.0060298094
vn 0.9686024 0.23920953 -0.06773596
vn 0.99997413 0.003921509 -0.0060298094
vn 0.69409966 0.1921519 -0.6937603
vn 0.9215448 0.003921509 -0.3882523
vn 0.5764557 0.5764557 -0.57913524
vn 0.69409966 0.1921519 -0.6937603
vn -0.003921509 0.21568072 -0.9764561
vn 0.003921449 0.21568072 -0.9764561
vn 0.3803823 0.003921509 -0.924821
vn 0.003921449 0.003921509 -0.9999846
vn -0.003921509 0.003921509 -0.9999846
vn -0.3803823 -0.003921449 -0.924821
g ENV_S04_Path_M_HardPlastic_Grey_MO3_0
f 3/3/3 2/2/2 1/1/1
f 4/4/4 3/3/3 1/1/1
f 1/1/1 5/5/5 4/4/4
f 5/5/5 6/6/6 4/4/4
f 4/4/4 7/7/7 3/3/3
f 4/4/4 6/6/6 7/7/7
f 7/7/7 8/8/8 3/3/3
f 6/6/6 9/9/9 7/7/7
f 7/7/7 10/10/10 8/8/8
f 10/10/10 7/7/7 9/9/9
f 10/10/10 11/11/11 8/8/8
f 12/12/12 10/10/10 9/9/9
f 15/15/15 14/14/14 13/13/13
f 16/16/16 15/15/15 13/13/13
f 13/13/13 17/17/17 16/16/16
f 16/16/16 18/18/18 15/15/15
f 18/18/18 19/19/19 15/15/15
f 17/17/17 20/20/20 16/16/16
f 18/18/18 16/16/16 20/20/20
f 18/18/18 21/21/21 19/19/19
f 21/21/21 22/22/22 19/19/19
f 18/18/18 23/23/23 21/21/21
f 23/23/23 18/18/18 20/20/20
f 23/23/23 24/24/24 21/21/21
f 23/23/23 25/25/25 24/24/24
f 25/25/25 23/23/23 20/20/20
f 25/25/25 26/26/26 24/24/24
f 27/27/27 26/26/26 25/25/25
f 20/20/20 17/17/17 28/28/28
f 28/28/28 25/25/25 20/20/20
f 17/17/17 29/29/29 28/28/28
f 28/28/28 29/29/29 30/30/30
f 31/31/31 27/27/27 25/25/25
f 31/31/31 25/25/25 28/28/28
f 32/32/32 28/28/28 30/30/30
f 32/32/32 31/31/31 28/28/28
f 32/32/32 30/30/30 33/33/33
f 34/34/34 32/32/32 33/33/33
f 31/31/31 32/32/32 34/34/34
f 35/35/35 31/31/31 34/34/34
f 27/27/27 31/31/31 35/35/35
f 36/36/36 27/27/27 35/35/35
f 39/39/39 38/38/38 37/37/37
f 40/40/40 39/39/39 37/37/37
f 37/37/37 41/41/41 40/40/40
f 40/40/40 42/42/42 39/39/39
f 42/42/42 43/43/43 39/39/39
f 44/44/44 42/42/42 40/40/40
f 45/45/45 44/44/44 40/40/40
f 41/41/41 45/45/45 40/40/40
f 46/46/46 44/44/44 45/45/45
f 47/47/47 46/46/46 45/45/45
f 45/45/45 41/41/41 47/47/47
f 41/41/41 48/48/48 47/47/47
f 51/51/51 50/50/50 49/49/49
f 52/52/52 51/51/51 49/49/49
f 49/49/49 53/53/53 52/52/52
f 52/52/52 54/54/54 51/51/51
f 54/54/54 55/55/55 51/51/51
f 56/56/56 54/54/54 52/52/52
f 57/57/57 56/56/56 52/52/52
f 53/53/53 57/57/57 52/52/52
f 56/56/56 57/57/57 58/58/58
f 57/57/57 59/59/59 58/58/58
f 57/57/57 53/53/53 59/59/59
f 53/53/53 60/60/60 59/59/59
f 63/63/63 62/62/62 61/61/61
f 62/62/62 64/64/64 61/61/61
f 64/64/64 62/62/62 65/65/65
f 66/66/66 64/64/64 65/65/65
f 66/66/66 65/65/65 67/67/67
f 68/68/68 66/66/66 67/67/67
f 71/71/71 70/70/70 69/69/69
f 70/70/70 72/72/72 69/69/69
f 70/70/70 73/73/73 72/72/72
f 73/73/73 74/74/74 72/72/72
f 73/73/73 75/75/75 74/74/74
f 75/75/75 76/76/76 74/74/74
f 79/79/79 78/78/78 77/77/77
f 78/78/78 80/80/80 77/77/77
f 78/78/78 81/81/81 80/80/80
f 81/81/81 82/82/82 80/80/80
f 81/81/81 83/83/83 82/82/82
f 83/83/83 84/84/84 82/82/82
f 87/87/87 86/86/86 85/85/85
f 86/86/86 88/88/88 85/85/85
f 86/86/86 89/89/89 88/88/88
f 89/89/89 90/90/90 88/88/88
f 89/89/89 91/91/91 90/90/90
f 91/91/91 92/92/92 90/90/90
f 95/95/95 94/94/94 93/93/93
f 94/94/94 96/96/96 93/93/93
f 93/93/93 96/96/96 97/97/97
f 96/96/96 94/94/94 98/98/98
f 94/94/94 99/99/99 98/98/98
f 96/96/96 100/100/100 97/97/97
f 101/101/101 97/97/97 100/100/100
f 102/102/102 101/101/101 100/100/100
f 103/103/103 100/100/100 96/96/96
f 100/100/100 103/103/103 102/102/102
f 98/98/98 103/103/103 96/96/96
f 103/103/103 104/104/104 102/102/102
f 105/105/105 104/104/104 103/103/103
f 106/106/106 104/104/104 105/105/105
f 98/98/98 99/99/99 107/107/107
f 107/107/107 99/99/99 108/108/108
f 109/109/109 103/103/103 98/98/98
f 109/109/109 105/105/105 103/103/103
f 110/110/110 109/109/109 98/98/98
f 110/110/110 98/98/98 107/107/107
f 111/111/111 107/107/107 108/108/108
f 111/111/111 108/108/108 112/112/112
f 113/113/113 111/111/111 112/112/112
f 114/114/114 111/111/111 113/113/113
f 111/111/111 114/114/114 107/107/107
f 115/115/115 114/114/114 113/113/113
f 114/114/114 116/116/116 107/107/107
f 107/107/107 116/116/116 110/110/110
f 117/117/117 114/114/114 115/115/115
f 114/114/114 117/117/117 116/116/116
f 118/118/118 117/117/117 115/115/115
f 117/117/117 119/119/119 116/116/116
f 120/120/120 109/109/109 110/110/110
f 109/109/109 120/120/120 105/105/105
f 116/116/116 121/121/121 110/110/110
f 121/121/121 120/120/120 110/110/110
f 116/116/116 119/119/119 122/122/122
f 121/121/121 116/116/116 122/122/122
f 122/122/122 119/119/119 123/123/123
f 124/124/124 120/120/120 121/121/121
f 122/122/122 124/124/124 121/121/121
f 120/120/120 125/125/125 105/105/105
f 120/120/120 124/124/124 125/125/125
f 126/126/126 122/122/122 123/123/123
f 126/126/126 123/123/123 127/127/127
f 128/128/128 126/126/126 127/127/127
f 126/126/126 129/129/129 122/122/122
f 129/129/129 126/126/126 128/128/128
f 129/129/129 124/124/124 122/122/122
f 130/130/130 129/129/129 128/128/128
f 129/129/129 130/130/130 131/131/131
f 129/129/129 131/131/131 124/124/124
f 130/130/130 132/132/132 131/131/131
f 131/131/131 133/133/133 124/124/124
f 124/124/124 133/133/133 125/125/125
f 125/125/125 133/133/133 134/134/134
f 105/105/105 125/125/125 135/135/135
f 135/135/135 106/106/106 105/105/105
f 136/136/136 125/125/125 134/134/134
f 125/125/125 136/136/136 135/135/135
f 134/134/134 137/137/137 136/136/136
f 137/137/137 138/138/138 136/136/136
f 136/136/136 138/138/138 135/135/135
f 138/138/138 139/139/139 135/135/135
f 135/135/135 139/139/139 106/106/106
f 139/139/139 140/140/140 106/106/106
