g ENV_jointPlatform_MO
v 24.999996 -0.50682735 -1.0249658
v 24.96495 0.51151365 -1.0622021
v 24.96654 -0.522356 -1.0622021
v 24.965744 -0.54655516 -1.020874
v 24.999996 0.49860594 0.959082
v 24.972406 0.5033911 1.0622021
v 24.999996 0.5115112 -1.0271484
v 24.972406 0.5413306 1.0530615
v 24.96495 0.54655516 -1.0271533
v -24.96495 0.51151365 -1.0622021
v -24.972403 0.5413306 1.0530615
v -24.96868 0.49826902 1.0522021
v -24.96495 0.54655516 -1.0271533
v -24.999996 0.49860594 0.959082
v -24.999996 0.5115112 -1.0271484
v -24.965746 -0.5212793 -1.0622021
v -24.999996 -0.50682735 -1.0249658
v -24.965746 -0.54655516 -1.020874
vt 0.069883846 -0.49812284
vt 0.07175791 -0.45683938
vt 0.07177211 -0.49880382
vt 0.069506936 -0.50014234
vt -0.0065819155 -0.45818406
vt -0.011324948 -0.45709014
vt 0.069922395 -0.4583341
vt -0.009834458 -0.45703703
vt 0.069860205 -0.45680463
vt 0.07177211 1.4567821
vt -0.009807531 1.4569695
vt -0.011448881 1.4568928
vt 0.06987458 1.4567472
vt -0.0068280566 1.4579861
vt 0.069929 1.4582777
vt 0.07167359 1.4987674
vt 0.06976699 1.4981204
vt 0.06938782 1.5001423
vn 0.9962638 -0.086182505 -0.0055552325
vn 0.0149876475 0.7000444 -0.71394193
vn 0.72856456 -0.011969203 -0.6848726
vn 0.78940934 -0.5505946 0.27143744
vn 0.9959019 0.0016877244 0.09042527
vn 0.014662838 0.091643505 0.9956839
vn 0.9978619 0.05726255 -0.031504326
vn 0.00025833308 0.9997584 0.021979034
vn 0.0007520426 0.99990106 -0.0140489135
vn -0.01498364 0.6999621 -0.7140228
vn -0.00025988522 0.9997813 0.020913444
vn -0.016130451 0.08999859 0.99581134
vn -0.0007520409 0.99990106 -0.014048937
vn -0.99558455 -0.0031639424 0.09381583
vn -0.9978515 0.057255257 -0.031847037
vn -0.72433114 -0.011929171 -0.689349
vn -0.9958444 -0.091021374 -0.0029973923
vn -0.7723368 -0.5694069 0.28155208
g ENV_jointPlatform_MO_0
f 3/3/3 2/2/2 1/1/1
f 3/3/3 1/1/1 4/4/4
f 1/1/1 5/5/5 4/4/4
f 5/5/5 6/6/6 4/4/4
f 2/2/2 7/7/7 1/1/1
f 7/7/7 5/5/5 1/1/1
f 5/5/5 8/8/8 6/6/6
f 8/8/8 5/5/5 7/7/7
f 2/2/2 9/9/9 7/7/7
f 9/9/9 8/8/8 7/7/7
f 2/2/2 10/10/10 9/9/9
f 8/8/8 11/11/11 6/6/6
f 11/11/11 8/8/8 9/9/9
f 11/11/11 12/12/12 6/6/6
f 10/10/10 13/13/13 9/9/9
f 13/13/13 11/11/11 9/9/9
f 11/11/11 14/14/14 12/12/12
f 14/14/14 11/11/11 13/13/13
f 10/10/10 15/15/15 13/13/13
f 15/15/15 14/14/14 13/13/13
f 15/15/15 10/10/10 16/16/16
f 12/12/12 14/14/14 17/17/17
f 17/17/17 14/14/14 15/15/15
f 17/17/17 15/15/15 16/16/16
f 18/18/18 12/12/12 17/17/17
f 16/16/16 18/18/18 17/17/17
