g ENV_S04_Path_M_GrayPlasticWedge_A_MO
v 5.5863757 -2.7089438 3.2180986
v 5.5695524 -2.7846477 3.2011042
v 5.493334 -2.8026724 3.2175837
v 5.493334 -2.7099738 3.2562084
v 5.5896373 2.8588057 3.2117472
v 4.394856 -2.7034504 3.2562084
v 4.394856 -2.7963207 3.2175837
v -4.5036907 -2.6504064 3.2562084
v -4.5036907 -2.74362 3.2172403
v -5.4924755 -2.6445699 3.2562084
v -5.4924755 -2.7377834 3.2170687
v -5.5862036 -2.6464581 3.2175837
v -5.568866 -2.722162 3.2005892
v -5.498312 1.9311337 3.2562084
v -5.588092 1.9022942 3.2132921
v -4.5079823 2.0169659 3.2562084
v -5.5031185 2.021944 3.2035074
v -5.5741873 1.9864097 3.1878862
v 4.4042974 2.7897968 3.2562084
v -5.5913534 1.9613466 3.1082335
v -5.588092 1.9022942 3.2132921
v -4.512617 2.1072612 3.2033358
v 5.5046635 2.8852425 3.2562084
v 4.401894 2.8754578 3.2017908
v 5.502432 2.9702158 3.2014475
v 5.572814 2.9403467 3.184968
v -5.5075817 2.0166225 3.102912
v -4.5169086 2.1010814 3.1027403
v -5.50741 1.7802415 2.794775
v -4.5175953 2.0528436 3.040598
v -4.6827364 1.9563684 2.9166565
v -4.7156954 1.8597217 2.792715
v -4.668659 1.7632465 2.6687737
v 4.5239472 2.782587 3.0107288
v -4.5282383 1.6667714 2.5446606
v 4.399491 2.8620682 3.1011953
v 5.5007153 2.6632805 2.772459
v 4.6719217 2.678731 2.892624
v 4.6937227 2.574874 2.7746906
v 4.6240273 2.4711885 2.6565857
v 4.493391 2.367332 2.5386524
v -4.5163937 1.5648031 2.4138527
v 5.5002003 2.9561396 3.100852
v 5.5879207 2.907215 3.1042852
v 5.5896373 2.8588057 3.2117472
v 4.400521 2.2239928 2.3755722
v 5.5880923 2.6157303 2.7776089
v 5.625 2.7782955 3.1082335
v 5.5863757 -2.7089438 3.2180986
v 5.625 2.4909306 2.7870502
v 5.588264 2.2593555 2.3783188
v 5.5012302 2.3053613 2.3707652
v 5.625 2.1398773 2.3946266
v 5.625 -2.7084289 3.1259155
v 5.625 -2.707399 2.7935734
v 5.586719 -2.801814 3.1254005
v 5.5695524 -2.7846477 3.2011042
v 5.5868907 -2.8014708 2.7935734
v 5.587234 -2.8009558 2.3881035
v 5.625 -2.7060256 2.3874168
v 5.5915256 -2.7949474 -3.124714
v 5.625 -2.6880007 -3.0011158
v 5.591354 -2.6874857 -3.1641967
v 5.5765905 -2.7671378 -3.2134643
v 5.50947 -2.6880007 -3.2316606
v 5.5103283 -2.7836175 -3.256552
v 5.5915256 -2.7949474 -3.124714
v 5.5106716 -2.8402667 -3.175355
v 5.587234 -2.8009558 2.3881035
v 5.4953938 -2.841125 2.390335
v 5.5868907 -2.8014708 2.7935734
v 5.494364 -2.8412967 2.7940884
v 5.586719 -2.801814 3.1254005
v 4.3965726 -2.8368335 2.3911934
v 4.409447 -2.8533132 -3.1714065
v 4.408932 -2.7959774 -3.2527752
v 4.4082456 -2.699674 -3.2270257
v -4.5124454 -2.795119 -3.1906328
v -4.511759 -2.8957143 -3.2232492
v -4.511244 -2.9585433 -3.1381037
v -4.504549 -2.801814 2.3990898
v 4.3955426 -2.8356318 2.7944317
v -5.5036335 -2.8055906 -3.1866846
v -5.502947 -2.9067006 -3.2198157
v -5.502432 -2.9702163 -3.1344988
v -5.493677 -2.7978656 2.3999481
v -4.504034 -2.7904842 2.7976942
v -5.5070667 1.4915023 2.4179726
v -5.5911818 1.7259955 2.801299
v -5.5911818 1.4381151 2.4260416
v -5.625 1.8389502 3.114071
v -5.625 1.6063457 2.8117704
v -5.625 -2.6464581 3.1243706
v -5.5862036 -2.6464581 3.2175837
v -5.589637 -2.8115988 -3.1144142
v -5.625 1.3220701 2.4423494
v -5.5858603 -2.7388134 3.1243706
v -5.568866 -2.722162 3.2005892
v -5.625 -2.6557279 2.7988958
v -5.586032 -2.748598 2.7994108
v -5.625 -2.6672294 2.400978
v -5.586375 -2.760443 2.4021797
v -5.625 -2.8198388 -2.9410336
v -5.589122 -2.9252405 -3.078193
v -5.5736723 -2.8921092 -3.1720932
v -5.589122 -2.9252405 -3.078193
v -5.586375 -2.760443 2.4021797
v -5.4929905 -2.785506 2.7980375
v -5.586032 -2.748598 2.7994108
v -5.4924755 -2.7753778 3.1238556
v -5.5858603 -2.7388134 3.1243706
v -4.5036907 -2.781386 3.1238556
v -5.4924755 -2.7377834 3.2170687
v -5.568866 -2.722162 3.2005892
v -4.5036907 -2.74362 3.2172403
v 4.394856 -2.8347735 3.1243706
v 4.394856 -2.7963207 3.2175837
v 5.493334 -2.8412967 3.1243706
v 5.493334 -2.8026724 3.2175837
v 5.5695524 -2.7846477 3.2011042
v -4.5282383 1.6667714 2.5446606
v 4.493391 2.367332 2.5386524
v 4.6240273 2.4711885 2.6565857
v -4.668659 1.7632465 2.6687737
v 4.6937227 2.574874 2.7746906
v -4.7156954 1.8597217 2.792715
v 4.6719217 2.678731 2.892624
v -4.6827364 1.9563684 2.9166565
v 4.5239472 2.782587 3.0107288
v -4.5175953 2.0528436 3.040598
vt 0.23151591 0.94853365
vt 0.23151591 0.95342803
vt 0.23722598 0.9550594
vt 0.23804167 0.94853365
vt 0.23967311 0.5781969
vt 0.31064072 0.95342803
vt 0.31064072 0.96076953
vt 0.9175364 0.93711364
vt 0.9175364 0.9436394
vt 0.9836097 0.9305879
vt 0.9844253 0.93711364
vt 0.99013543 0.92977214
vt 0.9893197 0.93548214
vt 0.96892667 0.6336658
vt 0.9754524 0.63448155
vt 0.9036691 0.63285005
vt 0.9681109 0.62714005
vt 0.97382104 0.62714005
vt 0.31879798 0.586354
vt 0.9754524 0.6206143
vt 0.9819782 0.6263243
vt 0.9036691 0.62550855
vt 0.24619886 0.57738113
vt 0.31879798 0.57982826
vt 0.24701461 0.5716711
vt 0.24130455 0.5708554
vt 0.96892667 0.62143004
vt 0.90448475 0.6189828
vt 0.9730053 0.59614265
vt 0.9053005 0.61408854
vt 0.9175364 0.6042999
vt 0.92079926 0.5945113
vt 0.91916776 0.5839069
vt 0.31227216 0.5643296
vt 0.9110105 0.5724869
vt 0.31961367 0.5733025
vt 0.2502775 0.5382266
vt 0.30411497 0.5529096
vt 0.30411497 0.54230523
vt 0.30982503 0.5325166
vt 0.31961367 0.5235436
vt 0.91182625 0.56106675
vt 0.2478303 0.5651454
vt 0.2421203 0.5643296
vt 0.2339631 0.56840825
vt 0.32695517 0.50967646
vt 0.24456742 0.5357795
vt 0.23559454 0.5586196
vt -0.009121448 0.2918792
vt 0.23804167 0.53006935
vt 0.24864605 0.50070345
vt 0.25435606 0.5031507
vt 0.2421203 0.49499342
vt -0.0042271316 0.28780058
vt 0.011271536 0.27230194
vt -0.009121448 0.28290626
vt -0.012384325 0.28780058
vt 0.0071929395 0.26740757
vt 0.027585953 0.24946174
vt 0.03166455 0.25435606
vt 0.30656216 0.013718694
vt 0.30493072 0.025138795
vt 0.3130879 0.01861304
vt 0.31471935 0.012087256
vt 0.31961367 0.016981602
vt 0.3204294 0.012087256
vt 0.31471935 0.0031143427
vt 0.3204294 0.00637722
vt 0.34734812 -0.3672225
vt 0.35387388 -0.3672225
vt 0.3497953 -0.39495695
vt 0.35632107 -0.39414123
vt 0.35224244 -0.4169814
vt 0.42728868 -0.3631439
vt 0.39302847 0.010455817
vt 0.39221272 0.016981602
vt 0.39139703 0.023507357
vt 0.9656638 0.09121212
vt 0.96647954 0.08468637
vt 0.9672953 0.077344865
vt 1.0284742 -0.27667758
vt 0.43055156 -0.3892469
vt 1.02929 0.101000756
vt 1.0301057 0.09529069
vt 1.0317371 0.089580685
vt 1.0929161 -0.2619946
vt 1.0325528 -0.30278063
vt 0.9770839 0.5659611
vt 0.97953105 0.595327
vt 0.9836097 0.5643296
vt 0.9827939 0.6173514
vt 0.98687255 0.59206414
vt 1.2397457 0.46644327
vt 1.2430086 0.47215328
vt 1.0358157 0.10426363
vt 0.99095106 0.5618825
vt 1.2454557 0.4631804
vt 1.2470871 0.4688904
vt 1.229957 0.44686595
vt 1.2356671 0.44360307
vt 1.2177212 0.4232101
vt 1.2234312 0.41994724
vt 1.0423415 0.114052266
vt 1.0431572 0.101816446
vt 1.0358157 0.09692213
vt 1.0382628 0.088764936
vt 1.0994419 -0.2611789
vt 1.0978104 -0.28891337
vt 1.1043361 -0.28809765
vt 1.101889 -0.31012207
vt 1.1084148 -0.30930638
vt 1.0358157 -0.32398933
vt 1.1027048 -0.31664786
vt 1.107599 -0.31501642
vt 1.0366315 -0.3305151
vt 0.43299875 -0.41127136
vt 0.43381444 -0.41779712
vt 0.3587682 -0.41616568
vt 0.35958394 -0.42269143
vt 0.35387388 -0.42187572
vt 0.9110105 0.5724869
vt 0.31961367 0.5235436
vt 0.30982503 0.5325166
vt 0.91916776 0.5839069
vt 0.30411497 0.54230523
vt 0.92079926 0.5945113
vt 0.30411497 0.5529096
vt 0.9175364 0.6042999
vt 0.31227216 0.5643296
vt 0.9053005 0.61408854
vn 0.74117064 -0.0039364696 0.6713051
vn 0.5764694 -0.5764694 0.57910794
vn 0.019622326 -0.70979893 0.704131
vn 0.035308123 -0.0039364696 0.9993687
vn 0.6548985 0.0039064884 0.7557067
vn -0.0039064884 -0.0039364696 0.9999846
vn -0.0039064884 -0.70979893 0.7043935
vn -0.0039064884 -0.0039364696 0.9999846
vn -0.0039064884 -0.70979893 0.7043935
vn -0.035278082 -0.011779368 0.9993081
vn -0.027435184 -0.70979893 0.7038699
vn -0.7254548 -0.0039364696 0.6882585
vn -0.5685965 -0.5843123 0.5790312
vn -0.027435184 0.011749387 0.9995545
vn -0.6470256 0.0039064884 0.76245826
vn -0.0039064884 0.011749387 0.99992335
vn -0.105864406 0.86662734 0.4875959
vn -0.7254548 0.5842823 0.36377126
vn -0.0039064884 0.011749387 0.99992335
vn -0.7568264 0.5685965 -0.32235357
vn -0.6470256 0.0039064884 0.76245826
vn -0.07449269 0.89015603 0.44952542
vn 0.027465224 0.011749387 0.9995537
vn -0.07449269 0.89015603 0.44952542
vn -0.04312098 0.9058418 0.42141566
vn 0.7254848 0.6313398 0.2740107
vn -0.1215502 0.87447023 -0.4696034
vn -0.07449269 0.9058418 -0.41701493
vn -0.1293931 0.7881981 -0.6016653
vn -0.066649795 0.7646694 -0.64096683
vn -0.066649795 0.7725123 -0.63149226
vn -0.058806896 0.7725123 -0.6322709
vn -0.058806896 0.7725123 -0.6322709
vn -0.066649795 0.7568264 -0.6502089
vn -0.058806896 0.7725123 -0.6322709
vn -0.07449269 0.88231313 -0.46473044
vn -0.0039064884 0.7489835 -0.66257715
vn -0.066649795 0.7646694 -0.64096683
vn -0.058806896 0.7725123 -0.6322709
vn -0.058806896 0.7725123 -0.6322709
vn -0.058806896 0.7646694 -0.64173394
vn -0.035278082 0.7725123 -0.6340191
vn -0.027435184 0.8430985 -0.53705883
vn 0.70195603 0.5764394 -0.41830054
vn 0.6548985 0.0039064884 0.7557067
vn -0.035278082 0.7646694 -0.6434564
vn 0.73332775 0.50585306 -0.45425007
vn 0.992144 0.011749387 0.124548316
vn 0.74117064 -0.0039364696 0.6713051
vn 0.9999869 0.0039064884 -0.0033114033
vn 0.70195603 0.5293819 -0.47645834
vn -0.0039064884 0.7489835 -0.66257715
vn 0.9996239 0.027425224 -0
vn 0.992144 -0.0039364696 0.12503934
vn 0.9999869 -0.0039364696 -0.0032757062
vn 0.70979893 -0.70195603 0.058678884
vn 0.5764694 -0.5764694 0.57910794
vn 0.7176419 -0.69411314 -0.056542672
vn 0.7562049 -0.6543348 -0
vn 0.9999306 -0.011778705 -0
vn 0.6313698 -0.7725423 -0.06745752
vn 0.9999869 -0.0039364696 -0.0032757062
vn 0.6392127 0.5685965 -0.51778865
vn 0.8117569 -0.2000094 -0.54867744
vn -0.0039064884 0.7411406 -0.67133844
vn 0.035308123 -0.34118187 -0.9393339
vn 0.6313698 -0.7725423 -0.06745752
vn 0.027455231 -0.99962306 -0
vn 0.7562049 -0.6543348 -0
vn 0.035286598 -0.99937725 -0
vn 0.7176419 -0.69411314 -0.056542672
vn 0.027455231 -0.99962306 -0
vn 0.70979893 -0.70195603 0.058678884
vn 0.0039364696 -0.9999869 0.0032754901
vn 0.0039364696 -0.9999869 0.0032754901
vn 0.0039364696 -0.32549608 -0.9455352
vn -0.035278082 0.7646694 -0.6434564
vn -0.035278082 0.7646694 -0.6434564
vn 0.0039364696 -0.32549608 -0.9455352
vn 0.0039364696 -0.9999869 0.0032754901
vn 0.0039364696 -0.9999869 0.0032754901
vn -0.0039064884 -0.9999869 0.0033116846
vn -0.066649795 0.7881981 -0.61180186
vn -0.04312098 -0.30981022 -0.9498201
vn -0.019588783 -0.99980813 -0
vn -0.035256613 -0.9993783 -0
vn -0.0039064884 -0.9999869 0.0033116846
vn -0.07449269 0.7881981 -0.6108965
vn -0.7725123 0.49801016 -0.39396775
vn -0.7332977 0.53722477 -0.41673017
vn -0.99211395 0.011749387 0.124787375
vn -0.999931 0.011749083 -0
vn -0.99211395 -0.0039364696 0.12527746
vn -0.7254548 -0.0039364696 0.6882585
vn -0.6705544 0.5842823 -0.45713347
vn -0.9996238 0.027426045 -0
vn -0.701926 -0.70979893 0.05903712
vn -0.5685965 -0.5843123 0.5790312
vn -0.9999306 -0.011779059 -0
vn -0.701926 -0.70979893 0.05903712
vn -0.9998075 -0.019619394 -0
vn -0.7332977 -0.67842734 0.044842526
vn -0.99995685 -0.0039364696 -0.008414971
vn -0.5841844 -0.81162095 -0
vn -0.8117268 -0.18432355 -0.554188
vn -0.5841844 -0.81162095 -0
vn -0.7332977 -0.67842734 0.044842526
vn -0.035256613 -0.9993783 -0
vn -0.701926 -0.70979893 0.05903712
vn -0.035278082 -0.992144 0.12002411
vn -0.701926 -0.70979893 0.05903712
vn -0.0039064884 -0.992144 0.1250403
vn -0.027435184 -0.70979893 0.7038699
vn -0.5685965 -0.5843123 0.5790312
vn -0.0039064884 -0.70979893 0.7043935
vn -0.0039064884 -0.992144 0.1250403
vn -0.0039064884 -0.70979893 0.7043935
vn 0.027465224 -0.992144 0.12204907
vn 0.019622326 -0.70979893 0.704131
vn 0.5764694 -0.5764694 0.57910794
vn -0.058806896 0.7725123 -0.6322709
vn -0.058806896 0.7646694 -0.64173394
vn -0.058806896 0.7725123 -0.6322709
vn -0.058806896 0.7725123 -0.6322709
vn -0.058806896 0.7725123 -0.6322709
vn -0.058806896 0.7725123 -0.6322709
vn -0.066649795 0.7646694 -0.64096683
vn -0.066649795 0.7725123 -0.63149226
vn -0.066649795 0.7568264 -0.6502089
vn -0.066649795 0.7646694 -0.64096683
g ENV_S04_Path_M_GrayPlasticWedge_A_MO_0
f 3/3/3 2/2/2 1/1/1
f 4/4/4 3/3/3 1/1/1
f 4/4/4 1/1/1 5/5/5
f 4/4/4 6/6/6 3/3/3
f 6/6/6 7/7/7 3/3/3
f 6/6/6 8/8/8 7/7/7
f 8/8/8 9/9/9 7/7/7
f 8/8/8 10/10/10 9/9/9
f 10/10/10 11/11/11 9/9/9
f 10/10/10 12/12/12 11/11/11
f 12/12/12 13/13/13 11/11/11
f 12/12/12 10/10/10 14/14/14
f 14/14/14 10/10/10 8/8/8
f 15/15/15 12/12/12 14/14/14
f 16/16/16 8/8/8 6/6/6
f 16/16/16 14/14/14 8/8/8
f 14/14/14 17/17/17 15/15/15
f 17/17/17 14/14/14 16/16/16
f 17/17/17 18/18/18 15/15/15
f 19/19/19 6/6/6 4/4/4
f 19/19/19 16/16/16 6/6/6
f 20/20/20 18/18/18 17/17/17
f 21/21/21 18/18/18 20/20/20
f 22/22/22 17/17/17 16/16/16
f 22/22/22 16/16/16 19/19/19
f 23/23/23 19/19/19 4/4/4
f 23/23/23 4/4/4 5/5/5
f 24/24/24 19/19/19 23/23/23
f 24/24/24 22/22/22 19/19/19
f 23/23/23 5/5/5 25/25/25
f 25/25/25 24/24/24 23/23/23
f 5/5/5 26/26/26 25/25/25
f 27/27/27 17/17/17 22/22/22
f 27/27/27 20/20/20 17/17/17
f 28/28/28 22/22/22 24/24/24
f 28/28/28 27/27/27 22/22/22
f 27/27/27 29/29/29 20/20/20
f 30/30/30 29/29/29 27/27/27
f 28/28/28 30/30/30 27/27/27
f 30/30/30 31/31/31 29/29/29
f 31/31/31 32/32/32 29/29/29
f 32/32/32 33/33/33 29/29/29
f 30/30/30 28/28/28 34/34/34
f 33/33/33 35/35/35 29/29/29
f 36/36/36 28/28/28 24/24/24
f 28/28/28 36/36/36 34/34/34
f 36/36/36 24/24/24 25/25/25
f 34/34/34 36/36/36 37/37/37
f 38/38/38 34/34/34 37/37/37
f 39/39/39 38/38/38 37/37/37
f 40/40/40 39/39/39 37/37/37
f 41/41/41 40/40/40 37/37/37
f 35/35/35 41/41/41 42/42/42
f 35/35/35 42/42/42 29/29/29
f 43/43/43 36/36/36 25/25/25
f 36/36/36 43/43/43 37/37/37
f 43/43/43 25/25/25 44/44/44
f 25/25/25 26/26/26 44/44/44
f 44/44/44 26/26/26 45/45/45
f 41/41/41 46/46/46 42/42/42
f 41/41/41 37/37/37 46/46/46
f 47/47/47 37/37/37 43/43/43
f 44/44/44 47/47/47 43/43/43
f 48/48/48 44/44/44 45/45/45
f 45/45/45 49/49/49 48/48/48
f 50/50/50 47/47/47 44/44/44
f 48/48/48 50/50/50 44/44/44
f 47/47/47 51/51/51 37/37/37
f 37/37/37 52/52/52 46/46/46
f 51/51/51 52/52/52 37/37/37
f 50/50/50 53/53/53 47/47/47
f 53/53/53 51/51/51 47/47/47
f 49/49/49 54/54/54 48/48/48
f 50/50/50 48/48/48 55/55/55
f 48/48/48 54/54/54 55/55/55
f 54/54/54 49/49/49 56/56/56
f 49/49/49 57/57/57 56/56/56
f 54/54/54 56/56/56 58/58/58
f 55/55/55 54/54/54 58/58/58
f 55/55/55 58/58/58 59/59/59
f 50/50/50 55/55/55 60/60/60
f 60/60/60 55/55/55 59/59/59
f 53/53/53 50/50/50 60/60/60
f 60/60/60 59/59/59 61/61/61
f 53/53/53 60/60/60 62/62/62
f 51/51/51 53/53/53 62/62/62
f 62/62/62 60/60/60 61/61/61
f 63/63/63 51/51/51 62/62/62
f 62/62/62 61/61/61 63/63/63
f 52/52/52 51/51/51 63/63/63
f 61/61/61 64/64/64 63/63/63
f 65/65/65 52/52/52 63/63/63
f 46/46/46 52/52/52 65/65/65
f 63/63/63 64/64/64 66/66/66
f 65/65/65 63/63/63 66/66/66
f 66/66/66 64/64/64 67/67/67
f 68/68/68 66/66/66 67/67/67
f 67/67/67 69/69/69 68/68/68
f 69/69/69 70/70/70 68/68/68
f 69/69/69 71/71/71 70/70/70
f 71/71/71 72/72/72 70/70/70
f 71/71/71 73/73/73 72/72/72
f 70/70/70 74/74/74 68/68/68
f 74/74/74 70/70/70 72/72/72
f 68/68/68 75/75/75 66/66/66
f 74/74/74 75/75/75 68/68/68
f 66/66/66 76/76/76 65/65/65
f 75/75/75 76/76/76 66/66/66
f 77/77/77 46/46/46 65/65/65
f 76/76/76 77/77/77 65/65/65
f 77/77/77 78/78/78 46/46/46
f 78/78/78 42/42/42 46/46/46
f 76/76/76 79/79/79 77/77/77
f 79/79/79 78/78/78 77/77/77
f 75/75/75 80/80/80 76/76/76
f 80/80/80 79/79/79 76/76/76
f 74/74/74 81/81/81 75/75/75
f 81/81/81 80/80/80 75/75/75
f 82/82/82 74/74/74 72/72/72
f 81/81/81 74/74/74 82/82/82
f 78/78/78 83/83/83 42/42/42
f 79/79/79 84/84/84 78/78/78
f 84/84/84 83/83/83 78/78/78
f 80/80/80 85/85/85 79/79/79
f 85/85/85 84/84/84 79/79/79
f 81/81/81 86/86/86 80/80/80
f 86/86/86 85/85/85 80/80/80
f 87/87/87 81/81/81 82/82/82
f 81/81/81 87/87/87 86/86/86
f 83/83/83 88/88/88 42/42/42
f 42/42/42 88/88/88 29/29/29
f 29/29/29 88/88/88 89/89/89
f 29/29/29 89/89/89 20/20/20
f 90/90/90 88/88/88 83/83/83
f 88/88/88 90/90/90 89/89/89
f 20/20/20 89/89/89 91/91/91
f 91/91/91 21/21/21 20/20/20
f 89/89/89 92/92/92 91/91/91
f 89/89/89 90/90/90 92/92/92
f 91/91/91 93/93/93 21/21/21
f 93/93/93 91/91/91 92/92/92
f 93/93/93 94/94/94 21/21/21
f 95/95/95 90/90/90 83/83/83
f 83/83/83 84/84/84 95/95/95
f 90/90/90 96/96/96 92/92/92
f 96/96/96 90/90/90 95/95/95
f 93/93/93 97/97/97 94/94/94
f 97/97/97 98/98/98 94/94/94
f 99/99/99 93/93/93 92/92/92
f 97/97/97 93/93/93 99/99/99
f 99/99/99 92/92/92 96/96/96
f 100/100/100 97/97/97 99/99/99
f 100/100/100 99/99/99 101/101/101
f 101/101/101 99/99/99 96/96/96
f 102/102/102 100/100/100 101/101/101
f 101/101/101 96/96/96 103/103/103
f 102/102/102 101/101/101 103/103/103
f 103/103/103 96/96/96 95/95/95
f 104/104/104 102/102/102 103/103/103
f 103/103/103 95/95/95 104/104/104
f 95/95/95 105/105/105 104/104/104
f 84/84/84 105/105/105 95/95/95
f 106/106/106 105/105/105 84/84/84
f 85/85/85 106/106/106 84/84/84
f 85/85/85 86/86/86 106/106/106
f 86/86/86 107/107/107 106/106/106
f 86/86/86 108/108/108 107/107/107
f 108/108/108 109/109/109 107/107/107
f 87/87/87 108/108/108 86/86/86
f 108/108/108 110/110/110 109/109/109
f 110/110/110 111/111/111 109/109/109
f 87/87/87 112/112/112 108/108/108
f 112/112/112 110/110/110 108/108/108
f 87/87/87 82/82/82 112/112/112
f 110/110/110 113/113/113 111/111/111
f 113/113/113 110/110/110 112/112/112
f 113/113/113 114/114/114 111/111/111
f 115/115/115 113/113/113 112/112/112
f 82/82/82 116/116/116 112/112/112
f 115/115/115 112/112/112 116/116/116
f 82/82/82 72/72/72 116/116/116
f 117/117/117 115/115/115 116/116/116
f 72/72/72 118/118/118 116/116/116
f 117/117/117 116/116/116 118/118/118
f 73/73/73 118/118/118 72/72/72
f 119/119/119 117/117/117 118/118/118
f 118/118/118 73/73/73 119/119/119
f 73/73/73 120/120/120 119/119/119
f 123/123/123 122/122/122 121/121/121
f 124/124/124 123/123/123 121/121/121
f 125/125/125 123/123/123 124/124/124
f 126/126/126 125/125/125 124/124/124
f 127/127/127 125/125/125 126/126/126
f 128/128/128 127/127/127 126/126/126
f 129/129/129 127/127/127 128/128/128
f 130/130/130 129/129/129 128/128/128
