g ENV_S06_Prison_Towers_Base_MO
v -21.216703 5.5981016 7.8889456
v -20.487461 5.3264484 7.283124
v -20.487461 5.5981016 7.7439356
v -21.393293 5.3264484 7.4632597
v -21.835093 5.5981016 8.302387
v -20.487461 1.949314 7.283124
v -22.161205 5.3264484 7.9762745
v -22.248533 5.5981016 8.920776
v -21.393293 1.949314 7.4632597
v -20.487461 1.8001143 7.460681
v -21.3253 1.8001143 7.6276045
v -22.161205 1.949314 7.9762745
v -22.03553 1.8001143 8.101951
v -22.67422 5.3264484 8.744185
v -22.393543 5.5981016 9.650019
v -22.67422 1.949314 8.744185
v -22.509874 1.8001143 8.81218
v -22.854355 5.3264484 9.650019
v -22.248533 5.5981016 10.379582
v -22.854355 1.949314 9.650019
v -22.676476 1.8001143 9.650019
v -22.67422 5.3264484 10.555851
v -21.835093 5.5981016 10.9979725
v -22.67422 1.949314 10.555851
v -22.509874 1.8001143 10.487857
v -22.161205 5.3264484 11.323763
v -21.216703 5.5981016 11.411091
v -22.161205 1.949314 11.323763
v -22.03553 1.8001143 11.198087
v -21.393293 5.3264484 11.836778
v -20.487461 5.5981016 11.556102
v -21.393293 1.949314 11.836778
v -21.3253 1.8001143 11.672754
v -20.487461 5.3264484 12.017235
v -19.757896 5.5981016 11.411091
v -20.487461 1.949314 12.017235
v -20.487461 1.8001143 11.839355
v -19.581629 5.3264484 11.836778
v -19.139507 5.5981016 10.9979725
v -19.581629 1.949314 11.836778
v -19.649622 1.8001143 11.672754
v -18.813717 5.3264484 11.323763
v -18.726389 5.5981016 10.379582
v -18.813717 1.949314 11.323763
v -18.939392 1.8001143 11.198087
v -18.300701 5.3264484 10.555851
v -18.581379 5.5981016 9.650019
v -18.300701 1.949314 10.555851
v -18.464725 1.8001143 10.487857
v -18.120245 5.3264484 9.650019
v -18.726389 5.5981016 8.920776
v -18.120245 1.949314 9.650019
v -18.298124 1.8001143 9.650019
v -18.300701 5.3264484 8.744185
v -19.139507 5.5981016 8.302387
v -18.300701 1.949314 8.744185
v -18.464725 1.8001143 8.81218
v -18.813717 5.3264484 7.9762745
v -19.757896 5.5981016 7.8889456
v -18.813717 1.949314 7.9762745
v -18.939392 1.8001143 8.101951
v -19.581629 5.3264484 7.4632597
v -20.487461 5.5981016 7.7439356
v -20.487461 5.3264484 7.283124
v -19.581629 1.949314 7.4632597
v -19.649622 1.8001143 7.6276045
v -20.487461 1.949314 7.283124
v -20.487461 1.8001143 7.460681
v -18.298124 1.8001143 9.650019
v -20.487461 1.7359874 9.650019
v -18.464725 1.8001143 10.487857
v -18.464725 1.8001143 8.81218
v -18.939392 1.8001143 11.198087
v -18.939392 1.8001143 8.101951
v -19.649622 1.8001143 11.672754
v -19.649622 1.8001143 7.6276045
v -20.487461 1.8001143 11.839355
v -20.487461 1.8001143 7.460681
v -21.3253 1.8001143 11.672754
v -21.3253 1.8001143 7.6276045
v -22.03553 1.8001143 11.198087
v -22.03553 1.8001143 8.101951
v -22.509874 1.8001143 10.487857
v -22.509874 1.8001143 8.81218
v -22.676476 1.8001143 9.650019
vt 0.05513016 0.5768283
vt 0.015127745 0.5701613
vt 0.015127745 0.5768283
vt 0.05513016 0.5701613
vt 0.09513258 0.5768283
vt 0.015127745 0.482656
vt 0.09513258 0.5701613
vt 0.13430162 0.5768283
vt 0.05513016 0.482656
vt 0.015127745 0.4776557
vt 0.05513016 0.4776557
vt 0.09513258 0.482656
vt 0.09513258 0.4776557
vt 0.13430162 0.5701613
vt 0.17430404 0.5768283
vt 0.13430162 0.482656
vt 0.13430162 0.4776557
vt 0.17430404 0.5701613
vt 0.21430644 0.5768283
vt 0.17430404 0.482656
vt 0.17430404 0.4776557
vt 0.21430644 0.5701613
vt 0.25430885 0.5768283
vt 0.21430644 0.482656
vt 0.21430644 0.4776557
vt 0.25430885 0.5701613
vt 0.2934779 0.5768283
vt 0.25430885 0.482656
vt 0.25430885 0.4776557
vt 0.2934779 0.5701613
vt 0.33348033 0.5768283
vt 0.2934779 0.482656
vt 0.2934779 0.4776557
vt 0.33348033 0.5701613
vt 0.37348273 0.5768283
vt 0.33348033 0.482656
vt 0.33348033 0.4776557
vt 0.37348273 0.5701613
vt 0.41348514 0.5768283
vt 0.37348273 0.482656
vt 0.37348273 0.4776557
vt 0.41348514 0.5701613
vt 0.45265418 0.5768283
vt 0.41348514 0.482656
vt 0.41348514 0.4776557
vt 0.45265418 0.5701613
vt 0.4926566 0.5768283
vt 0.45265418 0.482656
vt 0.45265418 0.4776557
vt 0.4926566 0.5701613
vt 0.532659 0.5768283
vt 0.4926566 0.482656
vt 0.4926566 0.4776557
vt 0.532659 0.5701613
vt 0.5726614 0.5768283
vt 0.532659 0.482656
vt 0.532659 0.4776557
vt 0.5726614 0.5701613
vt 0.6118304 0.5768283
vt 0.5726614 0.482656
vt 0.5726614 0.4776557
vt 0.6118304 0.5701613
vt 0.6518329 0.5768283
vt 0.6518329 0.5701613
vt 0.6118304 0.482656
vt 0.6118304 0.4776557
vt 0.6518329 0.482656
vt 0.6518329 0.4776557
vt 0.521825 0.3901504
vt 0.4518208 0.3901504
vt 0.51599133 0.36348212
vt 0.51599133 0.41681868
vt 0.50099045 0.34098077
vt 0.50099045 0.43932006
vt 0.47848907 0.32514647
vt 0.47848907 0.45515433
vt 0.4518208 0.32014617
vt 0.4518208 0.46015465
vt 0.42431915 0.32514647
vt 0.42431915 0.45515433
vt 0.40181777 0.34098077
vt 0.40181777 0.43932006
vt 0.3868169 0.36348212
vt 0.3868169 0.41681868
vt 0.38181657 0.3901504
vn -0.19157994 0.85792065 -0.4767277
vn -0.0034365654 0.105347514 -0.9944295
vn -0.0034365654 0.85792065 -0.5137707
vn -0.3797232 0.105347514 -0.9190823
vn -0.35620522 0.85792065 -0.37025663
vn -0.0034365654 -0.04359919 -0.99904317
vn -0.70113456 0.105347514 -0.7052037
vn -0.4659555 0.85792065 -0.2164663
vn -0.3797232 -0.04359919 -0.92407215
vn -0.0034365654 -0.9843156 -0.17638329
vn -0.06615102 -0.9843156 -0.16354488
vn -0.7089739 -0.04359919 -0.7038858
vn -0.12102616 -0.9843156 -0.12835716
vn -0.9206351 0.105347514 -0.3759427
vn -0.505152 0.85792065 -0.093774155
vn -0.9206351 -0.04359919 -0.3879821
vn -0.15238333 -0.9843156 -0.088894345
vn -0.99118876 0.105347514 -0.08029139
vn -0.4659555 0.85792065 0.2164663
vn -0.9990281 -0.04359919 -0.00647949
vn -0.16806197 -0.9843156 -0.05364709
vn -0.9206351 0.105347514 0.3759427
vn -0.35620522 0.85792065 0.37025663
vn -0.9206351 -0.04359919 0.3879821
vn -0.15238333 -0.9843156 0.088894345
vn -0.70113456 0.105347514 0.7052037
vn -0.19157994 0.85792065 0.4767277
vn -0.7089739 -0.04359919 0.7038858
vn -0.12102616 -0.9843156 0.12835716
vn -0.3797232 0.105347514 0.9190823
vn -0.0034365654 0.85792065 0.5137707
vn -0.3797232 -0.04359919 0.92407215
vn -0.06615102 -0.9843156 0.16354488
vn -0.0034365654 0.105347514 0.9944295
vn 0.19254595 0.85792065 0.47633833
vn -0.0034365654 -0.04359919 0.99904317
vn -0.0034365654 -0.9843156 0.17638329
vn 0.3806892 0.105347514 0.9186826
vn 0.3571713 0.85792065 0.3693248
vn 0.3806892 -0.04359919 0.92367464
vn 0.067117095 -0.9843156 0.1631508
vn 0.70210063 0.105347514 0.7042419
vn 0.46692157 0.85792065 0.21437451
vn 0.70993996 -0.04359919 0.7029114
vn 0.12199223 -0.9843156 0.1274393
vn 0.9216011 0.105347514 0.37356833
vn 0.50611806 0.85792065 -0.08841195
vn 0.9216011 -0.04359919 0.38568187
vn 0.15334946 -0.9843156 0.087216996
vn 0.99215484 0.105347514 -0.06731015
vn 0.46692157 0.85792065 -0.21437451
vn 0.9990509 -0.043558065 -0
vn 0.16902804 -0.9843156 -0.050521184
vn 0.9216011 0.105347514 -0.37356833
vn 0.3571713 0.85792065 -0.3693248
vn 0.9216011 -0.04359919 -0.38568187
vn 0.15334946 -0.9843156 -0.087216996
vn 0.70210063 0.105347514 -0.7042419
vn 0.19254595 0.85792065 -0.47633833
vn 0.70993996 -0.04359919 -0.7029114
vn 0.12199223 -0.9843156 -0.1274393
vn 0.3806892 0.105347514 -0.9186826
vn -0.0034365654 0.85792065 -0.5137707
vn -0.0034365654 0.105347514 -0.9944295
vn 0.3806892 -0.04359919 -0.92367464
vn 0.067117095 -0.9843156 -0.1631508
vn -0.0034365654 -0.04359919 -0.99904317
vn -0.0034365654 -0.9843156 -0.17638329
vn 0.16902804 -0.9843156 -0.050521184
vn -0.0034365654 -0.99999416 -0
vn 0.15334946 -0.9843156 0.087216996
vn 0.15334946 -0.9843156 -0.087216996
vn 0.12199223 -0.9843156 0.1274393
vn 0.12199223 -0.9843156 -0.1274393
vn 0.067117095 -0.9843156 0.1631508
vn 0.067117095 -0.9843156 -0.1631508
vn -0.0034365654 -0.9843156 0.17638329
vn -0.0034365654 -0.9843156 -0.17638329
vn -0.06615102 -0.9843156 0.16354488
vn -0.06615102 -0.9843156 -0.16354488
vn -0.12102616 -0.9843156 0.12835716
vn -0.12102616 -0.9843156 -0.12835716
vn -0.15238333 -0.9843156 0.088894345
vn -0.15238333 -0.9843156 -0.088894345
vn -0.16806197 -0.9843156 -0.05364709
g ENV_S06_Prison_Towers_Base_MO_0
f 3/3/3 2/2/2 1/1/1
f 2/2/2 4/4/4 1/1/1
f 1/1/1 4/4/4 5/5/5
f 2/2/2 6/6/6 4/4/4
f 4/4/4 7/7/7 5/5/5
f 5/5/5 7/7/7 8/8/8
f 6/6/6 9/9/9 4/4/4
f 4/4/4 9/9/9 7/7/7
f 6/6/6 10/10/10 9/9/9
f 10/10/10 11/11/11 9/9/9
f 9/9/9 11/11/11 12/12/12
f 9/9/9 12/12/12 7/7/7
f 11/11/11 13/13/13 12/12/12
f 7/7/7 14/14/14 8/8/8
f 7/7/7 12/12/12 14/14/14
f 8/8/8 14/14/14 15/15/15
f 12/12/12 13/13/13 16/16/16
f 12/12/12 16/16/16 14/14/14
f 13/13/13 17/17/17 16/16/16
f 14/14/14 18/18/18 15/15/15
f 14/14/14 16/16/16 18/18/18
f 15/15/15 18/18/18 19/19/19
f 16/16/16 17/17/17 20/20/20
f 16/16/16 20/20/20 18/18/18
f 17/17/17 21/21/21 20/20/20
f 18/18/18 22/22/22 19/19/19
f 18/18/18 20/20/20 22/22/22
f 19/19/19 22/22/22 23/23/23
f 20/20/20 21/21/21 24/24/24
f 20/20/20 24/24/24 22/22/22
f 21/21/21 25/25/25 24/24/24
f 22/22/22 26/26/26 23/23/23
f 22/22/22 24/24/24 26/26/26
f 23/23/23 26/26/26 27/27/27
f 24/24/24 25/25/25 28/28/28
f 24/24/24 28/28/28 26/26/26
f 25/25/25 29/29/29 28/28/28
f 26/26/26 30/30/30 27/27/27
f 26/26/26 28/28/28 30/30/30
f 27/27/27 30/30/30 31/31/31
f 28/28/28 29/29/29 32/32/32
f 28/28/28 32/32/32 30/30/30
f 29/29/29 33/33/33 32/32/32
f 30/30/30 34/34/34 31/31/31
f 30/30/30 32/32/32 34/34/34
f 31/31/31 34/34/34 35/35/35
f 32/32/32 33/33/33 36/36/36
f 32/32/32 36/36/36 34/34/34
f 33/33/33 37/37/37 36/36/36
f 34/34/34 38/38/38 35/35/35
f 34/34/34 36/36/36 38/38/38
f 35/35/35 38/38/38 39/39/39
f 36/36/36 37/37/37 40/40/40
f 36/36/36 40/40/40 38/38/38
f 37/37/37 41/41/41 40/40/40
f 38/38/38 42/42/42 39/39/39
f 38/38/38 40/40/40 42/42/42
f 39/39/39 42/42/42 43/43/43
f 40/40/40 41/41/41 44/44/44
f 40/40/40 44/44/44 42/42/42
f 41/41/41 45/45/45 44/44/44
f 42/42/42 46/46/46 43/43/43
f 42/42/42 44/44/44 46/46/46
f 43/43/43 46/46/46 47/47/47
f 44/44/44 45/45/45 48/48/48
f 44/44/44 48/48/48 46/46/46
f 45/45/45 49/49/49 48/48/48
f 46/46/46 50/50/50 47/47/47
f 46/46/46 48/48/48 50/50/50
f 47/47/47 50/50/50 51/51/51
f 48/48/48 49/49/49 52/52/52
f 48/48/48 52/52/52 50/50/50
f 49/49/49 53/53/53 52/52/52
f 50/50/50 54/54/54 51/51/51
f 50/50/50 52/52/52 54/54/54
f 51/51/51 54/54/54 55/55/55
f 52/52/52 53/53/53 56/56/56
f 52/52/52 56/56/56 54/54/54
f 53/53/53 57/57/57 56/56/56
f 54/54/54 58/58/58 55/55/55
f 54/54/54 56/56/56 58/58/58
f 55/55/55 58/58/58 59/59/59
f 56/56/56 57/57/57 60/60/60
f 56/56/56 60/60/60 58/58/58
f 57/57/57 61/61/61 60/60/60
f 58/58/58 62/62/62 59/59/59
f 58/58/58 60/60/60 62/62/62
f 59/59/59 62/62/62 63/63/63
f 62/62/62 64/64/64 63/63/63
f 60/60/60 61/61/61 65/65/65
f 60/60/60 65/65/65 62/62/62
f 62/62/62 65/65/65 64/64/64
f 61/61/61 66/66/66 65/65/65
f 65/65/65 67/67/67 64/64/64
f 65/65/65 66/66/66 67/67/67
f 66/66/66 68/68/68 67/67/67
f 71/71/71 70/70/70 69/69/69
f 69/69/69 70/70/70 72/72/72
f 73/73/73 70/70/70 71/71/71
f 72/72/72 70/70/70 74/74/74
f 75/75/75 70/70/70 73/73/73
f 74/74/74 70/70/70 76/76/76
f 77/77/77 70/70/70 75/75/75
f 76/76/76 70/70/70 78/78/78
f 79/79/79 70/70/70 77/77/77
f 78/78/78 70/70/70 80/80/80
f 81/81/81 70/70/70 79/79/79
f 80/80/80 70/70/70 82/82/82
f 83/83/83 70/70/70 81/81/81
f 82/82/82 70/70/70 84/84/84
f 85/85/85 70/70/70 83/83/83
f 84/84/84 70/70/70 85/85/85
