g ENV_FloorPlate_D
v -24.7923 -1.328989 -7.579365
v -24.7923 -2.2535706 -7.359947
v 24.7923 -2.2535706 -7.359947
v 24.7923 -1.328989 -7.579365
v 24.7923 -1.2911587 -7.5733128
v -24.7923 -1.2911587 -7.5733128
v -24.7923 1.2919159 7.5793667
v -24.7923 2.2164974 7.359949
v 24.7923 2.2164974 7.359949
v 24.7923 1.2919159 7.5793667
v -24.7923 -1.2911587 -7.5733128
v 24.7923 -1.2911587 -7.5733128
v 24.7923 -1.2684612 -7.5422916
v -24.7923 -1.2684612 -7.5422916
v -24.7923 2.2535706 7.2994175
v 24.7923 2.2535706 7.2994175
v 24.7923 2.2475185 7.3372517
v -24.7923 2.2475185 7.3372517
v -24.7923 2.2475185 7.3372517
v 24.7923 2.2475185 7.3372517
v 24.7923 2.2164974 7.359949
v -24.7923 2.2164974 7.359949
v -24.7923 1.2919159 7.5793667
v -24.7923 -2.2535706 -7.359947
v -24.7923 -1.328989 -7.579365
v -24.7923 -1.2911587 -7.5733128
v -24.7923 -1.2684612 -7.5422916
v -24.7923 2.2535706 7.2994175
v -24.7923 2.2164974 7.359949
v -24.7923 2.2475185 7.3372517
v 24.7923 -1.328989 -7.579365
v 24.7923 -2.2535706 -7.359947
v 24.7923 1.2919159 7.5793667
v 24.7923 -1.2911587 -7.5733128
v 24.7923 -1.2684612 -7.5422916
v 24.7923 2.2535706 7.2994175
v 24.7923 2.2164974 7.359949
v 24.7923 2.2475185 7.3372517
vt 1.3102525 -1.6499417
vt 1.2164563 -1.6509612
vt 1.1731263 2.4893346
vt 1.2669228 2.4898443
vt 1.270491 2.4898443
vt 1.3143307 -1.6499417
vt 1.1792434 -1.6509612
vt 1.0854472 -1.6519808
vt 1.0416075 2.488315
vt 1.1354038 2.4888248
vt -0.54222643 -1.6774689
vt -0.5371288 2.497491
vt -0.5335605 2.497491
vt -0.5381484 -1.6774689
vt 0.98043597 -1.6769592
vt 0.9855336 2.4980006
vt 0.98910177 2.4980006
vt 0.9845139 -1.6769592
vt 1.0818788 -1.6519808
vt 1.0380391 2.4878054
vt 1.0416075 2.488315
vt 1.0854472 -1.6519808
vt -0.7318584 1.1129743
vt -0.73746574 2.4062433
vt -0.6431596 2.406753
vt -0.6395912 2.4052238
vt -0.638062 2.4026752
vt -0.6319448 1.1175622
vt -0.6370424 1.113484
vt -0.6334741 1.1145035
vt -0.7711101 1.1114451
vt -0.865926 1.1104256
vt -0.8878459 2.404714
vt -0.76754177 1.1129743
vt -0.7660125 1.116033
vt -0.7879323 2.4021654
vt -0.7930299 2.4062433
vt -0.7894616 2.404714
vn -0.003921509 -0.21568465 -0.9764552
vn -0.003921509 -0.2313708 -0.9728577
vn -0.003921509 -0.2313708 -0.9728577
vn -0.003921509 -0.21568465 -0.9764552
vn -0.003921509 0.5215646 -0.85320276
vn -0.003921509 0.5215646 -0.85320276
vn -0.003921509 0.23137069 0.9728578
vn -0.003921509 0.24705684 0.96899307
vn -0.003921509 0.24705684 0.96899307
vn -0.003921509 0.23137069 0.9728578
vn -0.003921509 0.5215646 -0.85320276
vn -0.003921509 0.5215646 -0.85320276
vn -0.003921509 0.9764631 -0.21564901
vn -0.003921509 0.9764631 -0.21564901
vn -0.003921509 0.9764631 -0.21564901
vn -0.003921509 0.9764631 -0.21564901
vn -0.003921509 0.85097384 0.5251934
vn -0.003921509 0.85097384 0.5251934
vn -0.003921509 0.85097384 0.5251934
vn -0.003921509 0.85097384 0.5251934
vn -0.003921509 0.24705684 0.96899307
vn -0.003921509 0.24705684 0.96899307
vn -0.99999225 0.003921509 -0.00034492963
vn -0.99999225 0.003921509 -0.00034492963
vn -0.99999225 0.003921509 -0.00034492963
vn -0.99999225 0.003921509 -0.00034492963
vn -0.99999225 0.003921509 -0.00034492963
vn -0.99999225 0.003921509 -0.00034492963
vn -0.99999225 0.003921509 -0.00034492963
vn -0.99999225 0.003921509 -0.00034492963
vn 0.9999924 -0.0039215684 -0
vn 0.9999924 -0.0039215684 -0
vn 0.9999924 -0.0039215684 -0
vn 0.9999924 -0.0039215684 -0
vn 0.9999924 -0.0039215684 -0
vn 0.9999924 -0.0039215684 -0
vn 0.9999924 -0.0039215684 -0
vn 0.9999924 -0.0039215684 -0
g ENV_FloorPlate_D_0
f 3/3/3 2/2/2 1/1/1
f 4/4/4 3/3/3 1/1/1
f 5/5/5 4/4/4 1/1/1
f 6/6/6 5/5/5 1/1/1
f 9/9/9 8/8/8 7/7/7
f 10/10/10 9/9/9 7/7/7
f 13/13/13 12/12/12 11/11/11
f 14/14/14 13/13/13 11/11/11
f 13/13/13 14/14/14 15/15/15
f 16/16/16 13/13/13 15/15/15
f 17/17/17 16/16/16 15/15/15
f 18/18/18 17/17/17 15/15/15
f 21/21/21 20/20/20 19/19/19
f 22/22/22 21/21/21 19/19/19
f 25/25/25 24/24/24 23/23/23
f 23/23/23 26/26/26 25/25/25
f 23/23/23 27/27/27 26/26/26
f 23/23/23 28/28/28 27/27/27
f 23/23/23 29/29/29 28/28/28
f 29/29/29 30/30/30 28/28/28
f 33/33/33 32/32/32 31/31/31
f 31/31/31 34/34/34 33/33/33
f 34/34/34 35/35/35 33/33/33
f 35/35/35 36/36/36 33/33/33
f 36/36/36 37/37/37 33/33/33
f 36/36/36 38/38/38 37/37/37
