g ENV_S06_Slime_MO
v -17.266232 6.664301 -12.814119
v -17.266232 7.347431 -14.241909
v -15.140587 7.347431 -14.241909
v -15.140587 6.664301 -12.814119
v 15.0722885 7.348484 -14.244538
v -15.141113 -6.6906614 15.365669
v -17.262024 -6.6906614 15.365669
v 15.0722885 6.6648273 -12.81517
v 17.197933 7.348484 -14.244538
v 17.197407 6.6648273 -12.81517
v 17.192148 -6.690136 15.364616
v -15.141113 -7.373266 16.793457
v -17.261501 -7.373266 16.793457
v 15.071762 -6.690136 15.364616
v 15.071236 -7.3737917 16.793983
v 17.192148 -7.3737917 16.79451
vt 0.14893028 0.8175417
vt 0.14893028 0.84980536
vt 0.19217722 0.84980536
vt 0.19217722 0.8175417
vt 0.8079313 0.84980536
vt 0.19217722 0.18188033
vt 0.14893028 0.18188033
vt 0.8079313 0.8175417
vt 0.8511783 0.84980536
vt 0.8511783 0.8175417
vt 0.8511783 0.18188033
vt 0.19217722 0.14961675
vt 0.14893028 0.14961675
vt 0.8079313 0.18188033
vt 0.8079313 0.14961675
vt 0.8511783 0.14961675
vn -0 0.90358305 0.42841294
vn -0 0.90358305 0.42841294
vn -0 0.90358305 0.42841294
vn -0 0.90358305 0.42841294
vn -0 0.90358305 0.42841294
vn -0 0.90358305 0.42841294
vn -0 0.90358305 0.42841294
vn -0 0.90358305 0.42841294
vn -0 0.90358305 0.42841294
vn -0 0.90358305 0.42841294
vn -0 0.90358305 0.42841294
vn -0 0.90358305 0.42841294
vn -0 0.90358305 0.42841294
vn -0 0.90358305 0.42841294
vn -0 0.90358305 0.42841294
vn -0 0.90358305 0.42841294
g ENV_S06_Slime_MO_0
f 3/3/3 2/2/2 1/1/1
f 4/4/4 3/3/3 1/1/1
f 5/5/5 3/3/3 4/4/4
f 4/4/4 1/1/1 6/6/6
f 1/1/1 7/7/7 6/6/6
f 8/8/8 5/5/5 4/4/4
f 4/4/4 6/6/6 8/8/8
f 5/5/5 8/8/8 9/9/9
f 8/8/8 10/10/10 9/9/9
f 11/11/11 10/10/10 8/8/8
f 6/6/6 7/7/7 12/12/12
f 7/7/7 13/13/13 12/12/12
f 6/6/6 14/14/14 8/8/8
f 14/14/14 6/6/6 12/12/12
f 14/14/14 11/11/11 8/8/8
f 15/15/15 14/14/14 12/12/12
f 14/14/14 15/15/15 11/11/11
f 15/15/15 16/16/16 11/11/11
