g ENV_EndSection_Small
v 0.00014591217 0.0001449585 -8.336154
v -9.516433 0.0001449585 8.336154
v -9.516433 0.0001449585 -8.336154
v -0.0001449585 0.0001449585 8.336154
v 9.516433 0.0001449585 -8.336154
v 9.516433 0.0001449585 8.336154
vt 0.49979466 1.2020552
vt -0.5295741 -0.5633071
vt -0.5295741 1.2020552
vt 0.49979466 -0.5633071
vt 1.5296745 1.2020552
vt 1.5296745 -0.5633071
vn -0 1 -0
vn -0 1 -0
vn -0 1 -0
vn -0 1 -0
vn -0 1 -0
vn -0 1 -0
g ENV_EndSection_Small_0
f 3/3/3 2/2/2 1/1/1
f 2/2/2 4/4/4 1/1/1
f 1/1/1 4/4/4 5/5/5
f 4/4/4 6/6/6 5/5/5
