g ENV_S09_Coral_Piece_01m_MO
v 64.12673 7.9922814 68.193016
v 71.85361 7.476807E-05 70.259224
v 73.486885 7.476807E-05 81.623955
v 66.34673 7.9922814 81.623955
v 62.580013 7.9922814 94.00727
v 68.67048 7.476807E-05 97.70403
v 52.57048 7.476807E-05 108.94508
v 49.155327 7.9922814 102.723755
v 31.948141 7.476807E-05 108.78505
v 31.948141 7.9922814 101.70028
v 14.898296 7.992286 94.58055
v 12.950171 7.9650876E-05 102.18638
v -3.2348273 7.9650876E-05 105.26747
v -3.2348273 7.9922814 98.16938
v -24.963264 -3.3569336E-06 102.89102
v -23.163733 7.9922814 95.98997
v -45.07436 7.9922814 86.72513
v -48.57592 7.476807E-05 92.90122
v -68.78608 0.0005093384 78.475555
v -63.79139 7.9922814 73.3645
v -78.00936 7.9922814 54.68981
v -84.13576 7.476807E-05 58.312664
v -94.11482 -0.002371521 35.96806
v -87.225136 7.9922814 34.073917
v -90.03607 7.9922814 11.095987
v -97.151695 -0.0042123413 11.063722
v -94.848885 -0.0024447632 -13.697176
v -87.909195 7.9922814 -11.787645
v -78.00686 7.9922814 -32.571392
v -84.13576 7.476807E-05 -36.185143
v -75.06514 7.476807E-05 -45.053272
v -69.020454 7.9922814 -41.356865
v -69.91108 7.9650876E-05 -60.84374
v -63.90186 7.9922814 -57.03952
v -59.171234 7.9922814 -73.08452
v -65.14795 7.476807E-05 -76.99913
v -53.598267 2.593994E-05 -90.56491
v -48.80389 7.9922814 -85.261
v -34.85217 7.9922814 -94.07584
v -38.054512 7.476807E-05 -100.38515
v -18.690765 7.9922814 -100.25429
v -20.341858 0.00037261963 -107.15569
v -1.0829524 7.9922814 -101.89061
v -1.0442024 1.6174316E-05 -108.945145
v 16.196577 7.9922814 -100.23467
v 17.84986 -0.0018295287 -107.12507
v 34.824234 7.9922814 -93.49069
v 38.025017 -0.0031820678 -99.79702
v 48.300484 7.9922814 -83.57577
v 53.106262 -0.0018148803 -88.91889
v 59.14173 7.9922814 -68.08546
v 65.118454 7.476807E-05 -71.99999
v 72.093765 7.476807E-05 -47.89827
v 66.05189 7.9922814 -44.19296
v 84.135796 7.476807E-05 -36.185143
v 78.00908 7.9922814 -32.562332
v 87.2258 7.9922814 -11.931161
v 94.1133 -0.0038754272 -13.84077
v 90.03439 7.9922814 11.063722
v 97.15173 -0.0068392945 11.063722
v 87.91221 7.9922814 33.933216
v 94.85658 -0.003987732 35.832474
v 78.00908 7.9922814 54.68981
v 84.135796 7.476807E-05 58.312664
v 71.85361 7.476807E-05 70.259224
v 64.12673 7.9922814 68.193016
v 14.898296 7.992286 94.58055
v -3.2348273 7.9922814 98.16938
v -23.163733 7.9922814 95.98997
v -45.07436 7.9922814 86.72513
v 66.34673 7.9922814 81.623955
v -63.79139 7.9922814 73.3645
v 62.580013 7.9922814 94.00727
v 31.948141 7.9922814 101.70028
v 49.155327 7.9922814 102.723755
v 64.12673 7.9922814 68.193016
v 78.00908 7.9922814 54.68981
v -78.00936 7.9922814 54.68981
v 87.91221 7.9922814 33.933216
v -87.225136 7.9922814 34.073917
v 90.03439 7.9922814 11.063722
v -90.03607 7.9922814 11.095987
v 87.2258 7.9922814 -11.931161
v -87.909195 7.9922814 -11.787645
v 78.00908 7.9922814 -32.562332
v -78.00686 7.9922814 -32.571392
v -69.020454 7.9922814 -41.356865
v 66.05189 7.9922814 -44.19296
v -63.90186 7.9922814 -57.03952
v 59.14173 7.9922814 -68.08546
v 48.300484 7.9922814 -83.57577
v -59.171234 7.9922814 -73.08452
v 34.824234 7.9922814 -93.49069
v -48.80389 7.9922814 -85.261
v 16.196577 7.9922814 -100.23467
v -34.85217 7.9922814 -94.07584
v -1.0829524 7.9922814 -101.89061
v -18.690765 7.9922814 -100.25429
vt 0.019531906 0.20768243
vt 0.019531906 0.19892557
vt 0.019387305 0.19892557
vt 0.019387305 0.20768245
vt 0.019195467 0.20768245
vt 0.019195467 0.19892555
vt 0.018966615 0.19892555
vt 0.018966615 0.20768245
vt 0.01867047 0.19892557
vt 0.01867047 0.20768245
vt 0.01842764 0.20768243
vt 0.01842767 0.19892558
vt 0.018197551 0.19892557
vt 0.018197551 0.20768243
vt 0.01795926 0.19892557
vt 0.017959267 0.20768218
vt 0.017633084 0.20768216
vt 0.01763308 0.19892557
vt 0.017319316 0.19892547
vt 0.017319316 0.20768207
vt 0.016956346 0.20768222
vt 0.016956346 0.19892552
vt 0.016646268 0.19892547
vt 0.01664627 0.20768216
vt 0.016342327 0.20768207
vt 0.016342327 0.1989254
vt 0.016040906 0.1989254
vt 0.016040906 0.2076821
vt 0.015725136 0.20768216
vt 0.015725136 0.19892576
vt 0.015560657 0.1989254
vt 0.015560657 0.20768219
vt 0.01534462 0.19892558
vt 0.01534462 0.20768213
vt 0.015126288 0.20768213
vt 0.015126288 0.19892544
vt 0.014904261 0.19892544
vt 0.014904261 0.20768225
vt 0.014684558 0.20768225
vt 0.014684558 0.19892544
vt 0.014467597 0.20768213
vt 0.014467597 0.1989255
vt 0.014242172 0.20768213
vt 0.014242172 0.19892547
vt 0.014007807 0.2076821
vt 0.014007807 0.19892547
vt 0.013735592 0.20768216
vt 0.013735592 0.1989254
vt 0.013504565 0.20768216
vt 0.013504565 0.1989254
vt 0.013259113 0.20768216
vt 0.013259113 0.19892552
vt 0.013069451 0.19892552
vt 0.013069451 0.20768222
vt 0.012868106 0.19892547
vt 0.012868106 0.20768207
vt 0.012562096 0.20768216
vt 0.012562096 0.19892557
vt 0.012243569 0.20768218
vt 0.012243569 0.19892557
vt 0.011932015 0.20768243
vt 0.011932015 0.19892558
vt 0.011640847 0.20768243
vt 0.011640847 0.19892557
vt 0.011446953 0.19892557
vt 0.011446953 0.20768243
vt 0.014495396 0.19988027
vt 0.013770203 0.20008323
vt 0.013085766 0.20052883
vt 0.012459583 0.20126858
vt 0.016604 0.19940528
vt 0.012024798 0.20209846
vt 0.016239384 0.19902438
vt 0.014984329 0.19930792
vt 0.01559108 0.19895431
vt 0.016770272 0.1999344
vt 0.017523216 0.20017001
vt 0.0118513 0.20303872
vt 0.01826491 0.20074254
vt 0.011895332 0.2039577
vt 0.018762572 0.2015349
vt 0.012215653 0.20484474
vt 0.019083275 0.20242247
vt 0.012713734 0.20563754
vt 0.019127587 0.20334199
vt 0.013455898 0.20621103
vt 0.013944133 0.2063652
vt 0.018906733 0.20398471
vt 0.014418596 0.2068412
vt 0.01909482 0.20498034
vt 0.018985534 0.20574287
vt 0.014885581 0.20733759
vt 0.018677922 0.20635107
vt 0.015486366 0.20758957
vt 0.018124728 0.20693874
vt 0.01615564 0.2076535
vt 0.017526986 0.20731667
vt 0.016856791 0.20758095
vn 0.028932568 0.9995054 0.0123292785
vn 0.64956355 0.69970506 0.29745585
vn 0.740656 0.6691987 0.060013875
vn 0.095538095 0.9953849 0.009027516
vn 0.15366113 0.9803043 0.1240634
vn 0.5888125 0.6710282 0.4505786
vn 0.22365561 0.66038626 0.7168459
vn 0.100987256 0.9080625 0.40647775
vn -0.13942064 0.6577453 0.74022496
vn -0.08463254 0.91707724 0.38962382
vn -0.014550031 0.9927289 0.11948932
vn -0.05860011 0.6795514 0.7312838
vn 0.018774927 0.6654174 0.7462353
vn 0.012222787 0.91549927 0.40213394
vn -0.1966248 0.6657147 0.7198351
vn -0.11492435 0.89982396 0.42084345
vn -0.0626497 0.99167 0.11254177
vn -0.36395726 0.664192 0.65298086
vn -0.5199161 0.6665439 0.5342346
vn -0.06658613 0.99542737 0.068487726
vn -0.056677144 0.9978206 0.033789687
vn -0.64159524 0.6649351 0.3823831
vn -0.7188501 0.6663748 0.19798803
vn -0.053146683 0.9984792 0.014656889
vn -0.050183766 0.99873966 0.00078646623
vn -0.74691385 0.66483927 0.010419364
vn -0.7164759 0.6691278 -0.19730735
vn -0.05463307 0.9983931 -0.015046909
vn -0.04761686 0.99839693 -0.030595003
vn -0.6332634 0.66474384 -0.39634952
vn -0.64807075 0.66325843 -0.37428933
vn -0.03961308 0.9989549 -0.022801192
vn -0.7248557 0.65154785 -0.22376233
vn -0.05195729 0.9985176 -0.016220566
vn -0.08172662 0.9957014 -0.043582164
vn -0.6532991 0.6654365 -0.36110157
vn -0.4878381 0.6666322 -0.5635738
vn -0.091646634 0.9900864 -0.10644144
vn -0.105457656 0.9716285 -0.21169956
vn -0.33416182 0.6628485 -0.67005056
vn -0.11408147 0.8620355 -0.49384236
vn -0.16882305 0.66390467 -0.72851175
vn 0.000283085 0.86560327 -0.50073034
vn 0.0006569728 0.66167486 -0.74979055
vn 0.058051016 0.96682125 -0.24877076
vn 0.17115657 0.6631262 -0.7286762
vn 0.07031896 0.9882834 -0.13546683
vn 0.3426477 0.66486776 -0.6637344
vn 0.070283614 0.99525046 -0.067355886
vn 0.5332621 0.6674454 -0.51975787
vn 0.07782492 0.9963611 -0.034752555
vn 0.67932546 0.66109884 -0.31853616
vn 0.6617339 0.66268843 -0.35064536
vn 0.054871224 0.99806577 -0.029220942
vn 0.6286591 0.6646945 -0.40369403
vn 0.05264857 0.9980101 -0.03469823
vn 0.05313629 0.99848 -0.01463789
vn 0.71879405 0.6664393 -0.19797459
vn 0.050193045 0.9987393 -0.00078260485
vn 0.74690247 0.6648481 -0.010662559
vn 0.05467749 0.9983903 0.015068436
vn 0.7164843 0.6691405 0.19723387
vn 0.05002609 0.9981511 0.034518972
vn 0.62067115 0.66434884 0.41642275
vn 0.64956355 0.69970506 0.29745585
vn 0.028932568 0.9995054 0.0123292785
vn -0.014550031 0.9927289 0.11948932
vn 0.012222787 0.91549927 0.40213394
vn -0.11492435 0.89982396 0.42084345
vn -0.0626497 0.99167 0.11254177
vn 0.095538095 0.9953849 0.009027516
vn -0.06658613 0.99542737 0.068487726
vn 0.15366113 0.9803043 0.1240634
vn -0.08463254 0.91707724 0.38962382
vn 0.100987256 0.9080625 0.40647775
vn 0.028932568 0.9995054 0.0123292785
vn 0.05002609 0.9981511 0.034518972
vn -0.056677144 0.9978206 0.033789687
vn 0.05467749 0.9983903 0.015068436
vn -0.053146683 0.9984792 0.014656889
vn 0.050193045 0.9987393 -0.00078260485
vn -0.050183766 0.99873966 0.00078646623
vn 0.05313629 0.99848 -0.01463789
vn -0.05463307 0.9983931 -0.015046909
vn 0.05264857 0.9980101 -0.03469823
vn -0.04761686 0.99839693 -0.030595003
vn -0.03961308 0.9989549 -0.022801192
vn 0.054871224 0.99806577 -0.029220942
vn -0.05195729 0.9985176 -0.016220566
vn 0.07782492 0.9963611 -0.034752555
vn 0.070283614 0.99525046 -0.067355886
vn -0.08172662 0.9957014 -0.043582164
vn 0.07031896 0.9882834 -0.13546683
vn -0.091646634 0.9900864 -0.10644144
vn 0.058051016 0.96682125 -0.24877076
vn -0.105457656 0.9716285 -0.21169956
vn 0.000283085 0.86560327 -0.50073034
vn -0.11408147 0.8620355 -0.49384236
g ENV_S09_Coral_Piece_01m_MO_0
f 3/3/3 2/2/2 1/1/1
f 4/4/4 3/3/3 1/1/1
f 3/3/3 4/4/4 5/5/5
f 6/6/6 3/3/3 5/5/5
f 6/6/6 5/5/5 7/7/7
f 5/5/5 8/8/8 7/7/7
f 7/7/7 8/8/8 9/9/9
f 8/8/8 10/10/10 9/9/9
f 10/10/10 11/11/11 9/9/9
f 11/11/11 12/12/12 9/9/9
f 12/12/12 11/11/11 13/13/13
f 11/11/11 14/14/14 13/13/13
f 13/13/13 14/14/14 15/15/15
f 14/14/14 16/16/16 15/15/15
f 15/15/15 16/16/16 17/17/17
f 18/18/18 15/15/15 17/17/17
f 18/18/18 17/17/17 19/19/19
f 17/17/17 20/20/20 19/19/19
f 19/19/19 20/20/20 21/21/21
f 22/22/22 19/19/19 21/21/21
f 22/22/22 21/21/21 23/23/23
f 21/21/21 24/24/24 23/23/23
f 23/23/23 24/24/24 25/25/25
f 26/26/26 23/23/23 25/25/25
f 27/27/27 26/26/26 25/25/25
f 28/28/28 27/27/27 25/25/25
f 28/28/28 29/29/29 27/27/27
f 29/29/29 30/30/30 27/27/27
f 31/31/31 30/30/30 29/29/29
f 32/32/32 31/31/31 29/29/29
f 31/31/31 32/32/32 33/33/33
f 32/32/32 34/34/34 33/33/33
f 33/33/33 34/34/34 35/35/35
f 36/36/36 33/33/33 35/35/35
f 37/37/37 36/36/36 35/35/35
f 38/38/38 37/37/37 35/35/35
f 38/38/38 39/39/39 37/37/37
f 39/39/39 40/40/40 37/37/37
f 39/39/39 41/41/41 40/40/40
f 41/41/41 42/42/42 40/40/40
f 41/41/41 43/43/43 42/42/42
f 43/43/43 44/44/44 42/42/42
f 43/43/43 45/45/45 44/44/44
f 45/45/45 46/46/46 44/44/44
f 45/45/45 47/47/47 46/46/46
f 47/47/47 48/48/48 46/46/46
f 47/47/47 49/49/49 48/48/48
f 49/49/49 50/50/50 48/48/48
f 49/49/49 51/51/51 50/50/50
f 51/51/51 52/52/52 50/50/50
f 53/53/53 52/52/52 51/51/51
f 54/54/54 53/53/53 51/51/51
f 53/53/53 54/54/54 55/55/55
f 54/54/54 56/56/56 55/55/55
f 56/56/56 57/57/57 55/55/55
f 57/57/57 58/58/58 55/55/55
f 57/57/57 59/59/59 58/58/58
f 59/59/59 60/60/60 58/58/58
f 59/59/59 61/61/61 60/60/60
f 61/61/61 62/62/62 60/60/60
f 61/61/61 63/63/63 62/62/62
f 63/63/63 64/64/64 62/62/62
f 65/65/65 64/64/64 63/63/63
f 66/66/66 65/65/65 63/63/63
f 69/69/69 68/68/68 67/67/67
f 70/70/70 69/69/69 67/67/67
f 70/70/70 67/67/67 71/71/71
f 72/72/72 70/70/70 71/71/71
f 67/67/67 73/73/73 71/71/71
f 67/67/67 74/74/74 73/73/73
f 74/74/74 75/75/75 73/73/73
f 76/76/76 72/72/72 71/71/71
f 76/76/76 77/77/77 72/72/72
f 77/77/77 78/78/78 72/72/72
f 77/77/77 79/79/79 78/78/78
f 79/79/79 80/80/80 78/78/78
f 79/79/79 81/81/81 80/80/80
f 81/81/81 82/82/82 80/80/80
f 81/81/81 83/83/83 82/82/82
f 83/83/83 84/84/84 82/82/82
f 83/83/83 85/85/85 84/84/84
f 85/85/85 86/86/86 84/84/84
f 87/87/87 86/86/86 85/85/85
f 88/88/88 87/87/87 85/85/85
f 89/89/89 87/87/87 88/88/88
f 90/90/90 89/89/89 88/88/88
f 90/90/90 91/91/91 89/89/89
f 91/91/91 92/92/92 89/89/89
f 91/91/91 93/93/93 92/92/92
f 93/93/93 94/94/94 92/92/92
f 93/93/93 95/95/95 94/94/94
f 95/95/95 96/96/96 94/94/94
f 95/95/95 97/97/97 96/96/96
f 97/97/97 98/98/98 96/96/96
