g ENV_S06_IB_TopCorner_FloorHP07_MO
v -36.733673 0.8039532 1.4549007
v -36.704422 1.6036186 1.5256023
v -36.704422 0.8039532 1.5256023
v -36.733673 1.6036186 1.4549007
v -36.704422 1.6743221 1.4549007
v -36.691414 1.6613197 1.5126
v -36.704422 1.6743221 -1.525156
v -36.733673 1.6036186 -1.525156
v -36.733673 0.8039532 -1.525156
v -36.704422 1.6743221 -4.5052137
v -36.733673 1.6036186 -4.5052137
v -36.733673 0.8039532 -4.5052137
v -36.704422 1.6743221 -7.484458
v -36.733673 1.6036186 -7.484458
v -36.733673 0.8039532 -7.484458
v -36.704422 1.6743221 -10.464516
v -36.733673 1.6036186 -10.464516
v -36.733673 0.8039532 -10.464516
v -36.704422 1.6743221 -13.444572
v -36.733673 1.6036186 -13.444572
v -36.733673 0.8039532 -13.444572
v -36.704422 1.6743221 -16.42463
v -36.733673 1.6036186 -16.42463
v -36.733673 0.8039532 -16.42463
v -36.704422 0.8039532 -16.49533
v -36.704422 1.6036186 -16.49533
v -36.691414 1.6613197 -16.482328
v -36.704422 1.6036186 -16.49533
v -36.704422 0.8039532 -16.49533
v -36.633713 0.8039532 -16.524588
v -36.633713 1.6036186 -16.524588
v -36.633713 1.6743221 -16.49533
v -36.691414 1.6613197 -16.482328
v -33.83326 1.6743221 -16.49533
v -33.83326 1.6036186 -16.524588
v -33.83326 0.8039532 -16.524588
v -33.762558 0.8039532 -16.49533
v -33.762558 1.6036186 -16.49533
v -33.77556 1.6613197 -16.482328
v -33.762558 1.6743221 -16.42463
v -33.762558 1.6743221 -13.444572
v -33.83326 1.703577 -13.444572
v -33.83326 1.703577 -16.42463
v -36.633713 1.703577 -13.444572
v -33.83326 1.6743221 -16.49533
v -33.77556 1.6613197 -16.482328
v -36.633713 1.6743221 -16.49533
v -36.633713 1.703577 -16.42463
v -36.704422 1.6743221 -13.444572
v -36.704422 1.6743221 -16.42463
v -36.691414 1.6613197 -16.482328
v -33.762558 1.6036186 -16.49533
v -33.762558 0.8039532 -16.49533
v -33.7333 0.8039532 -16.42463
v -33.7333 1.6036186 -16.42463
v -33.762558 1.6743221 -16.42463
v -33.77556 1.6613197 -16.482328
v -33.762558 1.6743221 -13.444572
v -33.7333 1.6036186 -13.444572
v -33.7333 0.8039532 -13.444572
v -33.762558 1.6743221 -10.464516
v -33.7333 1.6036186 -10.464516
v -33.7333 0.8039532 -10.464516
v -33.762558 1.6743221 -7.484458
v -33.7333 1.6036186 -7.484458
v -33.7333 0.8039532 -7.484458
v -33.762558 1.6743221 -4.5052137
v -33.7333 1.6036186 -4.5052137
v -33.7333 0.8039532 -4.5052137
v -33.762558 1.6743221 -1.525156
v -33.7333 1.6036186 -1.525156
v -33.7333 0.8039532 -1.525156
v -33.762558 1.6743221 1.4549007
v -33.7333 1.6036186 1.4549007
v -33.7333 0.8039532 1.4549007
v -33.762558 0.8039532 1.5256023
v -33.762558 1.6036186 1.5256023
v -33.77556 1.6613197 1.5126
v -33.762558 1.6036186 1.5256023
v -33.762558 0.8039532 1.5256023
v -33.83326 0.8039532 1.5548592
v -33.83326 1.6036186 1.5548592
v -33.83326 1.6743221 1.5256023
v -33.77556 1.6613197 1.5126
v -36.633713 1.6743221 1.5256023
v -36.633713 1.6036186 1.5548592
v -36.633713 0.8039532 1.5548592
v -36.704422 0.8039532 1.5256023
v -36.704422 1.6036186 1.5256023
v -36.691414 1.6613197 1.5126
v -36.633713 1.6743221 1.5256023
v -36.691414 1.6613197 1.5126
v -36.704422 1.6743221 1.4549007
v -36.633713 1.703577 1.4549007
v -33.83326 1.6743221 1.5256023
v -36.633713 1.703577 -1.525156
v -36.704422 1.6743221 -1.525156
v -33.83326 1.703577 -1.525156
v -33.83326 1.703577 1.4549007
v -33.762558 1.6743221 -1.525156
v -33.762558 1.6743221 1.4549007
v -33.77556 1.6613197 1.5126
v -36.704422 1.6743221 -10.464516
v -36.704422 1.6743221 -13.444572
v -36.633713 1.703577 -13.444572
v -36.633713 1.703577 -10.464516
v -33.83326 1.703577 -13.444572
v -33.83326 1.703577 -10.464516
v -33.762558 1.6743221 -13.444572
v -33.762558 1.6743221 -10.464516
v -36.704422 1.6743221 -7.484458
v -36.704422 1.6743221 -10.464516
v -36.633713 1.703577 -10.464516
v -36.633713 1.703577 -7.484458
v -33.83326 1.703577 -10.464516
v -33.83326 1.703577 -7.484458
v -33.762558 1.6743221 -10.464516
v -33.762558 1.6743221 -7.484458
v -36.704422 1.6743221 -4.5052137
v -36.704422 1.6743221 -7.484458
v -36.633713 1.703577 -7.484458
v -36.633713 1.703577 -4.5052137
v -33.83326 1.703577 -7.484458
v -33.83326 1.703577 -4.5052137
v -33.762558 1.6743221 -7.484458
v -33.762558 1.6743221 -4.5052137
v -36.704422 1.6743221 -1.525156
v -36.704422 1.6743221 -4.5052137
v -36.633713 1.703577 -4.5052137
v -36.633713 1.703577 -1.525156
v -33.83326 1.703577 -4.5052137
v -33.83326 1.703577 -1.525156
v -33.762558 1.6743221 -4.5052137
v -33.762558 1.6743221 -1.525156
vt 0.7677394 -1.8331586
vt 0.97812307 -1.8522319
vt 0.7677394 -1.8522319
vt 0.97812307 -1.8331586
vt 0.99199474 -1.8331586
vt 0.99199474 -1.8522319
vt 0.99199474 -1.0505773
vt 0.97812307 -1.0505773
vt 0.7677394 -1.0505773
vt 0.99199474 -0.26799595
vt 0.97812307 -0.26799595
vt 0.7677394 -0.26799595
vt 0.99199474 0.5145854
vt 0.97812307 0.5145854
vt 0.7677394 0.5145854
vt 0.99199474 1.2977446
vt 0.97812307 1.2977446
vt 0.7677394 1.2977446
vt 0.99199474 2.080326
vt 0.97812307 2.080326
vt 0.7677394 2.080326
vt 0.99199474 2.8629074
vt 0.97812307 2.8629074
vt 0.7677394 2.8629074
vt 0.7677394 2.8819804
vt 0.97812307 2.8819804
vt 0.99199474 2.8819804
vt 0.97870123 0.12387264
vt 0.76831734 0.12387264
vt 0.76831734 0.14294589
vt 0.97870123 0.14294589
vt 0.9914166 0.14294589
vt 0.9914166 0.12387264
vt 0.9914166 0.8868028
vt 0.97870123 0.8868028
vt 0.76831734 0.8868028
vt 0.76831734 0.90587604
vt 0.97870123 0.90587604
vt 0.9914166 0.90587604
vt 0.6197773 0.9798571
vt 0.6197773 0.8683075
vt 0.61688745 0.8683075
vt 0.61688745 0.9798571
vt 0.5111176 0.8683075
vt 0.61688745 0.98274696
vt 0.6197773 0.98274696
vt 0.5111176 0.98274696
vt 0.5111176 0.9798571
vt 0.5082277 0.8683075
vt 0.5082277 0.9798571
vt 0.5082277 0.98274696
vt 0.78161085 2.8819804
vt 0.99199474 2.8819804
vt 0.99199474 2.8629074
vt 0.78161085 2.8629074
vt 0.7677394 2.8629074
vt 0.7677394 2.8819804
vt 0.7677394 2.080326
vt 0.78161085 2.080326
vt 0.99199474 2.080326
vt 0.7677394 1.2977446
vt 0.78161085 1.2977446
vt 0.99199474 1.2977446
vt 0.7677394 0.5145854
vt 0.78161085 0.5145854
vt 0.99199474 0.5145854
vt 0.7677394 -0.26799595
vt 0.78161085 -0.26799595
vt 0.99199474 -0.26799595
vt 0.7677394 -1.0505773
vt 0.78161085 -1.0505773
vt 0.99199474 -1.0505773
vt 0.7677394 -1.8331586
vt 0.78161085 -1.8331586
vt 0.99199474 -1.8331586
vt 0.99199474 -1.8522319
vt 0.78161085 -1.8522319
vt 0.7677394 -1.8522319
vt 0.7810329 0.90587604
vt 0.9914166 0.90587604
vt 0.9914166 0.8868028
vt 0.7810329 0.8868028
vt 0.76831734 0.8868028
vt 0.76831734 0.90587604
vt 0.76831734 0.14294589
vt 0.7810329 0.14294589
vt 0.9914166 0.14294589
vt 0.9914166 0.12387264
vt 0.7810329 0.12387264
vt 0.76831734 0.12387264
vt 0.5111176 0.5163194
vt 0.5082277 0.5163194
vt 0.5082277 0.51920927
vt 0.5111176 0.51920927
vt 0.61688745 0.5163194
vt 0.5111176 0.6301807
vt 0.5082277 0.6301807
vt 0.61688745 0.6301807
vt 0.61688745 0.51920927
vt 0.6197773 0.6301807
vt 0.6197773 0.51920927
vt 0.6197773 0.5163194
vt 0.5082277 0.7723633
vt 0.5082277 0.8839129
vt 0.5111176 0.8839129
vt 0.5111176 0.7723633
vt 0.61688745 0.8839129
vt 0.61688745 0.7723633
vt 0.6197773 0.8839129
vt 0.6197773 0.7723633
vt 0.5082277 0.69318044
vt 0.5082277 0.80473006
vt 0.5111176 0.80473006
vt 0.5111176 0.69318044
vt 0.61688745 0.80473006
vt 0.61688745 0.69318044
vt 0.6197773 0.80473006
vt 0.6197773 0.69318044
vt 0.5082277 0.69318044
vt 0.5082277 0.80473006
vt 0.5111176 0.80473006
vt 0.5111176 0.69318044
vt 0.61688745 0.80473006
vt 0.61688745 0.69318044
vt 0.6197773 0.80473006
vt 0.6197773 0.69318044
vt 0.5082277 0.5914563
vt 0.5082277 0.7030059
vt 0.5111176 0.7030059
vt 0.5111176 0.5914563
vt 0.61688745 0.7030059
vt 0.61688745 0.5914563
vt 0.6197773 0.7030059
vt 0.6197773 0.5914563
vn -0.99999225 0.003921509 -0.00034492963
vn -0.70979846 0.019607663 0.70413184
vn -0.70979846 0.003921509 0.7043939
vn -0.9993777 0.03527213 -0
vn -0.70710677 0.70710677 -0
vn -0.5764661 0.5764661 0.57911456
vn -0.70710677 0.70710677 -0
vn -0.9993777 0.03527213 -0
vn -0.99999225 0.003921509 -0.00034492963
vn -0.70710677 0.70710677 -0
vn -0.9993777 0.03527213 -0
vn -0.99999225 0.003921509 -0.00034492963
vn -0.70710677 0.70710677 -0
vn -0.9993777 0.03527213 -0
vn -0.99999225 0.003921509 -0.00034492963
vn -0.70710677 0.70710677 -0
vn -0.9993777 0.03527213 -0
vn -0.99999225 0.003921509 -0.00034492963
vn -0.70710677 0.70710677 -0
vn -0.9993777 0.03527213 -0
vn -0.99999225 0.003921509 -0.00034492963
vn -0.70710677 0.70710677 -0
vn -0.9993777 0.03527213 -0
vn -0.99999225 0.003921509 -0.00034492963
vn -0.70979846 0.003921509 -0.7043939
vn -0.70979846 0.019607663 -0.70413184
vn -0.5764661 0.5764661 -0.57911456
vn -0.70979846 0.019607663 -0.70413184
vn -0.70979846 0.003921509 -0.7043939
vn -0.011764526 0.003921509 -0.9999231
vn -0.011764526 0.035293818 -0.9993077
vn -0.003921509 0.70979846 -0.7043939
vn -0.5764661 0.5764661 -0.57911456
vn 0.0039215684 0.70979846 -0.7043939
vn 0.011764646 0.035293818 -0.9993077
vn 0.011764646 0.003921509 -0.9999231
vn 0.7097985 0.003921509 -0.70439386
vn 0.7097985 0.019607663 -0.70413184
vn 0.5764662 0.5764661 -0.57911444
vn 0.7071068 0.70710677 -0
vn 0.7071068 0.70710677 -0
vn 0.011763923 0.99993086 -0
vn 0.011763923 0.99993086 -0
vn -0.011763804 0.99993086 -0
vn 0.0039215684 0.70979846 -0.7043939
vn 0.5764662 0.5764661 -0.57911444
vn -0.003921509 0.70979846 -0.7043939
vn -0.011763804 0.99993086 -0
vn -0.70710677 0.70710677 -0
vn -0.70710677 0.70710677 -0
vn -0.5764661 0.5764661 -0.57911456
vn 0.7097985 0.019607663 -0.70413184
vn 0.7097985 0.003921509 -0.70439386
vn 0.9999924 0.003921509 -0
vn 0.9993777 0.035272125 -0
vn 0.7071068 0.70710677 -0
vn 0.5764662 0.5764661 -0.57911444
vn 0.7071068 0.70710677 -0
vn 0.9993777 0.035272125 -0
vn 0.9999924 0.003921509 -0
vn 0.7071068 0.70710677 -0
vn 0.9993777 0.035272125 -0
vn 0.9999924 0.003921509 -0
vn 0.7071068 0.70710677 -0
vn 0.9993777 0.035272125 -0
vn 0.9999924 0.003921509 -0
vn 0.7071068 0.70710677 -0
vn 0.9993777 0.035272125 -0
vn 0.9999924 0.003921509 -0
vn 0.7071068 0.70710677 -0
vn 0.9993777 0.035272125 -0
vn 0.9999924 0.003921509 -0
vn 0.7071068 0.70710677 -0
vn 0.9993777 0.035272125 -0
vn 0.9999924 0.003921509 -0
vn 0.7097985 0.003921509 0.70439386
vn 0.7097985 0.019607663 0.70413184
vn 0.5764662 0.5764661 0.57911444
vn 0.7097985 0.019607663 0.70413184
vn 0.7097985 0.003921509 0.70439386
vn 0.011764646 0.003921509 0.9999231
vn 0.011764646 0.035293818 0.9993077
vn 0.0039215684 0.70979846 0.7043939
vn 0.5764662 0.5764661 0.57911444
vn -0.003921509 0.70979846 0.7043939
vn -0.011764526 0.035293818 0.9993077
vn -0.011764526 0.003921509 0.9999231
vn -0.70979846 0.003921509 0.7043939
vn -0.70979846 0.019607663 0.70413184
vn -0.5764661 0.5764661 0.57911456
vn -0.003921509 0.70979846 0.7043939
vn -0.5764661 0.5764661 0.57911456
vn -0.70710677 0.70710677 -0
vn -0.011763804 0.99993086 -0
vn 0.0039215684 0.70979846 0.7043939
vn -0.011763804 0.99993086 -0
vn -0.70710677 0.70710677 -0
vn 0.011763923 0.99993086 -0
vn 0.011763923 0.99993086 -0
vn 0.7071068 0.70710677 -0
vn 0.7071068 0.70710677 -0
vn 0.5764662 0.5764661 0.57911444
vn -0.70710677 0.70710677 -0
vn -0.70710677 0.70710677 -0
vn -0.011763804 0.99993086 -0
vn -0.011763804 0.99993086 -0
vn 0.011763923 0.99993086 -0
vn 0.011763923 0.99993086 -0
vn 0.7071068 0.70710677 -0
vn 0.7071068 0.70710677 -0
vn -0.70710677 0.70710677 -0
vn -0.70710677 0.70710677 -0
vn -0.011763804 0.99993086 -0
vn -0.011763804 0.99993086 -0
vn 0.011763923 0.99993086 -0
vn 0.011763923 0.99993086 -0
vn 0.7071068 0.70710677 -0
vn 0.7071068 0.70710677 -0
vn -0.70710677 0.70710677 -0
vn -0.70710677 0.70710677 -0
vn -0.011763804 0.99993086 -0
vn -0.011763804 0.99993086 -0
vn 0.011763923 0.99993086 -0
vn 0.011763923 0.99993086 -0
vn 0.7071068 0.70710677 -0
vn 0.7071068 0.70710677 -0
vn -0.70710677 0.70710677 -0
vn -0.70710677 0.70710677 -0
vn -0.011763804 0.99993086 -0
vn -0.011763804 0.99993086 -0
vn 0.011763923 0.99993086 -0
vn 0.011763923 0.99993086 -0
vn 0.7071068 0.70710677 -0
vn 0.7071068 0.70710677 -0
g ENV_S06_IB_TopCorner_FloorHP07_MO_0
f 3/3/3 2/2/2 1/1/1
f 2/2/2 4/4/4 1/1/1
f 4/4/4 2/2/2 5/5/5
f 2/2/2 6/6/6 5/5/5
f 5/5/5 7/7/7 4/4/4
f 4/4/4 8/8/8 1/1/1
f 7/7/7 8/8/8 4/4/4
f 8/8/8 9/9/9 1/1/1
f 7/7/7 10/10/10 8/8/8
f 8/8/8 11/11/11 9/9/9
f 10/10/10 11/11/11 8/8/8
f 11/11/11 12/12/12 9/9/9
f 10/10/10 13/13/13 11/11/11
f 11/11/11 14/14/14 12/12/12
f 13/13/13 14/14/14 11/11/11
f 14/14/14 15/15/15 12/12/12
f 13/13/13 16/16/16 14/14/14
f 14/14/14 17/17/17 15/15/15
f 16/16/16 17/17/17 14/14/14
f 17/17/17 18/18/18 15/15/15
f 16/16/16 19/19/19 17/17/17
f 17/17/17 20/20/20 18/18/18
f 19/19/19 20/20/20 17/17/17
f 20/20/20 21/21/21 18/18/18
f 19/19/19 22/22/22 20/20/20
f 20/20/20 23/23/23 21/21/21
f 22/22/22 23/23/23 20/20/20
f 23/23/23 24/24/24 21/21/21
f 25/25/25 24/24/24 23/23/23
f 26/26/26 25/25/25 23/23/23
f 23/23/23 22/22/22 26/26/26
f 22/22/22 27/27/27 26/26/26
f 30/30/30 29/29/29 28/28/28
f 31/31/31 30/30/30 28/28/28
f 31/31/31 28/28/28 32/32/32
f 28/28/28 33/33/33 32/32/32
f 32/32/32 34/34/34 31/31/31
f 31/31/31 35/35/35 30/30/30
f 34/34/34 35/35/35 31/31/31
f 35/35/35 36/36/36 30/30/30
f 37/37/37 36/36/36 35/35/35
f 38/38/38 37/37/37 35/35/35
f 35/35/35 34/34/34 38/38/38
f 34/34/34 39/39/39 38/38/38
f 42/42/42 41/41/41 40/40/40
f 43/43/43 42/42/42 40/40/40
f 42/42/42 43/43/43 44/44/44
f 43/43/43 40/40/40 45/45/45
f 40/40/40 46/46/46 45/45/45
f 43/43/43 45/45/45 47/47/47
f 43/43/43 48/48/48 44/44/44
f 48/48/48 43/43/43 47/47/47
f 44/44/44 48/48/48 49/49/49
f 48/48/48 50/50/50 49/49/49
f 48/48/48 47/47/47 50/50/50
f 47/47/47 51/51/51 50/50/50
f 54/54/54 53/53/53 52/52/52
f 55/55/55 54/54/54 52/52/52
f 55/55/55 52/52/52 56/56/56
f 52/52/52 57/57/57 56/56/56
f 56/56/56 58/58/58 55/55/55
f 55/55/55 59/59/59 54/54/54
f 58/58/58 59/59/59 55/55/55
f 59/59/59 60/60/60 54/54/54
f 58/58/58 61/61/61 59/59/59
f 59/59/59 62/62/62 60/60/60
f 61/61/61 62/62/62 59/59/59
f 62/62/62 63/63/63 60/60/60
f 61/61/61 64/64/64 62/62/62
f 62/62/62 65/65/65 63/63/63
f 64/64/64 65/65/65 62/62/62
f 65/65/65 66/66/66 63/63/63
f 64/64/64 67/67/67 65/65/65
f 65/65/65 68/68/68 66/66/66
f 67/67/67 68/68/68 65/65/65
f 68/68/68 69/69/69 66/66/66
f 67/67/67 70/70/70 68/68/68
f 68/68/68 71/71/71 69/69/69
f 70/70/70 71/71/71 68/68/68
f 71/71/71 72/72/72 69/69/69
f 70/70/70 73/73/73 71/71/71
f 71/71/71 74/74/74 72/72/72
f 73/73/73 74/74/74 71/71/71
f 74/74/74 75/75/75 72/72/72
f 76/76/76 75/75/75 74/74/74
f 77/77/77 76/76/76 74/74/74
f 74/74/74 73/73/73 77/77/77
f 73/73/73 78/78/78 77/77/77
f 81/81/81 80/80/80 79/79/79
f 82/82/82 81/81/81 79/79/79
f 82/82/82 79/79/79 83/83/83
f 79/79/79 84/84/84 83/83/83
f 82/82/82 83/83/83 85/85/85
f 82/82/82 86/86/86 81/81/81
f 86/86/86 82/82/82 85/85/85
f 86/86/86 87/87/87 81/81/81
f 87/87/87 86/86/86 88/88/88
f 86/86/86 89/89/89 88/88/88
f 86/86/86 85/85/85 89/89/89
f 85/85/85 90/90/90 89/89/89
f 93/93/93 92/92/92 91/91/91
f 94/94/94 93/93/93 91/91/91
f 91/91/91 95/95/95 94/94/94
f 94/94/94 96/96/96 93/93/93
f 96/96/96 97/97/97 93/93/93
f 98/98/98 96/96/96 94/94/94
f 99/99/99 98/98/98 94/94/94
f 95/95/95 99/99/99 94/94/94
f 98/98/98 99/99/99 100/100/100
f 99/99/99 101/101/101 100/100/100
f 99/99/99 95/95/95 101/101/101
f 95/95/95 102/102/102 101/101/101
f 105/105/105 104/104/104 103/103/103
f 106/106/106 105/105/105 103/103/103
f 107/107/107 105/105/105 106/106/106
f 108/108/108 107/107/107 106/106/106
f 107/107/107 108/108/108 109/109/109
f 108/108/108 110/110/110 109/109/109
f 113/113/113 112/112/112 111/111/111
f 114/114/114 113/113/113 111/111/111
f 115/115/115 113/113/113 114/114/114
f 116/116/116 115/115/115 114/114/114
f 115/115/115 116/116/116 117/117/117
f 116/116/116 118/118/118 117/117/117
f 121/121/121 120/120/120 119/119/119
f 122/122/122 121/121/121 119/119/119
f 123/123/123 121/121/121 122/122/122
f 124/124/124 123/123/123 122/122/122
f 123/123/123 124/124/124 125/125/125
f 124/124/124 126/126/126 125/125/125
f 129/129/129 128/128/128 127/127/127
f 130/130/130 129/129/129 127/127/127
f 131/131/131 129/129/129 130/130/130
f 132/132/132 131/131/131 130/130/130
f 131/131/131 132/132/132 133/133/133
f 132/132/132 134/134/134 133/133/133
