g ENV_SY02_HW_Middle_PortalStand_Vinyl_MO
v -10.403192 1.6960813 33.63045
v -10.381619 1.661233 33.643173
v -10.311369 1.661233 33.629898
v -10.314689 1.6960813 33.608326
v -10.403192 1.8974273 33.63045
v -9.3455715 1.661233 33.62879
v -10.314689 1.8974273 33.608326
v -9.346678 1.6960813 33.608326
v -10.314689 1.9422324 33.63045
v -10.387151 1.9339352 33.640408
v -9.346678 1.9422324 33.63045
v -9.346678 1.8974273 33.608326
v -7.349812 1.9422324 33.63045
v -7.349812 1.8974273 33.608326
v -7.349812 1.6960813 33.608326
v -7.349259 1.661233 33.62879
v -10.403192 1.6960813 37.88914
v -10.381619 1.661233 37.87642
v -10.404298 1.661233 37.833824
v -10.4397 1.6960813 37.835484
v -10.405958 1.661233 36.506268
v -10.4397 1.6960813 36.506268
v -10.403192 1.8974273 37.88914
v -10.4397 1.8974273 37.835484
v -10.4397 1.8974273 36.506268
v -10.403192 1.9422324 36.506268
v -10.403192 1.9422324 37.835484
v -10.387151 1.9339352 37.879185
v -10.403192 1.8974273 33.63045
v -10.387151 1.9339352 33.640408
v -10.403192 1.9422324 33.68355
v -10.4397 1.8974273 33.68355
v -10.403192 1.6960813 33.63045
v -10.4397 1.8974273 34.987324
v -10.403192 1.9422324 34.987324
v -10.4397 1.6960813 33.68355
v -10.381619 1.661233 33.643173
v -10.404298 1.661233 33.685764
v -10.405958 1.661233 34.987324
v -10.4397 1.8974273 36.506268
v -10.403192 1.9422324 36.506268
v -10.4397 1.6960813 34.987324
v -10.4397 1.6960813 36.506268
v -10.405958 1.661233 36.506268
v -10.403192 1.9422324 33.68355
v -10.387151 1.9339352 33.640408
v -10.314689 1.9422324 33.63045
v -10.314689 1.9604863 33.68355
v -10.403192 1.9422324 34.987324
v -9.346678 1.9604863 33.68355
v -9.346678 1.9422324 33.63045
v -10.314689 1.9604863 34.987324
v -10.403192 1.9422324 36.506268
v -7.349812 1.9604863 33.68355
v -7.349812 1.9422324 33.63045
v -7.349812 1.9604863 34.987324
v -9.346678 1.9604863 34.987324
v -7.349812 1.9604863 36.506268
v -10.314689 1.9604863 36.506268
v -10.403192 1.9422324 37.835484
v -9.346678 1.9604863 36.506268
v -7.349812 1.9604863 37.835484
v -10.314689 1.9604863 37.835484
v -9.346678 1.9604863 37.835484
v -7.349259 1.9422324 37.88914
v -9.346125 1.9422324 37.88914
v -10.314136 1.9422324 37.88914
v -10.387151 1.9339352 37.879185
v -6.194838 1.9422324 33.63045
v -6.121269 1.9339352 33.640408
v -6.105228 1.9422324 33.68355
v -6.194838 1.9604863 33.68355
v -7.349812 1.9422324 33.63045
v -7.349812 1.9604863 33.68355
v -6.194838 1.9604863 34.987324
v -7.349812 1.9604863 34.987324
v -6.105228 1.9422324 34.987324
v -7.349812 1.9604863 36.506268
v -6.194838 1.9604863 36.506268
v -6.105228 1.9422324 36.506268
v -7.349812 1.9604863 37.835484
v -6.194838 1.9604863 37.835484
v -6.105228 1.9422324 37.835484
v -6.194285 1.9422324 37.88914
v -7.349259 1.9422324 37.88914
v -6.121269 1.9339352 37.879185
v -6.105228 1.8974273 33.63045
v -6.121269 1.9339352 33.640408
v -6.194838 1.9422324 33.63045
v -6.194838 1.8974273 33.608326
v -6.105228 1.6960813 33.63045
v -7.349812 1.8974273 33.608326
v -7.349812 1.9422324 33.63045
v -6.194838 1.6960813 33.608326
v -6.126801 1.661233 33.643173
v -7.349812 1.6960813 33.608326
v -6.1976037 1.661233 33.629898
v -7.349259 1.661233 33.62879
v -6.105228 1.6960813 33.63045
v -6.126801 1.661233 33.643173
v -6.1030154 1.661233 33.685764
v -6.067061 1.6960813 33.68355
v -6.101909 1.661233 34.987324
v -6.067061 1.6960813 34.987324
v -6.105228 1.8974273 33.63045
v -6.067061 1.8974273 33.68355
v -6.067061 1.8974273 34.987324
v -6.105228 1.9422324 34.987324
v -6.105228 1.9422324 33.68355
v -6.121269 1.9339352 33.640408
v -6.105228 1.8974273 37.88914
v -6.121269 1.9339352 37.879185
v -6.105228 1.9422324 37.835484
v -6.067061 1.8974273 37.835484
v -6.105228 1.6960813 37.88914
v -6.067061 1.8974273 36.506268
v -6.105228 1.9422324 36.506268
v -6.067061 1.6960813 37.835484
v -6.126801 1.661233 37.87642
v -6.1030154 1.661233 37.833824
v -6.101909 1.661233 36.506268
v -6.067061 1.6960813 36.506268
v -6.101909 1.661233 34.987324
v -6.067061 1.6960813 34.987324
v -6.067061 1.8974273 34.987324
v -6.105228 1.9422324 34.987324
v -6.105228 1.6960813 37.88914
v -6.126801 1.661233 37.87642
v -6.1976037 1.661233 37.890247
v -6.193732 1.6960813 37.91182
v -7.349259 1.661233 37.891354
v -7.348706 1.6960813 37.91182
v -6.105228 1.8974273 37.88914
v -6.193732 1.8974273 37.91182
v -7.348706 1.8974273 37.91182
v -7.349259 1.9422324 37.88914
v -6.194285 1.9422324 37.88914
v -6.121269 1.9339352 37.879185
v -10.403192 1.8974273 37.88914
v -10.387151 1.9339352 37.879185
v -10.314136 1.9422324 37.88914
v -10.313582 1.8974273 37.91182
v -10.403192 1.6960813 37.88914
v -9.3455715 1.8974273 37.91182
v -9.346125 1.9422324 37.88914
v -10.313582 1.6960813 37.91182
v -10.381619 1.661233 37.87642
v -10.310816 1.661233 37.890247
v -9.345018 1.661233 37.8908
v -9.3455715 1.6960813 37.91182
v -7.349259 1.661233 37.891354
v -7.348706 1.6960813 37.91182
v -7.348706 1.8974273 37.91182
v -7.349259 1.9422324 37.88914
vt 0.7425531 0.9876992
vt 0.75027424 0.9876992
vt 0.75027424 0.9732221
vt 0.7425531 0.9732221
vt 0.6450738 0.9857689
vt 0.75027424 0.8545096
vt 0.6450738 0.9722569
vt 0.7425531 0.8545096
vt 0.6315618 0.9722569
vt 0.63349205 0.9838386
vt 0.6315618 0.8545096
vt 0.6450738 0.8545096
vt 0.6315618 0.79563594
vt 0.6450738 0.79563594
vt 0.7425531 0.79563594
vt 0.75027424 0.79563594
vt 0.5147796 0.5080236
vt 0.5070585 0.5080236
vt 0.5070585 0.5215356
vt 0.51381445 0.5215356
vt 0.50512815 0.8409976
vt 0.51284933 0.8409976
vt 0.6103287 0.50898874
vt 0.612259 0.5234659
vt 0.6103287 0.8409976
vt 0.6219104 0.8409976
vt 0.6219104 0.5234659
vt 0.6199801 0.51188415
vt 0.612259 0.9876992
vt 0.6199801 0.98673403
vt 0.6219104 0.9732221
vt 0.6112938 0.9732221
vt 0.5147796 0.9886643
vt 0.6103287 0.8409976
vt 0.6219104 0.8409976
vt 0.5147796 0.9741872
vt 0.5070585 0.9886643
vt 0.5070585 0.9741872
vt 0.50512815 0.8409976
vt 0.6103287 0.6595509
vt 0.6219104 0.6595509
vt 0.51284933 0.8409976
vt 0.51284933 0.6595509
vt 0.50512815 0.6595509
vt 0.009045184 0.9857689
vt 0.010010325 0.99349004
vt 0.018696604 0.99445516
vt 0.018696604 0.9857689
vt 0.009045184 0.8583702
vt 0.10652453 0.9857689
vt 0.10652453 0.99445516
vt 0.018696604 0.8583702
vt 0.009045184 0.67595834
vt 0.15092106 0.9857689
vt 0.15092106 0.99445516
vt 0.15092106 0.8583702
vt 0.10652453 0.8583702
vt 0.15092106 0.67595834
vt 0.019661747 0.67595834
vt 0.009045184 0.51091903
vt 0.10748967 0.67595834
vt 0.15092106 0.51188415
vt 0.019661747 0.51091903
vt 0.10748967 0.51188415
vt 0.15092106 0.5022328
vt 0.10748967 0.5022328
vt 0.019661747 0.5022328
vt 0.01194061 0.504163
vt 0.48679048 0.99445516
vt 0.49451163 0.99638546
vt 0.49740705 0.9876992
vt 0.48679048 0.9876992
vt 0.36132202 0.99445516
vt 0.36132202 0.9876992
vt 0.48679048 0.8583702
vt 0.36132202 0.8583702
vt 0.49740705 0.8583702
vt 0.36132202 0.67595834
vt 0.48775563 0.67595834
vt 0.49740705 0.67595834
vt 0.36132202 0.51381445
vt 0.48872077 0.51381445
vt 0.49740705 0.51381445
vt 0.48872077 0.5031979
vt 0.36132202 0.5022328
vt 0.4964419 0.50512815
vt 0.6450738 0.5099539
vt 0.63252693 0.51284933
vt 0.6315618 0.5234659
vt 0.6450738 0.52443105
vt 0.7425531 0.50898874
vt 0.6450738 0.71359885
vt 0.6315618 0.71359885
vt 0.7425531 0.52250075
vt 0.75027424 0.50898874
vt 0.7425531 0.71359885
vt 0.75027424 0.52250075
vt 0.75027424 0.71359885
vt 0.5147796 0.5080236
vt 0.5070585 0.5080236
vt 0.5070585 0.5215356
vt 0.51381445 0.5215356
vt 0.50512815 0.8409976
vt 0.51284933 0.8409976
vt 0.6103287 0.50898874
vt 0.612259 0.5234659
vt 0.6103287 0.8409976
vt 0.6219104 0.8409976
vt 0.6219104 0.5234659
vt 0.6199801 0.51188415
vt 0.612259 0.9876992
vt 0.6199801 0.98673403
vt 0.6219104 0.9732221
vt 0.6112938 0.9732221
vt 0.5147796 0.9886643
vt 0.6103287 0.8409976
vt 0.6219104 0.8409976
vt 0.5147796 0.9741872
vt 0.5070585 0.9886643
vt 0.5070585 0.9741872
vt 0.50512815 0.8409976
vt 0.51284933 0.8409976
vt 0.50512815 0.6595509
vt 0.51284933 0.6595509
vt 0.6103287 0.6595509
vt 0.6219104 0.6595509
vt 0.7425531 0.9876992
vt 0.75027424 0.9876992
vt 0.75027424 0.9732221
vt 0.7425531 0.9732221
vt 0.75027424 0.79563594
vt 0.7425531 0.79563594
vt 0.6450738 0.9857689
vt 0.6450738 0.9722569
vt 0.6450738 0.79563594
vt 0.6315618 0.79563594
vt 0.6315618 0.9722569
vt 0.63349205 0.9838386
vt 0.6450738 0.5099539
vt 0.63252693 0.51284933
vt 0.6315618 0.5234659
vt 0.6450738 0.52443105
vt 0.7425531 0.50898874
vt 0.6450738 0.6498995
vt 0.6315618 0.6498995
vt 0.7425531 0.52250075
vt 0.75027424 0.50898874
vt 0.75027424 0.52250075
vt 0.75027424 0.6498995
vt 0.7425531 0.6498995
vt 0.75027424 0.71359885
vt 0.7425531 0.71359885
vt 0.6450738 0.71359885
vt 0.6315618 0.71359885
vn -0.52263296 -0.04864049 -0.85116917
vn -0.36611962 -0.71382195 -0.5970048
vn -0.006139159 -0.62773967 -0.77839917
vn -0.013964772 -0.056466162 -0.9983068
vn -0.52263296 0.045267463 -0.8513552
vn 0.0016865134 -0.5103547 -0.85996234
vn -0.006139159 0.060918808 -0.9981238
vn 0.0016865134 -0.056466162 -0.9984031
vn -0.006139159 0.7652285 -0.6437295
vn -0.36611962 0.71044886 -0.60101485
vn 0.0016865134 0.7652285 -0.6437565
vn 0.0016865134 0.060918808 -0.9981413
vn 0.0016865134 0.7652285 -0.6437565
vn 0.0016865134 0.060918808 -0.9981413
vn 0.0016865134 -0.056466162 -0.9984031
vn 0.0016865134 -0.6120883 -0.7907876
vn -0.52263296 -0.04864049 0.85116917
vn -0.36611962 -0.71382195 0.5970048
vn -0.6087153 -0.7920786 0.045575894
vn -0.99217284 -0.08776885 0.08882388
vn -0.6165409 -0.78425294 -0.06945962
vn -0.99217284 -0.08776885 -0.08882388
vn -0.52263296 0.045267463 0.8513552
vn -0.99217284 0.09222138 0.08419186
vn -0.99217284 0.09222138 -0.08419186
vn -0.45899445 0.8884392 -0
vn -0.45899445 0.8884392 -0
vn -0.36611962 0.71044886 0.60101485
vn -0.52263296 0.045267463 -0.8513552
vn -0.36611962 0.71044886 -0.60101485
vn -0.45899445 0.8884392 -0
vn -0.99217284 0.09222138 -0.08419186
vn -0.52263296 -0.04864049 -0.85116917
vn -0.99217284 0.09222138 -0.08419186
vn -0.45899445 0.8884392 -0
vn -0.99217284 -0.08776885 -0.08882388
vn -0.36611962 -0.71382195 -0.5970048
vn -0.6087153 -0.7920786 -0.045575894
vn -0.6087153 -0.7920786 -0.045575894
vn -0.99217284 0.09222138 -0.08419186
vn -0.45899445 0.8884392 -0
vn -0.99217284 -0.095594525 -0.08034139
vn -0.99217284 -0.08776885 -0.08882388
vn -0.6165409 -0.78425294 -0.06945962
vn -0.45899445 0.8884392 -0
vn -0.36611962 0.71044886 -0.60101485
vn -0.006139159 0.7652285 -0.6437295
vn -0.006139053 0.99998116 -0
vn -0.45899445 0.8884392 -0
vn 0.0016865134 0.99999845 -0.00048828125
vn 0.0016865134 0.7652285 -0.6437565
vn -0.006139053 0.99998116 -0
vn -0.45899445 0.8884392 -0
vn 0.0016865134 0.99999845 -0.00048828125
vn 0.0016865134 0.7652285 -0.6437565
vn 0.0016865134 0.99999845 -0.00048828125
vn 0.0016865134 0.99999845 -0.00048828125
vn 0.0016865134 0.99999845 -0.00048828125
vn -0.006139053 0.99998116 -0
vn -0.45899445 0.8884392 -0
vn 0.0016865134 0.99999845 -0.00048828125
vn 0.0016865134 0.99999845 -0.00048828125
vn -0.006139053 0.99998116 -0
vn 0.0016865134 0.99999845 -0.00048828125
vn 0.0016865134 0.7652285 0.6437565
vn 0.0016865134 0.77305424 0.63433766
vn -0.006139159 0.77305424 0.63431025
vn -0.36611962 0.71044886 0.60101485
vn 0.009512186 0.7652285 -0.64368844
vn 0.3616671 0.71044886 -0.6037047
vn 0.455477 0.8902475 -0
vn 0.009511771 0.9999548 -0
vn 0.0016865134 0.7652285 -0.6437565
vn 0.0016865134 0.99999845 -0.00048828125
vn 0.009511771 0.9999548 -0
vn 0.0016865134 0.99999845 -0.00048828125
vn 0.455477 0.8902475 -0
vn 0.0016865134 0.99999845 -0.00048828125
vn 0.009511771 0.9999548 -0
vn 0.455477 0.8902475 -0
vn 0.0016865134 0.99999845 -0.00048828125
vn 0.009511771 0.9999548 -0
vn 0.455477 0.8902475 -0
vn 0.009512186 0.7652285 0.64368844
vn 0.0016865134 0.7652285 0.6437565
vn 0.36949277 0.7182746 0.5895394
vn 0.5181804 0.045267463 -0.8540726
vn 0.3616671 0.71044886 -0.6037047
vn 0.009512186 0.7652285 -0.64368844
vn 0.009512186 0.060918808 -0.9980974
vn 0.5181804 -0.04864049 -0.8538871
vn 0.0016865134 0.060918808 -0.9981413
vn 0.0016865134 0.7652285 -0.6437565
vn 0.009512186 -0.056466162 -0.9983592
vn 0.3616671 -0.71382195 -0.59971255
vn 0.0016865134 -0.056466162 -0.9984031
vn 0.009512186 -0.62773967 -0.77836525
vn 0.0016865134 -0.6120883 -0.7907876
vn 0.5181804 -0.04864049 -0.8538871
vn 0.3616671 -0.71382195 -0.59971255
vn 0.60276365 -0.79791987 -0
vn 0.99554586 -0.08776885 -0.034424584
vn 0.60276365 -0.79791987 -0
vn 0.99542147 -0.09558258 -0
vn 0.5181804 0.045267463 -0.8540726
vn 0.99554586 0.09222138 -0.019586746
vn 0.99498826 0.099991076 -0
vn 0.455477 0.8902475 -0
vn 0.455477 0.8902475 -0
vn 0.3616671 0.71044886 -0.6037047
vn 0.526006 0.045267463 0.84927535
vn 0.36949277 0.7182746 0.5895394
vn 0.455477 0.8902475 -0
vn 0.99554586 0.09222138 0.019586746
vn 0.526006 -0.056466162 0.8486043
vn 0.99498826 0.099991076 -0
vn 0.455477 0.8902475 -0
vn 0.99554586 -0.08776885 0.034424584
vn 0.36949277 -0.71382195 0.59492296
vn 0.60276365 -0.79791987 -0
vn 0.61146474 -0.7912716 -0
vn 0.99542147 -0.09558258 -0
vn 0.60276365 -0.79791987 -0
vn 0.99542147 -0.09558258 -0
vn 0.99498826 0.099991076 -0
vn 0.455477 0.8902475 -0
vn 0.526006 -0.056466162 0.8486043
vn 0.36949277 -0.71382195 0.59492296
vn 0.009512186 -0.62773967 0.77836525
vn 0.009512186 -0.056466162 0.9983592
vn 0.0016865134 -0.619914 0.78466797
vn 0.0016865134 -0.056466162 0.9984031
vn 0.526006 0.045267463 0.84927535
vn 0.009512186 0.060918808 0.9980974
vn 0.0016865134 0.060918808 0.9981413
vn 0.0016865134 0.7652285 0.6437565
vn 0.009512186 0.7652285 0.64368844
vn 0.36949277 0.7182746 0.5895394
vn -0.52263296 0.045267463 0.8513552
vn -0.36611962 0.71044886 0.60101485
vn -0.006139159 0.77305424 0.63431025
vn -0.013964772 0.060918808 0.998045
vn -0.52263296 -0.04864049 0.85116917
vn 0.0016865134 0.060918808 0.9981413
vn 0.0016865134 0.77305424 0.63433766
vn -0.013964772 -0.056466162 0.9983068
vn -0.36611962 -0.71382195 0.5970048
vn -0.006139159 -0.62773967 0.77839917
vn 0.0016865134 -0.5181804 0.8552697
vn 0.0016865134 -0.056466162 0.9984031
vn 0.0016865134 -0.619914 0.78466797
vn 0.0016865134 -0.056466162 0.9984031
vn 0.0016865134 0.060918808 0.9981413
vn 0.0016865134 0.7652285 0.6437565
g ENV_SY02_HW_Middle_PortalStand_Vinyl_MO_0
f 3/3/3 2/2/2 1/1/1
f 4/4/4 3/3/3 1/1/1
f 4/4/4 1/1/1 5/5/5
f 6/6/6 3/3/3 4/4/4
f 7/7/7 4/4/4 5/5/5
f 8/8/8 6/6/6 4/4/4
f 8/8/8 4/4/4 7/7/7
f 7/7/7 5/5/5 9/9/9
f 5/5/5 10/10/10 9/9/9
f 9/9/9 11/11/11 7/7/7
f 11/11/11 12/12/12 7/7/7
f 12/12/12 8/8/8 7/7/7
f 11/11/11 13/13/13 12/12/12
f 13/13/13 14/14/14 12/12/12
f 12/12/12 14/14/14 8/8/8
f 14/14/14 15/15/15 8/8/8
f 8/8/8 15/15/15 6/6/6
f 15/15/15 16/16/16 6/6/6
f 19/19/19 18/18/18 17/17/17
f 20/20/20 19/19/19 17/17/17
f 21/21/21 19/19/19 20/20/20
f 22/22/22 21/21/21 20/20/20
f 20/20/20 17/17/17 23/23/23
f 22/22/22 20/20/20 24/24/24
f 24/24/24 20/20/20 23/23/23
f 25/25/25 22/22/22 24/24/24
f 25/25/25 24/24/24 26/26/26
f 24/24/24 27/27/27 26/26/26
f 24/24/24 23/23/23 27/27/27
f 23/23/23 28/28/28 27/27/27
f 31/31/31 30/30/30 29/29/29
f 32/32/32 31/31/31 29/29/29
f 29/29/29 33/33/33 32/32/32
f 32/32/32 34/34/34 31/31/31
f 34/34/34 35/35/35 31/31/31
f 33/33/33 36/36/36 32/32/32
f 34/34/34 32/32/32 36/36/36
f 33/33/33 37/37/37 36/36/36
f 37/37/37 38/38/38 36/36/36
f 36/36/36 38/38/38 39/39/39
f 34/34/34 40/40/40 35/35/35
f 40/40/40 41/41/41 35/35/35
f 42/42/42 34/34/34 36/36/36
f 34/34/34 42/42/42 40/40/40
f 42/42/42 36/36/36 39/39/39
f 42/42/42 43/43/43 40/40/40
f 42/42/42 39/39/39 43/43/43
f 39/39/39 44/44/44 43/43/43
f 47/47/47 46/46/46 45/45/45
f 48/48/48 47/47/47 45/45/45
f 45/45/45 49/49/49 48/48/48
f 48/48/48 50/50/50 47/47/47
f 50/50/50 51/51/51 47/47/47
f 49/49/49 52/52/52 48/48/48
f 50/50/50 48/48/48 52/52/52
f 49/49/49 53/53/53 52/52/52
f 50/50/50 54/54/54 51/51/51
f 54/54/54 55/55/55 51/51/51
f 56/56/56 54/54/54 50/50/50
f 57/57/57 56/56/56 50/50/50
f 57/57/57 50/50/50 52/52/52
f 58/58/58 56/56/56 57/57/57
f 53/53/53 59/59/59 52/52/52
f 57/57/57 52/52/52 59/59/59
f 53/53/53 60/60/60 59/59/59
f 61/61/61 58/58/58 57/57/57
f 61/61/61 57/57/57 59/59/59
f 62/62/62 58/58/58 61/61/61
f 60/60/60 63/63/63 59/59/59
f 61/61/61 59/59/59 63/63/63
f 64/64/64 62/62/62 61/61/61
f 64/64/64 61/61/61 63/63/63
f 62/62/62 64/64/64 65/65/65
f 64/64/64 66/66/66 65/65/65
f 64/64/64 63/63/63 66/66/66
f 63/63/63 67/67/67 66/66/66
f 63/63/63 60/60/60 67/67/67
f 60/60/60 68/68/68 67/67/67
f 71/71/71 70/70/70 69/69/69
f 72/72/72 71/71/71 69/69/69
f 72/72/72 69/69/69 73/73/73
f 74/74/74 72/72/72 73/73/73
f 72/72/72 75/75/75 71/71/71
f 75/75/75 72/72/72 74/74/74
f 76/76/76 75/75/75 74/74/74
f 75/75/75 77/77/77 71/71/71
f 76/76/76 78/78/78 75/75/75
f 75/75/75 79/79/79 77/77/77
f 78/78/78 79/79/79 75/75/75
f 79/79/79 80/80/80 77/77/77
f 78/78/78 81/81/81 79/79/79
f 79/79/79 82/82/82 80/80/80
f 81/81/81 82/82/82 79/79/79
f 82/82/82 83/83/83 80/80/80
f 82/82/82 81/81/81 84/84/84
f 82/82/82 84/84/84 83/83/83
f 81/81/81 85/85/85 84/84/84
f 84/84/84 86/86/86 83/83/83
f 89/89/89 88/88/88 87/87/87
f 90/90/90 89/89/89 87/87/87
f 87/87/87 91/91/91 90/90/90
f 89/89/89 90/90/90 92/92/92
f 93/93/93 89/89/89 92/92/92
f 91/91/91 94/94/94 90/90/90
f 92/92/92 90/90/90 94/94/94
f 91/91/91 95/95/95 94/94/94
f 96/96/96 92/92/92 94/94/94
f 95/95/95 97/97/97 94/94/94
f 96/96/96 94/94/94 98/98/98
f 94/94/94 97/97/97 98/98/98
f 101/101/101 100/100/100 99/99/99
f 102/102/102 101/101/101 99/99/99
f 103/103/103 101/101/101 102/102/102
f 104/104/104 103/103/103 102/102/102
f 102/102/102 99/99/99 105/105/105
f 104/104/104 102/102/102 106/106/106
f 106/106/106 102/102/102 105/105/105
f 107/107/107 104/104/104 106/106/106
f 107/107/107 106/106/106 108/108/108
f 106/106/106 109/109/109 108/108/108
f 106/106/106 105/105/105 109/109/109
f 105/105/105 110/110/110 109/109/109
f 113/113/113 112/112/112 111/111/111
f 114/114/114 113/113/113 111/111/111
f 111/111/111 115/115/115 114/114/114
f 114/114/114 116/116/116 113/113/113
f 116/116/116 117/117/117 113/113/113
f 115/115/115 118/118/118 114/114/114
f 116/116/116 114/114/114 118/118/118
f 115/115/115 119/119/119 118/118/118
f 119/119/119 120/120/120 118/118/118
f 118/118/118 120/120/120 121/121/121
f 122/122/122 118/118/118 121/121/121
f 122/122/122 116/116/116 118/118/118
f 122/122/122 121/121/121 123/123/123
f 124/124/124 122/122/122 123/123/123
f 124/124/124 125/125/125 122/122/122
f 125/125/125 116/116/116 122/122/122
f 116/116/116 125/125/125 117/117/117
f 125/125/125 126/126/126 117/117/117
f 129/129/129 128/128/128 127/127/127
f 130/130/130 129/129/129 127/127/127
f 131/131/131 129/129/129 130/130/130
f 132/132/132 131/131/131 130/130/130
f 130/130/130 127/127/127 133/133/133
f 132/132/132 130/130/130 134/134/134
f 134/134/134 130/130/130 133/133/133
f 135/135/135 132/132/132 134/134/134
f 136/136/136 135/135/135 134/134/134
f 137/137/137 136/136/136 134/134/134
f 134/134/134 133/133/133 137/137/137
f 133/133/133 138/138/138 137/137/137
f 141/141/141 140/140/140 139/139/139
f 142/142/142 141/141/141 139/139/139
f 139/139/139 143/143/143 142/142/142
f 141/141/141 142/142/142 144/144/144
f 145/145/145 141/141/141 144/144/144
f 143/143/143 146/146/146 142/142/142
f 144/144/144 142/142/142 146/146/146
f 143/143/143 147/147/147 146/146/146
f 147/147/147 148/148/148 146/146/146
f 146/146/146 148/148/148 149/149/149
f 150/150/150 146/146/146 149/149/149
f 150/150/150 144/144/144 146/146/146
f 150/150/150 149/149/149 151/151/151
f 152/152/152 150/150/150 151/151/151
f 150/150/150 152/152/152 144/144/144
f 152/152/152 153/153/153 144/144/144
f 145/145/145 144/144/144 153/153/153
f 154/154/154 145/145/145 153/153/153
