g ENV_SY01_VLLF_Frame_LoopArea03_02_MO
v -12.114124 6.3645935 -34.170998
v -12.114124 5.660824 -34.170998
v -12.1103325 5.660824 -34.11227
v -12.489216 5.660824 -35.123882
v -12.1103325 6.3645935 -34.11227
v -12.14254 5.660824 -34.06207
v -12.489216 6.3645935 -35.123882
v -12.131172 6.413849 -34.158684
v -12.524261 6.3645935 -35.154194
v -12.524261 5.660824 -35.154194
v -12.505318 6.413849 -35.108727
v -12.568779 6.3645935 -35.143776
v -12.568779 5.660824 -35.143776
v -13.070797 5.660824 -34.820778
v -13.070797 6.3645935 -34.820778
v -26.619602 5.660824 -23.1768
v -12.563099 6.413849 -35.122936
v -12.528049 6.405323 -35.139984
v -26.619602 6.3645935 -23.1768
v -26.903763 5.660824 -22.732563
v -13.063221 6.413849 -34.801834
v -12.545101 6.4346886 -35.07368
v -12.171902 6.4346886 -34.127426
v -26.903763 6.3645935 -22.732563
v -26.600658 6.413849 -23.166382
v -13.043331 6.4346886 -34.753525
v -12.661606 6.4346886 -33.817688
v -12.152012 6.413849 -34.081013
v -26.920815 6.3645935 -22.690884
v -26.920815 5.660824 -22.690884
v -26.882927 6.413849 -22.723091
v -26.555195 6.4346886 -23.139858
v -12.122646 6.405323 -34.115112
v -12.14254 6.3645935 -34.06207
v -12.641716 6.413849 -33.77033
v -12.63319 6.3645935 -33.75044
v -12.63319 5.660824 -33.75044
v -25.727337 6.4346886 -22.661522
v -25.68187 6.413849 -22.635
v -25.66198 6.3645935 -22.62458
v -25.66198 5.660824 -22.62458
v -26.834618 6.4346886 -22.698463
v -26.068329 6.4346886 -22.26559
v -26.024757 6.413849 -22.238121
v -26.00771 6.3645935 -22.224861
v -26.00771 5.660824 -22.224861
v -26.063595 5.660824 -22.202127
v -26.063595 6.3645935 -22.202127
v -26.122322 5.660824 -22.21539
v -26.107166 6.413849 -22.230545
v -26.87819 6.413849 -22.666258
v -26.06454 6.405323 -22.214441
v -26.122322 6.3645935 -22.21539
v -26.896187 6.3645935 -22.652996
v -26.896187 5.660824 -22.652996
v -26.905659 6.405323 -22.69278
vt 1.2207208 0.4484267
vt 1.2623059 0.40853897
vt 1.2546678 0.39920357
vt 1.2792794 0.56978726
vt 1.217326 0.44418332
vt 1.2478784 0.3898681
vt 1.2393917 0.5392349
vt 1.217326 0.45012406
vt 1.235997 0.54178095
vt 1.277582 0.57912266
vt 1.235997 0.5366889
vt 1.2326022 0.54347825
vt 1.2758846 0.5893067
vt 1.2249641 0.5893067
vt 1.1850765 0.54347825
vt -0.40618885 0.58845806
vt 1.2326022 0.5383862
vt 1.2351483 0.5392349
vt -0.3637551 0.546873
vt -0.45201728 0.58845806
vt 1.1842278 0.5392349
vt 1.2317536 0.53414285
vt 1.2147801 0.45012406
vt -0.40703753 0.546873
vt -0.36290643 0.5426296
vt 1.1842278 0.53414285
vt 1.1672543 0.4509727
vt 1.2130827 0.44588068
vt -0.40958354 0.5451757
vt -0.455412 0.5799713
vt -0.40703753 0.5426296
vt -0.36290643 0.5375376
vt 1.2164774 0.44672933
vt 1.2130827 0.4407886
vt 1.1664056 0.44588068
vt 1.1664056 0.4416373
vt 1.1978066 0.3898681
vt -0.34593293 0.45945945
vt -0.3442356 0.45521608
vt -0.3442356 0.45012406
vt -0.37648523 0.3975062
vt -0.40618885 0.5375376
vt -0.38921535 0.45945945
vt -0.38836667 0.45521608
vt -0.38836667 0.45012406
vt -0.42231366 0.3975062
vt -0.4282544 0.40769032
vt -0.39345872 0.45351872
vt -0.43419513 0.41787443
vt -0.39345872 0.45945945
vt -0.40873486 0.5409323
vt -0.39176136 0.4560648
vt -0.3977021 0.45691344
vt -0.41212958 0.5426296
vt -0.457958 0.57148457
vt -0.40873486 0.54347825
vn 0.937121 0.02753216 -0.34791705
vn 0.937121 -0.0033367872 -0.34898877
vn 0.96798986 -0.0033367872 0.2509671
vn 0.92168653 -0.0033367872 -0.38792112
vn 0.96798986 0.019814909 0.25020587
vn 0.56669414 -0.0033367872 0.8239215
vn 0.92168653 0.02753216 -0.38695723
vn 0.63614917 0.72979957 -0.25041333
vn 0.25028795 0.019814909 -0.96796864
vn 0.25028795 -0.0033367872 -0.9681657
vn 0.6901698 0.66034454 -0.29599112
vn -0.5214345 0.02753216 -0.85284704
vn -0.5214345 -0.0033367872 -0.8532848
vn -0.64491016 -0.0033367872 -0.7642511
vn -0.64491016 0.02753216 -0.76376235
vn -0.66034454 -0.0033367872 -0.75095534
vn -0.3748073 0.6912134 -0.61785394
vn 0.19626737 0.6217584 -0.7582187
vn -0.66034454 0.02753216 -0.7504579
vn -0.85327524 -0.0033367872 -0.5214501
vn -0.48284835 0.6680618 -0.5661722
vn 0.026481718 0.9996493 -0
vn 0.034189016 0.9994154 -0
vn -0.85327524 0.02753216 -0.5207334
vn -0.4905656 0.66034454 -0.5685864
vn -0.019812953 0.9998037 -0
vn 0.011053979 0.9999024 0.008541433
vn 0.389198 0.72979957 0.56206536
vn -0.9921852 0.019814909 0.1231906
vn -0.9999024 -0.0033367872 0.013565082
vn -0.5908895 0.7220823 -0.359787
vn -0.019812953 0.9998037 -0
vn 0.7982109 0.5600206 0.22189234
vn 0.56669414 0.02753216 0.82346815
vn 0.43550134 0.7452341 0.5049404
vn 0.6438664 0.02753216 0.7646424
vn 0.6438664 -0.0033367872 0.76513064
vn 0.011053979 0.9999024 0.008541433
vn 0.43550134 0.7452341 0.5049404
vn 0.6515837 0.02753216 0.758077
vn 0.6515837 -0.0033367872 0.7585694
vn -0.03523097 0.9993792 -0
vn 0.0033367872 0.9999024 0.0135646425
vn 0.49723914 0.72979957 0.469197
vn 0.7287559 0.02753216 0.6842199
vn 0.7210387 -0.0033367872 0.69288677
vn 0.08822626 -0.0033367872 0.9960949
vn 0.08822626 0.019814909 0.9959034
vn -0.4751312 -0.0033367872 0.8799086
vn -0.32078665 0.7375168 0.5942767
vn -0.38252443 0.6526273 0.65402806
vn 0.072791815 0.5600206 0.82527465
vn -0.4751312 0.02753216 0.8794841
vn -0.51371723 0.02753216 0.8575177
vn -0.51371723 -0.0033367872 0.8579531
vn -0.7683857 0.62947565 0.115515284
g ENV_SY01_VLLF_Frame_LoopArea03_02_MO_0
f 3/3/3 2/2/2 1/1/1
f 2/2/2 4/4/4 1/1/1
f 5/5/5 3/3/3 1/1/1
f 6/6/6 3/3/3 5/5/5
f 4/4/4 7/7/7 1/1/1
f 1/1/1 8/8/8 5/5/5
f 1/1/1 7/7/7 8/8/8
f 7/7/7 4/4/4 9/9/9
f 4/4/4 10/10/10 9/9/9
f 7/7/7 11/11/11 8/8/8
f 7/7/7 9/9/9 11/11/11
f 9/9/9 10/10/10 12/12/12
f 10/10/10 13/13/13 12/12/12
f 13/13/13 14/14/14 12/12/12
f 14/14/14 15/15/15 12/12/12
f 14/14/14 16/16/16 15/15/15
f 12/12/12 17/17/17 9/9/9
f 17/17/17 12/12/12 15/15/15
f 9/9/9 18/18/18 11/11/11
f 17/17/17 18/18/18 9/9/9
f 11/11/11 18/18/18 17/17/17
f 16/16/16 19/19/19 15/15/15
f 16/16/16 20/20/20 19/19/19
f 21/21/21 17/17/17 15/15/15
f 21/21/21 15/15/15 19/19/19
f 22/22/22 11/11/11 17/17/17
f 22/22/22 17/17/17 21/21/21
f 8/8/8 11/11/11 23/23/23
f 11/11/11 22/22/22 23/23/23
f 20/20/20 24/24/24 19/19/19
f 25/25/25 21/21/21 19/19/19
f 25/25/25 19/19/19 24/24/24
f 26/26/26 22/22/22 21/21/21
f 26/26/26 21/21/21 25/25/25
f 27/27/27 23/23/23 22/22/22
f 26/26/26 27/27/27 22/22/22
f 23/23/23 28/28/28 8/8/8
f 28/28/28 23/23/23 27/27/27
f 24/24/24 20/20/20 29/29/29
f 20/20/20 30/30/30 29/29/29
f 31/31/31 25/25/25 24/24/24
f 24/24/24 29/29/29 31/31/31
f 32/32/32 26/26/26 25/25/25
f 26/26/26 32/32/32 27/27/27
f 32/32/32 25/25/25 31/31/31
f 28/28/28 33/33/33 8/8/8
f 8/8/8 33/33/33 5/5/5
f 5/5/5 33/33/33 28/28/28
f 34/34/34 5/5/5 28/28/28
f 34/34/34 6/6/6 5/5/5
f 35/35/35 28/28/28 27/27/27
f 34/34/34 28/28/28 35/35/35
f 6/6/6 34/34/34 36/36/36
f 36/36/36 34/34/34 35/35/35
f 37/37/37 6/6/6 36/36/36
f 32/32/32 38/38/38 27/27/27
f 35/35/35 27/27/27 38/38/38
f 36/36/36 35/35/35 39/39/39
f 39/39/39 35/35/35 38/38/38
f 37/37/37 36/36/36 40/40/40
f 40/40/40 36/36/36 39/39/39
f 41/41/41 37/37/37 40/40/40
f 32/32/32 42/42/42 38/38/38
f 42/42/42 32/32/32 31/31/31
f 39/39/39 38/38/38 43/43/43
f 42/42/42 43/43/43 38/38/38
f 40/40/40 39/39/39 44/44/44
f 44/44/44 39/39/39 43/43/43
f 41/41/41 40/40/40 45/45/45
f 45/45/45 40/40/40 44/44/44
f 46/46/46 41/41/41 45/45/45
f 47/47/47 46/46/46 45/45/45
f 48/48/48 47/47/47 45/45/45
f 45/45/45 44/44/44 48/48/48
f 49/49/49 47/47/47 48/48/48
f 43/43/43 42/42/42 50/50/50
f 43/43/43 50/50/50 44/44/44
f 42/42/42 31/31/31 51/51/51
f 42/42/42 51/51/51 50/50/50
f 44/44/44 52/52/52 48/48/48
f 50/50/50 52/52/52 44/44/44
f 48/48/48 52/52/52 50/50/50
f 53/53/53 48/48/48 50/50/50
f 53/53/53 49/49/49 48/48/48
f 50/50/50 51/51/51 53/53/53
f 49/49/49 53/53/53 54/54/54
f 51/51/51 54/54/54 53/53/53
f 55/55/55 49/49/49 54/54/54
f 30/30/30 55/55/55 54/54/54
f 29/29/29 30/30/30 54/54/54
f 54/54/54 51/51/51 29/29/29
f 29/29/29 56/56/56 31/31/31
f 51/51/51 56/56/56 29/29/29
f 31/31/31 56/56/56 51/51/51
