g ENV_S01_Vanilla_Sphere_01_COL
v -1.3333333 0.6666666 -1.3333333
v -0.8944272 0 -1.7888544
v -0.81649655 0.81649655 -1.6329931
v -0.6666666 1.3333333 -1.3333333
v -0 0.8944272 -1.7888544
v -1.4142135 0 -1.4142135
v -0 0 -2
v -0.81649655 -0.81649655 -1.6329931
v -1.1547006 1.1547006 -1.1547006
v -1.3333333 1.3333333 -0.6666666
v -1.6329931 0.81649655 -0.81649655
v -0.81649655 1.6329931 -0.81649655
v -0 1.4142135 -1.4142135
v -0 1.7888544 -0.8944272
v 0.6666666 1.3333333 -1.3333333
v 0.81649655 1.6329931 -0.81649655
v 0.81649655 0.81649655 -1.6329931
v -0 2 0
v -1.4142135 1.4142135 0
v -1.7888544 0.8944272 0
v -2 0 0
v -0.8944272 1.7888544 0
v -1.3333333 1.3333333 0.6666666
v -1.6329931 0.81649655 0.81649655
v -1.7888544 0 -0.8944272
v -1.3333333 -0.6666666 -1.3333333
v -1.6329931 -0.81649655 -0.81649655
v -0.81649655 1.6329931 0.81649655
v -0 1.7888544 0.8944272
v 0.81649655 1.6329931 0.81649655
v -1.1547006 1.1547006 1.1547006
v -0 1.4142135 1.4142135
v -0.6666666 1.3333333 1.3333333
v -1.3333333 0.6666666 1.3333333
v -1.7888544 0 0.8944272
v 0.8944272 1.7888544 0
v -0 0.8944272 1.7888544
v -0.81649655 0.81649655 1.6329931
v 0.6666666 1.3333333 1.3333333
v -1.6329931 -0.81649655 0.81649655
v -1.4142135 0 1.4142135
v -0.8944272 0 1.7888544
v -0 0 2
v -1.3333333 -0.6666666 1.3333333
v -1.7888544 -0.8944272 0
v -0.81649655 -0.81649655 1.6329931
v -1.3333333 -1.3333333 0.6666666
v -1.3333333 -1.3333333 -0.6666666
v -1.4142135 -1.4142135 0
v -0.81649655 -1.6329931 0.81649655
v -1.1547006 -1.1547006 1.1547006
v -0.6666666 -1.3333333 1.3333333
v -0 -0.8944272 1.7888544
v -1.1547006 -1.1547006 -1.1547006
v -0.8944272 -1.7888544 0
v -0.6666666 -1.3333333 -1.3333333
v -0.81649655 -1.6329931 -0.81649655
v -0 -0.8944272 -1.7888544
v -0 -1.4142135 1.4142135
v -0 -2 0
v -0 -1.4142135 -1.4142135
v -0 -1.7888544 -0.8944272
v 0.6666666 -1.3333333 -1.3333333
v 0.81649655 -0.81649655 -1.6329931
v 0.8944272 0 -1.7888544
v -0 -1.7888544 0.8944272
v 0.81649655 -1.6329931 -0.81649655
v 1.3333333 -0.6666666 -1.3333333
v 1.3333333 0.6666666 -1.3333333
v 0.8944272 -1.7888544 0
v 0.81649655 -1.6329931 0.81649655
v 1.1547006 -1.1547006 -1.1547006
v 1.3333333 -1.3333333 -0.6666666
v 1.4142135 0 -1.4142135
v 1.4142135 -1.4142135 0
v 1.6329931 -0.81649655 -0.81649655
v 1.3333333 -1.3333333 0.6666666
v 1.7888544 -0.8944272 0
v 0.6666666 -1.3333333 1.3333333
v 1.7888544 0 -0.8944272
v 1.1547006 -1.1547006 1.1547006
v 1.6329931 -0.81649655 0.81649655
v 2 0 0
v 0.81649655 -0.81649655 1.6329931
v 1.3333333 -0.6666666 1.3333333
v 1.6329931 0.81649655 -0.81649655
v 0.8944272 0 1.7888544
v 1.4142135 0 1.4142135
v 1.7888544 0 0.8944272
v 0.81649655 0.81649655 1.6329931
v 1.3333333 0.6666666 1.3333333
v 1.7888544 0.8944272 0
v 1.6329931 0.81649655 0.81649655
v 1.1547006 1.1547006 1.1547006
v 1.3333333 1.3333333 0.6666666
v 1.4142135 1.4142135 0
v 1.3333333 1.3333333 -0.6666666
v 1.1547006 1.1547006 -1.1547006
vn -0.6759094 0.29375663 -0.6759094
vn -0.3572773 0 -0.93399835
vn -0.3381674 0.33816746 -0.8782286
vn -0.2937566 0.67590946 -0.67590946
vn -0 0.3572773 -0.93399835
vn -0.70710677 0 -0.70710677
vn -0 0 -1
vn -0.3381674 -0.33816743 -0.8782286
vn -0.5773503 0.5773502 -0.5773502
vn -0.67590946 0.67590946 -0.2937566
vn -0.8782286 0.33816746 -0.33816746
vn -0.33816746 0.8782286 -0.3381674
vn -0 0.70710677 -0.7071068
vn -0 0.93399835 -0.3572773
vn 0.2937566 0.67590946 -0.67590946
vn 0.33816743 0.8782286 -0.3381674
vn 0.3381674 0.33816743 -0.8782286
vn -0 1 0
vn -0.70710677 0.70710677 0
vn -0.93399835 0.3572773 0
vn -1 0 0
vn -0.3572773 0.93399835 0
vn -0.67590946 0.67590946 0.2937566
vn -0.8782286 0.33816743 0.33816746
vn -0.93399835 0 -0.3572773
vn -0.6759094 -0.29375654 -0.67590946
vn -0.8782286 -0.33816743 -0.33816746
vn -0.33816743 0.8782286 0.3381674
vn -0 0.93399835 0.3572773
vn 0.33816746 0.8782286 0.3381674
vn -0.57735026 0.57735026 0.57735026
vn -0 0.70710677 0.7071068
vn -0.2937566 0.67590946 0.67590946
vn -0.67590946 0.2937566 0.67590946
vn -0.93399835 0 0.3572773
vn 0.3572773 0.93399835 0
vn -0 0.3572773 0.93399835
vn -0.3381674 0.33816743 0.8782286
vn 0.2937566 0.67590946 0.67590946
vn -0.8782286 -0.33816746 0.33816746
vn -0.70710677 0 0.70710677
vn -0.3572773 0 0.93399835
vn -0 0 1
vn -0.6759094 -0.29375663 0.6759094
vn -0.93399835 -0.35727724 0
vn -0.3381674 -0.33816746 0.8782286
vn -0.67590946 -0.67590946 0.2937566
vn -0.67590946 -0.67590946 -0.2937566
vn -0.70710677 -0.70710677 0
vn -0.33816746 -0.8782286 0.3381674
vn -0.5773503 -0.5773502 0.5773502
vn -0.2937566 -0.67590946 0.67590946
vn -0 -0.3572773 0.93399835
vn -0.57735026 -0.57735026 -0.57735026
vn -0.3572773 -0.93399835 0
vn -0.2937566 -0.67590946 -0.67590946
vn -0.33816743 -0.8782286 -0.3381674
vn -0 -0.3572773 -0.93399835
vn -0 -0.70710677 0.7071068
vn -0 -1 0
vn -0 -0.70710677 -0.7071068
vn -0 -0.93399835 -0.3572773
vn 0.2937566 -0.67590946 -0.67590946
vn 0.3381674 -0.33816746 -0.8782286
vn 0.3572773 0 -0.93399835
vn -0 -0.93399835 0.3572773
vn 0.33816746 -0.8782286 -0.3381674
vn 0.6759094 -0.29375663 -0.6759094
vn 0.67590946 0.2937566 -0.67590946
vn 0.3572773 -0.93399835 0
vn 0.33816743 -0.8782286 0.3381674
vn 0.5773503 -0.5773502 -0.5773502
vn 0.67590946 -0.67590946 -0.2937566
vn 0.70710677 0 -0.70710677
vn 0.70710677 -0.70710677 0
vn 0.8782286 -0.33816746 -0.33816746
vn 0.67590946 -0.67590946 0.2937566
vn 0.93399835 -0.3572773 0
vn 0.2937566 -0.67590946 0.67590946
vn 0.93399835 0 -0.3572773
vn 0.57735026 -0.57735026 0.57735026
vn 0.8782286 -0.33816743 0.33816746
vn 1 0 0
vn 0.3381674 -0.33816743 0.8782286
vn 0.67590946 -0.2937566 0.67590946
vn 0.8782286 0.33816743 -0.33816746
vn 0.3572773 0 0.93399835
vn 0.70710677 0 0.70710677
vn 0.93399835 0 0.3572773
vn 0.3381674 0.33816746 0.8782286
vn 0.6759094 0.29375663 0.6759094
vn 0.93399835 0.35727724 0
vn 0.8782286 0.33816746 0.33816746
vn 0.5773503 0.5773502 0.5773502
vn 0.67590946 0.67590946 0.2937566
vn 0.70710677 0.70710677 0
vn 0.67590946 0.67590946 -0.2937566
vn 0.57735026 0.57735026 -0.57735026
g ENV_S01_Vanilla_Sphere_01_COL_0
f 3/3/3 2/2/2 1/1/1
f 3/3/3 1/1/1 4/4/4
f 3/3/3 5/5/5 2/2/2
f 3/3/3 4/4/4 5/5/5
f 2/2/2 6/6/6 1/1/1
f 5/5/5 7/7/7 2/2/2
f 2/2/2 8/8/8 6/6/6
f 8/8/8 2/2/2 7/7/7
f 1/1/1 9/9/9 4/4/4
f 9/9/9 1/1/1 10/10/10
f 1/1/1 6/6/6 11/11/11
f 1/1/1 11/11/11 10/10/10
f 4/4/4 9/9/9 12/12/12
f 9/9/9 10/10/10 12/12/12
f 4/4/4 13/13/13 5/5/5
f 4/4/4 12/12/12 14/14/14
f 13/13/13 4/4/4 14/14/14
f 5/5/5 13/13/13 15/15/15
f 13/13/13 14/14/14 16/16/16
f 15/15/15 13/13/13 16/16/16
f 5/5/5 17/17/17 7/7/7
f 17/17/17 5/5/5 15/15/15
f 18/18/18 14/14/14 12/12/12
f 16/16/16 14/14/14 18/18/18
f 12/12/12 10/10/10 19/19/19
f 10/10/10 11/11/11 20/20/20
f 19/19/19 10/10/10 20/20/20
f 20/20/20 11/11/11 21/21/21
f 22/22/22 12/12/12 19/19/19
f 22/22/22 18/18/18 12/12/12
f 19/19/19 20/20/20 23/23/23
f 19/19/19 23/23/23 22/22/22
f 20/20/20 21/21/21 24/24/24
f 20/20/20 24/24/24 23/23/23
f 11/11/11 25/25/25 21/21/21
f 6/6/6 25/25/25 11/11/11
f 6/6/6 26/26/26 25/25/25
f 8/8/8 26/26/26 6/6/6
f 21/21/21 25/25/25 27/27/27
f 26/26/26 27/27/27 25/25/25
f 23/23/23 28/28/28 22/22/22
f 18/18/18 22/22/22 29/29/29
f 22/22/22 28/28/28 29/29/29
f 18/18/18 29/29/29 30/30/30
f 31/31/31 23/23/23 24/24/24
f 28/28/28 23/23/23 31/31/31
f 32/32/32 29/29/29 28/28/28
f 30/30/30 29/29/29 32/32/32
f 33/33/33 28/28/28 31/31/31
f 33/33/33 32/32/32 28/28/28
f 34/34/34 31/31/31 24/24/24
f 33/33/33 31/31/31 34/34/34
f 21/21/21 35/35/35 24/24/24
f 34/34/34 24/24/24 35/35/35
f 36/36/36 18/18/18 30/30/30
f 36/36/36 16/16/16 18/18/18
f 37/37/37 32/32/32 33/33/33
f 38/38/38 33/33/33 34/34/34
f 38/38/38 37/37/37 33/33/33
f 39/39/39 30/30/30 32/32/32
f 39/39/39 32/32/32 37/37/37
f 40/40/40 35/35/35 21/21/21
f 41/41/41 34/34/34 35/35/35
f 41/41/41 35/35/35 40/40/40
f 38/38/38 34/34/34 42/42/42
f 34/34/34 41/41/41 42/42/42
f 37/37/37 38/38/38 43/43/43
f 38/38/38 42/42/42 43/43/43
f 42/42/42 41/41/41 44/44/44
f 44/44/44 41/41/41 40/40/40
f 45/45/45 40/40/40 21/21/21
f 45/45/45 21/21/21 27/27/27
f 42/42/42 46/46/46 43/43/43
f 46/46/46 42/42/42 44/44/44
f 47/47/47 40/40/40 45/45/45
f 44/44/44 40/40/40 47/47/47
f 45/45/45 27/27/27 48/48/48
f 49/49/49 47/47/47 45/45/45
f 49/49/49 45/45/45 48/48/48
f 50/50/50 47/47/47 49/49/49
f 51/51/51 44/44/44 47/47/47
f 51/51/51 47/47/47 50/50/50
f 44/44/44 51/51/51 52/52/52
f 46/46/46 44/44/44 52/52/52
f 52/52/52 51/51/51 50/50/50
f 46/46/46 52/52/52 53/53/53
f 46/46/46 53/53/53 43/43/43
f 54/54/54 48/48/48 27/27/27
f 26/26/26 54/54/54 27/27/27
f 49/49/49 48/48/48 55/55/55
f 55/55/55 50/50/50 49/49/49
f 56/56/56 54/54/54 26/26/26
f 8/8/8 56/56/56 26/26/26
f 57/57/57 48/48/48 54/54/54
f 48/48/48 57/57/57 55/55/55
f 56/56/56 57/57/57 54/54/54
f 8/8/8 58/58/58 56/56/56
f 58/58/58 8/8/8 7/7/7
f 52/52/52 59/59/59 53/53/53
f 52/52/52 50/50/50 59/59/59
f 55/55/55 60/60/60 50/50/50
f 55/55/55 57/57/57 60/60/60
f 56/56/56 61/61/61 57/57/57
f 58/58/58 61/61/61 56/56/56
f 61/61/61 62/62/62 57/57/57
f 57/57/57 62/62/62 60/60/60
f 63/63/63 61/61/61 58/58/58
f 61/61/61 63/63/63 62/62/62
f 64/64/64 58/58/58 7/7/7
f 64/64/64 63/63/63 58/58/58
f 65/65/65 64/64/64 7/7/7
f 17/17/17 65/65/65 7/7/7
f 50/50/50 66/66/66 59/59/59
f 60/60/60 66/66/66 50/50/50
f 60/60/60 62/62/62 67/67/67
f 63/63/63 67/67/67 62/62/62
f 64/64/64 68/68/68 63/63/63
f 64/64/64 65/65/65 68/68/68
f 17/17/17 69/69/69 65/65/65
f 17/17/17 15/15/15 69/69/69
f 60/60/60 70/70/70 66/66/66
f 70/70/70 60/60/60 67/67/67
f 59/59/59 66/66/66 71/71/71
f 70/70/70 71/71/71 66/66/66
f 68/68/68 72/72/72 63/63/63
f 63/63/63 72/72/72 67/67/67
f 72/72/72 73/73/73 67/67/67
f 72/72/72 68/68/68 73/73/73
f 65/65/65 74/74/74 68/68/68
f 69/69/69 74/74/74 65/65/65
f 70/70/70 67/67/67 75/75/75
f 67/67/67 73/73/73 75/75/75
f 68/68/68 76/76/76 73/73/73
f 68/68/68 74/74/74 76/76/76
f 75/75/75 77/77/77 70/70/70
f 77/77/77 71/71/71 70/70/70
f 75/75/75 73/73/73 78/78/78
f 73/73/73 76/76/76 78/78/78
f 75/75/75 78/78/78 77/77/77
f 79/79/79 59/59/59 71/71/71
f 53/53/53 59/59/59 79/79/79
f 74/74/74 80/80/80 76/76/76
f 74/74/74 69/69/69 80/80/80
f 71/71/71 77/77/77 81/81/81
f 79/79/79 71/71/71 81/81/81
f 78/78/78 82/82/82 77/77/77
f 81/81/81 77/77/77 82/82/82
f 78/78/78 76/76/76 83/83/83
f 76/76/76 80/80/80 83/83/83
f 78/78/78 83/83/83 82/82/82
f 84/84/84 53/53/53 79/79/79
f 53/53/53 84/84/84 43/43/43
f 79/79/79 81/81/81 85/85/85
f 85/85/85 81/81/81 82/82/82
f 84/84/84 79/79/79 85/85/85
f 69/69/69 86/86/86 80/80/80
f 83/83/83 80/80/80 86/86/86
f 84/84/84 87/87/87 43/43/43
f 37/37/37 43/43/43 87/87/87
f 84/84/84 85/85/85 88/88/88
f 85/85/85 82/82/82 88/88/88
f 87/87/87 84/84/84 88/88/88
f 83/83/83 89/89/89 82/82/82
f 82/82/82 89/89/89 88/88/88
f 90/90/90 37/37/37 87/87/87
f 90/90/90 39/39/39 37/37/37
f 90/90/90 87/87/87 91/91/91
f 87/87/87 88/88/88 91/91/91
f 90/90/90 91/91/91 39/39/39
f 83/83/83 92/92/92 89/89/89
f 92/92/92 83/83/83 86/86/86
f 88/88/88 89/89/89 93/93/93
f 91/91/91 88/88/88 93/93/93
f 92/92/92 93/93/93 89/89/89
f 91/91/91 94/94/94 39/39/39
f 39/39/39 94/94/94 30/30/30
f 91/91/91 93/93/93 95/95/95
f 94/94/94 91/91/91 95/95/95
f 94/94/94 95/95/95 30/30/30
f 95/95/95 93/93/93 92/92/92
f 30/30/30 95/95/95 96/96/96
f 96/96/96 95/95/95 92/92/92
f 36/36/36 30/30/30 96/96/96
f 96/96/96 92/92/92 97/97/97
f 96/96/96 97/97/97 36/36/36
f 92/92/92 86/86/86 97/97/97
f 97/97/97 16/16/16 36/36/36
f 98/98/98 97/97/97 86/86/86
f 16/16/16 97/97/97 98/98/98
f 69/69/69 98/98/98 86/86/86
f 15/15/15 16/16/16 98/98/98
f 15/15/15 98/98/98 69/69/69
