g ENV_S05_RR_Path_Corner1_MO
v 1.3828278E-05 -1.3828278E-05 -7.3420506
v 1.3828278E-05 -1.3828278E-05 -1.3828278E-05
v -0.43967533 -1.3828278E-05 0.034691334
v -1.5884199 -1.3828278E-05 -7.2171116
v -1.5884199 -1.3828278E-05 -7.2171116
v -0.43967533 -1.3828278E-05 0.034691334
v -0.8686857 -1.3828278E-05 0.13747215
v -3.1376104 -1.3828278E-05 -6.845231
v -1.2763395 -1.3828278E-05 0.30646038
v -4.6096487 -1.3828278E-05 -6.235486
v -1.6524916 -1.3828278E-05 0.53685
v -5.9679604 -1.3828278E-05 -5.402826
v -1.9880648 -1.3828278E-05 0.82330227
v -7.1794415 -1.3828278E-05 -4.3680744
v -1.9880648 -1.3828278E-05 0.82330227
v -2.274517 -1.3828278E-05 1.1588755
v -8.214193 -1.3828278E-05 -3.1565933
v -2.5049067 -1.3828278E-05 1.5350275
v -9.046852 -1.3828278E-05 -1.7982817
v -2.673895 -1.3828278E-05 1.9426813
v -9.656599 -1.3828278E-05 -0.32624388
v -2.7766762 -1.3828278E-05 2.3716917
v -10.028479 -1.3828278E-05 1.2229471
v -2.7766762 -1.3828278E-05 2.3716917
v -2.8113813 -1.3828278E-05 2.8113813
v -10.153418 -1.3828278E-05 2.8113813
v -1.5884199 -1.3828278E-05 -7.2171116
v -1.5884199 -1.500617 -7.2171116
v 1.3828278E-05 -1.500617 -7.3420506
v 1.3828278E-05 -1.3828278E-05 -7.3420506
v -3.1376104 -1.3828278E-05 -6.845231
v -3.1376104 -1.500617 -6.845231
v -1.5884199 -1.500617 -7.2171116
v -1.5884199 -1.3828278E-05 -7.2171116
v -4.6096487 -1.3828278E-05 -6.235486
v -4.6096487 -1.500617 -6.235486
v -3.1376104 -1.500617 -6.845231
v -3.1376104 -1.3828278E-05 -6.845231
v -5.9679604 -1.3828278E-05 -5.402826
v -5.9679604 -1.500617 -5.402826
v -4.6096487 -1.500617 -6.235486
v -4.6096487 -1.3828278E-05 -6.235486
v -7.1794415 -1.3828278E-05 -4.3680744
v -7.1794415 -1.500617 -4.3680744
v -5.9679604 -1.500617 -5.402826
v -5.9679604 -1.3828278E-05 -5.402826
v -8.214193 -1.3828278E-05 -3.1565933
v -8.214193 -1.500617 -3.1565933
v -7.1794415 -1.500617 -4.3680744
v -7.1794415 -1.3828278E-05 -4.3680744
v -9.046852 -1.3828278E-05 -1.7982817
v -9.046852 -1.500617 -1.7982817
v -8.214193 -1.500617 -3.1565933
v -8.214193 -1.3828278E-05 -3.1565933
v -9.656599 -1.3828278E-05 -0.32624388
v -9.656599 -1.500617 -0.32624388
v -9.046852 -1.500617 -1.7982817
v -9.046852 -1.3828278E-05 -1.7982817
v -10.028479 -1.3828278E-05 1.2229471
v -10.028479 -1.500617 1.2229471
v -9.656599 -1.500617 -0.32624388
v -9.656599 -1.3828278E-05 -0.32624388
v -10.153418 -1.3828278E-05 2.8113813
v -10.153418 -1.500617 2.8113813
v -10.028479 -1.500617 1.2229471
v -10.028479 -1.3828278E-05 1.2229471
v 1.3828278E-05 -1.3828278E-05 -1.3828278E-05
v 1.3828278E-05 -1.500617 -1.3828278E-05
v -0.43967533 -1.500617 0.034691334
v -0.43967533 -1.3828278E-05 0.034691334
v -0.43967533 -1.3828278E-05 0.034691334
v -0.43967533 -1.500617 0.034691334
v -0.8686857 -1.500617 0.13747215
v -0.8686857 -1.3828278E-05 0.13747215
v -0.8686857 -1.3828278E-05 0.13747215
v -0.8686857 -1.500617 0.13747215
v -1.2763395 -1.500617 0.30646038
v -1.2763395 -1.3828278E-05 0.30646038
v -1.2763395 -1.3828278E-05 0.30646038
v -1.2763395 -1.500617 0.30646038
v -1.6524916 -1.500617 0.53685
v -1.6524916 -1.3828278E-05 0.53685
v -1.6524916 -1.3828278E-05 0.53685
v -1.6524916 -1.500617 0.53685
v -1.9880648 -1.500617 0.82330227
v -1.9880648 -1.3828278E-05 0.82330227
v -1.9880648 -1.3828278E-05 0.82330227
v -1.9880648 -1.500617 0.82330227
v -2.274517 -1.500617 1.1588755
v -2.274517 -1.3828278E-05 1.1588755
v -2.274517 -1.3828278E-05 1.1588755
v -2.274517 -1.500617 1.1588755
v -2.5049067 -1.500617 1.5350275
v -2.5049067 -1.3828278E-05 1.5350275
v -2.5049067 -1.3828278E-05 1.5350275
v -2.5049067 -1.500617 1.5350275
v -2.673895 -1.500617 1.9426813
v -2.673895 -1.3828278E-05 1.9426813
v -2.673895 -1.3828278E-05 1.9426813
v -2.673895 -1.500617 1.9426813
v -2.7766762 -1.500617 2.3716917
v -2.7766762 -1.3828278E-05 2.3716917
v -2.7766762 -1.3828278E-05 2.3716917
v -2.7766762 -1.500617 2.3716917
v -2.8113813 -1.500617 2.8113813
v -2.8113813 -1.3828278E-05 2.8113813
v 1.3828278E-05 -1.3828278E-05 -7.3420506
v 1.3828278E-05 -1.500617 -7.3420506
v 1.3828278E-05 -1.500617 -1.3828278E-05
v 1.3828278E-05 -1.3828278E-05 -1.3828278E-05
v -2.8113813 -1.3828278E-05 2.8113813
v -2.8113813 -1.500617 2.8113813
v -10.153418 -1.500617 2.8113813
v -10.153418 -1.3828278E-05 2.8113813
vt 0.7497556 0.34408602
vt 0.25024438 0.3831867
vt 0.51221895 0.7663734
vt 0.52492666 0.68914956
vt 0.52492666 0.68914956
vt 0.51221895 0.7663734
vt 0.52394915 0.76930594
vt 0.5483871 0.69501466
vt 0.5356794 0.7741935
vt 0.57087 0.7047898
vt 0.54545456 0.7800586
vt 0.5913978 0.7174975
vt 0.5552297 0.7888563
vt 0.6109482 0.73313785
vt 0.5552297 0.7888563
vt 0.56304985 0.797654
vt 0.62658846 0.75171065
vt 0.56989247 0.80840665
vt 0.6392962 0.773216
vt 0.57478005 0.8191593
vt 0.64907134 0.79569894
vt 0.5767351 0.83186704
vt 0.6539589 0.8191593
vt 0.5767351 0.83186704
vt 0.5777126 0.84359723
vt 0.65591395 0.84359723
vt 0 0
vt 0 1
vt 1 1
vt 1 0
vt 0 0
vt 0 1
vt 1 1
vt 1 0
vt 0 0
vt 0 1
vt 1 1
vt 1 0
vt 0 0
vt 0 1
vt 1 1
vt 1 0
vt 0 0
vt 0 1
vt 1 1
vt 1 0
vt 0 0
vt 0 1
vt 1 1
vt 1 0
vt 0 0
vt 0 1
vt 1 1
vt 1 0
vt 0 0
vt 0 1
vt 1 1
vt 1 0
vt 0 0
vt 0 1
vt 1 1
vt 1 0
vt 0 0
vt 0 1
vt 1 1
vt 1 0
vt 0 0
vt 0 1
vt 1 1
vt 1 0
vt 0 0
vt 0 1
vt 1 1
vt 1 0
vt 0 0
vt 0 1
vt 1 1
vt 1 0
vt 0 0
vt 0 1
vt 1 1
vt 1 0
vt 0 0
vt 0 1
vt 1 1
vt 1 0
vt 0 0
vt 0 1
vt 1 1
vt 1 0
vt 0 0
vt 0 1
vt 1 1
vt 1 0
vt 0 0
vt 0 1
vt 1 1
vt 1 0
vt 0 0
vt 0 1
vt 1 1
vt 1 0
vt 0 0
vt 0 1
vt 1 1
vt 1 0
vt 0 0
vt 0 1
vt 1 1
vt 1 0
vt 0 0
vt 0 1
vt 1 1
vt 1 0
vn -0.003921509 0.99999225 -0.00034526698
vn -0.003921509 0.99999225 -0.00034526698
vn -0.003921509 0.99999225 -0.00034526698
vn -0.003921509 0.99999225 -0.00034526698
vn -0.003921509 0.99999225 -0.00034526698
vn -0.003921509 0.99999225 -0.00034526698
vn -0.003921509 0.99999225 -0.00034526698
vn -0.003921509 0.99999225 -0.00034526698
vn -0.003921509 0.99999225 -0.00034526698
vn -0.003921509 0.99999225 -0.00034526698
vn -0.003921509 0.99999225 -0.00034526698
vn -0.003921509 0.99999225 -0.00034526698
vn -0.003921509 0.99999225 -0.00034526698
vn -0.003921509 0.99999225 -0.00034526698
vn -0.003921509 0.99999225 -0.00034526698
vn -0.003921509 0.99999225 -0.00034526698
vn -0.003921509 0.99999225 -0.00034526698
vn -0.003921509 0.99999225 -0.00034526698
vn -0.003921509 0.99999225 -0.00034526698
vn -0.003921509 0.99999225 -0.00034526698
vn -0.003921509 0.99999225 -0.00034526698
vn -0.003921509 0.99999225 -0.00034526698
vn -0.003921509 0.99999225 -0.00034526698
vn -0.003921509 0.99999225 -0.00034526698
vn -0.003921509 0.99999225 -0.00034526698
vn -0.003921509 0.99999225 -0.00034526698
vn -0.08235228 0.003921509 -0.99659556
vn -0.08235228 0.003921509 -0.99659556
vn -0.08235228 0.003921509 -0.99659556
vn -0.08235228 0.003921509 -0.99659556
vn -0.23137069 0.003921509 -0.9728578
vn -0.23137069 0.003921509 -0.9728578
vn -0.23137069 0.003921509 -0.9728578
vn -0.23137069 0.003921509 -0.9728578
vn -0.3803892 0.003921509 -0.9248182
vn -0.3803892 0.003921509 -0.9248182
vn -0.3803892 0.003921509 -0.9248182
vn -0.3803892 0.003921509 -0.9248182
vn -0.5215646 0.003921509 -0.85320276
vn -0.5215646 0.003921509 -0.85320276
vn -0.5215646 0.003921509 -0.85320276
vn -0.5215646 0.003921509 -0.85320276
vn -0.64705384 0.003921509 -0.76243424
vn -0.64705384 0.003921509 -0.76243424
vn -0.64705384 0.003921509 -0.76243424
vn -0.64705384 0.003921509 -0.76243424
vn -0.7568569 0.003921509 -0.6535688
vn -0.7568569 0.003921509 -0.6535688
vn -0.7568569 0.003921509 -0.6535688
vn -0.7568569 0.003921509 -0.6535688
vn -0.85097384 0.003921509 -0.5251934
vn -0.85097384 0.003921509 -0.5251934
vn -0.85097384 0.003921509 -0.5251934
vn -0.85097384 0.003921509 -0.5251934
vn -0.9215615 0.003921509 -0.38821262
vn -0.9215615 0.003921509 -0.38821262
vn -0.9215615 0.003921509 -0.38821262
vn -0.9215615 0.003921509 -0.38821262
vn -0.96861994 0.003921509 -0.2485156
vn -0.96861994 0.003921509 -0.2485156
vn -0.96861994 0.003921509 -0.2485156
vn -0.96861994 0.003921509 -0.2485156
vn -0.99999225 0.003921509 -0.00034492963
vn -0.99999225 0.003921509 -0.00034492963
vn -0.99999225 0.003921509 -0.00034492963
vn -0.99999225 0.003921509 -0.00034492963
vn 0.08235234 0.003921509 0.99659556
vn 0.08235234 0.003921509 0.99659556
vn 0.08235234 0.003921509 0.99659556
vn 0.08235234 0.003921509 0.99659556
vn 0.2313708 0.003921509 0.9728577
vn 0.2313708 0.003921509 0.9728577
vn 0.2313708 0.003921509 0.9728577
vn 0.2313708 0.003921509 0.9728577
vn 0.38038927 0.003921509 0.92481816
vn 0.38038927 0.003921509 0.92481816
vn 0.38038927 0.003921509 0.92481816
vn 0.38038927 0.003921509 0.92481816
vn 0.52156466 0.003921509 0.85320276
vn 0.52156466 0.003921509 0.85320276
vn 0.52156466 0.003921509 0.85320276
vn 0.52156466 0.003921509 0.85320276
vn 0.6470539 0.003921509 0.7624342
vn 0.6470539 0.003921509 0.7624342
vn 0.6470539 0.003921509 0.7624342
vn 0.6470539 0.003921509 0.7624342
vn 0.756857 0.003921509 0.6535688
vn 0.756857 0.003921509 0.6535688
vn 0.756857 0.003921509 0.6535688
vn 0.756857 0.003921509 0.6535688
vn 0.8509739 0.003921509 0.52519333
vn 0.8509739 0.003921509 0.52519333
vn 0.8509739 0.003921509 0.52519333
vn 0.8509739 0.003921509 0.52519333
vn 0.9215616 0.003921509 0.38821238
vn 0.9215616 0.003921509 0.38821238
vn 0.9215616 0.003921509 0.38821238
vn 0.9215616 0.003921509 0.38821238
vn 0.96862006 0.003921509 0.24851513
vn 0.96862006 0.003921509 0.24851513
vn 0.96862006 0.003921509 0.24851513
vn 0.96862006 0.003921509 0.24851513
vn 0.9999924 0.003921509 -0
vn 0.9999924 0.003921509 -0
vn 0.9999924 0.003921509 -0
vn 0.9999924 0.003921509 -0
vn 0.9999924 0.003921509 -0
vn 0.9999924 0.003921509 -0
vn 0.9999924 0.003921509 -0
vn 0.9999924 0.003921509 -0
vn -0.003921509 0.003921509 0.9999846
vn -0.003921509 0.003921509 0.9999846
vn -0.003921509 0.003921509 0.9999846
vn -0.003921509 0.003921509 0.9999846
g ENV_S05_RR_Path_Corner1_MO_0
f 3/3/3 2/2/2 1/1/1
f 4/4/4 3/3/3 1/1/1
f 7/7/7 6/6/6 5/5/5
f 8/8/8 7/7/7 5/5/5
f 9/9/9 7/7/7 8/8/8
f 10/10/10 9/9/9 8/8/8
f 11/11/11 9/9/9 10/10/10
f 12/12/12 11/11/11 10/10/10
f 13/13/13 11/11/11 12/12/12
f 14/14/14 13/13/13 12/12/12
f 16/16/16 15/15/15 14/14/14
f 17/17/17 16/16/16 14/14/14
f 18/18/18 16/16/16 17/17/17
f 19/19/19 18/18/18 17/17/17
f 20/20/20 18/18/18 19/19/19
f 21/21/21 20/20/20 19/19/19
f 22/22/22 20/20/20 21/21/21
f 23/23/23 22/22/22 21/21/21
f 25/25/25 24/24/24 23/23/23
f 26/26/26 25/25/25 23/23/23
f 29/29/29 28/28/28 27/27/27
f 30/30/30 29/29/29 27/27/27
f 33/33/33 32/32/32 31/31/31
f 34/34/34 33/33/33 31/31/31
f 37/37/37 36/36/36 35/35/35
f 38/38/38 37/37/37 35/35/35
f 41/41/41 40/40/40 39/39/39
f 42/42/42 41/41/41 39/39/39
f 45/45/45 44/44/44 43/43/43
f 46/46/46 45/45/45 43/43/43
f 49/49/49 48/48/48 47/47/47
f 50/50/50 49/49/49 47/47/47
f 53/53/53 52/52/52 51/51/51
f 54/54/54 53/53/53 51/51/51
f 57/57/57 56/56/56 55/55/55
f 58/58/58 57/57/57 55/55/55
f 61/61/61 60/60/60 59/59/59
f 62/62/62 61/61/61 59/59/59
f 65/65/65 64/64/64 63/63/63
f 66/66/66 65/65/65 63/63/63
f 69/69/69 68/68/68 67/67/67
f 70/70/70 69/69/69 67/67/67
f 73/73/73 72/72/72 71/71/71
f 74/74/74 73/73/73 71/71/71
f 77/77/77 76/76/76 75/75/75
f 78/78/78 77/77/77 75/75/75
f 81/81/81 80/80/80 79/79/79
f 82/82/82 81/81/81 79/79/79
f 85/85/85 84/84/84 83/83/83
f 86/86/86 85/85/85 83/83/83
f 89/89/89 88/88/88 87/87/87
f 90/90/90 89/89/89 87/87/87
f 93/93/93 92/92/92 91/91/91
f 94/94/94 93/93/93 91/91/91
f 97/97/97 96/96/96 95/95/95
f 98/98/98 97/97/97 95/95/95
f 101/101/101 100/100/100 99/99/99
f 102/102/102 101/101/101 99/99/99
f 105/105/105 104/104/104 103/103/103
f 106/106/106 105/105/105 103/103/103
f 109/109/109 108/108/108 107/107/107
f 110/110/110 109/109/109 107/107/107
f 113/113/113 112/112/112 111/111/111
f 114/114/114 113/113/113 111/111/111
