g ENV_S05_FG_StoneHead_stone_A_MO
v -7.217354 0.79243374 -4.062006
v -6.813444 -1.129899 -3.7650328
v -7.2057514 -2.503129 -4.594803
v -7.745447 -2.6627483 -6.201347
v -8.176325 -0.7752247 -7.597782
v -4.580967 -2.380827 -9.563705
v -5.1677017 -0.47291946 -10.621145
v -0.24050808 -1.3428297 -11.593601
v -8.019215 2.0593548 -7.4350266
v -3.1817093 2.4284554 -5.202549
v -2.7147665 0.9915657 -3.8889027
v -5.335474 2.9672108 -10.121902
v -2.0458698 2.7545938 -12.082495
v 0.73539734 2.7269974 -5.5838795
v 0.95742226 1.1122999 -4.59104
v 4.4862995 2.2086258 -6.130161
v 0.22235775 4.149147 -11.012824
v 2.708847 3.472724 -12.375078
v 4.0723553 0.16838074 -11.688621
v 7.3704267 1.1276665 -10.124098
v 4.1749 3.1227531 -6.7567225
v 7.292655 2.855257 -8.5683565
v 7.5529385 1.0103817 -8.761217
v 7.0480514 2.9653292 -10.324171
v -7.217354 0.79243374 -4.062006
v -2.7147665 0.9915657 -3.8889027
v -6.813444 -1.129899 -3.7650328
v -2.7900295 -1.8245106 -3.8246155
v 0.95742226 1.1122999 -4.59104
v -7.2057514 -2.503129 -4.594803
v 1.6398039 -2.2174444 -4.6076603
v 4.4862995 2.2086258 -6.130161
v -2.985712 -3.1883326 -4.878606
v -7.745447 -2.6627483 -6.201347
v -4.580967 -2.380827 -9.563705
v -0.073988914 -3.163559 -5.4186153
v -0.24050808 -1.3428297 -11.593601
v 4.4630933 -1.4861422 -7.07408
v 4.0723553 0.16838074 -11.688621
v 7.3704267 1.1276665 -10.124098
v 7.5529385 1.0103817 -8.761217
v 7.292655 2.855257 -8.5683565
v 4.5436873 -1.0091658 -6.1358056
vt 0.3014538 0.97559345
vt 0.31101608 0.9708123
vt 0.31388476 0.96316254
vt 0.31005985 0.95551276
vt 0.3014538 0.95646894
vt 0.29189155 0.93734443
vt 0.28615418 0.9449942
vt 0.2651172 0.9325633
vt 0.293804 0.9641187
vt 0.2794606 0.9813309
vt 0.28137305 0.9899368
vt 0.28137305 0.9583814
vt 0.26798588 0.9516878
vt 0.26129228 0.98228705
vt 0.26129228 0.9908931
vt 0.243124 0.98228705
vt 0.25937986 0.9593376
vt 0.2507738 0.9536003
vt 0.24216777 0.94212556
vt 0.22782438 0.95455647
vt 0.24503644 0.9775059
vt 0.23069304 0.96794367
vt 0.22399946 0.9602939
vt 0.23356172 0.96125007
vt 0.10638361 0.965075
vt 0.12455191 0.9727248
vt 0.11020851 0.95742524
vt 0.12646437 0.96125007
vt 0.14272021 0.97559345
vt 0.111164734 0.94977534
vt 0.14463267 0.96220636
vt 0.16088851 0.9775059
vt 0.12837681 0.9536003
vt 0.111164734 0.94212556
vt 0.13028926 0.9325633
vt 0.13985153 0.95551276
vt 0.1532387 0.9325633
vt 0.15993229 0.9593376
vt 0.171407 0.94308174
vt 0.17905682 0.9593376
vt 0.17618814 0.9641187
vt 0.17810059 0.9727248
vt 0.15801984 0.9641187
vn -0.45625967 0.70666987 0.5407817
vn -0.831875 -0.0915128 0.5473658
vn -0.9336042 -0.06021154 0.3532107
vn -0.87100166 -0.40452564 -0.27877435
vn -0.831875 -0.20889258 -0.51414764
vn -0.48756093 -0.5532067 -0.67546034
vn -0.51103693 -0.18541664 -0.8393223
vn -0.1275962 -0.15411538 -0.9797794
vn -0.7457965 0.64406735 -0.17019053
vn -0.119770825 0.91795355 0.37817484
vn -0.072818935 0.7536219 0.65326214
vn -0.46408492 0.77709776 -0.42514026
vn -0.22149998 0.04934293 -0.97391117
vn -0.0336923 0.9101283 0.4129544
vn 0.12281406 0.5892901 0.7985323
vn 0.24801922 0.57363945 0.7806563
vn -0.06499356 0.9962068 0.057860296
vn 0.10716343 0.19019872 -0.9758793
vn 0.12281406 -0.114988744 -0.98574555
vn 0.7175385 0.057168305 -0.6941688
vn 0.14629006 0.94142956 0.30382493
vn 0.27932048 0.9570802 0.07731514
vn 0.98359936 0.15107208 -0.0985368
vn 0.3575737 0.91795355 -0.17176244
vn -0.010216415 0.072818935 0.9972929
vn 0.099338114 0.04934293 0.99382955
vn -0.025867045 -0.052386224 0.99829185
vn 0.083687484 -0.12281406 0.9888949
vn 0.24801922 0.041517675 0.96786505
vn -0.119770825 -0.8583942 0.49881294
vn 0.365399 -0.34974837 0.8626469
vn 0.5532067 0.025867045 0.8326423
vn 0.02891022 -0.99925 -0.02576233
vn -0.088469565 -0.9914247 -0.096178085
vn 0.02891022 -0.97577405 -0.2168623
vn 0.16976601 -0.96794873 -0.18508033
vn 0.19324195 -0.9366474 -0.29214585
vn 0.3575737 -0.91317147 -0.19559886
vn 0.2949711 -0.90534616 -0.3055166
vn 0.49060416 -0.8427436 -0.22156444
vn 0.76449037 -0.48277885 0.42717567
vn 0.6549359 0.010216415 0.7556154
vn 0.6392852 -0.46712822 0.61082375
g ENV_S05_FG_StoneHead_stone_A_MO_0
f 3/3/3 2/2/2 1/1/1
f 4/4/4 3/3/3 1/1/1
f 4/4/4 1/1/1 5/5/5
f 6/6/6 4/4/4 5/5/5
f 6/6/6 5/5/5 7/7/7
f 7/7/7 8/8/8 6/6/6
f 1/1/1 9/9/9 5/5/5
f 7/7/7 5/5/5 9/9/9
f 1/1/1 10/10/10 9/9/9
f 1/1/1 11/11/11 10/10/10
f 7/7/7 9/9/9 12/12/12
f 9/9/9 10/10/10 12/12/12
f 13/13/13 8/8/8 7/7/7
f 13/13/13 7/7/7 12/12/12
f 11/11/11 14/14/14 10/10/10
f 11/11/11 15/15/15 14/14/14
f 16/16/16 14/14/14 15/15/15
f 10/10/10 17/17/17 12/12/12
f 13/13/13 12/12/12 17/17/17
f 10/10/10 14/14/14 17/17/17
f 8/8/8 13/13/13 18/18/18
f 17/17/17 18/18/18 13/13/13
f 8/8/8 18/18/18 19/19/19
f 19/19/19 18/18/18 20/20/20
f 16/16/16 21/21/21 14/14/14
f 14/14/14 21/21/21 17/17/17
f 16/16/16 22/22/22 21/21/21
f 22/22/22 23/23/23 20/20/20
f 18/18/18 17/17/17 24/24/24
f 21/21/21 24/24/24 17/17/17
f 18/18/18 24/24/24 20/20/20
f 21/21/21 22/22/22 24/24/24
f 22/22/22 20/20/20 24/24/24
f 27/27/27 26/26/26 25/25/25
f 27/27/27 28/28/28 26/26/26
f 28/28/28 29/29/29 26/26/26
f 28/28/28 27/27/27 30/30/30
f 28/28/28 31/31/31 29/29/29
f 32/32/32 29/29/29 31/31/31
f 28/28/28 30/30/30 33/33/33
f 31/31/31 28/28/28 33/33/33
f 30/30/30 34/34/34 33/33/33
f 34/34/34 35/35/35 33/33/33
f 35/35/35 36/36/36 33/33/33
f 31/31/31 33/33/33 36/36/36
f 35/35/35 37/37/37 36/36/36
f 37/37/37 38/38/38 36/36/36
f 31/31/31 36/36/36 38/38/38
f 37/37/37 39/39/39 38/38/38
f 38/38/38 39/39/39 40/40/40
f 41/41/41 38/38/38 40/40/40
f 42/42/42 32/32/32 41/41/41
f 32/32/32 31/31/31 43/43/43
f 31/31/31 38/38/38 43/43/43
f 41/41/41 43/43/43 38/38/38
f 32/32/32 43/43/43 41/41/41
