g ENV_S10_Group_Unlit_Cubes_3_MO
v 543.0609 -2.3795166 -71.98724
v 693.06335 -2.3795166 -71.98724
v 693.06335 0.9623413 -71.98724
v 543.0609 0.9623413 -71.98724
v 693.06335 -2.3795166 -71.98724
v 693.06335 -2.3795166 77.99408
v 693.06335 0.9623413 77.99408
v 693.06335 0.9623413 -71.98724
v 693.06335 -2.3795166 77.99408
v 543.0609 -2.3795166 77.99408
v 543.0609 0.9623413 77.99408
v 693.06335 0.9623413 77.99408
v 543.0609 -2.3795166 77.99408
v 543.0609 -2.3795166 -71.98724
v 543.0609 0.9623413 -71.98724
v 543.0609 0.9623413 77.99408
v 543.0609 0.9623413 -71.98724
v 693.06335 0.9623413 -71.98724
v 693.06335 0.9623413 77.99408
v 543.0609 0.9623413 77.99408
v 543.0609 -2.3795166 77.99408
v 693.06335 -2.3795166 77.99408
v 693.06335 -2.3795166 -71.98724
v 543.0609 -2.3795166 -71.98724
v -693.06335 16.550598 -99.99109
v 518.12396 16.550598 -99.99109
v 518.12396 19.871277 -99.99109
v -693.06335 19.871277 -99.99109
v 518.12396 16.550598 -99.99109
v 518.12396 16.550598 99.99103
v 518.12396 19.871277 99.99103
v 518.12396 19.871277 -99.99109
v 518.12396 16.550598 99.99103
v -693.06335 16.550598 99.99103
v -693.06335 19.871277 99.99103
v 518.12396 19.871277 99.99103
v -693.06335 16.550598 99.99103
v -693.06335 16.550598 -99.99109
v -693.06335 19.871277 -99.99109
v -693.06335 19.871277 99.99103
v -693.06335 19.871277 -99.99109
v 518.12396 19.871277 -99.99109
v 518.12396 19.871277 99.99103
v -693.06335 19.871277 99.99103
v -693.06335 16.550598 99.99103
v 518.12396 16.550598 99.99103
v 518.12396 16.550598 -99.99109
v -693.06335 16.550598 -99.99109
vt 0.97459114 0.9908641
vt 0.9736135 0.9908641
vt 0.9736135 0.9918733
vt 0.97459114 0.9918733
vt 0.9736135 0.9919364
vt 0.9736135 0.992914
vt 0.97459114 0.992914
vt 0.97459114 0.9919364
vt 0.9736135 0.9929771
vt 0.9736135 0.99398625
vt 0.97459114 0.99398625
vt 0.97459114 0.9929771
vt 0.9722259 0.9936709
vt 0.9722259 0.9946485
vt 0.9732351 0.9946485
vt 0.9732351 0.9936709
vt 0.97427577 0.995027
vt 0.97427577 0.9940494
vt 0.9732666 0.9940494
vt 0.9732666 0.995027
vt 0.9732351 0.9957208
vt 0.9732351 0.99471164
vt 0.9722259 0.99471164
vt 0.9722259 0.9957208
vt 0.9666754 0.9908641
vt 0.9666754 0.99893755
vt 0.96799994 0.99893755
vt 0.96799994 0.9908641
vt 0.9722259 0.9908641
vt 0.9722259 0.9921887
vt 0.97355044 0.9921887
vt 0.97355044 0.9908641
vt 0.9693876 0.99893755
vt 0.9693876 0.9908641
vt 0.968063 0.9908641
vt 0.968063 0.99893755
vt 0.9722259 0.9935763
vt 0.97355044 0.9935763
vt 0.97355044 0.99225175
vt 0.9722259 0.99225175
vt 0.96945065 0.9908641
vt 0.96945065 0.998906
vt 0.9707752 0.998906
vt 0.9707752 0.9908641
vt 0.97083825 0.9908641
vt 0.97083825 0.998906
vt 0.9721628 0.998906
vt 0.9721628 0.9908641
vn -0.003921509 0.003921509 -0.9999846
vn -0.003921509 0.003921509 -0.9999846
vn -0.003921509 0.003921509 -0.9999846
vn -0.003921509 0.003921509 -0.9999846
vn 0.9999924 0.003921509 -0
vn 0.9999924 0.003921509 -0
vn 0.9999924 0.003921509 -0
vn 0.9999924 0.003921509 -0
vn -0.003921509 0.003921509 0.9999846
vn -0.003921509 0.003921509 0.9999846
vn -0.003921509 0.003921509 0.9999846
vn -0.003921509 0.003921509 0.9999846
vn -0.99999225 0.003921509 -0.00034492963
vn -0.99999225 0.003921509 -0.00034492963
vn -0.99999225 0.003921509 -0.00034492963
vn -0.99999225 0.003921509 -0.00034492963
vn -0.003921509 0.99999225 -0.00034526698
vn -0.003921509 0.99999225 -0.00034526698
vn -0.003921509 0.99999225 -0.00034526698
vn -0.003921509 0.99999225 -0.00034526698
vn -0.003921509 -0.9999924 -0
vn -0.003921509 -0.9999924 -0
vn -0.003921509 -0.9999924 -0
vn -0.003921509 -0.9999924 -0
vn -0.003921509 0.003921509 -0.9999846
vn -0.003921509 0.003921509 -0.9999846
vn -0.003921509 0.003921509 -0.9999846
vn -0.003921509 0.003921509 -0.9999846
vn 0.9999924 0.003921509 -0
vn 0.9999924 0.003921509 -0
vn 0.9999924 0.003921509 -0
vn 0.9999924 0.003921509 -0
vn -0.003921509 0.003921509 0.9999846
vn -0.003921509 0.003921509 0.9999846
vn -0.003921509 0.003921509 0.9999846
vn -0.003921509 0.003921509 0.9999846
vn -0.99999225 0.003921509 -0.00034492963
vn -0.99999225 0.003921509 -0.00034492963
vn -0.99999225 0.003921509 -0.00034492963
vn -0.99999225 0.003921509 -0.00034492963
vn -0.003921509 0.99999225 -0.00034526698
vn -0.003921509 0.99999225 -0.00034526698
vn -0.003921509 0.99999225 -0.00034526698
vn -0.003921509 0.99999225 -0.00034526698
vn -0.003921509 -0.9999924 -0
vn -0.003921509 -0.9999924 -0
vn -0.003921509 -0.9999924 -0
vn -0.003921509 -0.9999924 -0
g ENV_S10_Group_Unlit_Cubes_3_MO_0
f 3/3/3 2/2/2 1/1/1
f 4/4/4 3/3/3 1/1/1
f 7/7/7 6/6/6 5/5/5
f 8/8/8 7/7/7 5/5/5
f 11/11/11 10/10/10 9/9/9
f 12/12/12 11/11/11 9/9/9
f 15/15/15 14/14/14 13/13/13
f 16/16/16 15/15/15 13/13/13
f 19/19/19 18/18/18 17/17/17
f 20/20/20 19/19/19 17/17/17
f 23/23/23 22/22/22 21/21/21
f 24/24/24 23/23/23 21/21/21
f 27/27/27 26/26/26 25/25/25
f 28/28/28 27/27/27 25/25/25
f 31/31/31 30/30/30 29/29/29
f 32/32/32 31/31/31 29/29/29
f 35/35/35 34/34/34 33/33/33
f 36/36/36 35/35/35 33/33/33
f 39/39/39 38/38/38 37/37/37
f 40/40/40 39/39/39 37/37/37
f 43/43/43 42/42/42 41/41/41
f 44/44/44 43/43/43 41/41/41
f 47/47/47 46/46/46 45/45/45
f 48/48/48 47/47/47 45/45/45
