g ENV_SY01_HHR_Casing_Floor_01_MO
v -39.960716 -6.871171 17.011595
v -39.960716 -4.693019 17.011595
v -39.861366 -4.693019 16.780855
v -39.861366 -6.871171 16.780855
v -39.923325 -7.0207253 16.768034
v -40.006653 -7.0207253 16.963526
v -40.029083 -6.871171 -0.0002155304
v -40.029083 -4.693019 -0.0002155304
v -39.861366 -4.693019 -16.781286
v -40.09104 -7.0207253 0.00085258484
v -40.145523 -7.076275 16.537294
v -40.19146 -7.076275 16.644117
v -39.861366 -6.871171 -16.781286
v -39.960716 -4.693019 -17.012026
v -39.960716 -6.871171 -17.012026
v -40.006653 -7.0207253 -16.962887
v -39.923325 -7.0207253 -16.768467
v -40.19146 -7.076275 -16.643482
v -40.31431 -7.076275 0.00085258484
v -40.145523 -7.076275 -16.536657
v -40.300415 -7.076275 -16.684074
v -40.006653 -7.0207253 -16.962887
v -42.21044 -7.076275 -16.585796
v -40.205345 -7.0207253 -17.036596
v -39.960716 -6.871171 -17.012026
v -42.21044 -7.076275 16.585367
v -44.001892 -7.076275 -16.129656
v -44.001892 -7.076275 16.129225
v -45.78586 -7.076275 -15.132982
v -42.18373 -7.0207253 -16.934044
v -40.195732 -6.871171 -17.098555
v -44.03073 -7.0207253 -16.46188
v -40.195732 -4.693019 -17.098555
v -39.960716 -4.693019 -17.012026
v -42.19442 -6.871171 -16.996002
v -42.19442 -4.693019 -16.996002
v -44.05423 -4.693019 -16.519566
v -44.05423 -6.871171 -16.519566
v -45.896957 -4.693019 -15.489777
v -45.861702 -7.0207253 -15.438501
v -45.896957 -6.871171 -15.489777
v -47.60401 -4.693019 -14.078625
v -47.44484 -7.076275 -13.761355
v -47.60401 -6.871171 -14.078625
v -49.132668 -4.693019 -12.316019
v -47.56128 -7.0207253 -14.033758
v -49.132668 -6.871171 -12.316019
v -50.443405 -4.693019 -10.246827
v -48.933975 -7.076275 -12.044685
v -49.083534 -7.0207253 -12.279699
v -50.443405 -6.871171 -10.246827
v -51.4999 -4.693019 -7.91912
v -50.21267 -7.076275 -10.024632
v -50.388924 -7.0207253 -10.216917
v -51.4999 -6.871171 -7.91912
v -52.27545 -4.693019 -5.3927193
v -51.24566 -7.076275 -7.7514057
v -51.442215 -7.0207253 -7.8977556
v -52.27545 -6.871171 -5.3927193
v -52.74975 -4.693019 -2.730651
v -52.004112 -7.076275 -5.2794857
v -52.21563 -7.0207253 -5.378832
v -52.467735 -7.076275 -2.674034
v -52.623695 -7.076275 -0.0002155304
v -52.467735 -7.076275 2.673603
v -52.68779 -7.0207253 -2.7231731
v -52.74975 -6.871171 -2.730651
v -52.90892 -4.693019 -0.0002155304
v -52.846962 -7.0207253 -0.0002155304
v -52.90892 -6.871171 -0.0002155304
v -52.74975 -4.693019 2.731289
v -52.68779 -7.0207253 2.7238102
v -52.74975 -6.871171 2.731289
v -52.27545 -4.693019 5.3933563
v -52.004112 -7.076275 5.2801228
v -52.27545 -6.871171 5.3933563
v -51.4999 -4.693019 7.9186897
v -52.21563 -7.0207253 5.378401
v -51.4999 -6.871171 7.9186897
v -50.443405 -4.693019 10.246397
v -51.24566 -7.076275 7.7509747
v -51.442215 -7.0207253 7.8973236
v -50.443405 -6.871171 10.246397
v -49.132668 -4.693019 12.316656
v -50.21267 -7.076275 10.025269
v -50.388924 -7.0207253 10.216486
v -49.132668 -6.871171 12.316656
v -47.60401 -4.693019 14.078194
v -48.933975 -7.076275 12.045322
v -49.083534 -7.0207253 12.279268
v -47.60401 -6.871171 14.078194
v -45.896957 -4.693019 15.490416
v -47.44484 -7.076275 13.760923
v -47.56128 -7.0207253 14.034395
v -45.78586 -7.076275 15.132551
v -45.861702 -7.0207253 15.439138
v -45.896957 -6.871171 15.490416
v -44.05423 -4.693019 16.519133
v -44.03073 -7.0207253 16.462519
v -44.05423 -6.871171 16.519133
v -42.19442 -4.693019 16.995573
v -42.18373 -7.0207253 16.934683
v -42.19442 -6.871171 16.995573
v -40.195732 -4.693019 17.098124
v -40.300415 -7.076275 16.683645
v -40.205345 -7.0207253 17.036165
v -40.006653 -7.0207253 16.963526
v -40.195732 -6.871171 17.098124
v -39.960716 -4.693019 17.011595
v -39.960716 -6.871171 17.011595
vt 1.6189638 0.1839962
vt 1.6299325 0.016239226
vt 1.6131569 0.014303565
vt 1.6021882 0.18141544
vt 1.6008977 0.19173884
vt 1.6144475 0.19561017
vt 0.47692585 0.16334927
vt 0.4756354 -0.0063434243
vt -0.6605958 0.033014953
vt 0.47692585 0.17431796
vt 1.5854126 0.20722413
vt 1.593155 0.21109545
vt -0.6483366 0.20012677
vt -0.6773715 0.034950614
vt -0.6644671 0.20335281
vt -0.6605958 0.21496677
vt -0.64704615 0.21109545
vt -0.6386583 0.22980678
vt 0.47692585 0.18980324
vt -0.63091564 0.22593546
vt -0.64059395 0.2381947
vt -0.66640276 0.22335458
vt -0.6212374 0.36207676
vt -0.66640276 0.23754942
vt -0.6793071 0.22270942
vt 1.57767 0.34272015
vt -0.5844599 0.47692585
vt 1.5421828 0.45885968
vt -0.5160667 0.59112966
vt -0.64382005 0.36401248
vt -0.6773715 0.23883986
vt -0.6057521 0.4801519
vt -0.8419024 0.28013396
vt -0.84448326 0.26335824
vt -0.6541436 0.36723852
vt -0.8160936 0.4220822
vt -0.7631856 0.55886865
vt -0.6147852 0.48531365
vt -0.6799523 0.6995264
vt -0.53606844 0.5969366
vt -0.5451015 0.6027435
vt -0.5689746 0.8292155
vt -0.4244455 0.69694555
vt -0.4502543 0.7130761
vt -0.43283337 0.9447098
vt -0.44315687 0.7053335
vt -0.33346957 0.81114936
vt -0.27539986 1.0421379
vt -0.31153214 0.79179287
vt -0.32701743 0.80276155
vt -0.19603789 0.8950279
vt -0.099900246 1.1195642
vt -0.17797178 0.87373567
vt -0.19087613 0.8859948
vt -0.04118526 0.96277595
vt 0.08850378 1.175053
vt -0.027635634 0.93890285
vt -0.03731394 0.9524524
vt 0.12657171 1.0118126
vt 0.28529572 1.2079593
vt 0.1356048 0.98664904
vt 0.1291526 1.0008439
vt 0.30787838 1.0150387
vt 0.4846685 1.0234265
vt 0.6614585 1.0118126
vt 0.3046522 1.0298787
vt 0.30336177 1.0408474
vt 0.48724937 1.2176374
vt 0.48531365 1.0389118
vt 0.48531365 1.0498805
vt 0.68855774 1.2040879
vt 0.6653298 1.0272979
vt 0.66662025 1.0376214
vt 0.88534963 1.1679558
vt 0.83308685 0.98019683
vt 0.8427651 1.0053604
vt 1.0724632 1.1092407
vt 0.8401842 0.99503684
vt 1.009877 0.95374286
vt 1.2466725 1.0285883
vt 0.9956821 0.9298698
vt 1.0060056 0.94341934
vt 1.1634392 0.8834139
vt 1.4021703 0.92793405
vt 1.1447277 0.8621217
vt 1.1576322 0.87373567
vt 1.298935 0.7969545
vt 1.5357307 0.80921376
vt 1.2763525 0.7782432
vt 1.292483 0.7885667
vt 1.4137841 0.6963004
vt 1.6434823 0.6769438
vt 1.3873302 0.68146026
vt 1.4060415 0.6892029
vt 1.4763705 0.57370865
vt 1.4970175 0.5788704
vt 1.5054053 0.5853226
vt 1.7221991 0.5343503
vt 1.563475 0.46144056
vt 1.5731534 0.46595705
vt 1.7686547 0.39691865
vt 1.6008977 0.34465587
vt 1.610576 0.3478819
vt 1.7951087 0.2575513
vt 1.5950907 0.2188381
vt 1.6208996 0.21754766
vt 1.6202544 0.20335281
vt 1.6318682 0.2188381
vt 1.7976896 0.24077559
vt 1.6331588 0.20206237
vn 0.6862693 -0.07450926 0.7235212
vn 0.6862693 0.003921509 0.727337
vn 0.9999924 0.003921509 -0
vn 0.99723566 -0.074303865 -0
vn 0.6626585 -0.74892175 -0
vn 0.38038927 -0.8274447 0.41308513
vn 0.99723566 -0.074303865 -0
vn 0.9999924 0.003921509 -0
vn 0.9999924 0.003921509 -0
vn 0.5842015 -0.8116088 -0
vn 0.05872205 -0.9982743 -0
vn 0.098038495 -0.9921493 0.07764171
vn 0.99723566 -0.074303865 -0
vn 0.6862693 0.003921509 -0.727337
vn 0.6862693 -0.07450926 -0.7235212
vn 0.38038927 -0.8274447 -0.41308513
vn 0.6626585 -0.74892175 -0
vn 0.098038495 -0.9921493 -0.07764171
vn 0.043097205 -0.9990709 -0
vn 0.05872205 -0.9982743 -0
vn -0.003921509 -0.9921493 -0.124997616
vn 0.38038927 -0.8274447 -0.41308513
vn -0.003921509 -0.9999924 -0
vn -0.003921509 -0.86666006 -0.49888372
vn 0.6862693 -0.07450926 -0.7235212
vn -0.003921509 -0.9999924 -0
vn -0.003921509 -0.9999924 -0
vn -0.003921509 -0.9999924 -0
vn -0.003921509 -0.9999924 -0
vn -0.066666126 -0.8823462 -0.4658549
vn -0.003921509 -0.07450926 -0.9972126
vn -0.18431222 -0.87450314 -0.4486349
vn -0.003921509 0.003921509 -0.9999846
vn 0.6862693 0.003921509 -0.727337
vn -0.1450969 -0.07450926 -0.98660797
vn -0.1450969 0.003921509 -0.9894097
vn -0.3803892 0.003921509 -0.9248182
vn -0.37254608 -0.07450926 -0.9250177
vn -0.56862307 0.003921509 -0.82258886
vn -0.2862723 -0.858817 -0.42483127
vn -0.56862307 -0.07450926 -0.8192168
vn -0.7019553 0.003921509 -0.71221024
vn -0.003921509 -0.9999924 -0
vn -0.7019553 -0.07450926 -0.70831287
vn -0.8039154 0.003921509 -0.5947308
vn -0.37254608 -0.8509739 -0.37020648
vn -0.8039154 -0.07450926 -0.59005797
vn -0.88234615 0.003921509 -0.47058466
vn -0.003921509 -0.9999924 -0
vn -0.44313383 -0.83528775 -0.3254639
vn -0.874503 -0.07450926 -0.4792628
vn -0.93724763 0.003921509 -0.34864238
vn -0.003921509 -0.9999924 -0
vn -0.4980353 -0.8274447 -0.259415
vn -0.9294046 -0.07450926 -0.36146286
vn -0.96861994 0.003921509 -0.2485156
vn -0.011763803 -0.99993086 -0
vn -0.53725076 -0.8196016 -0.19903481
vn -0.96861994 -0.07450926 -0.23711549
vn -0.99214923 0.003921509 -0.12499809
vn -0.011763803 -0.99993086 -0
vn -0.56862307 -0.8117585 -0.13310121
vn -0.011763803 -0.99993086 -0
vn -0.011763803 -0.99993086 -0
vn -0.011763803 -0.99993086 -0
vn -0.5843092 -0.80391544 -0.11091752
vn -0.99214923 -0.07450926 -0.10044038
vn -0.99999225 0.003921509 -0.00034492963
vn -0.59215224 -0.80391544 -0.055459164
vn -0.99723566 -0.07430387 -0
vn -0.99214923 0.003921509 0.12499809
vn -0.5843092 -0.80391544 0.11091752
vn -0.99214923 -0.07450926 0.10044038
vn -0.96861994 0.003921509 0.2485156
vn -0.011763803 -0.99993086 -0
vn -0.96861994 -0.07450926 0.23711549
vn -0.93724763 0.003921509 0.34864238
vn -0.56862307 -0.8117585 0.13310121
vn -0.9294046 -0.07450926 0.36146286
vn -0.88234615 0.003921509 0.47058466
vn -0.011763803 -0.99993086 -0
vn -0.53725076 -0.8196016 0.19903481
vn -0.874503 -0.07450926 0.4792628
vn -0.8039154 0.003921509 0.5947308
vn -0.003921509 -0.9999924 -0
vn -0.4980353 -0.8274447 0.259415
vn -0.8039154 -0.07450926 0.59005797
vn -0.7019553 0.003921509 0.71221024
vn -0.003921509 -0.9999924 -0
vn -0.44313383 -0.83528775 0.3254639
vn -0.7019553 -0.07450926 0.70831287
vn -0.56862307 0.003921509 0.82258886
vn -0.003921509 -0.9999924 -0
vn -0.37254608 -0.8509739 0.37020648
vn -0.003921509 -0.9999924 -0
vn -0.2862723 -0.858817 0.42483127
vn -0.56862307 -0.07450926 0.8192168
vn -0.3803892 0.003921509 0.9248182
vn -0.18431222 -0.87450314 0.4486349
vn -0.37254608 -0.07450926 0.9250177
vn -0.1450969 0.003921509 0.9894097
vn -0.066666126 -0.8823462 0.4658549
vn -0.1450969 -0.07450926 0.98660797
vn -0.003921509 0.003921509 0.9999846
vn -0.003921509 -0.9921493 0.124997616
vn -0.003921509 -0.86666006 0.49888372
vn 0.38038927 -0.8274447 0.41308513
vn -0.003921509 -0.07450926 0.9972126
vn 0.6862693 0.003921509 0.727337
vn 0.6862693 -0.07450926 0.7235212
g ENV_SY01_HHR_Casing_Floor_01_MO_0
f 3/3/3 2/2/2 1/1/1
f 4/4/4 3/3/3 1/1/1
f 4/4/4 1/1/1 5/5/5
f 1/1/1 6/6/6 5/5/5
f 4/4/4 7/7/7 3/3/3
f 7/7/7 8/8/8 3/3/3
f 9/9/9 8/8/8 7/7/7
f 4/4/4 5/5/5 10/10/10
f 7/7/7 4/4/4 10/10/10
f 5/5/5 6/6/6 11/11/11
f 6/6/6 12/12/12 11/11/11
f 13/13/13 9/9/9 7/7/7
f 14/14/14 9/9/9 13/13/13
f 15/15/15 14/14/14 13/13/13
f 16/16/16 15/15/15 13/13/13
f 17/17/17 13/13/13 7/7/7
f 17/17/17 16/16/16 13/13/13
f 10/10/10 17/17/17 7/7/7
f 18/18/18 16/16/16 17/17/17
f 10/10/10 5/5/5 19/19/19
f 5/5/5 11/11/11 19/19/19
f 20/20/20 17/17/17 10/10/10
f 20/20/20 18/18/18 17/17/17
f 19/19/19 20/20/20 10/10/10
f 20/20/20 21/21/21 18/18/18
f 22/22/22 18/18/18 21/21/21
f 20/20/20 23/23/23 21/21/21
f 20/20/20 19/19/19 23/23/23
f 24/24/24 22/22/22 21/21/21
f 24/24/24 21/21/21 23/23/23
f 25/25/25 22/22/22 24/24/24
f 26/26/26 19/19/19 11/11/11
f 27/27/27 23/23/23 19/19/19
f 26/26/26 28/28/28 19/19/19
f 29/29/29 27/27/27 19/19/19
f 30/30/30 24/24/24 23/23/23
f 30/30/30 23/23/23 27/27/27
f 31/31/31 25/25/25 24/24/24
f 31/31/31 24/24/24 30/30/30
f 32/32/32 30/30/30 27/27/27
f 32/32/32 27/27/27 29/29/29
f 31/31/31 33/33/33 25/25/25
f 33/33/33 34/34/34 25/25/25
f 35/35/35 31/31/31 30/30/30
f 31/31/31 35/35/35 33/33/33
f 35/35/35 30/30/30 32/32/32
f 35/35/35 36/36/36 33/33/33
f 37/37/37 36/36/36 35/35/35
f 38/38/38 37/37/37 35/35/35
f 38/38/38 35/35/35 32/32/32
f 39/39/39 37/37/37 38/38/38
f 40/40/40 32/32/32 29/29/29
f 38/38/38 32/32/32 40/40/40
f 41/41/41 39/39/39 38/38/38
f 41/41/41 38/38/38 40/40/40
f 42/42/42 39/39/39 41/41/41
f 40/40/40 29/29/29 43/43/43
f 43/43/43 29/29/29 19/19/19
f 44/44/44 42/42/42 41/41/41
f 45/45/45 42/42/42 44/44/44
f 41/41/41 40/40/40 46/46/46
f 46/46/46 40/40/40 43/43/43
f 44/44/44 41/41/41 46/46/46
f 47/47/47 45/45/45 44/44/44
f 48/48/48 45/45/45 47/47/47
f 46/46/46 43/43/43 49/49/49
f 49/49/49 43/43/43 19/19/19
f 44/44/44 46/46/46 50/50/50
f 50/50/50 46/46/46 49/49/49
f 47/47/47 44/44/44 50/50/50
f 51/51/51 48/48/48 47/47/47
f 52/52/52 48/48/48 51/51/51
f 50/50/50 49/49/49 53/53/53
f 19/19/19 53/53/53 49/49/49
f 47/47/47 50/50/50 54/54/54
f 54/54/54 50/50/50 53/53/53
f 51/51/51 47/47/47 54/54/54
f 55/55/55 52/52/52 51/51/51
f 56/56/56 52/52/52 55/55/55
f 54/54/54 53/53/53 57/57/57
f 57/57/57 53/53/53 19/19/19
f 51/51/51 54/54/54 58/58/58
f 58/58/58 54/54/54 57/57/57
f 55/55/55 51/51/51 58/58/58
f 59/59/59 56/56/56 55/55/55
f 60/60/60 56/56/56 59/59/59
f 61/61/61 57/57/57 19/19/19
f 58/58/58 57/57/57 61/61/61
f 55/55/55 58/58/58 62/62/62
f 62/62/62 58/58/58 61/61/61
f 59/59/59 55/55/55 62/62/62
f 63/63/63 61/61/61 19/19/19
f 62/62/62 61/61/61 63/63/63
f 64/64/64 63/63/63 19/19/19
f 65/65/65 64/64/64 19/19/19
f 66/66/66 62/62/62 63/63/63
f 59/59/59 62/62/62 66/66/66
f 66/66/66 63/63/63 64/64/64
f 67/67/67 60/60/60 59/59/59
f 67/67/67 59/59/59 66/66/66
f 68/68/68 60/60/60 67/67/67
f 69/69/69 66/66/66 64/64/64
f 67/67/67 66/66/66 69/69/69
f 64/64/64 65/65/65 69/69/69
f 70/70/70 68/68/68 67/67/67
f 70/70/70 67/67/67 69/69/69
f 71/71/71 68/68/68 70/70/70
f 65/65/65 72/72/72 69/69/69
f 69/69/69 72/72/72 70/70/70
f 73/73/73 71/71/71 70/70/70
f 72/72/72 73/73/73 70/70/70
f 74/74/74 71/71/71 73/73/73
f 65/65/65 75/75/75 72/72/72
f 75/75/75 65/65/65 19/19/19
f 76/76/76 74/74/74 73/73/73
f 77/77/77 74/74/74 76/76/76
f 72/72/72 78/78/78 73/73/73
f 75/75/75 78/78/78 72/72/72
f 78/78/78 76/76/76 73/73/73
f 79/79/79 77/77/77 76/76/76
f 80/80/80 77/77/77 79/79/79
f 75/75/75 81/81/81 78/78/78
f 81/81/81 75/75/75 19/19/19
f 78/78/78 82/82/82 76/76/76
f 81/81/81 82/82/82 78/78/78
f 82/82/82 79/79/79 76/76/76
f 83/83/83 80/80/80 79/79/79
f 84/84/84 80/80/80 83/83/83
f 81/81/81 85/85/85 82/82/82
f 85/85/85 81/81/81 19/19/19
f 82/82/82 86/86/86 79/79/79
f 85/85/85 86/86/86 82/82/82
f 86/86/86 83/83/83 79/79/79
f 87/87/87 84/84/84 83/83/83
f 88/88/88 84/84/84 87/87/87
f 85/85/85 89/89/89 86/86/86
f 85/85/85 19/19/19 89/89/89
f 86/86/86 90/90/90 83/83/83
f 89/89/89 90/90/90 86/86/86
f 90/90/90 87/87/87 83/83/83
f 91/91/91 88/88/88 87/87/87
f 92/92/92 88/88/88 91/91/91
f 93/93/93 89/89/89 19/19/19
f 89/89/89 93/93/93 90/90/90
f 90/90/90 94/94/94 87/87/87
f 93/93/93 94/94/94 90/90/90
f 94/94/94 91/91/91 87/87/87
f 95/95/95 93/93/93 19/19/19
f 93/93/93 95/95/95 94/94/94
f 28/28/28 95/95/95 19/19/19
f 95/95/95 96/96/96 94/94/94
f 94/94/94 96/96/96 91/91/91
f 95/95/95 28/28/28 96/96/96
f 97/97/97 92/92/92 91/91/91
f 96/96/96 97/97/97 91/91/91
f 98/98/98 92/92/92 97/97/97
f 28/28/28 99/99/99 96/96/96
f 96/96/96 99/99/99 97/97/97
f 28/28/28 26/26/26 99/99/99
f 100/100/100 98/98/98 97/97/97
f 99/99/99 100/100/100 97/97/97
f 101/101/101 98/98/98 100/100/100
f 26/26/26 102/102/102 99/99/99
f 99/99/99 102/102/102 100/100/100
f 103/103/103 101/101/101 100/100/100
f 102/102/102 103/103/103 100/100/100
f 104/104/104 101/101/101 103/103/103
f 26/26/26 105/105/105 102/102/102
f 105/105/105 26/26/26 11/11/11
f 105/105/105 11/11/11 12/12/12
f 105/105/105 106/106/106 102/102/102
f 105/105/105 12/12/12 106/106/106
f 102/102/102 106/106/106 103/103/103
f 12/12/12 107/107/107 106/106/106
f 108/108/108 104/104/104 103/103/103
f 106/106/106 108/108/108 103/103/103
f 106/106/106 107/107/107 108/108/108
f 109/109/109 104/104/104 108/108/108
f 107/107/107 110/110/110 108/108/108
f 110/110/110 109/109/109 108/108/108
