g ENV_RoundBush
v 15.979101 12.608459 2.6122456
v 15.928584 15.449791 -3.2085686
v 17.279144 9.434124 1.872015
v 18.94312 14.464191 -11.369668
v 12.353206 18.77877 -7.141691
v 19.239006 7.178379 -8.477818
v 16.762634 5.2669754 0.90600395
v 14.812052 2.3328552 -0.15279579
v 14.694522 18.073593 -21.306084
v 7.141691 20.194283 -8.539677
v 15.432692 2.3390408 -10.977902
v 10.163443 -0.3631115 -2.5374126
v 9.547956 -0.00021362305 -13.4285
v 19.113228 12.861046 -19.508087
v 9.0448475 17.922039 -23.277285
v 3.7395134 19.634468 -13.723355
v -0.12865639 17.806572 -16.360558
v 12.053196 3.4298 -19.186426
v 3.7601337 -1.0456085 -15.380113
v 16.731705 6.4164963 -18.37918
v 15.0986595 13.984795 -25.173225
v 14.59555 9.902184 -25.199
v -0.6163025 14.086861 -21.037003
v -4.5081863 14.886887 -16.257462
v 8.336576 13.886852 -26.50626
v 8.201521 7.4175644 -25.116522
v 1.5858326 3.0803032 -20.16584
v -1.2390041 7.7619057 -21.980335
v -8.40007 9.448559 -15.818272
v -8.999058 14.210575 -13.487265
v -8.43203 3.2792797 -14.715141
v -13.63633 -0.8383846 -7.232416
v -18.805576 11.095005 -13.6047945
v -15.14978 2.4235802 -12.245986
v -19.279816 16.019913 -10.419121
v -12.737328 17.555016 -9.361353
v -21.673714 19.283943 -3.5477543
v -11.495018 19.970562 -1.1322098
v -15.392059 18.813824 6.807232
v -28.440952 15.278652 -6.605591
v -21.237614 0.6523857 -1.490984
v -16.451889 -0.8878708 4.084461
v -25.716118 7.309311 -8.289152
v -22.92427 3.2988663 -6.3045483
v -26.473873 4.6710777 -1.6105766
v -31.249294 11.545536 -1.7270756
v -29.014164 17.222015 -1.2817001
v -23.345932 18.592167 3.8009453
v -29.498718 14.898228 3.9380646
v -20.951008 15.534332 9.515572
v -11.676468 13.337349 13.848705
v -28.668793 8.466053 5.0205746
v -21.766499 12.250713 11.25996
v -25.913029 7.29797 7.708294
v -23.875847 2.7318382 3.2194824
v -19.571579 1.4761257 7.646435
v -11.690903 9.379486 15.449791
v -6.9391975 15.121944 17.066341
v -18.075653 5.6638947 13.31879
v -10.56303 1.549324 13.079609
v 2.7549458 -1.0373611 18.29731
v -11.351715 5.2824383 15.278652
v -7.1196136 8.47739 20.813889
v -1.5060234 3.1627808 22.166512
v 9.921165 4.1452866 25.052177
v 10.179937 -0.118774414 17.935444
v 2.98485 8.108307 26.517174
v 2.0786343 11.854824 26.597591
v 10.734595 11.009438 28.612091
v 14.433688 4.6473656 23.156235
v 15.984256 10.764069 27.35741
v 10.541805 15.54567 27.683193
v 3.18898 15.367313 25.381054
v 15.040925 1.9256248 17.939568
v 12.469705 -0.8734379 10.5094185
v 19.88748 7.7258186 20.487076
v 17.908031 2.414301 8.971222
v 10.163443 -0.3631115 -2.5374126
v 14.812052 2.3328552 -0.15279579
v 16.762634 5.2669754 0.90600395
v 1.5126343 17.7076 20.923172
v -1.1152878 18.484947 15.992077
v 3.4962063 19.938602 12.146587
v 10.741812 18.623093 23.311913
v 17.415234 14.81472 26.022312
v 15.338874 18.156067 21.877842
v 7.559231 19.767464 11.403263
v 13.110964 17.81482 9.593925
v 18.6328 15.7910385 17.20552
v 15.500734 15.601341 6.818573
v 20.612247 11.555847 17.08799
v 19.387463 10.083633 7.164978
v 19.264778 5.3711014 7.862938
v 17.279144 9.434124 1.872015
v 15.979101 12.608459 2.6122456
v 13.110964 17.81482 9.593925
v 16.698713 24.812992 7.464985
v 15.500734 15.601341 6.818573
v 7.559231 19.767464 11.403263
v 11.343894 27.05843 7.4206543
v 3.4446583 23.600582 9.455776
v 6.244753 27.582157 6.3515472
v 3.4962063 19.938602 12.146587
v 1.2786064 32.588512 7.6330338
v 3.435381 37.3062 4.0958004
v -3.1535015 39.541325 3.4060879
v 1.0188046 41.057873 1.1977654
v -3.30093 25.3326 16.237446
v -1.1152878 18.484947 15.992077
v -1.7049999 28.199707 9.368145
v -10.258896 23.216034 19.80664
v -6.9391975 15.121944 17.066341
v -11.676468 13.337349 13.848705
v -9.597019 28.71828 16.926128
v -14.702343 20.508724 15.627117
v -15.392059 18.813824 6.807232
v -15.198238 25.148056 15.457008
v -6.395878 29.357475 6.4639206
v -13.689938 25.669724 7.0288887
v -11.495018 19.970562 -1.1322098
v -12.189888 28.597656 12.366184
v -9.144424 26.672852 2.2246037
v -6.3866005 34.550434 -0.97756577
v -8.569149 26.578003 -3.5147648
v -1.8534584 39.334103 -2.5054512
v -12.778568 23.07582 -7.8180027
v -12.737328 17.555016 -9.361353
v -5.441208 29.379128 -6.372593
v 3.8147736 38.297985 -2.5539074
v 3.435381 37.3062 4.0958004
v -12.533199 21.830418 -15.437846
v -8.999058 14.210575 -13.487265
v -10.30529 28.318268 -10.946973
v -0.109069824 29.11314 -8.666485
v 6.0313435 24.64804 -6.8932285
v 7.9870796 29.316238 1.7730427
v 6.244753 27.582157 6.3515472
v -8.736164 21.054104 -19.00807
v -4.5081863 14.886887 -16.257462
v -11.928024 26.353252 -16.438911
v -5.9247284 29.868835 -13.835731
v -8.201096 28.073929 -18.048244
v -5.129856 23.186134 -19.263748
v -0.12865639 17.806572 -16.360558
v -0.060613632 25.626423 -15.823426
v 3.7395134 19.634468 -13.723355
v 7.141691 20.194283 -8.539677
v 13.764594 24.503704 -5.73855
v 12.353206 18.77877 -7.141691
v 19.187456 20.665432 -2.829174
v 15.928584 15.449791 -3.2085686
v 15.979101 12.608459 2.6122456
v 21.07618 22.779934 3.251442
v 15.500734 15.601341 6.818573
v 16.698713 24.812992 7.464985
v 19.859644 25.411983 -1.6889305
v 14.697615 28.92035 -1.8683167
v 19.68232 27.845055 1.7513924
v 13.010961 29.531708 3.0504055
v 11.343894 27.05843 7.4206543
v 7.559231 28.166714 -2.9168053
vt 0.0698351 0.0679192
vt 0.08899402 0.07749867
vt 0.07079304 0.055465907
vt 0.10911089 0.0679192
vt 0.10911089 0.09665759
vt 0.10048937 0.0449285
vt 0.07462483 0.039180823
vt 0.07845661 0.02481163
vt 0.13497543 0.072708935
vt 0.12826982 0.10815294
vt 0.11390062 0.026727522
vt 0.09186786 0.00469476
vt 0.13497543 0.00469476
vt 0.12539598 0.058339745
vt 0.15030257 0.07558277
vt 0.15030257 0.10048937
vt 0.17041944 0.09282581
vt 0.13976516 0.02960136
vt 0.16467176 0.00469476
vt 0.12731186 0.041096713
vt 0.13976516 0.061213583
vt 0.14168106 0.05163412
vt 0.17520918 0.072708935
vt 0.18957837 0.080372505
vt 0.15413436 0.06312947
vt 0.1550923 0.045886442
vt 0.17233534 0.032475196
vt 0.17904095 0.05163412
vt 0.20394756 0.060255636
vt 0.20777935 0.080372505
vt 0.20586345 0.03630698
vt 0.23747568 0.00469476
vt 0.231728 0.06504537
vt 0.22693826 0.03439109
vt 0.24034952 0.08133045
vt 0.2298121 0.09665759
vt 0.26238227 0.09186786
vt 0.26238227 0.116774455
vt 0.30070013 0.103363216
vt 0.25950843 0.07175099
vt 0.26812994 0.026727522
vt 0.2901627 0.00469476
vt 0.2528028 0.05163412
vt 0.2547187 0.039180823
vt 0.26908788 0.043012604
vt 0.27004585 0.06217153
vt 0.27100378 0.07558277
vt 0.28441504 0.08612018
vt 0.28249913 0.07079304
vt 0.302616 0.080372505
vt 0.33327028 0.07462483
vt 0.28537297 0.055465907
vt 0.3064478 0.0679192
vt 0.29303655 0.05163412
vt 0.28249913 0.03630698
vt 0.2978263 0.02960136
vt 0.33518618 0.058339745
vt 0.3543451 0.07941456
vt 0.31506932 0.045886442
vt 0.3294385 0.025769575
vt 0.37829375 0.00469476
vt 0.33327028 0.04205466
vt 0.3543451 0.05163412
vt 0.3687143 0.028643413
vt 0.40128446 0.025769575
vt 0.4127798 0.00469476
vt 0.3830835 0.04205466
vt 0.38212553 0.05450796
vt 0.40128446 0.045886442
vt 0.4146957 0.027685467
vt 0.4127798 0.0449285
vt 0.40224242 0.057381798
vt 0.38691527 0.06408742
vt 0.427149 0.018106006
vt 0.4501397 0.00469476
vt 0.43002284 0.038222875
vt 0.45684534 0.02481163
vt 0.49516317 0.00469476
vt 0.48558372 0.02481163
vt 0.48175195 0.03630698
vt 0.38499936 0.07845661
vt 0.3792517 0.09282581
vt 0.4041583 0.10432116
vt 0.40703213 0.0698351
vt 0.41756955 0.05450796
vt 0.41948545 0.06696126
vt 0.41852748 0.09857348
vt 0.4415182 0.087078124
vt 0.43385464 0.06312947
vt 0.45684534 0.07749867
vt 0.4376864 0.050676174
vt 0.46163508 0.052592065
vt 0.46067712 0.03630698
vt 0.47792014 0.052592065
vt 0.47313043 0.06600331
vt 0.06504537 0.2834571
vt 0.08995197 0.2834571
vt 0.06504537 0.27004585
vt 0.061213583 0.30070013
vt 0.08899402 0.30165806
vt 0.0679192 0.31794316
vt 0.08612018 0.3169852
vt 0.05450796 0.3112375
vt 0.08899402 0.33901796
vt 0.10911089 0.34284976
vt 0.102405265 0.36105072
vt 0.117732406 0.3600928
vt 0.049718227 0.33422822
vt 0.035349034 0.31985903
vt 0.07175099 0.34093386
vt 0.033433147 0.3457236
vt 0.015232167 0.33518618
vt 0.00469476 0.35530305
vt 0.047802337 0.3505133
vt 0.025769575 0.3600928
vt 0.026727522 0.38595733
vt 0.03726493 0.36105072
vt 0.07175099 0.36200866
vt 0.047802337 0.37733582
vt 0.049718227 0.4041583
vt 0.049718227 0.36200866
vt 0.06600331 0.38212553
vt 0.09282581 0.3792517
vt 0.07558277 0.39745268
vt 0.11102678 0.373504
vt 0.06504537 0.41756955
vt 0.055465907 0.43481258
vt 0.09378375 0.40032652
vt 0.12539598 0.3754199
vt 0.13593338 0.36105072
vt 0.07462483 0.4357705
vt 0.0679192 0.45780328
vt 0.08324634 0.4146957
vt 0.11390062 0.4079901
vt 0.13689132 0.41852748
vt 0.1550923 0.38595733
vt 0.16467176 0.37254608
vt 0.08612018 0.4434341
vt 0.088036075 0.46355096
vt 0.0822884 0.4290649
vt 0.09761553 0.41852748
vt 0.09282581 0.4290649
vt 0.09665759 0.4415182
vt 0.10815294 0.45684534
vt 0.11198473 0.43193874
vt 0.124438025 0.44630793
vt 0.14072311 0.43481258
vt 0.15892409 0.42140132
vt 0.15892409 0.43960232
vt 0.17808302 0.427149
vt 0.18191479 0.44247615
vt 0.20490551 0.44056025
vt 0.18957837 0.4127798
vt 0.21256907 0.42427516
vt 0.19532605 0.39553678
vt 0.17520918 0.4146957
vt 0.16371381 0.4041583
vt 0.17904095 0.40511626
vt 0.16946149 0.391705
vt 0.1799989 0.3811676
vt 0.14551285 0.40128446
vn 0.94424206 -0.32925206 -0
vn 0.961208 0.27081156 -0.052347746
vn 0.9689081 0.2246108 0.103764705
vn 0.85340625 0.5095153 0.109963335
vn 0.6070024 0.73281884 -0.30744857
vn 0.95350784 -0.29129738 0.07725705
vn 0.9381076 -0.3143977 -0.14528662
vn 0.6993652 -0.7147646 -0
vn 0.4452998 0.88682127 -0.12351585
vn 0.2296964 0.90222156 -0.36501482
vn 0.59930223 -0.79180527 -0.11781879
vn 0.47610027 -0.8765066 -0.07116647
vn 0.38369882 -0.89190686 -0.23932694
vn 0.961208 0.03210783 -0.2739494
vn -0.11680913 0.88682127 -0.44710588
vn 0.42219943 0.73281884 -0.5335955
vn -0.0013073087 0.53261566 -0.8463562
vn 0.29899746 -0.79180527 -0.5325833
vn -0.1399095 -0.79180527 -0.59453326
vn 0.7687049 -0.5531015 -0.32120326
vn 0.4838004 0.4094137 -0.7735099
vn 0.4915005 -0.4452998 -0.7484219
vn -0.53261566 0.46331465 -0.70827967
vn -0.3401127 -0.014092982 -0.94027907
vn -0.2400111 0.16300988 -0.9569861
vn -0.047508 -0.53770125 -0.8417959
vn -0.16300988 -0.70710397 -0.6880638
vn -0.4941151 -0.16809541 -0.85299134
vn -0.48641503 0.1399095 -0.86245334
vn -0.46331465 0.109109044 -0.8794514
vn -0.35551286 -0.5531015 -0.75345165
vn -0.28621185 -0.85340625 -0.43563807
vn -0.37091315 0.047508 -0.92745155
vn -0.4017136 -0.62240255 -0.6717449
vn -0.21691072 0.70971847 -0.6702607
vn -0.62501717 0.6558176 -0.42338726
vn -0.14760959 0.9715227 -0.18535113
vn -0.64811754 0.74821913 -0.14181608
vn -0.7020184 0.6866181 0.1890127
vn -0.6096169 0.4094137 -0.678784
vn -0.43251407 -0.89190686 -0.13203697
vn -0.3170123 -0.9073071 0.2762192
vn -0.6558176 -0.36059844 -0.6632285
vn -0.5249156 -0.75330466 -0.39622685
vn -0.74051905 -0.6686033 -0.067832
vn -0.9638225 -0.20659602 -0.1684171
vn -0.6002085 0.79984355 -0
vn -0.27851164 0.90992165 0.30736607
vn -0.72511876 0.4094137 0.55369955
vn -0.29391193 0.6943183 0.6569154
vn -0.55571604 0.07830846 0.82767594
vn -0.84062064 -0.28359723 0.46144292
vn -0.5018152 0.18611026 0.8447156
vn -0.6712179 -0.4838004 0.5616081
vn -0.63271725 -0.7456045 0.20914774
vn -0.44791436 -0.7841052 0.4295949
vn -0.4941151 0.19381034 0.8475186
vn -0.47871482 0.3170123 0.81874007
vn -0.45561445 -0.3451982 0.8205204
vn -0.39401352 -0.72250414 0.5681031
vn -0.20921063 -0.8226057 0.52872556
vn -0.47871482 -0.3143977 0.8197477
vn -0.62501717 -0.075693905 0.7769324
vn -0.35551286 -0.61470246 0.70409626
vn 0.05259359 -0.6686033 0.7417571
vn 0.268197 -0.8611064 0.431933
vn -0.28621185 -0.3528983 0.89081174
vn -0.46331465 0.24771118 0.85086936
vn -0.03210783 -0.19119579 0.98102665
vn 0.46070004 -0.6917037 0.5561488
vn 0.4838004 -0.3066976 0.8196791
vn -0.01670754 0.5018152 0.8648135
vn -0.37861323 0.66351783 0.64528763
vn 0.5608016 -0.7841052 0.26585826
vn 0.48323858 -0.87548876 -0
vn 0.8611064 -0.41449928 0.294425
vn 0.6840036 -0.72250414 -0.100632146
vn 0.47610027 -0.8765066 -0.07116647
vn 0.6993652 -0.7147646 -0
vn 0.9381076 -0.3143977 -0.14528662
vn -0.26311147 0.8945215 0.3613913
vn 0.268197 0.35551286 0.8953664
vn 0.1757955 0.90992165 0.3756841
vn -0.03210783 0.933022 0.3583839
vn 0.7379044 0.44791436 0.5048463
vn 0.3143977 0.9484223 0.040610354
vn 0.2296964 0.74821913 0.62242085
vn 0.5685017 0.7790196 0.26445085
vn 0.75330466 0.6558176 -0.049348727
vn 0.9458077 0.27081156 0.17918964
vn 0.99200845 0.124509215 0.020413795
vn 0.9227073 0.29391193 -0.24945334
vn 0.9689081 -0.22199625 -0.109246485
vn 0.9689081 0.2246108 0.103764705
vn 0.94424206 -0.32925206 -0
vn 0.5685017 0.7790196 0.26445085
vn 0.4915005 0.30931222 0.81409657
vn 0.9458077 0.27081156 0.17918964
vn 0.2296964 0.74821913 0.62242085
vn 0.091094196 0.6096169 0.7874447
vn 0.36059844 0.5095153 0.7812573
vn 0.41449928 0.5865165 0.6958367
vn 0.1757955 0.90992165 0.3756841
vn 0.24509662 0.39401352 0.8858222
vn 0.6609032 0.5249156 0.5363493
vn -0.55571604 0.6019168 0.57347697
vn 0.2527967 0.9638225 0.08449876
vn 0.54540133 0.45561445 0.7035289
vn 0.268197 0.35551286 0.8953664
vn 0.16039526 0.7174187 0.6779261
vn -0.10140884 -0.060293674 0.99301606
vn -0.47871482 0.3170123 0.81874007
vn -0.55571604 0.07830846 0.82767594
vn 0.044893444 0.8791212 0.47447926
vn -0.84062064 -0.3143977 0.44103408
vn -0.7020184 0.6866181 0.1890127
vn -0.90222156 0.3401127 0.2651784
vn -0.44021428 0.8714211 0.21641782
vn -0.7790196 0.54031587 -0.3180994
vn -0.64811754 0.74821913 -0.14181608
vn -0.48641503 0.8714211 -0.063448384
vn -0.8714211 0.48641503 -0.063448265
vn -0.8637209 0.45561445 -0.21541056
vn -0.8560208 0.5095153 0.08730716
vn -0.35551286 0.64811754 -0.67346436
vn -0.9407222 0.28621185 0.18200125
vn -0.62501717 0.6558176 -0.42338726
vn -0.4941151 0.7790196 -0.3859776
vn 0.67630345 0.5172155 -0.52450144
vn 0.6609032 0.5249156 0.5363493
vn -0.90222156 -0.22199625 -0.3697484
vn -0.46331465 0.109109044 -0.8794514
vn -0.6096169 0.7867197 0.09715693
vn 0.28359723 0.678918 -0.6772318
vn 0.53000116 0.4941151 -0.6891655
vn 0.67630345 0.73281884 0.07476725
vn 0.41449928 0.5865165 0.6958367
vn -0.4094137 -0.2758971 -0.86963284
vn -0.3401127 -0.014092982 -0.94027907
vn -0.8637209 0.37091315 -0.3411886
vn 0.10649443 0.9715227 -0.21166626
vn -0.08600867 0.678918 -0.729159
vn 0.2758971 -0.0063928366 -0.9611659
vn -0.0013073087 0.53261566 -0.8463562
vn 0.5916021 0.5018152 -0.6310218
vn 0.42219943 0.73281884 -0.5335955
vn 0.2296964 0.90222156 -0.36501482
vn 0.3451982 0.34781277 -0.8717021
vn 0.6070024 0.73281884 -0.30744857
vn 0.8072055 -0.24509662 -0.53697944
vn 0.961208 0.27081156 -0.052347746
vn 0.94424206 -0.32925206 -0
vn 0.9381076 -0.19889587 0.2835393
vn 0.9458077 0.27081156 0.17918964
vn 0.4915005 0.30931222 0.81409657
vn 0.72250414 0.34781277 -0.5975065
vn 0.1757955 0.8483207 -0.49944758
vn 0.6070024 0.7636194 0.22007608
vn 0.15269518 0.933022 0.32581306
vn 0.091094196 0.6096169 0.7874447
vn 0.5916021 0.64811754 -0.4795317
g ENV_RoundBush_0
f 3/3/3 2/2/2 1/1/1
f 4/4/4 2/2/2 3/3/3
f 5/5/5 2/2/2 4/4/4
f 6/6/6 4/4/4 3/3/3
f 3/3/3 7/7/7 6/6/6
f 6/6/6 7/7/7 8/8/8
f 9/9/9 5/5/5 4/4/4
f 9/9/9 10/10/10 5/5/5
f 11/11/11 6/6/6 8/8/8
f 12/12/12 11/11/11 8/8/8
f 12/12/12 13/13/13 11/11/11
f 14/14/14 4/4/4 6/6/6
f 9/9/9 4/4/4 14/14/14
f 9/9/9 15/15/15 10/10/10
f 15/15/15 16/16/16 10/10/10
f 15/15/15 17/17/17 16/16/16
f 11/11/11 13/13/13 18/18/18
f 18/18/18 13/13/13 19/19/19
f 6/6/6 11/11/11 20/20/20
f 20/20/20 14/14/14 6/6/6
f 11/11/11 18/18/18 20/20/20
f 21/21/21 9/9/9 14/14/14
f 15/15/15 9/9/9 21/21/21
f 20/20/20 22/22/22 14/14/14
f 14/14/14 22/22/22 21/21/21
f 18/18/18 22/22/22 20/20/20
f 17/17/17 15/15/15 23/23/23
f 24/24/24 17/17/17 23/23/23
f 25/25/25 15/15/15 21/21/21
f 25/25/25 21/21/21 22/22/22
f 15/15/15 25/25/25 23/23/23
f 18/18/18 26/26/26 22/22/22
f 26/26/26 25/25/25 22/22/22
f 18/18/18 19/19/19 27/27/27
f 27/27/27 26/26/26 18/18/18
f 25/25/25 26/26/26 28/28/28
f 23/23/23 25/25/25 28/28/28
f 28/28/28 26/26/26 27/27/27
f 24/24/24 23/23/23 29/29/29
f 29/29/29 23/23/23 28/28/28
f 30/30/30 24/24/24 29/29/29
f 31/31/31 27/27/27 19/19/19
f 28/28/28 27/27/27 31/31/31
f 31/31/31 29/29/29 28/28/28
f 31/31/31 19/19/19 32/32/32
f 29/29/29 33/33/33 30/30/30
f 33/33/33 29/29/29 31/31/31
f 34/34/34 31/31/31 32/32/32
f 34/34/34 33/33/33 31/31/31
f 30/30/30 33/33/33 35/35/35
f 36/36/36 30/30/30 35/35/35
f 37/37/37 36/36/36 35/35/35
f 37/37/37 38/38/38 36/36/36
f 37/37/37 39/39/39 38/38/38
f 35/35/35 33/33/33 40/40/40
f 37/37/37 35/35/35 40/40/40
f 32/32/32 41/41/41 34/34/34
f 42/42/42 41/41/41 32/32/32
f 34/34/34 43/43/43 33/33/33
f 43/43/43 40/40/40 33/33/33
f 41/41/41 44/44/44 34/34/34
f 44/44/44 43/43/43 34/34/34
f 45/45/45 43/43/43 44/44/44
f 41/41/41 45/45/45 44/44/44
f 43/43/43 46/46/46 40/40/40
f 46/46/46 43/43/43 45/45/45
f 47/47/47 37/37/37 40/40/40
f 46/46/46 47/47/47 40/40/40
f 48/48/48 39/39/39 37/37/37
f 47/47/47 48/48/48 37/37/37
f 49/49/49 47/47/47 46/46/46
f 48/48/48 47/47/47 49/49/49
f 39/39/39 48/48/48 50/50/50
f 50/50/50 48/48/48 49/49/49
f 51/51/51 39/39/39 50/50/50
f 46/46/46 52/52/52 49/49/49
f 52/52/52 46/46/46 45/45/45
f 53/53/53 50/50/50 49/49/49
f 53/53/53 51/51/51 50/50/50
f 53/53/53 49/49/49 52/52/52
f 52/52/52 45/45/45 54/54/54
f 54/54/54 53/53/53 52/52/52
f 41/41/41 55/55/55 45/45/45
f 45/45/45 55/55/55 54/54/54
f 55/55/55 41/41/41 56/56/56
f 55/55/55 56/56/56 54/54/54
f 41/41/41 42/42/42 56/56/56
f 53/53/53 57/57/57 51/51/51
f 51/51/51 57/57/57 58/58/58
f 53/53/53 54/54/54 59/59/59
f 56/56/56 59/59/59 54/54/54
f 59/59/59 57/57/57 53/53/53
f 42/42/42 60/60/60 56/56/56
f 60/60/60 59/59/59 56/56/56
f 42/42/42 61/61/61 60/60/60
f 62/62/62 57/57/57 59/59/59
f 59/59/59 60/60/60 62/62/62
f 57/57/57 62/62/62 63/63/63
f 63/63/63 62/62/62 60/60/60
f 63/63/63 58/58/58 57/57/57
f 61/61/61 64/64/64 60/60/60
f 64/64/64 63/63/63 60/60/60
f 61/61/61 65/65/65 64/64/64
f 61/61/61 66/66/66 65/65/65
f 64/64/64 67/67/67 63/63/63
f 65/65/65 67/67/67 64/64/64
f 67/67/67 68/68/68 63/63/63
f 58/58/58 63/63/63 68/68/68
f 65/65/65 69/69/69 67/67/67
f 67/67/67 69/69/69 68/68/68
f 66/66/66 70/70/70 65/65/65
f 69/69/69 65/65/65 71/71/71
f 71/71/71 65/65/65 70/70/70
f 68/68/68 69/69/69 72/72/72
f 69/69/69 71/71/71 72/72/72
f 73/73/73 58/58/58 68/68/68
f 73/73/73 68/68/68 72/72/72
f 66/66/66 74/74/74 70/70/70
f 66/66/66 75/75/75 74/74/74
f 71/71/71 70/70/70 76/76/76
f 76/76/76 70/70/70 74/74/74
f 75/75/75 77/77/77 74/74/74
f 77/77/77 76/76/76 74/74/74
f 75/75/75 78/78/78 77/77/77
f 78/78/78 79/79/79 77/77/77
f 79/79/79 80/80/80 77/77/77
f 73/73/73 81/81/81 58/58/58
f 81/81/81 82/82/82 58/58/58
f 82/82/82 81/81/81 83/83/83
f 84/84/84 81/81/81 73/73/73
f 84/84/84 83/83/83 81/81/81
f 72/72/72 84/84/84 73/73/73
f 71/71/71 85/85/85 72/72/72
f 84/84/84 72/72/72 85/85/85
f 85/85/85 71/71/71 76/76/76
f 84/84/84 86/86/86 83/83/83
f 86/86/86 84/84/84 85/85/85
f 86/86/86 87/87/87 83/83/83
f 86/86/86 88/88/88 87/87/87
f 88/88/88 86/86/86 89/89/89
f 89/89/89 86/86/86 85/85/85
f 90/90/90 88/88/88 89/89/89
f 76/76/76 91/91/91 85/85/85
f 91/91/91 89/89/89 85/85/85
f 92/92/92 90/90/90 89/89/89
f 91/91/91 92/92/92 89/89/89
f 76/76/76 93/93/93 91/91/91
f 93/93/93 92/92/92 91/91/91
f 76/76/76 77/77/77 93/93/93
f 80/80/80 93/93/93 77/77/77
f 92/92/92 93/93/93 80/80/80
f 94/94/94 92/92/92 80/80/80
f 94/94/94 90/90/90 92/92/92
f 95/95/95 90/90/90 94/94/94
f 98/98/98 97/97/97 96/96/96
f 99/99/99 96/96/96 97/97/97
f 100/100/100 99/99/99 97/97/97
f 101/101/101 99/99/99 100/100/100
f 102/102/102 101/101/101 100/100/100
f 99/99/99 101/101/101 103/103/103
f 101/101/101 102/102/102 104/104/104
f 102/102/102 105/105/105 104/104/104
f 104/104/104 105/105/105 106/106/106
f 105/105/105 107/107/107 106/106/106
f 108/108/108 103/103/103 101/101/101
f 108/108/108 109/109/109 103/103/103
f 101/101/101 104/104/104 110/110/110
f 110/110/110 104/104/104 106/106/106
f 110/110/110 108/108/108 101/101/101
f 109/109/109 108/108/108 111/111/111
f 112/112/112 109/109/109 111/111/111
f 113/113/113 112/112/112 111/111/111
f 108/108/108 110/110/110 114/114/114
f 114/114/114 111/111/111 108/108/108
f 111/111/111 115/115/115 113/113/113
f 116/116/116 113/113/113 115/115/115
f 115/115/115 111/111/111 117/117/117
f 117/117/117 116/116/116 115/115/115
f 111/111/111 114/114/114 117/117/117
f 110/110/110 118/118/118 114/114/114
f 118/118/118 110/110/110 106/106/106
f 119/119/119 116/116/116 117/117/117
f 120/120/120 116/116/116 119/119/119
f 117/117/117 114/114/114 121/121/121
f 121/121/121 114/114/114 118/118/118
f 117/117/117 121/121/121 119/119/119
f 119/119/119 121/121/121 118/118/118
f 122/122/122 119/119/119 118/118/118
f 122/122/122 118/118/118 106/106/106
f 119/119/119 122/122/122 120/120/120
f 123/123/123 122/122/122 106/106/106
f 122/122/122 124/124/124 120/120/120
f 124/124/124 122/122/122 123/123/123
f 106/106/106 125/125/125 123/123/123
f 106/106/106 107/107/107 125/125/125
f 126/126/126 120/120/120 124/124/124
f 126/126/126 127/127/127 120/120/120
f 124/124/124 123/123/123 128/128/128
f 125/125/125 128/128/128 123/123/123
f 129/129/129 125/125/125 107/107/107
f 130/130/130 129/129/129 107/107/107
f 127/127/127 126/126/126 131/131/131
f 131/131/131 132/132/132 127/127/127
f 133/133/133 126/126/126 124/124/124
f 124/124/124 128/128/128 133/133/133
f 128/128/128 125/125/125 134/134/134
f 125/125/125 129/129/129 134/134/134
f 134/134/134 129/129/129 135/135/135
f 129/129/129 130/130/130 136/136/136
f 130/130/130 137/137/137 136/136/136
f 131/131/131 138/138/138 132/132/132
f 138/138/138 139/139/139 132/132/132
f 140/140/140 131/131/131 126/126/126
f 133/133/133 140/140/140 126/126/126
f 138/138/138 131/131/131 140/140/140
f 128/128/128 134/134/134 141/141/141
f 133/133/133 128/128/128 141/141/141
f 142/142/142 140/140/140 133/133/133
f 140/140/140 142/142/142 138/138/138
f 141/141/141 142/142/142 133/133/133
f 139/139/139 138/138/138 143/143/143
f 142/142/142 143/143/143 138/138/138
f 139/139/139 143/143/143 144/144/144
f 134/134/134 145/145/145 141/141/141
f 142/142/142 141/141/141 145/145/145
f 143/143/143 142/142/142 145/145/145
f 143/143/143 145/145/145 144/144/144
f 144/144/144 145/145/145 146/146/146
f 145/145/145 134/134/134 135/135/135
f 145/145/145 135/135/135 146/146/146
f 135/135/135 147/147/147 146/146/146
f 135/135/135 148/148/148 147/147/147
f 148/148/148 149/149/149 147/147/147
f 150/150/150 149/149/149 148/148/148
f 151/151/151 149/149/149 150/150/150
f 151/151/151 150/150/150 152/152/152
f 150/150/150 153/153/153 152/152/152
f 154/154/154 152/152/152 153/153/153
f 155/155/155 154/154/154 153/153/153
f 156/156/156 150/150/150 148/148/148
f 150/150/150 156/156/156 153/153/153
f 148/148/148 135/135/135 157/157/157
f 157/157/157 156/156/156 148/148/148
f 156/156/156 158/158/158 153/153/153
f 153/153/153 158/158/158 155/155/155
f 157/157/157 158/158/158 156/156/156
f 158/158/158 159/159/159 155/155/155
f 158/158/158 157/157/157 159/159/159
f 159/159/159 160/160/160 155/155/155
f 160/160/160 159/159/159 137/137/137
f 159/159/159 136/136/136 137/137/137
f 159/159/159 157/157/157 136/136/136
f 135/135/135 161/161/161 157/157/157
f 136/136/136 157/157/157 161/161/161
f 135/135/135 129/129/129 161/161/161
f 136/136/136 161/161/161 129/129/129
