g ENV_SY02_GX_Section01_Softwall02_MO
v -41.68254 30.308975 -198.05281
v -40.80681 33.38687 -191.98494
v -41.224518 33.11206 -194.71109
v -40.803146 30.308975 -191.98494
v -41.711853 29.87294 -198.32394
v -40.748184 30.308975 -191.5086
v -40.748184 33.38321 -191.5086
v -40.803146 29.87294 -191.98494
v -41.711853 29.414917 -198.41556
v -40.711533 30.308975 -191.03226
v -40.711533 33.38321 -191.03226
v -40.748184 29.87294 -191.5086
v -40.803146 29.414917 -191.98494
v -41.711853 22.229492 -198.41922
v -40.803146 22.229492 -191.98494
v -40.748184 22.229492 -191.5086
v -40.748184 29.414917 -191.5086
v -40.711533 22.222153 -191.03226
v -40.711533 29.414917 -191.03226
v -40.700546 22.211166 -190.55592
v -40.711533 29.87294 -191.03226
v -40.700546 29.414917 -190.55592
v -40.700546 29.87294 -190.55592
v -40.700546 29.414917 -181.43582
v -40.700546 21.954666 -181.43582
v -40.711533 21.947342 -180.95947
v -40.700546 29.87294 -181.43582
v -40.711533 29.414917 -180.95947
v -40.748184 21.947342 -180.47946
v -40.700546 30.308975 -190.55592
v -40.700546 33.38321 -190.55592
v -40.700546 33.38321 -181.43582
v -40.700546 30.308975 -181.43582
v -40.711533 29.87294 -180.95947
v -40.748184 29.414917 -180.47946
v -40.803146 21.958344 -180.00679
v -40.715195 30.308975 -180.95947
v -40.715195 33.38321 -180.95947
v -40.748184 29.87294 -180.47946
v -40.748184 30.308975 -180.47946
v -40.748184 33.38321 -180.47946
v -40.803146 29.414917 -180.00679
v -40.803146 29.87294 -180.00679
v -40.80681 30.308975 -180.00679
v -40.80681 33.38687 -180.00679
v -41.191544 33.37587 -177.42355
v -41.70819 30.308975 -173.99023
v -41.711853 29.87294 -173.71909
v -41.711853 29.414917 -173.62381
v -41.711853 22.163528 -173.62381
vt 1.4471775 0.7019111
vt 0.96841764 0.951285
vt 1.1930445 0.951285
vt 0.96841764 0.7019111
vt 1.4681174 0.66764593
vt 0.93129706 0.7019111
vt 0.93129706 0.951285
vt 0.96841764 0.66764593
vt 1.4757317 0.632429
vt 0.8932247 0.7019111
vt 0.8932247 0.951285
vt 0.93129706 0.66764593
vt 0.96841764 0.632429
vt 1.4757317 0.0708617
vt 0.96841764 0.0708617
vt 0.9303452 0.0708617
vt 0.93129706 0.632429
vt 0.8932247 0.06990993
vt 0.8932247 0.632429
vt 0.85610414 0.06990993
vt 0.8932247 0.66764593
vt 0.85610414 0.632429
vt 0.85610414 0.66764593
vt 0.1431992 0.632429
vt 0.1431992 0.04992193
vt 0.106078684 0.04992193
vt 0.1431992 0.6685978
vt 0.106078684 0.632429
vt 0.06800628 0.04992193
vt 0.85610414 0.7019111
vt 0.85610414 0.951285
vt 0.14415103 0.951285
vt 0.1431992 0.7019111
vt 0.106078684 0.6685978
vt 0.0689581 0.632429
vt 0.030885756 0.04992193
vt 0.106078684 0.70286286
vt 0.106078684 0.951285
vt 0.0689581 0.6685978
vt 0.0689581 0.70286286
vt 0.0689581 0.951285
vt 0.030885756 0.632429
vt 0.030885756 0.6685978
vt 0.030885756 0.70286286
vt 0.030885756 0.951285
vt -0.19374117 0.9522369
vt -0.44406694 0.70286286
vt -0.46500674 0.6685978
vt -0.4726212 0.632429
vt -0.4726212 0.06610268
vn 0.9878886 0.009234428 -0.15488993
vn 0.9878886 0.005197406 -0.15507789
vn 0.9878886 0.005197406 -0.15507789
vn 0.9878886 0.005197406 -0.15507789
vn 0.9878886 0.013271332 -0.15459636
vn 0.99596244 0.0011605024 -0.08976324
vn 0.99596244 0.0011605024 -0.08976324
vn 0.99192554 0.013271332 -0.12612529
vn 0.99192554 0.0011605024 -0.12681629
vn 0.9999994 0.0011605024 -0
vn 0.9999994 0.0011605024 -0
vn 0.99596244 0.0011605024 -0.08976324
vn 0.99192554 0.0011605024 -0.12681629
vn 0.99192554 0.0011605024 -0.12681629
vn 0.99192554 0.0011605024 -0.12681629
vn 0.99596244 0.0011605024 -0.08976324
vn 0.99596244 0.0011605024 -0.08976324
vn 0.9999994 0.0011605024 -0
vn 0.9999994 0.0011605024 -0
vn 0.9999994 0.0011605024 -0
vn 0.9999994 0.0011605024 -0
vn 0.9999994 0.0011605024 -0
vn 0.9999994 0.0011605024 -0
vn 0.9999994 0.0011605024 -0
vn 0.9999994 0.0011605024 -0
vn 0.9999994 0.0011605024 -0
vn 0.9999994 0.0011605024 -0
vn 0.9999994 0.0011605024 -0
vn 0.99596244 0.0011605024 0.08976324
vn 0.9999994 0.0011605024 -0
vn 0.9999994 0.0011605024 -0
vn 0.9999994 0.0011605024 -0
vn 0.9999994 0.0011605024 -0
vn 0.9999994 0.0011605024 -0
vn 0.99596244 0.0011605024 0.08976324
vn 0.99192554 0.0011605024 0.12681629
vn 0.9999994 0.0011605024 -0
vn 0.9999994 0.0011605024 -0
vn 0.99596244 0.0011605024 0.08976324
vn 0.99596244 0.0011605024 0.08976324
vn 0.99596244 0.0011605024 0.08976324
vn 0.99192554 0.0011605024 0.12681629
vn 0.9878886 0.029419065 0.15235053
vn 0.9878886 0.005197406 0.15507789
vn 0.9878886 -0.0028764606 0.1551383
vn 0.9878886 -0.0028764606 0.1551383
vn 0.9878886 0.017308235 0.15419659
vn 0.9878886 0.025382161 0.15307485
vn 0.99192554 0.0011605024 0.12681629
vn 0.99192554 0.0011605024 0.12681629
g ENV_SY02_GX_Section01_Softwall02_MO_0
f 3/3/3 2/2/2 1/1/1
f 2/2/2 4/4/4 1/1/1
f 5/5/5 1/1/1 4/4/4
f 4/4/4 2/2/2 6/6/6
f 2/2/2 7/7/7 6/6/6
f 8/8/8 5/5/5 4/4/4
f 9/9/9 5/5/5 8/8/8
f 6/6/6 7/7/7 10/10/10
f 7/7/7 11/11/11 10/10/10
f 6/6/6 12/12/12 4/4/4
f 12/12/12 8/8/8 4/4/4
f 13/13/13 9/9/9 8/8/8
f 9/9/9 13/13/13 14/14/14
f 13/13/13 15/15/15 14/14/14
f 16/16/16 15/15/15 13/13/13
f 17/17/17 13/13/13 8/8/8
f 17/17/17 16/16/16 13/13/13
f 12/12/12 17/17/17 8/8/8
f 18/18/18 16/16/16 17/17/17
f 19/19/19 18/18/18 17/17/17
f 19/19/19 17/17/17 12/12/12
f 20/20/20 18/18/18 19/19/19
f 21/21/21 12/12/12 6/6/6
f 21/21/21 19/19/19 12/12/12
f 10/10/10 21/21/21 6/6/6
f 22/22/22 20/20/20 19/19/19
f 22/22/22 19/19/19 21/21/21
f 23/23/23 21/21/21 10/10/10
f 23/23/23 22/22/22 21/21/21
f 22/22/22 24/24/24 20/20/20
f 24/24/24 25/25/25 20/20/20
f 26/26/26 25/25/25 24/24/24
f 24/24/24 22/22/22 27/27/27
f 22/22/22 23/23/23 27/27/27
f 28/28/28 26/26/26 24/24/24
f 28/28/28 24/24/24 27/27/27
f 29/29/29 26/26/26 28/28/28
f 30/30/30 23/23/23 10/10/10
f 10/10/10 11/11/11 30/30/30
f 11/11/11 31/31/31 30/30/30
f 31/31/31 32/32/32 30/30/30
f 23/23/23 30/30/30 33/33/33
f 27/27/27 23/23/23 33/33/33
f 32/32/32 33/33/33 30/30/30
f 34/34/34 28/28/28 27/27/27
f 27/27/27 33/33/33 34/34/34
f 35/35/35 29/29/29 28/28/28
f 35/35/35 28/28/28 34/34/34
f 36/36/36 29/29/29 35/35/35
f 33/33/33 32/32/32 37/37/37
f 33/33/33 37/37/37 34/34/34
f 32/32/32 38/38/38 37/37/37
f 39/39/39 35/35/35 34/34/34
f 34/34/34 37/37/37 39/39/39
f 37/37/37 38/38/38 40/40/40
f 37/37/37 40/40/40 39/39/39
f 38/38/38 41/41/41 40/40/40
f 42/42/42 36/36/36 35/35/35
f 42/42/42 35/35/35 39/39/39
f 39/39/39 40/40/40 43/43/43
f 43/43/43 42/42/42 39/39/39
f 40/40/40 41/41/41 44/44/44
f 40/40/40 44/44/44 43/43/43
f 41/41/41 45/45/45 44/44/44
f 45/45/45 46/46/46 44/44/44
f 46/46/46 47/47/47 44/44/44
f 44/44/44 47/47/47 43/43/43
f 47/47/47 48/48/48 43/43/43
f 43/43/43 48/48/48 42/42/42
f 48/48/48 49/49/49 42/42/42
f 42/42/42 49/49/49 36/36/36
f 49/49/49 50/50/50 36/36/36
