g ENV_SY01_Bluejay_InnerRing_SlipperyRamp_01_MO
v 3.2126226 1.4708767 -1.2783422
v 2.9579363 1.2949791 -0.86055183
v 2.6381245 0.9530716 -0.50236225
v 2.636961 0.9664459 -1.278924
v 3.2015743 1.4397678 -3.7943897
v 1.754571 0.5288849 -0.50207233
v 2.6340542 0.9754591 -3.7952614
v 3.185584 1.4804707 -5.667033
v 1.7536993 0.5579586 -1.2795057
v 0.9012556 0.29629517 -0.50207233
v 2.63231 1.0577374 -5.6684866
v 3.1687212 1.6156635 -7.516418
v 1.7522459 0.61145496 -3.7972965
v 0.89980125 0.33670712 -1.2797966
v -0.0046844482 0.20820141 -0.50178146
v 2.6305647 1.2481709 -7.5158362
v 3.1492414 1.8680248 -9.451279
v 1.7513733 0.73385525 -5.670231
v 0.89602184 0.42276573 -3.7987509
v -0.0046844482 0.254138 -1.2800865
v -0.89986706 0.25123024 -0.50178146
v -0.8992853 0.2925148 -1.2797966
v -1.747078 0.48614693 -0.50178146
v -0.004975319 0.35647774 -3.7996225
v 0.8928242 0.5716238 -5.671685
v -1.7473679 0.5163832 -1.2792149
v -2.6393528 0.92923164 -0.5014906
v -0.8978319 0.38177204 -3.7987509
v -2.638771 0.94347763 -1.2780514
v -2.994053 1.2757912 -0.85880756
v -3.225771 1.4691315 -1.2771797
v -1.7488213 0.57365894 -3.7970057
v -2.6378994 0.9542351 -3.7946806
v -3.2147236 1.4374409 -3.793517
v -0.0052661896 0.5187092 -5.672557
v 1.7505007 0.96382904 -7.514964
v -0.89666843 0.5335369 -5.671685
v -2.6373177 1.0379677 -5.667615
v -3.199604 1.4766903 -5.6658697
v -1.7502766 0.69809437 -5.669941
v -2.6370258 1.2252026 -7.514964
v -3.1839046 1.6104298 -7.5155454
v 0.8899164 0.82718277 -7.514092
v 1.749629 1.2967243 -9.456223
v -1.7520199 0.9318485 -7.5143824
v -1.7534733 1.2682323 -9.455931
v -2.6370258 1.5284424 -9.452442
v -3.1661701 1.8610477 -9.450407
v -0.8957968 0.7920027 -7.513801
v -2.6361542 1.9555359 -11.32276
v -3.1554127 2.260231 -11.3207245
v 2.6291113 1.5517025 -9.453024
v 3.1405191 2.2669163 -11.321888
v 2.6270761 1.9703636 -11.323632
v 3.1390657 2.9399757 -13.179995
v -0.0055570602 0.78676987 -7.514092
v -0.0058469772 1.1594963 -9.459711
v 0.88700867 1.186243 -9.458548
v 1.7484655 1.7430077 -11.327122
v 2.625041 2.6396427 -13.180576
v 0.883811 1.6621819 -11.330029
v -0.8946333 1.1551342 -9.458548
v -0.006137848 1.6490993 -11.331482
v 1.7461395 2.3820496 -13.182611
v 2.622715 3.5967522 -14.952624
v 3.1297626 3.87121 -14.952915
v 3.0442858 4.100601 -14.952915
v 2.622715 4.072109 -14.952624
v 1.7443953 3.296711 -14.952333
v 1.7441044 3.9880867 -14.952333
v 0.8765421 3.1118011 -14.952043
v 0.8762522 3.8558006 -14.952043
v 0.8800316 2.2564507 -13.1849375
v -0.0067195892 3.0274887 -14.952333
v -0.0067195892 3.8473682 -14.952333
v -0.0064287186 2.2110958 -13.185809
v -0.88852787 3.0934849 -14.952043
v -0.88852787 3.8555088 -14.952043
v -0.8931799 1.6380501 -11.330029
v -0.890563 2.2346458 -13.184647
v -1.754055 3.2789764 -14.952043
v -1.7543468 3.987505 -14.952043
v -1.7543468 1.7191658 -11.32683
v -1.754055 2.3611164 -13.182321
v -2.6344109 3.585415 -14.951753
v -2.6344109 4.0715275 -14.951753
v -2.6352825 2.6265602 -13.179995
v -3.1557026 2.937069 -13.179123
v -3.145527 3.8680115 -14.952333
v -3.0571423 4.0997295 -14.952043
vt 0.8595404 -0.2575421
vt 0.83415216 -0.29372033
vt 0.79543513 -0.32545564
vt 0.7941657 -0.2594462
vt 0.8525587 -0.0658609
vt 0.7116539 -0.32735974
vt 0.7903574 -0.06839973
vt 0.84748095 0.09535441
vt 0.7116539 -0.26135033
vt 0.6361239 -0.32862917
vt 0.7884533 0.09154618
vt 0.84240335 0.25530034
vt 0.70974976 -0.07030383
vt 0.6361239 -0.26261973
vt 0.55805504 -0.32926387
vt 0.78718394 0.25022268
vt 0.83732563 0.42349738
vt 0.7084804 0.08837265
vt 0.6348545 -0.07220796
vt 0.55805504 -0.26325446
vt 0.48125565 -0.32862917
vt 0.48189032 -0.26261973
vt 0.40636033 -0.32735974
vt 0.55805504 -0.07220796
vt 0.6348545 0.08710325
vt 0.40636033 -0.26135033
vt 0.32130975 -0.32482094
vt 0.48252505 -0.07220796
vt 0.32194448 -0.2594462
vt 0.28005385 -0.29372033
vt 0.25530034 -0.2569074
vt 0.40826446 -0.07093853
vt 0.3263874 -0.06839973
vt 0.26228207 -0.0652262
vt 0.5586898 0.08646855
vt 0.7084804 0.24577975
vt 0.48315978 0.08646855
vt 0.3289262 0.09154618
vt 0.26799446 0.09535441
vt 0.4088992 0.08837265
vt 0.3301956 0.25022268
vt 0.2737068 0.25530034
vt 0.6348545 0.24387562
vt 0.7084804 0.4127074
vt 0.40953386 0.24577975
vt 0.40953386 0.4127074
vt 0.331465 0.41778505
vt 0.27878445 0.42349738
vt 0.48315978 0.2432409
vt 0.33273447 0.58153915
vt 0.28195798 0.5891557
vt 0.7859145 0.41778505
vt 0.83415216 0.5891557
vt 0.78464514 0.58153915
vt 0.8335175 0.7617957
vt 0.5586898 0.2432409
vt 0.5586898 0.4101686
vt 0.63421977 0.41080326
vt 0.7078456 0.5758268
vt 0.78401035 0.7510057
vt 0.63421977 0.5739227
vt 0.48315978 0.4101686
vt 0.5586898 0.573288
vt 0.70721096 0.74211985
vt 0.78401035 0.923011
vt 0.8309786 0.93507046
vt 0.8278051 0.95601565
vt 0.7916269 0.96172804
vt 0.7065763 0.91095155
vt 0.7148275 0.96870977
vt 0.63231564 0.9039698
vt 0.6373933 0.96680576
vt 0.6335851 0.7383116
vt 0.5586898 0.90016156
vt 0.5586898 0.9699792
vt 0.5586898 0.73640746
vt 0.48442918 0.90270036
vt 0.47998625 0.9674404
vt 0.48315978 0.573288
vt 0.48379445 0.7370421
vt 0.41080326 0.9103169
vt 0.40255213 0.96934456
vt 0.4101686 0.5751921
vt 0.4101686 0.74148506
vt 0.33336914 0.92237633
vt 0.325118 0.9623627
vt 0.33336914 0.7503709
vt 0.28322738 0.7611609
vt 0.28576618 0.93507046
vt 0.2889397 0.95601565
vn -0.64905626 0.76074046 -0
vn -0.69386804 0.72010213 -0
vn -0.48558533 0.873811 0.025713699
vn -0.5111989 0.8594625 -0
vn -0.63487655 0.77261364 -0
vn -0.3467866 0.93794405 -0
vn -0.4985371 0.8668684 -0
vn -0.60402703 0.7948499 0.058008965
vn -0.32723087 0.9449443 -0
vn -0.17608853 0.9843743 -0
vn -0.45926487 0.88697124 0.048557602
vn -0.56454647 0.8211702 0.08346718
vn -0.30752456 0.9515402 -0
vn -0.16316056 0.9856727 0.042754594
vn -0.024978518 0.9988328 0.041340586
vn -0.4132042 0.90013146 0.13793363
vn -0.5184858 0.84091055 0.15505467
vn -0.2684421 0.95935225 0.08707508
vn -0.1500004 0.9856727 0.077131055
vn -0.024978518 0.9988328 0.041340586
vn 0.15268409 0.9856727 0.07167181
vn 0.13924341 0.99025816 -0
vn 0.35666707 0.9330319 0.04732929
vn -0.024978518 0.9988328 0.041340586
vn -0.123679996 0.9856727 0.11468452
vn 0.3369268 0.93961203 0.060079433
vn 0.4948491 0.8672309 0.055090375
vn 0.12633002 0.9919883 -0
vn 0.5208949 0.8536208 -0
vn 0.6783069 0.7347787 -0
vn 0.65760225 0.75336534 -0
vn 0.3171865 0.946192 0.06413561
vn 0.5080093 0.8606508 0.034739245
vn 0.64619136 0.7619494 0.043241158
vn -0.024978518 0.9922527 0.1216989
vn -0.23554164 0.95935225 0.1554457
vn 0.1000433 0.9922527 0.07366091
vn 0.46852872 0.8803911 0.07343237
vn 0.61329085 0.78826976 0.05005121
vn 0.2777059 0.95935225 0.050226558
vn 0.42246804 0.90013146 0.106226705
vn 0.5738103 0.8145901 0.08476287
vn -0.0973596 0.9856727 0.13773318
vn -0.20264113 0.95935225 0.19641747
vn 0.23822534 0.95935225 0.15130082
vn 0.20532486 0.95935225 0.1936103
vn 0.38298747 0.90671146 0.17662086
vn 0.5277496 0.83433044 0.15928936
vn 0.08030301 0.9856727 0.14832643
vn 0.35666707 0.89355135 0.27268037
vn 0.4948491 0.8277503 0.2644878
vn -0.37372363 0.9132916 0.16195413
vn -0.49216545 0.83433044 0.24832618
vn -0.3539834 0.90013146 0.25388807
vn -0.45926487 0.8080101 0.36904672
vn -0.018398464 0.9856727 0.16766277
vn -0.018398464 0.9790926 0.20258127
vn -0.077619314 0.9725125 0.21953292
vn -0.18290085 0.946192 0.2669605
vn -0.34082317 0.8606508 0.37831178
vn -0.0710392 0.95935225 0.27312398
vn 0.06056273 0.9725125 0.22483695
vn -0.011818349 0.95935225 0.28196383
vn -0.20264113 0.90013146 0.3856163
vn -0.30792272 0.72904885 0.6112867
vn -0.4066242 0.72246873 0.559192
vn 0.0013418198 -0.0013418198 0.9999982
vn 0.0013418198 -0.0013418198 0.9999982
vn -0.18948096 0.7422091 0.642824
vn 0.0013418198 -0.0013418198 0.9999982
vn -0.0973596 0.7422091 0.6630587
vn 0.0013418198 -0.0013418198 0.9999982
vn -0.09077948 0.9264518 0.36530274
vn -0.011818349 0.7487892 0.66270286
vn 0.0013418198 -0.0013418198 0.9999982
vn -0.011818349 0.9330319 0.3595995
vn 0.08688313 0.7422091 0.66451263
vn 0.0013418198 -0.0013418198 0.9999982
vn 0.053982615 0.95935225 0.27700022
vn 0.08030301 0.9264518 0.36774784
vn 0.19216466 0.73562896 0.6495558
vn 0.0013418198 -0.0013418198 0.9999982
vn 0.19216466 0.93961203 0.28319943
vn 0.20532486 0.90013146 0.38419405
vn 0.3106064 0.72904885 0.6099274
vn 0.0013418198 -0.0013418198 0.9999982
vn 0.350087 0.8540708 0.38471055
vn 0.46852872 0.80143 0.3717403
vn 0.40930784 0.71588874 0.5656592
vn 0.0013418198 -0.0013418198 0.9999982
g ENV_SY01_Bluejay_InnerRing_SlipperyRamp_01_MO_0
f 3/3/3 2/2/2 1/1/1
f 4/4/4 3/3/3 1/1/1
f 4/4/4 1/1/1 5/5/5
f 6/6/6 3/3/3 4/4/4
f 7/7/7 4/4/4 5/5/5
f 7/7/7 5/5/5 8/8/8
f 9/9/9 6/6/6 4/4/4
f 4/4/4 7/7/7 9/9/9
f 10/10/10 6/6/6 9/9/9
f 11/11/11 7/7/7 8/8/8
f 11/11/11 8/8/8 12/12/12
f 7/7/7 13/13/13 9/9/9
f 7/7/7 11/11/11 13/13/13
f 14/14/14 10/10/10 9/9/9
f 9/9/9 13/13/13 14/14/14
f 15/15/15 10/10/10 14/14/14
f 16/16/16 11/11/11 12/12/12
f 16/16/16 12/12/12 17/17/17
f 11/11/11 18/18/18 13/13/13
f 11/11/11 16/16/16 18/18/18
f 13/13/13 19/19/19 14/14/14
f 13/13/13 18/18/18 19/19/19
f 20/20/20 15/15/15 14/14/14
f 14/14/14 19/19/19 20/20/20
f 21/21/21 15/15/15 20/20/20
f 22/22/22 21/21/21 20/20/20
f 23/23/23 21/21/21 22/22/22
f 19/19/19 24/24/24 20/20/20
f 22/22/22 20/20/20 24/24/24
f 18/18/18 25/25/25 19/19/19
f 19/19/19 25/25/25 24/24/24
f 26/26/26 23/23/23 22/22/22
f 27/27/27 23/23/23 26/26/26
f 28/28/28 22/22/22 24/24/24
f 26/26/26 22/22/22 28/28/28
f 29/29/29 27/27/27 26/26/26
f 30/30/30 27/27/27 29/29/29
f 31/31/31 30/30/30 29/29/29
f 29/29/29 26/26/26 32/32/32
f 32/32/32 26/26/26 28/28/28
f 29/29/29 33/33/33 31/31/31
f 33/33/33 29/29/29 32/32/32
f 33/33/33 34/34/34 31/31/31
f 28/28/28 24/24/24 35/35/35
f 25/25/25 35/35/35 24/24/24
f 18/18/18 36/36/36 25/25/25
f 16/16/16 36/36/36 18/18/18
f 32/32/32 28/28/28 37/37/37
f 37/37/37 28/28/28 35/35/35
f 33/33/33 38/38/38 34/34/34
f 38/38/38 39/39/39 34/34/34
f 33/33/33 32/32/32 40/40/40
f 38/38/38 33/33/33 40/40/40
f 40/40/40 32/32/32 37/37/37
f 38/38/38 41/41/41 39/39/39
f 38/38/38 40/40/40 41/41/41
f 41/41/41 42/42/42 39/39/39
f 36/36/36 43/43/43 25/25/25
f 25/25/25 43/43/43 35/35/35
f 44/44/44 36/36/36 16/16/16
f 43/43/43 36/36/36 44/44/44
f 40/40/40 37/37/37 45/45/45
f 40/40/40 45/45/45 41/41/41
f 41/41/41 45/45/45 46/46/46
f 41/41/41 47/47/47 42/42/42
f 47/47/47 41/41/41 46/46/46
f 47/47/47 48/48/48 42/42/42
f 37/37/37 49/49/49 45/45/45
f 37/37/37 35/35/35 49/49/49
f 46/46/46 45/45/45 49/49/49
f 47/47/47 50/50/50 48/48/48
f 47/47/47 46/46/46 50/50/50
f 50/50/50 51/51/51 48/48/48
f 52/52/52 44/44/44 16/16/16
f 52/52/52 16/16/16 17/17/17
f 52/52/52 17/17/17 53/53/53
f 54/54/54 52/52/52 53/53/53
f 52/52/52 54/54/54 44/44/44
f 54/54/54 53/53/53 55/55/55
f 35/35/35 56/56/56 49/49/49
f 43/43/43 56/56/56 35/35/35
f 49/49/49 56/56/56 57/57/57
f 57/57/57 56/56/56 43/43/43
f 58/58/58 43/43/43 44/44/44
f 58/58/58 57/57/57 43/43/43
f 54/54/54 59/59/59 44/44/44
f 58/58/58 44/44/44 59/59/59
f 60/60/60 54/54/54 55/55/55
f 59/59/59 54/54/54 60/60/60
f 61/61/61 58/58/58 59/59/59
f 58/58/58 61/61/61 57/57/57
f 62/62/62 49/49/49 57/57/57
f 62/62/62 46/46/46 49/49/49
f 62/62/62 57/57/57 63/63/63
f 61/61/61 63/63/63 57/57/57
f 61/61/61 59/59/59 64/64/64
f 64/64/64 59/59/59 60/60/60
f 60/60/60 55/55/55 65/65/65
f 55/55/55 66/66/66 65/65/65
f 66/66/66 67/67/67 65/65/65
f 67/67/67 68/68/68 65/65/65
f 60/60/60 65/65/65 69/69/69
f 65/65/65 68/68/68 69/69/69
f 64/64/64 60/60/60 69/69/69
f 68/68/68 70/70/70 69/69/69
f 69/69/69 70/70/70 71/71/71
f 64/64/64 69/69/69 71/71/71
f 70/70/70 72/72/72 71/71/71
f 73/73/73 61/61/61 64/64/64
f 73/73/73 64/64/64 71/71/71
f 63/63/63 61/61/61 73/73/73
f 71/71/71 72/72/72 74/74/74
f 73/73/73 71/71/71 74/74/74
f 72/72/72 75/75/75 74/74/74
f 76/76/76 63/63/63 73/73/73
f 76/76/76 73/73/73 74/74/74
f 74/74/74 75/75/75 77/77/77
f 76/76/76 74/74/74 77/77/77
f 75/75/75 78/78/78 77/77/77
f 79/79/79 63/63/63 76/76/76
f 79/79/79 62/62/62 63/63/63
f 62/62/62 79/79/79 46/46/46
f 80/80/80 76/76/76 77/77/77
f 80/80/80 79/79/79 76/76/76
f 77/77/77 78/78/78 81/81/81
f 80/80/80 77/77/77 81/81/81
f 78/78/78 82/82/82 81/81/81
f 79/79/79 83/83/83 46/46/46
f 83/83/83 79/79/79 80/80/80
f 46/46/46 83/83/83 50/50/50
f 84/84/84 83/83/83 80/80/80
f 84/84/84 80/80/80 81/81/81
f 50/50/50 83/83/83 84/84/84
f 81/81/81 82/82/82 85/85/85
f 84/84/84 81/81/81 85/85/85
f 82/82/82 86/86/86 85/85/85
f 87/87/87 50/50/50 84/84/84
f 87/87/87 84/84/84 85/85/85
f 50/50/50 87/87/87 51/51/51
f 87/87/87 88/88/88 51/51/51
f 87/87/87 85/85/85 88/88/88
f 85/85/85 89/89/89 88/88/88
f 85/85/85 86/86/86 89/89/89
f 86/86/86 90/90/90 89/89/89
