g ENV_S09_Cutout_corals_01k_MO
v -0 187.08199 -27.936718
v -0 200.07146 -31.724844
v -0 191.81773 -32.53703
v -0 205.48375 -20.900469
v -0 175.17496 12.655781
v -0 206.63387 -3.4460936
v -0 212.2491 5.4842186
v -0 205.21313 51.353592
v -0 216.10536 56.088905
v -0 218.06732 5.078281
v -0 175.44559 55.683594
v -0 171.9276 51.75953
v -0 161.71188 13.061718
v -0 162.52374 48.647343
v -0 174.63373 69.213905
v -0 198.85368 74.761406
v -0 194.52386 79.63265
v -0 175.8515 93.43391
v -0 190.19406 93.975464
v -0 179.97835 98.98172
v -0 186.94667 98.71109
v -0 153.66113 11.032031
v -0 153.93175 49.18859
v -0 99.30967 -41.377968
v -0 152.71396 3.8604686
v -0 142.56595 63.260468
v -0 147.84291 62.854843
v -0 104.93186 -43.972656
v -0 150.68437 -16.164843
v -0 152.03745 -18.464844
v -0 137.01834 -36.596092
v -0 149.19598 -31.99578
v -0 110.84236 -50.459843
v -0 119.92436 -50.89234
v -0 147.16638 -36.596092
v -0 137.83018 -40.113907
v -0 130.5236 74.6264
v -0 139.31857 72.86734
v -0 134.31221 75.43828
v -0 94.26411 77.055466
v -0 124.24914 81.812965
v -0 110.84236 85.99328
v -0 101.616196 84.40734
v -0 122.519226 90.46234
v -0 113.06631 94.37359
v -0 116.46456 95.507965
v -0 82.92004 74.6264
v -0 82.92004 -39.05578
v -0 85.182106 -43.25203
v -0 94.84074 -45.270157
v -0 38.62977 -58.557343
v -0 78.12315 79.50422
v -0 43.007805 84.79953
v -0 23.950457 82.73953
v -0 0 100.25172
v -0 24.465523 -88.94609
v -0 35.539383 -78.129845
v -0 0.5150635 -109.80609
v -0 12.619056 -108.26093
v -0 24.207987 -95.89953
v -0 236.60439 -31.58953
v -0 247.02303 -21.306406
v -0 243.09914 -30.236717
v -0 231.4627 -29.695469
v -0 223.75018 -19.952969
v -0 251.21756 15.091093
v -3.8146972E-08 252.42516 20.524218
v -0 249.72916 26.998281
v -0 246.75244 88.42766
v -0 218.87141 90.31672
v -0 215.22588 70.97297
v -0 223.4796 93.43391
v -0 224.96799 100.87578
v -0 242.69319 102.228905
v -0 230.92148 108.45328
v -0 238.76929 108.58828
vt 0.050142914 0.97827184
vt 0.050373256 0.97988415
vt 0.050422728 0.97885954
vt 0.049714953 0.9805558
vt 0.047674105 0.9767939
vt 0.04865341 0.9806986
vt 0.048110276 0.9813955
vt 0.045320585 0.9805223
vt 0.04503255 0.9818741
vt 0.048135012 0.98211765
vt 0.045057222 0.9768275
vt 0.04529588 0.97639096
vt 0.047649413 0.9751229
vt 0.045485154 0.9752236
vt 0.04423432 0.9767268
vt 0.043896936 0.979733
vt 0.04360068 0.9791955
vt 0.042761292 0.976878
vt 0.042728357 0.97865814
vt 0.04242388 0.9773901
vt 0.042440332 0.97825503
vt 0.047772914 0.97412366
vt 0.045452237 0.97415715
vt 0.05096042 0.9673776
vt 0.04820904 0.9740061
vt 0.044596415 0.97274655
vt 0.04462108 0.9734015
vt 0.051118195 0.9680753
vt 0.04942697 0.9737542
vt 0.049566865 0.9739221
vt 0.05066961 0.972058
vt 0.05038979 0.97356945
vt 0.05151272 0.9688091
vt 0.05153906 0.96993625
vt 0.05066961 0.97331756
vt 0.050883476 0.97215873
vt 0.043905146 0.9712519
vt 0.04401213 0.9723435
vt 0.043855764 0.97172207
vt 0.0437574 0.96675134
vt 0.043468058 0.9704731
vt 0.043213826 0.9688091
vt 0.043310273 0.9676639
vt 0.042942025 0.9702583
vt 0.042704146 0.9690851
vt 0.04263515 0.96950686
vt 0.043905146 0.96534336
vt 0.05081913 0.96534336
vt 0.051074326 0.96562415
vt 0.05119711 0.966823
vt 0.05200518 0.9598461
vt 0.043608487 0.964748
vt 0.043286417 0.9603895
vt 0.043411713 0.95802414
vt 0.042346638 0.9550514
vt 0.053853445 0.95808804
vt 0.05319556 0.9594626
vt 0.055122137 0.9551154
vt 0.055028133 0.9566177
vt 0.054276347 0.9580561
vt 0.05036509 0.9844184
vt 0.04973966 0.9857116
vt 0.050282806 0.98522455
vt 0.050249904 0.98378026
vt 0.049657375 0.982823
vt 0.047526002 0.98623216
vt 0.047073424 0.9863834
vt 0.04678994 0.9860476
vt 0.043067046 0.98566216
vt 0.042958777 0.9819833
vt 0.04412733 0.9817649
vt 0.042761292 0.9827894
vt 0.042308684 0.9829742
vt 0.042226378 0.9851742
vt 0.041847847 0.98371315
vt 0.04183961 0.9846871
vn 1 0 0
vn 1 0 0
vn 1 0 0
vn 1 0 0
vn 1 0 0
vn 1 0 0
vn 1 0 0
vn 1 0 0
vn 1 0 0
vn 1 0 0
vn 1 0 0
vn 1 0 0
vn 1 0 0
vn 1 0 0
vn 1 0 0
vn 1 0 0
vn 1 0 0
vn 1 0 0
vn 1 0 0
vn 1 0 0
vn 1 0 0
vn 1 0 0
vn 1 0 0
vn 1 0 0
vn 1 0 0
vn 1 0 0
vn 1 0 0
vn 1 0 0
vn 1 0 0
vn 1 0 0
vn 1 0 0
vn 1 0 0
vn 1 0 0
vn 1 0 0
vn 1 0 0
vn 1 0 0
vn 1 0 0
vn 1 0 0
vn 1 0 0
vn 1 0 0
vn 1 0 0
vn 1 0 0
vn 1 0 0
vn 1 0 0
vn 1 0 0
vn 1 0 0
vn 1 0 0
vn 1 0 0
vn 1 0 0
vn 1 0 0
vn 1 0 0
vn 1 0 0
vn 1 0 0
vn 1 0 0
vn 1 0 0
vn 1 0 0
vn 1 0 0
vn 1 0 0
vn 1 0 0
vn 1 0 0
vn 1 0 0
vn 1 0 0
vn 1 0 0
vn 1 0 0
vn 1 0 0
vn 1 0 0
vn 1 0 0
vn 1 0 0
vn 1 0 0
vn 1 0 0
vn 1 0 0
vn 1 0 0
vn 1 0 0
vn 1 0 0
vn 1 0 0
vn 1 0 0
g ENV_S09_Cutout_corals_01k_MO_0
f 3/3/3 2/2/2 1/1/1
f 2/2/2 4/4/4 1/1/1
f 1/1/1 4/4/4 5/5/5
f 4/4/4 6/6/6 5/5/5
f 6/6/6 7/7/7 5/5/5
f 8/8/8 5/5/5 7/7/7
f 9/9/9 8/8/8 7/7/7
f 10/10/10 9/9/9 7/7/7
f 8/8/8 11/11/11 5/5/5
f 11/11/11 12/12/12 5/5/5
f 5/5/5 12/12/12 13/13/13
f 12/12/12 14/14/14 13/13/13
f 15/15/15 11/11/11 8/8/8
f 16/16/16 15/15/15 8/8/8
f 17/17/17 15/15/15 16/16/16
f 18/18/18 15/15/15 17/17/17
f 19/19/19 18/18/18 17/17/17
f 20/20/20 18/18/18 19/19/19
f 20/20/20 19/19/19 21/21/21
f 13/13/13 14/14/14 22/22/22
f 14/14/14 23/23/23 22/22/22
f 24/24/24 22/22/22 23/23/23
f 24/24/24 25/25/25 22/22/22
f 26/26/26 24/24/24 23/23/23
f 23/23/23 27/27/27 26/26/26
f 24/24/24 28/28/28 25/25/25
f 28/28/28 29/29/29 25/25/25
f 29/29/29 28/28/28 30/30/30
f 28/28/28 31/31/31 30/30/30
f 30/30/30 31/31/31 32/32/32
f 28/28/28 33/33/33 31/31/31
f 33/33/33 34/34/34 31/31/31
f 32/32/32 31/31/31 35/35/35
f 31/31/31 36/36/36 35/35/35
f 24/24/24 26/26/26 37/37/37
f 26/26/26 38/38/38 37/37/37
f 38/38/38 39/39/39 37/37/37
f 40/40/40 24/24/24 37/37/37
f 37/37/37 41/41/41 40/40/40
f 40/40/40 41/41/41 42/42/42
f 43/43/43 40/40/40 42/42/42
f 42/42/42 41/41/41 44/44/44
f 45/45/45 42/42/42 44/44/44
f 45/45/45 44/44/44 46/46/46
f 24/24/24 40/40/40 47/47/47
f 48/48/48 24/24/24 47/47/47
f 24/24/24 48/48/48 49/49/49
f 50/50/50 24/24/24 49/49/49
f 48/48/48 47/47/47 51/51/51
f 47/47/47 52/52/52 51/51/51
f 52/52/52 53/53/53 51/51/51
f 53/53/53 54/54/54 51/51/51
f 55/55/55 51/51/51 54/54/54
f 56/56/56 51/51/51 55/55/55
f 56/56/56 57/57/57 51/51/51
f 58/58/58 56/56/56 55/55/55
f 58/58/58 59/59/59 56/56/56
f 59/59/59 60/60/60 56/56/56
f 63/63/63 62/62/62 61/61/61
f 62/62/62 64/64/64 61/61/61
f 62/62/62 65/65/65 64/64/64
f 65/65/65 62/62/62 10/10/10
f 62/62/62 66/66/66 10/10/10
f 66/66/66 67/67/67 10/10/10
f 67/67/67 68/68/68 10/10/10
f 9/9/9 10/10/10 68/68/68
f 69/69/69 9/9/9 68/68/68
f 70/70/70 9/9/9 69/69/69
f 70/70/70 71/71/71 9/9/9
f 72/72/72 70/70/70 69/69/69
f 73/73/73 72/72/72 69/69/69
f 74/74/74 73/73/73 69/69/69
f 75/75/75 73/73/73 74/74/74
f 75/75/75 74/74/74 76/76/76
