g ENV_S09_Sand_Corner_02_MO
v 7.0232687 -0.13666038 0.80414426
v 7.261902 0.44196036 3.6621093E-06
v 7.6848216 -6.252776E-15 -6.1035153E-06
v 6.628054 0.31546727 0.73409545
v 6.671423 0.72156674 3.6621093E-06
v 6.2819605 -0.13666038 1.70724
v 5.881423 0.36019942 1.5680505
v 5.978308 0.97242415 -6.1035153E-06
v 5.442302 0.21522129 3.313197
v 5.706072 -0.13666038 3.402025
v 5.0599093 -0.13666038 4.7882457
v 5.463718 0.6259019 1.5304235
v 5.273054 1.2058675 3.6621093E-06
v 4.654236 0.35368076 4.6982946
v 4.1567554 -0.13666038 5.8314686
v 4.917595 0.6340774 3.259613
v 4.995691 0.8865629 1.466781
v 3.9301147 0.19991156 5.763334
v 3.1918726 -0.13666038 6.809818
v 4.2357006 0.6436521 4.67932
v 4.547595 1.1473205 1.3151599
v 4.544304 1.4348971 -6.1035153E-06
v 4.4646945 0.92007345 3.0880797
v 3.422058 0.5985098 5.769398
v 4.096687 1.1960477 2.7149744
v 4.067019 1.4045622 1.128158
v 3.849773 1.6685053 -6.1035153E-06
v 3.479304 0.99964964 4.664935
v 3.2839427 1.2881001 3.8507457
v 3.7076929 1.446117 2.3058727
v 3.596902 1.6607298 0.9429529
v 3.2722826 1.9239335 -6.1035153E-06
v 3.0269213 1.5096413 3.249193
v 3.319314 1.6897275 1.9408337
v 2.7087085 1.7232597 2.7739
v 1.7103393 1.5581399 3.83474
v 2.903025 1.9359243 1.6581482
v 3.1320581 1.921978 0.79650754
v 2.6483374 2.1805906 0.6700427
v 2.7649877 2.184967 -6.1035153E-06
v 2.4278295 2.1810532 1.4066052
v 2.3485522 1.946377 2.4092321
v 2.1865113 2.4364269 0.5720642
v 2.315974 2.444282 3.6621093E-06
v 1.9124389 2.6915123 3.6621093E-06
v 1.959021 2.4296951 1.2088122
v 1.618689 2.7797847 0.46815795
v 1.5475073 2.8937874 -6.1035153E-06
v 1.5582104 1.7443616 3.3828552
v 1.9322534 2.175712 2.0670934
v 1.5926244 2.6750941 1.0705115
v 1.0001733 3.0689807 0.4530017
v 1.038728 3.0958362 3.6621093E-06
v -2.4414062E-06 3.2818015 3.6621093E-06
v 1.3498608 1.9491897 3.011371
v 1.5602026 2.4237819 1.8007946
v 1.1407788 2.9448466 0.897572
v 0.52169675 3.1962163 0.663656
v -2.4414062E-06 3.276778 0.91321653
v 0.53795654 3.0855417 1.2110095
v 7.3242186E-06 3.1325727 1.502943
v 1.1281421 2.7811496 1.4403063
v 0.6144018 2.9110963 1.6612829
v -2.4414062E-06 2.9409084 1.9630407
v 0.7523706 2.686677 2.0204527
v -2.4414062E-06 2.7114987 2.3959606
v 0.9339331 2.4288173 2.3565173
v -2.4414062E-06 2.451235 2.8534508
v 1.131228 2.175821 2.6714098
v 7.3242186E-06 2.1961174 3.2649646
v 7.3242186E-06 1.875193 3.7739587
v 7.3242186E-06 1.6218693 4.349535
v 1.8022534 1.3851374 4.4417515
v 7.3242186E-06 1.4928465 4.909613
v 1.8296167 1.2295179 5.295882
v -2.4414062E-06 1.3701167 5.6770544
v 2.7405443 0.8555885 5.922191
v 1.6362866 1.0757049 6.292806
v -2.4414062E-06 1.2082913 6.6484017
v 2.8349779 0.42847404 6.663021
v 2.1922143 0.73418015 6.8695054
v 1.3567749 0.90520704 7.24805
v -2.4414062E-06 0.9956941 7.568246
v 2.2861109 0.19476806 7.565355
v 2.3427808 -0.13666038 7.785658
v 2.2480054 0.4926435 7.288353
v 1.8036401 0.5883882 7.6202865
v 1.0867358 0.6936572 8.010208
v -2.4414062E-06 0.7601975 8.3379135
v 1.6258862 0.37295032 8.114944
v 1.5924585 -0.13666038 8.658998
v 0.9326245 0.43766198 8.609301
v 7.3242186E-06 0.47895345 8.978187
v 0.8409643 0.13818847 8.999105
v 0.72646236 -0.13666038 9.321771
v -2.4414062E-06 0.034455948 9.4632845
vt 0.00904119 0.0061356723
vt 0.009101793 0.006136894
vt 0.009093508 0.006101325
vt 0.00905332 0.006169766
vt 0.00910309 0.006175652
vt 0.008987069 0.0061784834
vt 0.009002715 0.0062143877
vt 0.0091037005 0.0062194318
vt 0.008898377 0.0062423125
vt 0.008888215 0.0062175468
vt 0.0088059455 0.006257996
vt 0.009007886 0.0062438473
vt 0.0091046095 0.0062635317
vt 0.008818746 0.006294057
vt 0.008740932 0.006309487
vt 0.008906379 0.0062816218
vt 0.009014279 0.0062757432
vt 0.008751556 0.006331697
vt 0.008679569 0.0063641965
vt 0.008823067 0.006323971
vt 0.009025723 0.006306194
vt 0.009106129 0.006308928
vt 0.008919328 0.0063125715
vt 0.008756697 0.0063698962
vt 0.008943856 0.006337896
vt 0.009039119 0.006338164
vt 0.009108081 0.0063524917
vt 0.008826792 0.00637348
vt 0.008877367 0.0063883886
vt 0.008970112 0.0063636154
vt 0.009052351 0.0063694865
vt 0.009110421 0.0063900203
vt 0.00891462 0.0064058825
vt 0.008993745 0.0063893646
vt 0.008944392 0.006426938
vt 0.008877084 0.0064837188
vt 0.009012625 0.0064170063
vt 0.009063363 0.0064007267
vt 0.009073243 0.0064328983
vt 0.009112895 0.006423898
vt 0.009029701 0.0064479485
vt 0.008967876 0.0064507127
vt 0.009081557 0.006463863
vt 0.009115413 0.0064546615
vt 0.009117916 0.0064827427
vt 0.009043828 0.0064787343
vt 0.009091273 0.0065027624
vt 0.009120002 0.006507568
vt 0.00890559 0.006494865
vt 0.008990034 0.0064778477
vt 0.0090547055 0.006504081
vt 0.009095117 0.0065433607
vt 0.009122103 0.0065402687
vt 0.009124607 0.006603405
vt 0.008929729 0.00650955
vt 0.009008437 0.006502971
vt 0.009067774 0.0065344125
vt 0.0090838075 0.0065733865
vt 0.009069845 0.006605327
vt 0.009050667 0.0065719634
vt 0.009033397 0.006604232
vt 0.0090340525 0.0065334886
vt 0.009022355 0.0065656304
vt 0.009003639 0.0066018924
vt 0.008998275 0.006554559
vt 0.008974552 0.006598793
vt 0.008974791 0.0065403134
vt 0.008943424 0.0065952614
vt 0.008952573 0.006525226
vt 0.008914813 0.0065918267
vt 0.008879185 0.0065877214
vt 0.008841738 0.0065847635
vt 0.008839652 0.006476067
vt 0.008807376 0.006582938
vt 0.008787811 0.006471984
vt 0.008760825 0.006580785
vt 0.008749396 0.006413594
vt 0.008727148 0.006480612
vt 0.008701682 0.00657776
vt 0.00869967 0.006399907
vt 0.008691013 0.00644321
vt 0.008668587 0.006493911
vt 0.008644804 0.0065737516
vt 0.008640528 0.0064260066
vt 0.008619845 0.0064136684
vt 0.008663014 0.0064356253
vt 0.008644119 0.0064630657
vt 0.008620456 0.0065057427
vt 0.008596286 0.0065690354
vt 0.008610949 0.006469071
vt 0.008567423 0.0064592585
vt 0.008581057 0.0065098926
vt 0.0085543245 0.006563276
vt 0.008551478 0.0065090433
vt 0.008525327 0.0065096617
vt 0.008515775 0.006554216
vn 0.58985335 0.59264284 0.54849565
vn 0.52172947 0.6515479 0.5507119
vn 0.5886046 0.5632247 0.57993317
vn 0.54986286 0.6759556 0.4906474
vn 0.364669 0.839183 0.4034705
vn 0.68152344 0.64199615 0.35123616
vn 0.5753195 0.7547923 0.31511274
vn 0.32080632 0.8852217 0.3368469
vn 0.6573455 0.7104791 0.25122988
vn 0.729787 0.6198599 0.28841755
vn 0.665209 0.62331843 0.41106096
vn 0.47279298 0.84828836 0.23848197
vn 0.31989825 0.90968496 0.26483664
vn 0.6053862 0.69909906 0.38048396
vn 0.6249747 0.5512139 0.5527838
vn 0.54058343 0.8164402 0.20296541
vn 0.45431152 0.86899394 0.19608842
vn 0.5736481 0.6287898 0.5249296
vn 0.62148446 0.5604582 0.5473973
vn 0.46057707 0.8366172 0.2965477
vn 0.42113125 0.8903249 0.17311881
vn 0.31321588 0.93112713 0.18681015
vn 0.4586763 0.8687003 0.18701857
vn 0.47663027 0.7640933 0.434724
vn 0.43780148 0.88261515 0.17123215
vn 0.41687346 0.89873827 0.13596343
vn 0.3625732 0.92160934 0.13848014
vn 0.31541005 0.9129844 0.25879735
vn 0.28679556 0.9255028 0.24737206
vn 0.40902764 0.8991305 0.15575881
vn 0.44418952 0.8894676 0.10743853
vn 0.43293566 0.8960578 0.09822026
vn 0.25709835 0.9352907 0.24317028
vn 0.41260713 0.89610523 0.16355662
vn 0.26237565 0.9252543 0.2739773
vn 0.15098265 0.9454227 0.28875613
vn 0.39733666 0.9020674 0.1685173
vn 0.45309812 0.8860811 0.09778717
vn 0.44973117 0.8860755 0.1123033
vn 0.46671692 0.87947106 0.09330563
vn 0.38360924 0.9045793 0.18595788
vn 0.26455504 0.9157947 0.3022098
vn 0.47932693 0.8651513 0.14750883
vn 0.5054237 0.8536067 0.12610467
vn 0.49765688 0.856144 0.13912211
vn 0.4293748 0.8744163 0.2259056
vn 0.46110272 0.87376463 0.15465984
vn 0.4273325 0.8939439 0.13509715
vn 0.18321885 0.9187231 0.34982672
vn 0.2938939 0.900523 0.32044438
vn 0.4581553 0.8567726 0.23671587
vn 0.29864636 0.9505381 0.08536763
vn 0.24614486 0.9660713 0.07822268
vn 0.1834446 0.98301375 0.005651659
vn 0.22374693 0.8875162 0.4028055
vn 0.37538955 0.8574468 0.3519484
vn 0.38395977 0.90113574 0.20131893
vn 0.23441334 0.9706617 0.053536765
vn 0.19180104 0.97452456 0.11625092
vn 0.28332663 0.9275469 0.24368572
vn 0.22615583 0.92441094 0.30711204
vn 0.3899071 0.8619882 0.32395792
vn 0.2992556 0.88214076 0.3636948
vn 0.24576296 0.87176305 0.42382744
vn 0.32095602 0.8405593 0.43640253
vn 0.26683447 0.84124786 0.47021425
vn 0.32387578 0.8273437 0.45891932
vn 0.27763343 0.8243364 0.4933449
vn 0.28492498 0.8557896 0.4317891
vn 0.256422 0.82365054 0.5058137
vn 0.1855908 0.88300633 0.4311099
vn 0.13194038 0.9440457 0.30227372
vn 0.14648427 0.9658034 0.2139301
vn 0.11004004 0.97692674 0.18304455
vn 0.16475686 0.9685753 0.18632512
vn 0.1114109 0.9803714 0.16266327
vn 0.30429024 0.9079966 0.28800997
vn 0.17540987 0.9630934 0.20416267
vn 0.11759028 0.9743706 0.19176622
vn 0.5806449 0.6558634 0.48238432
vn 0.36534455 0.87457997 0.31879985
vn 0.18837236 0.9459178 0.26411235
vn 0.12914018 0.95707947 0.25946447
vn 0.6301794 0.53956544 0.55833954
vn 0.6431453 0.5113275 0.5700072
vn 0.54941547 0.6874227 0.47496596
vn 0.42306045 0.8018461 0.42197475
vn 0.21989398 0.903984 0.3666872
vn 0.16915375 0.9215143 0.34956896
vn 0.53154147 0.65156704 0.5412245
vn 0.55361694 0.58757764 0.59013623
vn 0.32654783 0.7888518 0.5206529
vn 0.24090983 0.8086056 0.5367675
vn 0.38773856 0.6601006 0.6433709
vn 0.3667001 0.6399764 0.675249
vn 0.2750558 0.703305 0.65551996
g ENV_S09_Sand_Corner_02_MO_0
f 3/3/3 2/2/2 1/1/1
f 1/1/1 2/2/2 4/4/4
f 5/5/5 4/4/4 2/2/2
f 6/6/6 1/1/1 4/4/4
f 4/4/4 5/5/5 7/7/7
f 7/7/7 6/6/6 4/4/4
f 8/8/8 7/7/7 5/5/5
f 9/9/9 6/6/6 7/7/7
f 6/6/6 9/9/9 10/10/10
f 10/10/10 9/9/9 11/11/11
f 8/8/8 12/12/12 7/7/7
f 12/12/12 9/9/9 7/7/7
f 8/8/8 13/13/13 12/12/12
f 9/9/9 14/14/14 11/11/11
f 14/14/14 15/15/15 11/11/11
f 12/12/12 16/16/16 9/9/9
f 14/14/14 9/9/9 16/16/16
f 13/13/13 17/17/17 12/12/12
f 17/17/17 16/16/16 12/12/12
f 15/15/15 14/14/14 18/18/18
f 19/19/19 15/15/15 18/18/18
f 14/14/14 16/16/16 20/20/20
f 20/20/20 18/18/18 14/14/14
f 13/13/13 21/21/21 17/17/17
f 13/13/13 22/22/22 21/21/21
f 17/17/17 23/23/23 16/16/16
f 23/23/23 20/20/20 16/16/16
f 20/20/20 24/24/24 18/18/18
f 24/24/24 19/19/19 18/18/18
f 21/21/21 25/25/25 17/17/17
f 25/25/25 23/23/23 17/17/17
f 22/22/22 26/26/26 21/21/21
f 22/22/22 27/27/27 26/26/26
f 23/23/23 28/28/28 20/20/20
f 24/24/24 20/20/20 28/28/28
f 25/25/25 29/29/29 23/23/23
f 29/29/29 28/28/28 23/23/23
f 30/30/30 25/25/25 21/21/21
f 26/26/26 30/30/30 21/21/21
f 27/27/27 31/31/31 26/26/26
f 32/32/32 31/31/31 27/27/27
f 33/33/33 29/29/29 25/25/25
f 30/30/30 33/33/33 25/25/25
f 34/34/34 30/30/30 26/26/26
f 31/31/31 34/34/34 26/26/26
f 35/35/35 33/33/33 30/30/30
f 34/34/34 35/35/35 30/30/30
f 33/33/33 36/36/36 29/29/29
f 35/35/35 36/36/36 33/33/33
f 37/37/37 34/34/34 31/31/31
f 37/37/37 35/35/35 34/34/34
f 32/32/32 38/38/38 31/31/31
f 38/38/38 37/37/37 31/31/31
f 32/32/32 39/39/39 38/38/38
f 32/32/32 40/40/40 39/39/39
f 41/41/41 37/37/37 38/38/38
f 41/41/41 38/38/38 39/39/39
f 37/37/37 42/42/42 35/35/35
f 41/41/41 42/42/42 37/37/37
f 40/40/40 43/43/43 39/39/39
f 40/40/40 44/44/44 43/43/43
f 44/44/44 45/45/45 43/43/43
f 46/46/46 41/41/41 39/39/39
f 46/46/46 39/39/39 43/43/43
f 45/45/45 47/47/47 43/43/43
f 45/45/45 48/48/48 47/47/47
f 42/42/42 49/49/49 35/35/35
f 35/35/35 49/49/49 36/36/36
f 41/41/41 50/50/50 42/42/42
f 46/46/46 50/50/50 41/41/41
f 51/51/51 46/46/46 43/43/43
f 51/51/51 43/43/43 47/47/47
f 48/48/48 52/52/52 47/47/47
f 53/53/53 52/52/52 48/48/48
f 53/53/53 54/54/54 52/52/52
f 42/42/42 55/55/55 49/49/49
f 50/50/50 55/55/55 42/42/42
f 46/46/46 56/56/56 50/50/50
f 51/51/51 56/56/56 46/46/46
f 57/57/57 51/51/51 47/47/47
f 57/57/57 47/47/47 52/52/52
f 54/54/54 58/58/58 52/52/52
f 52/52/52 58/58/58 57/57/57
f 54/54/54 59/59/59 58/58/58
f 58/58/58 59/59/59 60/60/60
f 58/58/58 60/60/60 57/57/57
f 59/59/59 61/61/61 60/60/60
f 57/57/57 62/62/62 51/51/51
f 57/57/57 60/60/60 62/62/62
f 51/51/51 62/62/62 56/56/56
f 60/60/60 61/61/61 63/63/63
f 60/60/60 63/63/63 62/62/62
f 61/61/61 64/64/64 63/63/63
f 65/65/65 62/62/62 63/63/63
f 65/65/65 63/63/63 64/64/64
f 62/62/62 65/65/65 56/56/56
f 66/66/66 65/65/65 64/64/64
f 65/65/65 66/66/66 67/67/67
f 65/65/65 67/67/67 56/56/56
f 66/66/66 68/68/68 67/67/67
f 56/56/56 67/67/67 69/69/69
f 67/67/67 68/68/68 69/69/69
f 56/56/56 69/69/69 50/50/50
f 68/68/68 70/70/70 69/69/69
f 50/50/50 69/69/69 55/55/55
f 69/69/69 70/70/70 55/55/55
f 70/70/70 71/71/71 55/55/55
f 55/55/55 71/71/71 49/49/49
f 49/49/49 71/71/71 36/36/36
f 71/71/71 72/72/72 36/36/36
f 36/36/36 72/72/72 73/73/73
f 36/36/36 73/73/73 29/29/29
f 72/72/72 74/74/74 73/73/73
f 29/29/29 73/73/73 28/28/28
f 73/73/73 74/74/74 75/75/75
f 73/73/73 75/75/75 28/28/28
f 74/74/74 76/76/76 75/75/75
f 77/77/77 28/28/28 75/75/75
f 77/77/77 24/24/24 28/28/28
f 76/76/76 78/78/78 75/75/75
f 77/77/77 75/75/75 78/78/78
f 76/76/76 79/79/79 78/78/78
f 77/77/77 80/80/80 24/24/24
f 24/24/24 80/80/80 19/19/19
f 81/81/81 77/77/77 78/78/78
f 77/77/77 81/81/81 80/80/80
f 79/79/79 82/82/82 78/78/78
f 81/81/81 78/78/78 82/82/82
f 79/79/79 83/83/83 82/82/82
f 19/19/19 80/80/80 84/84/84
f 19/19/19 84/84/84 85/85/85
f 81/81/81 86/86/86 80/80/80
f 80/80/80 86/86/86 84/84/84
f 81/81/81 87/87/87 86/86/86
f 87/87/87 81/81/81 82/82/82
f 86/86/86 87/87/87 84/84/84
f 88/88/88 82/82/82 83/83/83
f 88/88/88 87/87/87 82/82/82
f 89/89/89 88/88/88 83/83/83
f 90/90/90 85/85/85 84/84/84
f 87/87/87 90/90/90 84/84/84
f 87/87/87 88/88/88 90/90/90
f 85/85/85 90/90/90 91/91/91
f 88/88/88 89/89/89 92/92/92
f 88/88/88 92/92/92 90/90/90
f 90/90/90 92/92/92 91/91/91
f 89/89/89 93/93/93 92/92/92
f 92/92/92 94/94/94 91/91/91
f 94/94/94 92/92/92 93/93/93
f 94/94/94 95/95/95 91/91/91
f 96/96/96 94/94/94 93/93/93
f 95/95/95 94/94/94 96/96/96
