g ENV_SY02_HW_Scaffolding_Tube_Piece_MO
v 140.15332 -50.47316 121.851166
v -140.15332 -0.0021362305 131.88547
v 140.15332 0.0021362305 131.88977
v -140.15332 -50.47316 121.84689
v 140.15332 -93.25804 93.262314
v -140.15332 -93.25804 93.25804
v 140.15332 -121.84688 50.47316
v -140.15332 -121.85116 50.468887
v 140.15332 -131.88976 0.0021362305
v -140.15332 -131.88976 -0.0021362305
v 140.15332 -121.84688 -50.46888
v -140.15332 -121.85116 -50.47316
v 140.15332 -93.25804 -93.25804
v -140.15332 -93.25804 -93.26232
v 140.15332 -50.47316 -121.84688
v -140.15332 -50.47316 -121.85116
v 140.15332 0.0021362305 -131.88548
v -140.15332 -0.0021362305 -131.88976
v 140.15332 50.47316 -121.84688
v -140.15332 50.47316 -121.85116
v 140.15332 93.25804 -93.25804
v -140.15332 93.25804 -93.26232
v 140.15332 121.851166 -50.46888
v -140.15332 121.84689 -50.47316
v 140.15332 131.88977 0.0021362305
v -140.15332 131.88977 -0.0021362305
v 140.15332 121.851166 50.47316
v -140.15332 121.84689 50.468887
v 140.15332 93.25804 93.262314
v -140.15332 93.25804 93.25804
v 140.15332 50.47316 121.851166
v -140.15332 50.47316 121.84689
v 140.15332 0.0021362305 131.88977
v -140.15332 -0.0021362305 131.88547
vt 0.001515439 0.0034458968
vt 0.0005502101 0.004411126
vt 0.001515439 0.004411126
vt 0.0005502101 0.0034458968
vt 0.001515439 0.0034458968
vt 0.0005502101 0.0034458968
vt 0.001515439 0.0034458968
vt 0.0005502101 0.0034458968
vt 0.001515439 0.0034458968
vt 0.0005502101 0.0034458968
vt 0.001515439 0.0034458968
vt 0.0005502101 0.0034458968
vt 0.001515439 0.002480668
vt 0.0005502101 0.002480668
vt 0.001515439 0.002480668
vt 0.0005502101 0.002480668
vt 0.001515439 0.002480668
vt 0.0005502101 0.002480668
vt 0.001515439 0.002480668
vt 0.0005502101 0.002480668
vt 0.001515439 0.001515439
vt 0.0005502101 0.001515439
vt 0.001515439 0.001515439
vt 0.0005502101 0.001515439
vt 0.001515439 0.001515439
vt 0.0005502101 0.001515439
vt 0.001515439 0.001515439
vt 0.0005502101 0.001515439
vt 0.001515439 0.001515439
vt 0.0005502101 0.001515439
vt 0.001515439 0.0005502101
vt 0.0005502101 0.0005502101
vt 0.001515439 0.0005502101
vt 0.0005502101 0.0005502101
vn -0.003921509 -0.38038927 0.92481816
vn -0.003921509 0.003921509 0.9999846
vn -0.003921509 0.003921509 0.9999846
vn -0.003921509 -0.38038927 0.92481816
vn -0.003921509 -0.7097985 0.70439386
vn -0.003921509 -0.7097985 0.70439386
vn -0.003921509 -0.9215616 0.38821238
vn -0.003921509 -0.9215616 0.38821238
vn -0.003921509 -0.9999924 -0
vn -0.003921509 -0.9999924 -0
vn -0.003921509 -0.9215616 -0.38821238
vn -0.003921509 -0.9215616 -0.38821238
vn -0.003921509 -0.7097985 -0.70439386
vn -0.003921509 -0.7097985 -0.70439386
vn -0.003921509 -0.38038927 -0.92481816
vn -0.003921509 -0.38038927 -0.92481816
vn -0.003921509 0.003921509 -0.9999846
vn -0.003921509 0.003921509 -0.9999846
vn -0.003921509 0.3803892 -0.9248182
vn -0.003921509 0.3803892 -0.9248182
vn -0.003921509 0.70979846 -0.7043939
vn -0.003921509 0.70979846 -0.7043939
vn -0.003921509 0.9215615 -0.38821262
vn -0.003921509 0.9215615 -0.38821262
vn -0.003921509 0.99999225 -0.00034526698
vn -0.003921509 0.99999225 -0.00034526698
vn -0.003921509 0.9215615 0.38821262
vn -0.003921509 0.9215615 0.38821262
vn -0.003921509 0.70979846 0.7043939
vn -0.003921509 0.70979846 0.7043939
vn -0.003921509 0.3803892 0.9248182
vn -0.003921509 0.3803892 0.9248182
vn -0.003921509 0.003921509 0.9999846
vn -0.003921509 0.003921509 0.9999846
g ENV_SY02_HW_Scaffolding_Tube_Piece_MO_0
f 3/3/3 2/2/2 1/1/1
f 2/2/2 4/4/4 1/1/1
f 1/1/1 4/4/4 5/5/5
f 4/4/4 6/6/6 5/5/5
f 5/5/5 6/6/6 7/7/7
f 6/6/6 8/8/8 7/7/7
f 7/7/7 8/8/8 9/9/9
f 8/8/8 10/10/10 9/9/9
f 9/9/9 10/10/10 11/11/11
f 10/10/10 12/12/12 11/11/11
f 11/11/11 12/12/12 13/13/13
f 12/12/12 14/14/14 13/13/13
f 13/13/13 14/14/14 15/15/15
f 14/14/14 16/16/16 15/15/15
f 15/15/15 16/16/16 17/17/17
f 16/16/16 18/18/18 17/17/17
f 17/17/17 18/18/18 19/19/19
f 18/18/18 20/20/20 19/19/19
f 19/19/19 20/20/20 21/21/21
f 20/20/20 22/22/22 21/21/21
f 21/21/21 22/22/22 23/23/23
f 22/22/22 24/24/24 23/23/23
f 23/23/23 24/24/24 25/25/25
f 24/24/24 26/26/26 25/25/25
f 25/25/25 26/26/26 27/27/27
f 26/26/26 28/28/28 27/27/27
f 27/27/27 28/28/28 29/29/29
f 28/28/28 30/30/30 29/29/29
f 29/29/29 30/30/30 31/31/31
f 30/30/30 32/32/32 31/31/31
f 31/31/31 32/32/32 33/33/33
f 32/32/32 34/34/34 33/33/33
