g ENV_S04_BasketFall_TurntablePlatform_COL
v 6.2838936 -2.220446E-16 -2.041761
v 6.2838936 1.5065376 -2.041761
v 5.3454 1.5065378 -3.883661
v 5.3454 -2.220446E-16 -3.883661
v 3.8836598 1.5065376 -5.3453994
v 3.8836598 -2.220446E-16 -5.3453994
v 2.041761 1.5065376 -6.2838936
v 2.041761 -2.220446E-16 -6.2838936
v -1.9658762E-07 1.5065376 -6.607277
v -1.9658762E-07 -2.220446E-16 -6.607277
v -2.0417604 1.5065376 -6.2838936
v -2.0417604 -2.220446E-16 -6.2838936
v -3.8836591 1.5065376 -5.3453994
v -3.8836591 -2.220446E-16 -5.3453994
v -5.345398 1.5065376 -3.883658
v -5.345398 -2.220446E-16 -3.883658
v -6.2838917 1.5065376 -2.041761
v -6.2838917 -2.220446E-16 -2.041761
v -6.6072745 1.5065376 0
v -6.6072745 -2.220446E-16 0
v -6.2838917 1.5065376 2.04176
v -6.2838917 -2.220446E-16 2.04176
v -5.3453975 1.5065376 3.883658
v -5.3453975 -2.220446E-16 3.883658
v -3.8836584 1.5065376 5.3453965
v -3.8836584 -2.220446E-16 5.3453965
v -3.2606773 1.5084804 5.7310996
v -3.2606773 -0.0019428134 5.7310996
v 6.607274 -2.220446E-16 0
v 6.2838936 1.5065376 -2.041761
v 6.2838936 -2.220446E-16 -2.041761
v 6.607274 1.5065376 0
v 6.28389 -2.220446E-16 2.0417595
v 6.28389 1.5065376 2.0417595
v 5.345396 -2.220446E-16 3.8836577
v 5.345396 1.5065376 3.8836577
v 3.8836572 -2.220446E-16 5.3453965
v 3.8836572 1.5065376 5.3453965
v 3.2490904 1.5084804 5.737018
v 3.2490904 -0.001942873 5.737018
v 3.2490904 -0.001942873 5.737018
v 3.240717 1.5065376 6.6766815
v 3.2490904 1.5084804 5.737018
v 3.240717 -2.220446E-16 6.6766815
v -5.8976286E-07 -2.220446E-16 6.676691
v -5.8976286E-07 1.5065376 6.676691
v -3.252304 -2.220446E-16 6.6766815
v -3.252304 1.5065376 6.6766815
v -3.2606773 1.5084804 5.7310996
v -3.2606773 -0.0019428134 5.7310996
v 3.7261086 1.5065376 5.1285486
v 3.7261086 1.0870477 5.1285486
v 5.1285486 1.0870477 3.7261086
v 3.1092503 1.0870477 5.442853
v 5.1285486 1.5065376 3.7261086
v 3.1092503 1.5065376 5.442853
v 6.0289702 1.0870477 1.958931
v 1.9589307 1.5065376 6.0289702
v 6.0289702 1.5065376 1.958931
v 1.9589307 1.0870477 6.0289702
v 6.3392305 1.0870477 3.9317524E-07
v 1.9658762E-07 1.5065376 6.33923
v 6.3392305 1.5065376 3.9317524E-07
v 1.9658762E-07 1.0870477 6.33923
v 6.0289726 1.0870477 -1.95893
v 6.0289726 1.5065376 -1.95893
v 5.128552 1.0870477 -3.7261112
v 5.128552 1.5065376 -3.7261112
v 3.72611 1.0870477 -5.128549
v 3.72611 1.5065376 -5.128549
v 1.9589314 1.0870477 -6.0289717
v 1.9589314 1.5065376 -6.0289717
v 3.9317524E-07 1.0870477 -6.3392315
v 3.9317524E-07 1.5065376 -6.3392315
v -1.9589314 1.0870477 -6.0289717
v -1.9589314 1.5065376 -6.0289717
v -3.7261095 1.0870477 -5.128549
v -3.7261095 1.5065376 -5.128549
v -5.1285486 1.0870477 -3.7261078
v -5.1285486 1.5065376 -3.7261078
v -6.028971 1.0870477 -1.9589283
v -6.028971 1.5065376 -1.9589283
v -6.339231 1.0870477 3.9317524E-07
v -6.339231 1.5065376 3.9317524E-07
v -6.028971 1.0870477 1.958931
v -6.028971 1.5065376 1.958931
v -5.1285486 1.0870477 3.7261093
v -5.1285486 1.5065376 3.7261093
v -3.7261086 1.0870477 5.1285486
v -3.7261086 1.5065376 5.1285486
v -3.1203651 1.0870477 5.4371896
v -3.1203651 1.5065376 5.4371896
v -1.9589293 1.5065376 6.0289702
v -1.9589293 1.0870477 6.0289702
v -3.8836584 1.5065376 5.3453965
v -3.1203651 1.5065376 5.4371896
v -3.2606773 1.5084804 5.7310996
v -3.252304 1.5065376 6.6766815
v -3.7261086 1.5065376 5.1285486
v -1.9589293 1.5065376 6.0289702
v -5.3453975 1.5065376 3.883658
v 1.9658762E-07 1.5065376 6.33923
v -5.1285486 1.5065376 3.7261093
v -5.8976286E-07 1.5065376 6.676691
v -6.2838917 1.5065376 2.04176
v 1.9589307 1.5065376 6.0289702
v -6.028971 1.5065376 1.958931
v 3.240717 1.5065376 6.6766815
v -6.6072745 1.5065376 0
v -6.339231 1.5065376 3.9317524E-07
v -6.2838917 1.5065376 -2.041761
v -6.028971 1.5065376 -1.9589283
v -5.345398 1.5065376 -3.883658
v -5.1285486 1.5065376 -3.7261078
v -3.8836591 1.5065376 -5.3453994
v -3.7261095 1.5065376 -5.128549
v -2.0417604 1.5065376 -6.2838936
v -1.9589314 1.5065376 -6.0289717
v -1.9658762E-07 1.5065376 -6.607277
v 3.9317524E-07 1.5065376 -6.3392315
v 2.041761 1.5065376 -6.2838936
v 1.9589314 1.5065376 -6.0289717
v 3.8836598 1.5065376 -5.3453994
v 3.72611 1.5065376 -5.128549
v 5.3454 1.5065378 -3.883661
v 5.128552 1.5065376 -3.7261112
v 6.2838936 1.5065376 -2.041761
v 6.0289726 1.5065376 -1.95893
v 6.607274 1.5065376 0
v 6.3392305 1.5065376 3.9317524E-07
v 6.28389 1.5065376 2.0417595
v 6.0289702 1.5065376 1.958931
v 5.345396 1.5065376 3.8836577
v 5.1285486 1.5065376 3.7261086
v 3.8836572 1.5065376 5.3453965
v 3.7261086 1.5065376 5.1285486
v 3.1092503 1.5065376 5.442853
v 3.2490904 1.5084804 5.737018
v 1.9589307 1.0870477 6.0289702
v -1.9658762E-07 1.0870477 0
v 3.1092503 1.0870477 5.442853
v 1.9658762E-07 1.0870477 6.33923
v 3.7261086 1.0870477 5.1285486
v -1.9589293 1.0870477 6.0289702
v 5.1285486 1.0870477 3.7261086
v -3.1203651 1.0870477 5.4371896
v 6.0289702 1.0870477 1.958931
v -3.7261086 1.0870477 5.1285486
v 6.3392305 1.0870477 3.9317524E-07
v -5.1285486 1.0870477 3.7261093
v 6.0289726 1.0870477 -1.95893
v -6.028971 1.0870477 1.958931
v 5.128552 1.0870477 -3.7261112
v -6.339231 1.0870477 3.9317524E-07
v 3.72611 1.0870477 -5.128549
v -6.028971 1.0870477 -1.9589283
v 1.9589314 1.0870477 -6.0289717
v -5.1285486 1.0870477 -3.7261078
v 3.9317524E-07 1.0870477 -6.3392315
v -3.7261095 1.0870477 -5.128549
v -1.9589314 1.0870477 -6.0289717
vt 0.375 0.3125
vt 0.375 0.68843985
vt 0.3875 0.68843985
vt 0.3875 0.3125
vt 0.39999998 0.68843985
vt 0.39999998 0.3125
vt 0.41249996 0.68843985
vt 0.41249996 0.3125
vt 0.42499995 0.68843985
vt 0.42499995 0.3125
vt 0.43749994 0.68843985
vt 0.43749994 0.3125
vt 0.44999993 0.68843985
vt 0.44999993 0.3125
vt 0.46249992 0.68843985
vt 0.46249992 0.3125
vt 0.4749999 0.68843985
vt 0.4749999 0.3125
vt 0.4874999 0.68843985
vt 0.4874999 0.3125
vt 0.49999988 0.68843985
vt 0.49999988 0.3125
vt 0.51249987 0.68843985
vt 0.51249987 0.3125
vt 0.52499986 0.68843985
vt 0.52499986 0.3125
vt 0.5292845 0.68843985
vt 0.5292845 0.3125
vt 0.6124998 0.3125
vt 0.62499976 0.68843985
vt 0.62499976 0.3125
vt 0.6124998 0.68843985
vt 0.5999998 0.3125
vt 0.5999998 0.68843985
vt 0.5874998 0.3125
vt 0.5874998 0.68843985
vt 0.5749998 0.3125
vt 0.5749998 0.68843985
vt 0.5706365 0.68843985
vt 0.5706365 0.3125
vt 0.5706365 0.3125
vt 0.57055545 0.68843824
vt 0.5706365 0.68843985
vt 0.5705468 0.3125018
vt 0.54990745 0.31250077
vt 0.5499301 0.688439
vt 0.5295797 0.31250167
vt 0.5296055 0.6884378
vt 0.5292845 0.68843985
vt 0.5292845 0.3125
vt 0.5459207 0.7805455
vt 0.5459207 0.7805455
vt 0.5632045 0.7978293
vt 0.5383186 0.77667195
vt 0.5632045 0.7978293
vt 0.5383186 0.77667195
vt 0.57430136 0.81960803
vt 0.52414197 0.76944864
vt 0.57430136 0.81960803
vt 0.52414197 0.76944864
vt 0.578125 0.84375
vt 0.5 0.765625
vt 0.578125 0.84375
vt 0.5 0.765625
vt 0.5743013 0.86789197
vt 0.5743013 0.86789197
vt 0.56320447 0.8896707
vt 0.56320447 0.8896707
vt 0.5459207 0.90695447
vt 0.5459207 0.90695447
vt 0.52414197 0.9180513
vt 0.52414197 0.9180513
vt 0.5 0.921875
vt 0.5 0.921875
vt 0.47585803 0.9180513
vt 0.47585803 0.9180513
vt 0.45407927 0.90695447
vt 0.45407927 0.90695447
vt 0.43679553 0.8896707
vt 0.43679553 0.8896707
vt 0.4256987 0.86789197
vt 0.4256987 0.86789197
vt 0.421875 0.84375
vt 0.421875 0.84375
vt 0.4256987 0.81960803
vt 0.4256987 0.81960803
vt 0.43679553 0.7978293
vt 0.43679553 0.7978293
vt 0.45407927 0.78054553
vt 0.45407927 0.78054553
vt 0.46154445 0.77674174
vt 0.46154445 0.77674174
vt 0.47585803 0.76944864
vt 0.47585803 0.76944864
vt 0.4081585 0.71734107
vt 0.46154445 0.77674174
vt 0.4230889 0.7097336
vt 0.4035471 0.59525925
vt 0.45407927 0.78054553
vt 0.47585803 0.76944864
vt 0.37359107 0.75190854
vt 0.5 0.765625
vt 0.43679553 0.7978293
vt 0.49158522 0.66443044
vt 0.3513974 0.79546607
vt 0.52414197 0.76944864
vt 0.4256987 0.81960803
vt 0.5931427 0.5846281
vt 0.34374997 0.84375
vt 0.421875 0.84375
vt 0.3513974 0.89203393
vt 0.4256987 0.86789197
vt 0.37359107 0.93559146
vt 0.43679553 0.8896707
vt 0.40815854 0.97015893
vt 0.45407927 0.90695447
vt 0.4517161 0.9923526
vt 0.47585803 0.9180513
vt 0.5 1
vt 0.5 0.921875
vt 0.5482839 0.9923526
vt 0.52414197 0.9180513
vt 0.59184146 0.97015893
vt 0.5459207 0.90695447
vt 0.62640893 0.93559146
vt 0.56320447 0.8896707
vt 0.6486026 0.89203393
vt 0.5743013 0.86789197
vt 0.65625 0.84375
vt 0.578125 0.84375
vt 0.64860266 0.79546607
vt 0.57430136 0.81960803
vt 0.626409 0.7519085
vt 0.5632045 0.7978293
vt 0.5918415 0.717341
vt 0.5459207 0.7805455
vt 0.5383186 0.77667195
vt 0.57663715 0.709594
vt 0.52414197 0.76944864
vt 0.5 0.8375
vt 0.5383186 0.77667195
vt 0.5 0.765625
vt 0.5459207 0.7805455
vt 0.47585803 0.76944864
vt 0.5632045 0.7978293
vt 0.46154445 0.77674174
vt 0.57430136 0.81960803
vt 0.45407927 0.78054553
vt 0.578125 0.84375
vt 0.43679553 0.7978293
vt 0.5743013 0.86789197
vt 0.4256987 0.81960803
vt 0.56320447 0.8896707
vt 0.421875 0.84375
vt 0.5459207 0.90695447
vt 0.4256987 0.86789197
vt 0.52414197 0.9180513
vt 0.43679553 0.8896707
vt 0.5 0.921875
vt 0.45407927 0.90695447
vt 0.47585803 0.9180513
vn 0.9510568 0 -0.3090161
vn 0.9510568 0 -0.30901614
vn 0.809017 0 -0.5877852
vn 0.8090169 0 -0.5877853
vn 0.587785 0 -0.8090172
vn 0.587785 0 -0.8090171
vn 0.30901703 0 -0.95105654
vn 0.30901703 0 -0.95105654
vn -0 0 -1
vn -0 0 -1
vn -0.30901712 0 -0.9510565
vn -0.30901712 0 -0.9510565
vn -0.58778566 0 -0.80901664
vn -0.58778566 0 -0.80901664
vn -0.8090171 0 -0.5877851
vn -0.8090171 0 -0.5877851
vn -0.95105654 0 -0.30901688
vn -0.95105654 0 -0.30901688
vn -1 0 0
vn -1 0 0
vn -0.95105654 0 0.30901703
vn -0.95105654 0 0.30901703
vn -0.8090169 0 0.5877853
vn -0.8090169 0 0.5877853
vn -0.66268986 0 0.7488939
vn -0.66268986 0 0.7488939
vn -0.52640176 0 0.85023594
vn -0.52640176 0 0.85023594
vn 1 0 0
vn 0.9510568 0 -0.30901614
vn 0.9510568 0 -0.3090161
vn 1 0 0
vn 0.9510565 0 0.30901724
vn 0.9510565 0 0.30901724
vn 0.80901706 0 0.5877852
vn 0.80901706 0 0.5877852
vn 0.66181934 0 0.7496633
vn 0.6618194 0 0.74966335
vn 0.52518505 0 0.8509881
vn 0.5251852 0 0.850988
vn 0.9999603 0 0.008910759
vn 0.281133 0 0.9596688
vn 0.9999603 0 0.0089107575
vn 0.28113312 0 0.9596688
vn -0 0 1
vn -0 0 1
vn -0.28181922 0 0.9594675
vn -0.28181922 0 0.9594675
vn -0.9999608 0 0.008854991
vn -0.9999608 0 0.008854991
vn -0.64772326 0 -0.7618757
vn -0.64772326 0 -0.7618757
vn -0.809017 0 -0.58778524
vn -0.45399034 0 -0.8910066
vn -0.809017 0 -0.58778524
vn -0.45399034 0 -0.8910066
vn -0.9510568 0 -0.3090161
vn -0.27701187 0 -0.9608666
vn -0.9510568 0 -0.3090161
vn -0.27701187 0 -0.9608666
vn -1 0 0
vn -0 0 -1
vn -1 0 0
vn -0 0 -1
vn -0.9510572 0 0.30901504
vn -0.9510572 0 0.30901504
vn -0.80901706 0 0.5877852
vn -0.80901706 0 0.5877852
vn -0.58778465 0 0.80901736
vn -0.58778465 0 0.80901736
vn -0.30901605 0 0.9510568
vn -0.30901605 0 0.9510568
vn -0 0 1
vn -0 0 1
vn 0.30901605 0 0.9510568
vn 0.30901605 0 0.9510568
vn 0.5877856 0 0.80901664
vn 0.5877856 0 0.80901664
vn 0.80901736 0 0.5877848
vn 0.80901736 0 0.5877848
vn 0.9510568 0 0.30901617
vn 0.9510568 0 0.30901617
vn 1 0 0
vn 1 0 0
vn 0.9510568 0 -0.30901617
vn 0.9510568 0 -0.30901617
vn 0.8090169 0 -0.5877853
vn 0.8090169 0 -0.5877853
vn 0.6485555 0 -0.7611673
vn 0.6485555 0 -0.7611673
vn 0.45398974 0 -0.8910069
vn 0.45398974 0 -0.8910069
vn 0.27771065 0 -0.96066487
vn 0.27771065 0 -0.96066487
vn 0.00012471303 0.9999995 -0.0010371291
vn 0.0012439968 0.99999905 -0.00061231403
vn 0.0013325544 0.99999905 -0.00029319985
vn 0.000858579 0.99999964 9.145335E-05
vn 0.000119726516 0.9999995 -0.0009956635
vn 0.00026437794 1 2.8160777E-05
vn -0 1 0
vn -0 1 0
vn -0 1 0
vn -0 1 0
vn -0 1 0
vn -0.0002655615 1 2.8306897E-05
vn -0 1 0
vn -0.00085865636 0.99999964 9.15161E-05
vn -0 1 0
vn -0 1 0
vn -0 1 0
vn -0 1 0
vn -0 1 0
vn -0 1 0
vn -0 1 0
vn -0 1 0
vn -0 1 0
vn -0 1 0
vn -0 1 0
vn -0 1 0
vn -0 1 0
vn -0 1 0
vn -0 1 0
vn -0 1 0
vn -0 1 0
vn -0 1 0
vn -0 1 0
vn -0 1 0
vn -0 1 0
vn -0 1 0
vn -0 1 0
vn -0 1 0
vn -0 1 0
vn -0 1 0
vn -0.0001316273 0.9999995 -0.0010460248
vn -0.00012647489 0.9999995 -0.0010050839
vn -0.0012527262 0.99999905 -0.00062924577
vn -0.001343181 0.99999905 -0.00030267803
vn -0 1 0
vn -0 1 0
vn -0 1 0
vn -0 1 0
vn -0 1 0
vn -0 1 0
vn -0 1 0
vn -0 1 0
vn -0 1 0
vn -0 1 0
vn -0 1 0
vn -0 1 0
vn -0 1 0
vn -0 1 0
vn -0 1 0
vn -0 1 0
vn -0 1 0
vn -0 1 0
vn -0 1 0
vn -0 1 0
vn -0 1 0
vn -0 1 0
vn -0 1 0
g ENV_S04_BasketFall_TurntablePlatform_COL_0
f 3/3/3 2/2/2 1/1/1
f 4/4/4 3/3/3 1/1/1
f 5/5/5 3/3/3 4/4/4
f 6/6/6 5/5/5 4/4/4
f 7/7/7 5/5/5 6/6/6
f 8/8/8 7/7/7 6/6/6
f 9/9/9 7/7/7 8/8/8
f 10/10/10 9/9/9 8/8/8
f 11/11/11 9/9/9 10/10/10
f 12/12/12 11/11/11 10/10/10
f 13/13/13 11/11/11 12/12/12
f 14/14/14 13/13/13 12/12/12
f 15/15/15 13/13/13 14/14/14
f 16/16/16 15/15/15 14/14/14
f 17/17/17 15/15/15 16/16/16
f 18/18/18 17/17/17 16/16/16
f 19/19/19 17/17/17 18/18/18
f 20/20/20 19/19/19 18/18/18
f 21/21/21 19/19/19 20/20/20
f 22/22/22 21/21/21 20/20/20
f 23/23/23 21/21/21 22/22/22
f 24/24/24 23/23/23 22/22/22
f 25/25/25 23/23/23 24/24/24
f 26/26/26 25/25/25 24/24/24
f 27/27/27 25/25/25 26/26/26
f 28/28/28 27/27/27 26/26/26
f 31/31/31 30/30/30 29/29/29
f 30/30/30 32/32/32 29/29/29
f 29/29/29 32/32/32 33/33/33
f 32/32/32 34/34/34 33/33/33
f 33/33/33 34/34/34 35/35/35
f 34/34/34 36/36/36 35/35/35
f 35/35/35 36/36/36 37/37/37
f 36/36/36 38/38/38 37/37/37
f 37/37/37 38/38/38 39/39/39
f 40/40/40 37/37/37 39/39/39
f 43/43/43 42/42/42 41/41/41
f 42/42/42 44/44/44 41/41/41
f 44/44/44 42/42/42 45/45/45
f 42/42/42 46/46/46 45/45/45
f 45/45/45 46/46/46 47/47/47
f 46/46/46 48/48/48 47/47/47
f 47/47/47 48/48/48 49/49/49
f 50/50/50 47/47/47 49/49/49
f 53/53/53 52/52/52 51/51/51
f 51/51/51 52/52/52 54/54/54
f 55/55/55 53/53/53 51/51/51
f 56/56/56 51/51/51 54/54/54
f 57/57/57 53/53/53 55/55/55
f 56/56/56 54/54/54 58/58/58
f 59/59/59 57/57/57 55/55/55
f 54/54/54 60/60/60 58/58/58
f 61/61/61 57/57/57 59/59/59
f 58/58/58 60/60/60 62/62/62
f 63/63/63 61/61/61 59/59/59
f 60/60/60 64/64/64 62/62/62
f 65/65/65 61/61/61 63/63/63
f 66/66/66 65/65/65 63/63/63
f 67/67/67 65/65/65 66/66/66
f 68/68/68 67/67/67 66/66/66
f 69/69/69 67/67/67 68/68/68
f 70/70/70 69/69/69 68/68/68
f 71/71/71 69/69/69 70/70/70
f 72/72/72 71/71/71 70/70/70
f 73/73/73 71/71/71 72/72/72
f 74/74/74 73/73/73 72/72/72
f 75/75/75 73/73/73 74/74/74
f 76/76/76 75/75/75 74/74/74
f 77/77/77 75/75/75 76/76/76
f 78/78/78 77/77/77 76/76/76
f 79/79/79 77/77/77 78/78/78
f 80/80/80 79/79/79 78/78/78
f 81/81/81 79/79/79 80/80/80
f 82/82/82 81/81/81 80/80/80
f 83/83/83 81/81/81 82/82/82
f 84/84/84 83/83/83 82/82/82
f 85/85/85 83/83/83 84/84/84
f 86/86/86 85/85/85 84/84/84
f 87/87/87 85/85/85 86/86/86
f 88/88/88 87/87/87 86/86/86
f 89/89/89 87/87/87 88/88/88
f 90/90/90 89/89/89 88/88/88
f 91/91/91 89/89/89 90/90/90
f 92/92/92 91/91/91 90/90/90
f 92/92/92 93/93/93 91/91/91
f 93/93/93 94/94/94 91/91/91
f 64/64/64 94/94/94 93/93/93
f 62/62/62 64/64/64 93/93/93
f 97/97/97 96/96/96 95/95/95
f 97/97/97 98/98/98 96/96/96
f 96/96/96 99/99/99 95/95/95
f 98/98/98 100/100/100 96/96/96
f 95/95/95 99/99/99 101/101/101
f 102/102/102 100/100/100 98/98/98
f 99/99/99 103/103/103 101/101/101
f 104/104/104 102/102/102 98/98/98
f 101/101/101 103/103/103 105/105/105
f 106/106/106 102/102/102 104/104/104
f 103/103/103 107/107/107 105/105/105
f 108/108/108 106/106/106 104/104/104
f 105/105/105 107/107/107 109/109/109
f 107/107/107 110/110/110 109/109/109
f 109/109/109 110/110/110 111/111/111
f 110/110/110 112/112/112 111/111/111
f 111/111/111 112/112/112 113/113/113
f 112/112/112 114/114/114 113/113/113
f 113/113/113 114/114/114 115/115/115
f 114/114/114 116/116/116 115/115/115
f 115/115/115 116/116/116 117/117/117
f 116/116/116 118/118/118 117/117/117
f 117/117/117 118/118/118 119/119/119
f 118/118/118 120/120/120 119/119/119
f 119/119/119 120/120/120 121/121/121
f 120/120/120 122/122/122 121/121/121
f 121/121/121 122/122/122 123/123/123
f 122/122/122 124/124/124 123/123/123
f 123/123/123 124/124/124 125/125/125
f 124/124/124 126/126/126 125/125/125
f 125/125/125 126/126/126 127/127/127
f 126/126/126 128/128/128 127/127/127
f 127/127/127 128/128/128 129/129/129
f 128/128/128 130/130/130 129/129/129
f 129/129/129 130/130/130 131/131/131
f 130/130/130 132/132/132 131/131/131
f 131/131/131 132/132/132 133/133/133
f 132/132/132 134/134/134 133/133/133
f 133/133/133 134/134/134 135/135/135
f 134/134/134 136/136/136 135/135/135
f 135/135/135 136/136/136 137/137/137
f 138/138/138 135/135/135 137/137/137
f 138/138/138 137/137/137 108/108/108
f 137/137/137 106/106/106 108/108/108
f 141/141/141 140/140/140 139/139/139
f 139/139/139 140/140/140 142/142/142
f 141/141/141 143/143/143 140/140/140
f 142/142/142 140/140/140 144/144/144
f 145/145/145 140/140/140 143/143/143
f 146/146/146 144/144/144 140/140/140
f 147/147/147 140/140/140 145/145/145
f 146/146/146 140/140/140 148/148/148
f 149/149/149 140/140/140 147/147/147
f 148/148/148 140/140/140 150/150/150
f 151/151/151 140/140/140 149/149/149
f 150/150/150 140/140/140 152/152/152
f 153/153/153 140/140/140 151/151/151
f 152/152/152 140/140/140 154/154/154
f 155/155/155 140/140/140 153/153/153
f 154/154/154 140/140/140 156/156/156
f 157/157/157 140/140/140 155/155/155
f 156/156/156 140/140/140 158/158/158
f 159/159/159 140/140/140 157/157/157
f 158/158/158 140/140/140 160/160/160
f 161/161/161 140/140/140 159/159/159
f 160/160/160 140/140/140 161/161/161
