g ENV_EggSiege_Floor_COL
v 4.2634692E-06 -1.7659867E-06 0
v 15.539058 -34.298283 -0.01478836
v 6.1327214 -37.1472 -0.01478836
v 23.886696 -29.10787 -0.01478836
v -3.6900735 -37.472958 -0.01478836
v 30.609503 -21.93515 -0.01478836
v -13.263055 -35.24104 -0.01478836
v 35.240536 -13.262728 -0.01478836
v -21.932184 -30.607496 -0.01478836
v 37.472942 -3.6900651 -0.01478836
v -29.106663 -23.888113 -0.01478836
v 37.151184 6.1342945 -0.01478836
v -34.297573 -15.540787 -0.01478836
v 34.29761 15.54071 -0.01478836
v -37.15117 -6.134381 -0.01478836
v 29.106707 23.88807 -0.01478836
v -37.47297 3.6900694 -0.01478836
v 21.932226 30.60748 -0.01478836
v -35.24105 13.263053 -0.01478836
v 13.263097 35.241035 -0.01478836
v -30.607513 21.93218 -0.01478836
v 3.6900983 37.47297 -0.01478836
v -23.88814 29.106663 -0.01478836
v -6.134371 37.15118 -0.01478836
v -15.540794 34.29758 -0.01478836
vt 0.50000036 0.50000834
vt 0.69101554 0.078434296
vt 0.5753909 0.043396086
vt 0.79360497 0.1422624
vt 0.45463848 0.03937793
vt 0.8762038 0.23044443
vt 0.3369611 0.066838056
vt 0.933099 0.33703318
vt 0.23041297 0.12382263
vt 0.96048164 0.4546604
vt 0.14225757 0.20643683
vt 0.95655674 0.5753934
vt 0.0784864 0.30903774
vt 0.9215122 0.69097835
vt 0.043441147 0.42462406
vt 0.8577419 0.7935784
vt 0.039515726 0.5453589
vt 0.7695874 0.876192
vt 0.0668933 0.66298777
vt 0.66304076 0.93317544
vt 0.12381887 0.7695354
vt 0.5453642 0.9606321
vt 0.20637715 0.8577379
vt 0.424591 0.9566711
vt 0.30896407 0.9215722
vn -0 0 1
vn 0.00016200771 -0.0003577706 1
vn 6.398117E-05 -0.00038753884 1
vn 0.0002490953 -0.00030363945 1
vn -3.8414375E-05 -0.00039085813 1
vn 0.00031921436 -0.00022873655 1
vn -0.00013833633 -0.0003675714 1
vn 0.0003675982 -0.00013828276 1
vn -0.00022875718 -0.00031924256 1
vn 0.00039084995 -3.849898E-05 1
vn -0.0003035885 -0.00024915795 1
vn 0.0003874945 6.398177E-05 1
vn -0.00035773075 -0.0001620937 1
vn 0.0003577312 0.00016209284 1
vn -0.00038749422 -6.3982945E-05 1
vn 0.00030358895 0.00024915722 1
vn -0.00039085068 3.848818E-05 1
vn 0.00022875758 0.00031924216 1
vn -0.00036757134 0.00013833621 1
vn 0.0001383368 0.0003675711 1
vn -0.00031924262 0.00022875682 1
vn 3.8488575E-05 0.00039085068 1
vn -0.0002491579 0.00030358825 1
vn -6.39827E-05 0.00038749422 1
vn -0.0001620935 0.00035773066 1
g ENV_EggSiege_Floor_COL_0
f 3/3/3 2/2/2 1/1/1
f 2/2/2 4/4/4 1/1/1
f 5/5/5 3/3/3 1/1/1
f 4/4/4 6/6/6 1/1/1
f 7/7/7 5/5/5 1/1/1
f 6/6/6 8/8/8 1/1/1
f 9/9/9 7/7/7 1/1/1
f 8/8/8 10/10/10 1/1/1
f 9/9/9 1/1/1 11/11/11
f 10/10/10 12/12/12 1/1/1
f 13/13/13 11/11/11 1/1/1
f 12/12/12 14/14/14 1/1/1
f 15/15/15 13/13/13 1/1/1
f 14/14/14 16/16/16 1/1/1
f 17/17/17 15/15/15 1/1/1
f 16/16/16 18/18/18 1/1/1
f 19/19/19 17/17/17 1/1/1
f 18/18/18 20/20/20 1/1/1
f 19/19/19 1/1/1 21/21/21
f 20/20/20 22/22/22 1/1/1
f 21/21/21 1/1/1 23/23/23
f 24/24/24 1/1/1 22/22/22
f 25/25/25 23/23/23 1/1/1
f 24/24/24 25/25/25 1/1/1
