g ENV_sideWall_Col_MO
v 33.80787 4.3067026 -34.515835
v 34.16543 66.336716 -1.2183872
v 33.93023 4.3290434 -1.0403624
v 34.10945 66.37094 -34.539272
v 33.143745 4.305024 -37.324856
v 33.424892 66.37266 -37.438572
v 34.10945 66.37094 -34.539272
v 35.358345 66.338615 -1.1879681
v 34.16543 66.336716 -1.2183872
v 35.14024 66.358955 -34.84703
v 33.424892 66.37266 -37.438572
v 34.435677 66.36012 -37.826855
v 22.497917 66.385216 -50.62434
v 32.117725 66.37332 -39.73977
v 21.705397 66.392525 -49.71957
v 33.048653 66.361435 -40.253017
v 33.424892 66.37266 -37.438572
v 34.435677 66.36012 -37.826855
v 21.705397 66.392525 -49.71957
v 31.87529 4.3060913 -39.55247
v 21.43185 4.322442 -49.58408
v 32.117725 66.37332 -39.73977
v 33.424892 66.37266 -37.438572
v 33.143745 4.305024 -37.324856
v 35.358345 66.338615 -1.1879681
v 35.299385 4.3558793 -34.858067
v 35.474503 4.3663898 -1.1944345
v 35.14024 66.358955 -34.84703
v 34.584293 4.3548436 -37.886833
v 34.435677 66.36012 -37.826855
v 33.177475 4.355064 -40.35331
v 22.497917 66.385216 -50.62434
v 22.639017 4.3614874 -50.701477
v 33.048653 66.361435 -40.253017
v 34.435677 66.36012 -37.826855
v 34.584293 4.3548436 -37.886833
v 20.505934 66.38736 -52.594143
v 19.713415 66.394684 -51.689373
v 19.439867 4.324596 -51.553886
v 20.647036 4.3636413 -52.671284
v 22.497917 66.385216 -50.62434
v 21.951702 66.38213 -52.122723
v 22.092802 4.35841 -52.199863
v 22.639017 4.3614874 -50.701477
v 21.43185 4.322442 -49.58408
v 20.004997 4.327498 -50.077095
v 20.278545 66.39758 -50.21258
v 21.705397 66.392525 -49.71957
v 21.705397 66.392525 -49.71957
v 21.951702 66.38213 -52.122723
v 22.497917 66.385216 -50.62434
v 20.278545 66.39758 -50.21258
v 20.505934 66.38736 -52.594143
v 19.713415 66.394684 -51.689373
v 20.004997 4.327498 -50.077095
v 19.439867 4.324596 -51.553886
v 19.713415 66.394684 -51.689373
v 20.278545 66.39758 -50.21258
v 21.951702 66.38213 -52.122723
v 20.505934 66.38736 -52.594143
v 20.647036 4.3636413 -52.671284
v 22.092802 4.35841 -52.199863
v 33.80787 4.3067026 34.515835
v 33.93023 4.3290434 1.0403624
v 34.16543 66.336716 1.2183872
v 34.10945 66.37094 34.539272
v 33.143745 4.305024 37.324856
v 33.424892 66.37266 37.438572
v 34.10945 66.37094 34.539272
v 34.16543 66.336716 1.2183872
v 35.358345 66.338615 1.1879681
v 35.14024 66.358955 34.84703
v 33.424892 66.37266 37.438572
v 34.435677 66.36012 37.826855
v 22.497917 66.385216 50.62434
v 21.705397 66.392525 49.71957
v 32.117725 66.37332 39.73977
v 33.048653 66.361435 40.253017
v 33.424892 66.37266 37.438572
v 34.435677 66.36012 37.826855
v 21.705397 66.392525 49.71957
v 21.43185 4.322442 49.58408
v 31.87529 4.3060913 39.55247
v 32.117725 66.37332 39.73977
v 33.424892 66.37266 37.438572
v 33.143745 4.305024 37.324856
v 35.358345 66.338615 1.1879681
v 35.474503 4.3663898 1.1944345
v 35.299385 4.3558793 34.858067
v 35.14024 66.358955 34.84703
v 34.584293 4.3548436 37.886833
v 34.435677 66.36012 37.826855
v 33.177475 4.355064 40.35331
v 22.639017 4.3614874 50.701477
v 22.497917 66.385216 50.62434
v 33.048653 66.361435 40.253017
v 34.435677 66.36012 37.826855
v 34.584293 4.3548436 37.886833
v 20.505934 66.38736 52.594143
v 20.647036 4.3636413 52.671284
v 19.439867 4.324596 51.553886
v 19.713415 66.394684 51.689373
v 22.497917 66.385216 50.62434
v 22.639017 4.3614874 50.701477
v 22.092802 4.35841 52.199863
v 21.951702 66.38213 52.122723
v 21.43185 4.322442 49.58408
v 21.705397 66.392525 49.71957
v 20.278545 66.39758 50.21258
v 20.004997 4.327498 50.077095
v 21.705397 66.392525 49.71957
v 22.497917 66.385216 50.62434
v 21.951702 66.38213 52.122723
v 20.278545 66.39758 50.21258
v 20.505934 66.38736 52.594143
v 19.713415 66.394684 51.689373
v 20.004997 4.327498 50.077095
v 20.278545 66.39758 50.21258
v 19.713415 66.394684 51.689373
v 19.439867 4.324596 51.553886
v 21.951702 66.38213 52.122723
v 22.092802 4.35841 52.199863
v 20.647036 4.3636413 52.671284
v 20.505934 66.38736 52.594143
v 34.16543 66.336716 -1.2183872
v 33.663692 66.33911 0
v 33.42849 4.331444 0
v 33.93023 4.3290434 -1.0403624
v 33.93023 4.3290434 -1.0403624
v 36.10174 4.36879 0
v 35.474503 4.3663898 -1.1944345
v 33.42849 4.331444 0
v 35.474503 4.3663898 1.1944345
v 33.93023 4.3290434 1.0403624
v 35.474503 4.3663898 -1.1944345
v 36.10174 4.36879 0
v 35.98558 66.34101 0
v 35.358345 66.338615 -1.1879681
v 35.358345 66.338615 -1.1879681
v 33.663692 66.33911 0
v 34.16543 66.336716 -1.2183872
v 35.98558 66.34101 0
v 34.16543 66.336716 1.2183872
v 35.358345 66.338615 1.1879681
v 35.358345 66.338615 1.1879681
v 35.98558 66.34101 0
v 36.10174 4.36879 0
v 35.474503 4.3663898 1.1944345
v 33.93023 4.3290434 1.0403624
v 33.42849 4.331444 0
v 33.663692 66.33911 0
v 34.16543 66.336716 1.2183872
v 33.93023 4.3290434 -1.0403624
v 35.474503 4.3663898 -1.1944345
v 35.299385 4.3558793 -34.858067
v 33.80787 4.3067026 -34.515835
v 33.80787 4.3067026 -34.515835
v 35.299385 4.3558793 -34.858067
v 34.584293 4.3548436 -37.886833
v 33.143745 4.305024 -37.324856
v 33.143745 4.305024 -37.324856
v 34.584293 4.3548436 -37.886833
v 33.177475 4.355064 -40.35331
v 31.87529 4.3060913 -39.55247
v 31.87529 4.3060913 -39.55247
v 33.177475 4.355064 -40.35331
v 22.639017 4.3614874 -50.701477
v 21.43185 4.322442 -49.58408
v 21.43185 4.322442 -49.58408
v 22.639017 4.3614874 -50.701477
v 22.092802 4.35841 -52.199863
v 20.004997 4.327498 -50.077095
v 20.004997 4.327498 -50.077095
v 22.092802 4.35841 -52.199863
v 20.647036 4.3636413 -52.671284
v 19.439867 4.324596 -51.553886
v 33.80787 4.3067026 34.515835
v 35.299385 4.3558793 34.858067
v 35.474503 4.3663898 1.1944345
v 33.93023 4.3290434 1.0403624
v 33.143745 4.305024 37.324856
v 34.584293 4.3548436 37.886833
v 35.299385 4.3558793 34.858067
v 33.80787 4.3067026 34.515835
v 31.87529 4.3060913 39.55247
v 33.177475 4.355064 40.35331
v 34.584293 4.3548436 37.886833
v 33.143745 4.305024 37.324856
v 21.43185 4.322442 49.58408
v 22.639017 4.3614874 50.701477
v 33.177475 4.355064 40.35331
v 31.87529 4.3060913 39.55247
v 20.004997 4.327498 50.077095
v 22.092802 4.35841 52.199863
v 22.639017 4.3614874 50.701477
v 21.43185 4.322442 49.58408
v 19.439867 4.324596 51.553886
v 20.647036 4.3636413 52.671284
v 22.092802 4.35841 52.199863
v 20.004997 4.327498 50.077095
vt 0.7084664 0.255301
vt 0.006647 0.078097
vt 0.008174 0.254976
vt 0.7084664 0.075024
vt 0.731273 0.255301
vt 0.731273 0.075024
vt 0.7084664 0.075024
vt 0.006647 0.078097
vt 0.006647 0.078097
vt 0.7084664 0.075024
vt 0.731273 0.075024
vt 0.731273 0.075024
vt 0.730767 0.374986
vt 0.07896665 0.373828
vt 0.730767 0.374986
vt 0.07896665 0.373828
vt 0.003532 0.373828
vt 0.003532 0.373828
vt 0.730767 0.374986
vt 0.07896665 0.554263
vt 0.731123 0.554162
vt 0.07896665 0.373828
vt 0.003532 0.373828
vt 0.003532 0.554263
vt 0.006647 0.078097
vt 0.7084664 0.255301
vt 0.008174 0.254976
vt 0.7084664 0.075024
vt 0.731273 0.255301
vt 0.731273 0.075024
vt 0.07896665 0.554263
vt 0.730767 0.374986
vt 0.731123 0.554162
vt 0.07896665 0.373828
vt 0.003532 0.373828
vt 0.003532 0.554263
vt 0.030640164 0
vt 0 0.46249077
vt 0.96637964 0.49719572
vt 0.99999994 0
vt 0.030640164 0
vt 0.030640164 0
vt 0.99999994 0
vt 0.99999994 0
vt 0.96637964 0.49719572
vt 0.96637964 0.49719572
vt 0 0.46249077
vt 0 0.46249077
vt 0 0.46249077
vt 0.030640164 0
vt 0.030640164 0
vt 0 0.46249077
vt 0.030640164 0
vt 0 0.46249077
vt 0.96637964 0.49719572
vt 0.96637964 0.49719572
vt 0 0.46249077
vt 0 0.46249077
vt 0.030640164 0
vt 0.030640164 0
vt 0.99999994 0
vt 0.99999994 0
vt 0.7084664 0.255301
vt 0.008174 0.254976
vt 0.006647 0.078097
vt 0.7084664 0.075024
vt 0.731273 0.255301
vt 0.731273 0.075024
vt 0.7084664 0.075024
vt 0.006647 0.078097
vt 0.006647 0.078097
vt 0.7084664 0.075024
vt 0.731273 0.075024
vt 0.731273 0.075024
vt 0.730767 0.374986
vt 0.730767 0.374986
vt 0.07896665 0.373828
vt 0.07896665 0.373828
vt 0.003532 0.373828
vt 0.003532 0.373828
vt 0.730767 0.374986
vt 0.731123 0.554162
vt 0.07896665 0.554263
vt 0.07896665 0.373828
vt 0.003532 0.373828
vt 0.003532 0.554263
vt 0.006647 0.078097
vt 0.008174 0.254976
vt 0.7084664 0.255301
vt 0.7084664 0.075024
vt 0.731273 0.255301
vt 0.731273 0.075024
vt 0.07896665 0.554263
vt 0.731123 0.554162
vt 0.730767 0.374986
vt 0.07896665 0.373828
vt 0.003532 0.373828
vt 0.003532 0.554263
vt 0.030640164 0
vt 0.99999994 0
vt 0.96637964 0.49719572
vt 0 0.46249077
vt 0.030640164 0
vt 0.99999994 0
vt 0.99999994 0
vt 0.030640164 0
vt 0.96637964 0.49719572
vt 0 0.46249077
vt 0 0.46249077
vt 0.96637964 0.49719572
vt 0 0.46249077
vt 0.030640164 0
vt 0.030640164 0
vt 0 0.46249077
vt 0.030640164 0
vt 0 0.46249077
vt 0.96637964 0.49719572
vt 0 0.46249077
vt 0 0.46249077
vt 0.96637964 0.49719572
vt 0.030640164 0
vt 0.99999994 0
vt 0.99999994 0
vt 0.030640164 0
vt 0 0
vt 0 0
vt 0.97557944 1.8130105E-15
vt 0.97557944 1.8130105E-15
vt 0.97557944 1.8130105E-15
vt 1 0.4813562
vt 1 0.4813562
vt 0.97557944 1.8130105E-15
vt 1 0.4813562
vt 0.97557944 1.8130105E-15
vt 1 0.4813562
vt 1 0.4813562
vt 0.018838406 0.47535735
vt 0.018838406 0.47535735
vt 0.018838406 0.47535735
vt 0 0
vt 0 0
vt 0.018838406 0.47535735
vt 0 0
vt 0.018838406 0.47535735
vt 0.018838406 0.47535735
vt 0.018838406 0.47535735
vt 1 0.4813562
vt 1 0.4813562
vt 0.97557944 1.8130105E-15
vt 0.97557944 1.8130105E-15
vt 0 0
vt 0 0
vt 0 0
vt 0.0043889615 0.045701165
vt 1 0.044171896
vt 0.99004084 1.344911E-16
vt 0.003261467 0
vt 0 0.49197173
vt 1 0.49228656
vt 0.9307759 0
vt 0.07904397 0
vt 0 0.53908443
vt 1 0.53835523
vt 0.9818311 0
vt 0.025850974 0
vt 0 0.09959102
vt 0.99351007 0.11049566
vt 1 0
vt 0.289053 0
vt 0 0.54010314
vt 0.37461028 0.99999994
vt 0.8514328 3.3881144E-15
vt 0 0
vt 0.45644462 0.99999994
vt 0.80975944 0.5636905
vt 0.583782 0
vt 0.009959185 1.344911E-16
vt 0 0.044171974
vt 0.9956111 0.04570109
vt 1 0
vt 0.06922413 0
vt 0 0.4922866
vt 1 0.4919717
vt 0.99673855 2.9225063E-15
vt 0.018168954 0
vt 0 0.5383553
vt 1 0.5390844
vt 0.920956 0
vt 0 0
vt 0.00648995 0.11049644
vt 1 0.09959037
vt 0.97414905 0
vt 0 0
vt 0.4761003 1
vt 0.85014313 0.53963274
vt 0.561528 0
vt 0.22596772 0
vt 0 0.56384146
vt 0.35329965 1.0000001
vt 0.8097247 1.6788299E-15
vn -0.9997682 0.004379017 0.02108264
vn -0.9999201 0.004292153 -0.011885751
vn -0.99991906 0.0042918995 -0.011980251
vn -0.9997682 0.004379005 0.021078154
vn -0.9337307 0.004892058 0.35794282
vn -0.93371683 0.004892065 0.357979
vn 0.0050742766 0.999987 0.0005995374
vn 0.0046357363 0.9999889 0.00079552666
vn 0.0046357363 0.9999889 0.00079552666
vn 0.0052936855 0.99998593 0.00050148054
vn 0.010711274 0.99993587 -0.0036715723
vn 0.010717509 0.99993587 -0.0036547245
vn 0.006970163 0.9999629 -0.005067706
vn 0.0073753493 0.9999598 -0.005102555
vn 0.006970163 0.9999629 -0.005067706
vn 0.00753764 0.9999585 -0.005116513
vn 0.010711274 0.99993587 -0.0036715723
vn 0.010717509 0.99993587 -0.0036547245
vn -0.6629879 0.004672541 0.74861556
vn -0.7232703 0.004796791 0.6905484
vn -0.6629691 0.004672488 0.74863213
vn -0.7232202 0.0047967276 0.69060093
vn -0.93371683 0.004892065 0.357979
vn -0.9337307 0.004892058 0.35794282
vn 0.99971825 0.002209972 -0.023632323
vn 0.99969184 0.0022532532 -0.024722796
vn 0.9997187 0.0022099859 -0.023611555
vn 0.9996916 0.0022532688 -0.024732167
vn 0.9327418 0.0025910048 -0.36053583
vn 0.9327333 0.0025910076 -0.36055765
vn 0.73136634 0.0025647476 -0.68197995
vn 0.7303446 0.002569414 -0.6830741
vn 0.73036283 0.0025694277 -0.68305457
vn 0.7313258 0.0025647248 -0.6820235
vn 0.9327333 0.0025910076 -0.36055765
vn 0.9327418 0.0025910048 -0.36053583
vn -0.711051 0.00042826182 -0.7031402
vn -0.7110509 0.00042826173 -0.70314026
vn -0.711051 0.0004282618 -0.7031402
vn -0.711051 0.00042826182 -0.7031402
vn 0.7303446 0.002569414 -0.6830741
vn 0.9395168 0.002563294 -0.34249315
vn 0.9395168 0.002563294 -0.34249318
vn 0.73036283 0.0025694277 -0.68305457
vn -0.6629691 0.004672488 0.74863213
vn -0.32656524 0.0035023512 0.9451682
vn -0.32656524 0.0035023512 0.9451682
vn -0.6629879 0.004672541 0.74861556
vn 0.00486527 0.9999809 -0.0038224934
vn 0.00486517 0.9999809 -0.0038268617
vn 0.00486527 0.9999809 -0.003822493
vn 0.004865178 0.9999809 -0.0038264957
vn 0.0048650764 0.9999808 -0.0038308636
vn 0.004865076 0.9999808 -0.0038308636
vn -0.93394405 0.004896061 0.35738572
vn -0.93394405 0.004896061 0.35738572
vn -0.93394405 0.004896061 0.35738572
vn -0.93394405 0.0048960606 0.3573857
vn 0.31001115 0.0018876788 -0.95073104
vn 0.31001118 0.001887679 -0.95073104
vn 0.3100112 0.001887679 -0.95073104
vn 0.3100112 0.0018876788 -0.95073104
vn -0.9997682 0.004379019 -0.021082656
vn -0.99991906 0.0042919023 0.0119802505
vn -0.9999201 0.004292156 0.011885748
vn -0.9997682 0.004379007 -0.021078171
vn -0.9337307 0.004892059 -0.35794285
vn -0.93371683 0.004892067 -0.35797906
vn 0.0050742747 0.999987 -0.0005996154
vn 0.004635735 0.9999889 -0.00079561013
vn 0.004635735 0.9999889 -0.0007956101
vn 0.005293683 0.99998593 -0.00050155574
vn 0.01071127 0.99993587 0.0036715732
vn 0.010717506 0.99993587 0.0036547256
vn 0.0069701653 0.9999629 0.0050692493
vn 0.0069701653 0.9999629 0.00506925
vn 0.007375351 0.9999598 0.005103899
vn 0.0075376416 0.9999585 0.0051177773
vn 0.01071127 0.99993587 0.0036715732
vn 0.010717506 0.99993587 0.0036547256
vn -0.66298795 0.0046725445 -0.7486155
vn -0.6629691 0.004672492 -0.74863213
vn -0.72327024 0.0047967965 -0.6905485
vn -0.7232202 0.004796733 -0.69060093
vn -0.93371683 0.004892067 -0.35797906
vn -0.9337307 0.004892059 -0.35794285
vn 0.99971825 0.0022099807 0.023632323
vn 0.9997187 0.0022099945 0.023611555
vn 0.99969184 0.0022532663 0.02472279
vn 0.9996916 0.0022532817 0.024732165
vn 0.9327418 0.002591026 0.36053568
vn 0.9327333 0.0025910295 0.3605576
vn 0.73136634 0.002564737 0.68197995
vn 0.73036283 0.002569421 0.6830545
vn 0.7303446 0.0025694077 0.683074
vn 0.73132586 0.002564715 0.68202347
vn 0.9327333 0.0025910295 0.3605576
vn 0.9327418 0.002591026 0.36053568
vn -0.7110504 0.0004282854 0.70314085
vn -0.7110504 0.00042828533 0.70314085
vn -0.71105045 0.0004282854 0.70314085
vn -0.71105045 0.00042828533 0.70314085
vn 0.7303446 0.0025694077 0.683074
vn 0.73036283 0.002569421 0.6830545
vn 0.9395168 0.002563311 0.34249324
vn 0.9395168 0.0025633113 0.34249324
vn -0.6629691 0.004672492 -0.74863213
vn -0.66298795 0.0046725445 -0.7486155
vn -0.3265657 0.0035023543 -0.945168
vn -0.32656568 0.003502354 -0.945168
vn 0.0048652575 0.9999809 0.003822498
vn 0.004865257 0.9999809 0.0038224978
vn 0.004865168 0.9999809 0.0038274871
vn 0.004865176 0.9999809 0.003827069
vn 0.0048650852 0.9999808 0.003832058
vn 0.0048650857 0.9999808 0.0038320585
vn -0.93394417 0.004896048 -0.35738546
vn -0.93394417 0.004896048 -0.35738546
vn -0.93394417 0.0048960485 -0.35738546
vn -0.93394417 0.004896048 -0.35738546
vn 0.31001076 0.0018876792 0.95073116
vn 0.3100107 0.0018876792 0.95073116
vn 0.3100107 0.0018876792 0.95073116
vn 0.3100107 0.0018876792 0.95073116
vn -0.9999201 0.004292153 -0.011885751
vn -0.91386735 0.0028835204 -0.40600267
vn -0.91386735 0.00288352 -0.4060026
vn -0.99991906 0.0042918995 -0.011980251
vn 0.027875122 -0.9996113 0.0004117993
vn 0.017749265 -0.9998424 0
vn 0.027991915 -0.9996081 0.00040326797
vn 0.017749263 -0.9998424 0
vn 0.027991917 -0.9996081 -0.00040324495
vn 0.027875127 -0.9996113 -0.0004117747
vn 0.9997187 0.0022099859 -0.023611555
vn 0.8848273 0.0016828051 -0.4659161
vn 0.8848273 0.0016828049 -0.4659161
vn 0.99971825 0.002209972 -0.023632323
vn -0.0010640038 0.9999976 -0.0019384125
vn -0.0010640059 0.9999995 1.4784489E-06
vn -0.0010640038 0.9999976 -0.0019384125
vn -0.0010640058 0.9999995 1.4785987E-06
vn -0.0010640038 0.9999976 0.0019413698
vn -0.0010640036 0.9999976 0.0019413697
vn 0.99971825 0.0022099807 0.023632323
vn 0.8848273 0.0016828049 0.4659161
vn 0.8848273 0.0016828052 0.4659161
vn 0.9997187 0.0022099945 0.023611555
vn -0.99991906 0.0042919023 0.0119802505
vn -0.91386735 0.00288352 0.4060026
vn -0.91386735 0.0028835204 0.40600267
vn -0.9999201 0.004292156 0.011885748
vn 0.027875122 -0.9996113 0.0004117993
vn 0.027991915 -0.9996081 0.00040326797
vn 0.028835647 -0.99958414 -0.00033263245
vn 0.028771713 -0.99958605 -0.00017781393
vn 0.028771713 -0.99958605 -0.00017781393
vn 0.028835647 -0.99958414 -0.00033263245
vn 0.029869042 -0.9994894 -0.011347481
vn 0.029861929 -0.9994894 -0.011365497
vn 0.029861929 -0.9994894 -0.011365497
vn 0.029869042 -0.9994894 -0.011347481
vn 0.02066751 -0.9995858 -0.020025155
vn 0.02035073 -0.999589 -0.020191368
vn 0.02035073 -0.999589 -0.020191368
vn 0.02066751 -0.9995858 -0.020025155
vn 0.017836858 -0.9996526 -0.019404419
vn 0.017703943 -0.99965775 -0.019259779
vn 0.017703943 -0.99965775 -0.019259779
vn 0.017836858 -0.9996526 -0.019404419
vn 0.010106296 -0.99988496 -0.0113109425
vn 0.010103995 -0.99988496 -0.011313279
vn 0.010103995 -0.99988496 -0.011313279
vn 0.010106296 -0.99988496 -0.0113109425
vn 0.009952195 -0.9998847 -0.011467593
vn 0.009952195 -0.9998847 -0.011467595
vn 0.028771723 -0.99958605 0.0001778282
vn 0.028835649 -0.99958414 0.0003326464
vn 0.027991917 -0.9996081 -0.00040324495
vn 0.027875127 -0.9996113 -0.0004117747
vn 0.029861933 -0.9994894 0.011365505
vn 0.029869055 -0.9994894 0.011347491
vn 0.028835649 -0.99958414 0.0003326464
vn 0.028771723 -0.99958605 0.0001778282
vn 0.020350724 -0.999589 0.020191384
vn 0.020667506 -0.9995858 0.020025171
vn 0.029869055 -0.9994894 0.011347491
vn 0.029861933 -0.9994894 0.011365505
vn 0.017703928 -0.99965775 0.019259779
vn 0.017836846 -0.9996526 0.019404419
vn 0.020667506 -0.9995858 0.020025171
vn 0.020350724 -0.999589 0.020191384
vn 0.010103981 -0.99988496 0.0113132205
vn 0.010106282 -0.99988496 0.011310881
vn 0.017836846 -0.9996526 0.019404419
vn 0.017703928 -0.99965775 0.019259779
vn 0.0099522 -0.9998847 0.0114676
vn 0.0099522 -0.9998847 0.011467598
vn 0.010106282 -0.99988496 0.011310881
vn 0.010103981 -0.99988496 0.0113132205
g ENV_sideWall_Col_MO_0
f 3/3/3 2/2/2 1/1/1
f 2/2/2 4/4/4 1/1/1
f 1/1/1 4/4/4 5/5/5
f 4/4/4 6/6/6 5/5/5
f 9/9/9 8/8/8 7/7/7
f 8/8/8 10/10/10 7/7/7
f 7/7/7 10/10/10 11/11/11
f 10/10/10 12/12/12 11/11/11
f 15/15/15 14/14/14 13/13/13
f 14/14/14 16/16/16 13/13/13
f 14/14/14 17/17/17 16/16/16
f 17/17/17 18/18/18 16/16/16
f 21/21/21 20/20/20 19/19/19
f 20/20/20 22/22/22 19/19/19
f 23/23/23 22/22/22 20/20/20
f 24/24/24 23/23/23 20/20/20
f 27/27/27 26/26/26 25/25/25
f 26/26/26 28/28/28 25/25/25
f 26/26/26 29/29/29 28/28/28
f 29/29/29 30/30/30 28/28/28
f 33/33/33 32/32/32 31/31/31
f 32/32/32 34/34/34 31/31/31
f 31/31/31 34/34/34 35/35/35
f 36/36/36 31/31/31 35/35/35
f 39/39/39 38/38/38 37/37/37
f 40/40/40 39/39/39 37/37/37
f 43/43/43 42/42/42 41/41/41
f 44/44/44 43/43/43 41/41/41
f 47/47/47 46/46/46 45/45/45
f 48/48/48 47/47/47 45/45/45
f 51/51/51 50/50/50 49/49/49
f 50/50/50 52/52/52 49/49/49
f 50/50/50 53/53/53 52/52/52
f 53/53/53 54/54/54 52/52/52
f 57/57/57 56/56/56 55/55/55
f 58/58/58 57/57/57 55/55/55
f 61/61/61 60/60/60 59/59/59
f 62/62/62 61/61/61 59/59/59
f 65/65/65 64/64/64 63/63/63
f 66/66/66 65/65/65 63/63/63
f 66/66/66 63/63/63 67/67/67
f 68/68/68 66/66/66 67/67/67
f 71/71/71 70/70/70 69/69/69
f 72/72/72 71/71/71 69/69/69
f 72/72/72 69/69/69 73/73/73
f 74/74/74 72/72/72 73/73/73
f 77/77/77 76/76/76 75/75/75
f 78/78/78 77/77/77 75/75/75
f 79/79/79 77/77/77 78/78/78
f 80/80/80 79/79/79 78/78/78
f 83/83/83 82/82/82 81/81/81
f 84/84/84 83/83/83 81/81/81
f 84/84/84 85/85/85 83/83/83
f 85/85/85 86/86/86 83/83/83
f 89/89/89 88/88/88 87/87/87
f 90/90/90 89/89/89 87/87/87
f 91/91/91 89/89/89 90/90/90
f 92/92/92 91/91/91 90/90/90
f 95/95/95 94/94/94 93/93/93
f 96/96/96 95/95/95 93/93/93
f 96/96/96 93/93/93 97/97/97
f 93/93/93 98/98/98 97/97/97
f 101/101/101 100/100/100 99/99/99
f 102/102/102 101/101/101 99/99/99
f 105/105/105 104/104/104 103/103/103
f 106/106/106 105/105/105 103/103/103
f 109/109/109 108/108/108 107/107/107
f 110/110/110 109/109/109 107/107/107
f 113/113/113 112/112/112 111/111/111
f 114/114/114 113/113/113 111/111/111
f 115/115/115 113/113/113 114/114/114
f 116/116/116 115/115/115 114/114/114
f 119/119/119 118/118/118 117/117/117
f 120/120/120 119/119/119 117/117/117
f 123/123/123 122/122/122 121/121/121
f 124/124/124 123/123/123 121/121/121
f 127/127/127 126/126/126 125/125/125
f 128/128/128 127/127/127 125/125/125
f 131/131/131 130/130/130 129/129/129
f 130/130/130 132/132/132 129/129/129
f 132/132/132 130/130/130 133/133/133
f 134/134/134 132/132/132 133/133/133
f 137/137/137 136/136/136 135/135/135
f 138/138/138 137/137/137 135/135/135
f 141/141/141 140/140/140 139/139/139
f 140/140/140 142/142/142 139/139/139
f 142/142/142 140/140/140 143/143/143
f 144/144/144 142/142/142 143/143/143
f 147/147/147 146/146/146 145/145/145
f 148/148/148 147/147/147 145/145/145
f 151/151/151 150/150/150 149/149/149
f 152/152/152 151/151/151 149/149/149
f 155/155/155 154/154/154 153/153/153
f 156/156/156 155/155/155 153/153/153
f 159/159/159 158/158/158 157/157/157
f 160/160/160 159/159/159 157/157/157
f 163/163/163 162/162/162 161/161/161
f 164/164/164 163/163/163 161/161/161
f 167/167/167 166/166/166 165/165/165
f 168/168/168 167/167/167 165/165/165
f 171/171/171 170/170/170 169/169/169
f 172/172/172 171/171/171 169/169/169
f 175/175/175 174/174/174 173/173/173
f 176/176/176 175/175/175 173/173/173
f 179/179/179 178/178/178 177/177/177
f 180/180/180 179/179/179 177/177/177
f 183/183/183 182/182/182 181/181/181
f 184/184/184 183/183/183 181/181/181
f 187/187/187 186/186/186 185/185/185
f 188/188/188 187/187/187 185/185/185
f 191/191/191 190/190/190 189/189/189
f 192/192/192 191/191/191 189/189/189
f 195/195/195 194/194/194 193/193/193
f 196/196/196 195/195/195 193/193/193
f 199/199/199 198/198/198 197/197/197
f 200/200/200 199/199/199 197/197/197
