g ENV_S01_Vanilla_Sphere_03_COL
v 0.8944262 0 1.7888544
v -0 0 2
v -0 0.8944272 1.7888544
v -0 -1.7347235E-18 0
v 0.81649655 0.81649655 1.6329931
v 1.3333325 0.6666666 1.3333333
v 0.66666746 1.3333333 1.3333333
v 1.4142138 0 1.4142135
v -0 1.4142135 1.4142135
v 0.81649655 1.6329931 0.81649655
v 1.1546997 1.1547006 1.1547006
v 1.3333325 1.3333333 0.6666666
v 1.6329931 0.81649655 0.81649655
v 1.788855 0 0.8944272
v -0 1.7888544 0.8944272
v -0 2 0
v 2 0 0
v -0 1.7888544 -0.8944272
v 1.788855 0.8944272 0
v 1.4142138 1.4142135 0
v 0.8944262 1.7888544 0
v 0.81649655 1.6329931 -0.81649655
v 1.3333325 1.3333333 -0.6666666
v 1.6329931 0.81649655 -0.81649655
v 1.788855 0 -0.8944272
v 1.1546997 1.1547006 -1.1547006
v -0 1.4142135 -1.4142135
v 1.3333325 0.6666666 -1.3333333
v 0.66666746 1.3333333 -1.3333333
v -0 0.8944272 -1.7888544
v 0.81649655 0.81649655 -1.6329931
v 1.4142138 0 -1.4142135
v 0.8944262 0 -1.7888544
v -0 0 -2
vn 0.2603837 -0.6847265 0.68069816
vn -0.5450484 -0.5450478 0.6370597
vn -0.68472624 0.26038375 0.6806984
vn -0.70710677 -0.70710677 0
vn 0.33816758 0.3381674 0.8782286
vn 0.67590916 0.29375684 0.6759096
vn 0.29375678 0.67590934 0.67590934
vn 0.47891852 -0.73571306 0.47891888
vn -0.73571277 0.4789189 0.478919
vn 0.33816767 0.8782286 0.3381674
vn 0.57735074 0.57735 0.5773501
vn 0.67590916 0.6759096 0.29375687
vn 0.87822825 0.33816797 0.33816797
vn 0.6806984 -0.684726 0.26038405
vn -0.6847263 0.68069834 0.26038373
vn -0.6501016 0.7598472 0
vn 0.7598472 -0.65010166 0
vn -0.68472624 0.6806984 -0.26038375
vn 0.9339982 0.35727766 0
vn 0.7071065 0.70710707 0
vn 0.3572772 0.93399835 0
vn 0.33816764 0.8782286 -0.33816734
vn 0.6759092 0.6759096 -0.29375687
vn 0.87822825 0.33816794 -0.33816788
vn 0.6806984 -0.684726 -0.26038405
vn 0.57735074 0.57735 -0.5773501
vn -0.73571277 0.4789189 -0.478919
vn 0.67590916 0.29375687 -0.6759095
vn 0.29375675 0.67590934 -0.67590934
vn -0.68472624 0.26038375 -0.6806984
vn 0.33816758 0.3381674 -0.8782286
vn 0.47891858 -0.735713 -0.47891897
vn 0.26038373 -0.6847264 -0.6806982
vn -0.5450484 -0.5450478 -0.6370597
g ENV_S01_Vanilla_Sphere_03_COL_0
f 3/3/3 2/2/2 1/1/1
f 2/2/2 4/4/4 1/1/1
f 3/3/3 4/4/4 2/2/2
f 5/5/5 3/3/3 1/1/1
f 5/5/5 1/1/1 6/6/6
f 5/5/5 7/7/7 3/3/3
f 5/5/5 6/6/6 7/7/7
f 1/1/1 4/4/4 8/8/8
f 1/1/1 8/8/8 6/6/6
f 7/7/7 9/9/9 3/3/3
f 9/9/9 4/4/4 3/3/3
f 7/7/7 10/10/10 9/9/9
f 6/6/6 11/11/11 7/7/7
f 7/7/7 11/11/11 10/10/10
f 11/11/11 6/6/6 12/12/12
f 11/11/11 12/12/12 10/10/10
f 6/6/6 8/8/8 13/13/13
f 6/6/6 13/13/13 12/12/12
f 8/8/8 14/14/14 13/13/13
f 8/8/8 4/4/4 14/14/14
f 15/15/15 4/4/4 9/9/9
f 10/10/10 15/15/15 9/9/9
f 16/16/16 4/4/4 15/15/15
f 16/16/16 15/15/15 10/10/10
f 14/14/14 4/4/4 17/17/17
f 18/18/18 4/4/4 16/16/16
f 19/19/19 13/13/13 14/14/14
f 12/12/12 13/13/13 19/19/19
f 17/17/17 19/19/19 14/14/14
f 10/10/10 12/12/12 20/20/20
f 20/20/20 12/12/12 19/19/19
f 21/21/21 16/16/16 10/10/10
f 21/21/21 10/10/10 20/20/20
f 22/22/22 18/18/18 16/16/16
f 21/21/21 22/22/22 16/16/16
f 20/20/20 23/23/23 21/21/21
f 20/20/20 19/19/19 23/23/23
f 23/23/23 22/22/22 21/21/21
f 19/19/19 17/17/17 24/24/24
f 19/19/19 24/24/24 23/23/23
f 17/17/17 4/4/4 25/25/25
f 17/17/17 25/25/25 24/24/24
f 26/26/26 23/23/23 24/24/24
f 22/22/22 23/23/23 26/26/26
f 27/27/27 18/18/18 22/22/22
f 27/27/27 4/4/4 18/18/18
f 28/28/28 24/24/24 25/25/25
f 28/28/28 26/26/26 24/24/24
f 29/29/29 22/22/22 26/26/26
f 29/29/29 27/27/27 22/22/22
f 29/29/29 26/26/26 28/28/28
f 30/30/30 27/27/27 29/29/29
f 30/30/30 4/4/4 27/27/27
f 31/31/31 30/30/30 29/29/29
f 31/31/31 29/29/29 28/28/28
f 32/32/32 28/28/28 25/25/25
f 25/25/25 4/4/4 32/32/32
f 28/28/28 32/32/32 33/33/33
f 31/31/31 28/28/28 33/33/33
f 32/32/32 4/4/4 33/33/33
f 30/30/30 31/31/31 34/34/34
f 31/31/31 33/33/33 34/34/34
f 33/33/33 4/4/4 34/34/34
f 34/34/34 4/4/4 30/30/30
