g ENV_S09_Slippy_Slide_Floating_Hoop_Yellow_Stick_MO
v 0.030003756 7.10687 -0.36385277
v 0.030003756 7.959678 -0.36385277
v -0.21954948 7.10687 -0.2866994
v -0.21954948 7.959678 -0.2866994
v -0.3414387 7.1068707 -0.05593528
v -0.3414387 7.959678 -0.05593528
v -0.26425803 7.1068707 0.19326028
v -0.26425803 7.959678 0.19326028
v -0.033222888 7.1068707 0.3149119
v -0.033222888 7.959678 0.3149119
v 0.21633299 7.1068707 0.2377598
v 0.21633299 7.959678 0.2377598
v 0.3382212 7.1068707 0.006996851
v 0.3382212 7.959678 0.006996851
v 0.26104218 7.1068707 -0.24219991
v 0.26104218 7.959678 -0.24219991
v 0.030003756 7.10687 -0.36385277
v 0.030003756 7.959678 -0.36385277
v 0.030003756 7.959678 -0.36385277
v 0.26104218 7.959678 -0.24219991
v -0.0016084164 7.959678 -0.024469214
v -0.21954948 7.959678 -0.2866994
v 0.3382212 7.959678 0.006996851
v -0.3414387 7.959678 -0.05593528
v 0.21633299 7.959678 0.2377598
v -0.26425803 7.959678 0.19326028
v -0.033222888 7.959678 0.3149119
vt 0.5518434 0.17337683
vt 0.5209655 0.15457936
vt 0.55039424 0.18238243
vt 0.5170096 0.16210166
vt 0.5474429 0.19205534
vt 0.51324326 0.16934378
vt 0.5426404 0.20170769
vt 0.50907415 0.1760407
vt 0.5360841 0.21068247
vt 0.50411785 0.1823151
vt 0.528109 0.21836902
vt 0.49845362 0.18763803
vt 0.51928604 0.22436897
vt 0.4920516 0.19240767
vt 0.51028305 0.22821786
vt 0.48510724 0.19708246
vt 0.5021138 0.23071718
vt 0.47804743 0.2023874
vt 0.49234927 0.16256185
vt 0.48688388 0.16965729
vt 0.4980654 0.17259195
vt 0.501253 0.1614965
vt 0.48812777 0.17851122
vt 0.50823724 0.16711813
vt 0.4953245 0.18380453
vt 0.50907415 0.1760407
vt 0.50411785 0.1823151
vn 0.09219769 0 -0.9957408
vn 0.092198014 0 -0.9957408
vn -0.63820404 0 -0.7698673
vn -0.6382043 0 -0.769867
vn -0.99568945 0 -0.092749335
vn -0.9956896 0 -0.092749044
vn -0.76906013 0 0.6391764
vn -0.76906013 0 0.6391764
vn -0.09219816 0 0.99574065
vn -0.09219816 0 0.99574065
vn 0.6381984 0 0.76987195
vn 0.6381984 0 0.76987195
vn 0.99568945 0 0.092750385
vn 0.99568945 0 0.092750385
vn 0.7690605 0 -0.639176
vn 0.7690607 0 -0.6391758
vn 0.09219769 0 -0.9957408
vn 0.092198014 0 -0.9957408
vn -0 1 -2.3753996E-06
vn -0 1 -2.9664232E-06
vn -0 1 -1.3360062E-06
vn -0 1 0
vn -0 1 1.7796492E-06
vn -0 1 -2.3754008E-06
vn -0 1 0
vn -0 1 -2.3766509E-06
vn -0 1 -2.373518E-06
g ENV_S09_Slippy_Slide_Floating_Hoop_Yellow_Stick_MO_0
f 3/3/3 2/2/2 1/1/1
f 3/3/3 4/4/4 2/2/2
f 5/5/5 4/4/4 3/3/3
f 5/5/5 6/6/6 4/4/4
f 7/7/7 6/6/6 5/5/5
f 7/7/7 8/8/8 6/6/6
f 9/9/9 8/8/8 7/7/7
f 9/9/9 10/10/10 8/8/8
f 11/11/11 10/10/10 9/9/9
f 11/11/11 12/12/12 10/10/10
f 13/13/13 12/12/12 11/11/11
f 13/13/13 14/14/14 12/12/12
f 15/15/15 14/14/14 13/13/13
f 15/15/15 16/16/16 14/14/14
f 17/17/17 16/16/16 15/15/15
f 17/17/17 18/18/18 16/16/16
f 21/21/21 20/20/20 19/19/19
f 21/21/21 19/19/19 22/22/22
f 21/21/21 23/23/23 20/20/20
f 24/24/24 21/21/21 22/22/22
f 21/21/21 25/25/25 23/23/23
f 24/24/24 26/26/26 21/21/21
f 27/27/27 25/25/25 21/21/21
f 26/26/26 27/27/27 21/21/21
