g ENV_S10_Retro_Arch_01a_COL
v -11.637388 14.853746 0.029432181
v -11.952351 12.456627 0.12487314
v -11.956619 12.465183 1.3654611
v -13.236164 12.309538 0.09413423
v -11.627319 14.841306 1.4492203
v -12.765782 15.081326 -0.11859177
v -10.959642 17.087418 0.031046694
v -15.486423 15.688919 1.4522637
v -15.635365 12.401764 1.3090765
v -10.946565 17.087214 1.4494522
v -15.70898 12.482283 -1.3757207
v -15.486394 15.688817 -1.4523399
v -13.3050165 12.458271 -1.3682812
v -12.947126 15.1753435 -1.4630443
v -12.0257 17.53132 -0.118184775
v -14.587595 18.654043 -1.4519217
v -14.587507 18.65403 1.452076
v -9.862695 19.139086 0.031342715
v -12.197205 17.658459 -1.4657432
v -9.843094 19.152096 1.4498494
v -10.824263 19.781776 -0.11849282
v -13.12885 21.383213 -1.4518849
v -13.128762 21.38317 1.452068
v -8.38636 20.937084 0.032123547
v -10.978056 19.940681 -1.4666858
v -8.358181 20.96228 1.4506887
v -11.165694 23.775349 -1.4518566
v -9.206588 21.75468 -0.1187327
v -11.165621 23.775276 1.4520541
v -9.33698 21.941227 -1.4675037
v -6.5875463 22.412207 0.033367272
v -6.548713 22.448332 1.4519318
v -8.773578 25.738533 -1.4518337
v -7.2348022 23.374033 -0.11889173
v -8.773528 25.738432 1.4520338
v -7.337019 23.583193 -1.4681664
v -4.5355496 23.507778 0.03502754
v -4.4840503 23.553148 1.453524
v -6.044423 27.197313 -1.4518181
v -4.984727 24.57744 -0.118968256
v -6.044399 27.197197 1.4520074
v -5.0550327 24.803349 -1.4686502
v -2.3090765 24.181454 0.03728836
v -2.2431405 24.234653 1.4555651
v -3.0831053 28.09562 -1.4518081
v -2.5429304 25.318499 -0.118949175
v -3.0831091 28.095516 1.4519783
v -2.578767 25.554775 -1.4689393
v -0.003444227 24.409075 0.03911249
v -0.0034442288 24.465067 1.4570063
v -0.003443956 28.398943 -1.4518054
v -0.0034442234 25.568722 -0.1189214
v 2.3021884 24.181454 0.037288416
v -0.003444225 25.808516 -1.4690202
v -0.0034439578 28.398855 1.4519653
v 3.0762193 28.09562 -1.4518081
v 2.5360425 25.318499 -0.11894921
v 3.0762231 28.095516 1.4519783
v 2.571879 25.554775 -1.4689393
v 2.2362516 24.234653 1.4555659
v 6.0375376 27.197313 -1.4518181
v 4.5286613 23.507778 0.03502773
v 6.037513 27.197197 1.4520074
v 4.977839 24.57744 -0.11896833
v 4.477166 23.553148 1.4535241
v 5.0481477 24.803349 -1.4686502
v 6.580658 22.412207 0.033367462
v 8.766692 25.738533 -1.4518337
v 7.2279162 23.374033 -0.118891805
v 8.766641 25.738432 1.4520338
v 7.330131 23.583193 -1.4681664
v 6.5418277 22.448332 1.4519318
v 11.158815 23.775349 -1.4518566
v 8.379473 20.937084 0.03212368
v 11.158742 23.775276 1.4520541
v 9.199704 21.75468 -0.1187327
v 8.351295 20.96228 1.4506887
v 9.330095 21.941227 -1.4675037
v 9.855806 19.139086 0.03134283
v 13.121971 21.383213 -1.4518849
v 10.817375 19.781776 -0.118492745
v 13.121883 21.38317 1.452068
v 14.580714 18.654043 -1.4519217
v 10.971168 19.940681 -1.4666857
v 9.83621 19.152096 1.4498494
v 10.952757 17.087418 0.031046733
v 12.018818 17.53132 -0.1181847
v 14.580626 18.65403 1.452076
v 10.93968 17.087214 1.4494522
v 12.19032 17.658459 -1.4657432
v 11.630506 14.853746 0.029432373
v 15.479547 15.688919 1.452264
v 12.936441 15.17853 -1.462354
v 11.620437 14.841306 1.449221
v 12.754767 15.08334 -0.116813205
v 15.479898 15.689872 -1.4513495
v 11.945467 12.456627 0.12487369
v 13.166355 12.480448 -1.4161458
v 11.949742 12.465183 1.3654613
v 13.226039 12.309524 0.09797263
v 15.628182 12.401162 1.3084762
v 15.703144 12.484743 -1.3767383
v 11.895853 20.290264 1.0874448
v 9.217147 23.482616 1.0874445
v 6.0247874 20.803919 1.0874443
v 8.703491 17.611559 1.0874443
v 11.758516 20.302284 2.3591793
v 6.162123 20.791904 2.3591783
v 9.205128 23.345276 2.3591783
v 8.7155075 17.748892 2.3591783
v 12.099062 16.53217 -0.9062574
v 11.017509 18.851566 -0.9062574
v 8.851544 17.841562 -0.9062574
v 9.933095 15.522164 -0.90625787
v 12.09906 16.532177 0.19707812
v 8.851545 17.841562 0.19707805
v 11.017502 18.851566 0.19707812
v 9.933096 15.522164 0.19707794
v 13.782336 10.11245 -1.3103541
v 12.269216 10.113523 -1.3096904
v 12.22863 -0.15653291 -1.3103541
v 13.741753 -0.15760255 -1.3096904
v 13.782336 10.11245 1.3103547
v 12.22863 -0.15653291 1.3103547
v 12.269216 10.113523 1.309691
v 13.741753 -0.15760255 1.309691
v -15.01537 11.185605 -1.310022
v -15.01537 9.542341 -1.3100218
v -13.36636 9.542341 -1.3100218
v -13.36636 11.185605 -1.3100218
v -13.366361 9.542341 1.3100224
v -15.01537 11.185606 1.3100224
v -15.01537 9.542341 1.3100224
v -13.36636 11.185605 1.3100224
v 14.973393 8.213655 -1.3104337
v 13.64956 8.214981 -1.3096112
v 13.608813 -0.15640458 -1.3104337
v 14.93265 -0.1577299 -1.3096112
v 14.973393 8.213656 1.3104343
v 13.608813 -0.15640458 1.3104343
v 13.64956 8.214981 1.3096118
v 14.932649 -0.15772982 1.3096118
v -13.546973 12.695265 -1.310285
v -13.506529 -0.1574917 -1.3097591
v -11.789027 -0.15664448 -1.310285
v -11.829473 12.696115 -1.3097591
v -11.789028 -0.15664443 1.3102856
v -13.546973 12.695265 1.3102856
v -13.506531 -0.15749176 1.3097596
v -11.829473 12.696115 1.3097596
v -5.700159 23.790295 -0.9062903
v -4.690155 21.624336 -0.9062898
v -2.3707623 22.70588 -0.9062903
v -3.3807688 24.87184 -0.9062902
v -2.3707628 22.70588 0.1970454
v -5.700159 23.790295 0.19704498
v -4.690155 21.624338 0.19704527
v -3.3807688 24.87184 0.19704513
v 5.6932354 23.790304 -0.90627784
v 3.373842 24.871851 -0.90627784
v 2.3638377 22.70589 -0.90627784
v 4.683229 21.62435 -0.90627736
v 5.6932354 23.790304 0.19705789
v 2.3638377 22.705889 0.19705786
v 3.373842 24.871851 0.19705786
v 4.683229 21.624348 0.19705756
v -11.902734 20.290264 1.0874443
v -8.710375 17.611559 1.0874438
v -6.031672 20.80392 1.0874438
v -9.224031 23.482616 1.0874443
v -6.1690073 20.791906 2.3591783
v -11.765399 20.302284 2.3591793
v -8.722391 17.748892 2.3591793
v -9.212012 23.345276 2.3591783
v -12.106054 16.531935 -0.9062853
v -9.940085 15.521932 -0.90628487
v -8.858538 17.84133 -0.9062853
v -11.024506 18.851336 -0.9062852
v -8.858538 17.84133 0.19705059
v -12.106055 16.531935 0.19705085
v -9.940085 15.521932 0.19705093
v -11.024506 18.851336 0.19705059
v -15.01537 8.473148 -1.3100218
v -15.01537 2.082949 -1.3100218
v -13.36636 2.082949 -1.3100218
v -13.36636 8.473148 -1.3100218
v -13.366361 2.082949 1.3100224
v -15.01537 8.473148 1.3100224
v -15.01537 2.082949 1.3100224
v -13.36636 8.473148 1.3100224
v 12.154936 12.687574 -1.310022
v 12.154936 10.991878 -1.310022
v 13.71753 10.991879 -1.3100218
v 13.71753 12.687574 -1.310022
v 13.71753 10.991878 1.3100224
v 12.154936 12.687575 1.3100224
v 12.154936 10.991879 1.3100224
v 13.71753 12.687575 1.3100224
vn -0 0 1
vn 0.5794961 -0.61196184 -0.53822577
vn 0.24786937 -0.3031736 0.920134
vn 0.27385595 -0.9367765 -0.21783626
vn -0 0 1
vn 0.7544025 -0.18492857 -0.6298241
vn 0.7157162 -0.29596445 -0.63257843
vn -0 0 1
vn -0.63963014 -0.30426353 0.7059016
vn -0 0 1
vn -0 0 1
vn -0 0 1
vn -0 0 1
vn 0.38783342 -0.100699954 -0.9162122
vn 0.7122893 -0.2925104 -0.6380295
vn -0 0 1
vn -0 0 1
vn 0.6446323 -0.42990413 -0.63216436
vn -0 0 1
vn -0 0 1
vn 0.6392427 -0.42507756 -0.6408416
vn -0 0 1
vn -0 0 1
vn 0.5498612 -0.54812235 -0.6302495
vn -0 0 1
vn -0 0 1
vn -0 0 1
vn 0.542487 -0.5403698 -0.64320153
vn -0 0 1
vn -0 0 1
vn 0.43423712 -0.6467676 -0.62700063
vn 0.15304987 -0.2306364 0.96092796
vn -0 0 1
vn 0.4255897 -0.63471955 -0.64498407
vn -0.3690219 0.5519532 0.747777
vn -0 0 1
vn 0.3015035 -0.72221637 -0.6224944
vn 0.10462702 -0.25546303 0.9611409
vn -0 0 1
vn 0.2929323 -0.704767 -0.6461379
vn -0.25463313 0.61413413 0.74699485
vn -0 0 1
vn 0.1570984 -0.7692245 -0.6193656
vn 0.053069755 -0.2698684 0.9614336
vn -0 0 1
vn 0.14945641 -0.7483299 -0.64627016
vn -0.13082452 0.65654534 0.7428548
vn -0 0 1
vn -0 -0.78527164 -0.6191515
vn -0 -0.27306998 0.96199423
vn -0 0.79464847 -0.6070699
vn -0 -0.7633492 -0.6459862
vn -0.15709837 -0.76922464 -0.61936533
vn -0 -0.37212035 -0.92818445
vn -0 0.67362267 0.7390754
vn 0.15504642 0.779372 -0.60707486
vn -0.14945626 -0.74832934 -0.64627093
vn 0.13082446 0.6565453 0.7428548
vn -0.072430894 -0.36512464 -0.9281367
vn -0.053069707 -0.26986834 0.9614336
vn 0.30412886 0.734131 -0.60708916
vn -0.30150345 -0.72221684 -0.6224938
vn 0.2546332 0.61413413 0.7469948
vn -0.29293177 -0.704766 -0.64613926
vn -0.10462688 -0.25546288 0.9611409
vn -0.14223519 -0.3443841 -0.9279917
vn -0.434237 -0.64676774 -0.62700063
vn 0.44150993 0.66066545 -0.6071162
vn -0.4255893 -0.6347192 -0.6449848
vn 0.36902145 0.5519535 0.74777704
vn -0.20687598 -0.3106084 -0.92775255
vn -0.15304966 -0.23063608 0.9609281
vn 0.56190693 0.5618065 -0.6071524
vn -0.5498614 -0.5481228 -0.630249
vn 0.46932894 0.46913993 0.74808955
vn -0.54248697 -0.5403698 -0.64320153
vn -0.19583529 -0.19673927 0.96069884
vn -0.26396805 -0.26496604 -0.92742324
vn -0.64463216 -0.42990443 -0.6321641
vn 0.6606931 0.44135916 -0.60719573
vn -0.6392422 -0.42507735 -0.6408421
vn 0.55196196 0.36871138 0.7479237
vn 0.73398435 0.30369133 -0.6074854
vn -0.31135422 -0.20904125 -0.92701685
vn -0.23127753 -0.1549836 0.9604639
vn -0.7158763 -0.2961529 -0.63230896
vn -0.71258044 -0.2923215 -0.63779086
vn 0.6138339 0.25416037 0.7474024
vn -0.25813472 -0.10696561 0.96016914
vn -0.34693763 -0.14456034 -0.92668045
vn -0.72545844 -0.18228951 -0.6636871
vn 0.6572887 0.102563836 0.74662733
vn -0.3846973 -0.09153572 -0.91849285
vn -0.26324007 -0.07799788 0.9615721
vn -0.7672807 -0.17681974 -0.6164536
vn 0.7833531 0.13265507 -0.6072566
vn -0.5798719 -0.6112519 -0.53862756
vn -0.36026862 -0.5209977 -0.7738009
vn -0.2478332 -0.30255026 0.9203489
vn -0.2659969 -0.9419811 -0.20473725
vn 0.6383302 -0.31244525 0.7035003
vn 0.7385689 -0.36425793 -0.5673025
vn 0.38516104 -0.033698108 -0.9222339
vn 0.033697583 0.3851601 -0.92223436
vn -0.38516077 0.033697195 -0.92223406
vn -0.03369729 -0.38516146 -0.92223376
vn 0.41783008 -0.03655491 0.9077895
vn -0.41783026 0.03655576 0.90778935
vn 0.03655486 0.41782954 0.9077897
vn -0.036555395 -0.41783065 0.90778923
vn 0.50779456 -0.16539371 -0.8454523
vn 0.19970694 0.49530452 -0.8454528
vn -0.50779414 0.16539228 -0.8454528
vn -0.19970615 -0.49530593 -0.8454523
vn 0.5077957 -0.16539139 0.845452
vn -0.5077953 0.16539267 0.845452
vn 0.1997047 0.49530655 0.8454522
vn -0.19970612 -0.49530658 0.84545183
vn 0.8598181 0.123238966 -0.4955048
vn -0.8581711 0.1298721 -0.49666443
vn -0.85981846 -0.123239 -0.4955043
vn 0.85817087 -0.12987204 -0.49666497
vn 0.8598181 0.12323898 0.49550483
vn -0.85981846 -0.123239 0.49550423
vn -0.8581712 0.1298721 0.4966644
vn 0.85817087 -0.12987204 0.49666497
vn -0.6450767 0.64733285 -0.40600023
vn -0.64507663 -0.64733285 -0.4060003
vn 0.64507675 -0.64733285 -0.40600038
vn 0.6450768 0.6473329 -0.406
vn 0.6450766 -0.647333 0.40600026
vn -0.64507663 0.6473331 0.4060001
vn -0.6450768 -0.647333 0.4059999
vn 0.64507663 0.64733285 0.40600026
vn 0.88475955 0.13553964 -0.445903
vn -0.88277876 0.14396702 -0.44718584
vn -0.88475955 -0.1355397 -0.44590306
vn 0.8827789 -0.14396697 -0.4471856
vn 0.88475955 0.13553971 0.44590306
vn -0.88475966 -0.13553971 0.44590294
vn -0.8827787 0.14396702 0.44718587
vn 0.88277876 -0.14396703 0.44718584
vn -0.83181936 0.10851187 -0.54433614
vn -0.8304786 -0.1136156 -0.54534096
vn 0.8318198 -0.10851189 -0.5443355
vn 0.83047897 0.11361562 -0.5453404
vn 0.83181953 -0.10851192 0.5443357
vn -0.83181953 0.10851188 0.54433584
vn -0.8304788 -0.113615565 0.54534066
vn 0.8304788 0.113615595 0.54534066
vn -0.49530607 0.19970629 -0.84545213
vn -0.16539338 -0.5077946 -0.8454523
vn 0.49530637 -0.19970648 -0.84545195
vn 0.16539374 0.50779486 -0.84545213
vn 0.49530667 -0.19970661 0.8454517
vn -0.49530625 0.19970647 0.845452
vn -0.16539387 -0.50779474 0.8454522
vn 0.16539378 0.50779516 0.84545195
vn 0.49530667 0.19970684 -0.8454517
vn -0.16539381 0.5077959 -0.84545153
vn -0.49530667 -0.19970624 -0.8454518
vn 0.16539356 -0.5077946 -0.8454523
vn 0.49530637 0.19970672 0.8454518
vn -0.4953062 -0.19970712 0.8454518
vn -0.16539356 0.5077951 0.845452
vn 0.16539334 -0.50779504 0.845452
vn -0.3851611 -0.033698246 -0.9222339
vn 0.0336976 -0.3851618 -0.9222337
vn 0.38516083 0.03369719 -0.922234
vn -0.033697743 0.38515988 -0.9222345
vn 0.41783032 0.036555875 0.90778935
vn -0.4178299 -0.0365549 0.90778965
vn 0.036555562 -0.41783053 0.90778923
vn -0.03655508 0.41782972 0.90778965
vn -0.5077942 -0.16539387 -0.8454524
vn 0.19970624 -0.4953054 -0.84545255
vn 0.5077936 0.16539367 -0.8454529
vn -0.19970636 0.49530512 -0.8454526
vn 0.50779396 0.16539343 0.8454527
vn -0.5077941 -0.16539352 0.8454526
vn 0.1997061 -0.49530488 0.8454528
vn -0.19970627 0.4953056 0.8454524
vn -0.82683766 0.21336819 -0.5203975
vn -0.82683766 -0.21336819 -0.5203975
vn 0.8268378 -0.21336812 -0.5203974
vn 0.82683766 0.21336819 -0.52039737
vn 0.8268376 -0.21336819 0.5203975
vn -0.82683766 0.21336819 0.52039737
vn -0.82683766 -0.21336819 0.52039737
vn 0.82683766 0.21336819 0.52039737
vn -0.67345566 0.6205931 -0.40164885
vn -0.6734555 -0.62059337 -0.40164843
vn 0.6734557 -0.62059295 -0.40164888
vn 0.67345566 0.6205931 -0.40164885
vn 0.6734554 -0.62059337 0.40164867
vn -0.6734555 0.6205932 0.40164873
vn -0.6734556 -0.6205929 0.4016491
vn 0.6734555 0.6205932 0.40164873
g ENV_S10_Retro_Arch_01a_COL_0
f 3/3/3 2/2/2 1/1/1
f 2/2/2 4/4/4 1/1/1
f 4/4/4 2/2/2 3/3/3
f 5/5/5 3/3/3 1/1/1
f 4/4/4 6/6/6 1/1/1
f 5/5/5 1/1/1 7/7/7
f 7/7/7 1/1/1 6/6/6
f 3/3/3 5/5/5 8/8/8
f 9/9/9 4/4/4 3/3/3
f 9/9/9 3/3/3 8/8/8
f 10/10/10 5/5/5 7/7/7
f 5/5/5 10/10/10 8/8/8
f 4/4/4 9/9/9 11/11/11
f 11/11/11 9/9/9 12/12/12
f 9/9/9 8/8/8 12/12/12
f 13/13/13 4/4/4 11/11/11
f 4/4/4 13/13/13 6/6/6
f 13/13/13 11/11/11 12/12/12
f 13/13/13 14/14/14 6/6/6
f 14/14/14 13/13/13 12/12/12
f 15/15/15 7/7/7 6/6/6
f 15/15/15 6/6/6 14/14/14
f 12/12/12 8/8/8 16/16/16
f 12/12/12 16/16/16 14/14/14
f 10/10/10 17/17/17 8/8/8
f 8/8/8 17/17/17 16/16/16
f 10/10/10 7/7/7 18/18/18
f 18/18/18 7/7/7 15/15/15
f 19/19/19 15/15/15 14/14/14
f 16/16/16 19/19/19 14/14/14
f 10/10/10 20/20/20 17/17/17
f 20/20/20 10/10/10 18/18/18
f 21/21/21 18/18/18 15/15/15
f 21/21/21 15/15/15 19/19/19
f 16/16/16 22/22/22 19/19/19
f 16/16/16 17/17/17 22/22/22
f 20/20/20 23/23/23 17/17/17
f 17/17/17 23/23/23 22/22/22
f 20/20/20 18/18/18 24/24/24
f 24/24/24 18/18/18 21/21/21
f 22/22/22 25/25/25 19/19/19
f 25/25/25 21/21/21 19/19/19
f 20/20/20 26/26/26 23/23/23
f 26/26/26 20/20/20 24/24/24
f 22/22/22 23/23/23 27/27/27
f 22/22/22 27/27/27 25/25/25
f 28/28/28 21/21/21 25/25/25
f 28/28/28 24/24/24 21/21/21
f 26/26/26 29/29/29 23/23/23
f 23/23/23 29/29/29 27/27/27
f 27/27/27 30/30/30 25/25/25
f 30/30/30 28/28/28 25/25/25
f 26/26/26 24/24/24 31/31/31
f 31/31/31 24/24/24 28/28/28
f 26/26/26 32/32/32 29/29/29
f 32/32/32 26/26/26 31/31/31
f 27/27/27 29/29/29 33/33/33
f 27/27/27 33/33/33 30/30/30
f 34/34/34 28/28/28 30/30/30
f 34/34/34 31/31/31 28/28/28
f 32/32/32 35/35/35 29/29/29
f 29/29/29 35/35/35 33/33/33
f 33/33/33 36/36/36 30/30/30
f 36/36/36 34/34/34 30/30/30
f 32/32/32 31/31/31 37/37/37
f 37/37/37 31/31/31 34/34/34
f 32/32/32 38/38/38 35/35/35
f 38/38/38 32/32/32 37/37/37
f 33/33/33 35/35/35 39/39/39
f 33/33/33 39/39/39 36/36/36
f 40/40/40 34/34/34 36/36/36
f 40/40/40 37/37/37 34/34/34
f 38/38/38 41/41/41 35/35/35
f 35/35/35 41/41/41 39/39/39
f 39/39/39 42/42/42 36/36/36
f 42/42/42 40/40/40 36/36/36
f 38/38/38 37/37/37 43/43/43
f 43/43/43 37/37/37 40/40/40
f 38/38/38 44/44/44 41/41/41
f 44/44/44 38/38/38 43/43/43
f 39/39/39 41/41/41 45/45/45
f 39/39/39 45/45/45 42/42/42
f 46/46/46 40/40/40 42/42/42
f 46/46/46 43/43/43 40/40/40
f 44/44/44 47/47/47 41/41/41
f 41/41/41 47/47/47 45/45/45
f 45/45/45 48/48/48 42/42/42
f 48/48/48 46/46/46 42/42/42
f 44/44/44 43/43/43 49/49/49
f 49/49/49 43/43/43 46/46/46
f 44/44/44 50/50/50 47/47/47
f 50/50/50 44/44/44 49/49/49
f 45/45/45 47/47/47 51/51/51
f 45/45/45 51/51/51 48/48/48
f 52/52/52 46/46/46 48/48/48
f 52/52/52 49/49/49 46/46/46
f 50/50/50 49/49/49 53/53/53
f 53/53/53 49/49/49 52/52/52
f 54/54/54 52/52/52 48/48/48
f 51/51/51 54/54/54 48/48/48
f 47/47/47 55/55/55 51/51/51
f 50/50/50 55/55/55 47/47/47
f 51/51/51 55/55/55 56/56/56
f 51/51/51 56/56/56 54/54/54
f 57/57/57 52/52/52 54/54/54
f 57/57/57 53/53/53 52/52/52
f 55/55/55 50/50/50 58/58/58
f 55/55/55 58/58/58 56/56/56
f 56/56/56 59/59/59 54/54/54
f 59/59/59 57/57/57 54/54/54
f 60/60/60 50/50/50 53/53/53
f 50/50/50 60/60/60 58/58/58
f 56/56/56 58/58/58 61/61/61
f 56/56/56 61/61/61 59/59/59
f 62/62/62 53/53/53 57/57/57
f 60/60/60 53/53/53 62/62/62
f 58/58/58 60/60/60 63/63/63
f 58/58/58 63/63/63 61/61/61
f 64/64/64 57/57/57 59/59/59
f 64/64/64 62/62/62 57/57/57
f 65/65/65 60/60/60 62/62/62
f 60/60/60 65/65/65 63/63/63
f 61/61/61 66/66/66 59/59/59
f 66/66/66 64/64/64 59/59/59
f 67/67/67 62/62/62 64/64/64
f 65/65/65 62/62/62 67/67/67
f 61/61/61 63/63/63 68/68/68
f 61/61/61 68/68/68 66/66/66
f 69/69/69 64/64/64 66/66/66
f 69/69/69 67/67/67 64/64/64
f 63/63/63 65/65/65 70/70/70
f 63/63/63 70/70/70 68/68/68
f 68/68/68 71/71/71 66/66/66
f 71/71/71 69/69/69 66/66/66
f 72/72/72 65/65/65 67/67/67
f 65/65/65 72/72/72 70/70/70
f 68/68/68 70/70/70 73/73/73
f 68/68/68 73/73/73 71/71/71
f 74/74/74 67/67/67 69/69/69
f 72/72/72 67/67/67 74/74/74
f 70/70/70 72/72/72 75/75/75
f 70/70/70 75/75/75 73/73/73
f 76/76/76 69/69/69 71/71/71
f 76/76/76 74/74/74 69/69/69
f 77/77/77 72/72/72 74/74/74
f 72/72/72 77/77/77 75/75/75
f 73/73/73 78/78/78 71/71/71
f 78/78/78 76/76/76 71/71/71
f 79/79/79 74/74/74 76/76/76
f 77/77/77 74/74/74 79/79/79
f 73/73/73 75/75/75 80/80/80
f 73/73/73 80/80/80 78/78/78
f 81/81/81 76/76/76 78/78/78
f 81/81/81 79/79/79 76/76/76
f 75/75/75 77/77/77 82/82/82
f 75/75/75 82/82/82 80/80/80
f 80/80/80 82/82/82 83/83/83
f 80/80/80 84/84/84 78/78/78
f 84/84/84 81/81/81 78/78/78
f 80/80/80 83/83/83 84/84/84
f 85/85/85 77/77/77 79/79/79
f 77/77/77 85/85/85 82/82/82
f 86/86/86 79/79/79 81/81/81
f 85/85/85 79/79/79 86/86/86
f 87/87/87 81/81/81 84/84/84
f 87/87/87 86/86/86 81/81/81
f 82/82/82 85/85/85 88/88/88
f 82/82/82 88/88/88 83/83/83
f 89/89/89 85/85/85 86/86/86
f 85/85/85 89/89/89 88/88/88
f 83/83/83 90/90/90 84/84/84
f 90/90/90 87/87/87 84/84/84
f 89/89/89 86/86/86 91/91/91
f 91/91/91 86/86/86 87/87/87
f 88/88/88 89/89/89 92/92/92
f 88/88/88 92/92/92 83/83/83
f 90/90/90 83/83/83 93/93/93
f 87/87/87 90/90/90 93/93/93
f 94/94/94 89/89/89 91/91/91
f 89/89/89 94/94/94 92/92/92
f 95/95/95 91/91/91 87/87/87
f 95/95/95 87/87/87 93/93/93
f 83/83/83 96/96/96 93/93/93
f 92/92/92 96/96/96 83/83/83
f 94/94/94 91/91/91 97/97/97
f 91/91/91 95/95/95 97/97/97
f 93/93/93 98/98/98 95/95/95
f 98/98/98 93/93/93 96/96/96
f 94/94/94 99/99/99 92/92/92
f 99/99/99 94/94/94 97/97/97
f 95/95/95 100/100/100 97/97/97
f 97/97/97 100/100/100 99/99/99
f 98/98/98 100/100/100 95/95/95
f 99/99/99 101/101/101 92/92/92
f 100/100/100 101/101/101 99/99/99
f 92/92/92 101/101/101 96/96/96
f 100/100/100 98/98/98 101/101/101
f 102/102/102 98/98/98 96/96/96
f 101/101/101 102/102/102 96/96/96
f 98/98/98 102/102/102 101/101/101
f 105/105/105 104/104/104 103/103/103
f 106/106/106 105/105/105 103/103/103
f 103/103/103 104/104/104 107/107/107
f 103/103/103 107/107/107 106/106/106
f 108/108/108 105/105/105 106/106/106
f 104/104/104 105/105/105 108/108/108
f 104/104/104 109/109/109 107/107/107
f 109/109/109 104/104/104 108/108/108
f 110/110/110 108/108/108 106/106/106
f 107/107/107 110/110/110 106/106/106
f 109/109/109 108/108/108 110/110/110
f 107/107/107 109/109/109 110/110/110
f 113/113/113 112/112/112 111/111/111
f 114/114/114 113/113/113 111/111/111
f 111/111/111 112/112/112 115/115/115
f 111/111/111 115/115/115 114/114/114
f 116/116/116 113/113/113 114/114/114
f 112/112/112 113/113/113 116/116/116
f 112/112/112 117/117/117 115/115/115
f 117/117/117 112/112/112 116/116/116
f 118/118/118 116/116/116 114/114/114
f 115/115/115 118/118/118 114/114/114
f 117/117/117 116/116/116 118/118/118
f 115/115/115 117/117/117 118/118/118
f 121/121/121 120/120/120 119/119/119
f 122/122/122 121/121/121 119/119/119
f 119/119/119 120/120/120 123/123/123
f 119/119/119 123/123/123 122/122/122
f 124/124/124 121/121/121 122/122/122
f 120/120/120 121/121/121 124/124/124
f 120/120/120 125/125/125 123/123/123
f 125/125/125 120/120/120 124/124/124
f 126/126/126 124/124/124 122/122/122
f 123/123/123 126/126/126 122/122/122
f 125/125/125 124/124/124 126/126/126
f 123/123/123 125/125/125 126/126/126
f 129/129/129 128/128/128 127/127/127
f 130/130/130 129/129/129 127/127/127
f 129/129/129 131/131/131 128/128/128
f 129/129/129 130/130/130 131/131/131
f 130/130/130 127/127/127 132/132/132
f 132/132/132 127/127/127 128/128/128
f 131/131/131 133/133/133 128/128/128
f 133/133/133 132/132/132 128/128/128
f 134/134/134 130/130/130 132/132/132
f 130/130/130 134/134/134 131/131/131
f 134/134/134 132/132/132 133/133/133
f 131/131/131 134/134/134 133/133/133
f 137/137/137 136/136/136 135/135/135
f 138/138/138 137/137/137 135/135/135
f 135/135/135 136/136/136 139/139/139
f 135/135/135 139/139/139 138/138/138
f 140/140/140 137/137/137 138/138/138
f 136/136/136 137/137/137 140/140/140
f 136/136/136 141/141/141 139/139/139
f 141/141/141 136/136/136 140/140/140
f 142/142/142 140/140/140 138/138/138
f 139/139/139 142/142/142 138/138/138
f 141/141/141 140/140/140 142/142/142
f 139/139/139 141/141/141 142/142/142
f 145/145/145 144/144/144 143/143/143
f 146/146/146 145/145/145 143/143/143
f 145/145/145 147/147/147 144/144/144
f 145/145/145 146/146/146 147/147/147
f 146/146/146 143/143/143 148/148/148
f 148/148/148 143/143/143 144/144/144
f 147/147/147 149/149/149 144/144/144
f 149/149/149 148/148/148 144/144/144
f 150/150/150 146/146/146 148/148/148
f 146/146/146 150/150/150 147/147/147
f 150/150/150 148/148/148 149/149/149
f 147/147/147 150/150/150 149/149/149
f 153/153/153 152/152/152 151/151/151
f 154/154/154 153/153/153 151/151/151
f 153/153/153 155/155/155 152/152/152
f 153/153/153 154/154/154 155/155/155
f 154/154/154 151/151/151 156/156/156
f 156/156/156 151/151/151 152/152/152
f 155/155/155 157/157/157 152/152/152
f 157/157/157 156/156/156 152/152/152
f 158/158/158 154/154/154 156/156/156
f 154/154/154 158/158/158 155/155/155
f 158/158/158 156/156/156 157/157/157
f 155/155/155 158/158/158 157/157/157
f 161/161/161 160/160/160 159/159/159
f 162/162/162 161/161/161 159/159/159
f 159/159/159 160/160/160 163/163/163
f 159/159/159 163/163/163 162/162/162
f 164/164/164 161/161/161 162/162/162
f 160/160/160 161/161/161 164/164/164
f 160/160/160 165/165/165 163/163/163
f 165/165/165 160/160/160 164/164/164
f 166/166/166 164/164/164 162/162/162
f 163/163/163 166/166/166 162/162/162
f 165/165/165 164/164/164 166/166/166
f 163/163/163 165/165/165 166/166/166
f 169/169/169 168/168/168 167/167/167
f 170/170/170 169/169/169 167/167/167
f 169/169/169 171/171/171 168/168/168
f 169/169/169 170/170/170 171/171/171
f 170/170/170 167/167/167 172/172/172
f 172/172/172 167/167/167 168/168/168
f 171/171/171 173/173/173 168/168/168
f 173/173/173 172/172/172 168/168/168
f 174/174/174 170/170/170 172/172/172
f 170/170/170 174/174/174 171/171/171
f 174/174/174 172/172/172 173/173/173
f 171/171/171 174/174/174 173/173/173
f 177/177/177 176/176/176 175/175/175
f 178/178/178 177/177/177 175/175/175
f 177/177/177 179/179/179 176/176/176
f 177/177/177 178/178/178 179/179/179
f 178/178/178 175/175/175 180/180/180
f 180/180/180 175/175/175 176/176/176
f 179/179/179 181/181/181 176/176/176
f 181/181/181 180/180/180 176/176/176
f 182/182/182 178/178/178 180/180/180
f 178/178/178 182/182/182 179/179/179
f 182/182/182 180/180/180 181/181/181
f 179/179/179 182/182/182 181/181/181
f 185/185/185 184/184/184 183/183/183
f 186/186/186 185/185/185 183/183/183
f 185/185/185 187/187/187 184/184/184
f 185/185/185 186/186/186 187/187/187
f 186/186/186 183/183/183 188/188/188
f 188/188/188 183/183/183 184/184/184
f 187/187/187 189/189/189 184/184/184
f 189/189/189 188/188/188 184/184/184
f 190/190/190 186/186/186 188/188/188
f 186/186/186 190/190/190 187/187/187
f 190/190/190 188/188/188 189/189/189
f 187/187/187 190/190/190 189/189/189
f 193/193/193 192/192/192 191/191/191
f 194/194/194 193/193/193 191/191/191
f 193/193/193 195/195/195 192/192/192
f 193/193/193 194/194/194 195/195/195
f 194/194/194 191/191/191 196/196/196
f 196/196/196 191/191/191 192/192/192
f 195/195/195 197/197/197 192/192/192
f 197/197/197 196/196/196 192/192/192
f 198/198/198 194/194/194 196/196/196
f 194/194/194 198/198/198 195/195/195
f 198/198/198 196/196/196 197/197/197
f 195/195/195 198/198/198 197/197/197
