g ENV_S10_Retro_Circular_Platform_VeryLarge_01a_COL
v 7.472978 -0.50196695 -3.0953608
v 7.472978 0.50196743 -3.0953608
v 5.719611 -0.50196695 -5.719611
v 5.719611 0.50196743 -5.719611
v 3.0953608 -0.50196695 -7.472978
v 3.0953608 0.50196743 -7.472978
v 0.00012302399 -0.50196695 -8.088619
v 0.00012302399 0.50196743 -8.088619
v -3.0953608 -0.50196695 -7.472978
v -3.0953608 0.50196743 -7.472978
v -5.719611 -0.50196695 -5.719611
v -5.719611 0.50196743 -5.719611
v -7.4729786 -0.50196695 -3.0953608
v -7.4729786 0.50196743 -3.0953608
v -8.088619 -0.50196695 -0.00012302399
v -8.088619 0.50196743 -0.00012302399
v -7.4729786 -0.50196695 3.0953608
v -7.4729786 0.50196743 3.0953608
v -5.719611 -0.50196695 5.719611
v -5.719611 0.50196743 5.719611
v -3.0953608 -0.50196695 7.4729786
v -3.0953608 0.50196743 7.4729786
v -0.00012302399 -0.50196695 8.088619
v -0.00012302399 0.50196743 8.088619
v 3.0953608 -0.50196695 7.4729786
v 3.0953608 0.50196743 7.4729786
v 5.719611 -0.50196695 5.719611
v 5.719611 0.50196743 5.719611
v 7.472978 -0.50196695 3.0953608
v 7.472978 0.50196743 3.0953608
v 8.088619 -0.50196695 0.00012302399
v 8.088619 0.50196743 0.00012302399
v 7.472978 -0.50196695 -3.0953608
v 7.472978 0.50196743 -3.0953608
v 7.472978 0.50196743 3.0953608
v -0.00012302399 0.50196743 0.00012302399
v 8.088619 0.50196743 0.00012302399
v 5.719611 0.50196743 5.719611
v 7.472978 0.50196743 -3.0953608
v 3.0953608 0.50196743 7.4729786
v 5.719611 0.50196743 -5.719611
v -0.00012302399 0.50196743 8.088619
v 3.0953608 0.50196743 -7.472978
v -3.0953608 0.50196743 7.4729786
v 0.00012302399 0.50196743 -8.088619
v -5.719611 0.50196743 5.719611
v -3.0953608 0.50196743 -7.472978
v -7.4729786 0.50196743 3.0953608
v -5.719611 0.50196743 -5.719611
v -8.088619 0.50196743 -0.00012302399
v -7.4729786 0.50196743 -3.0953608
v 8.088619 -0.50196695 0.00012302399
v -0.00012302399 -0.50196695 0.00012302399
v 7.472978 -0.50196695 3.0953608
v 7.472978 -0.50196695 -3.0953608
v 5.719611 -0.50196695 5.719611
v 5.719611 -0.50196695 -5.719611
v 3.0953608 -0.50196695 7.4729786
v 3.0953608 -0.50196695 -7.472978
v -0.00012302399 -0.50196695 8.088619
v 0.00012302399 -0.50196695 -8.088619
v -3.0953608 -0.50196695 7.4729786
v -3.0953608 -0.50196695 -7.472978
v -5.719611 -0.50196695 5.719611
v -5.719611 -0.50196695 -5.719611
v -7.4729786 -0.50196695 3.0953608
v -7.4729786 -0.50196695 -3.0953608
v -8.088619 -0.50196695 -0.00012302399
vt 0.37536657 0.31280547
vt 0.37536657 0.68817204
vt 0.3910069 0.31280547
vt 0.3910069 0.68817204
vt 0.40664715 0.31280547
vt 0.40664715 0.68817204
vt 0.4222874 0.31280547
vt 0.4222874 0.68817204
vt 0.43792766 0.31280547
vt 0.43792766 0.68817204
vt 0.45356798 0.31280547
vt 0.45356798 0.68817204
vt 0.46920824 0.31280547
vt 0.46920824 0.68817204
vt 0.4848485 0.31280547
vt 0.4848485 0.68817204
vt 0.50048876 0.31280547
vt 0.50048876 0.68817204
vt 0.5151515 0.31280547
vt 0.5151515 0.68817204
vt 0.53079176 0.31280547
vt 0.53079176 0.68817204
vt 0.5464321 0.31280547
vt 0.5464321 0.68817204
vt 0.56207234 0.31280547
vt 0.56207234 0.68817204
vt 0.5777126 0.31280547
vt 0.5777126 0.68817204
vt 0.59335285 0.31280547
vt 0.59335285 0.68817204
vt 0.6089932 0.31280547
vt 0.6089932 0.68817204
vt 0.62463343 0.31280547
vt 0.62463343 0.68817204
vt 0.64418375 0.78396875
vt 0.50048876 0.83773214
vt 0.65591395 0.84359723
vt 0.6109482 0.73313785
vt 0.64418375 0.9032258
vt 0.5601173 0.6989247
vt 0.6109482 0.9540567
vt 0.50048876 0.6871945
vt 0.5601173 0.9882698
vt 0.4398827 0.6989247
vt 0.49951124 1
vt 0.3890518 0.73313785
vt 0.4398827 0.9882698
vt 0.35581625 0.78396875
vt 0.3890518 0.9540567
vt 0.34408605 0.84359723
vt 0.35581625 0.9032258
vt 0.65591395 0.15640275
vt 0.50048876 0.14956014
vt 0.64418375 0.2160313
vt 0.64418375 0.096774206
vt 0.6109482 0.2668622
vt 0.6109482 0.04594332
vt 0.5601173 0.30107528
vt 0.5601173 0.01173022
vt 0.49951124 0.31280547
vt 0.50048876 1.4901161E-08
vt 0.4398827 0.30107528
vt 0.4398827 0.01173022
vt 0.3890518 0.2668622
vt 0.3890518 0.04594332
vt 0.35581625 0.2160313
vt 0.35581625 0.096774206
vt 0.34408605 0.15640275
vn 0.9215616 0.003921509 -0.38821238
vn 0.9215616 0.003921509 -0.38821238
vn 0.7097985 0.003921509 -0.70439386
vn 0.7097985 0.003921509 -0.70439386
vn 0.38038927 0.003921509 -0.92481816
vn 0.38038927 0.003921509 -0.92481816
vn 0.0039215684 0.003921509 -0.9999846
vn 0.0039215684 0.003921509 -0.9999846
vn -0.3803892 0.003921509 -0.9248182
vn -0.3803892 0.003921509 -0.9248182
vn -0.70979846 0.003921509 -0.7043939
vn -0.70979846 0.003921509 -0.7043939
vn -0.9215615 0.003921509 -0.38821262
vn -0.9215615 0.003921509 -0.38821262
vn -0.99999225 0.003921509 -0.00034492963
vn -0.99999225 0.003921509 -0.00034492963
vn -0.9215615 0.003921509 0.38821262
vn -0.9215615 0.003921509 0.38821262
vn -0.70979846 0.003921509 0.7043939
vn -0.70979846 0.003921509 0.7043939
vn -0.3803892 0.003921509 0.9248182
vn -0.3803892 0.003921509 0.9248182
vn -0.003921509 0.003921509 0.9999846
vn -0.003921509 0.003921509 0.9999846
vn 0.38038927 0.003921509 0.92481816
vn 0.38038927 0.003921509 0.92481816
vn 0.7097985 0.003921509 0.70439386
vn 0.7097985 0.003921509 0.70439386
vn 0.9215616 0.003921509 0.38821238
vn 0.9215616 0.003921509 0.38821238
vn 0.9999924 0.003921509 -0
vn 0.9999924 0.003921509 -0
vn 0.9215616 0.003921509 -0.38821238
vn 0.9215616 0.003921509 -0.38821238
vn -0.003921509 0.99999225 -0.00034526698
vn -0.003921509 0.99999225 -0.00034526698
vn -0.003921509 0.99999225 -0.00034526698
vn -0.003921509 0.99999225 -0.00034526698
vn -0.003921509 0.99999225 -0.00034526698
vn -0.003921509 0.99999225 -0.00034526698
vn -0.003921509 0.99999225 -0.00034526698
vn -0.003921509 0.99999225 -0.00034526698
vn -0.003921509 0.99999225 -0.00034526698
vn -0.003921509 0.99999225 -0.00034526698
vn -0.003921509 0.99999225 -0.00034526698
vn -0.003921509 0.99999225 -0.00034526698
vn -0.003921509 0.99999225 -0.00034526698
vn -0.003921509 0.99999225 -0.00034526698
vn -0.003921509 0.99999225 -0.00034526698
vn -0.003921509 0.99999225 -0.00034526698
vn -0.003921509 0.99999225 -0.00034526698
vn -0.003921509 -0.9999924 -0
vn -0.003921509 -0.9999924 -0
vn -0.003921509 -0.9999924 -0
vn -0.003921509 -0.9999924 -0
vn -0.003921509 -0.9999924 -0
vn -0.003921509 -0.9999924 -0
vn -0.003921509 -0.9999924 -0
vn -0.003921509 -0.9999924 -0
vn -0.003921509 -0.9999924 -0
vn -0.003921509 -0.9999924 -0
vn -0.003921509 -0.9999924 -0
vn -0.003921509 -0.9999924 -0
vn -0.003921509 -0.9999924 -0
vn -0.003921509 -0.9999924 -0
vn -0.003921509 -0.9999924 -0
vn -0.003921509 -0.9999924 -0
vn -0.003921509 -0.9999924 -0
g ENV_S10_Retro_Circular_Platform_VeryLarge_01a_COL_0
f 3/3/3 2/2/2 1/1/1
f 3/3/3 4/4/4 2/2/2
f 5/5/5 4/4/4 3/3/3
f 5/5/5 6/6/6 4/4/4
f 7/7/7 6/6/6 5/5/5
f 7/7/7 8/8/8 6/6/6
f 9/9/9 8/8/8 7/7/7
f 9/9/9 10/10/10 8/8/8
f 11/11/11 10/10/10 9/9/9
f 11/11/11 12/12/12 10/10/10
f 13/13/13 12/12/12 11/11/11
f 13/13/13 14/14/14 12/12/12
f 15/15/15 14/14/14 13/13/13
f 15/15/15 16/16/16 14/14/14
f 17/17/17 16/16/16 15/15/15
f 17/17/17 18/18/18 16/16/16
f 19/19/19 18/18/18 17/17/17
f 19/19/19 20/20/20 18/18/18
f 21/21/21 20/20/20 19/19/19
f 21/21/21 22/22/22 20/20/20
f 23/23/23 22/22/22 21/21/21
f 23/23/23 24/24/24 22/22/22
f 25/25/25 24/24/24 23/23/23
f 25/25/25 26/26/26 24/24/24
f 27/27/27 26/26/26 25/25/25
f 27/27/27 28/28/28 26/26/26
f 29/29/29 28/28/28 27/27/27
f 29/29/29 30/30/30 28/28/28
f 31/31/31 30/30/30 29/29/29
f 31/31/31 32/32/32 30/30/30
f 33/33/33 32/32/32 31/31/31
f 33/33/33 34/34/34 32/32/32
f 37/37/37 36/36/36 35/35/35
f 35/35/35 36/36/36 38/38/38
f 39/39/39 36/36/36 37/37/37
f 38/38/38 36/36/36 40/40/40
f 41/41/41 36/36/36 39/39/39
f 40/40/40 36/36/36 42/42/42
f 43/43/43 36/36/36 41/41/41
f 42/42/42 36/36/36 44/44/44
f 45/45/45 36/36/36 43/43/43
f 44/44/44 36/36/36 46/46/46
f 47/47/47 36/36/36 45/45/45
f 46/46/46 36/36/36 48/48/48
f 49/49/49 36/36/36 47/47/47
f 48/48/48 36/36/36 50/50/50
f 51/51/51 36/36/36 49/49/49
f 50/50/50 36/36/36 51/51/51
f 54/54/54 53/53/53 52/52/52
f 52/52/52 53/53/53 55/55/55
f 56/56/56 53/53/53 54/54/54
f 55/55/55 53/53/53 57/57/57
f 58/58/58 53/53/53 56/56/56
f 57/57/57 53/53/53 59/59/59
f 60/60/60 53/53/53 58/58/58
f 59/59/59 53/53/53 61/61/61
f 62/62/62 53/53/53 60/60/60
f 61/61/61 53/53/53 63/63/63
f 64/64/64 53/53/53 62/62/62
f 63/63/63 53/53/53 65/65/65
f 66/66/66 53/53/53 64/64/64
f 65/65/65 53/53/53 67/67/67
f 68/68/68 53/53/53 66/66/66
f 67/67/67 53/53/53 68/68/68
