g ENV_SY02_StartingPlatform_Check_HP_MO
v 10.316087 0.34762383 1.5541782
v 10.366809 1.135086 1.5586166
v 10.366809 0.34762383 1.531353
v 10.316087 1.135086 1.5814419
v 0.9914427 0.345088 1.5719309
v 10.316087 1.201025 1.5586166
v 10.357298 1.1886616 1.5478382
v 0.84212875 1.1182842 1.5719309
v 0.937233 0.345088 1.5719309
v -0.8434334 1.1154318 1.5719309
v -0.8985939 0.34477043 1.5722485
v -0.9515352 0.34477043 1.5725651
v -10.316122 0.3422346 1.5814419
v 0.84212875 1.201025 1.5586166
v 10.366491 1.201025 1.5002861
v 10.366809 1.135086 1.5586166
v -10.316122 1.0989466 1.5814419
v -10.366846 0.3422346 1.5586166
v -10.366528 1.0989466 1.5586166
v -10.316122 1.201025 1.5586166
v -10.357334 1.1886616 1.5478382
v -0.8434334 1.201025 1.5586166
v -10.366528 1.201025 1.5002861
v -10.366528 1.0989466 1.5586166
v -10.316122 1.2282887 1.5002861
v -0.8434334 1.2282887 1.5002861
v 0.84212875 1.2282887 1.5002861
v -0.8434334 1.2282887 -1.5002499
v 10.316087 1.2282887 1.5002861
v -10.315805 1.2282887 -1.5002499
v 0.84212875 1.2282887 -1.5002499
v -10.387768 1.0989466 1.5002861
v -10.366528 1.201025 -1.5002499
v -10.315805 1.201025 -1.5585804
v -10.387768 0.3422346 1.5002861
v -10.366846 0.3422346 1.5586166
v -10.387451 0.34762383 -1.5002499
v -10.387451 1.135086 -1.5002499
v -10.366528 0.34762383 -1.5585804
v -10.366528 1.135086 -1.5585804
v -10.357334 1.1886616 -1.547802
v -10.366528 1.135086 -1.5585804
v -0.8434334 1.201025 -1.5585804
v -10.315805 1.135086 -1.5814047
v -10.316122 0.34762383 -1.5814047
v -10.366528 0.34762383 -1.5585804
v -0.8434334 1.135086 -1.5814047
v -0.97436047 0.34762383 -1.5804539
v 0.84212875 1.201025 -1.5585804
v 0.84212875 1.135086 -1.5814047
v 0.84117794 0.34762383 -1.5810881
v 10.316087 1.2282887 -1.5002499
v 10.316087 1.201025 -1.5585804
v 10.316087 1.135086 -1.5814047
v 10.316087 0.34762383 -1.5814047
v 10.366809 0.34762383 -1.5585804
v 10.366809 1.135086 -1.5585804
v 10.357298 1.1886616 -1.547802
v 10.366491 1.201025 -1.5002499
v 10.366809 1.135086 -1.5585804
v 10.387732 1.135086 -1.5002499
v 10.387732 1.135086 1.5002861
v 10.366809 0.34762383 1.531353
v 10.387732 0.34762383 1.47334
v 10.387732 0.34762383 -1.5002499
v 10.366809 0.34762383 -1.5585804
v 10.366809 -0.007431984 1.4635124
v 10.357615 -0.007431984 1.5110645
v 10.3655405 0.051216125 1.5199413
v 10.385512 0.051532745 1.4635124
v 10.366809 -0.007431984 -1.5002499
v 10.387732 0.34762383 1.47334
v 10.366809 0.34762383 1.531353
v 10.387732 0.34762383 -1.5002499
v 10.385512 0.051532745 -1.5002499
v 10.3655405 0.051216125 -1.5569954
v 10.357615 -0.007431984 -1.547802
v 10.366809 0.34762383 -1.5585804
v 10.3655405 0.051216125 1.5199413
v 10.357615 -0.007431984 1.5110645
v 10.316087 -0.007431984 1.5215263
v 10.316087 0.051532745 1.5418148
v 10.366809 0.34762383 1.531353
v 10.316087 0.34762383 1.5541782
v 0.9914427 0.345088 1.5719309
v 1.0481882 0.051216125 1.5719309
v 1.0840101 -0.007431984 1.5716143
v 0.97369003 0.051216125 1.5719309
v 0.937233 0.345088 1.5719309
v -0.91951656 0.051216125 1.5725651
v -0.92458916 -0.017892838 1.5725651
v -0.8985939 0.34477043 1.5722485
v -0.9927473 0.051216125 1.5728827
v -0.9515352 0.34477043 1.5725651
v -10.316122 0.3422346 1.5814419
v 0.98161507 -0.013137817 1.5719309
v 1.0313864 -0.0128211975 1.5719309
v 1.0168037 -0.013137817 1.5576658
v 1.0313864 -0.007431984 1.5237455
v 0.6690397 -0.5723505 1.5716143
v 0.70264244 -0.5748863 1.5573483
v -10.316122 0.051532745 1.5789051
v -10.365578 0.051216125 1.5570316
v -10.366846 0.3422346 1.5586166
v -10.316122 -0.007431984 1.5586166
v -10.357653 -0.007431984 1.5478382
v -1.0276184 -0.007431984 1.5725651
v -0.9784813 -0.014088631 1.5725651
v -0.9746771 -0.007431984 1.5243788
v -0.96009445 -0.017892838 1.5583
v -0.6766844 -0.57805634 1.521843
v -0.9746771 -0.007431984 1.3845758
v -0.6763668 -0.5786905 1.3829908
v -0.66273594 -0.57520294 1.556715
v -0.6557617 -0.6081724 1.521843
v -0.6557617 -0.6081724 1.3829908
v -0.6291323 -0.5723505 1.5709801
v 0.66269875 -0.6056366 1.5573483
v -0.62215805 -0.60532 1.556715
v -0.6503725 -0.6008816 1.550374
v -0.62120724 -0.61958504 1.521843
v -0.6218405 -0.61958504 1.3829908
v 0.66174793 -0.61958504 1.5227938
v 0.6623821 -0.61958504 1.3839417
v 0.6963024 -0.6078558 1.5227938
v 0.69662 -0.6078558 1.3839417
v 0.6909132 -0.6008816 1.5510082
v 0.71659184 -0.57742214 1.5227938
v 0.71659184 -0.57805634 1.3839417
v 1.0313864 -0.007431984 1.3839417
v -10.365578 0.051216125 1.5570316
v -10.357653 -0.007431984 1.5478382
v -10.366846 -0.007431984 1.5002861
v -10.38555 0.051532745 1.5002861
v -10.366846 0.3422346 1.5586166
v -10.387768 0.3422346 1.5002861
v -10.387451 0.34762383 -1.5002499
v -10.366528 -0.007431984 -1.5002499
v -10.385233 0.051532745 -1.5002499
v -10.366528 0.34762383 -1.5585804
v -10.365261 0.051216125 -1.5569954
v -10.357334 -0.007431984 -1.547802
v 10.3655405 0.051216125 -1.5569954
v 10.316087 -0.007431984 -1.5585804
v 10.357615 -0.007431984 -1.547802
v 10.316087 0.051532745 -1.5788689
v 10.366809 0.34762383 -1.5585804
v 10.316087 0.34762383 -1.5814047
v 0.84307957 -0.007431984 -1.5582628
v 0.84117794 0.34762383 -1.5810881
v 0.84086037 0.051216125 -1.5810881
v -1.0060616 -0.007431984 -1.5576286
v -0.97436047 0.34762383 -1.5804539
v -1.0238142 0.050898552 -1.5801373
v -10.316122 -0.007431984 -1.5585804
v -10.316122 0.34762383 -1.5814047
v -10.316122 0.051532745 -1.5788689
v -10.365261 0.051216125 -1.5569954
v -10.357334 -0.007431984 -1.547802
v -10.366528 0.34762383 -1.5585804
vt 1.4975371 0.5182538
vt 1.4968014 0.606544
vt 1.5026875 0.51898956
vt 1.491651 0.60580826
vt 0.5991864 0.51163197
vt 1.4909153 0.6124296
vt 1.4960656 0.6131654
vt 0.5807924 0.5991864
vt 0.5925646 0.51163197
vt 0.41966343 0.59845066
vt 0.4130416 0.5108962
vt 0.4071555 0.5108962
vt -0.49560976 0.51383924
vt 0.5807924 0.6072798
vt 1.4960656 0.6183157
vt 1.5019517 0.61169386
vt -0.4911952 0.59845066
vt -0.50149584 0.514575
vt -0.49708128 0.5991864
vt -0.49045944 0.6087508
vt -0.49560976 0.6094866
vt 0.41966343 0.606544
vt -0.49560976 0.6146369
vt -0.50517464 0.60801506
vt -0.49045944 0.6146369
vt 0.41966343 0.6131654
vt 0.5807924 0.6131654
vt 0.41892767 0.9030509
vt 1.4909153 0.6183157
vt -0.48825216 0.90010786
vt 0.5807924 0.90378666
vt -0.5059104 0.61390114
vt -0.49413824 0.9008436
vt -0.48898792 0.9067297
vt -0.59052134 0.61169386
vt -0.5897856 0.60580826
vt -0.5890498 0.9045224
vt -0.5007601 0.9008436
vt -0.5890498 0.9104085
vt -0.5000243 0.9067297
vt -0.49340248 0.90599394
vt -0.49413824 0.91188
vt 0.41892767 0.90967274
vt -0.48898792 0.91335154
vt -0.494874 1.0001702
vt -0.5000243 1.0001702
vt 0.41892767 0.9162946
vt 0.40274096 1.0060558
vt 0.5807924 0.90967274
vt 0.5807924 0.9162946
vt 0.5815282 1.0060558
vt 1.488708 0.90378666
vt 1.488708 0.90967274
vt 1.4894438 0.91703033
vt 1.4945941 1.0045843
vt 1.4997444 1.0038486
vt 1.4945941 0.9155588
vt 1.4938583 0.90967274
vt 1.4938583 0.90378666
vt 1.4997444 0.9104085
vt 1.5004802 0.9045224
vt 1.5026875 0.61757994
vt 1.5909772 0.61169386
vt 1.591713 0.61757994
vt 1.5880342 0.9082012
vt 1.5872984 0.9140873
vt 0.7588439 0.20629597
vt 0.75810814 0.20629597
vt 0.75810814 0.20703173
vt 0.75810814 0.20703173
vt 0.7750306 0.20703173
vt 0.75810814 0.20776749
vt 0.75810814 0.20776749
vt 0.77429485 0.20850325
vt 0.7750306 0.20776749
vt 0.7750306 0.20776749
vt 0.7750306 0.20703173
vt 0.7750306 0.20850325
vt 0.75810814 0.20703173
vt 0.75810814 0.20629597
vt 0.75810814 0.20629597
vt 0.75810814 0.20703173
vt 0.75810814 0.20776749
vt 0.7573724 0.20776749
vt 0.70807743 0.19599533
vt 0.70807743 0.19525957
vt 0.7088132 0.19525957
vt 0.70807743 0.19525957
vt 0.70807743 0.19599533
vt 0.6977768 0.19378805
vt 0.6977768 0.19378805
vt 0.6977768 0.19452381
vt 0.69704103 0.19378805
vt 0.69704103 0.19452381
vt 0.6462741 0.19452381
vt 0.70807743 0.19452381
vt 0.70807743 0.19525957
vt 0.70807743 0.19452381
vt 0.7088132 0.19452381
vt 0.7066059 0.19158077
vt 0.7066059 0.19158077
vt 0.6462741 0.19378805
vt 0.64553833 0.19378805
vt 0.64553833 0.19452381
vt 0.6462741 0.19305229
vt 0.64553833 0.19305229
vt 0.69704103 0.19378805
vt 0.69704103 0.19378805
vt 0.69704103 0.19305229
vt 0.69704103 0.19378805
vt 0.6992483 0.19084501
vt 0.6963053 0.19305229
vt 0.6992483 0.19010925
vt 0.6992483 0.19084501
vt 0.6992483 0.19010925
vt 0.6992483 0.19010925
vt 0.6999841 0.19084501
vt 0.7066059 0.19158077
vt 0.6999841 0.19084501
vt 0.6992483 0.19084501
vt 0.6999841 0.19010925
vt 0.6999841 0.1893735
vt 0.7066059 0.19158077
vt 0.7066059 0.19084501
vt 0.7066059 0.19158077
vt 0.7073417 0.19084501
vt 0.7066059 0.19158077
vt 0.7066059 0.19158077
vt 0.7073417 0.19084501
vt 0.7088132 0.19452381
vt 0.9045224 0.19010925
vt 0.9045224 0.1893735
vt 0.90378666 0.1893735
vt 0.90378666 0.19010925
vt 0.9045224 0.19084501
vt 0.9045224 0.19084501
vt 0.8883362 0.19525957
vt 0.8883362 0.19378805
vt 0.8883362 0.19452381
vt 0.8883362 0.19525957
vt 0.8876004 0.19452381
vt 0.8876004 0.19378805
vt 0.7750306 0.20776749
vt 0.7750306 0.20703173
vt 0.7750306 0.20703173
vt 0.7750306 0.20776749
vt 0.7750306 0.20850325
vt 0.7750306 0.20850325
vt 0.82653284 0.20114565
vt 0.8272686 0.20261717
vt 0.82653284 0.20188141
vt 0.8368335 0.20040989
vt 0.8368335 0.20188141
vt 0.8368335 0.20040989
vt 0.8876004 0.19378805
vt 0.8876004 0.19525957
vt 0.8876004 0.19452381
vt 0.8876004 0.19452381
vt 0.8876004 0.19378805
vt 0.8883362 0.19525957
vn 0.0039210916 -0.019607008 0.9998001
vn 0.69410026 0.011764765 0.71978223
vn 0.74900085 -0.027449906 0.6620002
vn 0.019607008 0.019607782 0.9996155
vn 0.0039210916 -0.019607008 0.9998001
vn 0.0117640495 0.65488625 0.7556359
vn 0.58429897 0.52939916 0.6150864
vn 0.0039210916 0.011764765 0.9999231
vn 0.0039210916 0.0039218664 0.9999846
vn 0.0039210916 0.019607782 0.9998001
vn 0.0039210916 0.0039218664 0.9999846
vn 0.0039210916 -0.0039210916 0.9999846
vn -0.0039218664 -0.0039210916 0.9999846
vn -0.0039218664 0.5921427 0.80582356
vn 0.7411579 0.67057216 0.031904984
vn 0.69410026 0.011764765 0.71978223
vn -0.019607782 0.019607782 0.9996155
vn -0.7490016 -0.0039210916 0.6625565
vn -0.694101 0.011764765 0.7197815
vn -0.019607782 0.65488625 0.7554731
vn -0.5842998 0.52939916 0.6150856
vn 0.0039210916 0.53724205 0.84341896
vn -0.7411587 0.67057216 0.0318863
vn -0.694101 0.011764765 0.7197815
vn -0.027441008 0.9996234 -0
vn 0.0039210916 0.9999758 0.005746388
vn 0.0039210916 0.9999758 0.005746388
vn 0.0039210916 0.9999758 -0.005746388
vn 0.027440233 0.9996234 -0
vn -0.027441008 0.9996234 -0
vn 0.0039210916 0.9999758 -0.005746388
vn -0.99980783 0.01960449 -0
vn -0.7411587 0.67057216 -0.0318863
vn -0.011764765 0.64704335 -0.7623625
vn -0.9999758 -0.0039210916 0.0057466524
vn -0.7490016 -0.0039210916 0.6625565
vn -0.9999758 -0.0039210916 -0.0057466524
vn -0.99980783 0.01960449 -0
vn -0.7490016 -0.0039210916 -0.6625565
vn -0.694101 0.011764765 -0.7197815
vn -0.5842998 0.52939916 -0.6150856
vn -0.694101 0.011764765 -0.7197815
vn 0.0039210916 0.65488625 -0.7557173
vn -0.019607782 0.019607782 -0.9996155
vn -0.0039218664 -0.0039210916 -0.9999846
vn -0.7490016 -0.0039210916 -0.6625565
vn 0.0039210916 0.02745068 -0.9996155
vn -0.0039218664 -0.0039210916 -0.9999846
vn 0.0039210916 0.65488625 -0.7557173
vn -0.0039218664 0.02745068 -0.9996155
vn -0.0039218664 -0.0039210916 -0.9999846
vn 0.027440233 0.9996234 -0
vn 0.0117640495 0.65488625 -0.7556359
vn 0.019607008 0.019607782 -0.9996155
vn 0.0039210916 -0.0039210916 -0.9999846
vn 0.74900085 -0.0039210916 -0.6625574
vn 0.69410026 0.011764765 -0.71978223
vn 0.58429897 0.52939916 -0.6150864
vn 0.7411579 0.67057216 -0.031904984
vn 0.69410026 0.011764765 -0.71978223
vn 0.99980783 0.019604502 -0
vn 0.99980783 0.019604502 -0
vn 0.74900085 -0.027449906 0.6620002
vn 0.9999751 -0.0039210916 0.005869798
vn 0.9999751 -0.0039210916 -0.005869798
vn 0.74900085 -0.0039210916 -0.6625574
vn 0.93713254 -0.34897378 -0
vn 0.65488553 -0.31763887 0.6857335
vn 0.69410026 -0.0117640495 0.71978223
vn 0.99980783 -0.019603727 -0
vn 0.93713254 -0.34897378 -0
vn 0.9999751 -0.0039210916 0.005869798
vn 0.74900085 -0.027449906 0.6620002
vn 0.9999751 -0.0039210916 -0.005869798
vn 0.99980783 -0.019603727 -0
vn 0.69410026 -0.0117640495 -0.71978223
vn 0.65488553 -0.31763887 -0.6857335
vn 0.74900085 -0.0039210916 -0.6625574
vn 0.69410026 -0.0117640495 0.71978223
vn 0.65488553 -0.31763887 0.6857335
vn 0.0117640495 -0.32548183 0.9454751
vn 0.019607008 -0.019607008 0.9996155
vn 0.74900085 -0.027449906 0.6620002
vn 0.0039210916 -0.019607008 0.9998001
vn 0.0039210916 -0.019607008 0.9998001
vn 0.0039210916 -0.035292864 0.9993693
vn 0.0039210916 -0.17646587 0.98429894
vn 0.0039210916 0.0039218664 0.9999846
vn 0.0039210916 0.0039218664 0.9999846
vn 0.0039210916 0.0039218664 0.9999846
vn -0.011764765 -0.0117640495 0.9998616
vn 0.0039210916 0.0039218664 0.9999846
vn 0.0039210916 -0.019607008 0.9998001
vn 0.0039210916 -0.0039210916 0.9999846
vn -0.0039218664 -0.0039210916 0.9999846
vn 0.0117640495 -0.0117640495 0.9998616
vn 0.066664636 -0.7176291 0.69322747
vn 0.6862573 -0.43528306 0.5827346
vn 0.86664504 -0.49018365 0.092985936
vn 0.0039210916 -0.019607008 0.9998001
vn 0.6235137 -0.34901065 0.69958717
vn -0.019607782 -0.019607008 0.9996155
vn -0.694101 -0.0117640495 0.7197815
vn -0.7490016 -0.0039210916 0.6625565
vn -0.011764765 -0.32548183 0.9454751
vn -0.65488625 -0.31763887 0.68573284
vn -0.0039218664 -0.17646587 0.98429894
vn -0.12156606 -0.70194316 0.70178163
vn -0.88072264 -0.47363248 -0
vn -0.701944 -0.41959715 0.575511
vn -0.8823317 -0.46665484 0.06102466
vn -0.8823317 -0.46665484 -0.06102466
vn -0.8823317 -0.46665484 0.06102466
vn -0.63135743 -0.34116775 0.69641393
vn -0.5999857 -0.79605854 0.07942267
vn -0.59812236 -0.80140483 -0
vn -0.0039218664 -0.019607008 0.9998001
vn 0.0039210916 -0.70194316 0.71222216
vn -0.0039218664 -0.70194316 0.71222216
vn -0.49802732 -0.6627284 0.55924934
vn -0.011764244 -0.99993086 -0
vn -0.011764244 -0.99993086 -0
vn 0.011763529 -0.99993086 -0
vn 0.011763529 -0.99993086 -0
vn 0.60782784 -0.7882156 0.09623694
vn 0.60686857 -0.7948022 -0
vn 0.50586957 -0.65488553 0.5614454
vn 0.874488 -0.48234075 0.051167704
vn 0.8723059 -0.48896053 -0
vn 0.874488 -0.48234075 0.051167704
vn -0.694101 -0.0117640495 0.7197815
vn -0.65488625 -0.31763887 0.68573284
vn -0.9371326 -0.34897354 -0
vn -0.99980783 -0.019603714 -0
vn -0.7490016 -0.0039210916 0.6625565
vn -0.9999758 -0.0039210916 0.0057466524
vn -0.9999758 -0.0039210916 -0.0057466524
vn -0.9371326 -0.34897354 -0
vn -0.99980783 -0.019603714 -0
vn -0.7490016 -0.0039210916 -0.6625565
vn -0.694101 -0.0117640495 -0.7197815
vn -0.65488625 -0.31763887 -0.68573284
vn 0.69410026 -0.0117640495 -0.71978223
vn 0.0117640495 -0.32548183 -0.9454751
vn 0.65488553 -0.31763887 -0.6857335
vn 0.019607008 -0.019607008 -0.9996155
vn 0.74900085 -0.0039210916 -0.6625574
vn 0.0039210916 -0.0039210916 -0.9999846
vn 0.0039210916 -0.34901065 -0.93711054
vn -0.0039218664 -0.0039210916 -0.9999846
vn 0.0039210916 -0.066664636 -0.99776775
vn -0.0039218664 -0.34901065 -0.93711054
vn -0.0039218664 -0.0039210916 -0.9999846
vn -0.0039218664 -0.066664636 -0.99776775
vn -0.011764765 -0.32548183 -0.9454751
vn -0.0039218664 -0.0039210916 -0.9999846
vn -0.019607782 -0.019607008 -0.9996155
vn -0.694101 -0.0117640495 -0.7197815
vn -0.65488625 -0.31763887 -0.68573284
vn -0.7490016 -0.0039210916 -0.6625565
g ENV_SY02_StartingPlatform_Check_HP_MO_0
f 3/3/3 2/2/2 1/1/1
f 2/2/2 4/4/4 1/1/1
f 1/1/1 4/4/4 5/5/5
f 4/4/4 2/2/2 6/6/6
f 2/2/2 7/7/7 6/6/6
f 4/4/4 8/8/8 5/5/5
f 9/9/9 5/5/5 8/8/8
f 9/9/9 8/8/8 10/10/10
f 11/11/11 9/9/9 10/10/10
f 11/11/11 10/10/10 12/12/12
f 12/12/12 10/10/10 13/13/13
f 14/14/14 8/8/8 4/4/4
f 6/6/6 14/14/14 4/4/4
f 6/6/6 7/7/7 15/15/15
f 15/15/15 7/7/7 16/16/16
f 10/10/10 17/17/17 13/13/13
f 13/13/13 17/17/17 18/18/18
f 17/17/17 19/19/19 18/18/18
f 17/17/17 20/20/20 19/19/19
f 20/20/20 17/17/17 10/10/10
f 20/20/20 21/21/21 19/19/19
f 22/22/22 10/10/10 8/8/8
f 14/14/14 22/22/22 8/8/8
f 22/22/22 20/20/20 10/10/10
f 23/23/23 21/21/21 20/20/20
f 24/24/24 21/21/21 23/23/23
f 25/25/25 20/20/20 22/22/22
f 25/25/25 23/23/23 20/20/20
f 26/26/26 22/22/22 14/14/14
f 26/26/26 25/25/25 22/22/22
f 27/27/27 26/26/26 14/14/14
f 27/27/27 14/14/14 6/6/6
f 26/26/26 28/28/28 25/25/25
f 26/26/26 27/27/27 28/28/28
f 29/29/29 27/27/27 6/6/6
f 29/29/29 6/6/6 15/15/15
f 25/25/25 30/30/30 23/23/23
f 28/28/28 30/30/30 25/25/25
f 27/27/27 31/31/31 28/28/28
f 27/27/27 29/29/29 31/31/31
f 32/32/32 24/24/24 23/23/23
f 30/30/30 33/33/33 23/23/23
f 23/23/23 33/33/33 32/32/32
f 34/34/34 30/30/30 28/28/28
f 33/33/33 30/30/30 34/34/34
f 24/24/24 32/32/32 35/35/35
f 36/36/36 24/24/24 35/35/35
f 35/35/35 32/32/32 37/37/37
f 32/32/32 38/38/38 37/37/37
f 33/33/33 38/38/38 32/32/32
f 37/37/37 38/38/38 39/39/39
f 38/38/38 40/40/40 39/39/39
f 40/40/40 38/38/38 33/33/33
f 41/41/41 40/40/40 33/33/33
f 41/41/41 33/33/33 34/34/34
f 41/41/41 34/34/34 42/42/42
f 43/43/43 34/34/34 28/28/28
f 43/43/43 28/28/28 31/31/31
f 34/34/34 44/44/44 42/42/42
f 44/44/44 34/34/34 43/43/43
f 42/42/42 44/44/44 45/45/45
f 46/46/46 42/42/42 45/45/45
f 45/45/45 44/44/44 47/47/47
f 47/47/47 44/44/44 43/43/43
f 48/48/48 45/45/45 47/47/47
f 49/49/49 43/43/43 31/31/31
f 47/47/47 43/43/43 49/49/49
f 48/48/48 47/47/47 50/50/50
f 50/50/50 47/47/47 49/49/49
f 51/51/51 48/48/48 50/50/50
f 49/49/49 31/31/31 52/52/52
f 29/29/29 52/52/52 31/31/31
f 50/50/50 49/49/49 53/53/53
f 53/53/53 49/49/49 52/52/52
f 51/51/51 50/50/50 54/54/54
f 54/54/54 50/50/50 53/53/53
f 55/55/55 51/51/51 54/54/54
f 55/55/55 54/54/54 56/56/56
f 54/54/54 57/57/57 56/56/56
f 57/57/57 54/54/54 53/53/53
f 58/58/58 57/57/57 53/53/53
f 59/59/59 52/52/52 29/29/29
f 53/53/53 52/52/52 59/59/59
f 58/58/58 53/53/53 59/59/59
f 15/15/15 59/59/59 29/29/29
f 58/58/58 59/59/59 60/60/60
f 61/61/61 59/59/59 15/15/15
f 59/59/59 61/61/61 60/60/60
f 62/62/62 61/61/61 15/15/15
f 62/62/62 15/15/15 16/16/16
f 62/62/62 16/16/16 63/63/63
f 64/64/64 62/62/62 63/63/63
f 64/64/64 65/65/65 62/62/62
f 65/65/65 61/61/61 62/62/62
f 60/60/60 61/61/61 65/65/65
f 66/66/66 60/60/60 65/65/65
f 69/69/69 68/68/68 67/67/67
f 70/70/70 69/69/69 67/67/67
f 67/67/67 71/71/71 70/70/70
f 70/70/70 72/72/72 69/69/69
f 72/72/72 73/73/73 69/69/69
f 72/72/72 70/70/70 74/74/74
f 71/71/71 75/75/75 70/70/70
f 70/70/70 75/75/75 74/74/74
f 76/76/76 75/75/75 71/71/71
f 74/74/74 75/75/75 76/76/76
f 77/77/77 76/76/76 71/71/71
f 78/78/78 74/74/74 76/76/76
f 81/81/81 80/80/80 79/79/79
f 82/82/82 81/81/81 79/79/79
f 79/79/79 83/83/83 82/82/82
f 83/83/83 84/84/84 82/82/82
f 84/84/84 85/85/85 82/82/82
f 81/81/81 82/82/82 86/86/86
f 85/85/85 86/86/86 82/82/82
f 87/87/87 81/81/81 86/86/86
f 88/88/88 86/86/86 85/85/85
f 89/89/89 88/88/88 85/85/85
f 90/90/90 88/88/88 89/89/89
f 90/90/90 91/91/91 88/88/88
f 92/92/92 90/90/90 89/89/89
f 90/90/90 92/92/92 93/93/93
f 91/91/91 90/90/90 93/93/93
f 92/92/92 94/94/94 93/93/93
f 94/94/94 95/95/95 93/93/93
f 88/88/88 96/96/96 86/86/86
f 91/91/91 96/96/96 88/88/88
f 97/97/97 87/87/87 86/86/86
f 97/97/97 86/86/86 96/96/96
f 97/97/97 98/98/98 87/87/87
f 98/98/98 97/97/97 96/96/96
f 98/98/98 99/99/99 87/87/87
f 96/96/96 100/100/100 98/98/98
f 96/96/96 91/91/91 100/100/100
f 98/98/98 101/101/101 99/99/99
f 100/100/100 101/101/101 98/98/98
f 95/95/95 102/102/102 93/93/93
f 102/102/102 95/95/95 103/103/103
f 95/95/95 104/104/104 103/103/103
f 102/102/102 103/103/103 105/105/105
f 93/93/93 102/102/102 105/105/105
f 103/103/103 106/106/106 105/105/105
f 107/107/107 93/93/93 105/105/105
f 108/108/108 93/93/93 107/107/107
f 108/108/108 107/107/107 109/109/109
f 108/108/108 110/110/110 93/93/93
f 110/110/110 108/108/108 109/109/109
f 110/110/110 91/91/91 93/93/93
f 109/109/109 111/111/111 110/110/110
f 109/109/109 112/112/112 111/111/111
f 112/112/112 113/113/113 111/111/111
f 110/110/110 114/114/114 91/91/91
f 111/111/111 114/114/114 110/110/110
f 111/111/111 113/113/113 115/115/115
f 111/111/111 115/115/115 114/114/114
f 113/113/113 116/116/116 115/115/115
f 114/114/114 117/117/117 91/91/91
f 91/91/91 117/117/117 100/100/100
f 118/118/118 100/100/100 117/117/117
f 100/100/100 118/118/118 101/101/101
f 117/117/117 114/114/114 119/119/119
f 119/119/119 118/118/118 117/117/117
f 115/115/115 120/120/120 114/114/114
f 114/114/114 120/120/120 119/119/119
f 119/119/119 120/120/120 115/115/115
f 115/115/115 116/116/116 121/121/121
f 121/121/121 119/119/119 115/115/115
f 116/116/116 122/122/122 121/121/121
f 121/121/121 123/123/123 119/119/119
f 121/121/121 122/122/122 123/123/123
f 123/123/123 118/118/118 119/119/119
f 122/122/122 124/124/124 123/123/123
f 123/123/123 124/124/124 125/125/125
f 123/123/123 125/125/125 118/118/118
f 124/124/124 126/126/126 125/125/125
f 118/118/118 127/127/127 101/101/101
f 125/125/125 127/127/127 118/118/118
f 101/101/101 127/127/127 125/125/125
f 125/125/125 126/126/126 128/128/128
f 128/128/128 101/101/101 125/125/125
f 126/126/126 129/129/129 128/128/128
f 101/101/101 128/128/128 99/99/99
f 128/128/128 129/129/129 99/99/99
f 129/129/129 130/130/130 99/99/99
f 133/133/133 132/132/132 131/131/131
f 134/134/134 133/133/133 131/131/131
f 131/131/131 135/135/135 134/134/134
f 135/135/135 136/136/136 134/134/134
f 136/136/136 137/137/137 134/134/134
f 133/133/133 134/134/134 138/138/138
f 137/137/137 139/139/139 134/134/134
f 134/134/134 139/139/139 138/138/138
f 137/137/137 140/140/140 139/139/139
f 140/140/140 141/141/141 139/139/139
f 138/138/138 139/139/139 141/141/141
f 142/142/142 138/138/138 141/141/141
f 145/145/145 144/144/144 143/143/143
f 144/144/144 146/146/146 143/143/143
f 147/147/147 143/143/143 146/146/146
f 148/148/148 147/147/147 146/146/146
f 144/144/144 149/149/149 146/146/146
f 148/148/148 146/146/146 150/150/150
f 149/149/149 151/151/151 146/146/146
f 146/146/146 151/151/151 150/150/150
f 149/149/149 152/152/152 151/151/151
f 150/150/150 151/151/151 153/153/153
f 152/152/152 154/154/154 151/151/151
f 151/151/151 154/154/154 153/153/153
f 152/152/152 155/155/155 154/154/154
f 153/153/153 154/154/154 156/156/156
f 155/155/155 157/157/157 154/154/154
f 154/154/154 157/157/157 156/156/156
f 158/158/158 157/157/157 155/155/155
f 156/156/156 157/157/157 158/158/158
f 159/159/159 158/158/158 155/155/155
f 160/160/160 156/156/156 158/158/158
