g ENV_S05_FB_Bowl_Inner_MO
v 0.00182724 7.1066628 -48.571125
v 0.11752319 7.179821 -48.471592
v 0.116672516 7.042858 -48.255512
v 0.00182724 6.9688454 -48.355045
v 0.103061676 -4.2459946 -42.4486
v 0.00182724 -4.4884453 -42.538776
v 4.118389 -4.2459946 -42.25379
v 0.103061676 -4.2459946 -42.4486
v 0.116672516 7.042858 -48.255512
v 4.683258 7.042858 -48.033478
v 0.11752319 7.179821 -48.471592
v 8.240055 -4.2459946 -41.646385
v 4.7036743 7.179821 -48.248707
v 9.368092 7.042858 -47.34356
v 12.281754 -4.2459946 -40.6383
v 9.410625 7.179821 -47.55453
v 13.963596 7.042858 -46.196808
v 16.206055 -4.2459946 -39.23889
v 14.0257 7.179821 -46.40353
v 18.423843 7.042858 -44.605988
v 19.97383 -4.2459946 -37.46092
v 18.506363 7.179821 -44.805054
v 22.707144 7.042858 -42.585564
v 22.808376 7.179821 -42.775272
v 23.549341 -4.2459946 -35.323097
v 26.77181 7.042858 -40.15425
v 26.89176 7.179821 -40.333748
v 30.578716 7.042858 -37.337566
v 26.897717 -4.2459946 -32.844994
v 30.714828 7.179821 -37.504303
v 34.013863 7.042858 -34.22654
v 29.921122 -4.2459946 -30.108276
v 34.166138 7.179821 -34.379665
v 34.247807 6.9373703 -34.25036
v 30.116783 -4.3923187 -30.118484
v 29.921122 -4.2459946 -30.108276
v 34.013863 7.042858 -34.22654
v 34.166138 7.179821 -34.379665
v 34.400932 7.0734825 -34.403484
v 30.105724 -4.2459946 -29.922823
v 30.116783 -4.3923187 -30.118484
v 34.247807 6.9373703 -34.25036
v 34.223988 7.042858 -34.016415
v 34.400932 7.0734825 -34.403484
v 34.377113 7.179821 -34.16869
v 32.84244 -4.2459946 -26.900269
v 30.105724 -4.2459946 -29.922823
v 34.223988 7.042858 -34.016415
v 37.334164 7.042858 -30.581268
v 34.377113 7.179821 -34.16869
v 37.501755 7.179821 -30.71738
v 40.1517 7.042858 -26.774364
v 35.320545 -4.2459946 -23.551893
v 40.331196 7.179821 -26.894314
v 42.58301 7.042858 -22.709696
v 37.459217 -4.2459946 -19.976381
v 42.77272 7.179821 -22.81093
v 44.603436 7.042858 -18.426395
v 39.23634 -4.2459946 -16.208607
v 44.8025 7.179821 -18.508915
v 46.194256 7.042858 -13.966148
v 40.63575 -4.2459946 -12.284306
v 46.400978 7.179821 -14.028252
v 47.341007 7.042858 -9.370644
v 41.643837 -4.2459946 -8.242607
v 47.55198 7.179821 -9.4131775
v 48.030926 7.042858 -4.68581
v 42.25124 -4.2459946 -4.120941
v 48.246155 7.179821 -4.7062263
v 48.25296 7.042858 -0.11922455
v 42.4469 -4.2459946 -0.10561371
v 48.46904 7.179821 -0.120075226
v 42.536224 -4.4884453 -0.003528595
v 42.4469 -4.2459946 -0.10561371
v 48.25296 7.042858 -0.11922455
v 48.352493 6.9688454 -0.0043792725
v 48.46904 7.179821 -0.120075226
v 48.568573 7.1066628 -0.0043792725
vt 3.1666608 0.26296234
vt 3.155428 0.25921798
vt 3.1473155 0.2741952
vt 3.1579242 0.27918744
vt 2.8458996 1.0798421
vt 2.8558846 1.0960672
vt 2.5881677 0.99122715
vt 2.8458996 1.0798421
vt 3.1473155 0.2741952
vt 2.8527641 0.16436267
vt 3.155428 0.25921798
vt 2.3160825 0.911973
vt 2.859005 0.14813733
vt 2.54074 0.072627306
vt 2.0408769 0.8451996
vt 2.5451083 0.055778027
vt 2.224347 -0.0035065413
vt 1.7619271 0.7921555
vt 2.2280917 -0.020979881
vt 1.9048343 -0.06403923
vt 1.4811053 0.7528405
vt 1.9073305 -0.08151257
vt 1.5828252 -0.10959482
vt 1.5853214 -0.12706816
vt 1.1977873 0.7272544
vt 1.2601922 -0.13954914
vt 1.26144 -0.15702248
vt 0.93693495 -0.15327823
vt 0.9132209 0.7147734
vt 0.93693495 -0.17075157
vt 0.6217902 -0.15015793
vt 0.633023 0.7147734
vt 0.6199181 -0.16700733
vt 0.60431695 -0.15140605
vt 0.6167979 0.71914196
vt 0.633023 0.7147734
vt 0.6217902 -0.15015793
vt 0.6199181 -0.16700733
vt 0.60431695 -0.17075157
vt 0.6005726 0.7153976
vt 0.6167979 0.71914196
vt 0.60431695 -0.15140605
vt 0.5874677 -0.14953387
vt 0.60431695 -0.17075157
vt 0.5887158 -0.16700733
vt 0.32037473 0.7228861
vt 0.6005726 0.7153976
vt 0.5874677 -0.14953387
vt 0.27169895 -0.1445415
vt 0.5887158 -0.16700733
vt 0.27169895 -0.16201484
vt -0.050310135 -0.121451735
vt 0.035808563 0.7434797
vt -0.052182317 -0.13830101
vt -0.37294328 -0.08213663
vt -0.24626148 0.7771783
vt -0.37543952 -0.09960997
vt -0.6930803 -0.027844429
vt -0.5258353 0.8246062
vt -0.6962006 -0.04469371
vt -1.0107211 0.04204905
vt -0.80291283 0.88576293
vt -1.0144653 0.02519977
vt -1.3246176 0.12691975
vt -1.0768702 0.9600246
vt -1.32961 0.11069441
vt -1.6341457 0.22801542
vt -1.3458352 1.0473914
vt -1.6403862 0.21179032
vt -1.9249524 0.34596086
vt -1.6016952 1.1428709
vt -1.9336891 0.33035946
vt -1.611056 1.1590962
vt -1.6016952 1.1428709
vt -1.9249524 0.34596086
vt -1.9355612 0.35032916
vt -1.9336891 0.33035946
vt -1.944922 0.33472776
vn -0.7067082 0.59824777 0.37770772
vn -0.7067082 0.59824777 0.37770772
vn -0.82009864 0.26300654 0.50819856
vn -0.82009864 0.26793656 0.50561666
vn -0.82009864 0.25807652 0.51071984
vn -0.82009864 0.25807652 0.51071984
vn -0.08552584 0.45527723 0.88623244
vn -0.041155666 0.45527723 0.88939804
vn -0.041155666 0.46513727 0.88428134
vn -0.08552584 0.46513727 0.8810974
vn -0.026365608 0.84474874 0.5345133
vn -0.17426619 0.45527723 0.87312883
vn -0.051015705 0.84474874 0.53272605
vn -0.16933617 0.46513727 0.8688916
vn -0.25807652 0.45527723 0.85212624
vn -0.10524592 0.84474874 0.5247122
vn -0.25807652 0.46513727 0.8467844
vn -0.3418868 0.45527723 0.82209253
vn -0.15454611 0.84474874 0.5123623
vn -0.33695677 0.46513727 0.8186009
vn -0.4207671 0.45527723 0.7846513
vn -0.2038463 0.84474874 0.49481943
vn -0.41583708 0.46513727 0.78149015
vn -0.2531465 0.84474874 0.47150445
vn -0.4947174 0.45527723 0.7402549
vn -0.48978737 0.46513727 0.7373979
vn -0.2975166 0.84474874 0.44484097
vn -0.5588076 0.46513727 0.6865722
vn -0.56373763 0.45527723 0.6891462
vn -0.3418868 0.84474874 0.41171962
vn -0.59331775 0.46513727 0.6569789
vn -0.59824777 0.45527723 0.65941054
vn -0.36160687 0.84474874 0.39451244
vn 0.22999536 0.26793656 0.9355812
vn 0.22999536 0.25807652 0.9383489
vn 0.22999536 0.25807652 0.9383489
vn 0.22999536 0.26300654 0.936979
vn 0.3187357 0.5242975 0.7896327
vn 0.3187357 0.5242975 0.7896327
vn -0.938419 0.25807652 -0.2297092
vn -0.938419 0.25807652 -0.2297092
vn -0.938419 0.26793656 -0.21812795
vn -0.938419 0.26300654 -0.22404768
vn -0.7905185 0.5242975 -0.3165322
vn -0.7905185 0.5242975 -0.3165322
vn -0.6869881 0.45527723 0.5663656
vn -0.657408 0.45527723 0.6004476
vn -0.657408 0.46513727 0.59284234
vn -0.6820581 0.46513727 0.56430846
vn -0.396117 0.84474874 0.35984847
vn -0.41583708 0.84474874 0.33686665
vn -0.7362883 0.46513727 0.49145383
vn -0.7412183 0.45527723 0.49327275
vn -0.4454172 0.84474874 0.29665327
vn -0.7806585 0.46513727 0.41739625
vn -0.7855885 0.45527723 0.41901472
vn -0.4749973 0.84474874 0.2465303
vn -0.8151686 0.46513727 0.34517738
vn -0.82009864 0.45527723 0.3466423
vn -0.4947174 0.84474874 0.20409383
vn -0.84474874 0.46513727 0.2646638
vn -0.84967875 0.45527723 0.26602378
vn -0.51443744 0.84474874 0.14749146
vn -0.86939883 0.46513727 0.16671234
vn -0.87432885 0.45527723 0.16814183
vn -0.5242975 0.84474874 0.10729307
vn -0.8792589 0.46513727 0.10271888
vn -0.8841889 0.45527723 0.10455919
vn -0.5341575 0.84474874 0.032793093
vn -0.8841889 0.46513727 0.043096352
vn -0.8891189 0.45527723 0.046799917
vn -0.5341575 0.84474874 0.032793093
vn -0.5095074 0.25807652 0.82085246
vn -0.5095074 0.25807652 0.82085246
vn -0.5045774 0.26300654 0.82233155
vn -0.5045774 0.26793656 0.8207385
vn -0.38132694 0.59824777 0.7047619
vn -0.38132694 0.59824777 0.7047619
g ENV_S05_FB_Bowl_Inner_MO_0
f 3/3/3 2/2/2 1/1/1
f 4/4/4 3/3/3 1/1/1
f 3/3/3 4/4/4 5/5/5
f 4/4/4 6/6/6 5/5/5
f 9/9/9 8/8/8 7/7/7
f 10/10/10 9/9/9 7/7/7
f 9/9/9 10/10/10 11/11/11
f 10/10/10 7/7/7 12/12/12
f 10/10/10 13/13/13 11/11/11
f 14/14/14 10/10/10 12/12/12
f 10/10/10 14/14/14 13/13/13
f 14/14/14 12/12/12 15/15/15
f 14/14/14 16/16/16 13/13/13
f 17/17/17 14/14/14 15/15/15
f 14/14/14 17/17/17 16/16/16
f 17/17/17 15/15/15 18/18/18
f 17/17/17 19/19/19 16/16/16
f 20/20/20 17/17/17 18/18/18
f 17/17/17 20/20/20 19/19/19
f 20/20/20 18/18/18 21/21/21
f 20/20/20 22/22/22 19/19/19
f 23/23/23 20/20/20 21/21/21
f 20/20/20 23/23/23 22/22/22
f 23/23/23 24/24/24 22/22/22
f 23/23/23 21/21/21 25/25/25
f 23/23/23 26/26/26 24/24/24
f 26/26/26 23/23/23 25/25/25
f 26/26/26 27/27/27 24/24/24
f 26/26/26 25/25/25 28/28/28
f 26/26/26 28/28/28 27/27/27
f 25/25/25 29/29/29 28/28/28
f 28/28/28 30/30/30 27/27/27
f 28/28/28 29/29/29 31/31/31
f 28/28/28 31/31/31 30/30/30
f 29/29/29 32/32/32 31/31/31
f 31/31/31 33/33/33 30/30/30
f 36/36/36 35/35/35 34/34/34
f 37/37/37 36/36/36 34/34/34
f 37/37/37 34/34/34 38/38/38
f 34/34/34 39/39/39 38/38/38
g ENV_S05_FB_Bowl_Inner_MO_1
f 42/42/42 41/41/41 40/40/40
f 43/43/43 42/42/42 40/40/40
f 42/42/42 43/43/43 44/44/44
f 43/43/43 45/45/45 44/44/44
f 48/48/48 47/47/47 46/46/46
f 49/49/49 48/48/48 46/46/46
f 48/48/48 49/49/49 50/50/50
f 49/49/49 51/51/51 50/50/50
f 49/49/49 46/46/46 52/52/52
f 49/49/49 52/52/52 51/51/51
f 46/46/46 53/53/53 52/52/52
f 52/52/52 54/54/54 51/51/51
f 52/52/52 53/53/53 55/55/55
f 52/52/52 55/55/55 54/54/54
f 53/53/53 56/56/56 55/55/55
f 55/55/55 57/57/57 54/54/54
f 55/55/55 56/56/56 58/58/58
f 55/55/55 58/58/58 57/57/57
f 56/56/56 59/59/59 58/58/58
f 58/58/58 60/60/60 57/57/57
f 58/58/58 59/59/59 61/61/61
f 58/58/58 61/61/61 60/60/60
f 59/59/59 62/62/62 61/61/61
f 61/61/61 63/63/63 60/60/60
f 61/61/61 62/62/62 64/64/64
f 61/61/61 64/64/64 63/63/63
f 62/62/62 65/65/65 64/64/64
f 64/64/64 66/66/66 63/63/63
f 64/64/64 65/65/65 67/67/67
f 64/64/64 67/67/67 66/66/66
f 65/65/65 68/68/68 67/67/67
f 67/67/67 69/69/69 66/66/66
f 67/67/67 68/68/68 70/70/70
f 67/67/67 70/70/70 69/69/69
f 68/68/68 71/71/71 70/70/70
f 70/70/70 72/72/72 69/69/69
f 75/75/75 74/74/74 73/73/73
f 76/76/76 75/75/75 73/73/73
f 75/75/75 76/76/76 77/77/77
f 76/76/76 78/78/78 77/77/77
