g ENV_TileOverlay01_MO
v 0.49995932 0.045063823 0.4641035
v 0.49706033 0.045063823 0.47875097
v 0.48979765 0.045063823 0.48967555
v 0.482123 0.045063823 0.48201612
v 0.00074002147 0.045063823 0.0014265478
v 0.4999288 0.045063823 -0.46427137
v 0.48201618 0.045063823 -0.482123
v 0.49701458 0.045063823 -0.4789036
v 0.48969084 0.045063823 -0.48979765
v 0.478751 0.045063823 -0.4970756
v 0.46410355 0.045063823 -0.49995932
v -0.46427134 0.045063823 -0.4999288
v 0.46427137 0.045063823 0.49992874
v 0.47888833 0.045063823 0.49699923
v -0.48201612 0.045063823 0.48212293
v -0.4641035 0.045063823 0.49995926
v -0.48212293 0.045063823 -0.48201618
v -0.48967555 0.045063823 0.48979756
v -0.47875097 0.045063823 0.49706027
v -0.49992874 0.045063823 0.46427134
v -0.49699923 0.045063823 0.47888824
v -0.49995926 0.045063823 -0.46410355
v -0.48979756 0.045063823 -0.48969084
v -0.4789035 0.045063823 -0.49701458
v -0.49707553 0.045063823 -0.478751
vt 1 0.036168132
vt 0.99706745 0.021505376
vt 0.99022484 0.010752688
vt 0.9824047 0.017595308
vt 0.50048876 0.49853373
vt 1 0.96383184
vt 0.9824047 0.9824047
vt 0.99706745 0.97849464
vt 0.9892473 0.99022484
vt 0.97849464 0.99706745
vt 0.96383184 1
vt 0.036168132 1
vt 0.96383184 0
vt 0.97849464 0.0029325513
vt 0.017595308 0.017595308
vt 0.036168132 0
vt 0.017595308 0.9824047
vt 0.010752688 0.009775171
vt 0.021505376 0.0029325513
vt 0 0.036168132
vt 0.0029325513 0.021505376
vt 0 0.96383184
vt 0.009775171 0.9892473
vt 0.021505376 0.99706745
vt 0.0029325513 0.97849464
vn -0 1 -0
vn -0 1 -0
vn -0 1 -0
vn -0 1 -0
vn -0 1 -0
vn -0 1 -0
vn -0 1 -0
vn -0 1 -0
vn -0 1 -0
vn -0 1 -0
vn -0 1 -0
vn -0 1 -0
vn -0 1 -0
vn -0 1 -0
vn -0 1 -0
vn -0 1 -0
vn -0 1 -0
vn -0 1 -0
vn -0 1 -0
vn -0 1 -0
vn -0 1 -0
vn -0 1 -0
vn -0 1 -0
vn -0 1 -0
vn -0 1 -0
g ENV_TileOverlay01_MO_0
f 3/3/3 2/2/2 1/1/1
f 4/4/4 3/3/3 1/1/1
f 5/5/5 4/4/4 1/1/1
f 5/5/5 1/1/1 6/6/6
f 6/6/6 7/7/7 5/5/5
f 7/7/7 6/6/6 8/8/8
f 9/9/9 7/7/7 8/8/8
f 9/9/9 10/10/10 7/7/7
f 10/10/10 11/11/11 7/7/7
f 7/7/7 11/11/11 12/12/12
f 4/4/4 13/13/13 3/3/3
f 13/13/13 14/14/14 3/3/3
f 15/15/15 13/13/13 4/4/4
f 4/4/4 5/5/5 15/15/15
f 15/15/15 16/16/16 13/13/13
f 12/12/12 17/17/17 7/7/7
f 17/17/17 5/5/5 7/7/7
f 15/15/15 18/18/18 16/16/16
f 18/18/18 19/19/19 16/16/16
f 15/15/15 20/20/20 18/18/18
f 20/20/20 15/15/15 5/5/5
f 20/20/20 21/21/21 18/18/18
f 22/22/22 20/20/20 5/5/5
f 5/5/5 17/17/17 22/22/22
f 17/17/17 12/12/12 23/23/23
f 17/17/17 23/23/23 22/22/22
f 12/12/12 24/24/24 23/23/23
f 23/23/23 25/25/25 22/22/22
