g ENV_S04_Path_M_GrayPlasticWedge_B_MO
v -0.7554754 0.9593117 0.34958172
v 0.7748774 1.0717049 0.34945
v 0.7760633 1.07938 0.3761977
v -0.75488245 0.9655702 0.37626362
v -0.7752727 0.94261074 0.3511958
v -0.77122104 0.9543047 0.37237656
v -0.7732303 0.16807926 -0.3739578
v -0.7950041 0.15783465 -0.36661208
v 0.7722751 0.27899015 -0.37382603
v 0.7748774 1.0717049 0.34945
v -0.77332914 0.14693141 -0.38716698
v -0.7913147 0.14311028 -0.38031536
v -0.79513586 0.12242365 -0.3802824
v 0.7948065 0.27161145 -0.36628264
v 0.79510295 1.0569475 0.35083354
v 0.7760633 1.07938 0.3761977
v 0.79187477 1.0695965 0.37221193
v 0.77270335 0.25761163 -0.38713402
v 0.79098535 0.2561623 -0.3802824
v 0.7951688 0.23600268 -0.38031536
v -0.7732303 0.122522354 -0.39177865
v 0.7731975 0.23303807 -0.39177865
v 0.7948724 -1.0453194 -0.38179767
v -0.77375746 -1.0453194 -0.39177865
v -0.7949053 -1.0453194 -0.38179767
v 0.77375746 -1.0453194 -0.39177865
v -0.77375746 -1.069399 -0.38179767
v -0.79101825 -1.064985 -0.3773507
v 0.77375746 -1.069399 -0.38179767
v 0.79098535 -1.064985 -0.3773507
v -0.75488245 0.9655702 0.37626362
v 0.7760633 1.07938 0.3761977
v 0.7771833 1.0592203 0.3917786
v -0.7547177 0.94297314 0.3917786
v -0.7748115 0.9312792 0.3802824
v -0.77122104 0.9543047 0.37237656
v -0.79451 -1.0452206 0.38173175
v -0.77339506 -1.0453194 0.3917786
v 0.7771833 1.0592203 0.3917786
v -0.7735598 -1.069399 0.38173175
v -0.7907877 -1.0649191 0.37728477
v 0.77372456 -1.069399 0.38179755
v 0.77375746 -1.0453194 0.3917786
v 0.7957947 1.0481853 0.38011765
v 0.7948724 -1.0453194 0.38179755
v 0.79098535 -1.064985 0.3773507
v -0.79451 -1.0452206 0.38173175
v -0.7907877 -1.0649191 0.37728477
v -0.79470766 -1.0693332 0.35752046
v -0.8032721 -1.0451218 0.35752046
v -0.7748115 0.9312792 0.3802824
v -0.8036345 -1.0453194 -0.3577181
v -0.7948723 -1.069399 -0.35768515
v -0.78357375 0.904235 0.35327113
v -0.7949053 -1.0453194 -0.38179767
v -0.79101825 -1.064985 -0.3773507
v -0.8032392 0.13391984 -0.35939807
v -0.79513586 0.12242365 -0.3802824
v -0.7950041 0.15783465 -0.36661208
v -0.7913147 0.14311028 -0.38031536
v -0.7752727 0.94261074 0.3511958
v -0.77122104 0.9543047 0.37237656
v -0.79470766 -1.0693332 0.35752046
v -0.7907877 -1.0649191 0.37728477
v -0.7735598 -1.069399 0.38173175
v -0.7735598 -1.07938 0.35752046
v -0.7948723 -1.069399 -0.35768515
v 0.77375746 -1.07938 0.3577181
v 0.77372456 -1.069399 0.38179755
v -0.77375746 -1.07938 -0.3577181
v 0.7948724 -1.069399 0.3577181
v 0.79098535 -1.064985 0.3773507
v 0.77375746 -1.07938 -0.3577181
v 0.7948724 -1.069399 -0.35768515
v 0.77375746 -1.069399 -0.38179767
v 0.79098535 -1.064985 -0.3773507
v -0.77375746 -1.069399 -0.38179767
v -0.79101825 -1.064985 -0.3773507
v 0.7948724 -1.069399 0.3577181
v 0.79098535 -1.064985 0.3773507
v 0.7948724 -1.0453194 0.38179755
v 0.8036345 -1.0453194 0.3577181
v 0.7948724 -1.069399 -0.35768515
v 0.8036345 1.0191646 0.35257936
v 0.7957947 1.0481853 0.38011765
v 0.79510295 1.0569475 0.35083354
v 0.79187477 1.0695965 0.37221193
v 0.8036345 0.24888241 -0.35900277
v 0.7948065 0.27161145 -0.36628264
v 0.8036345 -1.0453194 -0.3577181
v 0.7951688 0.23600268 -0.38031536
v 0.79098535 0.2561623 -0.3802824
v 0.7948724 -1.0453194 -0.38179767
v 0.79098535 -1.064985 -0.3773507
v 0.7760633 1.07938 0.3761977
v 0.79187477 1.0695965 0.37221193
v 0.7957947 1.0481853 0.38011765
v 0.7771833 1.0592203 0.3917786
vt 0.33932817 0.4698544
vt 0.7532121 0.6367298
vt 0.7565165 0.6301209
vt 0.34263265 0.4624194
vt 0.33189315 0.4698544
vt 0.3360237 0.46159327
vt 0.20219299 0.7499076
vt 0.19475794 0.74742925
vt 0.6202075 0.91926134
vt 0.7532121 0.6367298
vt 0.19888851 0.7565165
vt 0.1931057 0.75403816
vt 0.18897513 0.759821
vt 0.6268164 0.9225658
vt 0.75816876 0.64251256
vt 0.7565165 0.6301209
vt 0.76147324 0.6334253
vt 0.616903 0.9258702
vt 0.6226858 0.92834854
vt 0.62103355 0.9349575
vt 0.19558406 0.7631255
vt 0.61442465 0.93247914
vt 0.4558105 1.2695343
vt 0.045231014 1.067962
vt 0.0394482 1.0646577
vt 0.44920152 1.267056
vt 0.041926563 1.074571
vt 0.03696987 1.0720927
vt 0.4458971 1.2736648
vt 0.45085377 1.2761432
vt 0.34263265 0.4624194
vt 0.7565165 0.6301209
vt 0.7589949 0.6226858
vt 0.34511095 0.45498437
vt 0.33932817 0.45002764
vt 0.3360237 0.46159327
vt 0.50868183 -0.10016532
vt 0.5152908 -0.097686976
vt 0.7589949 0.6226858
vt 0.51694304 -0.105122015
vt 0.5111602 -0.105122015
vt 0.9465231 0.031187057
vt 0.9440447 0.03862208
vt 0.7664299 0.62185967
vt 0.9506537 0.041100442
vt 0.9514798 0.03449151
vt -0.21086481 0.6697744
vt -0.2158215 0.67307884
vt -0.21499538 0.6796878
vt -0.20756035 0.67720944
vt 0.32528418 0.4624194
vt -0.13320994 0.8713466
vt -0.13981888 0.87382495
vt 0.32115364 0.4731589
vt -0.1307316 0.87795556
vt -0.13651441 0.8787817
vt 0.18732288 0.7482554
vt 0.1864968 0.7548643
vt 0.19475794 0.74742925
vt 0.1931057 0.75403816
vt 0.33189315 0.4698544
vt 0.3360237 0.46159327
vt -0.059685662 1.2645776
vt -0.06133789 1.2711866
vt -0.056381196 1.274491
vt -0.05307673 1.2678821
vt 0.032839283 1.0778755
vt 0.3508938 1.4669759
vt 0.3475893 1.4735849
vt 0.03862208 1.08118
vt 0.35667658 1.4702804
vt 0.35337216 1.4752371
vt 0.44259262 1.2802738
vt 0.44920152 1.2835783
vt 0.4458971 1.2736648
vt 0.45085377 1.2761432
vt 0.041926563 1.074571
vt 0.03696987 1.0720927
vt 0.94569695 1.232359
vt 0.9514798 1.2290547
vt 0.9506537 1.2232718
vt 0.9432187 1.2249241
vt 0.74742925 1.2951438
vt 0.76229936 0.65242594
vt 0.767256 0.64168644
vt 0.75816876 0.64251256
vt 0.76147324 0.6334253
vt 0.63094693 0.92834854
vt 0.6268164 0.9225658
vt 0.7449509 1.2877089
vt 0.6259903 0.9341314
vt 0.6226858 0.92834854
vt 0.738342 1.2901872
vt 0.74082035 1.29597
vt 0.7565165 0.6301209
vt 0.76147324 0.6334253
vt 0.7664299 0.62185967
vt 0.7589949 0.6226858
vn -0.050988197 0.6862719 -0.7255557
vn -0.07451713 0.9686202 -0.23711209
vn -0.07451713 0.9686202 -0.23711209
vn -0.07451713 0.9686202 -0.23711209
vn -0.51372564 0.5921558 -0.62083614
vn -0.5843128 0.772545 -0.24850109
vn -0.058831096 0.6705859 -0.7394954
vn -0.51372564 0.5843128 -0.62822336
vn -0.04314518 0.6705859 -0.7405762
vn -0.04314518 0.6705859 -0.7405762
vn -0.027459145 0.35686553 -0.9337521
vn -0.4431386 0.31765044 -0.8382878
vn -0.4431386 0.003930092 -0.8964445
vn 0.45096445 0.59999883 -0.66078174
vn 0.45096445 0.60784173 -0.6535744
vn 0.5215515 0.79607403 -0.30700195
vn 0.5215515 0.79607403 -0.30700195
vn -0.019616127 0.36470854 -0.93091506
vn 0.4039064 0.3411795 -0.84879684
vn 0.44312143 0.003930092 -0.89645296
vn -0.003930092 0.003930092 -0.99998456
vn 0.0039129257 0.003930092 -0.9999846
vn 0.44312143 -0.0039129257 -0.8964531
vn -0.003930092 -0.011755943 -0.99992317
vn -0.4431386 -0.0039129257 -0.89644456
vn 0.0039129257 -0.011755943 -0.9999232
vn -0.003930092 -0.38037735 -0.92482305
vn -0.36470854 -0.31763327 -0.8752696
vn 0.0039129257 -0.38037735 -0.9248231
vn 0.36469132 -0.31763327 -0.87527674
vn -0.050988197 0.5843128 0.8099252
vn -0.04314518 0.5843128 0.8103808
vn -0.04314518 0.5843128 0.8103808
vn -0.003930092 0.003930092 0.99998456
vn -0.46666765 0.003930092 0.88442403
vn -0.56078374 0.41176653 0.7183105
vn -0.46666765 0.003930092 0.88442403
vn -0.003930092 -0.0039129257 0.9999846
vn 0.0039129257 -0.0039129257 0.9999847
vn -0.003930092 -0.38037735 0.92482305
vn -0.36470854 -0.31763327 0.8752696
vn 0.0039129257 -0.38037735 0.9248231
vn 0.0039129257 -0.0039129257 0.9999847
vn 0.47449344 -0.0039129257 0.88025033
vn 0.47449344 -0.0039129257 0.88025033
vn 0.36469132 -0.31763327 0.87527674
vn -0.9450911 0.003930092 0.3267833
vn -0.9137192 -0.28626126 0.28839514
vn -0.9430662 -0.33260512 -0
vn -0.99999225 0.003930092 -0.0002271267
vn -0.95293415 0.019616127 0.3025421
vn -0.99999225 0.003930092 -0.0002271267
vn -0.9430662 -0.33260512 -0
vn -0.99980766 0.019612506 -0
vn -0.93724823 -0.0039129257 -0.34864086
vn -0.9137192 -0.29410428 -0.28039247
vn -0.99993074 0.011772385 -0
vn -0.93724823 0.003930092 -0.34864068
vn -0.95293415 0.22353435 -0.2048143
vn -0.8823471 0.16863322 -0.43934768
vn -0.95293415 0.22353435 -0.2048143
vn -0.9764632 0.2000053 0.080731146
vn -0.4267498 -0.9043697 -0
vn -0.36470854 -0.8744869 0.31978172
vn -0.003930092 -0.92154497 0.38825175
vn -0.003930092 -0.9999751 0.005864459
vn -0.4267498 -0.9043697 -0
vn 0.0039129257 -0.9999751 0.0058746138
vn 0.0039129257 -0.92154497 0.38825193
vn -0.003930092 -0.9999751 -0.005864459
vn 0.42673576 -0.90437627 -0
vn 0.36469132 -0.8744869 0.3198013
vn 0.0039129257 -0.9999751 -0.0058746138
vn 0.42673576 -0.90437627 -0
vn 0.0039129257 -0.92154497 -0.38825193
vn 0.36469132 -0.8744869 -0.3198013
vn -0.003930092 -0.92154497 -0.38825175
vn -0.36470854 -0.8744869 -0.31978172
vn 0.937231 -0.34116232 0.07215492
vn 0.913702 -0.29410428 0.28044838
vn 0.95291704 -0.0039129257 0.30320585
vn 0.9999751 -0.0039129257 0.0058752443
vn 0.937231 -0.34116232 -0.07215492
vn 0.99993074 0.011772587 -0
vn 0.95291704 0.011773109 0.30300248
vn 0.945074 0.23137736 -0.23086703
vn 0.97644603 0.21569133 0.005512458
vn 0.9999751 0.003930092 -0.0058637755
vn 0.937231 0.23137736 -0.26088807
vn 0.9999751 -0.0039129257 -0.0058752443
vn 0.937231 0.003930092 -0.348687
vn 0.8744869 0.18431926 -0.44866362
vn 0.937231 -0.0039129257 -0.34868717
vn 0.913702 -0.29410428 -0.28044838
vn 0.58429563 0.45098162 0.6746956
vn 0.58429563 0.45098162 0.6746956
vn 0.58429563 0.45098162 0.6746956
vn 0.58429563 0.45098162 0.6746956
g ENV_S04_Path_M_GrayPlasticWedge_B_MO_0
f 3/3/3 2/2/2 1/1/1
f 4/4/4 3/3/3 1/1/1
f 1/1/1 5/5/5 4/4/4
f 5/5/5 6/6/6 4/4/4
f 1/1/1 7/7/7 5/5/5
f 7/7/7 8/8/8 5/5/5
f 9/9/9 7/7/7 1/1/1
f 10/10/10 9/9/9 1/1/1
f 7/7/7 11/11/11 8/8/8
f 7/7/7 9/9/9 11/11/11
f 11/11/11 12/12/12 8/8/8
f 13/13/13 12/12/12 11/11/11
f 14/14/14 9/9/9 10/10/10
f 15/15/15 14/14/14 10/10/10
f 10/10/10 16/16/16 15/15/15
f 16/16/16 17/17/17 15/15/15
f 9/9/9 14/14/14 18/18/18
f 9/9/9 18/18/18 11/11/11
f 14/14/14 19/19/19 18/18/18
f 18/18/18 19/19/19 20/20/20
f 21/21/21 13/13/13 11/11/11
f 11/11/11 18/18/18 21/21/21
f 22/22/22 18/18/18 20/20/20
f 18/18/18 22/22/22 21/21/21
f 20/20/20 23/23/23 22/22/22
f 21/21/21 24/24/24 13/13/13
f 24/24/24 25/25/25 13/13/13
f 22/22/22 26/26/26 21/21/21
f 23/23/23 26/26/26 22/22/22
f 26/26/26 24/24/24 21/21/21
f 24/24/24 27/27/27 25/25/25
f 24/24/24 26/26/26 27/27/27
f 27/27/27 28/28/28 25/25/25
f 26/26/26 29/29/29 27/27/27
f 26/26/26 23/23/23 29/29/29
f 23/23/23 30/30/30 29/29/29
f 33/33/33 32/32/32 31/31/31
f 34/34/34 33/33/33 31/31/31
f 34/34/34 31/31/31 35/35/35
f 31/31/31 36/36/36 35/35/35
f 34/34/34 35/35/35 37/37/37
f 38/38/38 34/34/34 37/37/37
f 39/39/39 34/34/34 38/38/38
f 38/38/38 37/37/37 40/40/40
f 37/37/37 41/41/41 40/40/40
f 40/40/40 42/42/42 38/38/38
f 43/43/43 39/39/39 38/38/38
f 42/42/42 43/43/43 38/38/38
f 44/44/44 39/39/39 43/43/43
f 45/45/45 44/44/44 43/43/43
f 43/43/43 42/42/42 45/45/45
f 42/42/42 46/46/46 45/45/45
f 49/49/49 48/48/48 47/47/47
f 50/50/50 49/49/49 47/47/47
f 47/47/47 51/51/51 50/50/50
f 50/50/50 52/52/52 49/49/49
f 52/52/52 53/53/53 49/49/49
f 51/51/51 54/54/54 50/50/50
f 50/50/50 54/54/54 52/52/52
f 52/52/52 55/55/55 53/53/53
f 55/55/55 56/56/56 53/53/53
f 55/55/55 52/52/52 57/57/57
f 54/54/54 57/57/57 52/52/52
f 58/58/58 55/55/55 57/57/57
f 57/57/57 59/59/59 58/58/58
f 59/59/59 57/57/57 54/54/54
f 59/59/59 60/60/60 58/58/58
f 61/61/61 59/59/59 54/54/54
f 54/54/54 51/51/51 61/61/61
f 51/51/51 62/62/62 61/61/61
f 65/65/65 64/64/64 63/63/63
f 66/66/66 65/65/65 63/63/63
f 63/63/63 67/67/67 66/66/66
f 66/66/66 68/68/68 65/65/65
f 68/68/68 69/69/69 65/65/65
f 67/67/67 70/70/70 66/66/66
f 68/68/68 66/66/66 70/70/70
f 68/68/68 71/71/71 69/69/69
f 71/71/71 72/72/72 69/69/69
f 68/68/68 73/73/73 71/71/71
f 73/73/73 68/68/68 70/70/70
f 73/73/73 74/74/74 71/71/71
f 73/73/73 75/75/75 74/74/74
f 75/75/75 73/73/73 70/70/70
f 75/75/75 76/76/76 74/74/74
f 77/77/77 75/75/75 70/70/70
f 70/70/70 67/67/67 77/77/77
f 67/67/67 78/78/78 77/77/77
f 81/81/81 80/80/80 79/79/79
f 82/82/82 81/81/81 79/79/79
f 79/79/79 83/83/83 82/82/82
f 82/82/82 84/84/84 81/81/81
f 84/84/84 85/85/85 81/81/81
f 84/84/84 86/86/86 85/85/85
f 86/86/86 87/87/87 85/85/85
f 84/84/84 88/88/88 86/86/86
f 88/88/88 84/84/84 82/82/82
f 88/88/88 89/89/89 86/86/86
f 83/83/83 90/90/90 82/82/82
f 90/90/90 88/88/88 82/82/82
f 88/88/88 91/91/91 89/89/89
f 88/88/88 90/90/90 91/91/91
f 91/91/91 92/92/92 89/89/89
f 90/90/90 93/93/93 91/91/91
f 90/90/90 83/83/83 93/93/93
f 83/83/83 94/94/94 93/93/93
f 97/97/97 96/96/96 95/95/95
f 98/98/98 97/97/97 95/95/95
