g ENV_S07_Bgr_Goop_Decals
v 239.82037 88.619934 377.55865
v 225.72461 70.48724 384.48145
v 239.0864 70.48724 376.47437
v 129.57294 70.48724 427.1358
v 129.9566 88.619934 428.40363
v 99.29617 88.619934 436.07703
v 104.78436 70.48724 433.35797
v 103.28302 109.505066 483.05188
v 144.86978 128.92224 477.5971
v 104.000336 128.92224 487.78943
v 143.46857 109.52173 472.92627
v 167.43973 128.92224 469.52332
v 169.39148 109.52173 463.65143
v 106.78613 145.93726 536.83276
v 77.77716 162.20166 548.8434
v 76.60947 145.93726 541.32007
v 108.287445 162.18494 544.3728
v 161.1175 162.18494 531.1444
v 158.88217 145.93726 523.78796
v 209.4602 145.93726 505.6886
v 212.39615 162.18494 512.7949
v 139.46503 88.619934 425.0006
v 129.9566 88.619934 428.40363
v 129.57294 70.48724 427.1358
v 138.19724 70.48724 424.04974
v 279.32196 109.52173 407.30164
v 314.95346 109.52173 380.22766
v 318.84024 128.92224 383.247
v 282.1745 128.92224 411.23846
v 203.28809 70.48724 397.02588
v 171.3265 88.619934 413.60718
v 170.80939 70.48724 412.38947
v 203.9053 88.619934 398.19354
v 210.32767 70.48724 393.48944
v 210.94485 88.619934 394.64044
v 217.18372 70.48724 389.60266
v 217.80093 88.619934 390.75366
v 239.82037 88.619934 377.55865
v 225.72461 70.48724 384.48145
v 189.12558 109.52173 456.5952
v 228.06 128.92224 443.51697
v 190.9939 128.92224 461.09918
v 225.92477 109.505066 439.22986
v 232.89761 109.505066 435.71008
v 235.16626 128.92224 439.9638
v 239.68695 109.505066 431.87335
v 242.07239 128.92224 436.0437
v 279.32196 109.52173 407.30164
v 282.1745 128.92224 411.23846
v 284.00946 88.619934 346.06415
v 304.8612 70.48724 325.3792
v 302.57587 88.619934 329.2326
v 283.17538 70.48724 345.04657
v 280.17273 88.619934 348.90002
v 283.17538 70.48724 345.04657
v 275.1683 83.815674 352.18622
v 274.9181 70.48724 351.15198
v 209.4602 145.93726 505.6886
v 254.34988 162.20166 492.91064
v 212.39615 162.18494 512.7949
v 250.89685 145.93726 486.1046
v 257.9364 145.93726 482.5515
v 261.53958 162.18494 489.3075
v 264.79245 145.93726 478.66467
v 268.52908 162.20166 485.32056
v 304.09387 145.93726 455.11053
v 308.36432 162.18494 461.4995
v 327.44785 109.505066 369.4348
v 331.30127 109.505066 365.9651
v 336.93958 128.92224 367.33295
v 325.27927 128.92224 377.92566
v 322.29327 114.876465 375.90723
v 427.13596 70.48724 129.57281
v 433.35812 70.48724 104.78424
v 436.0772 88.619934 99.29602
v 428.40375 88.619934 129.95648
v 412.3896 70.48724 170.80927
v 413.60733 88.619934 171.32635
v 483.05206 109.505066 103.2829
v 487.78958 128.92224 104.00018
v 477.59723 128.92224 144.86963
v 472.92645 109.52173 143.46838
v 468.40576 128.92224 170.57568
v 463.43472 109.52173 169.99188
v 536.83295 145.93726 106.78601
v 544.3729 162.18494 108.28729
v 531.1446 162.18494 161.11737
v 523.7881 145.93726 158.88202
v 468.40576 128.92224 170.57568
v 456.59534 109.52173 189.12543
v 463.43472 109.52173 169.99188
v 461.0993 128.92224 190.99377
v 450.69012 128.92224 212.94647
v 447.60406 109.505066 208.1756
v 504.23746 162.18494 229.27759
v 497.53152 145.93726 225.591
v 505.58865 145.93726 208.52594
v 512.9952 162.20166 210.59442
v 351.68594 88.619934 276.41925
v 345.04675 70.48724 283.17523
v 348.31628 70.48724 278.75464
v 346.0643 88.619934 284.00928
v 320.9254 70.48724 309.7821
v 321.85956 88.619934 310.71625
v 315.48727 70.48724 315.48712
v 316.42145 88.619934 316.42126
v 310.71637 88.619934 321.85944
v 309.78223 70.48724 320.9253
v 304.8612 70.48724 325.3792
v 302.57587 88.619934 329.2326
v 399.7451 128.92224 297.82153
v 382.02942 109.52173 313.51874
v 394.00668 109.52173 297.35443
v 385.79944 128.92224 316.62146
v 358.22504 128.92224 346.9983
v 354.73865 109.505066 343.69537
v 349.33386 109.505066 349.33374
v 352.75354 128.92224 352.75342
v 346.99847 128.92224 358.2249
v 343.69556 109.505066 354.73846
v 334.22052 109.505066 363.31274
v 339.4251 128.92224 365.081
v 429.05432 162.18494 352.1195
v 423.11575 145.93726 347.23187
v 455.1107 145.93726 304.09375
v 461.49966 162.18494 308.3642
v 466.92114 162.20166 299.20605
v 459.9483 145.93726 296.03662
v 477.76404 145.93726 264.90912
v 482.3848 145.93726 257.10217
v 488.87387 162.20166 261.15576
v 484.48666 162.20166 268.52893
v 466.92114 162.20166 299.20605
v 459.9483 145.93726 296.03662
v 412.3896 70.48724 170.80927
v 413.60733 88.619934 171.32635
v 398.19373 88.619934 203.90515
v 397.026 70.48724 203.28796
v 450.69012 128.92224 212.94647
v 439.22998 109.505066 225.92462
v 447.60406 109.505066 208.1756
v 443.5171 128.92224 228.05988
v 435.7102 109.505066 232.89746
v 439.96396 128.92224 235.16614
v 431.87347 109.505066 239.70349
v 436.04382 128.92224 242.07227
v 414.97522 128.92224 277.27002
v 410.92163 109.52173 274.56763
v 528.72577 162.18494 167.82324
v 520.05145 162.20166 191.9613
v 512.1111 145.93726 191.51086
v 522.1032 145.93726 163.56952
v 497.53152 145.93726 225.591
v 504.23746 162.18494 229.27759
v 498.04865 162.18494 241.97217
v 491.39276 145.93726 238.20215
v 498.04865 162.18494 241.97217
v 488.87387 162.20166 261.15576
v 482.3848 145.93726 257.10217
v 491.39276 145.93726 238.20215
v 390.75378 86.15106 217.80078
v 379.4438 88.619934 236.66748
v 375.44025 70.48724 240.80444
v 389.60278 70.48724 217.1836
v 369.80194 88.619934 251.99768
v 359.37607 88.619934 266.0434
v 356.62366 70.48724 267.56146
v 369.88538 70.48724 249.67896
v 331.30127 109.505066 365.9651
v 334.22052 109.505066 363.31274
v 339.4251 128.92224 365.081
v 336.93958 128.92224 367.33295
v 314.95346 109.52173 380.22766
v 325.27927 128.92224 377.92566
v 318.84024 128.92224 383.247
v 322.29327 114.876465 375.90723
v 327.44785 109.505066 369.4348
v 248.71158 88.619934 372.2373
v 251.34723 70.48724 368.65082
v 255.86792 87.31879 366.81586
v 247.9776 70.48724 371.1363
v 239.82037 88.619934 377.55865
v 239.0864 70.48724 376.47437
v 260.7389 70.48724 361.67798
v 274.9181 70.48724 351.15198
v 275.1683 83.815674 352.18622
v 261.63968 86.26782 362.42865
v 170.80939 70.48724 412.38947
v 171.3265 88.619934 413.60718
v 139.46503 88.619934 425.0006
v 138.19724 70.48724 424.04974
vt 0.09028121 0.47795254
vt 0.15330906 0.40442002
vt 0.09028121 0.40442002
vt 0.18482299 0.86762476
vt 0.0947832 0.83060837
vt 0.03175535 0.98717755
vt 0.13380045 0.9941806
vt 0.2868681 0.83561057
vt 0.27486277 0.94916075
vt 0.3293869 0.86062163
vt 0.23284422 0.9231493
vt 0.24284862 0.9991829
vt 0.19582786 0.9801745
vt 0.3103785 0.88663316
vt 0.41242355 0.92515016
vt 0.40291935 0.87062603
vt 0.31888223 0.9416574
vt 0.15280885 0.96366715
vt 0.14630598 0.9086429
vt -0.018266752 0.9241497
vt -0.014264984 0.979174
vt 0.086279444 0.43393308
vt 0.13229978 0.45244128
vt 0.16531438 0.36990476
vt 0.12379603 0.3533975
vt 0.3343891 0.7095549
vt 0.15931171 0.7100551
vt 0.15480973 0.7880896
vt 0.33538955 0.7875894
vt 0.6115115 0.85461897
vt 0.6625341 0.90564156
vt 0.6725385 0.87512803
vt 0.6015071 0.884132
vt 0.5985058 0.85011697
vt 0.5885014 0.87963
vt 0.58550006 0.845615
vt 0.57549566 0.87512803
vt 0.53347707 0.86062163
vt 0.5689928 0.84011257
vt 0.655531 0.93465436
vt 0.58299893 0.94015676
vt 0.6455266 0.96316695
vt 0.59250313 0.9121444
vt 0.58049786 0.9076424
vt 0.57099366 0.936155
vt 0.56849253 0.9036406
vt 0.55898833 0.931653
vt 0.4989618 0.8791298
vt 0.4889574 0.9071422
vt 0.7450706 0.98617715
vt 0.6905465 0.85611963
vt 0.66203386 0.9266508
vt 0.7880896 0.92565036
vt 0.76107764 0.99768215
vt 0.7880896 0.92565036
vt 0.7925916 0.99518114
vt 0.82260484 0.94966096
vt 0.64252526 0.9801745
vt 0.57099366 0.97667295
vt 0.6360224 1.0011837
vt 0.57799673 0.9561639
vt 0.56699187 0.9521621
vt 0.5599888 0.97267115
vt 0.555987 0.94816035
vt 0.54898393 0.96866935
vt 0.4934594 0.92565036
vt 0.48645627 0.9461594
vt 0.41042268 0.7830874
vt 0.3533975 0.7830874
vt 0.31688136 1.004185
vt 0.49145854 1.004185
vt 0.50096273 0.84411436
vt 0.22634134 0.712056
vt 0.16781548 0.7115558
vt 0.15330906 0.75157344
vt 0.22584112 0.75107324
vt 0.3208831 0.7125562
vt 0.3203829 0.7500728
vt 0.15681061 0.8616221
vt 0.16181283 0.91164416
vt 0.26685923 0.90113956
vt 0.26185703 0.85111743
vt 0.3348893 0.8941364
vt 0.33288842 0.84411436
vt 0.14880708 0.9321532
vt 0.1493073 0.97217095
vt 0.28536743 0.9706703
vt 0.28486723 0.93065256
vt 0.15581018 0.78909004
vt 0.24434929 0.70855445
vt 0.16131261 0.707554
vt 0.24434929 0.79009044
vt 0.3438933 0.78909004
vt 0.3303873 0.707554
vt 0.50196314 0.9991829
vt 0.50246334 0.8381117
vt 0.33338863 0.8336097
vt 0.31688136 0.9941806
vt 0.35539836 0.8901347
vt 0.3729061 0.8576203
vt 0.3624015 0.8571201
vt 0.3729061 0.8901347
vt 0.43793482 0.8576203
vt 0.43793482 0.8901347
vt 0.451941 0.8576203
vt 0.451941 0.8901347
vt 0.4664474 0.8901347
vt 0.4664474 0.8576203
vt 0.47845274 0.8576203
vt 0.48595607 0.8901347
vt 0.34289283 0.9506614
vt 0.37840855 0.9216486
vt 0.34689462 0.9221488
vt 0.37940896 0.9501612
vt 0.44093615 0.94966096
vt 0.44093615 0.92114836
vt 0.45294148 0.92114836
vt 0.45294148 0.94966096
vt 0.46444654 0.94966096
vt 0.46444654 0.92114836
vt 0.4839552 0.92114836
vt 0.4799534 0.94966096
vt 0.4514408 0.9461594
vt 0.43493354 0.8236053
vt 0.06827149 0.8666243
vt 0.080276795 0.9891785
vt 0.0072445218 0.9946808
vt 0.004243195 0.8711263
vt 0.7260622 0.9611661
vt 0.7065536 0.9611661
vt 0.707554 0.9996831
vt 0.725562 0.9991829
vt 0.8010953 0.9986827
vt 0.802596 0.9601656
vt 0.18082123 0.888634
vt 0.14430508 0.927151
vt 0.22033869 0.9991829
vt 0.25685483 0.9601656
vt 0.6630343 0.9186473
vt 0.70455265 0.8696256
vt 0.65653145 0.8691254
vt 0.70455265 0.9191475
vt 0.7240613 0.87012583
vt 0.7240613 0.9191475
vt 0.7430697 0.8696256
vt 0.7435699 0.9191475
vt 0.84461457 0.9176468
vt 0.8436141 0.86862516
vt 0.22484067 0.99668175
vt 0.34589416 0.9096433
vt 0.3018747 0.82710683
vt 0.16281326 0.9281515
vt 0.21083449 0.43893528
vt 0.20783316 0.3824103
vt 0.18732409 0.38341075
vt 0.19132586 0.44043595
vt 0.8381117 0.85361856
vt 0.6685368 0.86362296
vt 0.68004185 1.0026844
vt 0.8471157 0.9931802
vt 0.19882917 0.9981825
vt 0.32688576 0.9796742
vt 0.33188796 0.8691254
vt 0.17631924 0.9091431
vt 0.22834222 1.0056857
vt 0.34789503 0.9331537
vt 0.2923705 0.7970936
vt 0.1398031 0.8891342
vt 0.2088336 0.39091408
vt 0.20032984 0.3919145
vt 0.20032984 0.43493354
vt 0.20733294 0.43393308
vt 0.22684155 0.38140988
vt 0.21283537 0.4414364
vt 0.22384024 0.4414364
vt 0.21533647 0.39791715
vt 0.19082564 0.38140988
vt 0.06877171 1.0036848
vt 0.030254688 0.8341099
vt -0.014264984 0.9911793
vt 0.06927193 0.8341099
vt 0.16531438 1.0031846
vt 0.1658146 0.8336097
vt 0.8151015 0.8336097
vt 0.6355222 0.86312276
vt 0.6625341 0.9981825
vt 0.8386119 0.9946808
vt 0.3438933 0.8521179
vt 0.30987823 0.93465436
vt 0.46294588 0.99668175
vt 0.5004625 0.91564596
vn -0.51104355 0.07214331 -0.8565219
vn -0.51104355 0.07214331 -0.8565219
vn -0.51104355 0.07214331 -0.8565219
vn -0.26525941 0.07214331 -0.96147424
vn -0.26525941 0.07214331 -0.96147424
vn -0.240681 0.07214331 -0.9679194
vn -0.240681 0.07214331 -0.9679194
vn -0.2371698 0.240681 -0.9411818
vn -0.27228183 0.240681 -0.93163043
vn -0.2371698 0.240681 -0.9411818
vn -0.27228183 0.240681 -0.93163043
vn -0.32846105 0.24419221 -0.9124053
vn -0.32846105 0.24419221 -0.9124053
vn -0.18801297 0.4267747 -0.8845985
vn -0.13183373 0.4267747 -0.8946973
vn -0.13183373 0.4267747 -0.8946973
vn -0.18801297 0.4267747 -0.8845985
vn -0.26174822 0.4267747 -0.8656507
vn -0.26174822 0.4267747 -0.8656507
vn -0.34250587 0.4267747 -0.8369905
vn -0.34250587 0.4267747 -0.8369905
vn -0.33548346 0.07214331 -0.93927956
vn -0.26525941 0.07214331 -0.96147424
vn -0.26525941 0.07214331 -0.96147424
vn -0.33548346 0.07214331 -0.93927956
vn -0.54966676 0.240681 -0.7999619
vn -0.59180117 0.240681 -0.76931405
vn -0.59180117 0.240681 -0.76931405
vn -0.54966676 0.240681 -0.7999619
vn -0.4302859 0.07214331 -0.8998052
vn -0.3811291 0.07214331 -0.92170274
vn -0.3811291 0.07214331 -0.92170274
vn -0.4302859 0.07214331 -0.8998052
vn -0.4689091 0.07214331 -0.88029516
vn -0.4689091 0.07214331 -0.88029516
vn -0.50753236 0.07214331 -0.8586071
vn -0.50753236 0.07214331 -0.8586071
vn -0.51104355 0.07214331 -0.8565219
vn -0.51104355 0.07214331 -0.8565219
vn -0.4162411 0.240681 -0.8768215
vn -0.4197523 0.240681 -0.8751461
vn -0.4162411 0.240681 -0.8768215
vn -0.4197523 0.240681 -0.8751461
vn -0.4583755 0.240681 -0.8555493
vn -0.4583755 0.240681 -0.8555493
vn -0.50753236 0.240681 -0.8273352
vn -0.50753236 0.240681 -0.8273352
vn -0.54966676 0.240681 -0.7999619
vn -0.54966676 0.240681 -0.7999619
vn -0.6655364 0.07214331 -0.7428705
vn -0.66904765 0.07214331 -0.73970973
vn -0.66904765 0.07214331 -0.73970973
vn -0.66904765 0.07214331 -0.73970973
vn -0.5953124 0.07214331 -0.800249
vn -0.5953124 0.07214331 -0.800249
vn -0.5953124 0.07214331 -0.800249
vn -0.5953124 0.07214331 -0.800249
vn -0.34250587 0.4267747 -0.8369905
vn -0.3916627 0.4267747 -0.81514645
vn -0.34250587 0.4267747 -0.8369905
vn -0.3916627 0.4267747 -0.81514645
vn -0.4267747 0.4267747 -0.7973247
vn -0.4267747 0.4267747 -0.7973247
vn -0.46188673 0.4267747 -0.7775114
vn -0.46188673 0.4267747 -0.7775114
vn -0.46539792 0.4267747 -0.7754148
vn -0.46539792 0.4267747 -0.7754148
vn -0.65149164 0.240681 -0.719466
vn -0.65149164 0.240681 -0.719466
vn -0.65149164 0.240681 -0.719466
vn -0.65149164 0.240681 -0.719466
vn -0.6269132 0.24419221 -0.73983103
vn -0.9499438 0.07214331 -0.30397728
vn -0.9674998 0.07214331 -0.24236235
vn -0.9674998 0.07214331 -0.24236235
vn -0.9499438 0.07214331 -0.30397728
vn -0.9218542 0.07214331 -0.38076258
vn -0.9218542 0.07214331 -0.38076258
vn -0.9429214 0.240681 -0.23015618
vn -0.9429214 0.240681 -0.23015618
vn -0.93238777 0.240681 -0.269677
vn -0.93238777 0.240681 -0.269677
vn -0.91483176 0.24419221 -0.32164112
vn -0.91483176 0.24419221 -0.32164112
vn -0.87620854 0.4267747 -0.22387922
vn -0.87620854 0.4267747 -0.22387922
vn -0.87620854 0.4267747 -0.22387922
vn -0.87620854 0.4267747 -0.22387922
vn -0.91483176 0.24419221 -0.32164112
vn -0.89376456 0.24419221 -0.37623808
vn -0.91483176 0.24419221 -0.32164112
vn -0.89376456 0.24419221 -0.37623808
vn -0.87620854 0.240681 -0.4175299
vn -0.87620854 0.240681 -0.4175299
vn -0.8165181 0.4232635 -0.3926145
vn -0.8165181 0.4232635 -0.3926145
vn -0.8200293 0.4232635 -0.3852271
vn -0.8200293 0.4232635 -0.3852271
vn -0.8024733 0.07214331 -0.59231067
vn -0.7498053 0.07214331 -0.6577138
vn -0.8024733 0.07214331 -0.59231067
vn -0.7498053 0.07214331 -0.6577138
vn -0.73576045 0.07214331 -0.67338836
vn -0.73576045 0.07214331 -0.67338836
vn -0.7041597 0.07214331 -0.70636714
vn -0.7041597 0.07214331 -0.70636714
vn -0.6795812 0.07214331 -0.7300443
vn -0.6795812 0.07214331 -0.7300443
vn -0.66904765 0.07214331 -0.73970973
vn -0.66904765 0.07214331 -0.73970973
vn -0.7778949 0.24419221 -0.5790075
vn -0.7392717 0.24419221 -0.6275728
vn -0.7778949 0.24419221 -0.5790075
vn -0.7392717 0.24419221 -0.6275728
vn -0.71820444 0.240681 -0.6528821
vn -0.71820444 0.240681 -0.6528821
vn -0.68660367 0.240681 -0.68603796
vn -0.68660367 0.240681 -0.68603796
vn -0.658514 0.240681 -0.7130441
vn -0.658514 0.240681 -0.7130441
vn -0.65149164 0.240681 -0.719466
vn -0.65149164 0.240681 -0.719466
vn -0.7252269 0.4267747 -0.54028636
vn -0.7252269 0.4267747 -0.54028636
vn -0.73576045 0.4267747 -0.5258516
vn -0.73576045 0.4267747 -0.5258516
vn -0.7849173 0.4267747 -0.44918612
vn -0.7849173 0.4267747 -0.44918612
vn -0.7849173 0.4267747 -0.44918612
vn -0.8059845 0.4267747 -0.41018575
vn -0.8059845 0.4267747 -0.41018575
vn -0.7849173 0.4267747 -0.44918612
vn -0.7849173 0.4267747 -0.44918612
vn -0.7849173 0.4267747 -0.44918612
vn -0.9218542 0.07214331 -0.38076258
vn -0.9218542 0.07214331 -0.38076258
vn -0.90078694 0.07214331 -0.42822686
vn -0.90078694 0.07214331 -0.42822686
vn -0.87620854 0.240681 -0.4175299
vn -0.87269735 0.240681 -0.42481995
vn -0.87620854 0.240681 -0.4175299
vn -0.87269735 0.240681 -0.42481995
vn -0.85514134 0.240681 -0.45913607
vn -0.85514134 0.240681 -0.45913607
vn -0.83407414 0.240681 -0.49637988
vn -0.83407414 0.240681 -0.49637988
vn -0.83056295 0.240681 -0.50223285
vn -0.83056295 0.240681 -0.50223285
vn -0.85163015 0.4267747 -0.30428514
vn -0.85163015 0.4267747 -0.30428514
vn -0.85163015 0.4267747 -0.30428514
vn -0.85163015 0.4267747 -0.30428514
vn -0.8165181 0.4232635 -0.3926145
vn -0.8165181 0.4232635 -0.3926145
vn -0.8165181 0.4232635 -0.3926145
vn -0.8165181 0.4232635 -0.3926145
vn -0.8165181 0.4232635 -0.3926145
vn -0.8059845 0.4267747 -0.41018575
vn -0.8059845 0.4267747 -0.41018575
vn -0.8165181 0.4232635 -0.3926145
vn -0.85163015 0.075654514 -0.5186545
vn -0.85163015 0.075654514 -0.5186545
vn -0.85163015 0.075654514 -0.5186545
vn -0.85163015 0.075654514 -0.5186545
vn -0.8024733 0.07214331 -0.59231067
vn -0.8024733 0.07214331 -0.59231067
vn -0.8024733 0.07214331 -0.59231067
vn -0.8024733 0.07214331 -0.59231067
vn -0.65149164 0.240681 -0.719466
vn -0.65149164 0.240681 -0.719466
vn -0.65149164 0.240681 -0.719466
vn -0.65149164 0.240681 -0.719466
vn -0.59180117 0.240681 -0.76931405
vn -0.6198908 0.240681 -0.74686545
vn -0.59180117 0.240681 -0.76931405
vn -0.6269132 0.24419221 -0.73983103
vn -0.640958 0.2547258 -0.72407705
vn -0.5426443 0.07214331 -0.8368587
vn -0.5953124 0.07214331 -0.800249
vn -0.5953124 0.07214331 -0.800249
vn -0.5461556 0.07214331 -0.8345714
vn -0.51104355 0.07214331 -0.8565219
vn -0.51104355 0.07214331 -0.8565219
vn -0.5953124 0.07214331 -0.800249
vn -0.5953124 0.07214331 -0.800249
vn -0.5953124 0.07214331 -0.800249
vn -0.5953124 0.07214331 -0.800249
vn -0.3811291 0.07214331 -0.92170274
vn -0.3811291 0.07214331 -0.92170274
vn -0.33548346 0.07214331 -0.93927956
vn -0.33548346 0.07214331 -0.93927956
g ENV_S07_Bgr_Goop_Decals_0
f 3/3/3 2/2/2 1/1/1
f 6/6/6 5/5/5 4/4/4
f 7/7/7 6/6/6 4/4/4
f 10/10/10 9/9/9 8/8/8
f 9/9/9 11/11/11 8/8/8
f 11/11/11 9/9/9 12/12/12
f 13/13/13 11/11/11 12/12/12
f 16/16/16 15/15/15 14/14/14
f 15/15/15 17/17/17 14/14/14
f 17/17/17 18/18/18 14/14/14
f 18/18/18 19/19/19 14/14/14
f 19/19/19 18/18/18 20/20/20
f 18/18/18 21/21/21 20/20/20
f 24/24/24 23/23/23 22/22/22
f 25/25/25 24/24/24 22/22/22
f 28/28/28 27/27/27 26/26/26
f 29/29/29 28/28/28 26/26/26
f 32/32/32 31/31/31 30/30/30
f 31/31/31 33/33/33 30/30/30
f 34/34/34 30/30/30 33/33/33
f 35/35/35 34/34/34 33/33/33
f 36/36/36 34/34/34 35/35/35
f 37/37/37 36/36/36 35/35/35
f 36/36/36 37/37/37 38/38/38
f 39/39/39 36/36/36 38/38/38
f 42/42/42 41/41/41 40/40/40
f 41/41/41 43/43/43 40/40/40
f 44/44/44 43/43/43 41/41/41
f 45/45/45 44/44/44 41/41/41
f 46/46/46 44/44/44 45/45/45
f 47/47/47 46/46/46 45/45/45
f 46/46/46 47/47/47 48/48/48
f 47/47/47 49/49/49 48/48/48
f 52/52/52 51/51/51 50/50/50
f 51/51/51 53/53/53 50/50/50
f 54/54/54 50/50/50 53/53/53
f 56/56/56 54/54/54 55/55/55
f 57/57/57 56/56/56 55/55/55
f 60/60/60 59/59/59 58/58/58
f 59/59/59 61/61/61 58/58/58
f 62/62/62 61/61/61 59/59/59
f 63/63/63 62/62/62 59/59/59
f 64/64/64 62/62/62 63/63/63
f 65/65/65 64/64/64 63/63/63
f 64/64/64 65/65/65 66/66/66
f 65/65/65 67/67/67 66/66/66
f 70/70/70 69/69/69 68/68/68
f 71/71/71 70/70/70 68/68/68
f 72/72/72 71/71/71 68/68/68
f 75/75/75 74/74/74 73/73/73
f 76/76/76 75/75/75 73/73/73
f 76/76/76 73/73/73 77/77/77
f 78/78/78 76/76/76 77/77/77
f 81/81/81 80/80/80 79/79/79
f 82/82/82 81/81/81 79/79/79
f 83/83/83 81/81/81 82/82/82
f 84/84/84 83/83/83 82/82/82
f 87/87/87 86/86/86 85/85/85
f 88/88/88 87/87/87 85/85/85
f 91/91/91 90/90/90 89/89/89
f 90/90/90 92/92/92 89/89/89
f 93/93/93 92/92/92 90/90/90
f 94/94/94 93/93/93 90/90/90
f 97/97/97 96/96/96 95/95/95
f 98/98/98 97/97/97 95/95/95
f 101/101/101 100/100/100 99/99/99
f 100/100/100 102/102/102 99/99/99
f 100/100/100 103/103/103 102/102/102
f 103/103/103 104/104/104 102/102/102
f 103/103/103 105/105/105 104/104/104
f 105/105/105 106/106/106 104/104/104
f 106/106/106 105/105/105 107/107/107
f 105/105/105 108/108/108 107/107/107
f 107/107/107 108/108/108 109/109/109
f 110/110/110 107/107/107 109/109/109
f 113/113/113 112/112/112 111/111/111
f 112/112/112 114/114/114 111/111/111
f 115/115/115 114/114/114 112/112/112
f 116/116/116 115/115/115 112/112/112
f 116/116/116 117/117/117 115/115/115
f 117/117/117 118/118/118 115/115/115
f 118/118/118 117/117/117 119/119/119
f 117/117/117 120/120/120 119/119/119
f 119/119/119 120/120/120 121/121/121
f 122/122/122 119/119/119 121/121/121
f 125/125/125 124/124/124 123/123/123
f 126/126/126 125/125/125 123/123/123
f 125/125/125 126/126/126 127/127/127
f 128/128/128 125/125/125 127/127/127
f 131/131/131 130/130/130 129/129/129
f 132/132/132 131/131/131 129/129/129
f 132/132/132 129/129/129 133/133/133
f 129/129/129 134/134/134 133/133/133
f 137/137/137 136/136/136 135/135/135
f 138/138/138 137/137/137 135/135/135
f 141/141/141 140/140/140 139/139/139
f 140/140/140 142/142/142 139/139/139
f 140/140/140 143/143/143 142/142/142
f 143/143/143 144/144/144 142/142/142
f 143/143/143 145/145/145 144/144/144
f 145/145/145 146/146/146 144/144/144
f 147/147/147 146/146/146 145/145/145
f 148/148/148 147/147/147 145/145/145
f 151/151/151 150/150/150 149/149/149
f 152/152/152 151/151/151 149/149/149
f 155/155/155 154/154/154 153/153/153
f 156/156/156 155/155/155 153/153/153
f 159/159/159 158/158/158 157/157/157
f 160/160/160 159/159/159 157/157/157
f 163/163/163 162/162/162 161/161/161
f 164/164/164 163/163/163 161/161/161
f 167/167/167 166/166/166 165/165/165
f 168/168/168 167/167/167 165/165/165
f 171/171/171 170/170/170 169/169/169
f 172/172/172 171/171/171 169/169/169
f 175/175/175 174/174/174 173/173/173
f 174/174/174 176/176/176 173/173/173
f 176/176/176 177/177/177 173/173/173
f 180/180/180 179/179/179 178/178/178
f 179/179/179 181/181/181 178/178/178
f 182/182/182 178/178/178 181/181/181
f 183/183/183 182/182/182 181/181/181
f 186/186/186 185/185/185 184/184/184
f 187/187/187 186/186/186 184/184/184
f 190/190/190 189/189/189 188/188/188
f 191/191/191 190/190/190 188/188/188
