g ENV_PushPullBlock04_MO
v -2 3.0517578E-05 2
v -2 1.4999924 2
v 2 1.4999924 2
v 2 3.0517578E-05 2
v -2 1.4999924 2
v -2 1.4999924 -2
v 2 1.4999924 -2
v 2 1.4999924 2
v -2 1.4999924 -2
v -2 3.0517578E-05 -2
v 2 3.0517578E-05 -2
v 2 1.4999924 -2
v -2 3.0517578E-05 -2
v -2 3.0517578E-05 2
v 2 3.0517578E-05 2
v 2 3.0517578E-05 -2
v 2 3.0517578E-05 2
v 2 1.4999924 2
v 2 1.4999924 -2
v 2 3.0517578E-05 -2
v -2 3.0517578E-05 -2
v -2 1.4999924 -2
v -2 1.4999924 2
v -2 3.0517578E-05 2
vt -3.0000005 -0.00036644936
vt -3.0000005 1.5003052
vt 1.0003662 1.5003052
vt 1.0003662 -0.00036644936
vt -3.0000005 -0.00036644936
vt -3.0000005 4.0000005
vt 1.0003662 4.0000005
vt 1.0003662 -0.00036644936
vt -3.0000005 -0.5003054
vt -3.0000005 1.0003662
vt 1.0003662 1.0003662
vt 1.0003662 -0.5003054
vt -3.0000005 -3.0000005
vt -3.0000005 1.0003662
vt 1.0003662 1.0003662
vt 1.0003662 -3.0000005
vt -0.00036644936 -0.00036644936
vt -0.00036644936 1.5003052
vt 4.0000005 1.5003052
vt 4.0000005 -0.00036644936
vt -3.0000005 -0.00036644936
vt -3.0000005 1.5003052
vt 1.0003662 1.5003052
vt 1.0003662 -0.00036644936
vn -0.003921509 0.003921509 0.9999846
vn -0.003921509 0.003921509 0.9999846
vn -0.003921509 0.003921509 0.9999846
vn -0.003921509 0.003921509 0.9999846
vn -0.003921509 0.99999225 -0.00034526698
vn -0.003921509 0.99999225 -0.00034526698
vn -0.003921509 0.99999225 -0.00034526698
vn -0.003921509 0.99999225 -0.00034526698
vn -0.003921509 0.003921509 -0.9999846
vn -0.003921509 0.003921509 -0.9999846
vn -0.003921509 0.003921509 -0.9999846
vn -0.003921509 0.003921509 -0.9999846
vn -0.003921509 -0.9999924 -0
vn -0.003921509 -0.9999924 -0
vn -0.003921509 -0.9999924 -0
vn -0.003921509 -0.9999924 -0
vn 0.9999924 0.003921509 -0
vn 0.9999924 0.003921509 -0
vn 0.9999924 0.003921509 -0
vn 0.9999924 0.003921509 -0
vn -0.99999225 0.003921509 -0.00034492963
vn -0.99999225 0.003921509 -0.00034492963
vn -0.99999225 0.003921509 -0.00034492963
vn -0.99999225 0.003921509 -0.00034492963
g ENV_PushPullBlock04_MO_0
f 3/3/3 2/2/2 1/1/1
f 4/4/4 3/3/3 1/1/1
f 7/7/7 6/6/6 5/5/5
f 8/8/8 7/7/7 5/5/5
f 11/11/11 10/10/10 9/9/9
f 12/12/12 11/11/11 9/9/9
f 15/15/15 14/14/14 13/13/13
f 16/16/16 15/15/15 13/13/13
f 19/19/19 18/18/18 17/17/17
f 20/20/20 19/19/19 17/17/17
f 23/23/23 22/22/22 21/21/21
f 24/24/24 23/23/23 21/21/21
