g ENV_SY02_Scaffolding_Metal_MO
v 0.6948947 -1.5184529 0.28784215
v 0.75212485 1.5184526 2.3126602E-05
v 0.75212485 -1.5184529 2.3126602E-05
v 0.6948947 1.5184526 0.28784215
v 0.53182346 -1.5184529 0.5318234
v 0.53182346 1.5184526 0.5318234
v 0.28784227 -1.5184529 0.69489455
v 0.28784227 1.5184526 0.69489455
v -2.3126602E-05 -1.5184529 0.7521248
v -2.3126602E-05 1.5184526 0.7521248
v -0.28784215 -1.5184529 0.69489455
v -0.28784215 1.5184526 0.69489455
v -0.5318234 -1.5184529 0.5318234
v -0.5318234 1.5184526 0.5318234
v -0.69489455 -1.5184529 0.28784215
v -0.69489455 1.5184526 0.28784215
v -0.7521248 -1.5184529 -2.3245811E-05
v -0.7521248 1.5184526 -2.3245811E-05
v -0.69489455 -1.5184529 -0.28784227
v -0.69489455 1.5184526 -0.28784227
v -0.5318234 -1.5184529 -0.53182346
v -0.5318234 1.5184526 -0.53182346
v -0.28784215 -1.5184529 -0.6948947
v -0.28784215 1.5184526 -0.6948947
v 2.3245811E-05 -1.5184529 -0.75212485
v -2.3126602E-05 1.5184526 -0.75212485
v 0.28784227 -1.5184529 -0.6948947
v 0.28784227 1.5184526 -0.6948947
v 0.53182346 -1.5184529 -0.53182346
v 0.53182346 1.5184526 -0.53182346
v 0.6948947 -1.5184529 -0.28784227
v 0.6948947 1.5184526 -0.28784227
v 0.75212485 -1.5184529 2.3126602E-05
v 0.75212485 1.5184526 2.3126602E-05
vt 0.29988053 0.40330994
vt 0.007747479 0.43851995
vt 0.29988053 0.43851995
vt 0.007747479 0.40330994
vt 0.29988053 0.36809993
vt 0.007747479 0.36809993
vt 0.29988053 0.3328899
vt 0.007747479 0.3328899
vt 0.29988053 0.2976799
vt 0.007747479 0.2976799
vt 0.29988053 0.26246992
vt 0.007747479 0.26246992
vt 0.29988053 0.2272599
vt 0.007747479 0.2272599
vt 0.29988053 0.19204989
vt 0.007747479 0.19204989
vt 0.29988053 0.15683988
vt 0.007747479 0.15739003
vt 0.29988053 0.12218001
vt 0.007747479 0.12218001
vt 0.29988053 0.08697001
vt 0.007747479 0.08697001
vt 0.29988053 0.051759996
vt 0.007747479 0.051759996
vt 0.29988053 0.016549982
vt 0.007747479 0.016549982
vt 0.29988053 -0.018660024
vt 0.007747479 -0.018660024
vt 0.29988053 -0.053870037
vt 0.007747479 -0.053870037
vt 0.29988053 -0.08908005
vt 0.007747479 -0.08908005
vt 0.29988053 -0.12429006
vt 0.007747479 -0.12429006
vn 0.9215616 0.003921509 0.38821238
vn 0.9999924 0.003921509 -0
vn 0.9999924 0.003921509 -0
vn 0.9215616 0.003921509 0.38821238
vn 0.7097985 0.003921509 0.70439386
vn 0.7097985 0.003921509 0.70439386
vn 0.38038927 0.003921509 0.92481816
vn 0.38038927 0.003921509 0.92481816
vn -0.003921509 0.003921509 0.9999846
vn -0.003921509 0.003921509 0.9999846
vn -0.3803892 0.003921509 0.9248182
vn -0.3803892 0.003921509 0.9248182
vn -0.70979846 0.003921509 0.7043939
vn -0.70979846 0.003921509 0.7043939
vn -0.9215615 0.003921509 0.38821262
vn -0.9215615 0.003921509 0.38821262
vn -0.99999225 0.003921509 -0.00034492963
vn -0.99999225 0.003921509 -0.00034492963
vn -0.9215615 0.003921509 -0.38821262
vn -0.9215615 0.003921509 -0.38821262
vn -0.70979846 0.003921509 -0.7043939
vn -0.70979846 0.003921509 -0.7043939
vn -0.3803892 0.003921509 -0.9248182
vn -0.3803892 0.003921509 -0.9248182
vn -0.003921509 0.003921509 -0.9999846
vn -0.003921509 0.003921509 -0.9999846
vn 0.38038927 0.003921509 -0.92481816
vn 0.38038927 0.003921509 -0.92481816
vn 0.7097985 0.003921509 -0.70439386
vn 0.7097985 0.003921509 -0.70439386
vn 0.9215616 0.003921509 -0.38821238
vn 0.9215616 0.003921509 -0.38821238
vn 0.9999924 0.003921509 -0
vn 0.9999924 0.003921509 -0
g ENV_SY02_Scaffolding_Metal_MO_0
f 3/3/3 2/2/2 1/1/1
f 2/2/2 4/4/4 1/1/1
f 1/1/1 4/4/4 5/5/5
f 4/4/4 6/6/6 5/5/5
f 5/5/5 6/6/6 7/7/7
f 6/6/6 8/8/8 7/7/7
f 7/7/7 8/8/8 9/9/9
f 8/8/8 10/10/10 9/9/9
f 9/9/9 10/10/10 11/11/11
f 10/10/10 12/12/12 11/11/11
f 11/11/11 12/12/12 13/13/13
f 12/12/12 14/14/14 13/13/13
f 13/13/13 14/14/14 15/15/15
f 14/14/14 16/16/16 15/15/15
f 15/15/15 16/16/16 17/17/17
f 16/16/16 18/18/18 17/17/17
f 17/17/17 18/18/18 19/19/19
f 18/18/18 20/20/20 19/19/19
f 19/19/19 20/20/20 21/21/21
f 20/20/20 22/22/22 21/21/21
f 21/21/21 22/22/22 23/23/23
f 22/22/22 24/24/24 23/23/23
f 23/23/23 24/24/24 25/25/25
f 24/24/24 26/26/26 25/25/25
f 25/25/25 26/26/26 27/27/27
f 26/26/26 28/28/28 27/27/27
f 27/27/27 28/28/28 29/29/29
f 28/28/28 30/30/30 29/29/29
f 29/29/29 30/30/30 31/31/31
f 30/30/30 32/32/32 31/31/31
f 31/31/31 32/32/32 33/33/33
f 32/32/32 34/34/34 33/33/33
