g ENV_S05_DT_Section01_Vinyl_MidRight_MO
v -13.185031 4.283209 -6.397409
v -13.213773 3.3183603 -6.5038886
v -13.185031 3.3183603 -6.397409
v -13.213773 4.283209 -6.5038886
v -13.288243 3.3183603 -6.547656
v -13.288243 4.283209 -6.547656
v -19.531342 3.3183603 -6.547656
v -19.531342 4.283209 -6.547656
v -31.445293 4.283209 -6.397409
v -33.016357 4.3896885 -2.2682233
v -33.04706 4.283209 -2.2682233
v -31.414589 4.3896885 -6.397409
v -31.414589 4.283209 -6.5038886
v -32.941887 4.4334564 -2.2682233
v -31.400871 4.3700914 -6.484291
v -31.340122 4.4334564 -6.397409
v -26.234982 4.4334564 -2.2682233
v -25.9371 4.4334564 -6.397409
v -25.9371 4.3896885 -6.5038886
v -31.340122 4.3896885 -6.5038886
v -31.414589 4.283209 -6.5038886
v -25.9371 4.283209 -6.547656
v -31.340122 4.283209 -6.547656
v -31.340122 4.283209 -6.547656
v -31.414589 4.283209 -6.5038886
v -31.414589 3.3183603 -6.5038886
v -31.340122 3.3183603 -6.547656
v -25.9371 4.283209 -6.547656
v -25.9371 3.3183603 -6.547656
v -31.414589 4.283209 -6.5038886
v -31.445293 4.283209 -6.397409
v -31.445293 3.3183603 -6.397409
v -31.414589 3.3183603 -6.5038886
v -36.263004 4.283209 5.9901485
v -36.2323 4.283209 6.095975
v -36.2323 3.3183603 6.095975
v -36.263004 3.3183603 5.9901485
v -36.2323 4.283209 6.095975
v -36.15783 3.3183603 6.139742
v -36.2323 3.3183603 6.095975
v -36.15783 4.283209 6.139742
v -26.831398 3.3183603 6.139742
v -26.831398 4.283209 6.139742
v -36.15783 4.283209 6.139742
v -26.831398 4.3896885 6.095975
v -26.831398 4.283209 6.139742
v -36.15783 4.3896885 6.095975
v -36.2323 4.283209 6.095975
v -36.218582 4.3700914 6.076377
v -26.831398 4.4334564 5.9901485
v -36.2323 4.3896885 5.9901485
v -36.2323 4.283209 6.095975
v -36.263004 4.283209 5.9901485
v -34.62531 4.283209 1.8609629
v -34.594604 4.3896885 1.8609629
v -36.15783 4.4334564 5.9901485
v -34.520134 4.4334564 1.8609629
v -26.530903 4.4334564 1.8609629
v -13.213773 4.283209 6.095975
v -13.185031 4.283209 5.9901485
v -13.185031 3.3183603 5.9901485
v -13.213773 3.3183603 6.095975
v -13.288243 4.283209 6.139742
v -13.288243 3.3183603 6.139742
v -19.531342 3.3183603 6.139742
v -19.531342 4.283209 6.139742
v -31.445293 4.283209 -6.397409
v -33.04706 4.283209 -2.2682233
v -33.04706 3.3183603 -2.2682233
v -31.445293 3.3183603 -6.397409
v -13.288243 4.283209 -6.547656
v -19.531342 4.3896885 -6.5038886
v -19.531342 4.283209 -6.547656
v -13.288243 4.3896885 -6.5038886
v -13.213773 4.283209 -6.5038886
v -19.531342 4.4334564 -6.397409
v -13.227492 4.3700914 -6.484291
v -13.213773 4.3896885 -6.397409
v -13.185031 4.283209 -6.397409
v -13.185031 4.283209 -2.2682233
v -13.213773 4.3896885 -2.2682233
v -13.288243 4.4334564 -6.397409
v -13.288243 4.4334564 -2.2682233
v -19.531342 4.4334564 -2.2682233
v -19.531342 4.283209 -6.547656
v -25.9371 4.283209 -6.547656
v -25.9371 3.3183603 -6.547656
v -19.531342 3.3183603 -6.547656
v -19.531342 4.283209 -6.547656
v -25.9371 4.3896885 -6.5038886
v -25.9371 4.283209 -6.547656
v -19.531342 4.3896885 -6.5038886
v -25.9371 4.4334564 -6.397409
v -19.531342 4.4334564 -6.397409
v -19.531342 4.4334564 -2.2682233
v -26.234982 4.4334564 -2.2682233
v -26.831398 4.283209 6.139742
v -19.531342 4.3896885 6.095975
v -19.531342 4.283209 6.139742
v -26.831398 4.3896885 6.095975
v -19.531342 4.4334564 5.9901485
v -26.831398 4.4334564 5.9901485
v -26.530903 4.4334564 1.8609629
v -19.531342 4.4334564 1.8609629
v -26.831398 3.3183603 6.139742
v -26.831398 4.283209 6.139742
v -19.531342 4.283209 6.139742
v -19.531342 3.3183603 6.139742
v -13.213773 4.3896885 1.8609629
v -13.185031 4.283209 1.8609629
v -13.185031 4.283209 5.9901485
v -13.213773 4.3896885 5.9901485
v -13.288243 4.4334564 1.8609629
v -13.213773 4.283209 6.095975
v -13.288243 4.4334564 5.9901485
v -19.531342 4.4334564 1.8609629
v -19.531342 4.4334564 5.9901485
v -19.531342 4.3896885 6.095975
v -13.288243 4.3896885 6.095975
v -19.531342 4.283209 6.139742
v -13.288243 4.283209 6.139742
v -13.227492 4.3700914 6.076377
v -34.62531 3.3183603 1.8609629
v -34.62531 4.283209 1.8609629
v -36.263004 4.283209 5.9901485
v -36.263004 3.3183603 5.9901485
v -13.213773 4.3896885 -2.2682233
v -13.185031 4.283209 -2.2682233
v -13.185031 4.283209 1.8609629
v -13.213773 4.3896885 1.8609629
v -13.288243 4.4334564 -2.2682233
v -13.288243 4.4334564 1.8609629
v -19.531342 4.4334564 -2.2682233
v -19.531342 4.4334564 1.8609629
v -19.531342 4.4334564 1.8609629
v -26.530903 4.4334564 1.8609629
v -26.234982 4.4334564 -2.2682233
v -19.531342 4.4334564 -2.2682233
v -26.530903 4.4334564 1.8609629
v -32.941887 4.4334564 -2.2682233
v -26.234982 4.4334564 -2.2682233
v -34.520134 4.4334564 1.8609629
v -33.016357 4.3896885 -2.2682233
v -34.594604 4.3896885 1.8609629
v -33.04706 4.283209 -2.2682233
v -34.62531 4.283209 1.8609629
v -33.04706 3.3183603 -2.2682233
v -33.04706 4.283209 -2.2682233
v -34.62531 4.283209 1.8609629
v -34.62531 3.3183603 1.8609629
vt 0.74872303 0.51232266
vt 0.6375866 0.51891553
vt 0.6375866 0.51232266
vt 0.74872303 0.51891553
vt 0.6375866 0.5264503
vt 0.74872303 0.5264503
vt 0.6375866 0.9314387
vt 0.74872303 0.9314387
vt 0.48312593 0.50949717
vt 0.30229378 0.5113809
vt 0.30229378 0.50667167
vt 0.48218405 0.51514816
vt 0.48877692 0.51326454
vt 0.30229378 0.5170319
vt 0.48689318 0.51514816
vt 0.48218405 0.5198574
vt 0.30229378 0.80146563
vt 0.48124218 0.80146563
vt 0.48595142 0.8005239
vt 0.48689318 0.5198574
vt 0.48877692 0.51326454
vt 0.49066055 0.8005239
vt 0.49160242 0.51891553
vt 0.6404121 0.5311594
vt 0.6404121 0.5236248
vt 0.7468393 0.5236248
vt 0.7468393 0.5311594
vt 0.6432376 0.9399152
vt 0.74872303 0.9389734
vt 0.6404121 0.5236248
vt 0.6404121 0.5170319
vt 0.7468393 0.51609004
vt 0.7468393 0.5236248
vt 0.63570297 0.98323953
vt 0.63570297 0.9766468
vt 0.74589753 0.9766468
vt 0.74589753 0.98323953
vt 0.63570297 0.9766468
vt 0.74589753 0.96911204
vt 0.74589753 0.9766468
vt 0.63570297 0.96911204
vt 0.74589753 0.58013475
vt 0.63570297 0.58013475
vt 0.014092684 0.5198574
vt 0.014092684 0.7741525
vt 0.0093835 0.7741525
vt 0.018801868 0.52079916
vt 0.016918182 0.5142064
vt 0.018801868 0.5170319
vt 0.018801868 0.7741525
vt 0.02256918 0.51609004
vt 0.016918182 0.5142064
vt 0.02256918 0.5113809
vt 0.18362272 0.5085554
vt 0.18362272 0.51326454
vt 0.023510993 0.52079916
vt 0.18362272 0.51797366
vt 0.18456459 0.77886164
vt 0.63287747 0.51797366
vt 0.63287747 0.51043904
vt 0.754374 0.51043904
vt 0.754374 0.51797366
vt 0.63287747 0.52456653
vt 0.754374 0.52456653
vt 0.754374 0.91636944
vt 0.63287747 0.91636944
vt 0.7496648 0.50949717
vt 0.7496648 0.7741525
vt 0.6422957 0.7741525
vt 0.6422957 0.50949717
vt 0.48689318 0.9757049
vt 0.49066055 0.6969222
vt 0.49536967 0.69786394
vt 0.48124218 0.97476304
vt 0.48312593 0.9813559
vt 0.48500955 0.6969222
vt 0.48030043 0.9785304
vt 0.4774748 0.9794723
vt 0.47841668 0.9841814
vt 0.3013519 0.9907743
vt 0.30041015 0.9851233
vt 0.47653306 0.97476304
vt 0.30041015 0.98041403
vt 0.30041015 0.68844557
vt 0.74024653 0.5528215
vt 0.73647916 0.92955506
vt 0.63287747 0.92955506
vt 0.6366447 0.55187976
vt 0.49066055 0.8890562
vt 0.48500955 0.6008551
vt 0.49066055 0.6008551
vt 0.48500955 0.8890562
vt 0.48030043 0.6008551
vt 0.48030043 0.8890562
vt 0.29758465 0.8890562
vt 0.29758465 0.6008551
vt 0.014092684 0.60744786
vt 0.018801868 0.8589175
vt 0.014092684 0.8589175
vt 0.018801868 0.60744786
vt 0.023510993 0.8589175
vt 0.023510993 0.60744786
vt 0.18268096 0.60744786
vt 0.18268096 0.8589175
vt 0.6686671 0.55187976
vt 0.7129333 0.55187976
vt 0.7129333 0.8871726
vt 0.66960895 0.8871726
vt 0.19492471 0.98323953
vt 0.19492471 0.9879488
vt 0.019743681 0.9851233
vt 0.020685494 0.98041403
vt 0.19586658 0.9785304
vt 0.014092684 0.9822978
vt 0.020685494 0.9757049
vt 0.19492471 0.7025732
vt 0.021627367 0.7025732
vt 0.016918182 0.7025732
vt 0.01597637 0.9757049
vt 0.012208998 0.70351493
vt 0.011267185 0.9766468
vt 0.01597637 0.9794723
vt 0.7440138 0.98041403
vt 0.63852847 0.98041403
vt 0.63852847 0.64700496
vt 0.7440138 0.64700496
vt 0.33431613 0.9870069
vt 0.33431613 0.991716
vt 0.15819323 0.991716
vt 0.15819323 0.9870069
vt 0.33431613 0.9822978
vt 0.15819323 0.9822978
vt 0.33431613 0.7044568
vt 0.15819323 0.7044568
vt 0.16101873 0.89093983
vt 0.16101873 0.61121523
vt 0.33902526 0.61121523
vt 0.33902526 0.89093983
vt 0.18079722 0.78451264
vt 0.35032737 0.5170319
vt 0.35126913 0.78451264
vt 0.18079722 0.5170319
vt 0.35032737 0.51232266
vt 0.18079722 0.51232266
vt 0.35032737 0.50761354
vt 0.18079722 0.50761354
vt 0.7195262 0.85703385
vt 0.6630161 0.85703385
vt 0.6630161 0.58013475
vt 0.7195262 0.58013475
vn 0.9757902 0.20968395 -0.06217829
vn 0.8208263 0.0004826188 -0.57117766
vn 0.968042 0.0004826188 -0.2507876
vn 0.8208263 0.023727179 -0.57068485
vn 0.007265568 0.0004826188 -0.9999735
vn 0.007265568 0.03922361 -0.99920404
vn -0.0004826188 0.0004826188 -0.99999976
vn -0.0004826188 0.03922361 -0.9992303
vn -0.9302662 0.031475365 -0.36553264
vn -0.7830505 0.5506045 -0.28925177
vn -0.9302662 0.023727179 -0.36611724
vn -0.75205773 0.5893455 -0.29509494
vn -0.8140432 0.023727179 -0.58031946
vn -0.008230528 0.9999662 -0
vn -0.71331674 0.49636716 -0.49477154
vn -0.008230528 0.9999662 -0
vn -0.0004826188 0.99999994 -0
vn -0.0004826188 0.99999994 -0
vn -0.0004826188 0.7055685 -0.7086415
vn -0.008230805 0.7055685 -0.7085939
vn -0.8140432 0.023727179 -0.58031946
vn -0.0004826188 0.03922361 -0.9992303
vn -0.008230805 0.03922361 -0.9991965
vn -0.008230805 0.03922361 -0.9991965
vn -0.8140432 0.023727179 -0.58031946
vn -0.82179147 0.0004826188 -0.56978816
vn -0.008230805 0.0004826188 -0.99996597
vn -0.0004826188 0.03922361 -0.9992303
vn -0.0004826188 0.0004826188 -0.99999976
vn -0.8140432 0.023727179 -0.58031946
vn -0.9302662 0.031475365 -0.36553264
vn -0.9302662 0.0004826188 -0.36688495
vn -0.82179147 0.0004826188 -0.56978816
vn -0.93801445 0.023727179 -0.345783
vn -0.8140432 0.023727179 0.58031946
vn -0.82179147 0.0004826188 0.56978816
vn -0.93801445 0.0004826188 -0.3465958
vn -0.8140432 0.023727179 0.58031946
vn -0.008230805 0.0004826188 0.99996597
vn -0.82179147 0.0004826188 0.56978816
vn -0.008230805 0.03922361 0.9991965
vn -0.0004826188 0.0004826188 0.99999976
vn -0.0004826188 0.03922361 0.9992303
vn -0.008230805 0.03922361 0.9991965
vn -0.0004826188 0.7055685 0.7086415
vn -0.0004826188 0.03922361 0.9992303
vn -0.0004826188 0.7055685 0.7086415
vn -0.8140432 0.023727179 0.58031946
vn -0.71331674 0.49636716 0.49477154
vn -0.0004826188 0.99999994 -0
vn -0.8062951 0.5041154 -0.30944446
vn -0.8140432 0.023727179 0.58031946
vn -0.93801445 0.023727179 -0.345783
vn -0.9302662 0.023727179 -0.36611724
vn -0.7830505 0.5506045 -0.28925177
vn -0.008230528 0.9999662 -0
vn -0.008230528 0.9999662 -0
vn -0.0004826188 0.99999994 -0
vn 0.8208263 0.023727179 0.57068485
vn 0.9757902 0.20968395 0.06217829
vn 0.968042 0.0004826188 0.2507876
vn 0.8208263 0.0004826188 0.57117766
vn 0.007265568 0.03922361 0.99920404
vn 0.007265568 0.0004826188 0.9999735
vn -0.0004826188 0.0004826188 0.99999976
vn -0.0004826188 0.03922361 0.9992303
vn -0.9302662 0.031475365 -0.36553264
vn -0.9302662 0.023727179 -0.36611724
vn -0.9302662 0.0004826188 -0.36688495
vn -0.9302662 0.0004826188 -0.36688495
vn 0.007265568 0.03922361 -0.99920404
vn -0.0004826188 0.7055685 -0.7086415
vn -0.0004826188 0.03922361 -0.9992303
vn 0.007265568 0.7055685 -0.70860445
vn 0.8208263 0.023727179 -0.57068485
vn -0.0004826188 0.99999994 -0
vn 0.7200997 0.49636716 -0.48484647
vn 0.8208263 0.566101 -0.07598561
vn 0.9757902 0.20968395 -0.06217829
vn 0.96672326 0.2558241 -0
vn 0.8208263 0.566101 -0.07598561
vn 0.0072653764 0.9999736 -0
vn 0.0072653764 0.9999736 -0
vn -0.0004826188 0.99999994 -0
vn -0.0004826188 0.03922361 -0.9992303
vn -0.0004826188 0.03922361 -0.9992303
vn -0.0004826188 0.0004826188 -0.99999976
vn -0.0004826188 0.0004826188 -0.99999976
vn -0.0004826188 0.03922361 -0.9992303
vn -0.0004826188 0.7055685 -0.7086415
vn -0.0004826188 0.03922361 -0.9992303
vn -0.0004826188 0.7055685 -0.7086415
vn -0.0004826188 0.99999994 -0
vn -0.0004826188 0.99999994 -0
vn -0.0004826188 0.99999994 -0
vn -0.0004826188 0.99999994 -0
vn -0.0004826188 0.03922361 0.9992303
vn -0.0004826188 0.7055685 0.7086415
vn -0.0004826188 0.03922361 0.9992303
vn -0.0004826188 0.7055685 0.7086415
vn -0.0004826188 0.99999994 -0
vn -0.0004826188 0.99999994 -0
vn -0.0004826188 0.99999994 -0
vn -0.0004826188 0.99999994 -0
vn -0.0004826188 0.0004826188 0.99999976
vn -0.0004826188 0.03922361 0.9992303
vn -0.0004826188 0.03922361 0.9992303
vn -0.0004826188 0.0004826188 0.99999976
vn 0.8208263 0.566101 -0.07598561
vn 0.96672326 0.2558241 -0
vn 0.9757902 0.20968395 0.06217829
vn 0.8208263 0.566101 0.07598561
vn 0.0072653764 0.9999736 -0
vn 0.8208263 0.023727179 0.57068485
vn 0.0072653764 0.9999736 -0
vn -0.0004826188 0.99999994 -0
vn -0.0004826188 0.99999994 -0
vn -0.0004826188 0.7055685 0.7086415
vn 0.007265568 0.7055685 0.70860445
vn -0.0004826188 0.03922361 0.9992303
vn 0.007265568 0.03922361 0.99920404
vn 0.7200997 0.49636716 0.48484647
vn -0.9302662 0.0004826188 -0.36688495
vn -0.9302662 0.023727179 -0.36611724
vn -0.93801445 0.023727179 -0.345783
vn -0.93801445 0.0004826188 -0.3465958
vn 0.8208263 0.566101 -0.07598561
vn 0.96672326 0.2558241 -0
vn 0.96672326 0.2558241 -0
vn 0.8208263 0.566101 -0.07598561
vn 0.0072653764 0.9999736 -0
vn 0.0072653764 0.9999736 -0
vn -0.0004826188 0.99999994 -0
vn -0.0004826188 0.99999994 -0
vn -0.0004826188 0.99999994 -0
vn -0.0004826188 0.99999994 -0
vn -0.0004826188 0.99999994 -0
vn -0.0004826188 0.99999994 -0
vn -0.0004826188 0.99999994 -0
vn -0.008230528 0.9999662 -0
vn -0.0004826188 0.99999994 -0
vn -0.008230528 0.9999662 -0
vn -0.7830505 0.5506045 -0.28925177
vn -0.7830505 0.5506045 -0.28925177
vn -0.9302662 0.023727179 -0.36611724
vn -0.9302662 0.023727179 -0.36611724
vn -0.9302662 0.0004826188 -0.36688495
vn -0.9302662 0.023727179 -0.36611724
vn -0.9302662 0.023727179 -0.36611724
vn -0.9302662 0.0004826188 -0.36688495
g ENV_S05_DT_Section01_Vinyl_MidRight_MO_0
f 3/3/3 2/2/2 1/1/1
f 2/2/2 4/4/4 1/1/1
f 2/2/2 5/5/5 4/4/4
f 5/5/5 6/6/6 4/4/4
f 5/5/5 7/7/7 6/6/6
f 7/7/7 8/8/8 6/6/6
f 11/11/11 10/10/10 9/9/9
f 10/10/10 12/12/12 9/9/9
f 13/13/13 9/9/9 12/12/12
f 10/10/10 14/14/14 12/12/12
f 15/15/15 13/13/13 12/12/12
f 14/14/14 16/16/16 12/12/12
f 16/16/16 14/14/14 17/17/17
f 18/18/18 16/16/16 17/17/17
f 16/16/16 18/18/18 19/19/19
f 15/15/15 12/12/12 20/20/20
f 12/12/12 16/16/16 20/20/20
f 20/20/20 16/16/16 19/19/19
f 15/15/15 20/20/20 21/21/21
f 20/20/20 19/19/19 22/22/22
f 20/20/20 23/23/23 21/21/21
f 23/23/23 20/20/20 22/22/22
f 26/26/26 25/25/25 24/24/24
f 27/27/27 26/26/26 24/24/24
f 27/27/27 24/24/24 28/28/28
f 29/29/29 27/27/27 28/28/28
f 32/32/32 31/31/31 30/30/30
f 33/33/33 32/32/32 30/30/30
f 36/36/36 35/35/35 34/34/34
f 37/37/37 36/36/36 34/34/34
f 40/40/40 39/39/39 38/38/38
f 39/39/39 41/41/41 38/38/38
f 39/39/39 42/42/42 41/41/41
f 42/42/42 43/43/43 41/41/41
f 46/46/46 45/45/45 44/44/44
f 45/45/45 47/47/47 44/44/44
f 48/48/48 44/44/44 47/47/47
f 49/49/49 48/48/48 47/47/47
f 45/45/45 50/50/50 47/47/47
f 49/49/49 47/47/47 51/51/51
f 49/49/49 51/51/51 52/52/52
f 51/51/51 53/53/53 52/52/52
f 53/53/53 51/51/51 54/54/54
f 51/51/51 55/55/55 54/54/54
f 47/47/47 56/56/56 51/51/51
f 51/51/51 56/56/56 55/55/55
f 50/50/50 56/56/56 47/47/47
f 56/56/56 57/57/57 55/55/55
f 57/57/57 56/56/56 50/50/50
f 58/58/58 57/57/57 50/50/50
f 61/61/61 60/60/60 59/59/59
f 62/62/62 61/61/61 59/59/59
f 62/62/62 59/59/59 63/63/63
f 64/64/64 62/62/62 63/63/63
f 64/64/64 63/63/63 65/65/65
f 63/63/63 66/66/66 65/65/65
f 69/69/69 68/68/68 67/67/67
f 70/70/70 69/69/69 67/67/67
f 73/73/73 72/72/72 71/71/71
f 72/72/72 74/74/74 71/71/71
f 75/75/75 71/71/71 74/74/74
f 72/72/72 76/76/76 74/74/74
f 77/77/77 75/75/75 74/74/74
f 77/77/77 78/78/78 75/75/75
f 77/77/77 74/74/74 78/78/78
f 78/78/78 79/79/79 75/75/75
f 80/80/80 79/79/79 78/78/78
f 81/81/81 80/80/80 78/78/78
f 74/74/74 82/82/82 78/78/78
f 81/81/81 78/78/78 82/82/82
f 76/76/76 82/82/82 74/74/74
f 83/83/83 81/81/81 82/82/82
f 82/82/82 76/76/76 83/83/83
f 76/76/76 84/84/84 83/83/83
f 87/87/87 86/86/86 85/85/85
f 88/88/88 87/87/87 85/85/85
f 91/91/91 90/90/90 89/89/89
f 90/90/90 92/92/92 89/89/89
f 90/90/90 93/93/93 92/92/92
f 93/93/93 94/94/94 92/92/92
f 94/94/94 93/93/93 95/95/95
f 93/93/93 96/96/96 95/95/95
f 99/99/99 98/98/98 97/97/97
f 98/98/98 100/100/100 97/97/97
f 98/98/98 101/101/101 100/100/100
f 101/101/101 102/102/102 100/100/100
f 103/103/103 102/102/102 101/101/101
f 104/104/104 103/103/103 101/101/101
f 107/107/107 106/106/106 105/105/105
f 108/108/108 107/107/107 105/105/105
f 111/111/111 110/110/110 109/109/109
f 112/112/112 111/111/111 109/109/109
f 112/112/112 109/109/109 113/113/113
f 114/114/114 111/111/111 112/112/112
f 115/115/115 112/112/112 113/113/113
f 113/113/113 116/116/116 115/115/115
f 116/116/116 117/117/117 115/115/115
f 115/115/115 117/117/117 118/118/118
f 119/119/119 115/115/115 118/118/118
f 112/112/112 115/115/115 119/119/119
f 119/119/119 118/118/118 120/120/120
f 121/121/121 119/119/119 120/120/120
f 119/119/119 121/121/121 114/114/114
f 122/122/122 114/114/114 112/112/112
f 122/122/122 119/119/119 114/114/114
f 122/122/122 112/112/112 119/119/119
f 125/125/125 124/124/124 123/123/123
f 126/126/126 125/125/125 123/123/123
f 129/129/129 128/128/128 127/127/127
f 130/130/130 129/129/129 127/127/127
f 130/130/130 127/127/127 131/131/131
f 132/132/132 130/130/130 131/131/131
f 131/131/131 133/133/133 132/132/132
f 133/133/133 134/134/134 132/132/132
f 137/137/137 136/136/136 135/135/135
f 138/138/138 137/137/137 135/135/135
f 141/141/141 140/140/140 139/139/139
f 140/140/140 142/142/142 139/139/139
f 142/142/142 140/140/140 143/143/143
f 144/144/144 142/142/142 143/143/143
f 144/144/144 143/143/143 145/145/145
f 146/146/146 144/144/144 145/145/145
f 149/149/149 148/148/148 147/147/147
f 150/150/150 149/149/149 147/147/147
