g ENV_SY02_HW_WaterBiome_VinylBlock04_MO
v -27.05006 0.88908786 27.887411
v -26.983534 3.654826 27.929544
v -26.983534 0.88908786 27.929544
v -27.05006 3.654826 27.887411
v -27.035868 3.6987336 27.882532
v -26.986639 3.6907504 27.918457
v -27.5703 3.6987336 27.402653
v -27.582273 3.654826 27.409306
v -27.582273 0.88908786 27.409306
v -29.360312 3.6987336 25.794922
v -29.364304 3.654826 25.80734
v -29.364304 0.88908786 25.80734
v -29.8841 3.6987336 25.3248
v -29.885874 3.654826 25.338993
v -29.885874 0.88908786 25.338993
v -29.936434 0.88908786 25.277788
v -29.936434 3.654826 25.277788
v -29.926233 3.6907504 25.280449
v -26.948496 3.6987336 27.917568
v -26.407856 3.6987336 27.734398
v -26.382576 3.654826 27.756575
v -26.926764 3.654826 27.937084
v -26.382576 0.88908786 27.756575
v -26.926764 0.88908786 27.937084
v -26.983534 0.88908786 27.929544
v -26.983534 3.654826 27.929544
v -26.986639 3.6907504 27.918457
v -29.932886 3.6987336 25.243637
v -29.876116 3.6987336 24.715858
v -29.81491 3.7169175 24.769081
v -29.880108 3.7169175 25.291094
v -29.8841 3.6987336 25.3248
v -29.926233 3.6907504 25.280449
v -29.360312 3.6987336 25.794922
v -29.350555 3.7169175 25.765207
v -29.19976 3.7169175 25.3044
v -27.5703 3.6987336 27.402653
v -27.541471 3.7169175 27.386242
v -27.097073 3.7169175 27.134771
v -27.035868 3.6987336 27.882532
v -27.001274 3.7169175 27.870113
v -26.46906 3.7169175 27.681177
v -26.407856 3.6987336 27.734398
v -26.948496 3.6987336 27.917568
v -26.986639 3.6907504 27.918457
v -29.936434 3.654826 25.277788
v -29.936434 0.88908786 25.277788
v -29.954618 0.88908786 25.224123
v -29.954618 3.654826 25.224123
v -29.932886 3.6987336 25.243637
v -29.926233 3.6907504 25.280449
v -29.876116 3.6987336 24.715858
v -29.90184 3.654826 24.693684
v -29.90184 0.88908786 24.693684
v -29.726652 3.654826 23.317911
v -29.726652 0.88908786 23.317911
v -29.640612 0.88908786 23.373793
v -29.640612 3.654826 23.373793
v -29.642385 3.6987336 23.387543
v -29.712017 3.6907504 23.33698
v -28.800158 3.6987336 24.085186
v -28.796165 3.654826 24.072767
v -28.796165 0.88908786 24.072767
v -25.920437 3.6987336 26.46906
v -25.908463 3.654826 26.461964
v -25.908463 0.88908786 26.461964
v -25.060467 3.6987336 27.180452
v -25.046276 3.654826 27.175573
v -25.046276 0.88908786 27.175573
v -24.976645 0.88908786 27.250084
v -24.976645 3.654826 27.250084
v -24.998377 3.6907504 27.239439
v -24.976645 3.654826 27.250084
v -24.976645 0.88908786 27.250084
v -24.977087 0.88908786 27.290888
v -24.977087 3.654826 27.290888
v -25.01168 3.6987336 27.262058
v -24.998377 3.6907504 27.239439
v -25.483133 3.6987336 27.421722
v -25.451645 3.654826 27.447891
v -26.407856 3.6987336 27.734398
v -25.451645 0.88908786 27.447891
v -26.382576 3.654826 27.756575
v -26.382576 0.88908786 27.756575
v -29.730202 3.6987336 23.352505
v -29.712017 3.6907504 23.33698
v -29.642385 3.6987336 23.387543
v -29.64682 3.7169175 23.421692
v -29.77943 3.6987336 23.81287
v -28.809914 3.7169175 24.1149
v -28.800158 3.6987336 24.085186
v -29.70359 3.7169175 23.876736
v -29.876116 3.6987336 24.715858
v -29.81491 3.7169175 24.769081
v -28.941637 3.7169175 24.516722
v -29.19976 3.7169175 25.3044
v -27.097073 3.7169175 27.134771
v -26.336893 3.7169175 26.704565
v -26.46906 3.7169175 27.681177
v -25.949265 3.7169175 26.485027
v -25.920437 3.6987336 26.46906
v -25.558975 3.7169175 27.357857
v -25.095062 3.7169175 27.192871
v -25.060467 3.6987336 27.180452
v -25.01168 3.6987336 27.262058
v -24.998377 3.6907504 27.239439
v -25.483133 3.6987336 27.421722
v -26.407856 3.6987336 27.734398
v -29.726652 3.654826 23.317911
v -29.712017 3.6907504 23.33698
v -29.730202 3.6987336 23.352505
v -29.764795 3.654826 23.323677
v -29.726652 0.88908786 23.317911
v -29.764795 0.88908786 23.323677
v -29.81092 0.88908786 23.786259
v -29.81092 3.654826 23.786259
v -29.90184 0.88908786 24.693684
v -29.77943 3.6987336 23.81287
v -29.90184 3.654826 24.693684
v -29.876116 3.6987336 24.715858
vt 0.4718696 0.51604396
vt 0.4805124 0.97411275
vt 0.4805124 0.51604396
vt 0.4718696 0.97411275
vt 0.4718696 0.98275554
vt 0.4805124 0.98275554
vt 0.33070374 0.98275554
vt 0.33070374 0.97411275
vt 0.33070374 0.51604396
vt 0.17513317 0.98275554
vt 0.17513317 0.97411275
vt 0.17513317 0.51604396
vt 0.02244357 0.98275554
vt 0.02244357 0.97411275
vt 0.02244357 0.51604396
vt 0.013800763 0.51604396
vt 0.013800763 0.97411275
vt 0.013800763 0.98275554
vt 0.018602323 0.98563653
vt 0.16937129 0.98563653
vt 0.16937129 0.9769937
vt 0.018602323 0.9769937
vt 0.16937129 0.5275677
vt 0.018602323 0.5275677
vt 0.009959514 0.5275677
vt 0.009959514 0.9769937
vt 0.009959514 0.98563653
vt 0.4795521 0.9798746
vt 0.4795521 0.83102626
vt 0.47090927 0.83102626
vt 0.47090927 0.9798746
vt 0.47090927 0.98851746
vt 0.4795521 0.98851746
vt 0.3287831 0.98851746
vt 0.3287831 0.9798746
vt 0.3287831 0.83102626
vt 0.17225224 0.98851746
vt 0.17225224 0.9798746
vt 0.17225224 0.83102626
vt 0.01764201 0.98851746
vt 0.01764201 0.9798746
vt 0.01764201 0.83102626
vt 0.008999202 0.83102626
vt 0.008999202 0.9798746
vt 0.008999202 0.98851746
vt 0.4795521 0.97795403
vt 0.4795521 0.5150836
vt 0.47090927 0.5150836
vt 0.47090927 0.97795403
vt 0.47090927 0.9865968
vt 0.4795521 0.9865968
vt 0.3278228 0.9865968
vt 0.3278228 0.97795403
vt 0.3278228 0.5150836
vt 0.48627427 0.98083496
vt 0.48627427 0.5227661
vt 0.47763145 0.5227661
vt 0.47763145 0.98083496
vt 0.47763145 0.98947775
vt 0.48627427 0.98947775
vt 0.33262435 0.98947775
vt 0.33262435 0.98083496
vt 0.33262435 0.5227661
vt 0.17321254 0.98947775
vt 0.17321254 0.98083496
vt 0.17321254 0.5227661
vt 0.015721386 0.98947775
vt 0.015721386 0.98083496
vt 0.015721386 0.5227661
vt 0.007078578 0.5227661
vt 0.007078578 0.98083496
vt 0.007078578 0.98947775
vt 0.47475052 0.9769937
vt 0.47475052 0.5275677
vt 0.46610773 0.5275677
vt 0.46610773 0.9769937
vt 0.46610773 0.98563653
vt 0.47475052 0.98563653
vt 0.40464774 0.98563653
vt 0.40464774 0.9769937
vt 0.3287831 0.98563653
vt 0.40464774 0.5275677
vt 0.3287831 0.9769937
vt 0.3287831 0.5275677
vt 0.4795521 0.53236926
vt 0.4795521 0.52372646
vt 0.47090927 0.52372646
vt 0.47090927 0.53236926
vt 0.4795521 0.5919086
vt 0.3287831 0.53236926
vt 0.3287831 0.52372646
vt 0.47090927 0.5919086
vt 0.4795521 0.66873354
vt 0.47090927 0.66873354
vt 0.3287831 0.5919086
vt 0.3287831 0.66873354
vt 0.17225224 0.66873354
vt 0.17225224 0.5919086
vt 0.01764201 0.66873354
vt 0.17225224 0.53236926
vt 0.17225224 0.52372646
vt 0.01764201 0.5919086
vt 0.01764201 0.53236926
vt 0.01764201 0.52372646
vt 0.008999202 0.53236926
vt 0.008999202 0.52372646
vt 0.008999202 0.5919086
vt 0.008999202 0.66873354
vt 0.008999202 0.97795403
vt 0.008999202 0.9865968
vt 0.018602323 0.9865968
vt 0.018602323 0.97795403
vt 0.008999202 0.5150836
vt 0.018602323 0.5150836
vt 0.09446697 0.5150836
vt 0.09446697 0.97795403
vt 0.17321254 0.5150836
vt 0.09446697 0.9865968
vt 0.17321254 0.97795403
vt 0.17321254 0.9865968
vn -0.6576674 0.0021412373 0.7533054
vn -0.3736061 0.0021412373 0.927585
vn -0.3736061 0.0021412373 0.927585
vn -0.6576674 0.0021412373 0.7533054
vn -0.51199484 0.63581645 0.57758003
vn -0.32990432 0.5192785 0.7883609
vn -0.54112935 0.5921147 0.5971426
vn -0.66495097 0.0021412373 0.7468839
vn -0.66495097 0.0021412373 0.7468839
vn -0.54112935 0.5848311 0.6042778
vn -0.66495097 0.0021412373 0.7468839
vn -0.66495097 0.0021412373 0.7468839
vn -0.54112935 0.5993984 0.58983105
vn -0.6795182 0.0021412373 0.7336555
vn -0.6795182 0.0021412373 0.7336555
vn -0.8543252 0.0021412373 0.51973444
vn -0.86160886 0.0021412373 0.5075683
vn -0.7523545 0.4682932 0.46331868
vn 0.14353126 0.86889243 0.47373486
vn 0.15809852 0.8761761 0.45532435
vn 0.31833822 0.009424865 0.94793034
vn 0.2746365 0.009424865 0.96150196
vn 0.3110546 0.0021412373 0.9503896
vn 0.2746365 0.0021412373 0.96154577
vn -0.3736061 0.0021412373 0.927585
vn -0.3736061 0.0021412373 0.927585
vn -0.32990432 0.5192785 0.7883609
vn -0.5047113 0.86160886 -0.053821243
vn -0.4968297 0.86784804 -0
vn -0.0167062 0.9998604 -0
vn -0.023985216 0.9997123 -0
vn -0.54112935 0.5993984 0.58983105
vn -0.7523545 0.4682932 0.46331868
vn -0.54112935 0.5848311 0.6042778
vn -0.0167062 0.9998604 -0
vn -0.0021412373 0.9999976 -0.00042286396
vn -0.54112935 0.5921147 0.5971426
vn -0.0167062 0.9998604 -0
vn -0.0021412373 0.9999976 -0.00042286396
vn -0.51199484 0.63581645 0.57758003
vn -0.009424469 0.99995565 -0
vn 0.005142335 0.99998677 -0
vn 0.15809852 0.8761761 0.45532435
vn 0.14353126 0.86889243 0.47373486
vn -0.32990432 0.5192785 0.7883609
vn -0.86160886 0.0021412373 0.5075683
vn -0.8543252 0.0021412373 0.51973444
vn -0.9999976 0.0021412373 -0.0004283394
vn -0.99995565 0.009424469 -0
vn -0.5047113 0.86160886 -0.053821243
vn -0.7523545 0.4682932 0.46331868
vn -0.4968297 0.86784804 -0
vn -0.99271405 0.009424865 -0.12012481
vn -0.99271405 0.0021412373 -0.12047494
vn 0.3766072 0.0021412373 -0.92637056
vn 0.3766072 0.0021412373 -0.92637056
vn 0.63153404 0.0021412373 -0.7753452
vn 0.63153404 0.0021412373 -0.7753452
vn 0.54413056 0.490144 -0.68094105
vn 0.32562184 0.5629803 -0.7596207
vn 0.53684694 0.5338458 -0.6533024
vn 0.63881767 0.0021412373 -0.76935524
vn 0.63881767 0.0021412373 -0.76935524
vn 0.53684694 0.54112935 -0.6472823
vn 0.63881767 0.0021412373 -0.76935524
vn 0.63881767 0.0021412373 -0.76935524
vn 0.5514142 0.5192785 -0.6529106
vn 0.6461013 0.0021412373 -0.7632487
vn 0.6461013 0.0021412373 -0.7632487
vn 0.8573264 0.0021412373 -0.5147688
vn 0.8573264 0.0021412373 -0.5147688
vn 0.6752358 0.5993984 -0.42985833
vn 0.8573264 0.0021412373 -0.5147688
vn 0.8573264 0.0021412373 -0.5147688
vn 0.38389084 0.0021412373 0.92337596
vn 0.38389084 0.009424865 0.92333037
vn 0.20180023 0.8543252 0.4789626
vn 0.6752358 0.5993984 -0.42985833
vn 0.15809852 0.86889243 0.4690744
vn 0.31833822 0.009424865 0.94793034
vn 0.15809852 0.8761761 0.45532435
vn 0.3110546 0.0021412373 0.9503896
vn 0.31833822 0.009424865 0.94793034
vn 0.3110546 0.0021412373 0.9503896
vn -0.5265621 0.8470416 -0.07247688
vn 0.32562184 0.5629803 -0.7596207
vn 0.54413056 0.490144 -0.68094105
vn 0.01242509 0.9999229 -0
vn -0.51199484 0.8543252 -0.08938548
vn 0.034256864 0.999413 -0
vn 0.53684694 0.5338458 -0.6533024
vn -0.023985216 0.9997123 -0
vn -0.4968297 0.86784804 -0
vn -0.0167062 0.9998604 -0
vn -0.0021412373 0.9999976 -0.00042286396
vn -0.0021412373 0.9999976 -0.00042286396
vn -0.0021412373 0.9999976 -0.00042286396
vn -0.0021412373 0.9999976 -0.00042286396
vn 0.005142335 0.99998677 -0
vn 0.034256864 0.999413 -0
vn 0.53684694 0.54112935 -0.6472823
vn 0.005142335 0.99998677 -0
vn 0.056039717 0.9984285 -0
vn 0.5514142 0.5192785 -0.6529106
vn 0.20180023 0.8543252 0.4789626
vn 0.6752358 0.5993984 -0.42985833
vn 0.15809852 0.86889243 0.4690744
vn 0.15809852 0.8761761 0.45532435
vn 0.3766072 0.0021412373 -0.92637056
vn 0.32562184 0.5629803 -0.7596207
vn -0.5265621 0.8470416 -0.07247688
vn -0.9854305 0.009424865 -0.16981743
vn 0.3766072 0.0021412373 -0.92637056
vn -0.9854305 0.0021412373 -0.1700653
vn -0.99271405 0.0021412373 -0.12047494
vn -0.99271405 0.009424865 -0.12012481
vn -0.99271405 0.0021412373 -0.12047494
vn -0.51199484 0.8543252 -0.08938548
vn -0.99271405 0.009424865 -0.12012481
vn -0.4968297 0.86784804 -0
g ENV_SY02_HW_WaterBiome_VinylBlock04_MO_0
f 3/3/3 2/2/2 1/1/1
f 2/2/2 4/4/4 1/1/1
f 4/4/4 2/2/2 5/5/5
f 2/2/2 6/6/6 5/5/5
f 5/5/5 7/7/7 4/4/4
f 4/4/4 8/8/8 1/1/1
f 7/7/7 8/8/8 4/4/4
f 8/8/8 9/9/9 1/1/1
f 7/7/7 10/10/10 8/8/8
f 8/8/8 11/11/11 9/9/9
f 10/10/10 11/11/11 8/8/8
f 11/11/11 12/12/12 9/9/9
f 10/10/10 13/13/13 11/11/11
f 11/11/11 14/14/14 12/12/12
f 13/13/13 14/14/14 11/11/11
f 14/14/14 15/15/15 12/12/12
f 16/16/16 15/15/15 14/14/14
f 17/17/17 16/16/16 14/14/14
f 14/14/14 13/13/13 17/17/17
f 13/13/13 18/18/18 17/17/17
f 21/21/21 20/20/20 19/19/19
f 22/22/22 21/21/21 19/19/19
f 21/21/21 22/22/22 23/23/23
f 22/22/22 24/24/24 23/23/23
f 24/24/24 22/22/22 25/25/25
f 22/22/22 26/26/26 25/25/25
f 22/22/22 19/19/19 26/26/26
f 19/19/19 27/27/27 26/26/26
f 30/30/30 29/29/29 28/28/28
f 31/31/31 30/30/30 28/28/28
f 31/31/31 28/28/28 32/32/32
f 28/28/28 33/33/33 32/32/32
f 31/31/31 32/32/32 34/34/34
f 30/30/30 31/31/31 35/35/35
f 35/35/35 31/31/31 34/34/34
f 36/36/36 30/30/30 35/35/35
f 35/35/35 34/34/34 37/37/37
f 36/36/36 35/35/35 38/38/38
f 38/38/38 35/35/35 37/37/37
f 39/39/39 36/36/36 38/38/38
f 38/38/38 37/37/37 40/40/40
f 39/39/39 38/38/38 41/41/41
f 41/41/41 38/38/38 40/40/40
f 42/42/42 39/39/39 41/41/41
f 43/43/43 42/42/42 41/41/41
f 44/44/44 43/43/43 41/41/41
f 41/41/41 40/40/40 44/44/44
f 40/40/40 45/45/45 44/44/44
f 48/48/48 47/47/47 46/46/46
f 49/49/49 48/48/48 46/46/46
f 49/49/49 46/46/46 50/50/50
f 46/46/46 51/51/51 50/50/50
f 50/50/50 52/52/52 49/49/49
f 52/52/52 53/53/53 49/49/49
f 49/49/49 53/53/53 48/48/48
f 53/53/53 54/54/54 48/48/48
f 57/57/57 56/56/56 55/55/55
f 58/58/58 57/57/57 55/55/55
f 58/58/58 55/55/55 59/59/59
f 55/55/55 60/60/60 59/59/59
f 59/59/59 61/61/61 58/58/58
f 58/58/58 62/62/62 57/57/57
f 61/61/61 62/62/62 58/58/58
f 62/62/62 63/63/63 57/57/57
f 61/61/61 64/64/64 62/62/62
f 62/62/62 65/65/65 63/63/63
f 64/64/64 65/65/65 62/62/62
f 65/65/65 66/66/66 63/63/63
f 64/64/64 67/67/67 65/65/65
f 65/65/65 68/68/68 66/66/66
f 67/67/67 68/68/68 65/65/65
f 68/68/68 69/69/69 66/66/66
f 70/70/70 69/69/69 68/68/68
f 71/71/71 70/70/70 68/68/68
f 68/68/68 67/67/67 71/71/71
f 67/67/67 72/72/72 71/71/71
f 75/75/75 74/74/74 73/73/73
f 76/76/76 75/75/75 73/73/73
f 76/76/76 73/73/73 77/77/77
f 73/73/73 78/78/78 77/77/77
f 76/76/76 77/77/77 79/79/79
f 76/76/76 80/80/80 75/75/75
f 80/80/80 76/76/76 79/79/79
f 80/80/80 79/79/79 81/81/81
f 80/80/80 82/82/82 75/75/75
f 83/83/83 80/80/80 81/81/81
f 80/80/80 83/83/83 82/82/82
f 83/83/83 84/84/84 82/82/82
f 87/87/87 86/86/86 85/85/85
f 88/88/88 87/87/87 85/85/85
f 88/88/88 85/85/85 89/89/89
f 88/88/88 90/90/90 87/87/87
f 90/90/90 91/91/91 87/87/87
f 92/92/92 88/88/88 89/89/89
f 90/90/90 88/88/88 92/92/92
f 92/92/92 89/89/89 93/93/93
f 94/94/94 92/92/92 93/93/93
f 95/95/95 92/92/92 94/94/94
f 95/95/95 90/90/90 92/92/92
f 96/96/96 95/95/95 94/94/94
f 96/96/96 97/97/97 95/95/95
f 97/97/97 98/98/98 95/95/95
f 95/95/95 98/98/98 90/90/90
f 97/97/97 99/99/99 98/98/98
f 90/90/90 100/100/100 91/91/91
f 98/98/98 100/100/100 90/90/90
f 100/100/100 101/101/101 91/91/91
f 99/99/99 102/102/102 98/98/98
f 98/98/98 102/102/102 100/100/100
f 100/100/100 103/103/103 101/101/101
f 102/102/102 103/103/103 100/100/100
f 103/103/103 104/104/104 101/101/101
f 103/103/103 105/105/105 104/104/104
f 105/105/105 103/103/103 102/102/102
f 105/105/105 106/106/106 104/104/104
f 107/107/107 105/105/105 102/102/102
f 107/107/107 102/102/102 99/99/99
f 108/108/108 107/107/107 99/99/99
f 111/111/111 110/110/110 109/109/109
f 112/112/112 111/111/111 109/109/109
f 109/109/109 113/113/113 112/112/112
f 113/113/113 114/114/114 112/112/112
f 112/112/112 114/114/114 115/115/115
f 111/111/111 112/112/112 116/116/116
f 116/116/116 112/112/112 115/115/115
f 116/116/116 115/115/115 117/117/117
f 118/118/118 111/111/111 116/116/116
f 119/119/119 116/116/116 117/117/117
f 118/118/118 116/116/116 119/119/119
f 120/120/120 118/118/118 119/119/119
