g ENV_SY02_TEST_Shapes02_Cylinder_COL
v 1.112936 3.3567576 -1.5318496
v 1.8007908 1.0728836E-06 -0.5851481
v 1.8007908 3.3567576 -0.5851481
v -1.0728836E-06 3.3567576 1.0728836E-06
v 1.8007908 3.3567576 0.5851501
v -1.0728836E-06 3.3567576 -1.8934821
v 1.112936 1.0728836E-06 -1.5318496
v -1.0728836E-06 1.0728836E-06 1.0728836E-06
v -1.0728836E-06 1.0728836E-06 -1.8934821
v 1.8007908 1.0728836E-06 0.5851501
v -1.112938 3.3567576 -1.5318496
v 1.112936 1.0728836E-06 1.5318516
v -1.112938 1.0728836E-06 -1.5318496
v 1.112936 3.3567576 1.5318516
v -1.8007928 3.3567576 -0.5851481
v -1.0728836E-06 1.0728836E-06 1.8934842
v -1.8007928 1.0728836E-06 -0.5851481
v -1.0728836E-06 3.3567576 1.8934842
v -1.8007928 3.3567576 0.5851501
v -1.8007928 1.0728836E-06 0.5851501
v -1.112938 1.0728836E-06 1.5318516
v -1.112938 3.3567576 1.5318516
vn 0.5764662 0.22352767 -0.785953
vn 0.9294047 -0.22352773 -0.29367036
vn 0.9294047 0.22352767 -0.2936704
vn -0.003921509 0.99999225 -0.00034526698
vn 0.9294047 0.22352767 0.2936704
vn -0.003921509 0.22352767 -0.9746897
vn 0.5764662 -0.22352773 -0.7859529
vn -0.003921509 -0.9999924 -0
vn -0.003921509 -0.22352773 -0.97468966
vn 0.9294047 -0.22352773 0.29367036
vn -0.5764661 0.22352767 -0.78595304
vn 0.5764662 -0.22352773 0.7859529
vn -0.5764661 -0.22352773 -0.78595304
vn 0.5764662 0.22352767 0.785953
vn -0.9294046 0.22352767 -0.2936706
vn -0.003921509 -0.22352773 0.97468966
vn -0.9294046 -0.22352773 -0.29367056
vn -0.003921509 0.22352767 0.9746897
vn -0.9294046 0.22352767 0.2936706
vn -0.9294046 -0.22352773 0.29367056
vn -0.5764661 -0.22352773 0.78595304
vn -0.5764661 0.22352767 0.78595304
g ENV_SY02_TEST_Shapes02_Cylinder_COL_0
f 3/3/3 2/2/2 1/1/1
f 4/4/4 3/3/3 1/1/1
f 5/5/5 3/3/3 4/4/4
f 2/2/2 3/3/3 5/5/5
f 4/4/4 1/1/1 6/6/6
f 2/2/2 7/7/7 1/1/1
f 1/1/1 7/7/7 6/6/6
f 2/2/2 8/8/8 7/7/7
f 7/7/7 8/8/8 9/9/9
f 7/7/7 9/9/9 6/6/6
f 10/10/10 8/8/8 2/2/2
f 10/10/10 2/2/2 5/5/5
f 6/6/6 9/9/9 11/11/11
f 4/4/4 6/6/6 11/11/11
f 12/12/12 10/10/10 5/5/5
f 12/12/12 8/8/8 10/10/10
f 9/9/9 13/13/13 11/11/11
f 9/9/9 8/8/8 13/13/13
f 14/14/14 12/12/12 5/5/5
f 4/4/4 14/14/14 5/5/5
f 11/11/11 13/13/13 15/15/15
f 4/4/4 11/11/11 15/15/15
f 16/16/16 12/12/12 14/14/14
f 16/16/16 8/8/8 12/12/12
f 13/13/13 17/17/17 15/15/15
f 13/13/13 8/8/8 17/17/17
f 18/18/18 16/16/16 14/14/14
f 4/4/4 18/18/18 14/14/14
f 15/15/15 17/17/17 19/19/19
f 4/4/4 15/15/15 19/19/19
f 17/17/17 8/8/8 20/20/20
f 17/17/17 20/20/20 19/19/19
f 21/21/21 8/8/8 16/16/16
f 21/21/21 16/16/16 18/18/18
f 20/20/20 8/8/8 21/21/21
f 4/4/4 19/19/19 22/22/22
f 4/4/4 22/22/22 18/18/18
f 22/22/22 21/21/21 18/18/18
f 20/20/20 21/21/21 22/22/22
f 19/19/19 20/20/20 22/22/22
