g ENV_Slide_StandardBendQuarter_COL
v -15.162585 4.276279 -16.720572
v -18.059706 4.2762785 -20.115969
v -17.405436 5.022677 -20.76954
v -14.4141865 5.022678 -17.263824
v -16.880602 3.9554796 -21.293814
v -12.831885 4.276279 -12.914021
v -13.8138485 3.9554799 -17.699604
v -12.007765 5.022678 -13.333601
v -11.124914 4.2762794 -8.789909
v -11.346681 3.9554806 -13.670171
v -10.245333 5.022678 -9.075498
v -9.539762 3.9554806 -9.304583
v -10.08365 4.27628 -4.449661
v -9.170237 5.022678 -4.5942335
v -8.437528 3.9554813 -4.7102003
v -8.808909 5.022679 3.6621093E-06
v -8.0670805 3.9554815 3.6621093E-06
v -9.733694 4.27628 4.8828124E-06
v -9.170237 5.022678 -4.5942335
v -8.808909 5.022679 3.6621093E-06
v -7.680039 1.5518104 -4.8300924
v -7.300163 1.5518109 4.8828124E-06
v -8.8103285 1.5518099 -9.541416
v -11.124914 4.2762794 -8.789909
v -3.0329976 -0.8839965 -5.5656004
v -2.595275 -0.88399595 6.1035153E-06
v 2.595275 -0.88399595 6.1035153E-06
v -4.335403 -0.883997 -10.99435
v 2.0937352 -0.8839965 -6.3770313
v 7.300163 1.5518109 7.3242186E-06
v -10.6632395 1.5518097 -14.018125
v -12.831885 4.276279 -12.914021
v -6.47047 -0.8839975 -16.152754
v 0.6014462 -0.883997 -12.597263
v 6.740776 1.5518103 -7.112541
v -13.193205 1.5518092 -18.150122
v -15.162585 4.276279 -16.720572
v -18.059706 4.2762785 -20.115969
v -16.33802 1.551809 -21.835815
v -9.385689 -0.88399804 -20.91396
v -13.009383 -0.8839986 -25.160898
v -1.8449005 -0.8839975 -18.507734
v -5.185141 -0.88399804 -23.96309
v -9.33715 -0.8839986 -28.829208
v 5.076372 1.5518099 -14.050195
v -1.3776239 1.5518093 -26.726929
v -6.0085135 1.551809 -32.154285
v 2.3478708 1.5518097 -20.642363
v 0.5917549 4.276279 -28.156479
v -4.2868276 4.2762785 -33.874134
v 4.516516 4.276279 -21.74647
v 7.390957 4.2762794 -14.801703
v 9.144387 4.27628 -7.4929733
v 9.733694 4.27628 7.3242186E-06
v 6.5113764 5.0226774 -14.516115
v 8.230974 5.0226774 -7.348403
v 5.8058047 3.9554803 -14.287031
v 3.0313115 3.9554799 -20.990316
v 7.4982653 3.9554808 -7.232434
v 3.692395 5.0226774 -21.326889
v 8.808909 5.022678 6.1035153E-06
v 8.0670805 3.9554813 6.1035153E-06
v 9.733694 4.27628 7.3242186E-06
v 9.144387 4.27628 -7.4929733
v 3.692395 5.0226774 -21.326889
v 7.390957 4.2762794 -14.801703
v 4.516516 4.276279 -21.74647
v -0.15664287 5.022677 -27.613228
v 0.5917549 4.276279 -28.156479
v -4.2868276 4.2762785 -33.874134
v -4.9410977 5.0226765 -33.220562
v -0.75698173 3.9554796 -27.177446
v -5.4659305 3.9554794 -32.696293
v 3.692395 5.0226774 -21.326889
v -15.873462 2.50351 -22.299877
v -13.8138485 3.9554799 -17.699604
v -16.880602 3.9554796 -21.293814
v -12.661811 2.5035105 -18.535856
v -14.436081 1.1348206 -23.735722
v -10.078079 2.503511 -14.316045
v -11.346681 3.9554806 -13.670171
v -11.017643 1.1348212 -19.729343
v -12.844228 0.28679845 -25.325874
v -8.185789 2.5035112 -9.744194
v -9.539762 3.9554806 -9.304583
v -8.267548 1.1348218 -15.237826
v -9.196774 0.28679895 -21.051088
v -11.173266 -0.00040802002 -26.995052
v -6.26244 0.28679943 -16.258669
v -7.2854147 -0.00040756224 -22.438524
v -9.502304 0.28679845 -28.664228
v -6.2534165 1.134822 -10.371604
v -7.0314775 2.503512 -4.932744
v -8.437528 3.9554813 -4.7102003
v -4.113374 0.28679988 -11.066441
v -5.3740563 0.2867989 -23.825962
v -7.9104514 1.1348206 -30.25438
v -4.1576843 -0.0004070282 -17.330244
v -5.0247817 1.1348225 -5.2503514
v -6.6435285 2.5035121 3.6621093E-06
v -8.0670805 3.9554815 3.6621093E-06
v -4.6118526 1.1348228 3.6621093E-06
v -2.3618355 0.28680095 4.8828124E-06
v -2.8024285 0.2868004 -5.6020947
v -1.8669783 -0.00040649413 -11.795805
v -0.4696312 -0.00040592192 -5.9713182
v -3.5306347E-13 -0.00040542602 4.8828124E-06
v -2.0529299 0.28679943 -18.401821
v 1.8631659 0.2868004 -6.3405395
v 2.3618355 0.28680095 4.8828124E-06
v 0.37941718 0.28679988 -12.525173
v -3.5531883 1.1348209 -25.147709
v -6.4730725 2.50351 -31.690224
v 4.0855193 1.1348224 -6.6922827
v 4.6118526 1.1348228 6.1035153E-06
v 2.5194597 1.1348218 -13.220007
v -0.047821727 1.1348214 -19.422665
v -1.9090168 2.5035105 -26.341196
v -5.4659305 3.9554794 -32.696293
v -0.75698173 3.9554796 -27.177446
v 1.7627108 2.503511 -20.344446
v 3.0313115 3.9554799 -20.990316
v 4.451833 2.5035112 -13.847417
v 5.8058047 3.9554803 -14.287031
v 6.0922155 2.503512 -7.0098925
v 7.4982653 3.9554808 -7.232434
v 6.6435285 2.5035121 6.1035153E-06
v 8.0670805 3.9554813 6.1035153E-06
vt -1.2013181 0.93887186
vt -2.0000002 0.9388719
vt -2.0000002 0.9388719
vt -1.2013181 0.938872
vt -2.0000002 0.94095856
vt -0.40246487 0.93887186
vt -1.2013181 0.9409585
vt -0.4024648 0.9388719
vt 0.3963896 0.93887186
vt -0.40246487 0.9409585
vt 0.3963896 0.9388719
vt 0.3963896 0.9409585
vt 1.1952432 0.9388719
vt 1.1952432 0.9388719
vt 1.1952432 0.9409585
vt 1.9999998 0.9388719
vt 1.9999998 0.94095856
vt 1.9999998 0.9388719
vt 1.1952432 0.9388719
vt 1.9999998 0.9388719
vt 1.1952432 0.9442801
vt 1.9999998 0.9442801
vt 0.3963896 0.94428
vt 0.3963896 0.93887186
vt 1.1952437 0.95245326
vt 2.0000002 0.9524533
vt 1.9999998 0.96062654
vt 0.39639032 0.95245326
vt 1.1952432 0.96062654
vt 1.9999998 0.9687999
vt -0.40246487 0.9442801
vt -0.40246487 0.93887186
vt -0.40246448 0.9524533
vt 0.39639008 0.96062654
vt 1.1952432 0.9687999
vt -1.2013181 0.94428
vt -1.2013181 0.93887186
vt -2.0000002 0.9388719
vt -2.0000002 0.9442801
vt -1.2013175 0.95245326
vt -2 0.9524533
vt -0.4024645 0.9606265
vt -1.2013175 0.9606265
vt -1.9999998 0.96062654
vt 0.39638972 0.9687998
vt -1.2013178 0.9687998
vt -1.9999998 0.96879977
vt -0.40246463 0.9687998
vt -1.2013178 0.974208
vt -1.9999998 0.97420794
vt -0.40246463 0.974208
vt 0.39638972 0.97420806
vt 1.1952432 0.97420806
vt 1.9999998 0.97420806
vt 0.39639008 0.97420806
vt 1.1952432 0.97420806
vt 0.39639008 0.97212136
vt -0.4024647 0.97212136
vt 1.1952432 0.97212136
vt -0.4024647 0.974208
vt 1.9999998 0.97420806
vt 1.9999998 0.9721213
vt 1.9999998 0.97420806
vt 1.1952432 0.97420806
vt -0.4024647 0.974208
vt 0.39638972 0.97420806
vt -0.40246463 0.974208
vt -1.2013178 0.97420794
vt -1.2013178 0.974208
vt -1.9999998 0.97420794
vt -1.9999998 0.97420794
vt -1.2013178 0.97212136
vt -1.9999998 0.9721213
vt -0.4024647 0.974208
vt -2.0000002 0.9442801
vt -1.2013181 0.9409585
vt -2.0000002 0.94095856
vt -1.2013181 0.94428015
vt -2.0000002 0.9483667
vt -0.4024648 0.94428015
vt -0.40246487 0.9409585
vt -1.2013178 0.94836664
vt -2 0.9524533
vt 0.3963896 0.94428015
vt 0.3963896 0.9409585
vt -0.40246475 0.94836664
vt -1.2013175 0.9524533
vt -1.9999998 0.9565399
vt -0.40246445 0.95245326
vt -1.2013178 0.95653987
vt -1.9999998 0.96062654
vt 0.39639008 0.9483667
vt 1.1952432 0.94428015
vt 1.1952432 0.9409585
vt 0.39639044 0.9524533
vt -1.2013175 0.9606265
vt -1.9999998 0.96471316
vt -0.4024647 0.95654
vt 1.1952437 0.9483667
vt 1.9999998 0.9442801
vt 1.9999998 0.94095856
vt 2.0000002 0.9483667
vt 2.0000002 0.9524533
vt 1.195244 0.9524533
vt 0.39639008 0.9565399
vt 1.1952432 0.9565399
vt 1.9999998 0.9565399
vt -0.40246463 0.96062654
vt 1.1952432 0.96062654
vt 1.9999998 0.96062654
vt 0.39639008 0.96062654
vt -1.2013175 0.9647131
vt -1.9999998 0.96879977
vt 1.1952432 0.96471316
vt 1.9999998 0.96471316
vt 0.39639008 0.9647131
vt -0.40246463 0.96471316
vt -1.2013178 0.9687998
vt -1.9999998 0.9721213
vt -1.2013178 0.97212136
vt -0.4024647 0.9687998
vt -0.4024647 0.97212136
vt 0.39639008 0.9687998
vt 0.39639008 0.97212136
vt 1.1952432 0.9687998
vt 1.1952432 0.97212136
vt 1.9999998 0.9687999
vt 1.9999998 0.9721213
vn -0.7401974 -0.40424582 0.5373016
vn -0.6961411 -0.40320376 0.59398156
vn 0.18228576 0.97086596 -0.15553524
vn 0.19335666 0.9710373 -0.14035566
vn 0.5757005 0.6536632 -0.49121603
vn -0.81509256 -0.40424588 0.41498128
vn 0.61163485 0.65481687 -0.44397935
vn 0.21292092 0.9710373 -0.10840277
vn -0.8699447 -0.40424564 0.28245655
vn 0.6735218 0.6548167 -0.34290445
vn 0.22724944 0.9710373 -0.07378418
vn 0.71884674 0.65481675 -0.23339757
vn -0.90340495 -0.40424562 0.14298612
vn 0.23598994 0.97103745 -0.037351336
vn 0.7464953 0.65481675 -0.11815138
vn 0.23888484 0.97086614 -0.018787865
vn 0.75445604 0.65366304 -0.05933638
vn -0.912293 -0.40320387 0.071749784
vn 0.23598994 0.97103745 -0.037351336
vn 0.23888484 0.97086614 -0.018787865
vn -0.565281 -0.82003206 0.089469746
vn -0.5717387 -0.81920266 0.04496602
vn -0.54434407 -0.8200321 0.17673948
vn -0.8699447 -0.40424564 0.28245655
vn -0.20889744 -0.9773785 0.033063263
vn -0.21146852 -0.97724324 0.016631614
vn 0.26433146 -0.9642078 -0.020789007
vn -0.20116027 -0.9773785 0.06531347
vn 0.261138 -0.9644162 -0.041331448
vn 0.59661764 -0.8011527 -0.0469226
vn -0.5100219 -0.82003206 0.25966322
vn -0.81509256 -0.40424588 0.41498128
vn -0.18847665 -0.9773785 0.095957614
vn 0.25146598 -0.9644162 -0.08164672
vn 0.5899321 -0.8020361 -0.093371265
vn -0.4631585 -0.82003206 0.33620188
vn -0.7401974 -0.40424582 0.5373016
vn -0.6961411 -0.40320376 0.59398156
vn -0.43627518 -0.81920254 0.3722513
vn -0.17115842 -0.9773785 0.12424219
vn -0.16136466 -0.97724324 0.1376843
vn 0.23561053 -0.9644162 -0.11995429
vn 0.21396138 -0.9644162 -0.15531218
vn 0.20170292 -0.9642078 -0.17210266
vn 0.5680823 -0.8020361 -0.18444672
vn 0.48335612 -0.8020361 -0.3508631
vn 0.4552594 -0.80115277 -0.38844973
vn 0.5322634 -0.8020361 -0.2709866
vn 0.74317896 -0.39580524 -0.5394658
vn 0.6989302 -0.3947772 -0.5963619
vn 0.81837577 -0.3958051 -0.4166526
vn 0.87344867 -0.3958052 -0.2835942
vn 0.90704364 -0.3958053 -0.14356203
vn 0.9159485 -0.39477712 -0.0720373
vn -0.13715068 0.9895488 0.044530477
vn -0.1424257 0.9895488 0.02254235
vn -0.7234636 0.6491718 0.23489647
vn -0.67784756 0.6491719 0.34510663
vn -0.7512897 0.64917195 0.11891006
vn -0.12850294 0.9895488 0.06542353
vn -0.14418878 0.9894852 0.0113400435
vn -0.75928426 0.64801353 0.059715964
vn 0.9159485 -0.39477712 -0.0720373
vn 0.90704364 -0.3958053 -0.14356203
vn -0.12850294 0.9895488 0.06542353
vn 0.87344867 -0.3958052 -0.2835942
vn 0.81837577 -0.3958051 -0.4166526
vn -0.11669555 0.9895487 0.084707946
vn 0.74317896 -0.39580524 -0.5394658
vn 0.6989302 -0.3947772 -0.5963619
vn -0.11002683 0.9894851 0.093880266
vn -0.6155633 0.6491718 0.44683078
vn -0.5793852 0.64801335 0.4943597
vn -0.12850294 0.9895488 0.06542353
vn 0.47810102 0.77782065 -0.4079395
vn 0.61163485 0.65481687 -0.44397935
vn 0.5757005 0.6536632 -0.49121603
vn 0.5076649 0.7787667 -0.3685088
vn 0.3446041 0.8915113 -0.29403323
vn 0.5590319 0.77876663 -0.28461522
vn 0.6735218 0.6548167 -0.34290445
vn 0.36569932 0.89207417 -0.26545745
vn 0.17520669 0.9731155 -0.14949496
vn 0.59665215 0.77876663 -0.19372308
vn 0.71884674 0.65481675 -0.23339757
vn 0.40270177 0.89207417 -0.2050242
vn 0.18584514 0.97327423 -0.1349031
vn -0.00745949 0.99995196 0.0063646995
vn 0.2046495 0.97327423 -0.10419153
vn -0.00791108 0.9999522 0.0057424693
vn -0.18916678 0.9685886 0.1614064
vn 0.4298018 0.89207417 -0.13954954
vn 0.619601 0.77876663 -0.09806728
vn 0.7464953 0.65481675 -0.11815138
vn 0.21842144 0.97327423 -0.070917875
vn -0.20065837 0.96877277 0.14565572
vn -0.356041 0.8837111 0.30379173
vn -0.008711534 0.9999522 0.004435142
vn 0.44633305 0.89207417 -0.07064333
vn 0.6265517 0.7778205 -0.04927697
vn 0.75445604 0.65366304 -0.05933638
vn 0.45160383 0.8915113 -0.03551773
vn 0.22960843 0.9731155 -0.018058293
vn 0.22682239 0.97327423 -0.03590035
vn -0.009297781 0.9999522 0.0030187438
vn -0.009655385 0.9999522 0.0015281121
vn -0.009775538 0.99995196 0.0007687349
vn -0.22096148 0.96877277 0.11249612
vn -0.24490182 0.96877277 0.038761668
vn -0.24790321 0.9685886 0.019496948
vn -0.23583113 0.96877277 0.07657034
vn -0.37785253 0.8843067 0.27427915
vn -0.48538262 0.76998806 0.41415218
vn -0.4611658 0.8843067 0.07299079
vn -0.46659192 0.8837111 0.036696337
vn -0.44408518 0.8843067 0.14418691
vn -0.41608462 0.8843067 0.21183755
vn -0.5154162 0.7709535 0.3741351
vn -0.5793852 0.64801335 0.4943597
vn -0.6155633 0.6491718 0.44683078
vn -0.5675673 0.7709533 0.28896064
vn -0.67784756 0.6491719 0.34510663
vn -0.605762 0.77095336 0.19668064
vn -0.7234636 0.6491718 0.23489647
vn -0.6290611 0.7709535 0.09956437
vn -0.7512897 0.64917195 0.11891006
vn -0.636094 0.76998806 0.05002732
vn -0.75928426 0.64801353 0.059715964
g ENV_Slide_StandardBendQuarter_COL_0
f 3/3/3 2/2/2 1/1/1
f 4/4/4 3/3/3 1/1/1
f 5/5/5 3/3/3 4/4/4
f 4/4/4 1/1/1 6/6/6
f 7/7/7 5/5/5 4/4/4
f 8/8/8 4/4/4 6/6/6
f 7/7/7 4/4/4 8/8/8
f 8/8/8 6/6/6 9/9/9
f 10/10/10 7/7/7 8/8/8
f 11/11/11 8/8/8 9/9/9
f 10/10/10 8/8/8 11/11/11
f 12/12/12 10/10/10 11/11/11
f 11/11/11 9/9/9 13/13/13
f 12/12/12 11/11/11 14/14/14
f 14/14/14 11/11/11 13/13/13
f 15/15/15 12/12/12 14/14/14
f 15/15/15 14/14/14 16/16/16
f 17/17/17 15/15/15 16/16/16
f 19/19/19 13/13/13 18/18/18
f 20/20/20 19/19/19 18/18/18
f 18/18/18 13/13/13 21/21/21
f 22/22/22 18/18/18 21/21/21
f 21/21/21 13/13/13 23/23/23
f 13/13/13 24/24/24 23/23/23
f 22/22/22 21/21/21 25/25/25
f 26/26/26 22/22/22 25/25/25
f 26/26/26 25/25/25 27/27/27
f 25/25/25 21/21/21 28/28/28
f 21/21/21 23/23/23 28/28/28
f 25/25/25 29/29/29 27/27/27
f 25/25/25 28/28/28 29/29/29
f 27/27/27 29/29/29 30/30/30
f 23/23/23 24/24/24 31/31/31
f 24/24/24 32/32/32 31/31/31
f 28/28/28 23/23/23 33/33/33
f 23/23/23 31/31/31 33/33/33
f 28/28/28 34/34/34 29/29/29
f 28/28/28 33/33/33 34/34/34
f 29/29/29 35/35/35 30/30/30
f 29/29/29 34/34/34 35/35/35
f 31/31/31 32/32/32 36/36/36
f 32/32/32 37/37/37 36/36/36
f 36/36/36 37/37/37 38/38/38
f 39/39/39 36/36/36 38/38/38
f 31/31/31 36/36/36 40/40/40
f 40/40/40 36/36/36 39/39/39
f 33/33/33 31/31/31 40/40/40
f 41/41/41 40/40/40 39/39/39
f 33/33/33 42/42/42 34/34/34
f 33/33/33 40/40/40 42/42/42
f 40/40/40 41/41/41 43/43/43
f 40/40/40 43/43/43 42/42/42
f 41/41/41 44/44/44 43/43/43
f 34/34/34 42/42/42 45/45/45
f 34/34/34 45/45/45 35/35/35
f 43/43/43 44/44/44 46/46/46
f 44/44/44 47/47/47 46/46/46
f 42/42/42 43/43/43 48/48/48
f 43/43/43 46/46/46 48/48/48
f 42/42/42 48/48/48 45/45/45
f 49/49/49 46/46/46 47/47/47
f 48/48/48 46/46/46 49/49/49
f 50/50/50 49/49/49 47/47/47
f 51/51/51 48/48/48 49/49/49
f 45/45/45 48/48/48 51/51/51
f 52/52/52 45/45/45 51/51/51
f 35/35/35 45/45/45 52/52/52
f 53/53/53 35/35/35 52/52/52
f 30/30/30 35/35/35 53/53/53
f 54/54/54 30/30/30 53/53/53
f 53/53/53 52/52/52 55/55/55
f 56/56/56 53/53/53 55/55/55
f 56/56/56 55/55/55 57/57/57
f 57/57/57 55/55/55 58/58/58
f 59/59/59 56/56/56 57/57/57
f 55/55/55 60/60/60 58/58/58
f 61/61/61 56/56/56 59/59/59
f 62/62/62 61/61/61 59/59/59
f 61/61/61 63/63/63 56/56/56
f 63/63/63 64/64/64 56/56/56
f 55/55/55 66/66/66 65/65/65
f 66/66/66 67/67/67 65/65/65
f 60/60/60 67/67/67 68/68/68
f 67/67/67 69/69/69 68/68/68
f 68/68/68 69/69/69 70/70/70
f 71/71/71 68/68/68 70/70/70
f 72/72/72 68/68/68 71/71/71
f 73/73/73 72/72/72 71/71/71
f 74/74/74 68/68/68 72/72/72
f 58/58/58 74/74/74 72/72/72
f 77/77/77 76/76/76 75/75/75
f 76/76/76 78/78/78 75/75/75
f 75/75/75 78/78/78 79/79/79
f 78/78/78 76/76/76 80/80/80
f 76/76/76 81/81/81 80/80/80
f 78/78/78 82/82/82 79/79/79
f 79/79/79 82/82/82 83/83/83
f 80/80/80 81/81/81 84/84/84
f 81/81/81 85/85/85 84/84/84
f 78/78/78 80/80/80 86/86/86
f 82/82/82 78/78/78 86/86/86
f 82/82/82 87/87/87 83/83/83
f 83/83/83 87/87/87 88/88/88
f 87/87/87 82/82/82 89/89/89
f 82/82/82 86/86/86 89/89/89
f 87/87/87 90/90/90 88/88/88
f 87/87/87 89/89/89 90/90/90
f 88/88/88 90/90/90 91/91/91
f 86/86/86 80/80/80 92/92/92
f 80/80/80 84/84/84 92/92/92
f 84/84/84 85/85/85 93/93/93
f 85/85/85 94/94/94 93/93/93
f 89/89/89 86/86/86 95/95/95
f 86/86/86 92/92/92 95/95/95
f 90/90/90 96/96/96 91/91/91
f 91/91/91 96/96/96 97/97/97
f 89/89/89 98/98/98 90/90/90
f 89/89/89 95/95/95 98/98/98
f 90/90/90 98/98/98 96/96/96
f 92/92/92 84/84/84 99/99/99
f 84/84/84 93/93/93 99/99/99
f 93/93/93 94/94/94 100/100/100
f 94/94/94 101/101/101 100/100/100
f 93/93/93 100/100/100 102/102/102
f 99/99/99 93/93/93 102/102/102
f 99/99/99 102/102/102 103/103/103
f 92/92/92 99/99/99 104/104/104
f 95/95/95 92/92/92 104/104/104
f 104/104/104 99/99/99 103/103/103
f 95/95/95 105/105/105 98/98/98
f 95/95/95 104/104/104 105/105/105
f 104/104/104 103/103/103 106/106/106
f 104/104/104 106/106/106 105/105/105
f 103/103/103 107/107/107 106/106/106
f 98/98/98 105/105/105 108/108/108
f 98/98/98 108/108/108 96/96/96
f 106/106/106 107/107/107 109/109/109
f 107/107/107 110/110/110 109/109/109
f 105/105/105 106/106/106 111/111/111
f 105/105/105 111/111/111 108/108/108
f 106/106/106 109/109/109 111/111/111
f 96/96/96 108/108/108 112/112/112
f 96/96/96 112/112/112 97/97/97
f 97/97/97 112/112/112 113/113/113
f 109/109/109 110/110/110 114/114/114
f 110/110/110 115/115/115 114/114/114
f 111/111/111 109/109/109 116/116/116
f 109/109/109 114/114/114 116/116/116
f 108/108/108 111/111/111 117/117/117
f 108/108/108 117/117/117 112/112/112
f 111/111/111 116/116/116 117/117/117
f 112/112/112 118/118/118 113/113/113
f 112/112/112 117/117/117 118/118/118
f 113/113/113 118/118/118 119/119/119
f 118/118/118 120/120/120 119/119/119
f 117/117/117 121/121/121 118/118/118
f 118/118/118 121/121/121 120/120/120
f 117/117/117 116/116/116 121/121/121
f 121/121/121 122/122/122 120/120/120
f 116/116/116 123/123/123 121/121/121
f 121/121/121 123/123/123 122/122/122
f 116/116/116 114/114/114 123/123/123
f 123/123/123 124/124/124 122/122/122
f 114/114/114 125/125/125 123/123/123
f 123/123/123 125/125/125 124/124/124
f 114/114/114 115/115/115 125/125/125
f 125/125/125 126/126/126 124/124/124
f 115/115/115 127/127/127 125/125/125
f 125/125/125 127/127/127 126/126/126
f 127/127/127 128/128/128 126/126/126
