g ENV_S09_FTL_Sand_01c_MO
v -3.43396 0.3225195 -12.920195
v -8.674983 0.79703856 -10.349716
v -8.13885 0.22026855 -9.834482
v -10.935966 0.14576171 -5.315703
v -11.629824 0.62238526 -5.598369
v -11.892431 0.08961669 -0.41963866
v -12.581588 0.49420652 -0.4294238
v -11.686953 1.5624462 -5.6629586
v -11.51605 0.44131592 4.57832
v -10.895079 0.033947755 4.342617
v -8.570925 -0.05118164 8.399365
v -9.106353 0.37137693 8.833242
v -5.3441844 -0.13121825 11.5842085
v -12.008912 1.0582007 4.746074
v -5.740183 0.3071826 12.15667
v -1.4497362 -0.17616943 13.785498
v -12.974708 1.2242846 -0.48458984
v -9.513135 7.5720897 -2.9669335
v -8.429462 1.8350561 -10.054434
v -9.539836 0.9950732 9.198339
v -1.6212012 0.29507568 14.461699
v 3.1650634 -0.18520018 14.135742
v -5.980791 1.1091845 12.597617
v 3.2880688 0.34159666 14.84501
v 7.745659 -0.1358081 12.226464
v -1.61635 1.214729 14.763515
v 8.165588 0.4274658 12.8275385
v 11.475329 -0.03217529 8.528848
v 3.3667016 1.3915478 14.8787985
v -8.657285 5.788132 8.575234
v -5.0879955 6.399187 11.441474
v -1.6977172 7.435586 12.278525
v 1.7883667 8.058567 11.709795
v -5.3048997 11.662249 7.876152
v -10.720274 5.9984202 4.6175976
v -2.93729 12.553442 8.304922
v -6.6708055 11.4612055 6.9205174
v -10.994197 6.7528687 0.65091795
v -7.839692 11.559211 4.9856153
v -2.5411377 14.014636 5.79041
v -8.015669 12.4143915 2.2508397
v -4.61947 13.406621 5.019756
v -2.0320947 15.016486 2.6380076
v 0.096481934 14.432129 5.100312
v -0.48840576 13.060513 8.058456
v -5.3681126 13.937231 2.4202929
v 5.072563 8.350049 9.937793
v 1.8009325 13.303428 7.065244
v 8.028205 1.5338818 12.619141
v -7.1326685 13.025857 -0.2328125
v -5.3519897 13.445605 -2.0700781
v 1.2806909 14.8250265 2.811543
v 7.695718 8.634109 6.7930274
v 12.066374 0.5701343 8.9178705
v 11.657463 1.7183568 8.618427
v 14.31861 0.72385985 3.5163672
v 13.582136 0.097546384 3.3959668
v 3.5234473 13.442878 5.2862306
v 8.861526 9.090534 3.0922558
v 3.928247 14.009228 2.9536815
v 13.695793 1.8758667 3.4458203
v 13.863698 0.91468745 -2.3905957
v 13.271023 0.19715087 -2.2470899
v 10.843027 0.2635376 -6.966201
v 8.624006 9.258572 -0.5731738
v 13.24571 2.0921166 -2.1181836
v 0.4498535 15.080981 0.5670996
v 3.4902098 14.365579 0.7767383
v 6.993767 9.203113 -3.767871
v 10.718229 2.2956543 -6.890586
v 11.3097925 1.0934082 -7.291572
v 7.6122437 1.210774 -11.267646
v 7.326257 0.31901854 -10.802636
v 2.43573 14.469028 -1.0782324
v -1.3804809 14.700161 -0.5008203
v 6.9816427 2.3371336 -10.693067
v 2.3496044 1.1956713 -13.88372
v 2.2971117 0.3733911 -13.31664
v 4.150017 9.078853 -6.0663767
v 2.0402148 2.2654881 -13.077188
v -3.7078025 1.0352832 -13.596846
v -3.5465624 2.1383398 -12.835097
v 0.6529541 8.919526 -7.1794333
v -3.0695703 8.645495 -7.0664845
v 0.76622313 14.312734 -2.4819922
v -0.8522827 13.784922 -2.9966404
v -6.6004004 8.213432 -5.6810837
v -2.9972827 13.703059 -3.0388086
v -3.885327 14.511274 0.014970703
vt 0.015163102 0.01902428
vt 0.014871902 0.019431956
vt 0.014913262 0.019471789
vt 0.014520829 0.019771734
vt 0.014500323 0.019720983
vt 0.0140632065 0.019895885
vt 0.0140623925 0.019846989
vt 0.014480297 0.019663295
vt 0.0136107905 0.019802278
vt 0.0135967685 0.019848695
vt 0.013190485 0.019646946
vt 0.013218478 0.019606281
vt 0.012885614 0.01932461
vt 0.013627064 0.019755194
vt 0.01292749 0.019294357
vt 0.0127182705 0.018918473
vt 0.014065801 0.019795457
vt 0.014233039 0.01934329
vt 0.014819694 0.019383494
vt 0.013247195 0.019564403
vt 0.012767489 0.018904677
vt 0.012709097 0.018471995
vt 0.012973546 0.019257262
vt 0.01276273 0.018478291
vt 0.012874839 0.01803242
vt 0.012823732 0.018883292
vt 0.01292535 0.018058963
vt 0.01321561 0.01767822
vt 0.012829511 0.018479612
vt 0.013419547 0.019330448
vt 0.013242056 0.019070355
vt 0.013217968 0.018829338
vt 0.013251572 0.018595017
vt 0.0135731315 0.01899449
vt 0.013700758 0.019461801
vt 0.013567169 0.018850265
vt 0.013630797 0.019069942
vt 0.013980809 0.019456932
vt 0.013739931 0.019137623
vt 0.013713905 0.01881532
vt 0.0138995135 0.019121267
vt 0.0137484865 0.018933436
vt 0.013884733 0.01877862
vt 0.013749051 0.018670809
vt 0.013579539 0.018711962
vt 0.013891968 0.018961024
vt 0.013356435 0.018369807
vt 0.013628733 0.018582638
vt 0.012989623 0.018092766
vt 0.014031776 0.019057909
vt 0.014135377 0.0189648
vt 0.013870752 0.018605584
vt 0.013557359 0.01818457
vt 0.013250734 0.017723659
vt 0.013302294 0.017786097
vt 0.013702531 0.017537592
vt 0.013688427 0.017478019
vt 0.013720836 0.018479053
vt 0.013805066 0.018099833
vt 0.013855307 0.018460985
vt 0.013720653 0.01762098
vt 0.014196773 0.017545817
vt 0.014208593 0.01748875
vt 0.014652905 0.017693492
vt 0.014050168 0.01812301
vt 0.014174587 0.017628519
vt 0.013992536 0.018649794
vt 0.013977814 0.018487692
vt 0.014273281 0.018215904
vt 0.014570492 0.017822415
vt 0.014618742 0.01774596
vt 0.014938581 0.01807302
vt 0.014991001 0.018032884
vt 0.014080591 0.01854566
vt 0.014053744 0.018745894
vt 0.014870889 0.01813487
vt 0.015123091 0.018519074
vt 0.015183092 0.018505547
vt 0.0144440895 0.018396595
vt 0.01503693 0.01854201
vt 0.015102164 0.019007057
vt 0.015018945 0.018983869
vt 0.014534467 0.018633872
vt 0.014523684 0.018894047
vt 0.014159885 0.01863502
vt 0.014199101 0.018722383
vt 0.014423584 0.019139325
vt 0.014194154 0.018839376
vt 0.014022318 0.018876113
vn -0.18731427 -0.69953126 -0.6896154
vn -0.6695214 -0.20480727 -0.71399933
vn -0.41658622 -0.784711 -0.4590038
vn -0.50321615 -0.83405674 -0.22610389
vn -0.81004834 -0.45951456 -0.36423638
vn -0.5172898 -0.8557396 -0.010997225
vn -0.76439583 -0.64426064 -0.025045577
vn -0.808526 0.413235 -0.41895404
vn -0.64545244 -0.72992396 0.22494934
vn -0.49038228 -0.8540496 0.173564
vn -0.42576644 -0.8502071 0.3096302
vn -0.5395874 -0.7359256 0.40897304
vn -0.33146316 -0.84199286 0.42565286
vn -0.9382096 0.1447807 0.3143268
vn -0.43641087 -0.6714668 0.59889716
vn -0.158117 -0.8284577 0.53726804
vn -0.96297574 0.26064163 -0.06887387
vn -0.77902997 0.49105555 -0.38984197
vn -0.5442725 0.5436199 -0.63894045
vn -0.7807466 0.11839966 0.61352783
vn -0.21725523 -0.5511322 0.80563855
vn 0.10923675 -0.80997634 0.5761993
vn -0.54237807 0.16881931 0.8229982
vn 0.17434192 -0.4065917 0.8968211
vn 0.35751885 -0.78828794 0.5007818
vn -0.17545873 0.27989423 0.9438609
vn 0.5616485 -0.25278163 0.787815
vn 0.5427333 -0.7702796 0.33482823
vn 0.22361404 0.38660824 0.8947239
vn -0.7426736 0.3100581 0.5935486
vn -0.490687 0.36107463 0.79300153
vn -0.16035482 0.45378977 0.8765622
vn 0.19369403 0.51766884 0.83336765
vn -0.470516 0.54901224 0.69079673
vn -0.8940265 0.32908842 0.3040022
vn -0.1856108 0.641808 0.74406385
vn -0.67064124 0.49411142 0.5532578
vn -0.9149298 0.40127587 -0.043373562
vn -0.7984284 0.5111255 0.31821817
vn -0.2075715 0.89860517 0.38655245
vn -0.8210151 0.57016855 0.02901795
vn -0.41782016 0.8461024 0.3309636
vn -0.15456563 0.980433 0.12190449
vn 0.09373105 0.93801624 0.33367667
vn 0.10233912 0.6949432 0.7117447
vn -0.42870316 0.8910828 0.14894637
vn 0.4898343 0.55197006 0.67482704
vn 0.38404995 0.71129334 0.5886998
vn 0.5343548 0.45880148 0.70990574
vn -0.7136503 0.61880887 -0.32829693
vn -0.50182945 0.6558995 -0.56388205
vn 0.2024821 0.96500933 0.16660713
vn 0.6877549 0.5765961 0.44105577
vn 0.83438236 -0.12572218 0.53665644
vn 0.7290876 0.50666595 0.46013126
vn 0.98772347 -0.041307744 0.15065154
vn 0.6685308 -0.73882765 0.08485403
vn 0.560215 0.7253977 0.39994672
vn 0.7851192 0.6037784 0.13798365
vn 0.64004165 0.75757605 0.12816069
vn 0.83170426 0.53693783 0.14130059
vn 0.96141994 0.027068365 -0.2737502
vn 0.71712595 -0.66038156 -0.22277012
vn 0.6638735 -0.5698898 -0.48424953
vn 0.76249707 0.61692363 -0.19494434
vn 0.8071746 0.5525674 -0.20769785
vn 0.081138566 0.99287206 -0.08730214
vn 0.6083492 0.77907866 -0.1514849
vn 0.6169388 0.62548417 -0.47765696
vn 0.6543406 0.57680136 -0.48901805
vn 0.8134655 0.09384806 -0.5739918
vn 0.59081936 0.13204244 -0.7959255
vn 0.5010297 -0.539148 -0.6769702
vn 0.47641715 0.76228976 -0.43811074
vn -0.07206811 0.9661967 -0.24752769
vn 0.41810155 0.6221509 -0.6619059
vn 0.20531061 0.114856064 -0.9719339
vn 0.18165326 -0.593564 -0.78401774
vn 0.3841794 0.6439913 -0.6615749
vn 0.11617878 0.6517829 -0.7494542
vn -0.29182285 0.008993423 -0.9564301
vn -0.22146775 0.62891906 -0.7452603
vn 0.09300881 0.6573723 -0.7478042
vn -0.21977533 0.63704157 -0.73883486
vn 0.25819162 0.7408913 -0.62001383
vn 0.024930684 0.7050418 -0.70872736
vn -0.5268967 0.57407254 -0.62675405
vn -0.20272186 0.6943471 -0.6904969
vn -0.27544937 0.9497865 -0.14843644
g ENV_S09_FTL_Sand_01c_MO_0
f 3/3/3 2/2/2 1/1/1
f 3/3/3 4/4/4 2/2/2
f 4/4/4 5/5/5 2/2/2
f 5/5/5 4/4/4 6/6/6
f 7/7/7 5/5/5 6/6/6
f 2/2/2 5/5/5 8/8/8
f 8/8/8 5/5/5 7/7/7
f 7/7/7 6/6/6 9/9/9
f 6/6/6 10/10/10 9/9/9
f 10/10/10 11/11/11 9/9/9
f 11/11/11 12/12/12 9/9/9
f 12/12/12 11/11/11 13/13/13
f 9/9/9 14/14/14 7/7/7
f 14/14/14 9/9/9 12/12/12
f 15/15/15 12/12/12 13/13/13
f 15/15/15 13/13/13 16/16/16
f 17/17/17 8/8/8 7/7/7
f 14/14/14 17/17/17 7/7/7
f 18/18/18 8/8/8 17/17/17
f 19/19/19 2/2/2 8/8/8
f 19/19/19 8/8/8 18/18/18
f 20/20/20 12/12/12 15/15/15
f 20/20/20 14/14/14 12/12/12
f 21/21/21 15/15/15 16/16/16
f 21/21/21 16/16/16 22/22/22
f 23/23/23 20/20/20 15/15/15
f 23/23/23 15/15/15 21/21/21
f 24/24/24 21/21/21 22/22/22
f 24/24/24 22/22/22 25/25/25
f 26/26/26 23/23/23 21/21/21
f 26/26/26 21/21/21 24/24/24
f 27/27/27 24/24/24 25/25/25
f 27/27/27 25/25/25 28/28/28
f 29/29/29 26/26/26 24/24/24
f 29/29/29 24/24/24 27/27/27
f 20/20/20 30/30/30 14/14/14
f 23/23/23 31/31/31 20/20/20
f 31/31/31 30/30/30 20/20/20
f 26/26/26 32/32/32 23/23/23
f 32/32/32 31/31/31 23/23/23
f 29/29/29 33/33/33 26/26/26
f 33/33/33 32/32/32 26/26/26
f 34/34/34 31/31/31 32/32/32
f 30/30/30 31/31/31 34/34/34
f 30/30/30 35/35/35 14/14/14
f 14/14/14 35/35/35 17/17/17
f 36/36/36 32/32/32 33/33/33
f 36/36/36 34/34/34 32/32/32
f 37/37/37 30/30/30 34/34/34
f 35/35/35 30/30/30 37/37/37
f 35/35/35 38/38/38 17/17/17
f 38/38/38 18/18/18 17/17/17
f 38/38/38 35/35/35 39/39/39
f 39/39/39 35/35/35 37/37/37
f 34/34/34 40/40/40 37/37/37
f 36/36/36 40/40/40 34/34/34
f 41/41/41 38/38/38 39/39/39
f 18/18/18 38/38/38 41/41/41
f 37/37/37 42/42/42 39/39/39
f 40/40/40 42/42/42 37/37/37
f 39/39/39 42/42/42 41/41/41
f 40/40/40 43/43/43 42/42/42
f 44/44/44 40/40/40 36/36/36
f 44/44/44 43/43/43 40/40/40
f 45/45/45 36/36/36 33/33/33
f 45/45/45 44/44/44 36/36/36
f 42/42/42 46/46/46 41/41/41
f 42/42/42 43/43/43 46/46/46
f 45/45/45 33/33/33 47/47/47
f 47/47/47 33/33/33 29/29/29
f 48/48/48 44/44/44 45/45/45
f 48/48/48 45/45/45 47/47/47
f 49/49/49 47/47/47 29/29/29
f 49/49/49 29/29/29 27/27/27
f 41/41/41 46/46/46 50/50/50
f 50/50/50 18/18/18 41/41/41
f 50/50/50 46/46/46 51/51/51
f 50/50/50 51/51/51 18/18/18
f 52/52/52 43/43/43 44/44/44
f 52/52/52 44/44/44 48/48/48
f 48/48/48 47/47/47 53/53/53
f 53/53/53 47/47/47 49/49/49
f 49/49/49 27/27/27 54/54/54
f 54/54/54 27/27/27 28/28/28
f 55/55/55 49/49/49 54/54/54
f 55/55/55 53/53/53 49/49/49
f 56/56/56 54/54/54 28/28/28
f 55/55/55 54/54/54 56/56/56
f 57/57/57 56/56/56 28/28/28
f 58/58/58 48/48/48 53/53/53
f 58/58/58 52/52/52 48/48/48
f 59/59/59 53/53/53 55/55/55
f 58/58/58 53/53/53 59/59/59
f 60/60/60 52/52/52 58/58/58
f 60/60/60 58/58/58 59/59/59
f 61/61/61 59/59/59 55/55/55
f 61/61/61 55/55/55 56/56/56
f 56/56/56 57/57/57 62/62/62
f 57/57/57 63/63/63 62/62/62
f 62/62/62 63/63/63 64/64/64
f 65/65/65 59/59/59 61/61/61
f 60/60/60 59/59/59 65/65/65
f 66/66/66 61/61/61 56/56/56
f 62/62/62 66/66/66 56/56/56
f 66/66/66 65/65/65 61/61/61
f 67/67/67 52/52/52 60/60/60
f 67/67/67 43/43/43 52/52/52
f 68/68/68 60/60/60 65/65/65
f 68/68/68 67/67/67 60/60/60
f 69/69/69 65/65/65 66/66/66
f 68/68/68 65/65/65 69/69/69
f 70/70/70 66/66/66 62/62/62
f 70/70/70 69/69/69 66/66/66
f 71/71/71 62/62/62 64/64/64
f 71/71/71 70/70/70 62/62/62
f 72/72/72 71/71/71 64/64/64
f 70/70/70 71/71/71 72/72/72
f 73/73/73 72/72/72 64/64/64
f 74/74/74 67/67/67 68/68/68
f 74/74/74 68/68/68 69/69/69
f 75/75/75 43/43/43 67/67/67
f 75/75/75 67/67/67 74/74/74
f 69/69/69 70/70/70 76/76/76
f 76/76/76 70/70/70 72/72/72
f 72/72/72 73/73/73 77/77/77
f 73/73/73 78/78/78 77/77/77
f 77/77/77 78/78/78 1/1/1
f 74/74/74 69/69/69 79/79/79
f 79/79/79 69/69/69 76/76/76
f 80/80/80 76/76/76 72/72/72
f 77/77/77 80/80/80 72/72/72
f 81/81/81 77/77/77 1/1/1
f 2/2/2 81/81/81 1/1/1
f 81/81/81 82/82/82 77/77/77
f 82/82/82 81/81/81 2/2/2
f 82/82/82 80/80/80 77/77/77
f 19/19/19 82/82/82 2/2/2
f 80/80/80 83/83/83 76/76/76
f 83/83/83 79/79/79 76/76/76
f 82/82/82 84/84/84 80/80/80
f 84/84/84 82/82/82 19/19/19
f 84/84/84 83/83/83 80/80/80
f 85/85/85 74/74/74 79/79/79
f 85/85/85 75/75/75 74/74/74
f 86/86/86 85/85/85 79/79/79
f 83/83/83 86/86/86 79/79/79
f 86/86/86 75/75/75 85/85/85
f 87/87/87 84/84/84 19/19/19
f 87/87/87 19/19/19 18/18/18
f 51/51/51 87/87/87 18/18/18
f 84/84/84 88/88/88 83/83/83
f 88/88/88 84/84/84 87/87/87
f 88/88/88 86/86/86 83/83/83
f 51/51/51 88/88/88 87/87/87
f 89/89/89 75/75/75 86/86/86
f 88/88/88 89/89/89 86/86/86
f 51/51/51 89/89/89 88/88/88
f 89/89/89 43/43/43 75/75/75
f 46/46/46 89/89/89 51/51/51
f 46/46/46 43/43/43 89/89/89
