g ENV_Ramp_Short09_MO
v -2.5000458 2.2888184E-05 1.9999619
v -2.5000458 4 1.9999619
v 2.5 2.2888184E-05 1.9999619
v -2.5000458 4 -2.0000153
v -2.5000458 2.2888184E-05 -2.0000153
v 2.5 2.2888184E-05 -2.0000153
v -2.5000458 4 -2.0000153
v 2.5 2.2888184E-05 -2.0000153
v 2.5 2.2888184E-05 1.9999619
v -2.5000458 4 1.9999619
v -2.5000458 2.2888184E-05 -2.0000153
v -2.5000458 2.2888184E-05 1.9999619
v 2.5 2.2888184E-05 1.9999619
v 2.5 2.2888184E-05 -2.0000153
v -2.5000458 2.2888184E-05 -2.0000153
v -2.5000458 4 -2.0000153
v -2.5000458 4 1.9999619
v -2.5000458 2.2888184E-05 1.9999619
vt 9.536743E-07 9.536743E-07
vt 9.536743E-07 4.000184
vt 5.000002 9.536743E-07
vt 10.000002 3.0003672
vt 10.000002 -0.9998164
vt 5.000002 -0.9998164
vt 5.999819 5.379053
vt 5.999819 -0.9998164
vt 1.9996347 -0.9998164
vt 1.9996347 5.379053
vt 9.536743E-07 -5
vt 9.536743E-07 -0.9998164
vt 5.000002 -0.9998164
vt 5.000002 -5
vt -5 9.536743E-07
vt -5 4.000184
vt -0.9998164 4.000184
vt -0.9998164 9.536743E-07
vn -0.003921509 0.003921509 0.9999846
vn -0.003921509 0.003921509 0.9999846
vn -0.003921509 0.003921509 0.9999846
vn -0.003921509 0.003921509 -0.9999846
vn -0.003921509 0.003921509 -0.9999846
vn -0.003921509 0.003921509 -0.9999846
vn 0.62352467 0.7803861 -0.047059014
vn 0.62352467 0.7803861 -0.047059014
vn 0.62352467 0.7803861 -0.047059014
vn 0.62352467 0.7803861 -0.047059014
vn -0.003921509 -0.9999924 -0
vn -0.003921509 -0.9999924 -0
vn -0.003921509 -0.9999924 -0
vn -0.003921509 -0.9999924 -0
vn -0.99999225 0.003921509 -0.00034492963
vn -0.99999225 0.003921509 -0.00034492963
vn -0.99999225 0.003921509 -0.00034492963
vn -0.99999225 0.003921509 -0.00034492963
g ENV_Ramp_Short09_MO_0
f 3/3/3 2/2/2 1/1/1
f 6/6/6 5/5/5 4/4/4
f 9/9/9 8/8/8 7/7/7
f 10/10/10 9/9/9 7/7/7
f 13/13/13 12/12/12 11/11/11
f 14/14/14 13/13/13 11/11/11
f 17/17/17 16/16/16 15/15/15
f 18/18/18 17/17/17 15/15/15
