g ENV_S04_SLC2_Floor4_Slime_MO
v -29.052212 3.3171158 -5.2459736
v -29.825947 3.405241 6.0454597
v -29.825947 3.405241 -6.034691
v -29.729012 3.3937855 -6.5325966
v -28.955273 3.3056602 -5.742998
v -29.452297 3.3629417 -6.954714
v -28.678562 3.2739353 -6.1651154
v -29.038994 3.3153534 -7.2367134
v -0.9809265 0.11201668 -0.04308319
v -28.265259 3.2272282 -6.447115
v -29.052212 3.3171158 5.245289
v -28.955273 3.3056602 5.745838
v -29.729012 3.3937855 6.546009
v -28.551662 3.2598343 -7.335413
v -28.680325 3.2748165 6.169716
v -29.45406 3.3629417 6.9698906
v -28.267902 3.2272282 6.4525986
v -29.041637 3.3153534 7.2527733
v -27.782333 3.171711 6.551296
v -28.556068 3.2598343 7.351471
v 26.647089 -3.0419712 7.1664085
v -27.777927 3.171711 -6.5466957
v 25.875998 -2.953846 -6.5634403
v 26.651497 -3.0428524 -7.354801
v 27.139708 -3.0983715 -7.2552204
v 25.87071 -2.953846 6.385624
v 26.363327 -3.0102463 -6.4647408
v 26.360683 -3.009365 6.2860413
v 27.553013 -3.1459599 -6.974102
v 27.137064 -3.0983715 7.0659485
v 26.777515 -3.0569534 -6.182741
v 27.829725 -3.1776848 -6.551985
v 26.775753 -3.0569534 6.005806
v 27.552132 -3.1459599 6.784828
v 27.054226 -3.0886784 -5.760622
v 27.926662 -3.1882591 -6.054079
v 27.053345 -3.0886784 5.585449
v 27.829725 -3.1776848 6.3653526
v 27.151163 -3.100134 5.0910683
v 27.926662 -3.1882591 5.8709755
v 27.151163 -3.100134 -5.2635994
vt 0.28274006 1.3372266
vt -0.041091442 1.3600087
vt 0.30470854 1.3600087
vt 0.31935418 1.3567542
vt 0.2965721 1.3347857
vt 0.33155888 1.3494313
vt 0.3087768 1.3266492
vt 0.33969533 1.3372266
vt 0.13302901 0.52846146
vt 0.31691325 1.3144445
vt -0.018309325 1.3380402
vt -0.032141328 1.3347857
vt -0.055737093 1.3575678
vt 0.34213632 1.3233947
vt -0.044346035 1.3266492
vt -0.0679418 1.3494313
vt -0.052482516 1.3152581
vt -0.076078266 1.3372266
vt -0.055737093 1.3014262
vt -0.07851921 1.3233947
vt -0.07363734 -0.26809898
vt 0.31935418 1.3006124
vt 0.31935418 -0.2461305
vt 0.34213632 -0.2689126
vt 0.33888173 -0.28274462
vt -0.051668853 -0.2461305
vt 0.31691325 -0.26077616
vt -0.04841426 -0.2599625
vt 0.33074522 -0.29494932
vt -0.07119639 -0.28274462
vt 0.3087768 -0.2721672
vt 0.31935418 -0.3030858
vt -0.041091442 -0.2721672
vt -0.063059926 -0.29494932
vt 0.2965721 -0.2803037
vt 0.30470854 -0.30552673
vt -0.028886735 -0.2803037
vt -0.05085522 -0.30227214
vt -0.014241099 -0.28274462
vt -0.037023216 -0.30552673
vt 0.2819264 -0.28274462
vn 0.11343697 0.9935452 -0.00024414062
vn 0.11343697 0.9935452 -0.00024414062
vn 0.11343697 0.9935452 -0.00024414062
vn 0.11343697 0.9935452 -0.00024414062
vn 0.11343697 0.9935452 -0.00024414062
vn 0.11343697 0.9935452 -0.00024414062
vn 0.11343697 0.9935452 -0.00024414062
vn 0.11343697 0.9935452 -0.00024414062
vn 0.11343697 0.9935452 -0.00024414062
vn 0.11343697 0.9935452 -0.00024414062
vn 0.11343697 0.9935452 -0.00024414062
vn 0.11343697 0.9935452 -0.00024414062
vn 0.11343697 0.9935452 -0.00024414062
vn 0.11343697 0.9935452 -0.00024414062
vn 0.11343697 0.9935452 -0.00024414062
vn 0.11343697 0.9935452 -0.00024414062
vn 0.11343697 0.9935452 -0.00024414062
vn 0.11343697 0.9935452 -0.00024414062
vn 0.11343697 0.9935452 -0.00024414062
vn 0.11343697 0.9935452 -0.00024414062
vn 0.11343697 0.9935452 -0.00024414062
vn 0.11343697 0.9935452 -0.00024414062
vn 0.11343697 0.9935452 -0.00024414062
vn 0.11343697 0.9935452 -0.00024414062
vn 0.11343697 0.9935452 -0.00024414062
vn 0.11343697 0.9935452 -0.00024414062
vn 0.11343697 0.9935452 -0.00024414062
vn 0.11343697 0.9935452 -0.00024414062
vn 0.11343697 0.9935452 -0.00024414062
vn 0.11343697 0.9935452 -0.00024414062
vn 0.11343697 0.9935452 -0.00024414062
vn 0.11343697 0.9935452 -0.00024414062
vn 0.11343697 0.9935452 -0.00024414062
vn 0.11343697 0.9935452 -0.00024414062
vn 0.11343697 0.9935452 -0.00024414062
vn 0.11343697 0.9935452 -0.00024414062
vn 0.11343697 0.9935452 -0.00024414062
vn 0.11343697 0.9935452 -0.00024414062
vn 0.11343697 0.9935452 -0.00024414062
vn 0.11343697 0.9935452 -0.00024414062
vn 0.11343697 0.9935452 -0.00024414062
g ENV_S04_SLC2_Floor4_Slime_MO_0
f 3/3/3 2/2/2 1/1/1
f 3/3/3 1/1/1 4/4/4
f 1/1/1 5/5/5 4/4/4
f 4/4/4 5/5/5 6/6/6
f 5/5/5 7/7/7 6/6/6
f 6/6/6 7/7/7 8/8/8
f 9/9/9 5/5/5 1/1/1
f 9/9/9 7/7/7 5/5/5
f 7/7/7 10/10/10 8/8/8
f 9/9/9 10/10/10 7/7/7
f 11/11/11 9/9/9 1/1/1
f 2/2/2 11/11/11 1/1/1
f 11/11/11 12/12/12 9/9/9
f 12/12/12 11/11/11 2/2/2
f 13/13/13 12/12/12 2/2/2
f 8/8/8 10/10/10 14/14/14
f 15/15/15 12/12/12 13/13/13
f 12/12/12 15/15/15 9/9/9
f 16/16/16 15/15/15 13/13/13
f 17/17/17 15/15/15 16/16/16
f 15/15/15 17/17/17 9/9/9
f 18/18/18 17/17/17 16/16/16
f 19/19/19 17/17/17 18/18/18
f 17/17/17 19/19/19 9/9/9
f 20/20/20 19/19/19 18/18/18
f 20/20/20 21/21/21 19/19/19
f 10/10/10 22/22/22 14/14/14
f 9/9/9 22/22/22 10/10/10
f 14/14/14 22/22/22 23/23/23
f 9/9/9 23/23/23 22/22/22
f 24/24/24 14/14/14 23/23/23
f 24/24/24 23/23/23 25/25/25
f 19/19/19 26/26/26 9/9/9
f 21/21/21 26/26/26 19/19/19
f 9/9/9 27/27/27 23/23/23
f 23/23/23 27/27/27 25/25/25
f 26/26/26 28/28/28 9/9/9
f 28/28/28 26/26/26 21/21/21
f 25/25/25 27/27/27 29/29/29
f 30/30/30 28/28/28 21/21/21
f 27/27/27 31/31/31 29/29/29
f 9/9/9 31/31/31 27/27/27
f 29/29/29 31/31/31 32/32/32
f 33/33/33 28/28/28 30/30/30
f 28/28/28 33/33/33 9/9/9
f 34/34/34 33/33/33 30/30/30
f 31/31/31 35/35/35 32/32/32
f 9/9/9 35/35/35 31/31/31
f 32/32/32 35/35/35 36/36/36
f 37/37/37 33/33/33 34/34/34
f 33/33/33 37/37/37 9/9/9
f 38/38/38 37/37/37 34/34/34
f 39/39/39 37/37/37 38/38/38
f 37/37/37 39/39/39 9/9/9
f 40/40/40 39/39/39 38/38/38
f 40/40/40 36/36/36 39/39/39
f 35/35/35 41/41/41 36/36/36
f 9/9/9 41/41/41 35/35/35
f 36/36/36 41/41/41 39/39/39
f 9/9/9 39/39/39 41/41/41
