g ENV_S05_Tree_A_Branch_B_MO
v -0.036548615 -17.009258 -10.781279
v -0.05001831 -15.708502 -10.533057
v -0.9845352 -17.276081 -10.661979
v -1.784359 -16.397364 -10.23609
v -2.8022594 -14.79002 -9.320814
v 0.031440735 -13.636144 -9.865362
v 0.104558945 -11.173815 -6.9765034
v -2.5360775 -17.95532 -9.762738
v -1.4752045 -18.293339 -10.279064
v -1.1545067 -19.241325 -9.895508
v -3.5597496 -12.379003 -6.1285744
v 0.0789032 -7.503091 -2.9459553
v -1.7253513 -19.791645 -9.034751
v -0.055789948 -19.686455 -9.728103
v -4.1338024 -17.44541 -8.186822
v -3.7117615 -8.492769 -1.8036232
v -0.0025539398 -2.6297455 -0.12315941
v -0.11864662 -20.430477 -8.8153925
v 0.8158703 -19.484415 -9.793525
v -2.5476227 -20.030886 -6.7680483
v -4.790594 -15.453226 -4.0222206
v -3.7649975 -3.0800076 1.2853508
v -0.0025539398 3.2717628 0.8915329
v 1.6503296 -19.77176 -8.9302025
v 1.4457245 -18.44086 -10.202738
v -0.064769745 -20.951935 -6.3338213
v -3.0517635 -18.071415 -2.001175
v -4.959923 -10.776148 1.128849
v 2.5598335 -18.28949 -9.548511
v 1.1378517 -17.525583 -10.568975
v 2.6329517 -19.910303 -6.6570864
v 0.08275223 -18.87252 -1.2456074
v -3.35771 -12.686873 3.7803917
v -5.1331005 -4.2281113 4.7886696
v 1.9056072 -16.534622 -10.213641
v -0.036548615 -17.009258 -10.781279
v -0.05001831 -15.708502 -10.533057
v 0.031440735 -13.636144 -9.865362
v 3.1704445 -14.866987 -9.023847
v 0.104558945 -11.173815 -6.9765034
v 4.1421623 -17.662844 -7.6570263
v 3.6989574 -12.378361 -5.6417522
v 0.0789032 -7.503091 -2.9459553
v 3.0761585 -17.802668 -1.8504467
v 3.7156334 -8.271486 -1.5906792
v -0.0025539398 -2.6297455 -0.12315941
v 4.8791294 -15.310194 -3.418024
v -0.047452927 -13.364191 4.9438877
v 3.6264782 -2.8933601 1.2718811
v -0.0025539398 3.2717628 0.8915329
v 3.291668 -12.476495 4.025406
v 4.999713 -10.48367 1.4880333
v -3.5629578 -5.1703243 7.9437084
v 3.4372654 3.5892544 2.1743298
v 0.023101807 10.015427 -0.681818
v -0.08401108 -5.540412 9.33811
v 3.4045544 -5.106185 8.138052
v 5.160063 -3.97604 4.92144
v -4.999689 3.7213821 5.68791
v -3.5815582 4.0388756 9.112337
v -0.10004616 4.2312946 10.670935
v 3.4943504 4.200508 9.304115
v 5.060646 3.9407406 5.7238293
v 3.5007648 10.561897 0.5490265
v 4.9734154 12.061489 3.8387585
v 3.2647305 15.672562 -1.6920204
v 0.12829208 15.080551 -3.0229225
v 3.2781982 13.472565 7.0014954
v -0.36045456 14.051746 8.151522
v 4.294815 17.548653 0.6664009
v 2.1390762 18.01495 -2.51301
v 0.141119 17.490925 -3.1794243
v 2.6951675 19.343285 2.893978
v 2.6816978 19.397804 -1.1134796
v 1.1853161 18.716637 -2.484789
v 0.16036034 18.499203 -2.7823982
v 1.800417 19.633198 -1.5368023
v 1.2751122 20.39133 -0.7414684
v 1.6727791 20.655586 0.1481514
v 0.025026321 20.725498 -0.46245956
v -0.45666504 20.163631 3.5187016
v -0.09427452 21.082115 0.41176605
v -1.0473919 20.486897 -0.67668724
v -1.8574791 20.486256 -0.016046524
v -1.6580029 19.595356 -1.6304455
v -3.7682056 13.312214 6.5672684
v -2.706049 19.201534 -1.3469486
v -1.1865749 18.909698 -2.3520203
v -3.2544441 19.201534 2.3628998
v -4.9150257 11.822247 3.3602753
v -4.1338024 17.397282 0.049375534
v -1.8966045 17.793667 -2.5040302
v -3.5398674 3.4250565 2.4219093
v -3.3070393 10.573442 0.64074516
v 0.023101807 10.015427 -0.681818
v -2.8356113 15.801483 -2.0479965
v 0.12829208 15.080551 -3.0229225
v 0.141119 17.490925 -3.1794243
v 0.16036034 18.499203 -2.7823982
v -1.6580029 19.595356 -1.6304455
v -1.1865749 18.909698 -2.3520203
v 0.03721237 19.844215 -1.7875881
v -1.0473919 20.486897 -0.67668724
v 0.16036034 18.499203 -2.7823982
v 0.025026321 20.725498 -0.46245956
v 1.1853161 18.716637 -2.484789
v 1.2751122 20.39133 -0.7414684
v 1.800417 19.633198 -1.5368023
v -0.06733513 -18.454971 -10.422737
v -1.4752045 -18.293339 -10.279064
v -1.1545067 -19.241325 -9.895508
v -0.055789948 -19.686455 -9.728103
v -0.9845352 -17.276081 -10.661979
v 0.8158703 -19.484415 -9.793525
v -0.036548615 -17.009258 -10.781279
v 1.4457245 -18.44086 -10.202738
v 1.1378517 -17.525583 -10.568975
vt 0.20356889 0.46675965
vt 0.20630097 0.46675965
vt 0.20356889 0.45765272
vt 0.20630097 0.45765272
vt 0.21449724 0.45765272
vt 0.21449724 0.46675965
vt 0.22906835 0.46675965
vt 0.20630097 0.44945645
vt 0.20356889 0.44945645
vt 0.20356889 0.43852812
vt 0.22906835 0.45765272
vt 0.24910364 0.46675965
vt 0.20630097 0.43852812
vt 0.20356889 0.4294212
vt 0.21449724 0.44945645
vt 0.24910364 0.45765272
vt 0.2709603 0.46675965
vt 0.20630097 0.4294212
vt 0.20356889 0.42031422
vt 0.21449724 0.43852812
vt 0.22906835 0.44945645
vt 0.2709603 0.45765272
vt 0.29554906 0.46675965
vt 0.20630097 0.42031422
vt 0.20356889 0.4084752
vt 0.21449724 0.4294212
vt 0.22906835 0.43852812
vt 0.24910364 0.44945645
vt 0.20630097 0.4084752
vt 0.20356889 0.39936826
vt 0.21449724 0.42031422
vt 0.22906835 0.4294212
vt 0.24910364 0.43852812
vt 0.2709603 0.44945645
vt 0.20630097 0.39936826
vt 0.20356889 0.3902613
vt 0.20630097 0.3902613
vt 0.21449724 0.3902613
vt 0.21449724 0.39936826
vt 0.22906835 0.3902613
vt 0.21449724 0.4084752
vt 0.22906835 0.39936826
vt 0.24910364 0.3902613
vt 0.22906835 0.42031422
vt 0.24910364 0.39936826
vt 0.2709603 0.3902613
vt 0.22906835 0.4084752
vt 0.24910364 0.4294212
vt 0.2709603 0.39936826
vt 0.29554906 0.3902613
vt 0.24910364 0.42031422
vt 0.24910364 0.4084752
vt 0.2709603 0.43852812
vt 0.29554906 0.39936826
vt 0.3210485 0.3902613
vt 0.2709603 0.4294212
vt 0.2709603 0.42031422
vt 0.2709603 0.4084752
vt 0.29554906 0.44945645
vt 0.29554906 0.43852812
vt 0.29554906 0.4294212
vt 0.29554906 0.42031422
vt 0.29554906 0.4084752
vt 0.3210485 0.39936826
vt 0.3210485 0.4084752
vt 0.3401731 0.39936826
vt 0.3401731 0.3902613
vt 0.3210485 0.42031422
vt 0.3210485 0.4294212
vt 0.3401731 0.4084752
vt 0.34928003 0.39936826
vt 0.34928003 0.3902613
vt 0.3401731 0.42031422
vt 0.34928003 0.4084752
vt 0.35201213 0.39936826
vt 0.35201213 0.3902613
vt 0.35201213 0.4084752
vt 0.35201213 0.42031422
vt 0.34928003 0.42031422
vt 0.35201213 0.4294212
vt 0.3401731 0.4294212
vt 0.34928003 0.4294212
vt 0.35201213 0.43852812
vt 0.34928003 0.43852812
vt 0.35201213 0.44945645
vt 0.3210485 0.43852812
vt 0.34928003 0.44945645
vt 0.35201213 0.45765272
vt 0.3401731 0.43852812
vt 0.3210485 0.44945645
vt 0.3401731 0.44945645
vt 0.34928003 0.45765272
vt 0.29554906 0.45765272
vt 0.3210485 0.45765272
vt 0.3210485 0.46675965
vt 0.3401731 0.45765272
vt 0.3401731 0.46675965
vt 0.34928003 0.46675965
vt 0.35201213 0.46675965
vt 0.17169458 0.3729581
vt 0.17169458 0.38024366
vt 0.18353361 0.3775116
vt 0.17989084 0.36567256
vt 0.17898014 0.38843992
vt 0.18808709 0.36749393
vt 0.18717639 0.38935062
vt 0.19446196 0.3738688
vt 0.19537264 0.38297576
vt 0.15621278 0.43579602
vt 0.16440903 0.43306395
vt 0.15985554 0.4275998
vt 0.15165931 0.4275998
vt 0.16440903 0.44126022
vt 0.14710583 0.43124256
vt 0.15985554 0.4458137
vt 0.14619513 0.44034952
vt 0.15074861 0.444903
vn 0.03369242 0.10712534 -0.99367446
vn 0.04151565 0.31052893 -0.9496569
vn -0.3027057 0.013246834 -0.952992
vn -0.4826395 0.16188782 -0.86072725
vn -0.6860431 0.427877 -0.5884439
vn 0.04151565 0.6703966 -0.7408406
vn 0.03369242 0.74080545 -0.6708741
vn -0.7016894 -0.2996816 -0.6463922
vn -0.43570024 -0.2996816 -0.848738
vn -0.3339985 -0.5891404 -0.73577076
vn -0.7486287 0.47481626 -0.4627144
vn 0.010222793 0.61563414 -0.78796583
vn -0.52957875 -0.75342786 -0.38973424
vn -0.013246834 -0.72995824 -0.6833634
vn -0.95203227 -0.2058031 -0.22645006
vn -0.76427513 0.38876098 -0.51453716
vn -0.013246834 0.3339985 -0.9424805
vn 0.010222793 -0.95683134 -0.29046395
vn 0.30750483 -0.6517261 -0.69332093
vn -0.64692694 -0.75342786 0.11760941
vn -0.98972106 -0.14301115 -0
vn -0.7486287 0.2166503 -0.62659216
vn -0.028893292 -0.03369242 -0.9990145
vn 0.5109083 -0.7847207 -0.3509787
vn 0.44049942 -0.3779137 -0.814335
vn 0.018046021 -0.9724778 0.23229566
vn -0.64692694 -0.6439029 0.40850282
vn -0.9911483 -0.09627813 0.09140872
vn 0.72995824 -0.3387977 -0.5936136
vn 0.33097446 -0.03369242 -0.94303805
vn 0.6204333 -0.7690743 0.15358153
vn 0.018046021 -0.8238368 0.5665397
vn -0.64692694 -0.47961545 0.592836
vn -0.9911483 -0.03369242 0.12841283
vn 0.53437793 0.13059503 -0.83509594
vn 0.03369242 0.10712534 -0.99367446
vn 0.04151565 0.31052893 -0.9496569
vn 0.04151565 0.6703966 -0.7408406
vn 0.7377814 0.38876098 -0.5518546
vn 0.03369242 0.74080545 -0.6708741
vn 0.95683134 -0.23709589 -0.16810511
vn 0.7768975 0.4513467 -0.43899485
vn 0.010222793 0.61563414 -0.78796583
vn 0.63607967 -0.6439029 0.42519608
vn 0.7690743 0.38093776 -0.5132359
vn -0.013246834 0.3339985 -0.9424805
vn 0.9881242 -0.15104061 0.028236957
vn -0.0054236054 -0.6204333 0.7842405
vn 0.75342786 0.20882708 -0.62348837
vn -0.028893292 -0.03369242 -0.9990145
vn 0.6282565 -0.47961545 0.612587
vn 0.9881242 -0.09627813 0.11975439
vn -0.65475017 -0.23709589 0.71769613
vn 0.7377814 -0.03369242 -0.6741983
vn -0.013246834 -0.30750483 -0.95145434
vn -0.021070063 -0.30750483 0.95131326
vn 0.63607967 -0.23709589 0.73429435
vn 0.9959474 -0.03369242 0.08338782
vn -0.9989715 0.013246834 0.043363634
vn -0.67821985 0.04453975 0.73350805
vn -0.03671652 0.06800932 0.99700886
vn 0.6439029 0.05236286 0.7633133
vn 0.9959474 0.013246834 0.08895633
vn 0.72995824 -0.19797987 -0.6541903
vn 0.9959474 0.083655775 0.0330215
vn 0.72995824 -0.17451024 -0.66083825
vn 0.018046021 -0.34662086 -0.9378317
vn 0.63607967 0.31835204 0.7028902
vn -0.060186088 0.40440744 0.91259646
vn 0.9724778 0.23229676 -0.018032454
vn 0.6126101 0.1227718 -0.7807919
vn 0.049338818 -0.010222793 -0.99872977
vn 0.6126101 0.5843412 0.5322163
vn 0.8003671 0.5139324 -0.3086843
vn 0.26838875 0.49046272 -0.82910424
vn -0.028893292 0.40440744 -0.9141224
vn 0.37009048 0.6703966 -0.6431185
vn 0.27621198 0.8425073 -0.46248072
vn 0.51873153 0.8425073 0.14525506
vn 0.010222793 0.9129161 -0.40801919
vn -0.083655775 0.7016894 0.7075547
vn -0.028893292 0.97550184 0.21808565
vn -0.25576645 0.8503304 -0.45991492
vn -0.5686949 0.8190376 0.07591792
vn -0.37311453 0.65475017 -0.6573338
vn -0.7173359 0.28705925 0.63484347
vn -0.7799216 0.47481626 -0.40776443
vn -0.28705925 0.44352347 -0.84904885
vn -0.73298234 0.52175564 0.43647215
vn -0.9989715 0.04453975 -0.008490827
vn -0.97550184 0.1540646 -0.15703589
vn -0.52957875 0.10712534 -0.8414692
vn -0.73298234 -0.018046021 -0.6800083
vn -0.7016894 -0.2058031 -0.6821122
vn -0.013246834 -0.30750483 -0.95145434
vn -0.6703966 -0.21362627 -0.7105858
vn 0.018046021 -0.34662086 -0.9378317
vn 0.049338818 -0.010222793 -0.99872977
vn -0.028893292 0.40440744 -0.9141224
vn -0.37311453 0.65475017 -0.6573338
vn -0.28705925 0.44352347 -0.84904885
vn 0.010222793 0.7251591 -0.6885055
vn -0.25576645 0.8503304 -0.45991492
vn -0.028893292 0.40440744 -0.9141224
vn 0.010222793 0.9129161 -0.40801919
vn 0.26838875 0.49046272 -0.82910424
vn 0.27621198 0.8425073 -0.46248072
vn 0.37009048 0.6703966 -0.6431185
vn 0.0023995638 -0.36226732 -0.93207115
vn -0.43570024 -0.2996816 -0.848738
vn -0.3339985 -0.5891404 -0.73577076
vn -0.013246834 -0.72995824 -0.6833634
vn -0.3027057 0.013246834 -0.952992
vn 0.30750483 -0.6517261 -0.69332093
vn 0.03369242 0.10712534 -0.99367446
vn 0.44049942 -0.3779137 -0.814335
vn 0.33097446 -0.03369242 -0.94303805
g ENV_S05_Tree_A_Branch_B_MO_0
f 3/3/3 2/2/2 1/1/1
f 3/3/3 4/4/4 2/2/2
f 2/2/2 4/4/4 5/5/5
f 2/2/2 5/5/5 6/6/6
f 5/5/5 7/7/7 6/6/6
f 3/3/3 8/8/8 4/4/4
f 8/8/8 5/5/5 4/4/4
f 3/3/3 9/9/9 8/8/8
f 8/8/8 9/9/9 10/10/10
f 5/5/5 11/11/11 7/7/7
f 11/11/11 12/12/12 7/7/7
f 8/8/8 10/10/10 13/13/13
f 14/14/14 13/13/13 10/10/10
f 8/8/8 15/15/15 5/5/5
f 15/15/15 11/11/11 5/5/5
f 15/15/15 8/8/8 13/13/13
f 11/11/11 16/16/16 12/12/12
f 16/16/16 17/17/17 12/12/12
f 14/14/14 18/18/18 13/13/13
f 18/18/18 14/14/14 19/19/19
f 15/15/15 13/13/13 20/20/20
f 18/18/18 20/20/20 13/13/13
f 15/15/15 21/21/21 11/11/11
f 21/21/21 16/16/16 11/11/11
f 21/21/21 15/15/15 20/20/20
f 16/16/16 22/22/22 17/17/17
f 22/22/22 23/23/23 17/17/17
f 18/18/18 19/19/19 24/24/24
f 25/25/25 24/24/24 19/19/19
f 18/18/18 26/26/26 20/20/20
f 24/24/24 26/26/26 18/18/18
f 21/21/21 20/20/20 27/27/27
f 27/27/27 20/20/20 26/26/26
f 21/21/21 28/28/28 16/16/16
f 28/28/28 22/22/22 16/16/16
f 28/28/28 21/21/21 27/27/27
f 25/25/25 29/29/29 24/24/24
f 29/29/29 25/25/25 30/30/30
f 24/24/24 31/31/31 26/26/26
f 29/29/29 31/31/31 24/24/24
f 27/27/27 26/26/26 32/32/32
f 32/32/32 26/26/26 31/31/31
f 28/28/28 27/27/27 33/33/33
f 33/33/33 27/27/27 32/32/32
f 28/28/28 34/34/34 22/22/22
f 34/34/34 28/28/28 33/33/33
f 29/29/29 30/30/30 35/35/35
f 36/36/36 35/35/35 30/30/30
f 36/36/36 37/37/37 35/35/35
f 35/35/35 37/37/37 38/38/38
f 35/35/35 38/38/38 39/39/39
f 39/39/39 29/29/29 35/35/35
f 39/39/39 38/38/38 40/40/40
f 29/29/29 41/41/41 31/31/31
f 39/39/39 41/41/41 29/29/29
f 39/39/39 40/40/40 42/42/42
f 42/42/42 41/41/41 39/39/39
f 42/42/42 40/40/40 43/43/43
f 41/41/41 44/44/44 31/31/31
f 32/32/32 31/31/31 44/44/44
f 42/42/42 43/43/43 45/45/45
f 45/45/45 43/43/43 46/46/46
f 42/42/42 47/47/47 41/41/41
f 41/41/41 47/47/47 44/44/44
f 45/45/45 47/47/47 42/42/42
f 48/48/48 32/32/32 44/44/44
f 33/33/33 32/32/32 48/48/48
f 45/45/45 46/46/46 49/49/49
f 49/49/49 46/46/46 50/50/50
f 47/47/47 51/51/51 44/44/44
f 48/48/48 44/44/44 51/51/51
f 45/45/45 52/52/52 47/47/47
f 49/49/49 52/52/52 45/45/45
f 47/47/47 52/52/52 51/51/51
f 53/53/53 33/33/33 48/48/48
f 34/34/34 33/33/33 53/53/53
f 49/49/49 50/50/50 54/54/54
f 54/54/54 50/50/50 55/55/55
f 56/56/56 48/48/48 51/51/51
f 53/53/53 48/48/48 56/56/56
f 52/52/52 57/57/57 51/51/51
f 56/56/56 51/51/51 57/57/57
f 49/49/49 58/58/58 52/52/52
f 54/54/54 58/58/58 49/49/49
f 52/52/52 58/58/58 57/57/57
f 59/59/59 34/34/34 53/53/53
f 60/60/60 53/53/53 56/56/56
f 59/59/59 53/53/53 60/60/60
f 61/61/61 56/56/56 57/57/57
f 60/60/60 56/56/56 61/61/61
f 58/58/58 62/62/62 57/57/57
f 61/61/61 57/57/57 62/62/62
f 54/54/54 63/63/63 58/58/58
f 58/58/58 63/63/63 62/62/62
f 64/64/64 63/63/63 54/54/54
f 54/54/54 55/55/55 64/64/64
f 62/62/62 63/63/63 65/65/65
f 64/64/64 65/65/65 63/63/63
f 55/55/55 66/66/66 64/64/64
f 66/66/66 65/65/65 64/64/64
f 55/55/55 67/67/67 66/66/66
f 68/68/68 61/61/61 62/62/62
f 62/62/62 65/65/65 68/68/68
f 69/69/69 60/60/60 61/61/61
f 68/68/68 69/69/69 61/61/61
f 68/68/68 65/65/65 70/70/70
f 66/66/66 70/70/70 65/65/65
f 67/67/67 71/71/71 66/66/66
f 67/67/67 72/72/72 71/71/71
f 68/68/68 70/70/70 73/73/73
f 73/73/73 69/69/69 68/68/68
f 74/74/74 70/70/70 66/66/66
f 74/74/74 66/66/66 71/71/71
f 73/73/73 70/70/70 74/74/74
f 72/72/72 75/75/75 71/71/71
f 72/72/72 76/76/76 75/75/75
f 77/77/77 71/71/71 75/75/75
f 77/77/77 74/74/74 71/71/71
f 74/74/74 77/77/77 78/78/78
f 74/74/74 78/78/78 79/79/79
f 73/73/73 74/74/74 79/79/79
f 80/80/80 79/79/79 78/78/78
f 73/73/73 81/81/81 69/69/69
f 79/79/79 81/81/81 73/73/73
f 80/80/80 82/82/82 79/79/79
f 79/79/79 82/82/82 81/81/81
f 83/83/83 82/82/82 80/80/80
f 83/83/83 84/84/84 82/82/82
f 84/84/84 81/81/81 82/82/82
f 85/85/85 84/84/84 83/83/83
f 81/81/81 86/86/86 69/69/69
f 69/69/69 86/86/86 60/60/60
f 86/86/86 59/59/59 60/60/60
f 85/85/85 87/87/87 84/84/84
f 87/87/87 85/85/85 88/88/88
f 84/84/84 89/89/89 81/81/81
f 81/81/81 89/89/89 86/86/86
f 87/87/87 89/89/89 84/84/84
f 86/86/86 90/90/90 59/59/59
f 89/89/89 90/90/90 86/86/86
f 87/87/87 91/91/91 89/89/89
f 89/89/89 91/91/91 90/90/90
f 87/87/87 88/88/88 92/92/92
f 91/91/91 87/87/87 92/92/92
f 93/93/93 59/59/59 90/90/90
f 34/34/34 59/59/59 93/93/93
f 34/34/34 93/93/93 22/22/22
f 22/22/22 93/93/93 23/23/23
f 93/93/93 90/90/90 94/94/94
f 23/23/23 93/93/93 94/94/94
f 94/94/94 90/90/90 91/91/91
f 23/23/23 94/94/94 95/95/95
f 94/94/94 91/91/91 96/96/96
f 95/95/95 94/94/94 96/96/96
f 91/91/91 92/92/92 96/96/96
f 95/95/95 96/96/96 97/97/97
f 97/97/97 96/96/96 92/92/92
f 97/97/97 92/92/92 98/98/98
f 98/98/98 92/92/92 88/88/88
f 98/98/98 88/88/88 99/99/99
f 102/102/102 101/101/101 100/100/100
f 100/100/100 103/103/103 102/102/102
f 102/102/102 104/104/104 101/101/101
f 103/103/103 105/105/105 102/102/102
f 106/106/106 104/104/104 102/102/102
f 102/102/102 105/105/105 107/107/107
f 108/108/108 106/106/106 102/102/102
f 107/107/107 108/108/108 102/102/102
f 111/111/111 110/110/110 109/109/109
f 109/109/109 112/112/112 111/111/111
f 109/109/109 110/110/110 113/113/113
f 109/109/109 114/114/114 112/112/112
f 109/109/109 113/113/113 115/115/115
f 109/109/109 116/116/116 114/114/114
f 109/109/109 115/115/115 117/117/117
f 117/117/117 116/116/116 109/109/109
