g ENV_Slide_LargeBendEighth_COL
v 11.322664 8.734196 -36.333584
v 14.461597 8.734196 -27.560848
v 13.0034485 9.69171 -27.118525
v 9.914892 9.69171 -35.75047
v 11.550892 7.1514645 -26.6779
v 8.51252 7.151466 -35.16959
v 9.995957 5.456328 -26.206215
v 7.011307 5.4563293 -34.547764
v 8.264838 3.9592383 -25.681087
v 5.3399963 3.9592395 -33.855484
v 6.380498 2.6800525 -25.109482
v 3.5207558 2.6800537 -33.101933
v 4.3679185 1.6357329 -24.498974
v 1.5777087 1.635734 -32.297092
v 2.2537966 0.84012985 -23.857656
v -0.46337196 0.84013104 -31.45165
v 0.06615493 0.30378982 -23.194042
v -2.5754344 0.3037905 -30.576805
v -2.1659882 0.03382942 -22.516928
v -4.730462 0.033829574 -29.68416
v -6.8998876 0.033829574 -28.785557
v 10.374366 3.9592376 -17.259382
v 8.44307 2.6800518 -16.875225
v 6.380341 1.6357319 -16.464918
v 4.2135386 0.8401286 -16.033916
v 1.9713857 0.3037892 -15.587924
v -0.31637695 0.033829268 -15.132856
v -4.413041 0.03382942 -21.835293
v 12.148621 5.456328 -17.612299
v -6.6451855 0.30378982 -21.158184
v -9.054915 0.3037905 -27.892914
v 13.742301 7.1514645 -17.929302
v -8.832827 0.84012985 -20.494568
v -11.166977 0.84013104 -27.01807
v 15.231053 9.69171 -18.225433
v 14.461597 8.734196 -27.560848
v -10.946949 1.6357329 -19.853256
v -13.208058 1.635734 -26.172626
v -12.959529 2.6800525 -19.242748
v -15.151106 2.6800537 -25.367792
v -14.843869 3.9592383 -18.67114
v -16.970345 3.9592395 -24.614237
v -16.574986 5.456328 -18.14601
v -18.641657 5.4563293 -23.921957
v -18.129921 7.1514645 -17.674326
v -20.14287 7.151466 -23.300137
v -19.582478 9.69171 -17.233696
v -21.54524 9.69171 -22.719252
v -21.040627 8.734196 -16.791372
v -22.953014 8.734196 -22.136137
v -19.66133 8.734196 -11.284907
v -18.166847 9.69171 -11.582177
v -16.678095 7.1514645 -11.878308
v -17.311975 9.69171 -5.819106
v -15.0844145 5.456328 -12.1953125
v -15.801367 7.151464 -5.967888
v -17.0261 9.691711 0
v -15.5081835 7.151464 0
v -14.184287 5.456327 -6.127156
v -13.88328 5.4563255 0
v -13.310161 3.9592376 -12.548235
v -12.383985 3.9592364 -6.3044724
v -12.074265 3.9592352 -3.6621093E-06
v -11.378865 2.6800518 -12.932392
v -10.424334 2.6800506 -6.4974804
v -10.105131 2.6800494 -3.6621093E-06
v -9.316135 1.6357319 -13.342695
v -8.33132 1.635731 -6.703623
v -8.00199 1.6357301 -1.2207031E-06
v -7.1493325 0.8401286 -13.773699
v -6.1327024 0.8401274 -6.9201684
v -5.792733 0.84012616 -1.2207031E-06
v -4.90718 0.3037892 -14.219692
v -3.8576329 0.3037886 -7.1442432
v -3.5066552 0.30378792 -1.2207031E-06
v -2.6194167 0.033829268 -14.674755
v -1.5362829 0.033829115 -7.3728757
v -1.1740744 0.033828963 0
v 1.1740744 0.033828963 0
v 0.8005641 0.033829115 -7.6030345
v 3.121914 0.3037886 -7.8316674
v 3.5066552 0.30378792 -2.4414062E-06
v 5.3969836 0.8401274 -8.055742
v 5.792733 0.84012616 -2.4414062E-06
v 7.595601 1.635731 -8.272287
v 8.00199 1.6357301 -2.4414062E-06
v 9.688614 2.6800506 -8.478433
v 10.105131 2.6800494 -3.6621093E-06
v 11.648264 3.9592364 -8.67144
v 12.074265 3.9592352 -3.6621093E-06
v 13.448569 5.456327 -8.848752
v 13.88328 5.4563255 0
v 15.065648 7.151464 -9.008022
v 15.5081835 7.151464 0
v 16.576256 9.69171 -9.156801
v 17.0261 9.691711 0
v 18.092682 8.734196 -9.306157
v 18.549864 8.734196 0
v 16.725536 8.734196 -18.522705
v 18.092682 8.734196 -9.306157
v 12.973624 4.5514784 -17.776402
v 10.800903 4.5514784 -26.45039
v 7.7884417 4.5514793 -34.869663
v 11.322664 8.734196 -36.333584
v -0.13911527 -0.34440583 -31.58596
v 2.589656 -0.34440708 -23.959541
v -9.251205 -0.91324216 -27.811611
v 14.285685 4.551477 -8.931201
v 18.549864 8.734196 0
v 14.724444 4.5514755 0
v -6.8485 -0.91324276 -21.096508
v -17.64622 2.9636834 -24.334282
v 4.5577664 -0.34440836 -16.102386
v 5.746266 -0.34440964 -8.090144
v 6.143705 -0.34441093 -2.4414062E-06
v -15.543928 2.963683 -18.458778
v -22.953014 8.734196 -22.136137
v -21.040627 8.734196 -16.791372
v -5.1155605 -0.9132435 -14.178242
v -4.0690722 -0.91324407 -7.123418
v -3.7191174 -0.9132448 -1.2207031E-06
v -14.027664 2.9636815 -12.405515
v -19.66133 8.734196 -11.284907
v -13.112021 2.9636803 -6.232766
v -12.805823 2.963679 -2.4414062E-06
v -18.8284 8.734196 -5.6697507
v -18.166847 9.69171 -11.582177
v -18.549864 8.734196 0
v -17.311975 9.69171 -5.819106
v -17.0261 9.691711 0
vt -0.0035927296 0.99928784
vt 0.74438596 0.99928784
vt 0.74438596 0.99928784
vt -0.0035927296 0.99928784
vt 0.74438596 0.9968749
vt -0.0035927296 0.9968749
vt 0.74438596 0.9949654
vt -0.0035927296 0.9949654
vt 0.74438596 0.9930559
vt -0.0035927296 0.9930559
vt 0.74438596 0.9911463
vt -0.0035927296 0.9911463
vt 0.74438596 0.98923683
vt -0.0035927296 0.98923683
vt 0.74438596 0.98732734
vt -0.0035927296 0.98732734
vt 0.74438596 0.98541784
vt -0.0035927296 0.98541784
vt 0.74438596 0.9835083
vt -0.0035927296 0.9835083
vt -0.0035927296 0.98159885
vt 1.4923592 0.9930559
vt 1.4923592 0.9911463
vt 1.4923592 0.98923695
vt 1.4923592 0.98732734
vt 1.4923592 0.98541784
vt 1.4923592 0.9835083
vt 0.74438596 0.9815988
vt 1.4923592 0.99496543
vt 0.74438596 0.9796893
vt -0.0035927296 0.97968924
vt 1.4923592 0.99687505
vt 0.74438596 0.97777975
vt -0.0035927296 0.97777975
vt 1.4923592 0.99928796
vt 0.74438596 0.99928784
vt 0.74438596 0.97587025
vt -0.0035927296 0.97587025
vt 0.74438596 0.9739607
vt -0.0035927296 0.97396064
vt 0.74438596 0.97205126
vt -0.0035927296 0.9720512
vt 0.74438596 0.97014177
vt -0.0035927296 0.97014177
vt 0.74438596 0.96823215
vt -0.0035927296 0.96823215
vt 0.74438596 0.96581924
vt -0.0035927296 0.96581924
vt 0.74438596 0.96581924
vt -0.0035927296 0.96581924
vt 1.4923661 0.96581924
vt 1.4923661 0.96581924
vt 1.4923661 0.9682322
vt 2.2403402 0.96581924
vt 1.4923661 0.9701417
vt 2.2403402 0.9682322
vt 3 0.96581924
vt 3 0.9682323
vt 2.2403402 0.97014177
vt 3 0.97014177
vt 1.4923592 0.9720513
vt 2.2403328 0.9720513
vt 3 0.97205126
vt 1.4923592 0.9739607
vt 2.2403402 0.97396076
vt 3 0.97396076
vt 1.4923592 0.9758704
vt 2.2403402 0.9758702
vt 3 0.9758702
vt 1.4923592 0.97777975
vt 2.2403402 0.97777975
vt 3 0.97777975
vt 1.4923592 0.9796892
vt 2.2403402 0.9796893
vt 3 0.97968936
vt 1.4923592 0.98159873
vt 2.2403402 0.98159873
vt 3 0.98159873
vt 3 0.9835082
vt 2.2403402 0.9835083
vt 2.2403402 0.98541784
vt 3 0.98541784
vt 2.2403402 0.98732734
vt 3 0.98732734
vt 2.2403402 0.98923683
vt 3 0.98923683
vt 2.2403328 0.9911463
vt 3 0.9911463
vt 2.2403328 0.9930559
vt 3 0.9930559
vt 2.2403402 0.9949654
vt 3 0.9949654
vt 2.2403402 0.9968749
vt 3 0.9968749
vt 2.2403402 0.99928784
vt 3 0.99928784
vt 2.2403402 0.99928784
vt 3 0.99928784
vt 1.4923592 0.99928796
vt 2.2403402 0.99928784
vt 1.4923592 0.99496543
vt 0.74438596 0.9949654
vt -0.0035927296 0.9949654
vt -0.0035927296 0.99928784
vt -0.0035927296 0.98732734
vt 0.74438596 0.98732734
vt -0.0035927296 0.97968924
vt 2.2403402 0.9949654
vt 3 0.99928784
vt 3 0.9949654
vt 0.74438596 0.9796893
vt -0.0035927296 0.9720512
vt 1.4923592 0.98732734
vt 2.2403402 0.98732734
vt 3 0.98732734
vt 0.74438596 0.97205126
vt -0.0035927296 0.96581924
vt 0.74438596 0.96581924
vt 1.4923592 0.9796892
vt 2.2403402 0.9796893
vt 3 0.97968936
vt 1.4923592 0.9720513
vt 1.4923661 0.96581924
vt 2.2403328 0.9720513
vt 3 0.97205126
vt 2.2403402 0.96581924
vt 1.4923661 0.96581924
vt 3 0.96581924
vt 2.2403402 0.96581924
vt 3 0.96581924
vn 0.8603282 -0.4062953 -0.3078303
vn 0.8742221 -0.40670472 -0.26519245
vn -0.41875458 0.89917105 0.12702778
vn -0.4124192 0.89896303 0.147566
vn -0.7702176 0.593444 0.23364288
vn -0.7581472 0.5929805 0.27126923
vn -0.65285224 0.73113877 0.19804053
vn -0.6427622 0.73072857 0.22998399
vn -0.56824017 0.80460566 0.1723738
vn -0.55953395 0.80426353 0.20020439
vn -0.4760985 0.86745167 0.14442286
vn -0.46886358 0.86719257 0.16776198
vn -0.37763947 0.9188392 0.11455569
vn -0.371942 0.9186665 0.13308294
vn -0.27415988 0.95808136 0.083165474
vn -0.2700477 0.9579864 0.09662453
vn -0.16702396 0.9846502 0.050666183
vn -0.16452897 0.984614 0.05886939
vn -0.057645813 0.9981839 0.017486677
vn -0.056786515 0.99817955 0.02031855
vn 0.051744632 0.99848866 -0.0185145
vn -0.5823995 0.80460584 0.11584645
vn -0.48796156 0.8674517 0.09706156
vn -0.38704944 0.9188392 0.07698887
vn -0.2809913 0.95808136 0.055892628
vn -0.1711857 0.9846502 0.03405097
vn -0.05908222 0.9981839 0.011752189
vn 0.052527588 0.99849236 -0.015934048
vn -0.6691201 0.7311387 0.13309619
vn 0.16203745 0.9855596 -0.04915352
vn 0.15961727 0.98552555 -0.057111967
vn -0.78940964 0.59344417 0.15702325
vn 0.2694303 0.95954543 -0.081730805
vn 0.2653899 0.9594536 -0.09495798
vn -0.4291886 0.8991712 0.08537088
vn 0.8742221 -0.40670472 -0.26519245
vn 0.37327942 0.92078274 -0.11323309
vn 0.3676492 0.9206137 -0.13154697
vn 0.4722017 0.8697745 -0.14324081
vn 0.46502823 0.869519 -0.16638973
vn 0.5648773 0.8071875 -0.17135364
vn 0.5562256 0.8068481 -0.1990207
vn 0.65006644 0.73384434 -0.19719554
vn 0.6400225 0.733436 -0.22900392
vn 0.7664483 0.5987495 -0.23249958
vn 0.7544427 0.5982864 -0.26994386
vn 0.46734613 0.87263364 -0.14176792
vn 0.4602489 0.8723827 -0.16467948
vn -0.8071132 -0.5372374 0.24483502
vn -0.7944035 -0.53677696 0.28424212
vn -0.8272247 -0.53723764 0.16454518
vn 0.47899148 0.8726336 -0.09527735
vn 0.78554654 0.5987496 -0.15625487
vn 0.48602384 0.8726336 -0.047869187
vn 0.66626465 0.73384446 -0.13252826
vn 0.7970796 0.59874946 -0.07850548
vn 0.48823488 0.87238264 -0.023985535
vn 0.8003171 0.59828645 -0.039317023
vn 0.6760466 0.73384446 -0.06658473
vn 0.67893976 0.7334359 -0.033353988
vn 0.5789527 0.80718756 -0.11516085
vn 0.5874526 0.80718756 -0.057859056
vn 0.59004694 0.80684835 -0.028987028
vn 0.48396784 0.8697745 -0.09626718
vn 0.49107307 0.8697746 -0.04836651
vn 0.49330407 0.8695193 -0.024234457
vn 0.3825807 0.92078274 -0.07610006
vn 0.38819736 0.92078274 -0.038234126
vn 0.3900039 0.92061377 -0.019159656
vn 0.27614382 0.95954543 -0.054928426
vn 0.28019795 0.95954543 -0.027597103
vn 0.28152668 0.95945376 -0.013830509
vn 0.16607493 0.9855597 -0.033034354
vn 0.16851301 0.9855597 -0.016597092
vn 0.16932248 0.98552567 -0.008318266
vn 0.053836424 0.99849236 -0.010708718
vn 0.05462681 0.99849236 -0.0053802636
vn 0.054890893 0.99848866 -0.0026966012
vn -0.06023935 0.99817955 0.0029593806
vn -0.05994959 0.9981839 0.0059045316
vn -0.17369884 0.9846502 0.017107854
vn -0.17453282 0.984614 0.0085742455
vn -0.28511658 0.95808136 0.028081533
vn -0.28646767 0.95798653 0.014073254
vn -0.39273173 0.9188392 0.038680714
vn -0.3945577 0.91866666 0.019383376
vn -0.49512553 0.86745185 0.048765644
vn -0.49737266 0.86719286 0.024434393
vn -0.5909497 0.80460596 0.058203537
vn -0.5935566 0.8042639 0.029159665
vn -0.67894363 0.73113877 0.06687015
vn -0.6818459 0.73072857 0.033497006
vn -0.8009994 0.59344417 0.078891575
vn -0.8042467 0.59298074 0.03951008
vn -0.43548995 0.8991712 0.042892013
vn -0.4374962 0.89896333 0.021492777
vn 0.90916073 -0.40670455 -0.08954445
vn 0.91264105 -0.4062956 -0.04483512
vn 0.8960059 -0.4067047 -0.17822658
vn 0.90916073 -0.40670455 -0.08954445
vn 0.5860308 -0.8018601 -0.11656869
vn 0.57178324 -0.8018601 -0.17344852
vn 0.56301975 -0.8015148 -0.20145163
vn 0.8603282 -0.4062953 -0.3078303
vn 0.2857741 -0.95282614 -0.1022516
vn 0.2901294 -0.9529319 -0.0880098
vn -0.14143112 -0.98865384 0.050604835
vn 0.5946346 -0.8018601 -0.058566373
vn 0.91264105 -0.4062956 -0.04483512
vn 0.5972546 -0.80151486 -0.02934119
vn -0.14357458 -0.9886807 0.04355282
vn -0.5012974 -0.8464801 0.17936718
vn 0.29735887 -0.9529319 -0.05914837
vn 0.30172467 -0.9529319 -0.029717334
vn 0.30315092 -0.95282614 -0.014892884
vn -0.5090546 -0.84676903 0.15442005
vn -0.7944035 -0.53677696 0.28424212
vn -0.8071132 -0.5372374 0.24483502
vn -0.1471522 -0.9886806 0.029270316
vn -0.14931269 -0.9886806 0.014705969
vn -0.15003099 -0.98865384 0.0073704966
vn -0.5217391 -0.8467691 0.103780374
vn -0.8272247 -0.53723764 0.16454518
vn -0.529399 -0.8467691 0.052141335
vn -0.531779 -0.84648025 0.026124647
vn -0.83936954 -0.53723764 0.082670815
vn 0.47899148 0.8726336 -0.09527735
vn -0.8427079 -0.5367769 0.041399557
vn 0.48602384 0.8726336 -0.047869187
vn 0.48823488 0.87238264 -0.023985535
g ENV_Slide_LargeBendEighth_COL_0
f 3/3/3 2/2/2 1/1/1
f 4/4/4 3/3/3 1/1/1
f 5/5/5 3/3/3 4/4/4
f 6/6/6 5/5/5 4/4/4
f 7/7/7 5/5/5 6/6/6
f 8/8/8 7/7/7 6/6/6
f 9/9/9 7/7/7 8/8/8
f 10/10/10 9/9/9 8/8/8
f 11/11/11 9/9/9 10/10/10
f 12/12/12 11/11/11 10/10/10
f 13/13/13 11/11/11 12/12/12
f 14/14/14 13/13/13 12/12/12
f 15/15/15 13/13/13 14/14/14
f 16/16/16 15/15/15 14/14/14
f 17/17/17 15/15/15 16/16/16
f 18/18/18 17/17/17 16/16/16
f 19/19/19 17/17/17 18/18/18
f 20/20/20 19/19/19 18/18/18
f 20/20/20 21/21/21 19/19/19
f 9/9/9 22/22/22 7/7/7
f 11/11/11 23/23/23 9/9/9
f 23/23/23 22/22/22 9/9/9
f 13/13/13 24/24/24 11/11/11
f 24/24/24 23/23/23 11/11/11
f 15/15/15 25/25/25 13/13/13
f 25/25/25 24/24/24 13/13/13
f 17/17/17 26/26/26 15/15/15
f 26/26/26 25/25/25 15/15/15
f 19/19/19 27/27/27 17/17/17
f 27/27/27 26/26/26 17/17/17
f 21/21/21 28/28/28 19/19/19
f 19/19/19 28/28/28 27/27/27
f 22/22/22 29/29/29 7/7/7
f 7/7/7 29/29/29 5/5/5
f 30/30/30 28/28/28 21/21/21
f 31/31/31 30/30/30 21/21/21
f 29/29/29 32/32/32 5/5/5
f 5/5/5 32/32/32 3/3/3
f 33/33/33 30/30/30 31/31/31
f 34/34/34 33/33/33 31/31/31
f 32/32/32 35/35/35 3/3/3
f 3/3/3 35/35/35 36/36/36
f 37/37/37 33/33/33 34/34/34
f 38/38/38 37/37/37 34/34/34
f 39/39/39 37/37/37 38/38/38
f 40/40/40 39/39/39 38/38/38
f 41/41/41 39/39/39 40/40/40
f 42/42/42 41/41/41 40/40/40
f 43/43/43 41/41/41 42/42/42
f 44/44/44 43/43/43 42/42/42
f 45/45/45 43/43/43 44/44/44
f 46/46/46 45/45/45 44/44/44
f 47/47/47 45/45/45 46/46/46
f 48/48/48 47/47/47 46/46/46
f 49/49/49 47/47/47 48/48/48
f 50/50/50 49/49/49 48/48/48
f 49/49/49 51/51/51 47/47/47
f 51/51/51 52/52/52 47/47/47
f 47/47/47 52/52/52 45/45/45
f 52/52/52 53/53/53 45/45/45
f 45/45/45 53/53/53 43/43/43
f 52/52/52 54/54/54 53/53/53
f 43/43/43 55/55/55 41/41/41
f 53/53/53 55/55/55 43/43/43
f 54/54/54 56/56/56 53/53/53
f 53/53/53 56/56/56 55/55/55
f 54/54/54 57/57/57 56/56/56
f 57/57/57 58/58/58 56/56/56
f 56/56/56 58/58/58 59/59/59
f 56/56/56 59/59/59 55/55/55
f 58/58/58 60/60/60 59/59/59
f 55/55/55 61/61/61 41/41/41
f 55/55/55 59/59/59 61/61/61
f 41/41/41 61/61/61 39/39/39
f 59/59/59 60/60/60 62/62/62
f 59/59/59 62/62/62 61/61/61
f 60/60/60 63/63/63 62/62/62
f 61/61/61 64/64/64 39/39/39
f 61/61/61 62/62/62 64/64/64
f 39/39/39 64/64/64 37/37/37
f 62/62/62 63/63/63 65/65/65
f 62/62/62 65/65/65 64/64/64
f 63/63/63 66/66/66 65/65/65
f 64/64/64 67/67/67 37/37/37
f 64/64/64 65/65/65 67/67/67
f 37/37/37 67/67/67 33/33/33
f 65/65/65 66/66/66 68/68/68
f 65/65/65 68/68/68 67/67/67
f 66/66/66 69/69/69 68/68/68
f 67/67/67 70/70/70 33/33/33
f 67/67/67 68/68/68 70/70/70
f 33/33/33 70/70/70 30/30/30
f 68/68/68 69/69/69 71/71/71
f 68/68/68 71/71/71 70/70/70
f 69/69/69 72/72/72 71/71/71
f 70/70/70 73/73/73 30/30/30
f 70/70/70 71/71/71 73/73/73
f 30/30/30 73/73/73 28/28/28
f 71/71/71 72/72/72 74/74/74
f 71/71/71 74/74/74 73/73/73
f 72/72/72 75/75/75 74/74/74
f 73/73/73 76/76/76 28/28/28
f 73/73/73 74/74/74 76/76/76
f 28/28/28 76/76/76 27/27/27
f 74/74/74 75/75/75 77/77/77
f 74/74/74 77/77/77 76/76/76
f 75/75/75 78/78/78 77/77/77
f 77/77/77 78/78/78 79/79/79
f 27/27/27 76/76/76 80/80/80
f 76/76/76 77/77/77 80/80/80
f 80/80/80 77/77/77 79/79/79
f 27/27/27 80/80/80 26/26/26
f 80/80/80 79/79/79 81/81/81
f 80/80/80 81/81/81 26/26/26
f 79/79/79 82/82/82 81/81/81
f 26/26/26 81/81/81 25/25/25
f 81/81/81 82/82/82 83/83/83
f 81/81/81 83/83/83 25/25/25
f 82/82/82 84/84/84 83/83/83
f 25/25/25 83/83/83 24/24/24
f 83/83/83 84/84/84 85/85/85
f 83/83/83 85/85/85 24/24/24
f 84/84/84 86/86/86 85/85/85
f 24/24/24 85/85/85 23/23/23
f 85/85/85 86/86/86 87/87/87
f 85/85/85 87/87/87 23/23/23
f 86/86/86 88/88/88 87/87/87
f 23/23/23 87/87/87 22/22/22
f 87/87/87 88/88/88 89/89/89
f 87/87/87 89/89/89 22/22/22
f 88/88/88 90/90/90 89/89/89
f 22/22/22 89/89/89 29/29/29
f 89/89/89 90/90/90 91/91/91
f 89/89/89 91/91/91 29/29/29
f 90/90/90 92/92/92 91/91/91
f 29/29/29 91/91/91 32/32/32
f 91/91/91 92/92/92 93/93/93
f 91/91/91 93/93/93 32/32/32
f 92/92/92 94/94/94 93/93/93
f 32/32/32 93/93/93 35/35/35
f 93/93/93 94/94/94 95/95/95
f 93/93/93 95/95/95 35/35/35
f 94/94/94 96/96/96 95/95/95
f 95/95/95 96/96/96 97/97/97
f 96/96/96 98/98/98 97/97/97
f 35/35/35 95/95/95 99/99/99
f 95/95/95 100/100/100 99/99/99
f 35/35/35 99/99/99 36/36/36
f 99/99/99 100/100/100 101/101/101
f 36/36/36 99/99/99 102/102/102
f 99/99/99 101/101/101 102/102/102
f 36/36/36 102/102/102 103/103/103
f 104/104/104 36/36/36 103/103/103
f 103/103/103 102/102/102 105/105/105
f 102/102/102 106/106/106 105/105/105
f 102/102/102 101/101/101 106/106/106
f 105/105/105 106/106/106 107/107/107
f 100/100/100 108/108/108 101/101/101
f 100/100/100 109/109/109 108/108/108
f 109/109/109 110/110/110 108/108/108
f 106/106/106 111/111/111 107/107/107
f 107/107/107 111/111/111 112/112/112
f 101/101/101 113/113/113 106/106/106
f 101/101/101 108/108/108 113/113/113
f 106/106/106 113/113/113 111/111/111
f 108/108/108 110/110/110 114/114/114
f 108/108/108 114/114/114 113/113/113
f 110/110/110 115/115/115 114/114/114
f 111/111/111 116/116/116 112/112/112
f 112/112/112 116/116/116 117/117/117
f 116/116/116 118/118/118 117/117/117
f 113/113/113 119/119/119 111/111/111
f 113/113/113 114/114/114 119/119/119
f 111/111/111 119/119/119 116/116/116
f 114/114/114 115/115/115 120/120/120
f 114/114/114 120/120/120 119/119/119
f 115/115/115 121/121/121 120/120/120
f 116/116/116 122/122/122 118/118/118
f 119/119/119 122/122/122 116/116/116
f 119/119/119 120/120/120 122/122/122
f 122/122/122 123/123/123 118/118/118
f 120/120/120 121/121/121 124/124/124
f 120/120/120 124/124/124 122/122/122
f 122/122/122 124/124/124 123/123/123
f 121/121/121 125/125/125 124/124/124
f 124/124/124 126/126/126 123/123/123
f 124/124/124 125/125/125 126/126/126
f 123/123/123 126/126/126 127/127/127
f 125/125/125 128/128/128 126/126/126
f 126/126/126 129/129/129 127/127/127
f 126/126/126 128/128/128 129/129/129
f 128/128/128 130/130/130 129/129/129
