g ENV_Tut_SolidBlock_05
v 19.453566 -3.169035 0.018695831
v 19.485062 -0.03181839 -0.012802124
v 19.485062 -3.169035 -0.012802124
v 19.453566 -0.03181839 0.018695831
v 19.453566 0.00027275085 -0.012802124
v -19.429745 -0.03181839 0.018695831
v -19.429745 -3.169035 0.018695831
v -19.461243 -3.169035 -0.012802124
v -19.461243 -0.03181839 -0.012802124
v -19.429745 0.00027275085 -0.012802124
v -19.429745 0.00027275085 -14.79855
v -19.461243 -0.03181839 -0.012802124
v -19.461243 -0.03181839 -14.79855
v -19.461243 -3.169035 -0.012802124
v -19.461243 -3.169035 -14.79855
v -19.429745 -0.03181839 -14.830047
v 19.453566 0.00027275085 -14.79855
v 19.485062 -0.03181839 -14.79855
v 19.485062 -0.03181839 -0.012802124
v 19.485062 -3.169035 -14.79855
v 19.485062 -3.169035 -0.012802124
v 19.453566 -0.03181839 -14.830047
v -19.429745 -3.169035 -14.830047
v -19.461243 -0.03181839 -14.79855
v -19.461243 -3.169035 -14.79855
v 19.453566 -3.169035 -14.830047
v 19.485062 -3.169035 -14.79855
v 19.485062 -0.03181839 -14.79855
vt 0.9170322 0.0146484375
vt 0.9170322 0.08201883
vt 0.9170322 0.0146484375
vt 0.9170322 0.08201883
vt 0.9170322 0.08296771
vt 0.08296771 0.08201883
vt 0.08296771 0.0146484375
vt 0.08296771 0.0146484375
vt 0.08296771 0.08201883
vt 0.08296771 0.08296771
vt 0.08296771 0.39989322
vt 0.08201883 0.08296771
vt 0.08201883 0.39989322
vt 0.0146484375 0.08296771
vt 0.0146484375 0.39989322
vt 0.08296771 0.40179098
vt 0.9170322 0.39989322
vt 0.9179811 0.39989322
vt 0.9179811 0.08296771
vt 0.98535144 0.39989322
vt 0.98535144 0.08296771
vt 0.9170322 0.40179098
vt 0.08296771 0.4691614
vt 0.08296771 0.40179098
vt 0.08296771 0.4691614
vt 0.9170322 0.4691614
vt 0.9170322 0.4691614
vt 0.9170322 0.40179098
vn 0.0039215684 0.003921509 0.9999846
vn 0.99993086 0.011763803 -0
vn 0.9999924 0.003921509 -0
vn 0.0039215684 0.011764526 0.9999231
vn 0.0039215684 0.99999225 -0.00034526698
vn -0.003921509 0.011764526 0.9999231
vn -0.003921509 0.003921509 0.9999846
vn -0.99999225 0.003921509 -0.00034492963
vn -0.99993086 0.011763804 -0
vn -0.003921509 0.99999225 -0.00034526698
vn -0.003921509 0.99999225 -0.00034526698
vn -0.99993086 0.011763804 -0
vn -0.99993086 0.011763804 -0
vn -0.99999225 0.003921509 -0.00034492963
vn -0.99999225 0.003921509 -0.00034492963
vn -0.003921509 0.011764526 -0.9999231
vn 0.0039215684 0.99999225 -0.00034526698
vn 0.99993086 0.011763803 -0
vn 0.99993086 0.011763803 -0
vn 0.9999924 0.003921509 -0
vn 0.9999924 0.003921509 -0
vn 0.0039215684 0.011764526 -0.9999231
vn -0.003921509 0.003921509 -0.9999846
vn -0.99993086 0.011763804 -0
vn -0.99999225 0.003921509 -0.00034492963
vn 0.0039215684 0.003921509 -0.9999846
vn 0.9999924 0.003921509 -0
vn 0.99993086 0.011763803 -0
g ENV_Tut_SolidBlock_05_0
f 3/3/3 2/2/2 1/1/1
f 2/2/2 4/4/4 1/1/1
f 2/2/2 5/5/5 4/4/4
f 1/1/1 4/4/4 6/6/6
f 7/7/7 1/1/1 6/6/6
f 7/7/7 6/6/6 8/8/8
f 6/6/6 9/9/9 8/8/8
f 9/9/9 6/6/6 10/10/10
f 6/6/6 4/4/4 10/10/10
f 4/4/4 5/5/5 10/10/10
f 10/10/10 5/5/5 11/11/11
f 10/10/10 11/11/11 12/12/12
f 11/11/11 13/13/13 12/12/12
f 14/14/14 12/12/12 13/13/13
f 15/15/15 14/14/14 13/13/13
f 13/13/13 11/11/11 16/16/16
f 5/5/5 17/17/17 11/11/11
f 11/11/11 17/17/17 16/16/16
f 18/18/18 17/17/17 5/5/5
f 19/19/19 18/18/18 5/5/5
f 20/20/20 18/18/18 19/19/19
f 21/21/21 20/20/20 19/19/19
f 18/18/18 22/22/22 17/17/17
f 17/17/17 22/22/22 16/16/16
f 23/23/23 16/16/16 22/22/22
f 16/16/16 23/23/23 24/24/24
f 23/23/23 25/25/25 24/24/24
f 26/26/26 23/23/23 22/22/22
f 27/27/27 26/26/26 22/22/22
f 28/28/28 27/27/27 22/22/22
