g ENV_S04_SLC2_PegWall_Slime_02_MO
v -21.604277 17.761404 12.688013
v -24.631258 18.105818 12.674635
v -25.162924 15.097227 10.522062
v -22.135939 14.848112 10.527914
v -18.389204 17.396929 12.701387
v -25.268251 3.1798954 3.6246223
v -28.294397 3.019392 3.6204414
v -18.372484 14.56138 10.536272
v -12.770773 16.792536 12.69219
v -26.355825 0.36273766 1.9050694
v -29.381971 0.10610008 1.895874
v -19.096418 3.6104107 3.643013
v -19.08639 0.9771614 1.927639
v -12.713091 1.5539684 1.8858414
v -12.7206135 3.9874249 3.5903473
v -6.337286 2.0906506 1.9050694
v -12.756559 14.154272 10.512865
v -6.38995 16.08114 12.708075
v -6.343973 4.324314 3.5995426
v 0.037683487 2.6348553 1.9142647
v -6.3765755 13.641832 10.517046
v -0.008293152 15.384794 12.707239
v 0.03266716 4.6678905 3.5978718
v 6.4134884 3.1773872 1.9259682
v 0.004245758 13.141935 10.506178
v 6.372526 14.554693 12.701387
v 6.4093094 5.047411 3.5610886
v 12.789293 3.7207565 1.9418507
v 6.385067 12.56262 10.455183
v 12.753347 13.822397 12.688013
v 12.786786 5.3909874 3.566105
v 19.167606 4.2273426 1.9861565
v 12.765051 12.040148 10.437628
v 19.12999 12.917898 12.672129
v 19.163427 5.660164 3.6379967
v 19.142529 11.284449 10.459364
v 23.075682 12.512461 12.654573
v 23.103268 5.875839 3.634653
v 23.105776 4.5659027 1.9903355
v 23.08655 10.991865 10.440138
v 25.400463 6.001232 3.6329803
v 25.402136 4.762352 1.9928436
v 25.388762 10.822168 10.428434
v 25.378729 12.275888 12.643705
vt 0.7505775 0.6237264
vt 0.793119 0.6283673
vt 0.80394775 0.59278715
vt 0.76140624 0.58891976
vt 0.70494205 0.61908555
vt 0.81709695 0.45897475
vt 0.85963845 0.45974824
vt 0.708036 0.5842788
vt 0.6260469 0.6113507
vt 0.834887 0.42803547
vt 0.878202 0.42726198
vt 0.72892 0.45974824
vt 0.73124045 0.42880896
vt 0.640743 0.42958242
vt 0.6384226 0.45897475
vt 0.55024564 0.4303559
vt 0.6283673 0.578091
vt 0.5355495 0.60206896
vt 0.54792523 0.4574278
vt 0.45897475 0.4311294
vt 0.5386434 0.57035613
vt 0.44582555 0.59278715
vt 0.4574278 0.4566543
vt 0.36847734 0.4311294
vt 0.448146 0.56262136
vt 0.35532814 0.5835054
vt 0.3661569 0.45510733
vt 0.27797994 0.4311294
vt 0.35842207 0.55411303
vt 0.26560423 0.5742236
vt 0.2756595 0.45433384
vt 0.18748254 0.4311294
vt 0.26792467 0.54637825
vt 0.17510682 0.56494176
vt 0.18516208 0.4520134
vt 0.17742726 0.53786993
vt 0.1194161 0.5595274
vt 0.12947138 0.4512399
vt 0.13101834 0.4311294
vt 0.12173656 0.53400254
vt 0.09621164 0.45046645
vt 0.09853209 0.4303559
vt 0.089250304 0.5309086
vt 0.08692986 0.557207
vn -0 0.8944272 -0.44721365
vn -0 0.8944272 -0.44721365
vn -0 0.8944272 -0.44721365
vn -0 0.8944272 -0.44721365
vn -0 0.8944272 -0.44721365
vn -0 0.8944272 -0.44721365
vn -0 0.8944272 -0.44721365
vn -0 0.8944272 -0.44721365
vn -0 0.8944272 -0.44721365
vn -0 0.8944272 -0.44721365
vn -0 0.8944272 -0.44721365
vn -0 0.8944272 -0.44721365
vn -0 0.8944272 -0.44721365
vn -0 0.8944272 -0.44721365
vn -0 0.8944272 -0.44721365
vn -0 0.8944272 -0.44721365
vn -0 0.8944272 -0.44721365
vn -0 0.8944272 -0.44721365
vn -0 0.8944272 -0.44721365
vn -0 0.8944272 -0.44721365
vn -0 0.8944272 -0.44721365
vn -0 0.8944272 -0.44721365
vn -0 0.8944272 -0.44721365
vn -0 0.8944272 -0.44721365
vn -0 0.8944272 -0.44721365
vn -0 0.8944272 -0.44721365
vn -0 0.8944272 -0.44721365
vn -0 0.8944272 -0.44721365
vn -0 0.8944272 -0.44721365
vn -0 0.8944272 -0.44721365
vn -0 0.8944272 -0.44721365
vn -0 0.8944272 -0.44721365
vn -0 0.8944272 -0.44721365
vn -0 0.8944272 -0.44721365
vn -0 0.8944272 -0.44721365
vn -0 0.8944272 -0.44721365
vn -0 0.8944272 -0.44721365
vn -0 0.8944272 -0.44721365
vn -0 0.8944272 -0.44721365
vn -0 0.8944272 -0.44721365
vn -0 0.8944272 -0.44721365
vn -0 0.8944272 -0.44721365
vn -0 0.8944272 -0.44721365
vn -0 0.8944272 -0.44721365
g ENV_S04_SLC2_PegWall_Slime_02_MO_0
f 3/3/3 2/2/2 1/1/1
f 4/4/4 3/3/3 1/1/1
f 4/4/4 1/1/1 5/5/5
f 4/4/4 6/6/6 3/3/3
f 6/6/6 7/7/7 3/3/3
f 8/8/8 4/4/4 5/5/5
f 4/4/4 8/8/8 6/6/6
f 8/8/8 5/5/5 9/9/9
f 6/6/6 10/10/10 7/7/7
f 10/10/10 11/11/11 7/7/7
f 6/6/6 12/12/12 10/10/10
f 8/8/8 12/12/12 6/6/6
f 12/12/12 13/13/13 10/10/10
f 14/14/14 13/13/13 12/12/12
f 15/15/15 14/14/14 12/12/12
f 15/15/15 12/12/12 8/8/8
f 16/16/16 14/14/14 15/15/15
f 17/17/17 8/8/8 9/9/9
f 17/17/17 15/15/15 8/8/8
f 17/17/17 9/9/9 18/18/18
f 19/19/19 16/16/16 15/15/15
f 19/19/19 15/15/15 17/17/17
f 20/20/20 16/16/16 19/19/19
f 21/21/21 17/17/17 18/18/18
f 21/21/21 19/19/19 17/17/17
f 21/21/21 18/18/18 22/22/22
f 23/23/23 20/20/20 19/19/19
f 23/23/23 19/19/19 21/21/21
f 24/24/24 20/20/20 23/23/23
f 25/25/25 21/21/21 22/22/22
f 25/25/25 23/23/23 21/21/21
f 25/25/25 22/22/22 26/26/26
f 27/27/27 24/24/24 23/23/23
f 27/27/27 23/23/23 25/25/25
f 28/28/28 24/24/24 27/27/27
f 29/29/29 25/25/25 26/26/26
f 29/29/29 27/27/27 25/25/25
f 29/29/29 26/26/26 30/30/30
f 31/31/31 28/28/28 27/27/27
f 31/31/31 27/27/27 29/29/29
f 32/32/32 28/28/28 31/31/31
f 33/33/33 29/29/29 30/30/30
f 33/33/33 31/31/31 29/29/29
f 33/33/33 30/30/30 34/34/34
f 35/35/35 32/32/32 31/31/31
f 35/35/35 31/31/31 33/33/33
f 36/36/36 33/33/33 34/34/34
f 36/36/36 35/35/35 33/33/33
f 36/36/36 34/34/34 37/37/37
f 32/32/32 35/35/35 38/38/38
f 39/39/39 32/32/32 38/38/38
f 35/35/35 36/36/36 40/40/40
f 40/40/40 36/36/36 37/37/37
f 38/38/38 35/35/35 40/40/40
f 38/38/38 41/41/41 39/39/39
f 38/38/38 40/40/40 41/41/41
f 41/41/41 42/42/42 39/39/39
f 40/40/40 43/43/43 41/41/41
f 43/43/43 40/40/40 37/37/37
f 44/44/44 43/43/43 37/37/37
