g ENV_SY01_Bluejay_StoneWall_Casing_MO
v -21.415972 14.807974 1.1517067
v -21.406813 14.816477 1.1916122
v -21.366255 14.807974 1.2007713
v -21.366255 14.787039 1.1517067
v -21.415972 14.807974 -1.1517048
v -7.121866 14.787039 1.1517067
v -7.121866 14.807974 1.2007713
v -21.366255 14.787039 -1.1517048
v 7.1218653 14.787039 1.1517067
v 7.1218653 14.807974 1.2007713
v -21.366255 14.807974 -1.2007694
v -21.406813 14.816477 -1.1916103
v -21.415972 14.8570385 -1.2007694
v 21.366253 14.787039 1.1517067
v 21.366253 14.807974 1.2007713
v 21.41597 14.807974 1.1517067
v 21.406813 14.816477 1.1916122
v 21.366253 14.787039 -1.1517048
v 21.41597 14.807974 -1.1517048
v 7.1218653 14.787039 -1.1517048
v 21.366253 14.807974 -1.2007694
v 21.406813 14.816477 -1.1916103
v 21.41597 14.8570385 -1.2007694
v -7.121866 14.787039 -1.1517048
v 7.1218653 14.807974 -1.2007694
v -7.121866 14.807974 -1.2007694
v 21.366253 14.8570385 -1.2217045
v 7.1218653 14.8570385 -1.2217045
v 21.366253 21.030653 -1.2217045
v 21.41597 21.030653 -1.2007694
v -7.121866 14.8570385 -1.2217045
v 7.1218653 21.030653 -1.2217045
v 21.366253 21.08037 -1.2007694
v 21.406813 21.07121 -1.1916103
v 21.41597 21.08037 -1.1517048
v -21.366255 14.8570385 -1.2217045
v -21.415972 21.030653 -1.2007694
v -21.366255 21.030653 -1.2217045
v -7.121866 21.030653 -1.2217045
v 7.1218653 21.08037 -1.2007694
v 21.366253 21.100649 -1.1517048
v -21.366255 21.08037 -1.2007694
v -21.406813 21.07121 -1.1916103
v -21.415972 21.08037 -1.1517048
v -7.121866 21.08037 -1.2007694
v 21.366253 21.100649 1.1517067
v 21.41597 21.08037 1.1517067
v 7.1218653 21.100649 -1.1517048
v -21.366255 21.100649 -1.1517048
v -21.415972 21.08037 1.1517067
v -7.121866 21.100649 -1.1517048
v 21.366253 21.08037 1.2007713
v 21.406813 21.07121 1.1916122
v 7.1218653 21.100649 1.1517067
v -21.366255 21.100649 1.1517067
v -7.121866 21.100649 1.1517067
v -21.366255 21.08037 1.2007713
v -21.406813 21.07121 1.1916122
v 7.1218653 21.08037 1.2007713
v -7.121866 21.08037 1.2007713
v 21.41597 21.030653 1.2007713
v 21.41597 21.08037 1.1517067
v 21.366253 21.030653 1.2217045
v 7.1218653 21.030653 1.2217045
v -21.415972 21.030653 1.2007713
v -21.415972 21.08037 1.1517067
v -7.121866 21.030653 1.2217045
v 21.366253 14.8570385 1.2217045
v -21.43625 21.030653 1.1517067
v -21.415972 21.08037 -1.1517048
v -21.366255 21.030653 1.2217045
v 7.1218653 14.8570385 1.2217045
v 21.41597 14.8570385 1.2007713
v 21.366253 14.807974 1.2007713
v 21.406813 14.816477 1.1916122
v 7.1218653 14.807974 1.2007713
v 21.41597 14.807974 1.1517067
v -7.121866 14.8570385 1.2217045
v -7.121866 14.807974 1.2007713
v -21.366255 14.8570385 1.2217045
v -21.366255 14.807974 1.2007713
v -21.415972 14.8570385 1.2007713
v -21.406813 14.816477 1.1916122
v -21.415972 14.807974 1.1517067
v -21.43625 14.8570385 1.1517067
v -21.43625 14.8570385 -1.1517048
v -21.415972 14.807974 -1.1517048
v -21.43625 21.030653 -1.1517048
v -21.415972 14.8570385 -1.2007694
v -21.406813 14.816477 -1.1916103
v -21.415972 21.030653 -1.2007694
v -21.406813 21.07121 -1.1916103
v 21.41597 21.08037 -1.1517048
v 21.406813 21.07121 -1.1916103
v 21.41597 21.030653 -1.2007694
v 21.43625 21.030653 -1.1517048
v 21.43625 14.8570385 -1.1517048
v 21.41597 14.8570385 -1.2007694
v 21.43625 21.030653 1.1517067
v 21.43625 14.8570385 1.1517067
v 21.41597 14.807974 -1.1517048
v 21.406813 14.816477 -1.1916103
vt -1.1763773 1.0789027
vt -1.1754613 1.082567
vt -1.1727132 1.083483
vt -1.1727132 1.0789027
vt -1.1727132 0.8984437
vt -0.05881369 1.0798187
vt -0.05881369 1.084399
vt -1.168133 0.8993597
vt 1.0550859 1.0807347
vt 1.0550859 1.085315
vt -1.168133 0.8947797
vt -1.1717972 0.8947797
vt -1.1727132 0.8911154
vt 2.1689854 1.081651
vt 2.1689854 1.086231
vt 2.1735656 1.081651
vt 2.1726496 1.085315
vt 2.165321 0.90210795
vt 2.1699014 0.9011917
vt 1.0541699 0.9011917
vt 2.165321 0.8975277
vt 2.1689854 0.8975277
vt 2.1699014 0.89386344
vt -0.056981564 0.9002757
vt 1.0541699 0.8966117
vt -0.056981564 0.8956957
vt 2.165321 0.89386344
vt 1.0541699 0.89294744
vt 2.165321 0.41111267
vt 2.1699014 0.41111267
vt -0.056981564 0.8911154
vt 1.0541699 0.41019666
vt 2.165321 0.40653253
vt 2.1689854 0.40653253
vt 2.1689854 0.4028684
vt -1.168133 0.8901994
vt -1.1717972 0.40744853
vt -1.167217 0.40836453
vt -0.056981564 0.40928066
vt 1.0541699 0.40561652
vt 2.165321 0.4028684
vt -1.167217 0.4037844
vt -1.1708812 0.4037844
vt -1.1717972 0.40012026
vt -0.05606556 0.4047004
vt 2.164405 0.22240925
vt 2.1689854 0.22240925
vt 1.0541699 0.40195227
vt -1.167217 0.40012026
vt -1.1708812 0.21966124
vt -0.056981564 0.40103626
vt 2.164405 0.21874511
vt 2.1680694 0.21874511
vt 1.0541699 0.22149324
vt -1.166301 0.21966124
vt -0.05606556 0.22057724
vt -1.166301 0.21508098
vt -1.1699651 0.21508098
vt 1.0541699 0.21782911
vt -0.05606556 0.2169131
vt 2.1680694 0.21508098
vt 2.1717334 0.21966124
vt 2.164405 0.21416497
vt 1.0541699 0.21324897
vt -1.1699651 0.21141684
vt -1.1736293 0.2159971
vt -0.05606556 0.21233296
vt 2.180894 -0.26950192
vt -1.1745453 0.21233296
vt -1.3531723 0.23156965
vt -1.166301 0.21141684
vt 1.0596659 -0.26858592
vt 2.185474 -0.26858592
vt 2.180894 -0.27316606
vt 2.185474 -0.27225006
vt 1.0596659 -0.27316606
vt 2.1891382 -0.27316606
vt -0.061561823 -0.26858592
vt -0.061561823 -0.27316606
vt -1.1827896 -0.26858592
vt -1.1827896 -0.27225006
vt -1.1864537 -0.26858592
vt -1.1864537 -0.27133393
vt -1.191034 -0.27225006
vt -1.191034 -0.2676698
vt -1.370577 -0.26034153
vt -1.371493 -0.26492178
vt -1.3531723 0.22698951
vt -1.3751571 -0.26034153
vt -1.3742411 -0.26400566
vt -1.3577524 0.22698951
vt -1.3568364 0.23065364
vt 2.3485284 0.23431778
vt 2.3521926 0.23340178
vt 2.3531086 0.22973764
vt 2.3494444 0.22973764
vt 2.3714292 -0.26034153
vt 2.3760095 -0.25942552
vt 2.1726496 0.21508098
vt 2.1891382 -0.26858592
vt 2.3723452 -0.26400566
vt 2.3750935 -0.26308966
vn -0.7071067 -0.7071067 -0
vn -0.5764487 -0.57644874 0.5791492
vn -0.0039213896 -0.709777 0.7044155
vn -0.0039213896 -0.9999621 0.0077742594
vn -0.7071067 -0.7071067 -0
vn -0.0039213896 -0.9999621 0.0077742594
vn -0.0039213896 -0.709777 0.7044155
vn -0.0039213896 -0.9999621 -0.0077742594
vn -0.0039213896 -0.9999621 0.0077742594
vn -0.0039213896 -0.709777 0.7044155
vn -0.0039213896 -0.709777 -0.7044155
vn -0.5764487 -0.57644874 -0.5791492
vn -0.709777 -0.003921449 -0.7044155
vn 0.003921449 -0.9999621 0.0077742594
vn 0.003921449 -0.709777 0.7044155
vn 0.7071067 -0.7071067 -0
vn 0.57644874 -0.57644874 0.5791491
vn 0.003921449 -0.9999621 -0.0077742594
vn 0.7071067 -0.7071067 -0
vn -0.0039213896 -0.9999621 -0.0077742594
vn 0.003921449 -0.709777 -0.7044155
vn 0.57644874 -0.57644874 -0.5791491
vn 0.709777 -0.003921449 -0.7044155
vn -0.0039213896 -0.9999621 -0.0077742594
vn -0.0039213896 -0.709777 -0.7044155
vn -0.0039213896 -0.709777 -0.7044155
vn 0.003921449 -0.003921449 -0.9999846
vn -0.0039213896 -0.003921449 -0.9999846
vn 0.003921449 0.0039213896 -0.9999846
vn 0.709777 0.0039213896 -0.7044155
vn -0.0039213896 -0.003921449 -0.9999846
vn -0.0039213896 0.0039213896 -0.9999846
vn 0.003921449 0.709777 -0.7044155
vn 0.57644874 0.5764487 -0.5791492
vn 0.7071067 0.7071067 -0
vn -0.0039213896 -0.003921449 -0.9999846
vn -0.709777 0.0039213896 -0.7044155
vn -0.0039213896 0.0039213896 -0.9999846
vn -0.0039213896 0.0039213896 -0.9999846
vn -0.0039213896 0.709777 -0.7044155
vn 0.003921449 0.9999621 -0.0077742594
vn -0.0039213896 0.709777 -0.7044155
vn -0.5764487 0.5764487 -0.5791492
vn -0.7071067 0.7071067 -0
vn -0.0039213896 0.709777 -0.7044155
vn 0.003921449 0.9999621 0.0077742594
vn 0.7071067 0.7071067 -0
vn -0.0039213896 0.9999621 -0.0077742594
vn -0.0039213896 0.9999621 -0.0077742594
vn -0.7071067 0.7071067 -0
vn -0.0039213896 0.9999621 -0.0077742594
vn 0.003921449 0.709777 0.7044155
vn 0.57644874 0.5764487 0.5791492
vn -0.0039213896 0.9999621 0.0077742594
vn -0.0039213896 0.9999621 0.0077742594
vn -0.0039213896 0.9999621 0.0077742594
vn -0.0039213896 0.709777 0.7044155
vn -0.5764487 0.5764487 0.5791492
vn -0.0039213896 0.709777 0.7044155
vn -0.0039213896 0.709777 0.7044155
vn 0.709777 0.0039213896 0.7044155
vn 0.7071067 0.7071067 -0
vn 0.003921449 0.0039213896 0.9999846
vn -0.0039213896 0.0039213896 0.9999846
vn -0.709777 0.0039213896 0.7044155
vn -0.7071067 0.7071067 -0
vn -0.0039213896 0.0039213896 0.9999846
vn 0.003921449 -0.003921449 0.9999846
vn -0.9999621 0.0039213896 0.0077743046
vn -0.7071067 0.7071067 -0
vn -0.0039213896 0.0039213896 0.9999846
vn -0.0039213896 -0.003921449 0.9999846
vn 0.709777 -0.003921449 0.7044155
vn 0.003921449 -0.709777 0.7044155
vn 0.57644874 -0.57644874 0.5791491
vn -0.0039213896 -0.709777 0.7044155
vn 0.7071067 -0.7071067 -0
vn -0.0039213896 -0.003921449 0.9999846
vn -0.0039213896 -0.709777 0.7044155
vn -0.0039213896 -0.003921449 0.9999846
vn -0.0039213896 -0.709777 0.7044155
vn -0.709777 -0.003921449 0.7044155
vn -0.5764487 -0.57644874 0.5791492
vn -0.7071067 -0.7071067 -0
vn -0.9999621 -0.003921449 0.0077742743
vn -0.9999621 -0.003921449 -0.0077742743
vn -0.7071067 -0.7071067 -0
vn -0.9999621 0.0039213896 -0.0077743046
vn -0.709777 -0.003921449 -0.7044155
vn -0.5764487 -0.57644874 -0.5791492
vn -0.709777 0.0039213896 -0.7044155
vn -0.5764487 0.5764487 -0.5791492
vn 0.7071067 0.7071067 -0
vn 0.57644874 0.5764487 -0.5791492
vn 0.709777 0.0039213896 -0.7044155
vn 0.9999621 0.0039213896 -0.0077743046
vn 0.9999621 -0.003921449 -0.0077742743
vn 0.709777 -0.003921449 -0.7044155
vn 0.9999621 0.0039213896 0.0077743046
vn 0.9999621 -0.003921449 0.0077742743
vn 0.7071067 -0.7071067 -0
vn 0.57644874 -0.57644874 -0.5791491
g ENV_SY01_Bluejay_StoneWall_Casing_MO_0
f 3/3/3 2/2/2 1/1/1
f 4/4/4 3/3/3 1/1/1
f 1/1/1 5/5/5 4/4/4
f 4/4/4 6/6/6 3/3/3
f 6/6/6 7/7/7 3/3/3
f 5/5/5 8/8/8 4/4/4
f 6/6/6 4/4/4 8/8/8
f 6/6/6 9/9/9 7/7/7
f 9/9/9 10/10/10 7/7/7
f 8/8/8 5/5/5 11/11/11
f 5/5/5 12/12/12 11/11/11
f 11/11/11 12/12/12 13/13/13
f 9/9/9 14/14/14 10/10/10
f 14/14/14 15/15/15 10/10/10
f 14/14/14 16/16/16 15/15/15
f 16/16/16 17/17/17 15/15/15
f 14/14/14 18/18/18 16/16/16
f 18/18/18 14/14/14 9/9/9
f 18/18/18 19/19/19 16/16/16
f 20/20/20 9/9/9 6/6/6
f 20/20/20 18/18/18 9/9/9
f 18/18/18 21/21/21 19/19/19
f 21/21/21 18/18/18 20/20/20
f 21/21/21 22/22/22 19/19/19
f 23/23/23 22/22/22 21/21/21
f 24/24/24 20/20/20 6/6/6
f 24/24/24 6/6/6 8/8/8
f 25/25/25 21/21/21 20/20/20
f 25/25/25 20/20/20 24/24/24
f 26/26/26 24/24/24 8/8/8
f 26/26/26 25/25/25 24/24/24
f 11/11/11 26/26/26 8/8/8
f 27/27/27 23/23/23 21/21/21
f 27/27/27 21/21/21 25/25/25
f 28/28/28 25/25/25 26/26/26
f 28/28/28 27/27/27 25/25/25
f 23/23/23 27/27/27 29/29/29
f 29/29/29 27/27/27 28/28/28
f 30/30/30 23/23/23 29/29/29
f 31/31/31 26/26/26 11/11/11
f 31/31/31 28/28/28 26/26/26
f 32/32/32 29/29/29 28/28/28
f 32/32/32 28/28/28 31/31/31
f 29/29/29 33/33/33 30/30/30
f 33/33/33 29/29/29 32/32/32
f 33/33/33 34/34/34 30/30/30
f 35/35/35 34/34/34 33/33/33
f 36/36/36 31/31/31 11/11/11
f 36/36/36 11/11/11 13/13/13
f 36/36/36 13/13/13 37/37/37
f 31/31/31 36/36/36 38/38/38
f 38/38/38 36/36/36 37/37/37
f 39/39/39 32/32/32 31/31/31
f 39/39/39 31/31/31 38/38/38
f 40/40/40 33/33/33 32/32/32
f 40/40/40 32/32/32 39/39/39
f 41/41/41 35/35/35 33/33/33
f 41/41/41 33/33/33 40/40/40
f 38/38/38 37/37/37 42/42/42
f 37/37/37 43/43/43 42/42/42
f 42/42/42 43/43/43 44/44/44
f 45/45/45 39/39/39 38/38/38
f 45/45/45 40/40/40 39/39/39
f 42/42/42 45/45/45 38/38/38
f 35/35/35 41/41/41 46/46/46
f 47/47/47 35/35/35 46/46/46
f 48/48/48 41/41/41 40/40/40
f 48/48/48 40/40/40 45/45/45
f 46/46/46 41/41/41 48/48/48
f 49/49/49 42/42/42 44/44/44
f 49/49/49 44/44/44 50/50/50
f 51/51/51 45/45/45 42/42/42
f 51/51/51 48/48/48 45/45/45
f 49/49/49 51/51/51 42/42/42
f 46/46/46 52/52/52 47/47/47
f 52/52/52 53/53/53 47/47/47
f 54/54/54 46/46/46 48/48/48
f 54/54/54 48/48/48 51/51/51
f 52/52/52 46/46/46 54/54/54
f 55/55/55 49/49/49 50/50/50
f 51/51/51 49/49/49 55/55/55
f 56/56/56 54/54/54 51/51/51
f 56/56/56 51/51/51 55/55/55
f 55/55/55 50/50/50 57/57/57
f 50/50/50 58/58/58 57/57/57
f 59/59/59 54/54/54 56/56/56
f 59/59/59 52/52/52 54/54/54
f 60/60/60 56/56/56 55/55/55
f 57/57/57 60/60/60 55/55/55
f 60/60/60 59/59/59 56/56/56
f 61/61/61 53/53/53 52/52/52
f 62/62/62 53/53/53 61/61/61
f 63/63/63 52/52/52 59/59/59
f 63/63/63 61/61/61 52/52/52
f 64/64/64 59/59/59 60/60/60
f 64/64/64 63/63/63 59/59/59
f 57/57/57 58/58/58 65/65/65
f 65/65/65 58/58/58 66/66/66
f 67/67/67 60/60/60 57/57/57
f 67/67/67 64/64/64 60/60/60
f 68/68/68 63/63/63 64/64/64
f 61/61/61 63/63/63 68/68/68
f 69/69/69 65/65/65 66/66/66
f 66/66/66 70/70/70 69/69/69
f 71/71/71 57/57/57 65/65/65
f 71/71/71 67/67/67 57/57/57
f 72/72/72 68/68/68 64/64/64
f 72/72/72 64/64/64 67/67/67
f 73/73/73 61/61/61 68/68/68
f 74/74/74 68/68/68 72/72/72
f 68/68/68 74/74/74 73/73/73
f 74/74/74 75/75/75 73/73/73
f 76/76/76 74/74/74 72/72/72
f 73/73/73 75/75/75 77/77/77
f 76/76/76 72/72/72 78/78/78
f 78/78/78 72/72/72 67/67/67
f 79/79/79 76/76/76 78/78/78
f 78/78/78 67/67/67 80/80/80
f 79/79/79 78/78/78 80/80/80
f 67/67/67 71/71/71 80/80/80
f 81/81/81 79/79/79 80/80/80
f 80/80/80 71/71/71 82/82/82
f 80/80/80 82/82/82 81/81/81
f 82/82/82 83/83/83 81/81/81
f 71/71/71 65/65/65 82/82/82
f 84/84/84 83/83/83 82/82/82
f 82/82/82 65/65/65 85/85/85
f 85/85/85 84/84/84 82/82/82
f 65/65/65 69/69/69 85/85/85
f 85/85/85 86/86/86 84/84/84
f 85/85/85 69/69/69 86/86/86
f 86/86/86 87/87/87 84/84/84
f 69/69/69 88/88/88 86/86/86
f 70/70/70 88/88/88 69/69/69
f 86/86/86 89/89/89 87/87/87
f 89/89/89 86/86/86 88/88/88
f 89/89/89 90/90/90 87/87/87
f 91/91/91 89/89/89 88/88/88
f 88/88/88 70/70/70 91/91/91
f 70/70/70 92/92/92 91/91/91
f 95/95/95 94/94/94 93/93/93
f 96/96/96 95/95/95 93/93/93
f 96/96/96 93/93/93 62/62/62
f 96/96/96 97/97/97 95/95/95
f 97/97/97 98/98/98 95/95/95
f 99/99/99 96/96/96 62/62/62
f 99/99/99 62/62/62 61/61/61
f 99/99/99 61/61/61 73/73/73
f 96/96/96 99/99/99 100/100/100
f 100/100/100 99/99/99 73/73/73
f 97/97/97 96/96/96 100/100/100
f 100/100/100 73/73/73 77/77/77
f 77/77/77 101/101/101 100/100/100
f 101/101/101 97/97/97 100/100/100
f 97/97/97 101/101/101 98/98/98
f 101/101/101 102/102/102 98/98/98
