g ENV_FFABB_BottomFloorA_Vinyl_04_MO
v -5.459105 -0.13990402 -4.9444733
v -5.459105 -0.9999728 -4.9444733
v -5.3600726 -0.9999728 -4.985597
v -5.3600726 -0.13990402 -4.985597
v -8.392334E-05 -0.13990402 -4.985597
v -8.392334E-05 -0.9999728 -4.985597
v 5.3600726 -0.9999728 -4.985597
v 5.3600726 -0.13990402 -4.985597
v 5.459105 -0.9999728 -4.944641
v 5.459105 -0.13990402 -4.944641
v 5.3600726 -0.041039467 -4.944641
v 8.392334E-05 -0.041039467 -4.944641
v -5.3600726 -0.041039467 -4.9444733
v 5.439802 -0.06034231 -4.9253383
v -5.4398017 -0.06034231 -4.9251704
v 5.459105 -0.041039467 -4.845609
v -5.459105 -0.041039467 -4.845609
v 5.5000606 -0.13990402 -4.845609
v 5.459105 -0.041039467 -0.26310635
v -5.5000606 -0.13990402 -4.845609
v -5.459105 -0.9999728 -4.9444733
v -5.5000606 -0.9999728 -4.845609
v -5.5000606 -0.13990402 -0.2629385
v -5.5000606 -0.9999728 -0.2629385
v -5.459105 -0.041039467 -0.2629385
v -5.5000606 -0.9999728 4.360184
v -5.5000606 -0.13990402 4.360184
v -5.459105 -0.041039467 4.360184
v -5.459105 -0.13990402 4.4592156
v -5.459105 -0.9999728 4.4592156
v -5.4398017 -0.06034231 4.4399133
v -5.3600726 -0.041039467 4.4592156
v -5.3600726 -0.13990402 4.500172
v -5.459105 -0.9999728 4.4592156
v -5.3600726 -0.9999728 4.500172
v -8.392334E-05 -0.13990402 4.500172
v -8.392334E-05 -0.9999728 4.500172
v -8.392334E-05 -0.041039467 4.459048
v 5.3600726 -0.9999728 4.5000043
v 5.3600726 -0.13990402 4.5000043
v 5.3600726 -0.041039467 4.459048
v 5.459105 -0.13990402 4.459048
v 5.459105 -0.9999728 4.459048
v 5.439802 -0.06034231 4.4397454
v -5.3600726 -0.041039467 -4.9444733
v 8.392334E-05 -0.041039467 -4.944641
v 8.392334E-05 8.392334E-05 -4.845609
v -5.3600726 8.392334E-05 -4.845609
v -5.459105 -0.041039467 -4.845609
v -5.4398017 -0.06034231 -4.9251704
v -5.459105 -0.041039467 -0.2629385
v -5.3600726 8.392334E-05 -0.2629385
v -8.392334E-05 8.392334E-05 -0.2629385
v 5.459105 -0.9999728 -4.944641
v 5.5000606 -0.9999728 -4.845609
v 5.5000606 -0.13990402 -0.26310635
v 5.5000606 -0.9999728 -0.26310635
v 5.5000606 -0.9999728 4.3600163
v 5.459105 -0.041039467 4.3600163
v 5.5000606 -0.13990402 4.3600163
v 5.459105 -0.9999728 4.459048
v 5.459105 -0.13990402 4.459048
v 5.439802 -0.06034231 4.4397454
v 5.459105 -0.041039467 -4.845609
v 5.459105 -0.041039467 -0.26310635
v 5.3600726 8.392334E-05 -0.26310635
v 5.3600726 8.392334E-05 -4.845609
v 5.3600726 -0.041039467 -4.944641
v 5.439802 -0.06034231 -4.9253383
v 8.392334E-05 -0.041039467 -4.944641
v 8.392334E-05 8.392334E-05 -4.845609
v -8.392334E-05 8.392334E-05 -0.2629385
v 5.3600726 -0.041039467 4.459048
v -8.392334E-05 -0.041039467 4.459048
v -8.392334E-05 8.392334E-05 4.360184
v 5.3600726 8.392334E-05 4.3600163
v 5.459105 -0.041039467 4.3600163
v 5.439802 -0.06034231 4.4397454
v 5.459105 -0.041039467 -0.26310635
v 5.3600726 8.392334E-05 -0.26310635
v -8.392334E-05 8.392334E-05 -0.2629385
v -5.459105 -0.041039467 4.360184
v -5.459105 -0.041039467 -0.2629385
v -5.3600726 8.392334E-05 -0.2629385
v -5.3600726 8.392334E-05 4.360184
v -8.392334E-05 8.392334E-05 -0.2629385
v -8.392334E-05 8.392334E-05 4.360184
v -8.392334E-05 -0.041039467 4.459048
v -5.3600726 -0.041039467 4.4592156
v -5.4398017 -0.06034231 4.4399133
vt 0.77946043 0.5425973
vt 0.99073267 0.5425973
vt 0.99073267 0.5170064
vt 0.77946043 0.5170064
vt 0.77946043 -0.7988341
vt 0.99073267 -0.7988341
vt 0.99073267 -2.1152697
vt 0.77946043 -2.1152697
vt 0.99073267 -2.1408603
vt 0.77946043 -2.1408603
vt 0.7556548 -2.1152697
vt 0.7556548 -0.7988341
vt 0.7556548 0.5170064
vt 0.7556548 -2.1408603
vt 0.7556548 0.5425973
vt 0.7556548 -2.1664512
vt 0.7556548 0.5687828
vt 0.77946043 -2.1664512
vt 0.7556548 -3.2370965
vt 0.77946043 0.5687828
vt 0.99073267 0.5425973
vt 0.99073267 0.5687828
vt 0.77946043 1.6394281
vt 0.99073267 1.6394281
vt 0.7556548 1.6394281
vt 0.99073267 2.7094784
vt 0.77946043 2.7094784
vt 0.7556548 2.7094784
vt 0.77946043 2.7356644
vt 0.99073267 2.7356644
vt 0.7556548 2.7356644
vt 0.7556548 2.7612553
vt 0.77946043 2.7612553
vt 0.99073267 2.7356644
vt 0.99073267 2.7612553
vt 0.77946043 4.0770955
vt 0.99073267 4.0770955
vt 0.7556548 4.0770955
vt 0.99073267 5.3935313
vt 0.77946043 5.3935313
vt 0.7556548 5.3935313
vt 0.77946043 5.418527
vt 0.99073267 5.418527
vt 0.7556548 5.418527
vt 0.0069766045 0.5116501
vt 0.0069766045 0.9419317
vt 0.015308857 0.9419317
vt 0.014713764 0.5122452
vt 0.013523102 0.5051036
vt 0.0069766045 0.5051036
vt 0.36465216 0.5051036
vt 0.36465216 0.51343536
vt 0.36465216 0.9419317
vt 0.99073267 -2.1408603
vt 0.99073267 -2.1664512
vt 0.77946043 -3.2370965
vt 0.99073267 -3.2370965
vt 0.99073267 -4.307742
vt 0.7556548 -4.307742
vt 0.77946043 -4.307742
vt 0.99073267 -4.3315473
vt 0.77946043 -4.3315473
vt 0.7556548 -4.3315473
vt 0.013523102 0.9943037
vt 0.36465216 0.9943037
vt 0.36465216 0.98656654
vt 0.014713764 0.9871621
vt 0.0069766045 0.9883523
vt 0.0069766045 0.9943037
vt 0.0069766045 0.5991349
vt 0.015308857 0.5991349
vt 0.36465216 0.5991349
vt 0.4926057 0.9889474
vt 0.4926057 0.59794474
vt 0.48367882 0.59794474
vt 0.484869 0.9883523
vt 0.4854641 0.9948988
vt 0.4926057 0.9948988
vt 0.13314533 0.9948988
vt 0.13314533 0.9871621
vt 0.13314533 0.59794474
vt 0.4854641 0.5039134
vt 0.13314533 0.5039134
vt 0.13314533 0.5128403
vt 0.484869 0.5116501
vt 0.13314533 0.9431219
vt 0.48367882 0.9431219
vt 0.4926057 0.9431219
vt 0.4926057 0.5104599
vt 0.4926057 0.5039134
vn -0.70979846 0.02745068 -0.7038697
vn -0.70979846 0.003921509 -0.7043939
vn -0.003921509 0.003921509 -0.9999846
vn -0.003921509 0.043136835 -0.99906147
vn -0.003921509 0.043136835 -0.99906147
vn -0.003921509 0.003921509 -0.9999846
vn 0.0039215684 0.003921509 -0.9999846
vn 0.0039215684 0.043136835 -0.99906147
vn 0.7097985 0.003921509 -0.70439386
vn 0.7097985 0.02745068 -0.7038697
vn 0.0039215684 0.70979846 -0.7043939
vn -0.003921509 0.70979846 -0.7043939
vn -0.003921509 0.70979846 -0.7043939
vn 0.5764662 0.5764661 -0.57911444
vn -0.5764661 0.5764661 -0.57911456
vn 0.7071068 0.70710677 -0
vn -0.70710677 0.70710677 -0
vn 0.9990709 0.043097086 -0
vn 0.7071068 0.70710677 -0
vn -0.9990709 0.04309709 -0
vn -0.70979846 0.003921509 -0.7043939
vn -0.99999225 0.003921509 -0.00034492963
vn -0.9990709 0.04309709 -0
vn -0.99999225 0.003921509 -0.00034492963
vn -0.70710677 0.70710677 -0
vn -0.99999225 0.003921509 -0.00034492963
vn -0.9990709 0.04309709 -0
vn -0.70710677 0.70710677 -0
vn -0.70979846 0.02745068 0.7038697
vn -0.70979846 0.003921509 0.7043939
vn -0.5764661 0.5764661 0.57911456
vn -0.003921509 0.70979846 0.7043939
vn -0.003921509 0.043136835 0.99906147
vn -0.70979846 0.003921509 0.7043939
vn -0.003921509 0.003921509 0.9999846
vn 0.0039215684 0.043136835 0.99906147
vn 0.0039215684 0.003921509 0.9999846
vn -0.003921509 0.70979846 0.7043939
vn 0.0039215684 0.003921509 0.9999846
vn 0.0039215684 0.043136835 0.99906147
vn 0.0039215684 0.70979846 0.7043939
vn 0.7097985 0.02745068 0.7038697
vn 0.7097985 0.003921509 0.70439386
vn 0.5764662 0.5764661 0.57911444
vn -0.003921509 0.70979846 -0.7043939
vn -0.003921509 0.70979846 -0.7043939
vn -0.003921509 0.99999225 -0.00034526698
vn -0.003921509 0.99999225 -0.00034526698
vn -0.70710677 0.70710677 -0
vn -0.5764661 0.5764661 -0.57911456
vn -0.70710677 0.70710677 -0
vn -0.003921509 0.99999225 -0.00034526698
vn -0.003921509 0.99999225 -0.00034526698
vn 0.7097985 0.003921509 -0.70439386
vn 0.9999924 0.003921509 -0
vn 0.9990709 0.043097086 -0
vn 0.9999924 0.003921509 -0
vn 0.9999924 0.003921509 -0
vn 0.7071068 0.70710677 -0
vn 0.9990709 0.043097086 -0
vn 0.7097985 0.003921509 0.70439386
vn 0.7097985 0.02745068 0.7038697
vn 0.5764662 0.5764661 0.57911444
vn 0.7071068 0.70710677 -0
vn 0.7071068 0.70710677 -0
vn 0.0039215684 0.99999225 -0.00034526698
vn 0.0039215684 0.99999225 -0.00034526698
vn 0.0039215684 0.70979846 -0.7043939
vn 0.5764662 0.5764661 -0.57911444
vn -0.003921509 0.70979846 -0.7043939
vn -0.003921509 0.99999225 -0.00034526698
vn -0.003921509 0.99999225 -0.00034526698
vn 0.0039215684 0.70979846 0.7043939
vn -0.003921509 0.70979846 0.7043939
vn -0.003921509 0.99999225 -0.00034526698
vn 0.0039215684 0.99999225 -0.00034526698
vn 0.7071068 0.70710677 -0
vn 0.5764662 0.5764661 0.57911444
vn 0.7071068 0.70710677 -0
vn 0.0039215684 0.99999225 -0.00034526698
vn -0.003921509 0.99999225 -0.00034526698
vn -0.70710677 0.70710677 -0
vn -0.70710677 0.70710677 -0
vn -0.003921509 0.99999225 -0.00034526698
vn -0.003921509 0.99999225 -0.00034526698
vn -0.003921509 0.99999225 -0.00034526698
vn -0.003921509 0.99999225 -0.00034526698
vn -0.003921509 0.70979846 0.7043939
vn -0.003921509 0.70979846 0.7043939
vn -0.5764661 0.5764661 0.57911456
g ENV_FFABB_BottomFloorA_Vinyl_04_MO_0
f 3/3/3 2/2/2 1/1/1
f 4/4/4 3/3/3 1/1/1
f 3/3/3 4/4/4 5/5/5
f 6/6/6 3/3/3 5/5/5
f 7/7/7 6/6/6 5/5/5
f 8/8/8 7/7/7 5/5/5
f 9/9/9 7/7/7 8/8/8
f 10/10/10 9/9/9 8/8/8
f 11/11/11 8/8/8 5/5/5
f 8/8/8 11/11/11 10/10/10
f 12/12/12 11/11/11 5/5/5
f 12/12/12 5/5/5 4/4/4
f 13/13/13 12/12/12 4/4/4
f 4/4/4 1/1/1 13/13/13
f 11/11/11 14/14/14 10/10/10
f 1/1/1 15/15/15 13/13/13
f 10/10/10 14/14/14 16/16/16
f 17/17/17 15/15/15 1/1/1
f 18/18/18 10/10/10 16/16/16
f 16/16/16 19/19/19 18/18/18
f 20/20/20 17/17/17 1/1/1
f 1/1/1 21/21/21 20/20/20
f 21/21/21 22/22/22 20/20/20
f 20/20/20 23/23/23 17/17/17
f 20/20/20 22/22/22 23/23/23
f 22/22/22 24/24/24 23/23/23
f 23/23/23 25/25/25 17/17/17
f 24/24/24 26/26/26 23/23/23
f 25/25/25 23/23/23 27/27/27
f 26/26/26 27/27/27 23/23/23
f 28/28/28 25/25/25 27/27/27
f 27/27/27 26/26/26 29/29/29
f 27/27/27 29/29/29 28/28/28
f 26/26/26 30/30/30 29/29/29
f 29/29/29 31/31/31 28/28/28
f 32/32/32 31/31/31 29/29/29
f 33/33/33 32/32/32 29/29/29
f 29/29/29 34/34/34 33/33/33
f 34/34/34 35/35/35 33/33/33
f 32/32/32 33/33/33 36/36/36
f 33/33/33 35/35/35 36/36/36
f 35/35/35 37/37/37 36/36/36
f 38/38/38 32/32/32 36/36/36
f 37/37/37 39/39/39 36/36/36
f 38/38/38 36/36/36 40/40/40
f 39/39/39 40/40/40 36/36/36
f 41/41/41 38/38/38 40/40/40
f 40/40/40 39/39/39 42/42/42
f 40/40/40 42/42/42 41/41/41
f 39/39/39 43/43/43 42/42/42
f 42/42/42 44/44/44 41/41/41
f 47/47/47 46/46/46 45/45/45
f 48/48/48 47/47/47 45/45/45
f 48/48/48 45/45/45 49/49/49
f 45/45/45 50/50/50 49/49/49
f 49/49/49 51/51/51 48/48/48
f 51/51/51 52/52/52 48/48/48
f 48/48/48 52/52/52 47/47/47
f 52/52/52 53/53/53 47/47/47
f 55/55/55 54/54/54 10/10/10
f 18/18/18 55/55/55 10/10/10
f 55/55/55 18/18/18 56/56/56
f 19/19/19 56/56/56 18/18/18
f 57/57/57 55/55/55 56/56/56
f 58/58/58 57/57/57 56/56/56
f 19/19/19 59/59/59 56/56/56
f 60/60/60 58/58/58 56/56/56
f 59/59/59 60/60/60 56/56/56
f 61/61/61 58/58/58 60/60/60
f 62/62/62 61/61/61 60/60/60
f 60/60/60 59/59/59 62/62/62
f 59/59/59 63/63/63 62/62/62
f 66/66/66 65/65/65 64/64/64
f 67/67/67 66/66/66 64/64/64
f 67/67/67 64/64/64 68/68/68
f 64/64/64 69/69/69 68/68/68
f 67/67/67 68/68/68 70/70/70
f 71/71/71 67/67/67 70/70/70
f 66/66/66 67/67/67 71/71/71
f 72/72/72 66/66/66 71/71/71
f 75/75/75 74/74/74 73/73/73
f 76/76/76 75/75/75 73/73/73
f 76/76/76 73/73/73 77/77/77
f 73/73/73 78/78/78 77/77/77
f 76/76/76 77/77/77 79/79/79
f 80/80/80 76/76/76 79/79/79
f 75/75/75 76/76/76 80/80/80
f 81/81/81 75/75/75 80/80/80
f 84/84/84 83/83/83 82/82/82
f 85/85/85 84/84/84 82/82/82
f 84/84/84 85/85/85 86/86/86
f 85/85/85 87/87/87 86/86/86
f 87/87/87 85/85/85 88/88/88
f 85/85/85 89/89/89 88/88/88
f 85/85/85 82/82/82 89/89/89
f 82/82/82 90/90/90 89/89/89
