g ENV_SY02_Bgr_Goop_Structure_Bar_A2_MO
v 14.355362 86.40489 -5.9022217
v 14.284195 -86.33487 -5.9022217
v 15.818253 -86.33487 -4.497322
v 15.818253 86.383804 -4.497322
v 15.818253 86.333725 4.171959
v 15.818253 -86.33487 4.1587753
v 14.334274 86.31264 5.600586
v 14.313187 -86.33487 5.5874023
v 12.204514 -86.33487 5.613762
v 12.212418 86.31 5.6269455
v 11.289879 -86.33487 4.720215
v 11.297783 86.31 4.733391
v 11.268791 86.31 2.2425232
v 11.258247 -86.33487 2.2293472
v -11.204376 -86.33487 2.5034714
v -11.199104 86.31 2.5166473
v 11.268791 86.31 2.2425232
v 11.258247 -86.33487 2.2293472
v -14.48336 86.40489 -5.554291
v -15.925171 -86.33487 -4.112488
v -14.425377 -86.33487 -5.551651
v -15.911987 86.38643 -4.112488
v -15.701118 86.333725 4.5541534
v -15.716934 -86.33487 4.5436096
v -14.180244 86.31264 5.948517
v -14.177605 -86.33487 5.9353333
v -12.068932 -86.33487 5.9089737
v -12.061028 86.31264 5.9221573
v -11.1753845 -86.33487 4.994339
v -11.16748 86.31 5.0075226
v -11.199104 86.31 2.5166473
v -11.204376 -86.33487 2.5034714
v 14.284195 -86.33487 -5.9022217
v 14.355362 86.40489 -5.9022217
v -14.48336 86.40489 -5.554291
v -14.425377 -86.33487 -5.551651
vt 0.18630722 0.5852388
vt 0.18630722 0.51659673
vt 0.18549967 0.51659673
vt 0.18549967 0.5852388
vt 0.18388456 0.5852388
vt 0.18388456 0.51659673
vt 0.18388456 0.5852388
vt 0.18388456 0.51659673
vt 0.18388456 0.51659673
vt 0.18388456 0.5852388
vt 0.18307701 0.51659673
vt 0.18307701 0.5852388
vt 0.18307701 0.5852388
vt 0.18307701 0.51659673
vt 0.18307701 0.51659673
vt 0.18307701 0.5852388
vt 0.18307701 0.5852388
vt 0.18307701 0.51659673
vt 0.18630722 0.5852388
vt 0.18549967 0.51659673
vt 0.18630722 0.51659673
vt 0.18549967 0.5852388
vt 0.18388456 0.5852388
vt 0.18388456 0.51659673
vt 0.18388456 0.5852388
vt 0.18388456 0.51659673
vt 0.18388456 0.51659673
vt 0.18388456 0.5852388
vt 0.18307701 0.51659673
vt 0.18307701 0.5852388
vt 0.18307701 0.5852388
vt 0.18307701 0.51659673
vt 0.17419392 0.51659673
vt 0.17419392 0.5852388
vt 0.17419392 0.5852388
vt 0.17419392 0.51659673
vn -0.011731148 0.0038882494 -0.9999236
vn -0.011731148 0.0038882494 -0.9999236
vn 0.9999925 0.0038882494 -0
vn 0.9999925 0.0038882494 -0
vn 0.9999925 0.0038882494 -0
vn 0.9999925 0.0038882494 -0
vn 0.0117973685 -0.0039545298 0.9999226
vn 0.0117973685 -0.0039545298 0.9999226
vn 0.0117973685 -0.0039545298 0.9999226
vn 0.0117973685 -0.0039545298 0.9999226
vn -0.9607122 0.0038882494 0.27751932
vn -0.9607122 0.0038882494 0.27751932
vn -0.9999262 0.0038882494 0.011509241
vn -0.9999262 0.0038882494 0.011509241
vn 0.0117973685 -0.0039545298 0.9999226
vn 0.0117973685 -0.0039545298 0.9999226
vn 0.0117973685 -0.0039545298 0.9999226
vn 0.0117973685 -0.0039545298 0.9999226
vn -0.011731148 0.0038882494 -0.9999236
vn -0.9999262 0.0038882494 0.011509241
vn -0.011731148 0.0038882494 -0.9999236
vn -0.9999262 0.0038882494 0.011509241
vn -0.9999262 0.0038882494 0.011509241
vn -0.9999262 0.0038882494 0.011509241
vn 0.0117973685 -0.0039545298 0.9999226
vn 0.0117973685 -0.0039545298 0.9999226
vn 0.0117973685 -0.0039545298 0.9999226
vn 0.0117973685 -0.0039545298 0.9999226
vn 0.9686212 -0.0039545298 0.24851029
vn 0.9686212 -0.0039545298 0.24851029
vn 0.99999225 -0.003954529 -0
vn 0.99999225 -0.003954529 -0
vn -0.011731148 0.0038882494 -0.9999236
vn -0.011731148 0.0038882494 -0.9999236
vn -0.011731148 0.0038882494 -0.9999236
vn -0.011731148 0.0038882494 -0.9999236
g ENV_SY02_Bgr_Goop_Structure_Bar_A2_MO_0
f 3/3/3 2/2/2 1/1/1
f 4/4/4 3/3/3 1/1/1
f 4/4/4 5/5/5 3/3/3
f 5/5/5 6/6/6 3/3/3
f 5/5/5 7/7/7 6/6/6
f 7/7/7 8/8/8 6/6/6
f 9/9/9 8/8/8 7/7/7
f 10/10/10 9/9/9 7/7/7
f 11/11/11 9/9/9 10/10/10
f 12/12/12 11/11/11 10/10/10
f 12/12/12 13/13/13 11/11/11
f 13/13/13 14/14/14 11/11/11
f 17/17/17 16/16/16 15/15/15
f 18/18/18 17/17/17 15/15/15
f 21/21/21 20/20/20 19/19/19
f 20/20/20 22/22/22 19/19/19
f 23/23/23 22/22/22 20/20/20
f 24/24/24 23/23/23 20/20/20
f 25/25/25 23/23/23 24/24/24
f 26/26/26 25/25/25 24/24/24
f 26/26/26 27/27/27 25/25/25
f 27/27/27 28/28/28 25/25/25
f 27/27/27 29/29/29 28/28/28
f 29/29/29 30/30/30 28/28/28
f 31/31/31 30/30/30 29/29/29
f 32/32/32 31/31/31 29/29/29
f 35/35/35 34/34/34 33/33/33
f 36/36/36 35/35/35 33/33/33
