g ENV_SY01_HHR_Platform_CentrePillar_MO
v 2.68751 -3.7431448 -1.1131508
v 1.950981 -3.7682924 -1.9508389
v 2.5489845 -3.7682924 -1.0557516
v 2.0569706 -3.7431448 -2.0569706
v 1.0557516 -3.7682924 -2.5489845
v 2.7449093 -3.6826198 -1.1370199
v 1.1131508 -3.7431448 -2.68751
v -2.527237E-05 -3.7682924 -2.758975
v 2.1008725 -3.6826198 -2.1008725
v -2.527237E-05 -3.7431448 -2.9088664
v -1.0558019 -3.7682924 -2.5489845
v 2.1008725 5.4630413 -2.1008725
v 2.7449093 5.4630413 -1.1370199
v 2.68751 5.5427465 -1.1131508
v 1.1370199 -3.6826198 -2.7449093
v -1.1132011 -3.7431448 -2.68751
v -1.9508891 -3.7682924 -1.9508389
v 2.0569706 5.5427465 -2.0569706
v 2.5489845 5.5329437 -1.0557516
v 1.950981 5.5329437 -1.9508389
v 1.1370199 5.4630413 -2.7449093
v 1.1131508 5.5427465 -2.68751
v 1.0557516 5.5329437 -2.5489845
v -2.527237E-05 -3.6826198 -2.9709544
v -2.527237E-05 5.4630413 -2.9709544
v -2.527237E-05 5.5427465 -2.9088664
v -2.527237E-05 5.5329437 -2.758975
v -1.1369281 5.4630413 -2.7449093
v -1.1132011 5.5427465 -2.68751
v -1.0558019 5.5329437 -2.5489845
v -1.1369281 -3.6826198 -2.7449093
v -2.056879 5.5427465 -2.0569706
v -1.9508891 5.5329437 -1.9508389
v -2.100781 5.4630413 -2.1008725
v -2.056879 -3.7431448 -2.0569706
v -2.549035 -3.7682924 -1.0558937
v -2.6874185 5.5427465 -1.1131508
v -2.549035 5.5329437 -1.0558937
v -2.100781 -3.6826198 -2.1008725
v -2.6874185 -3.7431448 -1.1131508
v -2.759025 -3.7682924 2.527237E-05
v -2.7448177 5.4630413 -1.1370199
v -2.908917 5.5427465 2.527237E-05
v -2.759025 5.5329437 2.527237E-05
v -2.7448177 -3.6826198 -1.1370199
v -2.908917 -3.7431448 2.527237E-05
v -2.549035 -3.7682924 1.0558019
v -2.9710045 5.4630413 2.527237E-05
v -2.6875606 5.5427465 1.1132011
v -2.549035 5.5329437 1.0558019
v -2.9710045 -3.6826198 2.527237E-05
v -2.6875606 -3.7431448 1.1132011
v -1.9508891 -3.7682924 1.9508891
v -2.7448177 5.4630413 1.1369281
v -2.056879 5.5427465 2.056879
v -1.9508891 5.5329437 1.9508891
v -2.7448177 -3.6826198 1.1369281
v -2.056879 -3.7431448 2.056879
v -1.0558019 -3.7682924 2.549035
v -2.100781 5.4630413 2.100781
v -1.1132011 5.5427465 2.6875606
v -1.0558019 5.5329437 2.549035
v -2.100781 -3.6826198 2.100781
v -1.1132011 -3.7431448 2.6875606
v -2.527237E-05 -3.7682924 2.759025
v -1.1369281 5.4630413 2.7448177
v -2.527237E-05 5.5427465 2.908917
v -2.527237E-05 5.5329437 2.759025
v -1.1369281 -3.6826198 2.7448177
v -2.527237E-05 -3.7431448 2.908917
v 1.0557516 -3.7682924 2.549035
v -2.527237E-05 5.4630413 2.9710045
v 1.1131508 5.5427465 2.6875606
v 1.0557516 5.5329437 2.549035
v -2.527237E-05 -3.6826198 2.9710045
v 1.1131508 -3.7431448 2.6875606
v 1.950981 -3.7682924 1.9508891
v 1.1370199 5.4630413 2.7448177
v 2.0569706 5.5427465 2.056879
v 1.950981 5.5329437 1.9508891
v 1.1370199 -3.6826198 2.7448177
v 2.0569706 -3.7431448 2.056879
v 2.5489845 -3.7682924 1.0558019
v 2.1008725 5.4630413 2.100781
v 2.68751 5.5427465 1.1132011
v 2.5489845 5.5329437 1.0558019
v 2.1008725 -3.6826198 2.100781
v 2.68751 -3.7431448 1.1132011
v 2.758975 -3.7682924 2.527237E-05
v 2.7449093 5.4630413 1.1369281
v 2.9088664 5.5427465 2.527237E-05
v 2.758975 5.5329437 2.527237E-05
v 2.7449093 -3.6826198 1.1369281
v 2.9088664 -3.7431448 2.527237E-05
v 2.5489845 -3.7682924 -1.0557516
v 2.68751 -3.7431448 -1.1131508
v 2.9709544 5.4630413 2.527237E-05
v 2.9709544 -3.6826198 2.527237E-05
v 2.7449093 -3.6826198 -1.1370199
v 2.7449093 5.4630413 -1.1370199
v 2.68751 5.5427465 -1.1131508
v 2.5489845 5.5329437 -1.0557516
vt -0.22275811 0.13111949
vt -0.13358095 0.12828848
vt -0.21780384 0.119087666
vt -0.13499647 0.13961256
vt -0.045111552 0.13041174
vt -0.22488138 0.13748929
vt -0.045111552 0.14173582
vt 0.04477337 0.13041174
vt -0.13570422 0.14598235
vt 0.04477337 0.14173582
vt 0.13536602 0.129704
vt -0.12933442 0.86647713
vt -0.22063485 0.8778013
vt -0.21780384 0.88346326
vt -0.045819312 0.1488134
vt 0.13536602 0.14102808
vt 0.2259587 0.12899622
vt -0.12862667 0.8721392
vt -0.21284954 0.8947873
vt -0.12650341 0.88346326
vt -0.038741753 0.86223066
vt -0.038033992 0.8678926
vt -0.037326247 0.87992454
vt 0.04477337 0.1488134
vt 0.051850915 0.8601073
vt 0.051850915 0.86647713
vt 0.05255866 0.8778013
vt 0.14173582 0.85939956
vt 0.1424436 0.8657694
vt 0.1424436 0.87709343
vt 0.13536602 0.14810562
vt 0.2323285 0.86506164
vt 0.2323285 0.8763857
vt 0.2323285 0.8586918
vt 0.2259587 0.14032033
vt 0.31655136 0.12758073
vt 0.3229212 0.8643539
vt 0.3229212 0.87567794
vt 0.2259587 0.14669013
vt 0.31655136 0.13961256
vt 0.40714404 0.12687296
vt 0.3229212 0.85798407
vt 0.41280606 0.86364615
vt 0.41280606 0.8749702
vt 0.31655136 0.14598235
vt 0.40714404 0.13819706
vt 0.49773672 0.12616521
vt 0.41280606 0.8572763
vt 0.5033988 0.8629384
vt 0.5033988 0.87426245
vt 0.40714404 0.14527461
vt 0.49773672 0.13748929
vt 0.58832943 0.12545747
vt 0.5033988 0.8572763
vt 0.59328365 0.86223066
vt 0.59328365 0.87426245
vt 0.49773672 0.14456686
vt 0.58832943 0.13748929
vt 0.67892206 0.12545747
vt 0.59328365 0.8565686
vt 0.6838764 0.8615229
vt 0.6838764 0.8735547
vt 0.58832943 0.14385909
vt 0.67892206 0.13678154
vt 0.7695147 0.12474969
vt 0.6838764 0.8558608
vt 0.774469 0.86081517
vt 0.774469 0.87284696
vt 0.67892206 0.14315134
vt 0.7695147 0.13678154
vt 0.8601073 0.12474969
vt 0.7737613 0.8551531
vt 0.8643539 0.86081517
vt 0.8643539 0.8721392
vt 0.7695147 0.14315134
vt 0.8601073 0.1360738
vt 0.9499923 0.124041945
vt 0.8643539 0.85444534
vt 0.9549465 0.8601073
vt 0.9542388 0.87143147
vt 0.8601073 0.14315134
vt 0.95070004 0.13536602
vt 1.0405849 0.122626424
vt 0.9549465 0.8537376
vt 1.0448315 0.86081517
vt 1.0441238 0.8721392
vt 0.95070004 0.1424436
vt 1.0412927 0.13465828
vt 1.129762 0.119087666
vt 1.0448315 0.85444534
vt 1.1340086 0.86364615
vt 1.1325932 0.8749702
vt 1.0412927 0.14102808
vt 1.1311777 0.13111949
vt 1.2161082 0.10917908
vt 1.2210625 0.12050319
vt 1.1347164 0.85798407
vt 1.1325932 0.13748929
vt 1.2231858 0.12687296
vt 1.2238935 0.8671849
vt 1.2217703 0.8735547
vt 1.216816 0.88487875
vn 0.38038516 -0.9137086 -0.14298119
vn 0.1137234 -0.98429555 -0.13501573
vn 0.15293837 -0.98429555 -0.08815945
vn 0.28626925 -0.9137086 -0.28842062
vn 0.06666547 -0.98429555 -0.16345629
vn 0.9215516 -0.003921509 -0.3882361
vn 0.15293837 -0.9137086 -0.37649214
vn -0.003921509 -0.98429555 -0.1764848
vn 0.7097908 -0.003921509 -0.7044016
vn -0.003921509 -0.9137086 -0.406351
vn -0.06666541 -0.98429555 -0.16345629
vn 0.7097908 0.003921509 -0.7044016
vn 0.9215516 0.003921509 -0.3882361
vn 0.3411702 0.9293946 -0.14081413
vn 0.38038516 -0.003921509 -0.9248198
vn -0.15293837 -0.9137086 -0.37649214
vn -0.1137234 -0.98429555 -0.13501573
vn 0.26274025 0.9293946 -0.25921664
vn -0.058721974 0.99827445 -0
vn -0.043097194 0.9990709 -0
vn 0.38038516 0.003921509 -0.9248198
vn 0.14509535 0.9293946 -0.33937153
vn -0.027440611 0.9996234 -0
vn -0.003921509 -0.003921509 -0.9999846
vn -0.003921509 0.003921509 -0.9999846
vn -0.003921509 0.9293946 -0.36906683
vn -0.003921509 0.9999815 0.0046450924
vn -0.38038516 0.003921509 -0.9248198
vn -0.14509535 0.9293946 -0.33937153
vn 0.02744067 0.9996234 -0
vn -0.38038516 -0.003921509 -0.9248198
vn -0.26274025 0.9293946 -0.25921664
vn 0.043097194 0.9990709 -0
vn -0.7097908 0.003921509 -0.7044016
vn -0.2862692 -0.9137086 -0.28842062
vn -0.15293837 -0.98429555 -0.08815945
vn -0.3411702 0.9293946 -0.14081413
vn 0.058722034 0.99827445 -0
vn -0.7097908 -0.003921509 -0.7044016
vn -0.38038516 -0.9137086 -0.14298119
vn -0.16862428 -0.98429555 -0.05223126
vn -0.9215516 0.003921509 -0.3882361
vn -0.3720658 0.9282063 -0
vn 0.06651905 0.9977852 -0
vn -0.9215516 -0.003921509 -0.3882361
vn -0.4108527 -0.9117017 -0
vn -0.15293837 -0.98429555 0.08815945
vn -0.9999815 0.003921509 -0.0046450673
vn -0.3411702 0.9293946 0.14081413
vn 0.058722034 0.99827445 -0
vn -0.9999815 -0.003921509 -0.0046450673
vn -0.38038516 -0.9137086 0.14298119
vn -0.1137234 -0.98429555 0.13501573
vn -0.9215516 0.003921509 0.3882361
vn -0.26274025 0.9293946 0.25921664
vn 0.043097194 0.9990709 -0
vn -0.9215516 -0.003921509 0.3882361
vn -0.2862692 -0.9137086 0.28842062
vn -0.06666541 -0.98429555 0.16345629
vn -0.7097908 0.003921509 0.7044016
vn -0.14509535 0.9293946 0.33937153
vn 0.02744067 0.9996234 -0
vn -0.7097908 -0.003921509 0.7044016
vn -0.15293837 -0.9137086 0.37649214
vn -0.003921509 -0.98429555 0.1764848
vn -0.38038516 0.003921509 0.9248198
vn -0.003921509 0.9293946 0.36906683
vn -0.003921509 0.9999815 -0.0046450924
vn -0.38038516 -0.003921509 0.9248198
vn -0.003921509 -0.9137086 0.406351
vn 0.06666547 -0.98429555 0.16345629
vn -0.003921509 0.003921509 0.9999846
vn 0.14509535 0.9293946 0.33937153
vn -0.027440611 0.9996234 -0
vn -0.003921509 -0.003921509 0.9999846
vn 0.15293837 -0.9137086 0.37649214
vn 0.1137234 -0.98429555 0.13501573
vn 0.38038516 0.003921509 0.9248198
vn 0.26274025 0.9293946 0.25921664
vn -0.043097194 0.9990709 -0
vn 0.38038516 -0.003921509 0.9248198
vn 0.28626925 -0.9137086 0.28842062
vn 0.15293837 -0.98429555 0.08815945
vn 0.7097908 0.003921509 0.7044016
vn 0.3411702 0.9293946 0.14081413
vn -0.058721974 0.99827445 -0
vn 0.7097908 -0.003921509 0.7044016
vn 0.38038516 -0.9137086 0.14298119
vn 0.16862434 -0.98429555 -0.05223126
vn 0.9215516 0.003921509 0.3882361
vn 0.3720658 0.9282063 -0
vn -0.06651899 0.9977852 -0
vn 0.9215516 -0.003921509 0.3882361
vn 0.4108527 -0.9117017 -0
vn 0.15293837 -0.98429555 -0.08815945
vn 0.38038516 -0.9137086 -0.14298119
vn 0.9999815 0.003921509 -0.0046450673
vn 0.9999815 -0.003921509 -0.0046450673
vn 0.9215516 -0.003921509 -0.3882361
vn 0.9215516 0.003921509 -0.3882361
vn 0.3411702 0.9293946 -0.14081413
vn -0.058721974 0.99827445 -0
g ENV_SY01_HHR_Platform_CentrePillar_MO_0
f 3/3/3 2/2/2 1/1/1
f 2/2/2 4/4/4 1/1/1
f 2/2/2 5/5/5 4/4/4
f 1/1/1 4/4/4 6/6/6
f 5/5/5 7/7/7 4/4/4
f 5/5/5 8/8/8 7/7/7
f 4/4/4 9/9/9 6/6/6
f 4/4/4 7/7/7 9/9/9
f 8/8/8 10/10/10 7/7/7
f 8/8/8 11/11/11 10/10/10
f 9/9/9 12/12/12 6/6/6
f 12/12/12 13/13/13 6/6/6
f 13/13/13 12/12/12 14/14/14
f 7/7/7 15/15/15 9/9/9
f 7/7/7 10/10/10 15/15/15
f 11/11/11 16/16/16 10/10/10
f 11/11/11 17/17/17 16/16/16
f 12/12/12 18/18/18 14/14/14
f 14/14/14 18/18/18 19/19/19
f 18/18/18 20/20/20 19/19/19
f 21/21/21 12/12/12 9/9/9
f 12/12/12 21/21/21 18/18/18
f 15/15/15 21/21/21 9/9/9
f 18/18/18 22/22/22 20/20/20
f 21/21/21 22/22/22 18/18/18
f 22/22/22 23/23/23 20/20/20
f 10/10/10 24/24/24 15/15/15
f 10/10/10 16/16/16 24/24/24
f 25/25/25 21/21/21 15/15/15
f 21/21/21 25/25/25 22/22/22
f 24/24/24 25/25/25 15/15/15
f 22/22/22 26/26/26 23/23/23
f 25/25/25 26/26/26 22/22/22
f 26/26/26 27/27/27 23/23/23
f 28/28/28 25/25/25 24/24/24
f 25/25/25 28/28/28 26/26/26
f 26/26/26 29/29/29 27/27/27
f 28/28/28 29/29/29 26/26/26
f 29/29/29 30/30/30 27/27/27
f 16/16/16 31/31/31 24/24/24
f 31/31/31 28/28/28 24/24/24
f 29/29/29 32/32/32 30/30/30
f 32/32/32 33/33/33 30/30/30
f 28/28/28 34/34/34 29/29/29
f 34/34/34 28/28/28 31/31/31
f 34/34/34 32/32/32 29/29/29
f 16/16/16 35/35/35 31/31/31
f 17/17/17 35/35/35 16/16/16
f 17/17/17 36/36/36 35/35/35
f 32/32/32 37/37/37 33/33/33
f 37/37/37 38/38/38 33/33/33
f 39/39/39 34/34/34 31/31/31
f 35/35/35 39/39/39 31/31/31
f 36/36/36 40/40/40 35/35/35
f 35/35/35 40/40/40 39/39/39
f 36/36/36 41/41/41 40/40/40
f 34/34/34 42/42/42 32/32/32
f 42/42/42 34/34/34 39/39/39
f 42/42/42 37/37/37 32/32/32
f 37/37/37 43/43/43 38/38/38
f 43/43/43 44/44/44 38/38/38
f 40/40/40 45/45/45 39/39/39
f 45/45/45 42/42/42 39/39/39
f 41/41/41 46/46/46 40/40/40
f 40/40/40 46/46/46 45/45/45
f 41/41/41 47/47/47 46/46/46
f 42/42/42 48/48/48 37/37/37
f 48/48/48 42/42/42 45/45/45
f 48/48/48 43/43/43 37/37/37
f 43/43/43 49/49/49 44/44/44
f 49/49/49 50/50/50 44/44/44
f 46/46/46 51/51/51 45/45/45
f 51/51/51 48/48/48 45/45/45
f 47/47/47 52/52/52 46/46/46
f 46/46/46 52/52/52 51/51/51
f 47/47/47 53/53/53 52/52/52
f 48/48/48 54/54/54 43/43/43
f 54/54/54 48/48/48 51/51/51
f 54/54/54 49/49/49 43/43/43
f 49/49/49 55/55/55 50/50/50
f 55/55/55 56/56/56 50/50/50
f 52/52/52 57/57/57 51/51/51
f 57/57/57 54/54/54 51/51/51
f 53/53/53 58/58/58 52/52/52
f 52/52/52 58/58/58 57/57/57
f 53/53/53 59/59/59 58/58/58
f 54/54/54 60/60/60 49/49/49
f 60/60/60 54/54/54 57/57/57
f 60/60/60 55/55/55 49/49/49
f 55/55/55 61/61/61 56/56/56
f 61/61/61 62/62/62 56/56/56
f 58/58/58 63/63/63 57/57/57
f 63/63/63 60/60/60 57/57/57
f 59/59/59 64/64/64 58/58/58
f 58/58/58 64/64/64 63/63/63
f 59/59/59 65/65/65 64/64/64
f 60/60/60 66/66/66 55/55/55
f 66/66/66 60/60/60 63/63/63
f 66/66/66 61/61/61 55/55/55
f 61/61/61 67/67/67 62/62/62
f 67/67/67 68/68/68 62/62/62
f 64/64/64 69/69/69 63/63/63
f 69/69/69 66/66/66 63/63/63
f 65/65/65 70/70/70 64/64/64
f 64/64/64 70/70/70 69/69/69
f 65/65/65 71/71/71 70/70/70
f 66/66/66 72/72/72 61/61/61
f 72/72/72 66/66/66 69/69/69
f 72/72/72 67/67/67 61/61/61
f 67/67/67 73/73/73 68/68/68
f 73/73/73 74/74/74 68/68/68
f 70/70/70 75/75/75 69/69/69
f 75/75/75 72/72/72 69/69/69
f 71/71/71 76/76/76 70/70/70
f 70/70/70 76/76/76 75/75/75
f 71/71/71 77/77/77 76/76/76
f 72/72/72 78/78/78 67/67/67
f 78/78/78 72/72/72 75/75/75
f 78/78/78 73/73/73 67/67/67
f 73/73/73 79/79/79 74/74/74
f 79/79/79 80/80/80 74/74/74
f 76/76/76 81/81/81 75/75/75
f 81/81/81 78/78/78 75/75/75
f 77/77/77 82/82/82 76/76/76
f 76/76/76 82/82/82 81/81/81
f 77/77/77 83/83/83 82/82/82
f 78/78/78 84/84/84 73/73/73
f 84/84/84 78/78/78 81/81/81
f 84/84/84 79/79/79 73/73/73
f 79/79/79 85/85/85 80/80/80
f 85/85/85 86/86/86 80/80/80
f 82/82/82 87/87/87 81/81/81
f 87/87/87 84/84/84 81/81/81
f 83/83/83 88/88/88 82/82/82
f 82/82/82 88/88/88 87/87/87
f 83/83/83 89/89/89 88/88/88
f 84/84/84 90/90/90 79/79/79
f 90/90/90 84/84/84 87/87/87
f 90/90/90 85/85/85 79/79/79
f 85/85/85 91/91/91 86/86/86
f 91/91/91 92/92/92 86/86/86
f 88/88/88 93/93/93 87/87/87
f 93/93/93 90/90/90 87/87/87
f 89/89/89 94/94/94 88/88/88
f 88/88/88 94/94/94 93/93/93
f 94/94/94 89/89/89 95/95/95
f 96/96/96 94/94/94 95/95/95
f 90/90/90 97/97/97 85/85/85
f 97/97/97 90/90/90 93/93/93
f 97/97/97 91/91/91 85/85/85
f 94/94/94 98/98/98 93/93/93
f 98/98/98 94/94/94 96/96/96
f 98/98/98 97/97/97 93/93/93
f 99/99/99 98/98/98 96/96/96
f 99/99/99 100/100/100 98/98/98
f 100/100/100 97/97/97 98/98/98
f 91/91/91 97/97/97 100/100/100
f 101/101/101 91/91/91 100/100/100
f 92/92/92 91/91/91 101/101/101
f 102/102/102 92/92/92 101/101/101
