g ENV_FFABB_BottomPath_Ramp_02_MO
v 6.854456 0.42372942 4.4796147
v 6.854456 -0.50490093 4.4800344
v 6.80494 -0.50007534 4.499966
v 6.80494 0.43002367 4.499966
v -6.8049664 0.43002367 4.499966
v -6.8049664 -0.50007534 4.499966
v -6.854482 -0.50490093 4.4800344
v -6.854482 0.42372942 4.4796147
v -6.8049664 0.47303534 4.4789853
v 6.80494 0.47303534 4.4789853
v -6.84483 0.46107578 4.469543
v -6.854482 0.4617052 4.4309382
v -6.8049664 0.48310614 4.432197
v 6.844805 0.46107578 4.469543
v 6.854456 0.4617052 4.4309382
v 6.80494 0.48310614 4.4319873
v 6.8750176 0.4103012 4.429889
v 6.854456 -0.50490093 4.4800344
v 6.8750176 -0.5170698 4.4319873
v 6.8750176 -0.9830637 2.567803
v 6.8750176 -0.054643154 2.569901
v 6.854456 -0.004078388 2.568852
v 6.854456 -0.06597328 2.520595
v 6.854456 -0.9950228 2.5197558
v 6.80494 0.016902924 2.567803
v -6.8049664 0.016902924 2.5680127
v 6.844805 -0.022751808 2.5291972
v 6.80494 -0.014779091 2.5189166
v -6.8049664 -0.014779091 2.5189166
v -6.854482 -0.004078388 2.5690618
v 6.80494 -0.06995964 2.499824
v 6.854456 -0.9950228 2.5197558
v 6.80494 -1.0000582 2.499824
v -6.8049664 -1.0000582 2.5000339
v -6.8049664 -0.06995964 2.5000339
v -6.854482 -0.06597328 2.520595
v -6.854482 -0.9950228 2.5199656
v -6.84483 -0.022751808 2.5291972
v -6.8750434 0.4103012 4.430099
v -6.8750434 -0.054643154 2.569901
v -6.854482 -0.9950228 2.5199656
v -6.8750434 -0.9830637 2.5680127
v -6.8750434 -0.5170698 4.432197
v -6.854482 -0.50490093 4.4800344
vt 0.0037395954 0.99705297
vt 0.0037395954 0.99705297
vt 0.0037395954 0.99705297
vt 0.0037395954 0.99705297
vt 0.004710576 0.99705297
vt 0.004710576 0.99705297
vt 0.004710576 0.99705297
vt 0.004710576 0.99705297
vt 0.004710576 0.99705297
vt 0.0037395954 0.99705297
vt 0.004710576 0.99705297
vt 0.004710576 0.99705297
vt 0.004710576 0.99705297
vt 0.0037395954 0.99705297
vt 0.0037395954 0.99705297
vt 0.0037395954 0.99705297
vt 0.0037395954 0.99705297
vt 0.0037395954 0.99705297
vt 0.0037395954 0.99705297
vt 0.0037395954 0.99705297
vt 0.0037395954 0.99705297
vt 0.0037395954 0.99705297
vt 0.0037395954 0.99705297
vt 0.0037395954 0.99705297
vt 0.0037395954 0.99705297
vt 0.004710576 0.99705297
vt 0.0037395954 0.99705297
vt 0.0037395954 0.99705297
vt 0.004710576 0.99705297
vt 0.004710576 0.99705297
vt 0.0037395954 0.99705297
vt 0.0037395954 0.99705297
vt 0.0037395954 0.99705297
vt 0.004710576 0.99705297
vt 0.004710576 0.99705297
vt 0.004710576 0.99705297
vt 0.004710576 0.99705297
vt 0.004710576 0.99705297
vt 0.004710576 0.99705297
vt 0.004710576 0.99705297
vt 0.004710576 0.99705297
vt 0.004710576 0.99705297
vt 0.004710576 0.99705297
vt 0.004710576 0.99705297
vn 0.6705668 0.019607067 0.74159
vn 0.73330986 0.0039212704 0.6798833
vn 0.0039215684 0.0039212704 0.9999846
vn 0.0039215684 0.019607067 0.9998001
vn -0.0039212704 0.019607067 0.9998001
vn -0.0039212704 0.0039212704 0.9999846
vn -0.7333096 0.0039212704 0.67988354
vn -0.67056656 0.019607067 0.74159026
vn -0.0039212704 0.7882098 0.6153941
vn 0.0039215684 0.7882098 0.6153941
vn -0.6078235 0.62350917 0.49171835
vn -0.67056656 0.71762383 -0.18803346
vn -0.0039212704 0.976439 -0.21575803
vn 0.6078237 0.62350917 0.49171802
vn 0.6705668 0.71762383 -0.18803251
vn 0.0039215684 0.976439 -0.21575803
vn 0.9996234 0.027440509 -0
vn 0.73330986 0.0039212704 0.6798833
vn 0.99996793 0.0039212704 0.0069827097
vn 0.99996793 0.0039212704 -0.0069827097
vn 0.99980783 0.019603929 -0
vn 0.73330986 0.66272366 -0.15183555
vn 0.72546697 0.011764169 -0.6881564
vn 0.6705668 0.0039212704 -0.7418388
vn 0.0039215684 0.9685961 -0.24860853
vn -0.0039212704 0.9685961 -0.24860853
vn 0.5607664 0.50586593 -0.65546983
vn 0.0039215684 0.6156663 -0.78799725
vn -0.0039212704 0.6156663 -0.78799725
vn -0.7333096 0.66272366 -0.15183653
vn 0.0039215684 0.019607067 -0.9998001
vn 0.6705668 0.0039212704 -0.7418388
vn 0.0039215684 0.0039212704 -0.9999846
vn -0.0039212704 0.0039212704 -0.9999846
vn -0.0039212704 0.019607067 -0.9998001
vn -0.7254667 0.011764169 -0.68815666
vn -0.67056656 0.0039212704 -0.74183905
vn -0.5607661 0.50586593 -0.6554701
vn -0.9996234 0.027440514 -0
vn -0.99980783 0.019603932 -0
vn -0.67056656 0.0039212704 -0.74183905
vn -0.9999677 0.0039212704 -0.007016771
vn -0.9999677 0.0039212704 0.007016771
vn -0.7333096 0.0039212704 0.67988354
g ENV_FFABB_BottomPath_Ramp_02_MO_0
f 3/3/3 2/2/2 1/1/1
f 4/4/4 3/3/3 1/1/1
f 4/4/4 5/5/5 3/3/3
f 5/5/5 6/6/6 3/3/3
f 7/7/7 6/6/6 5/5/5
f 8/8/8 7/7/7 5/5/5
f 9/9/9 5/5/5 4/4/4
f 5/5/5 9/9/9 8/8/8
f 4/4/4 1/1/1 10/10/10
f 10/10/10 9/9/9 4/4/4
f 9/9/9 11/11/11 8/8/8
f 12/12/12 11/11/11 9/9/9
f 8/8/8 11/11/11 12/12/12
f 13/13/13 9/9/9 10/10/10
f 13/13/13 12/12/12 9/9/9
f 1/1/1 14/14/14 10/10/10
f 10/10/10 14/14/14 15/15/15
f 15/15/15 14/14/14 1/1/1
f 16/16/16 13/13/13 10/10/10
f 16/16/16 10/10/10 15/15/15
f 17/17/17 15/15/15 1/1/1
f 1/1/1 18/18/18 17/17/17
f 18/18/18 19/19/19 17/17/17
f 17/17/17 19/19/19 20/20/20
f 17/17/17 21/21/21 15/15/15
f 21/21/21 17/17/17 20/20/20
f 15/15/15 22/22/22 16/16/16
f 21/21/21 22/22/22 15/15/15
f 21/21/21 20/20/20 23/23/23
f 21/21/21 23/23/23 22/22/22
f 20/20/20 24/24/24 23/23/23
f 13/13/13 16/16/16 25/25/25
f 22/22/22 25/25/25 16/16/16
f 13/13/13 26/26/26 12/12/12
f 26/26/26 13/13/13 25/25/25
f 23/23/23 27/27/27 22/22/22
f 22/22/22 27/27/27 28/28/28
f 25/25/25 22/22/22 28/28/28
f 28/28/28 27/27/27 23/23/23
f 29/29/29 26/26/26 25/25/25
f 28/28/28 29/29/29 25/25/25
f 26/26/26 30/30/30 12/12/12
f 26/26/26 29/29/29 30/30/30
f 31/31/31 28/28/28 23/23/23
f 23/23/23 32/32/32 31/31/31
f 32/32/32 33/33/33 31/31/31
f 31/31/31 33/33/33 34/34/34
f 31/31/31 35/35/35 28/28/28
f 35/35/35 31/31/31 34/34/34
f 35/35/35 29/29/29 28/28/28
f 35/35/35 34/34/34 36/36/36
f 35/35/35 36/36/36 29/29/29
f 34/34/34 37/37/37 36/36/36
f 29/29/29 38/38/38 30/30/30
f 36/36/36 38/38/38 29/29/29
f 30/30/30 38/38/38 36/36/36
f 12/12/12 30/30/30 39/39/39
f 39/39/39 8/8/8 12/12/12
f 40/40/40 30/30/30 36/36/36
f 30/30/30 40/40/40 39/39/39
f 36/36/36 41/41/41 40/40/40
f 41/41/41 42/42/42 40/40/40
f 40/40/40 42/42/42 43/43/43
f 39/39/39 40/40/40 43/43/43
f 39/39/39 43/43/43 8/8/8
f 43/43/43 44/44/44 8/8/8
