g ENV_SY02_Gauntlet_10_Section_C_Decal2_MO
v -5.0934963 7.772446E-05 -0.10686731
v -4.8304863 -7.772446E-05 -0.10686731
v -5.0934963 7.772446E-05 0.10686779
v -4.827688 -7.772446E-05 0.10686779
v 4.8239574 -7.772446E-05 -0.10686731
v 4.8293977 -7.772446E-05 0.10686779
v 5.0900764 7.772446E-05 -0.10686731
v 5.0934963 7.772446E-05 0.10686779
vt 0.7541194 0.089661375
vt 0.83229095 0.089661375
vt 0.7541194 0.037547015
vt 0.83322155 0.037547015
vt 0.9113931 0.089661375
vt 0.9113931 0.037547015
vt 0.9895646 0.089661375
vt 0.9895646 0.037547015
vn 1.4430611E-05 1 -0
vn 1.4430611E-05 1 -0
vn 1.4430611E-05 1 -0
vn 1.4430611E-05 1 -0
vn 1.4430611E-05 1 -0
vn 1.4430611E-05 1 -0
vn 1.4430611E-05 1 -0
vn 1.4430611E-05 1 -0
g ENV_SY02_Gauntlet_10_Section_C_Decal2_MO_0
f 3/3/3 2/2/2 1/1/1
f 3/3/3 4/4/4 2/2/2
f 4/4/4 5/5/5 2/2/2
f 4/4/4 6/6/6 5/5/5
f 6/6/6 7/7/7 5/5/5
f 6/6/6 8/8/8 7/7/7
