g ENV_S09_Mid_base_structure_MO
v -373.36136 -7.925269 -42.686573
v -368.7153 7.925268 -73.34123
v -373.36136 7.925268 -42.686573
v -368.7153 -7.925269 -73.34123
v -359.75082 -7.925269 -109.12923
v -359.75082 7.925268 -109.12923
v -347.32196 -7.925269 -143.86523
v -347.32196 7.925268 -143.86523
v -331.5479 -7.925269 -177.21596
v -331.5479 7.925268 -177.21596
v -312.58118 -7.925269 -208.86023
v -312.58118 7.925268 -208.86023
v -290.6042 -7.925269 -238.49268
v -290.6042 7.925268 -238.49268
v -265.8284 -7.925269 -265.8284
v -265.8284 7.925268 -265.8284
v -238.49268 -7.925269 -290.6042
v -238.49268 7.925268 -290.6042
v -208.86023 -7.925269 -312.58118
v -208.86023 7.925268 -312.58118
v -177.21596 -7.925269 -331.5479
v -177.21596 7.925268 -331.5479
v -143.86523 -7.925269 -347.32196
v -143.86523 7.925268 -347.32196
v -109.12923 -7.925269 -359.75082
v -109.12923 7.925268 -359.75082
v -73.34158 -7.925269 -368.71506
v -73.34158 7.925268 -368.71506
v -42.686573 -7.925269 -373.36136
v -42.686573 7.925268 -373.36136
v -71.1086 7.925268 -357.4921
v -41.498608 7.925268 -361.84863
v -41.324837 6.2338724 -360.1646
v -70.7792 6.2338724 -355.83096
v -105.80749 7.925268 -348.80066
v -70.7792 -0.53255653 -355.83096
v -41.324837 -0.53255653 -360.1646
v -105.31592 6.2338724 -347.18015
v -139.48643 7.925268 -336.75012
v -105.31592 -0.53255653 -347.18015
v -138.8384 6.2338724 -335.18558
v -171.82208 7.925268 -321.45648
v -138.8384 -0.53255653 -335.18558
v -171.0238 6.2338724 -319.963
v -202.5029 7.925268 -303.06696
v -171.0238 -0.53255653 -319.963
v -201.56209 6.2338724 -301.6589
v -231.23354 7.925268 -281.75894
v -201.56209 -0.53255653 -301.6589
v -230.15924 6.2338724 -280.4499
v -257.7373 7.925268 -257.7373
v -230.15924 -0.53255653 -280.4499
v -256.5399 6.2338724 -256.5399
v -281.75894 7.925268 -231.23354
v -256.5399 -0.53255653 -256.5399
v -280.4499 6.2338724 -230.15924
v -303.06696 7.925268 -202.5029
v -280.4499 -0.53255653 -230.15924
v -301.6589 6.2338724 -201.56209
v -321.45648 7.925268 -171.82208
v -301.6589 -0.53255653 -201.56209
v -319.963 6.2338724 -171.0238
v -336.75012 7.925268 -139.48643
v -319.963 -0.53255653 -171.0238
v -335.18558 6.2338724 -138.8384
v -348.80066 7.925268 -105.80749
v -335.18558 -0.53255653 -138.8384
v -347.18015 6.2338724 -105.31592
v -357.4921 7.925268 -71.1086
v -347.18015 -0.53255653 -105.31592
v -355.83096 6.2338724 -70.7792
v -361.84863 7.925268 -41.498608
v -355.83096 -0.53255653 -70.7792
v -360.1646 6.2338724 -41.324837
v -360.1646 -0.53255653 -41.324837
v -373.36136 7.925268 -42.686573
v -357.4921 7.925268 -71.1086
v -361.84863 7.925268 -41.498608
v -368.7153 7.925268 -73.34123
v -359.75082 7.925268 -109.12923
v -348.80066 7.925268 -105.80749
v -347.32196 7.925268 -143.86523
v -336.75012 7.925268 -139.48643
v -331.5479 7.925268 -177.21596
v -321.45648 7.925268 -171.82208
v -312.58118 7.925268 -208.86023
v -303.06696 7.925268 -202.5029
v -290.6042 7.925268 -238.49268
v -281.75894 7.925268 -231.23354
v -265.8284 7.925268 -265.8284
v -257.7373 7.925268 -257.7373
v -238.49268 7.925268 -290.6042
v -231.23354 7.925268 -281.75894
v -208.86023 7.925268 -312.58118
v -202.5029 7.925268 -303.06696
v -177.21596 7.925268 -331.5479
v -171.82208 7.925268 -321.45648
v -143.86523 7.925268 -347.32196
v -139.48643 7.925268 -336.75012
v -109.12923 7.925268 -359.75082
v -105.80749 7.925268 -348.80066
v -73.34158 7.925268 -368.71506
v -71.1086 7.925268 -357.4921
v -42.686573 7.925268 -373.36136
v -41.498608 7.925268 -361.84863
vt 0.010540485 0.49205008
vt 0.011021048 0.48359966
vt 0.010540485 0.48359966
vt 0.011021018 0.49205008
vt 0.011591226 0.49205008
vt 0.011591256 0.48359966
vt 0.0121631175 0.49205008
vt 0.012163013 0.48359966
vt 0.012734171 0.49205008
vt 0.0127340555 0.48359966
vt 0.013300132 0.49205008
vt 0.013300236 0.48359966
vt 0.013867252 0.49205008
vt 0.013866842 0.48359966
vt 0.014439583 0.49205008
vt 0.014439657 0.48359966
vt 0.015011996 0.49205008
vt 0.015012354 0.48359966
vt 0.015581697 0.49205008
vt 0.015581787 0.48359966
vt 0.016152173 0.49205008
vt 0.01615259 0.48359966
vt 0.016722947 0.49205023
vt 0.016723067 0.48359978
vt 0.017292202 0.49205038
vt 0.01729229 0.48359996
vt 0.017865002 0.49205053
vt 0.017864883 0.48360014
vt 0.0183478 0.49205068
vt 0.01834786 0.48360026
vt 0.0109552145 0.48486203
vt 0.010493636 0.484868
vt 0.010494053 0.48584616
vt 0.010955274 0.4858402
vt 0.011508584 0.484855
vt 0.010955334 0.48975328
vt 0.010491848 0.48975927
vt 0.011508584 0.4858332
vt 0.01205945 0.4848482
vt 0.011508644 0.48974627
vt 0.01205948 0.4858264
vt 0.012610346 0.4848417
vt 0.01205951 0.48973945
vt 0.012610346 0.48581988
vt 0.013160974 0.4848417
vt 0.0126102865 0.48973295
vt 0.013160944 0.48581988
vt 0.0137117505 0.4848417
vt 0.013160825 0.48973298
vt 0.0137117505 0.48581988
vt 0.014263153 0.4848417
vt 0.013711631 0.48973298
vt 0.014263138 0.48581988
vt 0.014812484 0.4848417
vt 0.014263079 0.48973298
vt 0.014812455 0.48581988
vt 0.015360452 0.4848417
vt 0.01481244 0.48973298
vt 0.0153604075 0.48581988
vt 0.015904628 0.4848417
vt 0.015360296 0.48973298
vt 0.015904672 0.48581988
vt 0.016454354 0.4848417
vt 0.015904754 0.48973298
vt 0.016454332 0.48581988
vt 0.017002672 0.4848417
vt 0.016454265 0.48973298
vt 0.017002687 0.48581988
vt 0.017554417 0.48484176
vt 0.017002702 0.48973298
vt 0.017554313 0.48581988
vt 0.018014044 0.48484176
vt 0.017554328 0.48973298
vt 0.018013597 0.48581988
vt 0.018015534 0.48973298
vt 0.010501087 0.4907199
vt 0.010973841 0.48464078
vt 0.010509729 0.48464078
vt 0.010972828 0.4907199
vt 0.011535972 0.49071994
vt 0.011535972 0.48464078
vt 0.012096047 0.4907199
vt 0.012096077 0.48464078
vt 0.012661755 0.4907199
vt 0.012661621 0.4846408
vt 0.013222471 0.49071997
vt 0.01322259 0.48464078
vt 0.013788991 0.49071997
vt 0.0137889385 0.4846408
vt 0.014360213 0.49071994
vt 0.014360213 0.48464078
vt 0.014931433 0.49071994
vt 0.014931485 0.4846408
vt 0.015497953 0.49071994
vt 0.0154978335 0.4846408
vt 0.016058683 0.49071994
vt 0.016058832 0.48464078
vt 0.01662442 0.49071994
vt 0.016624391 0.4846408
vt 0.017184466 0.49071994
vt 0.017184466 0.48464078
vt 0.01774764 0.49071997
vt 0.017746627 0.4846408
vt 0.018219411 0.49071997
vt 0.01821071 0.4846408
vn -0.9887088 0 -0.14984982
vn -0.8061582 0.56818855 -0.16513872
vn -0.813372 0.56853247 -0.1232756
vn -0.979657 0 -0.20067933
vn -0.9569398 0 -0.2902864
vn -0.7881083 0.56721264 -0.23907155
vn -0.92387736 0 -0.38268855
vn -0.7608832 0.56720614 -0.31517306
vn -0.88192004 0 -0.47139904
vn -0.72633016 0.5672026 -0.388234
vn -0.83147 0 -0.55556965
vn -0.6847808 0.56720245 -0.45755517
vn -0.7730092 0 -0.6343949
vn -0.6366332 0.56720316 -0.5224735
vn -0.70710677 0 -0.70710677
vn -0.5823581 0.56720185 -0.5823582
vn -0.6343947 0 -0.7730093
vn -0.5224737 0.5672027 -0.6366336
vn -0.5555696 0 -0.83147013
vn -0.4575553 0.567202 -0.684781
vn -0.47139913 0 -0.88192004
vn -0.38823405 0.5672026 -0.72633016
vn -0.38268843 0 -0.9238775
vn -0.3151729 0.5672063 -0.7608831
vn -0.29028472 0 -0.95694035
vn -0.23907013 0.56721276 -0.78810865
vn -0.20067959 0 -0.9796569
vn -0.16513893 0.56818825 -0.80615824
vn -0.14985594 0 -0.9887079
vn -0.123281375 0.568525 -0.81337625
vn 0.00032615688 0.9999987 0.0016074952
vn 0.00023992483 0.9999987 0.0016307092
vn 0.1455626 0.0029697563 0.98934454
vn 0.1988571 0.0029744662 0.98002404
vn 0.00047820772 0.9999987 0.0015764604
vn 0.19885795 0 0.9800283
vn 0.14556324 0 0.989349
vn 0.29028165 0.0029735493 0.95693666
vn 0.0006304406 0.9999987 0.0015220369
vn 0.29028288 0 0.9569409
vn 0.3826822 0.0029720366 0.9238753
vn 0.0007765885 0.9999987 0.001452908
vn 0.38268384 0 0.92387944
vn 0.4713963 0.0029722336 0.88191646
vn 0.0009152567 0.9999987 0.0013697693
vn 0.47139838 0 0.8819203
vn 0.55556875 0.0029722394 0.83146524
vn 0.0010451251 0.9999987 0.0012734664
vn 0.5555712 0 0.83146906
vn 0.63439 0.002972239 0.7730075
vn 0.0011649341 0.9999987 0.0011649305
vn 0.6343927 0 0.77301085
vn 0.7071036 0.002971441 0.7071036
vn 0.0012734901 0.9999987 0.0010451191
vn 0.70710677 0 0.70710677
vn 0.7730075 0.0029698454 0.63439
vn 0.0013698012 0.9999987 0.0009152586
vn 0.77301085 0 0.63439274
vn 0.83146524 0.00297145 0.55556875
vn 0.001452904 0.9999987 0.0007765854
vn 0.83146894 0 0.55557114
vn 0.88191646 0.0029746448 0.4713963
vn 0.0015219996 0.9999987 0.00063041615
vn 0.8819204 0 0.47139832
vn 0.9238753 0.0029746399 0.38268209
vn 0.0015764356 0.9999987 0.0004782092
vn 0.92387944 0 0.3826838
vn 0.95693666 0.0029746469 0.2902815
vn 0.001607441 0.9999987 0.00032616418
vn 0.9569409 0 0.29028282
vn 0.98002404 0.0029729318 0.19885702
vn 0.0016306153 0.9999987 0.00023991684
vn 0.9800283 0 0.1988579
vn 0.98934466 0.0029642454 0.14556268
vn 0.989349 0 0.14556335
vn -0.813372 0.56853247 -0.1232756
vn 0.001607441 0.9999987 0.00032616418
vn 0.0016306153 0.9999987 0.00023991684
vn -0.8061582 0.56818855 -0.16513872
vn -0.7881083 0.56721264 -0.23907155
vn 0.0015764356 0.9999987 0.0004782092
vn -0.7608832 0.56720614 -0.31517306
vn 0.0015219996 0.9999987 0.00063041615
vn -0.72633016 0.5672026 -0.388234
vn 0.001452904 0.9999987 0.0007765854
vn -0.6847808 0.56720245 -0.45755517
vn 0.0013698012 0.9999987 0.0009152586
vn -0.6366332 0.56720316 -0.5224735
vn 0.0012734901 0.9999987 0.0010451191
vn -0.5823581 0.56720185 -0.5823582
vn 0.0011649341 0.9999987 0.0011649305
vn -0.5224737 0.5672027 -0.6366336
vn 0.0010451251 0.9999987 0.0012734664
vn -0.4575553 0.567202 -0.684781
vn 0.0009152567 0.9999987 0.0013697693
vn -0.38823405 0.5672026 -0.72633016
vn 0.0007765885 0.9999987 0.001452908
vn -0.3151729 0.5672063 -0.7608831
vn 0.0006304406 0.9999987 0.0015220369
vn -0.23907013 0.56721276 -0.78810865
vn 0.00047820772 0.9999987 0.0015764604
vn -0.16513893 0.56818825 -0.80615824
vn 0.00032615688 0.9999987 0.0016074952
vn -0.123281375 0.568525 -0.81337625
vn 0.00023992483 0.9999987 0.0016307092
g ENV_S09_Mid_base_structure_MO_0
f 3/3/3 2/2/2 1/1/1
f 2/2/2 4/4/4 1/1/1
f 5/5/5 4/4/4 2/2/2
f 6/6/6 5/5/5 2/2/2
f 7/7/7 5/5/5 6/6/6
f 8/8/8 7/7/7 6/6/6
f 9/9/9 7/7/7 8/8/8
f 10/10/10 9/9/9 8/8/8
f 11/11/11 9/9/9 10/10/10
f 12/12/12 11/11/11 10/10/10
f 13/13/13 11/11/11 12/12/12
f 14/14/14 13/13/13 12/12/12
f 15/15/15 13/13/13 14/14/14
f 16/16/16 15/15/15 14/14/14
f 17/17/17 15/15/15 16/16/16
f 18/18/18 17/17/17 16/16/16
f 19/19/19 17/17/17 18/18/18
f 20/20/20 19/19/19 18/18/18
f 21/21/21 19/19/19 20/20/20
f 22/22/22 21/21/21 20/20/20
f 23/23/23 21/21/21 22/22/22
f 24/24/24 23/23/23 22/22/22
f 25/25/25 23/23/23 24/24/24
f 26/26/26 25/25/25 24/24/24
f 27/27/27 25/25/25 26/26/26
f 28/28/28 27/27/27 26/26/26
f 27/27/27 28/28/28 29/29/29
f 28/28/28 30/30/30 29/29/29
f 33/33/33 32/32/32 31/31/31
f 34/34/34 33/33/33 31/31/31
f 31/31/31 35/35/35 34/34/34
f 33/33/33 34/34/34 36/36/36
f 37/37/37 33/33/33 36/36/36
f 35/35/35 38/38/38 34/34/34
f 34/34/34 38/38/38 36/36/36
f 35/35/35 39/39/39 38/38/38
f 38/38/38 40/40/40 36/36/36
f 39/39/39 41/41/41 38/38/38
f 38/38/38 41/41/41 40/40/40
f 39/39/39 42/42/42 41/41/41
f 41/41/41 43/43/43 40/40/40
f 42/42/42 44/44/44 41/41/41
f 41/41/41 44/44/44 43/43/43
f 42/42/42 45/45/45 44/44/44
f 44/44/44 46/46/46 43/43/43
f 45/45/45 47/47/47 44/44/44
f 44/44/44 47/47/47 46/46/46
f 45/45/45 48/48/48 47/47/47
f 47/47/47 49/49/49 46/46/46
f 48/48/48 50/50/50 47/47/47
f 47/47/47 50/50/50 49/49/49
f 48/48/48 51/51/51 50/50/50
f 50/50/50 52/52/52 49/49/49
f 51/51/51 53/53/53 50/50/50
f 50/50/50 53/53/53 52/52/52
f 51/51/51 54/54/54 53/53/53
f 53/53/53 55/55/55 52/52/52
f 54/54/54 56/56/56 53/53/53
f 53/53/53 56/56/56 55/55/55
f 54/54/54 57/57/57 56/56/56
f 56/56/56 58/58/58 55/55/55
f 57/57/57 59/59/59 56/56/56
f 56/56/56 59/59/59 58/58/58
f 57/57/57 60/60/60 59/59/59
f 59/59/59 61/61/61 58/58/58
f 60/60/60 62/62/62 59/59/59
f 59/59/59 62/62/62 61/61/61
f 60/60/60 63/63/63 62/62/62
f 62/62/62 64/64/64 61/61/61
f 63/63/63 65/65/65 62/62/62
f 62/62/62 65/65/65 64/64/64
f 63/63/63 66/66/66 65/65/65
f 65/65/65 67/67/67 64/64/64
f 66/66/66 68/68/68 65/65/65
f 65/65/65 68/68/68 67/67/67
f 66/66/66 69/69/69 68/68/68
f 68/68/68 70/70/70 67/67/67
f 69/69/69 71/71/71 68/68/68
f 68/68/68 71/71/71 70/70/70
f 69/69/69 72/72/72 71/71/71
f 71/71/71 73/73/73 70/70/70
f 72/72/72 74/74/74 71/71/71
f 71/71/71 74/74/74 73/73/73
f 74/74/74 75/75/75 73/73/73
f 78/78/78 77/77/77 76/76/76
f 77/77/77 79/79/79 76/76/76
f 80/80/80 79/79/79 77/77/77
f 81/81/81 80/80/80 77/77/77
f 82/82/82 80/80/80 81/81/81
f 83/83/83 82/82/82 81/81/81
f 84/84/84 82/82/82 83/83/83
f 85/85/85 84/84/84 83/83/83
f 86/86/86 84/84/84 85/85/85
f 87/87/87 86/86/86 85/85/85
f 88/88/88 86/86/86 87/87/87
f 89/89/89 88/88/88 87/87/87
f 90/90/90 88/88/88 89/89/89
f 91/91/91 90/90/90 89/89/89
f 92/92/92 90/90/90 91/91/91
f 93/93/93 92/92/92 91/91/91
f 94/94/94 92/92/92 93/93/93
f 95/95/95 94/94/94 93/93/93
f 96/96/96 94/94/94 95/95/95
f 97/97/97 96/96/96 95/95/95
f 98/98/98 96/96/96 97/97/97
f 99/99/99 98/98/98 97/97/97
f 100/100/100 98/98/98 99/99/99
f 101/101/101 100/100/100 99/99/99
f 102/102/102 100/100/100 101/101/101
f 103/103/103 102/102/102 101/101/101
f 102/102/102 103/103/103 104/104/104
f 103/103/103 105/105/105 104/104/104
