g ENV_FloorMatsDivider02_MO
v 9.204424 7.322628 145.93039
v 9.204424 6.3683434 145.93039
v 9.170621 6.363144 145.99802
v 9.337035 6.563362 143.93604
v 9.170621 7.3174267 145.99802
v 9.100414 6.360544 146.02661
v 9.337035 7.5202446 143.99844
v 9.175821 7.390234 145.93301
v 9.311033 7.525446 143.93082
v 9.311033 6.5711613 143.86581
v 9.305833 7.590452 144.00623
v 9.243427 7.5280457 143.90222
v 9.240827 6.573763 143.83463
v -9.241596 6.573763 143.83463
v 9.298032 7.582651 143.94644
v 9.240827 7.5956516 143.93604
v -9.241596 7.5280457 143.90222
v -9.311802 7.525446 143.93082
v -9.309204 6.5711613 143.86581
v -9.238995 7.5956516 143.93604
v 9.235626 7.619055 144.00882
v 9.108215 7.4188366 145.93301
v -9.335205 7.515045 144.00363
v -9.335205 6.563362 143.93604
v -9.202595 7.3200283 145.9278
v -9.202595 6.3683434 145.93039
v -9.3066025 7.5878506 144.00623
v -9.2962 7.582651 143.94904
v -9.233795 7.619055 144.00882
v -9.171391 7.3174267 145.99802
v -9.171391 6.363144 145.99802
v -9.17659 7.390234 145.93039
v -9.108986 7.4188366 145.93301
v 9.105615 7.3850327 146.00061
v -9.103783 7.3850327 146.00061
v -9.160988 7.374632 145.98761
v -9.103783 7.314827 146.02661
v -9.101185 6.360544 146.02661
v 9.103015 7.314827 146.02661
v 9.16022 7.374632 145.98761
v 11.945065 10.684723 111.05874
v 11.945065 9.527622 110.967735
v 11.913861 9.519821 111.03533
v 12.049073 9.71484 109.046165
v 11.911262 10.676922 111.12635
v 11.843656 9.51722 111.06133
v 12.049073 10.708126 109.134575
v 11.916462 10.752331 111.06394
v 12.025671 10.7133255 109.06696
v 12.023071 9.722637 108.97596
v 12.020471 10.77573 109.13978
v 11.958065 10.715927 109.03837
v 11.955465 9.725239 108.94735
v -11.956234 9.725239 108.94735
v 12.0126705 10.767929 109.08257
v 11.955465 10.780933 109.07217
v -11.958836 10.715927 109.03837
v -12.023842 10.7133255 109.06696
v -12.023842 9.722637 108.97596
v -11.956234 10.780933 109.07217
v 11.952865 10.804333 109.14237
v 11.846255 10.778332 111.06394
v -12.049843 10.702927 109.13717
v -12.049843 9.71484 109.046165
v -11.9432335 10.682121 111.056145
v -11.9432335 9.527622 110.967735
v -12.02124 10.77573 109.14237
v -12.010841 10.767929 109.08517
v -11.951035 10.804333 109.14237
v -11.912029 10.676922 111.12374
v -11.912029 9.519821 111.03533
v -11.914631 10.749729 111.06133
v -11.847027 10.778332 111.06394
v 11.843656 10.74453 111.13154
v -11.844425 10.74453 111.13154
v -11.899029 10.731529 111.115944
v -11.841824 10.674324 111.15235
v -11.844425 9.51722 111.06133
v 11.841055 10.674324 111.15235
v 11.900861 10.734127 111.11854
v 14.888523 14.111824 73.095406
v 14.888523 13.110737 73.095406
v 14.85472 13.108135 73.16041
v 15.132944 13.108135 71.197235
v 14.85472 14.106625 73.16041
v 14.787114 13.108135 73.18641
v 15.135545 14.101425 71.18944
v 14.86252 14.17683 73.092804
v 15.112143 14.104023 71.12183
v 15.112143 13.108135 71.124435
v 15.1043415 14.171631 71.19204
v 15.047136 14.104023 71.09323
v 15.041936 13.110737 71.09323
v -15.042706 13.110737 71.09323
v 15.099141 14.158627 71.134834
v 15.044537 14.171631 71.12183
v -15.047905 14.104023 71.09323
v -15.112911 14.098824 71.124435
v -15.110313 13.108135 71.124435
v -15.045307 14.171631 71.12183
v 15.034136 14.200233 71.19204
v 14.794914 14.202831 73.0902
v -15.133713 14.096222 71.197235
v -15.133713 13.108135 71.197235
v -14.889294 14.106625 73.0902
v -14.889294 13.110737 73.095406
v -15.10511 14.169029 71.19464
v -15.099911 14.158627 71.137436
v -15.0349045 14.200233 71.19204
v -14.85289 14.104023 73.16041
v -14.855488 13.108135 73.16041
v -14.863289 14.174229 73.0902
v -14.793083 14.202831 73.0902
v 14.784513 14.171631 73.16041
v -14.785282 14.171631 73.16041
v -14.842487 14.161228 73.14741
v -14.782684 14.104023 73.18641
v -14.785282 13.108135 73.18641
v 14.781914 14.104023 73.18641
v 14.841719 14.161228 73.14741
v 24.249346 13.017128 34.281796
v 24.249346 12.018639 34.281796
v 24.218142 12.018639 34.3468
v 24.379356 12.036842 32.230217
v 24.215542 13.014526 34.3468
v 24.147936 12.018639 34.375404
v 24.379356 13.03273 32.225014
v 24.220743 13.082134 34.279194
v 24.355955 13.03273 32.15741
v 24.353354 12.036842 32.15741
v 24.350754 13.100334 32.225014
v 24.28835 13.03273 32.128807
v 24.285748 12.036842 32.128807
v -24.32552 12.036842 32.128807
v 24.340353 13.087334 32.17041
v 24.285748 13.100334 32.15741
v -24.328121 13.03273 32.128807
v -24.39573 13.0301285 32.15741
v -24.39573 12.036842 32.15741
v -24.328121 13.100334 32.15741
v 24.280548 13.128937 32.225014
v 24.153137 13.110737 34.279194
v -24.419128 13.027531 32.230217
v -24.419128 12.036842 32.230217
v -24.250114 13.014526 34.279194
v -24.247513 12.018639 34.281796
v -24.390526 13.100334 32.227615
v -24.382725 13.087334 32.17041
v -24.322922 13.128937 32.225014
v -24.216312 13.011929 34.3468
v -24.216312 12.018639 34.3468
v -24.221512 13.082134 34.279194
v -24.151306 13.110737 34.279194
v 24.147936 13.082134 34.3468
v -24.146107 13.082134 34.3468
v -24.203312 13.069134 34.3338
v -24.146107 13.011929 34.375404
v -24.148705 12.018639 34.375404
v 24.145336 13.011929 34.375404
v 24.205141 13.069134 34.3338
vt 1.4680347 0.4192744
vt 1.4875467 0.39163268
vt 1.4794168 0.38296074
vt 1.4924247 0.5276734
vt 1.4669509 0.41710645
vt 1.4702029 0.37483084
vt 1.4723709 0.50436765
vt 1.4669509 0.42035842
vt 1.4718287 0.5059936
vt 1.4842947 0.53742933
vt 1.4712868 0.50274163
vt 1.4707448 0.5076196
vt 1.4750807 0.54664326
vt 0.7032798 0.54718524
vt 1.4712868 0.50436765
vt 1.4707448 0.50436765
vt 0.7076158 0.5076196
vt 0.7065318 0.5059936
vt 0.69406587 0.53742933
vt 0.7076158 0.50490963
vt 1.4702029 0.50165766
vt 1.4653249 0.4209004
vt 0.7059898 0.50436765
vt 0.68593603 0.5276734
vt 0.7103258 0.4192744
vt 0.69081396 0.39163268
vt 0.70707375 0.50274163
vt 0.70707375 0.50436765
vt 0.70815784 0.50165766
vt 0.71140975 0.41710645
vt 0.6989439 0.38296074
vt 0.71140975 0.42035842
vt 0.71303576 0.4214424
vt 1.4653249 0.41819042
vt 0.71303576 0.41819042
vt 0.7119518 0.4187324
vt 0.7124937 0.41493845
vt 0.70815784 0.37483084
vt 1.4658668 0.41493845
vt 1.466409 0.41819042
vt 1.0588286 0.41656446
vt 1.0788825 0.3889227
vt 1.0707524 0.37970877
vt 1.0826764 0.52929944
vt 1.0582867 0.41493845
vt 1.0609965 0.37049484
vt 1.0631645 0.5032836
vt 1.0577445 0.41819042
vt 1.0626225 0.5054516
vt 1.0750885 0.53905535
vt 1.0620806 0.50219965
vt 1.0615385 0.50707763
vt 1.0653324 0.54881126
vt 0.051259786 0.54935324
vt 1.0620806 0.50382566
vt 1.0615385 0.50382566
vt 0.05505374 0.50707763
vt 0.05396974 0.5054516
vt 0.041503847 0.53959733
vt 0.05505374 0.50436765
vt 1.0609965 0.5011157
vt 1.0572026 0.4192744
vt 0.053427756 0.50382566
vt 0.033373922 0.5298414
vt 0.05722171 0.41710645
vt 0.03770989 0.3889227
vt 0.054511756 0.50219965
vt 0.054511756 0.50382566
vt 0.055595726 0.5011157
vt 0.05830571 0.41493845
vt 0.045839816 0.37970877
vt 0.05830571 0.41819042
vt 0.05938971 0.4192744
vt 1.0572026 0.41602242
vt 0.05938971 0.41602242
vt 0.058847696 0.41656446
vt 0.05938971 0.4133125
vt 0.05505374 0.37049484
vt 1.0572026 0.41277045
vt 1.0577445 0.41656446
vt 0.9764454 0.463718
vt 0.9959572 0.4333663
vt 0.9872852 0.42469436
vt 1.005713 0.576453
vt 0.9753613 0.46155006
vt 0.97752935 0.41602242
vt 0.9862012 0.5509792
vt 0.9753613 0.46480203
vt 0.9856593 0.5531472
vt 0.9975831 0.58675086
vt 0.98511726 0.5498952
vt 0.98511726 0.55477315
vt 0.98782724 0.5970488
vt -0.32000685 0.5975908
vt 0.98511726 0.5515212
vt 0.9845752 0.5515212
vt -0.31675488 0.55477315
vt -0.31783885 0.5531472
vt -0.32976276 0.58675086
vt -0.31675488 0.5515212
vt 0.9840333 0.5482692
vt 0.9742773 0.465886
vt -0.31838086 0.5509792
vt -0.33789268 0.576453
vt -0.30862495 0.463718
vt -0.32813677 0.4333663
vt -0.31729686 0.5498952
vt -0.31729686 0.5515212
vt -0.3162129 0.5482692
vt -0.30754095 0.46155006
vt -0.31946486 0.42469436
vt -0.30754095 0.465344
vt -0.30645695 0.465886
vt 0.9737354 0.46263403
vt -0.30591497 0.46263403
vt -0.30699897 0.463176
vt -0.30591497 0.45992404
vt -0.30970892 0.41656446
vt 0.9742773 0.45938206
vt 0.97481936 0.463176
vt 1.8382175 0.41764843
vt 1.8582714 0.3883807
vt 1.8490574 0.3786248
vt 1.8636913 0.5423073
vt 1.8371336 0.41602242
vt 1.8382175 0.36941087
vt 1.8441794 0.5152075
vt 1.8371336 0.4192744
vt 1.8430955 0.5173755
vt 1.8550193 0.5531472
vt 1.8430955 0.51412356
vt 1.8425534 0.5190015
vt 1.8441794 0.5634451
vt -0.3362667 0.5639871
vt 1.8425534 0.5157495
vt 1.8420115 0.5157495
vt -0.3346407 0.5195435
vt -0.3351827 0.5173755
vt -0.3465646 0.5531472
vt -0.33409873 0.51629156
vt 1.8420115 0.51249754
vt 1.8360496 0.42035842
vt -0.3362667 0.5157495
vt -0.35577852 0.5428493
vt -0.33030474 0.41819042
vt -0.35035858 0.3883807
vt -0.3351827 0.51412356
vt -0.3346407 0.5157495
vt -0.33409873 0.5130396
vt -0.32922077 0.41602242
vt -0.34114465 0.37916678
vt -0.32922077 0.41981643
vt -0.32813677 0.4209004
vt 1.8360496 0.41710645
vt -0.32813677 0.41764843
vt -0.32922077 0.41764843
vt -0.32813677 0.41439646
vt -0.33030474 0.36941087
vt 1.8360496 0.41385448
vt 1.8371336 0.41710645
vn 0.9991339 0.020029366 0.036473002
vn 0.9991339 -0.003489852 0.041464157
vn 0.6777055 -0.003489852 0.73532516
vn 0.9991339 -0.003489852 0.041464157
vn 0.6933849 0.020029366 0.72028893
vn 0.003489852 -0.003489852 0.99998784
vn 0.9991339 0.027869046 0.030899378
vn 0.7012247 0.6942449 0.16219732
vn 0.7247438 0.06706756 -0.6857466
vn 0.7325835 0.043548524 -0.67928267
vn 0.70906436 0.6942449 0.12349788
vn 0.003489852 0.09842652 -0.9951382
vn 0.003489852 0.06706756 -0.99774235
vn -0.0043498874 0.06706756 -0.99773896
vn 0.5836289 0.63152725 -0.51044166
vn 0.003489852 0.7569627 -0.65344876
vn -0.0043498874 0.09842652 -0.99513483
vn -0.7256039 0.06706756 -0.68483645
vn -0.73344356 0.043548524 -0.67835397
vn -0.0043498874 0.7569627 -0.6534436
vn 0.003489852 0.999994 -0
vn 0.003489852 0.9921542 0.12497163
vn -0.9996119 0.027858399 -0
vn -0.999994 -0.003489852 -0
vn -0.9997995 0.020025471 -0
vn -0.999994 -0.003489852 -0
vn -0.7177641 0.68640524 0.1168869
vn -0.6080081 0.62368757 -0.49126366
vn -0.0043498725 0.9999905 -0
vn -0.6942449 0.020029366 0.71946007
vn -0.67856556 -0.003489852 0.7345315
vn -0.7099244 0.68640524 0.15765521
vn -0.0043498874 0.9921542 0.12494467
vn 0.003489852 0.67856556 0.7345315
vn -0.0043498874 0.67856556 0.734527
vn -0.57664925 0.52961093 0.6220835
vn -0.0043498874 0.027869046 0.99960214
vn -0.0043498874 -0.003489852 0.99998444
vn 0.003489852 0.027869046 0.9996055
vn 0.56010973 0.5374506 0.6304157
vn 0.9991339 0.020029366 0.036473002
vn 0.9991339 -0.003489852 0.041464157
vn 0.6777055 -0.05836785 0.7330132
vn 0.9991339 -0.003489852 0.041464157
vn 0.6855452 -0.04268843 0.72677743
vn 0.003489852 -0.08188701 0.99663556
vn 0.9991339 0.020029366 0.036473002
vn 0.6855452 0.7256039 0.059386425
vn 0.7247438 0.08274704 -0.6840317
vn 0.7247438 0.059227884 -0.6864681
vn 0.71690404 0.6942449 0.06381674
vn 0.003489852 0.11410588 -0.99346244
vn 0.003489852 0.09058672 -0.99588245
vn -0.0043498874 0.09058672 -0.9958791
vn 0.5914686 0.63152725 -0.5013365
vn 0.003489852 0.7648024 -0.64425546
vn -0.0043498874 0.11410588 -0.9934591
vn -0.7256039 0.08274704 -0.68311924
vn -0.73344356 0.059227884 -0.67716515
vn -0.0043498874 0.7648024 -0.6442502
vn 0.003489852 0.999994 -0
vn 0.003489852 0.999994 -0
vn -0.9997995 0.020025471 -0
vn -0.999994 -0.003489852 -0
vn -0.9997995 0.020025471 -0
vn -0.999994 -0.003489852 -0
vn -0.7256039 0.68640524 0.04844423
vn -0.6080081 0.62368757 -0.49126366
vn -0.0043498725 0.9999905 -0
vn -0.68640524 -0.04268843 0.72596526
vn -0.68640524 -0.05836785 0.72487307
vn -0.6942449 0.7177641 0.05327918
vn -0.0043498725 0.9999905 -0
vn 0.003489852 0.6472067 0.7623066
vn -0.0043498874 0.6472067 0.76230216
vn -0.56096977 0.51393145 0.6489895
vn -0.0043498874 -0.05836785 0.99828565
vn -0.0043498874 -0.08188701 0.99663216
vn 0.003489852 -0.05836785 0.99828905
vn 0.55227005 0.52177125 0.6501942
vn 0.99129415 0.027869046 0.12868258
vn 0.99129415 -0.003489852 0.13161957
vn 0.6463466 0.0043498874 0.76303154
vn 0.99129415 -0.003489852 0.13161957
vn 0.66202605 0.020029366 0.7492131
vn 0.003489852 -0.003489852 0.99998784
vn 0.99129415 0.027869046 0.12868258
vn 0.6777055 0.7256039 0.11922339
vn 0.74826294 0.020029366 -0.6630998
vn 0.7561027 -0.003489852 -0.6544437
vn 0.70906436 0.7020847 0.06561072
vn 0.003489852 0.027869046 -0.9996055
vn 0.003489852 -0.003489852 -0.99998784
vn -0.0043498874 -0.003489852 -0.99998444
vn 0.5993083 0.6001684 -0.52974284
vn 0.003489852 0.7020847 -0.7120849
vn -0.0043498874 0.027869046 -0.99960214
vn -0.74912304 0.020029366 -0.66212803
vn -0.7648024 -0.003489852 -0.64425546
vn -0.0043498874 0.7020847 -0.7120802
vn 0.003489852 0.999994 -0
vn 0.003489852 0.999994 -0
vn -0.9921542 0.027869046 0.12187445
vn -0.9921542 -0.003489852 0.124971546
vn -0.9921542 0.027869046 0.12187445
vn -0.9921542 -0.003489852 0.124971546
vn -0.7256039 0.68640524 0.04844423
vn -0.6393669 0.5844889 -0.49958247
vn -0.0043498725 0.9999905 -0
vn -0.6628861 0.020029366 0.7484523
vn -0.6550464 0.0043498874 0.75557613
vn -0.6942449 0.7099244 0.11845375
vn -0.0043498725 0.9999905 -0
vn 0.003489852 0.7099244 0.70426923
vn -0.0043498874 0.7099244 0.70426446
vn -0.5452903 0.56096977 0.62287354
vn -0.0043498874 0.027869046 0.99960214
vn -0.0043498874 -0.003489852 0.99998444
vn 0.003489852 0.027869046 0.9996055
vn 0.5130714 0.57664925 0.6357935
vn 0.9991339 0.027869046 0.030899378
vn 0.9991339 -0.003489852 0.041464157
vn 0.6777055 0.0043498874 0.73532057
vn 0.9991339 -0.003489852 0.041464157
vn 0.6777055 0.020029366 0.7350606
vn 0.003489852 -0.003489852 0.99998784
vn 0.9991339 0.027869046 0.030899378
vn 0.6933849 0.7177641 0.06349862
vn 0.7325835 0.020029366 -0.68038243
vn 0.7325835 -0.003489852 -0.6806682
vn 0.70906436 0.7020847 0.06561072
vn 0.003489852 0.027869046 -0.9996055
vn 0.003489852 -0.003489852 -0.99998784
vn -0.0043498874 -0.003489852 -0.99998444
vn 0.5914686 0.5844889 -0.55546165
vn 0.003489852 0.7020847 -0.7120849
vn -0.0043498874 0.027869046 -0.99960214
vn -0.73344356 0.020029366 -0.6794552
vn -0.74128324 -0.003489852 -0.6711833
vn 0.003489852 0.7020847 -0.7120849
vn 0.003489852 0.999994 -0
vn 0.003489852 0.999994 -0
vn -0.9996119 0.027858399 -0
vn -0.999994 -0.003489852 -0
vn -0.9921542 0.027869046 0.12187445
vn -0.9921542 -0.003489852 0.124971546
vn -0.7177641 0.6942449 0.053279463
vn -0.61584777 0.57664925 -0.5368493
vn -0.0043498725 0.9999905 -0
vn -0.68640524 0.020029366 0.7269433
vn -0.67856556 0.0043498874 0.734527
vn -0.7020847 0.7099244 0.05553703
vn -0.0043498725 0.9999905 -0
vn 0.003489852 0.7099244 0.70426923
vn 0.003489852 0.7099244 0.70426923
vn -0.56096977 0.56880945 0.60147214
vn -0.0043498874 0.027869046 0.99960214
vn -0.0043498874 -0.003489852 0.99998444
vn 0.003489852 0.027869046 0.9996055
vn 0.5444303 0.57664925 0.6091562
g ENV_FloorMatsDivider02_MO_0
f 3/3/3 2/2/2 1/1/1
f 2/2/2 4/4/4 1/1/1
f 5/5/5 3/3/3 1/1/1
f 6/6/6 3/3/3 5/5/5
f 4/4/4 7/7/7 1/1/1
f 1/1/1 8/8/8 5/5/5
f 1/1/1 7/7/7 8/8/8
f 7/7/7 4/4/4 9/9/9
f 4/4/4 10/10/10 9/9/9
f 7/7/7 11/11/11 8/8/8
f 7/7/7 9/9/9 11/11/11
f 9/9/9 10/10/10 12/12/12
f 10/10/10 13/13/13 12/12/12
f 13/13/13 14/14/14 12/12/12
f 9/9/9 15/15/15 11/11/11
f 16/16/16 15/15/15 9/9/9
f 12/12/12 16/16/16 9/9/9
f 11/11/11 15/15/15 16/16/16
f 14/14/14 17/17/17 12/12/12
f 16/16/16 12/12/12 17/17/17
f 17/17/17 14/14/14 18/18/18
f 14/14/14 19/19/19 18/18/18
f 20/20/20 16/16/16 17/17/17
f 17/17/17 18/18/18 20/20/20
f 21/21/21 11/11/11 16/16/16
f 21/21/21 16/16/16 20/20/20
f 11/11/11 21/21/21 22/22/22
f 8/8/8 11/11/11 22/22/22
f 18/18/18 19/19/19 23/23/23
f 19/19/19 24/24/24 23/23/23
f 23/23/23 24/24/24 25/25/25
f 24/24/24 26/26/26 25/25/25
f 23/23/23 27/27/27 18/18/18
f 27/27/27 23/23/23 25/25/25
f 18/18/18 28/28/28 20/20/20
f 27/27/27 28/28/28 18/18/18
f 20/20/20 28/28/28 27/27/27
f 29/29/29 21/21/21 20/20/20
f 29/29/29 20/20/20 27/27/27
f 22/22/22 21/21/21 29/29/29
f 25/25/25 26/26/26 30/30/30
f 26/26/26 31/31/31 30/30/30
f 32/32/32 27/27/27 25/25/25
f 29/29/29 27/27/27 32/32/32
f 25/25/25 30/30/30 32/32/32
f 33/33/33 22/22/22 29/29/29
f 33/33/33 29/29/29 32/32/32
f 34/34/34 22/22/22 33/33/33
f 22/22/22 34/34/34 8/8/8
f 33/33/33 32/32/32 35/35/35
f 35/35/35 34/34/34 33/33/33
f 30/30/30 36/36/36 32/32/32
f 32/32/32 36/36/36 35/35/35
f 35/35/35 36/36/36 30/30/30
f 30/30/30 31/31/31 37/37/37
f 37/37/37 35/35/35 30/30/30
f 31/31/31 38/38/38 37/37/37
f 38/38/38 6/6/6 37/37/37
f 37/37/37 39/39/39 35/35/35
f 6/6/6 39/39/39 37/37/37
f 39/39/39 34/34/34 35/35/35
f 39/39/39 6/6/6 5/5/5
f 39/39/39 5/5/5 34/34/34
f 34/34/34 40/40/40 8/8/8
f 5/5/5 40/40/40 34/34/34
f 8/8/8 40/40/40 5/5/5
f 43/43/43 42/42/42 41/41/41
f 42/42/42 44/44/44 41/41/41
f 45/45/45 43/43/43 41/41/41
f 46/46/46 43/43/43 45/45/45
f 44/44/44 47/47/47 41/41/41
f 41/41/41 48/48/48 45/45/45
f 41/41/41 47/47/47 48/48/48
f 47/47/47 44/44/44 49/49/49
f 44/44/44 50/50/50 49/49/49
f 47/47/47 51/51/51 48/48/48
f 47/47/47 49/49/49 51/51/51
f 49/49/49 50/50/50 52/52/52
f 50/50/50 53/53/53 52/52/52
f 53/53/53 54/54/54 52/52/52
f 49/49/49 55/55/55 51/51/51
f 56/56/56 55/55/55 49/49/49
f 52/52/52 56/56/56 49/49/49
f 51/51/51 55/55/55 56/56/56
f 54/54/54 57/57/57 52/52/52
f 56/56/56 52/52/52 57/57/57
f 57/57/57 54/54/54 58/58/58
f 54/54/54 59/59/59 58/58/58
f 60/60/60 56/56/56 57/57/57
f 57/57/57 58/58/58 60/60/60
f 61/61/61 51/51/51 56/56/56
f 61/61/61 56/56/56 60/60/60
f 51/51/51 61/61/61 62/62/62
f 48/48/48 51/51/51 62/62/62
f 58/58/58 59/59/59 63/63/63
f 59/59/59 64/64/64 63/63/63
f 63/63/63 64/64/64 65/65/65
f 64/64/64 66/66/66 65/65/65
f 63/63/63 67/67/67 58/58/58
f 67/67/67 63/63/63 65/65/65
f 58/58/58 68/68/68 60/60/60
f 67/67/67 68/68/68 58/58/58
f 60/60/60 68/68/68 67/67/67
f 69/69/69 61/61/61 60/60/60
f 69/69/69 60/60/60 67/67/67
f 62/62/62 61/61/61 69/69/69
f 65/65/65 66/66/66 70/70/70
f 66/66/66 71/71/71 70/70/70
f 72/72/72 67/67/67 65/65/65
f 69/69/69 67/67/67 72/72/72
f 65/65/65 70/70/70 72/72/72
f 73/73/73 62/62/62 69/69/69
f 73/73/73 69/69/69 72/72/72
f 74/74/74 62/62/62 73/73/73
f 62/62/62 74/74/74 48/48/48
f 73/73/73 72/72/72 75/75/75
f 75/75/75 74/74/74 73/73/73
f 70/70/70 76/76/76 72/72/72
f 72/72/72 76/76/76 75/75/75
f 75/75/75 76/76/76 70/70/70
f 70/70/70 71/71/71 77/77/77
f 77/77/77 75/75/75 70/70/70
f 71/71/71 78/78/78 77/77/77
f 78/78/78 46/46/46 77/77/77
f 77/77/77 79/79/79 75/75/75
f 46/46/46 79/79/79 77/77/77
f 79/79/79 74/74/74 75/75/75
f 79/79/79 46/46/46 45/45/45
f 79/79/79 45/45/45 74/74/74
f 74/74/74 80/80/80 48/48/48
f 45/45/45 80/80/80 74/74/74
f 48/48/48 80/80/80 45/45/45
f 83/83/83 82/82/82 81/81/81
f 82/82/82 84/84/84 81/81/81
f 85/85/85 83/83/83 81/81/81
f 86/86/86 83/83/83 85/85/85
f 84/84/84 87/87/87 81/81/81
f 81/81/81 88/88/88 85/85/85
f 81/81/81 87/87/87 88/88/88
f 87/87/87 84/84/84 89/89/89
f 84/84/84 90/90/90 89/89/89
f 87/87/87 91/91/91 88/88/88
f 87/87/87 89/89/89 91/91/91
f 89/89/89 90/90/90 92/92/92
f 90/90/90 93/93/93 92/92/92
f 93/93/93 94/94/94 92/92/92
f 89/89/89 95/95/95 91/91/91
f 96/96/96 95/95/95 89/89/89
f 92/92/92 96/96/96 89/89/89
f 91/91/91 95/95/95 96/96/96
f 94/94/94 97/97/97 92/92/92
f 96/96/96 92/92/92 97/97/97
f 97/97/97 94/94/94 98/98/98
f 94/94/94 99/99/99 98/98/98
f 100/100/100 96/96/96 97/97/97
f 97/97/97 98/98/98 100/100/100
f 101/101/101 91/91/91 96/96/96
f 101/101/101 96/96/96 100/100/100
f 91/91/91 101/101/101 102/102/102
f 88/88/88 91/91/91 102/102/102
f 98/98/98 99/99/99 103/103/103
f 99/99/99 104/104/104 103/103/103
f 103/103/103 104/104/104 105/105/105
f 104/104/104 106/106/106 105/105/105
f 103/103/103 107/107/107 98/98/98
f 107/107/107 103/103/103 105/105/105
f 98/98/98 108/108/108 100/100/100
f 107/107/107 108/108/108 98/98/98
f 100/100/100 108/108/108 107/107/107
f 109/109/109 101/101/101 100/100/100
f 109/109/109 100/100/100 107/107/107
f 102/102/102 101/101/101 109/109/109
f 105/105/105 106/106/106 110/110/110
f 106/106/106 111/111/111 110/110/110
f 112/112/112 107/107/107 105/105/105
f 109/109/109 107/107/107 112/112/112
f 105/105/105 110/110/110 112/112/112
f 113/113/113 102/102/102 109/109/109
f 113/113/113 109/109/109 112/112/112
f 114/114/114 102/102/102 113/113/113
f 102/102/102 114/114/114 88/88/88
f 113/113/113 112/112/112 115/115/115
f 115/115/115 114/114/114 113/113/113
f 110/110/110 116/116/116 112/112/112
f 112/112/112 116/116/116 115/115/115
f 115/115/115 116/116/116 110/110/110
f 110/110/110 111/111/111 117/117/117
f 117/117/117 115/115/115 110/110/110
f 111/111/111 118/118/118 117/117/117
f 118/118/118 86/86/86 117/117/117
f 117/117/117 119/119/119 115/115/115
f 86/86/86 119/119/119 117/117/117
f 119/119/119 114/114/114 115/115/115
f 119/119/119 86/86/86 85/85/85
f 119/119/119 85/85/85 114/114/114
f 114/114/114 120/120/120 88/88/88
f 85/85/85 120/120/120 114/114/114
f 88/88/88 120/120/120 85/85/85
f 123/123/123 122/122/122 121/121/121
f 122/122/122 124/124/124 121/121/121
f 125/125/125 123/123/123 121/121/121
f 126/126/126 123/123/123 125/125/125
f 124/124/124 127/127/127 121/121/121
f 121/121/121 128/128/128 125/125/125
f 121/121/121 127/127/127 128/128/128
f 127/127/127 124/124/124 129/129/129
f 124/124/124 130/130/130 129/129/129
f 127/127/127 131/131/131 128/128/128
f 127/127/127 129/129/129 131/131/131
f 129/129/129 130/130/130 132/132/132
f 130/130/130 133/133/133 132/132/132
f 133/133/133 134/134/134 132/132/132
f 129/129/129 135/135/135 131/131/131
f 136/136/136 135/135/135 129/129/129
f 132/132/132 136/136/136 129/129/129
f 131/131/131 135/135/135 136/136/136
f 134/134/134 137/137/137 132/132/132
f 136/136/136 132/132/132 137/137/137
f 137/137/137 134/134/134 138/138/138
f 134/134/134 139/139/139 138/138/138
f 140/140/140 136/136/136 137/137/137
f 137/137/137 138/138/138 140/140/140
f 141/141/141 131/131/131 136/136/136
f 141/141/141 136/136/136 140/140/140
f 131/131/131 141/141/141 142/142/142
f 128/128/128 131/131/131 142/142/142
f 138/138/138 139/139/139 143/143/143
f 139/139/139 144/144/144 143/143/143
f 143/143/143 144/144/144 145/145/145
f 144/144/144 146/146/146 145/145/145
f 143/143/143 147/147/147 138/138/138
f 147/147/147 143/143/143 145/145/145
f 138/138/138 148/148/148 140/140/140
f 147/147/147 148/148/148 138/138/138
f 140/140/140 148/148/148 147/147/147
f 149/149/149 141/141/141 140/140/140
f 149/149/149 140/140/140 147/147/147
f 142/142/142 141/141/141 149/149/149
f 145/145/145 146/146/146 150/150/150
f 146/146/146 151/151/151 150/150/150
f 152/152/152 147/147/147 145/145/145
f 149/149/149 147/147/147 152/152/152
f 145/145/145 150/150/150 152/152/152
f 153/153/153 142/142/142 149/149/149
f 153/153/153 149/149/149 152/152/152
f 154/154/154 142/142/142 153/153/153
f 142/142/142 154/154/154 128/128/128
f 153/153/153 152/152/152 155/155/155
f 155/155/155 154/154/154 153/153/153
f 150/150/150 156/156/156 152/152/152
f 152/152/152 156/156/156 155/155/155
f 155/155/155 156/156/156 150/150/150
f 150/150/150 151/151/151 157/157/157
f 157/157/157 155/155/155 150/150/150
f 151/151/151 158/158/158 157/157/157
f 158/158/158 126/126/126 157/157/157
f 157/157/157 159/159/159 155/155/155
f 126/126/126 159/159/159 157/157/157
f 159/159/159 154/154/154 155/155/155
f 159/159/159 126/126/126 125/125/125
f 159/159/159 125/125/125 154/154/154
f 154/154/154 160/160/160 128/128/128
f 125/125/125 160/160/160 154/154/154
f 128/128/128 160/160/160 125/125/125
