g ENV_FloorTriangle01_MO
v -249.99997 49.99997 249.99997
v -249.99997 49.99997 -250
v 250 49.99997 249.99997
v -249.99997 -50.000015 -250
v -249.99997 -50.000015 249.99997
v 250 -50.000015 249.99997
v -249.99997 -50.000015 249.99997
v -249.99997 49.99997 249.99997
v 250 49.99997 249.99997
v 250 -50.000015 249.99997
v -249.99997 -50.000015 -250
v -249.99997 49.99997 -250
v -249.99997 49.99997 249.99997
v -249.99997 -50.000015 249.99997
v 250 49.99997 249.99997
v -249.99997 49.99997 -250
v -249.99997 -50.000015 -250
v 250 -50.000015 249.99997
vt 0.37536657 0.25024438
vt 0.37536657 0.50048876
vt 0.62463343 0.25024438
vt 0.37536657 0.7497556
vt 0.37536657 1
vt 0.62463343 1
vt 0.37536657 0
vt 0.37536657 0.25024438
vt 0.62463343 0.25024438
vt 0.62463343 0
vt 0.12512219 0
vt 0.12512219 0.25024438
vt 0.37536657 0.25024438
vt 0.37536657 0
vt 0.62463343 0.25024438
vt 0.37536657 0.50048876
vt 0.12512219 0
vt 0.62463343 1
vn -0.003921509 0.99999225 -0.00034526698
vn -0.003921509 0.99999225 -0.00034526698
vn -0.003921509 0.99999225 -0.00034526698
vn -0.003921509 -0.9999924 -0
vn -0.003921509 -0.9999924 -0
vn -0.003921509 -0.9999924 -0
vn -0.003921509 0.003921509 0.9999846
vn -0.003921509 0.003921509 0.9999846
vn -0.003921509 0.003921509 0.9999846
vn -0.003921509 0.003921509 0.9999846
vn -0.99999225 0.003921509 -0.00034492963
vn -0.99999225 0.003921509 -0.00034492963
vn -0.99999225 0.003921509 -0.00034492963
vn -0.99999225 0.003921509 -0.00034492963
vn 0.7097985 0.003921509 -0.70439386
vn 0.7097985 0.003921509 -0.70439386
vn 0.7097985 0.003921509 -0.70439386
vn 0.7097985 0.003921509 -0.70439386
g ENV_FloorTriangle01_MO_0
f 3/3/3 2/2/2 1/1/1
f 6/6/6 5/5/5 4/4/4
f 9/9/9 8/8/8 7/7/7
f 10/10/10 9/9/9 7/7/7
f 13/13/13 12/12/12 11/11/11
f 14/14/14 13/13/13 11/11/11
f 17/17/17 16/16/16 15/15/15
f 18/18/18 17/17/17 15/15/15
