g ENV_S09_Start_Slide_Slime_MO
v -8.934913 -22.593777 50.933598
v -6.577891 -22.624983 52.320896
v -8.3382845 -22.624565 52.321125
v -7.0485587 -22.6027 50.934143
v -9.216187 -22.516012 50.118916
v -3.9467344 -22.624983 52.320896
v -7.2704496 -22.524313 50.114403
v -9.3822365 -22.246927 49.286552
v -4.229135 -22.6027 50.934143
v 6.1035155E-07 -22.624983 52.320896
v -7.401442 -22.252703 49.28444
v -9.563032 -21.780853 48.2316
v 6.1035155E-07 -22.6027 50.934143
v 3.9467359 -22.624983 52.320896
v -4.36227 -22.524313 50.114403
v -7.54407 -21.782751 48.231194
v -9.858559 -20.869152 46.607582
v 4.2291365 -22.6027 50.93415
v 6.5778923 -22.624983 52.320896
v 6.1035155E-07 -22.524313 50.114403
v -4.440865 -22.252703 49.28444
v -7.778105 -20.870745 46.607002
v -10.398834 -18.70209 42.979023
v -4.526441 -21.782751 48.2312
v 6.1035155E-07 -22.252703 49.28444
v 4.362271 -22.524313 50.114403
v 7.04856 -22.6027 50.934143
v -8.429499 -18.703272 42.9785
v -11.017361 -16.111134 38.640694
v -4.6668625 -20.870745 46.607002
v 1.2207031E-06 -21.782751 48.231194
v 8.934914 -22.593777 50.933598
v 8.338287 -22.624565 52.321125
v 9.216188 -22.516012 50.118916
v 7.270451 -22.524313 50.114403
v 9.382238 -22.246927 49.286552
v 4.4408665 -22.252703 49.284443
v 7.4014435 -22.252703 49.28444
v 9.563034 -21.780853 48.2316
v 4.526444 -21.782751 48.231194
v 7.544072 -21.782751 48.231194
v 9.85856 -20.869152 46.607582
v 6.1035155E-07 -20.870745 46.607002
v 7.7781057 -20.870745 46.607002
v 10.398834 -18.70209 42.979023
v 4.666864 -20.870745 46.607002
v -5.057699 -18.703272 42.9785
v 8.4295 -18.703272 42.9785
v 11.017361 -16.111134 38.640694
v 6.1035155E-07 -18.703272 42.9785
v 5.0577 -18.703274 42.978504
v -8.990832 -16.111998 38.640186
v -11.749226 -13.282385 33.9042
v 8.990835 -16.111998 38.640186
v 11.749226 -13.282385 33.9042
v -5.394499 -16.111998 38.640186
v -9.6295805 -13.282925 33.9037
v -12.925657 -9.089576 26.883713
v 1.2207031E-06 -16.111998 38.640186
v 5.3945017 -16.111998 38.640186
v 9.629581 -13.282925 33.9037
v 12.925657 -9.089576 26.883713
v -10.906398 -9.089653 26.883268
v -15.359643 0.049446106 11.581223
v -5.777748 -13.282925 33.9037
v 6.1035155E-07 -13.282925 33.9037
v 5.7777495 -13.282925 33.9037
v 10.906398 -9.089653 26.883268
v 15.359643 0.049446106 11.581223
v -13.245781 0.05013153 11.580825
v -15.443454 0.6925717 10.487307
v -6.543839 -9.089653 26.883268
v -0 -9.089653 26.883268
v 6.543839 -9.089653 26.883266
v 13.245781 0.05013153 11.580825
v 15.443454 0.6925717 10.487307
v -13.318056 0.693154 10.487058
v -15.516094 1.2817972 9.3628025
v -7.9474688 0.05013153 11.580825
v -0 0.05013153 11.580825
v 7.9474688 0.05013153 11.580825
v 13.318056 0.693154 10.487058
v 15.516094 1.2817972 9.3628025
v -13.380698 1.282151 9.362961
v -15.56551 1.5969489 8.589812
v -7.990834 0.693154 10.487058
v -0 0.693154 10.487058
v 7.990834 0.693154 10.487058
v 13.380698 1.282151 9.362961
v 15.56551 1.5969489 8.589812
v -13.423318 1.5973178 8.589949
v -15.606008 1.8801736 7.8059983
v -8.028419 1.282151 9.362961
v -0 1.282151 9.362961
v 8.028419 1.282151 9.362961
v 13.423318 1.5973178 8.589949
v 15.606008 1.8801736 7.8059983
v -13.45824 1.8805455 7.806108
v -15.65476 2.090556 7.0010824
v -8.053991 1.5973178 8.589951
v -0 1.5973178 8.589949
v 8.053991 1.5973178 8.589949
v 13.45824 1.8805455 7.806108
v 15.65476 2.090556 7.0010824
v -13.500283 2.0909412 7.0011654
v -15.684162 2.24149 6.279951
v -8.0749445 1.8805453 7.806108
v -0 1.8805455 7.806108
v 8.0749445 1.8805455 7.806108
v 13.500283 2.0909412 7.0011654
v 15.684162 2.24149 6.279951
v -13.525635 2.2418752 6.2800083
v -15.713804 2.3688393 5.18197
v -8.10017 2.0909412 7.0011654
v -0 2.0909412 7.0011654
v 8.10017 2.0909412 7.001167
v 13.525635 2.2418752 6.2800083
v 15.713804 2.3688393 5.18197
v -13.551201 2.3692355 5.181997
v -15.720696 2.437385 4.078092
v -8.115381 2.2418752 6.2800083
v -0 2.2418752 6.2800083
v 8.115381 2.2418752 6.2800097
v 13.551201 2.3692355 5.181997
v 15.720696 2.437385 4.078092
v -8.130721 2.3692355 5.181997
v -13.557146 2.437785 4.078093
v -0 2.3692355 5.181997
v 8.130721 2.3692355 5.181997
v -13.503867 2.5061355 2.1716015
v -15.658916 2.5058377 2.1716979
v -15.593221 2.578629 0.14446166
v -13.447209 2.5788186 0.14426146
v -8.134288 2.437785 4.078093
v -8.102321 2.5061355 2.1716015
v -8.068326 2.5788186 0.14426146
v -0 2.437785 4.078093
v -0 2.5061355 2.1716015
v -0 2.5788186 0.14426146
v 8.134288 2.437785 4.078093
v 8.102321 2.5061355 2.1716015
v 8.068326 2.5788186 0.14426146
v 13.557146 2.437785 4.078093
v 13.503867 2.5061355 2.1716015
v 13.447209 2.5788186 0.14426146
v 15.658916 2.5058377 2.1716979
v 15.593221 2.578629 0.14446166
vt 0.30894342 -0.1475763
vt 0.36341107 -0.17969109
vt 0.3227136 -0.17966998
vt 0.3525422 -0.14763477
vt 0.30245414 -0.12865093
vt 0.4242227 -0.17969419
vt 0.34741917 -0.1286023
vt 0.2986143 -0.10842732
vt 0.41770208 -0.14763832
vt 0.5154401 -0.17969882
vt 0.34439132 -0.108419724
vt 0.2944309 -0.08176575
vt 0.51544195 -0.14764364
vt 0.6066575 -0.17970347
vt 0.41462868 -0.12860602
vt 0.34109265 -0.08176481
vt 0.2875975 -0.03871432
vt 0.6131818 -0.14764896
vt 0.6674691 -0.17970656
vt 0.51544297 -0.1286116
vt 0.41281238 -0.10842347
vt 0.3356812 -0.038714483
vt 0.27511135 0.05897239
vt 0.41083375 -0.08176854
vt 0.515444 -0.1084291
vt 0.6162573 -0.12861718
vt 0.6783417 -0.1476525
vt 0.3206268 0.058969438
vt 0.2608209 0.17576288
vt 0.40758774 -0.038718175
vt 0.51544535 -0.081774145
vt 0.72194034 -0.14759898
vt 0.70816636 -0.17969105
vt 0.72843176 -0.12867413
vt 0.6834668 -0.12862091
vt 0.7322738 -0.10845055
vt 0.6180756 -0.10843472
vt 0.6864967 -0.10843847
vt 0.73645985 -0.08178899
vt 0.620057 -0.08177975
vt 0.6897981 -0.08178349
vt 0.7432976 -0.038737398
vt 0.5154475 -0.03872371
vt 0.69521385 -0.03873294
vt 0.7557931 0.058950096
vt 0.62330735 -0.038729247
vt 0.398557 0.058965832
vt 0.71027774 0.058951404
vt 0.77009434 0.17574027
vt 0.51545227 0.058960423
vt 0.6323476 0.058955014
vt 0.30765823 0.1757614
vt 0.2439121 0.3032711
vt 0.72325706 0.17574303
vt 0.7870144 0.30324736
vt 0.390778 0.17575774
vt 0.29290158 0.3032727
vt 0.21673112 0.4922653
vt 0.51545763 0.17575222
vt 0.6401373 0.17574671
vt 0.73802495 0.30325332
vt 0.8142119 0.49223936
vt 0.26340052 0.49227107
vt 0.16049565 0.9042143
vt 0.38192624 0.30326882
vt 0.51546323 0.303263
vt 0.6490003 0.3032572
vt 0.76754254 0.49224925
vt 0.87048364 0.90418285
vt 0.20935154 0.9042277
vt 0.15856013 0.93354326
vt 0.3642289 0.4922667
vt 0.5154715 0.49226016
vt 0.66671413 0.4922536
vt 0.82162774 0.9042005
vt 0.87242174 0.93351156
vt 0.20768258 0.9335519
vt 0.15688282 0.96288526
vt 0.33180678 0.90422225
vt 0.51548964 0.9042141
vt 0.6991725 0.9042059
vt 0.8232993 0.93352455
vt 0.87410164 0.96285343
vt 0.20623626 0.9628826
vt 0.15574165 0.98217887
vt 0.33080593 0.9335465
vt 0.51549095 0.9335382
vt 0.700176 0.93353
vt 0.8247482 0.9628551
vt 0.87524444 0.9821469
vt 0.20525213 0.9821764
vt 0.15480658 1.0014412
vt 0.32993865 0.9628771
vt 0.51549226 0.9628688
vt 0.7010459 0.9628606
vt 0.82573396 0.9821488
vt 0.87618124 1.0014093
vt 0.20444594 1.001439
vt 0.15368065 1.0206698
vt 0.3293485 0.98217094
vt 0.51549304 0.9821626
vt 0.7016376 0.9821543
vt 0.8265419 1.0014113
vt 0.87730885 1.0206378
vt 0.20347504 1.0206679
vt 0.15300184 1.0376981
vt 0.32886514 1.0014335
vt 0.5154939 1.0014251
vt 0.7021227 1.0014169
vt 0.82751447 1.0206403
vt 0.8779892 1.037666
vt 0.20288984 1.0376966
vt 0.15231769 1.0632454
vt 0.32828292 1.0206623
vt 0.51549476 1.0206541
vt 0.7027066 1.0206459
vt 0.82810116 1.0376688
vt 0.8786756 1.0632131
vt 0.20229992 1.0632441
vt 0.15215932 1.0888077
vt 0.3279321 1.0376911
vt 0.5154955 1.0376828
vt 0.7030589 1.0376744
vt 0.8286934 1.0632162
vt 0.8788362 1.0887755
vt 0.32757863 1.0632386
vt 0.2021635 1.0888067
vt 0.5154967 1.0632302
vt 0.7034147 1.0632218
vt 0.20339662 1.132898
vt 0.15358876 1.1328973
vt 0.15510899 1.1797812
vt 0.20470802 1.1797842
vt 0.32749718 1.0888011
vt 0.32823783 1.1328925
vt 0.3290255 1.1797787
vt 0.51549774 1.0887928
vt 0.5154997 1.1328841
vt 0.51550174 1.1797705
vt 0.7034983 1.0887845
vt 0.7027616 1.1328759
vt 0.701978 1.1797622
vt 0.82883203 1.0887789
vt 0.8276028 1.1328703
vt 0.8262955 1.1797566
vt 0.87741065 1.1328652
vt 0.87589455 1.1797493
vn 0.0035762961 0.99840933 0.05626768
vn 0.0007802713 0.9998603 0.016699277
vn 0.0025594065 0.99983215 0.0181401
vn 0.0013665488 0.99883085 0.04832325
vn 0.004206608 0.9742405 0.22547251
vn -0 0.9998709 0.01606626
vn 0.0017880215 0.9774769 0.2110348
vn 0.0027295428 0.9290974 0.369825
vn -0 0.99887747 0.047369
vn -0 0.9998709 0.01606571
vn 0.0011615963 0.9303076 0.3667784
vn 0.0012404508 0.88680756 0.46213713
vn -0 0.9989183 0.046499975
vn -0 0.9998709 0.016065726
vn -0 0.9775753 0.21058641
vn 0.0005226671 0.8882342 0.45939058
vn 0.0007621534 0.86227584 0.5064384
vn -0 0.99887747 0.047368508
vn -0.0007802661 0.9998603 0.016698528
vn -0 0.9779463 0.20885676
vn -0 0.9300947 0.36731973
vn 0.0002847334 0.8625127 0.5060353
vn 0.00063594553 0.85856634 0.5127021
vn -0 0.8881777 0.45950022
vn -0 0.93028843 0.3668288
vn -0 0.9775753 0.2105864
vn -0.0013665404 0.99883074 0.04832379
vn 0.00024357116 0.85852957 0.51276404
vn 0.0004827842 0.8585586 0.5127151
vn -0 0.8624556 0.5061327
vn -0 0.88836586 0.45913622
vn -0.0035762668 0.9984092 0.05627077
vn -0.0025594449 0.99983215 0.018141333
vn -0.0042063314 0.97424 0.22547425
vn -0.0017879261 0.97747666 0.21103583
vn -0.0027291519 0.92909753 0.36982477
vn -0 0.93009484 0.3673196
vn -0.0011614392 0.9303075 0.36677855
vn -0.0012407792 0.8868074 0.46213758
vn -0 0.8881777 0.45950013
vn -0.0005227605 0.8882341 0.45939097
vn -0.00076214265 0.86227566 0.50643873
vn -0 0.8625154 0.5060308
vn -0.0002848299 0.8625125 0.5060357
vn -0.00063587405 0.8585663 0.51270217
vn -0 0.8624555 0.5061328
vn -0 0.85850626 0.51280314
vn -0.00024384038 0.85852957 0.51276416
vn -0.00048262364 0.8585585 0.51271534
vn 1.5593875E-07 0.85850614 0.5128033
vn -0 0.85850626 0.51280314
vn 0.00017692008 0.85853106 0.5127616
vn 0.00030749978 0.8585506 0.5127287
vn -0.00017706776 0.85853106 0.5127616
vn -0.00030720438 0.8585506 0.51272875
vn -0 0.8585153 0.51278806
vn 0.00010616149 0.85852754 0.5127673
vn 5.2510757E-05 0.85853577 0.51275367
vn 1.09212365E-07 0.8585152 0.5127881
vn -0 0.8585153 0.512788
vn -0.00010606229 0.85852754 0.5127673
vn -5.2417592E-05 0.85853577 0.5127536
vn 2.1780219E-05 0.8585259 0.51277035
vn -3.3848984E-05 0.8588032 0.5123055
vn -0 0.85851586 0.512787
vn -0 0.85851586 0.512787
vn -0 0.8585159 0.5127869
vn -2.1746757E-05 0.8585259 0.51277035
vn 3.3888427E-05 0.85880333 0.5123055
vn -1.0370494E-05 0.8587906 0.5123267
vn -0.00018235212 0.8746652 0.4847274
vn -0 0.8585209 0.51277864
vn -0 0.8585209 0.51277864
vn -0 0.85852087 0.51277864
vn 1.0382495E-05 0.8587907 0.5123267
vn 0.000182352 0.8746652 0.4847274
vn -5.2134143E-05 0.8743794 0.48524293
vn -0.00018379009 0.9034812 0.4286277
vn -0 0.8587847 0.5123367
vn -0 0.8587813 0.51234245
vn -0 0.8587847 0.5123367
vn 5.2138592E-05 0.8743794 0.4852429
vn 0.0001837569 0.9034812 0.42862776
vn -5.2893134E-05 0.903024 0.42959002
vn -0.00018207886 0.9336812 0.3581055
vn -0 0.87425673 0.48546386
vn -0 0.8742086 0.4855505
vn -0 0.87425673 0.48546386
vn 5.2876694E-05 0.9030241 0.4295898
vn 0.00018215868 0.9336811 0.35810554
vn -5.2179286E-05 0.93352664 0.35850796
vn -0.00018214318 0.9554449 0.2951697
vn -0 0.9028309 0.42999583
vn -0 0.9027554 0.43015435
vn -0 0.90283096 0.42999566
vn 5.216969E-05 0.93352664 0.35850802
vn 0.00018210933 0.9554449 0.29516977
vn -5.176734E-05 0.95515907 0.29609329
vn -0.00018186144 0.9732805 0.2296195
vn -0 0.9334612 0.35867843
vn -0 0.93343544 0.35874546
vn -0 0.9334612 0.35867852
vn 5.1711067E-05 0.95515895 0.29609352
vn 0.00018186071 0.9732805 0.22961956
vn -5.2368723E-05 0.97316915 0.23009071
vn -0.00018193183 0.9886452 0.1502685
vn -0 0.95503706 0.29648635
vn -0 0.9549893 0.29664
vn -0 0.95503706 0.29648665
vn 5.2351294E-05 0.97316915 0.23009077
vn 0.00018193762 0.9886452 0.1502685
vn -5.1877527E-05 0.98855793 0.15084137
vn -0.00018309343 0.99609166 0.088325664
vn -0 0.9731222 0.23028938
vn -0 0.97310376 0.23036708
vn -0 0.9731222 0.23028946
vn 5.1877367E-05 0.98855793 0.15084131
vn 0.0001830883 0.99609166 0.088325635
vn -5.2632924E-05 0.9960759 0.088503055
vn -0.00016941034 0.9989618 0.04555658
vn -0 0.98852086 0.15108444
vn -0 0.98850644 0.15117915
vn -0 0.98852086 0.15108436
vn 5.2629843E-05 0.9960759 0.08850301
vn 0.00016941196 0.9989618 0.04555658
vn -0 0.9960692 0.088577904
vn -4.9132017E-05 0.99896526 0.045481298
vn -0 0.99606663 0.088606894
vn -0 0.9960692 0.088577874
vn -3.8409245E-05 0.99935776 0.0358352
vn -0.00013554309 0.99935716 0.035852
vn -0.000110798996 0.99935704 0.035852756
vn -3.079965E-05 0.99935776 0.03583522
vn -0 0.9989666 0.045449853
vn -0 0.999358 0.03582848
vn -0 0.999358 0.03582847
vn -0 0.99896705 0.04543938
vn -0 0.999358 0.035828475
vn -0 0.999358 0.03582846
vn -0 0.9989666 0.04544986
vn -0 0.999358 0.03582847
vn -0 0.999358 0.035828453
vn 4.9133097E-05 0.99896526 0.045481306
vn 3.8414713E-05 0.99935776 0.0358352
vn 3.0808238E-05 0.99935776 0.03583521
vn 0.00013554924 0.99935716 0.035852015
vn 0.00011080668 0.99935704 0.035852764
g ENV_S09_Start_Slide_Slime_MO_0
f 3/3/3 2/2/2 1/1/1
f 2/2/2 4/4/4 1/1/1
f 1/1/1 4/4/4 5/5/5
f 2/2/2 6/6/6 4/4/4
f 4/4/4 7/7/7 5/5/5
f 5/5/5 7/7/7 8/8/8
f 6/6/6 9/9/9 4/4/4
f 4/4/4 9/9/9 7/7/7
f 6/6/6 10/10/10 9/9/9
f 7/7/7 11/11/11 8/8/8
f 12/12/12 8/8/8 11/11/11
f 10/10/10 13/13/13 9/9/9
f 10/10/10 14/14/14 13/13/13
f 9/9/9 15/15/15 7/7/7
f 7/7/7 15/15/15 11/11/11
f 9/9/9 13/13/13 15/15/15
f 16/16/16 12/12/12 11/11/11
f 17/17/17 12/12/12 16/16/16
f 14/14/14 18/18/18 13/13/13
f 14/14/14 19/19/19 18/18/18
f 13/13/13 20/20/20 15/15/15
f 13/13/13 18/18/18 20/20/20
f 15/15/15 21/21/21 11/11/11
f 11/11/11 21/21/21 16/16/16
f 15/15/15 20/20/20 21/21/21
f 22/22/22 17/17/17 16/16/16
f 23/23/23 17/17/17 22/22/22
f 21/21/21 24/24/24 16/16/16
f 16/16/16 24/24/24 22/22/22
f 20/20/20 25/25/25 21/21/21
f 21/21/21 25/25/25 24/24/24
f 18/18/18 26/26/26 20/20/20
f 20/20/20 26/26/26 25/25/25
f 19/19/19 27/27/27 18/18/18
f 18/18/18 27/27/27 26/26/26
f 28/28/28 23/23/23 22/22/22
f 29/29/29 23/23/23 28/28/28
f 24/24/24 30/30/30 22/22/22
f 22/22/22 30/30/30 28/28/28
f 25/25/25 31/31/31 24/24/24
f 24/24/24 31/31/31 30/30/30
f 27/27/27 19/19/19 32/32/32
f 19/19/19 33/33/33 32/32/32
f 27/27/27 32/32/32 34/34/34
f 35/35/35 27/27/27 34/34/34
f 27/27/27 35/35/35 26/26/26
f 35/35/35 34/34/34 36/36/36
f 26/26/26 37/37/37 25/25/25
f 26/26/26 35/35/35 37/37/37
f 25/25/25 37/37/37 31/31/31
f 38/38/38 35/35/35 36/36/36
f 35/35/35 38/38/38 37/37/37
f 36/36/36 39/39/39 38/38/38
f 37/37/37 40/40/40 31/31/31
f 37/37/37 38/38/38 40/40/40
f 39/39/39 41/41/41 38/38/38
f 38/38/38 41/41/41 40/40/40
f 39/39/39 42/42/42 41/41/41
f 31/31/31 40/40/40 43/43/43
f 31/31/31 43/43/43 30/30/30
f 42/42/42 44/44/44 41/41/41
f 42/42/42 45/45/45 44/44/44
f 40/40/40 41/41/41 46/46/46
f 40/40/40 46/46/46 43/43/43
f 41/41/41 44/44/44 46/46/46
f 30/30/30 43/43/43 47/47/47
f 30/30/30 47/47/47 28/28/28
f 45/45/45 48/48/48 44/44/44
f 45/45/45 49/49/49 48/48/48
f 43/43/43 46/46/46 50/50/50
f 43/43/43 50/50/50 47/47/47
f 46/46/46 44/44/44 51/51/51
f 44/44/44 48/48/48 51/51/51
f 46/46/46 51/51/51 50/50/50
f 28/28/28 47/47/47 52/52/52
f 52/52/52 29/29/29 28/28/28
f 53/53/53 29/29/29 52/52/52
f 49/49/49 54/54/54 48/48/48
f 49/49/49 55/55/55 54/54/54
f 47/47/47 50/50/50 56/56/56
f 47/47/47 56/56/56 52/52/52
f 57/57/57 53/53/53 52/52/52
f 52/52/52 56/56/56 57/57/57
f 58/58/58 53/53/53 57/57/57
f 50/50/50 51/51/51 59/59/59
f 50/50/50 59/59/59 56/56/56
f 51/51/51 48/48/48 60/60/60
f 48/48/48 54/54/54 60/60/60
f 51/51/51 60/60/60 59/59/59
f 55/55/55 61/61/61 54/54/54
f 55/55/55 62/62/62 61/61/61
f 63/63/63 58/58/58 57/57/57
f 64/64/64 58/58/58 63/63/63
f 56/56/56 65/65/65 57/57/57
f 56/56/56 59/59/59 65/65/65
f 57/57/57 65/65/65 63/63/63
f 59/59/59 60/60/60 66/66/66
f 59/59/59 66/66/66 65/65/65
f 60/60/60 54/54/54 67/67/67
f 54/54/54 61/61/61 67/67/67
f 60/60/60 67/67/67 66/66/66
f 62/62/62 68/68/68 61/61/61
f 62/62/62 69/69/69 68/68/68
f 70/70/70 64/64/64 63/63/63
f 64/64/64 70/70/70 71/71/71
f 65/65/65 72/72/72 63/63/63
f 65/65/65 66/66/66 72/72/72
f 63/63/63 72/72/72 70/70/70
f 66/66/66 67/67/67 73/73/73
f 66/66/66 73/73/73 72/72/72
f 67/67/67 61/61/61 74/74/74
f 61/61/61 68/68/68 74/74/74
f 67/67/67 74/74/74 73/73/73
f 69/69/69 75/75/75 68/68/68
f 75/75/75 69/69/69 76/76/76
f 70/70/70 77/77/77 71/71/71
f 71/71/71 77/77/77 78/78/78
f 72/72/72 79/79/79 70/70/70
f 72/72/72 73/73/73 79/79/79
f 70/70/70 79/79/79 77/77/77
f 73/73/73 74/74/74 80/80/80
f 73/73/73 80/80/80 79/79/79
f 74/74/74 68/68/68 81/81/81
f 68/68/68 75/75/75 81/81/81
f 74/74/74 81/81/81 80/80/80
f 82/82/82 75/75/75 76/76/76
f 82/82/82 76/76/76 83/83/83
f 77/77/77 84/84/84 78/78/78
f 78/78/78 84/84/84 85/85/85
f 79/79/79 86/86/86 77/77/77
f 79/79/79 80/80/80 86/86/86
f 77/77/77 86/86/86 84/84/84
f 80/80/80 81/81/81 87/87/87
f 80/80/80 87/87/87 86/86/86
f 81/81/81 75/75/75 88/88/88
f 75/75/75 82/82/82 88/88/88
f 81/81/81 88/88/88 87/87/87
f 89/89/89 82/82/82 83/83/83
f 89/89/89 83/83/83 90/90/90
f 84/84/84 91/91/91 85/85/85
f 85/85/85 91/91/91 92/92/92
f 86/86/86 93/93/93 84/84/84
f 86/86/86 87/87/87 93/93/93
f 84/84/84 93/93/93 91/91/91
f 87/87/87 88/88/88 94/94/94
f 87/87/87 94/94/94 93/93/93
f 88/88/88 82/82/82 95/95/95
f 82/82/82 89/89/89 95/95/95
f 88/88/88 95/95/95 94/94/94
f 96/96/96 89/89/89 90/90/90
f 96/96/96 90/90/90 97/97/97
f 91/91/91 98/98/98 92/92/92
f 92/92/92 98/98/98 99/99/99
f 93/93/93 100/100/100 91/91/91
f 93/93/93 94/94/94 100/100/100
f 91/91/91 100/100/100 98/98/98
f 94/94/94 95/95/95 101/101/101
f 94/94/94 101/101/101 100/100/100
f 95/95/95 89/89/89 102/102/102
f 89/89/89 96/96/96 102/102/102
f 95/95/95 102/102/102 101/101/101
f 103/103/103 96/96/96 97/97/97
f 103/103/103 97/97/97 104/104/104
f 98/98/98 105/105/105 99/99/99
f 99/99/99 105/105/105 106/106/106
f 100/100/100 107/107/107 98/98/98
f 100/100/100 101/101/101 107/107/107
f 98/98/98 107/107/107 105/105/105
f 101/101/101 102/102/102 108/108/108
f 101/101/101 108/108/108 107/107/107
f 102/102/102 96/96/96 109/109/109
f 96/96/96 103/103/103 109/109/109
f 102/102/102 109/109/109 108/108/108
f 110/110/110 103/103/103 104/104/104
f 110/110/110 104/104/104 111/111/111
f 105/105/105 112/112/112 106/106/106
f 106/106/106 112/112/112 113/113/113
f 107/107/107 114/114/114 105/105/105
f 107/107/107 108/108/108 114/114/114
f 105/105/105 114/114/114 112/112/112
f 108/108/108 109/109/109 115/115/115
f 108/108/108 115/115/115 114/114/114
f 109/109/109 103/103/103 116/116/116
f 103/103/103 110/110/110 116/116/116
f 109/109/109 116/116/116 115/115/115
f 117/117/117 110/110/110 111/111/111
f 117/117/117 111/111/111 118/118/118
f 112/112/112 119/119/119 113/113/113
f 113/113/113 119/119/119 120/120/120
f 114/114/114 121/121/121 112/112/112
f 114/114/114 115/115/115 121/121/121
f 112/112/112 121/121/121 119/119/119
f 115/115/115 116/116/116 122/122/122
f 115/115/115 122/122/122 121/121/121
f 116/116/116 110/110/110 123/123/123
f 110/110/110 117/117/117 123/123/123
f 116/116/116 123/123/123 122/122/122
f 124/124/124 117/117/117 118/118/118
f 124/124/124 118/118/118 125/125/125
f 121/121/121 126/126/126 119/119/119
f 121/121/121 122/122/122 126/126/126
f 119/119/119 127/127/127 120/120/120
f 119/119/119 126/126/126 127/127/127
f 122/122/122 123/123/123 128/128/128
f 122/122/122 128/128/128 126/126/126
f 123/123/123 117/117/117 129/129/129
f 117/117/117 124/124/124 129/129/129
f 123/123/123 129/129/129 128/128/128
f 120/120/120 127/127/127 130/130/130
f 131/131/131 120/120/120 130/130/130
f 131/131/131 130/130/130 132/132/132
f 130/130/130 133/133/133 132/132/132
f 126/126/126 134/134/134 127/127/127
f 126/126/126 128/128/128 134/134/134
f 127/127/127 134/134/134 130/130/130
f 130/130/130 135/135/135 133/133/133
f 134/134/134 135/135/135 130/130/130
f 135/135/135 136/136/136 133/133/133
f 128/128/128 137/137/137 134/134/134
f 128/128/128 129/129/129 137/137/137
f 134/134/134 137/137/137 135/135/135
f 135/135/135 138/138/138 136/136/136
f 137/137/137 138/138/138 135/135/135
f 138/138/138 139/139/139 136/136/136
f 129/129/129 140/140/140 137/137/137
f 137/137/137 140/140/140 138/138/138
f 129/129/129 124/124/124 140/140/140
f 138/138/138 141/141/141 139/139/139
f 140/140/140 141/141/141 138/138/138
f 141/141/141 142/142/142 139/139/139
f 124/124/124 143/143/143 140/140/140
f 140/140/140 143/143/143 141/141/141
f 143/143/143 124/124/124 125/125/125
f 141/141/141 144/144/144 142/142/142
f 143/143/143 144/144/144 141/141/141
f 143/143/143 125/125/125 144/144/144
f 144/144/144 145/145/145 142/142/142
f 125/125/125 146/146/146 144/144/144
f 145/145/145 144/144/144 147/147/147
f 144/144/144 146/146/146 147/147/147
