g ENV_SY02_Gauntlet_10_Section_C_Sticker_3_MO
v -14.094849 39.467056 1.7231834
v -14.094849 35.81314 1.7225518
v -14.094849 35.81314 -1.8385482
v -14.094849 35.823242 -1.8751694
v -14.094849 35.849762 -1.9023196
v -14.094849 35.886383 -1.9117906
v -14.094849 39.393814 -1.9111592
v -14.094849 39.430435 -1.9016882
v -14.094849 39.456955 -1.8751694
v -14.094849 39.467056 -1.8385482
vt 0.14402366 0.33213362
vt 0.14402366 0.29561508
vt 0.06494392 0.29561508
vt 0.06389302 0.29561508
vt 0.063367575 0.2961405
vt 0.063367575 0.29640323
vt 0.063367575 0.33134544
vt 0.0636303 0.33187088
vt 0.06415574 0.33213362
vt 0.06494392 0.33213362
vn -1 0 -0
vn -1 0 -0
vn -1 0 -0
vn -1 0 -0
vn -1 0 -0
vn -1 0 -0
vn -1 0 -0
vn -1 0 -0
vn -1 0 -0
vn -1 0 -0
g ENV_SY02_Gauntlet_10_Section_C_Sticker_3_MO_0
f 3/3/3 2/2/2 1/1/1
f 1/1/1 4/4/4 3/3/3
f 1/1/1 5/5/5 4/4/4
f 1/1/1 6/6/6 5/5/5
f 1/1/1 7/7/7 6/6/6
f 1/1/1 8/8/8 7/7/7
f 1/1/1 9/9/9 8/8/8
f 1/1/1 10/10/10 9/9/9
