g ENV_SY01_SPEED_GlassBridge_Vinyl_02_MO
v 5.9741683 -0.04088974 -13.326551
v 5.9741683 -0.04088974 -6.738586
v 5.8751225 -0.00020313263 -6.738586
v 5.8751225 -0.00020313263 -13.326551
v 5.8751225 -0.04088974 -13.425597
v 5.955674 -0.059383392 -13.407515
v 0.46337414 -0.04088974 -13.425597
v 0.46337414 -0.00020313263 -13.326551
v 0.46337414 -0.00020313263 -6.738586
v -4.917552 -0.04088974 -13.425597
v -4.917552 -0.00020313263 -13.326551
v -4.917552 -0.00020313263 -6.738586
v -5.016597 -0.04088974 -6.738586
v -5.016597 -0.04088974 -13.326551
v -4.998103 -0.059383392 -13.407515
v 5.9741683 -0.13993454 -13.425597
v 5.9741683 -1.0001106 -13.425597
v 6.014855 -1.0001106 -13.326551
v 6.014855 -0.13993454 -13.326551
v 6.014855 -1.0001106 -6.738586
v 5.9741683 -0.04088974 -13.326551
v 5.955674 -0.059383392 -13.407515
v 5.9741683 -0.04088974 -6.738586
v 6.014855 -0.13993454 -6.738586
v 5.9741683 -0.04088974 -0.15020943
v 6.014855 -0.13993454 -0.15020943
v 6.014855 -1.0001106 -0.15020943
v 6.0185537 -1.0001106 -0.010066032
v 6.0041695 -0.15185356 -0.010066032
v 5.9671817 -0.10828972 -0.010066032
v 5.9741683 -0.13993454 -13.425597
v 5.8751225 -0.04088974 -13.425597
v 5.8751225 -0.13993454 -13.466695
v 5.9741683 -1.0001106 -13.425597
v 5.8751225 -1.0001106 -13.466695
v 0.46337414 -1.0001106 -13.466695
v 0.46337414 -0.13993454 -13.466695
v 0.46337414 -0.04088974 -13.425597
v -4.917552 -0.13993454 -13.466695
v -4.917552 -1.0001106 -13.466695
v -4.917552 -0.04088974 -13.425597
v -5.016597 -0.13993454 -13.425597
v -5.016597 -1.0001106 -13.425597
v -4.998103 -0.059383392 -13.407515
v -5.016597 -0.13993454 -13.425597
v -5.016597 -0.04088974 -13.326551
v -5.0572844 -0.13993454 -13.326551
v -5.016597 -1.0001106 -13.425597
v -5.0572844 -1.0001106 -13.326551
v -5.0572844 -1.0001106 -6.738586
v -5.0572844 -0.13993454 -6.738586
v -5.016597 -0.04088974 -6.738586
v -5.0572844 -1.0001106 -0.15020943
v -5.0572844 -0.13993454 -0.15020943
v -5.016597 -0.04088974 -0.15020943
v -5.053174 -0.15185356 -0.010066032
v -5.0161867 -0.10828972 -0.010066032
v -5.0671473 -1.0001106 -0.010066032
v -5.0572844 -0.13993454 0.12966633
v -5.0572844 -1.0001106 0.12966633
v -5.053174 -0.15185356 -0.010066032
v -5.0572844 -1.0001106 6.7180433
v -5.016597 -0.04088974 0.12966633
v -5.0161867 -0.10828972 -0.010066032
v -5.0572844 -0.13993454 6.7180433
v -5.016597 -0.04088974 6.7180433
v -5.0572844 -0.13993454 13.326556
v -5.0572844 -1.0001106 13.326556
v -5.016597 -0.04088974 13.326556
v -5.016597 -0.13993454 13.425603
v -5.016597 -1.0001106 13.425603
v -4.998103 -0.059383392 13.407519
v -5.016597 -0.04088974 13.326556
v -5.016597 -0.04088974 6.7180433
v -4.917552 -0.00020313263 6.7180433
v -4.917552 -0.00020313263 13.326556
v -4.917552 -0.04088974 13.425603
v -4.998103 -0.059383392 13.407519
v 0.46337414 -0.04088974 13.425603
v 0.46337414 -0.00020313263 13.326556
v 0.46337414 -0.00020313263 6.7180433
v 5.8751225 -0.00020313263 6.7180433
v 5.8751225 -0.04088974 13.425603
v 5.8751225 -0.00020313263 13.326556
v 5.9741683 -0.04088974 6.7180433
v 5.9741683 -0.04088974 13.326556
v 5.955674 -0.059383392 13.407519
v -4.917552 -0.13993454 13.466701
v -4.917552 -1.0001106 13.466701
v -5.016597 -1.0001106 13.425603
v -5.016597 -0.13993454 13.425603
v -4.917552 -0.04088974 13.425603
v -4.998103 -0.059383392 13.407519
v 5.9741683 -0.13993454 13.425603
v 5.9741683 -1.0001106 13.425603
v 5.8751225 -1.0001106 13.466701
v 5.8751225 -0.13993454 13.466701
v 0.46337414 -1.0001106 13.466701
v 5.8751225 -0.04088974 13.425603
v 5.955674 -0.059383392 13.407519
v 0.46337414 -0.04088974 13.425603
v 0.46337414 -0.13993454 13.466701
v -4.917552 -0.04088974 13.425603
v -4.917552 -0.13993454 13.466701
v -4.917552 -1.0001106 13.466701
v 5.9741683 -0.13993454 13.425603
v 5.9741683 -0.04088974 13.326556
v 6.014855 -0.13993454 13.326556
v 5.9741683 -1.0001106 13.425603
v 6.014855 -1.0001106 13.326556
v 6.014855 -1.0001106 6.7180433
v 6.014855 -0.13993454 6.7180433
v 5.9741683 -0.04088974 6.7180433
v 6.014855 -1.0001106 0.12966633
v 6.014855 -0.13993454 0.12966633
v 5.9741683 -0.04088974 0.12966633
v 6.0041695 -0.15185356 -0.010066032
v 6.0185537 -1.0001106 -0.010066032
v 5.9671817 -0.10828972 -0.010066032
v -4.917552 -0.00020313263 -6.738586
v -5.016597 -0.04088974 -0.15020943
v -5.016597 -0.04088974 -6.738586
v -4.917552 -0.00020313263 -0.15020943
v -4.8768644 -0.10705662 -0.010066032
v -5.0161867 -0.10828972 -0.010066032
v 0.46337414 -0.10705662 -0.010066032
v 0.46337414 -0.00020313263 -0.15020943
v 0.46337414 -0.00020313263 -6.738586
v 5.8751225 -0.00020313263 -6.738586
v 5.9453998 -0.10705662 -0.010066032
v 5.8751225 -0.00020313263 -0.15020943
v 5.9741683 -0.04088974 -6.738586
v 5.9741683 -0.04088974 -0.15020943
v 5.9671817 -0.10828972 -0.010066032
v 5.9741683 -0.04088974 0.12966633
v 5.9741683 -0.04088974 6.7180433
v 5.8751225 -0.00020313263 6.7180433
v 5.8751225 -0.00020313263 0.12966633
v 5.9453998 -0.10705662 -0.010066032
v 5.9671817 -0.10828972 -0.010066032
v 0.46337414 -0.10705662 -0.010066032
v 0.46337414 -0.00020313263 0.12966633
v 0.46337414 -0.00020313263 6.7180433
v -4.8768644 -0.10705662 -0.010066032
v -4.917552 -0.00020313263 0.12966633
v -4.917552 -0.00020313263 6.7180433
v -5.016597 -0.04088974 6.7180433
v -5.016597 -0.04088974 0.12966633
v -5.0161867 -0.10828972 -0.010066032
vt 0.48520875 0.5087702
vt 0.13178778 0.5087702
vt 0.13178778 0.51692605
vt 0.48249006 0.51692605
vt 0.49064612 0.51420736
vt 0.49064612 0.5087702
vt 0.49064612 0.7452903
vt 0.48249006 0.7452903
vt 0.13178778 0.7452903
vt 0.49064612 0.9763732
vt 0.48249006 0.97365475
vt 0.13178778 0.97365475
vt 0.13178778 0.98271656
vt 0.48520875 0.98271656
vt 0.49064612 0.98271656
vt 0.79694414 0.57764196
vt 0.99177885 0.5758295
vt 0.99177885 0.56404877
vt 0.79694414 0.56404877
vt 0.9908724 0.0022001266
vt 0.76522684 0.5685799
vt 0.76522684 0.5758295
vt 0.7643206 0.0031063557
vt 0.7960379 0.0031063557
vt 0.7634144 -0.55783606
vt 0.7951317 -0.5587423
vt 0.9890599 -0.5587423
vt 0.9890599 -0.5705228
vt 0.79422545 -0.57596016
vt 0.7634144 -0.5705228
vt 0.79694414 0.57764196
vt 0.76522684 0.5857978
vt 0.79694414 0.59123516
vt 0.99177885 0.5758295
vt 0.99177885 0.59032893
vt 0.99268484 0.9981222
vt 0.7978504 0.9990282
vt 0.76613307 0.9990282
vt 0.7987566 1.4068217
vt 0.9935913 1.4059157
vt 0.7670393 1.4113526
vt 0.7987566 1.4195085
vt 0.9935913 1.4213209
vt 0.7670393 1.4213209
vt 0.7987566 1.4195085
vt 0.7679455 1.4294767
vt 0.7987566 1.4331017
vt 0.9935913 1.4213209
vt 0.9935913 1.4331017
vt 0.9944973 1.9940443
vt 0.80056906 1.9949503
vt 0.76885176 1.9949503
vt 0.99630976 2.555893
vt 0.80147505 2.555893
vt 0.769758 2.555893
vt 0.80147505 2.5731106
vt 0.769758 2.5676732
vt 0.99630976 2.5676732
vt 0.80147505 2.5921412
vt 0.99630976 2.5912347
vt 0.80147505 2.5731106
vt 0.9990282 3.714026
vt 0.769758 2.5921412
vt 0.769758 2.5676732
vt 0.80419374 3.714026
vt 0.77247643 3.714026
vt 0.80509996 4.2758746
vt 0.9999347 4.274968
vt 0.77338266 4.279499
vt 0.7933192 4.287655
vt 0.9999347 4.286749
vt 0.77338266 4.287655
vt 0.02123046 0.98271656
vt 0.37555766 0.98271656
vt 0.37555766 0.97456074
vt 0.023949146 0.97456074
vt 0.016699553 0.9772792
vt 0.016699553 0.98271656
vt 0.016699553 0.7452903
vt 0.023949146 0.7452903
vt 0.37555766 0.7452903
vt 0.37555766 0.51692605
vt 0.015793324 0.51420736
vt 0.023949146 0.51692605
vt 0.37555766 0.5087702
vt 0.02123046 0.5087702
vt 0.015793324 0.5087702
vt 0.7887883 -3.1205904
vt 0.983623 -3.1205904
vt 0.9999347 4.286749
vt 0.77882004 -2.4907765
vt 0.75797725 -3.1251216
vt 0.757071 -3.1350899
vt 0.7906008 -2.2914107
vt 0.9854355 -2.2905045
vt 0.9854355 -2.305004
vt 0.7906008 -2.305004
vt 0.984529 -2.7127972
vt 0.7597897 -2.2995667
vt 0.7597897 -2.2895985
vt 0.7588835 -2.7127972
vt 0.78969455 -2.7127972
vt 0.75797725 -3.1251216
vt 0.7887883 -3.1205904
vt 0.983623 -3.1205904
vt 0.7906008 -2.2914107
vt 0.7597897 -2.2823486
vt 0.7906008 -2.2778177
vt 0.9854355 -2.2905045
vt 0.9854355 -2.2787237
vt 0.9863415 -1.7168753
vt 0.792413 -1.7168753
vt 0.76069593 -1.7168753
vt 0.9890599 -0.5949905
vt 0.7951317 -0.59408426
vt 0.7634144 -0.59408426
vt 0.79422545 -0.57596016
vt 0.9890599 -0.5705228
vt 0.7634144 -0.5705228
vt 0.37555766 0.97365475
vt 0.023949146 0.98271656
vt 0.37555766 0.98271656
vt 0.023949146 0.97365475
vt 0.016699553 0.97456074
vt 0.016699553 0.98271656
vt 0.016699553 0.7452903
vt 0.023949146 0.7452903
vt 0.37555766 0.7452903
vt 0.37555766 0.51692605
vt 0.016699553 0.51692605
vt 0.023949146 0.51692605
vt 0.37555766 0.5087702
vt 0.023949146 0.5087702
vt 0.016699553 0.5087702
vt 0.48249006 0.5087702
vt 0.13178778 0.5087702
vt 0.13178778 0.51692605
vt 0.48249006 0.51692605
vt 0.4897399 0.51692605
vt 0.4897399 0.5087702
vt 0.4897399 0.7452903
vt 0.48249006 0.7452903
vt 0.13178778 0.7452903
vt 0.4897399 0.97456074
vt 0.48249006 0.97365475
vt 0.13178778 0.97456074
vt 0.13178778 0.98271656
vt 0.48249006 0.98271656
vt 0.4897399 0.98271656
vn 0.7071068 0.70710677 -0
vn 0.7071068 0.70710677 -0
vn 0.0039215684 0.99999225 -0.00034526698
vn 0.0039215684 0.99999225 -0.00034526698
vn 0.0039215684 0.70979846 -0.7043939
vn 0.5764662 0.5764661 -0.57911444
vn -0.003921509 0.70979846 -0.7043939
vn -0.003921509 0.99999225 -0.00034526698
vn -0.003921509 0.99999225 -0.00034526698
vn -0.003921509 0.70979846 -0.7043939
vn -0.003921509 0.99999225 -0.00034526698
vn -0.003921509 0.99999225 -0.00034526698
vn -0.70710677 0.70710677 -0
vn -0.70710677 0.70710677 -0
vn -0.5764661 0.5764661 -0.57911456
vn 0.7097985 0.02745068 -0.7038697
vn 0.7097985 0.003921509 -0.70439386
vn 0.9999924 0.003921509 -0
vn 0.9990709 0.043097086 -0
vn 0.9999924 0.003921509 -0
vn 0.7071068 0.70710677 -0
vn 0.5764662 0.5764661 -0.57911444
vn 0.7071068 0.70710677 -0
vn 0.9990709 0.043097086 -0
vn 0.7071068 0.70710677 -0
vn 0.9990709 0.043097086 -0
vn 0.9999924 0.003921509 -0
vn 0.99993086 0.011763803 -0
vn 0.998703 0.05091424 -0
vn 0.66274005 0.670583 0.33330774
vn 0.7097985 0.02745068 -0.7038697
vn 0.0039215684 0.70979846 -0.7043939
vn 0.0039215684 0.043136835 -0.99906147
vn 0.7097985 0.003921509 -0.70439386
vn 0.0039215684 0.003921509 -0.9999846
vn -0.003921509 0.003921509 -0.9999846
vn -0.003921509 0.043136835 -0.99906147
vn -0.003921509 0.70979846 -0.7043939
vn -0.003921509 0.043136835 -0.99906147
vn -0.003921509 0.003921509 -0.9999846
vn -0.003921509 0.70979846 -0.7043939
vn -0.70979846 0.02745068 -0.7038697
vn -0.70979846 0.003921509 -0.7043939
vn -0.5764661 0.5764661 -0.57911456
vn -0.70979846 0.02745068 -0.7038697
vn -0.70710677 0.70710677 -0
vn -0.9990709 0.04309709 -0
vn -0.70979846 0.003921509 -0.7043939
vn -0.99999225 0.003921509 -0.00034492963
vn -0.99999225 0.003921509 -0.00034492963
vn -0.9990709 0.04309709 -0
vn -0.70710677 0.70710677 -0
vn -0.99999225 0.003921509 -0.00034492963
vn -0.9990709 0.04309709 -0
vn -0.7019553 0.70979846 0.058693357
vn -0.9990709 0.04309709 -0
vn -0.4901923 0.76469994 0.4182649
vn -0.99993086 0.011763804 -0
vn -0.9990709 0.04309709 -0
vn -0.99999225 0.003921509 -0.00034492963
vn -0.9990709 0.04309709 -0
vn -0.99999225 0.003921509 -0.00034492963
vn -0.7019553 0.70979846 -0.058693357
vn -0.4901923 0.76469994 -0.4182649
vn -0.9990709 0.04309709 -0
vn -0.70710677 0.70710677 -0
vn -0.9990709 0.04309709 -0
vn -0.99999225 0.003921509 -0.00034492963
vn -0.70710677 0.70710677 -0
vn -0.70979846 0.02745068 0.7038697
vn -0.70979846 0.003921509 0.7043939
vn -0.5764661 0.5764661 0.57911456
vn -0.70710677 0.70710677 -0
vn -0.70710677 0.70710677 -0
vn -0.003921509 0.99999225 -0.00034526698
vn -0.003921509 0.99999225 -0.00034526698
vn -0.003921509 0.70979846 0.7043939
vn -0.5764661 0.5764661 0.57911456
vn -0.003921509 0.70979846 0.7043939
vn -0.003921509 0.99999225 -0.00034526698
vn -0.003921509 0.99999225 -0.00034526698
vn 0.0039215684 0.99999225 -0.00034526698
vn 0.0039215684 0.70979846 0.7043939
vn 0.0039215684 0.99999225 -0.00034526698
vn 0.7071068 0.70710677 -0
vn 0.7071068 0.70710677 -0
vn 0.5764662 0.5764661 0.57911444
vn -0.003921509 0.043136835 0.99906147
vn -0.003921509 0.003921509 0.9999846
vn -0.70979846 0.003921509 0.7043939
vn -0.70979846 0.02745068 0.7038697
vn -0.003921509 0.70979846 0.7043939
vn -0.5764661 0.5764661 0.57911456
vn 0.7097985 0.02745068 0.7038697
vn 0.7097985 0.003921509 0.70439386
vn 0.0039215684 0.003921509 0.9999846
vn 0.0039215684 0.043136835 0.99906147
vn -0.003921509 0.003921509 0.9999846
vn 0.0039215684 0.70979846 0.7043939
vn 0.5764662 0.5764661 0.57911444
vn -0.003921509 0.70979846 0.7043939
vn -0.003921509 0.043136835 0.99906147
vn -0.003921509 0.70979846 0.7043939
vn -0.003921509 0.043136835 0.99906147
vn -0.003921509 0.003921509 0.9999846
vn 0.7097985 0.02745068 0.7038697
vn 0.7071068 0.70710677 -0
vn 0.9990709 0.043097086 -0
vn 0.7097985 0.003921509 0.70439386
vn 0.9999924 0.003921509 -0
vn 0.9999924 0.003921509 -0
vn 0.9990709 0.043097086 -0
vn 0.7071068 0.70710677 -0
vn 0.9999924 0.003921509 -0
vn 0.9990709 0.043097086 -0
vn 0.7071068 0.70710677 -0
vn 0.998703 0.05091424 -0
vn 0.99993086 0.011763803 -0
vn 0.66274005 0.670583 -0.33330774
vn -0.003921509 0.99999225 -0.00034526698
vn -0.7019553 0.70979846 0.058693357
vn -0.70710677 0.70710677 -0
vn -0.003921509 0.99999225 -0.00034526698
vn -0.003921509 0.79607224 0.6051889
vn -0.4901923 0.76469994 0.4182649
vn -0.003921509 0.79607224 0.6051889
vn -0.003921509 0.99999225 -0.00034526698
vn -0.003921509 0.99999225 -0.00034526698
vn 0.0039215684 0.99999225 -0.00034526698
vn 0.0039215684 0.79607224 0.6051889
vn 0.0039215684 0.99999225 -0.00034526698
vn 0.7071068 0.70710677 -0
vn 0.7071068 0.70710677 -0
vn 0.66274005 0.670583 0.33330774
vn 0.7071068 0.70710677 -0
vn 0.7071068 0.70710677 -0
vn 0.0039215684 0.99999225 -0.00034526698
vn 0.0039215684 0.99999225 -0.00034526698
vn 0.0039215684 0.79607224 -0.6051889
vn 0.66274005 0.670583 -0.33330774
vn -0.003921509 0.79607224 -0.6051889
vn -0.003921509 0.99999225 -0.00034526698
vn -0.003921509 0.99999225 -0.00034526698
vn -0.003921509 0.79607224 -0.6051889
vn -0.003921509 0.99999225 -0.00034526698
vn -0.003921509 0.99999225 -0.00034526698
vn -0.70710677 0.70710677 -0
vn -0.7019553 0.70979846 -0.058693357
vn -0.4901923 0.76469994 -0.4182649
g ENV_SY01_SPEED_GlassBridge_Vinyl_02_MO_0
f 3/3/3 2/2/2 1/1/1
f 4/4/4 3/3/3 1/1/1
f 4/4/4 1/1/1 5/5/5
f 1/1/1 6/6/6 5/5/5
f 5/5/5 7/7/7 4/4/4
f 3/3/3 4/4/4 8/8/8
f 7/7/7 8/8/8 4/4/4
f 9/9/9 3/3/3 8/8/8
f 8/8/8 7/7/7 10/10/10
f 9/9/9 8/8/8 11/11/11
f 11/11/11 8/8/8 10/10/10
f 12/12/12 9/9/9 11/11/11
f 13/13/13 12/12/12 11/11/11
f 14/14/14 13/13/13 11/11/11
f 11/11/11 10/10/10 14/14/14
f 10/10/10 15/15/15 14/14/14
f 18/18/18 17/17/17 16/16/16
f 19/19/19 18/18/18 16/16/16
f 20/20/20 18/18/18 19/19/19
f 19/19/19 16/16/16 21/21/21
f 16/16/16 22/22/22 21/21/21
f 21/21/21 23/23/23 19/19/19
f 23/23/23 24/24/24 19/19/19
f 24/24/24 20/20/20 19/19/19
f 23/23/23 25/25/25 24/24/24
f 24/24/24 26/26/26 20/20/20
f 25/25/25 26/26/26 24/24/24
f 26/26/26 27/27/27 20/20/20
f 28/28/28 27/27/27 26/26/26
f 29/29/29 28/28/28 26/26/26
f 26/26/26 25/25/25 29/29/29
f 25/25/25 30/30/30 29/29/29
f 32/32/32 22/22/22 31/31/31
f 33/33/33 32/32/32 31/31/31
f 31/31/31 34/34/34 33/33/33
f 34/34/34 35/35/35 33/33/33
f 33/33/33 35/35/35 36/36/36
f 33/33/33 37/37/37 32/32/32
f 37/37/37 33/33/33 36/36/36
f 37/37/37 38/38/38 32/32/32
f 37/37/37 36/36/36 39/39/39
f 38/38/38 37/37/37 39/39/39
f 36/36/36 40/40/40 39/39/39
f 41/41/41 38/38/38 39/39/39
f 39/39/39 40/40/40 42/42/42
f 39/39/39 42/42/42 41/41/41
f 40/40/40 43/43/43 42/42/42
f 42/42/42 44/44/44 41/41/41
f 46/46/46 44/44/44 45/45/45
f 47/47/47 46/46/46 45/45/45
f 45/45/45 48/48/48 47/47/47
f 48/48/48 49/49/49 47/47/47
f 47/47/47 49/49/49 50/50/50
f 47/47/47 51/51/51 46/46/46
f 51/51/51 47/47/47 50/50/50
f 51/51/51 52/52/52 46/46/46
f 51/51/51 50/50/50 53/53/53
f 51/51/51 54/54/54 52/52/52
f 54/54/54 51/51/51 53/53/53
f 54/54/54 55/55/55 52/52/52
f 54/54/54 53/53/53 56/56/56
f 54/54/54 56/56/56 55/55/55
f 56/56/56 57/57/57 55/55/55
f 53/53/53 58/58/58 56/56/56
f 58/58/58 60/60/60 59/59/59
f 61/61/61 58/58/58 59/59/59
f 60/60/60 62/62/62 59/59/59
f 59/59/59 63/63/63 61/61/61
f 63/63/63 64/64/64 61/61/61
f 59/59/59 65/65/65 63/63/63
f 62/62/62 65/65/65 59/59/59
f 65/65/65 66/66/66 63/63/63
f 65/65/65 62/62/62 67/67/67
f 66/66/66 65/65/65 67/67/67
f 62/62/62 68/68/68 67/67/67
f 69/69/69 66/66/66 67/67/67
f 67/67/67 68/68/68 70/70/70
f 67/67/67 70/70/70 69/69/69
f 68/68/68 71/71/71 70/70/70
f 70/70/70 72/72/72 69/69/69
f 75/75/75 74/74/74 73/73/73
f 76/76/76 75/75/75 73/73/73
f 76/76/76 73/73/73 77/77/77
f 73/73/73 78/78/78 77/77/77
f 77/77/77 79/79/79 76/76/76
f 75/75/75 76/76/76 80/80/80
f 79/79/79 80/80/80 76/76/76
f 81/81/81 75/75/75 80/80/80
f 81/81/81 80/80/80 82/82/82
f 79/79/79 83/83/83 80/80/80
f 80/80/80 84/84/84 82/82/82
f 83/83/83 84/84/84 80/80/80
f 85/85/85 82/82/82 84/84/84
f 86/86/86 85/85/85 84/84/84
f 84/84/84 83/83/83 86/86/86
f 83/83/83 87/87/87 86/86/86
f 90/90/90 89/89/89 88/88/88
f 91/91/91 90/90/90 88/88/88
f 88/88/88 92/92/92 91/91/91
f 92/92/92 93/93/93 91/91/91
f 96/96/96 95/95/95 94/94/94
f 97/97/97 96/96/96 94/94/94
f 98/98/98 96/96/96 97/97/97
f 97/97/97 94/94/94 99/99/99
f 94/94/94 100/100/100 99/99/99
f 97/97/97 99/99/99 101/101/101
f 102/102/102 97/97/97 101/101/101
f 102/102/102 98/98/98 97/97/97
f 102/102/102 101/101/101 103/103/103
f 104/104/104 102/102/102 103/103/103
f 102/102/102 104/104/104 98/98/98
f 104/104/104 105/105/105 98/98/98
f 107/107/107 100/100/100 106/106/106
f 108/108/108 107/107/107 106/106/106
f 106/106/106 109/109/109 108/108/108
f 109/109/109 110/110/110 108/108/108
f 108/108/108 110/110/110 111/111/111
f 108/108/108 112/112/112 107/107/107
f 112/112/112 108/108/108 111/111/111
f 112/112/112 113/113/113 107/107/107
f 111/111/111 114/114/114 112/112/112
f 113/113/113 112/112/112 115/115/115
f 114/114/114 115/115/115 112/112/112
f 116/116/116 113/113/113 115/115/115
f 115/115/115 114/114/114 117/117/117
f 115/115/115 117/117/117 116/116/116
f 114/114/114 118/118/118 117/117/117
f 117/117/117 119/119/119 116/116/116
f 122/122/122 121/121/121 120/120/120
f 121/121/121 123/123/123 120/120/120
f 123/123/123 121/121/121 124/124/124
f 121/121/121 125/125/125 124/124/124
f 124/124/124 126/126/126 123/123/123
f 120/120/120 123/123/123 127/127/127
f 126/126/126 127/127/127 123/123/123
f 128/128/128 120/120/120 127/127/127
f 128/128/128 127/127/127 129/129/129
f 127/127/127 126/126/126 130/130/130
f 127/127/127 131/131/131 129/129/129
f 131/131/131 127/127/127 130/130/130
f 129/129/129 131/131/131 132/132/132
f 131/131/131 133/133/133 132/132/132
f 131/131/131 130/130/130 133/133/133
f 130/130/130 134/134/134 133/133/133
f 137/137/137 136/136/136 135/135/135
f 138/138/138 137/137/137 135/135/135
f 138/138/138 135/135/135 139/139/139
f 135/135/135 140/140/140 139/139/139
f 139/139/139 141/141/141 138/138/138
f 137/137/137 138/138/138 142/142/142
f 141/141/141 142/142/142 138/138/138
f 143/143/143 137/137/137 142/142/142
f 142/142/142 141/141/141 144/144/144
f 143/143/143 142/142/142 145/145/145
f 145/145/145 142/142/142 144/144/144
f 146/146/146 143/143/143 145/145/145
f 147/147/147 146/146/146 145/145/145
f 148/148/148 147/147/147 145/145/145
f 145/145/145 144/144/144 148/148/148
f 144/144/144 149/149/149 148/148/148
