g ENV_SY02_HW_Scaffolding_Tube03_MO
v 156.82034 -109.68732 73.29083
v -174.66046 -73.264465 109.658875
v 156.82034 -73.3056 109.68628
v -174.66046 -109.64618 73.26343
v 156.82034 -129.3935 25.74643
v -174.66046 -129.33865 25.718994
v 156.82034 -129.3935 -25.720032
v -174.66046 -129.33865 -25.747467
v 156.83408 -109.68732 -73.264465
v -174.64673 -109.64618 -73.2919
v 156.84778 -73.3056 -109.65988
v -174.64673 -73.264465 -109.68732
v 156.84778 -25.747467 -129.35236
v -174.63306 -25.70633 -129.37979
v 156.86148 25.705292 -129.35236
v -174.63306 25.760132 -129.37979
v 156.86148 73.26343 -109.65988
v -174.61932 73.304565 -109.68732
v 156.86148 109.64514 -73.264465
v -174.61932 109.68628 -73.2919
v 156.86148 129.35132 -25.720032
v -174.61932 129.39246 -25.747467
v 156.84778 129.35132 25.74643
v -174.63306 129.39246 25.718994
v 156.84778 109.64514 73.29083
v -174.63306 109.68628 73.26343
v 156.83408 73.26343 109.68628
v -174.64673 73.304565 109.658875
v 156.83408 25.705292 129.37872
v -174.66046 25.760132 129.35132
v 156.82034 -25.747467 129.37872
v -174.66046 -25.70633 129.35132
v 156.82034 -73.3056 109.68628
v -174.66046 -73.264465 109.658875
v 440.46875 -88.11612 -58.76938
v -458.2403 -88.02011 -58.892822
v -458.2403 -103.8454 -20.71466
v 440.46875 -103.92767 -20.591217
v -458.2403 -103.8454 20.603882
v 440.46875 -103.92767 20.727325
v -458.2403 -88.04755 58.782043
v 440.46875 -88.12982 58.905487
v -458.2403 -58.82425 88.00537
v 440.46875 -58.906525 88.128784
v -458.2403 -20.65979 103.816956
v 440.46875 -20.742065 103.94037
v -458.2403 20.658752 103.83063
v 440.46875 20.576477 103.95404
v -458.2403 58.836914 88.01904
v 440.46875 58.75464 88.14252
v -458.2403 88.06018 58.80948
v 440.46875 87.977905 58.93289
v -458.2403 103.8855 20.631317
v 440.46875 103.80322 20.75473
v -458.2403 103.8855 -20.687225
v 440.46875 103.80322 -20.563812
v -458.2403 88.07391 -58.865387
v 440.46875 87.99164 -58.741974
v -458.2403 58.86435 -88.088684
v 440.46875 58.782043 -87.96527
v -458.2403 20.686157 -103.90027
v 440.46875 20.603882 -103.776825
v -458.2403 -20.632355 -103.91397
v 440.46875 -20.71466 -103.79056
v -458.2403 -58.810516 -88.10239
v 440.46875 -58.892822 -87.97897
v -458.2403 -88.02011 -58.892822
v 440.46875 -88.11612 -58.76938
v -188.9773 24.1008 121.041016
v -188.9773 68.60086 102.61017
v -174.64673 73.304565 109.658875
v -174.66046 25.760132 129.35132
v -174.63306 109.68628 73.26343
v -188.99097 -24.06073 121.041016
v -174.66046 -25.70633 129.35132
v -188.96356 102.651306 68.55972
v -174.63306 129.39246 25.718994
v -188.99097 -68.54706 102.61017
v -174.66046 -73.264465 109.658875
v -188.96356 121.08215 24.059662
v -174.61932 129.39246 -25.747467
v -188.99097 -102.59747 68.55972
v -174.66046 -109.64618 73.26343
v -188.94983 121.08215 -24.101868
v -174.61932 109.68628 -73.2919
v -188.99097 -121.02832 24.059662
v -174.66046 -129.33865 25.718994
v -188.94983 102.651306 -68.588196
v -174.61932 73.304565 -109.68732
v -188.99097 -121.02832 -24.101868
v -174.66046 -129.33865 -25.747467
v -188.94983 68.60086 -102.65234
v -174.63306 25.760132 -129.37979
v -188.9773 -102.59747 -68.588196
v -174.64673 -109.64618 -73.2919
v -188.96356 24.1008 -121.08316
v -174.63306 -25.70633 -129.37979
v -188.9773 -68.54706 -102.65234
v -174.64673 -73.264465 -109.68732
v -188.96356 -24.06073 -121.08316
v -197.2876 -106.697784 -21.249481
v -197.2876 -90.46112 -60.48358
v -197.2876 0.020050049 -0.021087646
v -197.30133 -106.697784 21.207275
v -197.27386 -60.42871 -90.50226
v -197.30133 -90.46112 60.441376
v -197.27386 -21.208344 -106.752655
v -197.30133 -60.42871 90.46008
v -197.27386 21.248413 -106.752655
v -197.30133 -21.208344 106.71045
v -197.2602 60.482513 -90.50226
v -197.2876 21.248413 106.71045
v -197.2602 90.50122 -60.48358
v -197.2876 60.482513 90.46008
v -197.2602 106.75159 -21.249481
v -197.27386 90.50122 60.441376
v -197.27386 106.75159 21.207275
v 171.15088 24.059662 121.08215
v 156.83408 25.705292 129.37872
v 156.83408 73.26343 109.68628
v 171.15088 -24.101868 121.08215
v 156.82034 -25.747467 129.37872
v 171.16458 68.54602 102.651306
v 156.84778 109.64514 73.29083
v 171.15088 -68.60193 102.651306
v 156.82034 -73.3056 109.68628
v 171.17831 102.61017 68.58716
v 156.84778 129.35132 25.74643
v 171.15088 -102.65234 68.58716
v 156.82034 -109.68732 73.29083
v 171.17831 121.02728 24.1008
v 156.86148 129.35132 -25.720032
v 171.15088 -121.08316 24.1008
v 156.82034 -129.3935 25.74643
v 171.17831 121.041016 -24.06073
v 156.86148 109.64514 -73.264465
v 171.15088 -121.08316 -24.06073
v 156.82034 -129.3935 -25.720032
v 171.19202 102.61017 -68.56076
v 156.86148 73.26343 -109.65988
v 171.16458 -102.65234 -68.56076
v 156.83408 -109.68732 -73.264465
v 171.19202 68.54602 -102.611206
v 156.86148 25.705292 -129.35236
v 171.16458 -68.60193 -102.611206
v 156.84778 -73.3056 -109.65988
v 171.17831 24.059662 -121.04202
v 156.84778 -25.747467 -129.35236
v 171.17831 -24.101868 -121.04202
v 179.48865 106.71045 -21.208344
v 179.48865 90.46008 -60.442413
v 179.47491 -0.021087646 0.020050049
v 179.48865 106.71045 21.248413
v 179.48865 60.427673 -90.46112
v 179.47491 90.46008 60.482513
v 179.48865 21.207275 -106.71152
v 179.47491 60.427673 90.50122
v 179.48865 -21.249481 -106.71152
v 179.46121 21.207275 106.75159
v 179.47491 -60.48358 -90.46112
v 179.46121 -21.249481 106.75159
v 179.47491 -90.50226 -60.442413
v 179.46121 -60.48358 90.50122
v 179.46121 -106.752655 -21.208344
v 179.46121 -90.50226 60.482513
v 179.46121 -106.752655 21.248413
vt 0.007692715 0.0057961154
vt 0.007692715 0.0057961154
vt 0.007692715 0.0057961154
vt 0.007692715 0.0057961154
vt 0.007692715 0.006744415
vt 0.007692715 0.006744415
vt 0.007692715 0.006744415
vt 0.007692715 0.006744415
vt 0.007692715 0.006744415
vt 0.007692715 0.006744415
vt 0.007692715 0.007692715
vt 0.007692715 0.007692715
vt 0.007692715 0.007692715
vt 0.007692715 0.007692715
vt 0.007692715 0.007692715
vt 0.007692715 0.007692715
vt 0.007692715 0.008641015
vt 0.007692715 0.008641015
vt 0.007692715 0.008641015
vt 0.007692715 0.008641015
vt 0.007692715 0.008641015
vt 0.007692715 0.008641015
vt 0.007692715 0.008641015
vt 0.007692715 0.008641015
vt 0.007692715 0.009589314
vt 0.007692715 0.009589314
vt 0.007692715 0.009589314
vt 0.007692715 0.009589314
vt 0.007692715 0.009589314
vt 0.007692715 0.009589314
vt 0.007692715 0.010537615
vt 0.007692715 0.010537615
vt 0.007692715 0.010537615
vt 0.007692715 0.010537615
vt 0.010537615 0.0057961154
vt 0.0048478153 0.0057961154
vt 0.0048478153 0.006744415
vt 0.010537615 0.006744415
vt 0.0048478153 0.006744415
vt 0.010537615 0.006744415
vt 0.0048478153 0.006744415
vt 0.010537615 0.006744415
vt 0.0048478153 0.006744415
vt 0.010537615 0.006744415
vt 0.0048478153 0.007692715
vt 0.010537615 0.007692715
vt 0.0048478153 0.007692715
vt 0.010537615 0.007692715
vt 0.0048478153 0.007692715
vt 0.010537615 0.007692715
vt 0.0048478153 0.008641015
vt 0.010537615 0.008641015
vt 0.0048478153 0.008641015
vt 0.010537615 0.008641015
vt 0.0048478153 0.008641015
vt 0.010537615 0.008641015
vt 0.0048478153 0.008641015
vt 0.010537615 0.008641015
vt 0.0048478153 0.009589314
vt 0.010537615 0.009589314
vt 0.0048478153 0.009589314
vt 0.010537615 0.009589314
vt 0.0048478153 0.009589314
vt 0.010537615 0.009589314
vt 0.0048478153 0.009589314
vt 0.010537615 0.009589314
vt 0.0048478153 0.010537615
vt 0.010537615 0.010537615
vt 0.008641015 0.007692715
vt 0.008641015 0.007692715
vt 0.008641015 0.007692715
vt 0.008641015 0.007692715
vt 0.008641015 0.008641015
vt 0.007692715 0.007692715
vt 0.007692715 0.007692715
vt 0.008641015 0.008641015
vt 0.008641015 0.008641015
vt 0.007692715 0.007692715
vt 0.007692715 0.007692715
vt 0.008641015 0.008641015
vt 0.008641015 0.008641015
vt 0.007692715 0.007692715
vt 0.007692715 0.007692715
vt 0.007692715 0.008641015
vt 0.007692715 0.008641015
vt 0.006744415 0.007692715
vt 0.006744415 0.007692715
vt 0.007692715 0.008641015
vt 0.007692715 0.008641015
vt 0.006744415 0.007692715
vt 0.006744415 0.007692715
vt 0.007692715 0.008641015
vt 0.007692715 0.008641015
vt 0.006744415 0.007692715
vt 0.006744415 0.007692715
vt 0.007692715 0.008641015
vt 0.006744415 0.008641015
vt 0.006744415 0.008641015
vt 0.006744415 0.008641015
vt 0.006744415 0.008641015
vt 0.006744415 0.007692715
vt 0.006744415 0.007692715
vt 0.007692715 0.008641015
vt 0.007692715 0.007692715
vt 0.006744415 0.008641015
vt 0.007692715 0.007692715
vt 0.006744415 0.008641015
vt 0.007692715 0.007692715
vt 0.007692715 0.008641015
vt 0.007692715 0.007692715
vt 0.007692715 0.008641015
vt 0.007692715 0.007692715
vt 0.007692715 0.008641015
vt 0.008641015 0.007692715
vt 0.007692715 0.008641015
vt 0.008641015 0.008641015
vt 0.008641015 0.008641015
vt 0.008641015 0.007692715
vt 0.008641015 0.007692715
vt 0.008641015 0.007692715
vt 0.007692715 0.007692715
vt 0.007692715 0.007692715
vt 0.008641015 0.007692715
vt 0.008641015 0.008641015
vt 0.007692715 0.007692715
vt 0.007692715 0.007692715
vt 0.008641015 0.008641015
vt 0.008641015 0.008641015
vt 0.007692715 0.007692715
vt 0.007692715 0.007692715
vt 0.008641015 0.008641015
vt 0.008641015 0.008641015
vt 0.006744415 0.007692715
vt 0.006744415 0.007692715
vt 0.007692715 0.008641015
vt 0.007692715 0.008641015
vt 0.006744415 0.007692715
vt 0.006744415 0.007692715
vt 0.007692715 0.008641015
vt 0.007692715 0.008641015
vt 0.006744415 0.007692715
vt 0.006744415 0.007692715
vt 0.007692715 0.008641015
vt 0.007692715 0.008641015
vt 0.006744415 0.008641015
vt 0.006744415 0.008641015
vt 0.007692715 0.008641015
vt 0.006744415 0.008641015
vt 0.006744415 0.008641015
vt 0.007692715 0.008641015
vt 0.007692715 0.008641015
vt 0.007692715 0.008641015
vt 0.008641015 0.008641015
vt 0.007692715 0.008641015
vt 0.008641015 0.008641015
vt 0.007692715 0.008641015
vt 0.008641015 0.007692715
vt 0.006744415 0.008641015
vt 0.007692715 0.007692715
vt 0.006744415 0.008641015
vt 0.007692715 0.007692715
vt 0.006744415 0.007692715
vt 0.007692715 0.007692715
vt 0.006744415 0.007692715
vt 0.007692715 0.007692715
vt 0.007692715 0.007692715
vn 0.043136954 -0.8274447 0.55988795
vn -0.043136835 -0.552937 0.8321057
vn 0.043136954 -0.552937 0.8321057
vn -0.043136835 -0.8274447 0.55988795
vn 0.043136954 -0.97646314 0.21132666
vn -0.043136835 -0.97646314 0.21132666
vn 0.043136954 -0.97646314 -0.21132666
vn -0.043136835 -0.97646314 -0.21132666
vn 0.043136954 -0.8274447 -0.55988795
vn -0.043136835 -0.8274447 -0.55988795
vn 0.043136954 -0.552937 -0.8321057
vn -0.043136835 -0.552937 -0.8321057
vn 0.043136954 -0.19215542 -0.980416
vn -0.043136835 -0.19215542 -0.980416
vn 0.043136954 0.19215536 -0.980416
vn -0.043136835 0.19215536 -0.980416
vn 0.043136954 0.5529369 -0.83210576
vn -0.043136835 0.5529369 -0.83210576
vn 0.043136954 0.82744455 -0.5598881
vn -0.043136835 0.82744455 -0.5598881
vn 0.043136954 0.9764631 -0.21132694
vn -0.043136835 0.9764631 -0.21132694
vn 0.043136954 0.9764631 0.21132694
vn -0.043136835 0.9764631 0.21132694
vn 0.043136954 0.82744455 0.5598881
vn -0.043136835 0.82744455 0.5598881
vn 0.043136954 0.5529369 0.83210576
vn -0.043136835 0.5529369 0.83210576
vn 0.043136954 0.19215536 0.980416
vn -0.043136835 0.19215536 0.980416
vn 0.043136954 -0.19215542 0.980416
vn -0.043136835 -0.19215542 0.980416
vn 0.043136954 -0.552937 0.8321057
vn -0.043136835 -0.552937 0.8321057
vn -0.003921509 -0.6470539 -0.7624342
vn -0.003921509 -0.6470539 -0.7624342
vn -0.003921509 -0.8901893 -0.455574
vn -0.003921509 -0.8901893 -0.455574
vn -0.003921509 -0.9999924 -0
vn -0.003921509 -0.9999924 -0
vn -0.003921509 -0.9529339 0.30315277
vn -0.003921509 -0.9529339 0.30315277
vn -0.003921509 -0.76470006 0.6443745
vn -0.003921509 -0.76470006 0.6443745
vn -0.003921509 -0.45882004 0.88852054
vn -0.003921509 -0.45882004 0.88852054
vn -0.003921509 -0.08235234 0.99659556
vn -0.003921509 -0.08235234 0.99659556
vn -0.003921509 0.30195844 0.95331305
vn -0.003921509 0.30195844 0.95331305
vn -0.003921509 0.64705384 0.76243424
vn -0.003921509 0.64705384 0.76243424
vn 0.0039215684 0.8901892 0.45557418
vn 0.0039215684 0.8901892 0.45557418
vn 0.0039215684 0.99999225 -0.00034526698
vn 0.0039215684 0.99999225 -0.00034526698
vn 0.0039215684 0.9529338 -0.30315316
vn 0.0039215684 0.9529338 -0.30315316
vn 0.0039215684 0.76469994 -0.6443746
vn 0.0039215684 0.76469994 -0.6443746
vn 0.0039215684 0.45882 -0.8885206
vn 0.0039215684 0.45882 -0.8885206
vn 0.0039215684 0.08235228 -0.99659556
vn 0.0039215684 0.08235228 -0.99659556
vn 0.0039215684 -0.3019585 -0.953313
vn 0.0039215684 -0.3019585 -0.953313
vn -0.003921509 -0.6470539 -0.7624342
vn -0.003921509 -0.6470539 -0.7624342
vn -0.68626916 0.1450969 0.7127282
vn -0.68626916 0.4039184 0.6048839
vn -0.043136835 0.5529369 0.83210576
vn -0.043136835 0.19215536 0.980416
vn -0.043136835 0.82744455 0.5598881
vn -0.68626916 -0.14509696 0.7127282
vn -0.043136835 -0.19215542 0.980416
vn -0.68626916 0.5999954 0.41114494
vn -0.043136835 0.9764631 0.21132694
vn -0.68626916 -0.4039185 0.60488385
vn -0.043136835 -0.552937 0.8321057
vn -0.68626916 0.70979846 0.15881042
vn -0.043136835 0.9764631 -0.21132694
vn -0.68626916 -0.59999543 0.41114485
vn -0.043136835 -0.8274447 0.55988795
vn -0.68626916 0.70979846 -0.15881042
vn -0.043136835 0.82744455 -0.5598881
vn -0.68626916 -0.7097985 0.15881024
vn -0.043136835 -0.97646314 0.21132666
vn -0.68626916 0.5999954 -0.41114494
vn -0.043136835 0.5529369 -0.83210576
vn -0.68626916 -0.7097985 -0.15881024
vn -0.043136835 -0.97646314 -0.21132666
vn -0.68626916 0.4039184 -0.6048839
vn -0.043136835 0.19215536 -0.980416
vn -0.68626916 -0.59999543 -0.41114485
vn -0.043136835 -0.8274447 -0.55988795
vn -0.68626916 0.1450969 -0.7127282
vn -0.043136835 -0.19215542 -0.980416
vn -0.68626916 -0.4039185 -0.60488385
vn -0.043136835 -0.552937 -0.8321057
vn -0.68626916 -0.14509696 -0.7127282
vn -0.9894747 -0.14470582 -0
vn -0.99214923 -0.121567726 -0.029346028
vn -0.99999225 0.003921509 -0.00034492963
vn -0.9894747 -0.14470582 -0
vn -0.99214923 -0.08235234 -0.09411691
vn -0.99214923 -0.121567726 0.029346028
vn -0.99214923 -0.0274508 -0.12200965
vn -0.99214923 -0.08235234 0.09411691
vn -0.99214923 0.02745068 -0.12200968
vn -0.99214923 -0.0274508 0.12200965
vn -0.99214923 0.08235228 -0.09411696
vn -0.99214923 0.02745068 0.12200968
vn -0.99214923 0.12156761 -0.02934652
vn -0.99214923 0.08235228 0.09411696
vn -0.9894747 0.14470576 -0
vn -0.99214923 0.12156761 0.02934652
vn -0.9894747 0.14470576 -0
vn 0.6862693 0.1450969 0.7127281
vn 0.043136954 0.19215536 0.980416
vn 0.043136954 0.5529369 0.83210576
vn 0.6862693 -0.14509696 0.7127281
vn 0.043136954 -0.19215542 0.980416
vn 0.6862693 0.4039184 0.6048838
vn 0.043136954 0.82744455 0.5598881
vn 0.6862693 -0.4039185 0.60488373
vn 0.043136954 -0.552937 0.8321057
vn 0.6862693 0.5999954 0.41114482
vn 0.043136954 0.9764631 0.21132694
vn 0.6862693 -0.59999543 0.4111447
vn 0.043136954 -0.8274447 0.55988795
vn 0.6862693 0.70979846 0.15881005
vn 0.043136954 0.9764631 -0.21132694
vn 0.6862693 -0.7097985 0.15880987
vn 0.043136954 -0.97646314 0.21132666
vn 0.6862693 0.70979846 -0.15881005
vn 0.043136954 0.82744455 -0.5598881
vn 0.6862693 -0.7097985 -0.15880987
vn 0.043136954 -0.97646314 -0.21132666
vn 0.6862693 0.5999954 -0.41114482
vn 0.043136954 0.5529369 -0.83210576
vn 0.6862693 -0.59999543 -0.4111447
vn 0.043136954 -0.8274447 -0.55988795
vn 0.6862693 0.4039184 -0.6048838
vn 0.043136954 0.19215536 -0.980416
vn 0.6862693 -0.4039185 -0.60488373
vn 0.043136954 -0.552937 -0.8321057
vn 0.6862693 0.1450969 -0.7127281
vn 0.043136954 -0.19215542 -0.980416
vn 0.6862693 -0.14509696 -0.7127281
vn 0.9894748 0.14470576 -0
vn 0.9921493 0.12156761 -0.029344488
vn 0.9999924 -0.0039215684 -0
vn 0.9894748 0.14470576 -0
vn 0.9921493 0.08235228 -0.09411633
vn 0.9921493 0.12156761 0.029344488
vn 0.9921493 0.02745068 -0.12200919
vn 0.9921493 0.08235228 0.09411633
vn 0.9921493 -0.0274508 -0.122009166
vn 0.9921493 0.02745068 0.12200919
vn 0.9921493 -0.08235234 -0.09411628
vn 0.9921493 -0.0274508 0.122009166
vn 0.9921493 -0.121567726 -0.029343996
vn 0.9921493 -0.08235234 0.09411628
vn 0.9894748 -0.14470582 -0
vn 0.9921493 -0.121567726 0.029343996
vn 0.9894748 -0.14470582 -0
g ENV_SY02_HW_Scaffolding_Tube03_MO_0
f 3/3/3 2/2/2 1/1/1
f 2/2/2 4/4/4 1/1/1
f 1/1/1 4/4/4 5/5/5
f 4/4/4 6/6/6 5/5/5
f 5/5/5 6/6/6 7/7/7
f 6/6/6 8/8/8 7/7/7
f 7/7/7 8/8/8 9/9/9
f 8/8/8 10/10/10 9/9/9
f 9/9/9 10/10/10 11/11/11
f 10/10/10 12/12/12 11/11/11
f 11/11/11 12/12/12 13/13/13
f 12/12/12 14/14/14 13/13/13
f 13/13/13 14/14/14 15/15/15
f 14/14/14 16/16/16 15/15/15
f 15/15/15 16/16/16 17/17/17
f 16/16/16 18/18/18 17/17/17
f 17/17/17 18/18/18 19/19/19
f 18/18/18 20/20/20 19/19/19
f 19/19/19 20/20/20 21/21/21
f 20/20/20 22/22/22 21/21/21
f 21/21/21 22/22/22 23/23/23
f 22/22/22 24/24/24 23/23/23
f 23/23/23 24/24/24 25/25/25
f 24/24/24 26/26/26 25/25/25
f 25/25/25 26/26/26 27/27/27
f 26/26/26 28/28/28 27/27/27
f 27/27/27 28/28/28 29/29/29
f 28/28/28 30/30/30 29/29/29
f 29/29/29 30/30/30 31/31/31
f 30/30/30 32/32/32 31/31/31
f 31/31/31 32/32/32 33/33/33
f 32/32/32 34/34/34 33/33/33
f 37/37/37 36/36/36 35/35/35
f 38/38/38 37/37/37 35/35/35
f 39/39/39 37/37/37 38/38/38
f 40/40/40 39/39/39 38/38/38
f 41/41/41 39/39/39 40/40/40
f 42/42/42 41/41/41 40/40/40
f 43/43/43 41/41/41 42/42/42
f 44/44/44 43/43/43 42/42/42
f 45/45/45 43/43/43 44/44/44
f 46/46/46 45/45/45 44/44/44
f 47/47/47 45/45/45 46/46/46
f 48/48/48 47/47/47 46/46/46
f 49/49/49 47/47/47 48/48/48
f 50/50/50 49/49/49 48/48/48
f 51/51/51 49/49/49 50/50/50
f 52/52/52 51/51/51 50/50/50
f 53/53/53 51/51/51 52/52/52
f 54/54/54 53/53/53 52/52/52
f 55/55/55 53/53/53 54/54/54
f 56/56/56 55/55/55 54/54/54
f 57/57/57 55/55/55 56/56/56
f 58/58/58 57/57/57 56/56/56
f 59/59/59 57/57/57 58/58/58
f 60/60/60 59/59/59 58/58/58
f 61/61/61 59/59/59 60/60/60
f 62/62/62 61/61/61 60/60/60
f 63/63/63 61/61/61 62/62/62
f 64/64/64 63/63/63 62/62/62
f 65/65/65 63/63/63 64/64/64
f 66/66/66 65/65/65 64/64/64
f 67/67/67 65/65/65 66/66/66
f 68/68/68 67/67/67 66/66/66
f 71/71/71 70/70/70 69/69/69
f 72/72/72 71/71/71 69/69/69
f 71/71/71 73/73/73 70/70/70
f 72/72/72 69/69/69 74/74/74
f 75/75/75 72/72/72 74/74/74
f 73/73/73 76/76/76 70/70/70
f 76/76/76 73/73/73 77/77/77
f 75/75/75 74/74/74 78/78/78
f 79/79/79 75/75/75 78/78/78
f 80/80/80 76/76/76 77/77/77
f 77/77/77 81/81/81 80/80/80
f 79/79/79 78/78/78 82/82/82
f 83/83/83 79/79/79 82/82/82
f 81/81/81 84/84/84 80/80/80
f 81/81/81 85/85/85 84/84/84
f 83/83/83 82/82/82 86/86/86
f 87/87/87 83/83/83 86/86/86
f 85/85/85 88/88/88 84/84/84
f 85/85/85 89/89/89 88/88/88
f 87/87/87 86/86/86 90/90/90
f 91/91/91 87/87/87 90/90/90
f 89/89/89 92/92/92 88/88/88
f 89/89/89 93/93/93 92/92/92
f 91/91/91 90/90/90 94/94/94
f 95/95/95 91/91/91 94/94/94
f 93/93/93 96/96/96 92/92/92
f 93/93/93 97/97/97 96/96/96
f 95/95/95 94/94/94 98/98/98
f 99/99/99 95/95/95 98/98/98
f 97/97/97 99/99/99 100/100/100
f 97/97/97 100/100/100 96/96/96
f 99/99/99 98/98/98 100/100/100
f 90/90/90 86/86/86 101/101/101
f 94/94/94 90/90/90 102/102/102
f 90/90/90 101/101/101 102/102/102
f 101/101/101 103/103/103 102/102/102
f 86/86/86 104/104/104 101/101/101
f 104/104/104 103/103/103 101/101/101
f 86/86/86 82/82/82 104/104/104
f 94/94/94 102/102/102 105/105/105
f 98/98/98 94/94/94 105/105/105
f 102/102/102 103/103/103 105/105/105
f 82/82/82 106/106/106 104/104/104
f 106/106/106 103/103/103 104/104/104
f 82/82/82 78/78/78 106/106/106
f 98/98/98 105/105/105 107/107/107
f 100/100/100 98/98/98 107/107/107
f 105/105/105 103/103/103 107/107/107
f 78/78/78 108/108/108 106/106/106
f 108/108/108 103/103/103 106/106/106
f 78/78/78 74/74/74 108/108/108
f 100/100/100 107/107/107 109/109/109
f 107/107/107 103/103/103 109/109/109
f 110/110/110 103/103/103 108/108/108
f 74/74/74 110/110/110 108/108/108
f 109/109/109 103/103/103 111/111/111
f 96/96/96 100/100/100 109/109/109
f 96/96/96 109/109/109 111/111/111
f 74/74/74 69/69/69 110/110/110
f 92/92/92 96/96/96 111/111/111
f 69/69/69 112/112/112 110/110/110
f 112/112/112 103/103/103 110/110/110
f 69/69/69 70/70/70 112/112/112
f 92/92/92 111/111/111 113/113/113
f 111/111/111 103/103/103 113/113/113
f 88/88/88 92/92/92 113/113/113
f 70/70/70 114/114/114 112/112/112
f 114/114/114 103/103/103 112/112/112
f 70/70/70 76/76/76 114/114/114
f 88/88/88 113/113/113 115/115/115
f 113/113/113 103/103/103 115/115/115
f 84/84/84 88/88/88 115/115/115
f 76/76/76 116/116/116 114/114/114
f 116/116/116 103/103/103 114/114/114
f 116/116/116 76/76/76 80/80/80
f 115/115/115 103/103/103 117/117/117
f 84/84/84 115/115/115 117/117/117
f 80/80/80 84/84/84 117/117/117
f 117/117/117 103/103/103 116/116/116
f 117/117/117 116/116/116 80/80/80
f 120/120/120 119/119/119 118/118/118
f 118/118/118 119/119/119 121/121/121
f 119/119/119 122/122/122 121/121/121
f 123/123/123 120/120/120 118/118/118
f 124/124/124 120/120/120 123/123/123
f 121/121/121 122/122/122 125/125/125
f 122/122/122 126/126/126 125/125/125
f 127/127/127 124/124/124 123/123/123
f 124/124/124 127/127/127 128/128/128
f 125/125/125 126/126/126 129/129/129
f 126/126/126 130/130/130 129/129/129
f 127/127/127 131/131/131 128/128/128
f 132/132/132 128/128/128 131/131/131
f 129/129/129 130/130/130 133/133/133
f 130/130/130 134/134/134 133/133/133
f 135/135/135 132/132/132 131/131/131
f 136/136/136 132/132/132 135/135/135
f 133/133/133 134/134/134 137/137/137
f 134/134/134 138/138/138 137/137/137
f 139/139/139 136/136/136 135/135/135
f 140/140/140 136/136/136 139/139/139
f 137/137/137 138/138/138 141/141/141
f 138/138/138 142/142/142 141/141/141
f 143/143/143 140/140/140 139/139/139
f 144/144/144 140/140/140 143/143/143
f 141/141/141 142/142/142 145/145/145
f 142/142/142 146/146/146 145/145/145
f 147/147/147 144/144/144 143/143/143
f 148/148/148 144/144/144 147/147/147
f 146/146/146 148/148/148 149/149/149
f 145/145/145 146/146/146 149/149/149
f 149/149/149 148/148/148 147/147/147
f 139/139/139 135/135/135 150/150/150
f 143/143/143 139/139/139 151/151/151
f 151/151/151 139/139/139 150/150/150
f 152/152/152 151/151/151 150/150/150
f 150/150/150 135/135/135 153/153/153
f 152/152/152 150/150/150 153/153/153
f 135/135/135 131/131/131 153/153/153
f 154/154/154 143/143/143 151/151/151
f 147/147/147 143/143/143 154/154/154
f 152/152/152 154/154/154 151/151/151
f 155/155/155 153/153/153 131/131/131
f 152/152/152 153/153/153 155/155/155
f 127/127/127 155/155/155 131/131/131
f 156/156/156 147/147/147 154/154/154
f 149/149/149 147/147/147 156/156/156
f 152/152/152 156/156/156 154/154/154
f 155/155/155 127/127/127 157/157/157
f 152/152/152 155/155/155 157/157/157
f 127/127/127 123/123/123 157/157/157
f 158/158/158 149/149/149 156/156/156
f 152/152/152 158/158/158 156/156/156
f 152/152/152 157/157/157 159/159/159
f 157/157/157 123/123/123 159/159/159
f 152/152/152 160/160/160 158/158/158
f 145/145/145 149/149/149 158/158/158
f 160/160/160 145/145/145 158/158/158
f 123/123/123 118/118/118 159/159/159
f 141/141/141 145/145/145 160/160/160
f 159/159/159 118/118/118 161/161/161
f 152/152/152 159/159/159 161/161/161
f 118/118/118 121/121/121 161/161/161
f 162/162/162 141/141/141 160/160/160
f 152/152/152 162/162/162 160/160/160
f 137/137/137 141/141/141 162/162/162
f 161/161/161 121/121/121 163/163/163
f 152/152/152 161/161/161 163/163/163
f 121/121/121 125/125/125 163/163/163
f 164/164/164 137/137/137 162/162/162
f 152/152/152 164/164/164 162/162/162
f 133/133/133 137/137/137 164/164/164
f 163/163/163 125/125/125 165/165/165
f 152/152/152 163/163/163 165/165/165
f 125/125/125 129/129/129 165/165/165
f 152/152/152 166/166/166 164/164/164
f 166/166/166 133/133/133 164/164/164
f 152/152/152 165/165/165 166/166/166
f 129/129/129 133/133/133 166/166/166
f 165/165/165 129/129/129 166/166/166
