g ENV_SY01_Bluejay_CentralPlatform_Ramp_MO
v -7.4794416 0.024515629 3.070074
v -7.4808445 0.020867825 10.806742
v -7.4300528 0.0040307045 10.87409
v -7.4300528 0.0040307045 3.070074
v -7.4300528 0.024515629 3.0204048
v -7.470462 0.033495426 3.029665
v 7.4301295 0.024515629 3.0204048
v 7.4301295 0.0040307045 3.070074
v 7.4301295 0.0040307045 10.87409
v 7.4809217 0.020867825 10.806742
v 7.4795184 0.024515629 3.070074
v 7.4705386 0.033495426 3.029665
v 7.4301295 0.035459995 10.881668
v 7.4795184 3.9557085 3.066146
v 7.4809217 0.050613403 10.813757
v 7.4301295 3.9795609 3.062498
v -7.4300528 0.035459995 10.881668
v 7.4301295 3.9778767 3.0204048
v 7.4705386 3.9638462 3.0291042
v -7.4300528 3.9778767 3.0204048
v -7.4300528 3.9795609 3.062498
v -7.4808445 0.050613403 10.813757
v -7.4794416 3.9557085 3.066146
v -7.470462 3.9638462 3.0291042
v 7.4301295 0.0040307045 10.87409
v -7.4300528 0.0040307045 10.87409
v -7.4300528 0.016658306 10.890366
v 7.4301295 0.016658306 10.890366
v 7.4301295 0.016658306 10.890366
v -7.4300528 0.016658306 10.890366
v -7.4300528 0.035459995 10.881668
v 7.4301295 0.035459995 10.881668
v 7.4301295 0.024515629 3.0204048
v 7.4705386 0.033495426 3.029665
v 7.4795184 0.073904514 3.0204048
v 7.4301295 0.073904514 2.99992
v -7.4300528 0.024515629 3.0204048
v 7.4301295 3.9411163 2.99992
v 7.4795184 3.927085 3.019843
v -7.4300528 0.073904514 2.99992
v 7.4301295 3.9778767 3.0204048
v 7.4705386 3.9638462 3.0291042
v -7.4300528 3.9411163 2.99992
v -7.4300528 3.9778767 3.0204048
v -7.4794416 3.927085 3.019843
v -7.470462 3.9638462 3.0291042
v -7.4794416 0.073904514 3.0204048
v -7.470462 0.033495426 3.029665
v 7.4795184 0.073904514 3.0204048
v 7.4705386 0.033495426 3.029665
v 7.4795184 0.024515629 3.070074
v 7.500004 0.073904514 3.070074
v 7.4795184 3.927085 3.019843
v 7.500004 0.073904514 10.6490345
v 7.4809217 0.020867825 10.806742
v 7.500004 3.8976202 3.070074
v 7.4809217 0.050613403 10.813757
v 7.471661 0.025076866 10.854446
v 7.4795184 3.9557085 3.066146
v 7.4705386 3.9638462 3.0291042
v -7.4794416 0.024515629 3.070074
v -7.470462 0.033495426 3.029665
v -7.4794416 0.073904514 3.0204048
v -7.4999266 0.073904514 3.070074
v -7.4808445 0.020867825 10.806742
v -7.4999266 3.8976202 3.070074
v -7.4794416 3.927085 3.019843
v -7.4999266 0.073904514 10.6490345
v -7.4794416 3.9557085 3.066146
v -7.470462 3.9638462 3.0291042
v -7.4808445 0.050613403 10.813757
v -7.4715843 0.025076866 10.854446
v 7.4809217 0.050613403 10.813757
v 7.471661 0.025076866 10.854446
v 7.4301295 0.016658306 10.890366
v 7.4301295 0.035459995 10.881668
v 7.4301295 0.016658306 10.890366
v 7.471661 0.025076866 10.854446
v 7.4809217 0.020867825 10.806742
v 7.4301295 0.0040307045 10.87409
v -7.4300528 0.016658306 10.890366
v -7.4715843 0.025076866 10.854446
v -7.4808445 0.050613403 10.813757
v -7.4300528 0.035459995 10.881668
v -7.4808445 0.020867825 10.806742
v -7.4715843 0.025076866 10.854446
v -7.4300528 0.016658306 10.890366
v -7.4300528 0.0040307045 10.87409
vt -0.4413448 0.91464496
vt 0.16336024 0.91464496
vt 0.16846758 0.9105592
vt -0.4413448 0.9105592
vt -0.44543064 0.9105592
vt -0.4449199 0.91413426
vt -0.44543064 -0.25084227
vt -0.4413448 -0.25084227
vt 0.16846758 -0.25084227
vt 0.16336024 -0.2549281
vt -0.4413448 -0.2549281
vt -0.4449199 -0.2544174
vt 0.95294976 -0.19006532
vt 1.6419255 -0.18036145
vt 0.95856786 -0.19415116
vt 1.6429468 -0.17627561
vt 0.95346045 0.98104
vt 1.6460112 -0.17627561
vt 1.6449898 -0.17985073
vt 1.6342643 0.9744005
vt 1.6306893 0.9738897
vt 0.95856786 0.9851258
vt 1.6301786 0.9784863
vt 1.633243 0.9774648
vt 0.16846758 -0.25084227
vt 0.16846758 0.9105592
vt 0.16999978 0.9105592
vt 0.16999978 -0.25084227
vt 0.95141757 -0.19006532
vt 0.95192826 0.98104
vt 0.95346045 0.98104
vt 0.95294976 -0.19006532
vt 0.91311276 -0.26616418
vt 0.91260207 -0.26922858
vt 0.909027 -0.27025002
vt 0.909027 -0.26616418
vt 0.91311276 0.8962587
vt 0.60769594 -0.26616418
vt 0.6087173 -0.27025002
vt 0.909027 0.8962587
vt 0.60514224 -0.26616418
vt 0.60616374 -0.26922858
vt 0.60769594 0.8962587
vt 0.60514224 0.8962587
vt 0.6087173 0.9003445
vt 0.60616374 0.8998338
vt 0.909027 0.9003445
vt 0.91260207 0.8993231
vt 0.76653314 0.48869562
vt 0.76295793 0.48971713
vt 0.76244724 0.49278152
vt 0.76653314 0.49278152
vt 1.0668427 0.48869562
vt 0.76653314 1.0862504
vt 0.76244724 1.098508
vt 1.0647998 0.49278152
vt 0.7644901 1.0990187
vt 0.76244724 1.1025939
vt 1.0693964 0.49227077
vt 1.0699071 0.48971713
vt 0.59135246 1.1015724
vt 0.5918633 1.1046368
vt 0.59492767 1.1051475
vt 0.59492767 1.1015724
vt 0.59084177 0.49533516
vt 0.8931943 1.1015724
vt 0.8957479 1.1051475
vt 0.59492767 0.50810343
vt 0.8977909 1.1015724
vt 0.8988123 1.1046368
vt 0.5933955 0.4948244
vt 0.59135246 0.49176002
vt 0.7644901 1.0990187
vt 0.76244724 1.1025939
vt 0.76193655 1.1051475
vt 0.76346874 1.1046368
vt 0.76193655 1.1051475
vt 0.76244724 1.1025939
vt 0.76244724 1.098508
vt 0.76091504 1.1041261
vt 0.5903311 0.48920637
vt 0.59135246 0.49176002
vt 0.5933955 0.4948244
vt 0.5918633 0.48971713
vt 0.59084177 0.49533516
vt 0.59135246 0.49176002
vt 0.5903311 0.48920637
vt 0.5893096 0.49022782
vn -0.3489393 -0.9371453 -0
vn -0.3489393 -0.9371453 -0
vn -0.0038926601 -0.9999925 -0
vn -0.0038926601 -0.9999925 -0
vn -0.0038926601 -0.921564 -0.38820702
vn -0.3254496 -0.89019257 -0.3188099
vn 0.0039501786 -0.921564 -0.3882064
vn 0.0039501777 -0.99999225 -0
vn 0.0039501777 -0.99999225 -0
vn 0.3489898 -0.9371265 -0
vn 0.3489898 -0.9371265 -0
vn 0.32550716 -0.89019257 -0.3187512
vn 0.0039501786 0.89013505 0.45567968
vn 0.34119284 0.8352351 0.43124205
vn 0.34119284 0.8352351 0.43124205
vn 0.0039501786 0.89013505 0.45567968
vn -0.0038926601 0.89013505 0.45568022
vn 0.0039501786 0.99993503 -0.010692133
vn 0.38825 0.9215064 0.00937322
vn -0.0038926601 0.99993503 -0.010714408
vn -0.0038926601 0.89013505 0.45568022
vn -0.34113538 0.8352351 0.43128753
vn -0.34113538 0.8352351 0.43128753
vn -0.38819242 0.9215064 0.011513502
vn -0.0038926601 -0.7882354 0.6153615
vn -0.0038926601 -0.7882354 0.6153615
vn -0.0038926601 -0.7882354 0.6153615
vn -0.0038926601 -0.7882354 0.6153615
vn -0.0038926601 0.4195639 0.90771747
vn -0.0038926601 0.4195639 0.90771747
vn -0.0038926601 0.4195639 0.90771747
vn -0.0038926601 0.4195639 0.90771747
vn 0.0039501786 -0.3804071 -0.9248107
vn 0.32550716 -0.32550716 -0.8877445
vn 0.3804071 -0.0039501786 -0.9248107
vn 0.0039501786 -0.0039501786 -0.9999844
vn -0.0038926601 -0.3804071 -0.92481095
vn 0.0039501786 0.0038926601 -0.9999846
vn 0.3804071 0.0038926601 -0.92481095
vn -0.0038926601 -0.0039501786 -0.9999846
vn 0.0039501786 0.4901495 -0.8716294
vn 0.38825 0.38819242 -0.83580416
vn -0.0038926601 0.0038926601 -0.99998486
vn -0.0038926601 0.4901495 -0.8716297
vn -0.38034964 0.0038926601 -0.9248346
vn -0.38819242 0.38819242 -0.83583087
vn -0.38034964 -0.0039501786 -0.9248343
vn -0.3254496 -0.32550716 -0.8877655
vn 0.921564 -0.0039501786 -0.38820642
vn 0.89019257 -0.32550716 -0.31875113
vn 0.9294068 -0.35687858 -0.094024494
vn 0.9999305 -0.011792286 -0
vn 0.9294068 0.0038926601 -0.3690363
vn 0.99999225 -0.0039501777 -0
vn 0.93724966 -0.34119284 0.07176712
vn 0.9998085 0.019574735 -0
vn 0.93724966 0.30192113 0.17437519
vn 0.99214965 -0.027478755 0.121999934
vn 0.93724966 0.3176068 0.14383669
vn 0.93724966 0.30192113 -0.17437519
vn -0.9293493 -0.35687858 -0.09459142
vn -0.89013505 -0.32550716 -0.31891173
vn -0.9215064 -0.0039501786 -0.38834304
vn -0.9999305 -0.011792964 -0
vn -0.9371922 -0.34119284 0.07251362
vn -0.99980843 0.019575858 -0
vn -0.9293493 0.0038926601 -0.36918113
vn -0.99993503 -0.0039501786 0.0106927175
vn -0.9371922 0.3176068 0.14421062
vn -0.9371922 0.30192113 -0.17468375
vn -0.9371922 0.30192113 0.17468375
vn -0.99209213 -0.027478755 0.12246684
vn 0.34119284 0.8352351 0.43124205
vn 0.545107 0.5764209 0.60876703
vn 0.545107 0.5764209 0.60876703
vn 0.0039501786 0.89013505 0.45567968
vn 0.545107 -0.7882354 0.2855578
vn 0.545107 -0.7882354 0.2855578
vn 0.3489898 -0.9371265 -0
vn 0.0039501777 -0.99999225 -0
vn -0.54504955 0.5764209 0.60881853
vn -0.54504955 0.5764209 0.60881853
vn -0.34113538 0.8352351 0.43128753
vn -0.0038926601 0.89013505 0.45568022
vn -0.3489393 -0.9371453 -0
vn -0.54504955 -0.7882354 0.2856676
vn -0.54504955 -0.7882354 0.2856676
vn -0.0038926601 -0.9999925 -0
g ENV_SY01_Bluejay_CentralPlatform_Ramp_MO_0
f 3/3/3 2/2/2 1/1/1
f 4/4/4 3/3/3 1/1/1
f 4/4/4 1/1/1 5/5/5
f 1/1/1 6/6/6 5/5/5
f 4/4/4 5/5/5 7/7/7
f 3/3/3 4/4/4 8/8/8
f 8/8/8 4/4/4 7/7/7
f 9/9/9 3/3/3 8/8/8
f 10/10/10 9/9/9 8/8/8
f 11/11/11 10/10/10 8/8/8
f 8/8/8 7/7/7 11/11/11
f 7/7/7 12/12/12 11/11/11
f 15/15/15 14/14/14 13/13/13
f 14/14/14 16/16/16 13/13/13
f 13/13/13 16/16/16 17/17/17
f 16/16/16 14/14/14 18/18/18
f 14/14/14 19/19/19 18/18/18
f 18/18/18 20/20/20 16/16/16
f 16/16/16 21/21/21 17/17/17
f 20/20/20 21/21/21 16/16/16
f 17/17/17 21/21/21 22/22/22
f 21/21/21 23/23/23 22/22/22
f 21/21/21 20/20/20 23/23/23
f 20/20/20 24/24/24 23/23/23
f 27/27/27 26/26/26 25/25/25
f 28/28/28 27/27/27 25/25/25
f 31/31/31 30/30/30 29/29/29
f 32/32/32 31/31/31 29/29/29
f 35/35/35 34/34/34 33/33/33
f 36/36/36 35/35/35 33/33/33
f 33/33/33 37/37/37 36/36/36
f 36/36/36 38/38/38 35/35/35
f 38/38/38 39/39/39 35/35/35
f 37/37/37 40/40/40 36/36/36
f 36/36/36 40/40/40 38/38/38
f 38/38/38 41/41/41 39/39/39
f 41/41/41 42/42/42 39/39/39
f 38/38/38 43/43/43 41/41/41
f 40/40/40 43/43/43 38/38/38
f 43/43/43 44/44/44 41/41/41
f 43/43/43 45/45/45 44/44/44
f 45/45/45 43/43/43 40/40/40
f 45/45/45 46/46/46 44/44/44
f 47/47/47 45/45/45 40/40/40
f 40/40/40 37/37/37 47/47/47
f 37/37/37 48/48/48 47/47/47
f 51/51/51 50/50/50 49/49/49
f 52/52/52 51/51/51 49/49/49
f 49/49/49 53/53/53 52/52/52
f 52/52/52 54/54/54 51/51/51
f 54/54/54 55/55/55 51/51/51
f 53/53/53 56/56/56 52/52/52
f 52/52/52 56/56/56 54/54/54
f 54/54/54 57/57/57 55/55/55
f 54/54/54 56/56/56 57/57/57
f 57/57/57 58/58/58 55/55/55
f 56/56/56 59/59/59 57/57/57
f 56/56/56 53/53/53 59/59/59
f 53/53/53 60/60/60 59/59/59
f 63/63/63 62/62/62 61/61/61
f 64/64/64 63/63/63 61/61/61
f 61/61/61 65/65/65 64/64/64
f 64/64/64 66/66/66 63/63/63
f 66/66/66 67/67/67 63/63/63
f 65/65/65 68/68/68 64/64/64
f 68/68/68 66/66/66 64/64/64
f 66/66/66 69/69/69 67/67/67
f 69/69/69 66/66/66 68/68/68
f 69/69/69 70/70/70 67/67/67
f 71/71/71 69/69/69 68/68/68
f 68/68/68 65/65/65 71/71/71
f 65/65/65 72/72/72 71/71/71
f 75/75/75 74/74/74 73/73/73
f 76/76/76 75/75/75 73/73/73
f 79/79/79 78/78/78 77/77/77
f 80/80/80 79/79/79 77/77/77
f 83/83/83 82/82/82 81/81/81
f 84/84/84 83/83/83 81/81/81
f 87/87/87 86/86/86 85/85/85
f 88/88/88 87/87/87 85/85/85
