g ENV_SY02_HW_WaterBiome_Floor06_MO
v -33.62931 0.48279536 51.698402
v -33.641064 1.262446 51.738365
v -33.621475 0.4820118 51.714855
v -33.636364 0.5211902 51.44139
v -33.648117 1.3196466 51.482136
v -33.697483 0.5580179 51.0739
v -33.641064 1.2820352 51.739147
v -33.641064 1.2812517 51.739147
v -33.709236 1.3572578 51.114643
v -33.794643 0.5956292 50.24018
v -33.619907 1.3909513 51.483704
v -33.61364 1.3580414 51.705456
v -33.806396 1.3948691 50.280926
v -33.90513 0.6332405 49.360233
v -33.681026 1.4285626 51.11621
v -33.54939 1.4215105 51.479786
v -33.546253 1.4003541 51.622395
v -33.452225 1.422294 51.507996
v -33.202267 1.4630396 51.202404
v -33.61129 1.4591218 51.111507
v -32.865334 1.5045688 50.176712
v -33.70767 1.4959495 50.28171
v -32.498623 1.5468814 48.46775
v -33.77819 1.4653903 50.282494
v -33.81815 1.5335608 49.129864
v -32.110756 1.5884106 47.300232
v -33.88867 1.5030017 49.16199
v -33.932552 1.5703886 47.983505
v -31.570879 1.6315069 46.64125
v -33.91688 1.4316969 49.34613
v -34.019527 0.67006826 48.18096
v -34.144897 1.6072162 46.819904
v -31.09917 1.6738195 46.065327
v -34.003075 1.5398294 48.04462
v -34.03128 1.4685246 48.151188
v -34.23109 0.7061124 46.790127
v -34.214638 1.576657 46.823822
v -34.242844 1.5053524 46.82539
v -34.495937 0.74294007 46.367
v -34.409744 1.6432604 46.404613
v -34.50769 1.5421801 46.407745
v -34.473213 0.74685794 46.29413
v -34.484966 1.5460979 46.334877
v -34.479485 1.6127012 46.40853
v -34.47165 1.6032984 46.349762
v -34.41523 1.6181862 46.332523
v -31.034918 1.6487454 45.986187
v -34.484966 1.5460979 46.334877
v -34.416798 1.5484486 46.299614
v -31.005142 1.5797913 45.95014
v -30.969881 0.781335 45.907047
v -34.405045 0.74999225 46.25887
v -34.473213 0.74685794 46.29413
v -30.34616 0.5157052 51.616127
v -30.290527 1.3172959 51.621613
v -30.278774 0.5188395 51.580868
v -30.357914 1.3149451 51.65687
v -33.52196 0.47966108 51.79008
v -30.361832 1.3870335 51.631016
v -30.305416 1.3752799 51.61299
v -33.533714 1.278901 51.830826
v -33.594833 0.47966108 51.76657
v -33.606586 1.278901 51.80732
v -33.53685 1.3509893 51.804966
v -33.59562 1.3368851 51.79635
v -33.612858 1.3525565 51.740715
v -33.606586 1.278901 51.80732
v -30.296797 1.3917348 51.555008
v -30.290527 1.3172959 51.621613
v -33.543118 1.3831156 51.73601
v -30.368101 1.4191598 51.56206
v -30.267021 1.3212137 51.549522
v -30.278774 0.5188395 51.580868
v -30.255266 0.52275735 51.507996
v -30.244297 1.358825 50.635883
v -30.232544 0.5595851 50.59514
v -30.230192 0.5964128 49.99884
v -30.274073 1.4285626 50.64215
v -30.241947 1.3956528 50.03959
v -30.259968 0.6332405 48.899494
v -30.271723 1.4324805 48.94024
v -30.279558 0.67006826 47.797012
v -30.272505 1.4653903 50.045856
v -30.291311 1.4693081 47.83776
v -30.298363 0.7076795 47.17016
v -30.345377 1.456771 50.649204
v -30.30228 1.502218 48.94651
v -30.310116 1.5069195 47.210903
v -30.360266 0.74450725 46.510395
v -30.343027 1.4935988 50.05291
v -30.32187 1.5390458 47.836975
v -30.372019 1.5437472 46.55114
v -30.45351 0.78211856 45.956413
v -30.372803 1.5304265 48.95356
v -30.340675 1.576657 47.21639
v -30.392391 1.5672543 47.83933
v -33.202267 1.4630396 51.202404
v -32.865334 1.5045688 50.176712
v -33.452225 1.422294 51.507996
v -32.498623 1.5468814 48.46775
v -33.546253 1.4003541 51.622395
v -32.110756 1.5884106 47.300232
v -33.61364 1.3580414 51.705456
v -30.411198 1.6048656 47.224224
v -31.570879 1.6315069 46.64125
v -33.641064 1.2812517 51.739147
v -33.641064 1.2820352 51.739147
v -33.641064 1.262446 51.738365
v -33.621475 0.4820118 51.714855
v -33.594833 0.47966108 51.76657
v -30.473099 1.6416932 46.56446
v -31.09917 1.6738195 46.065327
v -30.401794 1.6134849 46.557407
v -30.566343 1.678521 46.01048
v -31.034918 1.6487454 45.986187
v -30.495039 1.6503125 46.003426
v -30.465263 1.5805749 45.997158
v -30.571829 1.6526632 45.93839
v -31.005142 1.5797913 45.95014
v -30.49974 1.5837092 45.928986
v -30.487988 0.78446925 45.88824
v -30.513062 1.6401261 45.946224
v -30.49974 1.5837092 45.928986
v -30.572613 1.5837092 45.90548
v -30.969881 0.781335 45.907047
v -30.487988 0.78446925 45.88824
v -30.560858 0.78446925 45.864735
vt 0.00159266 0.00159266
vt 0.00159266 0.00159266
vt 0.00159266 0.00159266
vt 0.00159266 0.00159266
vt 0.00159266 0.00159266
vt 0.00159266 0.00159266
vt 0.00159266 0.00159266
vt 0.00159266 0.00159266
vt 0.00159266 0.00159266
vt 0.00159266 0.00159266
vt 0.00159266 0.00159266
vt 0.00159266 0.00159266
vt 0.00159266 0.00159266
vt 0.00159266 0.00159266
vt 0.00159266 0.00159266
vt 0.00159266 0.00159266
vt 0.00159266 0.00159266
vt 0.00159266 0.00159266
vt 0.00159266 0.00159266
vt 0.00159266 0.00159266
vt 0.00159266 0.00159266
vt 0.00159266 0.00159266
vt 0.00159266 0.00159266
vt 0.00159266 0.00159266
vt 0.00159266 0.00159266
vt 0.00159266 0.00159266
vt 0.00159266 0.00159266
vt 0.00159266 0.00159266
vt 0.00064507127 0.00159266
vt 0.00159266 0.00159266
vt 0.00159266 0.00159266
vt 0.00159266 0.00064507127
vt 0.00064507127 0.00064507127
vt 0.00159266 0.00159266
vt 0.00159266 0.00159266
vt 0.00159266 0.00159266
vt 0.00159266 0.00064507127
vt 0.00159266 0.00064507127
vt 0.00159266 0.00064507127
vt 0.00159266 0.00064507127
vt 0.00159266 0.00064507127
vt 0.00159266 0.00064507127
vt 0.00159266 0.00064507127
vt 0.00159266 0.00064507127
vt 0.00159266 0.00064507127
vt 0.00159266 0.00064507127
vt 0.00064507127 0.00064507127
vt 0.00159266 0.00064507127
vt 0.00159266 0.00064507127
vt 0.00064507127 0.00064507127
vt 0.00064507127 0.00064507127
vt 0.00159266 0.00064507127
vt 0.00159266 0.00064507127
vt 0.00064507127 0.0025402487
vt 0.00064507127 0.00159266
vt 0.00064507127 0.0025402487
vt 0.00064507127 0.00159266
vt 0.00159266 0.00159266
vt 0.00064507127 0.00159266
vt 0.00064507127 0.00159266
vt 0.00159266 0.00159266
vt 0.00159266 0.00159266
vt 0.00159266 0.00159266
vt 0.00159266 0.00159266
vt 0.00159266 0.00159266
vt 0.00159266 0.00159266
vt 0.00159266 0.00159266
vt 0.00064507127 0.00159266
vt 0.00064507127 0.00159266
vt 0.00159266 0.00159266
vt 0.00064507127 0.00159266
vt 0.00064507127 0.00159266
vt 0.00064507127 0.00159266
vt 0.00064507127 0.00159266
vt 0.00064507127 0.00159266
vt 0.00064507127 0.00159266
vt 0.00064507127 0.00159266
vt 0.00064507127 0.00159266
vt 0.00064507127 0.00159266
vt 0.00064507127 0.00159266
vt 0.00064507127 0.00159266
vt 0.00064507127 0.00159266
vt 0.00064507127 0.00159266
vt 0.00064507127 0.00159266
vt 0.00064507127 0.00159266
vt 0.00064507127 0.00159266
vt 0.00064507127 0.00159266
vt 0.00064507127 0.00159266
vt 0.00064507127 0.00159266
vt 0.00064507127 0.00159266
vt 0.00064507127 0.00159266
vt 0.00064507127 0.00159266
vt 0.00064507127 0.00064507127
vt 0.00064507127 0.00159266
vt 0.00064507127 0.00159266
vt 0.00064507127 0.00159266
vt 0.00159266 0.00159266
vt 0.00159266 0.00159266
vt 0.00159266 0.00159266
vt 0.00159266 0.00159266
vt 0.00159266 0.00159266
vt 0.00159266 0.00159266
vt 0.00159266 0.00159266
vt 0.00064507127 0.00159266
vt 0.00064507127 0.00159266
vt 0.00159266 0.00159266
vt 0.00159266 0.00159266
vt 0.00159266 0.00159266
vt 0.00159266 0.00159266
vt 0.00159266 0.00159266
vt 0.00064507127 0.00159266
vt 0.00064507127 0.00064507127
vt 0.00064507127 0.00159266
vt 0.00064507127 0.00064507127
vt 0.00064507127 0.00064507127
vt 0.00064507127 0.00064507127
vt 0.00064507127 0.00064507127
vt 0.00064507127 0.00064507127
vt 0.00064507127 0.00064507127
vt 0.00064507127 0.00064507127
vt 0.00064507127 0.00064507127
vt 0.00064507127 0.00064507127
vt 0.00064507127 0.00064507127
vt 0.00064507127 0.00064507127
vt 0.00064507127 0.00064507127
vt 0.00064507127 0.00064507127
vt 0.00064507127 0.00064507127
vn -0.99193555 -0.019593894 0.1252196
vn -0.99193555 -0.019593894 0.1252196
vn -0.8899985 -0.035276532 0.4545968
vn -0.99193555 -0.019593894 0.1252196
vn -0.99193555 0.011771381 0.12619549
vn -0.9840942 -0.027435184 0.17551605
vn -0.9997769 0.0039300323 0.020753207
vn -0.99193555 0.0039300323 0.12668237
vn -0.976253 0.011771381 0.21631359
vn -0.9684116 -0.027435184 0.24784315
vn -0.70180696 0.6939656 0.16086876
vn -0.7802201 0.6155525 0.11113857
vn -0.9684116 0.0039300323 0.24932602
vn -0.9605703 -0.027435184 0.27668038
vn -0.6939656 0.68612427 0.2182779
vn -0.035281207 0.9993774 -0
vn -0.0039300323 0.9997769 0.02075339
vn 0.003911257 0.9997769 0.020756261
vn 0.011752546 0.9997769 0.017550977
vn -0.027449736 0.9996232 -0
vn 0.003911257 0.9997769 0.020756261
vn -0.01961273 0.9997769 0.007839157
vn 0.003911257 0.9997769 0.020756261
vn -0.6939656 0.67828304 0.2415448
vn -0.01961273 0.9997769 0.007839157
vn -0.0039300323 0.9997769 0.02075339
vn -0.68612427 0.6704417 0.28238517
vn -0.011771381 0.9997769 0.017537387
vn -0.0039300323 0.9997769 0.02075339
vn -0.9605703 0.0039300323 0.27800947
vn -0.9448877 -0.027435184 0.32624304
vn -0.011771381 0.9997769 0.017537387
vn -0.011771381 0.9997769 -0.017537387
vn -0.6704417 0.67828304 0.3007325
vn -0.9448877 0.0039300323 0.327371
vn -0.89783984 -0.035276532 0.4389068
vn -0.6547591 0.6547591 0.377599
vn -0.89783984 -0.003911257 0.4403048
vn -0.89783984 -0.035276532 0.4389068
vn -0.01961273 0.9997769 0.007839157
vn -0.89783984 -0.003911257 0.4403048
vn -0.7645375 0.01961273 -0.6442808
vn -0.7645375 0.043136656 -0.64313424
vn -0.6939656 0.59202856 0.40977305
vn -0.6312352 0.59202856 -0.5010432
vn -0.08234316 0.74101347 -0.6664223
vn -0.08234316 0.6547591 -0.7513389
vn -0.7645375 0.043136656 -0.64313424
vn -0.10586709 0.08234316 -0.99096507
vn -0.10586709 0.07450193 -0.99158543
vn -0.10586709 0.050977886 -0.9930727
vn -0.10586709 0.050977886 -0.9930727
vn -0.7645375 0.01961273 -0.6442808
vn -0.4352023 -0.05095911 0.89888936
vn 0.7645187 0.0039300323 0.6445896
vn 0.7645187 -0.019593894 0.64430374
vn -0.4352023 -0.027435184 0.8999146
vn -0.45088488 -0.05095911 0.8911263
vn -0.3803131 0.529298 0.7584231
vn 0.6155337 0.5606633 0.5538727
vn -0.45088488 -0.019593894 0.89236706
vn -0.64691776 -0.05095911 0.76085514
vn -0.64691776 -0.027435184 0.7620661
vn -0.34110647 0.66260034 0.6667887
vn -0.53713936 0.53713936 0.65035576
vn -0.71748954 0.6704417 0.18898858
vn -0.64691776 -0.027435184 0.7620661
vn 0.6861055 0.7253309 0.05616349
vn 0.7645187 0.0039300323 0.6445896
vn -0.050977886 0.99193555 0.11603925
vn -0.058819234 0.99193555 0.11226833
vn 0.9990704 0.043106984 -0
vn 0.7645187 -0.019593894 0.64430374
vn 0.99975806 0.011771381 0.018580783
vn 0.9990704 0.043106984 -0
vn 0.99975806 0.011771381 0.018580783
vn 0.99975806 0.011771381 -0.018580783
vn 0.7017882 0.7096483 0.062391188
vn 0.9987025 0.050924063 -0
vn 0.99975806 0.01961273 -0.009957497
vn 0.9987025 0.050924063 -0
vn 0.99975806 0.01961273 -0.009957497
vn 0.69924134 0.7148857 -0
vn 0.9987025 0.050924063 -0
vn 0.99975806 0.01961273 -0.009957497
vn -0.01961273 0.9997769 0.007839157
vn 0.69394684 0.71748954 0.0603862
vn 0.9987025 0.050924063 -0
vn 0.9919168 0.01961273 -0.12536532
vn -0.011771381 0.9997769 0.017537387
vn 0.69924134 0.7148857 -0
vn 0.9919168 0.050977886 -0.11619973
vn 0.97623414 0.027453959 -0.21497254
vn -0.0039300323 0.9997769 0.02075339
vn 0.69924134 0.7148857 -0
vn -0.0039300323 0.9997769 0.02075339
vn 0.011752546 0.9997769 0.017550977
vn 0.003911257 0.9997769 0.020756261
vn 0.003911257 0.9997769 0.020756261
vn 0.003911257 0.9997769 0.020756261
vn -0.0039300323 0.9997769 0.02075339
vn -0.0039300323 0.9997769 0.02075339
vn -0.7802201 0.6155525 0.11113857
vn 0.003911257 0.9997769 0.020756261
vn -0.0039300323 0.9997769 0.02075339
vn -0.99193555 0.0039300323 0.12668237
vn -0.9997769 0.0039300323 0.020753207
vn -0.99193555 -0.019593894 0.1252196
vn -0.8899985 -0.035276532 0.4545968
vn -0.64691776 -0.05095911 0.76085514
vn 0.003911257 0.9997769 0.020756261
vn -0.011771381 0.9997769 -0.017537387
vn 0.69394684 0.71748954 -0.0603862
vn -0.0039300323 0.9997769 0.02075339
vn -0.08234316 0.6547591 -0.7513389
vn 0.6782642 0.73317224 -0.049154185
vn 0.97623414 0.058819234 -0.20858382
vn -0.06666058 0.74101347 -0.6681732
vn -0.10586709 0.07450193 -0.99158543
vn 0.646899 0.07450193 -0.75892764
vn 0.646899 0.050977886 -0.76086986
vn 0.52143794 0.6155525 -0.59092945
vn 0.646899 0.07450193 -0.75892764
vn -0.09802586 0.08234316 -0.99177146
vn -0.10586709 0.050977886 -0.9930727
vn 0.646899 0.050977886 -0.76086986
vn -0.09802586 0.050977886 -0.99387735
g ENV_SY02_HW_WaterBiome_Floor06_MO_0
f 3/3/3 2/2/2 1/1/1
f 4/4/4 1/1/1 2/2/2
f 2/2/2 5/5/5 4/4/4
f 4/4/4 5/5/5 6/6/6
f 2/2/2 7/7/7 5/5/5
f 2/2/2 8/8/8 7/7/7
f 5/5/5 9/9/9 6/6/6
f 6/6/6 9/9/9 10/10/10
f 11/11/11 5/5/5 7/7/7
f 12/12/12 11/11/11 7/7/7
f 9/9/9 13/13/13 10/10/10
f 10/10/10 13/13/13 14/14/14
f 15/15/15 9/9/9 5/5/5
f 11/11/11 15/15/15 5/5/5
f 16/16/16 11/11/11 12/12/12
f 17/17/17 16/16/16 12/12/12
f 18/18/18 16/16/16 17/17/17
f 18/18/18 19/19/19 16/16/16
f 16/16/16 20/20/20 11/11/11
f 19/19/19 20/20/20 16/16/16
f 20/20/20 15/15/15 11/11/11
f 19/19/19 21/21/21 20/20/20
f 21/21/21 22/22/22 20/20/20
f 20/20/20 22/22/22 15/15/15
f 21/21/21 23/23/23 22/22/22
f 15/15/15 24/24/24 9/9/9
f 22/22/22 24/24/24 15/15/15
f 24/24/24 13/13/13 9/9/9
f 23/23/23 25/25/25 22/22/22
f 22/22/22 25/25/25 24/24/24
f 23/23/23 26/26/26 25/25/25
f 24/24/24 27/27/27 13/13/13
f 25/25/25 27/27/27 24/24/24
f 26/26/26 28/28/28 25/25/25
f 25/25/25 28/28/28 27/27/27
f 26/26/26 29/29/29 28/28/28
f 27/27/27 30/30/30 13/13/13
f 13/13/13 30/30/30 14/14/14
f 14/14/14 30/30/30 31/31/31
f 29/29/29 32/32/32 28/28/28
f 29/29/29 33/33/33 32/32/32
f 28/28/28 34/34/34 27/27/27
f 27/27/27 34/34/34 30/30/30
f 28/28/28 32/32/32 34/34/34
f 30/30/30 35/35/35 31/31/31
f 34/34/34 35/35/35 30/30/30
f 31/31/31 35/35/35 36/36/36
f 32/32/32 37/37/37 34/34/34
f 34/34/34 37/37/37 35/35/35
f 35/35/35 38/38/38 36/36/36
f 37/37/37 38/38/38 35/35/35
f 36/36/36 38/38/38 39/39/39
f 33/33/33 40/40/40 32/32/32
f 32/32/32 40/40/40 37/37/37
f 38/38/38 41/41/41 39/39/39
f 42/42/42 39/39/39 41/41/41
f 43/43/43 42/42/42 41/41/41
f 37/37/37 44/44/44 38/38/38
f 44/44/44 41/41/41 38/38/38
f 41/41/41 44/44/44 43/43/43
f 40/40/40 44/44/44 37/37/37
f 44/44/44 45/45/45 43/43/43
f 40/40/40 33/33/33 46/46/46
f 40/40/40 46/46/46 44/44/44
f 46/46/46 45/45/45 44/44/44
f 33/33/33 47/47/47 46/46/46
f 48/48/48 45/45/45 46/46/46
f 46/46/46 47/47/47 49/49/49
f 49/49/49 48/48/48 46/46/46
f 47/47/47 50/50/50 49/49/49
f 50/50/50 51/51/51 49/49/49
f 51/51/51 52/52/52 49/49/49
f 49/49/49 52/52/52 48/48/48
f 52/52/52 53/53/53 48/48/48
f 56/56/56 55/55/55 54/54/54
f 55/55/55 57/57/57 54/54/54
f 54/54/54 57/57/57 58/58/58
f 57/57/57 55/55/55 59/59/59
f 55/55/55 60/60/60 59/59/59
f 57/57/57 61/61/61 58/58/58
f 58/58/58 61/61/61 62/62/62
f 61/61/61 63/63/63 62/62/62
f 61/61/61 57/57/57 64/64/64
f 61/61/61 64/64/64 63/63/63
f 57/57/57 59/59/59 64/64/64
f 64/64/64 65/65/65 63/63/63
f 66/66/66 65/65/65 64/64/64
f 67/67/67 65/65/65 66/66/66
f 59/59/59 60/60/60 68/68/68
f 68/68/68 60/60/60 69/69/69
f 64/64/64 59/59/59 70/70/70
f 70/70/70 66/66/66 64/64/64
f 59/59/59 71/71/71 70/70/70
f 71/71/71 59/59/59 68/68/68
f 72/72/72 68/68/68 69/69/69
f 72/72/72 69/69/69 73/73/73
f 74/74/74 72/72/72 73/73/73
f 75/75/75 72/72/72 74/74/74
f 72/72/72 75/75/75 68/68/68
f 76/76/76 75/75/75 74/74/74
f 76/76/76 77/77/77 75/75/75
f 75/75/75 78/78/78 68/68/68
f 68/68/68 78/78/78 71/71/71
f 77/77/77 79/79/79 75/75/75
f 75/75/75 79/79/79 78/78/78
f 77/77/77 80/80/80 79/79/79
f 80/80/80 81/81/81 79/79/79
f 80/80/80 82/82/82 81/81/81
f 79/79/79 83/83/83 78/78/78
f 79/79/79 81/81/81 83/83/83
f 82/82/82 84/84/84 81/81/81
f 82/82/82 85/85/85 84/84/84
f 78/78/78 86/86/86 71/71/71
f 78/78/78 83/83/83 86/86/86
f 81/81/81 87/87/87 83/83/83
f 81/81/81 84/84/84 87/87/87
f 85/85/85 88/88/88 84/84/84
f 85/85/85 89/89/89 88/88/88
f 83/83/83 90/90/90 86/86/86
f 83/83/83 87/87/87 90/90/90
f 84/84/84 91/91/91 87/87/87
f 84/84/84 88/88/88 91/91/91
f 89/89/89 92/92/92 88/88/88
f 89/89/89 93/93/93 92/92/92
f 87/87/87 94/94/94 90/90/90
f 87/87/87 91/91/91 94/94/94
f 88/88/88 95/95/95 91/91/91
f 88/88/88 92/92/92 95/95/95
f 91/91/91 96/96/96 94/94/94
f 91/91/91 95/95/95 96/96/96
f 86/86/86 90/90/90 97/97/97
f 97/97/97 90/90/90 98/98/98
f 90/90/90 94/94/94 98/98/98
f 99/99/99 86/86/86 97/97/97
f 98/98/98 94/94/94 100/100/100
f 94/94/94 96/96/96 100/100/100
f 71/71/71 86/86/86 99/99/99
f 99/99/99 101/101/101 71/71/71
f 101/101/101 70/70/70 71/71/71
f 70/70/70 101/101/101 66/66/66
f 100/100/100 96/96/96 102/102/102
f 101/101/101 103/103/103 66/66/66
f 96/96/96 104/104/104 102/102/102
f 102/102/102 104/104/104 105/105/105
f 95/95/95 104/104/104 96/96/96
f 66/66/66 103/103/103 106/106/106
f 103/103/103 107/107/107 106/106/106
f 106/106/106 67/67/67 66/66/66
f 67/67/67 106/106/106 108/108/108
f 67/67/67 108/108/108 109/109/109
f 109/109/109 110/110/110 67/67/67
f 104/104/104 111/111/111 105/105/105
f 105/105/105 111/111/111 112/112/112
f 95/95/95 113/113/113 104/104/104
f 113/113/113 111/111/111 104/104/104
f 92/92/92 113/113/113 95/95/95
f 111/111/111 114/114/114 112/112/112
f 112/112/112 114/114/114 115/115/115
f 113/113/113 116/116/116 111/111/111
f 116/116/116 114/114/114 111/111/111
f 92/92/92 117/117/117 113/113/113
f 117/117/117 116/116/116 113/113/113
f 93/93/93 117/117/117 92/92/92
f 114/114/114 118/118/118 115/115/115
f 114/114/114 116/116/116 118/118/118
f 115/115/115 118/118/118 119/119/119
f 117/117/117 93/93/93 120/120/120
f 117/117/117 120/120/120 116/116/116
f 93/93/93 121/121/121 120/120/120
f 120/120/120 122/122/122 116/116/116
f 116/116/116 122/122/122 118/118/118
f 118/118/118 122/122/122 123/123/123
f 118/118/118 124/124/124 119/119/119
f 124/124/124 118/118/118 123/123/123
f 119/119/119 124/124/124 125/125/125
f 123/123/123 126/126/126 124/124/124
f 124/124/124 127/127/127 125/125/125
f 126/126/126 127/127/127 124/124/124
