g ENV_CornerTaperWall_HP_MO
v 0.053995132 -1.0000196 -0.053995132
v 0.053995132 -1.0000196 -2.8017714
v 0.01581955 -0.98420024 -0.053995132
v 0.01586318 -0.98345935 -2.8039505
v 2.3841858E-07 -0.94602454 -0.053995132
v 2.3841858E-07 -0.94354045 -2.8041685
v 2.3841858E-07 -0.056435585 -2.8041685
v 2.3841858E-07 -0.053995132 -0.053995132
v 0.01581955 -0.01581955 -0.053995132
v 0.01586318 -0.016516685 -2.8039505
v 0.053995132 -2.3841858E-07 -2.8017714
v 0.053995132 -2.3841858E-07 -0.053995132
v 0.022966623 -0.023358822 -2.8350663
v 2.3841858E-07 -0.056435585 -2.8041685
v 0.1922729 -2.3841858E-07 -2.7897
v 0.6071937 -2.3841858E-07 -2.7244616
v 1.3449079 -2.3841858E-07 -2.463115
v 1.985004 -2.3841858E-07 -1.9980779
v 0.61647606 -0.01581955 -2.7616785
v 0.19449568 -0.01581955 -2.827745
v 1.3624269 -0.01581955 -2.4970198
v 0.05386448 -0.01581955 -2.8401215
v 0.620311 -0.053995132 -2.7771056
v 0.19541073 -0.053995132 -2.843477
v 0.053777218 -0.053995132 -2.8559844
v 0.016037464 -0.05521536 -2.8423877
v 0.0562613 -0.94354045 -2.8557665
v 0.01677823 -0.94336617 -2.8423004
v 2.3841858E-07 -0.94354045 -2.8041685
v 0.023533106 -0.97605085 -2.834979
v 0.01586318 -0.98345935 -2.8039505
v 0.053995132 -1.0000196 -2.8017714
v 0.19741535 -0.9440199 -2.8433027
v 0.055128336 -0.98345935 -2.8399472
v 0.19554138 -0.9835901 -2.827614
v 0.1922729 -1.0000196 -2.7897
v 0.6071937 -1.0000196 -2.7244616
v 0.61678123 -0.98402584 -2.7616348
v 1.3449079 -1.0000196 -2.463115
v 0.62092113 -0.9454144 -2.7770183
v 1.3624705 -0.98420024 -2.4970198
v 1.3697047 -0.053995132 -2.5110526
v 2.012154 -0.98420024 -2.0250535
v 1.9851348 -1.0000196 -1.9980779
v 1.3697047 -0.94602454 -2.5110526
v 2.0120234 -0.01581955 -2.0250535
v 2.0233104 -0.94602454 -2.0362535
v 2.0232234 -0.053995132 -2.0362535
v 2.484033 -0.98420024 -1.3754572
v 2.4501283 -1.0000196 -1.3579818
v 2.4499977 -2.3841858E-07 -1.3579818
v 2.4981093 -0.94602454 -1.3826914
v 2.4979787 -0.053995132 -1.3826914
v 2.483946 -0.01581955 -1.3754572
v 2.7445517 -0.98420024 -0.62597656
v 2.7073348 -1.0000196 -0.61678123
v 2.7735755 -1.0000196 -0.19466996
v 2.7599351 -0.94602454 -0.6297679
v 2.7599351 -0.053995132 -0.6297679
v 2.8116205 -0.98420024 -0.1968925
v 2.7866495 -1.0000196 -0.053995132
v 2.7445517 -0.01581955 -0.62597656
v 2.8273964 -0.94602454 -0.19776416
v 2.8249993 -0.98420024 -0.05386448
v 2.8199878 -0.97661734 -0.023010254
v 2.788872 -0.9834157 -0.01586318
v 2.7891335 -0.9434098 -2.3841858E-07
v 2.8408623 -0.94602454 -0.053777218
v 2.8273964 -0.053995132 -0.19776416
v 2.8273964 -0.94471717 -0.016037464
v 2.8408623 -0.053995132 -0.053777218
v 2.8281372 -0.053995132 -0.016037464
v 2.7917047 -0.053995132 -2.3841858E-07
v 2.820598 -0.022835732 -0.022966623
v 2.790223 -0.01581955 -0.01581955
v 2.8249993 -0.01581955 -0.05386448
v 2.8116205 -0.01581955 -0.1968925
v 2.7866495 -2.3841858E-07 -0.053995132
v 2.7735755 -2.3841858E-07 -0.19466996
v 2.7073348 -2.3841858E-07 -0.61678123
v 0.053995132 -0.01581955 -0.01581955
v 0.053995132 -0.053995132 -2.3841858E-07
v 2.7917047 -0.053995132 -2.3841858E-07
v 2.7891335 -0.9434098 -2.3841858E-07
v 0.022835732 -0.022835732 -0.022835732
v 0.01581955 -0.01581955 -0.053995132
v 2.3841858E-07 -0.053995132 -0.053995132
v 0.01581955 -0.0539515 -0.01581955
v 0.053995132 -0.94602454 -2.3841858E-07
v 0.01581955 -0.94602454 -0.01581955
v 2.3841858E-07 -0.94602454 -0.053995132
v 0.022835732 -0.97718394 -0.022835732
v 0.01581955 -0.98420024 -0.053995132
v 0.053995132 -1.0000196 -0.053995132
v 0.053995132 -0.98420024 -0.01581955
v 2.788872 -0.9834157 -0.01586318
v 2.7866495 -1.0000196 -0.053995132
v 0.053995132 -1.0000196 -2.8017714
v 0.053995132 -1.0000196 -0.053995132
v 0.1922729 -1.0000196 -2.7897
v 0.6071937 -1.0000196 -2.7244616
v 1.3449079 -1.0000196 -2.463115
v 1.9851348 -1.0000196 -1.9980779
v 2.4501283 -1.0000196 -1.3579818
v 2.7073348 -1.0000196 -0.61678123
v 2.7735755 -1.0000196 -0.19466996
v 2.7866495 -1.0000196 -0.053995132
vt -16.29316 -8.361516
vt -14.999312 10.64419
vt -16.010689 -8.380926
vt -14.714289 10.639082
vt -15.728219 -8.401358
vt -14.420581 10.620693
vt -8.347214 10.250877
vt -9.6374855 -8.879974
vt -9.355015 -8.905514
vt -8.053506 10.235043
vt -7.7725677 10.187027
vt -9.072544 -8.931564
vt -7.8895397 10.524664
vt -8.090283 10.94607
vt -6.8674374 9.941845
vt -4.1505117 9.20681
vt 0.5079498 7.0430756
vt 4.4809227 3.8148441
vt -4.028942 9.455566
vt -6.765788 10.222782
vt 0.6616993 7.264761
vt -7.678071 10.478691
vt -3.908905 9.704325
vt -6.6559677 10.501167
vt -7.571314 10.766781
vt -7.827223 10.848509
vt -4.8191442 16.648087
vt -5.077096 16.76455
vt -5.3319836 16.890717
vt -4.945822 16.955078
vt -5.016822 17.140495
vt -4.627596 17.18187
vt -3.8665094 16.262436
vt -4.723114 16.9183
vt -3.7658825 16.531116
vt -3.6672983 16.794685
vt -0.78691864 15.633137
vt -0.894186 15.368544
vt 4.641823 12.738455
vt -1.0080938 15.105484
vt 4.4850082 12.501955
vt 0.81544876 7.485937
vt 9.392738 8.351225
vt 9.601143 8.543795
vt 4.327173 12.268011
vt 4.6770687 3.9987316
vt 9.185867 8.160187
vt 4.8727036 4.182106
vt 13.136875 3.1385498
vt 13.385122 3.2759533
vt 7.4323025 -0.37113094
vt 12.891182 3.0006351
vt 7.8930416 -0.09376907
vt 7.662672 -0.23270416
vt 15.581545 -2.4459848
vt 15.850735 -2.356596
vt 16.81052 -5.3284082
vt 15.314911 -2.541504
vt 9.766642 -4.9866858
vt 16.542355 -5.414222
vt 17.13079 -6.318842
vt 9.50869 -5.0888443
vt 16.276741 -5.496971
vt 16.863132 -6.403634
vt 16.881523 -6.623787
vt 17.05928 -6.7070465
vt 16.785492 -7.0063734
vt 16.597008 -6.482297
vt 10.385727 -7.8476553
vt 16.686398 -6.7402487
vt 10.592089 -8.8013115
vt 10.647255 -9.061817
vt 10.715191 -9.321813
vt 10.328518 -9.096041
vt 10.032255 -9.229359
vt 10.294806 -8.881506
vt 10.098148 -7.9329576
vt 9.994457 -8.947399
vt 9.808527 -8.009067
vt 9.250738 -5.1935577
vt -9.062328 -9.214035
vt -9.053134 -9.495995
vt 10.037363 -9.51234
vt 9.969427 -15.597455
vt -9.283503 -9.267158
vt -9.423972 -9.129242
vt -9.613989 -9.483225
vt -9.33254 -9.4903755
vt -8.988773 -15.618909
vt -9.267668 -15.631167
vt -9.548607 -15.645981
vt -9.213524 -15.853364
vt -9.349907 -15.994855
vt -8.994904 -16.182827
vt -8.991327 -15.900357
vt 9.967384 -15.892695
vt 9.952572 -16.17772
vt 8.852827 -8.815104
vt -9.937323 -8.836556
vt 8.719509 -7.869108
vt 8.319555 -5.0326567
vt 6.526661 0.009923935
vt 3.3413353 4.3843822
vt -1.0392523 7.558981
vt -6.109926 9.312033
vt -8.996946 9.715563
vt -9.959286 9.849901
vn -0.035272162 -0.9993777 -0
vn -0.058721997 -0.99827445 -0
vn -0.7148765 -0.6992508 -0
vn -0.7176335 -0.69410455 -0.056754164
vn -0.9998079 -0.019604087 -0
vn -0.9998079 -0.019604087 -0
vn -0.9998079 0.019604027 -0
vn -0.9998079 0.019604027 -0
vn -0.7148765 0.6992508 -0
vn -0.7176335 0.69410455 -0.056754164
vn -0.058721997 0.99827445 -0
vn -0.035272162 0.9993777 -0
vn -0.57645977 0.57645977 -0.5791272
vn -0.9998079 0.019604027 -0
vn 0.003921509 0.99998116 -0.004721455
vn 0.003921509 0.99998116 -0.004721455
vn 0.003921509 0.99998116 -0.004721455
vn 0.011763935 0.99993086 -0
vn 0.19999623 0.69410455 -0.6915348
vn 0.09803736 0.69410455 -0.71316725
vn 0.34117007 0.68626153 -0.6423769
vn -0.003921509 0.70194757 -0.7122178
vn 0.27058315 0.019607425 -0.96249694
vn 0.13725233 0.019607425 -0.990342
vn -0.003921509 0.011764526 -0.9999231
vn -0.6784185 0.011764526 -0.7345815
vn -0.003921509 -0.019607484 -0.9998001
vn -0.68626153 -0.011764526 -0.7272597
vn -0.9998079 -0.019604087 -0
vn -0.56077373 -0.56077373 -0.6091516
vn -0.7176335 -0.69410455 -0.056754164
vn -0.058721997 -0.99827445 -0
vn 0.13725233 -0.019607484 -0.990342
vn -0.003921509 -0.6862616 -0.7273442
vn 0.09803736 -0.6862616 -0.7207175
vn 0.003921509 -0.99998116 -0.004721455
vn 0.003921509 -0.99998116 -0.004721455
vn 0.19999623 -0.69410455 -0.6915348
vn 0.003921509 -0.99998116 -0.004721455
vn 0.27058315 -0.019607484 -0.96249694
vn 0.34117007 -0.6862616 -0.64237684
vn 0.46665788 0.019607425 -0.88422054
vn 0.51371586 -0.6862616 -0.5149185
vn 0.011763935 -0.99993086 -0
vn 0.46665788 -0.019607484 -0.88422054
vn 0.51371586 0.68626153 -0.51491857
vn 0.7097906 -0.019607484 -0.7041398
vn 0.7097906 0.019607425 -0.7041398
vn 0.63920367 -0.6862616 -0.3470788
vn 0.011763935 -0.99993086 -0
vn 0.011763935 0.99993086 -0
vn 0.8823363 -0.019607484 -0.4702108
vn 0.8823363 0.019607425 -0.4702108
vn 0.63920367 0.68626153 -0.34707895
vn 0.69410455 -0.69410455 -0.19088675
vn 0.011763935 -0.99993086 -0
vn 0.003921509 -0.99998116 -0.004721455
vn 0.9607662 -0.019607484 -0.27666563
vn 0.9607662 0.019607425 -0.27666563
vn 0.7097906 -0.69410455 -0.12006755
vn 0.003921509 -0.99998116 0.004721455
vn 0.69410455 0.69410455 -0.19088675
vn 0.99213815 -0.019607484 -0.12360195
vn 0.7148764 -0.69925076 -0
vn 0.5843027 -0.57645977 0.5712131
vn 0.003921509 -0.69410455 0.71986353
vn 0.003921509 -0.019607484 0.9998001
vn 0.9998079 -0.019604087 -0
vn 0.99213815 0.019607425 -0.12360196
vn 0.7333195 -0.011764526 0.6797824
vn 0.99993086 0.011763935 -0
vn 0.7333195 0.011764526 0.6797824
vn 0.003921509 0.019607425 0.9998001
vn 0.5999887 0.58430266 0.5464467
vn 0.003921509 0.69410455 0.71986353
vn 0.7148764 0.69925076 -0
vn 0.7097906 0.69410455 -0.12006755
vn 0.003921509 0.99998116 0.004721455
vn 0.003921509 0.99998116 -0.004721455
vn 0.011763935 0.99993086 -0
vn -0.003921509 0.7097906 0.70440185
vn -0.003921509 0.019607425 0.9998001
vn 0.003921509 0.019607425 0.9998001
vn 0.003921509 -0.019607484 0.9998001
vn -0.57645977 0.57645977 0.5791272
vn -0.7148765 0.6992508 -0
vn -0.9998079 0.019604027 -0
vn -0.7097906 0.011764526 0.70431453
vn -0.003921509 -0.019607484 0.9998001
vn -0.7097906 -0.011764526 0.70431453
vn -0.9998079 -0.019604087 -0
vn -0.57645977 -0.57645977 0.5791272
vn -0.7148765 -0.6992508 -0
vn -0.035272162 -0.9993777 -0
vn -0.003921509 -0.70194757 0.7122178
vn 0.003921509 -0.69410455 0.71986353
vn 0.003921509 -0.99998116 0.004721455
vn -0.058721997 -0.99827445 -0
vn -0.035272162 -0.9993777 -0
vn 0.003921509 -0.99998116 -0.004721455
vn 0.003921509 -0.99998116 -0.004721455
vn 0.003921509 -0.99998116 -0.004721455
vn 0.011763935 -0.99993086 -0
vn 0.011763935 -0.99993086 -0
vn 0.011763935 -0.99993086 -0
vn 0.003921509 -0.99998116 -0.004721455
vn 0.003921509 -0.99998116 0.004721455
g ENV_CornerTaperWall_HP_MO_0
f 3/3/3 2/2/2 1/1/1
f 3/3/3 4/4/4 2/2/2
f 5/5/5 4/4/4 3/3/3
f 5/5/5 6/6/6 4/4/4
f 5/5/5 7/7/7 6/6/6
f 5/5/5 8/8/8 7/7/7
f 9/9/9 7/7/7 8/8/8
f 9/9/9 10/10/10 7/7/7
f 11/11/11 10/10/10 9/9/9
f 11/11/11 9/9/9 12/12/12
f 11/11/11 13/13/13 10/10/10
f 14/14/14 10/10/10 13/13/13
f 12/12/12 15/15/15 11/11/11
f 16/16/16 15/15/15 12/12/12
f 12/12/12 17/17/17 16/16/16
f 12/12/12 18/18/18 17/17/17
f 15/15/15 16/16/16 19/19/19
f 17/17/17 19/19/19 16/16/16
f 11/11/11 15/15/15 20/20/20
f 15/15/15 19/19/19 20/20/20
f 17/17/17 21/21/21 19/19/19
f 18/18/18 21/21/21 17/17/17
f 11/11/11 22/22/22 13/13/13
f 11/11/11 20/20/20 22/22/22
f 20/20/20 19/19/19 23/23/23
f 21/21/21 23/23/23 19/19/19
f 22/22/22 20/20/20 24/24/24
f 20/20/20 23/23/23 24/24/24
f 25/25/25 13/13/13 22/22/22
f 22/22/22 24/24/24 25/25/25
f 14/14/14 13/13/13 26/26/26
f 25/25/25 26/26/26 13/13/13
f 24/24/24 27/27/27 25/25/25
f 27/27/27 26/26/26 25/25/25
f 28/28/28 14/14/14 26/26/26
f 27/27/27 28/28/28 26/26/26
f 28/28/28 29/29/29 14/14/14
f 29/29/29 28/28/28 30/30/30
f 27/27/27 30/30/30 28/28/28
f 29/29/29 30/30/30 31/31/31
f 32/32/32 31/31/31 30/30/30
f 24/24/24 33/33/33 27/27/27
f 23/23/23 33/33/33 24/24/24
f 27/27/27 34/34/34 30/30/30
f 32/32/32 30/30/30 34/34/34
f 33/33/33 34/34/34 27/27/27
f 35/35/35 32/32/32 34/34/34
f 33/33/33 35/35/35 34/34/34
f 35/35/35 36/36/36 32/32/32
f 35/35/35 37/37/37 36/36/36
f 35/35/35 38/38/38 37/37/37
f 33/33/33 38/38/38 35/35/35
f 39/39/39 37/37/37 38/38/38
f 23/23/23 40/40/40 33/33/33
f 33/33/33 40/40/40 38/38/38
f 39/39/39 38/38/38 41/41/41
f 41/41/41 38/38/38 40/40/40
f 40/40/40 23/23/23 42/42/42
f 21/21/21 42/42/42 23/23/23
f 43/43/43 39/39/39 41/41/41
f 43/43/43 44/44/44 39/39/39
f 41/41/41 40/40/40 45/45/45
f 40/40/40 42/42/42 45/45/45
f 46/46/46 42/42/42 21/21/21
f 18/18/18 46/46/46 21/21/21
f 41/41/41 45/45/45 47/47/47
f 41/41/41 47/47/47 43/43/43
f 45/45/45 42/42/42 48/48/48
f 46/46/46 48/48/48 42/42/42
f 45/45/45 48/48/48 47/47/47
f 49/49/49 44/44/44 43/43/43
f 49/49/49 50/50/50 44/44/44
f 46/46/46 18/18/18 51/51/51
f 12/12/12 51/51/51 18/18/18
f 43/43/43 47/47/47 52/52/52
f 43/43/43 52/52/52 49/49/49
f 47/47/47 48/48/48 53/53/53
f 47/47/47 53/53/53 52/52/52
f 54/54/54 48/48/48 46/46/46
f 54/54/54 53/53/53 48/48/48
f 46/46/46 51/51/51 54/54/54
f 50/50/50 49/49/49 55/55/55
f 50/50/50 55/55/55 56/56/56
f 57/57/57 56/56/56 55/55/55
f 49/49/49 52/52/52 58/58/58
f 49/49/49 58/58/58 55/55/55
f 52/52/52 53/53/53 59/59/59
f 54/54/54 59/59/59 53/53/53
f 52/52/52 59/59/59 58/58/58
f 57/57/57 55/55/55 60/60/60
f 60/60/60 55/55/55 58/58/58
f 61/61/61 57/57/57 60/60/60
f 51/51/51 62/62/62 54/54/54
f 54/54/54 62/62/62 59/59/59
f 60/60/60 58/58/58 63/63/63
f 63/63/63 58/58/58 59/59/59
f 61/61/61 60/60/60 64/64/64
f 64/64/64 60/60/60 63/63/63
f 61/61/61 64/64/64 65/65/65
f 61/61/61 65/65/65 66/66/66
f 67/67/67 66/66/66 65/65/65
f 68/68/68 65/65/65 64/64/64
f 64/64/64 63/63/63 68/68/68
f 63/63/63 59/59/59 69/69/69
f 69/69/69 59/59/59 62/62/62
f 67/67/67 65/65/65 70/70/70
f 68/68/68 70/70/70 65/65/65
f 63/63/63 71/71/71 68/68/68
f 70/70/70 68/68/68 71/71/71
f 63/63/63 69/69/69 71/71/71
f 67/67/67 70/70/70 72/72/72
f 70/70/70 71/71/71 72/72/72
f 67/67/67 72/72/72 73/73/73
f 73/73/73 72/72/72 74/74/74
f 71/71/71 74/74/74 72/72/72
f 73/73/73 74/74/74 75/75/75
f 69/69/69 76/76/76 71/71/71
f 71/71/71 76/76/76 74/74/74
f 69/69/69 77/77/77 76/76/76
f 69/69/69 62/62/62 77/77/77
f 78/78/78 74/74/74 76/76/76
f 77/77/77 78/78/78 76/76/76
f 78/78/78 75/75/75 74/74/74
f 79/79/79 77/77/77 62/62/62
f 77/77/77 79/79/79 78/78/78
f 79/79/79 62/62/62 80/80/80
f 51/51/51 80/80/80 62/62/62
f 12/12/12 80/80/80 51/51/51
f 12/12/12 79/79/79 80/80/80
f 79/79/79 12/12/12 78/78/78
f 81/81/81 75/75/75 78/78/78
f 81/81/81 78/78/78 12/12/12
f 82/82/82 75/75/75 81/81/81
f 82/82/82 83/83/83 75/75/75
f 82/82/82 84/84/84 83/83/83
f 12/12/12 85/85/85 81/81/81
f 82/82/82 81/81/81 85/85/85
f 12/12/12 86/86/86 85/85/85
f 87/87/87 85/85/85 86/86/86
f 82/82/82 85/85/85 88/88/88
f 87/87/87 88/88/88 85/85/85
f 82/82/82 89/89/89 84/84/84
f 88/88/88 89/89/89 82/82/82
f 87/87/87 90/90/90 88/88/88
f 88/88/88 90/90/90 89/89/89
f 87/87/87 91/91/91 90/90/90
f 91/91/91 92/92/92 90/90/90
f 89/89/89 90/90/90 92/92/92
f 91/91/91 93/93/93 92/92/92
f 94/94/94 92/92/92 93/93/93
f 95/95/95 84/84/84 89/89/89
f 89/89/89 92/92/92 95/95/95
f 94/94/94 95/95/95 92/92/92
f 95/95/95 96/96/96 84/84/84
f 97/97/97 95/95/95 94/94/94
f 97/97/97 96/96/96 95/95/95
f 100/100/100 99/99/99 98/98/98
f 100/100/100 101/101/101 99/99/99
f 101/101/101 102/102/102 99/99/99
f 102/102/102 103/103/103 99/99/99
f 103/103/103 104/104/104 99/99/99
f 104/104/104 105/105/105 99/99/99
f 105/105/105 106/106/106 99/99/99
f 99/99/99 106/106/106 107/107/107
