g ENV_S04_TC_BatterySection_HardPlastic_MO
v 539.5094 -75.00345 200.00073
v 546.92834 64.49603 196.92908
v 546.92834 -75.00345 196.92908
v 539.5094 64.49603 200.00073
v 539.5094 71.93176 196.92908
v 545.5688 70.55542 195.55273
v -539.5094 71.93176 196.92908
v -539.5094 64.49603 200.00073
v -539.5094 -75.00345 200.00073
v -546.92834 -75.00345 196.92908
v -546.92834 64.49603 196.92908
v -545.5687 70.55542 195.55273
v -546.92834 64.49603 196.92908
v -546.92834 -75.00345 196.92908
v -550 -75.00345 189.49341
v -550 64.49603 189.49341
v -546.92834 71.93176 189.49341
v -545.5687 70.55542 195.55273
v -546.92834 71.93176 -189.49341
v -550 64.49603 -189.49341
v -550 -75.00345 -189.49341
v -546.92834 -75.00345 -196.92914
v -546.92834 64.49603 -196.92914
v -545.5687 70.55542 -195.55276
v -546.92834 64.49603 -196.92914
v -546.92834 -75.00345 -196.92914
v -539.5094 -75.00345 -200.00076
v -539.5094 64.49603 -200.00076
v -539.5094 71.93176 -196.92914
v -545.5687 70.55542 -195.55276
v 539.5094 71.93176 -196.92914
v 539.5094 64.49603 -200.00076
v 539.5094 -75.00345 -200.00076
v 546.92834 -75.00345 -196.92914
v 546.92834 64.49603 -196.92914
v 545.5688 70.55542 -195.55276
v 546.92834 64.49603 -196.92914
v 546.92834 -75.00345 -196.92914
v 550 -75.00345 -189.49341
v 550 64.49603 -189.49341
v 546.92834 71.93176 -189.49341
v 545.5688 70.55542 -195.55276
v 546.92834 71.93176 189.49341
v 550 64.49603 189.49341
v 550 -75.00345 189.49341
v 546.92834 -75.00345 196.92908
v 546.92834 64.49603 196.92908
v 545.5688 70.55542 195.55273
v 546.92834 71.93176 189.49341
v 545.5688 70.55542 195.55273
v 539.5094 71.93176 196.92908
v 539.5094 75.00342 189.49341
v 546.92834 71.93176 -189.49341
v -539.5094 75.00342 189.49341
v -539.5094 71.93176 196.92908
v 539.5094 75.00342 -189.49341
v -546.92834 71.93176 189.49341
v -545.5687 70.55542 195.55273
v -539.5094 75.00342 -189.49341
v -546.92834 71.93176 -189.49341
v -539.5094 71.93176 -196.92914
v -545.5687 70.55542 -195.55276
v 539.5094 71.93176 -196.92914
v 545.5688 70.55542 -195.55276
v 494.81116 75.00342 140.98492
v -494.81116 75.00342 140.98492
v -494.81116 75.00342 -140.98499
v 494.81116 75.00342 -140.98499
v -518.89746 75.00342 -165.07135
v -494.81116 75.00342 140.98492
v -518.89746 75.00342 165.07129
v -494.81116 75.00342 -140.98499
v 494.81116 75.00342 140.98492
v 518.8975 75.00342 -165.07135
v 518.8975 75.00342 165.07129
v 494.81116 75.00342 -140.98499
v -539.5094 75.00342 -189.49341
v -518.89746 75.00342 -165.07135
v -518.89746 75.00342 165.07129
v -539.5094 75.00342 189.49341
v 539.5094 75.00342 -189.49341
v 518.8975 75.00342 165.07129
v 518.8975 75.00342 -165.07135
v 539.5094 75.00342 189.49341
vt 0.84794044 0.2782459
vt 0.8523295 0.3686597
vt 0.8532073 0.27912372
vt 0.84794044 0.36778188
vt 0.84706265 0.37304872
vt 0.8514517 0.37392652
vt 0.15271999 0.37304872
vt 0.15271999 0.36778188
vt 0.15184219 0.2773681
vt 0.14657536 0.2773681
vt 0.14745316 0.3686597
vt 0.14833097 0.37304872
vt 0.14306414 0.37304872
vt 0.05440598 0.3721709
vt 0.053528175 0.37743774
vt 0.14218634 0.37743774
vt 0.14745316 0.37831554
vt 0.14833097 0.37304872
vt 0.14745316 0.6223449
vt 0.14218634 0.6223449
vt 0.050894763 0.6223449
vt 0.05177257 0.62673396
vt 0.14306414 0.62761176
vt 0.14833097 0.62673396
vt 0.14745316 0.63112295
vt 0.14657536 0.72153676
vt 0.15184219 0.72153676
vt 0.15271999 0.63200074
vt 0.15271999 0.62673396
vt 0.14833097 0.62673396
vt 0.84706265 0.62673396
vt 0.84794044 0.63200074
vt 0.84794044 0.72329235
vt 0.8532073 0.72241455
vt 0.8523295 0.63112295
vt 0.8514517 0.62673396
vt 0.8567185 0.62761176
vt 0.9462545 0.62673396
vt 0.9462545 0.6214671
vt 0.8575963 0.6223449
vt 0.8523295 0.6223449
vt 0.8514517 0.62673396
vt 0.8523295 0.37831554
vt 0.8575963 0.37743774
vt 0.9488879 0.37831554
vt 0.9480101 0.37392652
vt 0.8567185 0.37304872
vt 0.8514517 0.37392652
vt 0.8523295 0.37831554
vt 0.8514517 0.37392652
vt 0.84706265 0.37304872
vt 0.84706265 0.37831554
vt 0.8523295 0.6223449
vt 0.15271999 0.37831554
vt 0.15271999 0.37304872
vt 0.84706265 0.6223449
vt 0.14745316 0.37831554
vt 0.14833097 0.37304872
vt 0.15271999 0.6214671
vt 0.14745316 0.6223449
vt 0.15271999 0.62673396
vt 0.14833097 0.62673396
vt 0.84706265 0.62673396
vt 0.8514517 0.62673396
vt 0.81897295 0.40903866
vt 0.18168752 0.40903866
vt 0.18168752 0.590744
vt 0.81897295 0.590744
vt 0.16588704 0.60654444
vt 0.18168752 0.40903866
vt 0.16588704 0.3932382
vt 0.18168752 0.590744
vt 0.81897295 0.40903866
vt 0.8338956 0.60654444
vt 0.8338956 0.394116
vt 0.81897295 0.590744
vt 0.15271999 0.6214671
vt 0.16588704 0.60654444
vt 0.16588704 0.3932382
vt 0.15271999 0.37831554
vt 0.84706265 0.6223449
vt 0.8338956 0.394116
vt 0.8338956 0.60654444
vt 0.84706265 0.37831554
vn 0.003909588 -0.003909588 0.99998474
vn 0.7097781 0.011776328 0.7043269
vn 0.7097781 -0.003909588 0.70441455
vn 0.003909588 0.019619346 0.9997999
vn 0.003909588 0.7098018 0.70439065
vn 0.57644737 0.5764711 0.5791282
vn -0.0039334297 0.7098018 0.70439047
vn -0.0039334297 0.019619346 0.9997998
vn -0.0039334297 -0.003909588 0.9999846
vn -0.7098018 -0.003909588 0.70439065
vn -0.7098018 0.011776328 0.704303
vn -0.5764711 0.5764711 0.5791046
vn -0.7098018 0.011776328 0.704303
vn -0.7098018 -0.003909588 0.70439065
vn -0.99999225 -0.003909588 -0.00046079347
vn -0.99980766 0.019615725 -0
vn -0.70710677 0.70710677 -0
vn -0.5764711 0.5764711 0.5791046
vn -0.70710677 0.70710677 -0
vn -0.99980766 0.019615725 -0
vn -0.99999225 -0.003909588 -0.00046079347
vn -0.7098018 -0.003909588 -0.70439065
vn -0.7098018 0.011776328 -0.704303
vn -0.5764711 0.5764711 -0.5791046
vn -0.7098018 0.011776328 -0.704303
vn -0.7098018 -0.003909588 -0.70439065
vn -0.0039334297 -0.003909588 -0.9999846
vn -0.0039334297 0.019619346 -0.9997998
vn -0.0039334297 0.7098018 -0.70439047
vn -0.5764711 0.5764711 -0.5791046
vn 0.003909588 0.7098018 -0.70439065
vn 0.003909588 0.019619346 -0.9997999
vn 0.003909588 -0.003909588 -0.99998474
vn 0.7097781 -0.003909588 -0.70441455
vn 0.7097781 0.011776328 -0.7043269
vn 0.57644737 0.5764711 -0.5791282
vn 0.7097781 0.011776328 -0.7043269
vn 0.7097781 -0.003909588 -0.70441455
vn 0.9999684 -0.003909588 -0.006920697
vn 0.9998076 0.01961619 -0
vn 0.70709497 0.70711863 -0
vn 0.57644737 0.5764711 -0.5791282
vn 0.70709497 0.70711863 -0
vn 0.9998076 0.01961619 -0
vn 0.9999684 -0.003909588 0.006920697
vn 0.7097781 -0.003909588 0.70441455
vn 0.7097781 0.011776328 0.7043269
vn 0.57644737 0.5764711 0.5791282
vn 0.70709497 0.70711863 -0
vn 0.57644737 0.5764711 0.5791282
vn 0.003909588 0.7098018 0.70439065
vn 0.10586834 0.95293427 0.2840918
vn 0.70709497 0.70711863 -0
vn -0.10589218 0.95293427 0.2840829
vn -0.0039334297 0.7098018 0.70439047
vn 0.10586834 0.95293427 -0.2840918
vn -0.70710677 0.70710677 -0
vn -0.5764711 0.5764711 0.5791046
vn -0.10589218 0.95293427 -0.2840829
vn -0.70710677 0.70710677 -0
vn -0.0039334297 0.7098018 -0.70439047
vn -0.5764711 0.5764711 -0.5791046
vn 0.003909588 0.7098018 -0.70439065
vn 0.57644737 0.5764711 -0.5791282
vn 0.003909588 0.99999225 -0.00048828125
vn 0.003909588 0.99999225 -0.00048828125
vn 0.003909588 0.99999225 -0.00048828125
vn 0.003909588 0.99999225 -0.00048828125
vn 0.003909588 0.99999225 -0.00048828125
vn 0.003909588 0.99999225 -0.00048828125
vn 0.003909588 0.99999225 -0.00048828125
vn 0.003909588 0.99999225 -0.00048828125
vn 0.003909588 0.99999225 -0.00048828125
vn 0.003909588 0.99999225 -0.00048828125
vn 0.003909588 0.99999225 -0.00048828125
vn 0.003909588 0.99999225 -0.00048828125
vn 0.003909588 0.99999225 -0.00048828125
vn 0.003909588 0.99999225 -0.00048828125
vn 0.003909588 0.99999225 -0.00048828125
vn 0.003909588 0.99999225 -0.00048828125
vn 0.003909588 0.99999225 -0.00048828125
vn 0.003909588 0.99999225 -0.00048828125
vn 0.003909588 0.99999225 -0.00048828125
vn 0.003909588 0.99999225 -0.00048828125
g ENV_S04_TC_BatterySection_HardPlastic_MO_0
f 3/3/3 2/2/2 1/1/1
f 2/2/2 4/4/4 1/1/1
f 4/4/4 2/2/2 5/5/5
f 2/2/2 6/6/6 5/5/5
f 5/5/5 7/7/7 4/4/4
f 4/4/4 8/8/8 1/1/1
f 7/7/7 8/8/8 4/4/4
f 8/8/8 9/9/9 1/1/1
f 10/10/10 9/9/9 8/8/8
f 11/11/11 10/10/10 8/8/8
f 8/8/8 7/7/7 11/11/11
f 7/7/7 12/12/12 11/11/11
f 15/15/15 14/14/14 13/13/13
f 16/16/16 15/15/15 13/13/13
f 16/16/16 13/13/13 17/17/17
f 13/13/13 18/18/18 17/17/17
f 17/17/17 19/19/19 16/16/16
f 16/16/16 20/20/20 15/15/15
f 19/19/19 20/20/20 16/16/16
f 20/20/20 21/21/21 15/15/15
f 22/22/22 21/21/21 20/20/20
f 23/23/23 22/22/22 20/20/20
f 20/20/20 19/19/19 23/23/23
f 19/19/19 24/24/24 23/23/23
f 27/27/27 26/26/26 25/25/25
f 28/28/28 27/27/27 25/25/25
f 28/28/28 25/25/25 29/29/29
f 25/25/25 30/30/30 29/29/29
f 29/29/29 31/31/31 28/28/28
f 28/28/28 32/32/32 27/27/27
f 31/31/31 32/32/32 28/28/28
f 32/32/32 33/33/33 27/27/27
f 34/34/34 33/33/33 32/32/32
f 35/35/35 34/34/34 32/32/32
f 32/32/32 31/31/31 35/35/35
f 31/31/31 36/36/36 35/35/35
f 39/39/39 38/38/38 37/37/37
f 40/40/40 39/39/39 37/37/37
f 40/40/40 37/37/37 41/41/41
f 37/37/37 42/42/42 41/41/41
f 40/40/40 41/41/41 43/43/43
f 40/40/40 44/44/44 39/39/39
f 44/44/44 40/40/40 43/43/43
f 44/44/44 45/45/45 39/39/39
f 45/45/45 44/44/44 46/46/46
f 44/44/44 47/47/47 46/46/46
f 44/44/44 43/43/43 47/47/47
f 43/43/43 48/48/48 47/47/47
f 51/51/51 50/50/50 49/49/49
f 52/52/52 51/51/51 49/49/49
f 49/49/49 53/53/53 52/52/52
f 52/52/52 54/54/54 51/51/51
f 54/54/54 55/55/55 51/51/51
f 53/53/53 56/56/56 52/52/52
f 54/54/54 57/57/57 55/55/55
f 57/57/57 58/58/58 55/55/55
f 54/54/54 59/59/59 57/57/57
f 59/59/59 60/60/60 57/57/57
f 59/59/59 61/61/61 60/60/60
f 59/59/59 56/56/56 61/61/61
f 61/61/61 62/62/62 60/60/60
f 56/56/56 63/63/63 61/61/61
f 56/56/56 53/53/53 63/63/63
f 53/53/53 64/64/64 63/63/63
f 67/67/67 66/66/66 65/65/65
f 68/68/68 67/67/67 65/65/65
f 71/71/71 70/70/70 69/69/69
f 70/70/70 72/72/72 69/69/69
f 73/73/73 70/70/70 71/71/71
f 69/69/69 72/72/72 74/74/74
f 75/75/75 73/73/73 71/71/71
f 72/72/72 76/76/76 74/74/74
f 76/76/76 73/73/73 75/75/75
f 74/74/74 76/76/76 75/75/75
f 79/79/79 78/78/78 77/77/77
f 80/80/80 79/79/79 77/77/77
f 77/77/77 78/78/78 81/81/81
f 82/82/82 79/79/79 80/80/80
f 78/78/78 83/83/83 81/81/81
f 84/84/84 82/82/82 80/80/80
f 81/81/81 83/83/83 84/84/84
f 83/83/83 82/82/82 84/84/84
