g ENV_S05_PPP_SmallSlideDrain_MO
v -1.8077333 0.16724563 -0.124308825
v -1.8435371 0.15946221 -0.38550782
v -1.3409221 0.107637405 -0.44816434
v -1.313745 0.11159396 -0.1851492
v -1.769335 0.17554784 0.1555705
v -0.8197565 0.055942535 -0.2459898
v -0.838372 0.055812836 -0.51088583
v -0.3017044 0.010344505 -0.54610586
v -1.284622 0.115810156 0.09667587
v -1.7373583 0.18242335 0.38874912
v -1.2602987 0.119312525 0.33154082
v -0.7833042 0.056266785 0.27433252
v -0.7999089 0.056137085 0.03784609
v -0.29210472 0.0119662285 -0.27965307
v 0.28185844 -0.01397872 -0.5603106
v -0.28185654 0.013782263 0.005934
v -0.27322984 0.015274048 0.24384761
v 0.28185844 -0.01391387 -0.29269028
v 0.8653563 0.010344505 -0.54610586
v 0.28185844 -0.01378417 -0.005870819
v 0.28185844 -0.01371932 0.23308039
v 0.85575676 0.0119662285 -0.27958822
v 1.4020239 0.055812836 -0.51088583
v 0.8455086 0.013782263 0.005934
v 0.8368819 0.015274048 0.24384761
v 1.3834085 0.055942535 -0.2459898
v 1.3635608 0.056137085 0.03784609
v 1.3469561 0.056266785 0.27433252
v 1.8239508 0.119312525 0.33154082
v 1.877397 0.11159396 -0.1851492
v 1.9045742 0.107637405 -0.44816434
v 2.4071891 0.15946221 -0.38550782
v 2.3713853 0.16724563 -0.124308825
v 1.848274 0.115810156 0.09667587
v 2.332987 0.17554784 0.1555705
v 2.3010101 0.18242335 0.38874912
vt -0.97408754 0.6630956
vt -0.97408754 0.9892391
vt -0.62423754 0.9892391
vt -0.62423754 0.6630956
vt -0.97408754 0.3139639
vt -0.27438754 0.6630956
vt -0.27438754 0.9892391
vt 0.09701383 0.9892391
vt -0.62423754 0.3139639
vt -0.97408754 0.022302508
vt -0.62423754 0.022302508
vt -0.27438754 0.022302508
vt -0.27438754 0.3139639
vt 0.09701383 0.6630956
vt 0.5000237 0.9892391
vt 0.09701383 0.3139639
vt 0.09701383 0.022302508
vt 0.5000237 0.6630956
vt 0.9023154 0.9892391
vt 0.5000237 0.3139639
vt 0.5000237 0.022302508
vt 0.9023154 0.6630956
vt 1.2722799 0.9892391
vt 0.9023154 0.3139639
vt 0.9023154 0.022302508
vt 1.2722799 0.6630956
vt 1.2722799 0.3139639
vt 1.2722799 0.022302508
vt 1.618538 0.022302508
vt 1.618538 0.6630956
vt 1.618538 0.9892391
vt 1.9655145 0.9892391
vt 1.9655145 0.6630956
vt 1.618538 0.3139639
vt 1.9655145 0.3139639
vt 1.9655145 0.022302508
vn 0.105574846 0.9944113 -0
vn 0.10122096 0.994864 -0
vn 0.105574846 0.9944113 -0
vn 0.10992269 0.9939402 -0
vn 0.118915044 0.9911813 -0.058470532
vn 0.096861236 0.99529785 -0
vn 0.092484176 0.99558645 -0.015945952
vn 0.061531864 0.9981051 -0
vn 0.118915044 0.9911813 -0.058470532
vn 0.096861236 0.99529785 -0
vn 0.123320185 0.9911813 -0.048494343
vn 0.092484176 0.99558645 -0.015945952
vn 0.10122096 0.994864 -0
vn 0.061531864 0.9981051 -0
vn -2.3856759E-05 0.9999916 -0.0040998184
vn 0.06591023 0.9978255 -0
vn 0.061531864 0.9981051 -0
vn -2.3856759E-05 0.9999916 -0.0040998184
vn -0.061579302 0.99810225 -0
vn -2.3856759E-05 0.9999916 -0.0040998184
vn -2.3856759E-05 0.9999916 -0.0040998184
vn -0.061579302 0.99810225 -0
vn -0.09253188 0.99558645 -0.015666906
vn -0.065957636 0.9978224 -0
vn -0.061579302 0.99810225 -0
vn -0.09690847 0.99529326 -0
vn -0.101268135 0.9948592 -0
vn -0.09253188 0.99558645 -0.015666906
vn -0.1233679 0.9911813 -0.048373125
vn -0.10996974 0.993935 -0
vn -0.10562198 0.9944064 -0
vn -0.101268135 0.9948592 -0
vn -0.10562198 0.9944064 -0
vn -0.11896274 0.9911813 -0.05837361
vn -0.11896274 0.9911813 -0.05837361
vn -0.09690847 0.99529326 -0
g ENV_S05_PPP_SmallSlideDrain_MO_0
f 3/3/3 2/2/2 1/1/1
f 4/4/4 3/3/3 1/1/1
f 4/4/4 1/1/1 5/5/5
f 4/4/4 6/6/6 3/3/3
f 6/6/6 7/7/7 3/3/3
f 8/8/8 7/7/7 6/6/6
f 9/9/9 4/4/4 5/5/5
f 9/9/9 5/5/5 10/10/10
f 11/11/11 9/9/9 10/10/10
f 11/11/11 12/12/12 9/9/9
f 9/9/9 13/13/13 4/4/4
f 13/13/13 6/6/6 4/4/4
f 12/12/12 13/13/13 9/9/9
f 14/14/14 8/8/8 6/6/6
f 14/14/14 6/6/6 13/13/13
f 15/15/15 8/8/8 14/14/14
f 16/16/16 13/13/13 12/12/12
f 16/16/16 14/14/14 13/13/13
f 17/17/17 16/16/16 12/12/12
f 18/18/18 15/15/15 14/14/14
f 18/18/18 14/14/14 16/16/16
f 19/19/19 15/15/15 18/18/18
f 20/20/20 16/16/16 17/17/17
f 20/20/20 18/18/18 16/16/16
f 21/21/21 20/20/20 17/17/17
f 22/22/22 19/19/19 18/18/18
f 22/22/22 18/18/18 20/20/20
f 23/23/23 19/19/19 22/22/22
f 24/24/24 20/20/20 21/21/21
f 24/24/24 22/22/22 20/20/20
f 25/25/25 24/24/24 21/21/21
f 26/26/26 23/23/23 22/22/22
f 26/26/26 22/22/22 24/24/24
f 27/27/27 24/24/24 25/25/25
f 27/27/27 26/26/26 24/24/24
f 28/28/28 27/27/27 25/25/25
f 27/27/27 28/28/28 29/29/29
f 23/23/23 26/26/26 30/30/30
f 31/31/31 23/23/23 30/30/30
f 31/31/31 30/30/30 32/32/32
f 30/30/30 33/33/33 32/32/32
f 26/26/26 27/27/27 34/34/34
f 30/30/30 26/26/26 34/34/34
f 30/30/30 34/34/34 33/33/33
f 34/34/34 27/27/27 29/29/29
f 34/34/34 35/35/35 33/33/33
f 34/34/34 29/29/29 35/35/35
f 29/29/29 36/36/36 35/35/35
