g ENV_PushPullBlock02_MO
v -1.9999716 -2.670288E-05 2.0257213
v -1.9999716 4.022766 2.0257213
v 2.000025 3.9999702 2.0257213
v 2.000025 -2.670288E-05 2.0257213
v -1.9999716 4.022766 2.0257213
v -1.9999716 4.022766 -2.0256827
v 2.000025 4.022766 -2.0256827
v 2.000025 3.9999702 2.0257213
v -1.9999716 4.022766 -2.0256827
v -1.9999716 -2.670288E-05 -2.0256827
v 2.000025 -2.670288E-05 -2.0256827
v 2.000025 4.022766 -2.0256827
v -1.9999716 -2.670288E-05 -2.0256827
v -1.9999716 -2.670288E-05 2.0257213
v 2.000025 -2.670288E-05 2.0257213
v 2.000025 -2.670288E-05 -2.0256827
v 2.000025 -2.670288E-05 2.0257213
v 2.000025 3.9999702 2.0257213
v 2.000025 4.022766 -2.0256827
v 2.000025 -2.670288E-05 -2.0256827
v -1.9999716 -2.670288E-05 -2.0256827
v -1.9999716 4.022766 -2.0256827
v -1.9999716 4.022766 2.0257213
v -1.9999716 -2.670288E-05 2.0257213
vt -3.0002043 9.727478E-05
vt -3.0002043 4.0227556
vt 0.9999087 4.00021
vt 0.9999087 9.727478E-05
vt -3.0002043 9.727478E-05
vt -3.0002043 4.0513716
vt 0.9999087 4.0513716
vt 0.9999087 9.727478E-05
vt -3.0002043 -3.02275
vt -3.0002043 0.9999087
vt 0.9999087 0.9999087
vt 0.9999087 -3.02275
vt -3.0002043 -3.0513656
vt -3.0002043 0.9999087
vt 0.9999087 0.9999087
vt 0.9999087 -3.0513656
vt 9.727478E-05 9.727478E-05
vt 9.727478E-05 4.00021
vt 4.0513716 4.0227556
vt 4.0513716 9.727478E-05
vt -3.0513656 9.727478E-05
vt -3.0513656 4.0227556
vt 0.9999087 4.0227556
vt 0.9999087 9.727478E-05
vn -0.003921509 0.003921509 0.9999846
vn -0.003921509 0.003921509 0.9999846
vn -0.003921509 0.003921509 0.9999846
vn -0.003921509 0.003921509 0.9999846
vn 0.0039215684 0.99999225 -0.00034526698
vn 0.0039215684 0.99999225 -0.00034526698
vn 0.0039215684 0.99999225 -0.00034526698
vn 0.0039215684 0.99999225 -0.00034526698
vn -0.003921509 0.003921509 -0.9999846
vn -0.003921509 0.003921509 -0.9999846
vn -0.003921509 0.003921509 -0.9999846
vn -0.003921509 0.003921509 -0.9999846
vn -0.003921509 -0.9999924 -0
vn -0.003921509 -0.9999924 -0
vn -0.003921509 -0.9999924 -0
vn -0.003921509 -0.9999924 -0
vn 0.9999924 0.003921509 -0
vn 0.9999924 0.003921509 -0
vn 0.9999924 0.003921509 -0
vn 0.9999924 0.003921509 -0
vn -0.99999225 0.003921509 -0.00034492963
vn -0.99999225 0.003921509 -0.00034492963
vn -0.99999225 0.003921509 -0.00034492963
vn -0.99999225 0.003921509 -0.00034492963
g ENV_PushPullBlock02_MO_0
f 3/3/3 2/2/2 1/1/1
f 4/4/4 3/3/3 1/1/1
f 7/7/7 6/6/6 5/5/5
f 8/8/8 7/7/7 5/5/5
f 11/11/11 10/10/10 9/9/9
f 12/12/12 11/11/11 9/9/9
f 15/15/15 14/14/14 13/13/13
f 16/16/16 15/15/15 13/13/13
f 19/19/19 18/18/18 17/17/17
f 20/20/20 19/19/19 17/17/17
f 23/23/23 22/22/22 21/21/21
f 24/24/24 23/23/23 21/21/21
