g ENV_S09_Coral_Stem_Piece_01c_MO
v 3.992782 0.7312927 2.3052046
v 2.6493447 -1.2207031E-06 9.366637E-06
v 2.2943447 -1.2207031E-06 1.3247359
v 4.6104383 0.7312927 9.366637E-06
v 2.2943447 -1.2207031E-06 -1.3248345
v 5.0515323 2.5468543 2.9165719
v 3.992782 0.7312927 -2.305303
v 1.3246572 -1.2207031E-06 -2.294483
v 5.833094 2.5468543 9.366637E-06
v 2.305126 0.73128784 -3.992842
v -0.00018650392 -1.2207031E-06 -2.6495218
v 5.8282504 10.13143 9.366637E-06
v 5.047313 10.13143 2.914111
v 4.225282 17.246658 2.4395015
v 5.0515323 2.5468543 -2.916553
v -0.00018650392 0.73128784 -4.61042
v -1.3248739 -1.2207031E-06 -2.294483
v 4.8788757 17.246658 9.366637E-06
v 3.747001 18.890545 2.1635249
v 2.9165323 2.5468445 -5.0517483
v -2.3054988 0.73128784 -3.992842
v -2.2947176 -1.2207031E-06 -1.3248345
v 5.047313 10.13143 -2.9141312
v 4.3268447 18.890545 9.366637E-06
v 2.9934072 19.486885 1.7282906
v 3.456376 19.486885 9.366637E-06
v 4.225282 17.246666 -2.439483
v 3.747001 18.890545 -2.1635063
v 2.9934072 19.486885 -1.728311
v 2.9141884 10.13143 -5.0475683
v 2.4393446 17.246658 -4.225264
v 2.1634073 18.890545 -3.747217
v 1.7280947 19.486885 -2.993467
v -0.00018650392 10.13143 -5.828389
v -0.00018650392 18.890545 -4.32667
v -0.00018650392 19.486885 -3.456592
v -0.00018650392 17.246666 -4.878975
v -0.00018650392 2.5468445 -5.833311
v -2.1636238 18.890545 -3.747217
v -1.7284677 19.486885 -2.993467
v -2.914249 10.13143 -5.0475683
v -2.4395614 17.246658 -4.225264
v -2.916749 2.5468445 -5.0517483
v -3.7473738 18.890545 -2.1635063
v -2.993624 19.486885 -1.728311
v -5.0476866 10.13143 -2.9141312
v -4.2254987 17.246656 -2.439483
v -3.9929988 0.73128784 -2.305303
v -2.6495614 -1.2207031E-06 9.366637E-06
v -4.327061 18.890545 9.366637E-06
v -3.456749 19.486885 9.366637E-06
v -4.8790927 17.246656 9.366637E-06
v -5.828468 10.13143 9.366637E-06
v -5.0517488 2.5468445 -2.916553
v -4.6106553 0.73128784 9.366637E-06
v -2.2947176 -1.2207031E-06 1.3247359
v -3.7473738 18.890545 2.1635249
v -2.993624 19.486885 1.7282906
v -4.2254987 17.246658 2.4395015
v -5.0476866 10.13143 2.914111
v -5.8333116 2.5468445 9.366637E-06
v -3.9929988 0.7312927 2.3052046
v -1.3248739 -1.2207031E-06 2.2944624
v -2.1636238 18.890545 3.747236
v -1.7284677 19.486885 2.9933689
v -2.4395614 17.246656 4.2252827
v -2.914249 10.13143 5.0476265
v -5.0517488 2.5468445 2.9165719
v -2.3054988 0.73128784 3.992861
v -0.00018650392 -1.2207031E-06 2.6495798
v -0.00018650392 18.890545 4.3267283
v -0.00018650392 19.486885 3.45665
v -0.00018650392 17.246666 4.8789935
v -0.00018650392 10.13143 5.8284464
v -2.916749 2.5468445 5.051689
v -0.00018650392 0.7312927 4.610478
v 1.3246572 -1.2207031E-06 2.2944624
v 2.1634073 18.890545 3.747236
v 1.7280947 19.486885 2.9934077
v 2.4393446 17.246656 4.2252827
v 3.747001 18.890545 2.1635249
v 2.9934072 19.486885 1.7282906
v 4.225282 17.246658 2.4395015
v 5.047313 10.13143 2.914111
v 2.9141884 10.13143 5.0476265
v 2.305126 0.73128784 3.992861
v 2.2943447 -1.2207031E-06 1.3247359
v 3.992782 0.7312927 2.3052046
v 2.9165323 2.5468445 5.051689
v 5.0515323 2.5468543 2.9165719
v -0.00018650392 2.5468493 5.8332124
v -0.46143648 16.750057 1.7213374
v -0.00018650392 16.75006 9.366637E-06
v 1.2599697 16.750057 1.2600484
v -1.7214364 16.750057 0.46118125
v 1.7212198 16.750057 -0.46116248
v -1.2601866 16.750057 -1.2599906
v 0.46121973 16.750057 -1.7213187
v 1.672626 19.277626 1.6727437
v 1.7280947 19.486885 2.9934077
v -0.00018650392 19.486885 3.45665
v 2.9934072 19.486885 1.7282906
v -0.612374 19.277626 2.2850482
v -1.7284677 19.486885 2.9933689
v -2.993624 19.486885 1.7282906
v 2.2849698 19.27762 -0.6122172
v 3.456376 19.486885 9.366637E-06
v 2.9934072 19.486885 -1.728311
v -2.2851865 19.27762 0.61219686
v -3.456749 19.486885 9.366637E-06
v -2.993624 19.486885 -1.728311
v 0.6121572 19.27762 -2.2849905
v 1.7280947 19.486885 -2.993467
v -0.00018650392 19.486885 -3.456592
v -1.6728426 19.27762 -1.6726469
v -1.7284677 19.486885 -2.993467
v -0.46143648 18.667135 1.7213374
v 1.2599697 18.66713 1.2600484
v -1.7214364 18.667122 0.46118125
v 1.7212198 18.667128 -0.46116248
v 0.46121973 18.66712 -1.7213187
v -1.2601866 18.66713 -1.2599906
v -0.46143648 16.750057 1.7213374
v -1.7214364 16.750057 0.46118125
v 1.2599697 16.750057 1.2600484
v -1.2601866 16.750057 -1.2599906
v 1.7212198 16.750057 -0.46116248
v 0.46121973 16.750057 -1.7213187
vt 0.020615898 0.9596322
vt 0.019960426 0.96063626
vt 0.020615898 0.9606363
vt 0.019960426 0.95963216
vt 0.019028805 0.96063626
vt 0.020615898 0.95836043
vt 0.019028805 0.95963216
vt 0.018014155 0.96063626
vt 0.019960426 0.9583604
vt 0.018014155 0.95963216
vt 0.016934656 0.9606361
vt 0.019960426 0.9537103
vt 0.020615898 0.9537103
vt 0.020615898 0.9493337
vt 0.019028805 0.9583604
vt 0.016934656 0.95963216
vt 0.01587411 0.9606361
vt 0.019960426 0.9493339
vt 0.020615898 0.9483372
vt 0.018014155 0.9583604
vt 0.01587411 0.95963216
vt 0.0148146385 0.9606361
vt 0.019028805 0.95371014
vt 0.019960426 0.9483372
vt 0.0206159 0.9477868
vt 0.019960428 0.9477868
vt 0.019028805 0.9493339
vt 0.019028805 0.9483372
vt 0.019028807 0.9477868
vt 0.018014155 0.9537103
vt 0.018014157 0.9493339
vt 0.018014157 0.9483372
vt 0.018014157 0.94778657
vt 0.016934656 0.9537103
vt 0.016934657 0.9483373
vt 0.016934657 0.9477868
vt 0.016934657 0.9493339
vt 0.016934656 0.9583602
vt 0.015874112 0.9483372
vt 0.015874112 0.9477868
vt 0.01587411 0.9537103
vt 0.015874112 0.9493339
vt 0.01587411 0.9583602
vt 0.0148146385 0.9483373
vt 0.0148146385 0.94778657
vt 0.0148146385 0.9537103
vt 0.0148146385 0.94933414
vt 0.0148146385 0.95963216
vt 0.013741338 0.9606361
vt 0.013741338 0.9483372
vt 0.013741338 0.9477868
vt 0.013741338 0.9493339
vt 0.013741338 0.95371026
vt 0.0148146385 0.9583602
vt 0.013741338 0.95963216
vt 0.01268425 0.9606361
vt 0.012684249 0.9483372
vt 0.012684249 0.94778657
vt 0.012684249 0.94933397
vt 0.012684249 0.9537103
vt 0.013741338 0.9583602
vt 0.01268425 0.95963216
vt 0.011602126 0.96063626
vt 0.011602127 0.94833714
vt 0.011602127 0.9477865
vt 0.011602127 0.9493339
vt 0.011602127 0.95371026
vt 0.01268425 0.9583602
vt 0.011602126 0.95963216
vt 0.010601543 0.96063626
vt 0.010601544 0.9483372
vt 0.010601545 0.9477868
vt 0.010601544 0.9493339
vt 0.010601603 0.9537101
vt 0.011602126 0.9583602
vt 0.010601543 0.95963216
vt 0.009684227 0.96063626
vt 0.009684228 0.9483372
vt 0.009684229 0.94778657
vt 0.009684228 0.9493339
vt 0.008977019 0.94833714
vt 0.00897702 0.94778675
vt 0.008977019 0.94933367
vt 0.008977019 0.95371026
vt 0.009684228 0.95371026
vt 0.009684227 0.95963216
vt 0.008977018 0.96063626
vt 0.008977018 0.95963216
vt 0.009684228 0.9583604
vt 0.008977019 0.9583604
vt 0.010601603 0.9583604
vt 0.016228104 0.9475348
vt 0.01479628 0.94746923
vt 0.015167498 0.94770634
vt 0.015857661 0.94729793
vt 0.013735735 0.9476409
vt 0.014426076 0.94723225
vt 0.0133644575 0.9474038
vt 0.016244316 0.9480319
vt 0.017869199 0.9481236
vt 0.019473815 0.94777167
vt 0.015555345 0.94828725
vt 0.018478954 0.94754493
vt 0.019775415 0.9473598
vt 0.018732632 0.9469545
vt 0.0125610465 0.94795704
vt 0.012896978 0.94823503
vt 0.010874713 0.947986
vt 0.017041588 0.94698226
vt 0.016722823 0.94670475
vt 0.014069998 0.94665027
vt 0.011114561 0.9473927
vt 0.009817505 0.9475788
vt 0.01012739 0.94716406
vt 0.013363683 0.9469055
vt 0.011745893 0.9468121
vt 0.01754626 0.9475255
vt 0.015878046 0.9478892
vt 0.016470218 0.9471053
vt 0.013128006 0.9478333
vt 0.0120478505 0.9474126
vt 0.013723218 0.9470484
vt 0.016228104 0.9475348
vt 0.015857661 0.94729793
vt 0.015167498 0.94770634
vt 0.014426076 0.94723225
vt 0.013735735 0.9476409
vt 0.0133644575 0.9474038
vn 0.60308534 -0.7176723 0.34818754
vn 0.34943512 -0.9369606 -8.622869E-06
vn 0.30258033 -0.9369761 0.17470239
vn 0.69637454 -0.71767855 -2.3371031E-07
vn 0.30260414 -0.93696845 -0.17470208
vn 0.8609161 -0.10851987 0.49703807
vn 0.60308677 -0.7176689 -0.34819198
vn 0.1746783 -0.9369793 -0.3025844
vn 0.9940941 -0.10852231 8.1431097E-07
vn 0.34817386 -0.717685 -0.6030781
vn -7.396908E-07 -0.9369761 -0.3493934
vn 0.99812347 0.061232522 -3.8378715E-07
vn 0.86440605 0.061235923 0.4990513
vn 0.85448813 0.16271669 0.4933289
vn 0.8609184 -0.10851331 -0.49703565
vn -1.3780651E-06 -0.7177223 -0.6963295
vn -0.17467466 -0.93698245 -0.3025767
vn 0.9866714 0.16272517 -7.386167E-07
vn 0.7550629 0.48971635 0.43595633
vn 0.49705884 -0.10852081 -0.860904
vn -0.3481841 -0.71769327 -0.60306233
vn -0.30257055 -0.9369834 -0.17468025
vn 0.86440635 0.061238494 -0.49905074
vn 0.8718803 0.4897191 4.2419134E-07
vn 0.22698687 0.96282125 0.14646627
vn 0.26981953 0.96281826 -0.013358484
vn 0.8544888 0.16271462 -0.49332833
vn 0.7550728 0.48970163 -0.43595573
vn 0.24036476 0.9628148 -0.12333802
vn 0.4990706 0.061242234 -0.8643946
vn 0.49332786 0.1627246 -0.8544871
vn 0.43592966 0.48968416 -0.7550992
vn 0.12331328 0.9628262 -0.24033229
vn 2.741275E-07 0.06124718 -0.99812263
vn 1.5227707E-06 0.48968723 -0.8718982
vn 0.013363167 0.96281683 -0.26982456
vn 2.9278448E-07 0.16273126 -0.98667043
vn -2.5271046E-07 -0.10852887 -0.99409336
vn -0.43592826 0.48968917 -0.75509673
vn -0.14646518 0.96282226 -0.22698297
vn -0.4990739 0.061248444 -0.86439216
vn -0.4933348 0.16273092 -0.85448194
vn -0.49706662 -0.10851525 -0.8609003
vn -0.75507915 0.4896931 -0.43595415
vn -0.22698489 0.96282166 -0.14646618
vn -0.8644001 0.06124726 -0.4990602
vn -0.854482 0.16271658 -0.49333942
vn -0.60308486 -0.71767664 -0.34817943
vn -0.34940016 -0.9369736 1.7910459E-06
vn -0.8719144 0.4896583 2.1754109E-07
vn -0.2698186 0.9628185 0.01335919
vn -0.9866753 0.1627018 -2.3023559E-07
vn -0.99812275 0.061245523 -2.314897E-07
vn -0.8609142 -0.10850261 -0.49704534
vn -0.69637126 -0.7176818 2.6772746E-06
vn -0.3025872 -0.9369772 0.17468464
vn -0.7550787 0.48969352 0.43595454
vn -0.24033989 0.9628211 0.123338155
vn -0.8544822 0.16271642 0.49333927
vn -0.8644015 0.06124033 0.49905878
vn -0.9940957 -0.10850614 5.522318E-07
vn -0.6031011 -0.71766067 0.34818408
vn -0.17469175 -0.9369754 0.30258852
vn -0.43592837 0.48970628 0.7550856
vn -0.12332925 0.96282524 0.24032788
vn -0.49334136 0.16273017 0.85447836
vn -0.4990724 0.06123805 0.8643939
vn -0.86091274 -0.10851507 0.49704507
vn -0.3482039 -0.71766245 0.6030876
vn -5.315709E-06 -0.936975 0.3493963
vn -1.881685E-06 0.48969775 0.8718923
vn -0.013362405 0.9628091 0.26985207
vn -0 0.16273375 0.9866701
vn 1.4620184E-07 0.061238755 0.9981231
vn -0.49706304 -0.10852368 0.86090124
vn -1.8042423E-06 -0.71770245 0.6963499
vn 0.17469661 -0.93697953 0.30257308
vn 0.43593135 0.48968756 0.755096
vn 0.1464526 0.9628272 0.22696987
vn 0.4933335 0.1627199 0.85448486
vn 0.7550629 0.48971635 0.43595633
vn 0.22698687 0.96282125 0.14646627
vn 0.85448813 0.16271669 0.4933289
vn 0.86440605 0.061235923 0.4990513
vn 0.49906877 0.06124151 0.8643957
vn 0.34817213 -0.71769804 0.60306364
vn 0.30258033 -0.9369761 0.17470239
vn 0.60308534 -0.7176723 0.34818754
vn 0.49705493 -0.108527794 0.8609054
vn 0.8609161 -0.10851987 0.49703807
vn -0 -0.10853713 0.9940924
vn -1.1189095E-06 1 0
vn 1.1186655E-06 1 -4.545125E-06
vn 4.0931184E-07 1 -2.271736E-06
vn -1.5280291E-06 1 0
vn 1.1186656E-06 1 -4.545125E-06
vn -4.0950022E-07 1 2.2723968E-06
vn 1.1186655E-06 1 -4.5451243E-06
vn -0.23813541 0.9415809 -0.2381535
vn 0.1464526 0.9628272 0.22696987
vn -0.013362405 0.9628091 0.26985207
vn 0.22698687 0.96282125 0.14646627
vn 0.08714743 0.9415801 -0.32531875
vn -0.12332925 0.96282524 0.24032788
vn -0.24033989 0.9628211 0.123338155
vn -0.3252894 0.9415891 0.087159574
vn 0.26981953 0.96281826 -0.013358484
vn 0.24036476 0.9628148 -0.12333802
vn 0.32527712 0.94159335 -0.08715894
vn -0.2698186 0.9628185 0.01335919
vn -0.22698489 0.96282166 -0.14646618
vn -0.08714474 0.94159347 0.32528067
vn 0.12331328 0.9628262 -0.24033229
vn 0.013363167 0.96281683 -0.26982456
vn 0.2381005 0.94159675 0.2381255
vn -0.14646518 0.96282226 -0.22698297
vn 0.24802272 0.28593022 -0.9255964
vn -0.6775706 0.2858762 -0.6776229
vn 0.92559314 0.28595403 -0.24800742
vn -0.9256163 0.28589576 0.2479878
vn -0.24801382 0.2859753 0.92558485
vn 0.67753905 0.2859799 0.6776107
vn 0.2588218 0 -0.96592516
vn 0.96593326 0 -0.25879133
vn -0.70707625 0 -0.7071372
vn 0.7070773 0 0.7071362
vn -0.96593404 0 0.25878817
vn -0.25881466 0 0.96592706
g ENV_S09_Coral_Stem_Piece_01c_MO_0
f 3/3/3 2/2/2 1/1/1
f 2/2/2 4/4/4 1/1/1
f 4/4/4 2/2/2 5/5/5
f 1/1/1 4/4/4 6/6/6
f 7/7/7 4/4/4 5/5/5
f 5/5/5 8/8/8 7/7/7
f 4/4/4 9/9/9 6/6/6
f 9/9/9 4/4/4 7/7/7
f 8/8/8 10/10/10 7/7/7
f 8/8/8 11/11/11 10/10/10
f 6/6/6 9/9/9 12/12/12
f 13/13/13 6/6/6 12/12/12
f 13/13/13 12/12/12 14/14/14
f 15/15/15 9/9/9 7/7/7
f 7/7/7 10/10/10 15/15/15
f 12/12/12 9/9/9 15/15/15
f 11/11/11 16/16/16 10/10/10
f 11/11/11 17/17/17 16/16/16
f 12/12/12 18/18/18 14/14/14
f 14/14/14 18/18/18 19/19/19
f 10/10/10 20/20/20 15/15/15
f 10/10/10 16/16/16 20/20/20
f 17/17/17 21/21/21 16/16/16
f 17/17/17 22/22/22 21/21/21
f 23/23/23 12/12/12 15/15/15
f 12/12/12 23/23/23 18/18/18
f 18/18/18 24/24/24 19/19/19
f 19/19/19 24/24/24 25/25/25
f 24/24/24 26/26/26 25/25/25
f 24/24/24 18/18/18 27/27/27
f 23/23/23 27/27/27 18/18/18
f 26/26/26 24/24/24 28/28/28
f 28/28/28 24/24/24 27/27/27
f 29/29/29 26/26/26 28/28/28
f 23/23/23 15/15/15 30/30/30
f 15/15/15 20/20/20 30/30/30
f 31/31/31 27/27/27 23/23/23
f 27/27/27 31/31/31 28/28/28
f 30/30/30 31/31/31 23/23/23
f 28/28/28 32/32/32 29/29/29
f 31/31/31 32/32/32 28/28/28
f 32/32/32 33/33/33 29/29/29
f 30/30/30 20/20/20 34/34/34
f 30/30/30 34/34/34 31/31/31
f 32/32/32 35/35/35 33/33/33
f 35/35/35 36/36/36 33/33/33
f 31/31/31 37/37/37 32/32/32
f 34/34/34 37/37/37 31/31/31
f 37/37/37 35/35/35 32/32/32
f 20/20/20 38/38/38 34/34/34
f 16/16/16 38/38/38 20/20/20
f 16/16/16 21/21/21 38/38/38
f 35/35/35 39/39/39 36/36/36
f 39/39/39 40/40/40 36/36/36
f 34/34/34 41/41/41 37/37/37
f 34/34/34 38/38/38 41/41/41
f 37/37/37 42/42/42 35/35/35
f 42/42/42 39/39/39 35/35/35
f 41/41/41 42/42/42 37/37/37
f 21/21/21 43/43/43 38/38/38
f 38/38/38 43/43/43 41/41/41
f 39/39/39 44/44/44 40/40/40
f 44/44/44 45/45/45 40/40/40
f 41/41/41 46/46/46 42/42/42
f 41/41/41 43/43/43 46/46/46
f 42/42/42 47/47/47 39/39/39
f 47/47/47 44/44/44 39/39/39
f 46/46/46 47/47/47 42/42/42
f 21/21/21 48/48/48 43/43/43
f 22/22/22 48/48/48 21/21/21
f 22/22/22 49/49/49 48/48/48
f 44/44/44 50/50/50 45/45/45
f 50/50/50 51/51/51 45/45/45
f 47/47/47 52/52/52 44/44/44
f 52/52/52 50/50/50 44/44/44
f 46/46/46 53/53/53 47/47/47
f 53/53/53 52/52/52 47/47/47
f 43/43/43 54/54/54 46/46/46
f 48/48/48 54/54/54 43/43/43
f 46/46/46 54/54/54 53/53/53
f 49/49/49 55/55/55 48/48/48
f 48/48/48 55/55/55 54/54/54
f 49/49/49 56/56/56 55/55/55
f 50/50/50 57/57/57 51/51/51
f 57/57/57 58/58/58 51/51/51
f 52/52/52 59/59/59 50/50/50
f 59/59/59 57/57/57 50/50/50
f 53/53/53 60/60/60 52/52/52
f 60/60/60 59/59/59 52/52/52
f 54/54/54 61/61/61 53/53/53
f 55/55/55 61/61/61 54/54/54
f 53/53/53 61/61/61 60/60/60
f 56/56/56 62/62/62 55/55/55
f 55/55/55 62/62/62 61/61/61
f 56/56/56 63/63/63 62/62/62
f 57/57/57 64/64/64 58/58/58
f 64/64/64 65/65/65 58/58/58
f 59/59/59 66/66/66 57/57/57
f 66/66/66 64/64/64 57/57/57
f 60/60/60 67/67/67 59/59/59
f 67/67/67 66/66/66 59/59/59
f 61/61/61 68/68/68 60/60/60
f 62/62/62 68/68/68 61/61/61
f 60/60/60 68/68/68 67/67/67
f 63/63/63 69/69/69 62/62/62
f 62/62/62 69/69/69 68/68/68
f 63/63/63 70/70/70 69/69/69
f 64/64/64 71/71/71 65/65/65
f 71/71/71 72/72/72 65/65/65
f 66/66/66 73/73/73 64/64/64
f 73/73/73 71/71/71 64/64/64
f 67/67/67 74/74/74 66/66/66
f 74/74/74 73/73/73 66/66/66
f 68/68/68 75/75/75 67/67/67
f 69/69/69 75/75/75 68/68/68
f 67/67/67 75/75/75 74/74/74
f 70/70/70 76/76/76 69/69/69
f 69/69/69 76/76/76 75/75/75
f 70/70/70 77/77/77 76/76/76
f 71/71/71 78/78/78 72/72/72
f 78/78/78 79/79/79 72/72/72
f 73/73/73 80/80/80 71/71/71
f 80/80/80 78/78/78 71/71/71
f 78/78/78 81/81/81 79/79/79
f 81/81/81 82/82/82 79/79/79
f 83/83/83 81/81/81 78/78/78
f 80/80/80 83/83/83 78/78/78
f 84/84/84 83/83/83 80/80/80
f 85/85/85 80/80/80 73/73/73
f 85/85/85 84/84/84 80/80/80
f 74/74/74 85/85/85 73/73/73
f 77/77/77 86/86/86 76/76/76
f 77/77/77 87/87/87 86/86/86
f 87/87/87 88/88/88 86/86/86
f 85/85/85 89/89/89 84/84/84
f 86/86/86 88/88/88 89/89/89
f 89/89/89 90/90/90 84/84/84
f 88/88/88 90/90/90 89/89/89
f 74/74/74 91/91/91 85/85/85
f 91/91/91 89/89/89 85/85/85
f 86/86/86 89/89/89 91/91/91
f 76/76/76 86/86/86 91/91/91
f 75/75/75 91/91/91 74/74/74
f 76/76/76 91/91/91 75/75/75
f 94/94/94 93/93/93 92/92/92
f 92/92/92 93/93/93 95/95/95
f 96/96/96 93/93/93 94/94/94
f 95/95/95 93/93/93 97/97/97
f 98/98/98 93/93/93 96/96/96
f 97/97/97 93/93/93 98/98/98
f 101/101/101 100/100/100 99/99/99
f 100/100/100 102/102/102 99/99/99
f 103/103/103 101/101/101 99/99/99
f 104/104/104 101/101/101 103/103/103
f 105/105/105 104/104/104 103/103/103
f 99/99/99 102/102/102 106/106/106
f 102/102/102 107/107/107 106/106/106
f 107/107/107 108/108/108 106/106/106
f 109/109/109 105/105/105 103/103/103
f 110/110/110 105/105/105 109/109/109
f 111/111/111 110/110/110 109/109/109
f 106/106/106 108/108/108 112/112/112
f 108/108/108 113/113/113 112/112/112
f 113/113/113 114/114/114 112/112/112
f 115/115/115 111/111/111 109/109/109
f 112/112/112 114/114/114 115/115/115
f 116/116/116 111/111/111 115/115/115
f 114/114/114 116/116/116 115/115/115
f 103/103/103 99/99/99 117/117/117
f 99/99/99 106/106/106 118/118/118
f 99/99/99 118/118/118 117/117/117
f 109/109/109 103/103/103 119/119/119
f 103/103/103 117/117/117 119/119/119
f 106/106/106 112/112/112 120/120/120
f 106/106/106 120/120/120 118/118/118
f 112/112/112 115/115/115 121/121/121
f 112/112/112 121/121/121 120/120/120
f 115/115/115 109/109/109 122/122/122
f 109/109/109 119/119/119 122/122/122
f 115/115/115 122/122/122 121/121/121
f 117/117/117 123/123/123 119/119/119
f 123/123/123 124/124/124 119/119/119
f 119/119/119 124/124/124 122/122/122
f 125/125/125 123/123/123 117/117/117
f 118/118/118 125/125/125 117/117/117
f 124/124/124 126/126/126 122/122/122
f 122/122/122 126/126/126 121/121/121
f 127/127/127 125/125/125 118/118/118
f 120/120/120 127/127/127 118/118/118
f 126/126/126 128/128/128 121/121/121
f 128/128/128 127/127/127 120/120/120
f 121/121/121 128/128/128 120/120/120
