g ENV_S09_BBR_BrokenScreen_MO
v 6.2133164 4.4326124 5.9015792E-09
v 7.092827 3.8829684 5.9015792E-09
v 7.092827 -3.8829684 5.9015792E-09
v 6.2133164 -4.4326124 5.9015792E-09
v -6.2133164 4.4326124 5.9015792E-09
v -6.2133164 -4.4326124 5.9015792E-09
v -7.092827 -3.8829684 5.9015792E-09
v -7.092827 3.8829684 5.9015792E-09
vt 0.9827932 0.9675667
vt 0.98190784 0.96615005
vt 0.96939915 0.96615005
vt 0.96851385 0.9675667
vt 0.9827932 0.9875823
vt 0.96851385 0.9875823
vt 0.96939915 0.988999
vt 0.98190784 0.988999
vn -0 0 1
vn -0 0 1
vn -0 0 1
vn -0 0 1
vn -0 0 1
vn -0 0 1
vn -0 0 1
vn -0 0 1
g ENV_S09_BBR_BrokenScreen_MO_0
f 3/3/3 2/2/2 1/1/1
f 4/4/4 3/3/3 1/1/1
f 4/4/4 1/1/1 5/5/5
f 6/6/6 4/4/4 5/5/5
f 6/6/6 5/5/5 7/7/7
f 5/5/5 8/8/8 7/7/7
