g ENV_CableCore_F
v -0.58620465 0.048782706 0.05088365
v -4.177141 0.04920292 0.052984595
v -4.176721 0.08533919 0.008024335
v -0.5870451 0.084918976 0.006343603
v -0.45384514 0.048782706 0.055505753
v -4.177141 0.09836507 -0.15753019
v -0.4429201 0.0857594 0.009284973
v -0.32316625 0.047101974 0.093322754
v -0.58620465 0.097944856 -0.15795028
v -4.177141 0.08533919 -0.3230847
v -0.5836836 0.08449876 -0.32434523
v -4.177141 0.04920292 -0.36804485
v -0.58578455 0.048362494 -0.36846507
v -0.41686833 0.09752464 -0.14828598
v -0.3861946 0.083238244 -0.31594145
v -0.37863123 0.047101974 -0.35838056
v -0.30467784 0.08407867 0.05088365
v -0.19206727 0.08239782 -0.26047647
v -0.17778075 0.04626155 -0.30207515
v 0.015506268 0.044580817 -0.21635664
v -0.2513138 0.096264124 -0.10248542
v -0.17441928 0.083238244 0.10592842
v -0.20089114 0.04626155 0.14458585
v -0.0071840286 0.08071709 -0.17895973
v -0.09458339 0.095003486 -0.03315413
v -0.051724076 0.08239782 0.1945883
v -0.08449876 0.045841455 0.22778332
v 0.054583788 0.09458339 0.07357395
v 0.16719449 0.080296874 -0.052903056
v 0.19744813 0.044160604 -0.08483744
v 0.022649407 0.081977725 0.27106273
v -0.012646437 0.045421243 0.3017367
v 0.14576483 0.09416318 0.16685593
v 0.2760235 0.080296874 0.058447123
v 0.3083781 0.044160604 0.0290339
v 0.43695593 0.0433203 0.21475732
v 0.10752761 0.08281803 0.38913596
v 0.065928936 0.045841455 0.41266644
v 0.24745059 0.09416318 0.3156029
v 0.39955914 0.07945657 0.2361871
v 0.15626955 0.08239782 0.535782
v 0.11046898 0.045421243 0.5479673
v 0.31173956 0.09374297 0.500486
v 0.4785546 0.07945657 0.4618286
v 0.5201534 0.0433203 0.45048344
v 0.16677427 0.08155751 0.69965565
v 0.120973706 0.04500103 0.69839513
v 0.33022785 0.09374297 0.6958741
v 0.49788332 0.080296874 0.6916722
v 0.54242337 0.044160604 0.6933528
v 0.54158306 0.044160604 3.3069296
v 0.497043 0.08071709 3.306089
v 0.54116285 -1.8227397 23.598703
v 0.16593397 0.0811373 3.3098707
v 0.12055349 0.044580817 3.3094506
v 0.12013328 -1.8227397 23.599964
v 0.33022785 0.09374297 3.3081899
v 0.4962026 -1.7861832 23.598282
v 0.54074264 -1.8227397 25.714355
v 0.49578238 -1.7861832 25.714355
v 0.33022785 -1.7731574 23.599543
v 0.33022785 -1.7731574 25.714355
v 0.16551375 -1.7861832 23.600384
v 0.16467333 -1.7861832 25.714355
v 0.11971307 -1.8227397 25.714355
vt 0.26686218 0.8455523
vt 0.26686218 1
vt 0.3831867 1
vt 0.3831867 0.8455523
vt 0.26686218 0.83870965
vt 0.49951124 1
vt 0.3831867 0.83870965
vt 0.26686218 0.83186704
vt 0.49951124 0.8455523
vt 0.6168133 1
vt 0.6168133 0.8455523
vt 0.73313785 1
vt 0.73313785 0.8455523
vt 0.49951124 0.83870965
vt 0.6168133 0.83870965
vt 0.73313785 0.83870965
vt 0.3831867 0.83186704
vt 0.6168133 0.83186704
vt 0.73313785 0.83186704
vt 0.73313785 0.8250244
vt 0.49951124 0.83186704
vt 0.3831867 0.8250244
vt 0.26686218 0.8250244
vt 0.6168133 0.8250244
vt 0.49951124 0.8250244
vt 0.3831867 0.8191593
vt 0.26686218 0.8191593
vt 0.49951124 0.8191593
vt 0.6168133 0.8191593
vt 0.73313785 0.8191593
vt 0.3831867 0.8123167
vt 0.26686218 0.8123167
vt 0.49951124 0.8123167
vt 0.6168133 0.8123167
vt 0.73313785 0.8123167
vt 0.73313785 0.8054741
vt 0.3831867 0.8054741
vt 0.26686218 0.8054741
vt 0.49951124 0.8054741
vt 0.6168133 0.8054741
vt 0.3831867 0.7986315
vt 0.26686218 0.7986315
vt 0.49951124 0.7986315
vt 0.6168133 0.7986315
vt 0.73313785 0.7986315
vt 0.3831867 0.7917889
vt 0.26686218 0.7917889
vt 0.49951124 0.7917889
vt 0.6168133 0.7917889
vt 0.73313785 0.7917889
vt 0.73313785 0.6959922
vt 0.6168133 0.6959922
vt 0.73313785 0.06647117
vt 0.3831867 0.6959922
vt 0.26686218 0.6959922
vt 0.26686218 0.06647117
vt 0.49951124 0.6959922
vt 0.6168133 0.06647117
vt 0.73313785 0
vt 0.6168133 0
vt 0.49951124 0.06647117
vt 0.49951124 0
vt 0.3831867 0.06647117
vt 0.3831867 0
vt 0.26686218 0
vn -0.0016127229 0.7760015 0.63072896
vn -0.0016127229 0.7760015 0.63072896
vn -0.0016127229 0.9743987 0.2248213
vn -0.0016127229 0.9743987 0.2248213
vn -0.09121144 0.7824015 0.61605877
vn -0.0016127229 0.9999983 -0.0009134906
vn -0.027212381 0.98079854 0.1931157
vn -0.20000988 0.7824015 0.58978295
vn -0.0016127229 0.9999983 -0.0009134906
vn -0.0016127229 0.9743987 -0.2248213
vn -0.0016127229 0.9743987 -0.2248213
vn -0.0016127229 0.7760015 -0.63072896
vn -0.0016127229 0.7760015 -0.63072896
vn 0.004787101 0.9999886 -0
vn 0.043186605 0.9679988 -0.24721092
vn 0.10718566 0.76960164 -0.6294637
vn -0.06561184 0.98079854 0.18365543
vn 0.08798593 0.9679988 -0.23502514
vn 0.222384 0.76960164 -0.5985471
vn 0.32478252 0.76960164 -0.5497541
vn 0.011186397 0.9999375 -0
vn -0.09761137 0.98079854 0.16883785
vn -0.3024084 0.7824015 0.54442364
vn 0.13278532 0.9679988 -0.21294689
vn 0.011186397 0.9999375 -0
vn -0.1296109 0.98079854 0.14572312
vn -0.39200705 0.7888014 0.47341618
vn 0.011186397 0.9999375 -0
vn 0.16478485 0.9679988 -0.18927307
vn 0.41438124 0.76960164 -0.48579985
vn -0.16161042 0.98079854 0.10916171
vn -0.48160583 0.7888014 0.3819008
vn 0.017584257 0.9998453 -0
vn 0.19678438 0.9679988 -0.1557378
vn 0.49758005 0.76960164 -0.4001592
vn 0.56797904 0.76960164 -0.29174152
vn -0.17441022 0.98079854 0.08726551
vn -0.55200475 0.7888014 0.27033898
vn 0.017584257 0.9998453 -0
vn 0.23518384 0.9679988 -0.08756076
vn -0.19360995 0.98079854 0.023438772
vn -0.60960394 0.7888014 0.07858408
vn 0.017584257 0.9998453 -0
vn 0.25416347 0.9671613 -0
vn 0.62557817 0.76960164 -0.12792689
vn -0.22556974 0.9742271 -0
vn -0.6224038 0.7824015 0.021480214
vn 0.004787101 0.9999886 -0
vn 0.22857888 0.97352535 -0
vn 0.6314811 0.7753912 -0
vn 0.62557817 0.7760015 0.08045906
vn 0.222384 0.9743987 0.033054695
vn 0.62557817 0.7760015 0.08045906
vn -0.22556974 0.9742271 -0
vn -0.6288037 0.7760015 0.04927046
vn -0.6288037 0.7760015 0.04927046
vn 0.004787147 0.9935984 0.11286851
vn 0.22878394 0.9679988 0.103132
vn 0.62557817 0.7760015 0.08045906
vn 0.22857888 0.97352535 -0
vn -0.0016127229 0.9935984 0.11295825
vn -0.0016127229 0.9999983 -0.0009134906
vn -0.23200941 0.9679988 0.09565547
vn -0.23162971 0.972804 -0
vn -0.6288037 0.7760015 -0.04927046
g ENV_CableCore_F_0
f 3/3/3 2/2/2 1/1/1
f 4/4/4 3/3/3 1/1/1
f 4/4/4 1/1/1 5/5/5
f 6/6/6 3/3/3 4/4/4
f 7/7/7 4/4/4 5/5/5
f 7/7/7 5/5/5 8/8/8
f 9/9/9 6/6/6 4/4/4
f 9/9/9 4/4/4 7/7/7
f 10/10/10 6/6/6 9/9/9
f 11/11/11 10/10/10 9/9/9
f 12/12/12 10/10/10 11/11/11
f 13/13/13 12/12/12 11/11/11
f 14/14/14 9/9/9 7/7/7
f 11/11/11 9/9/9 14/14/14
f 13/13/13 11/11/11 15/15/15
f 15/15/15 11/11/11 14/14/14
f 16/16/16 13/13/13 15/15/15
f 17/17/17 7/7/7 8/8/8
f 14/14/14 7/7/7 17/17/17
f 16/16/16 15/15/15 18/18/18
f 19/19/19 16/16/16 18/18/18
f 19/19/19 18/18/18 20/20/20
f 15/15/15 14/14/14 21/21/21
f 18/18/18 15/15/15 21/21/21
f 21/21/21 14/14/14 17/17/17
f 17/17/17 8/8/8 22/22/22
f 8/8/8 23/23/23 22/22/22
f 18/18/18 24/24/24 20/20/20
f 18/18/18 21/21/21 24/24/24
f 21/21/21 17/17/17 25/25/25
f 17/17/17 22/22/22 25/25/25
f 21/21/21 25/25/25 24/24/24
f 22/22/22 23/23/23 26/26/26
f 23/23/23 27/27/27 26/26/26
f 25/25/25 22/22/22 28/28/28
f 24/24/24 25/25/25 28/28/28
f 22/22/22 26/26/26 28/28/28
f 20/20/20 24/24/24 29/29/29
f 29/29/29 24/24/24 28/28/28
f 30/30/30 20/20/20 29/29/29
f 26/26/26 27/27/27 31/31/31
f 27/27/27 32/32/32 31/31/31
f 28/28/28 26/26/26 33/33/33
f 29/29/29 28/28/28 33/33/33
f 26/26/26 31/31/31 33/33/33
f 30/30/30 29/29/29 34/34/34
f 34/34/34 29/29/29 33/33/33
f 35/35/35 30/30/30 34/34/34
f 35/35/35 34/34/34 36/36/36
f 31/31/31 32/32/32 37/37/37
f 32/32/32 38/38/38 37/37/37
f 33/33/33 31/31/31 39/39/39
f 31/31/31 37/37/37 39/39/39
f 34/34/34 33/33/33 40/40/40
f 34/34/34 40/40/40 36/36/36
f 33/33/33 39/39/39 40/40/40
f 37/37/37 38/38/38 41/41/41
f 38/38/38 42/42/42 41/41/41
f 39/39/39 37/37/37 43/43/43
f 40/40/40 39/39/39 43/43/43
f 37/37/37 41/41/41 43/43/43
f 36/36/36 40/40/40 44/44/44
f 44/44/44 40/40/40 43/43/43
f 45/45/45 36/36/36 44/44/44
f 41/41/41 42/42/42 46/46/46
f 42/42/42 47/47/47 46/46/46
f 43/43/43 41/41/41 48/48/48
f 44/44/44 43/43/43 48/48/48
f 41/41/41 46/46/46 48/48/48
f 45/45/45 44/44/44 49/49/49
f 49/49/49 44/44/44 48/48/48
f 50/50/50 45/45/45 49/49/49
f 50/50/50 49/49/49 51/51/51
f 49/49/49 52/52/52 51/51/51
f 49/49/49 48/48/48 52/52/52
f 51/51/51 52/52/52 53/53/53
f 46/46/46 47/47/47 54/54/54
f 47/47/47 55/55/55 54/54/54
f 54/54/54 55/55/55 56/56/56
f 48/48/48 46/46/46 57/57/57
f 46/46/46 54/54/54 57/57/57
f 48/48/48 57/57/57 52/52/52
f 52/52/52 58/58/58 53/53/53
f 53/53/53 58/58/58 59/59/59
f 58/58/58 60/60/60 59/59/59
f 58/58/58 52/52/52 61/61/61
f 58/58/58 61/61/61 60/60/60
f 52/52/52 57/57/57 61/61/61
f 61/61/61 62/62/62 60/60/60
f 57/57/57 54/54/54 63/63/63
f 61/61/61 57/57/57 63/63/63
f 61/61/61 63/63/63 62/62/62
f 63/63/63 54/54/54 56/56/56
f 63/63/63 64/64/64 62/62/62
f 63/63/63 56/56/56 64/64/64
f 56/56/56 65/65/65 64/64/64
