g ENV_SY02_GX_Section05_Vinyl06_MO
v -6.274661 45.80623 125.68916
v -6.274661 44.903023 125.68916
v -6.3112783 44.903023 125.59967
v -6.3112783 45.80623 125.59967
v -6.274661 45.895737 125.59967
v -6.2583876 45.879463 125.67087
v -6.274661 45.895737 121.5271
v -6.3112783 45.80623 121.5271
v -6.274661 45.80623 125.68916
v -6.185155 45.895737 125.68916
v -6.185155 45.80623 125.725784
v -6.274661 44.903023 125.68916
v -6.185155 44.903023 125.725784
v -1.7545595 45.80623 125.725784
v -1.7545595 44.903023 125.725784
v -1.7545595 45.895737 125.68916
v 2.8855634 44.903023 125.725784
v 2.8855634 45.80623 125.725784
v 2.8855634 45.895737 125.68916
v 7.4626245 44.903023 125.725784
v 7.4626245 45.80623 125.725784
v 7.4626245 45.895737 125.68916
v 7.5521317 45.80623 125.68916
v 7.5521317 44.903023 125.68916
v 7.533823 45.879463 125.67087
v 7.5521317 45.80623 125.68916
v 7.5521317 45.895737 125.59967
v 7.588748 45.80623 125.59967
v 7.5521317 44.903023 125.68916
v 7.588748 44.903023 125.59967
v 7.588748 45.80623 121.5271
v 7.5521317 45.895737 121.5271
v -6.274661 45.895737 125.59967
v -6.274661 45.895737 121.5271
v -6.185155 45.93235 121.5271
v -6.185155 45.93235 125.59967
v -6.185155 45.895737 125.68916
v -6.2583876 45.879463 125.67087
v -1.7545595 45.895737 125.68916
v -1.7545595 45.93235 125.59967
v -1.7545595 45.93235 121.5271
v -1.7545595 45.93235 125.59967
v 2.8855634 45.895737 125.68916
v -1.7545595 45.895737 125.68916
v 2.8855634 45.93235 125.59967
v -1.7545595 45.93235 121.5271
v 2.8855634 45.93235 121.5271
v -6.274661 45.895737 117.39554
v -6.274661 45.895737 121.5271
v -6.3112783 45.80623 121.5271
v -6.3112783 45.80623 117.39554
v -6.274661 45.80623 117.30603
v -6.2583876 45.879463 117.32434
v -6.185155 45.895737 117.30603
v -6.274661 45.80623 117.30603
v -6.185155 45.80623 117.26941
v -1.7545595 45.895737 117.30603
v -1.7545595 45.80623 117.26941
v 2.8855634 45.895737 117.30603
v 2.8855634 45.80623 117.26941
v -6.185155 45.895737 117.30603
v -1.7545595 45.895737 117.30603
v -1.7545595 45.93235 117.39554
v -6.185155 45.93235 117.39554
v -6.274661 45.895737 117.39554
v -6.2583876 45.879463 117.32434
v -6.274661 45.895737 121.5271
v -6.185155 45.93235 121.5271
v -1.7545595 45.93235 121.5271
v -1.7545595 45.895737 117.30603
v 2.8855634 45.895737 117.30603
v 2.8855634 45.93235 117.39554
v -1.7545595 45.93235 117.39554
v 2.8855634 45.93235 121.5271
v -1.7545595 45.93235 121.5271
v 7.4626245 45.895737 125.68916
v 2.8855634 45.895737 125.68916
v 2.8855634 45.93235 125.59967
v 7.4626245 45.93235 125.59967
v 2.8855634 45.93235 121.5271
v 7.4626245 45.93235 121.5271
v 7.5521317 45.895737 121.5271
v 7.5521317 45.895737 125.59967
v 7.533823 45.879463 125.67087
v 7.4626245 45.93235 121.5271
v 7.5521317 45.895737 117.39554
v 7.5521317 45.895737 121.5271
v 7.4626245 45.93235 117.39554
v 2.8855634 45.93235 117.39554
v 2.8855634 45.93235 121.5271
v 2.8855634 45.895737 117.30603
v 7.4626245 45.895737 117.30603
v 7.533823 45.879463 117.32434
v 7.5521317 45.895737 121.5271
v 7.588748 45.80623 117.39554
v 7.588748 45.80623 121.5271
v 7.5521317 45.895737 117.39554
v 7.5521317 45.80623 117.30603
v 7.533823 45.879463 117.32434
v 7.5521317 45.80623 117.30603
v 7.4626245 45.895737 117.30603
v 7.4626245 45.80623 117.26941
v 2.8855634 45.80623 117.26941
v 2.8855634 45.895737 117.30603
vt 0.7868099 -7.7157145
vt 0.9872637 -7.7157145
vt 0.9888239 -7.739114
vt 0.78759 -7.739114
vt 0.76185036 -7.739114
vt 0.76653004 -7.7157145
vt 0.76263046 -8.793642
vt 0.78759 -8.793642
vt 0.7868099 -7.7157145
vt 0.76029015 -7.692315
vt 0.7860298 -7.692315
vt 0.9872637 -7.7157145
vt 0.9903841 -7.692315
vt 0.7852497 -6.498951
vt 0.99116325 -6.498951
vt 0.76029015 -6.498951
vt 0.99116325 -5.270488
vt 0.7852497 -5.270488
vt 0.76029015 -5.270488
vt 0.99116325 -4.074004
vt 0.7852497 -4.074004
vt 0.76029015 -4.074004
vt 0.7860298 -4.050605
vt 0.9888239 -4.050605
vt 0.7649708 -4.050605
vt 0.7860298 -4.050605
vt 0.759511 -4.0264254
vt 0.7852497 -4.0264254
vt 0.9888239 -4.050605
vt 0.99116325 -4.0264254
vt 0.7852497 -2.9445982
vt 0.759511 -2.9445982
vt 0.49119854 0.9864836
vt 0.49119854 0.66981316
vt 0.4833994 0.66981316
vt 0.48417854 0.98570347
vt 0.48495865 0.99194336
vt 0.49119854 0.99194336
vt 0.13474941 0.99194336
vt 0.13474941 0.98492336
vt 0.13474941 0.66981316
vt 0.38278198 0.9841442
vt 0.11758995 0.99194336
vt 0.38278198 0.99194336
vt 0.11758995 0.9841442
vt 0.38278198 0.6651335
vt 0.11758995 0.6651335
vt 0.6994524 15.7491
vt 0.6994524 16.76385
vt 0.72285175 16.76385
vt 0.72363186 15.7491
vt 0.72285175 15.7264805
vt 0.70257187 15.7264805
vt 0.6971121 15.703861
vt 0.72285175 15.7264805
vt 0.72207165 15.703861
vt 0.6986723 14.536236
vt 0.72363186 14.536236
vt 0.70257187 13.332733
vt 0.72753143 13.332733
vt 0.48807907 0.5044584
vt 0.13864899 0.5044584
vt 0.13864899 0.5114784
vt 0.48729897 0.5106983
vt 0.49431896 0.5099182
vt 0.49431896 0.5044584
vt 0.49431896 0.82658863
vt 0.48651886 0.82658863
vt 0.13864899 0.82658863
vt 0.3835621 0.5044584
vt 0.118370056 0.5044584
vt 0.118370056 0.5122576
vt 0.3835621 0.5122576
vt 0.118370056 0.8312683
vt 0.3835621 0.8312683
vt 0.012292862 0.99116325
vt 0.36640263 0.99116325
vt 0.36640263 0.9833641
vt 0.0130729675 0.9841442
vt 0.36640263 0.6651335
vt 0.013853073 0.6651335
vt 0.006052971 0.6651335
vt 0.006052971 0.98492336
vt 0.006052971 0.99116325
vt 0.0130729675 0.8320484
vt 0.0052728653 0.5122576
vt 0.0052728653 0.8320484
vt 0.012292862 0.5130377
vt 0.36562252 0.5138178
vt 0.36562252 0.8320484
vt 0.36562252 0.50601864
vt 0.011512756 0.50601864
vt 0.0052728653 0.50601864
vt 0.73065186 7.419731
vt 0.7501507 8.499218
vt 0.7563906 7.419731
vt 0.72441196 8.499218
vt 0.7501507 8.522617
vt 0.72987175 8.522617
vt 0.7501507 8.522617
vt 0.72519207 8.546017
vt 0.7509308 8.546017
vt 0.7439108 9.721441
vt 0.7189522 9.721441
vn -0.7098032 0.027466297 0.70386434
vn -0.7098032 -0.0039054751 0.7043892
vn -0.9999924 -0.0039054751 -7.779902E-05
vn -0.99907017 0.04311242 -0
vn -0.70710677 0.70710677 -0
vn -0.576473 0.576473 0.57910085
vn -0.70710677 0.70710677 -0
vn -0.99907017 0.04311242 -0
vn -0.7098032 0.027466297 0.70386434
vn -0.003937483 0.7098032 0.70438904
vn -0.003937483 0.043152213 0.99906075
vn -0.7098032 -0.0039054751 0.7043892
vn -0.011780381 -0.0039054751 0.999923
vn 0.0039054751 0.043152213 0.99906087
vn 0.0039054751 -0.0039054751 0.99998474
vn 0.0039054751 0.7098032 0.7043892
vn 0.0039054751 -0.0039054751 0.99998474
vn 0.0039054751 0.043152213 0.99906087
vn 0.0039054751 0.7098032 0.7043892
vn 0.011748433 -0.0039054751 0.99992335
vn 0.0039054751 0.043152213 0.99906087
vn 0.0039054751 0.7098032 0.7043892
vn 0.70977116 0.027466297 0.70389664
vn 0.70977116 -0.0039054751 0.70442146
vn 0.576441 0.576473 0.5791327
vn 0.70977116 0.027466297 0.70389664
vn 0.70709074 0.7071227 -0
vn 0.99907017 0.043113794 -0
vn 0.70977116 -0.0039054751 0.70442146
vn 0.9999604 -0.0039054751 0.007993887
vn 0.99907017 0.043113794 -0
vn 0.70709074 0.7071227 -0
vn -0.70710677 0.70710677 -0
vn -0.70710677 0.70710677 -0
vn -0.011779654 0.9999306 -0
vn -0.011779654 0.9999306 -0
vn -0.003937483 0.7098032 0.70438904
vn -0.576473 0.576473 0.57910085
vn 0.0039054751 0.7098032 0.7043892
vn 0.0039054751 0.9999924 -0
vn 0.0039054751 0.9999924 -0
vn 0.0039054751 0.9999924 -0
vn 0.0039054751 0.7098032 0.7043892
vn 0.0039054751 0.7098032 0.7043892
vn 0.0039054751 0.9999924 -0
vn 0.0039054751 0.9999924 -0
vn 0.0039054751 0.9999924 -0
vn -0.70710677 0.70710677 -0
vn -0.70710677 0.70710677 -0
vn -0.99907017 0.04311242 -0
vn -0.99907017 0.04311242 -0
vn -0.7098032 0.027466297 -0.70386434
vn -0.576473 0.576473 -0.57910085
vn -0.003937483 0.7098032 -0.70438904
vn -0.7098032 0.027466297 -0.70386434
vn -0.003937483 0.043152213 -0.99906075
vn 0.0039054751 0.7098032 -0.7043892
vn 0.0039054751 0.043152213 -0.99906087
vn 0.0039054751 0.7098032 -0.7043892
vn 0.0039054751 0.043152213 -0.99906087
vn -0.003937483 0.7098032 -0.70438904
vn 0.0039054751 0.7098032 -0.7043892
vn 0.0039054751 0.9999924 -0
vn -0.011779654 0.9999306 -0
vn -0.70710677 0.70710677 -0
vn -0.576473 0.576473 -0.57910085
vn -0.70710677 0.70710677 -0
vn -0.011779654 0.9999306 -0
vn 0.0039054751 0.9999924 -0
vn 0.0039054751 0.7098032 -0.7043892
vn 0.0039054751 0.7098032 -0.7043892
vn 0.0039054751 0.9999924 -0
vn 0.0039054751 0.9999924 -0
vn 0.0039054751 0.9999924 -0
vn 0.0039054751 0.9999924 -0
vn 0.0039054751 0.7098032 0.7043892
vn 0.0039054751 0.7098032 0.7043892
vn 0.0039054751 0.9999924 -0
vn 0.011747712 0.999931 -0
vn 0.0039054751 0.9999924 -0
vn 0.011747712 0.999931 -0
vn 0.70709074 0.7071227 -0
vn 0.70709074 0.7071227 -0
vn 0.576441 0.576473 0.5791327
vn 0.011747712 0.999931 -0
vn 0.70709074 0.7071227 -0
vn 0.70709074 0.7071227 -0
vn 0.011747712 0.999931 -0
vn 0.0039054751 0.9999924 -0
vn 0.0039054751 0.9999924 -0
vn 0.0039054751 0.7098032 -0.7043892
vn 0.0039054751 0.7098032 -0.7043892
vn 0.576441 0.576473 -0.5791327
vn 0.70709074 0.7071227 -0
vn 0.99907017 0.043113794 -0
vn 0.99907017 0.043113794 -0
vn 0.70709074 0.7071227 -0
vn 0.70977116 0.027466297 -0.70389664
vn 0.576441 0.576473 -0.5791327
vn 0.70977116 0.027466297 -0.70389664
vn 0.0039054751 0.7098032 -0.7043892
vn 0.0039054751 0.043152213 -0.99906087
vn 0.0039054751 0.043152213 -0.99906087
vn 0.0039054751 0.7098032 -0.7043892
g ENV_SY02_GX_Section05_Vinyl06_MO_0
f 3/3/3 2/2/2 1/1/1
f 4/4/4 3/3/3 1/1/1
f 4/4/4 1/1/1 5/5/5
f 1/1/1 6/6/6 5/5/5
f 5/5/5 7/7/7 4/4/4
f 7/7/7 8/8/8 4/4/4
f 10/10/10 6/6/6 9/9/9
f 11/11/11 10/10/10 9/9/9
f 9/9/9 12/12/12 11/11/11
f 12/12/12 13/13/13 11/11/11
f 11/11/11 14/14/14 10/10/10
f 11/11/11 13/13/13 14/14/14
f 13/13/13 15/15/15 14/14/14
f 14/14/14 16/16/16 10/10/10
f 15/15/15 17/17/17 14/14/14
f 14/14/14 18/18/18 16/16/16
f 17/17/17 18/18/18 14/14/14
f 18/18/18 19/19/19 16/16/16
f 17/17/17 20/20/20 18/18/18
f 19/19/19 18/18/18 21/21/21
f 20/20/20 21/21/21 18/18/18
f 22/22/22 19/19/19 21/21/21
f 21/21/21 20/20/20 23/23/23
f 21/21/21 23/23/23 22/22/22
f 20/20/20 24/24/24 23/23/23
f 23/23/23 25/25/25 22/22/22
f 27/27/27 25/25/25 26/26/26
f 28/28/28 27/27/27 26/26/26
f 26/26/26 29/29/29 28/28/28
f 29/29/29 30/30/30 28/28/28
f 28/28/28 31/31/31 27/27/27
f 31/31/31 32/32/32 27/27/27
f 35/35/35 34/34/34 33/33/33
f 36/36/36 35/35/35 33/33/33
f 36/36/36 33/33/33 37/37/37
f 33/33/33 38/38/38 37/37/37
f 37/37/37 39/39/39 36/36/36
f 39/39/39 40/40/40 36/36/36
f 36/36/36 40/40/40 35/35/35
f 40/40/40 41/41/41 35/35/35
f 44/44/44 43/43/43 42/42/42
f 43/43/43 45/45/45 42/42/42
f 42/42/42 45/45/45 46/46/46
f 45/45/45 47/47/47 46/46/46
f 50/50/50 49/49/49 48/48/48
f 51/51/51 50/50/50 48/48/48
f 51/51/51 48/48/48 52/52/52
f 48/48/48 53/53/53 52/52/52
f 55/55/55 53/53/53 54/54/54
f 56/56/56 55/55/55 54/54/54
f 54/54/54 57/57/57 56/56/56
f 57/57/57 58/58/58 56/56/56
f 57/57/57 59/59/59 58/58/58
f 59/59/59 60/60/60 58/58/58
f 63/63/63 62/62/62 61/61/61
f 64/64/64 63/63/63 61/61/61
f 64/64/64 61/61/61 65/65/65
f 61/61/61 66/66/66 65/65/65
f 65/65/65 67/67/67 64/64/64
f 67/67/67 68/68/68 64/64/64
f 63/63/63 64/64/64 68/68/68
f 69/69/69 63/63/63 68/68/68
f 72/72/72 71/71/71 70/70/70
f 73/73/73 72/72/72 70/70/70
f 74/74/74 72/72/72 73/73/73
f 75/75/75 74/74/74 73/73/73
f 78/78/78 77/77/77 76/76/76
f 79/79/79 78/78/78 76/76/76
f 78/78/78 79/79/79 80/80/80
f 79/79/79 81/81/81 80/80/80
f 82/82/82 81/81/81 79/79/79
f 83/83/83 82/82/82 79/79/79
f 79/79/79 76/76/76 83/83/83
f 76/76/76 84/84/84 83/83/83
f 87/87/87 86/86/86 85/85/85
f 86/86/86 88/88/88 85/85/85
f 85/85/85 88/88/88 89/89/89
f 90/90/90 85/85/85 89/89/89
f 91/91/91 89/89/89 88/88/88
f 92/92/92 91/91/91 88/88/88
f 88/88/88 86/86/86 92/92/92
f 86/86/86 93/93/93 92/92/92
f 96/96/96 95/95/95 94/94/94
f 95/95/95 97/97/97 94/94/94
f 95/95/95 98/98/98 97/97/97
f 98/98/98 99/99/99 97/97/97
f 101/101/101 99/99/99 100/100/100
f 102/102/102 101/101/101 100/100/100
f 102/102/102 103/103/103 101/101/101
f 103/103/103 104/104/104 101/101/101
