g ENV_SY01_BBA_Ring3_Vinyl_MO
v -2.7854738 2.6932216 14.246729
v -2.7854738 1.5684361 14.246729
v -2.8103924 1.5684361 14.128498
v -2.8103924 2.6932216 14.128498
v -2.7637362 2.8069463 14.135391
v -2.76082 2.7860036 14.229498
v -2.4689536 2.6932216 12.412027
v -2.4689536 1.5684361 12.412027
v -2.4222975 2.8069463 12.418919
v -2.1275153 2.6932216 10.69529
v -2.1275153 1.5684361 10.69529
v -2.0588565 1.5684361 10.59005
v -2.0588565 2.6932216 10.59005
v -2.0808587 2.8069463 10.702183
v -2.0421553 2.7860036 10.613907
v -1.9459271 2.8069463 10.607281
v -2.0588565 2.6932216 10.59005
v -1.9679298 2.8541327 10.719149
v -2.3093681 2.8541327 12.435619
v -1.0684724 2.8541327 10.848515
v -1.9366488 2.6932216 10.560888
v -1.9366488 1.5684361 10.560888
v -2.0588565 1.5684361 10.59005
v -1.0525668 1.5684361 10.688133
v -1.0573385 2.8069463 10.735054
v -1.0525668 2.6932216 10.688133
v 0.00011372566 1.5684361 10.739826
v 0.00011372566 2.6932216 10.739826
v 1.0527943 1.5684361 10.688133
v 0.00011372566 2.8069463 10.787012
v 0.00011372566 2.8541327 10.901003
v 1.0684348 2.8541327 10.848515
v 1.0527943 2.6932216 10.688133
v 1.9368763 1.5684361 10.560888
v 1.0573009 2.8069463 10.735054
v 1.9458895 2.8069463 10.607281
v 1.9368763 2.6932216 10.560888
v 2.0588188 1.5684361 10.59005
v 2.0588188 2.6932216 10.59005
v 2.0421178 2.7860036 10.613907
v -1.2399869 2.8541327 12.590168
v 2.0808213 2.8069463 10.702183
v 2.0588188 2.6932216 10.59005
v 1.9678922 2.8541327 10.719149
v 0.00011372566 2.8541327 12.65114
v -2.650807 2.8541327 14.152092
v 2.3093307 2.8541327 12.435619
v -1.4115014 2.8541327 14.331823
v -2.6733398 2.8069463 14.26396
v -2.7854738 2.6932216 14.246729
v 1.2399493 2.8541327 12.590168
v -1.4226356 2.8069463 14.445284
v -2.6826177 2.6932216 14.310087
v -2.7854738 1.5684361 14.246729
v -2.6826177 1.5684361 14.310087
v -1.4274068 2.6932216 14.492205
v -1.4274068 1.5684361 14.492205
v 0.00011372566 2.6932216 14.562454
v 0.00011372566 1.5684361 14.562454
v 1.4273695 2.6932216 14.492205
v 1.4273695 1.5684361 14.492205
v 2.6825802 1.5684361 14.310087
v 0.00011372566 2.8069463 14.515268
v 0.00011372566 2.8541327 14.401278
v 1.4228629 2.8069463 14.445284
v 2.6733022 2.8069463 14.26396
v 1.4114639 2.8541327 14.331823
v 2.6507692 2.8541327 14.152092
v 2.6825802 2.6932216 14.310087
v 2.7854362 2.6932216 14.246729
v 2.7854362 1.5684361 14.246729
v 2.7607825 2.7860036 14.229498
v 2.7636986 2.8069463 14.135391
v 2.7854362 2.6932216 14.246729
v 2.4222598 2.8069463 12.418919
v 2.8103547 2.6932216 14.128498
v 2.7854362 1.5684361 14.246729
v 2.8103547 1.5684361 14.128498
v 2.4689162 1.5684361 12.412027
v 2.4689162 2.6932216 12.412027
v 2.1274776 1.5684361 10.69529
v 2.1274776 2.6932216 10.69529
v 2.0588188 1.5684361 10.59005
vt 0.47887206 0.86243385
vt 0.5606313 0.85284483
vt 0.55962193 0.84325576
vt 0.47887206 0.85284483
vt 0.46928298 0.8538542
vt 0.4702924 0.8619292
vt 0.4551518 0.71657944
vt 0.53792036 0.70143884
vt 0.44556272 0.7180935
vt 0.42487058 0.58283746
vt 0.5066298 0.56265
vt 0.5041064 0.55306095
vt 0.42184246 0.57324845
vt 0.4157862 0.5848562
vt 0.41326278 0.57728595
vt 0.4051878 0.5777906
vt 0.41477683 0.56921095
vt 0.40619716 0.58687496
vt 0.435469 0.71960753
vt 0.33453166 0.59242654
vt 0.4046831 0.5687063
vt 0.40316904 0.48644233
vt 0.41326278 0.48644233
vt 0.33099887 0.48896575
vt 0.334027 0.58283746
vt 0.3335223 0.5727438
vt 0.2462115 0.49249858
vt 0.24823025 0.5767813
vt 0.16091947 0.49350798
vt 0.24873495 0.58687496
vt 0.24873495 0.5969687
vt 0.16293822 0.5974734
vt 0.16293822 0.57728595
vt 0.08874929 0.49552667
vt 0.16293822 0.5873797
vt 0.0917774 0.58536094
vt 0.0917774 0.57627654
vt 0.078655556 0.4960314
vt 0.08218837 0.5777906
vt 0.083702415 0.5858656
vt 0.35017696 0.73172003
vt 0.08168368 0.5934359
vt 0.075122744 0.5823328
vt 0.09127273 0.59494996
vt 0.25226775 0.7377763
vt 0.46019864 0.8548636
vt 0.06856182 0.72869194
vt 0.36430818 0.8700042
vt 0.4622174 0.8639479
vt 0.47382516 0.8700042
vt 0.15435855 0.7367669
vt 0.36582223 0.8800979
vt 0.4647408 0.8730323
vt 0.48947048 0.950754
vt 0.48038608 0.9532774
vt 0.3668316 0.88968694
vt 0.37743002 0.9719508
vt 0.25630525 0.89776194
vt 0.258324 0.9810352
vt 0.14527419 0.8947338
vt 0.13871326 0.9795212
vt 0.034747817 0.96438056
vt 0.25580055 0.8876682
vt 0.25580055 0.87757444
vt 0.14577888 0.88514477
vt 0.048374355 0.8740417
vt 0.14678825 0.875051
vt 0.050393105 0.86495733
vt 0.0468603 0.8836307
vt 0.03777594 0.8811073
vt 0.02515877 0.9623619
vt 0.04080406 0.8725276
vt 0.04080406 0.8644526
vt 0.0317197 0.873537
vt 0.05846809 0.72768253
vt 0.0317197 0.86344326
vt -0.05205828 0.86647135
vt -0.051553592 0.85688233
vt -0.03439425 0.71506536
vt 0.048374355 0.7266732
vt -0.008150544 0.5752672
vt 0.07209463 0.59192187
vt -0.0056271106 0.56517345
vn -0.82091486 0.026736975 0.5704243
vn -0.82091486 0.003378749 0.57104063
vn -0.9844221 0.003378749 -0.17578895
vn -0.9844221 0.03452301 -0.17239878
vn -0.704124 0.704124 -0.091754176
vn -0.6651937 0.57954705 0.47078937
vn -0.97663605 0.03452301 -0.21210892
vn -0.9844221 0.003378749 -0.17578895
vn -0.69633794 0.704124 -0.13900684
vn -0.97663605 0.03452301 -0.21210892
vn -0.97663605 0.003378749 -0.21487351
vn -0.57954705 0.003378749 -0.81493175
vn -0.571761 0.026736975 -0.8199845
vn -0.6885519 0.7119101 -0.1381314
vn -0.4705423 0.571761 -0.6720709
vn 0.06669575 0.7119101 -0.6990963
vn -0.571761 0.026736975 -0.8199845
vn -0.03450265 0.99940455 -0
vn -0.04227147 0.9991061 -0
vn 0.0044072694 0.99999034 -0
vn 0.09784001 0.03452301 -0.99460316
vn 0.09784001 0.003378749 -0.9951964
vn -0.57954705 0.003378749 -0.81493175
vn 0.090053916 0.003378749 -0.99593115
vn 0.06669575 0.7119101 -0.6990963
vn 0.090053916 0.042309046 -0.9950378
vn -0.003378749 0.003378749 -0.99998856
vn -0.003378749 0.042309046 -0.99909884
vn -0.08902538 0.003378749 -0.9960236
vn -0.003378749 0.7119101 -0.70226246
vn -0.003378749 0.9999943 -0
vn -0.003378749 0.9999943 -0
vn -0.08902538 0.042309046 -0.99513036
vn -0.09681153 0.003378749 -0.99529696
vn -0.06566727 0.7119101 -0.69919366
vn -0.06566727 0.7119101 -0.69919366
vn -0.09681153 0.03452301 -0.9947038
vn 0.57278955 0.003378749 -0.8196955
vn 0.57278955 0.026736975 -0.8192663
vn 0.4715708 0.571761 -0.67134964
vn -0.003378749 0.9999943 -0
vn 0.68179435 0.7119101 -0.16834624
vn 0.57278955 0.026736975 -0.8192663
vn 0.03552925 0.9993687 -0
vn -0.003378749 0.9999943 -0
vn -0.04227147 0.9991061 -0
vn 0.03552925 0.9993687 -0
vn -0.003378749 0.9999943 -0
vn -0.12795568 0.704124 0.6984531
vn -0.82091486 0.026736975 0.5704243
vn -0.003378749 0.9999943 -0
vn -0.06566727 0.704124 0.7070341
vn -0.17467201 0.03452301 0.98402125
vn -0.82091486 0.003378749 0.57104063
vn -0.17467201 0.003378749 0.98462087
vn -0.09681153 0.03452301 0.9947038
vn -0.09681153 0.003378749 0.99529696
vn -0.003378749 0.03452301 0.9993982
vn -0.003378749 0.003378749 0.99998856
vn 0.090053916 0.03452301 0.9953384
vn 0.090053916 0.003378749 0.99593115
vn 0.17570055 0.003378749 0.9844378
vn -0.003378749 0.704124 0.710069
vn -0.003378749 0.9999943 -0
vn 0.06669575 0.704124 0.70693785
vn 0.12898421 0.704124 0.69826394
vn 0.0044072694 0.99999034 -0
vn 0.04329719 0.99906224 -0
vn 0.17570055 0.03452301 0.98383814
vn 0.81415737 0.026736975 0.58002836
vn 0.81415737 0.003378749 0.5806344
vn 0.6662222 0.57954705 0.4693327
vn 0.7051525 0.704124 -0.083482705
vn 0.81415737 0.026736975 0.58002836
vn 0.6973665 0.704124 -0.1337513
vn 0.9854506 0.03452301 -0.16641891
vn 0.81415737 0.003378749 0.5806344
vn 0.9854506 0.003378749 -0.16992845
vn 0.9776646 0.003378749 -0.21014403
vn 0.9776646 0.03452301 -0.2073164
vn 0.9776646 0.003378749 -0.21014403
vn 0.9776646 0.03452301 -0.2073164
vn 0.57278955 0.003378749 -0.8196955
g ENV_SY01_BBA_Ring3_Vinyl_MO_0
f 3/3/3 2/2/2 1/1/1
f 4/4/4 3/3/3 1/1/1
f 4/4/4 1/1/1 5/5/5
f 1/1/1 6/6/6 5/5/5
f 4/4/4 7/7/7 3/3/3
f 7/7/7 8/8/8 3/3/3
f 5/5/5 9/9/9 4/4/4
f 9/9/9 7/7/7 4/4/4
f 7/7/7 10/10/10 8/8/8
f 10/10/10 11/11/11 8/8/8
f 12/12/12 11/11/11 10/10/10
f 13/13/13 12/12/12 10/10/10
f 14/14/14 10/10/10 7/7/7
f 10/10/10 14/14/14 13/13/13
f 9/9/9 14/14/14 7/7/7
f 14/14/14 15/15/15 13/13/13
f 16/16/16 15/15/15 14/14/14
f 17/17/17 15/15/15 16/16/16
f 18/18/18 14/14/14 9/9/9
f 18/18/18 16/16/16 14/14/14
f 19/19/19 18/18/18 9/9/9
f 19/19/19 9/9/9 5/5/5
f 18/18/18 20/20/20 16/16/16
f 20/20/20 18/18/18 19/19/19
f 21/21/21 17/17/17 16/16/16
f 21/21/21 22/22/22 17/17/17
f 22/22/22 23/23/23 17/17/17
f 24/24/24 22/22/22 21/21/21
f 16/16/16 25/25/25 21/21/21
f 20/20/20 25/25/25 16/16/16
f 26/26/26 24/24/24 21/21/21
f 25/25/25 26/26/26 21/21/21
f 27/27/27 24/24/24 26/26/26
f 28/28/28 27/27/27 26/26/26
f 29/29/29 27/27/27 28/28/28
f 25/25/25 30/30/30 26/26/26
f 30/30/30 28/28/28 26/26/26
f 20/20/20 31/31/31 25/25/25
f 31/31/31 30/30/30 25/25/25
f 31/31/31 32/32/32 30/30/30
f 33/33/33 29/29/29 28/28/28
f 29/29/29 33/33/33 34/34/34
f 30/30/30 35/35/35 28/28/28
f 32/32/32 35/35/35 30/30/30
f 35/35/35 33/33/33 28/28/28
f 33/33/33 35/35/35 36/36/36
f 36/36/36 35/35/35 32/32/32
f 33/33/33 37/37/37 34/34/34
f 37/37/37 33/33/33 36/36/36
f 38/38/38 34/34/34 37/37/37
f 39/39/39 38/38/38 37/37/37
f 37/37/37 36/36/36 39/39/39
f 36/36/36 40/40/40 39/39/39
f 31/31/31 20/20/20 41/41/41
f 41/41/41 20/20/20 19/19/19
f 42/42/42 40/40/40 36/36/36
f 43/43/43 40/40/40 42/42/42
f 44/44/44 36/36/36 32/32/32
f 44/44/44 42/42/42 36/36/36
f 32/32/32 31/31/31 45/45/45
f 45/45/45 31/31/31 41/41/41
f 41/41/41 19/19/19 46/46/46
f 46/46/46 19/19/19 5/5/5
f 47/47/47 44/44/44 32/32/32
f 42/42/42 44/44/44 47/47/47
f 45/45/45 41/41/41 48/48/48
f 48/48/48 41/41/41 46/46/46
f 46/46/46 5/5/5 49/49/49
f 5/5/5 6/6/6 49/49/49
f 49/49/49 6/6/6 50/50/50
f 51/51/51 32/32/32 45/45/45
f 51/51/51 47/47/47 32/32/32
f 52/52/52 48/48/48 46/46/46
f 49/49/49 52/52/52 46/46/46
f 53/53/53 49/49/49 50/50/50
f 50/50/50 54/54/54 53/53/53
f 54/54/54 55/55/55 53/53/53
f 53/53/53 56/56/56 49/49/49
f 56/56/56 53/53/53 55/55/55
f 56/56/56 52/52/52 49/49/49
f 57/57/57 56/56/56 55/55/55
f 58/58/58 56/56/56 57/57/57
f 56/56/56 58/58/58 52/52/52
f 59/59/59 58/58/58 57/57/57
f 60/60/60 58/58/58 59/59/59
f 61/61/61 60/60/60 59/59/59
f 61/61/61 62/62/62 60/60/60
f 58/58/58 63/63/63 52/52/52
f 52/52/52 63/63/63 48/48/48
f 58/58/58 60/60/60 63/63/63
f 63/63/63 64/64/64 48/48/48
f 64/64/64 45/45/45 48/48/48
f 51/51/51 45/45/45 64/64/64
f 63/63/63 65/65/65 64/64/64
f 60/60/60 65/65/65 63/63/63
f 66/66/66 65/65/65 60/60/60
f 65/65/65 67/67/67 64/64/64
f 67/67/67 51/51/51 64/64/64
f 67/67/67 65/65/65 66/66/66
f 67/67/67 68/68/68 51/51/51
f 68/68/68 67/67/67 66/66/66
f 68/68/68 47/47/47 51/51/51
f 62/62/62 69/69/69 60/60/60
f 69/69/69 66/66/66 60/60/60
f 69/69/69 62/62/62 70/70/70
f 69/69/69 70/70/70 66/66/66
f 62/62/62 71/71/71 70/70/70
f 70/70/70 72/72/72 66/66/66
f 66/66/66 72/72/72 73/73/73
f 68/68/68 66/66/66 73/73/73
f 73/73/73 72/72/72 74/74/74
f 75/75/75 47/47/47 68/68/68
f 73/73/73 75/75/75 68/68/68
f 75/75/75 42/42/42 47/47/47
f 76/76/76 73/73/73 74/74/74
f 74/74/74 77/77/77 76/76/76
f 77/77/77 78/78/78 76/76/76
f 78/78/78 79/79/79 76/76/76
f 76/76/76 80/80/80 73/73/73
f 79/79/79 80/80/80 76/76/76
f 80/80/80 75/75/75 73/73/73
f 79/79/79 81/81/81 80/80/80
f 82/82/82 42/42/42 75/75/75
f 80/80/80 82/82/82 75/75/75
f 81/81/81 82/82/82 80/80/80
f 82/82/82 43/43/43 42/42/42
f 82/82/82 81/81/81 43/43/43
f 81/81/81 83/83/83 43/43/43
