g ENV_S05_G7_Checkpoint_SidePLatform_MO
v 1.5526574 -1.3055869 -4.839897E-05
v 1.5541215 -1.3055869 -2.443758
v 1.5427746 -1.3329477 -2.4492486
v 1.541402 -1.3329477 -4.839897E-05
v 1.5512848 -1.3055869 2.4437528
v 1.5154138 -1.3442947 -2.4514446
v 1.5399379 -1.3329477 2.449243
v 1.5140412 -1.3442947 -4.839897E-05
v 1.0307897 -1.3442947 -2.4514446
v 1.512577 -1.3442947 2.4514394
v 0.2015481 -1.3442947 -2.1886349
v 1.0276785 -1.3442947 2.4514394
v -0.4593196 -1.3442947 -1.6762841
v 0.1987114 -1.3442947 2.188538
v -0.88739204 -1.3442947 -0.86333084
v -0.46179032 -1.3442947 1.6759129
v -1.0026002 -1.3442947 0.00031757355
v -0.88803244 -1.3442947 0.8643322
v 1.5512848 -1.3055869 2.4437528
v 1.5511017 -1.1544164 2.8086848
v 1.5510103 -0.7895758 2.959764
v 1.5526574 -0.79726243 -4.839897E-05
v 1.5526574 -1.3055869 -4.839897E-05
v 1.5541215 -1.3055869 -2.443758
v 1.5510103 1.2043743 2.959764
v 1.554396 -0.7895758 -2.9597692
v 1.5543045 -1.1544164 -2.8085988
v 1.554396 1.2043743 -2.9597692
v 1.5526574 1.2120609 -4.839897E-05
v 1.5526574 1.3055816 -4.839897E-05
v 1.5510103 1.3055816 2.8585567
v 1.5510103 1.2759333 2.9301157
v 1.554396 1.3055816 -2.858562
v 1.554396 1.2759333 -2.930121
v 1.5399379 -1.3329477 2.449243
v 1.5511017 -1.1544164 2.8086848
v 1.5512848 -1.3055869 2.4437528
v 1.5397547 -1.1753716 2.8295488
v 1.5510103 -0.7895758 2.959764
v 1.5396633 -0.7949748 2.987125
v 1.512577 -1.3442947 2.4514394
v 1.5123941 -1.1840649 2.838242
v 1.5123025 -0.79726243 2.9984717
v 0.9429424 -0.79726243 2.9984717
v 0.96783257 -1.1840649 2.838242
v 1.0276785 -1.3442947 2.4514394
v -0.05961442 -0.79726243 2.6803913
v 0.01606226 -1.1840649 2.5363584
v 0.1987114 -1.3442947 2.188538
v -0.8909607 -0.79726243 2.035263
v -0.76522946 -1.1840649 1.9300294
v -0.46179032 -1.3442947 1.6759129
v -1.4174953 -0.79726243 1.0326147
v -1.2623901 -1.1840649 0.98329186
v -0.88803244 -1.3442947 0.8643322
v -1.5543904 -0.79726243 0.00013446808
v -1.3927884 -1.1840649 0.00022602081
v -1.0026002 -1.3442947 0.00031757355
v -1.4166718 -0.79726243 -1.0320708
v -1.2616577 -1.1840649 -0.9826567
v -0.88739204 -1.3442947 -0.86333084
v -0.888124 -0.79726243 -2.0360003
v -0.7625756 -1.1840649 -1.9306751
v -0.4593196 -1.3442947 -1.6762841
v -0.05659485 -0.79726243 -2.6806712
v 0.01908207 -1.1840649 -2.5365467
v 0.2015481 -1.3442947 -2.1886349
v 0.9462366 -0.79726243 -2.998477
v 0.9709437 -1.1840649 -2.8382473
v 1.0307897 -1.3442947 -2.4514446
v 1.5157799 -0.79726243 -2.998477
v 1.5156883 -1.1840649 -2.8382473
v 1.5154138 -1.3442947 -2.4514446
v 1.5427746 -1.3329477 -2.4492486
v 1.5430491 -1.1753716 -2.829554
v 1.5541215 -1.3055869 -2.443758
v 1.5431405 -0.7949748 -2.98713
v 1.5543045 -1.1544164 -2.8085988
v 1.554396 -0.7895758 -2.9597692
v 1.5396633 1.2098646 2.987125
v 1.5510103 1.2759333 2.9301157
v 1.5510103 1.2043743 2.959764
v 1.5396633 1.2968884 2.9510708
v 1.5510103 1.3055816 2.8585567
v 1.5123025 1.2120609 2.9984717
v 1.5396633 1.3329425 2.864047
v 1.5526574 1.3055816 -4.839897E-05
v 1.5123025 1.3055816 2.959764
v 1.541402 1.3329425 -4.839897E-05
v 1.554396 1.3055816 -2.858562
v 0.948982 1.3055816 2.959764
v 0.9429424 1.2120609 2.9984717
v 1.5123025 1.3442893 2.866335
v 1.5430491 1.3329425 -2.8640523
v 1.554396 1.2759333 -2.930121
v 0.9634402 1.3442893 2.866335
v 1.5140412 1.3442893 -4.839897E-05
v 0.0027935505 1.3442893 2.5616145
v 1.5156883 1.3442893 -2.8663402
v -0.7872827 1.3442893 1.9484224
v -0.041312933 1.3055816 2.6456184
v -0.05961442 1.2120609 2.6803913
v 1.5430491 1.2968884 -2.951076
v 1.554396 1.2043743 -2.9597692
v 1.5431405 1.2098646 -2.98713
v -0.8605802 1.3055816 2.0098238
v -0.8909607 1.2120609 2.035263
v 1.5156883 1.3055816 -2.9597692
v 1.5157799 1.2120609 -2.998477
v 0.9462366 1.2120609 -2.998477
v 0.9521847 1.3055816 -2.9597692
v -0.05659485 1.2120609 -2.6806712
v -1.289568 1.3442893 0.99189353
v -1.3800688 1.3055816 1.0207186
v -1.4174953 1.2120609 1.0326147
v 0.96664286 1.3442893 -2.8663402
v -0.03829336 1.3055816 -2.6458068
v -0.888124 1.2120609 -2.0360003
v -1.4210639 1.3442893 0.00022602081
v -1.5154085 1.3055816 0.00013446808
v -1.5543904 1.2120609 0.00013446808
v 0.00581336 1.3442893 -2.5618029
v -0.8577435 1.3055816 -2.0105612
v -1.4166718 1.2120609 -1.0320708
v -1.3792453 1.3055816 -1.0201749
v -1.288744 1.3442893 -0.99134994
v -0.78453755 1.3442893 -1.9490682
v 1.5510103 1.2043743 2.959764
v 1.5510103 -0.7895758 2.959764
v 1.5396633 -0.7949748 2.987125
v 1.5396633 1.2098646 2.987125
v 1.5123025 -0.79726243 2.9984717
v 1.5123025 1.2120609 2.9984717
v 0.9429424 -0.79726243 2.9984717
v 0.9429424 1.2120609 2.9984717
v -0.05961442 -0.79726243 2.6803913
v -0.05961442 1.2120609 2.6803913
v -0.8909607 -0.79726243 2.035263
v -0.8909607 1.2120609 2.035263
v -1.4174953 1.2120609 1.0326147
v -1.4174953 -0.79726243 1.0326147
v -1.5543904 -0.79726243 0.00013446808
v -1.5543904 1.2120609 0.00013446808
v -1.4166718 -0.79726243 -1.0320708
v -1.4166718 1.2120609 -1.0320708
v -0.888124 1.2120609 -2.0360003
v -0.888124 -0.79726243 -2.0360003
v -0.05659485 -0.79726243 -2.6806712
v -0.05659485 1.2120609 -2.6806712
v 0.9462366 -0.79726243 -2.998477
v 0.9462366 1.2120609 -2.998477
v 1.5157799 -0.79726243 -2.998477
v 1.5157799 1.2120609 -2.998477
v 1.5431405 -0.7949748 -2.98713
v 1.5431405 1.2098646 -2.98713
v 1.554396 -0.7895758 -2.9597692
v 1.554396 1.2043743 -2.9597692
vt 1.2024059 0.19347715
vt 1.2738941 0.1894306
vt 1.2738941 0.18875623
vt 1.2024059 0.1921283
vt 1.1309175 0.18875623
vt 1.2738941 0.18808174
vt 1.1309175 0.18808174
vt 1.2024059 0.19145381
vt 1.2745686 0.17459345
vt 1.1309175 0.18740737
vt 1.2671499 0.15098882
vt 1.1302431 0.17391896
vt 1.2523127 0.13143075
vt 1.1376617 0.15031433
vt 1.2280338 0.11929119
vt 1.152499 0.13143075
vt 1.2024059 0.11524469
vt 1.1767778 0.11861676
vt 1.3743823 0.8071971
vt 1.3615685 0.8125925
vt 1.3568475 0.82473195
vt 1.4580102 0.82473195
vt 1.4580102 0.8071971
vt 1.5423124 0.8071971
vt 1.3568475 0.8935225
vt 1.5598471 0.82473195
vt 1.5544517 0.8125925
vt 1.5598471 0.8935225
vt 1.4580102 0.8935225
vt 1.4580102 0.8968947
vt 1.3602195 0.8968947
vt 1.3575218 0.8962202
vt 1.5564752 0.8968947
vt 1.5591726 0.8962202
vt 1.1309175 0.18808174
vt 1.120127 0.1921283
vt 1.1309175 0.18875623
vt 1.120127 0.19145381
vt 1.1127083 0.20157015
vt 1.1120338 0.2002213
vt 1.1309175 0.18740737
vt 1.1194525 0.19077945
vt 1.110685 0.19887245
vt 1.1052897 0.17526782
vt 1.1174293 0.17459345
vt 1.1302431 0.17391896
vt 1.1147316 0.14019811
vt 1.1255221 0.14491904
vt 1.1376617 0.15031433
vt 1.136313 0.11254698
vt 1.1444058 0.12131441
vt 1.152499 0.13143075
vt 1.168685 0.09501213
vt 1.1727314 0.10647726
vt 1.1767778 0.11861676
vt 1.2024059 0.0902912
vt 1.2024059 0.10310513
vt 1.2024059 0.11524469
vt 1.2361267 0.09501213
vt 1.2320802 0.10715163
vt 1.2280338 0.11929119
vt 1.2684987 0.11254698
vt 1.2604058 0.12198889
vt 1.2523127 0.13143075
vt 1.2900801 0.14019811
vt 1.2792895 0.1455934
vt 1.2671499 0.15098882
vt 1.2995219 0.1759423
vt 1.2873824 0.17526782
vt 1.2745686 0.17459345
vt 1.2934523 0.19954681
vt 1.2846847 0.19145381
vt 1.2738941 0.18808174
vt 1.2738941 0.18875623
vt 1.2846847 0.1921283
vt 1.2738941 0.1894306
vt 1.2927778 0.20089567
vt 1.2846847 0.19280267
vt 1.291429 0.20157015
vt 1.1302431 0.8132669
vt 1.1329408 0.81394124
vt 1.1322663 0.811918
vt 1.1322663 0.8152901
vt 1.134964 0.8152901
vt 1.1295688 0.8152901
vt 1.134964 0.8159646
vt 1.2226384 0.8152901
vt 1.1322663 0.8159646
vt 1.2226384 0.8159646
vt 1.3103125 0.8159646
vt 1.131592 0.8341738
vt 1.1288943 0.8341738
vt 1.134964 0.81663895
vt 1.3103125 0.81663895
vt 1.312336 0.8152901
vt 1.134964 0.83349943
vt 1.2226384 0.81663895
vt 1.1437316 0.8631737
vt 1.3103125 0.8179878
vt 1.1626151 0.88677835
vt 1.1410339 0.8645226
vt 1.1383362 0.8658714
vt 1.3130102 0.8159646
vt 1.3136847 0.8132669
vt 1.3150334 0.8146157
vt 1.1605918 0.88947606
vt 1.1585686 0.89217377
vt 1.3130102 0.81663895
vt 1.3157079 0.8159646
vt 1.3163824 0.83552265
vt 1.3136847 0.8348483
vt 1.3062661 0.8665459
vt 1.1916151 0.90229
vt 1.1909406 0.90566206
vt 1.1902664 0.90835977
vt 1.3103125 0.8341738
vt 1.3035684 0.86519706
vt 1.2860336 0.89284813
vt 1.2219639 0.9070109
vt 1.2219639 0.9097086
vt 1.2219639 0.9130807
vt 1.3008709 0.8638482
vt 1.2840104 0.8901504
vt 1.2543359 0.90903413
vt 1.2536616 0.90566206
vt 1.2523127 0.90296435
vt 1.2819872 0.88745284
vt 1.8808699 0.7768483
vt 1.8808699 0.21573293
vt 1.872777 0.2137096
vt 1.872777 0.77887154
vt 1.8640094 0.2137096
vt 1.8640094 0.77887154
vt 1.7041726 0.2137096
vt 1.7041726 0.77887154
vt 1.4081032 0.2137096
vt 1.4081032 0.77887154
vt 1.1120338 0.2137096
vt 1.1120338 0.77887154
vt 0.7930343 0.77887154
vt 0.7930343 0.2137096
vt 0.5003371 0.2137096
vt 0.5003371 0.77887154
vt 0.20696545 0.2137096
vt 0.20696545 0.77887154
vt -0.11203408 0.77887154
vt -0.11203408 0.2137096
vt -0.40810338 0.2137096
vt -0.40810338 0.77887154
vt -0.70417273 0.2137096
vt -0.70417273 0.77887154
vt -0.8640097 0.2137096
vt -0.8640097 0.77887154
vt -0.8727771 0.2137096
vt -0.8727771 0.77887154
vt -0.8808701 0.21573293
vt -0.8808701 0.7768483
vn 0.99980634 -0.01967898 -0
vn 0.99980634 -0.01967898 -0
vn 0.6862934 -0.7255058 -0.051406533
vn 0.70710677 -0.70710677 -0
vn 0.99980634 -0.01967898 -0
vn 0.035367608 -0.9921501 -0.11994686
vn 0.6862934 -0.7255058 0.051406533
vn 0.027514908 -0.9996214 -0
vn -0.01952982 -0.9921501 -0.12351803
vn 0.035367608 -0.9921501 0.11994686
vn -0.058742166 -0.9921501 -0.11039692
vn -0.01952982 -0.9921501 0.12351803
vn -0.09011209 -0.9921501 -0.08670602
vn -0.058742166 -0.9921501 0.11039692
vn -0.113639474 -0.9921501 -0.05219359
vn -0.09011209 -0.9921501 0.08670602
vn -0.113639474 -0.9921501 -0.05219359
vn -0.113639474 -0.9921501 0.05219359
vn 0.99980634 -0.01967898 -0
vn 0.9921501 -0.06673753 0.10575545
vn 0.999992 -0.003997681 -0
vn 0.9999926 0.0038448572 -0
vn 0.99980634 -0.01967898 -0
vn 0.99980634 -0.01967898 -0
vn 0.9999926 0.0038448572 -0
vn 0.999992 -0.003997681 -0
vn 0.9921501 -0.06673753 -0.10575545
vn 0.9999926 0.0038448572 -0
vn 0.9999926 0.0038448572 -0
vn 0.9921501 0.09011209 0.08670597
vn 0.9972417 0.074222386 -0
vn 0.9686227 0.1685369 0.18266197
vn 0.9972417 0.074222386 -0
vn 0.9686227 0.1685369 -0.18266197
vn 0.6862934 -0.7255058 0.051406533
vn 0.9921501 -0.06673753 0.10575545
vn 0.99980634 -0.01967898 -0
vn 0.67845094 -0.5216013 0.51733583
vn 0.999992 -0.003997681 -0
vn 0.6862934 -0.05105257 0.7255308
vn 0.035367608 -0.9921501 0.11994686
vn 0.019682646 -0.6941359 0.7195748
vn 0.019682646 -0.06673753 0.9975764
vn -0.19990683 -0.06673753 0.9775394
vn -0.1450094 -0.67845094 0.720192
vn -0.01952982 -0.9921501 0.12351803
vn -0.46655107 -0.06673753 0.8819729
vn -0.3410715 -0.67845094 0.6506724
vn -0.058742166 -0.9921501 0.11039692
vn -0.77240777 -0.06673753 0.63161093
vn -0.5685034 -0.67060846 0.47653776
vn -0.09011209 -0.9921501 0.08670602
vn -0.94494236 -0.06673753 0.3203592
vn -0.7018255 -0.67845094 0.21712956
vn -0.113639474 -0.9921501 0.05219359
vn -0.9977798 -0.06660003 -0
vn -0.7331954 -0.67845094 -0.046138704
vn -0.113639474 -0.9921501 -0.05219359
vn -0.94494236 -0.06673753 -0.3203592
vn -0.7018255 -0.67845094 -0.21712956
vn -0.113639474 -0.9921501 -0.05219359
vn -0.77240777 -0.06673753 -0.63161093
vn -0.5685034 -0.67060846 -0.47653776
vn -0.09011209 -0.9921501 -0.08670602
vn -0.46655107 -0.06673753 -0.8819729
vn -0.3410715 -0.67845094 -0.6506724
vn -0.058742166 -0.9921501 -0.11039692
vn -0.19990683 -0.06673753 -0.9775394
vn -0.1450094 -0.67845094 -0.720192
vn -0.01952982 -0.9921501 -0.12351803
vn 0.019682646 -0.06673753 -0.9975764
vn 0.019682646 -0.6941359 -0.7195748
vn 0.035367608 -0.9921501 -0.11994686
vn 0.6862934 -0.7255058 -0.051406533
vn 0.67845094 -0.5216013 -0.51733583
vn 0.99980634 -0.01967898 -0
vn 0.6862934 -0.05105257 -0.7255308
vn 0.9921501 -0.06673753 -0.10575545
vn 0.999992 -0.003997681 -0
vn 0.67845094 0.011687279 0.73455274
vn 0.9686227 0.1685369 0.18266197
vn 0.9999926 0.0038448572 -0
vn 0.662766 0.5292909 0.5297097
vn 0.9972417 0.074222386 -0
vn 0.019682646 0.01952982 0.9996155
vn 0.67845094 0.7331954 0.046138704
vn 0.9921501 0.09011209 0.08670597
vn 0.019682646 0.7018255 0.7120769
vn 0.7071829 0.7070306 -0
vn 0.9972417 0.074222386 -0
vn -0.1450094 0.68614054 0.7128698
vn -0.19990683 0.01952982 0.9796202
vn 0.035351165 0.9993749 -0
vn 0.67845094 0.7331954 -0.046138704
vn 0.9686227 0.1685369 -0.18266197
vn -0.0038448572 0.9998398 0.017482923
vn 0.019681986 0.9998063 -0
vn -0.011687279 0.9998398 0.013558051
vn 0.035351165 0.9993749 -0
vn -0.027366376 0.99962556 -0
vn -0.3410715 0.68614054 0.64255846
vn -0.46655107 0.01952982 0.8842786
vn 0.662766 0.5292909 -0.5297097
vn 0.9999926 0.0038448572 -0
vn 0.67845094 0.011687279 -0.73455274
vn -0.56066084 0.68614054 0.46354133
vn -0.77240777 0.01952982 0.6348266
vn 0.019682646 0.7018255 -0.7120769
vn 0.019682646 0.01952982 -0.9996155
vn -0.19990683 0.01952982 -0.9796202
vn -0.1450094 0.68614054 -0.7128698
vn -0.46655107 0.01952982 -0.8842786
vn -0.027366376 0.99962556 -0
vn -0.6939831 0.68614054 0.21817116
vn -0.9527849 0.01952982 0.30301738
vn -0.0038448572 0.9998398 -0.017482923
vn -0.3410715 0.68614054 -0.64255846
vn -0.77240777 0.01952982 -0.6348266
vn -0.027366376 0.99962556 -0
vn -0.7225587 0.6913096 -0
vn -0.99980927 0.019529223 -0
vn -0.011687279 0.9998398 -0.013558051
vn -0.56066084 0.68614054 -0.46354133
vn -0.9527849 0.01952982 -0.30301738
vn -0.6939831 0.68614054 -0.21817116
vn -0.027366376 0.99962556 -0
vn -0.027366376 0.99962556 -0
vn 0.9999926 0.0038448572 -0
vn 0.999992 -0.003997681 -0
vn 0.6862934 -0.05105257 0.7255308
vn 0.67845094 0.011687279 0.73455274
vn 0.019682646 -0.06673753 0.9975764
vn 0.019682646 0.01952982 0.9996155
vn -0.19990683 -0.06673753 0.9775394
vn -0.19990683 0.01952982 0.9796202
vn -0.46655107 -0.06673753 0.8819729
vn -0.46655107 0.01952982 0.8842786
vn -0.77240777 -0.06673753 0.63161093
vn -0.77240777 0.01952982 0.6348266
vn -0.9527849 0.01952982 0.30301738
vn -0.94494236 -0.06673753 0.3203592
vn -0.9977798 -0.06660003 -0
vn -0.99980927 0.019529223 -0
vn -0.94494236 -0.06673753 -0.3203592
vn -0.9527849 0.01952982 -0.30301738
vn -0.77240777 0.01952982 -0.6348266
vn -0.77240777 -0.06673753 -0.63161093
vn -0.46655107 -0.06673753 -0.8819729
vn -0.46655107 0.01952982 -0.8842786
vn -0.19990683 -0.06673753 -0.9775394
vn -0.19990683 0.01952982 -0.9796202
vn 0.019682646 -0.06673753 -0.9975764
vn 0.019682646 0.01952982 -0.9996155
vn 0.6862934 -0.05105257 -0.7255308
vn 0.67845094 0.011687279 -0.73455274
vn 0.999992 -0.003997681 -0
vn 0.9999926 0.0038448572 -0
g ENV_S05_G7_Checkpoint_SidePLatform_MO_0
f 3/3/3 2/2/2 1/1/1
f 4/4/4 3/3/3 1/1/1
f 1/1/1 5/5/5 4/4/4
f 6/6/6 3/3/3 4/4/4
f 5/5/5 7/7/7 4/4/4
f 8/8/8 6/6/6 4/4/4
f 4/4/4 7/7/7 8/8/8
f 6/6/6 8/8/8 9/9/9
f 7/7/7 10/10/10 8/8/8
f 8/8/8 11/11/11 9/9/9
f 8/8/8 10/10/10 12/12/12
f 8/8/8 13/13/13 11/11/11
f 8/8/8 12/12/12 14/14/14
f 8/8/8 15/15/15 13/13/13
f 16/16/16 8/8/8 14/14/14
f 17/17/17 15/15/15 8/8/8
f 16/16/16 18/18/18 8/8/8
f 18/18/18 17/17/17 8/8/8
f 21/21/21 20/20/20 19/19/19
f 21/21/21 19/19/19 22/22/22
f 19/19/19 23/23/23 22/22/22
f 23/23/23 24/24/24 22/22/22
f 25/25/25 21/21/21 22/22/22
f 24/24/24 26/26/26 22/22/22
f 24/24/24 27/27/27 26/26/26
f 22/22/22 26/26/26 28/28/28
f 29/29/29 25/25/25 22/22/22
f 29/29/29 22/22/22 28/28/28
f 25/25/25 29/29/29 30/30/30
f 29/29/29 28/28/28 30/30/30
f 31/31/31 25/25/25 30/30/30
f 31/31/31 32/32/32 25/25/25
f 28/28/28 33/33/33 30/30/30
f 28/28/28 34/34/34 33/33/33
f 37/37/37 36/36/36 35/35/35
f 36/36/36 38/38/38 35/35/35
f 38/38/38 36/36/36 39/39/39
f 40/40/40 38/38/38 39/39/39
f 35/35/35 38/38/38 41/41/41
f 42/42/42 38/38/38 40/40/40
f 38/38/38 42/42/42 41/41/41
f 43/43/43 42/42/42 40/40/40
f 42/42/42 43/43/43 44/44/44
f 41/41/41 42/42/42 45/45/45
f 45/45/45 42/42/42 44/44/44
f 46/46/46 41/41/41 45/45/45
f 44/44/44 47/47/47 45/45/45
f 45/45/45 48/48/48 46/46/46
f 47/47/47 48/48/48 45/45/45
f 48/48/48 49/49/49 46/46/46
f 48/48/48 47/47/47 50/50/50
f 49/49/49 48/48/48 51/51/51
f 51/51/51 48/48/48 50/50/50
f 52/52/52 49/49/49 51/51/51
f 51/51/51 50/50/50 53/53/53
f 52/52/52 51/51/51 54/54/54
f 54/54/54 51/51/51 53/53/53
f 55/55/55 52/52/52 54/54/54
f 53/53/53 56/56/56 54/54/54
f 54/54/54 57/57/57 55/55/55
f 56/56/56 57/57/57 54/54/54
f 57/57/57 58/58/58 55/55/55
f 57/57/57 56/56/56 59/59/59
f 58/58/58 57/57/57 60/60/60
f 60/60/60 57/57/57 59/59/59
f 61/61/61 58/58/58 60/60/60
f 59/59/59 62/62/62 60/60/60
f 60/60/60 63/63/63 61/61/61
f 62/62/62 63/63/63 60/60/60
f 63/63/63 64/64/64 61/61/61
f 62/62/62 65/65/65 63/63/63
f 63/63/63 66/66/66 64/64/64
f 65/65/65 66/66/66 63/63/63
f 66/66/66 67/67/67 64/64/64
f 66/66/66 65/65/65 68/68/68
f 67/67/67 66/66/66 69/69/69
f 69/69/69 66/66/66 68/68/68
f 70/70/70 67/67/67 69/69/69
f 68/68/68 71/71/71 69/69/69
f 69/69/69 72/72/72 70/70/70
f 71/71/71 72/72/72 69/69/69
f 72/72/72 73/73/73 70/70/70
f 73/73/73 72/72/72 74/74/74
f 75/75/75 72/72/72 71/71/71
f 72/72/72 75/75/75 74/74/74
f 74/74/74 75/75/75 76/76/76
f 77/77/77 75/75/75 71/71/71
f 75/75/75 78/78/78 76/76/76
f 78/78/78 75/75/75 77/77/77
f 79/79/79 78/78/78 77/77/77
f 82/82/82 81/81/81 80/80/80
f 81/81/81 83/83/83 80/80/80
f 83/83/83 81/81/81 84/84/84
f 80/80/80 83/83/83 85/85/85
f 86/86/86 83/83/83 84/84/84
f 86/86/86 84/84/84 87/87/87
f 83/83/83 88/88/88 85/85/85
f 88/88/88 83/83/83 86/86/86
f 89/89/89 86/86/86 87/87/87
f 87/87/87 90/90/90 89/89/89
f 85/85/85 88/88/88 91/91/91
f 92/92/92 85/85/85 91/91/91
f 93/93/93 88/88/88 86/86/86
f 93/93/93 86/86/86 89/89/89
f 90/90/90 94/94/94 89/89/89
f 90/90/90 95/95/95 94/94/94
f 88/88/88 93/93/93 96/96/96
f 91/91/91 88/88/88 96/96/96
f 97/97/97 93/93/93 89/89/89
f 93/93/93 97/97/97 96/96/96
f 89/89/89 94/94/94 97/97/97
f 97/97/97 98/98/98 96/96/96
f 96/96/96 98/98/98 91/91/91
f 94/94/94 99/99/99 97/97/97
f 97/97/97 100/100/100 98/98/98
f 91/91/91 101/101/101 92/92/92
f 98/98/98 101/101/101 91/91/91
f 101/101/101 98/98/98 100/100/100
f 101/101/101 102/102/102 92/92/92
f 95/95/95 103/103/103 94/94/94
f 94/94/94 103/103/103 99/99/99
f 103/103/103 95/95/95 104/104/104
f 105/105/105 103/103/103 104/104/104
f 102/102/102 101/101/101 106/106/106
f 106/106/106 101/101/101 100/100/100
f 107/107/107 102/102/102 106/106/106
f 108/108/108 103/103/103 105/105/105
f 103/103/103 108/108/108 99/99/99
f 109/109/109 108/108/108 105/105/105
f 108/108/108 109/109/109 110/110/110
f 111/111/111 108/108/108 110/110/110
f 99/99/99 108/108/108 111/111/111
f 110/110/110 112/112/112 111/111/111
f 106/106/106 100/100/100 113/113/113
f 97/97/97 113/113/113 100/100/100
f 107/107/107 106/106/106 114/114/114
f 114/114/114 106/106/106 113/113/113
f 115/115/115 107/107/107 114/114/114
f 116/116/116 99/99/99 111/111/111
f 97/97/97 99/99/99 116/116/116
f 112/112/112 117/117/117 111/111/111
f 111/111/111 117/117/117 116/116/116
f 117/117/117 112/112/112 118/118/118
f 113/113/113 119/119/119 114/114/114
f 119/119/119 113/113/113 97/97/97
f 114/114/114 120/120/120 115/115/115
f 119/119/119 120/120/120 114/114/114
f 120/120/120 121/121/121 115/115/115
f 117/117/117 122/122/122 116/116/116
f 97/97/97 116/116/116 122/122/122
f 123/123/123 117/117/117 118/118/118
f 122/122/122 117/117/117 123/123/123
f 123/123/123 118/118/118 124/124/124
f 124/124/124 121/121/121 125/125/125
f 121/121/121 120/120/120 125/125/125
f 125/125/125 123/123/123 124/124/124
f 120/120/120 119/119/119 126/126/126
f 126/126/126 119/119/119 97/97/97
f 125/125/125 120/120/120 126/126/126
f 127/127/127 122/122/122 123/123/123
f 127/127/127 97/97/97 122/122/122
f 127/127/127 126/126/126 97/97/97
f 127/127/127 123/123/123 125/125/125
f 126/126/126 127/127/127 125/125/125
f 130/130/130 129/129/129 128/128/128
f 131/131/131 130/130/130 128/128/128
f 132/132/132 130/130/130 131/131/131
f 133/133/133 132/132/132 131/131/131
f 132/132/132 133/133/133 134/134/134
f 133/133/133 135/135/135 134/134/134
f 134/134/134 135/135/135 136/136/136
f 135/135/135 137/137/137 136/136/136
f 136/136/136 137/137/137 138/138/138
f 137/137/137 139/139/139 138/138/138
f 138/138/138 139/139/139 140/140/140
f 141/141/141 138/138/138 140/140/140
f 141/141/141 140/140/140 142/142/142
f 140/140/140 143/143/143 142/142/142
f 142/142/142 143/143/143 144/144/144
f 143/143/143 145/145/145 144/144/144
f 145/145/145 146/146/146 144/144/144
f 146/146/146 147/147/147 144/144/144
f 148/148/148 147/147/147 146/146/146
f 149/149/149 148/148/148 146/146/146
f 150/150/150 148/148/148 149/149/149
f 151/151/151 150/150/150 149/149/149
f 152/152/152 150/150/150 151/151/151
f 153/153/153 152/152/152 151/151/151
f 154/154/154 152/152/152 153/153/153
f 155/155/155 154/154/154 153/153/153
f 156/156/156 154/154/154 155/155/155
f 157/157/157 156/156/156 155/155/155
