g ENV_S04_EmissiveArrows2
v 5.7860518 0.24199104 -4.940516
v 5.8832006 0.23097706 -4.9698863
v 6.010003 0.23154163 -4.96791
v 7.4053907 0.5379572 -4.157393
v 5.693986 0.26034737 -4.8919415
v 5.6010733 0.3154173 -4.7459354
v 5.570573 0.3611679 -4.625064
v 5.5911884 0.39449215 -4.5372343
v 5.638916 0.43064117 -4.4414973
v 6.8267326 0.7000599 -3.7286944
v 7.1574345 0.772357 -3.537785
v 7.281413 0.7893019 -3.4928818
v 7.3638763 0.79494953 -3.4779143
v 7.446623 0.79494953 -3.4779143
v 7.529369 0.7893019 -3.4928818
v 7.984049 0.7000599 -3.7286944
v 7.653347 0.772357 -3.537785
v 9.177796 0.42838192 -4.4474277
v 9.225524 0.3922329 -4.5434475
v 9.24614 0.35890865 -4.6309943
v 9.215639 0.31315804 -4.752148
v 9.122726 0.2580881 -4.897872
v 9.030661 0.23973179 -4.9467287
v 8.806709 0.22928238 -4.97384
v 8.933794 0.22843552 -4.9760995
v -1.6105499 0.24199104 -4.940516
v -1.5136833 0.23097706 -4.9698863
v -1.3865986 0.23154163 -4.96791
v 0.0087890625 0.5379572 -4.157393
v -1.7026157 0.26034737 -4.8919415
v -1.7955284 0.3154173 -4.7459354
v -1.8260288 0.3611679 -4.625064
v -1.8054132 0.39449215 -4.5372343
v -1.7576857 0.43064117 -4.4414973
v -0.56986904 0.7000599 -3.7286944
v -0.23916721 0.772357 -3.537785
v -0.1151886 0.7893019 -3.4928818
v -0.032725334 0.79494953 -3.4779143
v 0.05002117 0.79494953 -3.4779143
v 0.13276672 0.7893019 -3.4928818
v 0.58744717 0.7000599 -3.7286944
v 0.25674534 0.772357 -3.537785
v 1.7811947 0.42838192 -4.4474277
v 1.8289218 0.3922329 -4.5434475
v 1.8495378 0.35890865 -4.6309943
v 1.8190374 0.31315804 -4.752148
v 1.7261248 0.2580881 -4.897872
v 1.634059 0.23973179 -4.9467287
v 1.4101076 0.22928238 -4.97384
v 1.5371923 0.22843552 -4.9760995
v -9.0461235 0.24199104 -4.940516
v -8.949257 0.23097706 -4.9698863
v -8.822174 0.23154163 -4.96791
v -7.427067 0.5379572 -4.157393
v -9.138189 0.26034737 -4.8919415
v -9.231104 0.3154173 -4.7459354
v -9.261602 0.3611679 -4.625064
v -9.240988 0.39449215 -4.5372343
v -9.19326 0.43064117 -4.4414973
v -8.005444 0.7000599 -3.7286944
v -7.675024 0.772357 -3.537785
v -7.5510464 0.7893019 -3.4928818
v -7.4683 0.79494953 -3.4779143
v -7.3855534 0.79494953 -3.4779143
v -7.302807 0.7893019 -3.4928818
v -6.8484097 0.7000599 -3.7286944
v -7.178829 0.772357 -3.537785
v -5.65438 0.42838192 -4.4474277
v -5.6066523 0.3922329 -4.5434475
v -5.5860367 0.35890865 -4.6309943
v -5.616537 0.31315804 -4.752148
v -5.70945 0.2580881 -4.897872
v -5.8015156 0.23973179 -4.9467287
v -6.025467 0.22928238 -4.97384
v -5.8986645 0.22843552 -4.9760995
vt 0.34809074 0.7271603
vt 0.34071225 0.72439337
vt 0.33056685 0.7253157
vt 0.22265653 0.7926443
vt 0.35546923 0.7317718
vt 0.36284772 0.74376184
vt 0.36469233 0.75390726
vt 0.36377 0.76036346
vt 0.36008078 0.76866424
vt 0.26784974 0.8276921
vt 0.24202505 0.8442937
vt 0.23187964 0.84798294
vt 0.22542346 0.84890527
vt 0.21896729 0.84890527
vt 0.21251112 0.84798294
vt 0.17746332 0.8276921
vt 0.20328802 0.8442937
vt 0.08430998 0.76866424
vt 0.080620736 0.76036346
vt 0.07969843 0.75298494
vt 0.08154305 0.7428396
vt 0.08892153 0.7308495
vt 0.09630001 0.7271603
vt 0.11382391 0.72439337
vt 0.1036785 0.72439337
vt 0.34809074 0.7271603
vt 0.34071225 0.72439337
vt 0.33056685 0.7253157
vt 0.22265653 0.7926443
vt 0.35546923 0.7317718
vt 0.36284772 0.74376184
vt 0.36469233 0.75390726
vt 0.36377 0.76036346
vt 0.36008078 0.76866424
vt 0.26784974 0.8276921
vt 0.24202505 0.8442937
vt 0.23187964 0.84798294
vt 0.22542346 0.84890527
vt 0.21896729 0.84890527
vt 0.21251112 0.84798294
vt 0.17746332 0.8276921
vt 0.20328802 0.8442937
vt 0.08430998 0.76866424
vt 0.080620736 0.76036346
vt 0.07969843 0.75298494
vt 0.08154305 0.7428396
vt 0.08892153 0.7308495
vt 0.09630001 0.7271603
vt 0.11382391 0.72439337
vt 0.1036785 0.72439337
vt 0.34809074 0.7271603
vt 0.34071225 0.72439337
vt 0.33056685 0.7253157
vt 0.22265653 0.7926443
vt 0.35546923 0.7317718
vt 0.36284772 0.74376184
vt 0.36469233 0.75390726
vt 0.36377 0.76036346
vt 0.36008078 0.76866424
vt 0.26784974 0.8276921
vt 0.24202505 0.8442937
vt 0.23187964 0.84798294
vt 0.22542346 0.84890527
vt 0.21896729 0.84890527
vt 0.21251112 0.84798294
vt 0.17746332 0.8276921
vt 0.20328802 0.8442937
vt 0.08430998 0.76866424
vt 0.080620736 0.76036346
vt 0.07969843 0.75298494
vt 0.08154305 0.7428396
vt 0.08892153 0.7308495
vt 0.09630001 0.7271603
vt 0.11382391 0.72439337
vt 0.1036785 0.72439337
vn -0 1 -0
vn -0 1 -0
vn -0 1 -0
vn -0 1 -0
vn -0 1 -0
vn -0 1 -0
vn -0 1 -0
vn -0 1 -0
vn -0 1 -0
vn -0 1 -0
vn -0 1 -0
vn -0 1 -0
vn -0 1 -0
vn -0 1 -0
vn -0 1 -0
vn -0 1 -0
vn -0 1 -0
vn -0 1 -0
vn -0 1 -0
vn -0 1 -0
vn -0 1 -0
vn -0 1 -0
vn -0 1 -0
vn -0 1 -0
vn -0 1 -0
vn -0 1 -0
vn -0 1 -0
vn -0 1 -0
vn -0 1 -0
vn -0 1 -0
vn -0 1 -0
vn -0 1 -0
vn -0 1 -0
vn -0 1 -0
vn -0 1 -0
vn -0 1 -0
vn -0 1 -0
vn -0 1 -0
vn -0 1 -0
vn -0 1 -0
vn -0 1 -0
vn -0 1 -0
vn -0 1 -0
vn -0 1 -0
vn -0 1 -0
vn -0 1 -0
vn -0 1 -0
vn -0 1 -0
vn -0 1 -0
vn -0 1 -0
vn -0 1 -0
vn -0 1 -0
vn -0 1 -0
vn -0 1 -0
vn -0 1 -0
vn -0 1 -0
vn -0 1 -0
vn -0 1 -0
vn -0 1 -0
vn -0 1 -0
vn -0 1 -0
vn -0 1 -0
vn -0 1 -0
vn -0 1 -0
vn -0 1 -0
vn -0 1 -0
vn -0 1 -0
vn -0 1 -0
vn -0 1 -0
vn -0 1 -0
vn -0 1 -0
vn -0 1 -0
vn -0 1 -0
vn -0 1 -0
vn -0 1 -0
g ENV_S04_EmissiveArrows2_0
f 3/3/3 2/2/2 1/1/1
f 1/1/1 4/4/4 3/3/3
f 1/1/1 5/5/5 4/4/4
f 5/5/5 6/6/6 4/4/4
f 6/6/6 7/7/7 4/4/4
f 7/7/7 8/8/8 4/4/4
f 8/8/8 9/9/9 4/4/4
f 9/9/9 10/10/10 4/4/4
f 10/10/10 11/11/11 4/4/4
f 11/11/11 12/12/12 4/4/4
f 4/4/4 12/12/12 13/13/13
f 13/13/13 14/14/14 4/4/4
f 15/15/15 4/4/4 14/14/14
f 4/4/4 15/15/15 16/16/16
f 15/15/15 17/17/17 16/16/16
f 4/4/4 16/16/16 18/18/18
f 4/4/4 18/18/18 19/19/19
f 4/4/4 19/19/19 20/20/20
f 4/4/4 20/20/20 21/21/21
f 4/4/4 21/21/21 22/22/22
f 4/4/4 22/22/22 23/23/23
f 24/24/24 4/4/4 23/23/23
f 23/23/23 25/25/25 24/24/24
f 28/28/28 27/27/27 26/26/26
f 26/26/26 29/29/29 28/28/28
f 26/26/26 30/30/30 29/29/29
f 30/30/30 31/31/31 29/29/29
f 31/31/31 32/32/32 29/29/29
f 32/32/32 33/33/33 29/29/29
f 33/33/33 34/34/34 29/29/29
f 34/34/34 35/35/35 29/29/29
f 35/35/35 36/36/36 29/29/29
f 36/36/36 37/37/37 29/29/29
f 29/29/29 37/37/37 38/38/38
f 38/38/38 39/39/39 29/29/29
f 40/40/40 29/29/29 39/39/39
f 29/29/29 40/40/40 41/41/41
f 40/40/40 42/42/42 41/41/41
f 29/29/29 41/41/41 43/43/43
f 29/29/29 43/43/43 44/44/44
f 29/29/29 44/44/44 45/45/45
f 29/29/29 45/45/45 46/46/46
f 29/29/29 46/46/46 47/47/47
f 29/29/29 47/47/47 48/48/48
f 49/49/49 29/29/29 48/48/48
f 48/48/48 50/50/50 49/49/49
f 53/53/53 52/52/52 51/51/51
f 51/51/51 54/54/54 53/53/53
f 51/51/51 55/55/55 54/54/54
f 55/55/55 56/56/56 54/54/54
f 56/56/56 57/57/57 54/54/54
f 57/57/57 58/58/58 54/54/54
f 58/58/58 59/59/59 54/54/54
f 59/59/59 60/60/60 54/54/54
f 60/60/60 61/61/61 54/54/54
f 61/61/61 62/62/62 54/54/54
f 54/54/54 62/62/62 63/63/63
f 63/63/63 64/64/64 54/54/54
f 65/65/65 54/54/54 64/64/64
f 54/54/54 65/65/65 66/66/66
f 65/65/65 67/67/67 66/66/66
f 54/54/54 66/66/66 68/68/68
f 54/54/54 68/68/68 69/69/69
f 54/54/54 69/69/69 70/70/70
f 54/54/54 70/70/70 71/71/71
f 54/54/54 71/71/71 72/72/72
f 54/54/54 72/72/72 73/73/73
f 74/74/74 54/54/54 73/73/73
f 73/73/73 75/75/75 74/74/74
