g ENV_SY02_Bgr_Goop_Tube_Section_A_MO
v 715.06104 324.2885 -0.020812988
v 716.4333 342.79742 -0.020812988
v 713.11975 342.79742 -16.638794
v 711.8479 324.2885 -16.119995
v 703.7146 342.79742 -30.729736
v 710.6764 313.00897 -15.61792
v 713.7724 313.00897 -0.020812988
v 702.72723 324.2885 -29.759094
v 689.60693 342.79742 -40.15161
v 705.68933 307.88812 -13.559509
v 708.3837 307.88812 -0.020812988
v 700.9868 305.26068 -0.020812988
v 698.8447 305.26068 -10.731323
v 698.0247 307.88812 -25.039795
v 692.7866 305.26068 -19.81842
v 701.82355 313.00897 -28.855408
v 686.5277 307.88812 -32.72119
v 683.69946 305.26068 -25.876526
v 689.08813 324.2885 -38.8797
v 672.989 342.79742 -43.46515
v 688.5861 313.00897 -37.69153
v 672.989 307.88812 -35.415527
v 672.989 305.26068 -28.001892
v 672.989 324.2885 -42.092834
v 656.3543 342.79742 -40.15161
v 672.989 313.00897 -40.80426
v 659.4336 307.88812 -32.72119
v 662.27856 305.26068 -25.876526
v 656.88983 324.2885 -38.8797
v 642.26337 342.79742 -30.729736
v 657.3752 313.00897 -37.69153
v 647.9533 307.88812 -25.039795
v 653.1914 305.26068 -19.81842
v 643.234 324.2885 -29.759094
v 632.8415 342.79742 -16.638794
v 644.1377 313.00897 -28.855408
v 640.2719 307.88812 -13.559509
v 647.1166 305.26068 -10.731323
v 634.1134 324.2885 -16.119995
v 629.52795 342.79742 -0.020812988
v 635.3016 313.00897 -15.61792
v 637.5775 307.88812 -0.020812988
v 644.9912 305.26068 -0.020812988
v 630.917 324.2885 -0.020812988
v 632.8415 342.79742 16.61383
v 632.18884 313.00897 -0.020812988
v 640.2719 307.88812 13.534607
v 647.1166 305.26068 10.689636
v 634.1134 324.2885 16.078308
v 642.26337 342.79742 30.704773
v 635.3016 313.00897 15.593018
v 647.9533 307.88812 25.014832
v 653.1914 305.26068 19.776794
v 643.234 324.2885 29.73413
v 656.3543 342.79742 40.126648
v 644.1377 313.00897 28.830444
v 659.4336 307.88812 32.69629
v 662.27856 305.26068 25.851624
v 656.88983 324.2885 38.854797
v 672.989 342.79742 43.440186
v 657.3752 313.00897 37.666565
v 672.989 307.88812 35.390625
v 672.989 305.26068 27.97699
v 672.989 324.2885 42.05121
v 689.60693 342.79742 40.126648
v 672.989 313.00897 40.779297
v 686.5277 307.88812 32.69629
v 683.69946 305.26068 25.851624
v 689.08813 324.2885 38.854797
v 703.7146 342.79742 30.704773
v 688.5861 313.00897 37.666565
v 698.0247 307.88812 25.014832
v 692.7866 305.26068 19.776794
v 702.72723 324.2885 29.73413
v 713.11975 342.79742 16.61383
v 701.82355 313.00897 28.830444
v 705.68933 307.88812 13.534607
v 698.8447 305.26068 10.689636
v 711.8479 324.2885 16.078308
v 716.4333 342.79742 -0.020812988
v 715.06104 324.2885 -0.020812988
v 713.7724 313.00897 -0.020812988
v 710.6764 313.00897 15.593018
v 708.3837 307.88812 -0.020812988
v 700.9868 305.26068 -0.020812988
v 708.3837 377.6734 -0.020812988
v 700.9868 380.30084 -0.020812988
v 698.8447 380.30084 -10.731323
v 705.68933 377.6734 -13.559509
v 692.7866 380.30084 -19.81842
v 710.6764 372.55243 -15.61792
v 713.7724 372.55243 -0.020812988
v 715.37897 361.273 -0.020812988
v 698.0247 377.6734 -25.039795
v 683.69946 380.30084 -25.876526
v 712.1491 361.273 -16.237122
v 716.4333 342.79742 -0.020812988
v 713.11975 342.79742 -16.638794
v 701.82355 372.55243 -28.855408
v 702.96155 361.273 -29.993408
v 703.7146 342.79742 -30.729736
v 689.2053 361.273 -39.18097
v 689.60693 342.79742 -40.15161
v 672.989 342.79742 -43.46515
v 686.5277 377.6734 -32.72119
v 672.989 380.30084 -28.001892
v 688.5861 372.55243 -37.69153
v 672.989 361.273 -42.410828
v 656.3543 342.79742 -40.15161
v 672.989 377.6734 -35.415527
v 662.27856 380.30084 -25.876526
v 672.989 372.55243 -40.80426
v 656.756 361.273 -39.18097
v 642.26337 342.79742 -30.729736
v 659.4336 377.6734 -32.72119
v 653.1914 380.30084 -19.81842
v 657.3752 372.55243 -37.69153
v 643.0165 361.273 -29.993408
v 632.8415 342.79742 -16.638794
v 647.9533 377.6734 -25.039795
v 647.1166 380.30084 -10.731323
v 644.1377 372.55243 -28.855408
v 633.82886 361.273 -16.237122
v 629.52795 342.79742 -0.020812988
v 640.2719 377.6734 -13.559509
v 644.9912 380.30084 -0.020812988
v 635.3016 372.55243 -15.61792
v 630.599 361.273 -0.020812988
v 632.8415 342.79742 16.61383
v 637.5775 377.6734 -0.020812988
v 647.1166 380.30084 10.689636
v 632.18884 372.55243 -0.020812988
v 633.82886 361.273 16.21222
v 640.2719 377.6734 13.534607
v 653.1914 380.30084 19.776794
v 635.3016 372.55243 15.593018
v 643.0165 361.273 29.951721
v 642.26337 342.79742 30.704773
v 644.1377 372.55243 28.830444
v 647.9533 377.6734 25.014832
v 662.27856 380.30084 25.851624
v 656.756 361.273 39.139282
v 656.3543 342.79742 40.126648
v 657.3752 372.55243 37.666565
v 659.4336 377.6734 32.69629
v 672.989 380.30084 27.97699
v 672.989 361.273 42.36914
v 672.989 342.79742 43.440186
v 672.989 372.55243 40.779297
v 672.989 377.6734 35.390625
v 683.69946 380.30084 25.851624
v 689.2053 361.273 39.139282
v 689.60693 342.79742 40.126648
v 688.5861 372.55243 37.666565
v 686.5277 377.6734 32.69629
v 692.7866 380.30084 19.776794
v 702.96155 361.273 29.951721
v 703.7146 342.79742 30.704773
v 713.11975 342.79742 16.61383
v 701.82355 372.55243 28.830444
v 698.0247 377.6734 25.014832
v 698.8447 380.30084 10.689636
v 712.1491 361.273 16.21222
v 716.4333 342.79742 -0.020812988
v 715.37897 361.273 -0.020812988
v 710.6764 372.55243 15.593018
v 713.7724 372.55243 -0.020812988
v 705.68933 377.6734 13.534607
v 700.9868 380.30084 -0.020812988
v 708.3837 377.6734 -0.020812988
vt 0.80657935 1.5001049
vt 0.83392966 1.5001049
vt 0.83392966 1.3819125
vt 0.80657935 1.3819125
vt 0.83392966 1.2588362
vt 0.78215945 1.3819125
vt 0.78215945 1.5001049
vt 0.80657935 1.2588362
vt 0.83392966 1.1328294
vt 0.76946104 1.3819125
vt 0.76946104 1.5001049
vt 0.75676274 1.5001049
vt 0.75676274 1.3819125
vt 0.76946104 1.2588362
vt 0.75676274 1.2588362
vt 0.78215945 1.2588362
vt 0.76946104 1.1328294
vt 0.75676274 1.1328294
vt 0.80657935 1.1328294
vt 0.83392966 1.0068227
vt 0.78215945 1.1328294
vt 0.76946104 1.0068227
vt 0.75676274 1.0068227
vt 0.80657935 1.0068227
vt 0.83392966 0.87983906
vt 0.78215945 1.0068227
vt 0.76946104 0.87983906
vt 0.75676274 0.87983906
vt 0.80657935 0.87983906
vt 0.83392966 0.75285554
vt 0.78215945 0.87983906
vt 0.76946104 0.75285554
vt 0.75676274 0.75285554
vt 0.80657935 0.75285554
vt 0.83392966 0.625872
vt 0.78215945 0.75285554
vt 0.76946104 0.625872
vt 0.75676274 0.625872
vt 0.80657935 0.625872
vt 0.83392966 0.49986523
vt 0.78215945 0.625872
vt 0.76946104 0.49986523
vt 0.75676274 0.49986523
vt 0.80657935 0.49986523
vt 0.83392966 0.3728817
vt 0.78215945 0.49986523
vt 0.76946104 0.3728817
vt 0.75676274 0.3728817
vt 0.80657935 0.3728817
vt 0.83392966 0.24589813
vt 0.78215945 0.3728817
vt 0.76946104 0.24589813
vt 0.75676274 0.24589813
vt 0.80657935 0.24589813
vt 0.83392966 0.119891405
vt 0.78215945 0.24589813
vt 0.76946104 0.119891405
vt 0.75676274 0.119891405
vt 0.80657935 0.119891405
vt 0.83392966 -0.007092178
vt 0.78215945 0.119891405
vt 0.76946104 -0.007092178
vt 0.75676274 -0.007092178
vt 0.80657935 -0.007092178
vt 0.83392966 -0.13407573
vt 0.78215945 -0.007092178
vt 0.76946104 -0.13407573
vt 0.75676274 -0.13407573
vt 0.80657935 -0.13407573
vt 0.83392966 -0.26008248
vt 0.78215945 -0.13407573
vt 0.76946104 -0.26008248
vt 0.75676274 -0.26008248
vt 0.80657935 -0.26008248
vt 0.83392966 -0.38315886
vt 0.78215945 -0.26008248
vt 0.76946104 -0.38315886
vt 0.75676274 -0.38315886
vt 0.80657935 -0.38315886
vt 0.83392966 -0.49939764
vt 0.80657935 -0.49939764
vt 0.78215945 -0.49939764
vt 0.78215945 -0.38315886
vt 0.76946104 -0.49939764
vt 0.75676274 -0.49939764
vt 0.9804491 1.5001049
vt 0.9931475 1.5001049
vt 0.9931475 1.3819125
vt 0.9804491 1.3819125
vt 0.9931475 1.2588362
vt 0.9677508 1.3819125
vt 0.9677508 1.5001049
vt 0.9423541 1.5001049
vt 0.9804491 1.2588362
vt 0.9931475 1.1328294
vt 0.9423541 1.3819125
vt 0.9150038 1.5001049
vt 0.9150038 1.3819125
vt 0.9677508 1.2588362
vt 0.9423541 1.2588362
vt 0.9150038 1.2588362
vt 0.9423541 1.1328294
vt 0.9150038 1.1328294
vt 0.9150038 1.0068227
vt 0.9804491 1.1328294
vt 0.9931475 1.0068227
vt 0.9677508 1.1328294
vt 0.9423541 1.0068227
vt 0.9150038 0.87983906
vt 0.9804491 1.0068227
vt 0.9931475 0.87983906
vt 0.9677508 1.0068227
vt 0.9423541 0.87983906
vt 0.9150038 0.75285554
vt 0.9804491 0.87983906
vt 0.9931475 0.75285554
vt 0.9677508 0.87983906
vt 0.9423541 0.75285554
vt 0.9150038 0.625872
vt 0.9804491 0.75285554
vt 0.9931475 0.625872
vt 0.9677508 0.75285554
vt 0.9423541 0.625872
vt 0.9150038 0.49986523
vt 0.9804491 0.625872
vt 0.9931475 0.49986523
vt 0.9677508 0.625872
vt 0.9423541 0.49986523
vt 0.9150038 0.3728817
vt 0.9804491 0.49986523
vt 0.9931475 0.3728817
vt 0.9677508 0.49986523
vt 0.9423541 0.3728817
vt 0.9804491 0.3728817
vt 0.9931475 0.24589813
vt 0.9677508 0.3728817
vt 0.9423541 0.24589813
vt 0.9150038 0.24589813
vt 0.9677508 0.24589813
vt 0.9804491 0.24589813
vt 0.9931475 0.119891405
vt 0.9423541 0.119891405
vt 0.9150038 0.119891405
vt 0.9677508 0.119891405
vt 0.9804491 0.119891405
vt 0.9931475 -0.007092178
vt 0.9423541 -0.007092178
vt 0.9150038 -0.007092178
vt 0.9677508 -0.007092178
vt 0.9804491 -0.007092178
vt 0.9931475 -0.13407573
vt 0.9423541 -0.13407573
vt 0.9150038 -0.13407573
vt 0.9677508 -0.13407573
vt 0.9804491 -0.13407573
vt 0.9931475 -0.26008248
vt 0.9423541 -0.26008248
vt 0.9150038 -0.26008248
vt 0.9150038 -0.38315886
vt 0.9677508 -0.26008248
vt 0.9804491 -0.26008248
vt 0.9931475 -0.38315886
vt 0.9423541 -0.38315886
vt 0.9150038 -0.49939764
vt 0.9423541 -0.49939764
vt 0.9677508 -0.38315886
vt 0.9677508 -0.49939764
vt 0.9804491 -0.38315886
vt 0.9931475 -0.49939764
vt 0.9804491 -0.49939764
vn 0.99208826 -0.090189815 -0.08733095
vn 0.99993086 -0.011763871 -0
vn 0.9215049 -0.011763871 -0.38818854
vn 0.9215049 -0.090189815 -0.3777493
vn 0.7097548 -0.011763871 -0.70435053
vn 0.8666067 -0.34899545 -0.35664403
vn 0.9371325 -0.348974 -0
vn 0.7019123 -0.090189815 -0.7065302
vn 0.38036585 -0.011763871 -0.9247613
vn 0.51369 -0.8352364 -0.19622134
vn 0.55198705 -0.83385277 -0
vn 0.33261538 -0.94306254 -0
vn 0.3097825 -0.9450327 -0.104632415
vn 0.38820845 -0.8352364 -0.38945398
vn 0.2391991 -0.9450327 -0.22292806
vn 0.6626992 -0.34899545 -0.66259485
vn 0.20782876 -0.8352364 -0.5091045
vn 0.12940282 -0.9450327 -0.30027997
vn 0.38036585 -0.090189815 -0.920428
vn -0.0039213896 -0.011763871 -0.9999231
vn 0.35683805 -0.34899545 -0.86652684
vn -0.0039213896 -0.8352364 -0.5498771
vn -0.0039213896 -0.9450327 -0.32695225
vn -0.0039213896 -0.090189815 -0.9959169
vn -0.38036585 -0.011763871 -0.9247613
vn -0.0039213896 -0.34899545 -0.9371162
vn -0.20782876 -0.8352364 -0.5091045
vn -0.12940288 -0.9450327 -0.30027997
vn -0.38036585 -0.090189815 -0.920428
vn -0.70975494 -0.011763871 -0.7043505
vn -0.3568381 -0.34899545 -0.86652684
vn -0.3882085 -0.8352364 -0.38945398
vn -0.23919916 -0.9450327 -0.22292806
vn -0.7019123 -0.090189815 -0.7065302
vn -0.921505 -0.011763871 -0.38818836
vn -0.66269934 -0.34899545 -0.66259474
vn -0.51369 -0.8352364 -0.19622134
vn -0.3097825 -0.9450327 -0.104632415
vn -0.921505 -0.090189815 -0.37774912
vn -0.99993086 -0.011763869 -0
vn -0.86660683 -0.34899545 -0.3566438
vn -0.55198705 -0.83385277 -0
vn -0.3326155 -0.94306254 -0
vn -0.9920883 -0.090189815 -0.087330274
vn -0.921505 -0.011763871 0.38818836
vn -0.9371324 -0.34897393 -0
vn -0.51369 -0.8352364 0.19622134
vn -0.3097825 -0.9450327 0.104632415
vn -0.921505 -0.090189815 0.37774912
vn -0.70975494 -0.011763871 0.7043505
vn -0.86660683 -0.34899545 0.3566438
vn -0.3882085 -0.8352364 0.38945398
vn -0.23919916 -0.9450327 0.22292806
vn -0.7019123 -0.090189815 0.7065302
vn -0.38036585 -0.011763871 0.9247613
vn -0.66269934 -0.34899545 0.66259474
vn -0.20782876 -0.8352364 0.5091045
vn -0.12940288 -0.9450327 0.30027997
vn -0.38036585 -0.090189815 0.920428
vn -0.0039213896 -0.011763871 0.9999231
vn -0.3568381 -0.34899545 0.86652684
vn -0.0039213896 -0.8352364 0.5498771
vn -0.0039213896 -0.9450327 0.32695225
vn -0.0039213896 -0.090189815 0.9959169
vn 0.38036585 -0.011763871 0.9247613
vn -0.0039213896 -0.34899545 0.9371162
vn 0.20782876 -0.8352364 0.5091045
vn 0.12940282 -0.9450327 0.30027997
vn 0.38036585 -0.090189815 0.920428
vn 0.7097548 -0.011763871 0.70435053
vn 0.35683805 -0.34899545 0.86652684
vn 0.38820845 -0.8352364 0.38945398
vn 0.2391991 -0.9450327 0.22292806
vn 0.7019123 -0.090189815 0.7065302
vn 0.9215049 -0.011763871 0.38818854
vn 0.6626992 -0.34899545 0.66259485
vn 0.51369 -0.8352364 0.19622134
vn 0.3097825 -0.9450327 0.104632415
vn 0.9215049 -0.090189815 0.3777493
vn 0.99993086 -0.011763871 -0
vn 0.99208826 -0.090189815 -0.08733095
vn 0.9371325 -0.348974 -0
vn 0.8666067 -0.34899545 0.35664403
vn 0.55198705 -0.83385277 -0
vn 0.33261538 -0.94306254 -0
vn 0.551987 0.8338527 -0
vn 0.33261538 0.94306254 -0
vn 0.3097825 0.9450327 -0.104632415
vn 0.51369 0.83523643 -0.19622104
vn 0.2391991 0.9450327 -0.22292806
vn 0.8587642 0.36468077 -0.35990557
vn 0.9293475 0.36468077 -0.057629343
vn 0.99208826 0.090189934 -0.08733083
vn 0.38820845 0.83523643 -0.3894538
vn 0.12940282 0.9450327 -0.30027997
vn 0.9215049 0.090189934 -0.37774923
vn 0.99993086 -0.011763871 -0
vn 0.9215049 -0.011763871 -0.38818854
vn 0.6626992 0.36468077 -0.654093
vn 0.7019123 0.090189934 -0.7065302
vn 0.7097548 -0.011763871 -0.70435053
vn 0.38036585 0.090189934 -0.9204279
vn 0.38036585 -0.011763871 -0.9247613
vn -0.0039213896 -0.011763871 -0.9999231
vn 0.20782876 0.83523643 -0.5091044
vn -0.0039213896 0.9450327 -0.32695225
vn 0.35683805 0.36468077 -0.86004335
vn -0.0039213896 0.090189934 -0.99591684
vn -0.38036585 -0.011763871 -0.9247613
vn -0.0039213896 0.83523643 -0.549877
vn -0.12940288 0.9450327 -0.30027997
vn -0.0039213896 0.36468077 -0.9311244
vn -0.38036585 0.090189934 -0.9204279
vn -0.70975494 -0.011763871 -0.7043505
vn -0.20782876 0.83523643 -0.5091044
vn -0.23919916 0.9450327 -0.22292806
vn -0.3568381 0.36468077 -0.86004335
vn -0.7019123 0.090189934 -0.7065302
vn -0.921505 -0.011763871 -0.38818836
vn -0.3882085 0.83523643 -0.3894538
vn -0.3097825 0.9450327 -0.104632415
vn -0.66269934 0.36468077 -0.6540929
vn -0.921505 0.090189934 -0.3777491
vn -0.99993086 -0.011763869 -0
vn -0.51369 0.83523643 -0.19622104
vn -0.3326155 0.94306254 -0
vn -0.8587642 0.36468077 -0.35990557
vn -0.9920883 0.090189934 -0.08733015
vn -0.921505 -0.011763871 0.38818836
vn -0.551987 0.8338527 -0
vn -0.3097825 0.9450327 0.104632415
vn -0.9293475 0.36468077 -0.057629343
vn -0.921505 0.090189934 0.3777491
vn -0.51369 0.83523643 0.19622104
vn -0.23919916 0.9450327 0.22292806
vn -0.8587642 0.36468077 0.35990557
vn -0.7019123 0.090189934 0.7065302
vn -0.70975494 -0.011763871 0.7043505
vn -0.66269934 0.36468077 0.6540929
vn -0.3882085 0.83523643 0.3894538
vn -0.12940288 0.9450327 0.30027997
vn -0.38036585 0.090189934 0.9204279
vn -0.38036585 -0.011763871 0.9247613
vn -0.3568381 0.36468077 0.86004335
vn -0.20782876 0.83523643 0.5091044
vn -0.0039213896 0.9450327 0.32695225
vn -0.0039213896 0.090189934 0.99591684
vn -0.0039213896 -0.011763871 0.9999231
vn -0.0039213896 0.36468077 0.9311244
vn -0.0039213896 0.83523643 0.549877
vn 0.12940282 0.9450327 0.30027997
vn 0.38036585 0.090189934 0.9204279
vn 0.38036585 -0.011763871 0.9247613
vn 0.35683805 0.36468077 0.86004335
vn 0.20782876 0.83523643 0.5091044
vn 0.2391991 0.9450327 0.22292806
vn 0.7019123 0.090189934 0.7065302
vn 0.7097548 -0.011763871 0.70435053
vn 0.9215049 -0.011763871 0.38818854
vn 0.6626992 0.36468077 0.654093
vn 0.38820845 0.83523643 0.3894538
vn 0.3097825 0.9450327 0.104632415
vn 0.9215049 0.090189934 0.37774923
vn 0.99993086 -0.011763871 -0
vn 0.99208826 0.090189934 -0.08733083
vn 0.8587642 0.36468077 0.35990557
vn 0.9293475 0.36468077 -0.057629343
vn 0.51369 0.83523643 0.19622104
vn 0.33261538 0.94306254 -0
vn 0.551987 0.8338527 -0
g ENV_SY02_Bgr_Goop_Tube_Section_A_MO_0
f 3/3/3 2/2/2 1/1/1
f 4/4/4 3/3/3 1/1/1
f 5/5/5 3/3/3 4/4/4
f 4/4/4 1/1/1 6/6/6
f 1/1/1 7/7/7 6/6/6
f 8/8/8 5/5/5 4/4/4
f 9/9/9 5/5/5 8/8/8
f 6/6/6 7/7/7 10/10/10
f 7/7/7 11/11/11 10/10/10
f 11/11/11 12/12/12 10/10/10
f 12/12/12 13/13/13 10/10/10
f 10/10/10 13/13/13 14/14/14
f 6/6/6 10/10/10 14/14/14
f 13/13/13 15/15/15 14/14/14
f 4/4/4 6/6/6 16/16/16
f 16/16/16 6/6/6 14/14/14
f 8/8/8 4/4/4 16/16/16
f 14/14/14 15/15/15 17/17/17
f 16/16/16 14/14/14 17/17/17
f 15/15/15 18/18/18 17/17/17
f 19/19/19 9/9/9 8/8/8
f 9/9/9 19/19/19 20/20/20
f 8/8/8 16/16/16 21/21/21
f 21/21/21 16/16/16 17/17/17
f 19/19/19 8/8/8 21/21/21
f 17/17/17 18/18/18 22/22/22
f 17/17/17 22/22/22 21/21/21
f 18/18/18 23/23/23 22/22/22
f 19/19/19 24/24/24 20/20/20
f 19/19/19 21/21/21 24/24/24
f 20/20/20 24/24/24 25/25/25
f 22/22/22 26/26/26 21/21/21
f 21/21/21 26/26/26 24/24/24
f 22/22/22 23/23/23 27/27/27
f 22/22/22 27/27/27 26/26/26
f 23/23/23 28/28/28 27/27/27
f 24/24/24 29/29/29 25/25/25
f 24/24/24 26/26/26 29/29/29
f 25/25/25 29/29/29 30/30/30
f 27/27/27 31/31/31 26/26/26
f 26/26/26 31/31/31 29/29/29
f 27/27/27 28/28/28 32/32/32
f 27/27/27 32/32/32 31/31/31
f 28/28/28 33/33/33 32/32/32
f 29/29/29 34/34/34 30/30/30
f 29/29/29 31/31/31 34/34/34
f 30/30/30 34/34/34 35/35/35
f 32/32/32 36/36/36 31/31/31
f 31/31/31 36/36/36 34/34/34
f 32/32/32 33/33/33 37/37/37
f 32/32/32 37/37/37 36/36/36
f 33/33/33 38/38/38 37/37/37
f 34/34/34 39/39/39 35/35/35
f 34/34/34 36/36/36 39/39/39
f 35/35/35 39/39/39 40/40/40
f 37/37/37 41/41/41 36/36/36
f 36/36/36 41/41/41 39/39/39
f 37/37/37 38/38/38 42/42/42
f 37/37/37 42/42/42 41/41/41
f 38/38/38 43/43/43 42/42/42
f 39/39/39 44/44/44 40/40/40
f 39/39/39 41/41/41 44/44/44
f 40/40/40 44/44/44 45/45/45
f 42/42/42 46/46/46 41/41/41
f 41/41/41 46/46/46 44/44/44
f 42/42/42 43/43/43 47/47/47
f 42/42/42 47/47/47 46/46/46
f 43/43/43 48/48/48 47/47/47
f 44/44/44 49/49/49 45/45/45
f 50/50/50 45/45/45 49/49/49
f 44/44/44 46/46/46 51/51/51
f 47/47/47 51/51/51 46/46/46
f 49/49/49 44/44/44 51/51/51
f 47/47/47 48/48/48 52/52/52
f 47/47/47 52/52/52 51/51/51
f 48/48/48 53/53/53 52/52/52
f 54/54/54 50/50/50 49/49/49
f 55/55/55 50/50/50 54/54/54
f 49/49/49 51/51/51 56/56/56
f 52/52/52 56/56/56 51/51/51
f 54/54/54 49/49/49 56/56/56
f 52/52/52 53/53/53 57/57/57
f 56/56/56 52/52/52 57/57/57
f 53/53/53 58/58/58 57/57/57
f 59/59/59 55/55/55 54/54/54
f 60/60/60 55/55/55 59/59/59
f 54/54/54 56/56/56 61/61/61
f 61/61/61 56/56/56 57/57/57
f 59/59/59 54/54/54 61/61/61
f 57/57/57 58/58/58 62/62/62
f 61/61/61 57/57/57 62/62/62
f 58/58/58 63/63/63 62/62/62
f 64/64/64 60/60/60 59/59/59
f 65/65/65 60/60/60 64/64/64
f 59/59/59 61/61/61 66/66/66
f 66/66/66 61/61/61 62/62/62
f 64/64/64 59/59/59 66/66/66
f 62/62/62 63/63/63 67/67/67
f 66/66/66 62/62/62 67/67/67
f 63/63/63 68/68/68 67/67/67
f 69/69/69 65/65/65 64/64/64
f 70/70/70 65/65/65 69/69/69
f 64/64/64 66/66/66 71/71/71
f 71/71/71 66/66/66 67/67/67
f 69/69/69 64/64/64 71/71/71
f 67/67/67 68/68/68 72/72/72
f 67/67/67 72/72/72 71/71/71
f 68/68/68 73/73/73 72/72/72
f 74/74/74 70/70/70 69/69/69
f 69/69/69 71/71/71 74/74/74
f 70/70/70 74/74/74 75/75/75
f 72/72/72 76/76/76 71/71/71
f 71/71/71 76/76/76 74/74/74
f 72/72/72 73/73/73 77/77/77
f 76/76/76 72/72/72 77/77/77
f 73/73/73 78/78/78 77/77/77
f 74/74/74 79/79/79 75/75/75
f 74/74/74 76/76/76 79/79/79
f 75/75/75 79/79/79 80/80/80
f 79/79/79 81/81/81 80/80/80
f 81/81/81 79/79/79 82/82/82
f 76/76/76 83/83/83 79/79/79
f 79/79/79 83/83/83 82/82/82
f 83/83/83 76/76/76 77/77/77
f 82/82/82 83/83/83 84/84/84
f 83/83/83 77/77/77 84/84/84
f 77/77/77 78/78/78 84/84/84
f 78/78/78 85/85/85 84/84/84
f 88/88/88 87/87/87 86/86/86
f 89/89/89 88/88/88 86/86/86
f 90/90/90 88/88/88 89/89/89
f 89/89/89 86/86/86 91/91/91
f 86/86/86 92/92/92 91/91/91
f 91/91/91 92/92/92 93/93/93
f 94/94/94 90/90/90 89/89/89
f 95/95/95 90/90/90 94/94/94
f 96/96/96 91/91/91 93/93/93
f 96/96/96 93/93/93 97/97/97
f 98/98/98 96/96/96 97/97/97
f 89/89/89 91/91/91 99/99/99
f 99/99/99 91/91/91 96/96/96
f 94/94/94 89/89/89 99/99/99
f 100/100/100 96/96/96 98/98/98
f 100/100/100 99/99/99 96/96/96
f 101/101/101 100/100/100 98/98/98
f 102/102/102 100/100/100 101/101/101
f 100/100/100 102/102/102 99/99/99
f 103/103/103 102/102/102 101/101/101
f 103/103/103 104/104/104 102/102/102
f 105/105/105 95/95/95 94/94/94
f 106/106/106 95/95/95 105/105/105
f 94/94/94 99/99/99 107/107/107
f 102/102/102 107/107/107 99/99/99
f 105/105/105 94/94/94 107/107/107
f 104/104/104 108/108/108 102/102/102
f 102/102/102 108/108/108 107/107/107
f 104/104/104 109/109/109 108/108/108
f 110/110/110 106/106/106 105/105/105
f 111/111/111 106/106/106 110/110/110
f 107/107/107 112/112/112 105/105/105
f 108/108/108 112/112/112 107/107/107
f 112/112/112 110/110/110 105/105/105
f 109/109/109 113/113/113 108/108/108
f 108/108/108 113/113/113 112/112/112
f 109/109/109 114/114/114 113/113/113
f 115/115/115 111/111/111 110/110/110
f 116/116/116 111/111/111 115/115/115
f 112/112/112 117/117/117 110/110/110
f 113/113/113 117/117/117 112/112/112
f 117/117/117 115/115/115 110/110/110
f 114/114/114 118/118/118 113/113/113
f 113/113/113 118/118/118 117/117/117
f 114/114/114 119/119/119 118/118/118
f 120/120/120 116/116/116 115/115/115
f 121/121/121 116/116/116 120/120/120
f 117/117/117 122/122/122 115/115/115
f 118/118/118 122/122/122 117/117/117
f 122/122/122 120/120/120 115/115/115
f 119/119/119 123/123/123 118/118/118
f 118/118/118 123/123/123 122/122/122
f 119/119/119 124/124/124 123/123/123
f 125/125/125 121/121/121 120/120/120
f 126/126/126 121/121/121 125/125/125
f 122/122/122 127/127/127 120/120/120
f 123/123/123 127/127/127 122/122/122
f 127/127/127 125/125/125 120/120/120
f 124/124/124 128/128/128 123/123/123
f 123/123/123 128/128/128 127/127/127
f 124/124/124 129/129/129 128/128/128
f 130/130/130 126/126/126 125/125/125
f 131/131/131 126/126/126 130/130/130
f 127/127/127 132/132/132 125/125/125
f 128/128/128 132/132/132 127/127/127
f 132/132/132 130/130/130 125/125/125
f 129/129/129 133/133/133 128/128/128
f 128/128/128 133/133/133 132/132/132
f 134/134/134 131/131/131 130/130/130
f 135/135/135 131/131/131 134/134/134
f 132/132/132 136/136/136 130/130/130
f 133/133/133 136/136/136 132/132/132
f 136/136/136 134/134/134 130/130/130
f 137/137/137 133/133/133 129/129/129
f 138/138/138 137/137/137 129/129/129
f 139/139/139 136/136/136 133/133/133
f 136/136/136 139/139/139 134/134/134
f 137/137/137 139/139/139 133/133/133
f 140/140/140 135/135/135 134/134/134
f 139/139/139 140/140/140 134/134/134
f 141/141/141 135/135/135 140/140/140
f 142/142/142 137/137/137 138/138/138
f 143/143/143 142/142/142 138/138/138
f 144/144/144 139/139/139 137/137/137
f 139/139/139 144/144/144 140/140/140
f 142/142/142 144/144/144 137/137/137
f 145/145/145 141/141/141 140/140/140
f 144/144/144 145/145/145 140/140/140
f 146/146/146 141/141/141 145/145/145
f 147/147/147 142/142/142 143/143/143
f 148/148/148 147/147/147 143/143/143
f 149/149/149 144/144/144 142/142/142
f 145/145/145 144/144/144 149/149/149
f 147/147/147 149/149/149 142/142/142
f 150/150/150 146/146/146 145/145/145
f 150/150/150 145/145/145 149/149/149
f 151/151/151 146/146/146 150/150/150
f 152/152/152 147/147/147 148/148/148
f 153/153/153 152/152/152 148/148/148
f 154/154/154 149/149/149 147/147/147
f 150/150/150 149/149/149 154/154/154
f 152/152/152 154/154/154 147/147/147
f 155/155/155 151/151/151 150/150/150
f 155/155/155 150/150/150 154/154/154
f 156/156/156 151/151/151 155/155/155
f 157/157/157 152/152/152 153/153/153
f 158/158/158 157/157/157 153/153/153
f 158/158/158 159/159/159 157/157/157
f 160/160/160 154/154/154 152/152/152
f 155/155/155 154/154/154 160/160/160
f 157/157/157 160/160/160 152/152/152
f 161/161/161 156/156/156 155/155/155
f 161/161/161 155/155/155 160/160/160
f 162/162/162 156/156/156 161/161/161
f 159/159/159 163/163/163 157/157/157
f 157/157/157 163/163/163 160/160/160
f 159/159/159 164/164/164 163/163/163
f 164/164/164 165/165/165 163/163/163
f 163/163/163 166/166/166 160/160/160
f 163/163/163 165/165/165 166/166/166
f 161/161/161 160/160/160 166/166/166
f 165/165/165 167/167/167 166/166/166
f 168/168/168 162/162/162 161/161/161
f 168/168/168 161/161/161 166/166/166
f 168/168/168 166/166/166 167/167/167
f 169/169/169 162/162/162 168/168/168
f 170/170/170 168/168/168 167/167/167
f 170/170/170 169/169/169 168/168/168
