g ENV_SY02_GX_Section03_Vinyl04_MO
v -24.669283 34.516075 1.5014106
v -26.484428 34.516075 1.5024647
v -26.484428 34.516075 0.06573826
v -24.670338 34.516075 0.06573826
v -24.587065 34.497627 1.5024647
v -26.476522 34.497627 0.0067091454
v -24.587065 34.497627 0.040440068
v -24.626066 34.497627 0.007236192
v -24.596024 34.497627 0.015141875
v -24.624485 34.497627 2.9987473
v -26.476522 34.497627 2.9987473
v -26.484428 34.516075 2.939718
v -24.669283 34.516075 2.938664
v -24.595497 34.497627 2.9903145
v -26.484428 34.516075 1.5024647
v -24.587065 34.497627 2.9644892
v -24.669283 34.516075 1.5014106
v -24.587065 34.497627 1.5024647
v -32.726227 34.497627 0.0067091454
v -30.833609 34.497627 0.0067091454
v -30.824121 34.516075 0.06573826
v -32.68143 34.516075 0.06679235
v -32.755215 34.497627 0.015141875
v -30.824121 34.516075 1.5029917
v -32.76365 34.497627 0.040967114
v -32.681957 34.516075 1.5040458
v -32.76365 34.497627 1.5029917
v -28.655857 34.497627 0.0067091454
v -30.824121 34.516075 0.06573826
v -30.833609 34.497627 0.0067091454
v -28.655857 34.516075 0.06573826
v -30.824121 34.516075 1.5029917
v -28.655857 34.516075 1.5024647
v -28.655857 34.516075 2.939718
v -28.655857 34.497627 2.9987473
v -30.833609 34.497627 2.9987473
v -30.823595 34.516075 2.939718
v -30.824121 34.516075 1.5029917
v -28.655857 34.516075 1.5024647
v -26.476522 34.497627 0.0067091454
v -28.655857 34.516075 0.06573826
v -28.655857 34.497627 0.0067091454
v -26.484428 34.516075 0.06573826
v -28.655857 34.516075 1.5024647
v -26.484428 34.516075 1.5024647
v -26.484428 34.516075 2.939718
v -26.476522 34.497627 2.9987473
v -28.655857 34.497627 2.9987473
v -28.655857 34.516075 2.939718
v -28.655857 34.516075 1.5024647
v -26.484428 34.516075 1.5024647
v -32.681957 34.516075 1.5040458
v -30.824121 34.516075 1.5029917
v -30.823595 34.516075 2.939718
v -32.680374 34.516075 2.939718
v -32.76365 34.497627 1.5029917
v -30.833609 34.497627 2.9987473
v -32.76365 34.497627 2.9644892
v -32.725174 34.497627 2.9987473
v -32.755215 34.497627 2.9908416
v -32.725174 34.497627 2.9987473
v -30.833609 34.497627 2.9987473
v -30.839933 34.453884 3.029316
v -28.655857 34.497627 2.9987473
v -32.75469 34.453884 3.029316
v -32.755215 34.497627 2.9908416
v -32.792637 34.453884 3.0150857
v -28.655857 34.453884 3.029316
v -26.476522 34.497627 2.9987473
v -32.75469 33.536823 3.029316
v -32.792637 33.536823 3.0150857
v -32.785786 33.514687 3.009288
v -32.75469 33.50942 3.0150857
v -30.839933 33.50942 3.0150857
v -30.839933 33.536823 3.029316
v -28.655857 33.536823 3.029316
v -28.655857 33.50942 3.0150857
v -26.471252 34.453884 3.029316
v -26.471252 33.536823 3.029316
v -26.471252 33.50942 3.0150857
v -24.596024 33.536823 3.029316
v -24.596024 33.50942 3.0150857
v -24.564928 33.514687 3.009288
v -24.558077 33.536823 3.0150857
v -24.596024 34.453884 3.029316
v -24.624485 34.497627 2.9987473
v -24.558077 34.453884 3.0150857
v -24.595497 34.497627 2.9903145
v -24.596024 34.497627 0.015141875
v -24.558077 34.453884 -0.009629269
v -24.542265 34.453358 0.024101652
v -24.587065 34.497627 0.040440068
v -24.558077 33.536823 -0.009629269
v -24.542265 34.453358 1.5029917
v -24.587065 34.497627 1.5024647
v -24.587065 34.497627 2.9644892
v -24.542265 33.536823 0.024101652
v -24.564928 33.514687 -0.0038317665
v -24.558077 33.50942 0.024101652
v -24.558077 33.50942 1.5029917
v -24.542265 33.536823 1.5029917
v -24.558077 33.50942 2.9813547
v -24.542265 33.536823 2.9813547
v -24.564928 33.514687 3.009288
v -24.558077 33.536823 3.0150857
v -24.558077 34.453884 3.0150857
v -24.542265 34.453358 2.9813547
v -24.595497 34.497627 2.9903145
v -32.755215 34.497627 0.015141875
v -32.75469 34.453884 -0.0238595
v -32.726227 34.497627 0.0067091454
v -32.792637 34.453884 -0.009629269
v -32.792637 33.536823 -0.009629269
v -30.833609 34.497627 0.0067091454
v -32.75469 33.536823 -0.0238595
v -32.785786 33.514687 -0.0038317665
v -32.75469 33.50942 -0.009629269
v -30.839933 33.50942 -0.009629269
v -30.839933 34.453884 -0.0238595
v -30.839933 33.536823 -0.0238595
v -28.655857 33.50942 -0.009629269
v -28.655857 33.536823 -0.0238595
v -26.471252 33.50942 -0.009629269
v -28.655857 34.453884 -0.0238595
v -28.655857 34.497627 0.0067091454
v -26.471252 33.536823 -0.0238595
v -26.471252 34.453884 -0.0238595
v -26.476522 34.497627 0.0067091454
v -24.626066 34.497627 0.007236192
v -24.596024 34.453884 -0.0238595
v -24.596024 34.497627 0.015141875
v -24.558077 34.453884 -0.009629269
v -24.596024 33.536823 -0.0238595
v -24.596024 33.50942 -0.009629269
v -24.558077 33.536823 -0.009629269
v -24.564928 33.514687 -0.0038317665
v -32.755215 34.497627 2.9908416
v -32.792637 34.453884 3.0150857
v -32.80845 34.453358 2.9813547
v -32.76365 34.497627 2.9644892
v -32.792637 33.536823 3.0150857
v -32.80845 34.453358 1.5029917
v -32.76365 34.497627 1.5029917
v -32.76365 34.497627 0.040967114
v -32.80845 33.536823 2.9813547
v -32.785786 33.514687 3.009288
v -32.792637 33.50942 2.9813547
v -32.792637 33.50942 1.5029917
v -32.80845 33.536823 1.5029917
v -32.792637 33.50942 0.024101652
v -32.80845 33.536823 0.024101652
v -32.785786 33.514687 -0.0038317665
v -32.792637 33.536823 -0.009629269
v -32.792637 34.453884 -0.009629269
v -32.80845 34.453358 0.024101652
v -32.755215 34.497627 0.015141875
vt 0.118278585 0.99511147
vt 0.118278585 0.8426187
vt 0.009774188 0.8426187
vt 0.009774188 0.99511147
vt 0.118278585 0.9970665
vt 0.004886602 0.8426187
vt 0.007819153 0.9970665
vt 0.004886602 0.996089
vt 0.005864119 0.996089
vt 0.49364516 0.9912014
vt 0.49364516 0.8377311
vt 0.4897351 0.8377311
vt 0.48875758 0.9902239
vt 0.49266765 0.9912014
vt 0.38025317 0.8377311
vt 0.4907126 0.9912014
vt 0.38025317 0.9902239
vt 0.38025317 0.9912014
vt 0.0029315678 0.50830793
vt 0.0029315678 0.6637331
vt 0.007819153 0.6637331
vt 0.007819153 0.50928545
vt 0.003909085 0.5073304
vt 0.11632355 0.6637331
vt 0.005864119 0.5073304
vt 0.11730107 0.50928545
vt 0.11730107 0.5073304
vt 0.004886602 0.8132932
vt 0.011729222 0.6920811
vt 0.004886602 0.6920811
vt 0.011729222 0.8132932
vt 0.16910948 0.6920811
vt 0.16910948 0.8132932
vt 0.49266765 0.80938315
vt 0.49853274 0.80938315
vt 0.49853274 0.688171
vt 0.49266765 0.688171
vt 0.3352874 0.688171
vt 0.3352874 0.80938315
vt 0.004886602 0.8132932
vt 0.011729222 0.6920811
vt 0.004886602 0.6920811
vt 0.011729222 0.8132932
vt 0.16910948 0.6920811
vt 0.16910948 0.8132932
vt 0.49266765 0.80938315
vt 0.49853274 0.80938315
vt 0.49853274 0.688171
vt 0.49266765 0.688171
vt 0.3352874 0.688171
vt 0.3352874 0.80938315
vt 0.38025317 0.50928545
vt 0.38025317 0.6637331
vt 0.4897351 0.6637331
vt 0.4897351 0.50928545
vt 0.38025317 0.5073304
vt 0.49462268 0.6637331
vt 0.49169013 0.5073304
vt 0.49462268 0.50830793
vt 0.49364516 0.5073304
vt 0.74877715 0.99413395
vt 0.74877715 0.71456397
vt 0.739002 0.71456397
vt 0.74877715 0.5004878
vt 0.739002 0.9970665
vt 0.74877715 0.9970665
vt 0.739002 0.99999905
vt 0.739002 0.5004878
vt 0.74877715 0.285434
vt 0.6363627 0.9970665
vt 0.6363627 0.99999905
vt 0.6314751 0.99902153
vt 0.6304976 0.9970665
vt 0.6304976 0.71456397
vt 0.6363627 0.71456397
vt 0.6363627 0.5004878
vt 0.6304976 0.5004878
vt 0.739002 0.285434
vt 0.6363627 0.285434
vt 0.6304976 0.285434
vt 0.6363627 0.0029315678
vt 0.6304976 0.0029315678
vt 0.6314751 0.0009765336
vt 0.6363627 -9.834766E-07
vt 0.739002 0.0029315678
vt 0.74877715 0.005864119
vt 0.739002 -9.834766E-07
vt 0.74877715 0.0029315678
vt 0.62365496 0.99413395
vt 0.6138798 0.998044
vt 0.6138798 0.9921789
vt 0.62365496 0.98924637
vt 0.50830793 0.998044
vt 0.6138798 0.74975467
vt 0.62365496 0.74975467
vt 0.62365496 0.51026297
vt 0.50830793 0.9921789
vt 0.50244284 0.9970665
vt 0.5014653 0.9921789
vt 0.5014653 0.74975467
vt 0.50830793 0.74975467
vt 0.5014653 0.50830793
vt 0.50830793 0.50830793
vt 0.50244284 0.50342035
vt 0.50830793 0.50244284
vt 0.6138798 0.50244284
vt 0.6138798 0.50830793
vt 0.62365496 0.5063529
vt 0.74877715 0.9970665
vt 0.739002 0.9970665
vt 0.74877715 0.99413395
vt 0.739002 0.99999905
vt 0.6363627 0.99999905
vt 0.74877715 0.71456397
vt 0.6363627 0.9970665
vt 0.6314751 0.99902153
vt 0.6304976 0.9970665
vt 0.6304976 0.71456397
vt 0.739002 0.71456397
vt 0.6363627 0.71456397
vt 0.6304976 0.5004878
vt 0.6363627 0.5004878
vt 0.6304976 0.285434
vt 0.739002 0.5004878
vt 0.74877715 0.5004878
vt 0.6363627 0.285434
vt 0.739002 0.285434
vt 0.74877715 0.285434
vt 0.74877715 0.005864119
vt 0.739002 0.0029315678
vt 0.74877715 0.0029315678
vt 0.739002 -9.834766E-07
vt 0.6363627 0.0029315678
vt 0.6304976 0.0029315678
vt 0.6363627 -9.834766E-07
vt 0.6314751 0.0009765336
vt 0.62365496 0.5063529
vt 0.6138798 0.50244284
vt 0.6138798 0.50830793
vt 0.62365496 0.51026297
vt 0.50830793 0.50244284
vt 0.6138798 0.74975467
vt 0.62365496 0.74975467
vt 0.62365496 0.98924637
vt 0.50830793 0.50830793
vt 0.50244284 0.50342035
vt 0.5014653 0.50830793
vt 0.5014653 0.74975467
vt 0.50830793 0.74975467
vt 0.5014653 0.9921789
vt 0.50830793 0.9921789
vt 0.50244284 0.9970665
vt 0.50830793 0.998044
vt 0.6138798 0.998044
vt 0.6138798 0.9921789
vt 0.62365496 0.99413395
vn 0.027253054 0.99962854 -0
vn 0.0037380457 0.99999285 -0.00059802
vn 0.0037380457 0.99999285 -0.00059802
vn 0.0037380457 0.99999285 -0.00059802
vn 0.46639532 0.8823682 -0.062464226
vn 0.0037380457 0.8196349 -0.572874
vn 0.48874417 0.8724271 -0
vn 0.0037380457 0.73337686 -0.6798121
vn 0.38013715 0.8117933 -0.44326895
vn 0.0037380457 0.74121845 0.6712535
vn 0.0037380457 0.8196349 0.572874
vn 0.0037380457 0.99999285 -0.00059802
vn 0.0037380457 0.99999285 -0.00059802
vn 0.3879788 0.8117933 0.4364219
vn 0.0037380457 0.99999285 -0.00059802
vn 0.48992026 0.8666848 0.09399795
vn 0.027253054 0.99962854 -0
vn 0.46639532 0.8823682 -0.062464226
vn -0.0041035414 0.74121845 -0.6712513
vn 0.0037380457 0.8196349 -0.572874
vn 0.0037380457 0.99999285 -0.00059802
vn -0.0041035363 0.99999166 -0
vn -0.3883443 0.8117933 -0.43609667
vn 0.0037380457 0.99999285 -0.00059802
vn -0.49028575 0.8666848 -0.09207242
vn -0.0276182 0.99961853 -0
vn -0.45821398 0.88884187 -0
vn 0.0037380457 0.8196349 -0.572874
vn 0.0037380457 0.99999285 -0.00059802
vn 0.0037380457 0.8196349 -0.572874
vn 0.0037380457 0.99999285 -0.00059802
vn 0.0037380457 0.99999285 -0.00059802
vn 0.0037380457 0.99999285 -0.00059802
vn 0.0037380457 0.99999285 -0.00059802
vn 0.0037380457 0.8196349 0.572874
vn 0.0037380457 0.8196349 0.572874
vn 0.0037380457 0.99999285 -0.00059802
vn 0.0037380457 0.99999285 -0.00059802
vn 0.0037380457 0.99999285 -0.00059802
vn 0.0037380457 0.8196349 -0.572874
vn 0.0037380457 0.99999285 -0.00059802
vn 0.0037380457 0.8196349 -0.572874
vn 0.0037380457 0.99999285 -0.00059802
vn 0.0037380457 0.99999285 -0.00059802
vn 0.0037380457 0.99999285 -0.00059802
vn 0.0037380457 0.99999285 -0.00059802
vn 0.0037380457 0.8196349 0.572874
vn 0.0037380457 0.8196349 0.572874
vn 0.0037380457 0.99999285 -0.00059802
vn 0.0037380457 0.99999285 -0.00059802
vn 0.0037380457 0.99999285 -0.00059802
vn -0.0276182 0.99961853 -0
vn 0.0037380457 0.99999285 -0.00059802
vn 0.0037380457 0.99999285 -0.00059802
vn -0.019783104 0.9998043 -0
vn -0.45821398 0.88884187 -0
vn 0.0037380457 0.8196349 0.572874
vn -0.4890216 0.87227166 -0
vn -0.0041035414 0.73337686 0.6798099
vn -0.3805027 0.8039516 0.45703334
vn -0.0041035414 0.73337686 0.6798099
vn 0.0037380457 0.8196349 0.572874
vn 0.0037380457 0.043311834 0.9990546
vn 0.0037380457 0.8196349 0.572874
vn -0.019786835 0.035470128 0.99917483
vn -0.3805027 0.8039516 0.45703334
vn -0.6706437 0.05115342 0.7400138
vn 0.0037380457 0.043311834 0.9990546
vn 0.0037380457 0.8196349 0.572874
vn -0.019786835 -0.019421339 0.99961555
vn -0.662802 -0.011579692 0.74870515
vn -0.5922272 -0.44287038 0.6731514
vn -0.011945248 -0.45855367 0.8885864
vn 0.0037380457 -0.45855367 0.8886589
vn 0.0037380457 -0.019421339 0.99980444
vn 0.0037380457 -0.019421339 0.99980444
vn 0.0037380457 -0.45855367 0.8886589
vn 0.0037380457 0.043311834 0.9990546
vn 0.0037380457 -0.019421339 0.99980444
vn 0.0037380457 -0.45855367 0.8886589
vn 0.019421339 -0.019421339 0.99962276
vn 0.011579692 -0.45855367 0.88859123
vn 0.59186167 -0.44287038 0.6734728
vn 0.6624365 -0.011579692 0.74902856
vn 0.019421339 0.035470128 0.999182
vn 0.0037380457 0.74121845 0.6712535
vn 0.67027813 0.05115342 0.74034494
vn 0.3879788 0.8117933 0.4364219
vn 0.38013715 0.8117933 -0.44326895
vn 0.67027813 0.05115342 -0.74034494
vn 0.998263 0.058914606 -0
vn 0.48874417 0.8724271 -0
vn 0.6624365 -0.011579692 -0.74902856
vn 0.998263 0.058914606 -0
vn 0.46639532 0.8823682 -0.062464226
vn 0.48992026 0.8666848 0.09399795
vn 0.99962735 -0.027262986 -0.0013808993
vn 0.59186167 -0.44287038 -0.6734728
vn 0.86631936 -0.4977619 -0.0415197
vn 0.86631936 -0.4977619 -0.0415197
vn 0.99962735 -0.027262986 -0.0013808993
vn 0.86631936 -0.4977619 0.0415197
vn 0.99962735 -0.027262986 -0.0013808993
vn 0.59186167 -0.44287038 0.6734728
vn 0.6624365 -0.011579692 0.74902856
vn 0.67027813 0.05115342 0.74034494
vn 0.998263 0.058914606 -0
vn 0.3879788 0.8117933 0.4364219
vn -0.3883443 0.8117933 -0.43609667
vn -0.019786835 0.035470128 -0.99917483
vn -0.0041035414 0.74121845 -0.6712513
vn -0.6706437 0.05115342 -0.7400138
vn -0.662802 -0.011579692 -0.74870515
vn 0.0037380457 0.8196349 -0.572874
vn -0.019786835 -0.019421339 -0.99961555
vn -0.5922272 -0.44287038 -0.6731514
vn -0.011945248 -0.45855367 -0.8885864
vn 0.0037380457 -0.45855367 -0.8886589
vn 0.0037380457 0.043311834 -0.9990546
vn 0.0037380457 -0.019421339 -0.99980444
vn 0.0037380457 -0.45855367 -0.8886589
vn 0.0037380457 -0.019421339 -0.99980444
vn 0.0037380457 -0.45855367 -0.8886589
vn 0.0037380457 0.043311834 -0.9990546
vn 0.0037380457 0.8196349 -0.572874
vn 0.0037380457 -0.019421339 -0.99980444
vn 0.0037380457 0.043311834 -0.9990546
vn 0.0037380457 0.8196349 -0.572874
vn 0.0037380457 0.73337686 -0.6798121
vn 0.019421339 0.035470128 -0.999182
vn 0.38013715 0.8117933 -0.44326895
vn 0.67027813 0.05115342 -0.74034494
vn 0.019421339 -0.019421339 -0.99962276
vn 0.011579692 -0.45855367 -0.88859123
vn 0.6624365 -0.011579692 -0.74902856
vn 0.59186167 -0.44287038 -0.6734728
vn -0.3805027 0.8039516 0.45703334
vn -0.6706437 0.05115342 0.7400138
vn -0.9982643 0.05889315 -0
vn -0.4890216 0.87227166 -0
vn -0.662802 -0.011579692 0.74870515
vn -0.9982643 0.05889315 -0
vn -0.45821398 0.88884187 -0
vn -0.49028575 0.8666848 -0.09207242
vn -0.99962854 -0.027253054 -0
vn -0.5922272 -0.44287038 0.6731514
vn -0.8666848 -0.4977619 0.033023123
vn -0.8666848 -0.4977619 -0.033023123
vn -0.99962854 -0.027253054 -0
vn -0.8666848 -0.4977619 -0.033023123
vn -0.99962854 -0.027253054 -0
vn -0.5922272 -0.44287038 -0.6731514
vn -0.662802 -0.011579692 -0.74870515
vn -0.6706437 0.05115342 -0.7400138
vn -0.9982643 0.05889315 -0
vn -0.3883443 0.8117933 -0.43609667
g ENV_SY02_GX_Section03_Vinyl04_MO_0
f 3/3/3 2/2/2 1/1/1
f 4/4/4 3/3/3 1/1/1
f 4/4/4 1/1/1 5/5/5
f 6/6/6 3/3/3 4/4/4
f 7/7/7 4/4/4 5/5/5
f 8/8/8 6/6/6 4/4/4
f 7/7/7 9/9/9 4/4/4
f 4/4/4 9/9/9 8/8/8
f 12/12/12 11/11/11 10/10/10
f 13/13/13 12/12/12 10/10/10
f 13/13/13 10/10/10 14/14/14
f 12/12/12 13/13/13 15/15/15
f 13/13/13 14/14/14 16/16/16
f 13/13/13 17/17/17 15/15/15
f 13/13/13 16/16/16 18/18/18
f 17/17/17 13/13/13 18/18/18
f 21/21/21 20/20/20 19/19/19
f 22/22/22 21/21/21 19/19/19
f 22/22/22 19/19/19 23/23/23
f 24/24/24 21/21/21 22/22/22
f 22/22/22 23/23/23 25/25/25
f 26/26/26 24/24/24 22/22/22
f 22/22/22 25/25/25 27/27/27
f 26/26/26 22/22/22 27/27/27
f 30/30/30 29/29/29 28/28/28
f 29/29/29 31/31/31 28/28/28
f 29/29/29 32/32/32 31/31/31
f 32/32/32 33/33/33 31/31/31
f 36/36/36 35/35/35 34/34/34
f 37/37/37 36/36/36 34/34/34
f 38/38/38 37/37/37 34/34/34
f 39/39/39 38/38/38 34/34/34
f 42/42/42 41/41/41 40/40/40
f 41/41/41 43/43/43 40/40/40
f 41/41/41 44/44/44 43/43/43
f 44/44/44 45/45/45 43/43/43
f 48/48/48 47/47/47 46/46/46
f 49/49/49 48/48/48 46/46/46
f 50/50/50 49/49/49 46/46/46
f 51/51/51 50/50/50 46/46/46
f 54/54/54 53/53/53 52/52/52
f 55/55/55 54/54/54 52/52/52
f 55/55/55 52/52/52 56/56/56
f 57/57/57 54/54/54 55/55/55
f 58/58/58 55/55/55 56/56/56
f 59/59/59 57/57/57 55/55/55
f 58/58/58 60/60/60 55/55/55
f 55/55/55 60/60/60 59/59/59
f 63/63/63 62/62/62 61/61/61
f 62/62/62 63/63/63 64/64/64
f 65/65/65 63/63/63 61/61/61
f 65/65/65 61/61/61 66/66/66
f 67/67/67 65/65/65 66/66/66
f 63/63/63 68/68/68 64/64/64
f 64/64/64 68/68/68 69/69/69
f 70/70/70 65/65/65 67/67/67
f 71/71/71 70/70/70 67/67/67
f 70/70/70 71/71/71 72/72/72
f 73/73/73 70/70/70 72/72/72
f 73/73/73 74/74/74 70/70/70
f 75/75/75 63/63/63 65/65/65
f 70/70/70 75/75/75 65/65/65
f 74/74/74 75/75/75 70/70/70
f 68/68/68 63/63/63 75/75/75
f 75/75/75 74/74/74 76/76/76
f 76/76/76 68/68/68 75/75/75
f 74/74/74 77/77/77 76/76/76
f 68/68/68 78/78/78 69/69/69
f 78/78/78 68/68/68 76/76/76
f 76/76/76 77/77/77 79/79/79
f 79/79/79 78/78/78 76/76/76
f 77/77/77 80/80/80 79/79/79
f 81/81/81 79/79/79 80/80/80
f 78/78/78 79/79/79 81/81/81
f 82/82/82 81/81/81 80/80/80
f 81/81/81 82/82/82 83/83/83
f 84/84/84 81/81/81 83/83/83
f 69/69/69 78/78/78 85/85/85
f 85/85/85 78/78/78 81/81/81
f 85/85/85 81/81/81 84/84/84
f 86/86/86 69/69/69 85/85/85
f 87/87/87 85/85/85 84/84/84
f 86/86/86 85/85/85 88/88/88
f 85/85/85 87/87/87 88/88/88
f 91/91/91 90/90/90 89/89/89
f 92/92/92 91/91/91 89/89/89
f 90/90/90 91/91/91 93/93/93
f 91/91/91 92/92/92 94/94/94
f 92/92/92 95/95/95 94/94/94
f 95/95/95 96/96/96 94/94/94
f 91/91/91 97/97/97 93/93/93
f 93/93/93 97/97/97 98/98/98
f 97/97/97 99/99/99 98/98/98
f 99/99/99 97/97/97 100/100/100
f 97/97/97 91/91/91 101/101/101
f 97/97/97 101/101/101 100/100/100
f 91/91/91 94/94/94 101/101/101
f 100/100/100 101/101/101 102/102/102
f 101/101/101 103/103/103 102/102/102
f 101/101/101 94/94/94 103/103/103
f 102/102/102 103/103/103 104/104/104
f 103/103/103 105/105/105 104/104/104
f 106/106/106 105/105/105 103/103/103
f 96/96/96 107/107/107 94/94/94
f 94/94/94 107/107/107 103/103/103
f 107/107/107 106/106/106 103/103/103
f 96/96/96 108/108/108 107/107/107
f 108/108/108 106/106/106 107/107/107
f 111/111/111 110/110/110 109/109/109
f 110/110/110 112/112/112 109/109/109
f 112/112/112 110/110/110 113/113/113
f 111/111/111 114/114/114 110/110/110
f 110/110/110 115/115/115 113/113/113
f 113/113/113 115/115/115 116/116/116
f 115/115/115 117/117/117 116/116/116
f 117/117/117 115/115/115 118/118/118
f 114/114/114 119/119/119 110/110/110
f 110/110/110 119/119/119 115/115/115
f 115/115/115 120/120/120 118/118/118
f 119/119/119 120/120/120 115/115/115
f 118/118/118 120/120/120 121/121/121
f 120/120/120 122/122/122 121/121/121
f 120/120/120 119/119/119 122/122/122
f 121/121/121 122/122/122 123/123/123
f 119/119/119 114/114/114 124/124/124
f 119/119/119 124/124/124 122/122/122
f 114/114/114 125/125/125 124/124/124
f 122/122/122 126/126/126 123/123/123
f 122/122/122 124/124/124 126/126/126
f 124/124/124 125/125/125 127/127/127
f 124/124/124 127/127/127 126/126/126
f 125/125/125 128/128/128 127/127/127
f 127/127/127 128/128/128 129/129/129
f 130/130/130 127/127/127 129/129/129
f 126/126/126 127/127/127 130/130/130
f 129/129/129 131/131/131 130/130/130
f 131/131/131 132/132/132 130/130/130
f 123/123/123 126/126/126 133/133/133
f 133/133/133 126/126/126 130/130/130
f 130/130/130 132/132/132 133/133/133
f 134/134/134 123/123/123 133/133/133
f 132/132/132 135/135/135 133/133/133
f 134/134/134 133/133/133 136/136/136
f 133/133/133 135/135/135 136/136/136
f 139/139/139 138/138/138 137/137/137
f 140/140/140 139/139/139 137/137/137
f 141/141/141 138/138/138 139/139/139
f 139/139/139 140/140/140 142/142/142
f 140/140/140 143/143/143 142/142/142
f 143/143/143 144/144/144 142/142/142
f 145/145/145 141/141/141 139/139/139
f 141/141/141 145/145/145 146/146/146
f 145/145/145 147/147/147 146/146/146
f 147/147/147 145/145/145 148/148/148
f 145/145/145 139/139/139 149/149/149
f 145/145/145 149/149/149 148/148/148
f 139/139/139 142/142/142 149/149/149
f 148/148/148 149/149/149 150/150/150
f 149/149/149 151/151/151 150/150/150
f 149/149/149 142/142/142 151/151/151
f 150/150/150 151/151/151 152/152/152
f 151/151/151 153/153/153 152/152/152
f 154/154/154 153/153/153 151/151/151
f 144/144/144 155/155/155 142/142/142
f 142/142/142 155/155/155 151/151/151
f 155/155/155 154/154/154 151/151/151
f 144/144/144 156/156/156 155/155/155
f 156/156/156 154/154/154 155/155/155
