g ENV_SingleStep06_MO
v -0.49996233 -7.581711E-05 5
v -0.49996233 1.0000005 5
v 0.49996138 1.0000005 5
v 0.49996138 -7.581711E-05 5
v -0.49996233 1.0000005 5
v -0.49996233 1.0000005 -4.999999
v 0.49996138 1.0000005 -4.999999
v 0.49996138 1.0000005 5
v -0.49996233 1.0000005 -4.999999
v -0.49996233 -7.581711E-05 -4.999999
v 0.49996138 -7.581711E-05 -4.999999
v 0.49996138 1.0000005 -4.999999
v -0.49996233 -7.581711E-05 -4.999999
v -0.49996233 -7.581711E-05 5
v 0.49996138 -7.581711E-05 5
v 0.49996138 -7.581711E-05 -4.999999
v 0.49996138 -7.581711E-05 5
v 0.49996138 1.0000005 5
v 0.49996138 1.0000005 -4.999999
v 0.49996138 -7.581711E-05 -4.999999
v -0.49996233 -7.581711E-05 -4.999999
v -0.49996233 1.0000005 -4.999999
v -0.49996233 1.0000005 5
v -0.49996233 -7.581711E-05 5
vt -0.00012111664 -0.00012111664
vt -0.00012111664 1.000123
vt 1.000123 1.000123
vt 1.000123 -0.00012111664
vt -0.00012111664 -0.00012111664
vt -0.00012111664 10.000001
vt 1.000123 10.000001
vt 1.000123 -0.00012111664
vt -0.00012111664 -0.00012111664
vt -0.00012111664 1.000123
vt 1.000123 1.000123
vt 1.000123 -0.00012111664
vt -0.00012111664 -8.999999
vt -0.00012111664 1.000123
vt 1.000123 1.000123
vt 1.000123 -8.999999
vt -0.00012111664 -0.00012111664
vt -0.00012111664 1.000123
vt 10.000001 1.000123
vt 10.000001 -0.00012111664
vt -8.999999 -0.00012111664
vt -8.999999 1.000123
vt 1.000123 1.000123
vt 1.000123 -0.00012111664
vn -0.003921509 0.003921509 0.9999846
vn -0.003921509 0.003921509 0.9999846
vn -0.003921509 0.003921509 0.9999846
vn -0.003921509 0.003921509 0.9999846
vn -0.003921509 0.99999225 -0.00034526698
vn -0.003921509 0.99999225 -0.00034526698
vn -0.003921509 0.99999225 -0.00034526698
vn -0.003921509 0.99999225 -0.00034526698
vn -0.003921509 0.003921509 -0.9999846
vn -0.003921509 0.003921509 -0.9999846
vn -0.003921509 0.003921509 -0.9999846
vn -0.003921509 0.003921509 -0.9999846
vn -0.003921509 -0.9999924 -0
vn -0.003921509 -0.9999924 -0
vn -0.003921509 -0.9999924 -0
vn -0.003921509 -0.9999924 -0
vn 0.9999924 0.003921509 -0
vn 0.9999924 0.003921509 -0
vn 0.9999924 0.003921509 -0
vn 0.9999924 0.003921509 -0
vn -0.99999225 0.003921509 -0.00034492963
vn -0.99999225 0.003921509 -0.00034492963
vn -0.99999225 0.003921509 -0.00034492963
vn -0.99999225 0.003921509 -0.00034492963
g ENV_SingleStep06_MO_0
f 3/3/3 2/2/2 1/1/1
f 4/4/4 3/3/3 1/1/1
f 7/7/7 6/6/6 5/5/5
f 8/8/8 7/7/7 5/5/5
f 11/11/11 10/10/10 9/9/9
f 12/12/12 11/11/11 9/9/9
f 15/15/15 14/14/14 13/13/13
f 16/16/16 15/15/15 13/13/13
f 19/19/19 18/18/18 17/17/17
f 20/20/20 19/19/19 17/17/17
f 23/23/23 22/22/22 21/21/21
f 24/24/24 23/23/23 21/21/21
