g ENV_Central_Volcano_Lava_MO
v 223.34975 90.68434 30.883911
v 211.9514 95.24504 24.537094
v 221.23642 90.68434 20.6922
v 215.5236 90.68434 11.993454
v 213.21259 95.24504 30.883911
v 196.63316 97.07207 30.883911
v 211.9514 95.24504 37.23073
v 221.23642 90.68434 41.075607
v 215.5236 90.68434 49.77437
v 208.35873 95.24504 19.158325
v 202.97997 95.24504 15.565674
v 206.82486 90.68434 6.280655
v 196.63316 90.68434 4.1673126
v 208.35873 95.24504 42.60948
v 202.97997 95.24504 46.20897
v 206.82486 90.68434 55.493973
v 196.63316 90.68434 57.60051
v 196.63316 95.24504 14.304489
v 196.63316 95.24504 47.47014
v 190.28635 95.24504 15.565674
v 186.44145 90.68434 6.280655
v 177.7427 90.68434 11.993454
v 190.28635 95.24504 46.20897
v 186.44145 90.68434 55.493973
v 177.7427 90.68434 49.77437
v 184.9076 95.24504 19.158325
v 181.31493 95.24504 24.537094
v 172.0299 90.68434 20.6922
v 169.91656 90.68434 30.883911
v 184.9076 95.24504 42.60948
v 181.31493 95.24504 37.23073
v 172.0299 90.68434 41.075607
v 180.05374 95.24504 30.883911
v -137.30031 84.66475 93.45894
v -155.66585 91.05928 83.22633
v -140.7021 84.66475 77.029495
v -149.91212 84.66475 63.006516
v -153.63432 91.05928 93.45894
v -180.35771 94.87691 93.45894
v -155.66585 91.05928 103.68474
v -140.7021 84.66475 109.88158
v -149.91212 84.66475 123.904526
v -161.46046 91.05928 74.56166
v -170.13194 91.05928 68.767075
v -163.9283 84.66475 53.796494
v -180.35771 84.66475 50.39473
v -161.46046 91.05928 112.35622
v -170.13194 91.05928 118.144
v -163.9283 84.66475 133.11458
v -180.35771 84.66475 136.51634
v -180.35771 91.05928 66.728714
v -180.35771 91.05928 120.18236
v -190.58351 91.05928 68.767075
v -196.78035 84.66475 53.796494
v -210.80333 84.66475 63.006516
v -190.58351 91.05928 118.144
v -196.78035 84.66475 133.11458
v -210.80333 84.66475 123.904526
v -199.25499 91.05928 74.56166
v -205.0496 91.05928 83.22633
v -220.01335 84.66475 77.029495
v -223.41512 84.66475 93.45894
v -199.25499 91.05928 112.35622
v -205.0496 91.05928 103.68474
v -220.01335 84.66475 109.88158
v -207.08113 91.05928 93.45894
v 81.408936 169.94786 0.0020141602
v 46.682144 177.2968 -19.338364
v 74.973495 169.94786 -31.057129
v 57.562378 169.94786 -57.562378
v 50.52704 177.2968 0.0020141602
v -0.0020141602 181.68025 0.0020141602
v 46.682144 177.2968 19.335587
v 74.973495 169.94786 31.054337
v 57.562378 169.94786 57.56642
v 35.7269 177.2968 -35.7269
v 19.338364 177.2968 -46.682144
v 31.057129 169.94786 -74.973495
v -0.0020141602 169.94786 -81.408936
v 35.7269 177.2968 35.73094
v 19.338364 177.2968 46.679337
v 31.057129 169.94786 74.97752
v -0.0020141602 169.94786 81.40614
v -0.0020141602 177.2968 -50.52704
v -0.0020141602 177.2968 50.524246
v -19.335587 177.2968 -46.682144
v -31.054337 169.94786 -74.973495
v -57.56642 169.94786 -57.562378
v -19.335587 177.2968 46.679337
v -31.054337 169.94786 74.97752
v -57.56642 169.94786 57.56642
v -35.73094 177.2968 -35.7269
v -46.679337 177.2968 -19.338364
v -74.97752 169.94786 -31.057129
v -81.40614 169.94786 0.0020141602
v -35.73094 177.2968 35.73094
v -46.679337 177.2968 19.335587
v -74.97752 169.94786 31.054337
v -50.524246 177.2968 0.0020141602
v 223.02934 124.85893 -81.136246
v 202.9936 131.63524 -92.28917
v 219.32079 124.85893 -99.05183
v 209.27223 124.85893 -114.3428
v 205.216 131.63524 -81.136246
v 176.06567 135.67784 -81.136246
v 202.9936 131.63524 -69.98331
v 219.32079 124.85893 -63.220657
v 209.27223 124.85893 -47.929688
v 196.67406 131.63524 -101.74462
v 187.21861 131.63524 -108.06416
v 193.98126 124.85893 -124.39134
v 176.06567 124.85893 -128.0999
v 196.67406 131.63524 -60.52104
v 187.21861 131.63524 -54.20833
v 193.98126 124.85893 -37.881134
v 176.06567 124.85893 -34.172592
v 176.06567 131.63524 -110.28657
v 176.06567 131.63524 -51.985916
v 164.91275 131.63524 -108.06416
v 158.15009 124.85893 -124.39134
v 142.85913 124.85893 -114.3428
v 164.91275 131.63524 -54.20833
v 158.15009 124.85893 -37.881134
v 142.85913 124.85893 -47.929688
v 155.45049 131.63524 -101.74462
v 149.13776 131.63524 -92.28917
v 132.81058 124.85893 -99.05183
v 129.10202 124.85893 -81.136246
v 155.45049 131.63524 -60.52104
v 149.13776 131.63524 -69.98331
v 132.81058 124.85893 -63.220657
v 146.91536 131.63524 -81.136246
vt 0.27415326 0.73621655
vt 0.22878031 0.75936604
vt 0.26767144 0.77418166
vt 0.2463739 0.80751693
vt 0.23248422 0.7371425
vt 0.17507355 0.7389945
vt 0.22785433 0.71491903
vt 0.2648935 0.6982514
vt 0.24266998 0.66676813
vt 0.21674259 0.7788116
vt 0.19822302 0.7917753
vt 0.21489063 0.8297404
vt 0.17785148 0.8380742
vt 0.21489063 0.69639945
vt 0.19544509 0.68436176
vt 0.21026073 0.64639664
vt 0.17136964 0.6399148
vt 0.17599954 0.79733115
vt 0.1732216 0.68065786
vt 0.15377605 0.7936272
vt 0.13896039 0.8315923
vt 0.10655115 0.8112208
vt 0.15099812 0.68621373
vt 0.1343305 0.6482486
vt 0.10284723 0.6704721
vt 0.1343305 0.7815895
vt 0.12136681 0.7630699
vt 0.08432766 0.77973753
vt 0.07506788 0.7417724
vt 0.13247855 0.6991774
vt 0.120440826 0.718623
vt 0.08154973 0.7038073
vt 0.11673691 0.74084646
vt 0.61120945 0.79640514
vt 0.54176104 0.8352963
vt 0.6000977 0.85751975
vt 0.56768847 0.91030055
vt 0.5473169 0.7982571
vt 0.45101517 0.80103505
vt 0.5389831 0.76121795
vt 0.59639376 0.7352906
vt 0.5602806 0.68436176
vt 0.52138954 0.8677055
vt 0.49083227 0.88900304
vt 0.51675963 0.9464137
vt 0.45657104 0.9612293
vt 0.51675963 0.7306607
vt 0.4852764 0.71121514
vt 0.5074999 0.6519525
vt 0.4454593 0.64084077
vt 0.4537931 0.8982628
vt 0.44731128 0.70473325
vt 0.41675398 0.891781
vt 0.3945305 0.9510436
vt 0.3417497 0.91770834
vt 0.4111981 0.7130671
vt 0.3852707 0.6556564
vt 0.33434188 0.6917696
vt 0.38434473 0.8723354
vt 0.3630472 0.84085214
vt 0.30563655 0.8677055
vt 0.2908209 0.8065909
vt 0.37971485 0.7352906
vt 0.36026928 0.76769984
vt 0.30100664 0.74547637
vt 0.35378742 0.80473894
vt 0.6186173 0.3065625
vt 0.49083227 0.3815668
vt 0.5991717 0.42230985
vt 0.53805715 0.52324146
vt 0.50286996 0.31026644
vt 0.3167483 0.3167483
vt 0.4852764 0.23989205
vt 0.5908379 0.19174117
vt 0.52324146 0.095439404
vt 0.45286715 0.44360736
vt 0.39360452 0.48620236
vt 0.44175538 0.5917639
vt 0.32693407 0.61954325
vt 0.44360736 0.18062943
vt 0.3815668 0.1426643
vt 0.42230985 0.033398837
vt 0.30563655 0.013953289
vt 0.32323015 0.50286996
vt 0.31026644 0.13062659
vt 0.2510038 0.49083227
vt 0.21118672 0.5991717
vt 0.11025506 0.53805715
vt 0.23896608 0.1472942
vt 0.19174117 0.041732647
vt 0.095439404 0.11025506
vt 0.18988921 0.45286715
vt 0.1472942 0.39360452
vt 0.041732647 0.44175538
vt 0.013953289 0.32693407
vt 0.18062943 0.18988921
vt 0.1426643 0.2519298
vt 0.033398837 0.21118672
vt 0.13062659 0.32323015
vt 0.94363576 0.59824574
vt 0.8677055 0.6417667
vt 0.932524 0.6658422
vt 0.8964108 0.72325283
vt 0.87511337 0.6010237
vt 0.76955175 0.6047276
vt 0.86585355 0.5602806
vt 0.9278941 0.5325013
vt 0.888077 0.47694257
vt 0.846408 0.6769539
vt 0.8130728 0.7001034
vt 0.84085214 0.7630699
vt 0.7751077 0.7788116
vt 0.8417781 0.5269454
vt 0.8065909 0.5056479
vt 0.83066636 0.44082943
vt 0.7630699 0.4297177
vt 0.77232975 0.7102892
vt 0.76584786 0.49824008
vt 0.73251265 0.70288134
vt 0.70751125 0.76769984
vt 0.6501005 0.73158664
vt 0.72603077 0.50842583
vt 0.69732547 0.4454593
vt 0.6417667 0.4852764
vt 0.69732547 0.6815838
vt 0.67325 0.6482486
vt 0.6102835 0.67602795
vt 0.59454185 0.6102835
vt 0.6917696 0.5325013
vt 0.6704721 0.56676245
vt 0.60657954 0.54268706
vt 0.6639902 0.60750556
vn 0.41149098 0.91141385 -0
vn 0.25097662 0.9612512 -0.11404791
vn 0.3782882 0.91143364 -0.16182324
vn 0.2897236 0.91143364 -0.29214546
vn 0.26758248 0.9612512 -0.0663007
vn 0.0018887222 0.99999815 -0.00034526698
vn 0.25097662 0.9612512 0.11404791
vn 0.3782882 0.91143364 0.16182324
vn 0.2897236 0.91143364 0.29214546
vn 0.19008845 0.9612512 -0.199656
vn 0.101523876 0.9612512 -0.2562988
vn 0.15687674 0.91143364 -0.38036615
vn 0.0018887222 0.91143364 -0.4114428
vn 0.19008845 0.9612512 0.199656
vn 0.101523876 0.9612512 0.2562988
vn 0.15687674 0.91143364 0.38036615
vn 0.0018887222 0.91143364 0.4114428
vn 0.0018887222 0.9612512 -0.27566752
vn 0.0018887222 0.9612512 0.27566752
vn -0.10328174 0.9612512 -0.25559542
vn -0.1586346 0.91143364 -0.3796364
vn -0.2914815 0.91143364 -0.2903916
vn -0.10328174 0.9612512 0.25559542
vn -0.1586346 0.91143364 0.3796364
vn -0.2914815 0.91143364 0.2903916
vn -0.186311 0.9612512 -0.20318559
vn -0.25273448 0.9612512 -0.11009741
vn -0.38004607 0.91143364 -0.15765059
vn -0.41294956 0.91075385 -0
vn -0.186311 0.9612512 0.20318559
vn -0.25273448 0.9612512 0.11009741
vn -0.38004607 0.91143364 0.15765059
vn -0.26934034 0.9612512 0.05875324
vn 0.36721763 0.9280395 -0.062401216
vn 0.23990603 0.96678644 -0.0881422
vn 0.3395412 0.9280395 -0.15314838
vn 0.2565119 0.9280395 -0.27008212
vn 0.25645107 0.96655715 -0
vn 0.0018887222 0.99999815 -0.00034526698
vn 0.23990603 0.96678644 0.0881422
vn 0.3395412 0.9280395 0.15314838
vn 0.2565119 0.9280395 0.27008212
vn 0.17901789 0.96678644 -0.18241863
vn 0.101523876 0.96678644 -0.23455676
vn 0.14027086 0.9280395 -0.34506053
vn 0.0018887222 0.9280395 -0.372477
vn 0.17901789 0.96678644 0.18241863
vn 0.101523876 0.96678644 0.23455676
vn 0.14027086 0.9280395 0.34506053
vn 0.0018887222 0.9280395 0.372477
vn 0.0018887222 0.96678644 -0.25557852
vn 0.0018887222 0.96678644 0.25557852
vn -0.09774643 0.96678644 -0.23615581
vn -0.14202875 0.9280395 -0.34434068
vn -0.2582698 0.9280395 -0.26840162
vn -0.09774643 0.96678644 0.23615581
vn -0.14202875 0.9280395 0.34434068
vn -0.2582698 0.9280395 0.26840162
vn -0.18077576 0.96678644 -0.18067676
vn -0.24166387 0.96678644 -0.08320182
vn -0.33576375 0.9280395 -0.16126186
vn -0.36344022 0.9280395 -0.081571475
vn -0.18077576 0.96678644 0.18067676
vn -0.24166387 0.96678644 0.08320182
vn -0.33576375 0.9280395 0.16126186
vn -0.25273448 0.96678644 -0.03806872
vn 0.23433103 0.9721569 -0
vn 0.15127476 0.9884918 -0
vn 0.2122296 0.9723217 -0.09771971
vn 0.16241202 0.9723217 -0.1679668
vn 0.15667413 0.98765033 -0
vn 0.0018887222 0.99999815 -0.00034526698
vn 0.15127476 0.9884918 -0
vn 0.2122296 0.9723217 0.09771971
vn 0.16241202 0.9723217 0.1679668
vn 0.112594455 0.98892754 -0.096668586
vn 0.06277686 0.98892754 -0.13446698
vn 0.0904533 0.9723217 -0.21542682
vn 0.0018887222 0.9723217 -0.2336385
vn 0.112594455 0.98892754 0.096668586
vn 0.06277686 0.98892754 0.13446698
vn 0.0904533 0.9723217 0.21542682
vn 0.0018887222 0.9723217 0.2336385
vn 0.0018887222 0.98892754 -0.1483871
vn 0.0018887222 0.98892754 0.1483871
vn -0.064534724 0.98892754 -0.13363215
vn -0.08667588 0.9723217 -0.21697427
vn -0.16416991 0.9723217 -0.16624919
vn -0.064534724 0.98892754 0.13363215
vn -0.08667588 0.9723217 0.21697427
vn -0.16416991 0.9723217 0.16624919
vn -0.114352286 0.98892754 -0.09458268
vn -0.14756405 0.98892754 -0.015721973
vn -0.21398747 0.9723217 -0.09380784
vn -0.23059332 0.9723217 -0.037645977
vn -0.114352286 0.98892754 0.09458268
vn -0.14756405 0.98892754 0.015721973
vn -0.21398747 0.9723217 0.09380784
vn -0.15838592 0.9873772 -0
vn 0.35614705 0.93357474 -0.039969034
vn 0.23437075 0.96678644 -0.10195232
vn 0.32847062 0.93357474 -0.14333633
vn 0.25097662 0.93357474 -0.25583002
vn 0.24544132 0.96678644 -0.07129157
vn 0.0018887222 0.99999815 -0.00034526698
vn 0.23437075 0.96678644 0.10195232
vn 0.32847062 0.93357474 0.14333633
vn 0.25097662 0.93357474 0.25583002
vn 0.1734826 0.96678644 -0.18769048
vn 0.09598857 0.96678644 -0.2368758
vn 0.13473558 0.93357474 -0.3320912
vn 0.0018887222 0.93357474 -0.3583778
vn 0.1734826 0.96678644 0.18769048
vn 0.09598857 0.96678644 0.2368758
vn 0.13473558 0.93357474 0.3320912
vn 0.0018887222 0.93357474 0.3583778
vn 0.0018887222 0.96678644 -0.25557852
vn 0.0018887222 0.96678644 0.25557852
vn -0.09774643 0.96678644 -0.23615581
vn -0.13649344 0.93357474 -0.3313726
vn -0.25273448 0.93357474 -0.2540935
vn -0.09774643 0.96678644 0.23615581
vn -0.13649344 0.93357474 0.3313726
vn -0.25273448 0.93357474 0.2540935
vn -0.17524046 0.96678644 -0.18605037
vn -0.23612863 0.96678644 -0.09781207
vn -0.3302285 0.93357474 -0.13923852
vn -0.3579049 0.93357474 0.018501608
vn -0.17524046 0.96678644 0.18605037
vn -0.23612863 0.96678644 0.09781207
vn -0.3302285 0.93357474 0.13923852
vn -0.24719918 0.96678644 0.06493452
g ENV_Central_Volcano_Lava_MO_0
f 3/3/3 2/2/2 1/1/1
f 2/2/2 3/3/3 4/4/4
f 2/2/2 5/5/5 1/1/1
f 5/5/5 2/2/2 6/6/6
f 5/5/5 7/7/7 1/1/1
f 7/7/7 5/5/5 6/6/6
f 7/7/7 8/8/8 1/1/1
f 8/8/8 7/7/7 9/9/9
f 10/10/10 2/2/2 4/4/4
f 2/2/2 10/10/10 6/6/6
f 11/11/11 10/10/10 4/4/4
f 10/10/10 11/11/11 6/6/6
f 12/12/12 11/11/11 4/4/4
f 11/11/11 12/12/12 13/13/13
f 7/7/7 14/14/14 9/9/9
f 14/14/14 7/7/7 6/6/6
f 14/14/14 15/15/15 9/9/9
f 15/15/15 14/14/14 6/6/6
f 15/15/15 16/16/16 9/9/9
f 16/16/16 15/15/15 17/17/17
f 11/11/11 18/18/18 6/6/6
f 18/18/18 11/11/11 13/13/13
f 19/19/19 15/15/15 6/6/6
f 15/15/15 19/19/19 17/17/17
f 18/18/18 20/20/20 6/6/6
f 20/20/20 18/18/18 13/13/13
f 21/21/21 20/20/20 13/13/13
f 20/20/20 21/21/21 22/22/22
f 19/19/19 23/23/23 17/17/17
f 23/23/23 19/19/19 6/6/6
f 23/23/23 24/24/24 17/17/17
f 24/24/24 23/23/23 25/25/25
f 26/26/26 20/20/20 22/22/22
f 20/20/20 26/26/26 6/6/6
f 27/27/27 26/26/26 22/22/22
f 26/26/26 27/27/27 6/6/6
f 28/28/28 27/27/27 22/22/22
f 27/27/27 28/28/28 29/29/29
f 23/23/23 30/30/30 25/25/25
f 30/30/30 23/23/23 6/6/6
f 30/30/30 31/31/31 25/25/25
f 31/31/31 30/30/30 6/6/6
f 31/31/31 32/32/32 25/25/25
f 32/32/32 31/31/31 29/29/29
f 33/33/33 27/27/27 29/29/29
f 27/27/27 33/33/33 6/6/6
f 31/31/31 33/33/33 29/29/29
f 33/33/33 31/31/31 6/6/6
f 36/36/36 35/35/35 34/34/34
f 35/35/35 36/36/36 37/37/37
f 35/35/35 38/38/38 34/34/34
f 38/38/38 35/35/35 39/39/39
f 38/38/38 40/40/40 34/34/34
f 40/40/40 38/38/38 39/39/39
f 40/40/40 41/41/41 34/34/34
f 41/41/41 40/40/40 42/42/42
f 43/43/43 35/35/35 37/37/37
f 35/35/35 43/43/43 39/39/39
f 44/44/44 43/43/43 37/37/37
f 43/43/43 44/44/44 39/39/39
f 45/45/45 44/44/44 37/37/37
f 44/44/44 45/45/45 46/46/46
f 40/40/40 47/47/47 42/42/42
f 47/47/47 40/40/40 39/39/39
f 47/47/47 48/48/48 42/42/42
f 48/48/48 47/47/47 39/39/39
f 48/48/48 49/49/49 42/42/42
f 49/49/49 48/48/48 50/50/50
f 44/44/44 51/51/51 39/39/39
f 51/51/51 44/44/44 46/46/46
f 52/52/52 48/48/48 39/39/39
f 48/48/48 52/52/52 50/50/50
f 51/51/51 53/53/53 39/39/39
f 53/53/53 51/51/51 46/46/46
f 54/54/54 53/53/53 46/46/46
f 53/53/53 54/54/54 55/55/55
f 52/52/52 56/56/56 50/50/50
f 56/56/56 52/52/52 39/39/39
f 56/56/56 57/57/57 50/50/50
f 57/57/57 56/56/56 58/58/58
f 59/59/59 53/53/53 55/55/55
f 53/53/53 59/59/59 39/39/39
f 60/60/60 59/59/59 55/55/55
f 59/59/59 60/60/60 39/39/39
f 61/61/61 60/60/60 55/55/55
f 60/60/60 61/61/61 62/62/62
f 56/56/56 63/63/63 58/58/58
f 63/63/63 56/56/56 39/39/39
f 63/63/63 64/64/64 58/58/58
f 64/64/64 63/63/63 39/39/39
f 64/64/64 65/65/65 58/58/58
f 65/65/65 64/64/64 62/62/62
f 66/66/66 60/60/60 62/62/62
f 60/60/60 66/66/66 39/39/39
f 64/64/64 66/66/66 62/62/62
f 66/66/66 64/64/64 39/39/39
f 69/69/69 68/68/68 67/67/67
f 68/68/68 69/69/69 70/70/70
f 68/68/68 71/71/71 67/67/67
f 71/71/71 68/68/68 72/72/72
f 71/71/71 73/73/73 67/67/67
f 73/73/73 71/71/71 72/72/72
f 73/73/73 74/74/74 67/67/67
f 74/74/74 73/73/73 75/75/75
f 76/76/76 68/68/68 70/70/70
f 68/68/68 76/76/76 72/72/72
f 77/77/77 76/76/76 70/70/70
f 76/76/76 77/77/77 72/72/72
f 78/78/78 77/77/77 70/70/70
f 77/77/77 78/78/78 79/79/79
f 73/73/73 80/80/80 75/75/75
f 80/80/80 73/73/73 72/72/72
f 80/80/80 81/81/81 75/75/75
f 81/81/81 80/80/80 72/72/72
f 81/81/81 82/82/82 75/75/75
f 82/82/82 81/81/81 83/83/83
f 77/77/77 84/84/84 72/72/72
f 84/84/84 77/77/77 79/79/79
f 85/85/85 81/81/81 72/72/72
f 81/81/81 85/85/85 83/83/83
f 84/84/84 86/86/86 72/72/72
f 86/86/86 84/84/84 79/79/79
f 87/87/87 86/86/86 79/79/79
f 86/86/86 87/87/87 88/88/88
f 85/85/85 89/89/89 83/83/83
f 89/89/89 85/85/85 72/72/72
f 89/89/89 90/90/90 83/83/83
f 90/90/90 89/89/89 91/91/91
f 92/92/92 86/86/86 88/88/88
f 86/86/86 92/92/92 72/72/72
f 93/93/93 92/92/92 88/88/88
f 92/92/92 93/93/93 72/72/72
f 94/94/94 93/93/93 88/88/88
f 93/93/93 94/94/94 95/95/95
f 89/89/89 96/96/96 91/91/91
f 96/96/96 89/89/89 72/72/72
f 96/96/96 97/97/97 91/91/91
f 97/97/97 96/96/96 72/72/72
f 97/97/97 98/98/98 91/91/91
f 98/98/98 97/97/97 95/95/95
f 99/99/99 93/93/93 95/95/95
f 93/93/93 99/99/99 72/72/72
f 97/97/97 99/99/99 95/95/95
f 99/99/99 97/97/97 72/72/72
f 102/102/102 101/101/101 100/100/100
f 101/101/101 102/102/102 103/103/103
f 101/101/101 104/104/104 100/100/100
f 104/104/104 101/101/101 105/105/105
f 104/104/104 106/106/106 100/100/100
f 106/106/106 104/104/104 105/105/105
f 106/106/106 107/107/107 100/100/100
f 107/107/107 106/106/106 108/108/108
f 109/109/109 101/101/101 103/103/103
f 101/101/101 109/109/109 105/105/105
f 110/110/110 109/109/109 103/103/103
f 109/109/109 110/110/110 105/105/105
f 111/111/111 110/110/110 103/103/103
f 110/110/110 111/111/111 112/112/112
f 106/106/106 113/113/113 108/108/108
f 113/113/113 106/106/106 105/105/105
f 113/113/113 114/114/114 108/108/108
f 114/114/114 113/113/113 105/105/105
f 114/114/114 115/115/115 108/108/108
f 115/115/115 114/114/114 116/116/116
f 110/110/110 117/117/117 105/105/105
f 117/117/117 110/110/110 112/112/112
f 118/118/118 114/114/114 105/105/105
f 114/114/114 118/118/118 116/116/116
f 117/117/117 119/119/119 105/105/105
f 119/119/119 117/117/117 112/112/112
f 120/120/120 119/119/119 112/112/112
f 119/119/119 120/120/120 121/121/121
f 118/118/118 122/122/122 116/116/116
f 122/122/122 118/118/118 105/105/105
f 122/122/122 123/123/123 116/116/116
f 123/123/123 122/122/122 124/124/124
f 125/125/125 119/119/119 121/121/121
f 119/119/119 125/125/125 105/105/105
f 126/126/126 125/125/125 121/121/121
f 125/125/125 126/126/126 105/105/105
f 127/127/127 126/126/126 121/121/121
f 126/126/126 127/127/127 128/128/128
f 122/122/122 129/129/129 124/124/124
f 129/129/129 122/122/122 105/105/105
f 129/129/129 130/130/130 124/124/124
f 130/130/130 129/129/129 105/105/105
f 130/130/130 131/131/131 124/124/124
f 131/131/131 130/130/130 128/128/128
f 132/132/132 126/126/126 128/128/128
f 126/126/126 132/132/132 105/105/105
f 130/130/130 132/132/132 128/128/128
f 132/132/132 130/130/130 105/105/105
