g ENV_SY01_Banner_Closed_Glass_MO
v -3.2695706 12.384609 0.14619404
v -1.2063 7.1433134 0.14619404
v -3.2695706 8.579272 0.14619404
v -0.46949962 12.384609 0.14619404
v -0.46949962 7.0661182 0.14619404
v -3.2695706 12.384609 -0.13774927
v -3.2695706 8.579272 -0.13774927
v -1.2063 7.1433134 -0.13774927
v -0.46949962 12.384609 -0.13774927
v -0.46949962 7.0661182 -0.13774927
vt 0.84203154 0.9227891
vt 0.62692976 0.84203154
vt 0.6865545 0.9250533
vt 0.83976734 0.8088229
vt 0.623156 0.81184185
vt 0.84203154 0.9227891
vt 0.6865545 0.9250533
vt 0.62692976 0.84203154
vt 0.83976734 0.8088229
vt 0.623156 0.81184185
vn -0 0 1
vn -0 0 1
vn -0 0 1
vn -0 0 1
vn -0 0 1
vn -0 0 -1
vn -0 0 -1
vn -0 0 -1
vn -0 0 -1
vn -0 0 -1
g ENV_SY01_Banner_Closed_Glass_MO_0
f 3/3/3 2/2/2 1/1/1
f 2/2/2 4/4/4 1/1/1
f 5/5/5 4/4/4 2/2/2
f 8/8/8 7/7/7 6/6/6
f 9/9/9 8/8/8 6/6/6
f 9/9/9 10/10/10 8/8/8
