g ENV_S06_G8_Section04_Low_Vinyl_MO
v 17.470871 6.296221 -19.399673
v 17.469742 5.9414215 -19.399673
v 17.55392 5.9414215 -19.222273
v 17.55392 6.2917023 -19.222273
v 17.480474 6.4685364 -19.221708
v 17.439798 6.4380283 -19.36634
v 11.872034 6.2917023 -16.32116
v 11.872034 5.9414215 -16.32116
v 11.620058 5.9414215 -16.23359
v 11.607628 6.2917023 -16.23359
v 11.799152 6.4685364 -16.32116
v 11.575425 6.4363327 -16.266357
v 11.430793 6.4685364 -16.23359
v 11.607628 6.2917023 -16.23359
v 17.29573 6.471361 -19.397978
v 17.470871 6.296221 -19.399673
v 11.622318 6.5419827 -16.32116
v 17.303076 6.5419827 -19.221708
v 17.294035 6.300741 -19.471424
v 17.469742 5.9414215 -19.399673
v 17.289516 5.9414215 -19.471424
v -17.293896 6.300741 -19.471424
v -17.28938 5.9414215 -19.471424
v -17.4696 5.9414215 -19.399673
v -17.470734 6.296221 -19.399673
v -17.295593 6.471361 -19.397978
v -17.440224 6.4380283 -19.36634
v -11.622179 6.5419827 -16.32116
v -17.480335 6.4685364 -19.221708
v -17.470734 6.296221 -19.399673
v -17.302937 6.5419827 -19.221708
v -11.799013 6.4685364 -16.32116
v -11.431219 6.4685364 -16.23359
v 11.430793 6.2917023 -16.16071
v 11.430793 5.9414215 -16.16071
v 11.620058 5.9414215 -16.23359
v -11.431219 5.9414215 -16.16071
v -11.431219 6.2917023 -16.16071
v -11.608055 6.2917023 -16.23359
v -11.620483 5.9414215 -16.23359
v -11.575287 6.4363327 -16.266357
v -11.608055 6.2917023 -16.23359
v -11.872459 6.2917023 -16.32116
v -11.620483 5.9414215 -16.23359
v -11.872459 5.9414215 -16.32116
v -17.553783 5.9414215 -19.222273
v -17.553783 6.2917023 -19.222273
v -17.4696 5.9414215 -19.399673
v 11.622318 5.3408604 -16.32116
v 7.7353344 5.3408604 -16.328505
v -0.00021362305 5.3408604 -16.328505
v -11.622179 5.3408604 -16.32116
v 17.470871 5.5866203 -19.399673
v 17.55392 5.9414215 -19.222273
v 17.469742 5.9414215 -19.399673
v 17.55392 5.5911407 -19.222273
v 17.480474 5.4143066 -19.221708
v 17.439798 5.4448147 -19.36634
v 11.872034 5.5911407 -16.32116
v 11.872034 5.9414215 -16.32116
v 11.620058 5.9414215 -16.23359
v 11.607628 5.5911407 -16.23359
v 11.799152 5.4143066 -16.32116
v 11.575425 5.4465084 -16.266357
v 11.430793 5.4143066 -16.23359
v 11.607628 5.5911407 -16.23359
v 17.29573 5.41148 -19.397978
v 17.470871 5.5866203 -19.399673
v 11.622318 5.3408604 -16.32116
v 17.294035 5.582102 -19.471424
v 17.469742 5.9414215 -19.399673
v 17.289516 5.9414215 -19.471424
v -17.28938 5.9414215 -19.471424
v -17.293896 5.582102 -19.471424
v -17.4696 5.9414215 -19.399673
v -17.470734 5.5866203 -19.399673
v -17.295593 5.41148 -19.397978
v -17.440224 5.4448147 -19.36634
v -17.302937 5.3408604 -19.221708
v 7.7353344 5.3408604 -16.328505
v -0.00021362305 5.3408604 -16.328505
v -11.622179 5.3408604 -16.32116
v -17.480335 5.4143066 -19.221708
v -17.470734 5.5866203 -19.399673
v 17.303076 5.3408604 -19.221708
v -11.799013 5.4143066 -16.32116
v -11.431219 5.4143066 -16.23359
v -17.553783 5.5911407 -19.222273
v -17.553783 5.9414215 -19.222273
v -17.4696 5.9414215 -19.399673
v -11.872459 5.9414215 -16.32116
v -11.872459 5.5911407 -16.32116
v -11.620483 5.9414215 -16.23359
v -11.608055 5.5911407 -16.23359
v -11.575287 5.4465084 -16.266357
v -11.608055 5.5911407 -16.23359
v -11.431219 5.5911407 -16.16071
v -11.431219 5.9414215 -16.16071
v -11.620483 5.9414215 -16.23359
v 11.430793 5.9414215 -16.16071
v 11.430793 5.5911407 -16.16071
v 11.620058 5.9414215 -16.23359
vt 0.28106046 1.3195279
vt 0.30026913 1.3369358
vt 0.31107402 1.3291323
vt 0.2930659 1.3141255
vt 0.28586268 1.303921
vt 0.2750578 1.3057218
vt 0.49535692 0.94435906
vt 0.5169667 0.95516396
vt 0.52477014 0.93775606
vt 0.5031605 0.9263511
vt 0.48635292 0.93535495
vt 0.49355614 0.9209485
vt 0.49295592 0.9101436
vt 0.5037607 0.9233496
vt 0.27145612 1.2937164
vt 0.26245213 1.3081229
vt 0.48515236 0.9227493
vt 0.2840618 1.2925158
vt 0.2594508 1.2949169
vt 0.23784101 1.3099236
vt 0.2354399 1.2967176
vt 0.30447102 -1.0389338
vt 0.28046024 -1.0413349
vt 0.28346157 -1.0545408
vt 0.3080727 -1.0515394
vt 0.31707668 -1.037133
vt 0.32067835 -1.0491383
vt 0.51576614 -0.6583624
vt 0.3308829 -1.0467372
vt 0.32728124 -1.0629445
vt 0.32908213 -1.0353321
vt 0.51816726 -0.67096806
vt 0.5235697 -0.6451565
vt 0.5061618 0.91074395
vt 0.52957237 0.9119444
vt 0.5283718 0.92575073
vt 0.56018615 -0.646357
vt 0.5361754 -0.6451565
vt 0.5349748 -0.6583624
vt 0.5589856 -0.6601632
vt 0.5241699 -0.65596133
vt 0.53377426 -0.6613638
vt 0.52717125 -0.67937183
vt 0.55598426 -0.6721686
vt 0.54938126 -0.6895765
vt 0.35789502 -1.0713483
vt 0.33868647 -1.0569419
vt 0.34709024 -1.0791519
vt 0.12919211 -0.70638406
vt 0.124390006 -0.44586676
vt 0.11598623 0.08417189
vt 0.104581 0.8747277
vt 0.33148313 -1.1037629
vt 0.30146968 -1.1133672
vt 0.31227458 -1.1211708
vt 0.32007802 -1.0983605
vt 0.32728124 -1.0881559
vt 0.3374859 -1.0899568
vt 0.11838722 -0.7279937
vt 0.09677756 -0.7381984
vt 0.08957434 -0.7213908
vt 0.111184 -0.7099856
vt 0.12739134 -0.71898973
vt 0.120788336 -0.70398295
vt 0.121388555 -0.6937784
vt 0.109983444 -0.7069843
vt 0.34108746 -1.0779513
vt 0.35009158 -1.0923578
vt 0.12919211 -0.70638406
vt 0.35369313 -1.0791519
vt 0.3747027 -1.0947589
vt 0.37770402 -1.0809526
vt 0.34108746 1.2570999
vt 0.31707668 1.2546988
vt 0.33808613 1.2703059
vt 0.31347513 1.2673044
vt 0.30507123 1.252898
vt 0.30146968 1.2649033
vt 0.29246557 1.2510972
vt 0.124390006 -0.44586676
vt 0.11598623 0.08417189
vt 0.104581 0.8747277
vt 0.2906648 1.2625022
vt 0.29426646 1.2787097
vt 0.3284818 -1.0767508
vt 0.102180004 0.8873334
vt 0.09677756 0.86212206
vt 0.28286135 1.272707
vt 0.2642529 1.2871134
vt 0.2750578 1.2949169
vt 0.070965886 0.9059417
vt 0.09317589 0.8963375
vt 0.06436288 0.88853407
vt 0.08597267 0.8783294
vt 0.095577 0.87292695
vt 0.08537245 0.87532806
vt 0.08357155 0.86212206
vt 0.060160995 0.8627223
vt 0.06136155 0.8765285
vt 0.08417189 -0.6955792
vt 0.10818267 -0.6937784
vt 0.08597267 -0.7093854
vn 0.6862645 0.09803784 -0.7207147
vn 0.6862645 0.003921509 -0.72734153
vn 0.48234594 0.003921509 0.87597203
vn 0.48234594 0.05882263 0.8740036
vn 0.4509738 0.30195642 0.8399077
vn 0.5686192 0.5843053 -0.57901603
vn 0.4509738 0.07450867 0.88942176
vn 0.4509738 0.003921509 0.8925286
vn 0.3411715 0.003921509 0.9399929
vn 0.32548547 0.07450867 0.94260687
vn 0.38822967 0.513718 0.7650958
vn 0.2705843 0.2941134 0.9166687
vn 0.003921509 0.5921483 0.8058195
vn 0.32548547 0.07450867 0.94260687
vn 0.003921509 0.7254796 -0.6882325
vn 0.6862645 0.09803784 -0.7207147
vn 0.003921509 0.99998546 0.0037025758
vn 0.011763884 0.99993086 -0
vn 0.003921509 0.13725293 -0.9905283
vn 0.6862645 0.003921509 -0.72734153
vn 0.003921509 0.003921509 -0.9999846
vn -0.003921509 0.13725293 -0.9905283
vn -0.003921509 0.003921509 -0.9999846
vn -0.6862645 0.003921509 -0.72734153
vn -0.6862645 0.09803784 -0.7207147
vn -0.003921509 0.7254796 -0.6882325
vn -0.56861913 0.5843053 -0.5790161
vn -0.003921509 0.99998546 0.0037025758
vn -0.45097387 0.30195642 0.83990765
vn -0.6862645 0.09803784 -0.7207147
vn -0.011763884 0.99993086 -0
vn -0.3882296 0.513718 0.7650958
vn -0.003921509 0.5921483 0.8058195
vn 0.003921509 0.13725293 0.9905283
vn 0.003921509 0.003921509 0.9999846
vn 0.3411715 0.003921509 0.9399929
vn -0.003921509 0.003921509 0.9999846
vn -0.003921509 0.13725293 0.9905283
vn -0.32548547 0.07450867 0.94260687
vn -0.3411715 0.003921509 0.9399929
vn -0.27058434 0.2941134 0.91666865
vn -0.32548547 0.07450867 0.94260687
vn -0.45097387 0.07450867 0.88942176
vn -0.3411715 0.003921509 0.9399929
vn -0.45097387 0.003921509 0.89252853
vn -0.48234594 0.003921509 0.87597203
vn -0.48234594 0.05882263 0.8740036
vn -0.6862645 0.003921509 -0.72734153
vn 0.003921509 -0.99998546 0.0037025758
vn -0.003921509 -0.99998546 0.0037025758
vn -0.003921509 -0.99998546 0.0037025758
vn -0.003921509 -0.99998546 0.0037025758
vn 0.6862645 -0.09803778 -0.7207147
vn 0.48234594 0.003921509 0.87597203
vn 0.6862645 0.003921509 -0.72734153
vn 0.48234594 -0.05882269 0.8740036
vn 0.4509738 -0.30195642 0.8399077
vn 0.5686192 -0.5843052 -0.5790161
vn 0.4509738 -0.07450873 0.88942176
vn 0.4509738 0.003921509 0.8925286
vn 0.3411715 0.003921509 0.9399929
vn 0.32548547 -0.07450873 0.9426068
vn 0.38822967 -0.513718 0.7650958
vn 0.2705843 -0.29411334 0.9166687
vn 0.003921509 -0.60783434 0.79405415
vn 0.32548547 -0.07450873 0.9426068
vn 0.003921509 -0.7254796 -0.6882325
vn 0.6862645 -0.09803778 -0.7207147
vn 0.003921509 -0.99998546 0.0037025758
vn 0.003921509 -0.13725293 -0.9905283
vn 0.6862645 0.003921509 -0.72734153
vn 0.003921509 0.003921509 -0.9999846
vn -0.003921509 0.003921509 -0.9999846
vn -0.003921509 -0.13725293 -0.9905283
vn -0.6862645 0.003921509 -0.72734153
vn -0.6862645 -0.09803778 -0.7207147
vn -0.003921509 -0.7254796 -0.6882325
vn -0.56861913 -0.5843052 -0.57901615
vn -0.011763884 -0.99993086 -0
vn -0.003921509 -0.99998546 0.0037025758
vn -0.003921509 -0.99998546 0.0037025758
vn -0.003921509 -0.99998546 0.0037025758
vn -0.45097387 -0.30195642 0.83990765
vn -0.6862645 -0.09803778 -0.7207147
vn 0.011763884 -0.99993086 -0
vn -0.3882296 -0.513718 0.7650958
vn -0.003921509 -0.60783434 0.79405415
vn -0.48234594 -0.05882269 0.8740036
vn -0.48234594 0.003921509 0.87597203
vn -0.6862645 0.003921509 -0.72734153
vn -0.45097387 0.003921509 0.89252853
vn -0.45097387 -0.07450873 0.8894217
vn -0.3411715 0.003921509 0.9399929
vn -0.32548547 -0.07450873 0.9426068
vn -0.27058434 -0.29411334 0.91666865
vn -0.32548547 -0.07450873 0.9426068
vn -0.003921509 -0.13725293 0.9905283
vn -0.003921509 0.003921509 0.9999846
vn -0.3411715 0.003921509 0.9399929
vn 0.003921509 0.003921509 0.9999846
vn 0.003921509 -0.13725293 0.9905283
vn 0.3411715 0.003921509 0.9399929
g ENV_S06_G8_Section04_Low_Vinyl_MO_0
f 3/3/3 2/2/2 1/1/1
f 4/4/4 3/3/3 1/1/1
f 4/4/4 1/1/1 5/5/5
f 1/1/1 6/6/6 5/5/5
f 4/4/4 7/7/7 3/3/3
f 7/7/7 8/8/8 3/3/3
f 9/9/9 8/8/8 7/7/7
f 10/10/10 9/9/9 7/7/7
f 11/11/11 7/7/7 4/4/4
f 7/7/7 11/11/11 10/10/10
f 5/5/5 11/11/11 4/4/4
f 11/11/11 12/12/12 10/10/10
f 13/13/13 12/12/12 11/11/11
f 14/14/14 12/12/12 13/13/13
f 5/5/5 6/6/6 15/15/15
f 15/15/15 6/6/6 16/16/16
f 17/17/17 11/11/11 5/5/5
f 17/17/17 13/13/13 11/11/11
f 18/18/18 17/17/17 5/5/5
f 18/18/18 5/5/5 15/15/15
f 19/19/19 15/15/15 16/16/16
f 16/16/16 20/20/20 19/19/19
f 20/20/20 21/21/21 19/19/19
f 19/19/19 21/21/21 22/22/22
f 15/15/15 19/19/19 22/22/22
f 21/21/21 23/23/23 22/22/22
f 23/23/23 24/24/24 22/22/22
f 24/24/24 25/25/25 22/22/22
f 26/26/26 15/15/15 22/22/22
f 26/26/26 22/22/22 25/25/25
f 18/18/18 15/15/15 26/26/26
f 27/27/27 26/26/26 25/25/25
f 28/28/28 17/17/17 18/18/18
f 17/17/17 28/28/28 13/13/13
f 27/27/27 29/29/29 26/26/26
f 27/27/27 30/30/30 29/29/29
f 31/31/31 18/18/18 26/26/26
f 31/31/31 28/28/28 18/18/18
f 29/29/29 31/31/31 26/26/26
f 32/32/32 28/28/28 31/31/31
f 29/29/29 32/32/32 31/31/31
f 28/28/28 33/33/33 13/13/13
f 33/33/33 28/28/28 32/32/32
f 13/13/13 33/33/33 34/34/34
f 34/34/34 14/14/14 13/13/13
f 34/34/34 35/35/35 14/14/14
f 35/35/35 36/36/36 14/14/14
f 37/37/37 35/35/35 34/34/34
f 38/38/38 37/37/37 34/34/34
f 33/33/33 38/38/38 34/34/34
f 37/37/37 38/38/38 39/39/39
f 39/39/39 38/38/38 33/33/33
f 40/40/40 37/37/37 39/39/39
f 41/41/41 39/39/39 33/33/33
f 41/41/41 33/33/33 32/32/32
f 41/41/41 32/32/32 42/42/42
f 32/32/32 43/43/43 42/42/42
f 43/43/43 32/32/32 29/29/29
f 44/44/44 42/42/42 43/43/43
f 45/45/45 44/44/44 43/43/43
f 46/46/46 45/45/45 43/43/43
f 47/47/47 43/43/43 29/29/29
f 47/47/47 46/46/46 43/43/43
f 30/30/30 47/47/47 29/29/29
f 46/46/46 47/47/47 30/30/30
f 48/48/48 46/46/46 30/30/30
f 51/51/51 50/50/50 49/49/49
f 49/49/49 52/52/52 51/51/51
f 55/55/55 54/54/54 53/53/53
f 54/54/54 56/56/56 53/53/53
f 53/53/53 56/56/56 57/57/57
f 58/58/58 53/53/53 57/57/57
f 59/59/59 56/56/56 54/54/54
f 57/57/57 56/56/56 59/59/59
f 60/60/60 59/59/59 54/54/54
f 60/60/60 61/61/61 59/59/59
f 61/61/61 62/62/62 59/59/59
f 63/63/63 59/59/59 62/62/62
f 63/63/63 57/57/57 59/59/59
f 64/64/64 63/63/63 62/62/62
f 64/64/64 65/65/65 63/63/63
f 64/64/64 66/66/66 65/65/65
f 58/58/58 57/57/57 67/67/67
f 58/58/58 67/67/67 68/68/68
f 63/63/63 69/69/69 57/57/57
f 65/65/65 69/69/69 63/63/63
f 67/67/67 70/70/70 68/68/68
f 71/71/71 68/68/68 70/70/70
f 72/72/72 71/71/71 70/70/70
f 73/73/73 72/72/72 70/70/70
f 74/74/74 73/73/73 70/70/70
f 75/75/75 73/73/73 74/74/74
f 76/76/76 75/75/75 74/74/74
f 77/77/77 74/74/74 70/70/70
f 74/74/74 77/77/77 76/76/76
f 67/67/67 77/77/77 70/70/70
f 77/77/77 78/78/78 76/76/76
f 79/79/79 77/77/77 67/67/67
f 69/69/69 80/80/80 79/79/79
f 79/79/79 80/80/80 81/81/81
f 81/81/81 82/82/82 79/79/79
f 83/83/83 78/78/78 77/77/77
f 79/79/79 83/83/83 77/77/77
f 84/84/84 78/78/78 83/83/83
f 85/85/85 79/79/79 67/67/67
f 79/79/79 85/85/85 69/69/69
f 57/57/57 85/85/85 67/67/67
f 69/69/69 85/85/85 57/57/57
f 69/69/69 65/65/65 82/82/82
f 82/82/82 86/86/86 79/79/79
f 86/86/86 83/83/83 79/79/79
f 65/65/65 87/87/87 82/82/82
f 82/82/82 87/87/87 86/86/86
f 88/88/88 84/84/84 83/83/83
f 88/88/88 89/89/89 84/84/84
f 89/89/89 90/90/90 84/84/84
f 91/91/91 89/89/89 88/88/88
f 92/92/92 88/88/88 83/83/83
f 92/92/92 91/91/91 88/88/88
f 86/86/86 92/92/92 83/83/83
f 93/93/93 91/91/91 92/92/92
f 94/94/94 93/93/93 92/92/92
f 92/92/92 86/86/86 94/94/94
f 86/86/86 95/95/95 94/94/94
f 87/87/87 95/95/95 86/86/86
f 96/96/96 95/95/95 87/87/87
f 87/87/87 65/65/65 97/97/97
f 97/97/97 96/96/96 87/87/87
f 97/97/97 98/98/98 96/96/96
f 98/98/98 99/99/99 96/96/96
f 100/100/100 98/98/98 97/97/97
f 65/65/65 101/101/101 97/97/97
f 101/101/101 100/100/100 97/97/97
f 66/66/66 101/101/101 65/65/65
f 100/100/100 101/101/101 66/66/66
f 102/102/102 100/100/100 66/66/66
