g ENV_Swimring_2_MO
v -0.6412902 -0.3717625 -1.0721378
v -2.527237E-05 -0.3713205 -1.2473698
v -2.527237E-05 -1.09534 -1.7864343
v -0.9149656 -1.0961134 -1.5377288
v -1.1135101 -0.37297797 -0.5905261
v -2.527237E-05 -1.194778 -2.7596014
v -1.5867248 -1.0983231 -0.8565781
v -1.2869744 -0.3745246 0.07095766
v -1.4079576 -1.1955514 -2.378201
v -2.527237E-05 -0.5370507 -3.442851
v -1.7541122 -0.53760314 -2.9685316
v -2.4381356 -1.197761 -1.3367534
v -3.036642 -0.538929 -1.6740694
v -1.8336625 -1.1013062 0.07648206
v -1.1126266 -0.37618208 0.7319999
v -2.8148952 -1.2005234 0.08521056
v -3.5056581 -0.5406966 0.09217119
v -1.5877194 -1.1042893 1.0102053
v -0.64040613 -0.3773973 1.2123961
v -2.4379144 -1.2031751 1.5070639
v -3.0368629 -0.5424645 1.8584118
v -0.91607046 -1.1063886 1.6925712
v -2.527237E-05 -0.3779497 1.3870754
v -1.4077363 -1.2050533 2.54818
v -1.7542229 -0.54379034 3.1529846
v -2.527237E-05 -1.107162 1.9418292
v -2.527237E-05 -1.2057161 2.92947
v -2.527237E-05 -0.54434276 3.6274142
v 1.7542827 -0.54379034 3.1529846
v 1.407686 -1.2050533 2.54818
v 3.0368123 -0.5424645 1.8584118
v 0.91602015 -1.1063886 1.6925712
v 0.6403556 -0.3773973 1.2123961
v 2.4378638 -1.2031751 1.5070639
v 3.5056076 -0.5406966 0.09217119
v 1.5877793 -1.1042893 1.0102053
v 1.112576 -0.37618208 0.7319999
v 2.8148446 -1.2005234 0.08521056
v 3.036702 -0.538929 -1.6740694
v 1.8337227 -1.1013062 0.07648206
v 1.2870345 -0.3745246 0.07095766
v 2.438085 -1.197761 -1.3367534
v 1.7541722 -0.53760314 -2.9685316
v 1.5866743 -1.0983231 -0.8565781
v 1.1135702 -0.37297797 -0.5905261
v 1.4079068 -1.1955514 -2.378201
v -2.527237E-05 -0.5370507 -3.442851
v -2.527237E-05 -1.194778 -2.7596014
v 0.9149151 -1.0961134 -1.5377288
v 0.64135003 -0.3717625 -1.0721378
v -2.527237E-05 -1.09534 -1.7864343
v -2.527237E-05 -0.3713205 -1.2473698
v 3.5056076 -0.5406966 0.09217119
v 3.0368123 -0.5424645 1.8584118
v 3.5591936 0.36783552 0.092502594
v 3.036702 -0.538929 -1.6740694
v 3.0833273 0.36927176 1.8855915
v 1.7542827 -0.54379034 3.1529846
v 3.0831063 0.36650968 -1.7003652
v 1.78091 0.36551523 -3.0143836
v 1.7541722 -0.53760314 -2.9685316
v -2.527237E-05 -0.5370507 -3.442851
v -2.527237E-05 0.36507344 -3.4959953
v -2.527237E-05 1.1012464 -2.9171553
v 2.9727302 1.1066604 0.08609438
v 2.575199 1.1040087 -1.4146466
v 1.4873469 1.1020198 -2.5143209
v 0.9912615 1.1462145 -1.6683241
v -2.527237E-05 1.145441 -1.9375801
v -2.527237E-05 0.4859457 -1.2963152
v 1.7183745 1.1482034 -0.93137765
v 0.6660991 0.48638773 -1.1144543
v -2.527237E-05 -0.3713205 -1.2473698
v 0.64135003 -0.3717625 -1.0721378
v 1.1563287 0.48749256 -0.61483335
v 1.1135702 -0.37297797 -0.5905261
v 1.2870345 -0.3745246 0.07095766
v 1.9853104 1.1507444 0.07725549
v 1.3365324 0.48903942 0.0712893
v 1.1555552 0.4906969 0.7569699
v 1.112576 -0.37618208 0.7319999
v 0.6403556 -0.3773973 1.2123961
v 1.7190374 1.1532855 1.0863304
v 0.66532564 0.4919119 1.2557068
v -2.527237E-05 -0.3779497 1.3870754
v 2.5744257 1.1092014 1.5863934
v 0.9919245 1.1550531 1.8240504
v -2.527237E-05 0.49235392 1.4371257
v 1.4865735 1.1110797 2.685184
v -0.6653762 0.4919119 1.2557068
v -0.64040613 -0.3773973 1.2123961
v -2.527237E-05 1.1557164 2.093638
v 1.781131 0.3702662 3.199831
v -2.527237E-05 1.1117425 3.0874658
v -2.527237E-05 0.3705976 3.681553
v -2.527237E-05 -0.54434276 3.6274142
v -1.7542229 -0.54379034 3.1529846
v -0.9918647 1.1550531 1.8240504
v -1.1556058 0.4906969 0.7569699
v -1.1126266 -0.37618208 0.7319999
v -1.2869744 -0.3745246 0.07095766
v -1.7811813 0.3702662 3.199831
v -1.4866238 1.1110797 2.685184
v -3.0832672 0.36927176 1.8855915
v -3.0368629 -0.5424645 1.8584118
v -1.7189775 1.1532855 1.0863304
v -2.5744762 1.1092014 1.5863934
v -3.5592442 0.36783552 0.092502594
v -3.5056581 -0.5406966 0.09217119
v -3.036642 -0.538929 -1.6740694
v -2.9727807 1.1066604 0.08609438
v -1.9852505 1.1507444 0.07725549
v -3.0830464 0.36650968 -1.7003652
v -1.7809606 0.36551523 -3.0143836
v -1.7541122 -0.53760314 -2.9685316
v -2.527237E-05 -0.5370507 -3.442851
v -2.527237E-05 0.36507344 -3.4959953
v -2.527237E-05 1.1012464 -2.9171553
v -2.5752497 1.1040087 -1.4146466
v -1.3364725 0.48903942 0.0712893
v -1.4873972 1.1020198 -2.5143209
v -1.7183146 1.1482034 -0.93137765
v -1.1563792 0.48749256 -0.61483335
v -1.1135101 -0.37297797 -0.5905261
v -0.6412902 -0.3717625 -1.0721378
v -0.9912014 1.1462145 -1.6683241
v -2.527237E-05 1.145441 -1.9375801
v -2.527237E-05 0.4859457 -1.2963152
v -0.6661496 0.48638773 -1.1144543
v -2.527237E-05 -0.3713205 -1.2473698
vt 0.9252839 0.059130277
vt 0.9252839 0.01604699
vt 0.89207387 0.01604699
vt 0.89207387 0.059130277
vt 0.9252839 0.09952086
vt 0.85617113 0.01604699
vt 0.89207387 0.09952086
vt 0.9252839 0.13901387
vt 0.85617113 0.059130277
vt 0.8211659 0.01604699
vt 0.8211659 0.059130277
vt 0.85617113 0.09952086
vt 0.8211659 0.09952086
vt 0.89207387 0.13901387
vt 0.9252839 0.18030202
vt 0.85617113 0.13901387
vt 0.8211659 0.13901387
vt 0.89207387 0.18030202
vt 0.9252839 0.21979503
vt 0.85617113 0.18030202
vt 0.8211659 0.18030202
vt 0.89207387 0.21979503
vt 0.9252839 0.26018563
vt 0.85617113 0.21979503
vt 0.8211659 0.21979503
vt 0.89207387 0.26018563
vt 0.85617113 0.26018563
vt 0.8211659 0.26018563
vt 0.8211659 0.29967865
vt 0.85617113 0.29967865
vt 0.8211659 0.34006923
vt 0.89207387 0.29967865
vt 0.9252839 0.29967865
vt 0.85617113 0.34006923
vt 0.8211659 0.38045982
vt 0.89207387 0.34006923
vt 0.9252839 0.34006923
vt 0.85617113 0.38045982
vt 0.8211659 0.4208504
vt 0.89207387 0.38045982
vt 0.9252839 0.38045982
vt 0.85617113 0.4208504
vt 0.8211659 0.46124098
vt 0.89207387 0.4208504
vt 0.9252839 0.4208504
vt 0.85617113 0.46124098
vt 0.8211659 0.50432426
vt 0.85617113 0.50432426
vt 0.89207387 0.46124098
vt 0.9252839 0.46124098
vt 0.89207387 0.50432426
vt 0.9252839 0.50432426
vt 0.21171692 0.87502
vt 0.27723944 0.87502
vt 0.21171692 0.8184732
vt 0.14619441 0.87502
vt 0.27723944 0.8184732
vt 0.34276193 0.87502
vt 0.14619441 0.8184732
vt 0.07977435 0.8184732
vt 0.07977435 0.87502
vt 0.007071305 0.87502
vt 0.007071305 0.8184732
vt 0.007071305 0.7610289
vt 0.21171692 0.7610289
vt 0.14619441 0.7610289
vt 0.07977435 0.7610289
vt 0.07977435 0.704482
vt 0.007071305 0.704482
vt 0.007071305 0.6470377
vt 0.14619441 0.704482
vt 0.07977435 0.6470377
vt 0.007071305 0.5940811
vt 0.07977435 0.5940811
vt 0.14619441 0.6470377
vt 0.14619441 0.5940811
vt 0.21171692 0.5940811
vt 0.21171692 0.704482
vt 0.21171692 0.6470377
vt 0.27723944 0.6470377
vt 0.27723944 0.5940811
vt 0.34276193 0.5940811
vt 0.27723944 0.704482
vt 0.34276193 0.6470377
vt 0.40738687 0.5940811
vt 0.27723944 0.7610289
vt 0.34276193 0.704482
vt 0.40738687 0.6470377
vt 0.34276193 0.7610289
vt 0.4720118 0.6470377
vt 0.4720118 0.5940811
vt 0.40738687 0.704482
vt 0.34276193 0.8184732
vt 0.40738687 0.7610289
vt 0.40738687 0.8184732
vt 0.40738687 0.87502
vt 0.4720118 0.87502
vt 0.4720118 0.704482
vt 0.5375343 0.6470377
vt 0.5375343 0.5940811
vt 0.6030568 0.5940811
vt 0.4720118 0.8184732
vt 0.4720118 0.7610289
vt 0.5375343 0.8184732
vt 0.5375343 0.87502
vt 0.5375343 0.704482
vt 0.5375343 0.7610289
vt 0.6030568 0.8184732
vt 0.6030568 0.87502
vt 0.6685793 0.87502
vt 0.6030568 0.7610289
vt 0.6030568 0.704482
vt 0.6685793 0.8184732
vt 0.73499936 0.8184732
vt 0.73499936 0.87502
vt 0.8077024 0.87502
vt 0.8077024 0.8184732
vt 0.8077024 0.7610289
vt 0.6685793 0.7610289
vt 0.6030568 0.6470377
vt 0.73499936 0.7610289
vt 0.6685793 0.704482
vt 0.6685793 0.6470377
vt 0.6685793 0.5940811
vt 0.73499936 0.5940811
vt 0.73499936 0.704482
vt 0.8077024 0.704482
vt 0.8077024 0.6470377
vt 0.73499936 0.6470377
vt 0.8077024 0.5940811
vn 0.46711734 -0.32325023 0.82298887
vn -0.0023437738 -0.3081063 0.951349
vn -0.0023437738 -0.9138626 0.40601686
vn 0.18695503 -0.9214345 0.3405969
vn 0.8154272 -0.33082217 0.4750107
vn -0.0023437738 -0.90629065 -0.42264852
vn 0.33082217 -0.9214345 0.20375258
vn 0.9437431 -0.33067948 -0
vn -0.19921458 -0.90629065 -0.37276107
vn -0.0023437738 -0.3762539 -0.9265136
vn -0.456661 -0.39139777 -0.7989171
vn -0.35822558 -0.90629065 -0.22430266
vn -0.7973989 -0.39139777 -0.45930678
vn 0.38382584 -0.9214345 0.060300265
vn 0.8229991 -0.33082217 -0.46176738
vn -0.4188012 -0.90629065 -0.056946028
vn -0.91855013 -0.39139777 -0.05543874
vn 0.3383941 -0.9214345 -0.19091313
vn 0.4898332 -0.33082217 -0.8066102
vn -0.36579752 -0.90629065 0.21172962
vn -0.80497086 -0.39139777 0.44590324
vn 0.20209897 -0.9214345 -0.33183497
vn -0.0023437738 -0.3459661 -0.9382441
vn -0.21435845 -0.90629065 0.3642633
vn -0.47180486 -0.39139777 0.7900683
vn -0.0023437738 -0.9290065 -0.37005597
vn -0.0023437738 -0.9138626 0.40601686
vn -0.0023437738 -0.4065417 0.91362923
vn 0.46711734 -0.39139777 0.79284877
vn 0.2172429 -0.90629065 0.36255038
vn 0.8002833 -0.39139777 0.45426247
vn -0.19921458 -0.9214345 -0.33357453
vn -0.48694885 -0.33082217 -0.8083548
vn 0.36868197 -0.90629065 0.20666616
vn 0.9204071 -0.39096135 -0
vn -0.33550978 -0.9214345 -0.19593772
vn -0.82768667 -0.33082217 -0.45331168
vn 0.41411364 -0.90629065 -0.084541075
vn 0.7927114 -0.39139777 -0.46735045
vn -0.38851345 -0.9214345 -0.003966816
vn -0.94126606 -0.33082217 0.06763797
vn 0.35353804 -0.90629065 -0.23162062
vn 0.45954537 -0.39139777 -0.7972615
vn -0.33550978 -0.9214345 0.19593772
vn -0.8125428 -0.33082217 0.479928
vn 0.20209897 -0.90629065 -0.3712052
vn -0.0023437738 -0.3762539 -0.9265136
vn -0.0023437738 -0.90629065 -0.42264852
vn -0.19164264 -0.9214345 0.33798155
vn -0.47180486 -0.32325023 0.8203106
vn -0.0023437738 -0.9138626 0.40601686
vn -0.0023437738 -0.3081063 0.951349
vn 0.9204071 -0.39096135 -0
vn 0.8002833 -0.39139777 0.45426247
vn 0.9592678 0.2824983 -0
vn 0.7927114 -0.39139777 -0.46735045
vn 0.83814305 0.2825061 0.46659032
vn 0.46711734 -0.39139777 0.79284877
vn 0.8305711 0.2825061 -0.47993952
vn 0.48226124 0.26736212 -0.83423114
vn 0.45954537 -0.39139777 -0.7972615
vn -0.0023437738 -0.3762539 -0.9265136
vn -0.0023437738 0.29007804 -0.95700014
vn -0.0023437738 0.82768667 -0.5611856
vn 0.5272596 0.84970415 -0
vn 0.45954537 0.8504026 -0.2561903
vn 0.26267457 0.8504026 -0.45587003
vn -0.12349498 0.9715538 0.2020697
vn -0.0023437738 0.95640993 0.29201812
vn -0.0023437738 0.47180486 0.8816999
vn -0.22193038 0.96398187 0.14658058
vn -0.456661 0.43394518 0.77662885
vn -0.0023437738 -0.3081063 0.951349
vn -0.47180486 -0.32325023 0.8203106
vn -0.76711106 0.456661 0.45055673
vn -0.8125428 -0.33082217 0.479928
vn -0.94126606 -0.33082217 0.06763797
vn -0.25221825 0.96398187 0.08440948
vn -0.8882624 0.456661 0.04950444
vn -0.78225505 0.456661 -0.42371896
vn -0.82768667 -0.33082217 -0.45331168
vn -0.48694885 -0.33082217 -0.8083548
vn -0.22193038 0.9715538 -0.082644396
vn -0.46423292 0.456661 -0.75891274
vn -0.0023437738 -0.3459661 -0.9382441
vn 0.46711734 0.8504026 0.2421091
vn -0.13106704 0.9715538 -0.19724251
vn -0.0023437738 0.4793769 -0.877606
vn 0.2778185 0.8504026 0.4468023
vn 0.45954537 0.456661 -0.76176035
vn 0.4898332 -0.33082217 -0.8066102
vn -0.0023437738 0.9715538 -0.23680735
vn 0.4898332 0.2825061 0.8247749
vn -0.0023437738 0.8504026 0.5261273
vn -0.0023437738 0.29007804 0.95700014
vn -0.0023437738 -0.4065417 0.91362923
vn -0.47180486 -0.39139777 0.7900683
vn 0.12637943 0.9715538 -0.20027836
vn 0.77756745 0.456661 -0.43226102
vn 0.8229991 -0.33082217 -0.46176738
vn 0.9437431 -0.33067948 -0
vn -0.48694885 0.2825061 0.82648116
vn -0.27493405 0.8504026 0.448583
vn -0.8352587 0.2825061 0.47173426
vn -0.80497086 -0.39139777 0.44590324
vn 0.2172429 0.9715538 -0.09428002
vn -0.46423292 0.8504026 0.24759483
vn -0.95640993 0.2825061 -0.07396187
vn -0.91855013 -0.39139777 -0.05543874
vn -0.7973989 -0.39139777 -0.45930678
vn -0.53062874 0.84760433 -0
vn 0.25510263 0.96398187 0.07524365
vn -0.82768667 0.2825061 -0.484897
vn -0.48694885 0.26736212 -0.8315036
vn -0.456661 -0.39139777 -0.7989171
vn -0.0023437738 -0.3762539 -0.9265136
vn -0.0023437738 0.29007804 -0.95700014
vn -0.0023437738 0.82768667 -0.5611856
vn -0.456661 0.8504026 -0.26129708
vn 0.88995427 0.45604992 -0
vn -0.25979018 0.8504026 -0.45751992
vn 0.2172429 0.96398187 0.15344214
vn 0.76999545 0.456661 0.4456094
vn 0.8154272 -0.33082217 0.4750107
vn 0.46711734 -0.32325023 0.82298887
vn 0.118807495 0.9715538 0.2048609
vn -0.0023437738 0.95640993 0.29201812
vn -0.0023437738 0.47180486 0.8816999
vn 0.45954537 0.43394518 0.7749256
vn -0.0023437738 -0.3081063 0.951349
g ENV_Swimring_2_MO_0
f 3/3/3 2/2/2 1/1/1
f 3/3/3 1/1/1 4/4/4
f 4/4/4 1/1/1 5/5/5
f 4/4/4 6/6/6 3/3/3
f 4/4/4 5/5/5 7/7/7
f 8/8/8 7/7/7 5/5/5
f 4/4/4 9/9/9 6/6/6
f 9/9/9 4/4/4 7/7/7
f 10/10/10 6/6/6 9/9/9
f 10/10/10 9/9/9 11/11/11
f 12/12/12 11/11/11 9/9/9
f 9/9/9 7/7/7 12/12/12
f 12/12/12 13/13/13 11/11/11
f 8/8/8 14/14/14 7/7/7
f 14/14/14 12/12/12 7/7/7
f 14/14/14 8/8/8 15/15/15
f 13/13/13 12/12/12 16/16/16
f 14/14/14 16/16/16 12/12/12
f 13/13/13 16/16/16 17/17/17
f 14/14/14 15/15/15 18/18/18
f 16/16/16 14/14/14 18/18/18
f 19/19/19 18/18/18 15/15/15
f 17/17/17 16/16/16 20/20/20
f 16/16/16 18/18/18 20/20/20
f 17/17/17 20/20/20 21/21/21
f 19/19/19 22/22/22 18/18/18
f 20/20/20 18/18/18 22/22/22
f 22/22/22 19/19/19 23/23/23
f 24/24/24 21/21/21 20/20/20
f 20/20/20 22/22/22 24/24/24
f 24/24/24 25/25/25 21/21/21
f 22/22/22 23/23/23 26/26/26
f 26/26/26 24/24/24 22/22/22
f 25/25/25 24/24/24 27/27/27
f 26/26/26 27/27/27 24/24/24
f 25/25/25 27/27/27 28/28/28
f 27/27/27 29/29/29 28/28/28
f 27/27/27 30/30/30 29/29/29
f 30/30/30 27/27/27 26/26/26
f 31/31/31 29/29/29 30/30/30
f 23/23/23 32/32/32 26/26/26
f 30/30/30 26/26/26 32/32/32
f 23/23/23 33/33/33 32/32/32
f 31/31/31 30/30/30 34/34/34
f 34/34/34 30/30/30 32/32/32
f 35/35/35 31/31/31 34/34/34
f 33/33/33 36/36/36 32/32/32
f 34/34/34 32/32/32 36/36/36
f 33/33/33 37/37/37 36/36/36
f 35/35/35 34/34/34 38/38/38
f 36/36/36 38/38/38 34/34/34
f 38/38/38 39/39/39 35/35/35
f 37/37/37 40/40/40 36/36/36
f 36/36/36 40/40/40 38/38/38
f 37/37/37 41/41/41 40/40/40
f 38/38/38 42/42/42 39/39/39
f 40/40/40 42/42/42 38/38/38
f 42/42/42 43/43/43 39/39/39
f 44/44/44 40/40/40 41/41/41
f 40/40/40 44/44/44 42/42/42
f 44/44/44 41/41/41 45/45/45
f 42/42/42 46/46/46 43/43/43
f 44/44/44 46/46/46 42/42/42
f 46/46/46 47/47/47 43/43/43
f 46/46/46 48/48/48 47/47/47
f 49/49/49 44/44/44 45/45/45
f 44/44/44 49/49/49 46/46/46
f 48/48/48 46/46/46 49/49/49
f 49/49/49 45/45/45 50/50/50
f 48/48/48 49/49/49 51/51/51
f 50/50/50 51/51/51 49/49/49
f 50/50/50 52/52/52 51/51/51
f 55/55/55 54/54/54 53/53/53
f 56/56/56 55/55/55 53/53/53
f 55/55/55 57/57/57 54/54/54
f 58/58/58 54/54/54 57/57/57
f 56/56/56 59/59/59 55/55/55
f 56/56/56 60/60/60 59/59/59
f 56/56/56 61/61/61 60/60/60
f 60/60/60 61/61/61 62/62/62
f 60/60/60 62/62/62 63/63/63
f 60/60/60 63/63/63 64/64/64
f 65/65/65 55/55/55 59/59/59
f 60/60/60 66/66/66 59/59/59
f 65/65/65 59/59/59 66/66/66
f 60/60/60 64/64/64 67/67/67
f 60/60/60 67/67/67 66/66/66
f 64/64/64 68/68/68 67/67/67
f 64/64/64 69/69/69 68/68/68
f 70/70/70 68/68/68 69/69/69
f 71/71/71 66/66/66 67/67/67
f 71/71/71 67/67/67 68/68/68
f 70/70/70 72/72/72 68/68/68
f 73/73/73 72/72/72 70/70/70
f 73/73/73 74/74/74 72/72/72
f 68/68/68 72/72/72 75/75/75
f 75/75/75 72/72/72 74/74/74
f 68/68/68 75/75/75 71/71/71
f 75/75/75 74/74/74 76/76/76
f 75/75/75 76/76/76 77/77/77
f 66/66/66 71/71/71 78/78/78
f 66/66/66 78/78/78 65/65/65
f 71/71/71 75/75/75 79/79/79
f 75/75/75 77/77/77 79/79/79
f 71/71/71 79/79/79 78/78/78
f 77/77/77 80/80/80 79/79/79
f 80/80/80 78/78/78 79/79/79
f 77/77/77 81/81/81 80/80/80
f 80/80/80 81/81/81 82/82/82
f 65/65/65 78/78/78 83/83/83
f 80/80/80 83/83/83 78/78/78
f 80/80/80 82/82/82 84/84/84
f 83/83/83 80/80/80 84/84/84
f 85/85/85 84/84/84 82/82/82
f 65/65/65 83/83/83 86/86/86
f 55/55/55 65/65/65 86/86/86
f 55/55/55 86/86/86 57/57/57
f 83/83/83 84/84/84 87/87/87
f 87/87/87 86/86/86 83/83/83
f 85/85/85 88/88/88 84/84/84
f 88/88/88 87/87/87 84/84/84
f 57/57/57 86/86/86 89/89/89
f 87/87/87 89/89/89 86/86/86
f 90/90/90 88/88/88 85/85/85
f 90/90/90 85/85/85 91/91/91
f 88/88/88 92/92/92 87/87/87
f 92/92/92 89/89/89 87/87/87
f 57/57/57 89/89/89 93/93/93
f 58/58/58 57/57/57 93/93/93
f 94/94/94 93/93/93 89/89/89
f 92/92/92 94/94/94 89/89/89
f 58/58/58 93/93/93 95/95/95
f 94/94/94 95/95/95 93/93/93
f 58/58/58 95/95/95 96/96/96
f 95/95/95 97/97/97 96/96/96
f 98/98/98 92/92/92 88/88/88
f 98/98/98 88/88/88 90/90/90
f 99/99/99 90/90/90 91/91/91
f 99/99/99 91/91/91 100/100/100
f 99/99/99 100/100/100 101/101/101
f 94/94/94 102/102/102 95/95/95
f 95/95/95 102/102/102 97/97/97
f 92/92/92 103/103/103 94/94/94
f 94/94/94 103/103/103 102/102/102
f 92/92/92 98/98/98 103/103/103
f 104/104/104 97/97/97 102/102/102
f 103/103/103 104/104/104 102/102/102
f 104/104/104 105/105/105 97/97/97
f 106/106/106 98/98/98 90/90/90
f 106/106/106 90/90/90 99/99/99
f 98/98/98 107/107/107 103/103/103
f 103/103/103 107/107/107 104/104/104
f 98/98/98 106/106/106 107/107/107
f 105/105/105 104/104/104 108/108/108
f 108/108/108 104/104/104 107/107/107
f 105/105/105 108/108/108 109/109/109
f 108/108/108 110/110/110 109/109/109
f 106/106/106 111/111/111 107/107/107
f 108/108/108 107/107/107 111/111/111
f 99/99/99 112/112/112 106/106/106
f 106/106/106 112/112/112 111/111/111
f 108/108/108 113/113/113 110/110/110
f 111/111/111 113/113/113 108/108/108
f 114/114/114 110/110/110 113/113/113
f 114/114/114 115/115/115 110/110/110
f 116/116/116 115/115/115 114/114/114
f 116/116/116 114/114/114 117/117/117
f 118/118/118 117/117/117 114/114/114
f 111/111/111 119/119/119 113/113/113
f 119/119/119 114/114/114 113/113/113
f 119/119/119 111/111/111 112/112/112
f 99/99/99 120/120/120 112/112/112
f 99/99/99 101/101/101 120/120/120
f 118/118/118 114/114/114 121/121/121
f 119/119/119 121/121/121 114/114/114
f 119/119/119 112/112/112 122/122/122
f 120/120/120 122/122/122 112/112/112
f 122/122/122 121/121/121 119/119/119
f 101/101/101 123/123/123 120/120/120
f 120/120/120 123/123/123 122/122/122
f 101/101/101 124/124/124 123/123/123
f 125/125/125 123/123/123 124/124/124
f 126/126/126 118/118/118 121/121/121
f 122/122/122 126/126/126 121/121/121
f 126/126/126 122/122/122 123/123/123
f 126/126/126 127/127/127 118/118/118
f 126/126/126 128/128/128 127/127/127
f 125/125/125 129/129/129 123/123/123
f 126/126/126 123/123/123 129/129/129
f 126/126/126 129/129/129 128/128/128
f 129/129/129 125/125/125 130/130/130
f 129/129/129 130/130/130 128/128/128
