g ENV_FLR_Lava
v -0.0029144287 0.0029144287 0.0029144287
v 192.84279 0.0029144287 -0.0029754639
v 192.61327 0.0029144287 9.460403
v 191.91293 0.0029144287 18.900238
v 192.60738 0.0029144287 -9.4604645
v 190.75356 0.0029144287 28.293
v 191.91293 0.0029144287 -18.9003
v 189.13512 0.0029144287 37.621002
v 190.75356 0.0029144287 -28.293045
v -0.0029144287 0.0029144287 0.0029144287
v 187.06354 0.0029144287 46.85486
v 189.13512 0.0029144287 -37.621063
v 184.53879 0.0029144287 55.9769
v 187.06354 0.0029144287 -46.85492
v -189.13506 0.0029144287 -37.621063
v -190.7535 0.0029144287 -28.293045
v -187.06349 0.0029144287 -46.85492
v -191.91286 0.0029144287 -18.9003
v -184.53874 0.0029144287 -55.97696
v -192.6132 0.0029144287 -9.4604645
v -192.84273 0.0029144287 -0.0029754639
v -192.6132 0.0029144287 9.460403
v -191.91286 0.0029144287 18.900238
v -190.7535 0.0029144287 28.293
v -189.13506 0.0029144287 37.621002
v -187.06349 0.0029144287 46.85486
v 184.53879 0.0029144287 -55.97696
v -181.57262 0.0029144287 -64.96951
v -184.53874 0.0029144287 55.9769
v -0.0029144287 0.0029144287 0.0029144287
v 181.57266 0.0029144287 -64.96951
v -178.16508 0.0029144287 -73.797295
v -181.57262 0.0029144287 64.96947
v 178.16515 0.0029144287 -73.797295
v -174.32796 0.0029144287 -82.44851
v -178.16508 0.0029144287 73.797226
v 174.328 0.0029144287 -82.44851
v -170.07295 0.0029144287 -90.90552
v -174.32796 0.0029144287 82.44844
v 170.07301 0.0029144287 -90.90552
v -165.40599 0.0029144287 -99.13889
v -170.07295 0.0029144287 90.90547
v 165.40607 0.0029144287 -99.13889
v -160.34474 0.0029144287 -107.136856
v -165.40599 0.0029144287 99.13884
v 160.3448 0.0029144287 -107.136856
v -154.89507 0.0029144287 -114.87588
v -160.34474 0.0029144287 107.136795
v 154.89513 0.0029144287 -114.87588
v -0.0029144287 0.0029144287 0.0029144287
v 149.06879 0.0029144287 -122.33829
v 142.88934 0.0029144287 -129.50644
v 136.36267 0.0029144287 -136.36267
v 129.50644 0.0029144287 -142.88934
v 122.33829 0.0029144287 -149.06879
v 114.87588 0.0029144287 -154.89513
v 107.136856 0.0029144287 -160.3448
v 99.13889 0.0029144287 -165.40607
v 90.90552 0.0029144287 -170.07301
v 82.44851 0.0029144287 -174.328
v 73.797295 0.0029144287 -178.16515
v 64.96951 0.0029144287 -181.57266
v -0.0029144287 0.0029144287 0.0029144287
v 55.97696 0.0029144287 -184.53879
v 46.85492 0.0029144287 -187.06354
v 37.621063 0.0029144287 -189.13512
v 28.293045 0.0029144287 -190.75356
v 18.9003 0.0029144287 -191.91293
v 9.4604645 0.0029144287 -192.60738
v 0.0029754639 0.0029144287 -192.84279
v -9.460403 0.0029144287 -192.60738
v -18.900238 0.0029144287 -191.91293
v -28.293 0.0029144287 -190.75356
v -37.621002 0.0029144287 -189.13512
v -46.85486 0.0029144287 -187.06354
v -55.9769 0.0029144287 -184.53879
v -64.96947 0.0029144287 -181.57266
v -73.797226 0.0029144287 -178.16515
v -82.44844 0.0029144287 -174.328
v -90.90547 0.0029144287 -170.07301
v -99.13884 0.0029144287 -165.40607
v -107.136795 0.0029144287 -160.3448
v -114.87581 0.0029144287 -154.89513
v -122.33824 0.0029144287 -149.06879
v -129.5064 0.0029144287 -142.88934
v -136.36263 0.0029144287 -136.36267
v -142.8893 0.0029144287 -129.50644
v -149.06874 0.0029144287 -122.33829
v -154.89507 0.0029144287 114.87581
v -149.06874 0.0029144287 122.33824
v -142.8893 0.0029144287 129.5064
v -136.36263 0.0029144287 136.36263
v -129.5064 0.0029144287 142.8893
v -122.33824 0.0029144287 149.06874
v -114.87581 0.0029144287 154.89507
v -107.136795 0.0029144287 160.34474
v -99.13884 0.0029144287 165.40599
v -90.90547 0.0029144287 170.07295
v -82.44844 0.0029144287 174.32796
v -73.797226 0.0029144287 178.16508
v 149.06879 0.0029144287 122.33824
v 154.89513 0.0029144287 114.87581
v 142.88934 0.0029144287 129.5064
v 160.3448 0.0029144287 107.136795
v 136.36267 0.0029144287 136.36263
v 165.40607 0.0029144287 99.13884
v 129.50644 0.0029144287 142.8893
v 170.07301 0.0029144287 90.90547
v 122.33829 0.0029144287 149.06874
v 114.87588 0.0029144287 154.89507
v 107.136856 0.0029144287 160.34474
v 99.13889 0.0029144287 165.40599
v 90.90552 0.0029144287 170.07295
v 174.328 0.0029144287 82.44844
v 178.16515 0.0029144287 73.797226
v 181.57266 0.0029144287 64.96947
v 82.44851 0.0029144287 174.32796
v 73.797295 0.0029144287 178.16508
v 64.96951 0.0029144287 181.57262
v 55.97696 0.0029144287 184.53874
v 46.85492 0.0029144287 187.06349
v 37.621063 0.0029144287 189.13506
v 28.293045 0.0029144287 190.7535
v 18.9003 0.0029144287 191.91286
v 9.4604645 0.0029144287 192.6132
v -0.0029144287 0.0029144287 192.84273
v -9.460403 0.0029144287 192.6132
v -18.900238 0.0029144287 191.91286
v -28.298874 0.0029144287 190.7535
v -37.621002 0.0029144287 189.13506
v -46.85486 0.0029144287 187.06349
v -55.9769 0.0029144287 184.53874
v -64.96947 0.0029144287 181.57262
vt 0.4995114 0.5004886
vt 0.70277363 0.9568515
vt 0.72524977 0.9470793
vt 0.7467487 0.9353526
vt 0.68029755 0.9666237
vt 0.7672703 0.9226487
vt 0.6568442 0.9744415
vt 0.787792 0.9089676
vt 0.63339084 0.9822593
vt 0.4995114 0.5004886
vt 0.80733645 0.8943093
vt 0.6099375 0.98812264
vt 0.82688093 0.87867373
vt 0.585507 0.99300873
vt 0.21220797 0.09103238
vt 0.23272964 0.077351265
vt 0.19266352 0.10569072
vt 0.2532513 0.06464737
vt 0.17311908 0.121326275
vt 0.2747502 0.052920703
vt 0.2972263 0.043148477
vt 0.31970245 0.033376254
vt 0.34315577 0.025558475
vt 0.36660913 0.017740695
vt 0.39006245 0.011877359
vt 0.41449302 0.0069912467
vt 0.5610764 0.9959404
vt 0.15552907 0.13793907
vt 0.43892357 0.004059579
vt 0.4995114 0.5004886
vt 0.5366458 0.9988721
vt 0.13793907 0.15552907
vt 0.46335414 0.0011279116
vt 0.51221526 0.9998493
vt 0.121326275 0.17311908
vt 0.4877847 0.00015068917
vt 0.4877847 0.9998493
vt 0.10569072 0.19266352
vt 0.51221526 0.00015068917
vt 0.46335414 0.9988721
vt 0.09103238 0.21220797
vt 0.5366458 0.0011279116
vt 0.43892357 0.9959404
vt 0.077351265 0.23272964
vt 0.5610764 0.004059579
vt 0.41449302 0.99300873
vt 0.06464737 0.2532513
vt 0.585507 0.0069912467
vt 0.39006245 0.98812264
vt 0.4995114 0.5004886
vt 0.36660913 0.9822593
vt 0.34315577 0.9744415
vt 0.31970245 0.9666237
vt 0.2972263 0.9568515
vt 0.2747502 0.9470793
vt 0.2532513 0.9353526
vt 0.23272964 0.9226487
vt 0.21220797 0.9089676
vt 0.19266352 0.8943093
vt 0.17311908 0.87867373
vt 0.15552907 0.8620609
vt 0.13793907 0.8444709
vt 0.4995114 0.5004886
vt 0.121326275 0.82688093
vt 0.10569072 0.80733645
vt 0.09103238 0.787792
vt 0.077351265 0.7672703
vt 0.06464737 0.7467487
vt 0.052920703 0.72524977
vt 0.043148477 0.70277363
vt 0.033376254 0.68029755
vt 0.025558475 0.6568442
vt 0.017740695 0.63339084
vt 0.011877359 0.6099375
vt 0.0069912467 0.585507
vt 0.004059579 0.5610764
vt 0.0011279116 0.5366458
vt 0.00015068917 0.51221526
vt 0.00015068917 0.4877847
vt 0.0011279116 0.46335414
vt 0.004059579 0.43892357
vt 0.0069912467 0.41449302
vt 0.011877359 0.39006245
vt 0.017740695 0.36660913
vt 0.025558475 0.34315577
vt 0.033376254 0.31970245
vt 0.043148477 0.2972263
vt 0.052920703 0.2747502
vt 0.6099375 0.011877359
vt 0.63339084 0.017740695
vt 0.6568442 0.025558475
vt 0.68029755 0.033376254
vt 0.70277363 0.043148477
vt 0.72524977 0.052920703
vt 0.7467487 0.06464737
vt 0.7672703 0.077351265
vt 0.787792 0.09103238
vt 0.80733645 0.10569072
vt 0.82688093 0.121326275
vt 0.8444709 0.13793907
vt 0.9470793 0.72524977
vt 0.9353526 0.7467487
vt 0.9568515 0.70277363
vt 0.9226487 0.7672703
vt 0.9666237 0.68029755
vt 0.9089676 0.787792
vt 0.9744415 0.6568442
vt 0.8943093 0.80733645
vt 0.9822593 0.63339084
vt 0.98812264 0.6099375
vt 0.99300873 0.585507
vt 0.9959404 0.5610764
vt 0.9988721 0.5366458
vt 0.87867373 0.82688093
vt 0.8620609 0.8444709
vt 0.8444709 0.8620609
vt 0.9998493 0.51221526
vt 0.9998493 0.4877847
vt 0.9988721 0.46335414
vt 0.9959404 0.43892357
vt 0.99300873 0.41449302
vt 0.98812264 0.39006245
vt 0.9822593 0.36660913
vt 0.9744415 0.34315577
vt 0.9666237 0.31970245
vt 0.9568515 0.2972263
vt 0.9470793 0.2747502
vt 0.9353526 0.2532513
vt 0.9226487 0.23272964
vt 0.9089676 0.21220797
vt 0.8943093 0.19266352
vt 0.87867373 0.17311908
vt 0.8620609 0.15552907
vn -0 1 -0
vn -0 1 -0
vn -0 1 -0
vn -0 1 -0
vn -0 1 -0
vn -0 1 -0
vn -0 1 -0
vn -0 1 -0
vn -0 1 -0
vn -0 1 -0
vn -0 1 -0
vn -0 1 -0
vn -0 1 -0
vn -0 1 -0
vn -0 1 -0
vn -0 1 -0
vn -0 1 -0
vn -0 1 -0
vn -0 1 -0
vn -0 1 -0
vn -0 1 -0
vn -0 1 -0
vn -0 1 -0
vn -0 1 -0
vn -0 1 -0
vn -0 1 -0
vn -0 1 -0
vn -0 1 -0
vn -0 1 -0
vn -0 1 -0
vn -0 1 -0
vn -0 1 -0
vn -0 1 -0
vn -0 1 -0
vn -0 1 -0
vn -0 1 -0
vn -0 1 -0
vn -0 1 -0
vn -0 1 -0
vn -0 1 -0
vn -0 1 -0
vn -0 1 -0
vn -0 1 -0
vn -0 1 -0
vn -0 1 -0
vn -0 1 -0
vn -0 1 -0
vn -0 1 -0
vn -0 1 -0
vn -0 1 -0
vn -0 1 -0
vn -0 1 -0
vn -0 1 -0
vn -0 1 -0
vn -0 1 -0
vn -0 1 -0
vn -0 1 -0
vn -0 1 -0
vn -0 1 -0
vn -0 1 -0
vn -0 1 -0
vn -0 1 -0
vn -0 1 -0
vn -0 1 -0
vn -0 1 -0
vn -0 1 -0
vn -0 1 -0
vn -0 1 -0
vn -0 1 -0
vn -0 1 -0
vn -0 1 -0
vn -0 1 -0
vn -0 1 -0
vn -0 1 -0
vn -0 1 -0
vn -0 1 -0
vn -0 1 -0
vn -0 1 -0
vn -0 1 -0
vn -0 1 -0
vn -0 1 -0
vn -0 1 -0
vn -0 1 -0
vn -0 1 -0
vn -0 1 -0
vn -0 1 -0
vn -0 1 -0
vn -0 1 -0
vn -0 1 -0
vn -0 1 -0
vn -0 1 -0
vn -0 1 -0
vn -0 1 -0
vn -0 1 -0
vn -0 1 -0
vn -0 1 -0
vn -0 1 -0
vn -0 1 -0
vn -0 1 -0
vn -0 1 -0
vn -0 1 -0
vn -0 1 -0
vn -0 1 -0
vn -0 1 -0
vn -0 1 -0
vn -0 1 -0
vn -0 1 -0
vn -0 1 -0
vn -0 1 -0
vn -0 1 -0
vn -0 1 -0
vn -0 1 -0
vn -0 1 -0
vn -0 1 -0
vn -0 1 -0
vn -0 1 -0
vn -0 1 -0
vn -0 1 -0
vn -0 1 -0
vn -0 1 -0
vn -0 1 -0
vn -0 1 -0
vn -0 1 -0
vn -0 1 -0
vn -0 1 -0
vn -0 1 -0
vn -0 1 -0
vn -0 1 -0
vn -0 1 -0
vn -0 1 -0
vn -0 1 -0
vn -0 1 -0
vn -0 1 -0
g ENV_FLR_Lava_0
f 3/3/3 2/2/2 1/1/1
f 4/4/4 3/3/3 1/1/1
f 2/2/2 5/5/5 1/1/1
f 6/6/6 4/4/4 1/1/1
f 5/5/5 7/7/7 1/1/1
f 8/8/8 6/6/6 1/1/1
f 7/7/7 9/9/9 1/1/1
f 10/10/10 8/8/8 1/1/1
f 1/1/1 9/9/9 10/10/10
f 11/11/11 8/8/8 10/10/10
f 9/9/9 12/12/12 10/10/10
f 13/13/13 11/11/11 10/10/10
f 12/12/12 14/14/14 10/10/10
f 10/10/10 15/15/15 1/1/1
f 15/15/15 16/16/16 1/1/1
f 17/17/17 15/15/15 10/10/10
f 16/16/16 18/18/18 1/1/1
f 19/19/19 17/17/17 10/10/10
f 18/18/18 20/20/20 1/1/1
f 20/20/20 21/21/21 1/1/1
f 21/21/21 22/22/22 1/1/1
f 22/22/22 23/23/23 1/1/1
f 23/23/23 24/24/24 1/1/1
f 1/1/1 24/24/24 10/10/10
f 24/24/24 25/25/25 10/10/10
f 25/25/25 26/26/26 10/10/10
f 14/14/14 27/27/27 10/10/10
f 28/28/28 19/19/19 10/10/10
f 26/26/26 29/29/29 10/10/10
f 10/10/10 27/27/27 30/30/30
f 30/30/30 28/28/28 10/10/10
f 10/10/10 29/29/29 30/30/30
f 27/27/27 31/31/31 30/30/30
f 32/32/32 28/28/28 30/30/30
f 29/29/29 33/33/33 30/30/30
f 31/31/31 34/34/34 30/30/30
f 35/35/35 32/32/32 30/30/30
f 33/33/33 36/36/36 30/30/30
f 34/34/34 37/37/37 30/30/30
f 38/38/38 35/35/35 30/30/30
f 36/36/36 39/39/39 30/30/30
f 37/37/37 40/40/40 30/30/30
f 41/41/41 38/38/38 30/30/30
f 39/39/39 42/42/42 30/30/30
f 40/40/40 43/43/43 30/30/30
f 44/44/44 41/41/41 30/30/30
f 42/42/42 45/45/45 30/30/30
f 43/43/43 46/46/46 30/30/30
f 47/47/47 44/44/44 30/30/30
f 45/45/45 48/48/48 30/30/30
f 46/46/46 49/49/49 30/30/30
f 30/30/30 49/49/49 50/50/50
f 49/49/49 51/51/51 50/50/50
f 51/51/51 52/52/52 50/50/50
f 52/52/52 53/53/53 50/50/50
f 53/53/53 54/54/54 50/50/50
f 54/54/54 55/55/55 50/50/50
f 55/55/55 56/56/56 50/50/50
f 56/56/56 57/57/57 50/50/50
f 57/57/57 58/58/58 50/50/50
f 58/58/58 59/59/59 50/50/50
f 59/59/59 60/60/60 50/50/50
f 60/60/60 61/61/61 50/50/50
f 61/61/61 62/62/62 50/50/50
f 50/50/50 62/62/62 63/63/63
f 62/62/62 64/64/64 63/63/63
f 64/64/64 65/65/65 63/63/63
f 65/65/65 66/66/66 63/63/63
f 66/66/66 67/67/67 63/63/63
f 67/67/67 68/68/68 63/63/63
f 68/68/68 69/69/69 63/63/63
f 69/69/69 70/70/70 63/63/63
f 70/70/70 71/71/71 63/63/63
f 71/71/71 72/72/72 63/63/63
f 72/72/72 73/73/73 63/63/63
f 73/73/73 74/74/74 63/63/63
f 74/74/74 75/75/75 63/63/63
f 75/75/75 76/76/76 63/63/63
f 63/63/63 76/76/76 50/50/50
f 76/76/76 77/77/77 50/50/50
f 77/77/77 78/78/78 50/50/50
f 78/78/78 79/79/79 50/50/50
f 79/79/79 80/80/80 50/50/50
f 80/80/80 81/81/81 50/50/50
f 81/81/81 82/82/82 50/50/50
f 82/82/82 83/83/83 50/50/50
f 83/83/83 84/84/84 50/50/50
f 84/84/84 85/85/85 50/50/50
f 85/85/85 86/86/86 50/50/50
f 86/86/86 87/87/87 50/50/50
f 87/87/87 88/88/88 50/50/50
f 50/50/50 88/88/88 30/30/30
f 88/88/88 47/47/47 30/30/30
f 30/30/30 89/89/89 50/50/50
f 48/48/48 89/89/89 30/30/30
f 89/89/89 90/90/90 50/50/50
f 90/90/90 91/91/91 50/50/50
f 91/91/91 92/92/92 50/50/50
f 92/92/92 93/93/93 50/50/50
f 93/93/93 94/94/94 50/50/50
f 94/94/94 95/95/95 50/50/50
f 95/95/95 96/96/96 50/50/50
f 96/96/96 97/97/97 50/50/50
f 97/97/97 98/98/98 50/50/50
f 98/98/98 99/99/99 50/50/50
f 99/99/99 100/100/100 50/50/50
f 50/50/50 101/101/101 30/30/30
f 101/101/101 102/102/102 30/30/30
f 103/103/103 101/101/101 50/50/50
f 102/102/102 104/104/104 30/30/30
f 105/105/105 103/103/103 50/50/50
f 104/104/104 106/106/106 30/30/30
f 107/107/107 105/105/105 50/50/50
f 106/106/106 108/108/108 30/30/30
f 109/109/109 107/107/107 50/50/50
f 110/110/110 109/109/109 50/50/50
f 111/111/111 110/110/110 50/50/50
f 112/112/112 111/111/111 50/50/50
f 113/113/113 112/112/112 50/50/50
f 108/108/108 114/114/114 30/30/30
f 114/114/114 115/115/115 30/30/30
f 115/115/115 116/116/116 30/30/30
f 30/30/30 116/116/116 10/10/10
f 116/116/116 13/13/13 10/10/10
f 117/117/117 113/113/113 50/50/50
f 118/118/118 117/117/117 50/50/50
f 119/119/119 118/118/118 50/50/50
f 120/120/120 119/119/119 50/50/50
f 63/63/63 120/120/120 50/50/50
f 121/121/121 120/120/120 63/63/63
f 122/122/122 121/121/121 63/63/63
f 123/123/123 122/122/122 63/63/63
f 124/124/124 123/123/123 63/63/63
f 125/125/125 124/124/124 63/63/63
f 126/126/126 125/125/125 63/63/63
f 127/127/127 126/126/126 63/63/63
f 128/128/128 127/127/127 63/63/63
f 129/129/129 128/128/128 63/63/63
f 130/130/130 129/129/129 63/63/63
f 131/131/131 130/130/130 63/63/63
f 132/132/132 131/131/131 63/63/63
f 133/133/133 132/132/132 63/63/63
f 50/50/50 133/133/133 63/63/63
f 100/100/100 133/133/133 50/50/50
