g ENV_S01_G5_SlipperyRamp1_MO
v 10.791367 3.9164524 -22.154099
v 10.170673 3.0389462 -23.72681
v 10.791367 3.9164524 -23.726088
v 10.170673 3.0389462 -22.154821
v 10.791367 3.9164524 -20.517727
v 9.663557 2.489872 -22.154821
v 9.663557 2.489872 -23.72681
v 10.170673 3.0389462 -20.51845
v 10.791367 3.9164524 -16.925955
v 9.663557 2.489872 -20.51845
v 9.663557 2.489872 -16.926678
v 10.170673 3.0389462 -16.926678
v 10.791367 3.9164524 -12.601359
v 10.170673 3.0389462 -12.602082
v 10.791367 3.9164524 -6.2649364
v 8.998012 2.0087986 -22.154821
v 8.998012 2.0087986 -23.72681
v 8.998012 2.0087986 -20.51845
v 8.24855 1.6753025 -22.154821
v 8.24855 1.6753025 -23.72681
v 10.170673 3.0389462 -6.2656612
v 10.791367 3.9164524 3.3673782
v 8.24855 1.6753025 -20.51845
v 7.4455566 1.5053005 -22.154821
v 7.4455566 1.5053005 -23.72681
v 6.601326 1.487215 -22.154821
v 6.601326 1.487215 -23.72681
v 6.601326 1.487215 -20.51845
v 7.4455566 1.5053005 -20.51845
v 6.601326 1.487215 -16.926678
v 7.4455566 1.5053005 -16.926678
v 6.601326 1.487215 -12.602082
v 8.24855 1.6753025 -16.926678
v 7.4455566 1.5053005 -12.602082
v 6.601326 1.487215 -6.2656612
v 8.998012 2.0087986 -16.926678
v 8.24855 1.6753025 -12.602082
v 7.4455566 1.5053005 -6.2656612
v 6.601326 1.487215 3.3659325
v 8.998012 2.0087986 -12.602082
v 8.24855 1.6753025 -6.2656612
v 7.4455566 1.5053005 3.3659325
v 6.601326 1.487215 10.083595
v 9.663557 2.489872 -12.602082
v 8.998012 2.0087986 -6.2656612
v 9.663557 2.489872 -6.2656612
v 8.24855 1.6753025 3.3659325
v 7.4455566 1.5053005 10.083595
v 6.601326 1.487215 15.359486
v 8.998012 2.0087986 3.3659325
v 9.663557 2.489872 3.3659325
v 8.24855 1.6753025 10.083595
v 7.4455566 1.5053005 15.359486
v 6.601326 1.487215 20.573887
v 8.998012 2.0087986 10.083595
v 10.170673 3.0389462 3.3659325
v 10.791367 3.9164524 10.085041
v 8.24855 1.6753025 15.359486
v 7.4455566 1.5053005 20.573887
v 6.601326 1.487215 22.14949
v 9.663557 2.489872 10.083595
v 10.170673 3.0389462 10.083595
v 10.791367 3.9164524 15.36021
v 7.4455566 1.5053005 22.14949
v 6.601326 1.487215 23.68169
v 7.4455566 1.5053005 23.68169
v 8.24855 1.6753025 20.573887
v 8.24855 1.6753025 22.14949
v 8.24855 1.6753025 23.68169
v 8.998012 2.0087986 15.359486
v 9.663557 2.489872 15.359486
v 10.170673 3.0389462 15.359486
v 10.791367 3.9164524 20.574608
v 10.170673 3.0389462 20.573887
v 10.791367 3.9164524 22.150215
v 8.998012 2.0087986 20.573887
v 8.998012 2.0087986 22.14949
v 8.998012 2.0087986 23.68169
v 9.663557 2.489872 20.573887
v 9.663557 2.489872 22.14949
v 9.663557 2.489872 23.68169
v 10.170673 3.0389462 22.14949
v 10.170673 3.0389462 23.68169
v 10.791367 3.9164524 23.682415
vt 0.06409362 0.1543655
vt 0.08043595 0.13024113
vt 0.06409362 0.13024113
vt 0.08043595 0.1543655
vt 0.06409362 0.17926809
vt 0.09210903 0.1543655
vt 0.09210903 0.13024113
vt 0.081214145 0.17926809
vt 0.064871825 0.2345207
vt 0.09210903 0.17926809
vt 0.09288724 0.2345207
vt 0.081214145 0.2345207
vt 0.064871825 0.30144638
vt 0.081214145 0.30144638
vt 0.064871825 0.3987221
vt 0.10456032 0.1543655
vt 0.10456032 0.13024113
vt 0.10533853 0.17926809
vt 0.11778982 0.1543655
vt 0.11778982 0.13024113
vt 0.08199236 0.3987221
vt 0.06565003 0.54735947
vt 0.11778982 0.17926809
vt 0.13024113 0.1543655
vt 0.13024113 0.12946291
vt 0.14347062 0.1543655
vt 0.14269242 0.12946291
vt 0.14347062 0.17926809
vt 0.13024113 0.17926809
vt 0.14347062 0.2345207
vt 0.13024113 0.2345207
vt 0.14347062 0.30144638
vt 0.11778982 0.2345207
vt 0.13101932 0.30144638
vt 0.14424881 0.3987221
vt 0.10533853 0.2345207
vt 0.11778982 0.30144638
vt 0.13101932 0.3987221
vt 0.14502703 0.54735947
vt 0.10533853 0.30144638
vt 0.11856803 0.3987221
vt 0.13179752 0.54735947
vt 0.14502703 0.6508608
vt 0.09288724 0.30144638
vt 0.106116734 0.3987221
vt 0.09288724 0.3987221
vt 0.11934623 0.54735947
vt 0.13179752 0.6508608
vt 0.14502703 0.73179424
vt 0.106116734 0.54735947
vt 0.09366544 0.54735947
vt 0.11934623 0.6508608
vt 0.13257574 0.73179424
vt 0.14580524 0.8119494
vt 0.10689494 0.6508608
vt 0.08199236 0.54735947
vt 0.06642824 0.6508608
vt 0.120124444 0.73179424
vt 0.13257574 0.8119494
vt 0.14580524 0.83607376
vt 0.09444365 0.6508608
vt 0.082770556 0.6508608
vt 0.06642824 0.73179424
vt 0.13257574 0.83607376
vt 0.14580524 0.86019814
vt 0.13257574 0.86019814
vt 0.120124444 0.8119494
vt 0.120124444 0.83607376
vt 0.120124444 0.86019814
vt 0.10689494 0.73179424
vt 0.09444365 0.73179424
vt 0.082770556 0.73179424
vt 0.06642824 0.8127276
vt 0.08354877 0.8119494
vt 0.06720644 0.83685195
vt 0.107673146 0.8119494
vt 0.107673146 0.83607376
vt 0.107673146 0.86019814
vt 0.09444365 0.8119494
vt 0.095221855 0.83685195
vt 0.095221855 0.86019814
vt 0.08354877 0.83685195
vt 0.08354877 0.86019814
vt 0.06720644 0.86019814
vn -0.5 0.86602545 -0
vn -0.5 0.86602545 -0
vn -0.5 0.86602545 -0
vn -0.5 0.86602545 -0
vn -0.5 0.86602545 -0
vn -0.5 0.86602545 -0
vn -0.5 0.86602545 -0
vn -0.5 0.86602545 -0
vn -0.5 0.86602545 -0
vn -0.5 0.86602545 -0
vn -0.5 0.86602545 -0
vn -0.5 0.86602545 -0
vn -0.5 0.86602545 -0
vn -0.5 0.86602545 -0
vn -0.5 0.86602545 -0
vn -0.5 0.86602545 -0
vn -0.5 0.86602545 -0
vn -0.5 0.86602545 -0
vn -0.5 0.86602545 -0
vn -0.5 0.86602545 -0
vn -0.5 0.86602545 -0
vn -0.5 0.86602545 -0
vn -0.5 0.86602545 -0
vn -0.5 0.86602545 -0
vn -0.5 0.86602545 -0
vn -0.5 0.86602545 -0
vn -0.5 0.86602545 -0
vn -0.5 0.86602545 -0
vn -0.5 0.86602545 -0
vn -0.5 0.86602545 -0
vn -0.5 0.86602545 -0
vn -0.5 0.86602545 -0
vn -0.5 0.86602545 -0
vn -0.5 0.86602545 -0
vn -0.5 0.86602545 -0
vn -0.5 0.86602545 -0
vn -0.5 0.86602545 -0
vn -0.5 0.86602545 -0
vn -0.5 0.86602545 -0
vn -0.5 0.86602545 -0
vn -0.5 0.86602545 -0
vn -0.5 0.86602545 -0
vn -0.5 0.86602545 -0
vn -0.5 0.86602545 -0
vn -0.5 0.86602545 -0
vn -0.5 0.86602545 -0
vn -0.5 0.86602545 -0
vn -0.5 0.86602545 -0
vn -0.5 0.86602545 -0
vn -0.5 0.86602545 -0
vn -0.5 0.86602545 -0
vn -0.5 0.86602545 -0
vn -0.5 0.86602545 -0
vn -0.5 0.86602545 -0
vn -0.5 0.86602545 -0
vn -0.5 0.86602545 -0
vn -0.5 0.86602545 -0
vn -0.5 0.86602545 -0
vn -0.5 0.86602545 -0
vn -0.5 0.86602545 -0
vn -0.5 0.86602545 -0
vn -0.5 0.86602545 -0
vn -0.5 0.86602545 -0
vn -0.5 0.86602545 -0
vn -0.5 0.86602545 -0
vn -0.5 0.86602545 -0
vn -0.5 0.86602545 -0
vn -0.5 0.86602545 -0
vn -0.5 0.86602545 -0
vn -0.5 0.86602545 -0
vn -0.5 0.86602545 -0
vn -0.5 0.86602545 -0
vn -0.5 0.86602545 -0
vn -0.5 0.86602545 -0
vn -0.5 0.86602545 -0
vn -0.5 0.86602545 -0
vn -0.5 0.86602545 -0
vn -0.5 0.86602545 -0
vn -0.5 0.86602545 -0
vn -0.5 0.86602545 -0
vn -0.5 0.86602545 -0
vn -0.5 0.86602545 -0
vn -0.5 0.86602545 -0
vn -0.5 0.86602545 -0
g ENV_S01_G5_SlipperyRamp1_MO_0
f 3/3/3 2/2/2 1/1/1
f 2/2/2 4/4/4 1/1/1
f 1/1/1 4/4/4 5/5/5
f 6/6/6 4/4/4 2/2/2
f 7/7/7 6/6/6 2/2/2
f 4/4/4 8/8/8 5/5/5
f 5/5/5 8/8/8 9/9/9
f 6/6/6 10/10/10 4/4/4
f 10/10/10 8/8/8 4/4/4
f 10/10/10 11/11/11 8/8/8
f 8/8/8 12/12/12 9/9/9
f 11/11/11 12/12/12 8/8/8
f 9/9/9 12/12/12 13/13/13
f 12/12/12 14/14/14 13/13/13
f 14/14/14 12/12/12 11/11/11
f 13/13/13 14/14/14 15/15/15
f 16/16/16 6/6/6 7/7/7
f 17/17/17 16/16/16 7/7/7
f 10/10/10 6/6/6 18/18/18
f 10/10/10 18/18/18 11/11/11
f 6/6/6 16/16/16 18/18/18
f 19/19/19 16/16/16 17/17/17
f 20/20/20 19/19/19 17/17/17
f 14/14/14 21/21/21 15/15/15
f 15/15/15 21/21/21 22/22/22
f 18/18/18 16/16/16 23/23/23
f 16/16/16 19/19/19 23/23/23
f 24/24/24 19/19/19 20/20/20
f 25/25/25 24/24/24 20/20/20
f 26/26/26 24/24/24 25/25/25
f 27/27/27 26/26/26 25/25/25
f 24/24/24 26/26/26 28/28/28
f 19/19/19 24/24/24 29/29/29
f 29/29/29 24/24/24 28/28/28
f 23/23/23 19/19/19 29/29/29
f 28/28/28 30/30/30 29/29/29
f 30/30/30 31/31/31 29/29/29
f 29/29/29 31/31/31 23/23/23
f 31/31/31 30/30/30 32/32/32
f 23/23/23 33/33/33 18/18/18
f 31/31/31 33/33/33 23/23/23
f 34/34/34 31/31/31 32/32/32
f 33/33/33 31/31/31 34/34/34
f 32/32/32 35/35/35 34/34/34
f 33/33/33 36/36/36 18/18/18
f 18/18/18 36/36/36 11/11/11
f 37/37/37 33/33/33 34/34/34
f 36/36/36 33/33/33 37/37/37
f 35/35/35 38/38/38 34/34/34
f 34/34/34 38/38/38 37/37/37
f 35/35/35 39/39/39 38/38/38
f 11/11/11 36/36/36 40/40/40
f 40/40/40 36/36/36 37/37/37
f 38/38/38 41/41/41 37/37/37
f 37/37/37 41/41/41 40/40/40
f 39/39/39 42/42/42 38/38/38
f 38/38/38 42/42/42 41/41/41
f 39/39/39 43/43/43 42/42/42
f 44/44/44 11/11/11 40/40/40
f 44/44/44 14/14/14 11/11/11
f 41/41/41 45/45/45 40/40/40
f 40/40/40 45/45/45 44/44/44
f 44/44/44 46/46/46 14/14/14
f 45/45/45 46/46/46 44/44/44
f 46/46/46 21/21/21 14/14/14
f 42/42/42 47/47/47 41/41/41
f 41/41/41 47/47/47 45/45/45
f 43/43/43 48/48/48 42/42/42
f 42/42/42 48/48/48 47/47/47
f 43/43/43 49/49/49 48/48/48
f 45/45/45 50/50/50 46/46/46
f 47/47/47 50/50/50 45/45/45
f 46/46/46 51/51/51 21/21/21
f 50/50/50 51/51/51 46/46/46
f 48/48/48 52/52/52 47/47/47
f 47/47/47 52/52/52 50/50/50
f 49/49/49 53/53/53 48/48/48
f 48/48/48 53/53/53 52/52/52
f 49/49/49 54/54/54 53/53/53
f 52/52/52 55/55/55 50/50/50
f 50/50/50 55/55/55 51/51/51
f 51/51/51 56/56/56 21/21/21
f 21/21/21 56/56/56 22/22/22
f 22/22/22 56/56/56 57/57/57
f 53/53/53 58/58/58 52/52/52
f 52/52/52 58/58/58 55/55/55
f 54/54/54 59/59/59 53/53/53
f 53/53/53 59/59/59 58/58/58
f 54/54/54 60/60/60 59/59/59
f 51/51/51 61/61/61 56/56/56
f 55/55/55 61/61/61 51/51/51
f 56/56/56 62/62/62 57/57/57
f 61/61/61 62/62/62 56/56/56
f 57/57/57 62/62/62 63/63/63
f 60/60/60 64/64/64 59/59/59
f 64/64/64 60/60/60 65/65/65
f 66/66/66 64/64/64 65/65/65
f 59/59/59 67/67/67 58/58/58
f 59/59/59 64/64/64 67/67/67
f 68/68/68 64/64/64 66/66/66
f 64/64/64 68/68/68 67/67/67
f 69/69/69 68/68/68 66/66/66
f 58/58/58 70/70/70 55/55/55
f 58/58/58 67/67/67 70/70/70
f 61/61/61 55/55/55 71/71/71
f 61/61/61 71/71/71 62/62/62
f 55/55/55 70/70/70 71/71/71
f 62/62/62 72/72/72 63/63/63
f 71/71/71 72/72/72 62/62/62
f 63/63/63 72/72/72 73/73/73
f 72/72/72 74/74/74 73/73/73
f 74/74/74 72/72/72 71/71/71
f 73/73/73 74/74/74 75/75/75
f 67/67/67 68/68/68 76/76/76
f 67/67/67 76/76/76 70/70/70
f 77/77/77 68/68/68 69/69/69
f 68/68/68 77/77/77 76/76/76
f 78/78/78 77/77/77 69/69/69
f 71/71/71 70/70/70 79/79/79
f 70/70/70 76/76/76 79/79/79
f 79/79/79 74/74/74 71/71/71
f 76/76/76 77/77/77 80/80/80
f 80/80/80 77/77/77 78/78/78
f 79/79/79 76/76/76 80/80/80
f 79/79/79 80/80/80 74/74/74
f 81/81/81 80/80/80 78/78/78
f 80/80/80 82/82/82 74/74/74
f 82/82/82 80/80/80 81/81/81
f 74/74/74 82/82/82 75/75/75
f 83/83/83 82/82/82 81/81/81
f 75/75/75 82/82/82 83/83/83
f 84/84/84 75/75/75 83/83/83
