g ENV_S05_DT_Section02_Vinyl_0102_MO
v -13.162338 11.876587 -63.55702
v -13.162338 11.027237 -63.55702
v -13.118935 11.027237 -63.671986
v -13.118935 11.876587 -63.671986
v -13.118935 11.027237 -63.671986
v -13.0121765 11.027237 -63.71891
v -13.0121765 11.876587 -63.71891
v -6.5059814 11.027237 -63.71891
v -6.5059814 11.876587 -63.71891
v 13.162758 11.876587 -63.55702
v 13.162758 11.876587 -59.109673
v 13.118179 11.983337 -59.109673
v 13.118179 11.983337 -63.55702
v 13.012596 12.026749 -59.109673
v 13.118179 11.876587 -63.671986
v 13.012596 12.026749 -63.55702
v 6.506405 12.026749 -59.109673
v 6.506405 12.026749 -63.55702
v 6.506405 11.983337 -63.671986
v 13.012596 11.983337 -63.671986
v 6.506405 11.876587 -63.71891
v 13.012596 11.876587 -63.71891
v 13.099411 11.963394 -63.650867
v 13.118179 11.876587 -63.671986
v 13.118179 11.027237 -63.671986
v 13.162758 11.027237 -63.55702
v 13.162758 11.876587 -63.55702
v 13.012596 11.876587 -63.71891
v 13.118179 11.027237 -63.671986
v 13.012596 11.027237 -63.71891
v 6.506405 11.876587 -63.71891
v 6.506405 11.027237 -63.71891
v 13.012596 11.876587 -50.05426
v 6.506405 11.876587 -50.05426
v 6.506405 11.983337 -50.10119
v 13.012596 11.983337 -50.10119
v 13.118179 11.876587 -50.10119
v 6.506405 12.026749 -50.216152
v 13.099411 11.963394 -50.122303
v 13.118179 11.983337 -50.216152
v 13.162758 11.876587 -50.216152
v 13.162758 11.876587 -54.663498
v 13.118179 11.983337 -54.663498
v 13.012596 12.026749 -50.216152
v 13.012596 12.026749 -54.663498
v 6.506405 12.026749 -54.663498
v -13.0121765 11.876587 -63.71891
v -6.5059814 11.876587 -63.71891
v -6.5059814 11.983337 -63.671986
v -13.0121765 11.983337 -63.671986
v -13.118935 11.876587 -63.671986
v -6.5059814 12.026749 -63.55702
v -13.098991 11.963394 -63.650867
v -13.118935 11.983337 -63.55702
v -13.162338 11.876587 -63.55702
v -13.162338 11.876587 -59.109673
v -13.118935 11.983337 -59.109673
v -13.0121765 12.026749 -63.55702
v -13.0121765 12.026749 -59.109673
v -6.5059814 12.026749 -59.109673
v -6.5059814 11.876587 -63.71891
v -6.5059814 11.027237 -63.71891
v 0.00020980835 11.027237 -63.71891
v 0.00020980835 11.876587 -63.71891
v -6.5059814 11.876587 -63.71891
v 0.00020980835 11.876587 -63.71891
v 0.00020980835 11.983337 -63.671986
v -6.5059814 11.983337 -63.671986
v 0.00020980835 12.026749 -63.55702
v -6.5059814 12.026749 -63.55702
v -6.5059814 12.026749 -59.109673
v 0.00020980835 12.026749 -59.109673
v 0.00020980835 11.876587 -50.05426
v -6.5059814 11.876587 -50.05426
v -6.5059814 11.983337 -50.10119
v 0.00020980835 11.983337 -50.10119
v -6.5059814 12.026749 -50.216152
v 0.00020980835 12.026749 -50.216152
v 0.00020980835 12.026749 -54.663498
v -6.5059814 12.026749 -54.663498
v 0.00020980835 11.876587 -63.71891
v 0.00020980835 11.027237 -63.71891
v 6.506405 11.027237 -63.71891
v 6.506405 11.876587 -63.71891
v 0.00020980835 11.876587 -63.71891
v 6.506405 11.876587 -63.71891
v 6.506405 11.983337 -63.671986
v 0.00020980835 11.983337 -63.671986
v 6.506405 12.026749 -63.55702
v 0.00020980835 12.026749 -63.55702
v 0.00020980835 12.026749 -59.109673
v 6.506405 12.026749 -59.109673
v 6.506405 11.876587 -50.05426
v 0.00020980835 11.876587 -50.05426
v 0.00020980835 11.983337 -50.10119
v 6.506405 11.983337 -50.10119
v 0.00020980835 12.026749 -50.216152
v 6.506405 12.026749 -50.216152
v 6.506405 12.026749 -54.663498
v 0.00020980835 12.026749 -54.663498
v -13.118935 11.983337 -54.663498
v -13.162338 11.876587 -50.216152
v -13.162338 11.876587 -54.663498
v -13.118935 11.983337 -50.216152
v -13.0121765 12.026749 -54.663498
v -13.118935 11.876587 -50.10119
v -13.0121765 12.026749 -50.216152
v -6.5059814 12.026749 -54.663498
v -6.5059814 12.026749 -50.216152
v -6.5059814 11.983337 -50.10119
v -13.0121765 11.983337 -50.10119
v -6.5059814 11.876587 -50.05426
v -13.0121765 11.876587 -50.05426
v -13.098991 11.963394 -50.122303
v -13.118935 11.983337 -59.109673
v -13.162338 11.876587 -54.663498
v -13.162338 11.876587 -59.109673
v -13.118935 11.983337 -54.663498
v -13.0121765 12.026749 -59.109673
v -13.0121765 12.026749 -54.663498
v -6.5059814 12.026749 -59.109673
v -6.5059814 12.026749 -54.663498
v -6.5059814 12.026749 -54.663498
v -6.5059814 12.026749 -59.109673
v 0.00020980835 12.026749 -59.109673
v 0.00020980835 12.026749 -54.663498
v 0.00020980835 12.026749 -54.663498
v 0.00020980835 12.026749 -59.109673
v 6.506405 12.026749 -59.109673
v 6.506405 12.026749 -54.663498
v 6.506405 12.026749 -54.663498
v 6.506405 12.026749 -59.109673
v 13.012596 12.026749 -59.109673
v 13.012596 12.026749 -54.663498
v 13.118179 11.983337 -59.109673
v 13.118179 11.983337 -54.663498
v 13.162758 11.876587 -59.109673
v 13.162758 11.876587 -54.663498
vt 0.7484652 0.51174027
vt 0.6373024 0.51174027
vt 0.6373024 0.5192279
vt 0.7484652 0.5192279
vt 0.6373024 0.5192279
vt 0.6373024 0.5261396
vt 0.7484652 0.5261396
vt 0.6373024 0.93104863
vt 0.7484652 0.93104863
vt 0.48294163 0.5100124
vt 0.30266207 0.5065565
vt 0.3020861 0.51174027
vt 0.48236567 0.5146201
vt 0.3020861 0.516924
vt 0.48927733 0.51289225
vt 0.48178968 0.51980394
vt 0.3020861 0.8014547
vt 0.48063776 0.80087876
vt 0.48582152 0.80087876
vt 0.48697343 0.5192279
vt 0.49100527 0.80087876
vt 0.49215722 0.5192279
vt 0.48639748 0.51519614
vt 0.64018226 0.5146201
vt 0.74616134 0.5146201
vt 0.74616134 0.5071325
vt 0.64018226 0.5077085
vt 0.6407583 0.5221078
vt 0.74616134 0.5146201
vt 0.7467373 0.5215318
vt 0.6430621 0.9304727
vt 0.7490412 0.9304727
vt 0.014099577 0.51980394
vt 0.009491794 0.773808
vt 0.014099577 0.773808
vt 0.018707361 0.5203799
vt 0.016979443 0.5146201
vt 0.018707361 0.774384
vt 0.019283336 0.516924
vt 0.022739174 0.51634806
vt 0.022163201 0.51174027
vt 0.18343565 0.50828445
vt 0.18343565 0.51289225
vt 0.023315147 0.5203799
vt 0.18401164 0.51750004
vt 0.18401164 0.7784158
vt 0.48639748 0.97597456
vt 0.49561304 0.6977796
vt 0.49042928 0.69720364
vt 0.48178968 0.97482264
vt 0.48351762 0.9811583
vt 0.48524553 0.6966276
vt 0.48063776 0.9788544
vt 0.4771819 0.9794304
vt 0.47833386 0.98461413
vt 0.30151013 0.9903739
vt 0.30093417 0.98519015
vt 0.47660592 0.97482264
vt 0.30035818 0.98058236
vt 0.30035818 0.688564
vt 0.7398256 0.55263436
vt 0.6361505 0.5520584
vt 0.6326946 0.92932075
vt 0.7363698 0.9298967
vt 0.49042928 0.8895786
vt 0.49042928 0.6010161
vt 0.48524553 0.6010161
vt 0.48524553 0.8895786
vt 0.48006177 0.6010161
vt 0.48006177 0.8895786
vt 0.29747832 0.8895786
vt 0.29747832 0.6010161
vt 0.014675551 0.6079278
vt 0.014675551 0.85847604
vt 0.018707361 0.85847604
vt 0.018707361 0.6079278
vt 0.023315147 0.85847604
vt 0.023315147 0.6079278
vt 0.1822837 0.6079278
vt 0.1822837 0.85847604
vt 0.7398256 0.5509065
vt 0.6349985 0.5509065
vt 0.6355745 0.9218331
vt 0.7409776 0.9218331
vt 0.49330914 0.88612276
vt 0.49330914 0.60504794
vt 0.48812538 0.60504794
vt 0.48812538 0.88612276
vt 0.48351762 0.60504794
vt 0.48351762 0.88612276
vt 0.30496597 0.88612276
vt 0.30496597 0.6056239
vt 0.011795686 0.63672644
vt 0.011795686 0.902826
vt 0.01640347 0.902826
vt 0.01640347 0.63672644
vt 0.021011256 0.902826
vt 0.021011256 0.63672644
vt 0.18977135 0.63672644
vt 0.18977135 0.902826
vt 0.19495511 0.9834622
vt 0.019859308 0.98519015
vt 0.19495511 0.98807
vt 0.020435281 0.98058236
vt 0.19553107 0.97827846
vt 0.013523605 0.98231024
vt 0.020435281 0.9753986
vt 0.19495511 0.7023874
vt 0.021587227 0.70296335
vt 0.01640347 0.70296335
vt 0.015827497 0.97597456
vt 0.011795686 0.70296335
vt 0.011219713 0.9765505
vt 0.01640347 0.9800064
vt 0.3343406 0.98691803
vt 0.15809283 0.9915258
vt 0.3343406 0.9915258
vt 0.15809283 0.98691803
vt 0.3343406 0.9817343
vt 0.15809283 0.9817343
vt 0.3343406 0.70469123
vt 0.15809283 0.70469123
vt 0.16097271 0.8913065
vt 0.3383724 0.8913065
vt 0.3383724 0.61080766
vt 0.16097271 0.61080766
vt 0.15578896 0.8936104
vt 0.33894837 0.8936104
vt 0.33894837 0.6044719
vt 0.15578896 0.6044719
vt 0.18113175 0.78475153
vt 0.35104382 0.78475153
vt 0.35046783 0.516924
vt 0.18055579 0.516924
vt 0.35046783 0.5123163
vt 0.18055579 0.5123163
vt 0.35046783 0.5071325
vt 0.18055579 0.5077085
vn -0.99907005 0.043115743 -0
vn -0.9999924 -0.0039020176 -0
vn -0.733333 -0.003902018 -0.67985845
vn -0.733333 0.035312653 -0.6789519
vn -0.733333 -0.003902018 -0.67985845
vn -0.00394094 -0.003902018 -0.9999846
vn -0.00394094 0.05099845 -0.99869096
vn 0.003902018 -0.003902018 -0.9999848
vn 0.003902018 0.05099845 -0.99869114
vn 0.99907005 0.04311742 -0
vn 0.99907005 0.04311742 -0
vn 0.70708734 0.70712614 -0
vn 0.70708734 0.70712614 -0
vn 0.0039020176 0.9999924 -0
vn 0.7332941 0.035312653 -0.67899394
vn 0.0039020176 0.9999924 -0
vn 0.0039020176 0.9999924 -0
vn 0.0039020176 0.9999924 -0
vn 0.003902018 0.733333 -0.67985845
vn 0.003902018 0.733333 -0.67985845
vn 0.003902018 0.05099845 -0.99869114
vn 0.003902018 0.05099845 -0.99869114
vn 0.5921215 0.59216034 -0.5465695
vn 0.7332941 0.035312653 -0.67899394
vn 0.7332941 -0.003902018 -0.67990035
vn 0.9999536 -0.003902018 -0.008804493
vn 0.99907005 0.04311742 -0
vn 0.003902018 0.05099845 -0.99869114
vn 0.7332941 -0.003902018 -0.67990035
vn 0.003902018 -0.003902018 -0.9999848
vn 0.003902018 0.05099845 -0.99869114
vn 0.003902018 -0.003902018 -0.9999848
vn 0.003902018 0.05099845 0.99869114
vn 0.003902018 0.05099845 0.99869114
vn 0.003902018 0.733333 0.67985845
vn 0.003902018 0.733333 0.67985845
vn 0.7332941 0.035312653 0.67899394
vn 0.0039020176 0.9999924 -0
vn 0.5921215 0.59216034 0.5465695
vn 0.70708734 0.70712614 -0
vn 0.99907005 0.04311742 -0
vn 0.99907005 0.04311742 -0
vn 0.70708734 0.70712614 -0
vn 0.0039020176 0.9999924 -0
vn 0.0039020176 0.9999924 -0
vn 0.0039020176 0.9999924 -0
vn -0.00394094 0.05099845 -0.99869096
vn 0.003902018 0.05099845 -0.99869114
vn 0.003902018 0.733333 -0.67985845
vn -0.00394094 0.733333 -0.67985815
vn -0.733333 0.035312653 -0.6789519
vn 0.0039020176 0.9999924 -0
vn -0.59216034 0.59216034 -0.54652745
vn -0.7071068 0.7071068 -0
vn -0.99907005 0.043115743 -0
vn -0.99907005 0.043115743 -0
vn -0.7071068 0.7071068 -0
vn -0.003940939 0.99999225 -0
vn -0.003940939 0.99999225 -0
vn 0.0039020176 0.9999924 -0
vn 0.003902018 0.05099845 -0.99869114
vn 0.003902018 -0.003902018 -0.9999848
vn 0.003902018 -0.003902018 -0.9999848
vn 0.003902018 0.05099845 -0.99869114
vn 0.003902018 0.05099845 -0.99869114
vn 0.003902018 0.05099845 -0.99869114
vn 0.003902018 0.733333 -0.67985845
vn 0.003902018 0.733333 -0.67985845
vn 0.0039020176 0.9999924 -0
vn 0.0039020176 0.9999924 -0
vn 0.0039020176 0.9999924 -0
vn 0.0039020176 0.9999924 -0
vn 0.003902018 0.05099845 0.99869114
vn 0.003902018 0.05099845 0.99869114
vn 0.003902018 0.733333 0.67985845
vn 0.003902018 0.733333 0.67985845
vn 0.0039020176 0.9999924 -0
vn 0.0039020176 0.9999924 -0
vn 0.0039020176 0.9999924 -0
vn 0.0039020176 0.9999924 -0
vn 0.003902018 0.05099845 -0.99869114
vn 0.003902018 -0.003902018 -0.9999848
vn 0.003902018 -0.003902018 -0.9999848
vn 0.003902018 0.05099845 -0.99869114
vn 0.003902018 0.05099845 -0.99869114
vn 0.003902018 0.05099845 -0.99869114
vn 0.003902018 0.733333 -0.67985845
vn 0.003902018 0.733333 -0.67985845
vn 0.0039020176 0.9999924 -0
vn 0.0039020176 0.9999924 -0
vn 0.0039020176 0.9999924 -0
vn 0.0039020176 0.9999924 -0
vn 0.003902018 0.05099845 0.99869114
vn 0.003902018 0.05099845 0.99869114
vn 0.003902018 0.733333 0.67985845
vn 0.003902018 0.733333 0.67985845
vn 0.0039020176 0.9999924 -0
vn 0.0039020176 0.9999924 -0
vn 0.0039020176 0.9999924 -0
vn 0.0039020176 0.9999924 -0
vn -0.7071068 0.7071068 -0
vn -0.99907005 0.043115743 -0
vn -0.99907005 0.043115743 -0
vn -0.7071068 0.7071068 -0
vn -0.003940939 0.99999225 -0
vn -0.733333 0.035312653 0.6789519
vn -0.003940939 0.99999225 -0
vn 0.0039020176 0.9999924 -0
vn 0.0039020176 0.9999924 -0
vn 0.003902018 0.733333 0.67985845
vn -0.00394094 0.733333 0.67985815
vn 0.003902018 0.05099845 0.99869114
vn -0.00394094 0.05099845 0.99869096
vn -0.59216034 0.59216034 0.54652745
vn -0.7071068 0.7071068 -0
vn -0.99907005 0.043115743 -0
vn -0.99907005 0.043115743 -0
vn -0.7071068 0.7071068 -0
vn -0.003940939 0.99999225 -0
vn -0.003940939 0.99999225 -0
vn 0.0039020176 0.9999924 -0
vn 0.0039020176 0.9999924 -0
vn 0.0039020176 0.9999924 -0
vn 0.0039020176 0.9999924 -0
vn 0.0039020176 0.9999924 -0
vn 0.0039020176 0.9999924 -0
vn 0.0039020176 0.9999924 -0
vn 0.0039020176 0.9999924 -0
vn 0.0039020176 0.9999924 -0
vn 0.0039020176 0.9999924 -0
vn 0.0039020176 0.9999924 -0
vn 0.0039020176 0.9999924 -0
vn 0.0039020176 0.9999924 -0
vn 0.0039020176 0.9999924 -0
vn 0.70708734 0.70712614 -0
vn 0.70708734 0.70712614 -0
vn 0.99907005 0.04311742 -0
vn 0.99907005 0.04311742 -0
g ENV_S05_DT_Section02_Vinyl_0102_MO_0
f 3/3/3 2/2/2 1/1/1
f 4/4/4 3/3/3 1/1/1
f 6/6/6 5/5/5 4/4/4
f 7/7/7 6/6/6 4/4/4
f 8/8/8 6/6/6 7/7/7
f 9/9/9 8/8/8 7/7/7
f 12/12/12 11/11/11 10/10/10
f 13/13/13 12/12/12 10/10/10
f 14/14/14 12/12/12 13/13/13
f 10/10/10 15/15/15 13/13/13
f 16/16/16 14/14/14 13/13/13
f 14/14/14 16/16/16 17/17/17
f 16/16/16 18/18/18 17/17/17
f 18/18/18 16/16/16 19/19/19
f 16/16/16 20/20/20 19/19/19
f 16/16/16 13/13/13 20/20/20
f 19/19/19 20/20/20 21/21/21
f 20/20/20 22/22/22 21/21/21
f 22/22/22 20/20/20 15/15/15
f 13/13/13 23/23/23 20/20/20
f 15/15/15 23/23/23 13/13/13
f 20/20/20 23/23/23 15/15/15
f 26/26/26 25/25/25 24/24/24
f 27/27/27 26/26/26 24/24/24
f 24/24/24 29/29/29 28/28/28
f 29/29/29 30/30/30 28/28/28
f 28/28/28 30/30/30 31/31/31
f 30/30/30 32/32/32 31/31/31
f 35/35/35 34/34/34 33/33/33
f 36/36/36 35/35/35 33/33/33
f 33/33/33 37/37/37 36/36/36
f 38/38/38 35/35/35 36/36/36
f 37/37/37 39/39/39 36/36/36
f 40/40/40 39/39/39 37/37/37
f 36/36/36 39/39/39 40/40/40
f 41/41/41 40/40/40 37/37/37
f 40/40/40 41/41/41 42/42/42
f 43/43/43 40/40/40 42/42/42
f 44/44/44 36/36/36 40/40/40
f 44/44/44 40/40/40 43/43/43
f 44/44/44 38/38/38 36/36/36
f 45/45/45 44/44/44 43/43/43
f 44/44/44 45/45/45 38/38/38
f 45/45/45 46/46/46 38/38/38
f 49/49/49 48/48/48 47/47/47
f 50/50/50 49/49/49 47/47/47
f 47/47/47 51/51/51 50/50/50
f 52/52/52 49/49/49 50/50/50
f 51/51/51 53/53/53 50/50/50
f 54/54/54 53/53/53 51/51/51
f 50/50/50 53/53/53 54/54/54
f 55/55/55 54/54/54 51/51/51
f 55/55/55 56/56/56 54/54/54
f 56/56/56 57/57/57 54/54/54
f 58/58/58 50/50/50 54/54/54
f 54/54/54 57/57/57 58/58/58
f 58/58/58 52/52/52 50/50/50
f 57/57/57 59/59/59 58/58/58
f 52/52/52 58/58/58 59/59/59
f 60/60/60 52/52/52 59/59/59
f 63/63/63 62/62/62 61/61/61
f 64/64/64 63/63/63 61/61/61
f 67/67/67 66/66/66 65/65/65
f 68/68/68 67/67/67 65/65/65
f 69/69/69 67/67/67 68/68/68
f 70/70/70 69/69/69 68/68/68
f 69/69/69 70/70/70 71/71/71
f 72/72/72 69/69/69 71/71/71
f 75/75/75 74/74/74 73/73/73
f 76/76/76 75/75/75 73/73/73
f 77/77/77 75/75/75 76/76/76
f 78/78/78 77/77/77 76/76/76
f 78/78/78 79/79/79 77/77/77
f 79/79/79 80/80/80 77/77/77
f 83/83/83 82/82/82 81/81/81
f 84/84/84 83/83/83 81/81/81
f 87/87/87 86/86/86 85/85/85
f 88/88/88 87/87/87 85/85/85
f 89/89/89 87/87/87 88/88/88
f 90/90/90 89/89/89 88/88/88
f 89/89/89 90/90/90 91/91/91
f 92/92/92 89/89/89 91/91/91
f 95/95/95 94/94/94 93/93/93
f 96/96/96 95/95/95 93/93/93
f 97/97/97 95/95/95 96/96/96
f 98/98/98 97/97/97 96/96/96
f 98/98/98 99/99/99 97/97/97
f 99/99/99 100/100/100 97/97/97
f 103/103/103 102/102/102 101/101/101
f 102/102/102 104/104/104 101/101/101
f 101/101/101 104/104/104 105/105/105
f 102/102/102 106/106/106 104/104/104
f 104/104/104 107/107/107 105/105/105
f 108/108/108 105/105/105 107/107/107
f 109/109/109 108/108/108 107/107/107
f 109/109/109 107/107/107 110/110/110
f 107/107/107 111/111/111 110/110/110
f 107/107/107 104/104/104 111/111/111
f 110/110/110 111/111/111 112/112/112
f 111/111/111 113/113/113 112/112/112
f 113/113/113 111/111/111 106/106/106
f 106/106/106 114/114/114 104/104/104
f 111/111/111 114/114/114 106/106/106
f 104/104/104 114/114/114 111/111/111
f 117/117/117 116/116/116 115/115/115
f 116/116/116 118/118/118 115/115/115
f 115/115/115 118/118/118 119/119/119
f 118/118/118 120/120/120 119/119/119
f 121/121/121 119/119/119 120/120/120
f 122/122/122 121/121/121 120/120/120
f 125/125/125 124/124/124 123/123/123
f 126/126/126 125/125/125 123/123/123
f 129/129/129 128/128/128 127/127/127
f 130/130/130 129/129/129 127/127/127
f 133/133/133 132/132/132 131/131/131
f 134/134/134 133/133/133 131/131/131
f 133/133/133 134/134/134 135/135/135
f 134/134/134 136/136/136 135/135/135
f 135/135/135 136/136/136 137/137/137
f 136/136/136 138/138/138 137/137/137
