g ENV_PlasticFrame01_MO
v 12.921567 5.1227055 8.72855
v 14.456365 5.1067657 8.766632
v 12.921567 5.1067657 8.766632
v 14.456365 5.1227055 8.72855
v 14.456365 5.1227055 -8.728551
v 12.921567 5.1227055 -8.728551
v 12.921567 5.1067657 -8.766633
v 14.456365 5.1067657 -8.766633
v 14.494447 5.1067657 -8.728551
v 14.487361 5.1001225 -8.759548
v 14.494447 5.069126 -8.766633
v 14.494447 5.1067657 8.72855
v 14.487361 5.1001225 8.759546
v 14.509945 5.069126 -8.728551
v 14.494447 5.069126 8.766632
v 14.456365 5.1067657 8.766632
v 14.509945 -3.4032564 -8.728551
v 14.494447 -3.401928 -8.766633
v 14.509945 5.069126 8.72855
v 14.378872 -4.0612793 -8.728551
v 14.364259 -4.0550804 -8.766633
v 14.509945 -3.4032564 8.72855
v 14.006464 -4.6192265 -8.728551
v 13.994951 -4.6077127 -8.766633
v 14.456365 5.069126 8.782131
v 12.921567 5.1067657 8.766632
v 12.921567 5.069126 8.782131
v 14.494447 -3.401928 8.766632
v 14.378872 -4.0612793 8.72855
v 13.448517 -4.9916344 -8.728551
v 13.442318 -4.977021 -8.766633
v 14.364259 -4.0550804 8.766632
v 13.994951 -4.6077127 8.766632
v 14.006464 -4.6192265 8.72855
v 13.442318 -4.977021 8.766632
v 13.448517 -4.9916344 8.72855
v 12.7891655 -5.1067657 8.766632
v 12.790494 -5.1227074 8.72855
v 12.790494 -5.1227074 -8.728551
v 12.7891655 -5.1067657 -8.766633
v 14.456365 -3.3979425 8.782131
v 14.328391 -4.0404673 8.782131
v 14.364259 -4.0550804 8.766632
v 12.890127 3.4528503 8.782131
v 13.967497 -4.5802584 8.782131
v 13.994951 -4.6077127 8.766632
v 12.921567 3.528572 8.782131
v 12.921567 5.069126 8.782131
v 13.427705 -4.9411526 8.782131
v 13.442318 -4.977021 8.766632
v 12.78518 -5.069126 8.782131
v 12.814405 3.4214096 8.782131
v 12.7891655 -5.1067657 8.766632
v 12.867987 5.069126 -8.728551
v 12.883485 3.528572 -8.766633
v 12.883485 5.069126 -8.766633
v 12.867987 3.528572 -8.728551
v 12.867987 5.069126 8.72855
v 12.852488 3.49049 -8.728551
v 12.863558 3.4794197 -8.766633
v 12.814405 3.4590492 -8.766633
v 12.814405 3.4749908 -8.728551
v 12.814405 3.4749908 8.72855
v 12.852488 3.49049 8.72855
v 12.814405 3.4590492 8.766632
v 12.863558 3.4794197 8.766632
v 12.883485 3.528572 8.766632
v 12.867987 3.528572 8.72855
v 12.883485 5.069126 8.766632
v 12.921567 5.069126 -8.782131
v 14.456365 5.1067657 -8.766633
v 12.921567 5.1067657 -8.766633
v 14.456365 5.069126 -8.782131
v 14.494447 5.069126 -8.766633
v 14.487361 5.1001225 -8.759548
v 14.494447 -3.401928 -8.766633
v 14.456365 -3.3979425 -8.782131
v 14.364259 -4.0550804 -8.766633
v 14.328391 -4.0404673 -8.782131
v 13.994951 -4.6077127 -8.766633
v 13.967497 -4.5802584 -8.782131
v 13.442318 -4.977021 -8.766633
v 13.427705 -4.9411526 -8.782131
v 12.7891655 -5.1067657 -8.766633
v 12.78518 -5.069126 -8.782131
v -14.456364 -5.1067657 -8.766633
v -14.456364 -5.1227074 -8.728551
v 12.790494 -5.1227074 -8.728551
v -14.494446 -5.1067657 -8.728551
v -14.48736 -5.1001234 -8.759548
v -14.494446 -5.069126 -8.766633
v -14.494446 -5.1067657 -8.728551
v -14.509943 -5.069126 -8.728551
v -14.509943 3.4214096 -8.728551
v -14.494446 3.4214096 -8.766633
v -14.456364 -5.069126 -8.782131
v -14.456364 3.4214096 -8.782131
v -14.456364 3.4214096 -8.782131
v 12.814405 3.4214096 -8.782131
v 12.890127 3.4528503 -8.782131
v 13.427705 -4.9411526 -8.782131
v 13.967497 -4.5802584 -8.782131
v 14.328391 -4.0404673 -8.782131
v 14.456365 -3.3979425 -8.782131
v 14.456365 5.069126 -8.782131
v 12.921567 3.528572 -8.782131
v 12.921567 5.069126 -8.782131
v 12.883485 5.069126 -8.766633
v 12.921567 3.528572 -8.782131
v 12.921567 5.069126 -8.782131
v 12.883485 3.528572 -8.766633
v 12.890127 3.4528503 -8.782131
v 12.863558 3.4794197 -8.766633
v 12.814405 3.4590492 -8.766633
v 12.814405 3.4214096 -8.782131
v -14.456364 3.4214096 -8.782131
v -14.456364 3.4590492 -8.766633
v 12.814405 3.4749908 -8.728551
v -14.456364 3.4749908 -8.728551
v -14.494446 3.4590492 -8.728551
v -14.48736 3.4524078 -8.759548
v -14.494446 3.4214096 -8.766633
v -14.494446 3.4590492 -8.728551
v -14.509943 3.4214096 -8.728551
v 12.921567 5.069126 8.782131
v 12.883485 3.528572 8.766632
v 12.883485 5.069126 8.766632
v 12.921567 3.528572 8.782131
v 12.890127 3.4528503 8.782131
v 12.863558 3.4794197 8.766632
v 12.814405 3.4590492 8.766632
v 12.814405 3.4214096 8.782131
v 12.883485 5.069126 8.766632
v 12.89057 5.1001225 8.759546
v 12.921567 5.1067657 8.766632
v 12.921567 5.069126 8.782131
v 12.921567 5.1067657 -8.766633
v 12.89057 5.1001225 -8.759548
v 12.883485 5.069126 -8.766633
v 12.921567 5.069126 -8.782131
v 12.883485 5.1067657 -8.728551
v 12.89057 5.1001225 -8.759548
v 12.921567 5.1067657 -8.766633
v 12.883485 5.069126 -8.766633
v 12.867987 5.069126 -8.728551
v 12.921567 5.1227055 -8.728551
v 12.867987 5.069126 8.72855
v 12.883485 5.1067657 8.72855
v 12.921567 5.1227055 8.72855
v 12.883485 5.069126 8.766632
v 12.921567 5.1067657 8.766632
v 12.89057 5.1001225 8.759546
vt 0.6024084 0.6188693
vt 0.5878365 0.6191392
vt 0.6024084 0.6191392
vt 0.5878365 0.6188693
vt 0.5878365 0.45264122
vt 0.6024084 0.45264122
vt 0.6024084 0.45237136
vt 0.5878365 0.45237136
vt 0.5875666 0.45264122
vt 0.5875666 0.45237136
vt 0.58702695 0.45237136
vt 0.5875666 0.6188693
vt 0.5875666 0.6191392
vt 0.58702695 0.45264122
vt 0.58702695 0.6191392
vt 0.5875666 0.619409
vt 0.5066114 0.45264122
vt 0.5066114 0.45237136
vt 0.58702695 0.6188693
vt 0.50040483 0.45264122
vt 0.50040483 0.45237136
vt 0.5066114 0.6188693
vt 0.4950078 0.45264122
vt 0.4950078 0.45237136
vt 0.58702695 0.619409
vt 0.5875666 0.633981
vt 0.58702695 0.633981
vt 0.5066114 0.6191392
vt 0.50040483 0.6188693
vt 0.49149972 0.45264122
vt 0.49149972 0.45237136
vt 0.50040483 0.6191392
vt 0.4950078 0.6191392
vt 0.4950078 0.6188693
vt 0.49149972 0.6191392
vt 0.49149972 0.6188693
vt 0.48502332 0.6191392
vt 0.48529318 0.6188693
vt 0.48529318 0.45264122
vt 0.48502332 0.45237136
vt 0.5066114 0.619409
vt 0.50040483 0.6207583
vt 0.50040483 0.6204884
vt 0.57164544 0.6342508
vt 0.49527764 0.6239965
vt 0.4950078 0.6239965
vt 0.572455 0.633981
vt 0.58702695 0.633981
vt 0.49203944 0.6293935
vt 0.49149972 0.6291237
vt 0.49069017 0.6353302
vt 0.5713756 0.63506037
vt 0.49042034 0.6353302
vt 0.60321796 0.45264122
vt 0.6177899 0.45237136
vt 0.60321796 0.45237136
vt 0.6177899 0.45264122
vt 0.60321796 0.6188693
vt 0.61805975 0.45264122
vt 0.61805975 0.45237136
vt 0.6185995 0.45237136
vt 0.6185995 0.45264122
vt 0.6185995 0.6188693
vt 0.61805975 0.6188693
vt 0.6185995 0.6191392
vt 0.61805975 0.6191392
vt 0.6177899 0.6191392
vt 0.6177899 0.6188693
vt 0.60321796 0.6191392
vt 0.3819403 0.37681314
vt 0.38140061 0.3622412
vt 0.38140061 0.37681314
vt 0.3819403 0.3622412
vt 0.3819403 0.36197135
vt 0.38167045 0.36197135
vt 0.46235585 0.36197135
vt 0.46235585 0.3622412
vt 0.46856242 0.3633206
vt 0.46856242 0.36359045
vt 0.47395945 0.36682865
vt 0.4736896 0.3670985
vt 0.4774675 0.37195584
vt 0.4769278 0.37222567
vt 0.47854692 0.37816238
vt 0.47827706 0.37816238
vt 0.47854692 0.6372192
vt 0.4790866 0.6372192
vt 0.4790866 0.37816238
vt 0.4790866 0.63775885
vt 0.47854692 0.63775885
vt 0.47827706 0.63775885
vt 0.47854692 0.63802874
vt 0.47827706 0.63802874
vt 0.39759165 0.63802874
vt 0.39759165 0.63775885
vt 0.47827706 0.6372192
vt 0.39759165 0.6372192
vt 0.39759165 0.6372192
vt 0.39759165 0.37789255
vt 0.39732182 0.37735283
vt 0.4769278 0.37222567
vt 0.4736896 0.3670985
vt 0.46856242 0.36359045
vt 0.46235585 0.3622412
vt 0.3819403 0.3622412
vt 0.39651227 0.37681314
vt 0.3819403 0.37681314
vt 0.3819403 0.37735283
vt 0.39651227 0.37681314
vt 0.3819403 0.37681314
vt 0.39651227 0.37735283
vt 0.39732182 0.37735283
vt 0.39705196 0.37735283
vt 0.39705196 0.37789255
vt 0.39759165 0.37789255
vt 0.39759165 0.6372192
vt 0.39705196 0.6372192
vt 0.3967821 0.37789255
vt 0.3967821 0.6372192
vt 0.3967821 0.63775885
vt 0.39705196 0.63775885
vt 0.39759165 0.63775885
vt 0.39705196 0.63802874
vt 0.39759165 0.63802874
vt 0.58702695 0.633981
vt 0.572455 0.63452065
vt 0.58702695 0.63452065
vt 0.572455 0.633981
vt 0.57164544 0.6342508
vt 0.57191527 0.63452065
vt 0.57191527 0.63506037
vt 0.5713756 0.63506037
vt 0.58702695 0.63452065
vt 0.5872968 0.6342508
vt 0.5875666 0.633981
vt 0.58702695 0.633981
vt 0.38140061 0.37681314
vt 0.38167045 0.37735283
vt 0.3819403 0.37735283
vt 0.3819403 0.37681314
vt 0.6026783 0.45264122
vt 0.6026783 0.45237136
vt 0.6024084 0.45237136
vt 0.60321796 0.45237136
vt 0.60321796 0.45264122
vt 0.6024084 0.45264122
vt 0.60321796 0.6188693
vt 0.6026783 0.6188693
vt 0.6024084 0.6188693
vt 0.60321796 0.6191392
vt 0.6024084 0.6191392
vt 0.6026783 0.6191392
vn 0.0039215684 0.99999225 -0.00034526698
vn 0.0039215684 0.70979846 0.7043939
vn 0.0039215684 0.70979846 0.7043939
vn 0.011763923 0.99993086 -0
vn 0.011763923 0.99993086 -0
vn 0.0039215684 0.99999225 -0.00034526698
vn 0.0039215684 0.70979846 -0.7043939
vn 0.0039215684 0.70979846 -0.7043939
vn 0.7071068 0.70710677 -0
vn 0.5764662 0.5764661 -0.57911444
vn 0.7097985 0.003921509 -0.70439386
vn 0.7071068 0.70710677 -0
vn 0.5764662 0.5764661 0.57911444
vn 0.9999924 0.003921509 -0
vn 0.7097985 0.003921509 0.70439386
vn 0.0039215684 0.70979846 0.7043939
vn 0.99993086 -0.011763922 -0
vn 0.7176416 -0.011764646 -0.69631326
vn 0.9999924 0.003921509 -0
vn 0.9215616 -0.38038927 -0.07764171
vn 0.6705831 -0.27842927 -0.68760115
vn 0.99993086 -0.011763922 -0
vn 0.70710677 -0.70710677 -0
vn 0.5137216 -0.5137216 -0.68715376
vn 0.035293877 0.003921509 0.99936926
vn 0.0039215684 0.70979846 0.7043939
vn 0.0039215684 0.3803892 0.9248182
vn 0.7176416 -0.011764646 0.69631326
vn 0.9215616 -0.38038927 0.07764171
vn 0.38038927 -0.9215616 -0.07764171
vn 0.27842927 -0.6705831 -0.6876012
vn 0.6705831 -0.27842927 0.68760115
vn 0.5137216 -0.5137216 0.68715376
vn 0.70710677 -0.70710677 -0
vn 0.27842927 -0.6705831 0.6876012
vn 0.38038927 -0.9215616 0.07764171
vn 0.13725388 -0.7097985 0.69090337
vn 0.19160226 -0.9814727 -0
vn 0.17646927 -0.9843062 -0
vn 0.0039215684 -0.7176416 -0.6964016
vn 0.05098003 -0.0039215684 0.998692
vn 0.0039215684 -0.0039215684 0.9999846
vn 0.6705831 -0.27842927 0.68760115
vn 0.0039215684 -0.0039215684 0.9999846
vn 0.0039215684 -0.0039215684 0.9999846
vn 0.5137216 -0.5137216 0.68715376
vn 0.0039215684 -0.0039215684 0.9999846
vn 0.0039215684 -0.0039215684 0.9999846
vn 0.0039215684 -0.0039215684 0.9999846
vn 0.27842927 -0.6705831 0.6876012
vn 0.0039215684 -0.0039215684 0.9999846
vn 0.0039215684 -0.0039215684 0.9999846
vn 0.13725388 -0.7097985 0.69090337
vn -0.99999225 -0.0039215684 -0.00034425134
vn -0.7019553 0.011764526 -0.7121239
vn -0.70979846 -0.0039215684 -0.7043939
vn -0.99993086 0.011763804 -0
vn -0.99999225 -0.0039215684 -0.00034425134
vn -0.70710677 0.70710677 -0
vn -0.42744768 0.42744768 -0.79660344
vn -0.003921509 0.70979846 -0.7043939
vn -0.15293992 0.9607769 -0.23133764
vn -0.3803892 0.9215615 0.077643245
vn -0.70710677 0.70710677 -0
vn -0.24705684 0.59215224 0.7670194
vn -0.42744768 0.42744768 0.79660344
vn -0.7019553 0.011764526 0.7121239
vn -0.99993086 0.011763804 -0
vn -0.70979846 -0.0039215684 0.7043939
vn 0.0039215684 0.3803892 -0.9248182
vn 0.0039215684 0.70979846 -0.7043939
vn 0.0039215684 0.70979846 -0.7043939
vn 0.3333308 0.05882299 -0.9409731
vn 0.7097985 0.003921509 -0.70439386
vn 0.5764662 0.5764661 -0.57911444
vn 0.7176416 -0.011764646 -0.69631326
vn 0.38038927 -0.0039215684 -0.92481816
vn 0.6705831 -0.27842927 -0.68760115
vn 0.34901696 -0.14509696 -0.92581534
vn 0.5137216 -0.5137216 -0.68715376
vn 0.26274312 -0.26274312 -0.928403
vn 0.27842927 -0.6705831 -0.6876012
vn 0.14509696 -0.34901696 -0.92581534
vn 0.0039215684 -0.7176416 -0.6964016
vn 0.0039215684 -0.0039215684 -0.9999846
vn -0.003921509 -0.7097985 -0.70439386
vn -0.003921509 -0.9215616 -0.38821238
vn 0.17646927 -0.9843062 -0
vn -0.66274 -0.66274005 -0.34864214
vn -0.5764661 -0.5764662 -0.57911444
vn -0.70979846 -0.0039215684 -0.7043939
vn -0.66274 -0.66274005 -0.34864214
vn -0.9215615 -0.0039215684 -0.38821262
vn -0.9215615 -0.0039215684 -0.38821262
vn -0.70979846 -0.0039215684 -0.7043939
vn -0.003921509 -0.0039215684 -0.9999846
vn -0.3803892 -0.0039215684 -0.9248182
vn 0.0039215684 -0.0039215684 -0.9999846
vn 0.0039215684 -0.0039215684 -0.9999846
vn 0.0039215684 -0.0039215684 -0.9999846
vn 0.0039215684 -0.0039215684 -0.9999846
vn 0.0039215684 -0.0039215684 -0.9999846
vn -0.003921509 -0.0039215684 -0.9999846
vn -0.003921509 -0.0039215684 -0.9999846
vn 0.0039215684 -0.0039215684 -0.9999846
vn 0.0039215684 -0.0039215684 -0.9999846
vn 0.0039215684 -0.0039215684 -0.9999846
vn -0.70979846 -0.0039215684 -0.7043939
vn -0.3803892 0.003921509 -0.9248182
vn -0.3803892 -0.0039215684 -0.9248182
vn -0.7019553 0.011764526 -0.7121239
vn -0.27058613 0.27058613 -0.92388654
vn -0.42744768 0.42744768 -0.79660344
vn -0.003921509 0.70979846 -0.7043939
vn -0.003921509 0.3803892 -0.9248182
vn -0.003921509 0.3803892 -0.9248182
vn -0.003921509 0.70979846 -0.7043939
vn -0.15293992 0.9607769 -0.23133764
vn -0.003921509 0.9215615 -0.38821262
vn -0.66274 0.66274 -0.34864223
vn -0.5764661 0.5764661 -0.57911456
vn -0.66274 0.35685992 -0.6583515
vn -0.66274 0.66274 -0.34864223
vn -0.8901892 0.3254876 -0.31878054
vn -0.3803892 -0.0039215684 0.9248182
vn -0.7019553 0.011764526 0.7121239
vn -0.70979846 -0.0039215684 0.7043939
vn -0.3803892 0.003921509 0.9248182
vn -0.27058613 0.27058613 0.92388654
vn -0.42744768 0.42744768 0.79660344
vn -0.24705684 0.59215224 0.7670194
vn -0.15293992 0.3803892 0.9120929
vn -0.66274 0.35685992 0.6583515
vn -0.5764661 0.5764661 0.57911456
vn -0.35685992 0.66274 0.6583515
vn -0.3254876 0.3254876 0.8877588
vn -0.35685992 0.66274 -0.6583515
vn -0.5764661 0.5764661 -0.57911456
vn -0.66274 0.35685992 -0.6583515
vn -0.3254876 0.3254876 -0.8877588
vn -0.70710677 0.70710677 -0
vn -0.5764661 0.5764661 -0.57911456
vn -0.35685992 0.66274 -0.6583515
vn -0.66274 0.35685992 -0.6583515
vn -0.9215615 0.3803892 -0.07764315
vn -0.3803892 0.9215615 -0.077643245
vn -0.9215615 0.3803892 0.07764315
vn -0.70710677 0.70710677 -0
vn -0.3803892 0.9215615 0.077643245
vn -0.66274 0.35685992 0.6583515
vn -0.35685992 0.66274 0.6583515
vn -0.5764661 0.5764661 0.57911456
g ENV_PlasticFrame01_MO_0
f 3/3/3 2/2/2 1/1/1
f 2/2/2 4/4/4 1/1/1
f 4/4/4 5/5/5 1/1/1
f 5/5/5 6/6/6 1/1/1
f 6/6/6 5/5/5 7/7/7
f 5/5/5 8/8/8 7/7/7
f 5/5/5 9/9/9 8/8/8
f 9/9/9 5/5/5 4/4/4
f 9/9/9 10/10/10 8/8/8
f 11/11/11 10/10/10 9/9/9
f 4/4/4 2/2/2 12/12/12
f 12/12/12 9/9/9 4/4/4
f 2/2/2 13/13/13 12/12/12
f 14/14/14 11/11/11 9/9/9
f 14/14/14 9/9/9 12/12/12
f 12/12/12 13/13/13 15/15/15
f 15/15/15 13/13/13 16/16/16
f 14/14/14 17/17/17 11/11/11
f 17/17/17 18/18/18 11/11/11
f 19/19/19 14/14/14 12/12/12
f 19/19/19 12/12/12 15/15/15
f 17/17/17 14/14/14 19/19/19
f 17/17/17 20/20/20 18/18/18
f 20/20/20 21/21/21 18/18/18
f 22/22/22 17/17/17 19/19/19
f 20/20/20 17/17/17 22/22/22
f 20/20/20 23/23/23 21/21/21
f 23/23/23 24/24/24 21/21/21
f 25/25/25 15/15/15 16/16/16
f 25/25/25 16/16/16 26/26/26
f 27/27/27 25/25/25 26/26/26
f 15/15/15 28/28/28 19/19/19
f 28/28/28 22/22/22 19/19/19
f 29/29/29 20/20/20 22/22/22
f 23/23/23 20/20/20 29/29/29
f 23/23/23 30/30/30 24/24/24
f 30/30/30 31/31/31 24/24/24
f 28/28/28 32/32/32 22/22/22
f 32/32/32 29/29/29 22/22/22
f 32/32/32 33/33/33 29/29/29
f 34/34/34 23/23/23 29/29/29
f 33/33/33 34/34/34 29/29/29
f 30/30/30 23/23/23 34/34/34
f 33/33/33 35/35/35 34/34/34
f 35/35/35 36/36/36 34/34/34
f 36/36/36 30/30/30 34/34/34
f 36/36/36 35/35/35 37/37/37
f 38/38/38 36/36/36 37/37/37
f 38/38/38 39/39/39 36/36/36
f 39/39/39 30/30/30 36/36/36
f 31/31/31 30/30/30 39/39/39
f 40/40/40 31/31/31 39/39/39
f 41/41/41 28/28/28 15/15/15
f 25/25/25 41/41/41 15/15/15
f 41/41/41 42/42/42 28/28/28
f 42/42/42 43/43/43 28/28/28
f 41/41/41 25/25/25 44/44/44
f 44/44/44 42/42/42 41/41/41
f 42/42/42 45/45/45 43/43/43
f 44/44/44 45/45/45 42/42/42
f 45/45/45 46/46/46 43/43/43
f 25/25/25 47/47/47 44/44/44
f 25/25/25 48/48/48 47/47/47
f 45/45/45 49/49/49 46/46/46
f 44/44/44 49/49/49 45/45/45
f 49/49/49 50/50/50 46/46/46
f 44/44/44 51/51/51 49/49/49
f 50/50/50 49/49/49 51/51/51
f 44/44/44 52/52/52 51/51/51
f 53/53/53 50/50/50 51/51/51
f 56/56/56 55/55/55 54/54/54
f 55/55/55 57/57/57 54/54/54
f 58/58/58 54/54/54 57/57/57
f 57/57/57 55/55/55 59/59/59
f 55/55/55 60/60/60 59/59/59
f 59/59/59 60/60/60 61/61/61
f 62/62/62 59/59/59 61/61/61
f 62/62/62 63/63/63 59/59/59
f 63/63/63 64/64/64 59/59/59
f 59/59/59 64/64/64 57/57/57
f 63/63/63 65/65/65 64/64/64
f 65/65/65 66/66/66 64/64/64
f 64/64/64 66/66/66 67/67/67
f 68/68/68 58/58/58 57/57/57
f 64/64/64 68/68/68 57/57/57
f 68/68/68 64/64/64 67/67/67
f 58/58/58 68/68/68 69/69/69
f 68/68/68 67/67/67 69/69/69
f 72/72/72 71/71/71 70/70/70
f 71/71/71 73/73/73 70/70/70
f 73/73/73 71/71/71 74/74/74
f 71/71/71 75/75/75 74/74/74
f 74/74/74 76/76/76 73/73/73
f 76/76/76 77/77/77 73/73/73
f 76/76/76 78/78/78 77/77/77
f 78/78/78 79/79/79 77/77/77
f 78/78/78 80/80/80 79/79/79
f 80/80/80 81/81/81 79/79/79
f 80/80/80 82/82/82 81/81/81
f 82/82/82 83/83/83 81/81/81
f 83/83/83 82/82/82 84/84/84
f 85/85/85 83/83/83 84/84/84
f 85/85/85 84/84/84 86/86/86
f 86/86/86 84/84/84 87/87/87
f 84/84/84 88/88/88 87/87/87
f 87/87/87 89/89/89 86/86/86
f 89/89/89 90/90/90 86/86/86
f 86/86/86 90/90/90 91/91/91
f 91/91/91 90/90/90 92/92/92
f 93/93/93 91/91/91 92/92/92
f 93/93/93 94/94/94 91/91/91
f 94/94/94 95/95/95 91/91/91
f 96/96/96 86/86/86 91/91/91
f 91/91/91 95/95/95 96/96/96
f 96/96/96 85/85/85 86/86/86
f 95/95/95 97/97/97 96/96/96
f 96/96/96 98/98/98 85/85/85
f 98/98/98 99/99/99 85/85/85
f 99/99/99 100/100/100 85/85/85
f 100/100/100 101/101/101 85/85/85
f 100/100/100 102/102/102 101/101/101
f 100/100/100 103/103/103 102/102/102
f 100/100/100 104/104/104 103/103/103
f 100/100/100 105/105/105 104/104/104
f 100/100/100 106/106/106 105/105/105
f 106/106/106 107/107/107 105/105/105
f 110/110/110 109/109/109 108/108/108
f 109/109/109 111/111/111 108/108/108
f 109/109/109 112/112/112 111/111/111
f 112/112/112 113/113/113 111/111/111
f 114/114/114 113/113/113 112/112/112
f 115/115/115 114/114/114 112/112/112
f 115/115/115 116/116/116 114/114/114
f 116/116/116 117/117/117 114/114/114
f 114/114/114 117/117/117 118/118/118
f 117/117/117 119/119/119 118/118/118
f 119/119/119 117/117/117 120/120/120
f 117/117/117 121/121/121 120/120/120
f 116/116/116 122/122/122 117/117/117
f 122/122/122 121/121/121 117/117/117
f 123/123/123 121/121/121 122/122/122
f 124/124/124 123/123/123 122/122/122
f 127/127/127 126/126/126 125/125/125
f 126/126/126 128/128/128 125/125/125
f 128/128/128 126/126/126 129/129/129
f 126/126/126 130/130/130 129/129/129
f 129/129/129 130/130/130 131/131/131
f 132/132/132 129/129/129 131/131/131
f 135/135/135 134/134/134 133/133/133
f 136/136/136 135/135/135 133/133/133
f 139/139/139 138/138/138 137/137/137
f 140/140/140 139/139/139 137/137/137
f 143/143/143 142/142/142 141/141/141
f 141/141/141 142/142/142 144/144/144
f 145/145/145 141/141/141 144/144/144
f 146/146/146 143/143/143 141/141/141
f 141/141/141 145/145/145 147/147/147
f 146/146/146 141/141/141 148/148/148
f 148/148/148 141/141/141 147/147/147
f 149/149/149 146/146/146 148/148/148
f 147/147/147 150/150/150 148/148/148
f 149/149/149 148/148/148 151/151/151
f 150/150/150 152/152/152 148/148/148
f 148/148/148 152/152/152 151/151/151
