g ENV_SY02_PP_Sticker_Decal_MO
v -0.014513254 -0.92391706 -3.484027
v -0.116904974 -1.0486372 -3.484027
v -0.12413502 -1.0486372 3.484027
v -0.021743536 -0.92391706 3.484027
v 0.06150961 -0.7816534 -3.484027
v 0.054279327 -0.7816534 3.484027
v 0.10829282 -0.62726855 -3.484027
v 0.101062775 -0.62726855 3.484027
v 0.124135256 -0.4668231 -3.484027
v 0.11690521 -0.4668231 3.484027
v 0.124135256 1.0486369 -3.484027
v 0.11690521 1.0486369 3.484027
vt 1.0014215 0.31125113
vt 1.0014215 0.2978683
vt 0.49861038 0.2978683
vt 0.49861038 0.31125113
vt 1.0014215 0.32367802
vt 0.49861038 0.32367802
vt 1.0014215 0.3361049
vt 0.49861038 0.3361049
vt 1.0014215 0.34853178
vt 0.49861038 0.34853178
vt 1.0014215 0.4680211
vt 0.49861038 0.4680211
vn 0.83084244 -0.5565077 -0
vn 0.7723828 -0.6351574 -0
vn 0.7723828 -0.6351574 -0
vn 0.83084244 -0.5565077 -0
vn 0.92353934 -0.38350362 -0
vn 0.92353934 -0.38350362 -0
vn 0.9803917 -0.19607836 0.0196317
vn 0.9803917 -0.19607836 0.0196317
vn 0.99996924 -0.007842899 -0
vn 0.99996924 -0.007842899 -0
vn 0.9999995 0 0.0009765625
vn 0.9999995 0 0.0009765625
g ENV_SY02_PP_Sticker_Decal_MO_0
f 3/3/3 2/2/2 1/1/1
f 3/3/3 1/1/1 4/4/4
f 4/4/4 1/1/1 5/5/5
f 4/4/4 5/5/5 6/6/6
f 6/6/6 5/5/5 7/7/7
f 6/6/6 7/7/7 8/8/8
f 8/8/8 7/7/7 9/9/9
f 8/8/8 9/9/9 10/10/10
f 10/10/10 9/9/9 11/11/11
f 10/10/10 11/11/11 12/12/12
