g ENV_FP_ShapeObstacle_2_COL
v 63.59786 20.165838 -36.74235
v 63.59657 18.294542 -36.744583
v 63.59657 19.437504 -36.744583
v 63.59786 19.437504 -36.74235
v 63.59786 20.165838 -36.74235
v 63.59657 19.437504 -36.744583
v 63.599144 18.294542 -36.74012
v 63.59786 20.165838 -36.74235
v 63.59786 19.437504 -36.74235
v 63.599144 19.437504 -36.74012
v 63.599144 18.294542 -36.74012
v 63.59786 19.437504 -36.74235
v 63.599144 18.294542 -36.74012
v 63.599144 13.02984 -36.74012
v 63.59786 20.165838 -36.74235
v 63.59786 13.02984 -36.74235
v 63.59657 18.294542 -36.744583
v 63.59657 13.02984 -36.744583
v 77.97198 13.02984 -62.13607
v 79.89494 13.02984 -65.57817
v 79.89494 20.165838 -65.57817
v 77.97198 20.165838 -62.13607
v 74.83413 13.02984 -56.585823
v 79.89494 20.665838 -65.57817
v 74.83413 20.165838 -56.585823
v 77.97198 20.665838 -62.13607
v 74.83413 20.665838 -56.585823
v 79.89494 20.165838 -65.57817
v 79.89494 13.02984 -65.57817
v 90.02562 13.02984 -52.24378
v 90.02562 20.165838 -52.24378
v 79.89494 20.665838 -65.57817
v 90.02562 20.665838 -52.24378
v 90.02562 20.165838 -52.24378
v 90.02562 13.02984 -52.24378
v 96.599915 13.02984 -36.856094
v 96.599915 20.165838 -36.856094
v 90.02562 20.665838 -52.24378
v 96.599915 20.665838 -36.856094
v 96.599915 20.165838 -36.856094
v 96.599915 13.02984 -36.856094
v 92.57752 13.02984 -36.838634
v 92.57752 20.165838 -36.838634
v 96.599915 20.665838 -36.856094
v 86.25164 13.02984 -36.8102
v 92.57752 20.665838 -36.838634
v 86.25164 20.165838 -36.8102
v 86.25164 20.665838 -36.8102
v 92.57752 20.665838 -36.838634
v 86.25164 20.665838 -36.8102
v 80.51219 20.665838 -46.75117
v 85.268906 20.665838 -49.497475
v 74.83413 20.665838 -56.585823
v 96.599915 20.665838 -36.856094
v 77.97198 20.665838 -62.13607
v 90.02562 20.665838 -52.24378
v 79.89494 20.665838 -65.57817
v 77.97198 13.02984 -62.13607
v 90.02562 13.02984 -52.24378
v 79.89494 13.02984 -65.57817
v 85.268906 13.02984 -49.497475
v 96.599915 13.02984 -36.856094
v 74.83413 13.02984 -56.585823
v 92.57752 13.02984 -36.838634
v 80.51219 13.02984 -46.75117
v 86.25164 13.02984 -36.8102
v 69.2048 13.02984 -46.683456
v 74.93129 13.02984 -36.76495
v 72.05502 13.02984 -41.74676
v 63.59657 13.02984 -36.744583
v 63.599144 13.02984 -36.74012
v 63.59657 13.02984 -36.744583
v 63.59786 13.02984 -36.74235
v 72.05502 13.02984 -41.74676
v 63.599144 13.02984 -36.74012
v 86.25164 20.165838 -36.8102
v 86.25164 13.02984 -36.8102
v 74.93129 13.02984 -36.76495
v 74.93129 18.294542 -36.76495
v 86.25164 20.665838 -36.8102
v 63.599144 13.02984 -36.74012
v 74.93129 19.958078 -36.76495
v 63.599144 18.294542 -36.74012
v 63.599144 19.437504 -36.74012
v 69.2048 13.02984 -46.683456
v 74.83413 13.02984 -56.585823
v 74.83413 20.165838 -56.585823
v 69.2048 18.294542 -46.683456
v 74.83413 20.665838 -56.585823
v 63.59657 13.02984 -36.744583
v 69.2048 19.958078 -46.683456
v 63.59657 18.294542 -36.744583
v 63.59657 19.437504 -36.744583
v 74.83413 20.665838 -56.585823
v 80.51219 20.665838 -46.75117
v 69.2048 19.958078 -46.683456
v 72.05502 19.958078 -41.74676
v 63.59657 19.437504 -36.744583
v 74.93129 19.958078 -36.76495
v 86.25164 20.665838 -36.8102
v 63.599144 19.437504 -36.74012
v 72.05502 19.958078 -41.74676
v 63.599144 19.437504 -36.74012
v 63.59786 19.437504 -36.74235
v 63.59657 19.437504 -36.744583
vt 0.21068954 3.317999
vt 0.20811272 1.446703
vt 0.20811272 2.5896645
vt 0.21068954 2.5896645
vt 0.21068954 3.317999
vt 0.20811272 2.5896645
vt 0.21326637 1.446703
vt 0.21068954 3.317999
vt 0.21068954 2.5896645
vt 0.21326637 2.5896645
vt 0.21326637 1.446703
vt 0.21068954 2.5896645
vt 0.21326637 1.446703
vt 0.21326637 -3.817999
vt 0.21068954 3.317999
vt 0.21068954 -3.817999
vt 0.20811272 1.446703
vt 0.20811272 -3.817999
vt -15.888578 -3.817999
vt -19.831383 -3.817999
vt -19.831383 3.317999
vt -15.888578 3.317999
vt -9.512746 -3.817999
vt -19.831383 3.817999
vt -9.512746 3.317999
vt -15.888578 3.817999
vt -9.512746 3.817999
vt -16.571098 3.317999
vt -16.571098 -3.817999
vt 0.048790872 -3.817999
vt 0.048790872 3.317999
vt -16.571098 3.817999
vt 0.048790872 3.817999
vt 0.048790872 3.317999
vt 0.048790872 -3.817999
vt 16.655602 -3.817999
vt 16.655602 3.317999
vt 0.048790872 3.817999
vt 16.655602 3.817999
vt -19.806318 3.317999
vt -19.806318 -3.817999
vt -15.783887 -3.817999
vt -15.783887 3.317999
vt -19.806318 3.817999
vt -9.457938 -3.817999
vt -15.783887 3.817999
vt -9.457938 3.317999
vt -9.457938 3.817999
vt -14.617185 -9.826328
vt -11.478858 -4.33374
vt 1.9919869E-15 -4.33374
vt 1.9919869E-15 -9.826328
vt 11.356087 -4.33374
vt -16.613266 -13.31855
vt 14.593807 -9.826328
vt 1.9919869E-15 -15.318916
vt 16.613266 -13.212723
vt 14.593807 -9.826328
vt 4.0762897E-15 -15.318916
vt 16.613266 -13.212723
vt 4.0762897E-15 -9.826328
vt -16.613266 -13.31855
vt 11.356087 -4.33374
vt -14.617185 -9.826328
vt 4.0762897E-15 -4.33374
vt -11.478858 -4.33374
vt 5.595068 5.492584
vt -5.85785 5.492584
vt -0.10534477 5.492584
vt -0.20811272 15.318909
vt -0.21326637 15.318909
vt -0.20811272 15.318909
vt -0.21068954 15.318909
vt -0.10534477 5.492584
vt -0.21326637 15.318909
vt -9.468549 3.3166962
vt -9.468549 -3.8193016
vt 1.8518873 -3.8193033
vt 1.8518873 1.4453984
vt -9.468549 3.8166962
vt 13.184049 -3.8193016
vt 1.8518873 3.1089346
vt 13.184049 1.4454002
vt 13.184049 2.5883617
vt 1.8962132 -3.8202548
vt -9.494382 -3.8202493
vt -9.494382 3.3157485
vt 1.8962132 1.4444472
vt -9.494382 3.8157485
vt 13.308191 -3.8202493
vt 1.8962132 3.107983
vt 13.308191 1.4444525
vt 13.308191 2.587414
vt 11.356078 -4.5634704
vt -8.474906E-06 -4.563469
vt 5.5950613 5.287868
vt -0.10535168 5.287869
vt -0.20811847 15.12753
vt -5.8578568 5.28787
vt -11.478867 -4.5634675
vt -0.21327212 15.12753
vt -0.10535168 5.287869
vt -0.21327212 15.12753
vt -0.2106953 15.12753
vt -0.20811847 15.12753
vn -0.86602443 0 0.5000017
vn -0.86602443 0 0.5000017
vn -0.86602443 0 0.5000017
vn 0.86602443 0 -0.5000017
vn -0.86602443 0 0.5000017
vn -0.86602443 0 0.5000017
vn -0.86602443 0 0.5000017
vn 0.86602443 0 -0.5000017
vn -0.86602443 0 0.5000017
vn -0.86602443 0 0.5000017
vn -0.86602443 0 0.5000017
vn -0.86602443 0 0.5000017
vn -0.86602443 0 0.5000017
vn -0.86602443 0 0.5000017
vn -0.86602443 0 0.5000017
vn -0.86602443 0 0.5000017
vn -0.86602443 0 0.5000017
vn -0.86602443 0 0.5000017
vn -0.8705122 0 -0.49214676
vn -0.8730041 0 -0.48771295
vn -0.8730041 0 -0.48771295
vn -0.8705122 0 -0.49214676
vn -0.8705122 0 -0.49214676
vn -0.87300396 0 -0.48771298
vn -0.8705122 0 -0.49214676
vn -0.87300396 0 -0.48771298
vn -0.8705123 0 -0.49214673
vn 0.79626185 0 -0.60495216
vn 0.79626185 0 -0.60495216
vn 0.79626185 0 -0.60495216
vn 0.79626185 0 -0.60495216
vn 0.7962617 0 -0.60495216
vn 0.7962617 0 -0.60495216
vn 0.9195864 0 -0.39288786
vn 0.9195864 0 -0.39288786
vn 0.9195864 0 -0.39288786
vn 0.9195864 0 -0.39288786
vn 0.9195864 0 -0.39288786
vn 0.9195864 0 -0.39288786
vn 0.00434105 0 0.9999906
vn 0.00434105 0 0.9999906
vn 0.00434105 0 0.9999906
vn 0.00434105 0 0.9999906
vn 0.004341088 0 0.9999906
vn 0.0044951253 0 0.99998987
vn 0.0044951253 0 0.99998987
vn 0.0044951253 0 0.99998987
vn 0.0044951253 0 0.99998987
vn -0 1 0
vn -0 1 0
vn -0 1 0
vn -0 1 0
vn -0 1 0
vn -0 1 0
vn -0 1 0
vn -0 1 0
vn -0 1 0
vn -0 -1 0
vn -0 -1 0
vn -0 -1 0
vn -0 -1 0
vn -0 -1 0
vn -0 -1 0
vn -0 -1 0
vn -0 -1 0
vn -0 -1 0
vn -0 -1 0
vn -0 -1 0
vn -0 -1 0
vn -0 -1 0
vn -0 -1 0
vn -0 -1 0
vn -0 -1 0
vn -0 -1 0
vn -0 -1 0
vn 0.003997078 0 0.999992
vn 0.003997078 0 0.999992
vn 0.0039970786 0 0.999992
vn 0.003997078 0 0.999992
vn 0.003997078 0 0.999992
vn 0.0021912768 0 0.9999976
vn 0.003997116 0 0.999992
vn 0.0021912768 0 0.9999976
vn 0.0021912772 0 0.9999976
vn -0.8693443 0 -0.49420694
vn -0.86934435 0 -0.49420685
vn -0.8693443 0 -0.49420694
vn -0.8693443 0 -0.49420694
vn -0.86934435 0 -0.49420685
vn -0.870915 0 -0.49143365
vn -0.8693443 0 -0.49420694
vn -0.870915 0 -0.49143365
vn -0.870915 0 -0.49143365
vn -0.062215887 0.99741614 0.035920527
vn -0.062215887 0.99741614 0.035920527
vn -0.062215887 0.99741614 0.035920527
vn -0.062215887 0.99741614 0.035920523
vn -0.04581559 0.9985996 0.026451765
vn -0.062215887 0.99741614 0.035920523
vn -0.062215887 0.99741614 0.035920527
vn -0.045815594 0.9985996 0.026451766
vn -0.045815594 0.9985996 0.026451766
vn -0.045815594 0.9985996 0.026451766
vn -0.045815814 0.9985996 0.026451893
vn -0.04581559 0.9985996 0.026451765
g ENV_FP_ShapeObstacle_2_COL_0
f 3/3/3 2/2/2 1/1/1
f 6/6/6 5/5/5 4/4/4
f 9/9/9 8/8/8 7/7/7
f 12/12/12 11/11/11 10/10/10
f 15/15/15 14/14/14 13/13/13
f 15/15/15 16/16/16 14/14/14
f 17/17/17 16/16/16 15/15/15
f 17/17/17 18/18/18 16/16/16
f 21/21/21 20/20/20 19/19/19
f 21/21/21 19/19/19 22/22/22
f 22/22/22 19/19/19 23/23/23
f 24/24/24 21/21/21 22/22/22
f 22/22/22 23/23/23 25/25/25
f 24/24/24 22/22/22 26/26/26
f 26/26/26 22/22/22 25/25/25
f 26/26/26 25/25/25 27/27/27
f 30/30/30 29/29/29 28/28/28
f 31/31/31 30/30/30 28/28/28
f 31/31/31 28/28/28 32/32/32
f 33/33/33 31/31/31 32/32/32
f 36/36/36 35/35/35 34/34/34
f 37/37/37 36/36/36 34/34/34
f 37/37/37 34/34/34 38/38/38
f 39/39/39 37/37/37 38/38/38
f 42/42/42 41/41/41 40/40/40
f 43/43/43 42/42/42 40/40/40
f 43/43/43 40/40/40 44/44/44
f 45/45/45 42/42/42 43/43/43
f 46/46/46 43/43/43 44/44/44
f 47/47/47 45/45/45 43/43/43
f 47/47/47 43/43/43 46/46/46
f 48/48/48 47/47/47 46/46/46
f 51/51/51 50/50/50 49/49/49
f 51/51/51 49/49/49 52/52/52
f 53/53/53 51/51/51 52/52/52
f 52/52/52 49/49/49 54/54/54
f 53/53/53 52/52/52 55/55/55
f 52/52/52 54/54/54 56/56/56
f 55/55/55 52/52/52 56/56/56
f 55/55/55 56/56/56 57/57/57
f 60/60/60 59/59/59 58/58/58
f 59/59/59 61/61/61 58/58/58
f 59/59/59 62/62/62 61/61/61
f 58/58/58 61/61/61 63/63/63
f 62/62/62 64/64/64 61/61/61
f 61/61/61 65/65/65 63/63/63
f 61/61/61 64/64/64 65/65/65
f 64/64/64 66/66/66 65/65/65
f 63/63/63 65/65/65 67/67/67
f 65/65/65 66/66/66 68/68/68
f 67/67/67 65/65/65 69/69/69
f 65/65/65 68/68/68 69/69/69
f 67/67/67 69/69/69 70/70/70
f 69/69/69 68/68/68 71/71/71
f 74/74/74 73/73/73 72/72/72
f 74/74/74 75/75/75 73/73/73
f 78/78/78 77/77/77 76/76/76
f 79/79/79 78/78/78 76/76/76
f 79/79/79 76/76/76 80/80/80
f 81/81/81 78/78/78 79/79/79
f 82/82/82 79/79/79 80/80/80
f 83/83/83 81/81/81 79/79/79
f 83/83/83 79/79/79 82/82/82
f 84/84/84 83/83/83 82/82/82
f 87/87/87 86/86/86 85/85/85
f 87/87/87 85/85/85 88/88/88
f 89/89/89 87/87/87 88/88/88
f 88/88/88 85/85/85 90/90/90
f 89/89/89 88/88/88 91/91/91
f 88/88/88 90/90/90 92/92/92
f 91/91/91 88/88/88 92/92/92
f 91/91/91 92/92/92 93/93/93
f 96/96/96 95/95/95 94/94/94
f 97/97/97 95/95/95 96/96/96
f 98/98/98 97/97/97 96/96/96
f 97/97/97 99/99/99 95/95/95
f 99/99/99 100/100/100 95/95/95
f 101/101/101 99/99/99 97/97/97
f 104/104/104 103/103/103 102/102/102
f 105/105/105 104/104/104 102/102/102
