g ENV_platform06_Col
v 21.982767 315.43042 -14.282719
v 21.977026 326.92706 -14.276975
v -21.477026 326.92706 -14.276975
v -21.482767 315.43042 -14.282719
v -21.477026 326.92706 -14.276975
v -21.499998 325.94266 -13.292618
v -21.499998 315.43042 -13.29262
v -21.482767 315.43042 -14.282719
v -16.561935 326.93277 8.7078085
v -16.583447 325.94266 8.6905775
v -21.499998 325.94266 -13.292618
v -21.477026 326.92706 -14.276975
v -21.477026 326.92706 -14.276975
v 21.977026 326.92706 -14.276975
v 17.061935 326.93277 8.7078085
v -16.561935 326.93277 8.7078085
v 21.977026 326.92706 -14.276975
v 21.982767 315.43042 -14.282719
v 22 315.43042 -13.29262
v 22 325.94266 -13.292618
v 17.061935 326.93277 8.7078085
v 21.977026 326.92706 -14.276975
v 22 325.94266 -13.292618
v 17.083447 325.94266 8.6905775
v 17.061935 326.93277 8.7078085
v 17.083447 325.94266 8.6905775
v -16.583447 325.94266 8.6905775
v -16.561935 326.93277 8.7078085
vt 0.01961818 0.8197931
vt 0.15002704 0.81957686
vt 0.11867997 0.13471493
vt 0.019618452 0.13469708
vt 0.13780972 0.11815065
vt 0.1532321 0.11958897
vt 0.1623984 0.020957232
vt 0.14713931 0.01953125
vt 0.49660563 0.21229532
vt 0.49969527 0.1968857
vt 0.1532321 0.11958897
vt 0.11867997 0.13471493
vt 0.11867997 0.13471493
vt 0.15002704 0.81957686
vt 0.49660593 0.74219525
vt 0.49660563 0.21229532
vt 0.15002704 0.81957686
vt 0.14713879 0.9349578
vt 0.16239841 0.9335326
vt 0.15323159 0.83490205
vt 0.49660593 0.74219525
vt 0.15002704 0.81957686
vt 0.15323159 0.83490205
vt 0.49969527 0.75760484
vt 0.0006389431 0.029409222
vt 0 0
vt 1 7.890831E-11
vt 0.9993611 0.029409222
vn -0 0 -1
vn -0 0 -1
vn -0 0 -1
vn -0 0 -1
vn -0.99983275 0 -0.018289622
vn -0.9909045 0 0.13456729
vn -0.99983275 0 -0.018289622
vn -0.99983275 0 -0.018289622
vn -0.97625875 0 0.21660742
vn -0.97495294 0 0.22241113
vn -0.9909045 0 0.13456729
vn -0.9793858 0 0.20199832
vn -0 1 0
vn -0 1 0
vn -0 1 0
vn -0 1 0
vn 0.99983275 0 -0.018289622
vn 0.99983275 0 -0.018289622
vn 0.99983275 0 -0.018289622
vn 0.9900713 0 0.14056566
vn 0.97625875 0 0.21660742
vn 0.9793858 0 0.20199832
vn 0.9900713 0 0.14056566
vn 0.97625875 0 0.21660742
vn -0 0 1
vn -0 0 1
vn -0 0 1
vn -0 0 1
g ENV_platform06_Col_0
f 3/3/3 2/2/2 1/1/1
f 4/4/4 3/3/3 1/1/1
f 7/7/7 6/6/6 5/5/5
f 8/8/8 7/7/7 5/5/5
f 11/11/11 10/10/10 9/9/9
f 12/12/12 11/11/11 9/9/9
f 15/15/15 14/14/14 13/13/13
f 16/16/16 15/15/15 13/13/13
f 19/19/19 18/18/18 17/17/17
f 20/20/20 19/19/19 17/17/17
f 23/23/23 22/22/22 21/21/21
f 24/24/24 23/23/23 21/21/21
f 27/27/27 26/26/26 25/25/25
f 28/28/28 27/27/27 25/25/25
