g ENV_SY02_HBS_S2_Support_MO
v -8.761883E-06 -0.105083644 -0.50662315
v 0.65098023 8.761883E-06 -0.5347909
v -8.761883E-06 8.761883E-06 -0.5347909
v 0.65098023 -0.105083644 -0.50662315
v -8.761883E-06 -0.18200833 -0.4296985
v 0.7083982 -0.09276873 -0.4853186
v 0.7083982 8.761883E-06 -0.51016104
v 0.65098023 -0.18200833 -0.4296985
v -8.761883E-06 -0.21015668 -0.32462543
v 0.7083982 -0.1606844 -0.41740292
v 0.73217744 -0.06305444 -0.4338357
v 0.73217744 8.761883E-06 -0.45073244
v 0.73217744 8.761883E-06 -0.32462543
v 0.73217744 -0.1092208 -0.38766927
v 0.73217744 -0.12897879 -0.31393448
v 0.73217744 8.761883E-06 0.32462364
v 0.73217744 -0.12897879 0.3139326
v 0.7083982 -0.18637753 -0.32149354
v 0.65098023 -0.21015668 -0.32462543
v 0.7083982 -0.18637753 0.32149166
v 0.65098023 -0.21015668 0.32462364
v -8.761883E-06 -0.21015668 0.32462364
v -8.761883E-06 -0.18200833 0.42969662
v 0.73217744 -0.1092208 0.38766748
v 0.65098023 -0.18200833 0.42969662
v -8.761883E-06 -0.105083644 0.50664073
v 0.7083982 -0.1606844 0.41740113
v 0.65098023 -0.105083644 0.50664073
v -8.761883E-06 8.761883E-06 0.534789
v 0.65098023 8.761883E-06 0.534789
v 0.7083982 8.761883E-06 0.5101786
v 0.7083982 -0.09276873 0.4853168
v 0.73217744 8.761883E-06 0.45073062
v 0.73217744 -0.06305444 0.4338339
v 0.73217744 0.063052595 0.4338339
v 0.7083982 8.761883E-06 0.5101786
v 0.7083982 0.09276688 0.4853168
v 0.65098023 8.761883E-06 0.534789
v 0.73217744 0.109219015 0.38766748
v 0.73217744 0.128977 0.3139326
v 0.7083982 0.16068256 0.41740113
v 0.65098023 0.1050818 0.50664073
v -8.761883E-06 0.1050818 0.50664073
v -8.761883E-06 8.761883E-06 0.534789
v -8.761883E-06 0.18200648 0.42969662
v 0.65098023 0.18200648 0.42969662
v -8.761883E-06 0.2101742 0.32462364
v 0.7083982 0.18637568 0.32149166
v 0.65098023 0.2101742 0.32462364
v 0.73217744 0.128977 -0.31393448
v 0.65098023 0.2101742 -0.32462543
v -8.761883E-06 0.2101742 -0.32462543
v -8.761883E-06 0.18200648 -0.4296985
v 0.7083982 0.18637568 -0.32149354
v 0.73217744 0.109219015 -0.38766927
v 0.65098023 0.18200648 -0.4296985
v -8.761883E-06 0.1050818 -0.50662315
v 0.7083982 0.16068256 -0.41740292
v 0.73217744 0.063052595 -0.4338357
v 0.7083982 0.09276688 -0.4853186
v 0.7083982 8.761883E-06 -0.51016104
v 0.65098023 0.1050818 -0.50662315
v -8.761883E-06 8.761883E-06 -0.5347909
v 0.65098023 8.761883E-06 -0.5347909
vt 0.005234403 0.0023504307
vt 0.005234403 0.005234403
vt 0.006195727 0.0023504307
vt 0.005234403 0.005234403
vt 0.005234403 0.0023504307
vt 0.005234403 0.005234403
vt 0.005234403 0.005234403
vt 0.004273079 0.005234403
vt 0.004273079 0.0023504307
vt 0.004273079 0.005234403
vt 0.004273079 0.005234403
vt 0.005234403 0.006195727
vt 0.004273079 0.006195727
vt 0.004273079 0.005234403
vt 0.004273079 0.005234403
vt 0.0023504307 0.006195727
vt 0.0023504307 0.005234403
vt 0.004273079 0.005234403
vt 0.004273079 0.005234403
vt 0.0023504307 0.005234403
vt 0.0023504307 0.005234403
vt 0.0013891066 0.0023504307
vt 0.0013891066 0.0023504307
vt 0.0013891066 0.005234403
vt 0.0013891066 0.005234403
vt 0.00042778254 0.0023504307
vt 0.0013891066 0.005234403
vt 0.0013891066 0.005234403
vt 0.00042778254 0.0023504307
vt 0.0013891066 0.005234403
vt 0.0013891066 0.005234403
vt 0.0013891066 0.005234403
vt 0.0013891066 0.006195727
vt 0.0013891066 0.005234403
vt 0.0013891066 0.006195727
vt 0.0013891066 0.006195727
vt 0.0013891066 0.006195727
vt 0.0013891066 0.006195727
vt 0.0013891066 0.006195727
vt 0.0023504307 0.006195727
vt 0.0013891066 0.006195727
vt 0.0013891066 0.006195727
vt 0.00042778254 0.009079699
vt 0.00042778254 0.009079699
vt 0.0013891066 0.009079699
vt 0.0013891066 0.006195727
vt 0.0013891066 0.009079699
vt 0.0023504307 0.006195727
vt 0.0023504307 0.007157051
vt 0.004273079 0.006195727
vt 0.004273079 0.006195727
vt 0.004273079 0.009079699
vt 0.005234403 0.009079699
vt 0.004273079 0.006195727
vt 0.004273079 0.006195727
vt 0.004273079 0.006195727
vt 0.005234403 0.009079699
vt 0.004273079 0.006195727
vt 0.004273079 0.006195727
vt 0.005234403 0.006195727
vt 0.005234403 0.006195727
vt 0.005234403 0.006195727
vt 0.006195727 0.009079699
vt 0.005234403 0.006195727
vn -0.003575325 -0.49820918 -0.8670495
vn 0.027786195 0.003575325 -0.9996075
vn -0.003575325 0.003575325 -0.99998724
vn 0.027786195 -0.49820918 -0.86661154
vn -0.003575325 -0.8667072 -0.49880445
vn 0.64717644 -0.38060343 -0.6605329
vn 0.64717644 0.003575325 -0.7623319
vn 0.027786195 -0.8667072 -0.49804273
vn -0.003575325 -0.9999937 -0
vn 0.65501684 -0.65501684 -0.376704
vn 0.96863216 -0.121870816 -0.2165623
vn 0.96863216 0.003575325 -0.24847323
vn 0.9999937 0.003575325 -0
vn 0.96863216 -0.20811504 -0.13579342
vn 0.9905259 -0.13732593 -0
vn 0.9999937 0.003575325 -0
vn 0.9905259 -0.13732593 -0
vn 0.68637836 -0.7255803 -0.049173582
vn 0.035604227 -0.999366 -0
vn 0.68637836 -0.7255803 0.049173582
vn 0.035604227 -0.999366 -0
vn -0.003575325 -0.9999937 -0
vn -0.003575325 -0.8667072 0.49880445
vn 0.96863216 -0.20811504 0.13579342
vn 0.027786195 -0.8667072 0.49804273
vn -0.003575325 -0.49820918 0.8670495
vn 0.65501684 -0.65501684 0.376704
vn 0.027786195 -0.49820918 0.86661154
vn -0.003575325 0.003575325 0.99998724
vn 0.027786195 0.003575325 0.9996075
vn 0.64717644 0.003575325 0.7623319
vn 0.64717644 -0.38060343 0.6605329
vn 0.96863216 0.003575325 0.24847323
vn 0.96863216 -0.121870816 0.2165623
vn 0.96863216 0.12118101 0.21694905
vn 0.64717644 0.003575325 0.7623319
vn 0.64717644 0.3799137 0.66092986
vn 0.027786195 0.003575325 0.9996075
vn 0.96863216 0.20742524 0.13684478
vn 0.9906194 0.1366502 -0
vn 0.65501684 0.65432715 0.37790066
vn 0.027786195 0.4975195 0.8670077
vn -0.003575325 0.4975195 0.86744547
vn -0.003575325 0.003575325 0.99998724
vn -0.003575325 0.86601746 0.500001
vn 0.027786195 0.86601746 0.49924114
vn -0.003575325 0.99930394 0.03713346
vn 0.68637836 0.7248906 0.058466963
vn 0.03562659 0.99930394 0.011062022
vn 0.9906194 0.1366502 -0
vn 0.03562659 0.99930394 -0.011062022
vn -0.003575325 0.99930394 -0.03713346
vn -0.003575325 0.86601746 -0.500001
vn 0.68637836 0.7248906 -0.058466963
vn 0.96863216 0.20742524 -0.13684478
vn 0.027786195 0.86601746 -0.49924114
vn -0.003575325 0.4975195 -0.86744547
vn 0.65501684 0.65432715 -0.37790066
vn 0.96863216 0.12118101 -0.21694905
vn 0.64717644 0.3799137 -0.66092986
vn 0.64717644 0.003575325 -0.7623319
vn 0.027786195 0.4975195 -0.8670077
vn -0.003575325 0.003575325 -0.99998724
vn 0.027786195 0.003575325 -0.9996075
g ENV_SY02_HBS_S2_Support_MO_0
f 3/3/3 2/2/2 1/1/1
f 2/2/2 4/4/4 1/1/1
f 1/1/1 4/4/4 5/5/5
f 4/4/4 2/2/2 6/6/6
f 2/2/2 7/7/7 6/6/6
f 4/4/4 8/8/8 5/5/5
f 5/5/5 8/8/8 9/9/9
f 6/6/6 10/10/10 4/4/4
f 10/10/10 8/8/8 4/4/4
f 6/6/6 7/7/7 11/11/11
f 7/7/7 12/12/12 11/11/11
f 12/12/12 13/13/13 11/11/11
f 11/11/11 13/13/13 14/14/14
f 11/11/11 14/14/14 6/6/6
f 14/14/14 10/10/10 6/6/6
f 14/14/14 15/15/15 10/10/10
f 14/14/14 13/13/13 15/15/15
f 15/15/15 13/13/13 16/16/16
f 17/17/17 15/15/15 16/16/16
f 15/15/15 18/18/18 10/10/10
f 10/10/10 18/18/18 8/8/8
f 18/18/18 15/15/15 17/17/17
f 8/8/8 19/19/19 9/9/9
f 18/18/18 19/19/19 8/8/8
f 20/20/20 18/18/18 17/17/17
f 19/19/19 18/18/18 20/20/20
f 9/9/9 19/19/19 21/21/21
f 21/21/21 19/19/19 20/20/20
f 22/22/22 9/9/9 21/21/21
f 22/22/22 21/21/21 23/23/23
f 20/20/20 17/17/17 24/24/24
f 17/17/17 16/16/16 24/24/24
f 21/21/21 25/25/25 23/23/23
f 23/23/23 25/25/25 26/26/26
f 21/21/21 20/20/20 27/27/27
f 27/27/27 20/20/20 24/24/24
f 25/25/25 21/21/21 27/27/27
f 25/25/25 28/28/28 26/26/26
f 26/26/26 28/28/28 29/29/29
f 28/28/28 30/30/30 29/29/29
f 30/30/30 28/28/28 31/31/31
f 28/28/28 25/25/25 32/32/32
f 28/28/28 32/32/32 31/31/31
f 25/25/25 27/27/27 32/32/32
f 31/31/31 32/32/32 33/33/33
f 27/27/27 24/24/24 34/34/34
f 32/32/32 27/27/27 34/34/34
f 24/24/24 16/16/16 34/34/34
f 32/32/32 34/34/34 33/33/33
f 34/34/34 16/16/16 33/33/33
f 33/33/33 16/16/16 35/35/35
f 36/36/36 33/33/33 35/35/35
f 37/37/37 36/36/36 35/35/35
f 38/38/38 36/36/36 37/37/37
f 35/35/35 16/16/16 39/39/39
f 37/37/37 35/35/35 39/39/39
f 39/39/39 16/16/16 40/40/40
f 16/16/16 13/13/13 40/40/40
f 41/41/41 37/37/37 39/39/39
f 41/41/41 39/39/39 40/40/40
f 42/42/42 38/38/38 37/37/37
f 42/42/42 37/37/37 41/41/41
f 38/38/38 42/42/42 43/43/43
f 44/44/44 38/38/38 43/43/43
f 43/43/43 42/42/42 45/45/45
f 42/42/42 46/46/46 45/45/45
f 46/46/46 42/42/42 41/41/41
f 45/45/45 46/46/46 47/47/47
f 48/48/48 41/41/41 40/40/40
f 46/46/46 41/41/41 48/48/48
f 46/46/46 49/49/49 47/47/47
f 49/49/49 46/46/46 48/48/48
f 40/40/40 50/50/50 48/48/48
f 13/13/13 50/50/50 40/40/40
f 49/49/49 51/51/51 47/47/47
f 51/51/51 52/52/52 47/47/47
f 52/52/52 51/51/51 53/53/53
f 48/48/48 54/54/54 49/49/49
f 50/50/50 54/54/54 48/48/48
f 54/54/54 51/51/51 49/49/49
f 50/50/50 13/13/13 55/55/55
f 54/54/54 50/50/50 55/55/55
f 51/51/51 56/56/56 53/53/53
f 53/53/53 56/56/56 57/57/57
f 51/51/51 54/54/54 58/58/58
f 58/58/58 54/54/54 55/55/55
f 56/56/56 51/51/51 58/58/58
f 55/55/55 13/13/13 59/59/59
f 58/58/58 55/55/55 59/59/59
f 59/59/59 13/13/13 12/12/12
f 60/60/60 58/58/58 59/59/59
f 60/60/60 59/59/59 12/12/12
f 56/56/56 58/58/58 60/60/60
f 61/61/61 60/60/60 12/12/12
f 56/56/56 62/62/62 57/57/57
f 62/62/62 56/56/56 60/60/60
f 62/62/62 60/60/60 61/61/61
f 57/57/57 62/62/62 63/63/63
f 64/64/64 62/62/62 61/61/61
f 62/62/62 64/64/64 63/63/63
