g ENV_S05_Pillar_SquaresVase_MO
v 2.063211 0.081321955 -3.4570694E-05
v 1.9520752 -3.4570694E-05 -0.00062584877
v 1.896803 -3.4570694E-05 0.5022185
v 2.0047612 0.081321955 0.53096294
v 2.421298 1.4679306 -3.4570694E-05
v 1.7867758 0.081321955 1.0315905
v 2.0969062 1.4679306 1.210634
v 1.6904929 -3.4570694E-05 0.9760227
v 1.3906336 -3.4570694E-05 1.3812537
v 2.352725 1.4679306 0.6231079
v 2.2756543 1.5784011 0.6025655
v 2.3420105 1.5784011 -0.0007736683
v 2.0281854 1.5784011 1.1709533
v 1.6683986 1.5784011 1.6571717
v 1.4697733 0.081321955 1.460098
v 1.7248533 1.4679306 1.7134781
v 1.2106293 1.4679306 2.096911
v 1.1696186 1.5784011 2.0290766
v 0.61298 1.5784011 2.2877774
v 1.0315858 0.081321955 1.7867804
v 0.97498345 -3.4570694E-05 1.6912365
v 0.5109333 -3.4570694E-05 1.906857
v 0.5399734 0.081321955 2.0152588
v 0.6336701 1.4679306 2.364996
v 3.4570694E-05 1.4679306 2.4213028
v 3.4570694E-05 1.5784011 2.3418674
v -0.61298466 1.5784011 2.2877774
v 3.4570694E-05 0.081321955 2.0632153
v 3.4570694E-05 -3.4570694E-05 1.9520798
v -0.5109379 -3.4570694E-05 1.906857
v -0.539978 0.081321955 2.0152588
v -0.6336746 1.4679306 2.364996
v -1.210634 1.4679306 2.096911
v -1.1702883 1.5784011 2.0286336
v -1.0315905 0.081321955 1.7867804
v -0.97550535 -3.4570694E-05 1.690867
v 1.9520752 -3.4570694E-05 -0.00062584877
v 3.4570694E-05 -3.4570694E-05 -3.4570694E-05
v 1.896803 -3.4570694E-05 0.5022185
v 1.6904929 -3.4570694E-05 0.9760227
v 1.3906336 -3.4570694E-05 1.3812537
v 0.97498345 -3.4570694E-05 1.6912365
v 0.5109333 -3.4570694E-05 1.906857
v 3.4570694E-05 -3.4570694E-05 1.9520798
v -0.5109379 -3.4570694E-05 1.906857
v -0.97550535 -3.4570694E-05 1.690867
v 2.2756543 1.5784011 0.6025655
v 3.4570694E-05 1.5784011 -3.4570694E-05
v 2.3420105 1.5784011 -0.0007736683
v 2.0281854 1.5784011 1.1709533
v 1.6683986 1.5784011 1.6571717
v 1.1696186 1.5784011 2.0290766
v 0.61298 1.5784011 2.2877774
v 3.4570694E-05 1.5784011 2.3418674
v -0.61298466 1.5784011 2.2877774
v -1.1702883 1.5784011 2.0286336
v -1.0315905 0.081321955 -1.7867758
v -0.97653985 -3.4570694E-05 -1.6902711
v -0.51345015 -3.4570694E-05 -1.8937733
v -0.54256415 0.081321955 -2.0016577
v -1.210634 1.4679306 -2.0969062
v 3.4570694E-05 0.081321955 -2.063211
v 3.4570694E-05 1.4679306 -2.421298
v -3.9339066E-05 -3.4570694E-05 -1.9520013
v 0.5008838 -3.4570694E-05 -1.8949556
v -0.63670444 1.4679306 -2.3490303
v -0.61601424 1.5784011 -2.2720335
v -1.1716921 1.5784011 -2.0278158
v -3.9339066E-05 1.5784011 -2.3419366
v 0.60093534 1.5784011 -2.2735114
v 0.52955437 0.081321955 -2.002914
v 0.6214777 1.4679306 -2.3505082
v 1.2106293 1.4679306 -2.0969062
v 1.1724266 1.5784011 -2.0274465
v 1.6747534 1.5784011 -1.6747534
v 1.0315858 0.081321955 -1.7867758
v 0.97712636 -3.4570694E-05 -1.6899755
v 1.3959539 -3.4570694E-05 -1.3959539
v 1.4752414 0.081321955 -1.4752414
v 1.731282 1.4679306 -1.731282
v 2.0969062 1.4679306 -1.2106293
v 2.0281115 1.5784011 -1.1709486
v 2.2877727 1.5784011 -0.61298
v 1.7867758 0.081321955 -1.0315858
v 1.6904929 -3.4570694E-05 -0.97601795
v 1.9068525 -3.4570694E-05 -0.5109333
v 2.015254 0.081321955 -0.5399734
v 2.3649912 1.4679306 -0.6336701
v 2.421298 1.4679306 -3.4570694E-05
v 2.3420105 1.5784011 -0.0007736683
v 2.063211 0.081321955 -3.4570694E-05
v 1.9520752 -3.4570694E-05 -0.00062584877
v -0.97653985 -3.4570694E-05 -1.6902711
v 3.4570694E-05 -3.4570694E-05 -3.4570694E-05
v -0.51345015 -3.4570694E-05 -1.8937733
v -3.9339066E-05 -3.4570694E-05 -1.9520013
v 0.5008838 -3.4570694E-05 -1.8949556
v 0.97712636 -3.4570694E-05 -1.6899755
v 1.3959539 -3.4570694E-05 -1.3959539
v 1.6904929 -3.4570694E-05 -0.97601795
v 1.9068525 -3.4570694E-05 -0.5109333
v 1.9520752 -3.4570694E-05 -0.00062584877
v -0.61601424 1.5784011 -2.2720335
v 3.4570694E-05 1.5784011 -3.4570694E-05
v -1.1716921 1.5784011 -2.0278158
v -3.9339066E-05 1.5784011 -2.3419366
v 0.60093534 1.5784011 -2.2735114
v 1.1724266 1.5784011 -2.0274465
v 1.6747534 1.5784011 -1.6747534
v 2.0281115 1.5784011 -1.1709486
v 2.2877727 1.5784011 -0.61298
v 2.3420105 1.5784011 -0.0007736683
v -1.0315905 0.081321955 1.7867804
v -0.97550535 -3.4570694E-05 1.690867
v -1.3833227 -3.4570694E-05 1.391525
v -1.462167 0.081321955 1.4707386
v -1.210634 1.4679306 2.096911
v -1.7867804 0.081321955 1.0315905
v -2.096911 1.4679306 1.210634
v -1.6904974 -3.4570694E-05 0.9760227
v -1.891561 -3.4570694E-05 0.5136719
v -1.7159905 1.4679306 1.7259665
v -1.6596837 1.5784011 1.6695118
v -1.1702883 1.5784011 2.0286336
v -2.0281901 1.5784011 1.1710272
v -2.2693777 1.5784011 0.6163099
v -1.9993715 0.081321955 0.5427859
v -2.346375 1.4679306 0.63699985
v -2.4213028 1.4679306 -3.4570694E-05
v -2.3420153 1.5784011 -0.0015864372
v -2.2877774 1.5784011 -0.61298
v -2.0632153 0.081321955 -3.4570694E-05
v -1.9521537 -3.4570694E-05 -0.0012168884
v -1.906857 -3.4570694E-05 -0.5109333
v -2.0152588 0.081321955 -0.5399734
v -2.364996 1.4679306 -0.6336701
v -2.096911 1.4679306 -1.2106293
v -2.0281162 1.5784011 -1.1709486
v -1.674758 1.5784011 -1.6747534
v -1.7867804 0.081321955 -1.0315858
v -1.6904974 -3.4570694E-05 -0.97601795
v -1.3959584 -3.4570694E-05 -1.3959539
v -1.4752462 0.081321955 -1.4752414
v -1.7312865 1.4679306 -1.731282
v -1.210634 1.4679306 -2.0969062
v -1.1716921 1.5784011 -2.0278158
v -1.0315905 0.081321955 -1.7867758
v -0.97653985 -3.4570694E-05 -1.6902711
v -0.97550535 -3.4570694E-05 1.690867
v 3.4570694E-05 -3.4570694E-05 -3.4570694E-05
v -1.3833227 -3.4570694E-05 1.391525
v -1.6904974 -3.4570694E-05 0.9760227
v -1.891561 -3.4570694E-05 0.5136719
v -1.9521537 -3.4570694E-05 -0.0012168884
v -1.906857 -3.4570694E-05 -0.5109333
v -1.6904974 -3.4570694E-05 -0.97601795
v -1.3959584 -3.4570694E-05 -1.3959539
v -0.97653985 -3.4570694E-05 -1.6902711
v -1.6596837 1.5784011 1.6695118
v 3.4570694E-05 1.5784011 -3.4570694E-05
v -1.1702883 1.5784011 2.0286336
v -2.0281901 1.5784011 1.1710272
v -2.2693777 1.5784011 0.6163099
v -2.3420153 1.5784011 -0.0015864372
v -2.2877774 1.5784011 -0.61298
v -2.0281162 1.5784011 -1.1709486
v -1.674758 1.5784011 -1.6747534
v -1.1716921 1.5784011 -2.0278158
vt 0.99215 0.034800697
vt 0.99215 0.030066032
vt 0.9722644 0.030066032
vt 0.9722644 0.034800697
vt 0.99215 0.08593508
vt 0.9523788 0.034800697
vt 0.9523788 0.08593508
vt 0.9523788 0.030066032
vt 0.9315463 0.030066032
vt 0.9722644 0.08593508
vt 0.9722644 0.09066974
vt 0.99215 0.09066974
vt 0.9523788 0.09066974
vt 0.9315463 0.09066974
vt 0.9315463 0.034800697
vt 0.9315463 0.08593508
vt 0.91071373 0.08593508
vt 0.91071373 0.09066974
vt 0.8898812 0.09066974
vt 0.91071373 0.034800697
vt 0.91071373 0.030066032
vt 0.8898812 0.030066032
vt 0.8898812 0.034800697
vt 0.8898812 0.08593508
vt 0.8690487 0.08593508
vt 0.8690487 0.09066974
vt 0.8491631 0.09066974
vt 0.8690487 0.034800697
vt 0.8690487 0.030066032
vt 0.8491631 0.030066032
vt 0.8491631 0.034800697
vt 0.8491631 0.08593508
vt 0.8292775 0.08593508
vt 0.8292775 0.09066974
vt 0.8292775 0.034800697
vt 0.8292775 0.030066032
vt 0.2469137 0.38705978
vt 0.30846435 0.38611284
vt 0.24786063 0.37096193
vt 0.25448915 0.355811
vt 0.26301157 0.34350085
vt 0.27626863 0.3330846
vt 0.29047263 0.32550913
vt 0.30657047 0.3245622
vt 0.32266834 0.32550913
vt 0.33781928 0.33213767
vt 0.49501014 0.5489853
vt 0.42304325 0.52909976
vt 0.48648775 0.56603014
vt 0.49690402 0.52909976
vt 0.49501014 0.51016104
vt 0.4874347 0.49216935
vt 0.47607148 0.47607148
vt 0.45997363 0.4647083
vt 0.44292882 0.45713282
vt 0.42304325 0.45523897
vt 0.99215 0.034800697
vt 0.99215 0.030066032
vt 0.9722644 0.030066032
vt 0.9722644 0.034800697
vt 0.99215 0.08593508
vt 0.9523788 0.034800697
vt 0.9523788 0.08593508
vt 0.9523788 0.030066032
vt 0.9315463 0.030066032
vt 0.9722644 0.08593508
vt 0.9722644 0.09066974
vt 0.99215 0.09066974
vt 0.9523788 0.09066974
vt 0.9315463 0.09066974
vt 0.9315463 0.034800697
vt 0.9315463 0.08593508
vt 0.91071373 0.08593508
vt 0.91071373 0.09066974
vt 0.8898812 0.09066974
vt 0.91071373 0.034800697
vt 0.91071373 0.030066032
vt 0.8898812 0.030066032
vt 0.8898812 0.034800697
vt 0.8898812 0.08593508
vt 0.8690487 0.08593508
vt 0.8690487 0.09066974
vt 0.8491631 0.09066974
vt 0.8690487 0.034800697
vt 0.8690487 0.030066032
vt 0.8491631 0.030066032
vt 0.8491631 0.034800697
vt 0.8491631 0.08593508
vt 0.8292775 0.08593508
vt 0.8292775 0.09066974
vt 0.8292775 0.034800697
vt 0.8292775 0.030066032
vt 0.2469137 0.38705978
vt 0.30846435 0.38611284
vt 0.24786063 0.37096193
vt 0.25448915 0.355811
vt 0.26301157 0.34350085
vt 0.27626863 0.3330846
vt 0.29047263 0.32550913
vt 0.30657047 0.3245622
vt 0.32266834 0.32550913
vt 0.33781928 0.33213767
vt 0.49501014 0.5489853
vt 0.42304325 0.52909976
vt 0.48648775 0.56603014
vt 0.49690402 0.52909976
vt 0.49501014 0.51016104
vt 0.4874347 0.49216935
vt 0.47607148 0.47607148
vt 0.45997363 0.4647083
vt 0.44292882 0.45713282
vt 0.42304325 0.45523897
vt 0.99215 0.034800697
vt 0.99215 0.030066032
vt 0.9722644 0.030066032
vt 0.9722644 0.034800697
vt 0.99215 0.08593508
vt 0.9523788 0.034800697
vt 0.9523788 0.08593508
vt 0.9523788 0.030066032
vt 0.9315463 0.030066032
vt 0.9722644 0.08593508
vt 0.9722644 0.09066974
vt 0.99215 0.09066974
vt 0.9523788 0.09066974
vt 0.9315463 0.09066974
vt 0.9315463 0.034800697
vt 0.9315463 0.08593508
vt 0.91071373 0.08593508
vt 0.91071373 0.09066974
vt 0.8898812 0.09066974
vt 0.91071373 0.034800697
vt 0.91071373 0.030066032
vt 0.8898812 0.030066032
vt 0.8898812 0.034800697
vt 0.8898812 0.08593508
vt 0.8690487 0.08593508
vt 0.8690487 0.09066974
vt 0.8491631 0.09066974
vt 0.8690487 0.034800697
vt 0.8690487 0.030066032
vt 0.8491631 0.030066032
vt 0.8491631 0.034800697
vt 0.8491631 0.08593508
vt 0.8292775 0.08593508
vt 0.8292775 0.09066974
vt 0.8292775 0.034800697
vt 0.8292775 0.030066032
vt 0.2469137 0.38705978
vt 0.30846435 0.38611284
vt 0.24786063 0.37096193
vt 0.25448915 0.355811
vt 0.26301157 0.34350085
vt 0.27626863 0.3330846
vt 0.29047263 0.32550913
vt 0.30657047 0.3245622
vt 0.32266834 0.32550913
vt 0.33781928 0.33213767
vt 0.49501014 0.5489853
vt 0.42304325 0.52909976
vt 0.48648775 0.56603014
vt 0.49690402 0.52909976
vt 0.49501014 0.51016104
vt 0.4874347 0.49216935
vt 0.47607148 0.47607148
vt 0.45997363 0.4647083
vt 0.44292882 0.45713282
vt 0.42304325 0.45523897
vn 0.9529339 -0.29411542 0.07357372
vn 0.08207512 -0.9966261 -0
vn 0.08235234 -0.9921493 0.09411613
vn 0.9215616 -0.29411542 0.25341734
vn 0.9829164 -0.1840521 -0
vn 0.8274447 -0.29411542 0.4783633
vn 0.8509739 -0.18431234 0.49180526
vn 0.074303865 -0.99723566 -0
vn 0.05872205 -0.9982743 -0
vn 0.9529339 -0.18431234 0.24071962
vn 0.098038495 0.99214923 0.07764248
vn 0.098038495 0.99214923 0.07764248
vn 0.08235234 0.99214923 0.09411676
vn 0.07450926 0.99214923 0.10044035
vn 0.6784262 -0.29411542 0.67322654
vn 0.69411236 -0.18431234 0.6958714
vn 0.5058785 -0.18431234 0.84268373
vn 0.05098003 0.99214923 0.11419702
vn 0.0274508 0.99214923 0.122009754
vn 0.49019235 -0.29411542 0.82049227
vn 0.043097205 -0.9990709 -0
vn 0.019607723 -0.9921493 0.12351248
vn 0.24705696 -0.29411542 0.9232871
vn 0.25490004 -0.18431234 0.94923913
vn -0.003921509 -0.18431234 0.9828599
vn -0.003921509 0.99214923 0.12499809
vn -0.02745068 0.99214923 0.122009754
vn -0.003921509 -0.29411542 0.95576185
vn -0.003921509 -0.9999924 -0
vn -0.019607663 -0.9921493 0.12351248
vn -0.24705684 -0.29411542 0.9232871
vn -0.25489998 -0.18431234 0.94923913
vn -0.4980353 -0.18431234 0.8473428
vn -0.050979972 0.99214923 0.11419702
vn -0.48234916 -0.29411542 0.82512754
vn -0.043097086 -0.9990709 -0
vn 0.08207512 -0.9966261 -0
vn -0.003921509 -0.9999924 -0
vn 0.08235234 -0.9921493 0.09411613
vn 0.074303865 -0.99723566 -0
vn 0.05872205 -0.9982743 -0
vn 0.043097205 -0.9990709 -0
vn 0.019607723 -0.9921493 0.12351248
vn -0.003921509 -0.9999924 -0
vn -0.019607663 -0.9921493 0.12351248
vn -0.043097086 -0.9990709 -0
vn 0.098038495 0.99214923 0.07764248
vn -0.003921509 0.99999225 -0.00034526698
vn 0.098038495 0.99214923 0.07764248
vn 0.08235234 0.99214923 0.09411676
vn 0.07450926 0.99214923 0.10044035
vn 0.05098003 0.99214923 0.11419702
vn 0.0274508 0.99214923 0.122009754
vn -0.003921509 0.99214923 0.12499809
vn -0.02745068 0.99214923 0.122009754
vn -0.050979972 0.99214923 0.11419702
vn -0.466663 -0.29411542 -0.83409935
vn -0.043097086 -0.9990709 -0
vn -0.019607663 -0.9921493 -0.12351248
vn -0.24705684 -0.29411542 -0.9232871
vn -0.48234916 -0.18431234 -0.85636926
vn -0.003921509 -0.29411542 -0.95576185
vn -0.003921509 -0.18431234 -0.9828599
vn -0.003921509 -0.9999924 -0
vn 0.019604106 -0.9998079 -0
vn -0.25489998 -0.18431234 -0.94923913
vn -0.02745068 0.99214923 -0.122009754
vn -0.050979972 0.99214923 -0.11419702
vn -0.003921509 0.99214923 -0.12499809
vn 0.0274508 0.99214923 -0.122009754
vn 0.24705696 -0.29411542 -0.9232871
vn 0.25490004 -0.18431234 -0.94923913
vn 0.48234928 -0.18431234 -0.8563692
vn 0.05098003 0.99214923 -0.11419702
vn 0.07450926 0.99214923 -0.10044035
vn 0.46666312 -0.29411542 -0.83409935
vn 0.043097205 -0.9990709 -0
vn 0.066666186 -0.9921493 -0.105808415
vn 0.6784262 -0.29411542 -0.67322654
vn 0.69411236 -0.18431234 -0.6958714
vn 0.8509739 -0.18431234 -0.49180526
vn 0.08235234 0.99214923 -0.09411676
vn 0.098038495 0.99214923 -0.07764248
vn 0.8274447 -0.29411542 -0.4783633
vn 0.074303865 -0.99723566 -0
vn 0.09019542 -0.9921493 -0.086628996
vn 0.9215616 -0.29411542 -0.25341734
vn 0.9529339 -0.18431234 -0.24071962
vn 0.9829164 -0.1840521 -0
vn 0.098038495 0.99214923 0.07764248
vn 0.9529339 -0.29411542 0.07357372
vn 0.08207512 -0.9966261 -0
vn -0.043097086 -0.9990709 -0
vn -0.003921509 -0.9999924 -0
vn -0.019607663 -0.9921493 -0.12351248
vn -0.003921509 -0.9999924 -0
vn 0.019604106 -0.9998079 -0
vn 0.043097205 -0.9990709 -0
vn 0.066666186 -0.9921493 -0.105808415
vn 0.074303865 -0.99723566 -0
vn 0.09019542 -0.9921493 -0.086628996
vn 0.08207512 -0.9966261 -0
vn -0.02745068 0.99214923 -0.122009754
vn -0.003921509 0.99999225 -0.00034526698
vn -0.050979972 0.99214923 -0.11419702
vn -0.003921509 0.99214923 -0.12499809
vn 0.0274508 0.99214923 -0.122009754
vn 0.05098003 0.99214923 -0.11419702
vn 0.07450926 0.99214923 -0.10044035
vn 0.08235234 0.99214923 -0.09411676
vn 0.098038495 0.99214923 -0.07764248
vn 0.098038495 0.99214923 0.07764248
vn -0.48234916 -0.29411542 0.82512754
vn -0.043097086 -0.9990709 -0
vn -0.066666126 -0.9921493 0.105808415
vn -0.67842615 -0.29411542 0.6732266
vn -0.4980353 -0.18431234 0.8473428
vn -0.82744455 -0.29411542 0.47836348
vn -0.85097384 -0.18431234 0.49180532
vn -0.074303746 -0.99723566 -0
vn -0.08207506 -0.9966261 -0
vn -0.6941123 -0.18431234 0.6958715
vn -0.074509144 0.99214923 0.10044035
vn -0.050979972 0.99214923 0.11419702
vn -0.08235228 0.99214923 0.09411708
vn -0.098038435 0.99214923 0.07764248
vn -0.9215615 -0.29411542 0.2534177
vn -0.9529338 -0.18431234 0.24072012
vn -0.9829164 -0.18405212 -0
vn -0.098038435 0.99214923 0.07764248
vn -0.098038435 0.99214923 -0.07764248
vn -0.9529338 -0.29411542 0.07357534
vn -0.08207506 -0.9966261 -0
vn -0.0901953 -0.9921493 -0.086628996
vn -0.9215615 -0.29411542 -0.2534177
vn -0.9529338 -0.18431234 -0.24072012
vn -0.85097384 -0.18431234 -0.49180532
vn -0.08235228 0.99214923 -0.09411708
vn -0.074509144 0.99214923 -0.10044035
vn -0.82744455 -0.29411542 -0.47836348
vn -0.074303746 -0.99723566 -0
vn -0.066666126 -0.9921493 -0.105808415
vn -0.67842615 -0.29411542 -0.6732266
vn -0.6941123 -0.18431234 -0.6958715
vn -0.48234916 -0.18431234 -0.85636926
vn -0.050979972 0.99214923 -0.11419702
vn -0.466663 -0.29411542 -0.83409935
vn -0.043097086 -0.9990709 -0
vn -0.043097086 -0.9990709 -0
vn -0.003921509 -0.9999924 -0
vn -0.066666126 -0.9921493 0.105808415
vn -0.074303746 -0.99723566 -0
vn -0.08207506 -0.9966261 -0
vn -0.08207506 -0.9966261 -0
vn -0.0901953 -0.9921493 -0.086628996
vn -0.074303746 -0.99723566 -0
vn -0.066666126 -0.9921493 -0.105808415
vn -0.043097086 -0.9990709 -0
vn -0.074509144 0.99214923 0.10044035
vn -0.003921509 0.99999225 -0.00034526698
vn -0.050979972 0.99214923 0.11419702
vn -0.08235228 0.99214923 0.09411708
vn -0.098038435 0.99214923 0.07764248
vn -0.098038435 0.99214923 0.07764248
vn -0.098038435 0.99214923 -0.07764248
vn -0.08235228 0.99214923 -0.09411708
vn -0.074509144 0.99214923 -0.10044035
vn -0.050979972 0.99214923 -0.11419702
g ENV_S05_Pillar_SquaresVase_MO_0
f 3/3/3 2/2/2 1/1/1
f 3/3/3 1/1/1 4/4/4
f 4/4/4 1/1/1 5/5/5
f 3/3/3 4/4/4 6/6/6
f 4/4/4 7/7/7 6/6/6
f 3/3/3 6/6/6 8/8/8
f 9/9/9 8/8/8 6/6/6
f 4/4/4 5/5/5 10/10/10
f 4/4/4 10/10/10 7/7/7
f 5/5/5 11/11/11 10/10/10
f 7/7/7 10/10/10 11/11/11
f 5/5/5 12/12/12 11/11/11
f 7/7/7 11/11/11 13/13/13
f 7/7/7 13/13/13 14/14/14
f 9/9/9 6/6/6 15/15/15
f 7/7/7 15/15/15 6/6/6
f 7/7/7 14/14/14 16/16/16
f 7/7/7 16/16/16 15/15/15
f 17/17/17 16/16/16 14/14/14
f 15/15/15 16/16/16 17/17/17
f 17/17/17 14/14/14 18/18/18
f 17/17/17 18/18/18 19/19/19
f 9/9/9 15/15/15 20/20/20
f 15/15/15 17/17/17 20/20/20
f 9/9/9 20/20/20 21/21/21
f 22/22/22 21/21/21 20/20/20
f 17/17/17 23/23/23 20/20/20
f 22/22/22 20/20/20 23/23/23
f 17/17/17 19/19/19 24/24/24
f 17/17/17 24/24/24 23/23/23
f 25/25/25 24/24/24 19/19/19
f 23/23/23 24/24/24 25/25/25
f 25/25/25 19/19/19 26/26/26
f 25/25/25 26/26/26 27/27/27
f 22/22/22 23/23/23 28/28/28
f 23/23/23 25/25/25 28/28/28
f 22/22/22 28/28/28 29/29/29
f 30/30/30 29/29/29 28/28/28
f 25/25/25 31/31/31 28/28/28
f 30/30/30 28/28/28 31/31/31
f 25/25/25 27/27/27 32/32/32
f 25/25/25 32/32/32 31/31/31
f 33/33/33 32/32/32 27/27/27
f 33/33/33 31/31/31 32/32/32
f 33/33/33 27/27/27 34/34/34
f 33/33/33 35/35/35 31/31/31
f 35/35/35 30/30/30 31/31/31
f 35/35/35 36/36/36 30/30/30
f 39/39/39 38/38/38 37/37/37
f 40/40/40 38/38/38 39/39/39
f 41/41/41 38/38/38 40/40/40
f 42/42/42 38/38/38 41/41/41
f 43/43/43 38/38/38 42/42/42
f 44/44/44 38/38/38 43/43/43
f 38/38/38 44/44/44 45/45/45
f 38/38/38 45/45/45 46/46/46
f 49/49/49 48/48/48 47/47/47
f 47/47/47 48/48/48 50/50/50
f 50/50/50 48/48/48 51/51/51
f 51/51/51 48/48/48 52/52/52
f 52/52/52 48/48/48 53/53/53
f 53/53/53 48/48/48 54/54/54
f 48/48/48 55/55/55 54/54/54
f 48/48/48 56/56/56 55/55/55
f 59/59/59 58/58/58 57/57/57
f 59/59/59 57/57/57 60/60/60
f 60/60/60 57/57/57 61/61/61
f 59/59/59 60/60/60 62/62/62
f 60/60/60 63/63/63 62/62/62
f 59/59/59 62/62/62 64/64/64
f 65/65/65 64/64/64 62/62/62
f 60/60/60 61/61/61 66/66/66
f 60/60/60 66/66/66 63/63/63
f 61/61/61 67/67/67 66/66/66
f 63/63/63 66/66/66 67/67/67
f 61/61/61 68/68/68 67/67/67
f 63/63/63 67/67/67 69/69/69
f 63/63/63 69/69/69 70/70/70
f 65/65/65 62/62/62 71/71/71
f 63/63/63 71/71/71 62/62/62
f 63/63/63 70/70/70 72/72/72
f 63/63/63 72/72/72 71/71/71
f 73/73/73 72/72/72 70/70/70
f 71/71/71 72/72/72 73/73/73
f 73/73/73 70/70/70 74/74/74
f 73/73/73 74/74/74 75/75/75
f 65/65/65 71/71/71 76/76/76
f 71/71/71 73/73/73 76/76/76
f 65/65/65 76/76/76 77/77/77
f 78/78/78 77/77/77 76/76/76
f 73/73/73 79/79/79 76/76/76
f 78/78/78 76/76/76 79/79/79
f 73/73/73 75/75/75 80/80/80
f 73/73/73 80/80/80 79/79/79
f 81/81/81 80/80/80 75/75/75
f 79/79/79 80/80/80 81/81/81
f 81/81/81 75/75/75 82/82/82
f 81/81/81 82/82/82 83/83/83
f 78/78/78 79/79/79 84/84/84
f 79/79/79 81/81/81 84/84/84
f 78/78/78 84/84/84 85/85/85
f 86/86/86 85/85/85 84/84/84
f 81/81/81 87/87/87 84/84/84
f 86/86/86 84/84/84 87/87/87
f 81/81/81 83/83/83 88/88/88
f 81/81/81 88/88/88 87/87/87
f 89/89/89 88/88/88 83/83/83
f 89/89/89 87/87/87 88/88/88
f 89/89/89 83/83/83 90/90/90
f 89/89/89 91/91/91 87/87/87
f 91/91/91 86/86/86 87/87/87
f 91/91/91 92/92/92 86/86/86
f 95/95/95 94/94/94 93/93/93
f 96/96/96 94/94/94 95/95/95
f 97/97/97 94/94/94 96/96/96
f 98/98/98 94/94/94 97/97/97
f 99/99/99 94/94/94 98/98/98
f 100/100/100 94/94/94 99/99/99
f 94/94/94 100/100/100 101/101/101
f 94/94/94 101/101/101 102/102/102
f 105/105/105 104/104/104 103/103/103
f 103/103/103 104/104/104 106/106/106
f 106/106/106 104/104/104 107/107/107
f 107/107/107 104/104/104 108/108/108
f 108/108/108 104/104/104 109/109/109
f 109/109/109 104/104/104 110/110/110
f 104/104/104 111/111/111 110/110/110
f 104/104/104 112/112/112 111/111/111
f 115/115/115 114/114/114 113/113/113
f 115/115/115 113/113/113 116/116/116
f 116/116/116 113/113/113 117/117/117
f 115/115/115 116/116/116 118/118/118
f 116/116/116 119/119/119 118/118/118
f 115/115/115 118/118/118 120/120/120
f 121/121/121 120/120/120 118/118/118
f 116/116/116 117/117/117 122/122/122
f 116/116/116 122/122/122 119/119/119
f 117/117/117 123/123/123 122/122/122
f 119/119/119 122/122/122 123/123/123
f 117/117/117 124/124/124 123/123/123
f 119/119/119 123/123/123 125/125/125
f 119/119/119 125/125/125 126/126/126
f 121/121/121 118/118/118 127/127/127
f 119/119/119 127/127/127 118/118/118
f 119/119/119 126/126/126 128/128/128
f 119/119/119 128/128/128 127/127/127
f 129/129/129 128/128/128 126/126/126
f 127/127/127 128/128/128 129/129/129
f 129/129/129 126/126/126 130/130/130
f 129/129/129 130/130/130 131/131/131
f 121/121/121 127/127/127 132/132/132
f 127/127/127 129/129/129 132/132/132
f 121/121/121 132/132/132 133/133/133
f 134/134/134 133/133/133 132/132/132
f 129/129/129 135/135/135 132/132/132
f 134/134/134 132/132/132 135/135/135
f 129/129/129 131/131/131 136/136/136
f 129/129/129 136/136/136 135/135/135
f 137/137/137 136/136/136 131/131/131
f 135/135/135 136/136/136 137/137/137
f 137/137/137 131/131/131 138/138/138
f 137/137/137 138/138/138 139/139/139
f 134/134/134 135/135/135 140/140/140
f 135/135/135 137/137/137 140/140/140
f 134/134/134 140/140/140 141/141/141
f 142/142/142 141/141/141 140/140/140
f 137/137/137 143/143/143 140/140/140
f 142/142/142 140/140/140 143/143/143
f 137/137/137 139/139/139 144/144/144
f 137/137/137 144/144/144 143/143/143
f 145/145/145 144/144/144 139/139/139
f 145/145/145 143/143/143 144/144/144
f 145/145/145 139/139/139 146/146/146
f 145/145/145 147/147/147 143/143/143
f 147/147/147 142/142/142 143/143/143
f 147/147/147 148/148/148 142/142/142
f 151/151/151 150/150/150 149/149/149
f 152/152/152 150/150/150 151/151/151
f 153/153/153 150/150/150 152/152/152
f 154/154/154 150/150/150 153/153/153
f 155/155/155 150/150/150 154/154/154
f 156/156/156 150/150/150 155/155/155
f 150/150/150 156/156/156 157/157/157
f 150/150/150 157/157/157 158/158/158
f 161/161/161 160/160/160 159/159/159
f 159/159/159 160/160/160 162/162/162
f 162/162/162 160/160/160 163/163/163
f 163/163/163 160/160/160 164/164/164
f 164/164/164 160/160/160 165/165/165
f 165/165/165 160/160/160 166/166/166
f 160/160/160 167/167/167 166/166/166
f 160/160/160 168/168/168 167/167/167
