g ENV_S10_Retro_Quarter_Shape_L_01a_COL
v 1.9000831 9.786384 5.9838552
v 1.9000831 9.786384 -5.983882
v 2.1688128 7.7464247 -5.983882
v 2.1688128 7.7464247 5.9838552
v 2.9561915 5.8456087 -5.983882
v 2.9561915 5.8456087 5.9838552
v 4.2084727 4.2132235 -5.983882
v 4.2084727 4.2132235 5.9838552
v 5.8408575 2.9609423 -5.983882
v 5.8408575 2.9609423 5.9838552
v 7.741674 2.173564 -5.983882
v 7.741674 2.173564 5.9838552
v 9.781632 1.9048338 -5.983882
v 9.781632 1.9048338 5.9838552
v 9.781632 1.9048338 5.9838552
v 9.781632 1.9048338 -5.983882
v 9.781632 1.9048338 5.9838552
v 9.781632 1.9048338 -5.983882
v 9.781632 0.00013637543 5.9838552
v 9.781632 0.00013637543 -5.983882
v 1.9000831 9.786384 -5.983882
v 1.9000831 9.786384 5.9838552
v -0.00013637543 9.786384 -5.983882
v -0.00013637543 9.786384 5.9838552
v 9.781632 1.9048338 5.9838552
v 9.781632 0.00013637543 5.9838552
v 9.781632 1.9048338 5.9838552
v 7.741674 2.173564 5.9838552
v -0.00013637543 0.00013637543 5.9838552
v 5.8408575 2.9609423 5.9838552
v 4.2084727 4.2132235 5.9838552
v 2.9561915 5.8456087 5.9838552
v 2.1688128 7.7464247 5.9838552
v -0.00013637543 9.786384 5.9838552
v 1.9000831 9.786384 5.9838552
v -0.00013637543 0.00013637543 -5.983882
v -0.00013637543 9.786384 -5.983882
v -0.00013637543 0.00013637543 5.9838552
v -0.00013637543 9.786384 5.9838552
v -0.00013637543 0.00013637543 -5.983882
v -0.00013637543 0.00013637543 5.9838552
v 9.781632 0.00013637543 -5.983882
v 9.781632 0.00013637543 5.9838552
v -0.00013637543 9.786384 -5.983882
v 2.1688128 7.7464247 -5.983882
v 1.9000831 9.786384 -5.983882
v -0.00013637543 0.00013637543 -5.983882
v 2.9561915 5.8456087 -5.983882
v 4.2084727 4.2132235 -5.983882
v 5.8408575 2.9609423 -5.983882
v 7.741674 2.173564 -5.983882
v 9.781632 0.00013637543 -5.983882
v 9.781632 1.9048338 -5.983882
v 9.781632 1.9048338 -5.983882
vt 0.49462366 0.6119257
vt 0.49462366 0.42033234
vt 0.50537634 0.42033234
vt 0.50537634 0.6119257
vt 0.5151515 0.42033234
vt 0.5151515 0.6119257
vt 0.5259042 0.42033234
vt 0.5259042 0.6119257
vt 0.5366569 0.42033234
vt 0.5366569 0.6119257
vt 0.5464321 0.42033234
vt 0.5464321 0.6119257
vt 0.55718476 0.42033234
vt 0.55718476 0.6119257
vt 0.55718476 0.6119257
vt 0.55718476 0.42033234
vt 0.62463343 0.048875857
vt 0.8748778 0.048875857
vt 0.62463343 0
vt 0.8748778 0
vt 0.42326492 0.50048876
vt 0.42326492 0.25024438
vt 0.37536657 0.50048876
vt 0.37536657 0.25024438
vt 0.62463343 0.048875857
vt 0.62463343 0
vt 0.62463343 0.048875857
vt 0.572825 0.055718474
vt 0.37536657 0
vt 0.52394915 0.07526882
vt 0.48289344 0.10752688
vt 0.45063537 0.14956012
vt 0.43010753 0.19745846
vt 0.37536657 0.25024438
vt 0.42326492 0.25024438
vt 0.12512219 0
vt 0.12512219 0.25024438
vt 0.37536657 0
vt 0.37536657 0.25024438
vt 0.37536657 0.7497556
vt 0.37536657 1
vt 0.62463343 0.7497556
vt 0.62463343 1
vt 0.37536657 0.50048876
vt 0.43010753 0.5522972
vt 0.42326492 0.50048876
vt 0.37536657 0.7497556
vt 0.45063537 0.6001955
vt 0.48289344 0.6422287
vt 0.52394915 0.6744868
vt 0.572825 0.69403714
vt 0.62463343 0.7497556
vt 0.62463343 0.70087975
vt 0.62463343 0.70087975
vn 0.99160045 0.12933916 -0
vn 0.99160045 0.12933916 -0
vn 0.9670746 0.25449327 -0
vn 0.9670746 0.25449327 -0
vn 0.86666006 0.4980353 -0.029345917
vn 0.86666006 0.4980353 -0.029345917
vn 0.7071068 0.70710677 -0
vn 0.7071068 0.70710677 -0
vn 0.49803543 0.86666 -0.029345663
vn 0.49803543 0.86666 -0.029345663
vn 0.25449336 0.9670746 -0
vn 0.25449336 0.9670746 -0
vn 0.12933922 0.9916004 -0
vn 0.12933922 0.9916004 -0
vn -0.99999225 0.003921509 -0.00034492963
vn -0.07430375 0.99723566 -0
vn 0.9999924 0.003921509 -0
vn 0.9999924 0.003921509 -0
vn 0.9999924 0.003921509 -0
vn 0.9999924 0.003921509 -0
vn -0.003921509 0.99999225 -0.00034526698
vn -0.003921509 0.99999225 -0.00034526698
vn -0.003921509 0.99999225 -0.00034526698
vn -0.003921509 0.99999225 -0.00034526698
vn 0.80391544 0.003921509 0.5947307
vn -0.003921509 0.003921509 0.9999846
vn 0.0039215684 0.003921509 0.9999846
vn -0.003921509 0.003921509 0.9999846
vn -0.003921509 0.003921509 0.9999846
vn -0.003921509 0.003921509 0.9999846
vn -0.003921509 0.003921509 0.9999846
vn 0.0039215684 0.003921509 0.9999846
vn -0.003921509 0.003921509 0.9999846
vn -0.003921509 0.003921509 0.9999846
vn -0.003921509 0.003921509 0.9999846
vn -0.99999225 0.003921509 -0.00034492963
vn -0.99999225 0.003921509 -0.00034492963
vn -0.99999225 0.003921509 -0.00034492963
vn -0.99999225 0.003921509 -0.00034492963
vn -0.003921509 -0.9999924 -0
vn -0.003921509 -0.9999924 -0
vn -0.003921509 -0.9999924 -0
vn -0.003921509 -0.9999924 -0
vn -0.003921509 0.003921509 -0.9999846
vn -0.003921509 0.003921509 -0.9999846
vn -0.003921509 0.003921509 -0.9999846
vn -0.003921509 0.003921509 -0.9999846
vn 0.0039215684 0.003921509 -0.9999846
vn -0.003921509 0.003921509 -0.9999846
vn -0.003921509 0.003921509 -0.9999846
vn -0.003921509 0.003921509 -0.9999846
vn -0.003921509 0.003921509 -0.9999846
vn 0.0039215684 0.003921509 -0.9999846
vn 0.6156816 0.003921509 -0.78798527
g ENV_S10_Retro_Quarter_Shape_L_01a_COL_0
f 3/3/3 2/2/2 1/1/1
f 3/3/3 1/1/1 4/4/4
f 5/5/5 3/3/3 4/4/4
f 5/5/5 4/4/4 6/6/6
f 7/7/7 5/5/5 6/6/6
f 7/7/7 6/6/6 8/8/8
f 8/8/8 9/9/9 7/7/7
f 8/8/8 10/10/10 9/9/9
f 10/10/10 11/11/11 9/9/9
f 10/10/10 12/12/12 11/11/11
f 12/12/12 13/13/13 11/11/11
f 12/12/12 14/14/14 13/13/13
f 15/15/15 13/13/13 14/14/14
f 15/15/15 16/16/16 13/13/13
f 19/19/19 18/18/18 17/17/17
f 19/19/19 20/20/20 18/18/18
f 23/23/23 22/22/22 21/21/21
f 23/23/23 24/24/24 22/22/22
f 27/27/27 26/26/26 25/25/25
f 26/26/26 27/27/27 28/28/28
f 28/28/28 29/29/29 26/26/26
f 28/28/28 30/30/30 29/29/29
f 31/31/31 29/29/29 30/30/30
f 31/31/31 32/32/32 29/29/29
f 32/32/32 33/33/33 29/29/29
f 29/29/29 33/33/33 34/34/34
f 33/33/33 35/35/35 34/34/34
f 38/38/38 37/37/37 36/36/36
f 38/38/38 39/39/39 37/37/37
f 42/42/42 41/41/41 40/40/40
f 42/42/42 43/43/43 41/41/41
f 46/46/46 45/45/45 44/44/44
f 45/45/45 47/47/47 44/44/44
f 48/48/48 47/47/47 45/45/45
f 49/49/49 47/47/47 48/48/48
f 49/49/49 50/50/50 47/47/47
f 50/50/50 51/51/51 47/47/47
f 47/47/47 51/51/51 52/52/52
f 51/51/51 53/53/53 52/52/52
f 52/52/52 53/53/53 54/54/54
