g ENV_S09_BRB_StartLineSection_Vinyl_MO
v -9.616081 -0.13998657 16.083355
v -9.616081 -0.13998657 9.7439575
v -9.476095 0 9.7439575
v -9.476095 0 16.083355
v -8.528488 0 16.083355
v -8.528488 0 9.7439575
v -8.528488 0 17.078222
v 8.528489 -0.13998657 17.218208
v -8.528488 -0.13998657 17.218208
v 8.528489 0 17.078222
v -8.528488 0 16.083355
v 8.528489 0 16.083355
v 9.476096 0 16.083355
v 9.616082 -0.13998657 9.7439575
v 9.616082 -0.13998657 16.083355
v 9.476096 0 9.7439575
v 8.528489 0 9.7439575
v 8.528489 0 16.083355
v -9.476095 0 1.0885816
v -9.616081 -0.13998657 7.520522
v -9.616081 -0.13998657 1.0885816
v -9.476095 0 7.520522
v -8.528488 0 7.520522
v -8.528488 0 1.0885816
v -8.528488 -0.13998657 -4.5474734E-15
v 8.528489 -0.13998657 -4.5474734E-15
v 8.528489 0 0.13998535
v -8.528488 0 0.13998535
v -8.528488 0 1.0885816
v 8.528489 0 1.0885816
v 9.616082 -0.13998657 1.0885816
v 9.616082 -0.13998657 7.520522
v 9.476096 0 7.520522
v 9.476096 0 1.0885816
v 8.528489 0 1.0885816
v 8.528489 0 7.520522
v -9.616081 -0.13998657 8.749089
v -9.559496 -0.8487579 8.609104
v -9.559496 -0.15124206 8.609104
v -9.616081 -0.8600134 8.749089
v -9.616081 -0.8600134 9.7439575
v -9.616081 -0.13998657 9.7439575
v -9.616081 -0.13998657 16.083355
v -9.476095 -1 8.749089
v -9.464839 -0.99999934 8.609104
v -9.476095 -1 9.7439575
v -9.476095 -1 16.083355
v -9.616081 -0.8600134 16.083355
v -9.476095 -1 17.078222
v -9.616081 -0.8600134 17.078222
v -9.616081 -0.13998657 17.078222
v -8.528488 0 8.469118
v 8.518357 -0.056585692 8.609104
v -8.518353 -0.056585692 8.609104
v 8.528489 0 8.469118
v -8.528488 0 7.520522
v 8.528489 0 7.520522
v 8.518357 -0.056585692 8.609104
v -8.528488 0 8.749089
v -8.518353 -0.056585692 8.609104
v 8.528489 0 8.749089
v -8.528488 0 9.7439575
v 8.528489 0 9.7439575
v 9.616082 -0.13998657 8.469118
v 9.559495 -0.8487579 8.609104
v 9.559495 -0.15124206 8.609104
v 9.616082 -0.8600134 8.469118
v 9.616082 -0.8600134 7.520522
v 9.464839 -0.99999934 8.609104
v 9.476096 -1 8.469118
v 9.616082 -0.13998657 7.520522
v 9.476096 -1 7.520522
v 9.476096 -1 1.0885816
v 9.616082 -0.13998657 1.0885816
v 9.616082 -0.8600134 1.0885816
v 9.476096 -1 0.13998535
v 9.616082 -0.8600134 0.13998535
v 9.616082 -0.13998657 0.13998535
v 9.476096 -0.8600134 -4.5474734E-15
v 8.528489 -0.8600134 -4.5474734E-15
v 9.476096 -0.13998657 -4.5474734E-15
v 8.528489 -1 0.13998535
v 8.528489 -0.13998657 -4.5474734E-15
v -8.528488 -1 0.13998535
v -8.528488 -0.13998657 -4.5474734E-15
v -8.528488 -0.8600134 -4.5474734E-15
v -9.476095 -1 0.13998535
v -9.476095 -0.13998657 -4.5474734E-15
v -9.476095 -0.8600134 -4.5474734E-15
v -9.616081 -0.8600134 0.13998535
v -9.616081 -0.13998657 0.13998535
v -9.476095 -1 1.0885816
v -9.616081 -0.13998657 1.0885816
v -9.616081 -0.8600134 1.0885816
v -9.476095 -1 7.520522
v -9.616081 -0.13998657 7.520522
v -9.616081 -0.8600134 7.520522
v -9.616081 -0.8600134 8.469118
v -9.616081 -0.13998657 8.469118
v -9.559496 -0.15124206 8.609104
v -9.476095 -1 8.469118
v -9.559496 -0.8487579 8.609104
v -9.464839 -0.99999934 8.609104
v 8.528489 0 1.0885816
v 8.528489 0 7.520522
v -8.528488 0 7.520522
v -8.528488 0 1.0885816
v 8.528489 0 9.7439575
v 8.528489 0 16.083355
v -8.528488 0 16.083355
v -8.528488 0 9.7439575
v -8.528488 0 0.13998535
v -9.476095 -0.13998657 -4.5474734E-15
v -8.528488 -0.13998657 -4.5474734E-15
v -9.476095 0 0.13998535
v -9.616081 -0.13998657 0.13998535
v -9.616081 -0.13998657 1.0885816
v -9.476095 0 1.0885816
v -8.528488 0 1.0885816
v -9.464839 -0.056585692 8.609104
v -8.518353 -0.056585692 8.609104
v -8.528488 0 8.749089
v -9.476095 0 8.749089
v -9.559496 -0.15124206 8.609104
v -9.616081 -0.13998657 8.749089
v -9.476095 0 9.7439575
v -8.528488 0 9.7439575
v -9.616081 -0.13998657 9.7439575
v 8.528489 0 8.469118
v 9.464839 -0.056586303 8.609104
v 8.518357 -0.056585692 8.609104
v 9.476096 0 8.469118
v 9.559495 -0.15124206 8.609104
v 9.616082 -0.13998657 8.469118
v 9.476096 0 7.520522
v 8.528489 0 7.520522
v 9.616082 -0.13998657 7.520522
v 9.476096 -0.13998657 -4.5474734E-15
v 8.528489 0 0.13998535
v 8.528489 -0.13998657 -4.5474734E-15
v 9.476096 0 0.13998535
v 9.616082 -0.13998657 0.13998535
v 9.476096 0 1.0885816
v 8.528489 0 1.0885816
v 9.616082 -0.13998657 1.0885816
v -9.476095 0 16.083355
v -9.616081 -0.13998657 17.078222
v -9.616081 -0.13998657 16.083355
v -9.476095 0 17.078222
v -8.528488 0 16.083355
v -9.476095 -0.13998657 17.218208
v -8.528488 0 17.078222
v -8.528488 -0.13998657 17.218208
v 9.476096 0 16.083355
v 8.528489 0 17.078222
v 8.528489 0 16.083355
v 9.476096 0 17.078222
v 9.616082 -0.13998657 16.083355
v 8.528489 -0.13998657 17.218208
v 9.616082 -0.13998657 17.078222
v 9.476096 -0.13998657 17.218208
v 8.528489 0 8.749089
v 9.476096 0 9.7439575
v 8.528489 0 9.7439575
v 9.476096 0 8.749089
v 8.518357 -0.056585692 8.609104
v 9.616082 -0.13998657 9.7439575
v 9.464839 -0.056586303 8.609104
v 9.616082 -0.13998657 8.749089
v 9.559495 -0.15124206 8.609104
v -9.476095 0 8.469118
v -9.616081 -0.13998657 8.469118
v -9.616081 -0.13998657 7.520522
v -9.559496 -0.15124206 8.609104
v -9.476095 0 7.520522
v -9.464839 -0.056585692 8.609104
v -8.528488 0 7.520522
v -8.518353 -0.056585692 8.609104
v -8.528488 0 8.469118
v 9.559495 -0.15124206 8.609104
v 9.559495 -0.8487579 8.609104
v 9.616082 -0.8600134 8.749089
v 9.616082 -0.13998657 8.749089
v 9.464839 -0.99999934 8.609104
v 9.476096 -1 8.749089
v 9.616082 -0.13998657 9.7439575
v 9.476096 -1 9.7439575
v 9.616082 -0.8600134 9.7439575
v 9.616082 -0.8600134 16.083355
v 9.616082 -0.13998657 16.083355
v 9.476096 -1 16.083355
v 9.616082 -0.8600134 17.078222
v 9.616082 -0.13998657 17.078222
v 9.476096 -1 17.078222
v 9.476096 -0.13998657 17.218208
v 9.476096 -0.8600134 17.218208
v 8.528489 -1 17.078222
v 8.528489 -0.13998657 17.218208
v 8.528489 -0.8600134 17.218208
v -8.528488 -0.8600134 17.218208
v -8.528488 -1 17.078222
v -8.528488 -0.13998657 17.218208
v -9.476095 -0.8600134 17.218208
v -9.476095 -1 17.078222
v -9.476095 -0.13998657 17.218208
v -9.616081 -0.8600134 17.078222
v -9.616081 -0.13998657 17.078222
vt 0.1302777 0.74321055
vt 0.6738844 0.74321055
vt 0.6738844 0.72649837
vt 0.13027762 0.72649837
vt 0.13027777 0.6469693
vt 0.6738844 0.6469693
vt 1.0987605 0.72941923
vt -0.29511845 0.7460818
vt 1.0987605 0.7460818
vt -0.29511845 0.72941923
vt 1.0987605 0.6460396
vt -0.29511845 0.6460396
vt 0.66275156 0.7265631
vt 0.13831276 0.7431867
vt 0.6627517 0.7431867
vt 0.13831277 0.7265631
vt 0.13831276 0.6467481
vt 0.66275156 0.6467481
vt 0.6659514 0.7265383
vt 0.13532116 0.7431419
vt 0.6659514 0.7431419
vt 0.13532116 0.7265383
vt 0.1353212 0.64671874
vt 0.6659514 0.64671874
vt -0.29156333 0.74453604
vt 1.095347 0.74453604
vt 1.095347 0.7278538
vt -0.29156333 0.7278538
vt -0.29156333 0.6480978
vt 1.095347 0.6480978
vt 0.12590799 0.7433983
vt 0.67842674 0.7433983
vt 0.67842674 0.72672236
vt 0.12590799 0.72672236
vt 0.12590794 0.64689004
vt 0.67842674 0.64689004
vt 3.6473045 0.7457671
vt 3.6307359 0.6635229
vt 3.6307302 0.7457671
vt 3.6473274 0.6635229
vt 3.7546163 0.66352296
vt 3.7546213 0.7457672
vt 4.439258 0.74576724
vt 3.646873 0.64660156
vt 3.63078 0.64660156
vt 3.7546163 0.64660156
vt 4.439143 0.6466017
vt 4.43915 0.6635231
vt 4.5448837 0.6466017
vt 4.5457625 0.6635231
vt 4.548379 0.74576724
vt 1.1403302 0.7292187
vt -0.337236 0.74166536
vt 1.1403302 0.74166536
vt -0.337236 0.7292187
vt 1.1403302 0.65094715
vt -0.337236 0.65094715
vt 1.1404487 0.7435402
vt -0.3372581 0.73109376
vt -0.3372581 0.7435402
vt 1.1404487 0.73109376
vt -0.3372581 0.64898795
vt 1.1404487 0.64898795
vt -0.26380742 0.74576676
vt -0.28045976 0.66352266
vt -0.28044963 0.7457668
vt -0.26380157 0.6635226
vt -0.16102183 0.6635226
vt -0.28050315 0.64660126
vt -0.26427555 0.6466012
vt -0.16101325 0.74576676
vt -0.16102076 0.64660126
vt 0.5353979 0.6466013
vt 0.5351794 0.7457669
vt 0.5353501 0.66352266
vt 0.6452762 0.6466013
vt 0.63781226 0.66352266
vt 0.6353518 0.7457669
vt 0.6527431 0.6635227
vt 0.7550765 0.66352266
vt 0.6551802 0.7457669
vt 0.75505865 0.6466013
vt 0.75514126 0.7457669
vt 2.5974703 0.64660144
vt 2.5973926 0.74576706
vt 2.597455 0.66352284
vt 2.707499 0.64660144
vt 2.6975741 0.74576706
vt 2.700017 0.66352284
vt 2.7149768 0.66352284
vt 2.7174263 0.74576706
vt 2.817443 0.64660144
vt 2.8176475 0.7457671
vt 2.8174896 0.66352284
vt 3.5117726 0.64660156
vt 3.5117724 0.7457671
vt 3.5117698 0.6635229
vt 3.6141486 0.6635229
vt 3.6141586 0.7457671
vt 3.6307302 0.7457671
vt 3.614625 0.64660156
vt 3.6307359 0.6635229
vt 3.63078 0.64660156
vt 0.9790499 0.9872213
vt 0.98695266 0.98781717
vt 0.98662686 0.9665366
vt 0.9790722 0.9672259
vt 0.9794306 0.9878211
vt 0.98689556 0.98716486
vt 0.9868916 0.9670504
vt 0.9791072 0.96653277
vt 0.18783742 0.88998115
vt 0.19681013 0.98782575
vt 0.19896993 0.88998115
vt 0.18631208 0.98606193
vt 0.188205 0.99666536
vt 0.10001953 0.9997604
vt 0.10001953 0.9888054
vt 0.10001953 0.88998115
vt 0.20081449 0.9880352
vt 0.20070377 0.88998115
vt 0.19121194 0.88998115
vt 0.19063893 0.9873334
vt 0.20093802 0.99886644
vt 0.19057605 0.99978614
vt 0.10001953 0.9860542
vt 0.10001953 0.88998115
vt 0.10001953 0.99896884
vt 0.017486542 0.88998115
vt 0.007093787 0.8090991
vt 0.006995678 0.88998115
vt 0.018355146 0.809826
vt 0.006988555 0.7971363
vt 0.018473625 0.7960658
vt 0.10001953 0.8108686
vt 0.10001953 0.88998115
vt 0.10001953 0.79657423
vt 0.20051539 0.8120158
vt 0.19755703 0.88998115
vt 0.21283072 0.88998115
vt 0.19147569 0.80677086
vt 0.1931827 0.80393904
vt 0.100019515 0.8106713
vt 0.100019515 0.88998115
vt 0.100019515 0.79586357
vt 0.10001953 0.98787683
vt 0.011088254 1.0013716
vt 0.10001953 0.9993173
vt 0.01212536 0.9905312
vt 0.10001953 0.88998115
vt 0.001387503 0.992983
vt 0.007236488 0.88998115
vt -0.003943786 0.88998115
vt 0.10001953 0.8150177
vt 0.021270253 0.88998115
vt 0.10001953 0.88998115
vt 0.019575905 0.80468345
vt 0.10001953 0.8028132
vt 0.00904116 0.88998115
vt 0.019049091 0.7991747
vt 0.009349913 0.80906695
vt 0.18966372 0.88998115
vt 0.10001953 0.8162434
vt 0.10001953 0.88998115
vt 0.18911387 0.8141997
vt 0.19916882 0.88998115
vt 0.10001953 0.8034119
vt 0.19925751 0.81333804
vt 0.18902703 0.8016295
vt 0.19916238 0.80252343
vt 0.012211038 0.9883983
vt 0.012291713 1.0012716
vt 0.10001953 0.99667186
vt 0.0023488346 0.99843246
vt 0.10001953 0.98366064
vt 0.0024499204 0.9893969
vt 0.10001953 0.88998115
vt -0.0038028061 0.88998115
vt 0.0061258823 0.88998115
vt -0.28044963 0.7457668
vt -0.28045976 0.66352266
vt -0.29713047 0.66352266
vt -0.29709888 0.74576676
vt -0.28050315 0.64660126
vt -0.29667187 0.6466012
vt -0.40494323 0.74576676
vt -0.40494967 0.6466012
vt -0.40494967 0.6635226
vt -1.0922357 0.6635226
vt -1.0920765 0.74576676
vt -1.0922738 0.6466011
vt -1.2004768 0.6635225
vt -1.1980007 0.7457667
vt -1.207811 0.6466011
vt -1.2179261 0.74576664
vt -1.2154216 0.6635225
vt -1.3184319 0.6466011
vt -1.3185167 0.7457667
vt -1.3184527 0.6635225
vt -3.1677046 0.66352236
vt -3.1677027 0.64660096
vt -3.1677415 0.7457665
vt -3.269416 0.66352236
vt -3.2707167 0.64660096
vt -3.2712162 0.7457665
vt -3.2904465 0.66352236
vt -3.2936108 0.7457665
vn -0.9870101 0.1606575 0
vn -0.98701024 0.16065744 0
vn -0.12765922 0.9918181 0
vn -0.12765914 0.9918181 0
vn -0 1 0
vn -0 1 0
vn -0 0.99247783 0.12242435
vn -0 0.16065674 0.98701036
vn -0 0.16065674 0.98701036
vn -0 0.99247783 0.12242435
vn -0 1 0
vn -0 1 0
vn 0.1276591 0.9918181 0
vn 0.98701024 0.16065712 0
vn 0.98701024 0.16065721 0
vn 0.12765914 0.9918181 0
vn -0 1 0
vn -0 1 0
vn -0.12765922 0.9918181 0
vn -0.98701024 0.16065739 0
vn -0.98701024 0.16065744 0
vn -0.12765916 0.9918181 0
vn -0 1 0
vn -0 1 0
vn -0 0.16065674 -0.98701036
vn -0 0.16065674 -0.98701036
vn -0 0.99183273 -0.12754522
vn -0 0.99183273 -0.12754522
vn -0 1 0
vn -0 1 0
vn 0.98701036 0.16065656 0
vn 0.98701036 0.16065654 0
vn 0.12765926 0.9918181 0
vn 0.12765929 0.9918181 0
vn -0 1 0
vn -0 1 0
vn -0.98652166 0.15699543 -0.046123408
vn -0.92625743 -0.13109945 -0.35335553
vn -0.9141614 0.13912728 -0.38072655
vn -0.9867071 -0.15646955 -0.043889694
vn -0.98701024 -0.16065744 0
vn -0.98701024 0.16065744 0
vn -0.9870101 0.1606575 0
vn -0.7159708 -0.69764966 -0.025898699
vn -0.76146936 -0.61352056 -0.20918123
vn -0.7071084 -0.70710516 0
vn -0.7071082 -0.7071053 0
vn -0.9870101 -0.1606575 0
vn -0.42414495 -0.81003594 0.40489876
vn -0.9827808 -0.14880595 0.10953872
vn -0.9827808 0.14880595 0.10953872
vn -0 0.99874157 0.050154224
vn -0 0.9271189 0.37476718
vn -0 0.9271189 0.37476748
vn -0 0.99874145 0.050154697
vn -0 1 0
vn -0 1 0
vn -0 0.9271196 -0.37476537
vn -0 0.9988424 -0.0481041
vn -0 0.9271196 -0.37476563
vn -0 0.9988423 -0.048104566
vn -0 1 0
vn -0 1 0
vn 0.98645324 0.15683062 0.048106797
vn 0.9262574 -0.13109572 0.35335714
vn 0.91416126 0.13912386 0.38072795
vn 0.9866512 -0.15628344 0.04577074
vn 0.98701036 -0.16065654 0
vn 0.7614732 -0.6135139 0.20918697
vn 0.7163343 -0.6972346 0.027003394
vn 0.98701036 0.16065654 0
vn 0.7071102 -0.70710325 0
vn 0.7071104 -0.70710313 0
vn 0.98701036 0.16065656 0
vn 0.98701036 -0.16065656 0
vn 0.414915 -0.8099591 -0.41450182
vn 0.98233205 -0.1482574 -0.1142081
vn 0.98233205 0.1482574 -0.11420817
vn 0.11431289 -0.14824413 -0.98232186
vn -0 -0.16065674 -0.98701036
vn 0.114312865 0.14824411 -0.98232186
vn -0 -0.7071034 -0.70711017
vn -0 0.16065674 -0.98701036
vn -0 -0.7071034 -0.70711017
vn -0 0.16065674 -0.98701036
vn -0 -0.16065674 -0.98701036
vn -0.41491556 -0.80995846 -0.4145026
vn -0.11431283 0.14824407 -0.98232186
vn -0.11431283 -0.14824407 -0.98232186
vn -0.98233205 -0.14825685 -0.11420856
vn -0.98233205 0.14825685 -0.11420856
vn -0.7071084 -0.7071051 0
vn -0.98701024 0.16065744 0
vn -0.98701024 -0.16065744 0
vn -0.7071083 -0.7071052 0
vn -0.98701024 0.16065739 0
vn -0.98701024 -0.16065739 0
vn -0.9866513 -0.15628302 0.045769274
vn -0.98645335 0.1568301 0.048105318
vn -0.9141654 0.13912414 0.3807179
vn -0.7163355 -0.6972333 0.027002584
vn -0.926261 -0.13109721 0.3533467
vn -0.7614731 -0.6135166 0.20917965
vn -0 1 0
vn -0 1 0
vn -0 1 0
vn -0 1 0
vn -0 1 0
vn -0 1 0
vn -0 1 0
vn -0 1 0
vn -0 0.99183273 -0.12754522
vn -0.11431283 0.14824407 -0.98232186
vn -0 0.16065674 -0.98701036
vn -0.11734288 0.9861485 -0.11722609
vn -0.98233205 0.14825685 -0.11420856
vn -0.98701024 0.16065744 0
vn -0.12765922 0.9918181 0
vn -0 1 0
vn -0.10878448 0.91854644 -0.3800504
vn -0 0.9271196 -0.37476563
vn -0 0.9988424 -0.0481041
vn -0.12441631 0.9911179 -0.04696527
vn -0.9141614 0.13912728 -0.38072655
vn -0.98652166 0.15699543 -0.046123408
vn -0.12765922 0.9918181 0
vn -0 1 0
vn -0.98701024 0.16065744 0
vn -0 0.99874145 0.050154697
vn 0.10878511 0.91854733 0.38004798
vn -0 0.9271189 0.37476718
vn 0.124270774 0.99103886 0.04897711
vn 0.91416126 0.13912386 0.38072795
vn 0.98645324 0.15683062 0.048106797
vn 0.12765926 0.9918181 0
vn -0 1 0
vn 0.98701036 0.16065654 0
vn 0.114312865 0.14824411 -0.98232186
vn -0 0.99183273 -0.12754522
vn -0 0.16065674 -0.98701036
vn 0.11734275 0.9861485 -0.11722597
vn 0.98233205 0.1482574 -0.11420817
vn 0.12765929 0.9918181 0
vn -0 1 0
vn 0.98701036 0.16065656 0
vn -0.12765914 0.9918181 0
vn -0.9827808 0.14880595 0.10953872
vn -0.9870101 0.1606575 0
vn -0.117797606 0.98665005 0.11245239
vn -0 1 0
vn -0.11431312 0.14824408 0.98232186
vn -0 0.99247783 0.12242435
vn -0 0.16065674 0.98701036
vn 0.1276591 0.9918181 0
vn -0 0.99247783 0.12242435
vn -0 1 0
vn 0.11779764 0.98664993 0.112452425
vn 0.98701024 0.16065721 0
vn -0 0.16065674 0.98701036
vn 0.98278093 0.1488055 0.10953838
vn 0.114313155 0.14824411 0.98232186
vn -0 0.9988423 -0.048104566
vn 0.12765914 0.9918181 0
vn -0 1 0
vn 0.12441623 0.991118 -0.046964686
vn -0 0.9271196 -0.37476537
vn 0.98701024 0.16065712 0
vn 0.10878284 0.91854763 -0.38004798
vn 0.98652166 0.15699486 -0.04612475
vn 0.9141572 0.13912588 -0.38073686
vn -0.12427079 0.99103874 0.048977718
vn -0.98645335 0.1568301 0.048105318
vn -0.98701024 0.16065739 0
vn -0.9141654 0.13912414 0.3807179
vn -0.12765916 0.9918181 0
vn -0.10878446 0.91854656 0.38005033
vn -0 1 0
vn -0 0.9271189 0.37476748
vn -0 0.99874157 0.050154224
vn 0.9141572 0.13912588 -0.38073686
vn 0.9262534 -0.13109946 -0.35336617
vn 0.9867071 -0.15646915 -0.043891165
vn 0.98652166 0.15699486 -0.04612475
vn 0.76146555 -0.61352247 -0.20918988
vn 0.71597123 -0.6976492 -0.025899826
vn 0.98701024 0.16065712 0
vn 0.70710903 -0.7071045 0
vn 0.98701024 -0.16065712 0
vn 0.98701024 -0.1606572 0
vn 0.98701024 0.16065721 0
vn 0.7071089 -0.7071047 0
vn 0.98278093 -0.1488055 0.10953831
vn 0.98278093 0.1488055 0.10953838
vn 0.42414534 -0.8100355 0.404899
vn 0.114313155 0.14824411 0.98232186
vn 0.11431318 -0.14824413 0.98232186
vn -0 -0.7071034 0.70711017
vn -0 0.16065674 0.98701036
vn -0 -0.16065674 0.98701036
vn -0 -0.16065674 0.98701036
vn -0 -0.7071034 0.70711017
vn -0 0.16065674 0.98701036
vn -0.11431312 -0.14824408 0.98232186
vn -0.42414495 -0.81003594 0.40489876
vn -0.11431312 0.14824408 0.98232186
vn -0.9827808 -0.14880595 0.10953872
vn -0.9827808 0.14880595 0.10953872
g ENV_S09_BRB_StartLineSection_Vinyl_MO_0
f 3/3/3 2/2/2 1/1/1
f 4/4/4 3/3/3 1/1/1
f 4/4/4 5/5/5 3/3/3
f 5/5/5 6/6/6 3/3/3
f 9/9/9 8/8/8 7/7/7
f 8/8/8 10/10/10 7/7/7
f 7/7/7 10/10/10 11/11/11
f 10/10/10 12/12/12 11/11/11
f 15/15/15 14/14/14 13/13/13
f 14/14/14 16/16/16 13/13/13
f 13/13/13 16/16/16 17/17/17
f 18/18/18 13/13/13 17/17/17
f 21/21/21 20/20/20 19/19/19
f 20/20/20 22/22/22 19/19/19
f 19/19/19 22/22/22 23/23/23
f 24/24/24 19/19/19 23/23/23
f 27/27/27 26/26/26 25/25/25
f 28/28/28 27/27/27 25/25/25
f 28/28/28 29/29/29 27/27/27
f 29/29/29 30/30/30 27/27/27
f 33/33/33 32/32/32 31/31/31
f 34/34/34 33/33/33 31/31/31
f 34/34/34 35/35/35 33/33/33
f 35/35/35 36/36/36 33/33/33
f 39/39/39 38/38/38 37/37/37
f 38/38/38 40/40/40 37/37/37
f 40/40/40 41/41/41 37/37/37
f 41/41/41 42/42/42 37/37/37
f 43/43/43 42/42/42 41/41/41
f 40/40/40 38/38/38 44/44/44
f 41/41/41 40/40/40 44/44/44
f 38/38/38 45/45/45 44/44/44
f 46/46/46 41/41/41 44/44/44
f 41/41/41 46/46/46 47/47/47
f 48/48/48 41/41/41 47/47/47
f 48/48/48 43/43/43 41/41/41
f 47/47/47 49/49/49 48/48/48
f 49/49/49 50/50/50 48/48/48
f 48/48/48 50/50/50 43/43/43
f 50/50/50 51/51/51 43/43/43
f 54/54/54 53/53/53 52/52/52
f 53/53/53 55/55/55 52/52/52
f 52/52/52 55/55/55 56/56/56
f 55/55/55 57/57/57 56/56/56
f 60/60/60 59/59/59 58/58/58
f 59/59/59 61/61/61 58/58/58
f 59/59/59 62/62/62 61/61/61
f 62/62/62 63/63/63 61/61/61
f 66/66/66 65/65/65 64/64/64
f 65/65/65 67/67/67 64/64/64
f 67/67/67 68/68/68 64/64/64
f 67/67/67 65/65/65 69/69/69
f 70/70/70 67/67/67 69/69/69
f 68/68/68 67/67/67 70/70/70
f 68/68/68 71/71/71 64/64/64
f 72/72/72 68/68/68 70/70/70
f 68/68/68 72/72/72 73/73/73
f 74/74/74 71/71/71 68/68/68
f 75/75/75 68/68/68 73/73/73
f 75/75/75 74/74/74 68/68/68
f 73/73/73 76/76/76 75/75/75
f 75/75/75 77/77/77 74/74/74
f 76/76/76 77/77/77 75/75/75
f 77/77/77 78/78/78 74/74/74
f 78/78/78 77/77/77 79/79/79
f 77/77/77 76/76/76 79/79/79
f 80/80/80 79/79/79 76/76/76
f 81/81/81 78/78/78 79/79/79
f 81/81/81 79/79/79 80/80/80
f 82/82/82 80/80/80 76/76/76
f 83/83/83 81/81/81 80/80/80
f 80/80/80 82/82/82 84/84/84
f 85/85/85 83/83/83 80/80/80
f 86/86/86 80/80/80 84/84/84
f 86/86/86 85/85/85 80/80/80
f 84/84/84 87/87/87 86/86/86
f 85/85/85 86/86/86 88/88/88
f 87/87/87 89/89/89 86/86/86
f 86/86/86 89/89/89 88/88/88
f 87/87/87 90/90/90 89/89/89
f 88/88/88 89/89/89 90/90/90
f 91/91/91 88/88/88 90/90/90
f 90/90/90 87/87/87 92/92/92
f 93/93/93 91/91/91 90/90/90
f 94/94/94 90/90/90 92/92/92
f 94/94/94 93/93/93 90/90/90
f 92/92/92 95/95/95 94/94/94
f 93/93/93 94/94/94 96/96/96
f 95/95/95 97/97/97 94/94/94
f 94/94/94 97/97/97 96/96/96
f 97/97/97 95/95/95 98/98/98
f 97/97/97 98/98/98 96/96/96
f 98/98/98 99/99/99 96/96/96
f 99/99/99 98/98/98 100/100/100
f 95/95/95 101/101/101 98/98/98
f 98/98/98 102/102/102 100/100/100
f 98/98/98 101/101/101 102/102/102
f 101/101/101 103/103/103 102/102/102
f 106/106/106 105/105/105 104/104/104
f 107/107/107 106/106/106 104/104/104
f 110/110/110 109/109/109 108/108/108
f 111/111/111 110/110/110 108/108/108
f 114/114/114 113/113/113 112/112/112
f 113/113/113 115/115/115 112/112/112
f 116/116/116 115/115/115 113/113/113
f 115/115/115 116/116/116 117/117/117
f 118/118/118 115/115/115 117/117/117
f 112/112/112 115/115/115 118/118/118
f 119/119/119 112/112/112 118/118/118
f 122/122/122 121/121/121 120/120/120
f 123/123/123 122/122/122 120/120/120
f 123/123/123 120/120/120 124/124/124
f 125/125/125 123/123/123 124/124/124
f 122/122/122 123/123/123 126/126/126
f 126/126/126 123/123/123 125/125/125
f 127/127/127 122/122/122 126/126/126
f 128/128/128 126/126/126 125/125/125
f 131/131/131 130/130/130 129/129/129
f 130/130/130 132/132/132 129/129/129
f 132/132/132 130/130/130 133/133/133
f 134/134/134 132/132/132 133/133/133
f 129/129/129 132/132/132 135/135/135
f 135/135/135 132/132/132 134/134/134
f 136/136/136 129/129/129 135/135/135
f 137/137/137 135/135/135 134/134/134
f 140/140/140 139/139/139 138/138/138
f 139/139/139 141/141/141 138/138/138
f 141/141/141 142/142/142 138/138/138
f 143/143/143 141/141/141 139/139/139
f 142/142/142 141/141/141 143/143/143
f 144/144/144 143/143/143 139/139/139
f 145/145/145 142/142/142 143/143/143
f 148/148/148 147/147/147 146/146/146
f 147/147/147 149/149/149 146/146/146
f 150/150/150 146/146/146 149/149/149
f 149/149/149 147/147/147 151/151/151
f 152/152/152 150/150/150 149/149/149
f 149/149/149 151/151/151 153/153/153
f 152/152/152 149/149/149 153/153/153
f 156/156/156 155/155/155 154/154/154
f 155/155/155 157/157/157 154/154/154
f 154/154/154 157/157/157 158/158/158
f 155/155/155 159/159/159 157/157/157
f 157/157/157 160/160/160 158/158/158
f 159/159/159 161/161/161 157/157/157
f 160/160/160 157/157/157 161/161/161
f 164/164/164 163/163/163 162/162/162
f 163/163/163 165/165/165 162/162/162
f 162/162/162 165/165/165 166/166/166
f 163/163/163 167/167/167 165/165/165
f 165/165/165 168/168/168 166/166/166
f 167/167/167 169/169/169 165/165/165
f 170/170/170 168/168/168 165/165/165
f 169/169/169 170/170/170 165/165/165
f 173/173/173 172/172/172 171/171/171
f 172/172/172 174/174/174 171/171/171
f 175/175/175 173/173/173 171/171/171
f 174/174/174 176/176/176 171/171/171
f 177/177/177 175/175/175 171/171/171
f 176/176/176 178/178/178 171/171/171
f 179/179/179 177/177/177 171/171/171
f 178/178/178 179/179/179 171/171/171
f 182/182/182 181/181/181 180/180/180
f 183/183/183 182/182/182 180/180/180
f 184/184/184 181/181/181 182/182/182
f 185/185/185 184/184/184 182/182/182
f 182/182/182 183/183/183 186/186/186
f 187/187/187 185/185/185 182/182/182
f 188/188/188 182/182/182 186/186/186
f 188/188/188 187/187/187 182/182/182
f 189/189/189 188/188/188 186/186/186
f 187/187/187 188/188/188 189/189/189
f 190/190/190 189/189/189 186/186/186
f 191/191/191 187/187/187 189/189/189
f 189/189/189 190/190/190 192/192/192
f 189/189/189 192/192/192 191/191/191
f 190/190/190 193/193/193 192/192/192
f 192/192/192 194/194/194 191/191/191
f 192/192/192 193/193/193 195/195/195
f 194/194/194 192/192/192 196/196/196
f 196/196/196 192/192/192 195/195/195
f 197/197/197 194/194/194 196/196/196
f 196/196/196 195/195/195 198/198/198
f 199/199/199 197/197/197 196/196/196
f 199/199/199 196/196/196 198/198/198
f 197/197/197 199/199/199 200/200/200
f 200/200/200 199/199/199 198/198/198
f 201/201/201 197/197/197 200/200/200
f 202/202/202 200/200/200 198/198/198
f 200/200/200 203/203/203 201/201/201
f 200/200/200 202/202/202 203/203/203
f 203/203/203 204/204/204 201/201/201
f 202/202/202 205/205/205 203/203/203
f 206/206/206 204/204/204 203/203/203
f 203/203/203 205/205/205 207/207/207
f 206/206/206 203/203/203 207/207/207
