g ENV_S05_Drain
v 11.119907 -0.5064001 -0.49284077
v 12.333084 -0.5064001 -0.49284077
v 12.341747 0.4999981 0.48606205
v 11.128571 0.502635 0.48869896
v 9.308994 0.50640106 0.49284172
v 9.300331 -0.5064001 -0.49284077
v 7.4306602 -0.5064001 -0.49284077
v 7.438193 0.50640106 0.49284172
v -7.714653 -0.5064001 -0.49284077
v -7.712393 0.50640106 0.49246502
v -9.395624 0.50640106 0.49246502
v -9.397129 -0.5064001 -0.49284077
v -11.458513 -0.5064001 -0.49284077
v -11.457384 0.5018816 0.48794556
v -12.340996 0.4999981 0.48606205
v -12.341747 -0.5064001 -0.49284077
vt -3.5117218 0.031695127
vt -3.9437099 0.031695127
vt -3.9437099 0.98987246
vt -3.5117218 0.98987246
vt -2.8640184 0.98987246
vt -2.8640184 0.031695127
vt -2.1694932 0.031695127
vt -2.1694932 0.98987246
vt 3.4575 0.031695127
vt 3.4575 0.98987246
vt 4.082907 0.98987246
vt 4.082907 0.031695127
vt 4.856584 0.031695127
vt 4.856584 0.98987246
vt 5.1882396 0.98987246
vt 5.1882396 0.031695127
vn -0 0.69734466 -0.7167359
vn -0 0.69734466 -0.7167359
vn -0 0.69734466 -0.7167359
vn -0 0.69734466 -0.7167359
vn -0 0.69734466 -0.7167359
vn -0 0.69734466 -0.7167359
vn -0 0.69734466 -0.7167359
vn -0 0.69734466 -0.7167359
vn -0 0.69734466 -0.7167359
vn -0 0.69734466 -0.7167359
vn -0 0.69734466 -0.7167359
vn -0 0.69734466 -0.7167359
vn -0 0.69734466 -0.7167359
vn -0 0.69734466 -0.7167359
vn -0 0.69734466 -0.7167359
vn -0 0.69734466 -0.7167359
g ENV_S05_Drain_0
f 3/3/3 2/2/2 1/1/1
f 4/4/4 3/3/3 1/1/1
f 4/4/4 1/1/1 5/5/5
f 1/1/1 6/6/6 5/5/5
f 5/5/5 6/6/6 7/7/7
f 8/8/8 5/5/5 7/7/7
f 8/8/8 7/7/7 9/9/9
f 10/10/10 8/8/8 9/9/9
f 10/10/10 9/9/9 11/11/11
f 9/9/9 12/12/12 11/11/11
f 11/11/11 12/12/12 13/13/13
f 14/14/14 11/11/11 13/13/13
f 14/14/14 13/13/13 15/15/15
f 13/13/13 16/16/16 15/15/15
