g ENV_solidWall01_MO
v -0.45750237 -2.1718516 5.7042904
v -0.4918089 -2.388445 3.4467793
v -0.4918089 -2.1384177 5.712431
v -0.45750237 -2.4233327 3.4243927
v 0.45742226 -2.1718516 5.7042904
v 0.45742226 -2.4233327 3.4243927
v 0.49172783 -2.1384177 5.712431
v 0.49172783 -2.388445 3.4467793
v 0.49172783 3.775303 9.480862
v 0.49172783 3.5264387 7.2192802
v 0.45742226 -2.145977 5.745574
v 0.45742226 -2.1718516 5.7042904
v 0.45974827 3.8148422 9.501213
v 0.4594574 3.565978 7.2445736
v -0.46070004 3.565978 7.2445736
v -0.4609909 3.8148422 9.503538
v -0.4918089 3.775303 9.480862
v -0.4918089 3.5264387 7.2192802
v -0.4918089 -2.1384177 5.712431
v -0.4918089 -2.388445 3.4467793
v -0.45750237 -2.145977 5.745574
v -0.45750237 -2.1718516 5.7042904
v -0.4918089 -2.1384177 5.712431
v -0.4609909 3.7779198 9.526506
v -0.4918089 3.775303 9.480862
v -0.4609909 3.8148422 9.503538
v 0.4609108 3.7779198 9.526506
v 0.45974827 3.8148422 9.501213
v -0.4918089 -3.7813282 -9.184529
v -0.4918089 1.6867046 -9.492992
v -0.45924664 1.7201385 -9.4959
v 0.4582939 1.7201385 -9.495028
v 0.49172783 1.6867046 -9.492992
v 0.49172783 -3.7813282 -9.184529
v 0.4582939 1.6829252 -9.526426
v 0.4582939 1.7201385 -9.495028
v 0.4582939 -3.815053 -9.182784
v -0.45837498 -3.815053 -9.182784
v -0.4918089 -3.7813282 -9.184529
v -0.45924664 1.6837978 -9.526426
v -0.45924664 1.7201385 -9.4959
v -0.4918089 1.6867046 -9.492992
v -0.45837498 -3.7851076 -9.217962
v -0.4918089 -3.7813282 -9.184529
v -0.45837498 -3.815053 -9.182784
v 0.45742226 -3.7842355 -9.217962
v 0.4582939 -3.815053 -9.182784
vt 0.6037963 0.2553038
vt 0.6066143 0.35863042
vt 0.6066143 0.2543645
vt 0.6037963 0.35956976
vt 0.563405 0.2553038
vt 0.563405 0.35956976
vt 0.5615263 0.2543645
vt 0.5615263 0.35863042
vt 0.31354246 0.055225898
vt 0.31354246 0.15855251
vt 0.56246567 0.2524858
vt 0.56434435 0.2543645
vt 0.31072444 0.054286566
vt 0.31072444 0.15667385
vt 0.27033314 0.15667385
vt 0.27033314 0.053347234
vt 0.26845446 0.055225898
vt 0.26845446 0.15855251
vt 0.01953125 0.2543645
vt 0.01953125 0.35863042
vt 0.5878276 0.22148782
vt 0.5897063 0.22242714
vt 0.5897063 0.21960916
vt 0.33890444 0.020470582
vt 0.34172243 0.01953125
vt 0.3379651 0.01953125
vt 0.31354246 0.0524079
vt 0.31166378 0.051468566
vt 0.01953125 0.9353808
vt 0.26845446 0.9222301
vt 0.27033314 0.9222301
vt 0.31072444 0.9222301
vt 0.31260312 0.9222301
vt 0.5615263 0.9353808
vt 0.31260312 0.9241088
vt 0.31072444 0.9241088
vt 0.563405 0.9363201
vt 0.6037963 0.9363201
vt 0.6066143 0.9353808
vt 0.31072444 0.96543944
vt 0.3088458 0.96543944
vt 0.31072444 0.9673181
vt 0.5587083 0.97859013
vt 0.5587083 0.9804688
vt 0.5615263 0.97859013
vt 0.5615263 0.9381988
vt 0.563405 0.9381988
vn -0.05882299 -0.9843062 0.16637641
vn -0.99999225 0.003921509 -0.00034492963
vn -0.99999225 0.003921509 -0.00034492963
vn -0.043097086 -0.9990709 -0
vn 0.05882311 -0.9843062 0.16637641
vn 0.043097205 -0.9990709 -0
vn 0.9999924 0.003921509 -0
vn 0.9999924 0.003921509 -0
vn 0.9999924 0.003921509 -0
vn 0.9999924 0.003921509 -0
vn 0.05098003 -0.52156466 0.8516874
vn 0.05882311 -0.9843062 0.16637641
vn 0.043136954 0.99214923 -0.11738443
vn 0.011764646 0.99214923 -0.12450501
vn -0.02745068 0.99214923 -0.122009754
vn -0.011764526 0.99214923 -0.12450501
vn -0.99999225 0.003921509 -0.00034492963
vn -0.99999225 0.003921509 -0.00034492963
vn -0.99999225 0.003921509 -0.00034492963
vn -0.99999225 0.003921509 -0.00034492963
vn -0.050979972 -0.52156466 0.8516874
vn -0.05882299 -0.9843062 0.16637641
vn -0.99999225 0.003921509 -0.00034492963
vn -0.019607663 -0.52156466 0.85298645
vn -0.99999225 0.003921509 -0.00034492963
vn -0.011764526 0.99214923 -0.12450501
vn 0.019607723 -0.52156466 0.85298645
vn 0.043136954 0.99214923 -0.11738443
vn -0.99999225 0.003921509 -0.00034492963
vn -0.99999225 0.003921509 -0.00034492963
vn -0.058721937 0.9982743 -0
vn 0.058722056 0.9982743 -0
vn 0.9999924 0.003921509 -0
vn 0.9999924 0.003921509 -0
vn 0.0274508 0.003921509 -0.9996155
vn 0.058722056 0.9982743 -0
vn 0.0274508 -0.9921493 0.12200926
vn -0.02745068 -0.9921493 0.12200926
vn -0.99999225 0.003921509 -0.00034492963
vn -0.035293818 0.003921509 -0.99936926
vn -0.058721937 0.9982743 -0
vn -0.99999225 0.003921509 -0.00034492963
vn -0.02745068 0.003921509 -0.9996155
vn -0.99999225 0.003921509 -0.00034492963
vn -0.02745068 -0.9921493 0.12200926
vn 0.0274508 0.003921509 -0.9996155
vn 0.0274508 -0.9921493 0.12200926
g ENV_solidWall01_MO_0
f 3/3/3 2/2/2 1/1/1
f 2/2/2 4/4/4 1/1/1
f 5/5/5 1/1/1 4/4/4
f 6/6/6 5/5/5 4/4/4
f 5/5/5 6/6/6 7/7/7
f 6/6/6 8/8/8 7/7/7
f 9/9/9 7/7/7 8/8/8
f 10/10/10 9/9/9 8/8/8
f 11/11/11 7/7/7 9/9/9
f 7/7/7 11/11/11 12/12/12
f 9/9/9 10/10/10 13/13/13
f 10/10/10 14/14/14 13/13/13
f 14/14/14 15/15/15 13/13/13
f 15/15/15 16/16/16 13/13/13
f 16/16/16 15/15/15 17/17/17
f 15/15/15 18/18/18 17/17/17
f 19/19/19 17/17/17 18/18/18
f 20/20/20 19/19/19 18/18/18
f 12/12/12 11/11/11 21/21/21
f 22/22/22 12/12/12 21/21/21
f 23/23/23 22/22/22 21/21/21
f 21/21/21 24/24/24 23/23/23
f 21/21/21 11/11/11 24/24/24
f 24/24/24 25/25/25 23/23/23
f 25/25/25 24/24/24 26/26/26
f 11/11/11 27/27/27 24/24/24
f 24/24/24 27/27/27 26/26/26
f 27/27/27 11/11/11 9/9/9
f 27/27/27 28/28/28 26/26/26
f 27/27/27 9/9/9 28/28/28
g ENV_solidWall01_MO_1
f 20/20/20 18/18/18 29/29/29
f 18/18/18 30/30/30 29/29/29
f 31/31/31 30/30/30 18/18/18
f 15/15/15 31/31/31 18/18/18
f 32/32/32 31/31/31 15/15/15
f 14/14/14 32/32/32 15/15/15
f 33/33/33 32/32/32 14/14/14
f 10/10/10 33/33/33 14/14/14
f 33/33/33 10/10/10 34/34/34
f 10/10/10 8/8/8 34/34/34
f 35/35/35 33/33/33 34/34/34
f 35/35/35 36/36/36 33/33/33
f 37/37/37 34/34/34 8/8/8
f 6/6/6 37/37/37 8/8/8
f 6/6/6 4/4/4 37/37/37
f 4/4/4 38/38/38 37/37/37
f 39/39/39 38/38/38 4/4/4
f 2/2/2 39/39/39 4/4/4
f 36/36/36 35/35/35 40/40/40
f 41/41/41 36/36/36 40/40/40
f 42/42/42 41/41/41 40/40/40
f 40/40/40 43/43/43 42/42/42
f 40/40/40 35/35/35 43/43/43
f 43/43/43 44/44/44 42/42/42
f 43/43/43 45/45/45 44/44/44
f 46/46/46 35/35/35 34/34/34
f 35/35/35 46/46/46 43/43/43
f 43/43/43 46/46/46 45/45/45
f 46/46/46 34/34/34 47/47/47
f 46/46/46 47/47/47 45/45/45
