g ENV_SY01_G9_Section4_Vinyl_Slide_03_MO
v -5.029616 -0.014575958 -2.4398282
v -5.029616 -1.1119306 -2.2891657
v -4.9728665 -1.117482 -2.3124514
v -4.9728665 -0.018893719 -2.463268
v -4.9728665 0.042481422 -2.4478471
v -5.0191293 0.0338459 -2.435973
v -2.486239 0.042327404 -2.4480014
v -2.4863935 -0.018893719 -2.463268
v -2.4863935 -1.117482 -2.3124514
v 0.00038862228 0.042327404 -2.4481556
v -7.390976E-05 -0.019048214 -2.463268
v -7.390976E-05 -1.117482 -2.3124514
v 2.4871707 0.042327404 -2.44831
v 2.4863997 -0.019048214 -2.463268
v 2.4863997 -1.117482 -2.3124514
v 4.9737983 0.042327404 -2.448464
v 4.972873 -0.019048214 -2.463268
v 4.972873 -1.1176362 -2.3124514
v 5.029622 -1.1120846 -2.2891657
v 5.029622 -0.014729977 -2.4398282
v 5.0195985 0.033691406 -2.4364357
v -2.486239 0.042327404 -2.4480014
v 0.00038862228 0.042327404 -2.4481556
v 0.0010056496 0.076099396 -2.395416
v -2.486085 0.076253414 -2.3949533
v 0.00038862228 0.2839737 -1.2769346
v -2.486239 0.2841277 -1.2767804
v 5.029622 -0.014729977 -2.4398282
v 5.029622 -1.1120846 -2.2891657
v 5.053062 -1.0988228 -2.2330334
v 5.053062 -0.0042438507 -2.3833876
v 5.053062 -0.82741404 -1.0871029
v 5.0300846 0.052505016 -2.3921776
v 5.0195985 0.033691406 -2.4364357
v 5.029776 0.2605338 -1.2726169
v 5.053062 0.20424747 -1.2618222
v 5.029622 0.46871662 -0.15321016
v 5.053062 0.41273832 -0.14025688
v 5.053062 -0.5561595 0.058981895
v 5.029622 0.78145313 0.9669676
v 5.053062 0.7264004 0.98315954
v 5.053062 -0.14642525 1.2228007
v 5.029622 1.0941901 2.0869908
v 5.053062 1.0400624 2.106421
v 5.053062 0.26330948 2.3866196
v 5.029622 0.2824316 2.4407473
v 5.029622 1.0556378 2.1617823
v 5.019136 1.0972743 2.1358752
v 5.029622 1.0556378 2.1617823
v 5.029622 0.2824316 2.4407473
v 4.972873 0.29029608 2.4632616
v 4.972873 1.0621147 2.1847596
v 2.4863997 0.29029608 2.4632616
v 4.972873 1.1102281 2.1425061
v 5.019136 1.0972743 2.1358752
v 2.4860911 1.1102281 2.1428146
v 2.4863997 1.0622687 2.1847596
v -0.00069093704 1.1103821 2.1429687
v -7.390976E-05 1.0622687 2.1847596
v -7.390976E-05 0.29029608 2.4632616
v -2.4874725 1.1103821 2.1432772
v -2.4863935 1.0622687 2.1847596
v -2.4863935 0.29029608 2.4632616
v -4.9744086 1.1105366 2.1434312
v -4.9728665 1.0622687 2.1847596
v -4.9728665 0.29045057 2.4632616
v -5.029616 0.2824316 2.4409013
v -5.029616 1.0557919 2.1617823
v -5.0197463 1.0974288 2.1364918
v -0.00069093704 1.1103821 2.1429687
v -2.4874725 1.1103821 2.1432772
v -2.488552 1.1173215 2.081131
v -0.0014619827 1.1171675 2.08036
v 2.4860911 1.1102281 2.1428146
v 2.4857826 1.116859 2.079743
v -2.4874725 0.804585 0.96126175
v -0.00069093704 0.804585 0.96095324
v 2.4860911 0.8044305 0.9606447
v 2.4863997 0.491848 -0.15860748
v -7.390976E-05 0.492002 -0.15860748
v 2.4871707 0.2839737 -1.2772431
v -2.4863935 0.492002 -0.15845346
v 0.00038862228 0.2839737 -1.2769346
v -2.486239 0.2841277 -1.2767804
v -5.029616 1.0557919 2.1617823
v -5.029616 0.2824316 2.4409013
v -5.0530553 0.26346397 2.386774
v -5.0530553 1.0402169 2.106421
v -5.0303864 1.0946527 2.0883784
v -5.0197463 1.0974288 2.1364918
v -5.029924 0.78176165 0.96758413
v -5.0530553 0.7265549 0.98315954
v -5.0530553 -0.14627075 1.2228007
v -5.029616 0.46887064 -0.15321016
v -5.0530553 0.41289282 -0.14010239
v -5.0530553 -0.5560055 0.058981895
v -5.029616 0.26084232 -1.2721541
v -5.0530553 -0.82726 -1.0871029
v -5.0530553 0.2044015 -1.2618222
v -5.029616 0.05281353 -2.3912523
v -5.0530553 -0.0042438507 -2.3833876
v -5.0530553 -1.0986686 -2.2330334
v -5.029616 -1.1119306 -2.2891657
v -5.029616 -0.014575958 -2.4398282
v -5.0191293 0.0338459 -2.435973
v -5.029616 0.05281353 -2.3912523
v -5.0191293 0.0338459 -2.435973
v -4.9728665 0.042481422 -2.4478471
v -4.9728665 0.076253414 -2.3944907
v -5.029616 0.26084232 -1.2721541
v -2.486085 0.076253414 -2.3949533
v -2.486239 0.042327404 -2.4480014
v -2.486239 0.2841277 -1.2767804
v -4.9728665 0.2841277 -1.2764721
v -5.029616 0.46887064 -0.15321016
v -4.9728665 0.492002 -0.15845346
v -2.486239 0.2841277 -1.2767804
v -5.029924 0.78176165 0.96758413
v -2.4863935 0.492002 -0.15845346
v -4.974255 0.804739 0.9617243
v -2.4874725 0.804585 0.96126175
v -5.0303864 1.0946527 2.0883784
v -4.975797 1.11763 2.0817475
v -2.488552 1.1173215 2.081131
v -2.4874725 0.804585 0.96126175
v -2.4874725 1.1103821 2.1432772
v -4.9744086 1.1105366 2.1434312
v -5.0197463 1.0974288 2.1364918
v 4.9737983 0.042327404 -2.448464
v 5.0195985 0.033691406 -2.4364357
v 5.0300846 0.052505016 -2.3921776
v 4.9747233 0.07579088 -2.396341
v 2.4871707 0.042327404 -2.44831
v 2.4877875 0.0759449 -2.3958786
v 4.9737983 0.2838192 -1.2773974
v 2.4871707 0.2839737 -1.2772431
v 5.029776 0.2605338 -1.2726169
v 4.972873 0.491848 -0.15860748
v 5.029622 0.46871662 -0.15321016
v 2.4863997 0.491848 -0.15860748
v 2.4871707 0.2839737 -1.2772431
v 2.4860911 0.8044305 0.9606447
v 4.972873 0.80427647 0.9601822
v 5.029622 0.78145313 0.9669676
v 4.972873 1.116705 2.0789719
v 5.029622 1.0941901 2.0869908
v 2.4857826 1.116859 2.079743
v 2.4860911 0.8044305 0.9606447
v 4.972873 1.1102281 2.1425061
v 5.019136 1.0972743 2.1358752
v 2.4860911 1.1102281 2.1428146
v 0.0010056496 0.076099396 -2.395416
v 2.4871707 0.2839737 -1.2772431
v 0.00038862228 0.2839737 -1.2769346
v 2.4877875 0.0759449 -2.3958786
v 0.00038862228 0.042327404 -2.4481556
v 2.4871707 0.042327404 -2.44831
vt 0.51136863 0.9822114
vt 0.62288404 0.9822114
vt 0.62288404 0.97935206
vt 0.51136863 0.97935206
vt 0.5056499 0.97935206
vt 0.5056499 0.9822114
vt 0.5056499 0.86402416
vt 0.51136863 0.86402416
vt 0.62288404 0.86402416
vt 0.5056499 0.7477431
vt 0.51136863 0.7477431
vt 0.62288404 0.7477431
vt 0.5056499 0.6324153
vt 0.51136863 0.6324153
vt 0.62288404 0.6324153
vt 0.5056499 0.5170874
vt 0.51136863 0.5170874
vt 0.62288404 0.5170874
vt 0.62288404 0.51422805
vt 0.51136863 0.51422805
vt 0.5056499 0.51422805
vt 0.12726009 0.9860239
vt 0.30549407 0.9860239
vt 0.30549407 0.97935206
vt 0.12726009 0.97935206
vt 0.30549407 0.86402416
vt 0.12726009 0.86402416
vt 0.6123997 0.012885317
vt 0.5046968 0.012885317
vt 0.5046968 0.017650932
vt 0.6123997 0.017650932
vt 0.5046968 0.13488507
vt 0.6181184 0.017650932
vt 0.6181184 0.012885317
vt 0.6181184 0.13488507
vt 0.6123997 0.13488507
vt 0.6181184 0.25116608
vt 0.6123997 0.25116608
vt 0.5046968 0.25116608
vt 0.6181184 0.37125957
vt 0.6123997 0.37125957
vt 0.5046968 0.37125957
vt 0.6181184 0.4913531
vt 0.6123997 0.4913531
vt 0.5046968 0.4913531
vt 0.5046968 0.49611866
vt 0.6123997 0.49611866
vt 0.6181184 0.49611866
vt 0.7372588 0.014791563
vt 0.63718086 0.014791563
vt 0.63718086 0.017650932
vt 0.7372588 0.017650932
vt 0.63718086 0.13679132
vt 0.7448838 0.017650932
vt 0.7448838 0.014791563
vt 0.7448838 0.13679132
vt 0.7372588 0.13679132
vt 0.7448838 0.2568848
vt 0.7372588 0.2568848
vt 0.63718086 0.2568848
vt 0.7448838 0.3760252
vt 0.7372588 0.3760252
vt 0.63718086 0.3760252
vt 0.7448838 0.49611866
vt 0.7372588 0.49611866
vt 0.63718086 0.49611866
vt 0.63718086 0.49802494
vt 0.7372588 0.49802494
vt 0.7448838 0.49802494
vt 0.25307232 0.50660306
vt 0.13393193 0.50660306
vt 0.13393193 0.5132749
vt 0.25307232 0.5132749
vt 0.3722127 0.50660306
vt 0.3722127 0.51232177
vt 0.13393193 0.630509
vt 0.25307232 0.630509
vt 0.3722127 0.630509
vt 0.3722127 0.74869627
vt 0.25307232 0.74869627
vt 0.3722127 0.86402416
vt 0.13393193 0.74869627
vt 0.25307232 0.86402416
vt 0.13393193 0.86402416
vt 0.6400403 0.9860239
vt 0.74679005 0.9860239
vt 0.74679005 0.9803052
vt 0.6400403 0.9803052
vt 0.6333684 0.9803052
vt 0.6333684 0.9860239
vt 0.6333684 0.8602117
vt 0.6400403 0.8602117
vt 0.74679005 0.8602117
vt 0.6333684 0.74011815
vt 0.6400403 0.74011815
vt 0.74679005 0.74011815
vt 0.6333684 0.6238372
vt 0.74679005 0.6238372
vt 0.6400403 0.6238372
vt 0.6333684 0.5075562
vt 0.6400403 0.5075562
vt 0.74679005 0.5075562
vt 0.74679005 0.50183743
vt 0.6400403 0.50183743
vt 0.6333684 0.50183743
vt 0.011932194 0.9803052
vt 0.011932194 0.98507077
vt 0.014791563 0.9860239
vt 0.014791563 0.97935206
vt 0.010979071 0.86402416
vt 0.21399428 0.97935206
vt 0.21399428 0.9860239
vt 0.21399428 0.86402416
vt 0.01383844 0.86402416
vt 0.010979071 0.74869627
vt 0.01383844 0.74869627
vt 0.22924425 0.86402416
vt 0.010979071 0.630509
vt 0.22924425 0.74869627
vt 0.01383844 0.630509
vt 0.22924425 0.630509
vt 0.010979071 0.51232177
vt 0.01383844 0.51232177
vt 0.20732242 0.5132749
vt 0.20732242 0.630509
vt 0.20732242 0.50660306
vt 0.01383844 0.50660306
vt 0.011932194 0.5075562
vt 0.49230617 0.98507077
vt 0.49421245 0.9841177
vt 0.4951656 0.97935206
vt 0.49230617 0.97935206
vt 0.23019737 0.98507077
vt 0.23019737 0.97935206
vt 0.49230617 0.863071
vt 0.23019737 0.86402416
vt 0.4951656 0.86402416
vt 0.49230617 0.7477431
vt 0.4951656 0.7477431
vt 0.2769004 0.74869627
vt 0.2769004 0.86402416
vt 0.2769004 0.630509
vt 0.4913531 0.630509
vt 0.49421245 0.630509
vt 0.4913531 0.5132749
vt 0.49421245 0.5132749
vt 0.3007285 0.51232177
vt 0.3007285 0.630509
vt 0.4913531 0.50660306
vt 0.49421245 0.5075562
vt 0.3007285 0.50660306
vt 0.2149474 0.97935206
vt 0.38269705 0.86402416
vt 0.2149474 0.86402416
vt 0.38269705 0.97935206
vt 0.2149474 0.9860239
vt 0.38269705 0.98507077
vn -0.7176415 -0.08235234 -0.6915264
vn -0.7019553 -0.098038495 -0.7054412
vn -0.011764526 -0.13725388 -0.99046606
vn -0.011764526 -0.11372465 -0.99344265
vn -0.003921509 0.5843092 -0.81152165
vn -0.5764661 0.47450614 -0.66522986
vn -0.003921509 0.5843092 -0.81152165
vn -0.003921509 -0.11372465 -0.9935046
vn -0.003921509 -0.13725388 -0.9905281
vn -0.003921509 0.5843092 -0.81152165
vn -0.003921509 -0.11372465 -0.9935046
vn -0.003921509 -0.13725388 -0.9905281
vn -0.003921509 0.5764661 -0.8171117
vn -0.003921509 -0.11372465 -0.9935046
vn -0.003921509 -0.13725388 -0.9905281
vn 0.0039215684 0.5764661 -0.8171117
vn 0.011764646 -0.11372465 -0.99344265
vn 0.011764646 -0.13725388 -0.99046606
vn 0.70195544 -0.098038495 -0.705441
vn 0.7176416 -0.08235234 -0.6915263
vn 0.5843093 0.466663 -0.663934
vn -0.003921509 0.5843092 -0.81152165
vn -0.003921509 0.5843092 -0.81152165
vn -0.003921509 0.9764631 -0.21564901
vn -0.003921509 0.9764631 -0.21564901
vn -0.003921509 0.9843061 -0.17642602
vn -0.003921509 0.9843061 -0.17642602
vn 0.7176416 -0.08235234 -0.6915263
vn 0.70195544 -0.098038495 -0.705441
vn 0.9999924 -0.0039215684 -0
vn 0.9998079 0.019604046 -0
vn 0.9999924 0.003921509 -0
vn 0.7176416 0.67842615 -0.157253
vn 0.5843093 0.466663 -0.663934
vn 0.7176416 0.68626916 -0.11842796
vn 0.9998079 0.019604046 -0
vn 0.7176416 0.67842615 -0.157253
vn 0.9998079 0.019604046 -0
vn 0.9999924 -0.0039215684 -0
vn 0.7097985 0.67842615 -0.18953641
vn 0.9998079 0.019604046 -0
vn 0.9999924 -0.0039215684 -0
vn 0.7176416 0.670583 -0.18790677
vn 0.9996234 0.027440554 -0
vn 0.9999924 0.003921509 -0
vn 0.7097985 0.23921382 0.6625427
vn 0.7176416 0.25489998 0.64808685
vn 0.5764662 0.7254846 0.37597713
vn 0.7176416 0.25489998 0.64808685
vn 0.7097985 0.23921382 0.6625427
vn 0.011764646 0.34117377 0.9399266
vn 0.011764646 0.36470306 0.9310496
vn -0.003921509 0.34117377 0.9399921
vn 0.0039215684 0.8901892 0.45557418
vn 0.5764662 0.7254846 0.37597713
vn 0.0039215684 0.8901892 0.45557418
vn 0.0039215684 0.36470306 0.9311156
vn 0.0039215684 0.88234615 0.47058466
vn 0.0039215684 0.36470306 0.9311156
vn -0.003921509 0.34117377 0.9399921
vn 0.0039215684 0.88234615 0.47058466
vn 0.0039215684 0.36470306 0.9311156
vn -0.003921509 0.34117377 0.9399921
vn -0.003921509 0.88234615 0.47058466
vn -0.011764526 0.36470306 0.9310496
vn -0.011764526 0.34117377 0.9399266
vn -0.70979846 0.23921382 0.66254276
vn -0.7176415 0.25489998 0.64808697
vn -0.5843092 0.70979846 0.39340678
vn 0.0039215684 0.88234615 0.47058466
vn 0.0039215684 0.88234615 0.47058466
vn 0.0039215684 0.96861994 -0.2485156
vn 0.0039215684 0.96861994 -0.2485156
vn 0.0039215684 0.8901892 0.45557418
vn 0.0039215684 0.96861994 -0.2485156
vn -0.003921509 0.9607769 -0.27729464
vn -0.003921509 0.9607769 -0.27729464
vn -0.003921509 0.9607769 -0.27729464
vn -0.003921509 0.9764631 -0.21564901
vn -0.003921509 0.9764631 -0.21564901
vn -0.003921509 0.9843061 -0.17642602
vn -0.003921509 0.9764631 -0.21564901
vn -0.003921509 0.9843061 -0.17642602
vn -0.003921509 0.9843061 -0.17642602
vn -0.7176415 0.25489998 0.64808697
vn -0.70979846 0.23921382 0.66254276
vn -0.99999225 0.003921509 -0.00034492963
vn -0.9996234 0.027440555 -0
vn -0.7254846 0.670583 -0.1548887
vn -0.5843092 0.70979846 0.39340678
vn -0.7176415 0.670583 -0.18790725
vn -0.9998079 0.019604048 -0
vn -0.99999225 0.003921509 -0.00034492963
vn -0.7176415 0.67842615 -0.15725358
vn -0.9998079 0.019604048 -0
vn -0.99999225 0.003921509 -0.00034492963
vn -0.70979846 0.6941123 -0.11997605
vn -0.99999225 0.003921509 -0.00034492963
vn -0.9998079 0.019604048 -0
vn -0.7176415 0.68626916 -0.118428715
vn -0.9998079 0.019604048 -0
vn -0.99999225 -0.0039215684 -0.00034425134
vn -0.7019553 -0.098038495 -0.7054412
vn -0.7176415 -0.08235234 -0.6915264
vn -0.5764661 0.47450614 -0.66522986
vn -0.7176415 0.68626916 -0.118428715
vn -0.5764661 0.47450614 -0.66522986
vn -0.003921509 0.5843092 -0.81152165
vn -0.011764526 0.9764631 -0.21536359
vn -0.70979846 0.6941123 -0.11997605
vn -0.003921509 0.9764631 -0.21564901
vn -0.003921509 0.5843092 -0.81152165
vn -0.003921509 0.9843061 -0.17642602
vn -0.011764526 0.9843061 -0.17607702
vn -0.7176415 0.67842615 -0.15725358
vn -0.011764526 0.9764631 -0.21536359
vn -0.003921509 0.9843061 -0.17642602
vn -0.7176415 0.670583 -0.18790725
vn -0.003921509 0.9764631 -0.21564901
vn -0.011764526 0.9607769 -0.27707273
vn -0.003921509 0.9607769 -0.27729464
vn -0.7254846 0.670583 -0.1548887
vn -0.011764526 0.96861994 -0.24826796
vn 0.0039215684 0.96861994 -0.2485156
vn -0.003921509 0.9607769 -0.27729464
vn 0.0039215684 0.88234615 0.47058466
vn -0.003921509 0.88234615 0.47058466
vn -0.5843092 0.70979846 0.39340678
vn 0.0039215684 0.5764661 -0.8171117
vn 0.5843093 0.466663 -0.663934
vn 0.7176416 0.67842615 -0.157253
vn 0.011764646 0.9764631 -0.21536359
vn -0.003921509 0.5764661 -0.8171117
vn -0.003921509 0.9764631 -0.21564901
vn 0.011764646 0.9843061 -0.17607702
vn -0.003921509 0.9843061 -0.17642602
vn 0.7176416 0.68626916 -0.11842796
vn 0.011764646 0.9764631 -0.21536359
vn 0.7176416 0.67842615 -0.157253
vn -0.003921509 0.9764631 -0.21564901
vn -0.003921509 0.9843061 -0.17642602
vn -0.003921509 0.9607769 -0.27729464
vn 0.011764646 0.9607769 -0.27707273
vn 0.7097985 0.67842615 -0.18953641
vn 0.011764646 0.96861994 -0.24826796
vn 0.7176416 0.670583 -0.18790677
vn 0.0039215684 0.96861994 -0.2485156
vn -0.003921509 0.9607769 -0.27729464
vn 0.0039215684 0.8901892 0.45557418
vn 0.5764662 0.7254846 0.37597713
vn 0.0039215684 0.8901892 0.45557418
vn -0.003921509 0.9764631 -0.21564901
vn -0.003921509 0.9843061 -0.17642602
vn -0.003921509 0.9843061 -0.17642602
vn -0.003921509 0.9764631 -0.21564901
vn -0.003921509 0.5843092 -0.81152165
vn -0.003921509 0.5764661 -0.8171117
g ENV_SY01_G9_Section4_Vinyl_Slide_03_MO_0
f 3/3/3 2/2/2 1/1/1
f 4/4/4 3/3/3 1/1/1
f 4/4/4 1/1/1 5/5/5
f 1/1/1 6/6/6 5/5/5
f 5/5/5 7/7/7 4/4/4
f 4/4/4 8/8/8 3/3/3
f 7/7/7 8/8/8 4/4/4
f 8/8/8 9/9/9 3/3/3
f 7/7/7 10/10/10 8/8/8
f 8/8/8 11/11/11 9/9/9
f 10/10/10 11/11/11 8/8/8
f 11/11/11 12/12/12 9/9/9
f 10/10/10 13/13/13 11/11/11
f 11/11/11 14/14/14 12/12/12
f 13/13/13 14/14/14 11/11/11
f 14/14/14 15/15/15 12/12/12
f 13/13/13 16/16/16 14/14/14
f 14/14/14 17/17/17 15/15/15
f 16/16/16 17/17/17 14/14/14
f 17/17/17 18/18/18 15/15/15
f 19/19/19 18/18/18 17/17/17
f 20/20/20 19/19/19 17/17/17
f 17/17/17 16/16/16 20/20/20
f 16/16/16 21/21/21 20/20/20
f 24/24/24 23/23/23 22/22/22
f 25/25/25 24/24/24 22/22/22
f 26/26/26 24/24/24 25/25/25
f 27/27/27 26/26/26 25/25/25
f 30/30/30 29/29/29 28/28/28
f 31/31/31 30/30/30 28/28/28
f 32/32/32 30/30/30 31/31/31
f 31/31/31 28/28/28 33/33/33
f 28/28/28 34/34/34 33/33/33
f 31/31/31 33/33/33 35/35/35
f 36/36/36 31/31/31 35/35/35
f 36/36/36 32/32/32 31/31/31
f 36/36/36 35/35/35 37/37/37
f 36/36/36 38/38/38 32/32/32
f 38/38/38 36/36/36 37/37/37
f 38/38/38 39/39/39 32/32/32
f 37/37/37 40/40/40 38/38/38
f 38/38/38 41/41/41 39/39/39
f 40/40/40 41/41/41 38/38/38
f 41/41/41 42/42/42 39/39/39
f 40/40/40 43/43/43 41/41/41
f 41/41/41 44/44/44 42/42/42
f 43/43/43 44/44/44 41/41/41
f 44/44/44 45/45/45 42/42/42
f 46/46/46 45/45/45 44/44/44
f 47/47/47 46/46/46 44/44/44
f 44/44/44 43/43/43 47/47/47
f 43/43/43 48/48/48 47/47/47
f 51/51/51 50/50/50 49/49/49
f 52/52/52 51/51/51 49/49/49
f 53/53/53 51/51/51 52/52/52
f 52/52/52 49/49/49 54/54/54
f 49/49/49 55/55/55 54/54/54
f 54/54/54 56/56/56 52/52/52
f 56/56/56 57/57/57 52/52/52
f 57/57/57 53/53/53 52/52/52
f 56/56/56 58/58/58 57/57/57
f 57/57/57 59/59/59 53/53/53
f 58/58/58 59/59/59 57/57/57
f 59/59/59 60/60/60 53/53/53
f 58/58/58 61/61/61 59/59/59
f 59/59/59 62/62/62 60/60/60
f 61/61/61 62/62/62 59/59/59
f 62/62/62 63/63/63 60/60/60
f 61/61/61 64/64/64 62/62/62
f 62/62/62 65/65/65 63/63/63
f 64/64/64 65/65/65 62/62/62
f 65/65/65 66/66/66 63/63/63
f 67/67/67 66/66/66 65/65/65
f 68/68/68 67/67/67 65/65/65
f 65/65/65 64/64/64 68/68/68
f 64/64/64 69/69/69 68/68/68
f 72/72/72 71/71/71 70/70/70
f 73/73/73 72/72/72 70/70/70
f 73/73/73 70/70/70 74/74/74
f 75/75/75 73/73/73 74/74/74
f 76/76/76 72/72/72 73/73/73
f 77/77/77 73/73/73 75/75/75
f 77/77/77 76/76/76 73/73/73
f 78/78/78 77/77/77 75/75/75
f 78/78/78 79/79/79 77/77/77
f 77/77/77 80/80/80 76/76/76
f 79/79/79 80/80/80 77/77/77
f 80/80/80 79/79/79 81/81/81
f 80/80/80 82/82/82 76/76/76
f 83/83/83 80/80/80 81/81/81
f 82/82/82 80/80/80 83/83/83
f 84/84/84 82/82/82 83/83/83
f 87/87/87 86/86/86 85/85/85
f 88/88/88 87/87/87 85/85/85
f 88/88/88 85/85/85 89/89/89
f 85/85/85 90/90/90 89/89/89
f 88/88/88 89/89/89 91/91/91
f 87/87/87 88/88/88 92/92/92
f 92/92/92 88/88/88 91/91/91
f 93/93/93 87/87/87 92/92/92
f 92/92/92 91/91/91 94/94/94
f 93/93/93 92/92/92 95/95/95
f 95/95/95 92/92/92 94/94/94
f 96/96/96 93/93/93 95/95/95
f 94/94/94 97/97/97 95/95/95
f 98/98/98 96/96/96 95/95/95
f 97/97/97 99/99/99 95/95/95
f 99/99/99 98/98/98 95/95/95
f 97/97/97 100/100/100 99/99/99
f 99/99/99 101/101/101 98/98/98
f 100/100/100 101/101/101 99/99/99
f 101/101/101 102/102/102 98/98/98
f 103/103/103 102/102/102 101/101/101
f 104/104/104 103/103/103 101/101/101
f 101/101/101 100/100/100 104/104/104
f 100/100/100 105/105/105 104/104/104
f 108/108/108 107/107/107 106/106/106
f 109/109/109 108/108/108 106/106/106
f 109/109/109 106/106/106 110/110/110
f 109/109/109 111/111/111 108/108/108
f 111/111/111 112/112/112 108/108/108
f 113/113/113 111/111/111 109/109/109
f 114/114/114 113/113/113 109/109/109
f 114/114/114 109/109/109 110/110/110
f 114/114/114 110/110/110 115/115/115
f 116/116/116 114/114/114 115/115/115
f 114/114/114 116/116/116 117/117/117
f 115/115/115 118/118/118 116/116/116
f 116/116/116 119/119/119 117/117/117
f 118/118/118 120/120/120 116/116/116
f 119/119/119 116/116/116 120/120/120
f 121/121/121 119/119/119 120/120/120
f 118/118/118 122/122/122 120/120/120
f 122/122/122 123/123/123 120/120/120
f 120/120/120 123/123/123 124/124/124
f 125/125/125 120/120/120 124/124/124
f 124/124/124 123/123/123 126/126/126
f 123/123/123 127/127/127 126/126/126
f 123/123/123 122/122/122 127/127/127
f 122/122/122 128/128/128 127/127/127
f 131/131/131 130/130/130 129/129/129
f 132/132/132 131/131/131 129/129/129
f 132/132/132 129/129/129 133/133/133
f 134/134/134 132/132/132 133/133/133
f 131/131/131 132/132/132 135/135/135
f 135/135/135 132/132/132 134/134/134
f 136/136/136 135/135/135 134/134/134
f 137/137/137 131/131/131 135/135/135
f 137/137/137 135/135/135 138/138/138
f 139/139/139 137/137/137 138/138/138
f 140/140/140 138/138/138 135/135/135
f 141/141/141 140/140/140 135/135/135
f 140/140/140 142/142/142 138/138/138
f 142/142/142 143/143/143 138/138/138
f 138/138/138 143/143/143 139/139/139
f 143/143/143 144/144/144 139/139/139
f 143/143/143 145/145/145 144/144/144
f 145/145/145 146/146/146 144/144/144
f 147/147/147 145/145/145 143/143/143
f 148/148/148 147/147/147 143/143/143
f 145/145/145 149/149/149 146/146/146
f 145/145/145 147/147/147 149/149/149
f 149/149/149 150/150/150 146/146/146
f 147/147/147 151/151/151 149/149/149
f 154/154/154 153/153/153 152/152/152
f 153/153/153 155/155/155 152/152/152
f 152/152/152 155/155/155 156/156/156
f 155/155/155 157/157/157 156/156/156
