g ENV_Floor_End_B
v -1020.04297 -163.63257 1480.1929
v -1286.1743 163.67761 -1480.5544
v -0.022583008 163.67761 -1480.2833
v -0.022583008 -163.67773 1480.5544
v 1020.04297 -163.63257 1480.1929
v 1286.1746 163.67761 -1480.5544
vt 1.3585362 7.4848824
vt 1.5786003 4.9154997
vt 0.49994195 4.9169765
vt 0.50289583 7.4858675
vt -0.3522523 7.4868517
vt -0.5787164 4.9184537
vn -0 0.99394405 0.10988742
vn -0 0.99394405 0.10988742
vn -0 0.99394405 0.10988742
vn -0 0.99394405 0.10988742
vn -0 0.99394405 0.10988742
vn -0 0.99394405 0.10988742
g ENV_Floor_End_B_0
f 3/3/3 2/2/2 1/1/1
f 4/4/4 3/3/3 1/1/1
f 3/3/3 4/4/4 5/5/5
f 6/6/6 3/3/3 5/5/5
