g ENV_goalCage_Col_MO
v -19.646389 18.762156 -48.724026
v -19.646389 -14.003311 -48.348057
v -19.646389 -14.003311 -71.03235
v 15.813954 -14.003311 -48.348057
v 16.760134 -14.003311 -47.401875
v 18.652874 -14.003311 -47.401875
v 19.599052 -14.003311 -48.348057
v 15.813954 -14.003311 -67.27939
v 19.599052 -14.003311 -71.03235
v -19.646389 -14.003311 -48.348057
v -18.700209 -14.003311 -47.401875
v -16.80747 -14.003311 -47.401875
v -15.861291 -14.003311 -48.348057
v -19.646389 -14.003311 -71.03235
v -15.861291 -14.003311 -67.27939
v 15.813954 -14.003311 -67.27939
v -15.861291 -14.003311 -67.27939
v -15.861291 11.7820215 -64.414375
v 15.813954 11.7820215 -64.414375
v 15.813954 -14.003311 -67.27939
v 19.599052 -14.003311 -71.03235
v -19.646389 -14.003311 -71.03235
v -15.861291 -14.003311 -67.27939
v 19.599052 -14.003311 -71.03235
v -19.646389 10.397461 -70.24353
v -19.646389 -14.003311 -71.03235
v 19.599052 10.397461 -70.24353
v -19.646389 13.362375 -68.26161
v 19.599052 13.362375 -68.26161
v 15.813954 -14.003311 -67.27939
v 15.813954 11.7820215 -64.414375
v 15.813954 14.704601 -48.348057
v 15.813954 -14.003311 -48.348057
v -19.646389 18.453657 -53.426483
v -19.646389 10.397461 -70.24353
v -19.646389 13.362375 -68.26161
v -19.646389 18.963116 -50.62748
v -19.646389 -14.003311 -71.03235
v -19.646389 18.762156 -48.724026
v -15.861291 14.704601 -48.348057
v -15.861291 11.7820215 -64.414375
v -15.861291 -14.003311 -67.27939
v -15.861291 -14.003311 -48.348057
v 19.599052 18.963116 -50.62748
v 19.599052 18.762156 -48.724026
v -19.646389 18.762156 -48.724026
v -19.646389 18.963116 -50.62748
v 19.599052 18.453657 -53.426483
v -19.646389 18.453657 -53.426483
v -15.861291 11.7820215 -64.414375
v -15.861291 14.704601 -48.348057
v 15.813954 14.704601 -48.348057
v 15.813954 11.7820215 -64.414375
v 19.599052 13.362375 -68.26161
v 19.599052 18.453657 -53.426483
v -19.646389 18.453657 -53.426483
v -19.646389 13.362375 -68.26161
v 15.813954 -14.003311 -48.348057
v 15.813954 14.704601 -48.348057
v 16.621569 15.414381 -47.401875
v 16.760134 -14.003311 -47.401875
v 18.652874 -14.003311 -47.401875
v 18.652874 17.220606 -47.106926
v 19.599052 18.762156 -48.724026
v 19.599052 -14.003311 -48.348057
v -19.646389 -14.003311 -48.348057
v -19.646389 18.762156 -48.724026
v -18.700209 17.220606 -47.106926
v -18.700209 -14.003311 -47.401875
v -16.80747 -14.003311 -47.401875
v -16.668905 15.414381 -47.401875
v -15.861291 14.704601 -48.348057
v -15.861291 -14.003311 -48.348057
v 16.621569 15.414381 -47.401875
v 18.652874 17.220606 -47.106926
v 18.652874 -14.003311 -47.401875
v 16.760134 -14.003311 -47.401875
v -18.700209 17.220606 -47.106926
v -16.668905 15.414381 -47.401875
v -16.80747 -14.003311 -47.401875
v -18.700209 -14.003311 -47.401875
v 19.599052 -14.003311 -71.03235
v 19.599052 -14.003311 -48.348057
v 19.599052 18.762156 -48.724026
v 19.599052 18.963116 -50.62748
v 19.599052 10.397461 -70.24353
v 19.599052 18.453657 -53.426483
v 19.599052 13.362375 -68.26161
v 16.621569 15.414381 -47.401875
v -16.668905 15.414381 -47.401875
v -18.700209 17.220606 -47.106926
v 18.652874 17.220606 -47.106926
v 19.599052 18.762156 -48.724026
v 18.652874 17.220606 -47.106926
v -18.700209 17.220606 -47.106926
v -19.646389 18.762156 -48.724026
v -15.861291 14.704601 -48.348057
v -16.668905 15.414381 -47.401875
v 16.621569 15.414381 -47.401875
v 15.813954 14.704601 -48.348057
vt 0.015808225 1.3346066
vt 0.35609412 -0.004259781
vt 0.15939105 0.023899931
vt 0.375 0.9838197
vt 0.43749368 1
vt 0.5625063 1
vt 0.625 0.9749532
vt 0.375 0.875
vt 0.625 0.7847605
vt 0.375 0.9748125
vt 0.43749368 1
vt 0.5625063 1
vt 0.625 0.98442984
vt 0.375 0.7777096
vt 0.625 0.875
vt 0.25 0
vt 0.75 0
vt 0.75 0.25
vt 0.25 0.25
vt 0.25 0
vt 0.08427547 1.1018924E-11
vt 0.9259042 5.290362E-12
vt 0.75 0
vt 0.08427547 1.1018924E-11
vt 0.94361246 0.25
vt 0.9259042 5.290362E-12
vt 0.057970792 0.25
vt 0.87313884 0.25
vt 0.022366745 0.25000262
vt 0.25 0
vt 0.25 0.25
vt 0.37200361 0.24837098
vt 0.3557405 -0.002582095
vt 0.005938938 0.97452855
vt 0.14567897 0.24252069
vt 0.35863408 -0.29438463
vt 0.45671874 0.28661156
vt 0.15939105 0.023899931
vt 0.44328856 0.26531172
vt 0.6434898 0.25240904
vt 0.75 0.25
vt 0.75 0
vt 0.64702624 -0.0036270304
vt 0.54143375 0.28660765
vt 0.57686675 0.2738615
vt 0.44328856 0.26531172
vt 0.45671874 0.28661156
vt 0.5324136 0.31278402
vt 0.44672316 0.3128845
vt 0 0
vt 4.7683907E-06 0.50176865
vt 1.0000048 0.50176865
vt 1 0
vt -0.11949806 0.53048664
vt -0.119502135 -3.1314407E-06
vt 1.119452 -1.4533504E-05
vt 1.119496 0.53048664
vt 0.3557405 -0.002582095
vt 0.37200361 0.24837098
vt 0.42834172 0.25
vt 0.43749347 -7.450581E-09
vt 0.56250614 0
vt 0.55583894 0.26015925
vt 0.57686675 0.2738615
vt 0.64461565 -0.003972642
vt 0.35609412 -0.004259781
vt 0.348125 0.3090088
vt 0.43838352 0.2578379
vt 0.43749347 -7.450581E-09
vt 0.56250614 0
vt 0.57165825 0.25
vt 0.6434898 0.25240904
vt 0.64702624 -0.0036270304
vt 0.42834172 0.25
vt 0.55583894 0.26015925
vt 0.56250614 0
vt 0.43749347 -7.450581E-09
vt 0.43838352 0.2578379
vt 0.57165825 0.25
vt 0.56250614 0
vt 0.43749347 -7.450581E-09
vt 0.82833046 0.014787171
vt 0.64461565 -0.003972642
vt 0.57686675 0.2738615
vt 0.54143375 0.28660765
vt 0.6957679 1.510367
vt 0.5324136 0.31278402
vt 0.3943676 1.2935988
vt 0 0
vt 0.047535907 1
vt 0.13801432 1.0570303
vt 0.08468615 -0.06497287
vt -0.09444185 0.047325168
vt -0.065729335 3.61205E-07
vt 1.0657002 2.552873E-06
vt 1.094311 0.047325544
vt 0.024259634 0
vt 0 0.028421992
vt 1 0.028421992
vt 0.9757404 0
vn -1 0 0
vn -1 0 0
vn -1 0 0
vn -0 -1 0
vn -0 -1 -1.745074E-06
vn -0 -1 -1.745074E-06
vn -0 -1 0
vn -0 -1 0
vn -0 -1 0
vn -0 -1 0
vn -0 -1 -1.7450747E-06
vn -0 -1 -1.7450747E-06
vn -0 -1 0
vn -0 -1 0
vn -0 -1 0
vn -0 -0.11043047 0.9938838
vn -0 -0.11043047 0.9938838
vn -0 -0.11043047 0.9938838
vn -0 -0.11043047 0.9938838
vn -0 -1 0
vn -0 -1 0
vn -0 -1 0
vn -0 -1 0
vn -0 0.032310717 -0.9994779
vn -0 0.10073357 -0.99491346
vn -0 0.032310717 -0.9994779
vn -0 0.10073357 -0.99491346
vn -0 0.55573034 -0.83136255
vn -0 0.55573034 -0.83136255
vn -1 0 0
vn -1 0 0
vn -1 0 0
vn -1 0 0
vn -1 2.6108992E-07 0
vn -1 0 0
vn -1 2.6108995E-07 0
vn -1 0 0
vn -1 0 0
vn -1 0 0
vn 1 0 0
vn 1 0 0
vn 1 0 0
vn 1 0 0
vn -0 0.997855 -0.06546264
vn -0 0.9944729 0.104993545
vn -0 0.9944729 0.104993545
vn -0 0.997855 -0.06546264
vn -0 0.9530837 -0.3027069
vn -0 0.9530837 -0.3027069
vn -0 -0.9838545 0.1789703
vn -0 -0.9754709 0.22012855
vn -0 -0.9754709 0.22012855
vn -0 -0.9838545 0.1789703
vn -0 0.9458491 -0.32460684
vn -0 0.9530837 -0.3027069
vn -0 0.9530837 -0.3027069
vn -0 0.9458491 -0.32460684
vn -0.73312247 -0.0017477049 0.6800945
vn -0.7331224 -0.0017477049 0.6800944
vn -0.73312247 -0.0017477047 0.68009436
vn -0.7331224 -0.0017477048 0.6800944
vn 0.80429655 0.00075244816 0.59422755
vn 0.80429655 0.00075244816 0.5942277
vn 0.8042966 0.0007524481 0.59422755
vn 0.80429655 0.00075244816 0.5942277
vn -0.80429655 0.00075244054 0.5942277
vn -0.8042966 0.00075244054 0.59422755
vn -0.80429655 0.00075244054 0.5942277
vn -0.80429655 0.00075244054 0.59422755
vn 0.7331224 -0.0017477048 0.6800944
vn 0.73312247 -0.0017477047 0.68009436
vn 0.7331224 -0.0017477049 0.6800944
vn 0.73312247 -0.0017477049 0.6800945
vn -0.03408301 -0.0885115 0.9954919
vn -0.03766 -0.080826 0.99601656
vn -0.07265399 -0.0050168564 0.9973447
vn -0.07265399 -0.005016857 0.9973447
vn 0.03766 -0.080826 0.99601656
vn 0.03408301 -0.0885115 0.9954919
vn 0.07265399 -0.005016857 0.9973447
vn 0.07265399 -0.0050168564 0.9973447
vn 1 0 0
vn 1 0 0
vn 1 0 0
vn 1 0 0
vn 1 0 0
vn 1 1.0443614E-06 0
vn 1 1.0443615E-06 0
vn -0.03408301 -0.0885115 0.9954919
vn 0.03408301 -0.0885115 0.9954919
vn 0.03766 -0.080826 0.99601656
vn -0.03766 -0.080826 0.99601656
vn -0 0.7238123 0.6899969
vn -0 0.7238123 0.68999696
vn -0 0.7238123 0.68999696
vn -0 0.7238123 0.6899969
vn -0 -0.9754709 0.22012855
vn -0 -0.7999417 0.60007775
vn -0 -0.7999417 0.60007775
vn -0 -0.9754709 0.22012855
g ENV_goalCage_Col_MO_0
f 3/3/3 2/2/2 1/1/1
f 6/6/6 5/5/5 4/4/4
f 7/7/7 6/6/6 4/4/4
f 7/7/7 4/4/4 8/8/8
f 9/9/9 7/7/7 8/8/8
f 12/12/12 11/11/11 10/10/10
f 13/13/13 12/12/12 10/10/10
f 13/13/13 10/10/10 14/14/14
f 15/15/15 13/13/13 14/14/14
f 18/18/18 17/17/17 16/16/16
f 19/19/19 18/18/18 16/16/16
f 22/22/22 21/21/21 20/20/20
f 23/23/23 22/22/22 20/20/20
f 26/26/26 25/25/25 24/24/24
f 25/25/25 27/27/27 24/24/24
f 25/25/25 28/28/28 27/27/27
f 28/28/28 29/29/29 27/27/27
f 32/32/32 31/31/31 30/30/30
f 33/33/33 32/32/32 30/30/30
f 36/36/36 35/35/35 34/34/34
f 35/35/35 37/37/37 34/34/34
f 35/35/35 38/38/38 37/37/37
f 38/38/38 39/39/39 37/37/37
f 42/42/42 41/41/41 40/40/40
f 43/43/43 42/42/42 40/40/40
f 46/46/46 45/45/45 44/44/44
f 47/47/47 46/46/46 44/44/44
f 47/47/47 44/44/44 48/48/48
f 49/49/49 47/47/47 48/48/48
f 52/52/52 51/51/51 50/50/50
f 53/53/53 52/52/52 50/50/50
f 56/56/56 55/55/55 54/54/54
f 57/57/57 56/56/56 54/54/54
f 60/60/60 59/59/59 58/58/58
f 61/61/61 60/60/60 58/58/58
f 64/64/64 63/63/63 62/62/62
f 65/65/65 64/64/64 62/62/62
f 68/68/68 67/67/67 66/66/66
f 69/69/69 68/68/68 66/66/66
f 72/72/72 71/71/71 70/70/70
f 73/73/73 72/72/72 70/70/70
f 76/76/76 75/75/75 74/74/74
f 77/77/77 76/76/76 74/74/74
f 80/80/80 79/79/79 78/78/78
f 81/81/81 80/80/80 78/78/78
f 84/84/84 83/83/83 82/82/82
f 84/84/84 82/82/82 85/85/85
f 82/82/82 86/86/86 85/85/85
f 85/85/85 86/86/86 87/87/87
f 86/86/86 88/88/88 87/87/87
f 91/91/91 90/90/90 89/89/89
f 92/92/92 91/91/91 89/89/89
f 95/95/95 94/94/94 93/93/93
f 96/96/96 95/95/95 93/93/93
f 99/99/99 98/98/98 97/97/97
f 100/100/100 99/99/99 97/97/97
