g ENV_S05_ArrowDetail_MO
v -0.11102613 0.026948847 0.02443812
v -0.11102613 -0.026948847 -0.033989735
v -0.11102613 0.026948847 -0.033989735
v -0.108637385 0.037262835 -0.033989735
v -0.108637385 0.037262835 0.02443812
v -0.10184046 0.046001263 -0.033989735
v -0.10184046 0.046001263 0.02443812
v -0.091662 0.051842697 -0.033989735
v -0.091662 0.051842697 0.02443812
v -0.07966063 0.053896002 -0.033989735
v -0.07966063 0.053896002 0.02443812
v 0.07966064 0.053896002 -0.033989735
v 0.07966064 0.053896002 0.02443812
v 0.09166199 0.051842697 -0.033989735
v 0.09166199 0.051842697 0.02443812
v 0.10184045 0.046001263 -0.033989735
v 0.10184045 0.046001263 0.02443812
v 0.10863738 0.037262835 -0.033989735
v 0.10863738 0.037262835 0.02443812
v 0.11102613 0.026948847 -0.033989735
v 0.11102613 0.026948847 0.02443812
v 0.11102613 -0.026948847 -0.033989735
v 0.11102613 -0.026948847 0.02443812
v 0.10863738 -0.037262835 -0.033989735
v 0.10863738 -0.037262835 0.02443812
v 0.10184045 -0.046001256 -0.033989735
v 0.10184045 -0.046001256 0.02443812
v 0.09166199 -0.05184269 -0.033989735
v 0.09166199 -0.05184269 0.02443812
v 0.07966064 -0.053896 -0.033989735
v 0.07966064 -0.053896 0.02443812
v -0.07966063 -0.053896 -0.033989735
v -0.07966063 -0.053896 0.02443812
v -0.091662 -0.05184269 -0.033989735
v -0.091662 -0.05184269 0.02443812
v -0.10184046 -0.046001256 -0.033989735
v -0.10184046 -0.046001256 0.02443812
v -0.108637385 -0.037262835 -0.033989735
v -0.108637385 -0.037262835 0.02443812
v -0.11102613 -0.026948847 0.02443812
v 0.0912249 -0.050619513 0.029215626
v 0.0795522 -0.05261522 0.029215626
v -0.07955221 -0.05261522 0.029215626
v -0.0912249 -0.050619513 0.029215626
v -0.10098321 -0.04501865 0.029215626
v -0.10745487 -0.036696985 0.029215626
v -0.10974536 -0.02680315 0.029215626
v 0.10098321 -0.04501865 0.029215626
v -0.10974536 0.026803158 0.029215626
v 0.10745486 -0.036696985 0.029215626
v -0.10745487 0.036696993 0.029215626
v 0.10974535 -0.02680315 0.029215626
v -0.10098321 0.04501865 0.029215626
v 0.10974535 0.026803158 0.029215626
v -0.0912249 0.05061952 0.029215626
v 0.10745486 0.036696993 0.029215626
v -0.07955221 0.052615218 0.029215626
v 0.10098321 0.04501865 0.029215626
v 0.0795522 0.052615218 0.029215626
v 0.0912249 0.05061952 0.029215626
v -0.090022065 0.04727865 0.032708965
v -0.07925404 0.049118496 0.032708965
v 0.07925404 0.049118496 0.032708965
v 0.09002206 0.04727865 0.032708965
v 0.09864867 0.04232835 0.032708965
v 0.104222424 0.0351587 0.032708965
v -0.098648675 0.04232835 0.032708965
v 0.106252015 0.02640333 0.032708965
v -0.104222424 0.0351587 0.032708965
v 0.106252015 -0.02640333 0.032708965
v -0.10625202 0.02640333 0.032708965
v 0.104222424 -0.035158694 0.032708965
v -0.10625202 -0.02640333 0.032708965
v 0.09864867 -0.042328343 0.032708965
v -0.104222424 -0.035158694 0.032708965
v 0.09002206 -0.04727865 0.032708965
v -0.098648675 -0.042328343 0.032708965
v 0.07925404 -0.049118493 0.032708965
v -0.090022065 -0.04727865 0.032708965
v -0.07925404 -0.049118493 0.032708965
v -0.1014779 -0.025857814 0.033989735
v -0.09981086 -0.03305795 0.033989735
v -0.1014779 0.025857814 0.033989735
v -0.09981086 0.03305795 0.033989735
v -0.09545689 -0.038655423 0.033989735
v -0.09545689 0.038655423 0.033989735
v -0.08838212 -0.042717993 0.033989735
v -0.08838212 0.042718 0.033989735
v -0.07885083 -0.04434438 0.033989735
v -0.07885083 0.044344388 0.033989735
v 0.078850836 -0.04434438 0.033989735
v 0.078850836 0.044344388 0.033989735
v 0.08838212 -0.042717993 0.033989735
v 0.08838212 0.042718 0.033989735
v 0.0954535 0.038655423 0.033989735
v 0.0954535 -0.038655423 0.033989735
v 0.09981085 -0.03305795 0.033989735
v 0.09981085 0.03305795 0.033989735
v 0.1014779 -0.025857814 0.033989735
v 0.1014779 0.025857814 0.033989735
vt 0.0449499 0.74797225
vt 0.041561842 0.7428902
vt 0.041561842 0.74881923
vt 0.042408857 0.7505133
vt 0.0449499 0.74881923
vt 0.043255873 0.7513603
vt 0.045796916 0.74881923
vt 0.044102885 0.75220734
vt 0.045796916 0.7496663
vt 0.045796916 0.7530543
vt 0.04664393 0.7496663
vt 0.059349157 0.7530543
vt 0.057655126 0.7496663
vt 0.06019617 0.75220734
vt 0.058502138 0.7496663
vt 0.0618902 0.7513603
vt 0.059349157 0.74881923
vt 0.06273721 0.7496663
vt 0.059349157 0.74881923
vt 0.06273721 0.74881923
vt 0.06019617 0.74797225
vt 0.06273721 0.7428902
vt 0.06019617 0.74373716
vt 0.0618902 0.7411961
vt 0.059349157 0.74373716
vt 0.061043184 0.7403491
vt 0.059349157 0.7428902
vt 0.06019617 0.7395021
vt 0.058502138 0.74204314
vt 0.059349157 0.7386551
vt 0.057655126 0.74204314
vt 0.0449499 0.7386551
vt 0.04664393 0.74204314
vt 0.044102885 0.7395021
vt 0.045796916 0.74204314
vt 0.043255873 0.7403491
vt 0.0449499 0.7428902
vt 0.042408857 0.74204314
vt 0.0449499 0.74373716
vt 0.044102885 0.74373716
vt 0.058502138 0.7428902
vt 0.057655126 0.74204314
vt 0.04664393 0.74204314
vt 0.045796916 0.7428902
vt 0.045796916 0.7428902
vt 0.0449499 0.74373716
vt 0.0449499 0.74373716
vt 0.059349157 0.7428902
vt 0.0449499 0.74797225
vt 0.059349157 0.74373716
vt 0.0449499 0.74797225
vt 0.059349157 0.74373716
vt 0.045796916 0.74881923
vt 0.059349157 0.74797225
vt 0.045796916 0.74881923
vt 0.059349157 0.74797225
vt 0.04664393 0.7496663
vt 0.059349157 0.74881923
vt 0.057655126 0.7496663
vt 0.058502138 0.74881923
vt 0.04664393 0.74881923
vt 0.04664393 0.74881923
vt 0.057655126 0.74881923
vt 0.058502138 0.74881923
vt 0.058502138 0.74881923
vt 0.059349157 0.74797225
vt 0.045796916 0.74881923
vt 0.059349157 0.74797225
vt 0.045796916 0.74797225
vt 0.059349157 0.7445842
vt 0.0449499 0.74797225
vt 0.059349157 0.74373716
vt 0.0449499 0.7445842
vt 0.058502138 0.7428902
vt 0.0449499 0.74373716
vt 0.058502138 0.7428902
vt 0.045796916 0.7428902
vt 0.057655126 0.7428902
vt 0.045796916 0.7428902
vt 0.04664393 0.7428902
vt 0.045796916 0.7445842
vt 0.045796916 0.74373716
vt 0.045796916 0.74797225
vt 0.045796916 0.74797225
vt 0.045796916 0.74373716
vt 0.045796916 0.74881923
vt 0.04664393 0.7428902
vt 0.04664393 0.74881923
vt 0.04664393 0.7428902
vt 0.04664393 0.74881923
vt 0.057655126 0.7428902
vt 0.057655126 0.74881923
vt 0.058502138 0.7428902
vt 0.058502138 0.74881923
vt 0.058502138 0.74797225
vt 0.058502138 0.74373716
vt 0.058502138 0.74373716
vt 0.058502138 0.74797225
vt 0.059349157 0.7445842
vt 0.059349157 0.74797225
vn -0.9993777 0.035272237 -0
vn -0.9993777 -0.035272118 -0
vn -0.9993777 0.035272237 -0
vn -0.89797497 0.43526292 -0.06470809
vn -0.89797497 0.43526292 0.06470809
vn -0.6543337 0.7562059 -0
vn -0.6543337 0.7562059 -0
vn -0.3326155 0.9430625 -0
vn -0.3326155 0.9430625 -0
vn -0.01176393 0.99992836 -0.0022107875
vn -0.01176393 0.99992836 0.0022107875
vn 0.011763811 0.99992836 -0.0022107875
vn 0.011763811 0.99992836 0.0022107875
vn 0.3326154 0.9430626 -0
vn 0.3326154 0.9430626 -0
vn 0.65433365 0.756206 -0
vn 0.65433365 0.756206 -0
vn 0.89797485 0.43526292 -0.06470993
vn 0.89797485 0.43526292 0.06470993
vn 0.9993777 0.035272237 -0
vn 0.9993777 0.035272237 -0
vn 0.9993777 -0.035272118 -0
vn 0.9993777 -0.035272118 -0
vn 0.89797485 -0.43526292 -0.06470993
vn 0.89797485 -0.43526292 0.06470993
vn 0.65433365 -0.756206 -0
vn 0.65433365 -0.756206 -0
vn 0.3326154 -0.9430626 -0
vn 0.3326154 -0.9430626 -0
vn 0.011763811 -0.99992836 -0.0022107875
vn 0.011763811 -0.99992836 0.0022107875
vn -0.01176393 -0.99992836 -0.0022107875
vn -0.01176393 -0.99992836 0.0022107875
vn -0.3326155 -0.9430625 -0
vn -0.3326155 -0.9430625 -0
vn -0.6543337 -0.7562059 -0
vn -0.6543337 -0.7562059 -0
vn -0.89797497 -0.43526292 -0.06470809
vn -0.89797497 -0.43526292 0.06470809
vn -0.9993777 -0.035272118 -0
vn 0.29409653 -0.8273917 0.47846654
vn 0.011763811 -0.86660457 0.49885678
vn -0.01176393 -0.86660457 0.49885678
vn -0.2940966 -0.8273917 0.47846654
vn -0.5685867 -0.6626976 0.48738185
vn -0.7881789 -0.3803649 0.48383522
vn -0.8744472 -0.027449012 0.48434344
vn 0.5685867 -0.6626976 0.48738185
vn -0.8744472 0.027449012 0.48434344
vn 0.7881788 -0.3803649 0.4838354
vn -0.7881789 0.3803649 0.48383522
vn 0.87444717 -0.027449012 0.4843436
vn -0.5685867 0.6626977 0.48738173
vn 0.87444717 0.027449012 0.4843436
vn -0.2940966 0.82739174 0.47846642
vn 0.7881788 0.3803649 0.4838354
vn -0.01176393 0.86660457 0.49885678
vn 0.5685867 0.6626977 0.48738173
vn 0.011763811 0.86660457 0.49885678
vn 0.29409653 0.82739174 0.47846642
vn -0.176458 0.4980036 0.8490318
vn -0.0039212704 0.5136887 0.8579677
vn 0.0039212704 0.5136887 0.8579677
vn 0.17645794 0.4980036 0.8490318
vn 0.3489946 0.40389264 0.84562016
vn 0.48231834 0.23135602 0.84489256
vn -0.3489946 0.40389264 0.84562016
vn 0.5136887 0.019606471 0.8577526
vn -0.4823184 0.23135602 0.8448925
vn 0.5136887 -0.019606411 0.8577526
vn -0.5136887 0.019606471 0.8577526
vn 0.48231834 -0.23135597 0.84489256
vn -0.5136887 -0.019606411 0.8577526
vn 0.3489946 -0.40389264 0.84562016
vn -0.4823184 -0.23135597 0.84489256
vn 0.17645794 -0.49800354 0.8490318
vn -0.3489946 -0.40389264 0.84562016
vn 0.0039212704 -0.5136887 0.8579677
vn -0.176458 -0.49800354 0.8490318
vn -0.0039212704 -0.5136887 0.8579677
vn -0.16861534 -0.0039212704 0.98567414
vn -0.03529167 -0.019606411 0.9991847
vn -0.16861534 0.0039212704 0.98567414
vn -0.03529167 0.019606471 0.9991847
vn -0.019606471 -0.019606411 0.99961555
vn -0.019606471 0.019606471 0.99961555
vn -0.0039212704 -0.019606411 0.9998001
vn -0.0039212704 0.019606471 0.9998001
vn -0.0039212704 -0.011763811 0.9999231
vn -0.0039212704 0.01176393 0.9999231
vn 0.0039212704 -0.011763811 0.9999231
vn 0.0039212704 0.01176393 0.9999231
vn 0.0039212704 -0.019606411 0.9998001
vn 0.0039212704 0.019606471 0.9998001
vn 0.019606411 0.019606471 0.99961555
vn 0.019606411 -0.019606411 0.99961555
vn 0.035291553 -0.019606411 0.9991847
vn 0.035291553 0.019606471 0.9991847
vn 0.16861534 -0.0039212704 0.98567414
vn 0.16861534 0.0039212704 0.98567414
g ENV_S05_ArrowDetail_MO_0
f 3/3/3 2/2/2 1/1/1
f 3/3/3 1/1/1 4/4/4
f 1/1/1 5/5/5 4/4/4
f 4/4/4 5/5/5 6/6/6
f 5/5/5 7/7/7 6/6/6
f 6/6/6 7/7/7 8/8/8
f 7/7/7 9/9/9 8/8/8
f 8/8/8 9/9/9 10/10/10
f 9/9/9 11/11/11 10/10/10
f 10/10/10 11/11/11 12/12/12
f 11/11/11 13/13/13 12/12/12
f 12/12/12 13/13/13 14/14/14
f 13/13/13 15/15/15 14/14/14
f 14/14/14 15/15/15 16/16/16
f 15/15/15 17/17/17 16/16/16
f 16/16/16 17/17/17 18/18/18
f 17/17/17 19/19/19 18/18/18
f 18/18/18 19/19/19 20/20/20
f 19/19/19 21/21/21 20/20/20
f 20/20/20 21/21/21 22/22/22
f 21/21/21 23/23/23 22/22/22
f 22/22/22 23/23/23 24/24/24
f 23/23/23 25/25/25 24/24/24
f 24/24/24 25/25/25 26/26/26
f 25/25/25 27/27/27 26/26/26
f 26/26/26 27/27/27 28/28/28
f 27/27/27 29/29/29 28/28/28
f 28/28/28 29/29/29 30/30/30
f 29/29/29 31/31/31 30/30/30
f 30/30/30 31/31/31 32/32/32
f 31/31/31 33/33/33 32/32/32
f 32/32/32 33/33/33 34/34/34
f 33/33/33 35/35/35 34/34/34
f 34/34/34 35/35/35 36/36/36
f 35/35/35 37/37/37 36/36/36
f 36/36/36 37/37/37 38/38/38
f 37/37/37 39/39/39 38/38/38
f 38/38/38 39/39/39 2/2/2
f 39/39/39 40/40/40 2/2/2
f 2/2/2 40/40/40 1/1/1
f 41/41/41 29/29/29 27/27/27
f 31/31/31 29/29/29 42/42/42
f 29/29/29 41/41/41 42/42/42
f 33/33/33 31/31/31 43/43/43
f 31/31/31 42/42/42 43/43/43
f 44/44/44 35/35/35 33/33/33
f 43/43/43 44/44/44 33/33/33
f 45/45/45 37/37/37 35/35/35
f 44/44/44 45/45/45 35/35/35
f 46/46/46 39/39/39 37/37/37
f 45/45/45 46/46/46 37/37/37
f 40/40/40 39/39/39 47/47/47
f 39/39/39 46/46/46 47/47/47
f 48/48/48 41/41/41 27/27/27
f 48/48/48 27/27/27 25/25/25
f 40/40/40 47/47/47 49/49/49
f 1/1/1 40/40/40 49/49/49
f 50/50/50 48/48/48 25/25/25
f 50/50/50 25/25/25 23/23/23
f 49/49/49 51/51/51 1/1/1
f 51/51/51 5/5/5 1/1/1
f 52/52/52 50/50/50 23/23/23
f 52/52/52 23/23/23 21/21/21
f 51/51/51 53/53/53 5/5/5
f 53/53/53 7/7/7 5/5/5
f 54/54/54 52/52/52 21/21/21
f 21/21/21 19/19/19 54/54/54
f 53/53/53 55/55/55 7/7/7
f 55/55/55 9/9/9 7/7/7
f 19/19/19 56/56/56 54/54/54
f 56/56/56 19/19/19 17/17/17
f 9/9/9 55/55/55 57/57/57
f 11/11/11 9/9/9 57/57/57
f 58/58/58 56/56/56 17/17/17
f 58/58/58 17/17/17 15/15/15
f 57/57/57 59/59/59 11/11/11
f 59/59/59 13/13/13 11/11/11
f 60/60/60 15/15/15 13/13/13
f 60/60/60 58/58/58 15/15/15
f 59/59/59 60/60/60 13/13/13
f 61/61/61 55/55/55 53/53/53
f 57/57/57 55/55/55 62/62/62
f 55/55/55 61/61/61 62/62/62
f 63/63/63 59/59/59 57/57/57
f 62/62/62 63/63/63 57/57/57
f 64/64/64 60/60/60 59/59/59
f 63/63/63 64/64/64 59/59/59
f 65/65/65 58/58/58 60/60/60
f 64/64/64 65/65/65 60/60/60
f 66/66/66 56/56/56 58/58/58
f 65/65/65 66/66/66 58/58/58
f 67/67/67 61/61/61 53/53/53
f 67/67/67 53/53/53 51/51/51
f 56/56/56 66/66/66 68/68/68
f 54/54/54 56/56/56 68/68/68
f 69/69/69 67/67/67 51/51/51
f 69/69/69 51/51/51 49/49/49
f 68/68/68 70/70/70 54/54/54
f 70/70/70 52/52/52 54/54/54
f 71/71/71 69/69/69 49/49/49
f 49/49/49 47/47/47 71/71/71
f 70/70/70 72/72/72 52/52/52
f 72/72/72 50/50/50 52/52/52
f 47/47/47 73/73/73 71/71/71
f 47/47/47 46/46/46 73/73/73
f 72/72/72 74/74/74 50/50/50
f 74/74/74 48/48/48 50/50/50
f 46/46/46 75/75/75 73/73/73
f 75/75/75 46/46/46 45/45/45
f 74/74/74 76/76/76 48/48/48
f 76/76/76 41/41/41 48/48/48
f 77/77/77 75/75/75 45/45/45
f 77/77/77 45/45/45 44/44/44
f 41/41/41 76/76/76 78/78/78
f 42/42/42 41/41/41 78/78/78
f 79/79/79 77/77/77 44/44/44
f 79/79/79 44/44/44 43/43/43
f 43/43/43 42/42/42 80/80/80
f 42/42/42 78/78/78 80/80/80
f 80/80/80 79/79/79 43/43/43
f 73/73/73 75/75/75 81/81/81
f 82/82/82 75/75/75 77/77/77
f 75/75/75 82/82/82 81/81/81
f 73/73/73 81/81/81 83/83/83
f 83/83/83 81/81/81 82/82/82
f 71/71/71 73/73/73 83/83/83
f 83/83/83 84/84/84 71/71/71
f 84/84/84 83/83/83 82/82/82
f 84/84/84 69/69/69 71/71/71
f 85/85/85 82/82/82 77/77/77
f 85/85/85 77/77/77 79/79/79
f 84/84/84 82/82/82 85/85/85
f 84/84/84 86/86/86 69/69/69
f 86/86/86 84/84/84 85/85/85
f 86/86/86 67/67/67 69/69/69
f 87/87/87 85/85/85 79/79/79
f 87/87/87 79/79/79 80/80/80
f 86/86/86 85/85/85 87/87/87
f 86/86/86 88/88/88 67/67/67
f 88/88/88 86/86/86 87/87/87
f 88/88/88 61/61/61 67/67/67
f 89/89/89 87/87/87 80/80/80
f 88/88/88 87/87/87 89/89/89
f 80/80/80 78/78/78 89/89/89
f 61/61/61 88/88/88 90/90/90
f 90/90/90 88/88/88 89/89/89
f 62/62/62 61/61/61 90/90/90
f 78/78/78 91/91/91 89/89/89
f 90/90/90 89/89/89 91/91/91
f 78/78/78 76/76/76 91/91/91
f 90/90/90 92/92/92 62/62/62
f 92/92/92 90/90/90 91/91/91
f 92/92/92 63/63/63 62/62/62
f 76/76/76 93/93/93 91/91/91
f 92/92/92 91/91/91 93/93/93
f 93/93/93 76/76/76 74/74/74
f 92/92/92 94/94/94 63/63/63
f 94/94/94 92/92/92 93/93/93
f 94/94/94 64/64/64 63/63/63
f 94/94/94 95/95/95 64/64/64
f 95/95/95 94/94/94 93/93/93
f 95/95/95 65/65/65 64/64/64
f 96/96/96 93/93/93 74/74/74
f 96/96/96 95/95/95 93/93/93
f 96/96/96 74/74/74 72/72/72
f 97/97/97 96/96/96 72/72/72
f 96/96/96 97/97/97 95/95/95
f 97/97/97 72/72/72 70/70/70
f 95/95/95 98/98/98 65/65/65
f 97/97/97 98/98/98 95/95/95
f 98/98/98 66/66/66 65/65/65
f 99/99/99 97/97/97 70/70/70
f 97/97/97 99/99/99 98/98/98
f 99/99/99 70/70/70 68/68/68
f 66/66/66 98/98/98 100/100/100
f 68/68/68 66/66/66 100/100/100
f 100/100/100 99/99/99 68/68/68
f 99/99/99 100/100/100 98/98/98
