g ENV_S09_Decals_Broken_MO
v 0.44286782 -9.536743E-09 -2.509085E-16
v -0.44286785 -0.5016287 2.509085E-16
v 0.44286782 -0.5016287 -2.509085E-16
v -0.44286785 -9.536743E-09 2.509085E-16
v 0.061509445 0.64726734 -3.4848418E-17
v -0.24783789 0.56734216 1.4041351E-16
vt 0.36531454 0.47989404
vt 0.639151 0.32464758
vt 0.36531457 0.32468268
vt 0.639151 0.4798896
vt 0.4829547 0.68005514
vt 0.57898873 0.65539867
vn -0 0 -1
vn -0 0 -1
vn -0 0 -1
vn -0 0 -1
vn -0 0 -1
vn -0 0 -1
g ENV_S09_Decals_Broken_MO_0
f 3/3/3 2/2/2 1/1/1
f 2/2/2 4/4/4 1/1/1
f 1/1/1 4/4/4 5/5/5
f 4/4/4 6/6/6 5/5/5
