g ENV_S04_GlassPath_M_HardPlastic_White_MO
v 10.77902 -3.4405403 -25.381857
v 10.778467 -3.3913116 -25.439384
v 10.775148 -3.431137 -25.428322
v 10.787317 -3.3907585 -25.38241
v 10.787317 -2.7391624 -25.38241
v 10.778467 -2.7386093 -25.439384
v 10.77902 -2.6899338 -25.381857
v 10.775148 -2.6987839 -25.428322
v 10.757448 -2.6893806 -25.439384
v 10.778467 -2.7386093 -25.439384
v 10.77902 -2.673893 -18.174473
v 10.757448 -2.661169 -18.17392
v 10.566615 -2.6899338 -25.381857
v 10.787317 -2.7231216 -18.17392
v 10.757448 -2.6727867 -18.1175
v 10.588187 -2.661169 -18.17392
v 10.77902 -3.456583 -18.174473
v 10.757448 -3.468752 -18.17392
v 10.757448 -3.468752 -25.38241
v 10.787317 -3.4067993 -18.17392
v 10.778467 -3.4079056 -18.1175
v 10.775148 -3.447731 -18.12801
v 10.778467 -2.7220154 -18.1175
v 10.775148 -2.68219 -18.12801
v 10.778467 -2.7220154 -18.1175
v 10.756895 -2.7214622 -18.093714
v 10.778467 -3.4079056 -18.1175
v 10.588187 -2.6727867 -18.1175
v 10.566615 -2.673893 -18.174473
v 10.756895 -3.4090118 -18.093714
v 10.757448 -3.4571362 -18.1175
v 10.775148 -3.447731 -18.12801
v 10.77902 -3.456583 -18.174473
v 10.757448 -3.468752 -18.17392
v 10.588187 -3.468752 -18.17392
v 10.58874 -2.7214622 -18.093714
v 10.588187 -3.4571362 -18.1175
v 10.566615 -3.456583 -18.174473
v 10.570487 -3.447731 -18.12801
v 10.567168 -3.4079056 -18.1175
v 10.58874 -3.4090118 -18.093714
v 10.567168 -2.7220154 -18.1175
v 10.570487 -2.68219 -18.12801
v 10.567168 -2.7220154 -18.1175
v 10.558318 -2.7231216 -18.17392
v 10.558318 -2.7391624 -25.38241
v 10.558318 -3.4067993 -18.17392
v 10.567168 -3.4079056 -18.1175
v 10.558318 -3.3907585 -25.38241
v 10.566615 -3.456583 -18.174473
v 10.570487 -3.447731 -18.12801
v 10.566615 -3.4405403 -25.381857
v 10.588187 -3.468752 -18.17392
v 10.588187 -3.468752 -25.38241
v 10.567168 -3.3913116 -25.439384
v 10.570487 -3.431137 -25.428322
v 10.567168 -2.7386093 -25.439384
v 10.570487 -2.6987839 -25.428322
v 10.588187 -2.6893806 -25.439384
v 10.567168 -2.7386093 -25.439384
v 10.58874 -2.7380562 -25.462616
v 10.756895 -2.7380562 -25.462616
v 10.58874 -3.392418 -25.462616
v 10.567168 -3.3913116 -25.439384
v 10.756895 -3.392418 -25.462616
v 10.778467 -3.3913116 -25.439384
v 10.588187 -3.4405403 -25.439384
v 10.570487 -3.431137 -25.428322
v 10.566615 -3.4405403 -25.381857
v 10.588187 -3.468752 -25.38241
v 10.757448 -3.4405403 -25.439384
v 10.775148 -3.431137 -25.428322
v 10.757448 -3.468752 -25.38241
v 10.77902 -3.4405403 -25.381857
v -10.778973 -3.4405403 -25.381857
v -10.775101 -3.431137 -25.428322
v -10.7784195 -3.3913116 -25.439384
v -10.78727 -3.3907585 -25.38241
v -10.78727 -2.7391624 -25.38241
v -10.7784195 -2.7386093 -25.439384
v -10.778973 -2.6899338 -25.381857
v -10.775101 -2.6987839 -25.428322
v -10.7574005 -2.6893806 -25.439384
v -10.7784195 -2.7386093 -25.439384
v -10.778973 -2.673893 -18.174473
v -10.7574005 -2.661169 -18.17392
v -10.566566 -2.6899338 -25.381857
v -10.78727 -2.7231216 -18.17392
v -10.7574005 -2.6727867 -18.1175
v -10.588139 -2.661169 -18.17392
v -10.778973 -3.456583 -18.174473
v -10.7574005 -3.468752 -18.17392
v -10.7574005 -3.468752 -25.38241
v -10.78727 -3.4067993 -18.17392
v -10.7784195 -3.4079056 -18.1175
v -10.775101 -3.447731 -18.12801
v -10.7784195 -2.7220154 -18.1175
v -10.775101 -2.68219 -18.12801
v -10.7784195 -2.7220154 -18.1175
v -10.756847 -2.7214622 -18.093714
v -10.7784195 -3.4079056 -18.1175
v -10.588139 -2.6727867 -18.1175
v -10.566566 -2.673893 -18.174473
v -10.756847 -3.4090118 -18.093714
v -10.7574005 -3.4571362 -18.1175
v -10.775101 -3.447731 -18.12801
v -10.778973 -3.456583 -18.174473
v -10.7574005 -3.468752 -18.17392
v -10.588139 -3.468752 -18.17392
v -10.588692 -2.7214622 -18.093714
v -10.588139 -3.4571362 -18.1175
v -10.566566 -3.456583 -18.174473
v -10.570438 -3.447731 -18.12801
v -10.56712 -3.4079056 -18.1175
v -10.588692 -3.4090118 -18.093714
v -10.56712 -2.7220154 -18.1175
v -10.570438 -2.68219 -18.12801
v -10.56712 -2.7220154 -18.1175
v -10.5582695 -2.7231216 -18.17392
v -10.5582695 -2.7391624 -25.38241
v -10.5582695 -3.4067993 -18.17392
v -10.56712 -3.4079056 -18.1175
v -10.5582695 -3.3907585 -25.38241
v -10.566566 -3.456583 -18.174473
v -10.570438 -3.447731 -18.12801
v -10.566566 -3.4405403 -25.381857
v -10.588139 -3.468752 -18.17392
v -10.588139 -3.468752 -25.38241
v -10.56712 -3.3913116 -25.439384
v -10.570438 -3.431137 -25.428322
v -10.56712 -2.7386093 -25.439384
v -10.570438 -2.6987839 -25.428322
v -10.588139 -2.6893806 -25.439384
v -10.56712 -2.7386093 -25.439384
v -10.588692 -2.7380562 -25.462616
v -10.756847 -2.7380562 -25.462616
v -10.588692 -3.392418 -25.462616
v -10.56712 -3.3913116 -25.439384
v -10.756847 -3.392418 -25.462616
v -10.7784195 -3.3913116 -25.439384
v -10.588139 -3.4405403 -25.439384
v -10.570438 -3.431137 -25.428322
v -10.566566 -3.4405403 -25.381857
v -10.588139 -3.468752 -25.38241
v -10.7574005 -3.4405403 -25.439384
v -10.775101 -3.431137 -25.428322
v -10.7574005 -3.468752 -25.38241
v -10.778973 -3.4405403 -25.381857
vt 0.59036565 0.33288923
vt 0.594059 0.3286683
vt 0.59089327 0.32972354
vt 0.594059 0.33288923
vt 0.642072 0.33394447
vt 0.64259964 0.32972354
vt 0.6457653 0.3344721
vt 0.6457653 0.33077878
vt 0.64734817 0.33025116
vt 0.6452377 0.32708547
vt 0.6526243 0.86578107
vt 0.65420717 0.86578107
vt 0.6615938 0.3344721
vt 0.648931 0.8663087
vt 0.65420717 0.8694743
vt 0.66686994 0.86525345
vt 0.594059 0.86789155
vt 0.5924761 0.86789155
vt 0.5877276 0.33288923
vt 0.5977523 0.86789155
vt 0.5982799 0.8721124
vt 0.59511423 0.8715848
vt 0.64945865 0.87052953
vt 0.6526243 0.8694743
vt 0.6520967 0.87316763
vt 0.65420717 0.87369525
vt 0.6526243 0.9243463
vt 0.66686994 0.8694743
vt 0.6684528 0.86578107
vt 0.6547348 0.9243463
vt 0.6552624 0.92803967
vt 0.65367955 0.92803967
vt 0.6526243 0.931733
vt 0.6547348 0.93226063
vt 0.6679252 0.931733
vt 0.66686994 0.87316763
vt 0.66739756 0.92803967
vt 0.66950804 0.9312054
vt 0.6689804 0.92751205
vt 0.66950804 0.9243463
vt 0.66739756 0.9238187
vt 0.6689804 0.87316763
vt 0.6684528 0.8694743
vt 0.67161846 0.8700019
vt 0.6721461 0.86578107
vt 0.6652871 0.33394447
vt 0.7227972 0.8663087
vt 0.7227972 0.87052953
vt 0.7133001 0.3313064
vt 0.7264905 0.8663087
vt 0.7259629 0.8700019
vt 0.7169934 0.3313064
vt 0.728601 0.8663087
vt 0.7196315 0.3313064
vt 0.7127725 0.32708547
vt 0.7159382 0.3281407
vt 0.66475946 0.32972354
vt 0.6610662 0.33077878
vt 0.6594833 0.33025116
vt 0.6621214 0.32708547
vt 0.66001093 0.32655784
vt 0.64734817 0.32655784
vt 0.66001093 0.2785448
vt 0.66264904 0.2780172
vt 0.6478758 0.2785448
vt 0.6452377 0.2780172
vt 0.66001093 0.2743239
vt 0.6615938 0.2748515
vt 0.6631766 0.2716858
vt 0.66053855 0.27010298
vt 0.6478758 0.2743239
vt 0.6462929 0.2748515
vt 0.64734817 0.26957536
vt 0.64471006 0.2711582
vt 0.45213038 0.6003904
vt 0.45529604 0.59986275
vt 0.45635128 0.59669703
vt 0.45213038 0.59669703
vt 0.45054752 0.54868406
vt 0.45476842 0.54815644
vt 0.4500199 0.5449907
vt 0.45371324 0.5449907
vt 0.45424086 0.54340786
vt 0.45740652 0.54551834
vt -0.081289046 0.54340786
vt -0.081289046 0.54182506
vt 0.4500199 0.5291622
vt -0.081289046 0.5471012
vt -0.08498236 0.54182506
vt -0.081289046 0.5291622
vt -0.08287189 0.6014456
vt -0.08287189 0.60355604
vt 0.45213038 0.6030284
vt -0.08287189 0.5977523
vt -0.08709282 0.5977523
vt -0.086565204 0.600918
vt -0.08550997 0.5465736
vt -0.08498236 0.54340786
vt -0.08867566 0.5439355
vt -0.08920328 0.54182506
vt -0.13985439 0.5439355
vt -0.08498236 0.5291622
vt -0.081289046 0.5270518
vt -0.13985439 0.54129744
vt -0.14354768 0.54129744
vt -0.14354768 0.54288024
vt -0.147241 0.5439355
vt -0.14776862 0.54182506
vt -0.147241 0.5286346
vt -0.08867566 0.5291622
vt -0.14354768 0.5291622
vt -0.14671339 0.5265242
vt -0.14354768 0.5275794
vt -0.13985439 0.5265242
vt -0.13985439 0.5291622
vt -0.08867566 0.5265242
vt -0.08498236 0.5275794
vt -0.08550997 0.5238861
vt -0.081289046 0.52335846
vt 0.45054752 0.52546895
vt -0.08287189 0.4727074
vt -0.08709282 0.4727074
vt 0.452658 0.4774559
vt -0.08287189 0.46901405
vt -0.08603759 0.4700693
vt 0.452658 0.47376263
vt -0.08287189 0.46743125
vt 0.452658 0.47112453
vt 0.4568789 0.47798353
vt 0.45582366 0.4748178
vt 0.45476842 0.52599657
vt 0.45371324 0.52968985
vt 0.45424086 0.5312727
vt 0.45740652 0.5286346
vt 0.45793414 0.5307451
vt 0.45793414 0.54340786
vt 0.5059472 0.53021747
vt 0.5059472 0.5275794
vt 0.5059472 0.5423526
vt 0.5064748 0.5449907
vt 0.50964046 0.53021747
vt 0.50964046 0.5286346
vt 0.5128062 0.5270518
vt 0.51438904 0.52968985
vt 0.5101681 0.5423526
vt 0.5101681 0.5439355
vt 0.51491666 0.54288024
vt 0.5133338 0.54551834
vn 0.9187401 -0.39486277 -0
vn 0.9293475 -0.011763871 -0.3690187
vn 0.8744493 -0.35683805 -0.32864115
vn 0.99993086 -0.011763871 -0
vn 0.99993086 0.01176393 -0
vn 0.9293475 0.01176393 -0.3690187
vn 0.9814727 0.19160222 -0
vn 0.8979771 0.28625476 -0.33420852
vn 0.043134212 0.89797723 -0.43792275
vn 0.9293475 0.01176393 -0.3690187
vn 0.9450327 0.3254677 0.03136756
vn 0.4666344 0.88229203 0.061750207
vn -0.9814727 0.19160219 -0
vn 0.99993086 0.01176393 -0
vn 0.06666201 0.7960235 0.60158354
vn -0.4666344 0.88229203 0.061750207
vn 0.9187401 -0.39486277 -0
vn 0.6705419 -0.7411252 0.03327127
vn 0.6705419 -0.7411252 -0.03327127
vn 0.99993086 -0.011763871 -0
vn 0.9293475 -0.011763871 0.3690187
vn 0.8666067 -0.39605105 0.30353972
vn 0.9293475 0.01176393 0.3690187
vn 0.8666067 0.39605105 0.30353972
vn 0.9293475 0.01176393 0.3690187
vn 0.121560216 0.027449131 0.9922044
vn 0.9293475 -0.011763871 0.3690187
vn -0.06666207 0.7960235 0.60158354
vn -0.9450327 0.3254677 0.03136756
vn 0.121560216 -0.027449071 0.9922044
vn 0.06666201 -0.79602337 0.6015837
vn 0.8666067 -0.39605105 0.30353972
vn 0.9187401 -0.39486277 -0
vn 0.6705419 -0.7411252 0.03327127
vn -0.6705419 -0.7411252 0.03327127
vn -0.121560216 0.027449131 0.9922044
vn -0.06666207 -0.79602337 0.6015837
vn -0.91874003 -0.3948627 -0
vn -0.86660683 -0.39605105 0.30353943
vn -0.9293475 -0.011763871 0.3690187
vn -0.121560216 -0.027449071 0.9922044
vn -0.9293475 0.01176393 0.3690187
vn -0.86660683 0.39605105 0.30353943
vn -0.9293475 0.01176393 0.3690187
vn -0.99993086 0.011763928 -0
vn -0.99993086 0.011763928 -0
vn -0.99993086 -0.011763869 -0
vn -0.9293475 -0.011763871 0.3690187
vn -0.99993086 -0.011763869 -0
vn -0.91874003 -0.3948627 -0
vn -0.86660683 -0.39605105 0.30353943
vn -0.921505 -0.38820845 -0.011081537
vn -0.6705419 -0.7411252 0.03327127
vn -0.6705419 -0.7411252 -0.03327127
vn -0.9293475 -0.011763871 -0.3690187
vn -0.8744494 -0.35683805 -0.32864097
vn -0.9293475 0.01176393 -0.3690187
vn -0.89797723 0.28625476 -0.33420816
vn -0.04313433 0.89797723 -0.43792275
vn -0.9293475 0.01176393 -0.3690187
vn -0.121560216 0.03529167 -0.9919565
vn 0.121560216 0.03529167 -0.9919565
vn -0.121560216 -0.03529167 -0.9919565
vn -0.9293475 -0.011763871 -0.3690187
vn 0.121560216 -0.03529167 -0.9919565
vn 0.9293475 -0.011763871 -0.3690187
vn -0.082347274 -0.7175974 -0.6915727
vn -0.8744494 -0.35683805 -0.32864097
vn -0.921505 -0.38820845 -0.011081537
vn -0.6705419 -0.7411252 -0.03327127
vn 0.082347214 -0.7175974 -0.6915728
vn 0.8744493 -0.35683805 -0.32864115
vn 0.6705419 -0.7411252 -0.03327127
vn 0.9187401 -0.39486277 -0
vn -0.91874003 -0.3948627 -0
vn -0.8744494 -0.35683805 -0.32864097
vn -0.9293475 -0.011763871 -0.3690187
vn -0.99993086 -0.011763869 -0
vn -0.99993086 0.011763928 -0
vn -0.9293475 0.01176393 -0.3690187
vn -0.9814727 0.19160219 -0
vn -0.89797723 0.28625476 -0.33420816
vn -0.04313433 0.89797723 -0.43792275
vn -0.9293475 0.01176393 -0.3690187
vn -0.9450327 0.3254677 0.03136756
vn -0.4666344 0.88229203 0.061750207
vn 0.9814727 0.19160222 -0
vn -0.99993086 0.011763928 -0
vn -0.06666207 0.7960235 0.60158354
vn 0.4666344 0.88229203 0.061750207
vn -0.91874003 -0.3948627 -0
vn -0.6705419 -0.7411252 0.03327127
vn -0.6705419 -0.7411252 -0.03327127
vn -0.99993086 -0.011763869 -0
vn -0.9293475 -0.011763871 0.3690187
vn -0.86660683 -0.39605105 0.30353943
vn -0.9293475 0.01176393 0.3690187
vn -0.86660683 0.39605105 0.30353943
vn -0.9293475 0.01176393 0.3690187
vn -0.121560216 0.027449131 0.9922044
vn -0.9293475 -0.011763871 0.3690187
vn 0.06666201 0.7960235 0.60158354
vn 0.9450327 0.3254677 0.03136756
vn -0.121560216 -0.027449071 0.9922044
vn -0.06666207 -0.79602337 0.6015837
vn -0.86660683 -0.39605105 0.30353943
vn -0.91874003 -0.3948627 -0
vn -0.6705419 -0.7411252 0.03327127
vn 0.6705419 -0.7411252 0.03327127
vn 0.121560216 0.027449131 0.9922044
vn 0.06666201 -0.79602337 0.6015837
vn 0.9187401 -0.39486277 -0
vn 0.8666067 -0.39605105 0.30353972
vn 0.9293475 -0.011763871 0.3690187
vn 0.121560216 -0.027449071 0.9922044
vn 0.9293475 0.01176393 0.3690187
vn 0.8666067 0.39605105 0.30353972
vn 0.9293475 0.01176393 0.3690187
vn 0.99993086 0.01176393 -0
vn 0.99993086 0.01176393 -0
vn 0.99993086 -0.011763871 -0
vn 0.9293475 -0.011763871 0.3690187
vn 0.99993086 -0.011763871 -0
vn 0.9187401 -0.39486277 -0
vn 0.8666067 -0.39605105 0.30353972
vn 0.9215049 -0.38820845 -0.011086915
vn 0.6705419 -0.7411252 0.03327127
vn 0.6705419 -0.7411252 -0.03327127
vn 0.9293475 -0.011763871 -0.3690187
vn 0.8744493 -0.35683805 -0.32864115
vn 0.9293475 0.01176393 -0.3690187
vn 0.8979771 0.28625476 -0.33420852
vn 0.043134212 0.89797723 -0.43792275
vn 0.9293475 0.01176393 -0.3690187
vn 0.121560216 0.03529167 -0.9919565
vn -0.121560216 0.03529167 -0.9919565
vn 0.121560216 -0.03529167 -0.9919565
vn 0.9293475 -0.011763871 -0.3690187
vn -0.121560216 -0.03529167 -0.9919565
vn -0.9293475 -0.011763871 -0.3690187
vn 0.082347214 -0.7175974 -0.6915728
vn 0.8744493 -0.35683805 -0.32864115
vn 0.9215049 -0.38820845 -0.011086915
vn 0.6705419 -0.7411252 -0.03327127
vn -0.082347274 -0.7175974 -0.6915727
vn -0.8744494 -0.35683805 -0.32864097
vn -0.6705419 -0.7411252 -0.03327127
vn -0.91874003 -0.3948627 -0
g ENV_S04_GlassPath_M_HardPlastic_White_MO_0
f 3/3/3 2/2/2 1/1/1
f 2/2/2 4/4/4 1/1/1
f 4/4/4 2/2/2 5/5/5
f 2/2/2 6/6/6 5/5/5
f 5/5/5 6/6/6 7/7/7
f 6/6/6 8/8/8 7/7/7
f 7/7/7 8/8/8 9/9/9
f 9/9/9 8/8/8 10/10/10
f 7/7/7 11/11/11 5/5/5
f 12/12/12 11/11/11 7/7/7
f 7/7/7 9/9/9 13/13/13
f 4/4/4 5/5/5 14/14/14
f 11/11/11 14/14/14 5/5/5
f 11/11/11 12/12/12 15/15/15
f 12/12/12 16/16/16 15/15/15
f 17/17/17 1/1/1 4/4/4
f 17/17/17 18/18/18 1/1/1
f 18/18/18 19/19/19 1/1/1
f 20/20/20 4/4/4 14/14/14
f 20/20/20 17/17/17 4/4/4
f 20/20/20 21/21/21 17/17/17
f 21/21/21 22/22/22 17/17/17
f 21/21/21 20/20/20 23/23/23
f 20/20/20 14/14/14 23/23/23
f 23/23/23 14/14/14 11/11/11
f 24/24/24 23/23/23 11/11/11
f 24/24/24 11/11/11 15/15/15
f 24/24/24 15/15/15 25/25/25
f 15/15/15 26/26/26 25/25/25
f 27/27/27 25/25/25 26/26/26
f 15/15/15 28/28/28 26/26/26
f 16/16/16 28/28/28 15/15/15
f 16/16/16 29/29/29 28/28/28
f 29/29/29 16/16/16 13/13/13
f 30/30/30 27/27/27 26/26/26
f 30/30/30 31/31/31 27/27/27
f 31/31/31 32/32/32 27/27/27
f 33/33/33 32/32/32 31/31/31
f 34/34/34 33/33/33 31/31/31
f 34/34/34 31/31/31 35/35/35
f 26/26/26 36/36/36 30/30/30
f 28/28/28 36/36/36 26/26/26
f 31/31/31 37/37/37 35/35/35
f 38/38/38 35/35/35 37/37/37
f 39/39/39 38/38/38 37/37/37
f 39/39/39 37/37/37 40/40/40
f 30/30/30 41/41/41 31/31/31
f 41/41/41 37/37/37 31/31/31
f 37/37/37 41/41/41 40/40/40
f 36/36/36 41/41/41 30/30/30
f 40/40/40 41/41/41 36/36/36
f 42/42/42 40/40/40 36/36/36
f 36/36/36 28/28/28 42/42/42
f 28/28/28 43/43/43 42/42/42
f 29/29/29 43/43/43 28/28/28
f 44/44/44 43/43/43 29/29/29
f 45/45/45 44/44/44 29/29/29
f 45/45/45 29/29/29 46/46/46
f 29/29/29 13/13/13 46/46/46
f 45/45/45 47/47/47 44/44/44
f 47/47/47 48/48/48 44/44/44
f 49/49/49 47/47/47 45/45/45
f 46/46/46 49/49/49 45/45/45
f 48/48/48 47/47/47 50/50/50
f 50/50/50 47/47/47 49/49/49
f 51/51/51 48/48/48 50/50/50
f 52/52/52 50/50/50 49/49/49
f 53/53/53 50/50/50 52/52/52
f 54/54/54 53/53/53 52/52/52
f 49/49/49 55/55/55 52/52/52
f 55/55/55 49/49/49 46/46/46
f 55/55/55 56/56/56 52/52/52
f 57/57/57 55/55/55 46/46/46
f 57/57/57 46/46/46 13/13/13
f 58/58/58 57/57/57 13/13/13
f 58/58/58 13/13/13 59/59/59
f 9/9/9 59/59/59 13/13/13
f 58/58/58 59/59/59 60/60/60
f 61/61/61 59/59/59 9/9/9
f 59/59/59 61/61/61 60/60/60
f 62/62/62 61/61/61 9/9/9
f 62/62/62 9/9/9 10/10/10
f 61/61/61 63/63/63 60/60/60
f 63/63/63 61/61/61 62/62/62
f 63/63/63 64/64/64 60/60/60
f 65/65/65 62/62/62 10/10/10
f 65/65/65 63/63/63 62/62/62
f 66/66/66 65/65/65 10/10/10
f 63/63/63 67/67/67 64/64/64
f 67/67/67 63/63/63 65/65/65
f 67/67/67 68/68/68 64/64/64
f 69/69/69 68/68/68 67/67/67
f 70/70/70 69/69/69 67/67/67
f 71/71/71 65/65/65 66/66/66
f 71/71/71 67/67/67 65/65/65
f 70/70/70 67/67/67 71/71/71
f 72/72/72 71/71/71 66/66/66
f 73/73/73 70/70/70 71/71/71
f 72/72/72 74/74/74 71/71/71
f 74/74/74 73/73/73 71/71/71
f 77/77/77 76/76/76 75/75/75
f 78/78/78 77/77/77 75/75/75
f 77/77/77 78/78/78 79/79/79
f 80/80/80 77/77/77 79/79/79
f 80/80/80 79/79/79 81/81/81
f 82/82/82 80/80/80 81/81/81
f 82/82/82 81/81/81 83/83/83
f 82/82/82 83/83/83 84/84/84
f 85/85/85 81/81/81 79/79/79
f 85/85/85 86/86/86 81/81/81
f 83/83/83 81/81/81 87/87/87
f 79/79/79 78/78/78 88/88/88
f 88/88/88 85/85/85 79/79/79
f 86/86/86 85/85/85 89/89/89
f 90/90/90 86/86/86 89/89/89
f 75/75/75 91/91/91 78/78/78
f 92/92/92 91/91/91 75/75/75
f 93/93/93 92/92/92 75/75/75
f 78/78/78 94/94/94 88/88/88
f 91/91/91 94/94/94 78/78/78
f 95/95/95 94/94/94 91/91/91
f 96/96/96 95/95/95 91/91/91
f 94/94/94 95/95/95 97/97/97
f 88/88/88 94/94/94 97/97/97
f 88/88/88 97/97/97 85/85/85
f 97/97/97 98/98/98 85/85/85
f 85/85/85 98/98/98 89/89/89
f 89/89/89 98/98/98 99/99/99
f 100/100/100 89/89/89 99/99/99
f 99/99/99 101/101/101 100/100/100
f 102/102/102 89/89/89 100/100/100
f 102/102/102 90/90/90 89/89/89
f 103/103/103 90/90/90 102/102/102
f 90/90/90 103/103/103 87/87/87
f 101/101/101 104/104/104 100/100/100
f 105/105/105 104/104/104 101/101/101
f 106/106/106 105/105/105 101/101/101
f 106/106/106 107/107/107 105/105/105
f 107/107/107 108/108/108 105/105/105
f 105/105/105 108/108/108 109/109/109
f 110/110/110 100/100/100 104/104/104
f 110/110/110 102/102/102 100/100/100
f 111/111/111 105/105/105 109/109/109
f 109/109/109 112/112/112 111/111/111
f 112/112/112 113/113/113 111/111/111
f 111/111/111 113/113/113 114/114/114
f 115/115/115 104/104/104 105/105/105
f 111/111/111 115/115/115 105/105/105
f 115/115/115 111/111/111 114/114/114
f 115/115/115 110/110/110 104/104/104
f 115/115/115 114/114/114 110/110/110
f 114/114/114 116/116/116 110/110/110
f 102/102/102 110/110/110 116/116/116
f 117/117/117 102/102/102 116/116/116
f 117/117/117 103/103/103 102/102/102
f 117/117/117 118/118/118 103/103/103
f 118/118/118 119/119/119 103/103/103
f 103/103/103 119/119/119 120/120/120
f 87/87/87 103/103/103 120/120/120
f 121/121/121 119/119/119 118/118/118
f 122/122/122 121/121/121 118/118/118
f 121/121/121 123/123/123 119/119/119
f 123/123/123 120/120/120 119/119/119
f 121/121/121 122/122/122 124/124/124
f 121/121/121 124/124/124 123/123/123
f 122/122/122 125/125/125 124/124/124
f 124/124/124 126/126/126 123/123/123
f 124/124/124 127/127/127 126/126/126
f 127/127/127 128/128/128 126/126/126
f 129/129/129 123/123/123 126/126/126
f 123/123/123 129/129/129 120/120/120
f 130/130/130 129/129/129 126/126/126
f 129/129/129 131/131/131 120/120/120
f 120/120/120 131/131/131 87/87/87
f 131/131/131 132/132/132 87/87/87
f 87/87/87 132/132/132 133/133/133
f 133/133/133 83/83/83 87/87/87
f 133/133/133 132/132/132 134/134/134
f 133/133/133 135/135/135 83/83/83
f 135/135/135 133/133/133 134/134/134
f 135/135/135 136/136/136 83/83/83
f 83/83/83 136/136/136 84/84/84
f 137/137/137 135/135/135 134/134/134
f 135/135/135 137/137/137 136/136/136
f 138/138/138 137/137/137 134/134/134
f 136/136/136 139/139/139 84/84/84
f 137/137/137 139/139/139 136/136/136
f 139/139/139 140/140/140 84/84/84
f 141/141/141 137/137/137 138/138/138
f 137/137/137 141/141/141 139/139/139
f 142/142/142 141/141/141 138/138/138
f 142/142/142 143/143/143 141/141/141
f 143/143/143 144/144/144 141/141/141
f 139/139/139 145/145/145 140/140/140
f 141/141/141 145/145/145 139/139/139
f 141/141/141 144/144/144 145/145/145
f 145/145/145 146/146/146 140/140/140
f 144/144/144 147/147/147 145/145/145
f 148/148/148 146/146/146 145/145/145
f 147/147/147 148/148/148 145/145/145
