g ENV_S04_Light_Sphere_yellow
v 1.2671487 -2.8637838 -2.680914
v -6.2942505E-05 -3.9698896 6.2942505E-05
v 2.8472998 -2.8637838 -0.69960785
v 4.1662817 6.2942505E-05 -0.9509897
v 1.8541355 6.2942505E-05 -3.8502514
v 2.8472998 2.863781 -0.69960785
v -1.2671456 -2.8637838 -2.680914
v -6.2942505E-05 -3.9698896 6.2942505E-05
v 1.2671487 2.863781 -2.680914
v -6.2942505E-05 3.9698868 6.2942505E-05
v -1.8541327 6.2942505E-05 -3.8502514
v -2.8472972 -2.8637838 -0.69960785
v -6.2942505E-05 -3.9698896 6.2942505E-05
v -1.2671456 2.863781 -2.680914
v -6.2942505E-05 3.9698868 6.2942505E-05
v -4.166279 6.2942505E-05 -0.9509897
v -2.283362 -2.8637838 1.7711973
v -6.2942505E-05 -3.9698896 6.2942505E-05
v -2.8472972 2.863781 -0.69960785
v -6.2942505E-05 3.9698868 6.2942505E-05
v -3.3410459 6.2942505E-05 2.6644268
v -6.2942505E-05 -2.8637838 2.8707352
v -6.2942505E-05 -3.9698896 6.2942505E-05
v -2.283362 2.863781 1.7711973
v -6.2942505E-05 3.9698868 6.2942505E-05
v -6.2942505E-05 6.2942505E-05 4.273425
v 2.2833648 -2.8637838 1.7711973
v -6.2942505E-05 -3.9698896 6.2942505E-05
v -6.2942505E-05 2.863781 2.8707352
v -6.2942505E-05 3.9698868 6.2942505E-05
v 3.3410487 6.2942505E-05 2.6644268
v 2.8472998 -2.8637838 -0.69960785
v -6.2942505E-05 -3.9698896 6.2942505E-05
v 4.1662817 6.2942505E-05 -0.9509897
v 2.2833648 2.863781 1.7711973
v -6.2942505E-05 3.9698868 6.2942505E-05
v 2.8472998 2.863781 -0.69960785
v -6.2942505E-05 3.9698868 6.2942505E-05
vt 0.2913001 0.5483871
vt 0.2864125 0.53958946
vt 0.28445747 0.5483871
vt 0.28445747 0.56793743
vt 0.2913001 0.56793743
vt 0.28445747 0.58748776
vt 0.29912025 0.5483871
vt 0.29521015 0.53958946
vt 0.2913001 0.58748776
vt 0.2864125 0.59628546
vt 0.29912025 0.56793743
vt 0.30694038 0.5483871
vt 0.3030303 0.53958946
vt 0.29912025 0.58748776
vt 0.29521015 0.59628546
vt 0.30694038 0.56793743
vt 0.3147605 0.5483871
vt 0.31085044 0.53958946
vt 0.30694038 0.58748776
vt 0.3030303 0.59628546
vt 0.3147605 0.56793743
vt 0.32355815 0.5483871
vt 0.3196481 0.53958946
vt 0.3147605 0.58748776
vt 0.31085044 0.59628546
vt 0.32355815 0.56793743
vt 0.3313783 0.5483871
vt 0.32746822 0.53958946
vt 0.32355815 0.58748776
vt 0.3196481 0.59628546
vt 0.3313783 0.56793743
vt 0.33919844 0.5483871
vt 0.33528838 0.53958946
vt 0.33919844 0.56793743
vt 0.3313783 0.58748776
vt 0.32746822 0.59628546
vt 0.33919844 0.58748776
vt 0.33528838 0.59628546
vn 0.35686004 -0.552937 -0.75293535
vn -0.003921509 -0.9999924 -0
vn 0.8117585 -0.56078005 -0.16301493
vn 0.97646314 0.003921509 -0.21564874
vn 0.4352908 0.003921509 -0.90028137
vn 0.8117585 0.5607799 -0.16301529
vn -0.35685992 -0.552937 -0.7529354
vn -0.003921509 -0.9999924 -0
vn 0.35686004 0.5529369 -0.7529354
vn -0.003921509 0.99999225 -0.00034526698
vn -0.4352907 0.003921509 -0.9002814
vn -0.8117584 -0.56078005 -0.16301547
vn -0.003921509 -0.9999924 -0
vn -0.35685992 0.5529369 -0.7529354
vn -0.003921509 0.99999225 -0.00034526698
vn -0.9764631 0.003921509 -0.21564901
vn -0.64705384 -0.56078005 0.5165725
vn -0.003921509 -0.9999924 -0
vn -0.8117584 0.5607799 -0.16301584
vn -0.003921509 0.99999225 -0.00034526698
vn -0.7803861 0.003921509 0.6252857
vn -0.003921509 -0.5686231 0.8225888
vn -0.003921509 -0.9999924 -0
vn -0.64705384 0.5607799 0.5165726
vn -0.003921509 0.99999225 -0.00034526698
vn -0.003921509 0.003921509 0.9999846
vn 0.6470539 -0.56078005 0.51657236
vn -0.003921509 -0.9999924 -0
vn -0.003921509 0.56862307 0.82258886
vn -0.003921509 0.99999225 -0.00034526698
vn 0.7803862 0.003921509 0.6252855
vn 0.8117585 -0.56078005 -0.16301493
vn -0.003921509 -0.9999924 -0
vn 0.97646314 0.003921509 -0.21564874
vn 0.6470539 0.5607799 0.5165725
vn -0.003921509 0.99999225 -0.00034526698
vn 0.8117585 0.5607799 -0.16301529
vn -0.003921509 0.99999225 -0.00034526698
g ENV_S04_Light_Sphere_yellow_0
f 3/3/3 2/2/2 1/1/1
f 4/4/4 3/3/3 1/1/1
f 5/5/5 4/4/4 1/1/1
f 6/6/6 4/4/4 5/5/5
f 5/5/5 1/1/1 7/7/7
f 1/1/1 8/8/8 7/7/7
f 9/9/9 6/6/6 5/5/5
f 9/9/9 10/10/10 6/6/6
f 11/11/11 5/5/5 7/7/7
f 9/9/9 5/5/5 11/11/11
f 11/11/11 7/7/7 12/12/12
f 7/7/7 13/13/13 12/12/12
f 14/14/14 9/9/9 11/11/11
f 14/14/14 15/15/15 9/9/9
f 16/16/16 11/11/11 12/12/12
f 14/14/14 11/11/11 16/16/16
f 16/16/16 12/12/12 17/17/17
f 12/12/12 18/18/18 17/17/17
f 19/19/19 14/14/14 16/16/16
f 19/19/19 20/20/20 14/14/14
f 21/21/21 16/16/16 17/17/17
f 19/19/19 16/16/16 21/21/21
f 21/21/21 17/17/17 22/22/22
f 17/17/17 23/23/23 22/22/22
f 24/24/24 19/19/19 21/21/21
f 24/24/24 25/25/25 19/19/19
f 26/26/26 21/21/21 22/22/22
f 24/24/24 21/21/21 26/26/26
f 26/26/26 22/22/22 27/27/27
f 22/22/22 28/28/28 27/27/27
f 29/29/29 24/24/24 26/26/26
f 29/29/29 30/30/30 24/24/24
f 31/31/31 26/26/26 27/27/27
f 29/29/29 26/26/26 31/31/31
f 31/31/31 27/27/27 32/32/32
f 27/27/27 33/33/33 32/32/32
f 34/34/34 31/31/31 32/32/32
f 35/35/35 29/29/29 31/31/31
f 35/35/35 31/31/31 34/34/34
f 35/35/35 36/36/36 29/29/29
f 37/37/37 35/35/35 34/34/34
f 37/37/37 38/38/38 35/35/35
