g ENV_S05_DT_Section05_RampBlock_MO
v 17.539314 35.87936 42.165413
v 17.608732 35.894886 42.14897
v 17.62426 35.87936 42.07864
v 17.539314 35.842823 42.07864
v -17.519001 36.034637 42.165413
v 17.539314 35.842823 40.550514
v 17.62426 35.87936 40.550514
v -17.519001 35.99719 42.07864
v 17.539314 35.87936 40.464653
v 17.608732 35.894886 40.48018
v 17.62426 35.967045 40.464653
v -17.603035 36.034637 42.07864
v -17.58751 36.050167 42.14897
v -17.603035 36.034637 40.550514
v -17.519001 35.99719 40.550514
v -17.519001 36.034637 40.464653
v -17.58751 36.050167 40.48018
v -17.603035 36.122326 40.464653
v 17.539314 35.967045 40.42903
v -17.519001 36.122326 40.42903
v -17.603035 39.813396 40.464653
v 17.539314 39.813396 40.42903
v 17.62426 39.813396 40.464653
v -17.519001 39.813396 40.42903
v 17.539314 39.901997 40.464653
v 17.608732 39.885555 40.48018
v -17.519001 39.901997 40.464653
v -17.58751 39.885555 40.48018
v 17.62426 39.901997 40.550514
v 17.62426 39.813396 40.464653
v 17.539314 39.93853 40.550514
v -17.603035 39.901997 40.550514
v -17.603035 39.813396 40.464653
v -17.519001 39.93853 40.550514
v 17.539314 39.93853 42.07864
v -17.638657 39.813396 40.550514
v -17.603035 36.122326 40.464653
v 17.65897 39.813396 40.550514
v 17.62426 39.901997 42.07864
v 17.65897 35.967045 40.550514
v 17.62426 35.967045 40.464653
v 17.65897 39.813396 42.07864
v 17.62426 35.87936 40.550514
v 17.608732 35.894886 40.48018
v 17.65897 35.967045 42.07864
v 17.62426 35.87936 42.07864
v 17.62426 35.967045 42.165413
v 17.608732 35.894886 42.14897
v 17.62426 39.813396 42.165413
v 17.608732 39.885555 42.14897
v 17.539314 39.901997 42.165413
v 17.62426 39.813396 42.165413
v -17.519001 39.93853 42.07864
v -17.603035 39.901997 42.07864
v -17.519001 39.901997 42.165413
v 17.539314 39.813396 42.201035
v 17.539314 35.967045 42.201035
v 17.62426 35.967045 42.165413
v -17.638657 39.813396 42.07864
v -17.519001 39.813396 42.201035
v 17.539314 35.87936 42.165413
v 17.608732 35.894886 42.14897
v -17.519001 36.122326 42.201035
v -17.519001 36.034637 42.165413
v -17.603035 36.122326 42.165413
v -17.58751 36.050167 42.14897
v -17.603035 39.813396 42.165413
v -17.58751 39.885555 42.14897
v -17.603035 39.813396 42.165413
v -17.638657 36.122326 42.07864
v -17.603035 36.122326 42.165413
v -17.603035 36.034637 42.07864
v -17.58751 36.050167 42.14897
v -17.638657 36.122326 40.550514
v -17.603035 36.034637 40.550514
v -17.58751 36.050167 40.48018
vt -0.08952373 0.26378942
vt -0.092095196 0.26430368
vt -0.092609465 0.2668751
vt -0.08952373 0.2668751
vt 1.0835582 0.27870363
vt -0.089009464 0.3177892
vt -0.092095196 0.31830353
vt 1.0830439 0.28178936
vt -0.089009464 0.32087493
vt -0.09158087 0.32087493
vt -0.092095196 0.3239606
vt 1.0861297 0.28178936
vt 1.0861297 0.2792179
vt 1.0845867 0.33321774
vt 1.081501 0.33270347
vt 1.081501 0.33578914
vt 1.0840725 0.33578914
vt 1.0845867 0.33887488
vt -0.089009464 0.32447493
vt 1.081501 0.33887488
vt 1.0825297 0.46230304
vt -0.08952373 0.45304596
vt -0.092609465 0.45304596
vt 1.0794439 0.46230304
vt -0.089009464 0.45613158
vt -0.092095196 0.45613158
vt 1.0794439 0.46538877
vt 1.0820154 0.46538877
vt -0.092095196 0.4592173
vt -0.09518087 0.4556173
vt -0.089009464 0.4592173
vt 1.0825297 0.4684745
vt 1.085101 0.46538877
vt 1.0794439 0.4684745
vt -0.08952373 0.5101315
vt 1.0856153 0.4684745
vt 1.2090435 0.4664173
vt -0.09518087 0.45870304
vt -0.092609465 0.5101315
vt -0.2232376 0.45716023
vt -0.2232376 0.4540745
vt -0.0956952 0.5101315
vt -0.22632334 0.45716023
vt -0.22580904 0.45458877
vt -0.22426617 0.50858855
vt -0.22786617 0.50858855
vt -0.22478047 0.5116743
vt -0.2273519 0.51116
vt -0.0956952 0.5132172
vt -0.092609465 0.5127028
vt -0.08952373 0.5132172
vt -0.093123734 0.51578856
vt 1.0789297 0.51938856
vt 1.0820154 0.51938856
vt 1.0789297 0.5224743
vt -0.09003806 0.5163028
vt -0.09415233 0.6443596
vt -0.097238004 0.6443596
vt 1.085101 0.51938856
vt 1.0794439 0.52556
vt -0.0946666 0.6474453
vt -0.097238004 0.64693105
vt 1.081501 0.6495024
vt 1.081501 0.6525881
vt 1.0845867 0.6495024
vt 1.0840725 0.65207386
vt 1.0820154 0.52556
vt 1.0820154 0.5224743
vt 1.085101 0.52298856
vt 1.208015 0.5209315
vt 1.208015 0.5240171
vt 1.2111006 0.5209315
vt 1.2105863 0.5235028
vt 1.2090435 0.46950305
vt 1.2121292 0.46950305
vt 1.211615 0.46693158
vn -0.003922999 -0.70177627 0.7123866
vn 0.59200084 -0.5606364 0.5789834
vn 0.72255707 -0.6913112 -0
vn -0.003922999 -0.99973816 0.022544375
vn -0.003922999 -0.70177627 0.7123866
vn -0.003922999 -0.99973816 -0.022544375
vn 0.72255707 -0.6913112 -0
vn -0.003922999 -0.99973816 0.022544375
vn -0.003922999 -0.70177627 -0.7123866
vn 0.59200084 -0.5606364 -0.5789834
vn 0.7174585 -0.003918171 -0.69659024
vn -0.72255933 -0.6913089 -0
vn -0.59200567 -0.5606364 0.5789785
vn -0.72255933 -0.6913089 -0
vn -0.003922999 -0.99973816 -0.022544375
vn -0.003922999 -0.70177627 -0.7123866
vn -0.59200567 -0.5606364 -0.5789785
vn -0.7174633 -0.003918171 -0.6965853
vn 0.003918171 -0.011759281 -0.99992317
vn -0.003922999 -0.011759281 -0.99992317
vn -0.7174633 0.003922999 -0.6965853
vn 0.003918171 0.01176399 -0.9999231
vn 0.7174585 0.003922999 -0.69659024
vn -0.003922999 0.01176399 -0.9999231
vn 0.003918171 0.7017811 -0.71238184
vn 0.59200084 0.5606412 -0.5789788
vn -0.003922999 0.7017811 -0.71238184
vn -0.59200567 0.5606412 -0.5789738
vn 0.72255474 0.6913138 -0
vn 0.7174585 0.003922999 -0.69659024
vn 0.003918171 0.9997429 -0.022331862
vn -0.72255695 0.6913114 -0
vn -0.7174633 0.003922999 -0.6965853
vn -0.003922999 0.9997429 -0.022331862
vn 0.003918171 0.9997429 0.022331862
vn -0.9997429 0.01176399 -0.019382946
vn -0.7174633 -0.003918171 -0.6965853
vn 0.99973816 0.01176399 -0.019627413
vn 0.72255474 0.6913138 -0
vn 0.99973816 -0.011759281 -0.019630235
vn 0.7174585 -0.003918171 -0.69659024
vn 0.99973816 0.01176399 0.019627413
vn 0.72255707 -0.6913112 -0
vn 0.59200084 -0.5606364 -0.5789834
vn 0.99973816 -0.011759281 0.019630235
vn 0.72255707 -0.6913112 -0
vn 0.7174585 -0.003918171 0.69659024
vn 0.59200084 -0.5606364 0.5789834
vn 0.7174585 0.003922999 0.69659024
vn 0.59200084 0.5606412 0.5789788
vn 0.003918171 0.7017811 0.71238184
vn 0.7174585 0.003922999 0.69659024
vn -0.003922999 0.9997429 0.022331862
vn -0.72255695 0.6913114 -0
vn -0.003922999 0.7017811 0.71238184
vn 0.003918171 0.01176399 0.9999231
vn 0.003918171 -0.011759281 0.99992317
vn 0.7174585 -0.003918171 0.69659024
vn -0.9997429 0.01176399 0.019382946
vn -0.003922999 0.01176399 0.9999231
vn -0.003922999 -0.70177627 0.7123866
vn 0.59200084 -0.5606364 0.5789834
vn -0.003922999 -0.011759281 0.99992317
vn -0.003922999 -0.70177627 0.7123866
vn -0.7174633 -0.003918171 0.6965853
vn -0.59200567 -0.5606364 0.5789785
vn -0.7174633 0.003922999 0.6965853
vn -0.59200567 0.5606412 0.5789738
vn -0.7174633 0.003922999 0.6965853
vn -0.9997429 -0.011759281 0.019385803
vn -0.7174633 -0.003918171 0.6965853
vn -0.72255933 -0.6913089 -0
vn -0.59200567 -0.5606364 0.5789785
vn -0.9997429 -0.011759281 -0.019385803
vn -0.72255933 -0.6913089 -0
vn -0.59200567 -0.5606364 -0.5789785
g ENV_S05_DT_Section05_RampBlock_MO_0
f 3/3/3 2/2/2 1/1/1
f 4/4/4 3/3/3 1/1/1
f 1/1/1 5/5/5 4/4/4
f 4/4/4 6/6/6 3/3/3
f 6/6/6 7/7/7 3/3/3
f 5/5/5 8/8/8 4/4/4
f 4/4/4 8/8/8 6/6/6
f 6/6/6 9/9/9 7/7/7
f 9/9/9 10/10/10 7/7/7
f 11/11/11 10/10/10 9/9/9
f 8/8/8 5/5/5 12/12/12
f 5/5/5 13/13/13 12/12/12
f 12/12/12 14/14/14 8/8/8
f 8/8/8 15/15/15 6/6/6
f 14/14/14 15/15/15 8/8/8
f 9/9/9 6/6/6 15/15/15
f 15/15/15 14/14/14 16/16/16
f 16/16/16 9/9/9 15/15/15
f 14/14/14 17/17/17 16/16/16
f 16/16/16 17/17/17 18/18/18
f 19/19/19 11/11/11 9/9/9
f 19/19/19 9/9/9 16/16/16
f 20/20/20 16/16/16 18/18/18
f 20/20/20 19/19/19 16/16/16
f 20/20/20 18/18/18 21/21/21
f 11/11/11 19/19/19 22/22/22
f 22/22/22 19/19/19 20/20/20
f 23/23/23 11/11/11 22/22/22
f 24/24/24 20/20/20 21/21/21
f 24/24/24 22/22/22 20/20/20
f 22/22/22 25/25/25 23/23/23
f 25/25/25 22/22/22 24/24/24
f 25/25/25 26/26/26 23/23/23
f 24/24/24 21/21/21 27/27/27
f 27/27/27 25/25/25 24/24/24
f 21/21/21 28/28/28 27/27/27
f 29/29/29 26/26/26 25/25/25
f 30/30/30 26/26/26 29/29/29
f 31/31/31 25/25/25 27/27/27
f 31/31/31 29/29/29 25/25/25
f 27/27/27 28/28/28 32/32/32
f 32/32/32 28/28/28 33/33/33
f 34/34/34 31/31/31 27/27/27
f 34/34/34 27/27/27 32/32/32
f 29/29/29 31/31/31 35/35/35
f 31/31/31 34/34/34 35/35/35
f 36/36/36 32/32/32 33/33/33
f 33/33/33 37/37/37 36/36/36
f 38/38/38 30/30/30 29/29/29
f 39/39/39 29/29/29 35/35/35
f 38/38/38 29/29/29 39/39/39
f 38/38/38 40/40/40 30/30/30
f 40/40/40 41/41/41 30/30/30
f 42/42/42 38/38/38 39/39/39
f 38/38/38 42/42/42 40/40/40
f 40/40/40 43/43/43 41/41/41
f 43/43/43 44/44/44 41/41/41
f 43/43/43 40/40/40 45/45/45
f 42/42/42 45/45/45 40/40/40
f 46/46/46 43/43/43 45/45/45
f 45/45/45 47/47/47 46/46/46
f 45/45/45 42/42/42 47/47/47
f 47/47/47 48/48/48 46/46/46
f 42/42/42 49/49/49 47/47/47
f 42/42/42 39/39/39 49/49/49
f 39/39/39 50/50/50 49/49/49
f 51/51/51 50/50/50 39/39/39
f 35/35/35 51/51/51 39/39/39
f 52/52/52 50/50/50 51/51/51
f 35/35/35 53/53/53 51/51/51
f 34/34/34 53/53/53 35/35/35
f 53/53/53 34/34/34 54/54/54
f 34/34/34 32/32/32 54/54/54
f 53/53/53 55/55/55 51/51/51
f 53/53/53 54/54/54 55/55/55
f 56/56/56 52/52/52 51/51/51
f 51/51/51 55/55/55 56/56/56
f 52/52/52 56/56/56 57/57/57
f 58/58/58 52/52/52 57/57/57
f 54/54/54 32/32/32 59/59/59
f 32/32/32 36/36/36 59/59/59
f 55/55/55 60/60/60 56/56/56
f 56/56/56 60/60/60 57/57/57
f 57/57/57 61/61/61 58/58/58
f 61/61/61 62/62/62 58/58/58
f 57/57/57 63/63/63 61/61/61
f 60/60/60 63/63/63 57/57/57
f 63/63/63 64/64/64 61/61/61
f 63/63/63 65/65/65 64/64/64
f 65/65/65 63/63/63 60/60/60
f 65/65/65 66/66/66 64/64/64
f 67/67/67 65/65/65 60/60/60
f 60/60/60 55/55/55 67/67/67
f 55/55/55 68/68/68 67/67/67
f 54/54/54 68/68/68 55/55/55
f 69/69/69 68/68/68 54/54/54
f 59/59/59 69/69/69 54/54/54
f 59/59/59 70/70/70 69/69/69
f 70/70/70 71/71/71 69/69/69
f 59/59/59 36/36/36 70/70/70
f 70/70/70 72/72/72 71/71/71
f 72/72/72 73/73/73 71/71/71
f 36/36/36 74/74/74 70/70/70
f 70/70/70 74/74/74 72/72/72
f 37/37/37 74/74/74 36/36/36
f 74/74/74 75/75/75 72/72/72
f 74/74/74 37/37/37 75/75/75
f 37/37/37 76/76/76 75/75/75
