g ENV_S09_Coral_Piece_01f_MO
v -19.836748 -12.783354 80.55472
v 0.046063934 -12.783354 87.00108
v 20.153564 -12.783354 80.5546
v 35.936844 -12.783354 66.597496
v -35.61253 -12.783354 66.597496
v 41.915752 -12.783354 41.40589
v -42.185028 -12.783354 41.40589
v -42.569717 -12.783354 16.776127
v 42.597313 -12.783354 16.776127
v -52.415653 -12.783354 2.4729621
v 52.715908 -12.783354 2.5001886
v 54.784657 -12.783354 -21.078913
v -54.781277 -12.783354 -21.112194
v -52.674717 -12.783354 -46.4093
v 52.98403 -12.783354 -46.438713
v 42.576065 -12.783354 -68.032
v -42.252216 -12.783354 -68.032
v 26.14372 -12.783354 -82.32817
v -25.817217 -12.783354 -82.33005
v 0.07809518 -12.783354 -86.95735
v -48.012684 7.526372 18.53886
v -42.569717 12.783354 16.776127
v -42.185028 12.783354 41.40589
v -47.48456 7.526372 41.622925
v -35.61253 12.783354 66.597496
v -48.012684 -7.5263767 18.53886
v -40.188152 7.526372 69.716324
v -19.824717 12.783354 80.55679
v -47.48456 -7.5263767 41.622925
v -22.535654 7.5243406 85.61897
v 0.046063934 12.783354 87.00108
v -42.185028 -12.783354 41.40589
v -42.569717 -12.783354 16.776127
v -35.61253 -12.783354 66.597496
v -40.188152 -7.5263767 69.716324
v -19.836748 -12.783354 80.55472
v -22.535654 -7.525361 85.61897
v 0.046063934 -12.783354 87.00108
v 0.041688934 7.526372 92.29702
v 0.041688934 -7.5263767 92.29702
v 22.85997 7.5253563 85.61897
v 20.165596 12.783354 80.552536
v 22.85997 -7.524336 85.61897
v 20.153564 -12.783354 80.5546
v 40.512783 7.526372 69.716324
v 35.936844 12.783354 66.597496
v 40.512783 -7.5263767 69.716324
v 35.936844 -12.783354 66.597496
v 47.215126 7.526372 41.622925
v 41.915752 12.783354 41.40589
v 47.215126 -7.5263767 41.622925
v 41.915752 -12.783354 41.40589
v 48.040596 7.526372 18.53886
v 42.597313 12.783354 16.776127
v 52.715908 12.783354 2.5001886
v 48.040596 -7.5263767 18.53886
v 42.597313 -12.783354 16.776127
v 52.715908 -12.783354 2.5001886
v 57.80278 7.526372 4.6697197
v 57.80278 -7.5263767 4.6697197
v 60.05825 7.5251513 -21.067741
v 54.78622 12.783354 -21.111023
v 52.98403 12.783354 -46.438713
v 60.05825 -7.523828 -21.067741
v 54.784657 -12.783354 -21.078913
v 52.98403 -12.783354 -46.438713
v 58.15669 7.526372 -47.81512
v 42.576065 12.783354 -68.032
v 58.15669 -7.5263767 -47.81512
v 42.576065 -12.783354 -68.032
v 46.842 7.526372 -71.28848
v 26.14372 12.783354 -82.32817
v 46.842 -7.5263767 -71.28848
v 26.14372 -12.783354 -82.32817
v 28.496376 7.526372 -87.24962
v 28.496376 -7.5263767 -87.24962
v 0.07528268 7.526372 -92.29708
v 0.07809518 12.783354 -86.95735
v -25.817217 12.783354 -82.33005
v 0.07528268 -7.5263767 -92.29708
v 0.07809518 -12.783354 -86.95735
v -25.817217 -12.783354 -82.33005
v -28.171904 7.526372 -87.24962
v -28.171904 -7.5263767 -87.24962
v -46.51831 7.526372 -71.28848
v -42.252216 12.783354 -68.032
v -46.51831 -7.5263767 -71.28848
v -42.252216 -12.783354 -68.032
v -57.832527 7.526372 -47.81512
v -52.674717 12.783354 -46.4093
v -57.832527 -7.5263767 -47.81512
v -52.674717 -12.783354 -46.4093
v -60.058308 7.5226464 -21.067741
v -54.77909 12.783354 -21.07157
v -52.415653 12.783354 2.4729621
v -60.058308 -7.5245895 -21.067741
v -54.781277 -12.783354 -21.112194
v -52.415653 -12.783354 2.4729621
v -57.47878 7.526372 4.6697197
v -57.47878 -7.5263767 4.6697197
v -48.012684 7.526372 18.53886
v -42.569717 12.783354 16.776127
v -48.012684 -7.5263767 18.53886
v -42.569717 -12.783354 16.776127
v -19.824717 12.783354 80.55679
v 20.165596 12.783354 80.552536
v 0.046063934 12.783354 87.00108
v -35.61253 12.783354 66.597496
v 35.936844 12.783354 66.597496
v 41.915752 12.783354 41.40589
v -42.185028 12.783354 41.40589
v -42.569717 12.783354 16.776127
v 42.597313 12.783354 16.776127
v -52.415653 12.783354 2.4729621
v 52.715908 12.783354 2.5001886
v 54.78622 12.783354 -21.111023
v -54.77909 12.783354 -21.07157
v -52.674717 12.783354 -46.4093
v 52.98403 12.783354 -46.438713
v -42.252216 12.783354 -68.032
v 42.576065 12.783354 -68.032
v 26.14372 12.783354 -82.32817
v -25.817217 12.783354 -82.33005
v 0.07809518 12.783354 -86.95735
vt 0.18652171 0.47937846
vt 0.18126029 0.5096796
vt 0.19215345 0.5387044
vt 0.21182913 0.560378
vt 0.20175344 0.4542332
vt 0.24417299 0.5661035
vt 0.23233032 0.44133922
vt 0.26307535 0.43769488
vt 0.27506864 0.56404126
vt 0.27957463 0.42130318
vt 0.29434514 0.57727104
vt 0.32412195 0.5773973
vt 0.30873513 0.4148504
vt 0.34066528 0.4148191
vt 0.35558116 0.5715618
vt 0.38111752 0.5534261
vt 0.36917216 0.42758244
vt 0.3966807 0.5272651
vt 0.3893662 0.45017955
vt 0.39879906 0.4880183
vt 0.8871202 0.6754458
vt 0.89552754 0.6754456
vt 0.89552754 0.65509975
vt 0.8871202 0.65509975
vt 0.89552754 0.631279
vt 0.8656304 0.6754458
vt 0.8871202 0.631279
vt 0.89552754 0.61017025
vt 0.8656304 0.65509975
vt 0.8871202 0.61017025
vt 0.8955277 0.58830476
vt 0.8573309 0.65509975
vt 0.8573309 0.6754456
vt 0.8573313 0.631279
vt 0.8656304 0.631279
vt 0.8573313 0.61017025
vt 0.8656304 0.61017025
vt 0.8573313 0.58830476
vt 0.8871202 0.58830476
vt 0.8656304 0.58830476
vt 0.8871202 0.566209
vt 0.8955277 0.566209
vt 0.8656304 0.566209
vt 0.8573313 0.566209
vt 0.8871202 0.5450562
vt 0.89552754 0.5450562
vt 0.8656304 0.5450561
vt 0.8573309 0.5450561
vt 0.8871202 0.52147204
vt 0.89552754 0.52147186
vt 0.8656304 0.5214719
vt 0.8573313 0.5214715
vt 0.8871202 0.5013709
vt 0.89552754 0.5013709
vt 0.89552754 0.4860567
vt 0.8656304 0.50137067
vt 0.8573313 0.50137067
vt 0.8573313 0.48605657
vt 0.8871202 0.4860567
vt 0.8656304 0.48605657
vt 0.8871202 0.46487188
vt 0.89552754 0.4648717
vt 0.8955277 0.44243705
vt 0.8656304 0.46487176
vt 0.8573313 0.46487144
vt 0.8573313 0.44243684
vt 0.8871202 0.44243684
vt 0.89552766 0.42021185
vt 0.86563015 0.44243667
vt 0.8573314 0.4202119
vt 0.88712037 0.42021203
vt 0.89552766 0.3985321
vt 0.86563057 0.4202119
vt 0.8573314 0.39853194
vt 0.88712037 0.3985321
vt 0.86563057 0.39853194
vt 0.88712037 0.37128133
vt 0.89552766 0.3712811
vt 0.89552766 0.34419575
vt 0.86563057 0.37128112
vt 0.85733104 0.37128085
vt 0.8573314 0.34419566
vt 0.88712037 0.34419593
vt 0.8656304 0.34419566
vt 0.88712037 0.32251406
vt 0.89552766 0.32251406
vt 0.8656304 0.3225138
vt 0.8573314 0.3225138
vt 0.88712037 0.30027163
vt 0.89552766 0.30027175
vt 0.8656304 0.3002714
vt 0.8573314 0.3002717
vt 0.88712037 0.2777799
vt 0.89552766 0.2777799
vt 0.89552766 0.2565532
vt 0.86563057 0.2777797
vt 0.8573314 0.2777797
vt 0.8573314 0.25655308
vt 0.88712037 0.2565532
vt 0.86563057 0.25655308
vt 0.88712037 0.24124134
vt 0.89552766 0.24124134
vt 0.86563057 0.24124111
vt 0.85733104 0.24124111
vt 0.25016093 0.59096456
vt 0.25466347 0.6432641
vt 0.2595047 0.6163077
vt 0.23299295 0.5717109
vt 0.24105707 0.6652834
vt 0.21396026 0.6756186
vt 0.20448157 0.5656318
vt 0.17728695 0.5675885
vt 0.18688549 0.6789699
vt 0.16040954 0.55614036
vt 0.17228815 0.6936291
vt 0.1464929 0.6986947
vt 0.1341884 0.5554011
vt 0.10649361 0.5606842
vt 0.11836879 0.6988677
vt 0.08383177 0.57647395
vt 0.09339188 0.68741226
vt 0.07578024 0.6673503
vt 0.06992197 0.5993955
vt 0.06773925 0.6337241
vn -0.07046934 -0.99045324 0.11847549
vn -2.1600368E-05 -0.93248135 0.3612182
vn 0.10542845 -0.97828764 0.17843278
vn 0.092833646 -0.994472 0.049065173
vn -0.0788422 -0.99596244 0.04292569
vn 0.06674911 -0.9977239 0.009568597
vn -0.064971805 -0.9978393 0.009769718
vn -0.04477491 -0.9989274 0.011794648
vn 0.040834732 -0.99910235 0.011274523
vn -0.061586242 -0.9979292 0.018558288
vn 0.061549835 -0.9979321 0.018530363
vn 0.051243585 -0.99868613 0.00029148077
vn -0.050310317 -0.9987336 0.00026692578
vn -0.059890755 -0.9980813 -0.01571168
vn 0.058094267 -0.9982008 -0.014840425
vn 0.05801602 -0.99740016 -0.042744417
vn -0.07065559 -0.9961415 -0.052056573
vn 0.056237925 -0.9905009 -0.12547933
vn -0.08061309 -0.9805068 -0.17918676
vn 1.3489244E-05 -0.92656773 -0.37612796
vn -0.92095286 0.30127642 0.2471402
vn -0.044774886 0.9989274 0.011795375
vn -0.06497133 0.99783933 0.009769746
vn -0.9614941 0.23367158 0.14466019
vn -0.0823235 0.99559623 0.044843495
vn -0.9209537 -0.3012754 0.24713834
vn -0.8467487 0.23021634 0.479601
vn -0.105440825 0.9784877 0.1773246
vn -0.9614942 -0.23367126 0.14466
vn -0.47838435 0.24150896 0.8442877
vn -3.6096993E-05 0.93248004 0.36122152
vn -0.064971805 -0.9978393 0.009769718
vn -0.04477491 -0.9989274 0.011794648
vn -0.0788422 -0.99596244 0.04292569
vn -0.84677947 -0.23016594 0.47957087
vn -0.07046934 -0.99045324 0.11847549
vn -0.47833458 -0.24138772 0.8443506
vn -2.1600368E-05 -0.93248135 0.3612182
vn 2.6421832E-05 0.22887145 0.9734567
vn 1.5711885E-05 -0.22887143 0.9734567
vn 0.47618163 0.24131413 0.84558773
vn 0.07047989 0.9903599 0.11924713
vn 0.4762334 -0.24142736 0.84552616
vn 0.10542845 -0.97828764 0.17843278
vn 0.8517556 0.2289838 0.47125223
vn 0.08846156 0.99498284 0.046730287
vn 0.85172397 -0.22903815 0.4712832
vn 0.092833646 -0.994472 0.049065173
vn 0.9619951 0.23485215 0.13931891
vn 0.0667496 0.9977239 0.009568482
vn 0.9619954 -0.2348508 0.13931933
vn 0.06674911 -0.9977239 0.009568597
vn 0.9171428 0.30116138 0.26105726
vn 0.040834557 0.99910235 0.01127421
vn 0.061500583 0.9979353 0.018515188
vn 0.9171424 -0.30116206 0.26105785
vn 0.040834732 -0.99910235 0.011274523
vn 0.061549835 -0.9979321 0.018530363
vn 0.92901635 0.23775485 0.28355125
vn 0.92901236 -0.23776759 0.28355372
vn 0.9718696 0.23543447 0.0063270484
vn 0.051238764 0.9986864 0.00028076314
vn 0.061466746 0.9979856 -0.015705291
vn 0.9718574 -0.23548639 0.006269916
vn 0.051243585 -0.99868613 0.00029148077
vn 0.058094267 -0.9982008 -0.014840425
vn 0.9406292 0.23384215 -0.24603772
vn 0.06735106 0.9964946 -0.049622364
vn 0.94063276 -0.2338366 -0.24602932
vn 0.05801602 -0.99740016 -0.042744417
vn 0.7785769 0.2318959 -0.5831315
vn 0.05623762 0.9905009 -0.12547944
vn 0.7785766 -0.23189835 -0.5831309
vn 0.056237925 -0.9905009 -0.12547933
vn 0.3981676 0.23632194 -0.88634896
vn 0.3981676 -0.23632306 -0.8863487
vn 4.6418163E-06 0.2279874 -0.9736641
vn 1.3456263E-05 0.92656785 -0.3761277
vn -0.08061347 0.98050666 -0.17918773
vn 4.6601654E-06 -0.22798753 -0.9736641
vn 1.3489244E-05 -0.92656773 -0.37612796
vn -0.08061309 -0.9805068 -0.17918676
vn -0.39939559 0.23633109 -0.88579386
vn -0.39939559 -0.23633184 -0.8857937
vn -0.778571 0.23190929 -0.5831342
vn -0.060465377 0.9971757 -0.044548977
vn -0.7785717 -0.23190776 -0.5831337
vn -0.07065559 -0.9961415 -0.052056573
vn -0.939043 0.23416021 -0.25172874
vn -0.056677945 0.99828184 -0.01486397
vn -0.9390393 -0.23415999 -0.25174242
vn -0.059890755 -0.9980813 -0.01571168
vn -0.9720753 0.23458686 0.0062126
vn -0.050320096 0.9987331 0.00028222447
vn -0.061634477 0.997926 0.018572437
vn -0.97209024 -0.23452267 0.0062971557
vn -0.050310317 -0.9987336 0.00026692578
vn -0.061586242 -0.9979292 0.018558288
vn -0.9286781 0.23826902 0.284227
vn -0.92868394 -0.2382472 0.2842258
vn -0.92095286 0.30127642 0.2471402
vn -0.044774886 0.9989274 0.011795375
vn -0.9209537 -0.3012754 0.24713834
vn -0.04477491 -0.9989274 0.011794648
vn -0.105440825 0.9784877 0.1773246
vn 0.07047989 0.9903599 0.11924713
vn -3.6096993E-05 0.93248004 0.36122152
vn -0.0823235 0.99559623 0.044843495
vn 0.08846156 0.99498284 0.046730287
vn 0.0667496 0.9977239 0.009568482
vn -0.06497133 0.99783933 0.009769746
vn -0.044774886 0.9989274 0.011795375
vn 0.040834557 0.99910235 0.01127421
vn -0.061634477 0.997926 0.018572437
vn 0.061500583 0.9979353 0.018515188
vn 0.051238764 0.9986864 0.00028076314
vn -0.050320096 0.9987331 0.00028222447
vn -0.056677945 0.99828184 -0.01486397
vn 0.061466746 0.9979856 -0.015705291
vn -0.060465377 0.9971757 -0.044548977
vn 0.06735106 0.9964946 -0.049622364
vn 0.05623762 0.9905009 -0.12547944
vn -0.08061347 0.98050666 -0.17918773
vn 1.3456263E-05 0.92656785 -0.3761277
g ENV_S09_Coral_Piece_01f_MO_0
f 3/3/3 2/2/2 1/1/1
f 4/4/4 3/3/3 1/1/1
f 4/4/4 1/1/1 5/5/5
f 6/6/6 4/4/4 5/5/5
f 6/6/6 5/5/5 7/7/7
f 6/6/6 7/7/7 8/8/8
f 6/6/6 8/8/8 9/9/9
f 9/9/9 8/8/8 10/10/10
f 9/9/9 10/10/10 11/11/11
f 12/12/12 11/11/11 10/10/10
f 12/12/12 10/10/10 13/13/13
f 12/12/12 13/13/13 14/14/14
f 12/12/12 14/14/14 15/15/15
f 16/16/16 15/15/15 14/14/14
f 16/16/16 14/14/14 17/17/17
f 18/18/18 16/16/16 17/17/17
f 18/18/18 17/17/17 19/19/19
f 18/18/18 19/19/19 20/20/20
f 23/23/23 22/22/22 21/21/21
f 23/23/23 21/21/21 24/24/24
f 25/25/25 23/23/23 24/24/24
f 26/26/26 24/24/24 21/21/21
f 25/25/25 24/24/24 27/27/27
f 28/28/28 25/25/25 27/27/27
f 26/26/26 29/29/29 24/24/24
f 29/29/29 27/27/27 24/24/24
f 28/28/28 27/27/27 30/30/30
f 31/31/31 28/28/28 30/30/30
f 26/26/26 32/32/32 29/29/29
f 26/26/26 33/33/33 32/32/32
f 29/29/29 32/32/32 34/34/34
f 29/29/29 35/35/35 27/27/27
f 29/29/29 34/34/34 35/35/35
f 35/35/35 30/30/30 27/27/27
f 35/35/35 34/34/34 36/36/36
f 35/35/35 36/36/36 37/37/37
f 35/35/35 37/37/37 30/30/30
f 37/37/37 36/36/36 38/38/38
f 31/31/31 30/30/30 39/39/39
f 37/37/37 39/39/39 30/30/30
f 37/37/37 38/38/38 40/40/40
f 37/37/37 40/40/40 39/39/39
f 31/31/31 39/39/39 41/41/41
f 40/40/40 41/41/41 39/39/39
f 31/31/31 41/41/41 42/42/42
f 38/38/38 43/43/43 40/40/40
f 40/40/40 43/43/43 41/41/41
f 38/38/38 44/44/44 43/43/43
f 42/42/42 41/41/41 45/45/45
f 43/43/43 45/45/45 41/41/41
f 42/42/42 45/45/45 46/46/46
f 44/44/44 47/47/47 43/43/43
f 43/43/43 47/47/47 45/45/45
f 44/44/44 48/48/48 47/47/47
f 46/46/46 45/45/45 49/49/49
f 47/47/47 49/49/49 45/45/45
f 46/46/46 49/49/49 50/50/50
f 48/48/48 51/51/51 47/47/47
f 47/47/47 51/51/51 49/49/49
f 48/48/48 52/52/52 51/51/51
f 50/50/50 49/49/49 53/53/53
f 51/51/51 53/53/53 49/49/49
f 50/50/50 53/53/53 54/54/54
f 53/53/53 55/55/55 54/54/54
f 52/52/52 56/56/56 51/51/51
f 51/51/51 56/56/56 53/53/53
f 52/52/52 57/57/57 56/56/56
f 56/56/56 57/57/57 58/58/58
f 53/53/53 59/59/59 55/55/55
f 56/56/56 59/59/59 53/53/53
f 56/56/56 58/58/58 60/60/60
f 56/56/56 60/60/60 59/59/59
f 55/55/55 59/59/59 61/61/61
f 60/60/60 61/61/61 59/59/59
f 55/55/55 61/61/61 62/62/62
f 61/61/61 63/63/63 62/62/62
f 58/58/58 64/64/64 60/60/60
f 60/60/60 64/64/64 61/61/61
f 58/58/58 65/65/65 64/64/64
f 64/64/64 65/65/65 66/66/66
f 61/61/61 67/67/67 63/63/63
f 64/64/64 67/67/67 61/61/61
f 67/67/67 68/68/68 63/63/63
f 64/64/64 66/66/66 69/69/69
f 64/64/64 69/69/69 67/67/67
f 69/69/69 66/66/66 70/70/70
f 67/67/67 71/71/71 68/68/68
f 69/69/69 71/71/71 67/67/67
f 71/71/71 72/72/72 68/68/68
f 69/69/69 70/70/70 73/73/73
f 69/69/69 73/73/73 71/71/71
f 73/73/73 70/70/70 74/74/74
f 71/71/71 75/75/75 72/72/72
f 73/73/73 75/75/75 71/71/71
f 73/73/73 74/74/74 76/76/76
f 73/73/73 76/76/76 75/75/75
f 72/72/72 75/75/75 77/77/77
f 76/76/76 77/77/77 75/75/75
f 72/72/72 77/77/77 78/78/78
f 77/77/77 79/79/79 78/78/78
f 80/80/80 76/76/76 74/74/74
f 76/76/76 80/80/80 77/77/77
f 80/80/80 74/74/74 81/81/81
f 80/80/80 81/81/81 82/82/82
f 77/77/77 83/83/83 79/79/79
f 80/80/80 83/83/83 77/77/77
f 80/80/80 82/82/82 84/84/84
f 80/80/80 84/84/84 83/83/83
f 85/85/85 79/79/79 83/83/83
f 84/84/84 85/85/85 83/83/83
f 85/85/85 86/86/86 79/79/79
f 82/82/82 87/87/87 84/84/84
f 84/84/84 87/87/87 85/85/85
f 82/82/82 88/88/88 87/87/87
f 89/89/89 86/86/86 85/85/85
f 87/87/87 89/89/89 85/85/85
f 89/89/89 90/90/90 86/86/86
f 88/88/88 91/91/91 87/87/87
f 87/87/87 91/91/91 89/89/89
f 88/88/88 92/92/92 91/91/91
f 93/93/93 90/90/90 89/89/89
f 91/91/91 93/93/93 89/89/89
f 93/93/93 94/94/94 90/90/90
f 95/95/95 94/94/94 93/93/93
f 92/92/92 96/96/96 91/91/91
f 91/91/91 96/96/96 93/93/93
f 92/92/92 97/97/97 96/96/96
f 96/96/96 97/97/97 98/98/98
f 95/95/95 93/93/93 99/99/99
f 96/96/96 99/99/99 93/93/93
f 96/96/96 98/98/98 100/100/100
f 96/96/96 100/100/100 99/99/99
f 101/101/101 95/95/95 99/99/99
f 100/100/100 101/101/101 99/99/99
f 101/101/101 102/102/102 95/95/95
f 100/100/100 103/103/103 101/101/101
f 98/98/98 103/103/103 100/100/100
f 98/98/98 104/104/104 103/103/103
f 107/107/107 106/106/106 105/105/105
f 106/106/106 108/108/108 105/105/105
f 106/106/106 109/109/109 108/108/108
f 108/108/108 109/109/109 110/110/110
f 108/108/108 110/110/110 111/111/111
f 110/110/110 112/112/112 111/111/111
f 110/110/110 113/113/113 112/112/112
f 114/114/114 112/112/112 113/113/113
f 114/114/114 113/113/113 115/115/115
f 114/114/114 115/115/115 116/116/116
f 114/114/114 116/116/116 117/117/117
f 118/118/118 117/117/117 116/116/116
f 118/118/118 116/116/116 119/119/119
f 120/120/120 118/118/118 119/119/119
f 120/120/120 119/119/119 121/121/121
f 120/120/120 121/121/121 122/122/122
f 120/120/120 122/122/122 123/123/123
f 122/122/122 124/124/124 123/123/123
