g ENV_FFABB_Roof_04_MO
v 6.604294 17.783932 41.05436
v 6.604294 18.460032 41.05436
v 6.554862 18.460032 41.03363
v 6.554862 17.783932 41.03363
v 6.554862 17.7345 41.05436
v 6.5947266 17.744068 41.063927
v -6.554935 17.783932 41.03363
v -6.554935 18.460032 41.03363
v -6.604367 18.460032 41.05436
v -6.604367 17.783932 41.05436
v -6.554935 17.7345 41.05436
v -6.5947995 17.744068 41.063927
v -6.604367 17.7345 41.10379
v -6.604367 17.783932 41.05436
v 6.604294 17.7345 41.10379
v 6.604294 17.783932 41.05436
v -6.554935 17.714567 41.10379
v 6.6250234 17.783932 41.10379
v 6.604294 18.460032 41.05436
v 6.6250234 18.460032 41.10379
v 6.6250234 18.460032 45.555046
v 6.6250234 17.783932 45.555046
v 6.554862 17.714567 41.10379
v 6.604294 17.783932 45.60448
v 6.604294 18.460032 45.60448
v 6.604294 17.7345 45.555046
v 6.5947266 17.744068 45.594913
v 6.554862 17.714567 45.555046
v 6.554862 17.7345 45.60448
v 6.604294 17.783932 45.60448
v -6.554935 17.714567 45.555046
v -6.554935 17.7345 45.60448
v 6.554862 17.783932 45.62521
v 6.604294 18.460032 45.60448
v 6.554862 18.460032 45.62521
v -6.554935 18.460032 45.62521
v -6.554935 17.783932 45.62521
v -6.604367 17.783932 45.60448
v -6.604367 18.460032 45.60448
v -6.5947995 17.744068 45.594913
v -6.604367 17.7345 45.555046
v -6.604367 17.783932 45.60448
v -6.625097 17.783932 41.10379
v -6.625097 17.783932 45.555046
v -6.604367 18.460032 45.60448
v -6.625097 18.460032 45.555046
v -6.625097 18.460032 41.10379
v -6.604367 18.460032 41.05436
vt 0.04956479 0.08351078
vt 0.053076446 0.08351078
vt 0.053076446 0.083276674
vt 0.04956479 0.083276674
vt 0.04933068 0.083276674
vt 0.04909657 0.08351078
vt 0.04956479 0.013980027
vt 0.053076446 0.013980027
vt 0.053076446 0.013745917
vt 0.04956479 0.013745917
vt 0.04933068 0.013980027
vt 0.04909657 0.013745917
vt 0.04886246 0.013745917
vt 0.04933068 0.013511807
vt 0.04886246 0.08351078
vt 0.04933068 0.08374489
vt 0.04886246 0.013980027
vt 0.04886246 0.08374489
vt 0.04933068 0.08725654
vt 0.04886246 0.08725654
vt 0.017959902 0.08725654
vt 0.017959902 0.08374489
vt 0.04886246 0.083276674
vt 0.017725792 0.08374489
vt 0.017725792 0.08725654
vt 0.017959902 0.08351078
vt 0.017725792 0.08351078
vt 0.017959902 0.083276674
vt 0.017725792 0.083276674
vt 0.017491682 0.08351078
vt 0.017959902 0.013980027
vt 0.017725792 0.013980027
vt 0.017491682 0.083276674
vt 0.013980027 0.08351078
vt 0.013980027 0.083276674
vt 0.013980027 0.013980027
vt 0.017491682 0.013980027
vt 0.017491682 0.013745917
vt 0.013980027 0.013745917
vt 0.017725792 0.013745917
vt 0.017959902 0.013745917
vt 0.017725792 0.013511807
vt 0.04886246 0.013511807
vt 0.017959902 0.013511807
vt 0.017725792 0.009766042
vt 0.017959902 0.009766042
vt 0.04886246 0.009766042
vt 0.04933068 0.0100001525
vn 0.70979893 -0.019609094 -0.70413136
vn 0.70979893 0.0039200783 -0.70439345
vn 0.0039229393 0.0039200783 -0.9999846
vn 0.0039229393 -0.027452111 -0.99961543
vn 0.0039229393 -0.70979893 -0.70439345
vn 0.5764668 -0.5764668 -0.5791131
vn -0.0039200783 -0.027452111 -0.99961543
vn -0.0039200783 0.0039200783 -0.9999846
vn -0.7097961 0.0039200783 -0.7043963
vn -0.7097961 -0.019609094 -0.7041342
vn -0.0039200783 -0.70979893 -0.70439345
vn -0.57646394 -0.5764668 -0.579116
vn -0.70710534 -0.7071082 -0
vn -0.7097961 -0.019609094 -0.7041342
vn 0.70710677 -0.70710677 -0
vn 0.70979893 -0.019609094 -0.70413136
vn -0.0039200783 -0.9999924 -0
vn 0.9996234 -0.027441982 -0
vn 0.70979893 0.0039200783 -0.70439345
vn 0.9999924 0.0039200783 -0
vn 0.9999924 0.0039200783 -0
vn 0.9996234 -0.027441982 -0
vn -0.0039200783 -0.9999924 -0
vn 0.70979893 -0.019609094 0.70413136
vn 0.70979893 0.0039200783 0.70439345
vn 0.70710677 -0.70710677 -0
vn 0.5764668 -0.5764668 0.5791131
vn -0.0039200783 -0.9999924 -0
vn 0.0039229393 -0.70979893 0.70439345
vn 0.70979893 -0.019609094 0.70413136
vn -0.0039200783 -0.9999924 -0
vn -0.0039200783 -0.70979893 0.70439345
vn 0.0039229393 -0.027452111 0.99961543
vn 0.70979893 0.0039200783 0.70439345
vn 0.0039229393 0.0039200783 0.9999846
vn -0.0039200783 0.0039200783 0.9999846
vn -0.0039200783 -0.027452111 0.99961543
vn -0.7097961 -0.019609094 0.7041342
vn -0.7097961 0.0039200783 0.7043963
vn -0.57646394 -0.5764668 0.579116
vn -0.70710534 -0.7071082 -0
vn -0.7097961 -0.019609094 0.7041342
vn -0.9996234 -0.02744206 -0
vn -0.9996234 -0.02744206 -0
vn -0.7097961 0.0039200783 0.7043963
vn -0.9999895 0.0039200783 0.0023693505
vn -0.9999895 0.0039200783 -0.0023693505
vn -0.7097961 0.0039200783 -0.7043963
g ENV_FFABB_Roof_04_MO_0
f 3/3/3 2/2/2 1/1/1
f 4/4/4 3/3/3 1/1/1
f 4/4/4 1/1/1 5/5/5
f 1/1/1 6/6/6 5/5/5
f 4/4/4 7/7/7 3/3/3
f 7/7/7 8/8/8 3/3/3
f 9/9/9 8/8/8 7/7/7
f 10/10/10 9/9/9 7/7/7
f 11/11/11 7/7/7 4/4/4
f 7/7/7 11/11/11 10/10/10
f 5/5/5 11/11/11 4/4/4
f 11/11/11 12/12/12 10/10/10
f 13/13/13 12/12/12 11/11/11
f 14/14/14 12/12/12 13/13/13
f 5/5/5 6/6/6 15/15/15
f 15/15/15 6/6/6 16/16/16
f 17/17/17 11/11/11 5/5/5
f 17/17/17 13/13/13 11/11/11
f 18/18/18 15/15/15 16/16/16
f 16/16/16 19/19/19 18/18/18
f 19/19/19 20/20/20 18/18/18
f 18/18/18 20/20/20 21/21/21
f 22/22/22 18/18/18 21/21/21
f 18/18/18 22/22/22 15/15/15
f 23/23/23 5/5/5 15/15/15
f 23/23/23 17/17/17 5/5/5
f 22/22/22 21/21/21 24/24/24
f 21/21/21 25/25/25 24/24/24
f 22/22/22 26/26/26 15/15/15
f 22/22/22 24/24/24 26/26/26
f 15/15/15 26/26/26 23/23/23
f 24/24/24 27/27/27 26/26/26
f 17/17/17 23/23/23 28/28/28
f 26/26/26 28/28/28 23/23/23
f 26/26/26 27/27/27 29/29/29
f 28/28/28 26/26/26 29/29/29
f 29/29/29 27/27/27 30/30/30
f 31/31/31 17/17/17 28/28/28
f 13/13/13 17/17/17 31/31/31
f 32/32/32 31/31/31 28/28/28
f 29/29/29 32/32/32 28/28/28
f 33/33/33 29/29/29 30/30/30
f 30/30/30 34/34/34 33/33/33
f 34/34/34 35/35/35 33/33/33
f 33/33/33 35/35/35 36/36/36
f 33/33/33 37/37/37 29/29/29
f 37/37/37 33/33/33 36/36/36
f 37/37/37 32/32/32 29/29/29
f 37/37/37 36/36/36 38/38/38
f 37/37/37 38/38/38 32/32/32
f 36/36/36 39/39/39 38/38/38
f 38/38/38 40/40/40 32/32/32
f 31/31/31 32/32/32 41/41/41
f 32/32/32 40/40/40 41/41/41
f 41/41/41 13/13/13 31/31/31
f 41/41/41 40/40/40 42/42/42
f 43/43/43 13/13/13 41/41/41
f 43/43/43 14/14/14 13/13/13
f 44/44/44 41/41/41 42/42/42
f 44/44/44 43/43/43 41/41/41
f 42/42/42 45/45/45 44/44/44
f 45/45/45 46/46/46 44/44/44
f 44/44/44 46/46/46 47/47/47
f 43/43/43 44/44/44 47/47/47
f 43/43/43 47/47/47 14/14/14
f 47/47/47 48/48/48 14/14/14
