g ENV_Chevrons
v -2.8695297 0.017941713 -2.4446561
v -0.08960843 -0.018846512 -0.61248326
v -2.9119468 -0.018846512 -2.3846493
v -2.9407945 -0.018846512 -2.4208343
v -2.8977742 0.018544912 -2.4799366
v -2.9560723 -0.018846512 -2.4644575
v -0.08960843 0.018042326 -0.67249036
v -0.045784235 0.018042326 -0.657212
v -0.045683622 -0.018846512 -0.59720516
v -5.030632E-05 0.018042326 -0.646055
v -5.030632E-05 -0.018846512 -0.5860481
v 0.045683622 -0.018846512 -0.59720516
v 0.045784235 0.018042326 -0.657212
v 0.08960843 -0.018846512 -0.61248326
v 5.030632E-05 0.018042326 -1.5167091
v -0.045784235 0.018042326 -1.5234435
v -0.08960843 0.018042326 -1.5353042
v -2.8690271 0.017941713 -3.2345972
v 0.08960843 0.018042326 -0.67249036
v 0.045784235 0.018042326 -1.5234435
v 5.030632E-05 -0.018846512 -1.5757109
v -0.045784235 -0.018846512 -1.5825459
v -0.08960843 -0.018846512 -1.594306
v -2.9114442 -0.018846512 -3.2935991
v 0.045784235 -0.018846512 -1.5825459
v -2.894256 0.018846512 -3.228667
v -2.9375777 -0.018846512 -3.2877693
v 0.08960843 0.018042326 -1.5353042
v 0.08960843 -0.018846512 -1.594306
v 2.9114442 -0.018846512 -3.2935991
v -2.9136553 0.018042326 -2.524565
v -2.9136553 0.018042326 -3.2093682
v -2.9560723 -0.018846512 -3.2683702
v 2.8695297 0.018042326 -2.4446561
v 2.9119468 -0.018846512 -2.3846493
v 2.9407942 -0.018846512 -2.4208343
v 2.8690271 0.018042326 -3.2345972
v 2.8977742 0.018544912 -2.4799366
v 2.9560723 -0.018846512 -2.4644575
v 2.894256 0.018846512 -3.228667
v 2.9375777 -0.018846512 -3.2877693
v 2.9136555 0.017941713 -2.524565
v 2.9136555 0.017941713 -3.2093682
v 2.9560723 -0.018846512 -3.2683702
v -2.8695297 0.017941713 -0.46141052
v -0.08960843 -0.018846512 1.370863
v -2.9119468 -0.018846512 -0.40130305
v -2.9407945 -0.018846512 -0.43748808
v -2.8977742 0.018544912 -0.49659038
v -2.9560723 -0.018846512 -0.48121166
v -0.08960843 0.018042326 1.3107553
v -0.045784235 0.018042326 1.3260336
v -0.045683622 -0.018846512 1.3861413
v -5.030632E-05 0.018042326 1.3371906
v -5.030632E-05 -0.018846512 1.3972983
v 0.045683622 -0.018846512 1.3861413
v 0.045784235 0.018042326 1.3260336
v 0.08960843 -0.018846512 1.370863
v -5.030632E-05 0.018042326 0.46653676
v -0.045784235 0.018042326 0.45980215
v -0.08960843 0.018042326 0.44794154
v -2.8690271 0.017941713 -1.2513516
v 0.08960843 0.018042326 1.3107553
v 0.045784235 0.018042326 0.45980215
v -5.030632E-05 -0.018846512 0.40753484
v -0.045784235 -0.018846512 0.40080047
v -0.08960843 -0.018846512 0.38893962
v -2.9114442 -0.018846512 -1.3102529
v 0.045784235 -0.018846512 0.40080047
v -2.894256 0.018846512 -1.2454212
v -2.9375777 -0.018846512 -1.3045236
v 0.08960843 0.018042326 0.44794154
v 0.08960843 -0.018846512 0.38893962
v 2.9114442 -0.018846512 -1.3102529
v -2.9136553 0.018042326 -0.54121876
v -2.9136553 0.018042326 -1.2261224
v -2.9560723 -0.018846512 -1.2850239
v 2.8695297 0.018042326 -0.46141052
v 2.9119468 -0.018846512 -0.40130305
v 2.9407942 -0.018846512 -0.43748808
v 2.8690271 0.018042326 -1.2513516
v 2.8977742 0.018544912 -0.49659038
v 2.9560723 -0.018846512 -0.48121166
v 2.894256 0.018846512 -1.2454212
v 2.9375777 -0.018846512 -1.3045236
v 2.9136555 0.017941713 -0.54121876
v 2.9136555 0.017941713 -1.2261224
v 2.9560723 -0.018846512 -1.2850239
v -2.8695297 0.017941713 1.4348907
v -0.08960843 -0.018846512 3.2671638
v -2.9119468 -0.018846512 1.494998
v -2.9407945 -0.018846512 1.4588127
v -2.8977742 0.018544912 1.3997107
v -2.9560723 -0.018846512 1.4150891
v -0.08960843 0.018042326 3.2070565
v -0.045784235 0.018042326 3.222435
v -0.045683622 -0.018846512 3.282442
v -5.030632E-05 0.018042326 3.2334914
v -5.030632E-05 -0.018846512 3.2935991
v 0.045683622 -0.018846512 3.282442
v 0.045784235 0.018042326 3.222435
v 0.08960843 -0.018846512 3.2671638
v -5.030632E-05 0.018042326 2.3628378
v -0.045784235 0.018042326 2.356103
v -0.08960843 0.018042326 2.3442426
v -2.8690271 0.017941713 0.6450498
v 0.08960843 0.018042326 3.2070565
v 0.045784235 0.018042326 2.356103
v -5.030632E-05 -0.018846512 2.3039365
v -0.045784235 -0.018846512 2.2971015
v -0.08960843 -0.018846512 2.2853413
v -2.9114442 -0.018846512 0.5860481
v 0.045784235 -0.018846512 2.2971015
v -2.894256 0.018846512 0.6508796
v -2.9375777 -0.018846512 0.59187794
v 0.08960843 0.018042326 2.3442426
v 0.08960843 -0.018846512 2.2853413
v 2.9114442 -0.018846512 0.5860481
v -2.9136553 0.018042326 1.355082
v -2.9136553 0.018042326 0.670279
v -2.9560723 -0.018846512 0.6112771
v 2.8695297 0.018042326 1.4348907
v 2.9119468 -0.018846512 1.494998
v 2.9407942 -0.018846512 1.4588127
v 2.8690271 0.018042326 0.6450498
v 2.8977742 0.018544912 1.3997107
v 2.9560723 -0.018846512 1.4150891
v 2.894256 0.018846512 0.6508796
v 2.9375777 -0.018846512 0.59187794
v 2.9136555 0.017941713 1.355082
v 2.9136555 0.017941713 0.670279
v 2.9560723 -0.018846512 0.6112771
vt 0.06451613 0.12903225
vt 0.48680353 0.40664712
vt 0.05767351 0.13782991
vt 0.05376344 0.13294233
vt 0.059628543 0.12414467
vt 0.05083089 0.1260997
vt 0.48680353 0.39784947
vt 0.49266863 0.40078202
vt 0.49266863 0.40957966
vt 0.49951124 0.40175954
vt 0.49951124 0.41055718
vt 0.5073314 0.40957966
vt 0.5073314 0.40078202
vt 0.51319647 0.40664712
vt 0.50048876 0.26979473
vt 0.49266863 0.26881722
vt 0.48680353 0.26686218
vt 0.06451613 0.008797654
vt 0.51319647 0.39784947
vt 0.5073314 0.26881722
vt 0.50048876 0.26099706
vt 0.49266863 0.26001954
vt 0.48680353 0.2580645
vt 0.05767351 0
vt 0.5073314 0.26001954
vt 0.060606062 0.009775171
vt 0.05376344 0.0009775171
vt 0.51319647 0.26686218
vt 0.51319647 0.2580645
vt 0.9423265 0
vt 0.05767351 0.11730205
vt 0.05767351 0.012707722
vt 0.05083089 0.0039100684
vt 0.9354839 0.12903225
vt 0.9423265 0.13782991
vt 0.94623655 0.13294233
vt 0.9354839 0.008797654
vt 0.94037145 0.12414467
vt 0.9491691 0.1260997
vt 0.93939394 0.009775171
vt 0.94623655 0.0009775171
vt 0.9423265 0.11730205
vt 0.9423265 0.012707722
vt 0.9491691 0.0039100684
vt 0.06451613 0.43010753
vt 0.48680353 0.70772237
vt 0.05767351 0.43890518
vt 0.05376344 0.4340176
vt 0.059628543 0.42521995
vt 0.05083089 0.427175
vt 0.48680353 0.6989247
vt 0.49266863 0.70185727
vt 0.49266863 0.7106549
vt 0.49951124 0.7028348
vt 0.49951124 0.71163243
vt 0.5073314 0.7106549
vt 0.5073314 0.70185727
vt 0.51319647 0.70772237
vt 0.49951124 0.57087
vt 0.49266863 0.56989247
vt 0.48680353 0.56793743
vt 0.06451613 0.30987293
vt 0.51319647 0.6989247
vt 0.5073314 0.56989247
vt 0.49951124 0.56207234
vt 0.49266863 0.5610948
vt 0.48680353 0.5591398
vt 0.05767351 0.30107528
vt 0.5073314 0.5610948
vt 0.060606062 0.31085044
vt 0.05376344 0.3020528
vt 0.51319647 0.56793743
vt 0.51319647 0.5591398
vt 0.9423265 0.30107528
vt 0.05767351 0.4183773
vt 0.05767351 0.313783
vt 0.05083089 0.30498534
vt 0.9354839 0.43010753
vt 0.9423265 0.43890518
vt 0.94623655 0.4340176
vt 0.9354839 0.30987293
vt 0.94037145 0.42521995
vt 0.9491691 0.427175
vt 0.93939394 0.31085044
vt 0.94623655 0.3020528
vt 0.9423265 0.4183773
vt 0.9423265 0.313783
vt 0.9491691 0.30498534
vt 0.06451613 0.71847504
vt 0.48680353 0.99608994
vt 0.05767351 0.72727275
vt 0.05376344 0.72140765
vt 0.059628543 0.71260995
vt 0.05083089 0.714565
vt 0.48680353 0.9872923
vt 0.49266863 0.9892473
vt 0.49266863 0.99804497
vt 0.49951124 0.99120235
vt 0.49951124 1
vt 0.5073314 0.99804497
vt 0.5073314 0.9892473
vt 0.51319647 0.99608994
vt 0.49951124 0.85923755
vt 0.49266863 0.85826004
vt 0.48680353 0.856305
vt 0.06451613 0.5982405
vt 0.51319647 0.9872923
vt 0.5073314 0.85826004
vt 0.49951124 0.8494624
vt 0.49266863 0.8484849
vt 0.48680353 0.84652984
vt 0.05767351 0.5894428
vt 0.5073314 0.8484849
vt 0.060606062 0.599218
vt 0.05376344 0.5894428
vt 0.51319647 0.856305
vt 0.51319647 0.84652984
vt 0.9423265 0.5894428
vt 0.05767351 0.70576733
vt 0.05767351 0.60215056
vt 0.05083089 0.59237534
vt 0.9354839 0.71847504
vt 0.9423265 0.72727275
vt 0.94623655 0.72140765
vt 0.9354839 0.5982405
vt 0.94037145 0.71260995
vt 0.9491691 0.714565
vt 0.93939394 0.599218
vt 0.94623655 0.5894428
vt 0.9423265 0.70576733
vt 0.9423265 0.60215056
vt 0.9491691 0.59237534
vn -0 1 -0
vn -0 1 -0
vn -0 1 -0
vn -0 1 -0
vn -0 1 -0
vn -0 1 -0
vn -0 1 -0
vn -0 1 -0
vn -0 1 -0
vn -0 1 -0
vn -0 1 -0
vn -0 1 -0
vn -0 1 -0
vn -0 1 -0
vn -0 1 -0
vn -0 1 -0
vn -0 1 -0
vn -0 1 -0
vn -0 1 -0
vn -0 1 -0
vn -0 1 -0
vn -0 1 -0
vn -0 1 -0
vn -0 1 -0
vn -0 1 -0
vn -0 1 -0
vn -0 1 -0
vn -0 1 -0
vn -0 1 -0
vn -0 1 -0
vn -0 1 -0
vn -0 1 -0
vn -0 1 -0
vn -0 1 -0
vn -0 1 -0
vn -0 1 -0
vn -0 1 -0
vn -0 1 -0
vn -0 1 -0
vn -0 1 -0
vn -0 1 -0
vn -0 1 -0
vn -0 1 -0
vn -0 1 -0
vn -0 1 -0
vn -0 1 -0
vn -0 1 -0
vn -0 1 -0
vn -0 1 -0
vn -0 1 -0
vn -0 1 -0
vn -0 1 -0
vn -0 1 -0
vn -0 1 -0
vn -0 1 -0
vn -0 1 -0
vn -0 1 -0
vn -0 1 -0
vn -0 1 -0
vn -0 1 -0
vn -0 1 -0
vn -0 1 -0
vn -0 1 -0
vn -0 1 -0
vn -0 1 -0
vn -0 1 -0
vn -0 1 -0
vn -0 1 -0
vn -0 1 -0
vn -0 1 -0
vn -0 1 -0
vn -0 1 -0
vn -0 1 -0
vn -0 1 -0
vn -0 1 -0
vn -0 1 -0
vn -0 1 -0
vn -0 1 -0
vn -0 1 -0
vn -0 1 -0
vn -0 1 -0
vn -0 1 -0
vn -0 1 -0
vn -0 1 -0
vn -0 1 -0
vn -0 1 -0
vn -0 1 -0
vn -0 1 -0
vn -0 1 -0
vn -0 1 -0
vn -0 1 -0
vn -0 1 -0
vn -0 1 -0
vn -0 1 -0
vn -0 1 -0
vn -0 1 -0
vn -0 1 -0
vn -0 1 -0
vn -0 1 -0
vn -0 1 -0
vn -0 1 -0
vn -0 1 -0
vn -0 1 -0
vn -0 1 -0
vn -0 1 -0
vn -0 1 -0
vn -0 1 -0
vn -0 1 -0
vn -0 1 -0
vn -0 1 -0
vn -0 1 -0
vn -0 1 -0
vn -0 1 -0
vn -0 1 -0
vn -0 1 -0
vn -0 1 -0
vn -0 1 -0
vn -0 1 -0
vn -0 1 -0
vn -0 1 -0
vn -0 1 -0
vn -0 1 -0
vn -0 1 -0
vn -0 1 -0
vn -0 1 -0
vn -0 1 -0
vn -0 1 -0
vn -0 1 -0
vn -0 1 -0
vn -0 1 -0
vn -0 1 -0
vn -0 1 -0
g ENV_Chevrons_0
f 3/3/3 2/2/2 1/1/1
f 3/3/3 1/1/1 4/4/4
f 1/1/1 5/5/5 4/4/4
f 4/4/4 5/5/5 6/6/6
f 2/2/2 7/7/7 1/1/1
f 8/8/8 7/7/7 2/2/2
f 9/9/9 8/8/8 2/2/2
f 10/10/10 8/8/8 9/9/9
f 11/11/11 10/10/10 9/9/9
f 11/11/11 12/12/12 10/10/10
f 12/12/12 13/13/13 10/10/10
f 12/12/12 14/14/14 13/13/13
f 10/10/10 15/15/15 8/8/8
f 10/10/10 13/13/13 15/15/15
f 8/8/8 16/16/16 7/7/7
f 15/15/15 16/16/16 8/8/8
f 7/7/7 17/17/17 1/1/1
f 16/16/16 17/17/17 7/7/7
f 1/1/1 18/18/18 5/5/5
f 17/17/17 18/18/18 1/1/1
f 14/14/14 19/19/19 13/13/13
f 13/13/13 20/20/20 15/15/15
f 13/13/13 19/19/19 20/20/20
f 16/16/16 15/15/15 21/21/21
f 21/21/21 15/15/15 20/20/20
f 22/22/22 16/16/16 21/21/21
f 17/17/17 16/16/16 22/22/22
f 23/23/23 17/17/17 22/22/22
f 23/23/23 24/24/24 17/17/17
f 24/24/24 18/18/18 17/17/17
f 25/25/25 21/21/21 20/20/20
f 26/26/26 18/18/18 24/24/24
f 18/18/18 26/26/26 5/5/5
f 27/27/27 26/26/26 24/24/24
f 25/25/25 20/20/20 28/28/28
f 19/19/19 28/28/28 20/20/20
f 29/29/29 25/25/25 28/28/28
f 30/30/30 29/29/29 28/28/28
f 5/5/5 26/26/26 31/31/31
f 5/5/5 31/31/31 6/6/6
f 32/32/32 26/26/26 27/27/27
f 26/26/26 32/32/32 31/31/31
f 6/6/6 31/31/31 32/32/32
f 33/33/33 32/32/32 27/27/27
f 33/33/33 6/6/6 32/32/32
f 19/19/19 34/34/34 28/28/28
f 19/19/19 14/14/14 34/34/34
f 14/14/14 35/35/35 34/34/34
f 35/35/35 36/36/36 34/34/34
f 37/37/37 30/30/30 28/28/28
f 34/34/34 37/37/37 28/28/28
f 36/36/36 38/38/38 34/34/34
f 34/34/34 38/38/38 37/37/37
f 36/36/36 39/39/39 38/38/38
f 30/30/30 37/37/37 40/40/40
f 38/38/38 40/40/40 37/37/37
f 41/41/41 30/30/30 40/40/40
f 39/39/39 42/42/42 38/38/38
f 38/38/38 42/42/42 40/40/40
f 41/41/41 40/40/40 43/43/43
f 42/42/42 43/43/43 40/40/40
f 42/42/42 39/39/39 43/43/43
f 44/44/44 41/41/41 43/43/43
f 39/39/39 44/44/44 43/43/43
f 47/47/47 46/46/46 45/45/45
f 47/47/47 45/45/45 48/48/48
f 45/45/45 49/49/49 48/48/48
f 48/48/48 49/49/49 50/50/50
f 46/46/46 51/51/51 45/45/45
f 52/52/52 51/51/51 46/46/46
f 53/53/53 52/52/52 46/46/46
f 54/54/54 52/52/52 53/53/53
f 55/55/55 54/54/54 53/53/53
f 55/55/55 56/56/56 54/54/54
f 56/56/56 57/57/57 54/54/54
f 56/56/56 58/58/58 57/57/57
f 54/54/54 59/59/59 52/52/52
f 54/54/54 57/57/57 59/59/59
f 52/52/52 60/60/60 51/51/51
f 59/59/59 60/60/60 52/52/52
f 51/51/51 61/61/61 45/45/45
f 60/60/60 61/61/61 51/51/51
f 45/45/45 62/62/62 49/49/49
f 61/61/61 62/62/62 45/45/45
f 58/58/58 63/63/63 57/57/57
f 57/57/57 64/64/64 59/59/59
f 57/57/57 63/63/63 64/64/64
f 60/60/60 59/59/59 65/65/65
f 65/65/65 59/59/59 64/64/64
f 66/66/66 60/60/60 65/65/65
f 61/61/61 60/60/60 66/66/66
f 67/67/67 61/61/61 66/66/66
f 67/67/67 68/68/68 61/61/61
f 68/68/68 62/62/62 61/61/61
f 69/69/69 65/65/65 64/64/64
f 70/70/70 62/62/62 68/68/68
f 62/62/62 70/70/70 49/49/49
f 71/71/71 70/70/70 68/68/68
f 69/69/69 64/64/64 72/72/72
f 63/63/63 72/72/72 64/64/64
f 73/73/73 69/69/69 72/72/72
f 74/74/74 73/73/73 72/72/72
f 49/49/49 70/70/70 75/75/75
f 49/49/49 75/75/75 50/50/50
f 76/76/76 70/70/70 71/71/71
f 70/70/70 76/76/76 75/75/75
f 50/50/50 75/75/75 76/76/76
f 77/77/77 76/76/76 71/71/71
f 77/77/77 50/50/50 76/76/76
f 63/63/63 78/78/78 72/72/72
f 63/63/63 58/58/58 78/78/78
f 58/58/58 79/79/79 78/78/78
f 79/79/79 80/80/80 78/78/78
f 81/81/81 74/74/74 72/72/72
f 78/78/78 81/81/81 72/72/72
f 80/80/80 82/82/82 78/78/78
f 78/78/78 82/82/82 81/81/81
f 80/80/80 83/83/83 82/82/82
f 74/74/74 81/81/81 84/84/84
f 82/82/82 84/84/84 81/81/81
f 85/85/85 74/74/74 84/84/84
f 83/83/83 86/86/86 82/82/82
f 82/82/82 86/86/86 84/84/84
f 85/85/85 84/84/84 87/87/87
f 86/86/86 87/87/87 84/84/84
f 86/86/86 83/83/83 87/87/87
f 88/88/88 85/85/85 87/87/87
f 83/83/83 88/88/88 87/87/87
f 91/91/91 90/90/90 89/89/89
f 91/91/91 89/89/89 92/92/92
f 89/89/89 93/93/93 92/92/92
f 92/92/92 93/93/93 94/94/94
f 90/90/90 95/95/95 89/89/89
f 96/96/96 95/95/95 90/90/90
f 97/97/97 96/96/96 90/90/90
f 98/98/98 96/96/96 97/97/97
f 99/99/99 98/98/98 97/97/97
f 99/99/99 100/100/100 98/98/98
f 100/100/100 101/101/101 98/98/98
f 100/100/100 102/102/102 101/101/101
f 98/98/98 103/103/103 96/96/96
f 98/98/98 101/101/101 103/103/103
f 96/96/96 104/104/104 95/95/95
f 103/103/103 104/104/104 96/96/96
f 95/95/95 105/105/105 89/89/89
f 104/104/104 105/105/105 95/95/95
f 89/89/89 106/106/106 93/93/93
f 105/105/105 106/106/106 89/89/89
f 102/102/102 107/107/107 101/101/101
f 101/101/101 108/108/108 103/103/103
f 101/101/101 107/107/107 108/108/108
f 104/104/104 103/103/103 109/109/109
f 109/109/109 103/103/103 108/108/108
f 110/110/110 104/104/104 109/109/109
f 105/105/105 104/104/104 110/110/110
f 111/111/111 105/105/105 110/110/110
f 111/111/111 112/112/112 105/105/105
f 112/112/112 106/106/106 105/105/105
f 113/113/113 109/109/109 108/108/108
f 114/114/114 106/106/106 112/112/112
f 106/106/106 114/114/114 93/93/93
f 115/115/115 114/114/114 112/112/112
f 113/113/113 108/108/108 116/116/116
f 107/107/107 116/116/116 108/108/108
f 117/117/117 113/113/113 116/116/116
f 118/118/118 117/117/117 116/116/116
f 93/93/93 114/114/114 119/119/119
f 93/93/93 119/119/119 94/94/94
f 120/120/120 114/114/114 115/115/115
f 114/114/114 120/120/120 119/119/119
f 94/94/94 119/119/119 120/120/120
f 121/121/121 120/120/120 115/115/115
f 121/121/121 94/94/94 120/120/120
f 107/107/107 122/122/122 116/116/116
f 107/107/107 102/102/102 122/122/122
f 102/102/102 123/123/123 122/122/122
f 123/123/123 124/124/124 122/122/122
f 125/125/125 118/118/118 116/116/116
f 122/122/122 125/125/125 116/116/116
f 124/124/124 126/126/126 122/122/122
f 122/122/122 126/126/126 125/125/125
f 124/124/124 127/127/127 126/126/126
f 118/118/118 125/125/125 128/128/128
f 126/126/126 128/128/128 125/125/125
f 129/129/129 118/118/118 128/128/128
f 127/127/127 130/130/130 126/126/126
f 126/126/126 130/130/130 128/128/128
f 129/129/129 128/128/128 131/131/131
f 130/130/130 131/131/131 128/128/128
f 130/130/130 127/127/127 131/131/131
f 132/132/132 129/129/129 131/131/131
f 127/127/127 132/132/132 131/131/131
