g ENV_FFABB_PortalWedge_MO
v 0.4957217 1.2821172 5.1259995E-06
v 0.70145404 1.1520547 5.1259995E-06
v 0.28405225 1.2479697 5.1259995E-06
v 0.85183525 0.919034 5.1259995E-06
v 0.13009411 1.1077296 5.1259995E-06
v 0.9064489 0.560081 5.1259995E-06
v 0.07522231 0.79892826 5.1259995E-06
v 0.9098784 -0.21800697 5.1259995E-06
v 0.0700227 0.064796686 5.1259995E-06
v 0.9101365 -0.28054905 -0.022784352
v 0.0695802 0.013096213 -0.022747517
v 0.91024715 -0.30643612 -0.07772988
v 0.0693959 -0.00829196 -0.077692986
v 0.9101365 -0.3063624 -0.5273615
v 0.069432735 -0.00829196 -0.5273615
v 0.8525728 -0.27203065 -0.77133447
v 0.12876654 -0.015372276 -0.7712976
v 0.70163846 -0.12419391 -0.94236636
v 0.28401542 -0.033921003 -0.94225574
v 0.4957217 -0.028647661 -1.0048715
v 0.9101365 -0.3063624 -0.5273615
v 0.91024715 -0.30643612 -0.07772988
v 0.95796496 -0.30964434 -0.11644989
v 0.9101365 -0.28054905 -0.022784352
v 0.95785433 -0.30949688 -0.5309385
v 0.95792806 -0.2798115 -0.049777746
v 0.9098784 -0.21800697 5.1259995E-06
v 0.97773063 -0.25989836 -0.17880756
v 0.97773063 -0.25986147 -0.5256283
v 0.97773063 -0.22560346 -0.1057927
v 0.95781744 -0.20775539 -0.022120595
v 0.97773063 -0.1426689 -0.07525921
v 0.95663744 0.53205514 -0.021383047
v 0.9064489 0.560081 5.1259995E-06
v 0.97773063 0.49565828 -0.07219851
v 0.97773063 -0.11969501 -0.50682145
v 0.97773063 -0.22560346 -0.1057927
v 0.97773063 0.47707272 -0.10490763
v 0.9131604 0.89488006 -0.19145614
v 0.9131604 0.91051567 -0.074816644
v 0.7367446 1.1647402 -0.25484633
v 0.95663744 0.53205514 -0.021383047
v 0.89490664 0.9188496 -0.022268057
v 0.85183525 0.919034 5.1259995E-06
v 0.7367446 1.1897422 -0.07507479
v 0.4957217 1.3141626 -0.27804142
v 0.7261243 1.1825515 -0.02263689
v 0.70145404 1.1520547 5.1259995E-06
v 0.4957217 1.3429629 -0.07500106
v 0.4957217 1.3287288 -0.022710562
v 0.4957217 1.2821172 5.1259995E-06
v 0.24783981 1.303321 -0.07507479
v 0.2587552 1.2908567 -0.02263689
v 0.28405225 1.2479697 5.1259995E-06
v 0.08536327 1.1336166 -0.022268057
v 0.13009411 1.1077296 5.1259995E-06
v 0.06640887 1.1384107 -0.074816644
v 0.24783981 1.2776183 -0.25484633
v 0.06640887 1.121632 -0.19145614
v -5.1259995E-06 0.7677678 -0.07219851
v -5.1259995E-06 0.75017786 -0.10490763
v 0.022268057 0.79612565 -0.021383047
v 0.07522231 0.79892826 5.1259995E-06
v -5.1259995E-06 0.09765339 -0.1057927
v -5.1259995E-06 0.16694379 -0.07525921
v 0.022268057 0.79612565 -0.021383047
v 0.020571709 0.10082471 -0.022120595
v 0.0700227 0.064796686 5.1259995E-06
v 0.0695802 0.013096213 -0.022747517
v 0.020387411 0.04230213 -0.04974079
v -5.1259995E-06 0.09765339 -0.1057927
v 0.0693959 -0.00829196 -0.077692986
v 0.020350456 0.018111348 -0.11637616
v -5.1259995E-06 0.06999624 -0.17877072
v 0.020424247 0.018185139 -0.5309385
v 0.069432735 -0.00829196 -0.5273615
v -5.1259995E-06 0.07003307 -0.5256283
v -5.1259995E-06 0.19157708 -0.50682145
v 0.06640887 0.061994076 -0.8006142
v 0.020424247 0.018185139 -0.5309385
v 0.084920764 0.010625482 -0.7958572
v 0.12876654 -0.015372276 -0.7712976
v 0.25868142 -0.009840846 -0.9869497
v 0.28401542 -0.033921003 -0.94225574
v 0.24783981 0.040605903 -1.000557
v 0.06640887 0.27370036 -0.77221954
v 0.24783981 0.287529 -0.96648335
v 0.4957217 0.04222846 -1.0737194
v 0.4957217 0.29656363 -1.0302423
v 0.4957217 -0.007296324 -1.056867
v 0.4957217 -0.028647661 -1.0048715
v 0.7262349 -0.115380466 -0.9869865
v 0.70163846 -0.12419391 -0.94236636
v 0.7367446 -0.06655645 -1.000557
v 0.7367446 0.19563341 -0.94933593
v 0.9131604 0.021909595 -0.77221954
v 0.9131604 -0.22379655 -0.8006142
v 0.8951648 -0.27258378 -0.7958572
v 0.8525728 -0.27203065 -0.77133447
v 0.95785433 -0.30949688 -0.5309385
v 0.9131604 0.021909595 -0.77221954
v 0.97773063 0.09606767 -0.43410158
v 0.9131604 0.33299732 -0.6822047
v 0.7367446 0.19563341 -0.94933593
v 0.97773063 0.26182628 -0.33095878
v 0.7367446 0.49381447 -0.86382
v 0.97773063 0.38089955 -0.21420872
v 0.9131604 0.5940809 -0.5452464
v 0.9131604 0.7882341 -0.3756528
v 0.9131604 0.89488006 -0.19145614
v 0.7367446 0.79605186 -0.70215476
v 0.7367446 1.0234305 -0.493841
v 0.7367446 1.1647402 -0.25484633
v 0.4957217 0.6217011 -0.9302709
v 0.4957217 0.9538821 -0.75957096
v 0.4957217 1.1894473 -0.5370968
v 0.24783981 1.2776183 -0.25484633
v 0.24783981 1.1617533 -0.493841
v 0.06640887 1.121632 -0.19145614
v 0.24783981 0.6292976 -0.86382
v 0.24783981 0.287529 -0.96648335
v 0.24783981 0.94145477 -0.70215476
v 0.06640887 1.0318753 -0.3756528
v 0.06640887 0.5861156 -0.6822047
v 0.06640887 0.27370036 -0.77221954
v 0.06640887 0.8560126 -0.5452464
v -5.1259995E-06 0.67259026 -0.21420872
v -5.1259995E-06 0.5689682 -0.33095878
v -5.1259995E-06 0.40066516 -0.43410158
vt 0.0029421067 0.0024256848
vt 0.0029421067 0.0024256848
vt 0.0029421067 0.0024256848
vt 0.0029421067 0.0019092631
vt 0.0029421067 0.0024256848
vt 0.0024256848 0.0019092631
vt 0.0024256848 0.0024256848
vt 0.0019092631 0.0019092631
vt 0.0019092631 0.0024256848
vt 0.0019092631 0.0019092631
vt 0.0019092631 0.0024256848
vt 0.0019092631 0.0019092631
vt 0.0019092631 0.0024256848
vt 0.0019092631 0.0019092631
vt 0.0019092631 0.0024256848
vt 0.0013928413 0.0024256848
vt 0.0019092631 0.0024256848
vt 0.0013928413 0.0024256848
vt 0.0013928413 0.0024256848
vt 0.0013928413 0.0024256848
vt 0.0013928413 0.0029421067
vt 0.0013928413 0.0029421067
vt 0.0013928413 0.0029421067
vt 0.0013928413 0.0029421067
vt 0.0019092631 0.0029421067
vt 0.0013928413 0.0029421067
vt 0.0013928413 0.0029421067
vt 0.0013928413 0.0029421067
vt 0.0019092631 0.0029421067
vt 0.0013928413 0.0029421067
vt 0.0013928413 0.0029421067
vt 0.0013928413 0.0029421067
vt 0.0019092631 0.0034585283
vt 0.0019092631 0.0034585283
vt 0.0019092631 0.0034585283
vt 0.0019092631 0.0029421067
vt 0.0013928413 0.0029421067
vt 0.0019092631 0.0034585283
vt 0.0019092631 0.0034585283
vt 0.0019092631 0.00397495
vt 0.0024256848 0.00397495
vt 0.0019092631 0.0034585283
vt 0.0019092631 0.00397495
vt 0.0019092631 0.00397495
vt 0.0024256848 0.00397495
vt 0.0024256848 0.00397495
vt 0.0019092631 0.00397495
vt 0.0019092631 0.00397495
vt 0.0024256848 0.00397495
vt 0.0024256848 0.00397495
vt 0.0024256848 0.00397495
vt 0.0024256848 0.00397495
vt 0.0024256848 0.00397495
vt 0.0024256848 0.00397495
vt 0.0029421067 0.00397495
vt 0.0029421067 0.00397495
vt 0.0029421067 0.00397495
vt 0.0024256848 0.00397495
vt 0.0024256848 0.0034585283
vt 0.0029421067 0.0034585283
vt 0.0029421067 0.0034585283
vt 0.0029421067 0.0034585283
vt 0.0029421067 0.0034585283
vt 0.0029421067 0.0029421067
vt 0.0029421067 0.0029421067
vt 0.0029421067 0.0034585283
vt 0.0029421067 0.0029421067
vt 0.0029421067 0.0029421067
vt 0.0029421067 0.0029421067
vt 0.0029421067 0.0029421067
vt 0.0029421067 0.0029421067
vt 0.0029421067 0.0029421067
vt 0.0029421067 0.0029421067
vt 0.0029421067 0.0029421067
vt 0.0029421067 0.0029421067
vt 0.0029421067 0.0029421067
vt 0.0029421067 0.0029421067
vt 0.0029421067 0.0029421067
vt 0.0024256848 0.0029421067
vt 0.0029421067 0.0029421067
vt 0.0024256848 0.0029421067
vt 0.0024256848 0.0029421067
vt 0.0024256848 0.0029421067
vt 0.0024256848 0.0029421067
vt 0.0024256848 0.0029421067
vt 0.0024256848 0.0029421067
vt 0.0024256848 0.0029421067
vt 0.0024256848 0.0029421067
vt 0.0024256848 0.0029421067
vt 0.0024256848 0.0029421067
vt 0.0024256848 0.0029421067
vt 0.0019092631 0.0029421067
vt 0.0019092631 0.0029421067
vt 0.0019092631 0.0029421067
vt 0.0019092631 0.0029421067
vt 0.0019092631 0.0029421067
vt 0.0019092631 0.0029421067
vt 0.0019092631 0.0029421067
vt 0.0019092631 0.0029421067
vt 0.0019092631 0.0029421067
vt 0.0019092631 0.0029421067
vt 0.0019092631 0.0029421067
vt 0.0019092631 0.0034585283
vt 0.0019092631 0.0029421067
vt 0.0019092631 0.0034585283
vt 0.0019092631 0.0034585283
vt 0.0019092631 0.0034585283
vt 0.0019092631 0.0034585283
vt 0.0019092631 0.0034585283
vt 0.0019092631 0.0034585283
vt 0.0019092631 0.0034585283
vt 0.0024256848 0.0034585283
vt 0.0024256848 0.00397495
vt 0.0024256848 0.0034585283
vt 0.0024256848 0.0034585283
vt 0.0024256848 0.0034585283
vt 0.0024256848 0.00397495
vt 0.0024256848 0.0034585283
vt 0.0024256848 0.0034585283
vt 0.0024256848 0.0034585283
vt 0.0024256848 0.0029421067
vt 0.0024256848 0.0034585283
vt 0.0024256848 0.0034585283
vt 0.0024256848 0.0034585283
vt 0.0024256848 0.0029421067
vt 0.0024256848 0.0034585283
vt 0.0029421067 0.0034585283
vt 0.0029421067 0.0034585283
vt 0.0029421067 0.0029421067
vn 0.058765948 0.23104858 0.97116584
vn 0.050933123 0.050893664 0.99740446
vn -0.02739513 0.05872643 0.99789816
vn 0.035267472 0.011729479 0.99930906
vn -0.035228014 0.019562364 0.9991878
vn 0.019601822 0.0038967133 0.99980026
vn -0.02739513 0.0038967133 0.9996171
vn 0.011768997 -0.043100297 0.99900144
vn -0.019562364 -0.019601822 0.9996165
vn -0.20755017 -0.7167233 0.6657557
vn -0.24671423 -0.6383951 0.7290979
vn -0.3250425 -0.94387525 0.05871011
vn -0.34070814 -0.9360424 0.08799195
vn -0.31720972 -0.94387525 -0.09207339
vn -0.34070814 -0.9360424 -0.08799195
vn -0.31720972 -0.94387525 -0.09207339
vn -0.33287537 -0.9360424 -0.114099115
vn -0.27804554 -0.8890455 -0.3637153
vn -0.27021277 -0.8968783 -0.35013485
vn -0.19188452 -0.84988135 -0.49079728
vn -0.31720972 -0.94387525 -0.09207339
vn -0.3250425 -0.94387525 0.05871011
vn 0.36424613 -0.9282096 0.07584015
vn -0.20755017 -0.7167233 0.6657557
vn 0.5600668 -0.81855005 -0.1276755
vn 0.78721875 -0.43474156 0.43736303
vn 0.011768997 -0.043100297 0.99900144
vn 0.9905639 -0.13705154 -0
vn 0.9830394 -0.097930074 -0.155059
vn 0.998705 -0.035267472 0.036667116
vn 0.6383951 -0.027434647 0.76921976
vn 0.97520655 -0.0039361715 0.2212616
vn 0.7167233 0.050893664 0.69549805
vn 0.019601822 0.0038967133 0.99980026
vn 0.9830394 0.066559315 0.17089017
vn 0.9908722 0.02739513 -0.13199155
vn 0.998705 -0.035267472 0.036667116
vn 0.9908722 0.097890615 -0.09268059
vn 0.9203768 0.36420667 -0.14233796
vn 0.9282096 0.37203944 0.0036904826
vn 0.685392 0.6775197 -0.2668424
vn 0.7167233 0.050893664 0.69549805
vn 0.7715531 0.28587842 0.5683127
vn 0.035267472 0.011729479 0.99930906
vn 0.6932248 0.71668386 -0.07618166
vn 0.21542245 0.9203373 -0.32645428
vn 0.6070638 0.5991914 0.5219609
vn 0.050933123 0.050893664 0.99740446
vn 0.21542245 0.97516704 -0.051404793
vn 0.18409115 0.81067777 0.55579853
vn 0.058765948 0.23104858 0.97116584
vn -0.39553797 0.91250443 -0.10433292
vn -0.34070814 0.72451663 0.5991608
vn -0.02739513 0.05872643 0.99789816
vn -0.6931853 0.34070814 0.6351472
vn -0.035228014 0.019562364 0.9991878
vn -0.8655075 0.49736464 0.059373625
vn -0.40337074 0.8655075 -0.29696614
vn -0.8655075 0.47386622 -0.16231947
vn -0.97516704 0.082224965 0.20564122
vn -0.9908327 0.10572338 -0.08410203
vn -0.7010182 0.05872643 0.71072125
vn -0.02739513 0.0038967133 0.9996171
vn -0.9986656 -0.035267472 0.037726317
vn -0.9673343 -0.0039361715 0.25347373
vn -0.7010182 0.05872643 0.71072125
vn -0.5991914 -0.019601822 0.8003658
vn -0.019562364 -0.019601822 0.9996165
vn -0.24671423 -0.6383951 0.7290979
vn -0.84200907 -0.40341026 0.35816327
vn -0.9986656 -0.035267472 0.037726317
vn -0.34070814 -0.9360424 0.08799195
vn -0.6696869 -0.74022174 0.059926454
vn -0.9894715 -0.14472793 -0
vn -0.74801517 -0.6540607 -0.11259609
vn -0.34070814 -0.9360424 -0.08799195
vn -0.9829999 -0.097930074 -0.15530884
vn -0.9908327 0.035228014 -0.13042074
vn -0.8655075 -0.011768997 -0.5007577
vn -0.74801517 -0.6540607 -0.11259609
vn -0.708851 -0.6227294 -0.3312678
vn -0.33287537 -0.9360424 -0.114099115
vn -0.42686927 -0.6383951 -0.6404954
vn -0.27021277 -0.8968783 -0.35013485
vn -0.5051975 0.04306078 -0.86192876
vn -0.8655075 0.113556266 -0.48785427
vn -0.49736464 0.19971728 -0.8442401
vn 0.0744316 0.10572338 -0.991606
vn 0.0744316 0.23888147 -0.9681919
vn -0.113556266 -0.5992309 -0.7924817
vn -0.19188452 -0.84988135 -0.49079728
vn 0.12926137 -0.64622784 -0.75211775
vn -0.27804554 -0.8890455 -0.3637153
vn 0.5992309 0.066559315 -0.7978046
vn 0.5992309 0.18405163 -0.7791324
vn 0.8890455 0.097890615 -0.44723096
vn 0.88121265 -0.027434647 -0.4719233
vn 0.41124308 -0.7637203 -0.4976047
vn -0.31720972 -0.94387525 -0.09207339
vn 0.5600668 -0.81855005 -0.1276755
vn 0.8890455 0.097890615 -0.44723096
vn 0.9908722 0.050893664 -0.12482828
vn 0.8968783 0.16055322 -0.41210678
vn 0.5992309 0.18405163 -0.7791324
vn 0.9908722 0.066559315 -0.117226794
vn 0.61489654 0.2937112 -0.73187155
vn 0.9908722 0.082224965 -0.10682377
vn 0.91254395 0.23104858 -0.3374612
vn 0.9203768 0.30154407 -0.24895336
vn 0.9203768 0.36420667 -0.14233796
vn 0.64622784 0.42686927 -0.63259166
vn 0.685392 0.5678601 -0.4558209
vn 0.685392 0.6775197 -0.2668424
vn 0.1057629 0.37987232 -0.91897297
vn 0.16059268 0.5678601 -0.8073072
vn 0.1997568 0.77934647 -0.5938992
vn -0.40337074 0.8655075 -0.29696614
vn -0.42686927 0.72451663 -0.54116386
vn -0.8655075 0.47386622 -0.16231947
vn -0.481699 0.33287537 -0.8106541
vn -0.49736464 0.19971728 -0.8442401
vn -0.4503677 0.5130303 -0.7307318
vn -0.87334037 0.3877051 -0.29489213
vn -0.8655075 0.19188452 -0.46268472
vn -0.8655075 0.113556266 -0.48785427
vn -0.87334037 0.28587842 -0.39439848
vn -0.9908327 0.09005773 -0.10069851
vn -0.9908327 0.07439208 -0.11276703
vn -0.9908327 0.05872643 -0.12166261
g ENV_FFABB_PortalWedge_MO_0
f 3/3/3 2/2/2 1/1/1
f 4/4/4 2/2/2 3/3/3
f 5/5/5 4/4/4 3/3/3
f 6/6/6 4/4/4 5/5/5
f 7/7/7 6/6/6 5/5/5
f 8/8/8 6/6/6 7/7/7
f 9/9/9 8/8/8 7/7/7
f 10/10/10 8/8/8 9/9/9
f 11/11/11 10/10/10 9/9/9
f 12/12/12 10/10/10 11/11/11
f 13/13/13 12/12/12 11/11/11
f 14/14/14 12/12/12 13/13/13
f 15/15/15 14/14/14 13/13/13
f 16/16/16 14/14/14 15/15/15
f 17/17/17 16/16/16 15/15/15
f 18/18/18 16/16/16 17/17/17
f 19/19/19 18/18/18 17/17/17
f 20/20/20 18/18/18 19/19/19
f 23/23/23 22/22/22 21/21/21
f 24/24/24 22/22/22 23/23/23
f 25/25/25 23/23/23 21/21/21
f 26/26/26 24/24/24 23/23/23
f 27/27/27 24/24/24 26/26/26
f 28/28/28 23/23/23 25/25/25
f 23/23/23 28/28/28 26/26/26
f 29/29/29 28/28/28 25/25/25
f 28/28/28 30/30/30 26/26/26
f 26/26/26 30/30/30 31/31/31
f 31/31/31 27/27/27 26/26/26
f 30/30/30 32/32/32 31/31/31
f 31/31/31 33/33/33 27/27/27
f 33/33/33 34/34/34 27/27/27
f 35/35/35 33/33/33 31/31/31
f 32/32/32 35/35/35 31/31/31
f 28/28/28 29/29/29 36/36/36
f 37/37/37 28/28/28 36/36/36
f 38/38/38 35/35/35 32/32/32
f 37/37/37 38/38/38 32/32/32
f 35/35/35 38/38/38 39/39/39
f 40/40/40 35/35/35 39/39/39
f 40/40/40 39/39/39 41/41/41
f 35/35/35 40/40/40 42/42/42
f 42/42/42 43/43/43 34/34/34
f 40/40/40 43/43/43 42/42/42
f 43/43/43 44/44/44 34/34/34
f 45/45/45 40/40/40 41/41/41
f 40/40/40 45/45/45 43/43/43
f 45/45/45 41/41/41 46/46/46
f 43/43/43 47/47/47 44/44/44
f 45/45/45 47/47/47 43/43/43
f 47/47/47 48/48/48 44/44/44
f 47/47/47 45/45/45 49/49/49
f 49/49/49 45/45/45 46/46/46
f 48/48/48 47/47/47 50/50/50
f 50/50/50 47/47/47 49/49/49
f 51/51/51 48/48/48 50/50/50
f 49/49/49 52/52/52 50/50/50
f 52/52/52 49/49/49 46/46/46
f 50/50/50 53/53/53 51/51/51
f 52/52/52 53/53/53 50/50/50
f 53/53/53 54/54/54 51/51/51
f 53/53/53 55/55/55 54/54/54
f 55/55/55 56/56/56 54/54/54
f 52/52/52 57/57/57 53/53/53
f 57/57/57 55/55/55 53/53/53
f 58/58/58 52/52/52 46/46/46
f 57/57/57 52/52/52 58/58/58
f 59/59/59 57/57/57 58/58/58
f 60/60/60 57/57/57 59/59/59
f 55/55/55 57/57/57 60/60/60
f 61/61/61 60/60/60 59/59/59
f 56/56/56 55/55/55 62/62/62
f 62/62/62 55/55/55 60/60/60
f 63/63/63 56/56/56 62/62/62
f 60/60/60 61/61/61 64/64/64
f 65/65/65 60/60/60 64/64/64
f 66/66/66 60/60/60 65/65/65
f 63/63/63 66/66/66 67/67/67
f 67/67/67 66/66/66 65/65/65
f 68/68/68 63/63/63 67/67/67
f 69/69/69 68/68/68 67/67/67
f 67/67/67 65/65/65 70/70/70
f 70/70/70 69/69/69 67/67/67
f 65/65/65 71/71/71 70/70/70
f 72/72/72 69/69/69 70/70/70
f 70/70/70 71/71/71 73/73/73
f 73/73/73 72/72/72 70/70/70
f 71/71/71 74/74/74 73/73/73
f 73/73/73 75/75/75 72/72/72
f 75/75/75 76/76/76 72/72/72
f 77/77/77 75/75/75 73/73/73
f 74/74/74 77/77/77 73/73/73
f 77/77/77 74/74/74 78/78/78
f 74/74/74 64/64/64 78/78/78
f 77/77/77 78/78/78 79/79/79
f 77/77/77 79/79/79 80/80/80
f 80/80/80 81/81/81 76/76/76
f 79/79/79 81/81/81 80/80/80
f 81/81/81 82/82/82 76/76/76
f 82/82/82 81/81/81 83/83/83
f 84/84/84 82/82/82 83/83/83
f 81/81/81 79/79/79 85/85/85
f 83/83/83 81/81/81 85/85/85
f 78/78/78 86/86/86 79/79/79
f 79/79/79 86/86/86 85/85/85
f 86/86/86 87/87/87 85/85/85
f 85/85/85 87/87/87 88/88/88
f 83/83/83 85/85/85 88/88/88
f 87/87/87 89/89/89 88/88/88
f 84/84/84 83/83/83 90/90/90
f 90/90/90 83/83/83 88/88/88
f 91/91/91 84/84/84 90/90/90
f 90/90/90 92/92/92 91/91/91
f 92/92/92 93/93/93 91/91/91
f 88/88/88 94/94/94 90/90/90
f 94/94/94 92/92/92 90/90/90
f 89/89/89 95/95/95 88/88/88
f 95/95/95 94/94/94 88/88/88
f 95/95/95 96/96/96 94/94/94
f 96/96/96 97/97/97 94/94/94
f 94/94/94 97/97/97 92/92/92
f 96/96/96 36/36/36 97/97/97
f 92/92/92 98/98/98 93/93/93
f 97/97/97 98/98/98 92/92/92
f 98/98/98 99/99/99 93/93/93
f 36/36/36 29/29/29 97/97/97
f 97/97/97 29/29/29 98/98/98
f 29/29/29 100/100/100 98/98/98
f 98/98/98 100/100/100 99/99/99
f 100/100/100 21/21/21 99/99/99
f 102/102/102 36/36/36 101/101/101
f 102/102/102 37/37/37 36/36/36
f 103/103/103 102/102/102 101/101/101
f 103/103/103 101/101/101 104/104/104
f 105/105/105 37/37/37 102/102/102
f 105/105/105 102/102/102 103/103/103
f 106/106/106 103/103/103 104/104/104
f 106/106/106 104/104/104 89/89/89
f 107/107/107 37/37/37 105/105/105
f 38/38/38 37/37/37 107/107/107
f 108/108/108 105/105/105 103/103/103
f 107/107/107 105/105/105 108/108/108
f 108/108/108 103/103/103 106/106/106
f 38/38/38 107/107/107 109/109/109
f 109/109/109 107/107/107 108/108/108
f 110/110/110 38/38/38 109/109/109
f 111/111/111 108/108/108 106/106/106
f 109/109/109 108/108/108 111/111/111
f 110/110/110 109/109/109 112/112/112
f 112/112/112 109/109/109 111/111/111
f 113/113/113 110/110/110 112/112/112
f 114/114/114 106/106/106 89/89/89
f 111/111/111 106/106/106 114/114/114
f 112/112/112 111/111/111 115/115/115
f 115/115/115 111/111/111 114/114/114
f 113/113/113 112/112/112 116/116/116
f 116/116/116 112/112/112 115/115/115
f 46/46/46 113/113/113 116/116/116
f 117/117/117 46/46/46 116/116/116
f 118/118/118 117/117/117 116/116/116
f 118/118/118 116/116/116 115/115/115
f 119/119/119 117/117/117 118/118/118
f 120/120/120 114/114/114 89/89/89
f 121/121/121 120/120/120 89/89/89
f 122/122/122 115/115/115 114/114/114
f 122/122/122 118/118/118 115/115/115
f 120/120/120 122/122/122 114/114/114
f 123/123/123 119/119/119 118/118/118
f 123/123/123 118/118/118 122/122/122
f 61/61/61 119/119/119 123/123/123
f 124/124/124 120/120/120 121/121/121
f 125/125/125 124/124/124 121/121/121
f 126/126/126 122/122/122 120/120/120
f 126/126/126 123/123/123 122/122/122
f 124/124/124 126/126/126 120/120/120
f 127/127/127 61/61/61 123/123/123
f 127/127/127 123/123/123 126/126/126
f 64/64/64 61/61/61 127/127/127
f 128/128/128 127/127/127 126/126/126
f 128/128/128 126/126/126 124/124/124
f 64/64/64 127/127/127 128/128/128
f 129/129/129 124/124/124 125/125/125
f 129/129/129 128/128/128 124/124/124
f 64/64/64 128/128/128 129/129/129
f 78/78/78 129/129/129 125/125/125
f 64/64/64 129/129/129 78/78/78
