g FallMountain_RnD_re1:LM4_PrismObstacle_03
v -0.92767835 -1.3097116 2.2883158
v -0.96816254 -2.197369 -1.4522614
v -1.0065796 -2.1643689 -1.5223958
v -0.9914694 -1.2635968 2.2705684
v -0.9914694 2.1481895 1.460957
v -0.9523394 2.1646538 1.5253181
v -0.95062876 -1.2482014 2.3352146
v -0.92767835 -1.3097116 2.2883158
v -1.0051541 1.2497694 -2.3354998
v -0.9296739 -2.1643689 -1.5223958
v -0.9310994 1.2497694 -2.3354998
v -0.96816254 -2.197369 -1.4522614
v -0.95062876 -1.2482014 2.3352146
v 0.9427885 -1.3097116 2.2883158
v -0.92767835 -1.3097116 2.2883158
v 0.96752095 -1.2493418 2.3354998
v 0.9658103 2.1635137 1.5256033
v -0.9523394 2.1646538 1.5253181
v 1.0065795 2.1481895 1.460957
v 1.0065795 -1.2635968 2.2705684
v 0.9427885 -1.3097116 2.2883158
v -0.92767835 2.197369 1.456039
v -0.9914694 2.1481895 1.460957
v 0.9427885 2.197369 1.456039
v 1.0065795 2.1481895 1.460957
v -0.9310994 1.2497694 -2.3354998
v -0.96816254 1.3097117 -2.2845383
v -1.0051541 1.2497694 -2.3354998
v 1.0065795 -1.2635968 2.2705684
v -0.96816254 -2.197369 -1.4522614
v 0.9427885 -1.3097116 2.2883158
v -0.9296739 -2.1643689 -1.5223958
v -0.9310994 1.2497694 -2.3354998
v 1.0065795 2.1481895 1.460957
vt 0.9854033 0.0036220606
vt 0.50326127 0.0036220606
vt 0.49742883 0.015286788
vt 0.9863754 0.015286788
vt 0.9863754 0.49742883
vt 0.9951239 0.49742883
vt 0.9951239 0.015286788
vt 0.9922077 0.006538242
vt 0.49742883 0.49742883
vt 0.4886803 0.015286788
vt 0.4886803 0.49742883
vt 0.49451268 0.00265
vt 0.9795709 0.51298183
vt 0.9873474 0.9854033
vt 0.9873474 0.5168701
vt 0.9795709 0.9873474
vt 0.53728336 0.9873474
vt 0.5363113 0.51298183
vt 0.5363113 0.99609596
vt 0.9795709 0.99706805
vt 0.9854033 0.99415183
vt 0.52756274 0.5168701
vt 0.5265907 0.50714946
vt 0.52756274 0.98248714
vt 0.5265907 0.9931798
vt 0.08819134 0.75696903
vt 0.09693988 0.7511367
vt 0.08819134 0.74530435
vt 0.004594121 0.015286788
vt 0.4886803 0.0055661816
vt 0.004594121 0.0055661816
vt 0.4886803 0.015286788
vt 0.4886803 0.49742883
vt 0.004594121 0.49742883
vn -0.46738285 -0.74633586 0.47385237
vn -0.060199797 -0.99691004 0.05046157
vn -0.99985296 -0.010274231 -0.013730604
vn -0.99985296 -0.010274231 0.013730604
vn -0.99977857 0.021045966 -0
vn -0.036708415 0.2403 0.9700043
vn -0.036708415 0.21680862 0.9755237
vn -0.46738285 -0.74633586 0.47385237
vn -0.99985296 0.0053866506 -0.016281072
vn 0.8872838 -0.119900405 -0.4453665
vn 0.8872838 -0.09640908 -0.45103514
vn -0.060199797 -0.99691004 0.05046157
vn -0.036708415 0.21680862 0.9755237
vn 0.44877905 -0.8716229 0.19715682
vn -0.46738285 -0.74633586 0.47385237
vn 0.033765554 0.21680862 0.97563004
vn 0.033765554 0.2403 0.97011125
vn -0.036708415 0.2403 0.9700043
vn 0.90294474 -0.08857864 -0.42052895
vn 0.90294474 -0.112069964 -0.41488683
vn 0.44877905 -0.8716229 0.19715682
vn -0.044538915 0.9763616 -0.21150498
vn -0.99977857 0.021045966 -0
vn 0.07291776 0.9685312 -0.23797137
vn 0.90294474 -0.08857864 -0.42052895
vn 0.8872838 -0.09640908 -0.45103514
vn -0.021047533 0.9528703 -0.30264693
vn -0.99985296 0.0053866506 -0.016281072
vn 0.90294474 -0.112069964 -0.41488683
vn -0.060199797 -0.99691004 0.05046157
vn 0.44877905 -0.8716229 0.19715682
vn 0.8872838 -0.119900405 -0.4453665
vn 0.8872838 -0.09640908 -0.45103514
vn 0.90294474 -0.08857864 -0.42052895
g FallMountain_RnD_re1:LM4_PrismObstacle_03_0
f 3/3/3 2/2/2 1/1/1
f 4/4/4 3/3/3 1/1/1
f 4/4/4 5/5/5 3/3/3
f 6/6/6 5/5/5 4/4/4
f 7/7/7 6/6/6 4/4/4
f 7/7/7 4/4/4 8/8/8
f 5/5/5 9/9/9 3/3/3
f 10/10/10 3/3/3 9/9/9
f 11/11/11 10/10/10 9/9/9
f 3/3/3 10/10/10 12/12/12
f 15/15/15 14/14/14 13/13/13
f 14/14/14 16/16/16 13/13/13
f 16/16/16 17/17/17 13/13/13
f 17/17/17 18/18/18 13/13/13
f 19/19/19 17/17/17 16/16/16
f 20/20/20 19/19/19 16/16/16
f 16/16/16 21/21/21 20/20/20
f 18/18/18 17/17/17 22/22/22
f 18/18/18 22/22/22 23/23/23
f 17/17/17 24/24/24 22/22/22
f 17/17/17 25/25/25 24/24/24
f 25/25/25 26/26/26 24/24/24
f 22/22/22 27/27/27 23/23/23
f 24/24/24 27/27/27 22/22/22
f 26/26/26 27/27/27 24/24/24
f 27/27/27 28/28/28 23/23/23
f 27/27/27 26/26/26 28/28/28
f 31/31/31 30/30/30 29/29/29
f 30/30/30 32/32/32 29/29/29
f 32/32/32 33/33/33 29/29/29
f 33/33/33 34/34/34 29/29/29
