g Feature_Hard_Block_Cube_Vanilla_LARGE
v 6.943983 0 9.943991
v -6.943983 0 9.943991
v -6.943755 0.056217194 10
v 6.943983 0.05596924 10
v 6.9442077 2.9441497 10
v -6.943983 2.9439263 10
v -6.943983 3.0004067 9.943991
v 6.943983 3.0004067 9.943991
v 6.943983 2.9995935 -9.943991
v -6.943755 2.9995935 -9.9437685
v -7 2.944398 9.943991
v -6.943983 2.9439263 10
v -7 0.05641571 9.943991
v -6.943755 0.056217194 10
v -6.943983 0 9.943991
v -7 0.05562698 -9.943991
v -6.9442077 0 -9.944214
v -6.9442077 0.05585022 -10
v -7 2.9435842 -9.943991
v -6.943755 2.9437828 -10
v -6.943755 2.9437828 -10
v 6.943983 2.9440308 -10
v 6.9442077 0.05585022 -10
v -6.9442077 0.05585022 -10
v -6.9442077 0 -9.944214
v 6.943983 0 -9.943991
v 7 2.9435842 -9.943991
v 6.943983 2.9440308 -10
v 7 2.944398 9.943991
v 6.9442077 2.9441497 10
v 6.943983 0.05596924 10
v 7 0.05641571 9.943991
v 6.943983 0 9.943991
v 6.943983 0 -9.943991
v 7 0.05562698 -9.943991
v 6.9442077 0.05585022 -10
v 6.943983 0 -9.943991
v -6.9442077 0 -9.944214
v -6.943983 0 9.943991
v 6.943983 0 9.943991
vt 0.10768263 1.0217258
vt 0.57430094 1.0217258
vt 0.57430094 1.0175964
vt 0.10768263 1.0175964
vt 0.10768263 0.9058137
vt 0.57430094 0.9058137
vt 0.57430094 0.90213466
vt 0.10768263 0.90213466
vt 0.10768263 0.097541094
vt 0.57430094 0.097541094
vt 0.5784026 0.90213466
vt 0.5784026 0.9062436
vt 0.6907475 0.90213466
vt 0.6907475 0.9062436
vt 0.69484174 0.90213466
vt 0.6907475 0.097541094
vt 0.69484174 0.097541094
vt 0.6907475 0.093447775
vt 0.5784026 0.097541094
vt 0.5784026 0.093447775
vt 0.57430094 0.09294319
vt 0.10768263 0.09294319
vt 0.107682675 -0.01884517
vt 0.57430094 -0.01884517
vt 0.57430094 -0.022991441
vt 0.107682675 -0.022991441
vt 0.10358317 0.097541094
vt 0.10358317 0.09344444
vt 0.10358317 0.90213466
vt 0.10358317 0.9062265
vt -0.008757323 0.9062265
vt -0.008757323 0.90213466
vt -0.012860775 0.90213466
vt -0.012860775 0.097541094
vt -0.008757323 0.097541094
vt -0.008757323 0.09344444
vt 1.1794151 0.0899404
vt 0.7045988 0.0899404
vt 0.70459884 0.9130969
vt 1.179415 0.91309667
vn 0.0040100003 -0.9999881 0.002804993
vn -0.004010072 -0.9999881 0.0027999524
vn -0.003958701 -0.01900362 0.9998116
vn 0.0039510233 -0.018970935 0.9998123
vn 0.003973087 0.018936977 0.9998128
vn -0.003979944 0.018969312 0.9998122
vn -0.0040091677 0.9999881 0.0027780207
vn 0.004009101 0.9999881 0.0027830682
vn 0.004009283 0.99998796 -0.0028254727
vn -0.0040162983 0.99998796 -0.0028253638
vn -0.99981517 0.019028474 0.00276714
vn -0.003979944 0.018969312 0.9998122
vn -0.9998166 -0.018950159 0.0027830596
vn -0.003958701 -0.01900362 0.9998116
vn -0.004010072 -0.9999881 0.0027999524
vn -0.999816 -0.018985007 -0.0027671324
vn -0.004002922 -0.9999881 -0.0027928979
vn -0.0039726906 -0.018935675 -0.9998129
vn -0.99981576 0.01899367 -0.0027779648
vn -0.0039589806 0.019008635 -0.9998115
vn -0.0039589806 0.019008635 -0.9998115
vn 0.0039510936 0.019010255 -0.9998115
vn 0.0039729625 -0.018901752 -0.9998135
vn -0.0039726906 -0.018935675 -0.9998129
vn -0.004002922 -0.9999881 -0.0027928979
vn 0.0040099644 -0.9999881 -0.00279778
vn 0.9998159 0.018988177 -0.0027775734
vn 0.0039510936 0.019010255 -0.9998115
vn 0.9998159 0.018990045 0.002761132
vn 0.003973087 0.018936977 0.9998128
vn 0.0039510233 -0.018970935 0.9998123
vn 0.9998159 -0.018988155 0.0027773255
vn 0.0040100003 -0.9999881 0.002804993
vn 0.0040099644 -0.9999881 -0.00279778
vn 0.9998159 -0.018989893 -0.002761904
vn 0.0039729625 -0.018901752 -0.9998135
vn 0.0040099644 -0.9999881 -0.00279778
vn -0.004002922 -0.9999881 -0.0027928979
vn -0.004010072 -0.9999881 0.0027999524
vn 0.0040100003 -0.9999881 0.002804993
g Feature_Hard_Block_Cube_Vanilla_LARGE_0
f 3/3/3 2/2/2 1/1/1
f 4/4/4 3/3/3 1/1/1
f 4/4/4 5/5/5 3/3/3
f 5/5/5 6/6/6 3/3/3
f 7/7/7 6/6/6 5/5/5
f 8/8/8 7/7/7 5/5/5
f 8/8/8 9/9/9 7/7/7
f 9/9/9 10/10/10 7/7/7
f 7/7/7 10/10/10 11/11/11
f 12/12/12 7/7/7 11/11/11
f 12/12/12 11/11/11 13/13/13
f 14/14/14 12/12/12 13/13/13
f 14/14/14 13/13/13 15/15/15
f 13/13/13 16/16/16 15/15/15
f 13/13/13 11/11/11 16/16/16
f 16/16/16 17/17/17 15/15/15
f 16/16/16 18/18/18 17/17/17
f 11/11/11 19/19/19 16/16/16
f 16/16/16 19/19/19 18/18/18
f 10/10/10 19/19/19 11/11/11
f 19/19/19 20/20/20 18/18/18
f 19/19/19 10/10/10 20/20/20
f 10/10/10 9/9/9 21/21/21
f 9/9/9 22/22/22 21/21/21
f 21/21/21 22/22/22 23/23/23
f 24/24/24 21/21/21 23/23/23
f 24/24/24 23/23/23 25/25/25
f 23/23/23 26/26/26 25/25/25
f 27/27/27 9/9/9 8/8/8
f 28/28/28 9/9/9 27/27/27
f 29/29/29 27/27/27 8/8/8
f 30/30/30 29/29/29 8/8/8
f 29/29/29 30/30/30 31/31/31
f 32/32/32 29/29/29 31/31/31
f 27/27/27 29/29/29 32/32/32
f 31/31/31 33/33/33 32/32/32
f 33/33/33 34/34/34 32/32/32
f 28/28/28 27/27/27 35/35/35
f 35/35/35 27/27/27 32/32/32
f 34/34/34 35/35/35 32/32/32
f 36/36/36 28/28/28 35/35/35
f 36/36/36 35/35/35 34/34/34
f 39/39/39 38/38/38 37/37/37
f 40/40/40 39/39/39 37/37/37
