g Feature_Block_Wedge_Vanilla_MEDIUM_Placement_Col
v -0.093592934 2.9937358 -0.0487434
v 1.1649553 2.9937358 -0.0487434
v 1.693609 2.9937358 1.4732734
v -0.12591788 2.9937358 1.4732734
v 1.998724 2.9937358 2.725172
v -0.14362012 2.9937358 2.7265854
v 0.9552805 2.9937358 2.9444952
v 1.8989754 2.9937358 2.8289158
v -0.14437452 2.9937358 2.963103
v -1.6753025 2.9937358 1.4732734
v -2.0002828 2.9937358 2.677255
v -1.1866972 2.9937358 -0.0487434
v -0.14362012 2.9937358 2.7265854
v -1.2372916 2.9937358 2.9378097
v -1.9294486 2.9937358 2.8399355
v 0.008138084 2.9937358 -1.5813131
v 1.1649553 2.9937358 -0.0487434
v -0.64177525 2.9937358 -1.5813131
v 0.65805143 2.9937358 -1.5813131
v 0.004488926 2.9937358 -2.347598
v -0.35980088 2.9937358 -2.347598
v 0.3854073 2.9937358 -2.347598
v -0.12591796 -0.0012764883 1.4732733
v 1.6936091 -0.0012764883 1.4732733
v 1.1649553 -0.0012764883 -0.04874401
v -0.09359309 -0.0012764883 -0.04874401
v 0.6580513 -0.0012764883 -1.5813143
v -1.1866975 -0.0012764883 -0.04874401
v -1.6753029 -0.0012764883 1.4732733
v -0.6417755 -0.0012764883 -1.5813143
v 0.008137894 -0.0012764883 -1.5813143
v 0.3854071 -0.0012764883 -2.3475995
v -0.35980108 -0.0012764883 -2.3475995
v 0.004488716 -0.0012764883 -2.3475995
v 1.9987243 -0.0012764883 2.725172
v 1.6936091 -0.0012764883 1.4732733
v -0.12591796 -0.0012764883 1.4732733
v -0.14362015 -0.0012764883 2.7265854
v 0.95528066 -0.0012764883 2.9444952
v 1.8989756 -0.0012764883 2.8289158
v -0.14437452 -0.0012764883 2.963103
v -1.2372917 -0.0012764883 2.9378097
v -0.14362015 -0.0012764883 2.7265854
v -2.000283 -0.0012764883 2.677255
v -1.929449 -0.0012764883 2.8399355
v -1.6753029 -0.0012764883 1.4732733
v -0.12591796 -0.0012764883 1.4732733
v -2.000283 -0.0012764883 2.677255
v -1.6753025 2.9937358 1.4732734
v -2.0002828 2.9937358 2.677255
v -1.6753029 -0.0012764883 1.4732733
v -1.1866972 2.9937358 -0.0487434
v -1.1866975 -0.0012764883 -0.04874401
v -0.64177525 2.9937358 -1.5813131
v -0.6417755 -0.0012764883 -1.5813143
v -0.35980088 2.9937358 -2.347598
v -0.35980108 -0.0012764883 -2.3475995
v -0.06710873 2.9937358 -3.000394
v -0.06710887 -0.0012764883 -3.000396
v 1.6936091 -0.0012764883 1.4732733
v 1.9987243 -0.0012764883 2.725172
v 1.998724 2.9937358 2.725172
v 1.693609 2.9937358 1.4732734
v 1.1649553 -0.0012764883 -0.04874401
v 1.1649553 2.9937358 -0.0487434
v 0.6580513 -0.0012764883 -1.5813143
v 0.65805143 2.9937358 -1.5813131
v 0.3854071 -0.0012764883 -2.3475995
v 0.3854073 2.9937358 -2.347598
v 0.08779071 -0.0012764883 -3.0012593
v 0.08779086 2.9937358 -3.0012577
v -0.35980088 2.9937358 -2.347598
v -0.06710873 2.9937358 -3.000394
v 0.004488926 2.9937358 -2.347598
v 0.08779086 2.9937358 -3.0012577
v 0.3854073 2.9937358 -2.347598
v 0.004488716 -0.0012764883 -2.3475995
v 0.3854071 -0.0012764883 -2.3475995
v 0.08779071 -0.0012764883 -3.0012593
v -0.06710887 -0.0012764883 -3.000396
v -0.35980108 -0.0012764883 -2.3475995
v 1.998724 2.9937358 2.725172
v 1.9987243 -0.0012764883 2.725172
v 1.8989756 -0.0012764883 2.8289158
v 1.8989754 2.9937358 2.8289158
v -1.9294486 2.9937358 2.8399355
v -1.929449 -0.0012764883 2.8399355
v -2.000283 -0.0012764883 2.677255
v -2.0002828 2.9937358 2.677255
v 0.08779071 -0.0012764883 -3.0012593
v 0.08779086 2.9937358 -3.0012577
v -0.06710873 2.9937358 -3.000394
v -0.06710887 -0.0012764883 -3.000396
v 1.8989756 -0.0012764883 2.8289158
v 0.9552805 2.9937358 2.9444952
v 1.8989754 2.9937358 2.8289158
v 0.95528066 -0.0012764883 2.9444952
v -0.14437452 2.9937358 2.963103
v -0.14437452 -0.0012764883 2.963103
v -1.2372916 2.9937358 2.9378097
v -1.2372917 -0.0012764883 2.9378097
v -1.9294486 2.9937358 2.8399355
v -1.929449 -0.0012764883 2.8399355
vt 0.77986526 0.34121996
vt 0.8070068 0.35577217
vt 0.8410199 0.323021
vt 0.8055575 0.3040312
vt 0.8705301 0.29460567
vt 0.82595813 0.2745018
vt 0.85108805 0.27745742
vt 0.87092644 0.28807244
vt 0.8312497 0.26684242
vt 0.7700951 0.2850414
vt 0.78514475 0.24897835
vt 0.75272375 0.32666776
vt 0.82595813 0.2745018
vt 0.8114135 0.25622857
vt 0.79157734 0.24561471
vt 0.7545165 0.37529647
vt 0.8070068 0.35577217
vt 0.7409457 0.36802036
vt 0.7680872 0.38257256
vt 0.74184203 0.3923347
vt 0.73505664 0.38869667
vt 0.7486274 0.39597276
vt 0.2768446 0.36486146
vt 0.31207532 0.38369307
vt 0.27686593 0.41194323
vt 0.24997848 0.39756566
vt 0.23770249 0.4374149
vt 0.22309105 0.38318813
vt 0.24161386 0.34602985
vt 0.21081506 0.42303735
vt 0.22425878 0.43022615
vt 0.21812078 0.45015076
vt 0.20467706 0.442962
vt 0.21139893 0.4465564
vt 0.3426234 0.3591829
vt 0.31207532 0.38369307
vt 0.2768446 0.36486146
vt 0.29817733 0.338893
vt 0.3234542 0.34270805
vt 0.34319773 0.35325885
vt 0.3037107 0.33215725
vt 0.28396928 0.3216076
vt 0.29817733 0.338893
vt 0.25766113 0.3138377
vt 0.2642279 0.3110579
vt 0.24161386 0.34602985
vt 0.2768446 0.36486146
vt 0.25766113 0.3138377
vt 0.7700951 0.2850414
vt 0.78514475 0.24897835
vt 0.24161386 0.34602985
vt 0.75272375 0.32666776
vt 0.22309105 0.38318813
vt 0.7409457 0.36802036
vt 0.21081506 0.42303735
vt 0.73505664 0.38869667
vt 0.20467706 0.442962
vt 0.7311037 0.40257525
vt 0.20055704 0.45633608
vt 0.31207532 0.38369307
vt 0.3426234 0.3591829
vt 0.8705301 0.29460567
vt 0.8410199 0.323021
vt 0.27686593 0.41194323
vt 0.8070068 0.35577217
vt 0.23770249 0.4374149
vt 0.7680872 0.38257256
vt 0.21812078 0.45015076
vt 0.7486274 0.39597276
vt 0.20495492 0.45871374
vt 0.7355427 0.40498254
vt 0.73505664 0.38869667
vt 0.7311037 0.40257525
vt 0.74184203 0.3923347
vt 0.7355427 0.40498254
vt 0.7486274 0.39597276
vt 0.21139893 0.4465564
vt 0.21812078 0.45015076
vt 0.20495492 0.45871374
vt 0.20055704 0.45633608
vt 0.20467706 0.442962
vt 0.8705301 0.29460567
vt 0.3426234 0.3591829
vt 0.34319773 0.35325885
vt 0.87092644 0.28807244
vt 0.79157734 0.24561471
vt 0.2642279 0.3110579
vt 0.25766113 0.3138377
vt 0.78514475 0.24897835
vt 0.20495492 0.45871374
vt 0.7355427 0.40498254
vt 0.7311037 0.40257525
vt 0.20055704 0.45633608
vt 0.34319773 0.35325885
vt 0.85108805 0.27745742
vt 0.87092644 0.28807244
vt 0.3234542 0.34270805
vt 0.8312497 0.26684242
vt 0.3037107 0.33215725
vt 0.8114135 0.25622857
vt 0.28396928 0.3216076
vt 0.79157734 0.24561471
vt 0.2642279 0.3110579
vn -0 1 0
vn -0 1 0
vn -0 1 0
vn -0 1 0
vn -0 1 -1.3633922E-07
vn -0 1 -1.4609272E-07
vn -0 1 1.7002877E-07
vn -0 1 1.7603183E-07
vn -0 1 0
vn -0 1 0
vn -0 1 0
vn -0 1 0
vn -0 1 1.6948367E-07
vn -0 1 -1.3829431E-06
vn -0 1 -1.415843E-06
vn -0 1 0
vn -0 1 0
vn -0 1 0
vn -0 1 0
vn -0 1 0
vn -0 1 0
vn -0 1 0
vn -0 -1 0
vn -0 -1 0
vn -0 -1 0
vn -0 -1 0
vn -0 -1 0
vn -0 -1 0
vn -0 -1 0
vn -0 -1 0
vn -0 -1 0
vn -0 -1 0
vn -0 -1 0
vn -0 -1 0
vn -0 -1 0
vn -0 -1 0
vn -0 -1 0
vn -0 -1 0
vn -0 -1 0
vn -0 -1 0
vn -0 -1 0
vn -0 -1 0
vn -0 -1 0
vn -0 -1 0
vn -0 -1 0
vn -0 -1 0
vn -0 -1 0
vn -0.96544826 1.0458528E-07 -0.26059496
vn -0.96984833 1.2472884E-07 -0.24370916
vn -0.96544826 1.0458528E-07 -0.26059496
vn -0.96984833 1.2472884E-07 -0.24370916
vn -0.9344607 1.9937472E-07 -0.35606647
vn -0.9344606 1.9937471E-07 -0.35606647
vn -0.9464023 1.8020114E-07 -0.3229902
vn -0.9464023 1.8020117E-07 -0.3229902
vn -0.90126413 2.9122012E-07 -0.43327007
vn -0.90126413 2.9122018E-07 -0.43327013
vn -0.91247827 2.8485664E-07 -0.40912503
vn -0.91247827 2.848566E-07 -0.40912503
vn 0.97001195 0 -0.24305737
vn 0.9715607 0 -0.2367906
vn 0.9715607 0 -0.23679061
vn 0.97001195 0 -0.24305737
vn 0.93566406 0 -0.352892
vn 0.93566406 0 -0.35289198
vn 0.9450856 0 -0.32682282
vn 0.9450856 0 -0.3268228
vn 0.9019448 1.6931743E-07 -0.43185136
vn 0.9019448 1.6931737E-07 -0.4318513
vn 0.91010493 1.8159389E-07 -0.4143779
vn 0.91010493 1.8159386E-07 -0.4143779
vn -0 1 0
vn -0 1 0
vn -0 1 3.454724E-07
vn -0 1 0
vn -0 1 0
vn -0 -1 0
vn -0 -1 0
vn -0 -1 0
vn -0 -1 0
vn -0 -1 0
vn 0.72085124 0 0.6930898
vn 0.72085124 0 0.6930898
vn 0.72085124 0 0.6930898
vn 0.72085124 0 0.6930898
vn -0.9168572 0 0.39921537
vn -0.9168572 0 0.39921534
vn -0.9168572 0 0.39921537
vn -0.9168572 0 0.39921534
vn -0.0055739405 6.116208E-07 -0.9999845
vn -0.0055739405 6.116208E-07 -0.9999845
vn -0.0055739405 6.116208E-07 -0.9999845
vn -0.0055739405 6.116208E-07 -0.9999845
vn 0.12156674 0 0.9925833
vn 0.0655289 0 0.99785066
vn 0.12156674 0 0.9925833
vn 0.06552891 0 0.99785066
vn -0 0 1
vn -0 0 1
vn -0.06883474 0 0.99762815
vn -0.06883475 0 0.99762815
vn -0.14001168 0 0.99014986
vn -0.14001168 0 0.99014986
g Feature_Block_Wedge_Vanilla_MEDIUM_Placement_Col_0
f 3/3/3 2/2/2 1/1/1
f 4/4/4 3/3/3 1/1/1
f 5/5/5 3/3/3 4/4/4
f 6/6/6 5/5/5 4/4/4
f 6/6/6 7/7/7 5/5/5
f 7/7/7 8/8/8 5/5/5
f 6/6/6 9/9/9 7/7/7
f 4/4/4 1/1/1 10/10/10
f 4/4/4 10/10/10 11/11/11
f 1/1/1 12/12/12 10/10/10
f 13/13/13 4/4/4 11/11/11
f 14/14/14 9/9/9 13/13/13
f 14/14/14 13/13/13 11/11/11
f 15/15/15 14/14/14 11/11/11
f 1/1/1 16/16/16 12/12/12
f 1/1/1 17/17/17 16/16/16
f 16/16/16 18/18/18 12/12/12
f 17/17/17 19/19/19 16/16/16
f 16/16/16 20/20/20 18/18/18
f 16/16/16 19/19/19 20/20/20
f 20/20/20 21/21/21 18/18/18
f 19/19/19 22/22/22 20/20/20
f 25/25/25 24/24/24 23/23/23
f 26/26/26 25/25/25 23/23/23
f 27/27/27 25/25/25 26/26/26
f 26/26/26 23/23/23 28/28/28
f 23/23/23 29/29/29 28/28/28
f 26/26/26 28/28/28 30/30/30
f 31/31/31 27/27/27 26/26/26
f 31/31/31 26/26/26 30/30/30
f 32/32/32 27/27/27 31/31/31
f 31/31/31 30/30/30 33/33/33
f 34/34/34 32/32/32 31/31/31
f 34/34/34 31/31/31 33/33/33
f 37/37/37 36/36/36 35/35/35
f 38/38/38 37/37/37 35/35/35
f 38/38/38 35/35/35 39/39/39
f 35/35/35 40/40/40 39/39/39
f 38/38/38 39/39/39 41/41/41
f 43/43/43 41/41/41 42/42/42
f 43/43/43 42/42/42 44/44/44
f 42/42/42 45/45/45 44/44/44
f 43/43/43 44/44/44 46/46/46
f 47/47/47 43/43/43 46/46/46
f 50/50/50 49/49/49 48/48/48
f 49/49/49 51/51/51 48/48/48
f 49/49/49 52/52/52 51/51/51
f 52/52/52 53/53/53 51/51/51
f 52/52/52 54/54/54 53/53/53
f 54/54/54 55/55/55 53/53/53
f 54/54/54 56/56/56 55/55/55
f 56/56/56 57/57/57 55/55/55
f 56/56/56 58/58/58 57/57/57
f 58/58/58 59/59/59 57/57/57
f 62/62/62 61/61/61 60/60/60
f 63/63/63 62/62/62 60/60/60
f 63/63/63 60/60/60 64/64/64
f 65/65/65 63/63/63 64/64/64
f 65/65/65 64/64/64 66/66/66
f 67/67/67 65/65/65 66/66/66
f 67/67/67 66/66/66 68/68/68
f 69/69/69 67/67/67 68/68/68
f 69/69/69 68/68/68 70/70/70
f 71/71/71 69/69/69 70/70/70
f 74/74/74 73/73/73 72/72/72
f 74/74/74 75/75/75 73/73/73
f 74/74/74 76/76/76 75/75/75
f 79/79/79 78/78/78 77/77/77
f 79/79/79 77/77/77 80/80/80
f 77/77/77 81/81/81 80/80/80
f 84/84/84 83/83/83 82/82/82
f 85/85/85 84/84/84 82/82/82
f 88/88/88 87/87/87 86/86/86
f 89/89/89 88/88/88 86/86/86
f 92/92/92 91/91/91 90/90/90
f 93/93/93 92/92/92 90/90/90
f 96/96/96 95/95/95 94/94/94
f 95/95/95 97/97/97 94/94/94
f 95/95/95 98/98/98 97/97/97
f 98/98/98 99/99/99 97/97/97
f 98/98/98 100/100/100 99/99/99
f 100/100/100 101/101/101 99/99/99
f 100/100/100 102/102/102 101/101/101
f 102/102/102 103/103/103 101/101/101
