g FG_vic_scene:ENV_flag_MO_5
v 0.07413515 1.2393914 -0.20182373
v 0.18132754 1.2393914 -0.036699217
v 0.18132754 10.719593 -0.036696777
v 0.07413758 10.730453 -0.20181884
v -0.12246153 1.2393914 -0.19155517
v 0.19994813 10.789919 -0.036696777
v -0.12246153 10.750367 -0.19155273
v -0.21186826 1.2393909 -0.016159667
v 0.115329 10.855771 -0.20182128
v 0.2270453 10.8069515 -0.036694337
v -0.2118707 10.759425 -0.016157227
v -0.104678325 1.2393914 0.14896484
v -0.09003965 10.908735 -0.19155028
v 0.20178163 10.912785 -0.20182128
v 0.90885437 10.849276 -0.036696777
v -0.10467588 10.748566 0.14896484
v 0.09192324 1.2393909 0.13869628
v -0.17366514 10.946018 -0.016157227
v 0.010302139 11.04437 -0.19155028
v 0.91170347 10.956852 -0.20182128
v 1.6991278 10.757993 -0.036694337
v 0.09192079 10.72865 0.13870117
v 0.18132754 1.2393914 -0.036699217
v 0.18132754 10.719593 -0.036696777
v -0.07339903 10.901315 0.14896728
v 0.12936953 10.844845 0.13869873
v 0.19994813 10.789919 -0.036696777
v -0.04722716 11.116939 -0.016157227
v 0.15544619 11.106885 -0.19155273
v 1.7231683 10.863121 -0.20182128
v 2.653869 10.425958 -0.036694337
v 0.02174745 11.029936 0.14896972
v 0.20597352 10.895224 0.13869628
v 0.2270453 10.8069515 -0.036694337
v 0.13437685 11.195155 -0.016157227
v 0.9169305 11.154154 -0.19155028
v 0.15963808 11.089323 0.14896484
v 2.702553 10.522514 -0.20182128
v 3.3408 9.956652 -0.036694337
v 0.91122985 10.939001 0.13870117
v 0.90885437 10.849276 -0.036696777
v 0.919306 11.2438755 -0.016159667
v 1.767265 11.055931 -0.19155273
v 0.9164569 11.136301 0.14896484
v 3.4183416 10.033497 -0.20181884
v 3.7060907 9.411443 -0.036694337
v 1.7191815 10.845674 0.13869628
v 1.6991278 10.757993 -0.036694337
v 1.7873187 11.143616 -0.016157227
v 2.7918499 10.699608 -0.19155273
v 1.7632781 11.038487 0.14896728
v 3.802536 9.460071 -0.20182128
v 3.916396 8.823798 -0.036694337
v 2.6944768 10.506493 0.13869628
v 2.653869 10.425958 -0.036694337
v 2.8324578 10.780145 -0.016157227
v 3.5605583 10.174437 -0.19155273
v 2.783769 10.683589 0.14896728
v 4.023588 8.842403 -0.20182128
v 3.916396 2.5849738 -0.036699217
v 3.4054754 10.020743 0.13869873
v 3.3408 9.956652 -0.036694337
v 3.6252337 10.238529 -0.016157227
v 3.9794257 9.549259 -0.19155273
v 3.5476923 10.161684 0.14896484
v 4.0235906 2.5707123 -0.20182373
v 3.906889 2.5526464 -0.036696777
v 3.7865324 9.452004 0.13869628
v 3.7060907 9.411443 -0.036694337
v 4.0598674 9.589818 -0.016162109
v 4.220187 8.876525 -0.19155028
v 3.963422 9.54119 0.14896484
v 3.98268 2.4768443 -0.20182128
v 3.8745525 2.543117 -0.036699217
v 4.0058026 8.839317 0.13869628
v 3.916396 8.823798 -0.036694337
v 4.309594 8.892041 -0.016159667
v 4.220187 2.5445569 -0.19155517
v 4.2023993 8.873436 0.14896484
v 4.0058026 2.573079 0.13869384
v 3.916396 2.5849738 -0.036699217
v 4.309594 2.5326605 -0.016162109
v 4.2023993 2.546922 0.14896484
v 3.9701042 2.4894218 0.13869384
v 3.906889 2.5526464 -0.036696777
v 4.17998 2.39611 -0.19155273
v 4.1640496 2.4053361 0.1489624
v 4.260043 2.349733 -0.016162109
v 4.063388 2.279525 -0.19155517
v 4.1097503 2.1994524 -0.016159667
v 3.8888054 2.435924 -0.20182373
v 2.595373 2.5431159 -0.036699217
v 3.914948 2.2393248 -0.19155517
v 2.595373 2.4359233 -0.20182373
v 1.2900506 2.5431159 -0.036699217
v 4.0541644 2.295454 0.1489624
v 3.92684 2.1499176 -0.016162109
v 2.595373 2.2393255 -0.19155517
v 1.2900506 2.4359233 -0.20182373
v -0.015271591 2.5431159 -0.036699217
v -0.015271591 2.4359233 -0.18726562
v 1.2900506 2.2393255 -0.19155517
v -0.015271591 2.2393255 -0.17784911
v 3.9125872 2.2571106 0.14896484
v 2.595373 2.1499188 -0.016159667
v 1.2900506 2.1499188 -0.016159667
v -0.015271591 2.1499188 -0.016162109
v 3.8864398 2.4537108 0.13869384
v 3.8745525 2.543117 -0.036699217
v 2.595373 2.257111 0.1489624
v 1.2900506 2.257111 0.1489624
v -0.015271591 2.257111 0.13440673
v 2.595373 2.4537096 0.13869384
v 2.595373 2.5431159 -0.036699217
v 1.2900506 2.4537103 0.13869384
v -0.015271591 2.4537096 0.12499023
v 1.2900506 2.5431159 -0.036699217
v -0.015271591 2.5431159 -0.036699217
v 0.101806045 10.9820595 0.033845212
v 1.3615032 11.013577 0.033845212
v 0.101806045 2.380929 0.033845212
v 2.7153778 10.655445 0.033847656
v 3.7260978 9.885586 0.033845212
v 4.1701508 8.812142 0.033847656
v 4.170153 2.3809283 0.033845212
v 0.101806045 10.9820595 -0.08929443
v 0.101806045 2.3809264 -0.08929443
v 1.3615032 11.01358 -0.08929199
v 2.7153802 10.655445 -0.08929199
v 3.7260978 9.885585 -0.08929687
v 4.170153 8.81214 -0.08929443
v 4.170153 2.380927 -0.08929443
vt 0.9540379 0.010895193
vt 0.9461744 0.011797309
vt 0.9463641 0.3825584
vt 0.9540451 0.38124198
vt 0.962041 0.009177327
vt 0.94699013 0.3881216
vt 0.9618092 0.37917626
vt 0.97017837 0.008419037
vt 0.9547543 0.38739616
vt 0.94702065 0.3923039
vt 0.97021234 0.37830347
vt 0.9783107 0.009370178
vt 0.9625892 0.38394392
vt 0.9548364 0.39275607
vt 0.9468945 0.4214188
vt 0.97856545 0.37937963
vt 0.9863073 0.011165053
vt 0.97015285 0.3832736
vt 0.9628805 0.38896042
vt 0.95470905 0.42158696
vt 0.94703317 0.45442948
vt 0.98627037 0.38151348
vt 0.9941693 0.012067944
vt 0.9939601 0.38275778
vt 0.97772974 0.38407987
vt 0.98557085 0.3874541
vt 0.99337775 0.38815236
vt 0.97014254 0.3888672
vt 0.9625374 0.39353603
vt 0.9548443 0.45433846
vt 0.94760484 0.49590763
vt 0.9774464 0.38894033
vt 0.9855195 0.39255413
vt 0.9933317 0.39207995
vt 0.97019714 0.3938135
vt 0.96260774 0.42193377
vt 0.9778461 0.39341596
vt 0.9554403 0.49568868
vt 0.9484138 0.53062516
vt 0.9864628 0.42136633
vt 0.9942523 0.4210666
vt 0.97065485 0.42207688
vt 0.9626531 0.45421723
vt 0.97864455 0.42181972
vt 0.9562795 0.5305176
vt 0.94838315 0.55858797
vt 0.9864461 0.4541143
vt 0.99430597 0.4540673
vt 0.97054946 0.45414245
vt 0.96328855 0.49538285
vt 0.9785175 0.4541214
vt 0.95622236 0.55849767
vt 0.94881594 0.58538616
vt 0.9868882 0.49545246
vt 0.9947175 0.49545336
vt 0.97116274 0.49521315
vt 0.9641292 0.5303855
vt 0.9790417 0.4952814
vt 0.95665866 0.5851759
vt 0.9489036 0.8314225
vt 0.9875019 0.53027725
vt 0.99537754 0.53019136
vt 0.9718885 0.53029704
vt 0.964125 0.5583773
vt 0.979644 0.53027576
vt 0.9566539 0.83084005
vt 0.9490888 0.8359326
vt 0.9880097 0.5582882
vt 0.9958438 0.55827063
vt 0.97212726 0.5582935
vt 0.9645018 0.58483666
vt 0.9801211 0.5582747
vt 0.9568681 0.83619285
vt 0.94880414 0.8403313
vt 0.9879137 0.585032
vt 0.9957418 0.5851759
vt 0.9723046 0.58466303
vt 0.96436095 0.8300088
vt 0.9800963 0.5847703
vt 0.9879405 0.83076495
vt 0.99571747 0.83123106
vt 0.9722958 0.8296839
vt 0.98022544 0.82998437
vt 0.98777026 0.83598036
vt 0.9955863 0.83568007
vt 0.9648972 0.83422375
vt 0.9797247 0.83417666
vt 0.9722948 0.83405375
vt 0.96488094 0.83890676
vt 0.97233975 0.8393192
vt 0.95654184 0.84141403
vt 0.9488036 0.89213514
vt 0.9642696 0.8431483
vt 0.9565934 0.8926046
vt 0.9489267 0.9435739
vt 0.97980773 0.8387308
vt 0.97242 0.8438315
vt 0.9644284 0.8935246
vt 0.95670784 0.943737
vt 0.94893545 0.9945656
vt 0.95647 0.9946658
vt 0.96446425 0.9440559
vt 0.96470094 0.9948497
vt 0.9805009 0.8429206
vt 0.9723806 0.8939118
vt 0.97236276 0.9441764
vt 0.9723156 0.9949011
vt 0.98812217 0.84105974
vt 0.99585044 0.84002465
vt 0.9803214 0.89336824
vt 0.98027027 0.9439595
vt 0.97998196 0.9947679
vt 0.9881328 0.892355
vt 0.99591047 0.8918545
vt 0.98804533 0.9435678
vt 0.9883003 0.994521
vt 0.9958362 0.94336736
vt 0.9958705 0.99438584
vt 0.011469054 0.9857882
vt 0.15081035 0.9893669
vt 0.011469016 0.009266537
vt 0.30056885 0.9487066
vt 0.41236943 0.86130124
vt 0.46148828 0.7394289
vt 0.46148828 0.009266499
vt 0.92622864 0.98639333
vt 0.9391722 0.015047095
vt 0.78392124 0.9880573
vt 0.63156545 0.9455751
vt 0.51858133 0.85711217
vt 0.4700483 0.7352182
vt 0.4797246 0.008926074
vn 0.45414582 2.4898216E-07 -0.8909274
vn 0.9986387 0 -0.05216157
vn 0.98744035 -0.14838481 -0.054255076
vn 0.41029403 -0.060907036 -0.90991706
vn -0.5444928 2.2499228E-07 -0.8387656
vn 0.79961246 -0.59752184 -0.059896223
vn -0.5619921 0.057610713 -0.82513386
vn -0.9986387 0 0.052161545
vn 0.2886198 -0.21714628 -0.9324945
vn 0.32073274 -0.94544935 -0.057062797
vn -0.9936272 0.10067632 0.050687797
vn -0.45414606 -2.9629328E-07 0.8909272
vn -0.5340261 0.2382776 -0.81119657
vn 0.11918365 -0.36412737 -0.9236918
vn -0.026461577 -0.998201 -0.053800717
vn -0.47599173 0.0476078 0.8781601
vn 0.54449236 -2.9122796E-07 0.83876574
vn -0.9122039 0.40674388 0.04943147
vn -0.36751533 0.46318108 -0.8064712
vn -0.011408812 -0.43039322 -0.90256935
vn -0.222627 -0.9733931 -0.05425078
vn 0.5036482 -0.07257222 0.8608552
vn 0.9986387 0 -0.05216157
vn 0.98744035 -0.14838481 -0.054255076
vn -0.457907 0.20401417 0.86527413
vn 0.36255467 -0.27335414 0.89097226
vn 0.79961246 -0.59752184 -0.059896223
vn -0.620463 0.7827005 0.049047764
vn -0.13487975 0.56148887 -0.81641763
vn -0.09464184 -0.4138042 -0.90543306
vn -0.44955462 -0.8915735 -0.054748874
vn -0.31599754 0.39909413 0.86073774
vn 0.14637929 -0.4558118 0.8779571
vn 0.32073274 -0.94544935 -0.057062797
vn -0.23191102 0.971458 0.0498672
vn 0.014918672 0.5627651 -0.8264822
vn -0.1137609 0.4798864 0.8699239
vn -0.18818007 -0.37320626 -0.9084632
vn -0.70917803 -0.70278895 -0.05616293
vn -0.013867639 -0.5231447 0.85213095
vn -0.026461577 -0.998201 -0.053800717
vn 0.026464956 0.99835557 0.05084979
vn 0.1264181 0.55274093 -0.8237086
vn 0.012593429 0.475046 0.8798708
vn -0.2843994 -0.28183797 -0.9163429
vn -0.89159685 -0.44953293 -0.05454466
vn -0.11545083 -0.5047867 0.85548913
vn -0.222627 -0.9733931 -0.05425078
vn 0.22266866 0.9735814 0.050576165
vn 0.25712937 0.5099498 -0.820875
vn 0.1069954 0.46781898 0.877324
vn -0.37556496 -0.18935579 -0.907246
vn -0.9837429 -0.17073035 -0.055686273
vn -0.23044996 -0.45703733 0.8590749
vn -0.44955462 -0.8915735 -0.054748874
vn 0.44965845 0.8917829 0.05030598
vn 0.41261312 0.40889674 -0.8139741
vn 0.2182084 0.43276006 0.87470216
vn -0.400168 -0.06944986 -0.91380644
vn -0.9805864 0.18830721 -0.054686274
vn -0.35201374 -0.34884292 0.8685591
vn -0.70917803 -0.70278895 -0.05616293
vn 0.70942074 0.7030318 0.04968374
vn 0.50850934 0.2563852 -0.82200056
vn 0.35242572 0.34925058 0.8682282
vn -0.39482164 0.07510265 -0.91568315
vn -0.70580417 0.70562 -0.0627775
vn -0.45920068 -0.2315243 0.85763115
vn -0.89159685 -0.44953293 -0.05454466
vn 0.89179003 0.4496321 0.05041284
vn 0.5693699 0.09881577 -0.8161209
vn 0.43107897 0.21734546 0.8757464
vn -0.24484493 0.24481018 -0.93814653
vn -0.18841538 0.9805654 -0.054690577
vn -0.49356344 -0.085659295 0.8654812
vn -0.9837429 -0.17073035 -0.055686273
vn 0.9840456 0.1707839 0.049871877
vn 0.56558794 -0.0759733 -0.821181
vn 0.48534423 0.08423237 0.87025625
vn -0.48917082 0.08979955 0.8675529
vn -0.9805864 0.18830721 -0.054686274
vn 0.99001116 -0.13170841 0.050306763
vn 0.48089737 -0.06331162 0.8744882
vn -0.30948552 0.30943567 0.89914864
vn -0.70580417 0.70562 -0.0627775
vn 0.51119953 -0.29633865 -0.806758
vn 0.44015223 -0.25466263 0.8610534
vn 0.86429226 -0.5005905 0.04907099
vn 0.29631385 -0.51121056 -0.80676013
vn 0.50053596 -0.86432385 0.049070906
vn -0.07513074 0.39479873 -0.91569066
vn -2.4814346E-07 0.9986387 -0.052161194
vn 0.07596098 -0.5655836 -0.8211852
vn -1.1264363E-07 0.4541463 -0.89092714
vn -0.0016233624 0.9985789 -0.053268157
vn 0.25464207 -0.44016138 0.86105484
vn 0.13168353 -0.99001455 0.050306484
vn -2.0043267E-07 -0.5444915 -0.8387663
vn -0.004012239 0.44928813 -0.89337796
vn -0.0032646842 0.9985146 -0.054387182
vn -0.007986565 0.4472004 -0.8943981
vn -0.0038258394 -0.5398567 -0.84174824
vn -0.00761673 -0.538192 -0.84278786
vn 0.06329957 -0.48089394 0.8744908
vn -3.898437E-07 -0.9986387 0.052161008
vn -0.0016233316 -0.9985789 0.053268243
vn -0.0032643848 -0.9985146 0.05438734
vn -0.08983829 0.48914254 0.8675648
vn -0.18841538 0.9805654 -0.054690577
vn -1.9230107E-07 -0.45414582 0.8909274
vn -0.0040122485 -0.4492876 0.89337814
vn -0.00798648 -0.44720045 0.8943982
vn -1.3844533E-07 0.544492 0.8387661
vn -2.4814346E-07 0.9986387 -0.052161194
vn -0.0038258855 0.53985703 0.84174806
vn -0.0076169474 0.538192 0.84278786
vn -0.0016233624 0.9985789 -0.053268157
vn -0.0032646842 0.9985146 -0.054387182
vn -0 0 1
vn -0 0 1
vn -0 0 1
vn -0 0 1
vn -0 0 1
vn -0 0 1
vn -0 0 1
vn -0 0 -1
vn -0 0 -1
vn -0 0 -1
vn -0 0 -1
vn -0 0 -1
vn -0 0 -1
vn -0 0 -1
g FG_vic_scene:ENV_flag_MO_5_0
f 3/3/3 2/2/2 1/1/1
f 4/4/4 3/3/3 1/1/1
f 4/4/4 1/1/1 5/5/5
f 6/6/6 3/3/3 4/4/4
f 7/7/7 4/4/4 5/5/5
f 7/7/7 5/5/5 8/8/8
f 9/9/9 6/6/6 4/4/4
f 9/9/9 4/4/4 7/7/7
f 10/10/10 6/6/6 9/9/9
f 11/11/11 7/7/7 8/8/8
f 11/11/11 8/8/8 12/12/12
f 13/13/13 9/9/9 7/7/7
f 13/13/13 7/7/7 11/11/11
f 14/14/14 10/10/10 9/9/9
f 15/15/15 10/10/10 14/14/14
f 16/16/16 11/11/11 12/12/12
f 16/16/16 12/12/12 17/17/17
f 18/18/18 13/13/13 11/11/11
f 18/18/18 11/11/11 16/16/16
f 19/19/19 9/9/9 13/13/13
f 14/14/14 9/9/9 19/19/19
f 19/19/19 13/13/13 18/18/18
f 20/20/20 15/15/15 14/14/14
f 21/21/21 15/15/15 20/20/20
f 22/22/22 16/16/16 17/17/17
f 22/22/22 17/17/17 23/23/23
f 24/24/24 22/22/22 23/23/23
f 25/25/25 18/18/18 16/16/16
f 25/25/25 16/16/16 22/22/22
f 26/26/26 22/22/22 24/24/24
f 26/26/26 25/25/25 22/22/22
f 27/27/27 26/26/26 24/24/24
f 28/28/28 19/19/19 18/18/18
f 28/28/28 18/18/18 25/25/25
f 29/29/29 14/14/14 19/19/19
f 20/20/20 14/14/14 29/29/29
f 29/29/29 19/19/19 28/28/28
f 30/30/30 21/21/21 20/20/20
f 31/31/31 21/21/21 30/30/30
f 32/32/32 28/28/28 25/25/25
f 32/32/32 25/25/25 26/26/26
f 33/33/33 26/26/26 27/27/27
f 34/34/34 33/33/33 27/27/27
f 35/35/35 29/29/29 28/28/28
f 35/35/35 28/28/28 32/32/32
f 36/36/36 20/20/20 29/29/29
f 30/30/30 20/20/20 36/36/36
f 36/36/36 29/29/29 35/35/35
f 37/37/37 32/32/32 26/26/26
f 37/37/37 35/35/35 32/32/32
f 33/33/33 37/37/37 26/26/26
f 38/38/38 31/31/31 30/30/30
f 39/39/39 31/31/31 38/38/38
f 40/40/40 33/33/33 34/34/34
f 41/41/41 40/40/40 34/34/34
f 42/42/42 36/36/36 35/35/35
f 42/42/42 35/35/35 37/37/37
f 43/43/43 30/30/30 36/36/36
f 38/38/38 30/30/30 43/43/43
f 43/43/43 36/36/36 42/42/42
f 44/44/44 37/37/37 33/33/33
f 44/44/44 42/42/42 37/37/37
f 40/40/40 44/44/44 33/33/33
f 45/45/45 39/39/39 38/38/38
f 46/46/46 39/39/39 45/45/45
f 47/47/47 40/40/40 41/41/41
f 48/48/48 47/47/47 41/41/41
f 49/49/49 43/43/43 42/42/42
f 49/49/49 42/42/42 44/44/44
f 50/50/50 38/38/38 43/43/43
f 45/45/45 38/38/38 50/50/50
f 50/50/50 43/43/43 49/49/49
f 51/51/51 44/44/44 40/40/40
f 51/51/51 49/49/49 44/44/44
f 47/47/47 51/51/51 40/40/40
f 52/52/52 46/46/46 45/45/45
f 53/53/53 46/46/46 52/52/52
f 54/54/54 47/47/47 48/48/48
f 55/55/55 54/54/54 48/48/48
f 56/56/56 50/50/50 49/49/49
f 56/56/56 49/49/49 51/51/51
f 57/57/57 45/45/45 50/50/50
f 52/52/52 45/45/45 57/57/57
f 57/57/57 50/50/50 56/56/56
f 58/58/58 51/51/51 47/47/47
f 58/58/58 56/56/56 51/51/51
f 54/54/54 58/58/58 47/47/47
f 59/59/59 53/53/53 52/52/52
f 60/60/60 53/53/53 59/59/59
f 61/61/61 54/54/54 55/55/55
f 62/62/62 61/61/61 55/55/55
f 63/63/63 57/57/57 56/56/56
f 63/63/63 56/56/56 58/58/58
f 64/64/64 52/52/52 57/57/57
f 59/59/59 52/52/52 64/64/64
f 64/64/64 57/57/57 63/63/63
f 65/65/65 58/58/58 54/54/54
f 65/65/65 63/63/63 58/58/58
f 61/61/61 65/65/65 54/54/54
f 66/66/66 60/60/60 59/59/59
f 67/67/67 60/60/60 66/66/66
f 68/68/68 61/61/61 62/62/62
f 69/69/69 68/68/68 62/62/62
f 70/70/70 64/64/64 63/63/63
f 70/70/70 63/63/63 65/65/65
f 71/71/71 59/59/59 64/64/64
f 66/66/66 59/59/59 71/71/71
f 71/71/71 64/64/64 70/70/70
f 72/72/72 65/65/65 61/61/61
f 72/72/72 70/70/70 65/65/65
f 68/68/68 72/72/72 61/61/61
f 73/73/73 67/67/67 66/66/66
f 74/74/74 67/67/67 73/73/73
f 75/75/75 68/68/68 69/69/69
f 76/76/76 75/75/75 69/69/69
f 77/77/77 71/71/71 70/70/70
f 77/77/77 70/70/70 72/72/72
f 78/78/78 66/66/66 71/71/71
f 73/73/73 66/66/66 78/78/78
f 78/78/78 71/71/71 77/77/77
f 79/79/79 72/72/72 68/68/68
f 79/79/79 77/77/77 72/72/72
f 75/75/75 79/79/79 68/68/68
f 80/80/80 75/75/75 76/76/76
f 81/81/81 80/80/80 76/76/76
f 82/82/82 78/78/78 77/77/77
f 82/82/82 77/77/77 79/79/79
f 83/83/83 79/79/79 75/75/75
f 80/80/80 83/83/83 75/75/75
f 83/83/83 82/82/82 79/79/79
f 84/84/84 80/80/80 81/81/81
f 85/85/85 84/84/84 81/81/81
f 86/86/86 78/78/78 82/82/82
f 86/86/86 73/73/73 78/78/78
f 87/87/87 83/83/83 80/80/80
f 84/84/84 87/87/87 80/80/80
f 88/88/88 82/82/82 83/83/83
f 88/88/88 86/86/86 82/82/82
f 87/87/87 88/88/88 83/83/83
f 89/89/89 73/73/73 86/86/86
f 89/89/89 86/86/86 88/88/88
f 90/90/90 88/88/88 87/87/87
f 90/90/90 89/89/89 88/88/88
f 91/91/91 73/73/73 89/89/89
f 91/91/91 74/74/74 73/73/73
f 92/92/92 74/74/74 91/91/91
f 93/93/93 91/91/91 89/89/89
f 93/93/93 89/89/89 90/90/90
f 94/94/94 92/92/92 91/91/91
f 94/94/94 91/91/91 93/93/93
f 95/95/95 92/92/92 94/94/94
f 96/96/96 90/90/90 87/87/87
f 96/96/96 87/87/87 84/84/84
f 97/97/97 93/93/93 90/90/90
f 97/97/97 90/90/90 96/96/96
f 98/98/98 94/94/94 93/93/93
f 98/98/98 93/93/93 97/97/97
f 99/99/99 95/95/95 94/94/94
f 99/99/99 94/94/94 98/98/98
f 100/100/100 95/95/95 99/99/99
f 101/101/101 100/100/100 99/99/99
f 101/101/101 99/99/99 102/102/102
f 102/102/102 99/99/99 98/98/98
f 103/103/103 101/101/101 102/102/102
f 104/104/104 96/96/96 84/84/84
f 104/104/104 97/97/97 96/96/96
f 105/105/105 98/98/98 97/97/97
f 102/102/102 98/98/98 105/105/105
f 105/105/105 97/97/97 104/104/104
f 103/103/103 102/102/102 106/106/106
f 106/106/106 102/102/102 105/105/105
f 107/107/107 103/103/103 106/106/106
f 108/108/108 104/104/104 84/84/84
f 108/108/108 84/84/84 85/85/85
f 109/109/109 108/108/108 85/85/85
f 110/110/110 105/105/105 104/104/104
f 106/106/106 105/105/105 110/110/110
f 110/110/110 104/104/104 108/108/108
f 107/107/107 106/106/106 111/111/111
f 111/111/111 106/106/106 110/110/110
f 112/112/112 107/107/107 111/111/111
f 113/113/113 108/108/108 109/109/109
f 113/113/113 110/110/110 108/108/108
f 111/111/111 110/110/110 113/113/113
f 114/114/114 113/113/113 109/109/109
f 112/112/112 111/111/111 115/115/115
f 115/115/115 111/111/111 113/113/113
f 115/115/115 113/113/113 114/114/114
f 116/116/116 112/112/112 115/115/115
f 117/117/117 115/115/115 114/114/114
f 116/116/116 115/115/115 117/117/117
f 118/118/118 116/116/116 117/117/117
f 121/121/121 120/120/120 119/119/119
f 122/122/122 120/120/120 121/121/121
f 123/123/123 122/122/122 121/121/121
f 124/124/124 123/123/123 121/121/121
f 125/125/125 124/124/124 121/121/121
f 128/128/128 127/127/127 126/126/126
f 128/128/128 129/129/129 127/127/127
f 129/129/129 130/130/130 127/127/127
f 130/130/130 131/131/131 127/127/127
f 131/131/131 132/132/132 127/127/127
