g Fillet135L_Mesh_Col
v -17.634111 -14.924086 17.634111
v -17.634111 -5 17.634108
v -12.122529 -5 21.754839
v -12.122528 -14.924086 21.75484
v -4.0385084 -5 24.557741
v -4.0385075 -14.924086 24.557743
v 4.70399 -5 24.44675
v 4.7039905 -14.924086 24.446753
v 13.460686 -14.924086 20.953112
v 13.460686 -5 20.95311
v 19.979748 -14.924086 14.94482
v 19.979746 -5 14.944818
v 23.889223 -5 7.1976895
v 23.889223 -14.924086 7.197692
v 24.911722 -5 -2.4414062E-06
v 24.911722 -14.924086 0
v -6.1035155E-07 -5 -2.4414062E-06
v -12.122529 -5 21.754839
v -17.634111 -5 17.634108
v -4.0385084 -5 24.557741
v 4.70399 -5 24.44675
v 13.460686 -5 20.95311
v 19.979746 -5 14.944818
v 23.889223 -5 7.1976895
v 24.911722 -5 -2.4414062E-06
v -12.122528 -14.924086 21.75484
v -0 -14.938399 0
v -17.634111 -14.924086 17.634111
v -4.0385075 -14.924086 24.557743
v 4.7039905 -14.924086 24.446753
v 13.460686 -14.924086 20.953112
v 19.979748 -14.924086 14.94482
v 23.889223 -14.924086 7.197692
v 24.911722 -14.924086 0
v -0 -14.938399 0
v 24.911722 -14.924086 0
v 24.911722 -5 -2.4414062E-06
v -6.1035155E-07 -5 -2.4414062E-06
v -17.634111 -14.924086 17.634111
v -0 -14.938399 0
v -6.1035155E-07 -5 -2.4414062E-06
v -17.634111 -5 17.634108
vn -0.5987939 1.7281035E-07 0.800903
vn -0.5987939 1.7281035E-07 0.800903
vn -0.45379934 1.9085687E-07 0.8911039
vn -0.45379934 1.9085691E-07 0.8911039
vn -0.15797175 2.2769959E-07 0.9874436
vn -0.15797174 2.2769963E-07 0.9874436
vn 0.20175268 2.617486E-07 0.97943646
vn 0.20175266 2.617486E-07 0.97943646
vn 0.52818245 2.800602E-07 0.8491309
vn 0.5281824 2.8006022E-07 0.8491309
vn 0.7968756 2.2603534E-07 0.6041435
vn 0.7968756 2.2603534E-07 0.6041435
vn 0.9496252 1.1459773E-07 0.31338814
vn 0.9496251 1.14597746E-07 0.31338817
vn 0.99005973 0 0.14064732
vn 0.99005973 0 0.14064732
vn -0 1 0
vn -0 1 0
vn -0 1 0
vn -0 1 0
vn -0 1 0
vn -0 1 0
vn -0 1 0
vn -0 1 0
vn -0 1 0
vn -0.000262125 -0.9999999 0.0005118824
vn 0.00018263317 -0.9999999 0.00043256013
vn -0.0003472561 -0.9999999 0.0004643604
vn -9.10323E-05 -0.9999999 0.0005679484
vn 0.000115554096 -0.9999999 0.0005633199
vn 0.00030418142 -0.9999999 0.00048771524
vn 0.00045737167 -0.9999999 0.00034638835
vn 0.0005452145 -0.9999999 0.00017925154
vn 0.0005745874 -0.9999999 8.1703474E-05
vn -0 -2.4583088E-07 -1
vn -0 -2.4583088E-07 -1
vn -0 -2.4583088E-07 -1
vn -0 -2.4583088E-07 -1
vn -0.7071068 -1.5141157E-07 -0.70710677
vn -0.7071068 -1.5141157E-07 -0.70710677
vn -0.7071068 -1.5141156E-07 -0.70710677
vn -0.70710677 -1.5141157E-07 -0.70710677
g Fillet135L_Mesh_Col_0
f 3/3/3 2/2/2 1/1/1
f 4/4/4 3/3/3 1/1/1
f 5/5/5 3/3/3 4/4/4
f 6/6/6 5/5/5 4/4/4
f 7/7/7 5/5/5 6/6/6
f 8/8/8 7/7/7 6/6/6
f 7/7/7 8/8/8 9/9/9
f 10/10/10 7/7/7 9/9/9
f 10/10/10 9/9/9 11/11/11
f 12/12/12 10/10/10 11/11/11
f 13/13/13 12/12/12 11/11/11
f 14/14/14 13/13/13 11/11/11
f 15/15/15 13/13/13 14/14/14
f 16/16/16 15/15/15 14/14/14
f 19/19/19 18/18/18 17/17/17
f 20/20/20 17/17/17 18/18/18
f 21/21/21 17/17/17 20/20/20
f 22/22/22 17/17/17 21/21/21
f 23/23/23 17/17/17 22/22/22
f 24/24/24 17/17/17 23/23/23
f 25/25/25 17/17/17 24/24/24
f 28/28/28 27/27/27 26/26/26
f 29/29/29 26/26/26 27/27/27
f 30/30/30 29/29/29 27/27/27
f 31/31/31 30/30/30 27/27/27
f 32/32/32 31/31/31 27/27/27
f 33/33/33 32/32/32 27/27/27
f 34/34/34 33/33/33 27/27/27
f 37/37/37 36/36/36 35/35/35
f 38/38/38 37/37/37 35/35/35
f 41/41/41 40/40/40 39/39/39
f 42/42/42 41/41/41 39/39/39
