g Fillet45R_Mesh_Col
v 20.015472 5 14.847117
v 17.615248 5 17.615248
v 17.615248 14.935791 17.615248
v 20.015472 14.935791 14.847117
v 22.961987 5 9.660227
v 22.961987 14.935791 9.660227
v 24.6954 5 3.560231
v 24.6954 14.935791 3.560231
v 24.938398 5 0
v 24.938398 14.935791 0
v -0 14.938399 0
v 24.938398 14.935791 0
v 24.6954 14.935791 3.560231
v 22.961987 14.935791 9.660227
v 20.015472 14.935791 14.847117
v 17.615248 14.935791 17.615248
v -0 5 0
v 17.615248 5 17.615248
v 20.015472 5 14.847117
v 22.961987 5 9.660227
v 24.6954 5 3.560231
v 24.938398 5 0
v -0 14.938399 0
v -0 5 0
v 24.938398 5 0
v 24.938398 14.935791 0
v 17.615248 14.935791 17.615248
v 17.615248 5 17.615248
v -0 5 0
v -0 14.938399 0
vn 0.82995504 0 0.5578303
vn 0.7555302 0 0.65511376
vn 0.7555302 0 0.65511376
vn 0.82995504 0 0.5578303
vn 0.9237422 0 0.38301498
vn 0.9237422 0 0.38301498
vn 0.97970587 0 0.20044059
vn 0.97970587 0 0.20044059
vn 0.9976788 0 0.06809501
vn 0.9976788 0 0.06809501
vn 9.1693255E-05 1 5.218028E-05
vn 0.00010460346 1 7.3209358E-06
vn 0.000101475554 1 2.8696559E-05
vn 9.1693255E-05 1 5.218028E-05
vn 9.169324E-05 1 5.2180276E-05
vn 7.931589E-05 1 6.84438E-05
vn -0 -1 0
vn -0 -1 0
vn -0 -1 0
vn -0 -1 0
vn -0 -1 0
vn -0 -1 0
vn -0 0 -1
vn -0 0 -1
vn -0 0 -1
vn -0 0 -1
vn -0.7071068 0 0.70710677
vn -0.7071068 0 0.70710677
vn -0.7071068 0 0.70710677
vn -0.7071068 0 0.70710665
g Fillet45R_Mesh_Col_0
f 3/3/3 2/2/2 1/1/1
f 4/4/4 3/3/3 1/1/1
f 4/4/4 1/1/1 5/5/5
f 6/6/6 4/4/4 5/5/5
f 6/6/6 5/5/5 7/7/7
f 8/8/8 6/6/6 7/7/7
f 8/8/8 7/7/7 9/9/9
f 10/10/10 8/8/8 9/9/9
f 13/13/13 12/12/12 11/11/11
f 14/14/14 13/13/13 11/11/11
f 15/15/15 14/14/14 11/11/11
f 11/11/11 16/16/16 15/15/15
f 19/19/19 18/18/18 17/17/17
f 17/17/17 20/20/20 19/19/19
f 17/17/17 21/21/21 20/20/20
f 17/17/17 22/22/22 21/21/21
f 25/25/25 24/24/24 23/23/23
f 26/26/26 25/25/25 23/23/23
f 29/29/29 28/28/28 27/27/27
f 30/30/30 29/29/29 27/27/27
