g Hexagon_15_MO
v -1.1175818 0.2687545 2.0068152
v -1.1175818 -0.003842151 2.0068152
v -1.1791618 -0.0038421303 1.9712619
v -1.1791618 0.2687545 1.9712619
v -2.2967436 -0.00384154 0.0355532
v -2.2967436 0.26875508 0.03555328
v -2.2967436 -0.003841537 -0.035553202
v -2.2967436 0.26875508 -0.035553124
v -1.1791618 -0.0038409664 -1.9712619
v -2.2735813 0.31718165 0.035553295
v -1.1791618 0.26875567 -1.9712619
v -1.1175818 -0.0038409452 -2.0068152
v -1.1175818 0.26875567 -2.0068152
v -1.1675806 0.31718218 -1.9512031
v -2.2735813 0.31718165 -0.03555311
v -1.1060008 0.31718105 1.9867564
v -1.1675806 0.31718108 1.9512031
v -2.088262 0.47767317 0.035553344
v 1.1175818 0.2687545 2.0068152
v -1.1175818 -0.003842151 2.0068152
v 1.1175818 -0.003842151 2.0068152
v -1.0749209 0.47767368 -1.7907116
v -1.1060008 0.3171822 -1.9867564
v -2.088262 0.47767317 -0.03555306
v -1.013341 0.47767264 1.8262649
v -1.0749209 0.47767264 1.7907116
v -2.027335 0.49773207 1.4711199E-07
v -1.0136672 0.4977327 -1.7557238
v -1.0136672 0.49773163 1.7557238
v 1.1060008 0.31718105 1.9867564
v -1.013341 0.47767368 -1.8262647
v -0 0.49773207 1.4715432E-07
v 1.013341 0.47767264 1.8262649
v 1.0136672 0.4977327 -1.7557238
v 1.013341 0.47767368 -1.8262647
v 1.0136672 0.49773163 1.7557238
v 1.0749209 0.47767264 1.7907116
v 1.1675806 0.31718108 1.9512031
v 2.027335 0.49773207 -4.1952156E-08
v 2.088262 0.47767317 0.03555315
v 1.0749209 0.47767368 -1.7907116
v 1.1060008 0.3171822 -1.9867564
v 2.2735813 0.31718165 0.035553094
v 2.088262 0.47767317 -0.035553254
v 1.1675806 0.31718218 -1.9512031
v 2.2735813 0.31718165 -0.035553306
v 2.2967436 0.26875508 0.03555308
v 1.1791618 0.26875567 -1.9712619
v 1.1175818 0.26875567 -2.0068152
v 1.1175818 -0.0038409452 -2.0068152
v -1.1175818 -0.0038409452 -2.0068152
v 1.1791618 -0.0038409664 -1.9712619
v 1.1175818 -0.0038409452 -2.0068152
v 2.2967436 -0.003841537 -0.035553403
v 2.2967436 0.26875508 -0.03555332
v 2.2967436 -0.00384154 0.035553
v 1.1791618 -0.0038421303 1.9712619
v 1.1791618 0.2687545 1.9712619
v 1.1175818 -0.003842151 2.0068152
v -1.1791618 -0.0038409664 -1.9712619
v -2.2967436 -0.003841537 -0.035553202
v -0.14526142 -0.0038412947 -0.2423482
v -1.1175818 -0.0038409452 -2.0068152
v -2.2967436 -0.00384154 0.0355532
v 1.1175818 -0.0038409452 -2.0068152
v -1.1791618 -0.0038421303 1.9712619
v 1.1791618 -0.0038409664 -1.9712619
v -1.1175818 -0.003842151 2.0068152
v 2.2967436 -0.003841537 -0.035553403
v 1.1175818 -0.003842151 2.0068152
v 2.2967436 -0.00384154 0.035553
v 1.1791618 -0.0038421303 1.9712619
vt 0.83447665 0.029830713
vt 0.8317825 0.019833395
vt 0.82452464 0.024044342
vt 0.83186 0.031314723
vt 0.7758523 0.10998486
vt 0.7858924 0.112634555
vt 0.7758523 0.118301764
vt 0.7858924 0.11565206
vt 0.8245245 0.20424229
vt 0.7869157 0.112666026
vt 0.8318599 0.1969719
vt 0.8317824 0.2084531
vt 0.8344766 0.19845591
vt 0.8323079 0.19611554
vt 0.7869157 0.11562059
vt 0.83495903 0.03069909
vt 0.83230793 0.03217109
vt 0.7961439 0.11307613
vt 0.9278883 0.029830713
vt 0.8317825 0.019833395
vt 0.93058234 0.019833395
vt 0.83717054 0.18838459
vt 0.8349589 0.19758753
vt 0.7961439 0.11521049
vt 0.83920234 0.03888986
vt 0.83717054 0.039902147
vt 0.79784596 0.114143305
vt 0.8391704 0.18713267
vt 0.83917046 0.041153956
vt 0.92740595 0.03069909
vt 0.83920234 0.18939677
vt 0.88118225 0.114143185
vt 0.9231625 0.03888986
vt 0.92319435 0.18713255
vt 0.92316246 0.18939677
vt 0.92319435 0.041153956
vt 0.9251943 0.039902024
vt 0.930057 0.03217109
vt 0.96451885 0.114143185
vt 0.966221 0.11307613
vt 0.92519426 0.18838447
vt 0.92740583 0.19758742
vt 0.97544914 0.11266591
vt 0.966221 0.11521049
vt 0.9300569 0.19611542
vt 0.97544914 0.11562071
vt 0.97647244 0.112634555
vt 0.93050486 0.19697177
vt 0.92788815 0.1984558
vt 0.9305823 0.20845298
vt 0.8317824 0.2084531
vt 0.93784016 0.20424215
vt 0.9305823 0.20845298
vt 0.98651254 0.118301764
vt 0.97647244 0.11565206
vt 0.98651254 0.10998486
vt 0.9378403 0.024044223
vt 0.930505 0.031314723
vt 0.93058234 0.019833395
vt 0.76436865 0.24984297
vt 0.79301953 0.25377026
vt 0.7800284 0.22899187
vt 0.76364124 0.24927905
vt 0.79387474 0.2534207
vt 0.75270015 0.2225099
vt 0.8116109 0.23057157
vt 0.7528257 0.22159423
vt 0.8117361 0.22964846
vt 0.7705368 0.19872542
vt 0.80080587 0.2028611
vt 0.7714001 0.19837403
vt 0.80006623 0.20228767
vn -0.014967657 0.055567432 0.99834275
vn -0.49967927 0 0.8662105
vn -0.85821825 0 0.51328486
vn -0.8562997 0.05557714 0.51348037
vn -0.8737843 0 0.4863137
vn -0.87282395 0.05539363 0.4848814
vn -0.8737843 0 -0.4863137
vn -0.87282395 0.05539363 -0.4848814
vn -0.85821825 0 -0.51328486
vn -0.6775549 0.6338055 0.37310854
vn -0.8563085 0.05539058 -0.51348567
vn -0.49967927 0 -0.8662105
vn -0.014967813 0.05538091 -0.9983531
vn -0.6622617 0.63476104 -0.39810535
vn -0.67754304 0.6337944 -0.3731488
vn -0.014226559 0.63457936 0.7727268
vn -0.6622617 0.63476104 0.39810535
vn -0.5507479 0.7752374 0.30932796
vn 0.014967657 0.055567432 0.99834275
vn -0 0 1
vn -0 0 1
vn -0.54409355 0.77422935 -0.3233128
vn -0.014226559 0.63457936 -0.7727268
vn -0.5507479 0.7752374 -0.30932796
vn -0.0074854484 0.77511823 0.6317718
vn -0.54425114 0.7740794 0.3234065
vn -0.02394523 0.99971324 2.707309E-07
vn -0.013473008 0.99962234 -0.023952015
vn -0.013478049 0.999622 0.023960974
vn 0.014226559 0.63457936 0.7727268
vn -0.007483277 0.77526754 -0.63158864
vn -0 1 2.964171E-07
vn 0.0074854484 0.77511823 0.6317718
vn 0.013473008 0.99962234 -0.023952015
vn 0.007483277 0.77526754 -0.63158864
vn 0.013478049 0.999622 0.023960974
vn 0.54425114 0.7740794 0.3234065
vn 0.6622617 0.63476104 0.39810535
vn 0.02394523 0.99971324 2.649773E-07
vn 0.5507479 0.7752374 0.30932796
vn 0.54409355 0.77422935 -0.3233128
vn 0.014226559 0.63457936 -0.7727268
vn 0.677549 0.63379997 0.3731287
vn 0.5507479 0.7752374 -0.30932796
vn 0.6622617 0.63476104 -0.39810535
vn 0.67753714 0.6337888 -0.3731689
vn 0.87281406 0.055393007 0.4848993
vn 0.8563085 0.05539058 -0.51348567
vn 0.014967813 0.05538091 -0.9983531
vn -0 0 -1
vn -0 0 -1
vn 0.85821825 0 -0.51328486
vn 0.49967927 0 -0.8662105
vn 0.8737743 0 -0.48633155
vn 0.87281406 0.055393007 -0.4848993
vn 0.8737843 0 0.4863137
vn 0.85821825 0 0.51328486
vn 0.8562997 0.05557714 0.51348037
vn 0.49967927 0 0.8662105
vn -0 -1 0
vn -0 -1 0
vn -0 -1 0
vn -0 -1 0
vn -0 -1 0
vn -0 -1 0
vn -0 -1 0
vn -0 -1 0
vn -0 -1 0
vn -0 -1 0
vn -0 -1 0
vn -0 -1 0
vn -0 -1 0
g Hexagon_15_MO_0
f 3/3/3 2/2/2 1/1/1
f 4/4/4 3/3/3 1/1/1
f 5/5/5 3/3/3 4/4/4
f 6/6/6 5/5/5 4/4/4
f 5/5/5 6/6/6 7/7/7
f 6/6/6 8/8/8 7/7/7
f 9/9/9 7/7/7 8/8/8
f 6/6/6 4/4/4 10/10/10
f 8/8/8 6/6/6 10/10/10
f 11/11/11 9/9/9 8/8/8
f 12/12/12 9/9/9 11/11/11
f 13/13/13 12/12/12 11/11/11
f 14/14/14 11/11/11 8/8/8
f 13/13/13 11/11/11 14/14/14
f 15/15/15 8/8/8 10/10/10
f 15/15/15 14/14/14 8/8/8
f 4/4/4 1/1/1 16/16/16
f 4/4/4 17/17/17 10/10/10
f 17/17/17 4/4/4 16/16/16
f 10/10/10 18/18/18 15/15/15
f 10/10/10 17/17/17 18/18/18
f 1/1/1 19/19/19 16/16/16
f 1/1/1 20/20/20 19/19/19
f 20/20/20 21/21/21 19/19/19
f 22/22/22 14/14/14 15/15/15
f 23/23/23 13/13/13 14/14/14
f 14/14/14 22/22/22 23/23/23
f 18/18/18 24/24/24 15/15/15
f 24/24/24 22/22/22 15/15/15
f 16/16/16 25/25/25 17/17/17
f 17/17/17 26/26/26 18/18/18
f 25/25/25 26/26/26 17/17/17
f 18/18/18 27/27/27 24/24/24
f 18/18/18 26/26/26 27/27/27
f 28/28/28 22/22/22 24/24/24
f 27/27/27 28/28/28 24/24/24
f 26/26/26 29/29/29 27/27/27
f 25/25/25 29/29/29 26/26/26
f 16/16/16 30/30/30 25/25/25
f 19/19/19 30/30/30 16/16/16
f 22/22/22 31/31/31 23/23/23
f 22/22/22 28/28/28 31/31/31
f 32/32/32 28/28/28 27/27/27
f 32/32/32 27/27/27 29/29/29
f 25/25/25 33/33/33 29/29/29
f 30/30/30 33/33/33 25/25/25
f 28/28/28 34/34/34 31/31/31
f 32/32/32 34/34/34 28/28/28
f 23/23/23 31/31/31 35/35/35
f 34/34/34 35/35/35 31/31/31
f 32/32/32 29/29/29 36/36/36
f 33/33/33 36/36/36 29/29/29
f 37/37/37 33/33/33 30/30/30
f 37/37/37 36/36/36 33/33/33
f 30/30/30 19/19/19 38/38/38
f 38/38/38 37/37/37 30/30/30
f 32/32/32 39/39/39 34/34/34
f 32/32/32 36/36/36 39/39/39
f 37/37/37 40/40/40 36/36/36
f 40/40/40 39/39/39 36/36/36
f 41/41/41 34/34/34 39/39/39
f 35/35/35 34/34/34 41/41/41
f 42/42/42 23/23/23 35/35/35
f 23/23/23 42/42/42 13/13/13
f 43/43/43 40/40/40 37/37/37
f 38/38/38 43/43/43 37/37/37
f 44/44/44 39/39/39 40/40/40
f 44/44/44 41/41/41 39/39/39
f 44/44/44 40/40/40 43/43/43
f 41/41/41 45/45/45 35/35/35
f 45/45/45 41/41/41 44/44/44
f 45/45/45 42/42/42 35/35/35
f 46/46/46 44/44/44 43/43/43
f 46/46/46 45/45/45 44/44/44
f 47/47/47 43/43/43 38/38/38
f 43/43/43 47/47/47 46/46/46
f 45/45/45 48/48/48 42/42/42
f 48/48/48 45/45/45 46/46/46
f 42/42/42 49/49/49 13/13/13
f 48/48/48 49/49/49 42/42/42
f 49/49/49 50/50/50 13/13/13
f 50/50/50 51/51/51 13/13/13
f 48/48/48 52/52/52 49/49/49
f 52/52/52 53/53/53 49/49/49
f 54/54/54 52/52/52 48/48/48
f 55/55/55 48/48/48 46/46/46
f 55/55/55 54/54/54 48/48/48
f 47/47/47 55/55/55 46/46/46
f 56/56/56 54/54/54 55/55/55
f 47/47/47 56/56/56 55/55/55
f 57/57/57 56/56/56 47/47/47
f 58/58/58 57/57/57 47/47/47
f 58/58/58 47/47/47 38/38/38
f 59/59/59 57/57/57 58/58/58
f 19/19/19 58/58/58 38/38/38
f 19/19/19 59/59/59 58/58/58
f 62/62/62 61/61/61 60/60/60
f 62/62/62 60/60/60 63/63/63
f 61/61/61 62/62/62 64/64/64
f 62/62/62 63/63/63 65/65/65
f 62/62/62 66/66/66 64/64/64
f 62/62/62 65/65/65 67/67/67
f 62/62/62 68/68/68 66/66/66
f 62/62/62 67/67/67 69/69/69
f 62/62/62 70/70/70 68/68/68
f 62/62/62 69/69/69 71/71/71
f 62/62/62 72/72/72 70/70/70
f 62/62/62 71/71/71 72/72/72
