g Jumbotron_Screen
v -6.8993535 -3.9819293 0.00011205673
v -0.00011205673 -3.9724522 0.00011205673
v -0.00011205673 -4.0108128 -0.08382988
v 6.8993554 -3.9819293 0.00011205673
v -6.966146 -4.0205154 -0.08382988
v 6.9661474 -4.0205154 -0.08382988
v -7.048282 -3.9753857 0.00011205673
v 7.048284 -3.9753857 0.00011205673
v -7.116429 -4.0137463 -0.08382988
v 7.1164303 -4.0137463 -0.08382988
v -7.192473 -3.9374764 0.00011205673
v 7.1924744 -3.9374764 0.00011205673
v -7.262199 -3.9756112 -0.08382988
v 7.2622 -3.9756112 -0.08382988
v -7.2825074 -3.8627863 0.00011205673
v 7.2825084 -3.8627863 0.00011205673
v -7.3529096 -3.9002442 -0.08382988
v 7.3529115 -3.9002442 -0.08382988
v 7.3231254 -3.758536 0.00011205673
v 7.3939795 -3.7948658 -0.08382988
v -7.3231244 -3.758536 0.00011205673
v -7.3939776 -3.7948658 -0.08382988
v 7.3231254 0.00011205673 0.00011205673
v 7.3939795 0.00011205673 -0.08382988
v 7.3939795 3.7948642 -0.08382988
v 7.3231254 3.758535 0.00011205673
v 7.3529115 3.9002423 -0.08382988
v 7.2825084 3.8627849 0.00011205673
v 7.2622 3.9756093 -0.08382988
v 7.1924744 3.9374747 0.00011205673
v 7.1164303 4.013745 -0.08382988
v 7.048284 3.9753842 0.00011205673
v 6.9661474 4.020514 -0.08382988
v 6.8993554 3.9819274 0.00011205673
v -0.00011205673 4.0110364 -0.08382988
v -0.00011205673 3.9724507 0.00011205673
v -6.8993535 3.9819274 0.00011205673
v -6.966146 4.020514 -0.08382988
v -7.048282 3.9753842 0.00011205673
v -7.116429 4.013745 -0.08382988
v -7.192473 3.9374747 0.00011205673
v -7.262199 3.9756093 -0.08382988
v -7.2825074 3.8627849 0.00011205673
v -7.3529096 3.9002423 -0.08382988
v -7.3231244 3.758535 0.00011205673
v -7.3939776 3.7948642 -0.08382988
v -7.3939776 0.00011205673 -0.08382988
v -7.3231244 0.00011205673 0.00011205673
v 7.3231254 3.758535 0.00011205673
v 7.3231254 0.00011205673 0.00011205673
v -0.00011205673 0.00011205673 0.00011205673
v 7.3231254 -3.758536 0.00011205673
v 7.0661106 3.7948642 0.00011205673
v 7.2825084 3.8627849 0.00011205673
v 7.1924744 3.9374747 0.00011205673
v 7.048284 3.9753842 0.00011205673
v 6.8993554 3.9819274 0.00011205673
v -0.00011205673 3.9724507 0.00011205673
v -6.8993535 3.9819274 0.00011205673
v 7.0661106 -3.7948658 0.00011205673
v 7.2825084 -3.8627863 0.00011205673
v 7.1924744 -3.9374764 0.00011205673
v 7.048284 -3.9753857 0.00011205673
v 6.8993554 -3.9819293 0.00011205673
v -0.00011205673 -3.9724522 0.00011205673
v -6.8993535 -3.9819293 0.00011205673
v -7.066109 3.7948642 0.00011205673
v -7.048282 3.9753842 0.00011205673
v -7.192473 3.9374747 0.00011205673
v -7.2825074 3.8627849 0.00011205673
v -7.3231244 3.758535 0.00011205673
v -7.3231244 0.00011205673 0.00011205673
v -7.066109 -3.7948658 0.00011205673
v -7.048282 -3.9753857 0.00011205673
v -7.3231244 -3.758536 0.00011205673
v -7.192473 -3.9374764 0.00011205673
v -7.2825074 -3.8627863 0.00011205673
vt 0.016617768 0.75073314
vt 0.25024435 0.75171065
vt 0.25024435 0.75073314
vt 0.4828934 0.75073314
vt 0.014662732 0.7497556
vt 0.485826 0.7497556
vt 0.011730181 0.75171065
vt 0.48875853 0.75171065
vt 0.009775147 0.7497556
vt 0.49071357 0.7497556
vt 0.006842596 0.75268817
vt 0.49364612 0.75268817
vt 0.004887562 0.75171065
vt 0.49560115 0.75171065
vt 0.0039100447 0.7546432
vt 0.49657866 0.7546432
vt 0.0009774932 0.7536657
vt 0.4985337 0.7536657
vt 0.49755618 0.75855327
vt 0.50048876 0.75659823
vt 0.0019550102 0.75855327
vt -2.389957E-08 0.75659823
vt 0.49755618 0.8748778
vt 0.50048876 0.8748778
vt 0.50048876 0.9931574
vt 0.49755618 0.9921799
vt 0.4985337 0.99608994
vt 0.49657866 0.9951124
vt 0.49560115 0.9990225
vt 0.49364612 0.99706745
vt 0.49071357 1
vt 0.48875853 0.9990225
vt 0.485826 1
vt 0.4828934 0.9990225
vt 0.25024435 1
vt 0.25024435 0.99804497
vt 0.016617768 0.9990225
vt 0.014662732 1
vt 0.011730181 0.9990225
vt 0.009775147 1
vt 0.006842596 0.99706745
vt 0.004887562 0.9990225
vt 0.0039100447 0.9951124
vt 0.0009774932 0.99608994
vt 0.0019550102 0.9921799
vt -2.389957E-08 0.9931574
vt -2.389957E-08 0.8748778
vt 0.0019550102 0.8748778
vt 0.49755618 0.9921799
vt 0.49755618 0.8748778
vt 0.25024435 0.8748778
vt 0.49755618 0.75855327
vt 0.48875853 0.9931574
vt 0.49657866 0.9951124
vt 0.49364612 0.99706745
vt 0.48875853 0.9990225
vt 0.4828934 0.9990225
vt 0.25024435 0.99804497
vt 0.016617768 0.9990225
vt 0.48875853 0.75659823
vt 0.49657866 0.7546432
vt 0.49364612 0.75268817
vt 0.48875853 0.75171065
vt 0.4828934 0.75073314
vt 0.25024435 0.75171065
vt 0.016617768 0.75073314
vt 0.010752664 0.9931574
vt 0.011730181 0.9990225
vt 0.006842596 0.99706745
vt 0.0039100447 0.9951124
vt 0.0019550102 0.9921799
vt 0.0019550102 0.8748778
vt 0.010752664 0.75659823
vt 0.011730181 0.75171065
vt 0.0019550102 0.75855327
vt 0.006842596 0.75268817
vt 0.0039100447 0.7546432
vn -0.010692775 -0.9017564 0.43211237
vn -0.0035642385 -0.90888494 0.4170317
vn -0.0035642385 -0.90888494 0.4170317
vn 0.010692775 -0.9017564 0.43211237
vn -0.024949789 -0.9017564 0.43152392
vn 0.024949789 -0.9017564 0.43152392
vn -0.09623486 -0.8732424 0.47768882
vn 0.09623486 -0.8732424 0.47768882
vn -0.16039151 -0.84472835 0.5105963
vn 0.16039145 -0.84472835 0.5105963
vn -0.3243472 -0.73067224 0.6007637
vn 0.3243472 -0.73067224 0.6007637
vn -0.38850373 -0.6736441 0.6287038
vn 0.3885038 -0.6736441 0.6287038
vn -0.58097345 -0.43840334 0.6857641
vn 0.5809735 -0.43840334 0.685764
vn -0.5952305 -0.4170178 0.6868747
vn 0.5952305 -0.4170178 0.6868747
vn 0.73067224 -0.11762041 0.6725203
vn 0.7235437 -0.15326297 0.67304903
vn -0.7306722 -0.11762041 0.67252034
vn -0.7235437 -0.15326297 0.67304903
vn 0.76631474 0.0035642385 0.64245546
vn 0.76631474 0.0035642385 0.64245546
vn 0.7235437 0.15326291 0.67304903
vn 0.73067224 0.11762041 0.6725203
vn 0.5952305 0.41701776 0.6868747
vn 0.5809735 0.4384033 0.685764
vn 0.3885038 0.6736441 0.6287038
vn 0.3243472 0.7306722 0.6007637
vn 0.16039145 0.8447283 0.5105964
vn 0.09623486 0.87324244 0.4776887
vn 0.024949789 0.90175647 0.4315238
vn 0.010692775 0.90175647 0.43211222
vn -0.0035642385 0.90888494 0.4170317
vn -0.0035642385 0.90888494 0.4170317
vn -0.010692775 0.90175647 0.43211222
vn -0.024949789 0.90175647 0.4315238
vn -0.09623486 0.87324244 0.4776887
vn -0.16039151 0.8447283 0.5105964
vn -0.3243472 0.7306722 0.6007637
vn -0.38850373 0.6736441 0.6287038
vn -0.58097345 0.4384033 0.68576413
vn -0.5952305 0.41701776 0.6868747
vn -0.7306722 0.11762041 0.67252034
vn -0.7235437 0.15326291 0.67304903
vn -0.7663147 0.0035642385 0.6424555
vn -0.7663147 0.0035642385 0.6424555
vn 0.0035642385 0.0035642385 0.9999873
vn -0.0035642385 0.0035642385 0.9999873
vn -0.0035642385 0.0035642385 0.9999873
vn -0.0035642385 -0.0035642385 0.9999873
vn 0.0035642385 0.0035642385 0.9999873
vn 0.0035642385 0.0035642385 0.9999873
vn 0.0035642385 0.0035642385 0.9999873
vn 0.0035642385 0.0035642385 0.9999873
vn -0.0035642385 0.0035642385 0.9999873
vn -0.0035642385 0.0035642385 0.9999873
vn -0.0035642385 0.0035642385 0.9999873
vn -0.0035642385 -0.0035642385 0.9999873
vn 0.0035642385 -0.0035642385 0.9999873
vn 0.0035642385 -0.0035642385 0.9999873
vn -0.0035642385 -0.0035642385 0.9999873
vn -0.0035642385 -0.0035642385 0.9999873
vn -0.0035642385 0.0035642385 0.9999873
vn 0.0035642385 -0.0035642385 0.9999873
vn -0.0035642385 0.0035642385 0.9999873
vn -0.0035642385 0.0035642385 0.9999873
vn -0.0035642385 0.0035642385 0.9999873
vn -0.0035642385 0.0035642385 0.9999873
vn -0.0035642385 0.0035642385 0.9999873
vn -0.0035642385 0.0035642385 0.9999873
vn -0.0035642385 -0.0035642385 0.9999873
vn 0.0035642385 -0.0035642385 0.9999873
vn -0.0035642385 -0.0035642385 0.9999873
vn -0.0035642385 -0.0035642385 0.9999873
vn -0.0035642385 -0.0035642385 0.9999873
g Jumbotron_Screen_0
f 3/3/3 2/2/2 1/1/1
f 2/2/2 3/3/3 4/4/4
f 5/5/5 3/3/3 1/1/1
f 3/3/3 6/6/6 4/4/4
f 5/5/5 1/1/1 7/7/7
f 4/4/4 6/6/6 8/8/8
f 9/9/9 5/5/5 7/7/7
f 6/6/6 10/10/10 8/8/8
f 9/9/9 7/7/7 11/11/11
f 8/8/8 10/10/10 12/12/12
f 13/13/13 9/9/9 11/11/11
f 10/10/10 14/14/14 12/12/12
f 13/13/13 11/11/11 15/15/15
f 12/12/12 14/14/14 16/16/16
f 17/17/17 13/13/13 15/15/15
f 14/14/14 18/18/18 16/16/16
f 16/16/16 18/18/18 19/19/19
f 18/18/18 20/20/20 19/19/19
f 17/17/17 15/15/15 21/21/21
f 22/22/22 17/17/17 21/21/21
f 19/19/19 20/20/20 23/23/23
f 20/20/20 24/24/24 23/23/23
f 23/23/23 24/24/24 25/25/25
f 26/26/26 23/23/23 25/25/25
f 25/25/25 27/27/27 26/26/26
f 27/27/27 28/28/28 26/26/26
f 27/27/27 29/29/29 28/28/28
f 29/29/29 30/30/30 28/28/28
f 29/29/29 31/31/31 30/30/30
f 31/31/31 32/32/32 30/30/30
f 31/31/31 33/33/33 32/32/32
f 33/33/33 34/34/34 32/32/32
f 33/33/33 35/35/35 34/34/34
f 35/35/35 36/36/36 34/34/34
f 36/36/36 35/35/35 37/37/37
f 35/35/35 38/38/38 37/37/37
f 37/37/37 38/38/38 39/39/39
f 38/38/38 40/40/40 39/39/39
f 39/39/39 40/40/40 41/41/41
f 40/40/40 42/42/42 41/41/41
f 41/41/41 42/42/42 43/43/43
f 42/42/42 44/44/44 43/43/43
f 43/43/43 44/44/44 45/45/45
f 44/44/44 46/46/46 45/45/45
f 46/46/46 47/47/47 45/45/45
f 47/47/47 48/48/48 45/45/45
f 21/21/21 48/48/48 47/47/47
f 22/22/22 21/21/21 47/47/47
f 51/51/51 50/50/50 49/49/49
f 52/52/52 50/50/50 51/51/51
f 53/53/53 51/51/51 49/49/49
f 53/53/53 49/49/49 54/54/54
f 53/53/53 54/54/54 55/55/55
f 55/55/55 56/56/56 53/53/53
f 56/56/56 57/57/57 53/53/53
f 53/53/53 57/57/57 51/51/51
f 57/57/57 58/58/58 51/51/51
f 58/58/58 59/59/59 51/51/51
f 60/60/60 52/52/52 51/51/51
f 52/52/52 60/60/60 61/61/61
f 61/61/61 60/60/60 62/62/62
f 63/63/63 62/62/62 60/60/60
f 64/64/64 63/63/63 60/60/60
f 64/64/64 60/60/60 51/51/51
f 65/65/65 64/64/64 51/51/51
f 66/66/66 65/65/65 51/51/51
f 59/59/59 67/67/67 51/51/51
f 59/59/59 68/68/68 67/67/67
f 68/68/68 69/69/69 67/67/67
f 70/70/70 67/67/67 69/69/69
f 71/71/71 67/67/67 70/70/70
f 71/71/71 72/72/72 67/67/67
f 72/72/72 51/51/51 67/67/67
f 73/73/73 66/66/66 51/51/51
f 73/73/73 51/51/51 72/72/72
f 74/74/74 66/66/66 73/73/73
f 75/75/75 73/73/73 72/72/72
f 76/76/76 74/74/74 73/73/73
f 73/73/73 75/75/75 77/77/77
f 73/73/73 77/77/77 76/76/76
