g LM1_floorPlate11
v -49.5846 -3.821948 -15.118419
v -49.5846 -4.745384 -14.899214
v -37.163338 -5.297859 -15.05593
v -37.163338 -4.373431 -15.275135
v -24.795643 -4.873337 -15.417965
v -24.795643 -5.797765 -15.19876
v -12.347607 -4.373431 -15.275135
v -12.347607 -5.297859 -15.05593
v 0.00025177002 -3.821948 -15.118419
v 0.00025177002 -4.745384 -14.899214
v -37.163338 -4.33574 -15.269183
v -49.5846 -3.783265 -15.112467
v -37.163338 -4.373431 -15.275135
v -24.795643 -4.8356447 -15.412014
v -24.795643 -4.873337 -15.417965
v -12.347607 -4.33574 -15.269183
v -12.347607 -4.373431 -15.275135
v 0.00025177002 -3.783265 -15.112467
v -49.5846 -0.23929405 -0.23929405
v -37.163338 -1.4384718 -0.54181576
v -49.5846 -0.24524498 -0.20160294
v -37.163338 -1.4325199 -0.5795069
v -24.795643 -1.8272867 -0.6529064
v -24.795643 -1.820344 -0.69059753
v -12.347607 -1.4384718 -0.54181576
v -12.347607 -1.4325199 -0.5795069
v 0.00025177002 -0.24524498 -0.20160294
v 0.00025177002 -0.23929405 -0.23929405
v -49.5846 -3.761444 -15.080728
v -37.163338 -4.3129263 -15.238436
v -37.163338 -1.4325199 -0.5795069
v -24.795643 -1.820344 -0.69059753
v -24.795643 -4.812832 -15.381266
v -12.347607 -1.4325199 -0.5795069
v -12.347607 -4.3129263 -15.238436
v 0.00025177002 -3.761444 -15.080728
v -49.5846 -3.783265 -15.112467
v -37.163338 -4.3129263 -15.238436
v -37.163338 -4.33574 -15.269183
v -24.795643 -4.812832 -15.381266
v -24.795643 -4.8356447 -15.412014
v -12.347607 -4.3129263 -15.238436
v -12.347607 -4.33574 -15.269183
v 0.00025177002 -3.783265 -15.112467
v -49.5846 -1.2004213 0.04041481
v -49.5846 -4.745384 -14.899214
v -49.5846 -3.821948 -15.118419
v -49.5846 -3.783265 -15.112467
v -49.5846 -3.761444 -15.080728
v -49.5846 -0.23929405 -0.23929405
v -49.5846 -0.27599335 -0.17879009
v -49.5846 -0.24524498 -0.20160294
v 0.00025177002 -3.821948 -15.118419
v 0.00025177002 -4.745384 -14.899214
v 0.00025177002 -1.2004213 0.04041481
v 0.00025177002 -3.783265 -15.112467
v 0.00025177002 -3.761444 -15.080728
v 0.00025177002 -0.23929405 -0.23929405
v 0.00025177002 -0.27599335 -0.17879009
v 0.00025177002 -0.24524498 -0.20160294
v -12.347607 -1.4384718 -0.54181576
v 0.00025177002 -0.24524498 -0.20160294
v 0.00025177002 -0.27599335 -0.17879009
v -12.347607 -1.4692192 -0.5190029
v -24.795643 -1.8272867 -0.6529064
v -24.795643 -1.8580351 -0.6300926
v -37.163338 -1.4384718 -0.54181576
v -37.163338 -1.4692192 -0.5190029
v -49.5846 -0.24524498 -0.20160294
v -49.5846 -0.27599335 -0.17879009
v -12.347607 -1.4692192 -0.5190029
v 0.00025177002 -1.2004213 0.04041481
v -12.347607 -2.3936472 -0.299798
v -24.795643 -1.8580351 -0.6300926
v -24.795643 -2.782463 -0.41088867
v -37.163338 -1.4692192 -0.5190029
v -49.5846 -1.2004213 0.04041481
v -37.163338 -2.3936472 -0.299798
vt -2.4997392 -1.0489076
vt -2.4997392 -0.9530808
vt -1.2472755 -0.9530808
vt -1.2472755 -1.0489076
vt -0.00030493736 -1.0489076
vt -0.00030493736 -0.9530808
vt 1.2546 -1.0489076
vt 1.2546 -0.9530808
vt 2.4997396 -1.0489076
vt 2.4997396 -0.9530808
vt -1.2472755 -1.0525699
vt -2.4997392 -1.0525699
vt -1.2472755 -1.0489076
vt -0.00030493736 -1.0525699
vt -0.00030493736 -1.0489076
vt 1.2546 -1.0525699
vt 1.2546 -1.0489076
vt 2.4997396 -1.0525699
vt -2.4997392 -0.79011405
vt -1.2472755 -0.7931658
vt -2.4997392 -0.7931658
vt -1.2472755 -0.79011405
vt -0.00030493736 -0.7931658
vt -0.00030493736 -0.79011405
vt 1.2546 -0.7931658
vt 1.2546 -0.79011405
vt 2.4997396 -0.7931658
vt 2.4997396 -0.79011405
vt -2.4997392 0.77241373
vt -1.2472755 0.77241373
vt -1.2472755 -0.79011405
vt -0.00030493736 -0.79011405
vt -0.00030493736 0.77241373
vt 1.2546 -0.79011405
vt 1.2546 0.77241373
vt 2.4997396 0.77241373
vt -2.4997392 0.77607584
vt -1.2472755 0.77241373
vt -1.2472755 0.77607584
vt -0.00030493736 0.77241373
vt -0.00030493736 0.77607584
vt 1.2546 0.77241373
vt 1.2546 0.77607584
vt 2.4997396 0.77607584
vt 0.9274459 0.9140179
vt 2.4997396 0.9140179
vt 2.4997396 0.81819105
vt 2.4985185 0.8145287
vt 2.4948564 0.813308
vt 0.9323287 0.813308
vt 0.9274459 0.81819105
vt 0.9286666 0.8145287
vt 0.9274459 0.95674324
vt 0.9274459 1.0525701
vt 2.4997396 1.0525701
vt 0.9286666 0.95308113
vt 0.9323287 0.9518604
vt 2.4948564 0.9518604
vt 2.4997396 0.95674324
vt 2.497908 0.95308113
vt 1.2546 -0.8230736
vt 2.4997396 -0.8230736
vt 2.4997396 -0.82673573
vt 1.2546 -0.82673573
vt -0.00030493736 -0.8230736
vt -0.00030493736 -0.82673573
vt -1.2472755 -0.8230736
vt -1.2472755 -0.82673573
vt -2.4991288 -0.8230736
vt -2.4991288 -0.82673573
vt 1.2546 -0.82673573
vt 2.4997396 -0.9225627
vt 1.2546 -0.9225627
vt -0.00030493736 -0.82673573
vt -0.00030493736 -0.9225627
vt -1.2472755 -0.82673573
vt -2.4991288 -0.9225627
vt -1.2472755 -0.9225627
vn -0.003921509 -0.21568465 -0.9764552
vn -0.003921509 -0.2313708 -0.9728577
vn -0.019607663 -0.2313708 -0.972668
vn -0.019607663 -0.2313708 -0.972668
vn -0.003921509 -0.2313708 -0.9728577
vn 0.0039215684 -0.2313708 -0.9728577
vn 0.019607723 -0.2313708 -0.972668
vn 0.019607723 -0.2313708 -0.972668
vn -0.003921509 -0.21568465 -0.9764552
vn -0.003921509 -0.2313708 -0.9728577
vn -0.003921509 0.16078305 -0.986982
vn -0.003921509 0.5215646 -0.85320276
vn -0.003921509 0.16078305 -0.986982
vn -0.003921509 0.16078305 -0.986982
vn -0.003921509 0.16078305 -0.986982
vn 0.0039215684 0.16078305 -0.986982
vn 0.0039215684 0.16078305 -0.986982
vn -0.003921509 0.5215646 -0.85320276
vn -0.003921509 0.9764631 -0.21564901
vn 0.066666186 0.9843061 0.16339265
vn -0.003921509 0.85097384 0.5251934
vn 0.066666186 0.9843061 0.16339265
vn 0.0039215684 0.9843061 0.17642602
vn -0.003921509 0.9843061 0.17642602
vn -0.066666126 0.9843061 0.16339265
vn -0.066666126 0.9843061 0.16339265
vn -0.003921509 0.85097384 0.5251934
vn -0.003921509 0.9764631 -0.21564901
vn -0.003921509 0.9764631 -0.21564901
vn 0.05098003 0.9764631 -0.20957322
vn 0.05098003 0.9764631 -0.20957322
vn 0.0039215684 0.9843061 -0.17642602
vn -0.003921509 0.9843061 -0.17642602
vn -0.050979972 0.9764631 -0.20957322
vn -0.050979972 0.9764631 -0.20957322
vn -0.003921509 0.9764631 -0.21564901
vn -0.003921509 0.5215646 -0.85320276
vn 0.0274508 0.8117584 -0.5833479
vn 0.0274508 0.8117584 -0.5833479
vn 0.0039215684 0.8117584 -0.58398026
vn -0.003921509 0.8117584 -0.58398026
vn -0.02745068 0.8117584 -0.5833479
vn -0.02745068 0.8117584 -0.5833479
vn -0.003921509 0.5215646 -0.85320276
vn -0.99999225 -0.0039215684 -0.00034425134
vn -0.99999225 -0.0039215684 -0.00034425134
vn -0.99999225 -0.0039215684 -0.00034425134
vn -0.99999225 -0.0039215684 -0.00034425134
vn -0.99999225 -0.0039215684 -0.00034425134
vn -0.99999225 -0.0039215684 -0.00034425134
vn -0.99999225 -0.0039215684 -0.00034425134
vn -0.99999225 -0.0039215684 -0.00034425134
vn 0.9999924 0.003921509 -0
vn 0.9999924 0.003921509 -0
vn 0.9999924 0.003921509 -0
vn 0.9999924 0.003921509 -0
vn 0.9999924 0.003921509 -0
vn 0.9999924 0.003921509 -0
vn 0.9999924 0.003921509 -0
vn 0.9999924 0.003921509 -0
vn -0.050979972 0.5843092 0.8099283
vn -0.003921509 0.85097384 0.5251934
vn -0.003921509 0.24705684 0.96899307
vn -0.050979972 0.5843092 0.8099283
vn 0.0039215684 0.5843092 0.81152165
vn -0.003921509 0.5843092 0.81152165
vn 0.05098003 0.5843092 0.8099283
vn 0.05098003 0.5843092 0.8099283
vn -0.003921509 0.85097384 0.5251934
vn -0.003921509 0.24705684 0.96899307
vn -0.035293818 0.23137069 0.97222525
vn -0.003921509 0.23137069 0.9728578
vn -0.035293818 0.23137069 0.97222525
vn 0.0039215684 0.23137069 0.9728578
vn -0.003921509 0.23137069 0.9728578
vn 0.035293877 0.23137069 0.97222525
vn -0.003921509 0.23137069 0.9728578
vn 0.035293877 0.23137069 0.97222525
g LM1_floorPlate11_0
f 3/3/3 2/2/2 1/1/1
f 4/4/4 3/3/3 1/1/1
f 4/4/4 5/5/5 3/3/3
f 5/5/5 6/6/6 3/3/3
f 5/5/5 7/7/7 6/6/6
f 7/7/7 8/8/8 6/6/6
f 7/7/7 9/9/9 8/8/8
f 9/9/9 10/10/10 8/8/8
f 12/12/12 11/11/11 1/1/1
f 11/11/11 13/13/13 1/1/1
f 11/11/11 14/14/14 13/13/13
f 14/14/14 15/15/15 13/13/13
f 14/14/14 16/16/16 15/15/15
f 16/16/16 17/17/17 15/15/15
f 18/18/18 9/9/9 17/17/17
f 16/16/16 18/18/18 17/17/17
f 21/21/21 20/20/20 19/19/19
f 20/20/20 22/22/22 19/19/19
f 20/20/20 23/23/23 22/22/22
f 23/23/23 24/24/24 22/22/22
f 23/23/23 25/25/25 24/24/24
f 25/25/25 26/26/26 24/24/24
f 25/25/25 27/27/27 26/26/26
f 27/27/27 28/28/28 26/26/26
f 30/30/30 29/29/29 19/19/19
f 31/31/31 30/30/30 19/19/19
f 31/31/31 32/32/32 30/30/30
f 32/32/32 33/33/33 30/30/30
f 32/32/32 34/34/34 33/33/33
f 34/34/34 35/35/35 33/33/33
f 34/34/34 28/28/28 35/35/35
f 28/28/28 36/36/36 35/35/35
f 29/29/29 38/38/38 37/37/37
f 38/38/38 39/39/39 37/37/37
f 38/38/38 40/40/40 39/39/39
f 40/40/40 41/41/41 39/39/39
f 40/40/40 42/42/42 41/41/41
f 42/42/42 43/43/43 41/41/41
f 42/42/42 36/36/36 43/43/43
f 36/36/36 44/44/44 43/43/43
f 47/47/47 46/46/46 45/45/45
f 45/45/45 48/48/48 47/47/47
f 45/45/45 49/49/49 48/48/48
f 45/45/45 50/50/50 49/49/49
f 45/45/45 51/51/51 50/50/50
f 51/51/51 52/52/52 50/50/50
f 55/55/55 54/54/54 53/53/53
f 53/53/53 56/56/56 55/55/55
f 56/56/56 57/57/57 55/55/55
f 57/57/57 58/58/58 55/55/55
f 58/58/58 59/59/59 55/55/55
f 58/58/58 60/60/60 59/59/59
f 63/63/63 62/62/62 61/61/61
f 64/64/64 63/63/63 61/61/61
f 64/64/64 61/61/61 65/65/65
f 66/66/66 64/64/64 65/65/65
f 66/66/66 65/65/65 67/67/67
f 68/68/68 66/66/66 67/67/67
f 68/68/68 67/67/67 69/69/69
f 70/70/70 68/68/68 69/69/69
f 72/72/72 63/63/63 71/71/71
f 73/73/73 72/72/72 71/71/71
f 73/73/73 71/71/71 74/74/74
f 75/75/75 73/73/73 74/74/74
f 75/75/75 74/74/74 76/76/76
f 76/76/76 70/70/70 77/77/77
f 78/78/78 75/75/75 76/76/76
f 78/78/78 76/76/76 77/77/77
