g LM1_floorPlate13
v 23.079653 -1.3795738 41.827797
v 23.079653 -2.3037853 42.047417
v -26.50477 -2.3753357 42.031517
v -26.50477 -1.3606911 41.838722
v -26.50477 -1.3239231 41.817856
v 23.079653 -1.3487663 41.80593
v 23.079653 -1.3418102 41.768166
v -26.50477 -1.310009 41.78208
v 23.079653 -1.3487663 41.738358
v -26.50477 -1.9082623 27.96065
v 23.079653 -1.3795738 41.694626
v -26.50477 -1.9331074 27.910963
v 23.079653 -2.3206787 41.973877
v 23.079653 -2.3037853 42.047417
v 23.079653 -1.3795738 41.827797
v 23.079653 -1.3487663 41.80593
v 23.079653 -1.3418102 41.768166
v 23.079653 -1.3487663 41.738358
v 23.079653 -1.3795738 41.694626
v 23.079653 -1.4302559 41.684692
v 23.079653 -2.3435364 41.87748
v -26.50477 -2.980545 28.101767
v 23.079653 -2.3435364 41.87748
v 23.079653 -1.4302559 41.684692
v -26.50477 -1.9847832 27.898043
v -26.50477 -1.9331074 27.910963
v 23.079653 -1.3795738 41.694626
v -26.50477 -2.980545 28.101767
v -26.50477 -1.3606911 41.838722
v -26.50477 -2.3753357 42.031517
v -26.50477 -1.3239231 41.817856
v -26.50477 -1.310009 41.78208
v -26.50477 -1.9082623 27.96065
v -26.50477 -1.9331074 27.910963
v -26.50477 -1.9847832 27.898043
vt 1.008362 2.5651264
vt 1.1056967 2.5651264
vt 1.0822425 -2.092267
vt 0.97611284 -2.092267
vt 0.9720082 -2.092267
vt 1.0042577 2.5651264
vt 1.0001533 2.5651264
vt 0.96790385 -2.092267
vt 0.99722147 2.5651264
vt -0.45341325 -2.0875762
vt 0.9919443 2.565713
vt -0.4592768 -2.0875762
vt 0.8993006 2.6032395
vt 0.90164614 2.6096892
vt 0.99370337 2.5797853
vt 0.9966352 2.5768538
vt 0.9966352 2.5733356
vt 0.9954624 2.57099
vt 0.9919443 2.5668855
vt 0.98666716 2.5668855
vt 0.8957825 2.5944443
vt -0.5636474 -2.0564995
vt 0.8957825 2.5944443
vt 0.98666716 2.5668855
vt -0.46455395 -2.0864034
vt -0.4592768 -2.0875762
vt 0.9919443 2.565713
vt -0.444618 -2.1884286
vt 0.9737673 -2.0969577
vt 0.9884262 -2.1931195
vt 0.97142196 -2.0934396
vt 0.96790385 -2.092267
vt -0.45341325 -2.0875762
vt -0.4586904 -2.0893352
vt -0.46044946 -2.0946124
vn -0.003921509 0.24705684 0.96899307
vn -0.003921509 0.23137069 0.9728578
vn -0.003921509 0.23137069 0.9728578
vn -0.003921509 0.24705684 0.96899307
vn -0.003921509 0.85097384 0.5251934
vn -0.003921509 0.85097384 0.5251934
vn -0.003921509 0.9764631 -0.21564901
vn -0.003921509 0.9764631 -0.21564901
vn 0.0039215684 0.99999225 -0.00034526698
vn 0.0039215684 0.99999225 -0.00034526698
vn 0.1294108 0.85097384 -0.509015
vn 0.1294108 0.85097384 -0.509015
vn 0.9999924 -0.0039215684 -0
vn 0.9999924 0.003921509 -0
vn 0.9999924 0.003921509 -0
vn 0.9999924 0.003921509 -0
vn 0.9999924 0.003921509 -0
vn 0.9999924 0.003921509 -0
vn 0.9999924 0.003921509 -0
vn 0.9999924 0.003921509 -0
vn 0.9999924 0.003921509 -0
vn 0.26274312 -0.19215542 -0.94553816
vn 0.26274312 -0.19215542 -0.94553816
vn 0.26274312 -0.17646927 -0.9485909
vn 0.26274312 -0.17646927 -0.9485909
vn 0.26274312 0.20784152 -0.94221437
vn 0.26274312 0.20784152 -0.94221437
vn -0.99999225 0.003921509 -0.00034492963
vn -0.99999225 0.003921509 -0.00034492963
vn -0.99999225 0.003921509 -0.00034492963
vn -0.99999225 0.003921509 -0.00034492963
vn -0.99999225 0.003921509 -0.00034492963
vn -0.99999225 0.003921509 -0.00034492963
vn -0.99999225 0.003921509 -0.00034492963
vn -0.99999225 0.003921509 -0.00034492963
g LM1_floorPlate13_0
f 3/3/3 2/2/2 1/1/1
f 4/4/4 3/3/3 1/1/1
f 5/5/5 4/4/4 1/1/1
f 6/6/6 5/5/5 1/1/1
f 5/5/5 6/6/6 7/7/7
f 5/5/5 7/7/7 8/8/8
f 9/9/9 8/8/8 7/7/7
f 10/10/10 8/8/8 9/9/9
f 10/10/10 9/9/9 11/11/11
f 12/12/12 10/10/10 11/11/11
f 15/15/15 14/14/14 13/13/13
f 16/16/16 15/15/15 13/13/13
f 16/16/16 13/13/13 17/17/17
f 17/17/17 13/13/13 18/18/18
f 13/13/13 19/19/19 18/18/18
f 19/19/19 13/13/13 20/20/20
f 13/13/13 21/21/21 20/20/20
f 24/24/24 23/23/23 22/22/22
f 25/25/25 24/24/24 22/22/22
f 25/25/25 26/26/26 24/24/24
f 26/26/26 27/27/27 24/24/24
f 30/30/30 29/29/29 28/28/28
f 29/29/29 31/31/31 28/28/28
f 31/31/31 32/32/32 28/28/28
f 32/32/32 33/33/33 28/28/28
f 33/33/33 34/34/34 28/28/28
f 34/34/34 35/35/35 28/28/28
