g LM1_floorPlate10
v -49.584602 -6.1234226 -29.810509
v -49.584602 -7.074444 -29.598497
v -43.170967 -7.6826115 -29.56821
v -43.170967 -6.703726 -29.771742
v -43.170967 -6.66617 -29.765684
v -49.584602 -6.085865 -29.804451
v -37.146217 -7.211342 -29.72934
v -37.146217 -7.2488976 -29.736609
v -37.146217 -8.2544365 -29.540346
v -31.145699 -6.7800503 -29.460388
v -31.145699 -6.818819 -29.466446
v -31.145699 -7.8437405 -29.276241
v -24.90894 -5.76482 -29.018192
v -24.90894 -5.803589 -29.02425
v -24.90894 -6.849106 -28.840103
v -18.537704 -4.234707 -28.733492
v -18.537704 -4.2734737 -28.74076
v -18.537704 -5.321415 -28.556614
v -12.3833275 -2.956583 -28.516636
v -12.3833275 -2.99535 -28.522694
v -12.3833275 -4.0457134 -28.339758
v -6.3173866 -1.9449863 -28.422138
v -6.3173866 -1.9849663 -28.428196
v 0.00054359436 -1.942564 -28.623247
v -6.3173866 -3.0195808 -28.240416
v 0.00054359436 -1.9813309 -28.629305
v 0.00054359436 -3.0001965 -28.436678
v -49.584602 -2.6961117 -14.975792
v -49.584602 -2.7021694 -14.938236
v -49.584602 -2.7336674 -14.915217
v -49.584602 -3.6580372 -14.695938
v -49.584602 -4.4164295 -22.90864
v -49.584602 -5.5358486 -23.228474
v -49.584602 -6.0652695 -29.774164
v -49.584602 -6.085865 -29.804451
v -49.584602 -6.1234226 -29.810509
v -49.584602 -7.074444 -29.598497
v 0.00054359436 -3.0256367 -22.512482
v 0.00054359436 -3.2570324 -14.582057
v 0.00054359436 -2.25634 -14.779531
v 0.00054359436 -1.9643707 -22.20961
v 0.00054359436 -2.2199955 -14.800126
v 0.00054359436 -2.20788 -14.836471
v 0.00054359436 -3.0001965 -28.436678
v 0.00054359436 -1.9813309 -28.629305
v 0.00054359436 -1.942564 -28.623247
v 0.00054359436 -1.9243908 -28.59296
v -37.146217 -3.7900887 -15.287146
v -31.145699 -4.275898 -15.426467
v -31.145699 -4.3025494 -15.393757
v -37.136528 -3.79978 -15.250801
v -43.170967 -3.2594547 -15.136921
v -43.170967 -3.2679367 -15.099364
v -49.584602 -2.6961117 -14.975792
v -49.584602 -2.7021694 -14.938236
v -43.170967 -5.0185413 -23.080673
v -49.584602 -4.4164295 -22.90864
v -37.146217 -5.58552 -23.2418
v -37.146217 -3.7900887 -15.287146
v -43.170967 -6.6467857 -29.735395
v -49.584602 -6.0652695 -29.774164
v -49.584602 -6.085865 -29.804451
v -43.170967 -6.66617 -29.765684
v -37.146217 -7.1919575 -29.700262
v -37.146217 -7.211342 -29.72934
v -31.145699 -5.580673 -23.24059
v -31.145699 -4.275898 -15.426467
v -31.145699 -6.76309 -29.431313
v -31.145699 -6.7800503 -29.460388
v -24.90894 -5.0827503 -23.098845
v -24.90894 -4.411585 -15.465235
v -24.90894 -5.749071 -28.989117
v -24.90894 -5.76482 -29.018192
v -18.537704 -4.057829 -22.806875
v -18.537704 -4.05056 -15.362258
v -18.537704 -4.218958 -28.704416
v -18.537704 -4.234707 -28.733492
v -12.3833275 -3.1928234 -22.55973
v -12.3833275 -3.7028618 -15.262916
v -12.3833275 -2.939621 -28.48756
v -12.3833275 -2.956583 -28.516636
v -6.3173866 -1.9292374 -28.393063
v -6.3173866 -1.9449863 -28.422138
v 0.00054359436 -1.9243908 -28.59296
v 0.00054359436 -1.942564 -28.623247
v -12.3833275 -2.939621 -28.48756
v -6.3173866 -2.312069 -22.308952
v -6.3173866 -1.9292374 -28.393063
v 0.00054359436 -1.9643707 -22.20961
v -6.3173866 -2.9699097 -15.05454
v 0.00054359436 -2.20788 -14.836471
v 0.00054359436 -2.2199955 -14.800126
v -6.3173866 -2.9844475 -15.018194
v -12.379692 -3.7186108 -15.227782
v -18.537704 -4.05056 -15.362258
v -18.537704 -4.090538 -15.3343935
v -24.90894 -4.411585 -15.465235
v -24.734486 -4.4648895 -15.441005
v -31.145699 -4.275898 -15.426467
v -31.145699 -4.3025494 -15.393757
v -6.3173866 -2.9844475 -15.018194
v 0.00054359436 -2.2199955 -14.800126
v 0.00054359436 -2.25634 -14.779531
v -6.3173866 -3.0220032 -14.997599
v 0.00054359436 -3.2570324 -14.582057
v -12.379692 -3.7186108 -15.227782
v -6.3173866 -3.9996777 -14.794068
v -12.376057 -3.7561665 -15.207187
v -18.537704 -4.090538 -15.3343935
v -12.298523 -4.702343 -14.993964
v -18.537704 -4.129307 -15.313799
v -24.734486 -4.4648895 -15.441005
v -18.537704 -5.0282326 -15.08725
v -24.74781 -4.5036583 -15.42041
v -31.145699 -4.3025494 -15.393757
v -24.864113 -5.3589706 -15.181746
v -31.145699 -4.340107 -15.373161
v -37.136528 -3.79978 -15.250801
v -31.145699 -5.2208614 -15.141767
v -37.135315 -3.8349133 -15.230206
v -43.170967 -3.2679367 -15.099364
v -37.21527 -4.7302074 -15.002445
v -43.170967 -3.3006458 -15.077558
v -49.584602 -2.7021694 -14.938236
v -43.170967 -4.2141113 -14.854643
v -49.584602 -2.7336674 -14.915217
v -49.584602 -3.6580372 -14.695938
vt -2.4997392 -1.0489076
vt -2.4997392 -0.9530808
vt -1.8533654 -0.9530808
vt -1.8533654 -1.0489076
vt -1.8533654 -1.0525699
vt -2.4997392 -1.0525699
vt -1.2454444 -1.0525699
vt -1.2454444 -1.0489076
vt -1.2454444 -0.9530808
vt -0.6405753 -1.0525699
vt -0.6405753 -1.0489076
vt -0.6405753 -0.9530808
vt -0.0119018555 -1.0525699
vt -0.0119018555 -1.0489076
vt -0.0119018555 -0.9530808
vt 0.6308098 -1.0525699
vt 0.6308098 -1.0489076
vt 0.6308098 -0.9530808
vt 1.2509379 -1.0525699
vt 1.2509379 -1.0489076
vt 1.2509379 -0.9530808
vt 1.8625212 -1.0525699
vt 1.8625212 -1.0489076
vt 2.4997396 -1.0525699
vt 1.8625212 -0.9530808
vt 2.4997396 -1.0489076
vt 2.4997396 -0.9530808
vt 0.9323287 0.813308
vt 0.9286666 0.8145287
vt 0.9274459 0.81819105
vt 0.9274459 0.9140179
vt 1.7727976 0.813308
vt 1.8301721 0.9140179
vt 2.4948564 0.813308
vt 2.4985185 0.8145287
vt 2.4997396 0.81819105
vt 2.4997396 0.9140179
vt 1.5970135 1.0525701
vt 2.4997396 1.0525701
vt 2.4997396 0.95674324
vt 1.6543875 0.9518604
vt 2.497908 0.95308113
vt 2.4948564 0.9518604
vt 0.9274459 1.0525701
vt 0.9274459 0.95674324
vt 0.9286666 0.95308113
vt 0.9323287 0.9518604
vt -1.2454444 -0.79011405
vt -0.6405753 -0.79011405
vt -0.6405753 -0.7931658
vt -1.2448341 -0.7931658
vt -1.8533654 -0.79011405
vt -1.8533654 -0.7931658
vt -2.4997392 -0.79011405
vt -2.4997392 -0.7931658
vt -1.8533654 0.06317258
vt -2.4997392 0.050354958
vt -1.2454444 0.07537985
vt -1.2454444 -0.79011405
vt -1.8533654 0.77241373
vt -2.4997392 0.77241373
vt -2.4997392 0.77607584
vt -1.8533654 0.77607584
vt -1.2454444 0.77241373
vt -1.2454444 0.77607584
vt -0.6405753 0.08453536
vt -0.6405753 -0.79011405
vt -0.6405753 0.77241373
vt -0.6405753 0.77607584
vt -0.0119018555 0.094911575
vt -0.0119018555 -0.79011405
vt -0.0119018555 0.77241373
vt -0.0119018555 0.77607584
vt 0.6308098 0.08453536
vt 0.6308098 -0.79011405
vt 0.6308098 0.77241373
vt 0.6308098 0.77607584
vt 1.2509379 0.07537985
vt 1.2509379 -0.79011405
vt 1.2509379 0.77241373
vt 1.2509379 0.77607584
vt 1.8625212 0.77241373
vt 1.8625212 0.77607584
vt 2.4997396 0.77241373
vt 2.4997396 0.77607584
vt 1.2509379 0.77241373
vt 1.8625212 0.06256223
vt 1.8625212 0.77241373
vt 2.4997396 0.050354958
vt 1.8625212 -0.79011405
vt 2.4997396 -0.79011405
vt 2.4997396 -0.7931658
vt 1.8625212 -0.7931658
vt 1.2515483 -0.7931658
vt 0.6308098 -0.79011405
vt 0.6308098 -0.7931658
vt -0.0119018555 -0.79011405
vt 0.0057985783 -0.7931658
vt -0.6405753 -0.79011405
vt -0.6405753 -0.7931658
vt 1.8625212 -0.8230736
vt 2.4997396 -0.8230736
vt 2.4997396 -0.82673573
vt 1.8625212 -0.82673573
vt 2.4997396 -0.9225627
vt 1.2515483 -0.8230736
vt 1.8625212 -0.9225627
vt 1.2521586 -0.82673573
vt 0.6308098 -0.8230736
vt 1.2600935 -0.9225627
vt 0.6308098 -0.82673573
vt 0.0057985783 -0.8230736
vt 0.6308098 -0.9225627
vt 0.004577875 -0.82673573
vt -0.6405753 -0.8230736
vt -0.007019043 -0.9225627
vt -0.6405753 -0.82673573
vt -1.2442237 -0.8230736
vt -0.6405753 -0.9225627
vt -1.2442237 -0.82673573
vt -1.8527551 -0.8230736
vt -1.2521584 -0.9225627
vt -1.8527551 -0.82673573
vt -2.4991288 -0.8230736
vt -1.8527551 -0.9225627
vt -2.4991288 -0.82673573
vt -2.4991288 -0.9225627
vn -0.003921509 -0.21568465 -0.9764552
vn -0.003921509 -0.2313708 -0.9728577
vn -0.011764526 -0.20784158 -0.9780918
vn -0.011764526 -0.19215542 -0.981294
vn 0.019607723 0.16078305 -0.986795
vn -0.003921509 0.5215646 -0.85320276
vn 0.0274508 0.16078305 -0.98660797
vn 0.019607723 -0.18431234 -0.9826721
vn 0.019607723 -0.19215542 -0.9811686
vn 0.035293877 0.16078305 -0.9863585
vn 0.07450926 -0.16862619 -0.9828599
vn 0.07450926 -0.18431234 -0.9800395
vn 0.019607723 0.16078305 -0.986795
vn 0.09019542 -0.16078311 -0.9828599
vn 0.09019542 -0.17646927 -0.980165
vn 0.0039215684 0.16078305 -0.986982
vn 0.07450926 -0.16078311 -0.98417336
vn 0.08235234 -0.16862619 -0.9822338
vn -0.003921509 0.16078305 -0.986982
vn 0.05098003 -0.16078311 -0.9856723
vn 0.05882311 -0.17646927 -0.9825469
vn -0.019607663 0.16078305 -0.986795
vn 0.0039215684 -0.16862619 -0.98567224
vn -0.003921509 0.5215646 -0.85320276
vn 0.011764646 -0.17646927 -0.9842358
vn -0.003921509 -0.21568465 -0.9764552
vn -0.003921509 -0.2313708 -0.9728577
vn -0.99999225 -0.0039215684 -0.00034425134
vn -0.99999225 -0.0039215684 -0.00034425134
vn -0.99999225 -0.0039215684 -0.00034425134
vn -0.99999225 -0.0039215684 -0.00034425134
vn -0.99999225 -0.0039215684 -0.00034425134
vn -0.99999225 -0.0039215684 -0.00034425134
vn -0.99999225 -0.0039215684 -0.00034425134
vn -0.99999225 -0.0039215684 -0.00034425134
vn -0.99999225 -0.0039215684 -0.00034425134
vn -0.99999225 -0.0039215684 -0.00034425134
vn 0.9999924 -0.0039215684 -0
vn 0.9999924 0.003921509 -0
vn 0.9999924 0.003921509 -0
vn 0.9999924 -0.0039215684 -0
vn 0.9999924 0.003921509 -0
vn 0.9999924 0.003921509 -0
vn 0.9999924 0.003921509 -0
vn 0.9999924 0.003921509 -0
vn 0.9999924 0.003921509 -0
vn 0.9999924 0.003921509 -0
vn 0.09019542 0.93724763 0.33679622
vn 0.08235234 0.88234615 0.46333936
vn 0.08235234 0.88234615 0.46333936
vn 0.09019542 0.9215615 0.37760988
vn 0.08235234 0.9764631 -0.19934377
vn 0.09019542 0.9764631 0.19592008
vn -0.003921509 0.9764631 -0.21564901
vn -0.003921509 0.85097384 0.5251934
vn 0.08235234 0.96861994 -0.23450683
vn 0.08235234 0.96861994 -0.23450683
vn 0.043136954 0.9764631 -0.21132694
vn 0.05882311 0.9764631 -0.20750833
vn 0.09019542 0.96861994 -0.23160352
vn -0.003921509 0.9764631 -0.21564901
vn -0.003921509 0.5215646 -0.85320276
vn 0.08235234 0.8352877 -0.5436107
vn 0.0274508 0.9764631 -0.21393073
vn 0.019607723 0.85097384 -0.5248419
vn -0.02745068 0.9843061 -0.17432153
vn 0.0039215684 0.9843061 -0.17642602
vn -0.066666126 0.9764631 -0.20512317
vn -0.066666126 0.85881686 -0.5079264
vn -0.10588145 0.99214923 -0.06655105
vn -0.066666126 0.99214923 -0.10580898
vn -0.15293992 0.9843061 -0.08803935
vn -0.1450969 0.85881686 -0.49130484
vn -0.13703476 0.9905662 -0
vn -0.10588145 0.99214923 -0.06655105
vn -0.18405202 0.98291653 -0
vn -0.1764692 0.85881686 -0.48092845
vn -0.13703476 0.9905662 -0
vn -0.11372459 0.99214923 0.052025445
vn -0.1450969 0.86666 -0.47733358
vn -0.15293992 0.86666 -0.47487882
vn -0.074509144 0.86666 -0.493304
vn -0.074509144 0.86666 -0.493304
vn -0.003921509 0.9764631 -0.21564901
vn -0.003921509 0.5215646 -0.85320276
vn -0.16078305 0.9843061 0.072734654
vn -0.098038435 0.99214923 0.07764248
vn -0.0901953 0.99214923 0.08662968
vn -0.058721937 0.9982743 -0
vn -0.11372459 0.99214923 0.052025445
vn -0.003921509 0.9764631 -0.21564901
vn -0.003921509 0.85097384 0.5251934
vn -0.12156761 0.9215615 0.3687082
vn -0.08235228 0.66274 0.74430764
vn -0.050979972 0.5764661 0.8155292
vn -0.043136835 0.5215646 0.85212064
vn 0.011764646 0.5764661 0.8170364
vn -0.02745068 0.45882 0.8881051
vn 0.019607723 0.5999954 0.7997632
vn 0.035293877 0.5294076 0.8476331
vn -0.0901953 0.48234916 0.87132317
vn -0.003921509 0.85097384 0.5251934
vn -0.003921509 0.24705684 0.96899307
vn -0.05882299 0.21568453 0.9746897
vn -0.003921509 0.23137069 0.9728578
vn -0.08235228 0.66274 0.74430764
vn -0.05882299 0.20784152 0.9763922
vn -0.043136835 0.23137069 0.9719088
vn -0.043136835 0.5215646 0.85212064
vn -0.043136835 0.22352767 0.97374254
vn -0.02745068 0.25489998 0.9665777
vn -0.02745068 0.45882 0.8881051
vn -0.02745068 0.24705684 0.96861213
vn -0.011764526 0.27058613 0.9626239
vn 0.035293877 0.5294076 0.8476331
vn -0.003921509 0.262743 0.9648579
vn 0.0274508 0.262743 0.96447533
vn 0.066666186 0.5215646 0.85060334
vn 0.0274508 0.25489998 0.9665777
vn 0.043136954 0.25489998 0.9660047
vn 0.066666186 0.5529369 0.83055186
vn 0.043136954 0.24705684 0.96804035
vn 0.043136954 0.24705684 0.96804035
vn -0.003921509 0.85097384 0.5251934
vn 0.043136954 0.23921382 0.9700082
vn -0.003921509 0.24705684 0.96899307
vn -0.003921509 0.23137069 0.9728578
g LM1_floorPlate10_0
f 3/3/3 2/2/2 1/1/1
f 4/4/4 3/3/3 1/1/1
f 5/5/5 4/4/4 1/1/1
f 6/6/6 5/5/5 1/1/1
f 5/5/5 7/7/7 4/4/4
f 4/4/4 8/8/8 3/3/3
f 7/7/7 8/8/8 4/4/4
f 8/8/8 9/9/9 3/3/3
f 7/7/7 10/10/10 8/8/8
f 8/8/8 11/11/11 9/9/9
f 10/10/10 11/11/11 8/8/8
f 11/11/11 12/12/12 9/9/9
f 10/10/10 13/13/13 11/11/11
f 11/11/11 14/14/14 12/12/12
f 13/13/13 14/14/14 11/11/11
f 14/14/14 15/15/15 12/12/12
f 13/13/13 16/16/16 14/14/14
f 14/14/14 17/17/17 15/15/15
f 16/16/16 17/17/17 14/14/14
f 17/17/17 18/18/18 15/15/15
f 16/16/16 19/19/19 17/17/17
f 17/17/17 20/20/20 18/18/18
f 19/19/19 20/20/20 17/17/17
f 20/20/20 21/21/21 18/18/18
f 19/19/19 22/22/22 20/20/20
f 20/20/20 23/23/23 21/21/21
f 22/22/22 23/23/23 20/20/20
f 22/22/22 24/24/24 23/23/23
f 23/23/23 25/25/25 21/21/21
f 24/24/24 26/26/26 23/23/23
f 23/23/23 26/26/26 25/25/25
f 26/26/26 27/27/27 25/25/25
f 30/30/30 29/29/29 28/28/28
f 31/31/31 30/30/30 28/28/28
f 31/31/31 28/28/28 32/32/32
f 32/32/32 33/33/33 31/31/31
f 33/33/33 32/32/32 34/34/34
f 33/33/33 34/34/34 35/35/35
f 33/33/33 35/35/35 36/36/36
f 36/36/36 37/37/37 33/33/33
f 40/40/40 39/39/39 38/38/38
f 38/38/38 41/41/41 40/40/40
f 41/41/41 42/42/42 40/40/40
f 41/41/41 43/43/43 42/42/42
f 41/41/41 38/38/38 44/44/44
f 44/44/44 45/45/45 41/41/41
f 45/45/45 46/46/46 41/41/41
f 46/46/46 47/47/47 41/41/41
f 50/50/50 49/49/49 48/48/48
f 51/51/51 50/50/50 48/48/48
f 51/51/51 48/48/48 52/52/52
f 53/53/53 51/51/51 52/52/52
f 53/53/53 52/52/52 54/54/54
f 55/55/55 53/53/53 54/54/54
f 52/52/52 56/56/56 54/54/54
f 56/56/56 57/57/57 54/54/54
f 56/56/56 52/52/52 58/58/58
f 52/52/52 59/59/59 58/58/58
f 56/56/56 60/60/60 57/57/57
f 56/56/56 58/58/58 60/60/60
f 60/60/60 61/61/61 57/57/57
f 61/61/61 60/60/60 62/62/62
f 60/60/60 63/63/63 62/62/62
f 60/60/60 64/64/64 63/63/63
f 58/58/58 64/64/64 60/60/60
f 64/64/64 65/65/65 63/63/63
f 58/58/58 59/59/59 66/66/66
f 58/58/58 66/66/66 64/64/64
f 59/59/59 67/67/67 66/66/66
f 64/64/64 68/68/68 65/65/65
f 66/66/66 68/68/68 64/64/64
f 68/68/68 69/69/69 65/65/65
f 66/66/66 67/67/67 70/70/70
f 66/66/66 70/70/70 68/68/68
f 67/67/67 71/71/71 70/70/70
f 68/68/68 72/72/72 69/69/69
f 70/70/70 72/72/72 68/68/68
f 72/72/72 73/73/73 69/69/69
f 70/70/70 71/71/71 74/74/74
f 70/70/70 74/74/74 72/72/72
f 71/71/71 75/75/75 74/74/74
f 72/72/72 76/76/76 73/73/73
f 74/74/74 76/76/76 72/72/72
f 76/76/76 77/77/77 73/73/73
f 74/74/74 75/75/75 78/78/78
f 74/74/74 78/78/78 76/76/76
f 75/75/75 79/79/79 78/78/78
f 76/76/76 80/80/80 77/77/77
f 80/80/80 81/81/81 77/77/77
f 80/80/80 82/82/82 81/81/81
f 82/82/82 83/83/83 81/81/81
f 82/82/82 84/84/84 83/83/83
f 84/84/84 85/85/85 83/83/83
f 78/78/78 86/86/86 76/76/76
f 78/78/78 87/87/87 86/86/86
f 78/78/78 79/79/79 87/87/87
f 87/87/87 88/88/88 86/86/86
f 89/89/89 84/84/84 88/88/88
f 87/87/87 89/89/89 88/88/88
f 87/87/87 90/90/90 89/89/89
f 79/79/79 90/90/90 87/87/87
f 90/90/90 91/91/91 89/89/89
f 92/92/92 91/91/91 90/90/90
f 93/93/93 92/92/92 90/90/90
f 93/93/93 90/90/90 79/79/79
f 94/94/94 93/93/93 79/79/79
f 94/94/94 79/79/79 95/95/95
f 96/96/96 94/94/94 95/95/95
f 96/96/96 95/95/95 97/97/97
f 98/98/98 96/96/96 97/97/97
f 98/98/98 97/97/97 99/99/99
f 100/100/100 98/98/98 99/99/99
f 103/103/103 102/102/102 101/101/101
f 104/104/104 103/103/103 101/101/101
f 105/105/105 103/103/103 104/104/104
f 104/104/104 101/101/101 106/106/106
f 107/107/107 105/105/105 104/104/104
f 108/108/108 104/104/104 106/106/106
f 107/107/107 104/104/104 108/108/108
f 108/108/108 106/106/106 109/109/109
f 110/110/110 107/107/107 108/108/108
f 111/111/111 108/108/108 109/109/109
f 110/110/110 108/108/108 111/111/111
f 111/111/111 109/109/109 112/112/112
f 113/113/113 110/110/110 111/111/111
f 114/114/114 111/111/111 112/112/112
f 113/113/113 111/111/111 114/114/114
f 114/114/114 112/112/112 115/115/115
f 116/116/116 113/113/113 114/114/114
f 117/117/117 114/114/114 115/115/115
f 116/116/116 114/114/114 117/117/117
f 117/117/117 115/115/115 118/118/118
f 119/119/119 116/116/116 117/117/117
f 120/120/120 117/117/117 118/118/118
f 119/119/119 117/117/117 120/120/120
f 120/120/120 118/118/118 121/121/121
f 122/122/122 119/119/119 120/120/120
f 123/123/123 120/120/120 121/121/121
f 122/122/122 120/120/120 123/123/123
f 123/123/123 121/121/121 124/124/124
f 125/125/125 122/122/122 123/123/123
f 126/126/126 123/123/123 124/124/124
f 125/125/125 123/123/123 127/127/127
f 123/123/123 126/126/126 127/127/127
