g LM1_floorPlate07
v -49.53325 -0.74994946 -15.036898
v -49.528328 -2.8193789 -14.8703575
v -43.171234 -2.9317198 -14.482094
v -43.171234 -2.272458 -14.714658
v -43.171234 -2.226143 -14.70776
v -49.53325 -0.7125025 -15.030985
v -37.092033 -2.9228506 -14.36384
v -37.093025 -2.9671955 -14.369753
v -37.102875 -3.9871283 -14.156898
v -31.145876 -2.7247763 -14.027804
v -31.145876 -2.7701073 -14.033717
v -31.145876 -3.775258 -13.819876
v -24.864664 -2.2842836 -13.66122
v -24.864664 -2.3286285 -13.668118
v -24.874517 -3.3209696 -13.454277
v -18.537134 -1.5412598 -13.96178
v -18.537134 -1.5865898 -13.9686775
v -18.537134 -2.579916 -13.755822
v -12.343628 -0.8337116 -14.257413
v -12.343628 -0.8790426 -14.263325
v -12.351511 -1.8753252 -14.051455
v -6.317646 -0.17050934 -14.593449
v -6.317646 -0.21485424 -14.599361
v 0.036488533 0.5271845 -14.948208
v -6.317646 -1.1569376 -14.382564
v 0.036488533 0.48481083 -14.954121
v 0.039444923 -0.40011692 -14.73141
v -49.54409 2.2122917 -0.0167799
v -43.171234 2.1847 0.4296255
v -49.54409 2.2053928 0.020667076
v -43.171234 2.1896267 0.39217854
v -37.10386 2.1649895 0.81986046
v -43.171234 -0.05324173 -7.671699
v -49.53916 1.2790775 -7.607645
v -37.10386 2.1669617 0.78142834
v -31.145876 2.8991451 1.1894016
v -43.171234 -2.1906662 -14.676226
v -49.53325 -0.6858959 -14.999451
v -37.096962 -0.5518751 -7.6953497
v -37.092033 -2.8893452 -14.332306
v -31.145876 -0.19514465 -7.678597
v -31.145876 -2.6902857 -13.995285
v -31.145876 2.9001312 1.1519547
v -24.920832 3.6668053 1.575695
v -24.886343 0.25126076 -7.656917
v -24.864664 -2.2468367 -13.629685
v -24.919847 3.6668053 1.5382481
v -18.537134 4.888754 1.304699
v -18.537134 1.3194809 -7.6056743
v -18.537134 -1.5028276 -13.930245
v -18.537134 4.888754 1.2662659
v -12.430347 6.0594597 1.0445423
v -12.381075 2.3620796 -7.556402
v -12.343628 -0.7952795 -14.224893
v -12.430347 6.0574894 1.0061092
v -6.317646 7.3277245 0.7420111
v -6.317646 3.4647884 -7.5041738
v -6.317646 7.3267384 0.7045641
v -0.06993866 8.623581 0.43356705
v -0.06993866 8.624567 0.39513493
v -0.014754295 4.6374664 -7.4480033
v -6.317646 -0.13404751 -14.560928
v 0.036488533 0.56364536 -14.9156885
v -6.317646 -0.17050934 -14.593449
v 0.036488533 0.5271845 -14.948208
v -12.343628 -0.8337116 -14.257413
v -18.537134 -1.5412598 -13.96178
v -18.537134 -1.5028276 -13.930245
v -24.864664 -2.2842836 -13.66122
v -24.864664 -2.2468367 -13.629685
v -31.145876 -2.7247763 -14.027804
v -31.145876 -2.6902857 -13.995285
v -37.092033 -2.9228506 -14.36384
v -37.092033 -2.8893452 -14.332306
v -43.171234 -2.226143 -14.70776
v -43.171234 -2.1906662 -14.676226
v -49.53325 -0.7125025 -15.030985
v -49.54409 2.2122917 -0.0167799
v -49.54409 2.2053928 0.020667076
v -49.543106 2.176815 0.0433321
v -49.53916 1.2790775 -7.607645
v -49.521423 1.2682381 0.27294064
v -49.525368 -0.33704853 -7.685495
v -49.53325 -0.6858959 -14.999451
v -49.53325 -0.7125025 -15.030985
v -49.53325 -0.74994946 -15.036898
v -49.528328 -2.8193789 -14.8703575
v -0.068953514 8.596975 0.45623302
v -0.06993866 8.623581 0.43356705
v -0.06993866 8.624567 0.39513493
v -0.048259735 7.7278137 0.68682575
v -0.014754295 4.6374664 -7.4480033
v -0.0019435883 3.5603771 -7.4992466
v 0.036488533 0.56364536 -14.9156885
v 0.036488533 0.5271845 -14.948208
v 0.036488533 0.48481083 -14.954121
v 0.039444923 -0.40011692 -14.73141
v -6.317646 7.3277245 0.7420111
v -0.06993866 8.623581 0.43356705
v -0.068953514 8.596975 0.45623302
v -6.317646 7.3001328 0.7646761
v -12.430347 6.0594597 1.0445423
v -12.429361 6.031868 1.0672073
v -18.537134 4.888754 1.304699
v -18.537134 4.8621464 1.327364
v -24.920832 3.6668053 1.575695
v -24.919847 3.6392117 1.5993462
v -31.145876 2.8991451 1.1894016
v -31.145876 2.8715534 1.2120667
v -37.10386 2.1649895 0.81986046
v -37.102875 2.1364117 0.84252644
v -43.171234 2.1847 0.4296255
v -43.171234 2.1561203 0.45229053
v -49.54409 2.2053928 0.020667076
v -49.543106 2.176815 0.0433321
v -49.521423 1.2682381 0.27294064
v -43.171234 1.2347317 0.6799278
v -37.079224 1.2022133 1.0711479
v -31.145876 1.9452362 1.4397049
v -24.897184 2.7276783 1.8279686
v -24.919847 3.6392117 1.5993462
v -18.537134 3.9476566 1.5579567
v -18.537134 4.8621464 1.327364
v -12.406696 5.124275 1.2968159
v -12.429361 6.031868 1.0672073
v -6.317646 6.407322 0.9962559
v -6.317646 7.3001328 0.7646761
v -0.048259735 7.7278137 0.68682575
vt -2.4997392 -1.0489076
vt -2.4997392 -0.9530808
vt -1.8582482 -0.9530808
vt -1.8582482 -1.0489076
vt -1.8582482 -1.0525699
vt -2.4997392 -1.0525699
vt -1.2454444 -1.0525699
vt -1.2454444 -1.0489076
vt -1.2454444 -0.9530808
vt -0.6454581 -1.0525699
vt -0.6454581 -1.0489076
vt -0.64484775 -0.9530808
vt -0.0119018555 -1.0525699
vt -0.0119018555 -1.0489076
vt -0.0119018555 -0.9530808
vt 0.6265371 -1.0525699
vt 0.6265371 -1.0489076
vt 0.62714744 -0.9530808
vt 1.2509379 -1.0525699
vt 1.2509379 -1.0489076
vt 1.2509379 -0.9530808
vt 1.8588591 -1.0525699
vt 1.8588591 -1.0489076
vt 2.4997396 -1.0525699
vt 1.8594694 -0.9530808
vt 2.4997396 -1.0489076
vt 2.4997396 -0.9530808
vt -2.4997392 -0.79011405
vt -1.8576379 -0.7931658
vt -2.4997392 -0.7931658
vt -1.8576379 -0.79011405
vt -1.2454444 -0.7931658
vt -1.8582482 0.04669285
vt -2.4997392 0.004577875
vt -1.2454444 -0.79011405
vt -0.64240634 -0.7931658
vt -1.8582482 0.77241373
vt -2.4997392 0.77241373
vt -1.2454444 0.08697677
vt -1.2454444 0.77241373
vt -0.6442374 0.12176752
vt -0.6454581 0.77241373
vt -0.64240634 -0.79011405
vt -0.0119018555 -0.7931658
vt -0.0119018555 0.15777874
vt -0.0119018555 0.77241373
vt -0.0119018555 -0.79011405
vt 0.63386154 -0.7931658
vt 0.6295891 0.122988224
vt 0.6265371 0.77241373
vt 0.63386154 -0.79011405
vt 1.2509379 -0.7931658
vt 1.2509379 0.08941817
vt 1.2509379 0.77241373
vt 1.2509379 -0.79011405
vt 1.8686247 -0.7931658
vt 1.8631315 0.05096531
vt 1.8686247 -0.79011405
vt 2.4997396 -0.7931658
vt 2.4997396 -0.79011405
vt 2.4997396 0.011291742
vt 1.8588591 0.77241373
vt 2.4997396 0.77241373
vt 1.8588591 0.77607584
vt 2.4997396 0.77607584
vt 1.2509379 0.77607584
vt 0.6265371 0.77607584
vt 0.6265371 0.77241373
vt -0.0119018555 0.77607584
vt -0.0119018555 0.77241373
vt -0.6454581 0.77607584
vt -0.6454581 0.77241373
vt -1.2454444 0.77607584
vt -1.2454444 0.77241373
vt -1.8582482 0.77607584
vt -1.8582482 0.77241373
vt -2.4997392 0.77607584
vt 0.9323287 0.813308
vt 0.9286666 0.8145287
vt 0.9274459 0.81819105
vt 1.7264104 0.813308
vt 0.9274459 0.9140179
vt 1.7563181 0.9140179
vt 2.4948564 0.813308
vt 2.4985185 0.8145287
vt 2.4997396 0.81819105
vt 2.4997396 0.9140179
vt 2.4997396 0.95674324
vt 2.497908 0.95308113
vt 2.4948564 0.9518604
vt 2.4997396 1.0525701
vt 1.6934505 0.9518604
vt 1.6641531 1.0525701
vt 0.9323287 0.9518604
vt 0.9286666 0.95308113
vt 0.9274459 0.95674324
vt 0.9274459 1.0525701
vt 1.8686247 -0.8230736
vt 2.4997396 -0.8230736
vt 2.4997396 -0.82673573
vt 1.8686247 -0.82673573
vt 1.2515483 -0.8230736
vt 1.2515483 -0.82673573
vt 0.63386154 -0.8230736
vt 0.63386154 -0.82673573
vt -0.011291504 -0.8230736
vt -0.011291504 -0.82673573
vt -0.641796 -0.8230736
vt -0.641796 -0.82673573
vt -1.2454444 -0.8230736
vt -1.2454444 -0.82673573
vt -1.8570275 -0.8230736
vt -1.8570275 -0.82673573
vt -2.4991288 -0.8230736
vt -2.4991288 -0.82673573
vt -2.4991288 -0.9225627
vt -1.8594689 -0.9225627
vt -1.2454444 -0.9225627
vt -0.6442374 -0.9225627
vt -0.011291504 -0.9225627
vt -0.011291504 -0.82673573
vt 0.63142014 -0.9225627
vt 0.63386154 -0.82673573
vt 1.2515483 -0.9225627
vt 1.2515483 -0.82673573
vt 1.8661833 -0.9225627
vt 1.8686247 -0.82673573
vt 2.4997396 -0.9225627
vn -0.003921509 -0.21568465 -0.9764552
vn -0.003921509 -0.2313708 -0.9728577
vn 0.0274508 -0.19215542 -0.9809805
vn 0.035293877 -0.16862619 -0.985048
vn 0.08235234 0.1450969 -0.98598427
vn -0.003921509 0.5215646 -0.85320276
vn 0.05882311 0.1450969 -0.9876673
vn 0.043136954 -0.21568465 -0.97550976
vn 0.043136954 -0.2313708 -0.9719088
vn 0.05098003 0.1450969 -0.9881032
vn 0.066666186 -0.19215542 -0.9790975
vn 0.066666186 -0.20784158 -0.9758881
vn -0.011764526 0.1450969 -0.9893475
vn 0.019607723 -0.19215542 -0.9811686
vn 0.0274508 -0.20784158 -0.97777724
vn -0.066666126 0.1450969 -0.9871689
vn -0.02745068 -0.19215542 -0.9809805
vn -0.019607663 -0.20784158 -0.97796595
vn -0.066666126 0.1450969 -0.9871689
vn -0.02745068 -0.1999985 -0.9794116
vn -0.02745068 -0.21568465 -0.97607714
vn -0.074509144 0.1450969 -0.98660797
vn -0.02745068 -0.20784158 -0.97777724
vn -0.003921509 0.5215646 -0.85320276
vn -0.02745068 -0.22352773 -0.97431093
vn -0.003921509 -0.21568465 -0.9764552
vn -0.003921509 -0.2313708 -0.9728577
vn -0.003921509 0.9764631 -0.21564901
vn -0.003921509 0.99214923 0.12499809
vn -0.003921509 0.85097384 0.5251934
vn 0.07450926 0.96861994 -0.23711547
vn -0.066666126 0.99214923 0.10580898
vn 0.121567726 0.9529338 -0.27773815
vn 0.16078311 0.9607769 -0.22595686
vn -0.019607663 0.9529338 -0.30254382
vn -0.12156761 0.99214923 0.029346678
vn 0.16078311 0.9450908 -0.28452104
vn -0.003921509 0.9764631 -0.21564901
vn 0.011764646 0.9450908 -0.3265961
vn 0.035293877 0.9450908 -0.3248965
vn -0.066666126 0.93724763 -0.3422317
vn -0.043136835 0.9294046 -0.36653274
vn -0.08235228 0.9450908 -0.31626183
vn -0.15293992 0.9843061 0.08803935
vn -0.11372459 0.9215615 -0.37120232
vn -0.098038435 0.9215615 -0.37564993
vn -0.12941074 0.9294046 -0.34562975
vn -0.19160222 0.9814727 -0
vn -0.15293992 0.91371846 -0.37646776
vn -0.13725376 0.9058753 -0.40068856
vn -0.16862607 0.91371846 -0.36970776
vn -0.19999838 0.9764631 -0.080749676
vn -0.16078305 0.8980323 -0.40949574
vn -0.13725376 0.8901892 -0.4344245
vn -0.1764692 0.9058753 -0.3850305
vn -0.19999838 0.9764631 -0.080749676
vn -0.16078305 0.88234615 -0.44228283
vn -0.18431222 0.8901892 -0.41664398
vn -0.003921509 0.85097384 0.5251934
vn -0.003921509 0.9764631 -0.21564901
vn -0.16078305 0.88234615 -0.44228283
vn -0.13725376 0.88234615 -0.45014077
vn -0.003921509 0.9764631 -0.21564901
vn -0.11372459 0.64705384 -0.7539152
vn -0.003921509 0.5215646 -0.85320276
vn -0.11372459 0.6392107 -0.76057637
vn -0.11372459 0.6392107 -0.76057637
vn -0.11372459 0.6392107 -0.76057637
vn -0.05882299 0.65489686 -0.7534255
vn -0.05882299 0.65489686 -0.7534255
vn 0.011764646 0.670583 -0.7417412
vn 0.0039215684 0.670583 -0.74182415
vn 0.066666186 0.67842615 -0.7316376
vn 0.066666186 0.67842615 -0.7316376
vn 0.16078311 0.68626916 -0.7093543
vn 0.16078311 0.68626916 -0.7093543
vn -0.003921509 0.5215646 -0.85320276
vn -0.99999225 0.003921509 -0.00034492963
vn -0.99999225 0.003921509 -0.00034492963
vn -0.99999225 0.003921509 -0.00034492963
vn -0.99993086 -0.011763923 -0
vn -0.99999225 0.003921509 -0.00034492963
vn -0.99993086 -0.011763923 -0
vn -0.99999225 0.003921509 -0.00034492963
vn -0.99999225 0.003921509 -0.00034492963
vn -0.99999225 0.003921509 -0.00034492963
vn -0.99999225 0.003921509 -0.00034492963
vn 0.9999924 -0.0039215684 -0
vn 0.9999924 -0.0039215684 -0
vn 0.9999924 -0.0039215684 -0
vn 0.9999924 -0.0039215684 -0
vn 0.99993086 0.011763803 -0
vn 0.99993086 0.011763803 -0
vn 0.9999924 -0.0039215684 -0
vn 0.9999924 -0.0039215684 -0
vn 0.9999924 -0.0039215684 -0
vn 0.9999924 -0.0039215684 -0
vn -0.098038435 0.64705384 0.7561149
vn -0.003921509 0.85097384 0.5251934
vn -0.003921509 0.24705684 0.96899307
vn -0.098038435 0.64705384 0.7561149
vn -0.0901953 0.6392107 0.7637241
vn -0.0901953 0.6392107 0.7637241
vn -0.0901953 0.6392107 0.7637241
vn -0.0901953 0.6392107 0.7637241
vn -0.10588145 0.6313677 0.76822126
vn -0.10588145 0.6313677 0.76822126
vn -0.12156761 0.62352455 0.7722943
vn -0.0901953 0.25489998 0.9627517
vn -0.08235228 0.6156815 0.78368
vn -0.074509144 0.24705684 0.9661321
vn -0.050979972 0.6156815 0.78634423
vn -0.05882299 0.25489998 0.9651766
vn -0.003921509 0.85097384 0.5251934
vn -0.003921509 0.24705684 0.96899307
vn -0.003921509 0.23137069 0.9728578
vn -0.05882299 0.23921382 0.96918344
vn -0.074509144 0.23921382 0.9681039
vn -0.0901953 0.23921382 0.9667686
vn -0.050979972 0.23921382 0.9696277
vn -0.043136835 0.23921382 0.9700082
vn -0.003921509 0.24705684 0.96899307
vn -0.003921509 0.24705684 0.96899307
vn -0.003921509 0.24705684 0.96899307
vn -0.003921509 0.24705684 0.96899307
vn -0.003921509 0.24705684 0.96899307
vn -0.003921509 0.24705684 0.96899307
vn -0.003921509 0.23137069 0.9728578
g LM1_floorPlate07_0
f 3/3/3 2/2/2 1/1/1
f 4/4/4 3/3/3 1/1/1
f 5/5/5 4/4/4 1/1/1
f 6/6/6 5/5/5 1/1/1
f 5/5/5 7/7/7 4/4/4
f 4/4/4 8/8/8 3/3/3
f 7/7/7 8/8/8 4/4/4
f 8/8/8 9/9/9 3/3/3
f 7/7/7 10/10/10 8/8/8
f 8/8/8 11/11/11 9/9/9
f 10/10/10 11/11/11 8/8/8
f 11/11/11 12/12/12 9/9/9
f 10/10/10 13/13/13 11/11/11
f 11/11/11 14/14/14 12/12/12
f 13/13/13 14/14/14 11/11/11
f 14/14/14 15/15/15 12/12/12
f 13/13/13 16/16/16 14/14/14
f 14/14/14 17/17/17 15/15/15
f 16/16/16 17/17/17 14/14/14
f 17/17/17 18/18/18 15/15/15
f 16/16/16 19/19/19 17/17/17
f 17/17/17 20/20/20 18/18/18
f 19/19/19 20/20/20 17/17/17
f 20/20/20 21/21/21 18/18/18
f 19/19/19 22/22/22 20/20/20
f 20/20/20 23/23/23 21/21/21
f 22/22/22 23/23/23 20/20/20
f 22/22/22 24/24/24 23/23/23
f 23/23/23 25/25/25 21/21/21
f 24/24/24 26/26/26 23/23/23
f 23/23/23 26/26/26 25/25/25
f 26/26/26 27/27/27 25/25/25
f 30/30/30 29/29/29 28/28/28
f 29/29/29 31/31/31 28/28/28
f 29/29/29 32/32/32 31/31/31
f 31/31/31 33/33/33 28/28/28
f 33/33/33 34/34/34 28/28/28
f 32/32/32 35/35/35 31/31/31
f 32/32/32 36/36/36 35/35/35
f 33/33/33 37/37/37 34/34/34
f 37/37/37 38/38/38 34/34/34
f 33/33/33 31/31/31 39/39/39
f 33/33/33 39/39/39 37/37/37
f 31/31/31 35/35/35 39/39/39
f 39/39/39 40/40/40 37/37/37
f 39/39/39 41/41/41 40/40/40
f 39/39/39 35/35/35 41/41/41
f 41/41/41 42/42/42 40/40/40
f 36/36/36 43/43/43 35/35/35
f 35/35/35 43/43/43 41/41/41
f 36/36/36 44/44/44 43/43/43
f 41/41/41 45/45/45 42/42/42
f 41/41/41 43/43/43 45/45/45
f 45/45/45 46/46/46 42/42/42
f 44/44/44 47/47/47 43/43/43
f 43/43/43 47/47/47 45/45/45
f 44/44/44 48/48/48 47/47/47
f 45/45/45 49/49/49 46/46/46
f 45/45/45 47/47/47 49/49/49
f 49/49/49 50/50/50 46/46/46
f 48/48/48 51/51/51 47/47/47
f 47/47/47 51/51/51 49/49/49
f 48/48/48 52/52/52 51/51/51
f 49/49/49 53/53/53 50/50/50
f 49/49/49 51/51/51 53/53/53
f 53/53/53 54/54/54 50/50/50
f 52/52/52 55/55/55 51/51/51
f 51/51/51 55/55/55 53/53/53
f 52/52/52 56/56/56 55/55/55
f 53/53/53 55/55/55 57/57/57
f 53/53/53 57/57/57 54/54/54
f 56/56/56 58/58/58 55/55/55
f 55/55/55 58/58/58 57/57/57
f 56/56/56 59/59/59 58/58/58
f 59/59/59 60/60/60 58/58/58
f 58/58/58 60/60/60 61/61/61
f 57/57/57 58/58/58 61/61/61
f 57/57/57 61/61/61 62/62/62
f 57/57/57 62/62/62 54/54/54
f 61/61/61 63/63/63 62/62/62
f 62/62/62 63/63/63 64/64/64
f 63/63/63 65/65/65 64/64/64
f 62/62/62 64/64/64 66/66/66
f 54/54/54 62/62/62 66/66/66
f 54/54/54 66/66/66 67/67/67
f 68/68/68 54/54/54 67/67/67
f 68/68/68 67/67/67 69/69/69
f 70/70/70 68/68/68 69/69/69
f 70/70/70 69/69/69 71/71/71
f 72/72/72 70/70/70 71/71/71
f 72/72/72 71/71/71 73/73/73
f 74/74/74 72/72/72 73/73/73
f 74/74/74 73/73/73 75/75/75
f 76/76/76 74/74/74 75/75/75
f 76/76/76 75/75/75 77/77/77
f 38/38/38 76/76/76 77/77/77
f 80/80/80 79/79/79 78/78/78
f 80/80/80 78/78/78 81/81/81
f 82/82/82 80/80/80 81/81/81
f 81/81/81 83/83/83 82/82/82
f 83/83/83 81/81/81 84/84/84
f 83/83/83 84/84/84 85/85/85
f 83/83/83 85/85/85 86/86/86
f 86/86/86 87/87/87 83/83/83
f 90/90/90 89/89/89 88/88/88
f 90/90/90 88/88/88 91/91/91
f 92/92/92 90/90/90 91/91/91
f 91/91/91 93/93/93 92/92/92
f 94/94/94 92/92/92 93/93/93
f 95/95/95 94/94/94 93/93/93
f 96/96/96 95/95/95 93/93/93
f 93/93/93 97/97/97 96/96/96
f 100/100/100 99/99/99 98/98/98
f 101/101/101 100/100/100 98/98/98
f 101/101/101 98/98/98 102/102/102
f 103/103/103 101/101/101 102/102/102
f 103/103/103 102/102/102 104/104/104
f 105/105/105 103/103/103 104/104/104
f 105/105/105 104/104/104 106/106/106
f 107/107/107 105/105/105 106/106/106
f 107/107/107 106/106/106 108/108/108
f 109/109/109 107/107/107 108/108/108
f 109/109/109 108/108/108 110/110/110
f 111/111/111 109/109/109 110/110/110
f 111/111/111 110/110/110 112/112/112
f 113/113/113 111/111/111 112/112/112
f 113/113/113 112/112/112 114/114/114
f 115/115/115 113/113/113 114/114/114
f 113/113/113 115/115/115 116/116/116
f 117/117/117 113/113/113 116/116/116
f 117/117/117 118/118/118 113/113/113
f 118/118/118 111/111/111 113/113/113
f 118/118/118 119/119/119 111/111/111
f 119/119/119 109/109/109 111/111/111
f 119/119/119 120/120/120 109/109/109
f 120/120/120 121/121/121 109/109/109
f 120/120/120 122/122/122 121/121/121
f 122/122/122 123/123/123 121/121/121
f 122/122/122 124/124/124 123/123/123
f 124/124/124 125/125/125 123/123/123
f 124/124/124 126/126/126 125/125/125
f 126/126/126 127/127/127 125/125/125
f 126/126/126 128/128/128 127/127/127
f 128/128/128 100/100/100 127/127/127
