g LM1_floorPlate09
v -49.5846 -10.966793 -45.2273
v -49.5846 -11.891773 -45.008377
v -37.146664 -14.379652 -45.2099
v -37.146664 -13.454672 -45.42882
v -24.908802 -14.057793 -44.961983
v -24.908802 -14.981323 -44.74306
v -12.382423 -13.454672 -45.42882
v -12.382423 -14.379652 -45.2099
v 0.0004196167 -10.966793 -45.2273
v 0.0004196167 -11.891773 -45.008377
v -37.146664 -13.416977 -45.423023
v -49.5846 -10.9291 -45.221497
v -37.146664 -13.454672 -45.42882
v -24.908802 -14.020098 -44.956184
v -24.908802 -14.057793 -44.961983
v -12.382423 -13.416977 -45.423023
v -12.382423 -13.454672 -45.42882
v 0.0004196167 -10.9291 -45.221497
v -49.5846 -7.384308 -30.349329
v -37.146664 -8.953007 -30.360928
v -49.5846 -7.39011 -30.310184
v -37.146664 -8.947208 -30.398623
v -24.908802 -9.848991 -30.317432
v -24.908802 -9.843189 -30.35513
v -12.382423 -8.953007 -30.360928
v -12.382423 -8.947208 -30.398623
v 0.0004196167 -7.39011 -30.310184
v 0.0004196167 -7.384308 -30.349329
v -49.5846 -10.907352 -45.19105
v -37.146664 -13.395229 -45.391125
v -37.146664 -8.947208 -30.398623
v -24.908802 -9.843189 -30.35513
v -24.908802 -13.996901 -44.925735
v -12.382423 -8.947208 -30.398623
v -12.382423 -13.395229 -45.391125
v 0.0004196167 -10.907352 -45.19105
v -49.5846 -10.9291 -45.221497
v -37.146664 -13.395229 -45.391125
v -37.146664 -13.416977 -45.423023
v -24.908802 -13.996901 -44.925735
v -24.908802 -14.020098 -44.956184
v -12.382423 -13.395229 -45.391125
v -12.382423 -13.416977 -45.423023
v 0.0004196167 -10.9291 -45.221497
v -49.5846 -8.345535 -30.069515
v -49.5846 -11.891773 -45.008377
v -49.5846 -10.966793 -45.2273
v -49.5846 -10.9291 -45.221497
v -49.5846 -10.907352 -45.19105
v -49.5846 -7.384308 -30.349329
v -49.5846 -7.4220047 -30.288437
v -49.5846 -7.39011 -30.310184
v 0.0004196167 -10.966793 -45.2273
v 0.0004196167 -11.891773 -45.008377
v 0.0004196167 -8.345535 -30.069515
v 0.0004196167 -10.9291 -45.221497
v 0.0004196167 -10.907352 -45.19105
v 0.0004196167 -7.384308 -30.349329
v 0.0004196167 -7.4220047 -30.288437
v 0.0004196167 -7.39011 -30.310184
v -12.382423 -8.953007 -30.360928
v 0.0004196167 -7.39011 -30.310184
v 0.0004196167 -7.4220047 -30.288437
v -12.382423 -8.984901 -30.33918
v -24.908802 -9.848991 -30.317432
v -24.908802 -9.880886 -30.295685
v -37.146664 -8.953007 -30.360928
v -37.146664 -8.984901 -30.33918
v -49.5846 -7.39011 -30.310184
v -49.5846 -7.4220047 -30.288437
v -12.382423 -8.984901 -30.33918
v 0.0004196167 -8.345535 -30.069515
v -12.382423 -9.908432 -30.120258
v -24.908802 -9.880886 -30.295685
v -24.908802 -10.804417 -30.075314
v -37.146664 -8.984901 -30.33918
v -49.5846 -8.345535 -30.069515
v -37.146664 -9.908432 -30.120258
vt -2.4997392 -1.0489076
vt -2.4997392 -0.9530808
vt -1.2454444 -0.9530808
vt -1.2454444 -1.0489076
vt -0.0119018555 -1.0489076
vt -0.0119018555 -0.9530808
vt 1.2509379 -1.0489076
vt 1.2509379 -0.9530808
vt 2.4997396 -1.0489076
vt 2.4997396 -0.9530808
vt -1.2454444 -1.0525699
vt -2.4997392 -1.0525699
vt -1.2454444 -1.0489076
vt -0.0119018555 -1.0525699
vt -0.0119018555 -1.0489076
vt 1.2509379 -1.0525699
vt 1.2509379 -1.0489076
vt 2.4997396 -1.0525699
vt -2.4997392 -0.79011405
vt -1.2454444 -0.7931658
vt -2.4997392 -0.7931658
vt -1.2454444 -0.79011405
vt -0.0119018555 -0.7931658
vt -0.0119018555 -0.79011405
vt 1.2509379 -0.7931658
vt 1.2509379 -0.79011405
vt 2.4997396 -0.7931658
vt 2.4997396 -0.79011405
vt -2.4997392 0.77241373
vt -1.2454444 0.77241373
vt -1.2454444 -0.79011405
vt -0.0119018555 -0.79011405
vt -0.0119018555 0.77241373
vt 1.2509379 -0.79011405
vt 1.2509379 0.77241373
vt 2.4997396 0.77241373
vt -2.4997392 0.77607584
vt -1.2454444 0.77241373
vt -1.2454444 0.77607584
vt -0.0119018555 0.77241373
vt -0.0119018555 0.77607584
vt 1.2509379 0.77241373
vt 1.2509379 0.77607584
vt 2.4997396 0.77607584
vt 0.9274459 0.9140179
vt 2.4997396 0.9140179
vt 2.4997396 0.81819105
vt 2.4985185 0.8145287
vt 2.4948564 0.813308
vt 0.9323287 0.813308
vt 0.9274459 0.81819105
vt 0.9286666 0.8145287
vt 0.9274459 0.95674324
vt 0.9274459 1.0525701
vt 2.4997396 1.0525701
vt 0.9286666 0.95308113
vt 0.9323287 0.9518604
vt 2.4948564 0.9518604
vt 2.4997396 0.95674324
vt 2.497908 0.95308113
vt 1.2515483 -0.8230736
vt 2.4997396 -0.8230736
vt 2.4997396 -0.82673573
vt 1.2515483 -0.82673573
vt -0.011291504 -0.8230736
vt -0.011291504 -0.82673573
vt -1.2454444 -0.8230736
vt -1.2454444 -0.82673573
vt -2.4991288 -0.8230736
vt -2.4991288 -0.82673573
vt 1.2515483 -0.82673573
vt 2.4997396 -0.9225627
vt 1.2515483 -0.9225627
vt -0.011291504 -0.82673573
vt -0.011291504 -0.9225627
vt -1.2454444 -0.82673573
vt -2.4991288 -0.9225627
vt -1.2454444 -0.9225627
vn -0.003921509 -0.21568465 -0.9764552
vn -0.003921509 -0.2313708 -0.9728577
vn -0.011764526 -0.2313708 -0.9727945
vn -0.019607663 -0.2313708 -0.972668
vn 0.0039215684 -0.2313708 -0.9728577
vn -0.003921509 -0.2313708 -0.9728577
vn 0.019607723 -0.2313708 -0.972668
vn 0.011764646 -0.2313708 -0.9727945
vn -0.003921509 -0.21568465 -0.9764552
vn -0.003921509 -0.2313708 -0.9728577
vn 0.0274508 0.16078305 -0.98660797
vn -0.003921509 0.5215646 -0.85320276
vn 0.035293877 0.16078305 -0.9863585
vn 0.0039215684 0.16078305 -0.986982
vn -0.003921509 0.16078305 -0.986982
vn -0.02745068 0.16078305 -0.98660797
vn -0.02745068 0.16078305 -0.98660797
vn -0.003921509 0.5215646 -0.85320276
vn -0.003921509 0.9764631 -0.21564901
vn 0.098038495 0.9843061 0.14673096
vn -0.003921509 0.85097384 0.5251934
vn 0.098038495 0.9843061 0.14673096
vn -0.003921509 0.9843061 0.17642602
vn 0.0039215684 0.9843061 0.17642602
vn -0.098038435 0.9843061 0.14673096
vn -0.098038435 0.9843061 0.14673096
vn -0.003921509 0.85097384 0.5251934
vn -0.003921509 0.9764631 -0.21564901
vn -0.003921509 0.9764631 -0.21564901
vn 0.10588157 0.9607769 -0.25631383
vn 0.11372465 0.9607769 -0.25293157
vn 0.0039215684 0.9607769 -0.27729464
vn 0.0039215684 0.9607769 -0.27729464
vn -0.10588145 0.9607769 -0.25631395
vn -0.10588145 0.9607769 -0.25631395
vn -0.003921509 0.9764631 -0.21564901
vn -0.003921509 0.5215646 -0.85320276
vn 0.10588157 0.8039154 -0.5852428
vn 0.10588157 0.8039154 -0.5852428
vn 0.0039215684 0.8117584 -0.58398026
vn -0.003921509 0.8117584 -0.58398026
vn -0.10588145 0.8039154 -0.58524287
vn -0.10588145 0.8039154 -0.58524287
vn -0.003921509 0.5215646 -0.85320276
vn -0.99999225 -0.0039215684 -0.00034425134
vn -0.99999225 -0.0039215684 -0.00034425134
vn -0.99999225 -0.0039215684 -0.00034425134
vn -0.99999225 -0.0039215684 -0.00034425134
vn -0.99999225 -0.0039215684 -0.00034425134
vn -0.99999225 -0.0039215684 -0.00034425134
vn -0.99999225 -0.0039215684 -0.00034425134
vn -0.99999225 -0.0039215684 -0.00034425134
vn 0.9999924 -0.0039215684 -0
vn 0.9999924 -0.0039215684 -0
vn 0.9999924 -0.0039215684 -0
vn 0.9999924 -0.0039215684 -0
vn 0.9999924 -0.0039215684 -0
vn 0.9999924 -0.0039215684 -0
vn 0.9999924 -0.0039215684 -0
vn 0.9999924 -0.0039215684 -0
vn -0.05882299 0.5843092 0.80939645
vn -0.003921509 0.85097384 0.5251934
vn -0.003921509 0.24705684 0.96899307
vn -0.05882299 0.5843092 0.80939645
vn 0.0039215684 0.5843092 0.81152165
vn -0.003921509 0.5843092 0.81152165
vn 0.05882311 0.5843092 0.80939645
vn 0.05882311 0.5843092 0.80939645
vn -0.003921509 0.85097384 0.5251934
vn -0.003921509 0.24705684 0.96899307
vn -0.02745068 0.23137069 0.97247833
vn -0.003921509 0.23137069 0.9728578
vn -0.019607663 0.23137069 0.97266805
vn 0.0039215684 0.23137069 0.9728578
vn -0.003921509 0.23137069 0.9728578
vn 0.0274508 0.23137069 0.97247833
vn -0.003921509 0.23137069 0.9728578
vn 0.019607723 0.23137069 0.97266805
g LM1_floorPlate09_0
f 3/3/3 2/2/2 1/1/1
f 4/4/4 3/3/3 1/1/1
f 4/4/4 5/5/5 3/3/3
f 5/5/5 6/6/6 3/3/3
f 5/5/5 7/7/7 6/6/6
f 7/7/7 8/8/8 6/6/6
f 7/7/7 9/9/9 8/8/8
f 9/9/9 10/10/10 8/8/8
f 12/12/12 11/11/11 1/1/1
f 11/11/11 13/13/13 1/1/1
f 11/11/11 14/14/14 13/13/13
f 14/14/14 15/15/15 13/13/13
f 14/14/14 16/16/16 15/15/15
f 16/16/16 17/17/17 15/15/15
f 18/18/18 9/9/9 17/17/17
f 16/16/16 18/18/18 17/17/17
f 21/21/21 20/20/20 19/19/19
f 20/20/20 22/22/22 19/19/19
f 20/20/20 23/23/23 22/22/22
f 23/23/23 24/24/24 22/22/22
f 23/23/23 25/25/25 24/24/24
f 25/25/25 26/26/26 24/24/24
f 25/25/25 27/27/27 26/26/26
f 27/27/27 28/28/28 26/26/26
f 30/30/30 29/29/29 19/19/19
f 31/31/31 30/30/30 19/19/19
f 31/31/31 32/32/32 30/30/30
f 32/32/32 33/33/33 30/30/30
f 32/32/32 34/34/34 33/33/33
f 34/34/34 35/35/35 33/33/33
f 34/34/34 28/28/28 35/35/35
f 28/28/28 36/36/36 35/35/35
f 29/29/29 38/38/38 37/37/37
f 38/38/38 39/39/39 37/37/37
f 38/38/38 40/40/40 39/39/39
f 40/40/40 41/41/41 39/39/39
f 40/40/40 42/42/42 41/41/41
f 42/42/42 43/43/43 41/41/41
f 42/42/42 36/36/36 43/43/43
f 36/36/36 44/44/44 43/43/43
f 47/47/47 46/46/46 45/45/45
f 45/45/45 48/48/48 47/47/47
f 45/45/45 49/49/49 48/48/48
f 45/45/45 50/50/50 49/49/49
f 45/45/45 51/51/51 50/50/50
f 51/51/51 52/52/52 50/50/50
f 55/55/55 54/54/54 53/53/53
f 53/53/53 56/56/56 55/55/55
f 56/56/56 57/57/57 55/55/55
f 57/57/57 58/58/58 55/55/55
f 58/58/58 59/59/59 55/55/55
f 58/58/58 60/60/60 59/59/59
f 63/63/63 62/62/62 61/61/61
f 64/64/64 63/63/63 61/61/61
f 64/64/64 61/61/61 65/65/65
f 66/66/66 64/64/64 65/65/65
f 66/66/66 65/65/65 67/67/67
f 68/68/68 66/66/66 67/67/67
f 68/68/68 67/67/67 69/69/69
f 70/70/70 68/68/68 69/69/69
f 72/72/72 63/63/63 71/71/71
f 73/73/73 72/72/72 71/71/71
f 73/73/73 71/71/71 74/74/74
f 75/75/75 73/73/73 74/74/74
f 75/75/75 74/74/74 76/76/76
f 76/76/76 70/70/70 77/77/77
f 78/78/78 75/75/75 76/76/76
f 78/78/78 76/76/76 77/77/77
