g LM2_floorPlate12
v -49.581062 -4.1278095 -27.685575
v -49.582245 -5.0521984 -27.466269
v -43.171654 -6.31616 -27.466269
v -43.17047 -5.3917713 -27.685575
v -43.169296 -5.35404 -27.67968
v -49.581062 -4.0900803 -27.67968
v -37.163124 -6.5390034 -27.67968
v -37.163124 -6.5767326 -27.685575
v -37.164307 -7.5011215 -27.466269
v -31.146345 -7.5317783 -27.67968
v -31.146345 -7.5695076 -27.685575
v -31.147528 -8.4938965 -27.466269
v -24.797068 -8.241577 -27.67968
v -24.797068 -8.279306 -27.685575
v -24.798246 -9.203695 -27.466269
v -18.539759 -8.195593 -27.67968
v -18.539759 -8.233322 -27.685575
v -18.540937 -9.157711 -27.466269
v -12.348478 -7.8524837 -27.67968
v -12.348478 -7.890215 -27.685575
v -12.349657 -8.815783 -27.466269
v -6.3187275 -7.254698 -27.67968
v -6.3187275 -7.292427 -27.685575
v -0.000104904175 -6.6286125 -27.67968
v -6.319906 -8.217995 -27.466269
v -0.000104904175 -6.666342 -27.685575
v -0.0012836456 -7.5907307 -27.466269
v -49.584602 -2.011385 -12.806925
v -43.171654 -2.0172806 -12.769195
v -49.584602 -2.0172806 -12.769195
v -43.171654 -2.011385 -12.806925
v -37.163124 -2.0172806 -12.769195
v -43.171654 -3.4663544 -21.052143
v -49.584602 -2.7683449 -21.052143
v -37.163124 -2.011385 -12.806925
v -31.145166 -2.0172806 -12.769195
v -43.169296 -5.3316383 -27.649025
v -49.581062 -4.0676785 -27.649025
v -49.581062 -4.0900803 -27.67968
v -43.169296 -5.35404 -27.67968
v -37.163124 -4.1195564 -21.052143
v -37.163124 -6.5166016 -27.649025
v -37.163124 -6.5390034 -27.67968
v -31.145166 -2.011385 -12.806925
v -24.79471 -2.0172806 -12.769195
v -24.79471 -2.011385 -12.806925
v -18.537401 -2.0172806 -12.769195
v -18.537401 -2.011385 -12.806925
v -12.347296 -2.0172806 -12.769195
v -12.347296 -2.011385 -12.806925
v -6.3175488 -2.0172806 -12.769195
v -6.3175488 -2.011385 -12.806925
v -0.000104904175 -2.0172806 -12.769195
v -0.000104904175 -2.011385 -12.806925
v -0.000104904175 -4.143139 -21.052143
v -31.146345 -7.5093746 -27.649025
v -31.146345 -7.5317783 -27.67968
v -6.3175488 -4.49568 -21.052143
v -12.347296 -2.011385 -12.806925
v -31.145166 -4.666645 -21.052143
v -31.145166 -2.011385 -12.806925
v -24.79471 -5.0569153 -21.052143
v -24.79471 -2.011385 -12.806925
v -24.797068 -8.219173 -27.649025
v -24.797068 -8.241577 -27.67968
v -18.537401 -5.0262604 -21.052143
v -18.537401 -2.011385 -12.806925
v -12.347296 -4.8317127 -21.052143
v -18.539759 -8.173191 -27.649025
v -18.539759 -8.195593 -27.67968
v -12.348478 -7.830082 -27.649025
v -12.348478 -7.8524837 -27.67968
v -6.3187275 -7.232294 -27.649025
v -6.3187275 -7.254698 -27.67968
v -0.000104904175 -6.6062107 -27.649025
v -0.000104904175 -6.6286125 -27.67968
v -49.584602 -2.011385 -12.806925
v -49.584602 -2.0172806 -12.769195
v -49.584602 -2.0479355 -12.746793
v -49.584602 -2.7683449 -21.052143
v -49.584602 -2.9723244 -12.527486
v -49.584602 -3.7788067 -21.052143
v -49.581062 -4.0676785 -27.649025
v -49.581062 -4.0900803 -27.67968
v -49.581062 -4.1278095 -27.685575
v -49.582245 -5.0521984 -27.466269
v -0.000104904175 -2.0479355 -12.746793
v -0.000104904175 -2.0172806 -12.769195
v -0.000104904175 -2.011385 -12.806925
v -0.000104904175 -2.9723244 -12.527486
v -0.000104904175 -4.143139 -21.052143
v -0.000104904175 -5.1901493 -21.052143
v -0.000104904175 -6.6062107 -27.649025
v -0.000104904175 -6.6286125 -27.67968
v -0.000104904175 -6.666342 -27.685575
v -0.0012836456 -7.5907307 -27.466269
v -6.3175488 -2.0172806 -12.769195
v -0.000104904175 -2.0172806 -12.769195
v -0.000104904175 -2.0479355 -12.746793
v -6.3175488 -2.0479355 -12.746793
v -0.000104904175 -2.9723244 -12.527486
v -12.347296 -2.0172806 -12.769195
v -6.3175488 -2.9723244 -12.527486
v -12.347296 -2.0479355 -12.746793
v -18.537401 -2.0172806 -12.769195
v -12.347296 -2.9723244 -12.527486
v -18.537401 -2.0479355 -12.746793
v -24.79471 -2.0172806 -12.769195
v -18.537401 -2.9723244 -12.527486
v -24.79471 -2.0479355 -12.746793
v -31.145166 -2.0172806 -12.769195
v -24.79471 -2.9723244 -12.527486
v -31.145166 -2.0479355 -12.746793
v -37.163124 -2.0172806 -12.769195
v -31.145166 -2.9723244 -12.527486
v -37.163124 -2.0479355 -12.746793
v -43.171654 -2.0172806 -12.769195
v -37.163124 -2.9723244 -12.527486
v -43.171654 -2.0479355 -12.746793
v -49.584602 -2.0172806 -12.769195
v -43.171654 -2.9723244 -12.527486
v -49.584602 -2.0479355 -12.746793
v -49.584602 -2.9723244 -12.527486
vt -2.4997392 -1.0489076
vt -2.4997392 -0.9530808
vt -1.8533654 -0.9530808
vt -1.8533654 -1.0489076
vt -1.8533654 -1.0525699
vt -2.4997392 -1.0525699
vt -1.2472755 -1.0525699
vt -1.2472755 -1.0489076
vt -1.2472755 -0.9530808
vt -0.6405753 -1.0525699
vt -0.6405753 -1.0489076
vt -0.6405753 -0.9530808
vt -0.00030493736 -1.0525699
vt -0.00030493736 -1.0489076
vt -0.00030493736 -0.9530808
vt 0.6308098 -1.0525699
vt 0.6308098 -1.0489076
vt 0.6308098 -0.9530808
vt 1.2546 -1.0525699
vt 1.2546 -1.0489076
vt 1.2546 -0.9530808
vt 1.8625212 -1.0525699
vt 1.8625212 -1.0489076
vt 2.4997396 -1.0525699
vt 1.8625212 -0.9530808
vt 2.4997396 -1.0489076
vt 2.4997396 -0.9530808
vt -2.4997392 -0.79011405
vt -1.8533654 -0.7931658
vt -2.4997392 -0.7931658
vt -1.8533654 -0.79011405
vt -1.2472755 -0.7931658
vt -1.8533654 0.077821255
vt -2.4997392 0.077821255
vt -1.2472755 -0.79011405
vt -0.6405753 -0.7931658
vt -1.8533654 0.77241373
vt -2.4997392 0.77241373
vt -2.4997392 0.77607584
vt -1.8533654 0.77607584
vt -1.2472755 0.077821255
vt -1.2472755 0.77241373
vt -1.2472755 0.77607584
vt -0.6405753 -0.79011405
vt -0.00030493736 -0.7931658
vt -0.00030493736 -0.79011405
vt 0.6308098 -0.7931658
vt 0.6308098 -0.79011405
vt 1.2546 -0.7931658
vt 1.2546 -0.79011405
vt 1.8625212 -0.7931658
vt 1.8625212 -0.79011405
vt 2.4997396 -0.7931658
vt 2.4997396 -0.79011405
vt 2.4997396 0.077821255
vt -0.6405753 0.77241373
vt -0.6405753 0.77607584
vt 1.8625212 0.077821255
vt 1.2546 -0.79011405
vt -0.6405753 0.077821255
vt -0.6405753 -0.79011405
vt -0.00030493736 0.077821255
vt -0.00030493736 -0.79011405
vt -0.00030493736 0.77241373
vt -0.00030493736 0.77607584
vt 0.6308098 0.077821255
vt 0.6308098 -0.79011405
vt 1.2546 0.077821255
vt 0.6308098 0.77241373
vt 0.6308098 0.77607584
vt 1.2546 0.77241373
vt 1.2546 0.77607584
vt 1.8625212 0.77241373
vt 1.8625212 0.77607584
vt 2.4997396 0.77241373
vt 2.4997396 0.77607584
vt 0.9323287 0.813308
vt 0.9286666 0.8145287
vt 0.9274459 0.81819105
vt 1.8002639 0.813308
vt 0.9274459 0.9140179
vt 1.8246784 0.9140179
vt 2.4948564 0.813308
vt 2.4985185 0.8145287
vt 2.4997396 0.81819105
vt 2.4997396 0.9140179
vt 2.4997396 0.95674324
vt 2.497908 0.95308113
vt 2.4948564 0.9518604
vt 2.4997396 1.0525701
vt 1.6269212 0.9518604
vt 1.6025066 1.0525701
vt 0.9323287 0.9518604
vt 0.9286666 0.95308113
vt 0.9274459 0.95674324
vt 0.9274459 1.0525701
vt 1.8625212 -0.8230736
vt 2.4997396 -0.8230736
vt 2.4997396 -0.82673573
vt 1.8625212 -0.82673573
vt 2.4997396 -0.9225627
vt 1.2546 -0.8230736
vt 1.8625212 -0.9225627
vt 1.2546 -0.82673573
vt 0.6308098 -0.8230736
vt 1.2546 -0.9225627
vt 0.6308098 -0.82673573
vt -0.00030493736 -0.8230736
vt 0.6308098 -0.9225627
vt -0.00030493736 -0.82673573
vt -0.6405753 -0.8230736
vt -0.00030493736 -0.9225627
vt -0.6405753 -0.82673573
vt -1.2472755 -0.8230736
vt -0.6405753 -0.9225627
vt -1.2472755 -0.82673573
vt -1.8527551 -0.8230736
vt -1.2472755 -0.9225627
vt -1.8527551 -0.82673573
vt -2.4991288 -0.8230736
vt -1.8527551 -0.9225627
vt -2.4991288 -0.82673573
vt -2.4991288 -0.9225627
vn -0.003921509 -0.21568465 -0.9764552
vn -0.003921509 -0.2313708 -0.9728577
vn -0.043136835 -0.2313708 -0.9719088
vn -0.043136835 -0.21568465 -0.97550976
vn 0.0274508 0.16078305 -0.98660797
vn -0.003921509 0.5215646 -0.85320276
vn 0.0274508 0.16078305 -0.98660797
vn -0.043136835 -0.21568465 -0.97550976
vn -0.043136835 -0.2313708 -0.9719088
vn 0.019607723 0.16078305 -0.986795
vn -0.02745068 -0.21568465 -0.97607714
vn -0.02745068 -0.2313708 -0.9724783
vn 0.011764646 0.16078305 -0.98691964
vn -0.011764526 -0.21568465 -0.9763922
vn -0.011764526 -0.2313708 -0.9727945
vn -0.003921509 0.16078305 -0.986982
vn 0.0039215684 -0.21568465 -0.9764552
vn 0.0039215684 -0.2313708 -0.9728577
vn -0.011764526 0.16078305 -0.98691964
vn 0.019607723 -0.21568465 -0.9762662
vn 0.019607723 -0.2313708 -0.972668
vn -0.019607663 0.16078305 -0.986795
vn 0.019607723 -0.21568465 -0.9762662
vn -0.003921509 0.5215646 -0.85320276
vn 0.019607723 -0.2313708 -0.972668
vn -0.003921509 -0.21568465 -0.9764552
vn -0.003921509 -0.2313708 -0.9728577
vn -0.003921509 0.9764631 -0.21564901
vn -0.003921509 0.9843061 0.17642602
vn -0.003921509 0.85097384 0.5251934
vn 0.05098003 0.9843061 -0.16894549
vn -0.003921509 0.9843061 0.17642602
vn 0.098038495 0.96861994 -0.22839405
vn 0.098038495 0.9764631 -0.19211541
vn 0.05098003 0.96861994 -0.2432621
vn -0.003921509 0.9843061 0.17642602
vn 0.14509696 0.9529338 -0.26620308
vn -0.003921509 0.9764631 -0.21564901
vn -0.003921509 0.5215646 -0.85320276
vn 0.16078311 0.8039154 -0.57259834
vn 0.08235234 0.9529338 -0.29177952
vn 0.1294108 0.9294046 -0.34562966
vn 0.14509696 0.8039154 -0.57677287
vn -0.003921509 0.9843061 0.17642602
vn -0.003921509 0.9843061 0.17642602
vn -0.003921509 0.9843061 0.17642602
vn -0.003921509 0.9843061 0.17642602
vn -0.003921509 0.9843061 0.17642602
vn 0.0039215684 0.9843061 0.17642602
vn 0.0039215684 0.9843061 0.17642602
vn 0.0039215684 0.9843061 0.17642602
vn -0.02745068 0.9607769 -0.27596045
vn -0.003921509 0.85097384 0.5251934
vn -0.003921509 0.9764631 -0.21564901
vn -0.050979972 0.9450908 -0.3228072
vn 0.098038495 0.91371846 -0.3943438
vn 0.11372465 0.8039154 -0.58376944
vn -0.050979972 0.9450908 -0.3228072
vn -0.019607663 0.9450908 -0.3262192
vn 0.066666186 0.93724763 -0.3422317
vn 0.035293877 0.9529338 -0.30111715
vn 0.0274508 0.9294046 -0.3680401
vn 0.011764646 0.9450908 -0.3265961
vn 0.035293877 0.9058753 -0.42207134
vn 0.043136954 0.8117584 -0.58239806
vn -0.011764526 0.9215615 -0.38805413
vn -0.011764526 0.93724763 -0.34846592
vn -0.035293818 0.9294046 -0.36737087
vn -0.019607663 0.9058753 -0.42309034
vn -0.02745068 0.8117584 -0.5833479
vn -0.050979972 0.91371846 -0.40313724
vn -0.05882299 0.8117584 -0.58102334
vn -0.074509144 0.9215615 -0.38101545
vn -0.08235228 0.8117584 -0.5781578
vn -0.003921509 0.9764631 -0.21564901
vn -0.003921509 0.5215646 -0.85320276
vn -0.99999225 0.003921509 -0.00034492963
vn -0.99999225 0.003921509 -0.00034492963
vn -0.99999225 0.003921509 -0.00034492963
vn -0.99999225 0.003921509 -0.00034492963
vn -0.99999225 0.003921509 -0.00034492963
vn -0.99999225 0.003921509 -0.00034492963
vn -0.99999225 0.003921509 -0.00034492963
vn -0.99999225 0.003921509 -0.00034492963
vn -0.99999225 0.003921509 -0.00034492963
vn -0.99999225 0.003921509 -0.00034492963
vn 0.9999924 -0.0039215684 -0
vn 0.9999924 -0.0039215684 -0
vn 0.9999924 -0.0039215684 -0
vn 0.9999924 -0.0039215684 -0
vn 0.9999924 -0.0039215684 -0
vn 0.9999924 -0.0039215684 -0
vn 0.9999924 -0.0039215684 -0
vn 0.9999924 -0.0039215684 -0
vn 0.9999924 -0.0039215684 -0
vn 0.9999924 -0.0039215684 -0
vn 0.0039215684 0.5843092 0.81152165
vn -0.003921509 0.85097384 0.5251934
vn -0.003921509 0.24705684 0.96899307
vn -0.003921509 0.24705684 0.96899307
vn -0.003921509 0.23137069 0.9728578
vn 0.0039215684 0.5843092 0.81152165
vn -0.003921509 0.23137069 0.9728578
vn 0.0039215684 0.24705684 0.96899307
vn -0.003921509 0.5843092 0.81152165
vn 0.0039215684 0.23137069 0.9728578
vn -0.003921509 0.24705684 0.96899307
vn -0.003921509 0.5843092 0.81152165
vn -0.003921509 0.23137069 0.9728578
vn -0.003921509 0.24705684 0.96899307
vn -0.003921509 0.5843092 0.81152165
vn -0.003921509 0.23137069 0.9728578
vn -0.003921509 0.24705684 0.96899307
vn -0.003921509 0.5843092 0.81152165
vn -0.003921509 0.23137069 0.9728578
vn -0.003921509 0.24705684 0.96899307
vn -0.003921509 0.5843092 0.81152165
vn -0.003921509 0.23137069 0.9728578
vn -0.003921509 0.24705684 0.96899307
vn -0.003921509 0.85097384 0.5251934
vn -0.003921509 0.23137069 0.9728578
vn -0.003921509 0.24705684 0.96899307
vn -0.003921509 0.23137069 0.9728578
g LM2_floorPlate12_0
f 3/3/3 2/2/2 1/1/1
f 4/4/4 3/3/3 1/1/1
f 5/5/5 4/4/4 1/1/1
f 6/6/6 5/5/5 1/1/1
f 5/5/5 7/7/7 4/4/4
f 4/4/4 8/8/8 3/3/3
f 7/7/7 8/8/8 4/4/4
f 8/8/8 9/9/9 3/3/3
f 7/7/7 10/10/10 8/8/8
f 8/8/8 11/11/11 9/9/9
f 10/10/10 11/11/11 8/8/8
f 11/11/11 12/12/12 9/9/9
f 10/10/10 13/13/13 11/11/11
f 11/11/11 14/14/14 12/12/12
f 13/13/13 14/14/14 11/11/11
f 14/14/14 15/15/15 12/12/12
f 13/13/13 16/16/16 14/14/14
f 14/14/14 17/17/17 15/15/15
f 16/16/16 17/17/17 14/14/14
f 17/17/17 18/18/18 15/15/15
f 16/16/16 19/19/19 17/17/17
f 17/17/17 20/20/20 18/18/18
f 19/19/19 20/20/20 17/17/17
f 20/20/20 21/21/21 18/18/18
f 19/19/19 22/22/22 20/20/20
f 20/20/20 23/23/23 21/21/21
f 22/22/22 23/23/23 20/20/20
f 22/22/22 24/24/24 23/23/23
f 23/23/23 25/25/25 21/21/21
f 24/24/24 26/26/26 23/23/23
f 23/23/23 26/26/26 25/25/25
f 26/26/26 27/27/27 25/25/25
f 30/30/30 29/29/29 28/28/28
f 29/29/29 31/31/31 28/28/28
f 29/29/29 32/32/32 31/31/31
f 31/31/31 33/33/33 28/28/28
f 33/33/33 34/34/34 28/28/28
f 32/32/32 35/35/35 31/31/31
f 32/32/32 36/36/36 35/35/35
f 33/33/33 37/37/37 34/34/34
f 37/37/37 38/38/38 34/34/34
f 38/38/38 37/37/37 39/39/39
f 37/37/37 40/40/40 39/39/39
f 33/33/33 31/31/31 41/41/41
f 33/33/33 41/41/41 37/37/37
f 31/31/31 35/35/35 41/41/41
f 37/37/37 42/42/42 40/40/40
f 41/41/41 42/42/42 37/37/37
f 42/42/42 43/43/43 40/40/40
f 36/36/36 44/44/44 35/35/35
f 36/36/36 45/45/45 44/44/44
f 45/45/45 46/46/46 44/44/44
f 45/45/45 47/47/47 46/46/46
f 47/47/47 48/48/48 46/46/46
f 47/47/47 49/49/49 48/48/48
f 49/49/49 50/50/50 48/48/48
f 49/49/49 51/51/51 50/50/50
f 51/51/51 52/52/52 50/50/50
f 51/51/51 53/53/53 52/52/52
f 53/53/53 54/54/54 52/52/52
f 52/52/52 54/54/54 55/55/55
f 42/42/42 56/56/56 43/43/43
f 56/56/56 57/57/57 43/43/43
f 58/58/58 52/52/52 55/55/55
f 59/59/59 52/52/52 58/58/58
f 60/60/60 56/56/56 42/42/42
f 41/41/41 60/60/60 42/42/42
f 41/41/41 35/35/35 60/60/60
f 35/35/35 61/61/61 60/60/60
f 60/60/60 61/61/61 62/62/62
f 60/60/60 62/62/62 56/56/56
f 61/61/61 63/63/63 62/62/62
f 56/56/56 64/64/64 57/57/57
f 62/62/62 64/64/64 56/56/56
f 64/64/64 65/65/65 57/57/57
f 62/62/62 63/63/63 66/66/66
f 62/62/62 66/66/66 64/64/64
f 63/63/63 67/67/67 66/66/66
f 67/67/67 59/59/59 68/68/68
f 66/66/66 67/67/67 68/68/68
f 68/68/68 59/59/59 58/58/58
f 64/64/64 69/69/69 65/65/65
f 66/66/66 69/69/69 64/64/64
f 66/66/66 68/68/68 69/69/69
f 69/69/69 70/70/70 65/65/65
f 68/68/68 71/71/71 69/69/69
f 69/69/69 71/71/71 70/70/70
f 68/68/68 58/58/58 71/71/71
f 71/71/71 72/72/72 70/70/70
f 58/58/58 73/73/73 71/71/71
f 71/71/71 73/73/73 72/72/72
f 58/58/58 55/55/55 73/73/73
f 73/73/73 74/74/74 72/72/72
f 55/55/55 75/75/75 73/73/73
f 73/73/73 75/75/75 74/74/74
f 75/75/75 76/76/76 74/74/74
f 79/79/79 78/78/78 77/77/77
f 79/79/79 77/77/77 80/80/80
f 81/81/81 79/79/79 80/80/80
f 80/80/80 82/82/82 81/81/81
f 82/82/82 80/80/80 83/83/83
f 82/82/82 83/83/83 84/84/84
f 82/82/82 84/84/84 85/85/85
f 85/85/85 86/86/86 82/82/82
f 89/89/89 88/88/88 87/87/87
f 89/89/89 87/87/87 90/90/90
f 91/91/91 89/89/89 90/90/90
f 90/90/90 92/92/92 91/91/91
f 93/93/93 91/91/91 92/92/92
f 94/94/94 93/93/93 92/92/92
f 95/95/95 94/94/94 92/92/92
f 92/92/92 96/96/96 95/95/95
f 99/99/99 98/98/98 97/97/97
f 100/100/100 99/99/99 97/97/97
f 101/101/101 99/99/99 100/100/100
f 100/100/100 97/97/97 102/102/102
f 103/103/103 101/101/101 100/100/100
f 104/104/104 100/100/100 102/102/102
f 103/103/103 100/100/100 104/104/104
f 104/104/104 102/102/102 105/105/105
f 106/106/106 103/103/103 104/104/104
f 107/107/107 104/104/104 105/105/105
f 106/106/106 104/104/104 107/107/107
f 107/107/107 105/105/105 108/108/108
f 109/109/109 106/106/106 107/107/107
f 110/110/110 107/107/107 108/108/108
f 109/109/109 107/107/107 110/110/110
f 110/110/110 108/108/108 111/111/111
f 112/112/112 109/109/109 110/110/110
f 113/113/113 110/110/110 111/111/111
f 112/112/112 110/110/110 113/113/113
f 113/113/113 111/111/111 114/114/114
f 115/115/115 112/112/112 113/113/113
f 116/116/116 113/113/113 114/114/114
f 115/115/115 113/113/113 116/116/116
f 116/116/116 114/114/114 117/117/117
f 118/118/118 115/115/115 116/116/116
f 119/119/119 116/116/116 117/117/117
f 118/118/118 116/116/116 119/119/119
f 119/119/119 117/117/117 120/120/120
f 121/121/121 118/118/118 119/119/119
f 122/122/122 119/119/119 120/120/120
f 121/121/121 119/119/119 123/123/123
f 119/119/119 122/122/122 123/123/123
