g LM2_floorRedo09
v 1.974875 4.8160553E-05 18.365297
v 1.9692807 6.1618924 18.321938
v 1.9692807 4.8160553E-05 18.322638
v 1.9755745 6.1625924 18.37299
v 1.9524965 6.205951 18.299559
v 1.9797707 4.8160553E-05 18.408655
v 1.9587903 6.2374206 18.352709
v 1.9804697 6.154899 18.411453
v 3.8553882 4.8160553E-05 32.501663
v 1.9804697 6.202454 18.412151
v 1.963686 6.3052564 18.3618
v 3.856787 0.024524689 32.51215
v 3.8393035 4.8160553E-05 32.601665
v 1.9804697 6.250708 18.412851
v 1.964385 9.507513 18.371592
v 3.8574862 0.08466768 32.516346
v 3.856787 0.025923729 32.558308
v 3.856787 9.506815 32.51355
v 3.8553882 9.507513 32.558308
v 1.9804697 9.507513 18.41425
v 3.8365061 9.552971 32.519146
v 1.9608884 9.552271 18.41425
v 3.8421009 9.544579 32.55551
v 1.9545946 9.543879 18.378584
v 1.9238238 9.552271 18.358303
v 1.9315162 9.506815 18.34082
v 3.8225195 9.552971 32.58698
v 1.963686 6.3052564 18.3618
v 3.8400028 9.507513 32.60027
v -0.19166613 0.004943371 39.50201
v -0.20844984 9.552271 39.49012
v -0.19376421 9.509611 39.50201
v -0.23222733 0.004943371 39.528584
v -0.23292685 9.509611 39.527885
v -0.23502493 9.544579 39.515995
v 1.9315162 6.39617 18.34082
v 0.35871077 9.508213 17.421194
v 0.31115627 9.508913 17.393919
v 1.9224253 6.318544 18.335226
v 1.9587903 6.2374206 18.352709
v 0.27549028 9.500521 17.37224
v 1.9091377 6.243715 18.307951
v 1.8993468 6.2856755 18.32124
v -7.1437593 6.110142 13.03636
v 0.24681711 9.538284 17.377136
v -7.329084 6.078672 12.947544
v 0.27549028 9.500521 17.37224
v 1.8993468 6.2856755 18.32124
v 0.31115627 9.508913 17.393919
v 0.28318262 9.549473 17.398115
v 0.32444334 9.552271 17.421894
v 0.35871077 9.508213 17.421194
v 1.9238238 9.552271 18.358303
v 1.9315162 9.506815 18.34082
v 1.9608884 9.552271 18.41425
v 3.8365061 9.552971 32.519146
v 3.802938 9.569754 32.547817
v 1.9196277 9.569754 18.401663
v 1.9238238 9.552271 18.358303
v 1.9545946 9.543879 18.378584
v 0.32444334 9.552271 17.421894
v -8.082268 9.569754 31.940096
v 0.29087543 9.569754 17.452663
v 0.25311136 9.566257 17.430984
v 0.28318262 9.549473 17.398115
v 0.24681711 9.538284 17.377136
v -0.24271727 9.569754 39.460747
v 3.8225195 9.552971 32.58698
v -0.20844984 9.552271 39.49012
v -0.26719427 9.552271 39.498512
v -0.23502493 9.544579 39.515995
v -8.109543 9.545977 31.977163
v -8.115835 9.5655575 31.909327
v -8.13332 9.550173 31.944994
v -8.148005 9.553669 31.879953
v 0.21744537 9.553669 17.410004
v -7.329084 6.078672 12.947544
v -7.425592 6.060489 12.944048
v -14.744837 6.060489 25.550268
v -14.775608 6.0479007 25.518099
v -14.769314 6.0416074 25.585936
v -14.802183 6.030418 25.553766
v -14.839247 6.02762 25.5174
v -7.4591603 6.0479007 12.916075
v -14.808477 6.0437055 25.484531
v -24.164885 6.0437055 16.512058
v -24.188663 6.0262218 16.547724
v -7.494826 6.0437055 12.8867035
v -24.197754 6.0262218 16.484783
v -24.210342 6.0178294 16.518353
v -18.430334 6.0437055 6.5738015
v -18.4674 6.0262218 6.5521216
v -18.408655 6.0395093 6.536737
v -18.446419 6.0213265 6.515057
v -18.42474 6.00734 6.4772925
v -7.478042 6.0402083 12.843344
v -18.387676 6.02762 6.5003715
v -10.977516 4.8160553E-05 -6.293971
v -11.039059 4.8160553E-05 -6.302363
v -7.4633555 6.026921 12.802782
v -0.07347822 4.8160553E-05 -0.002749443
v -7.3857293 6.010836 12.759424
v -7.3934226 6.0444045 12.8615265
v -7.349364 6.029718 12.76292
v -7.279431 5.984961 12.608368
v -7.2997117 6.061188 12.926565
v -7.1437593 6.110142 13.03636
v -7.3465667 6.0451035 12.84684
v -18.439426 5.959785 6.467502
v -11.088711 4.8160553E-05 -6.264599
v -11.039059 4.8160553E-05 -6.302363
v -18.42474 6.00734 6.4772925
v -18.461805 5.9765687 6.5066648
v -18.446419 6.0213265 6.515057
v -18.4674 6.0262218 6.5521216
v -18.439426 4.8160553E-05 6.467502
v -11.088711 4.8160553E-05 -6.264599
v -18.461105 4.8160553E-05 6.5052667
v -18.482784 5.982863 6.542331
v -18.482784 4.8160553E-05 6.542331
v -24.21244 4.8160553E-05 16.474993
v -24.21244 5.982164 16.474993
v -24.197754 6.0262218 16.484783
v -24.22153 5.982164 16.52045
v -24.22153 4.8160553E-05 16.52045
v -24.210342 6.0178294 16.518353
v -14.744837 6.060489 25.550268
v -8.161991 9.53269 31.928907
v -14.769314 6.0416074 25.585936
v -8.148005 9.553669 31.879953
v -8.115835 9.5655575 31.909327
v -8.13332 9.550173 31.944994
v -0.27838373 9.508913 39.5132
v -8.109543 9.545977 31.977163
v -0.26719427 9.552271 39.498512
v -8.139614 9.513107 31.97087
v -0.27838373 0.004943371 39.513897
v -8.161991 9.53269 31.928907
v -8.13332 9.550173 31.944994
v -14.769314 6.0416074 25.585936
v -14.770712 6.002444 25.609013
v -14.808477 5.9898562 25.572647
v -14.802183 6.030418 25.553766
v -14.839247 6.02762 25.5174
v -14.799385 5.987059 25.58104
v -14.851835 5.987059 25.530687
v -24.188663 6.0262218 16.547724
v -24.200552 5.982164 16.56101
v -24.200552 4.8160553E-05 16.56101
v -24.22153 4.8160553E-05 16.52045
v -24.22153 5.982164 16.52045
v -24.210342 6.0178294 16.518353
v -0.23292685 9.509611 39.527885
v -0.23222733 0.004943371 39.528584
v -0.27838373 0.004943371 39.513897
v -0.27838373 9.508913 39.5132
v -0.26719427 9.552271 39.498512
v -0.23502493 9.544579 39.515995
v -0.04760313 0.025923729 0.06788349
v -0.07347822 4.8160553E-05 -0.002749443
v -0.0014467239 4.8160553E-05 0.17418242
v -0.025923729 0.04760313 0.09865427
v -0.06858301 0.1140399 0.11893511
v 1.9524965 6.205951 18.299559
v 1.9587903 6.2374206 18.352709
v 1.9091377 6.243715 18.307951
v 1.9042425 6.222735 18.257599
v 3.8365061 9.552971 32.519146
v 3.8421009 9.544579 32.55551
v 3.8225195 9.552971 32.58698
v 3.802938 9.569754 32.547817
vt 2.8100684 0.030246258
vt 2.8134124 0.4842143
vt 2.8134124 0.030246258
vt 2.8092325 0.4842143
vt 2.8150847 0.48755836
vt 2.8067243 0.030246258
vt 2.8109043 0.49006653
vt 2.8067243 0.4842143
vt 1.7675307 0.030246258
vt 2.8067243 0.48755836
vt 2.8100684 0.49508262
vt 1.7666943 0.031918287
vt 1.7600062 0.030246258
vt 2.8067243 0.49090242
vt 2.8092325 0.7316811
vt 1.7658584 0.03609848
vt 1.7633502 0.031918287
vt 1.7658584 0.730845
vt 1.7625144 0.7316811
vt 2.8067243 0.7316811
vt 1.7658584 0.73502517
vt 2.8067243 0.73502517
vt 1.7633502 0.7341893
vt 2.8092325 0.7341893
vt 2.8109043 0.7341893
vt 2.8117402 0.7316811
vt 1.7608421 0.73502517
vt 2.8100684 0.49508262
vt 1.7600062 0.7316811
vt 1.25086 0.030246258
vt 1.2516959 0.73502517
vt 1.25086 0.7316811
vt 1.2483518 0.030246258
vt 1.2483518 0.7316811
vt 1.2491877 0.7341893
vt 2.8117402 0.501771
vt 2.8794591 0.7316811
vt 2.8819673 0.7316811
vt 2.8125765 0.49591875
vt 2.8109043 0.49006653
vt 2.8836396 0.730845
vt 2.8142483 0.49090242
vt 2.8134124 0.4934106
vt 0.5628016 0.68402696
vt 1.1087337 0.43070793
vt 0.5494251 0.6865351
vt 1.1104057 0.434052
vt 1.229959 0.6706505
vt 1.1129138 0.4332161
vt 1.1112418 0.4298718
vt 1.1137497 0.4298718
vt 1.1162579 0.4332161
vt 1.2324672 0.4298718
vt 1.2324672 0.4332161
vt -2.051485 0.21083021
vt -2.6810207 1.0510471
vt -2.6801846 1.0535553
vt -2.048977 0.21166635
vt -2.0473049 0.20832205
vt -2.049813 0.20832205
vt -1.9101949 0.20581412
vt -1.8934741 1.4431484
vt -1.9093587 0.20915818
vt -1.9060147 0.20915818
vt -1.9068507 0.20581412
vt -1.9043427 0.20581412
vt -2.6693163 1.644633
vt -2.6826928 1.0560634
vt -2.6718242 1.6454694
vt -2.6684802 1.6479771
vt -2.6718242 1.6479771
vt -1.8926381 1.4464924
vt -1.89013 1.4423125
vt -1.89013 1.4456565
vt -1.8867859 1.4414761
vt -1.9035065 0.20915818
vt -1.2564142 0.19410944
vt -1.250562 0.1966176
vt -1.2338412 1.2725968
vt -1.230497 1.2717607
vt -1.2338412 1.2759409
vt -1.230497 1.275105
vt -1.2263168 1.273433
vt -1.2472178 0.1966176
vt -1.227153 1.2700887
vt -0.3016603 1.0301461
vt -0.3016603 1.0334904
vt -1.2438736 0.19578147
vt -0.298316 1.0301461
vt -0.29915214 1.0326543
vt -0.31252885 0.18407702
vt -0.30918455 0.18407702
vt -0.31252885 0.18073297
vt -0.30918455 0.18073297
vt -0.30918455 0.17738867
vt -1.2430376 0.19243741
vt -0.31252885 0.17738867
vt -0.32757735 -0.91280305
vt -0.32339716 -0.911131
vt -1.2430376 0.18909335
vt -1.2564142 -0.9010986
vt -1.2463818 0.18407702
vt -1.2497258 0.19076538
vt -1.2488898 0.182405
vt -1.2472178 0.16986442
vt -1.2580862 0.19160128
vt -1.2714628 0.19243741
vt -1.252234 0.18825722
vt 1.727401 -0.26320267
vt 0.78769565 -0.70295787
vt 0.7851875 -0.70295787
vt 1.7282369 -0.25985837
vt 1.7299087 -0.2615304
vt 1.7307451 -0.25818634
vt 1.7332532 -0.25818634
vt 1.727401 -0.70295787
vt 0.78769565 -0.70295787
vt 1.7299087 -0.70295787
vt 1.7324169 -0.2615304
vt 1.7324169 -0.70295787
vt 2.4656212 -0.70295787
vt 2.4656212 -0.2615304
vt 2.4664571 -0.25818634
vt 2.4689653 -0.2615304
vt 2.4689653 -0.70295787
vt 2.4689653 -0.25902247
vt 3.1352866 -0.25567818
vt 3.6059754 0.0009849072
vt 3.1377947 -0.2573502
vt 3.601795 0.0018210411
vt 3.6043031 0.002657175
vt 3.6068113 0.0018210411
vt 4.165284 -0.0015230179
vt 3.6093194 0.0018210411
vt 4.164448 0.0018210411
vt 3.6084836 -0.00068712234
vt 4.165284 -0.70212185
vt 3.6059754 0.0009849072
vt 3.6068113 0.0018210411
vt 3.1377947 -0.2573502
vt 3.1394665 -0.25985837
vt 3.1369588 -0.2606945
vt 3.1352866 -0.25818634
vt 3.1327784 -0.25818634
vt 3.1369588 -0.2606945
vt 3.1336143 -0.2606945
vt 2.4706376 -0.25818634
vt 2.4714735 -0.2615304
vt 2.4714735 -0.70295787
vt 2.4689653 -0.70295787
vt 2.4689653 -0.2615304
vt 2.4689653 -0.25902247
vt 0.5310323 0.71496034
vt 1.2324672 0.7157965
vt 1.2324672 0.7116163
vt 0.5318682 0.7116163
vt 0.52852416 0.7124522
vt 0.52852416 0.71496034
vt 4.160268 0.031918287
vt 4.165284 0.030246258
vt 4.151907 0.030246258
vt 4.1577597 0.033590555
vt 4.156087 0.038606644
vt 2.8150847 0.48755836
vt 2.8109043 0.49006653
vt 2.8142483 0.49090242
vt 2.8184288 0.4892304
vt 1.7658584 0.73502517
vt 1.7633502 0.7341893
vt 1.7608421 0.73502517
vt 1.7633502 0.7358613
vn 0.9930201 -0.00041800737 -0.11794445
vn 0.9930201 -0.00041800737 -0.11794445
vn 0.9930201 -0.00041800737 -0.11794445
vn 0.9930201 -0.00041800737 -0.11794445
vn 0.96175706 0.21060771 -0.1751221
vn 0.9930201 -0.00041800737 -0.11794445
vn 0.96175706 0.077739656 -0.26264024
vn 0.9930201 -0.00041800737 -0.11794445
vn 0.9930201 -0.00041800737 -0.11794445
vn 0.9930201 -0.00041800737 -0.11794445
vn 0.9461255 -0.00041800737 -0.32379988
vn 0.9930201 -0.00041800737 -0.11794445
vn 0.8601521 -0.00041800737 0.5100374
vn 0.9930201 -0.00041800737 -0.11794445
vn 0.8288891 0.0073977113 -0.5593641
vn 0.9930201 -0.00041800737 -0.11794445
vn 0.9539413 -0.00041800737 0.29999313
vn 0.9930201 -0.00041800737 -0.11794445
vn 0.97738856 -0.00041800737 0.21145074
vn 0.9930201 -0.00041800737 -0.11794445
vn 0.9070467 0.41381758 -0.077597074
vn 0.9070467 0.41381758 -0.077597074
vn 0.9070467 0.3903702 0.15772575
vn 0.7741787 0.3591072 -0.52123827
vn 0.46936387 0.38255447 -0.79583263
vn 0.5084427 0.015213549 -0.86096144
vn 0.78981024 0.41381758 0.45271933
vn 0.6178634 0.0073977113 -0.78625065
vn 0.8601521 -0.00041800737 0.5100374
vn 0.8601521 -0.00041800737 0.5100374
vn 0.78199446 0.41381758 0.46608976
vn 0.8601521 -0.00041800737 0.5100374
vn 0.5553373 -0.00041800737 0.83162504
vn 0.5553373 -0.00041800737 0.83162504
vn 0.5553373 0.35129136 0.753787
vn 0.5240742 -0.00041800737 -0.8516725
vn 0.5006269 0.023029268 -0.8653568
vn 0.5006269 0.0073977113 -0.8656316
vn 0.5084427 -0.00041800737 -0.8610957
vn 0.563153 0.12463421 -0.81689966
vn 0.5006269 0.0073977113 -0.8656316
vn 0.57096887 0.18716031 -0.7993532
vn 0.5084427 -0.00041800737 -0.8610957
vn 0.48499542 0.0621081 -0.87230843
vn 0.35994315 0.33565992 -0.8705018
vn 0.35994315 0.33565992 -0.8705018
vn 0.5006269 0.0073977113 -0.8656316
vn 0.5084427 -0.00041800737 -0.8610957
vn 0.5006269 0.0073977113 -0.8656316
vn 0.42246932 0.38255447 -0.82168835
vn 0.46936387 0.38255447 -0.79583263
vn 0.5006269 0.023029268 -0.8653568
vn 0.46936387 0.38255447 -0.79583263
vn 0.5084427 0.015213549 -0.86096144
vn 0.41465354 0.9062107 -0.08273162
vn 0.41465354 0.9062107 -0.08273162
vn 0.00041800737 0.99999994 -0
vn 0.00041800737 0.99999994 -0
vn 0.20362788 0.9218423 -0.32976124
vn 0.4381008 0.85150033 -0.28812298
vn 0.1958121 0.9218423 -0.33446142
vn 0.00041800737 0.99999994 -0
vn 0.00041800737 0.99999994 -0
vn -0.16371304 0.9843684 -0.064938195
vn 0.062944114 0.91402644 -0.40074143
vn -0.12463421 0.8749476 -0.46790275
vn 0.00041800737 0.99999994 -0
vn 0.33649588 0.9218423 0.19229496
vn 0.33649588 0.9218423 0.19229496
vn -0.2965811 0.9062107 0.30136645
vn 0.055128336 0.9062107 0.4192171
vn -0.2965811 0.9062107 0.30136645
vn -0.15589732 0.9843684 -0.08194474
vn -0.4216333 0.8749476 0.23810083
vn -0.32002836 0.929658 -0.18253165
vn -0.32002836 0.929658 -0.18253165
vn -0.12463421 0.8749476 -0.46790275
vn -0.32002836 0.929658 -0.18253165
vn -0.32002836 0.929658 -0.18253165
vn -0.17152888 0.97655255 -0.13008824
vn -0.55450135 0.82023734 0.14049545
vn -0.38255447 0.9062107 0.18009488
vn -0.25750226 0.929658 0.263493
vn -0.14808148 0.9843684 -0.09534559
vn 0.00041800737 0.99999994 -0
vn 0.00041800737 0.99999994 -0
vn -0.25750226 0.929658 0.263493
vn 0.00041800737 0.99999994 -0
vn -0.33565992 0.9218423 -0.19375047
vn -0.4841594 0.8749476 0.007505091
vn 0.00041800737 0.99999994 -0
vn -0.33565992 0.9218423 -0.19375047
vn 0.09420717 0.9843684 -0.14880827
vn -0.2418707 0.898395 -0.36658558
vn -0.038660824 0.898395 -0.43748346
vn 0.08639139 0.9843684 -0.15347788
vn 0.18799633 0.929658 -0.3168491
vn 0.18799633 0.929658 -0.3168491
vn -0.038660824 0.898395 -0.43748346
vn 0.18799633 0.929658 -0.3168491
vn 0.18799633 0.929658 -0.3168491
vn -0.28876525 0.89057916 -0.35140207
vn -0.077739656 0.9609211 -0.26568255
vn -0.36692291 0.8593162 -0.35629103
vn -0.39818603 0.8358688 -0.3778509
vn 0.11765444 0.8671319 -0.48398316
vn 0.133286 0.85150033 -0.50713116
vn -0.0621081 0.9843684 -0.1648074
vn -0.8671319 0.0073977113 -0.49802363
vn -0.6326589 0.49979097 -0.59156716
vn -0.6326589 0.49979097 -0.59156716
vn -0.6326589 0.49979097 -0.59156716
vn -0.8671319 -0.00041800737 -0.4980784
vn -0.75771123 0.36692291 -0.5396678
vn -0.8046058 0.38255447 -0.4541603
vn -0.8671319 -0.00041800737 -0.4980784
vn -0.8671319 -0.00041800737 -0.4980784
vn -0.8671319 -0.00041800737 -0.4980784
vn -0.8671319 -0.00041800737 -0.4980784
vn -0.8671319 -0.00041800737 -0.4980784
vn -0.8671319 -0.00041800737 -0.4980784
vn -0.8671319 -0.00041800737 -0.4980784
vn -0.8046058 0.38255447 -0.4541603
vn -0.9843684 -0.00041800737 -0.17612137
vn -0.9843684 -0.00041800737 -0.17612137
vn -0.9218423 0.32002836 -0.21860616
vn -0.32002836 0.929658 -0.18253165
vn -0.55450135 0.82023734 0.14049545
vn -0.55450135 0.82023734 0.14049545
vn -0.32002836 0.929658 -0.18253165
vn -0.15589732 0.9843684 -0.08194474
vn -0.4216333 0.8749476 0.23810083
vn -0.6873693 0.0073977113 0.72627044
vn -0.6326589 0.4216333 0.6495907
vn -0.6248432 0.4216333 0.6571121
vn -0.695185 -0.00041800737 0.7188307
vn -0.6873693 -0.00041800737 0.726308
vn -0.73426384 0.3591072 0.5761064
vn -0.64829046 0.5076067 0.5674988
vn -0.73426384 0.3591072 0.5761064
vn -0.695185 0.0073977113 0.7187928
vn -0.6873693 0.3591072 0.6313204
vn -0.67955357 0.3903702 0.62114257
vn -0.6326589 0.39818603 0.6642218
vn -0.695185 -0.00041800737 0.7188307
vn -0.695185 -0.00041800737 0.7188307
vn -0.6326589 0.39818603 0.6642218
vn -0.695185 -0.00041800737 0.7188307
vn -0.695185 -0.00041800737 0.7188307
vn -0.89057916 -0.00041800737 0.45482808
vn -0.89057916 -0.00041800737 0.45482808
vn -0.82023734 0.32002836 0.47412294
vn -0.31221265 -0.00041800737 0.95001215
vn -0.31221265 -0.00041800737 0.95001215
vn -0.6873693 -0.00041800737 0.726308
vn -0.6873693 0.0073977113 0.72627044
vn -0.6248432 0.4216333 0.6571121
vn -0.33565992 0.34347564 0.8771299
vn 0.84452057 0.12463421 -0.52081794
vn 0.84452057 0.12463421 -0.52081794
vn 0.84452057 0.12463421 -0.52081794
vn 0.84452057 0.12463421 -0.52081794
vn 0.84452057 0.12463421 -0.52081794
vn 0.54752153 0.7264481 -0.4153231
vn 0.54752153 0.7264481 -0.4153231
vn 0.54752153 0.7264481 -0.4153231
vn 0.54752153 0.7264481 -0.4153231
vn 0.41465354 0.9062107 -0.08273162
vn 0.5240742 0.8436846 0.11637213
vn 0.33649588 0.9218423 0.19229496
vn 0.00041800737 0.99999994 -0
g LM2_floorRedo09_0
f 3/3/3 2/2/2 1/1/1
f 2/2/2 4/4/4 1/1/1
f 2/2/2 5/5/5 4/4/4
f 1/1/1 4/4/4 6/6/6
f 5/5/5 7/7/7 4/4/4
f 4/4/4 8/8/8 6/6/6
f 9/9/9 6/6/6 8/8/8
f 4/4/4 7/7/7 10/10/10
f 8/8/8 4/4/4 10/10/10
f 10/10/10 7/7/7 11/11/11
f 12/12/12 9/9/9 8/8/8
f 10/10/10 12/12/12 8/8/8
f 13/13/13 9/9/9 12/12/12
f 14/14/14 10/10/10 11/11/11
f 11/11/11 15/15/15 14/14/14
f 16/16/16 12/12/12 10/10/10
f 14/14/14 16/16/16 10/10/10
f 12/12/12 16/16/16 17/17/17
f 12/12/12 17/17/17 13/13/13
f 16/16/16 14/14/14 18/18/18
f 16/16/16 18/18/18 17/17/17
f 17/17/17 19/19/19 13/13/13
f 18/18/18 19/19/19 17/17/17
f 14/14/14 20/20/20 18/18/18
f 15/15/15 20/20/20 14/14/14
f 21/21/21 18/18/18 20/20/20
f 18/18/18 21/21/21 19/19/19
f 22/22/22 21/21/21 20/20/20
f 20/20/20 15/15/15 22/22/22
f 21/21/21 23/23/23 19/19/19
f 15/15/15 24/24/24 22/22/22
f 25/25/25 24/24/24 15/15/15
f 26/26/26 25/25/25 15/15/15
f 19/19/19 23/23/23 27/27/27
f 26/26/26 15/15/15 28/28/28
f 19/19/19 29/29/29 13/13/13
f 29/29/29 19/19/19 27/27/27
f 30/30/30 13/13/13 29/29/29
f 27/27/27 31/31/31 29/29/29
f 32/32/32 30/30/30 29/29/29
f 31/31/31 32/32/32 29/29/29
f 33/33/33 30/30/30 32/32/32
f 34/34/34 33/33/33 32/32/32
f 32/32/32 31/31/31 34/34/34
f 31/31/31 35/35/35 34/34/34
f 36/36/36 26/26/26 28/28/28
f 37/37/37 26/26/26 36/36/36
f 38/38/38 37/37/37 36/36/36
f 36/36/36 28/28/28 39/39/39
f 39/39/39 38/38/38 36/36/36
f 28/28/28 40/40/40 39/39/39
f 41/41/41 38/38/38 39/39/39
f 39/39/39 40/40/40 42/42/42
f 43/43/43 41/41/41 39/39/39
f 43/43/43 39/39/39 42/42/42
f 46/46/46 45/45/45 44/44/44
f 45/45/45 47/47/47 44/44/44
f 44/44/44 47/47/47 48/48/48
f 47/47/47 45/45/45 49/49/49
f 45/45/45 50/50/50 49/49/49
f 49/49/49 50/50/50 51/51/51
f 52/52/52 49/49/49 51/51/51
f 52/52/52 51/51/51 53/53/53
f 54/54/54 52/52/52 53/53/53
f 57/57/57 56/56/56 55/55/55
f 58/58/58 57/57/57 55/55/55
f 58/58/58 55/55/55 59/59/59
f 55/55/55 60/60/60 59/59/59
f 59/59/59 61/61/61 58/58/58
f 62/62/62 57/57/57 58/58/58
f 61/61/61 63/63/63 58/58/58
f 58/58/58 63/63/63 62/62/62
f 63/63/63 61/61/61 64/64/64
f 61/61/61 65/65/65 64/64/64
f 64/64/64 65/65/65 66/66/66
f 62/62/62 67/67/67 57/57/57
f 57/57/57 67/67/67 68/68/68
f 67/67/67 69/69/69 68/68/68
f 67/67/67 70/70/70 69/69/69
f 67/67/67 62/62/62 70/70/70
f 70/70/70 71/71/71 69/69/69
f 62/62/62 72/72/72 70/70/70
f 73/73/73 62/62/62 63/63/63
f 62/62/62 73/73/73 72/72/72
f 64/64/64 73/73/73 63/63/63
f 73/73/73 74/74/74 72/72/72
f 75/75/75 73/73/73 64/64/64
f 76/76/76 64/64/64 66/66/66
f 76/76/76 75/75/75 64/64/64
f 76/76/76 66/66/66 77/77/77
f 75/75/75 76/76/76 78/78/78
f 78/78/78 76/76/76 77/77/77
f 79/79/79 75/75/75 78/78/78
f 80/80/80 79/79/79 78/78/78
f 79/79/79 80/80/80 81/81/81
f 80/80/80 82/82/82 81/81/81
f 83/83/83 82/82/82 80/80/80
f 84/84/84 80/80/80 78/78/78
f 78/78/78 77/77/77 84/84/84
f 85/85/85 83/83/83 80/80/80
f 85/85/85 80/80/80 84/84/84
f 83/83/83 85/85/85 86/86/86
f 87/87/87 83/83/83 86/86/86
f 88/88/88 85/85/85 84/84/84
f 85/85/85 88/88/88 86/86/86
f 86/86/86 89/89/89 87/87/87
f 89/89/89 90/90/90 87/87/87
f 89/89/89 86/86/86 91/91/91
f 88/88/88 91/91/91 86/86/86
f 92/92/92 89/89/89 91/91/91
f 91/91/91 93/93/93 92/92/92
f 93/93/93 91/91/91 88/88/88
f 93/93/93 94/94/94 92/92/92
f 95/95/95 94/94/94 93/93/93
f 88/88/88 84/84/84 96/96/96
f 96/96/96 93/93/93 88/88/88
f 97/97/97 95/95/95 93/93/93
f 97/97/97 93/93/93 96/96/96
f 97/97/97 98/98/98 95/95/95
f 98/98/98 99/99/99 95/95/95
f 98/98/98 97/97/97 100/100/100
f 100/100/100 97/97/97 96/96/96
f 101/101/101 98/98/98 100/100/100
f 100/100/100 96/96/96 102/102/102
f 84/84/84 103/103/103 96/96/96
f 96/96/96 103/103/103 102/102/102
f 77/77/77 103/103/103 84/84/84
f 102/102/102 103/103/103 104/104/104
f 105/105/105 102/102/102 104/104/104
f 106/106/106 103/103/103 77/77/77
f 104/104/104 103/103/103 106/106/106
f 107/107/107 106/106/106 77/77/77
f 108/108/108 104/104/104 106/106/106
f 111/111/111 110/110/110 109/109/109
f 112/112/112 111/111/111 109/109/109
f 109/109/109 113/113/113 112/112/112
f 113/113/113 114/114/114 112/112/112
f 115/115/115 114/114/114 113/113/113
f 109/109/109 116/116/116 113/113/113
f 109/109/109 117/117/117 116/116/116
f 116/116/116 118/118/118 113/113/113
f 113/113/113 118/118/118 119/119/119
f 119/119/119 115/115/115 113/113/113
f 118/118/118 120/120/120 119/119/119
f 120/120/120 121/121/121 119/119/119
f 119/119/119 122/122/122 115/115/115
f 121/121/121 122/122/122 119/119/119
f 122/122/122 123/123/123 115/115/115
f 122/122/122 121/121/121 124/124/124
f 122/122/122 124/124/124 123/123/123
f 121/121/121 125/125/125 124/124/124
f 124/124/124 126/126/126 123/123/123
f 129/129/129 128/128/128 127/127/127
f 128/128/128 130/130/130 127/127/127
f 130/130/130 128/128/128 131/131/131
f 128/128/128 132/132/132 131/131/131
f 135/135/135 134/134/134 133/133/133
f 134/134/134 136/136/136 133/133/133
f 136/136/136 137/137/137 133/133/133
f 136/136/136 134/134/134 138/138/138
f 134/134/134 139/139/139 138/138/138
f 136/136/136 138/138/138 140/140/140
f 141/141/141 136/136/136 140/140/140
f 137/137/137 136/136/136 141/141/141
f 141/141/141 140/140/140 142/142/142
f 140/140/140 143/143/143 142/142/142
f 142/142/142 143/143/143 144/144/144
f 141/141/141 142/142/142 145/145/145
f 137/137/137 141/141/141 145/145/145
f 146/146/146 142/142/142 144/144/144
f 142/142/142 146/146/146 145/145/145
f 137/137/137 145/145/145 146/146/146
f 146/146/146 144/144/144 147/147/147
f 137/137/137 146/146/146 148/148/148
f 148/148/148 146/146/146 147/147/147
f 137/137/137 148/148/148 149/149/149
f 150/150/150 149/149/149 148/148/148
f 151/151/151 150/150/150 148/148/148
f 148/148/148 147/147/147 151/151/151
f 147/147/147 152/152/152 151/151/151
f 155/155/155 154/154/154 153/153/153
f 156/156/156 155/155/155 153/153/153
f 156/156/156 153/153/153 157/157/157
f 153/153/153 158/158/158 157/157/157
f 161/161/161 160/160/160 159/159/159
f 159/159/159 162/162/162 161/161/161
f 159/159/159 163/163/163 162/162/162
f 166/166/166 165/165/165 164/164/164
f 167/167/167 166/166/166 164/164/164
f 170/170/170 169/169/169 168/168/168
f 171/171/171 170/170/170 168/168/168
