g LM2_EndPlatform03
v -8.067298 4.8074255 8.857347
v -8.068114 -4.7545934 -8.860072
v -8.029988 -4.754049 -8.90419
v -8.026992 4.8278513 8.854625
v -8.0261755 4.8262167 8.900922
v -8.0594 4.8142347 8.893569
v 8.026176 4.8264894 8.900376
v 8.036253 -4.762491 -8.919441
v -8.029988 -4.7981677 -8.923526
v 8.033257 -4.8000736 -8.923799
v -8.029988 -4.8278522 -8.885399
v 8.029989 -4.8278522 -8.885399
v 8.025359 4.826762 8.85299
v 8.070023 -4.759768 -8.870965
v 8.066754 4.806881 8.85653
v 8.0594015 4.8142347 8.893296
v 8.06621 -4.81015 8.864156
v 8.029989 -4.8278522 -8.885399
v 8.023997 -4.8278522 8.864156
v 8.068116 -4.806338 -8.846999
v 8.083639 -4.767938 8.864156
v 8.06621 -4.767938 8.906367
v 8.058584 -4.802525 8.898471
v 8.083639 4.758133 8.86007
v 8.067027 4.7791033 8.904735
v 8.083639 -4.7554107 -8.753588
v 8.066754 4.806881 8.85653
v 8.0594015 4.8142347 8.893296
v 8.070023 -4.759768 -8.870965
v 8.062397 -4.792721 -8.896837
v 8.033257 -4.8000736 -8.923799
v 8.036253 -4.762491 -8.919441
v 8.029989 -4.8278522 -8.885399
v 8.023997 -4.8278522 8.864156
v -8.023997 -4.8278522 8.864156
v -8.023997 -4.81015 8.906367
v 8.023997 -4.81015 8.906367
v -8.023997 -4.767938 8.923797
v -8.066209 -4.767938 8.906367
v -8.058583 -4.802525 8.898471
v -8.025357 4.7845497 8.923797
v -8.066752 4.778013 8.904462
v -8.0261755 4.8262167 8.900922
v -8.0594 4.8142347 8.893569
v 8.026993 4.786456 8.923797
v 8.026176 4.8264894 8.900376
v 8.023997 -4.767938 8.923797
v 8.067027 4.7791033 8.904735
v 8.0594015 4.8142347 8.893296
v 8.06621 -4.767938 8.906367
v 8.058584 -4.802525 8.898471
v -8.068114 -4.806338 -8.846999
v -8.023997 -4.8278522 8.864156
v -8.029988 -4.8278522 -8.885399
v -8.066209 -4.81015 8.864156
v -8.023997 -4.81015 8.906367
v -8.058583 -4.802525 8.898471
v -8.066209 -4.767938 8.906367
v -8.083638 -4.767938 8.864156
v -8.066752 4.778013 8.904462
v -8.083638 -4.7554107 -8.753588
v -8.083638 4.758133 8.86007
v -8.067298 4.8074255 8.857347
v -8.0594 4.8142347 8.893569
v -8.068114 -4.7545934 -8.860072
v -8.061307 -4.7910867 -8.895475
v -8.029988 -4.7981677 -8.923526
v -8.029988 -4.8278522 -8.885399
v -8.029988 -4.754049 -8.90419
v 8.023997 -4.81015 8.906367
v 8.058584 -4.802525 8.898471
v 8.06621 -4.81015 8.864156
v 8.023997 -4.8278522 8.864156
vt -0.5014247 -0.83257633
vt -0.5014247 1.1325066
vt -0.4976828 1.1374955
vt -0.49705923 -0.83257633
vt -0.49705923 -0.8375654
vt -0.50080097 -0.8369418
vt 1.2840505 -0.8375654
vt 1.2846742 1.1393666
vt -0.4976828 1.1424847
vt 1.2846742 1.1437321
vt -0.4976828 1.145603
vt 1.2840505 1.1468501
vt 1.2834268 -0.8319527
vt 1.2884159 1.1337538
vt 1.2884159 -0.83257633
vt 1.2871687 -0.8369418
vt 1.4062836 -0.8188563
vt 3.3751082 -0.8225981
vt 1.4062836 -0.8238454
vt 3.3707428 -0.8188563
vt 1.4062836 -0.81449085
vt 1.4012945 -0.81449085
vt 1.4025416 -0.81823266
vt 1.4062836 0.24257529
vt 1.4019179 0.24506986
vt 3.3607645 -0.81324357
vt 1.4069071 0.24756444
vt 1.4031653 0.24881172
vt 3.3738608 -0.81324357
vt 3.3763556 -0.81698537
vt 3.3794737 -0.81823266
vt 3.37885 -0.8138672
vt 3.3751082 -0.8207272
vt -1.7274966 -0.81137264
vt -1.7274966 0.96911335
vt -1.7225075 0.96911335
vt -1.7225075 -0.810749
vt -1.718142 0.96911335
vt -1.718142 0.9741025
vt -1.7218839 0.9728553
vt -0.6585814 0.96973705
vt -0.65920496 0.9741025
vt -0.6535922 0.96973705
vt -0.6548395 0.9734788
vt -0.6579577 -0.81137264
vt -0.6535922 -0.81137264
vt -1.718142 -0.810749
vt -0.65920496 -0.8157381
vt -0.6548395 -0.81511444
vt -1.718142 -0.8157381
vt -1.7225075 -0.81449085
vt 1.4100254 0.28498268
vt 3.375732 0.27999353
vt 1.4056599 0.28061724
vt 3.3744845 0.28435898
vt 3.380721 0.2831118
vt 3.3782263 0.28560638
vt 3.3794737 0.28934813
vt 3.3751082 0.28934813
vt 3.3794737 1.3482852
vt 1.4206271 0.29059553
vt 3.3744845 1.3457906
vt 3.3738608 1.3514035
vt 3.3782263 1.3520269
vt 1.408778 0.29059553
vt 1.4044125 0.28685355
vt 1.4012945 0.28560638
vt 1.4056599 0.2824881
vt 1.403789 0.29059553
vt -1.7225075 -0.810749
vt -1.7225075 -0.81449085
vt -1.7262493 -0.8163617
vt -1.7274966 -0.81137264
vn -0.7254844 0.6078383 -0.32280812
vn -0.5921521 0.7097982 -0.38150018
vn -0.0039213896 0.8823459 -0.47058508
vn -0.0039213896 0.8823459 -0.47058508
vn -0.0039213896 0.85881674 0.51226795
vn -0.66273975 0.63136756 0.40267977
vn 0.003921628 0.85881674 0.51226795
vn 0.003921628 0.8823459 -0.47058508
vn -0.0039213896 -0.35686004 -0.9341496
vn 0.003921628 -0.32548773 -0.94553816
vn -0.16862607 -0.89803225 -0.40632907
vn 0.16078317 -0.8901892 -0.42627686
vn 0.003921628 0.8823459 -0.47058508
vn 0.5921523 0.7097982 -0.38149986
vn 0.74117076 0.5921521 -0.31626216
vn 0.66274 0.65489674 0.3631611
vn 0.756206 -0.65433365 -0
vn 0.16078317 -0.8901892 -0.42627686
vn 0.23921388 -0.9529338 0.18626314
vn 0.56636304 -0.8241558 -0
vn 0.99999225 -0.003921628 0.00034357168
vn 0.7254846 -0.003921628 0.68822724
vn 0.5764662 -0.5764662 0.5791144
vn 0.99999225 0.0039213896 0.0003462823
vn 0.67058307 0.0039213896 0.7418241
vn 0.99999225 -0.003921628 -0.00034357168
vn 0.74117076 0.5921521 -0.31626216
vn 0.66274 0.65489674 0.3631611
vn 0.5921523 0.7097982 -0.38149986
vn 0.874503 -0.26274312 -0.4076892
vn 0.003921628 -0.32548773 -0.94553816
vn 0.003921628 0.8823459 -0.47058508
vn 0.16078317 -0.8901892 -0.42627686
vn 0.23921388 -0.9529338 0.18626314
vn -0.2392137 -0.9529338 0.1862633
vn -0.0039213896 -0.70979846 0.7043939
vn 0.003921628 -0.70979846 0.7043939
vn -0.0039213896 -0.003921628 0.9999846
vn -0.7254844 -0.003921628 0.6882275
vn -0.57646596 -0.5764662 0.5791146
vn -0.0039213896 0.0039213896 0.9999846
vn -0.6705829 0.0039213896 0.74182427
vn -0.0039213896 0.85881674 0.51226795
vn -0.66273975 0.63136756 0.40267977
vn 0.003921628 0.0039213896 0.9999846
vn 0.003921628 0.85881674 0.51226795
vn 0.003921628 -0.003921628 0.9999846
vn 0.67058307 0.0039213896 0.7418241
vn 0.66274 0.65489674 0.3631611
vn 0.7254846 -0.003921628 0.68822724
vn 0.5764662 -0.5764662 0.5791144
vn -0.566363 -0.8241559 -0
vn -0.2392137 -0.9529338 0.1862633
vn -0.16862607 -0.89803225 -0.40632907
vn -0.7562059 -0.6543338 -0
vn -0.0039213896 -0.70979846 0.7043939
vn -0.57646596 -0.5764662 0.5791146
vn -0.7254844 -0.003921628 0.6882275
vn -0.999992 -0.003921628 0.00077128375
vn -0.6705829 0.0039213896 0.74182427
vn -0.999992 -0.003921628 -0.00077128375
vn -0.999992 0.0039213896 0.00077249506
vn -0.7254844 0.6078383 -0.32280812
vn -0.66273975 0.63136756 0.40267977
vn -0.5921521 0.7097982 -0.38150018
vn -0.8745029 -0.121567786 -0.46953803
vn -0.0039213896 -0.35686004 -0.9341496
vn -0.16862607 -0.89803225 -0.40632907
vn -0.0039213896 0.8823459 -0.47058508
vn 0.003921628 -0.70979846 0.7043939
vn 0.5764662 -0.5764662 0.5791144
vn 0.756206 -0.65433365 -0
vn 0.23921388 -0.9529338 0.18626314
g LM2_EndPlatform03_0
f 3/3/3 2/2/2 1/1/1
f 4/4/4 3/3/3 1/1/1
f 4/4/4 1/1/1 5/5/5
f 1/1/1 6/6/6 5/5/5
f 4/4/4 5/5/5 7/7/7
f 3/3/3 4/4/4 8/8/8
f 9/9/9 3/3/3 8/8/8
f 10/10/10 9/9/9 8/8/8
f 11/11/11 9/9/9 10/10/10
f 12/12/12 11/11/11 10/10/10
f 4/4/4 13/13/13 8/8/8
f 13/13/13 4/4/4 7/7/7
f 14/14/14 8/8/8 13/13/13
f 15/15/15 14/14/14 13/13/13
f 13/13/13 7/7/7 15/15/15
f 7/7/7 16/16/16 15/15/15
f 19/19/19 18/18/18 17/17/17
f 18/18/18 20/20/20 17/17/17
f 17/17/17 20/20/20 21/21/21
f 21/21/21 22/22/22 17/17/17
f 22/22/22 23/23/23 17/17/17
f 22/22/22 21/21/21 24/24/24
f 25/25/25 22/22/22 24/24/24
f 24/24/24 21/21/21 26/26/26
f 20/20/20 26/26/26 21/21/21
f 24/24/24 27/27/27 25/25/25
f 24/24/24 26/26/26 27/27/27
f 27/27/27 28/28/28 25/25/25
f 26/26/26 29/29/29 27/27/27
f 26/26/26 20/20/20 29/29/29
f 20/20/20 30/30/30 29/29/29
f 29/29/29 30/30/30 31/31/31
f 31/31/31 30/30/30 20/20/20
f 32/32/32 29/29/29 31/31/31
f 33/33/33 31/31/31 20/20/20
f 36/36/36 35/35/35 34/34/34
f 37/37/37 36/36/36 34/34/34
f 38/38/38 36/36/36 37/37/37
f 38/38/38 39/39/39 36/36/36
f 39/39/39 40/40/40 36/36/36
f 39/39/39 38/38/38 41/41/41
f 42/42/42 39/39/39 41/41/41
f 41/41/41 43/43/43 42/42/42
f 43/43/43 44/44/44 42/42/42
f 43/43/43 41/41/41 45/45/45
f 41/41/41 38/38/38 45/45/45
f 46/46/46 43/43/43 45/45/45
f 47/47/47 38/38/38 37/37/37
f 38/38/38 47/47/47 45/45/45
f 45/45/45 48/48/48 46/46/46
f 45/45/45 47/47/47 48/48/48
f 48/48/48 49/49/49 46/46/46
f 47/47/47 50/50/50 48/48/48
f 47/47/47 37/37/37 50/50/50
f 37/37/37 51/51/51 50/50/50
f 54/54/54 53/53/53 52/52/52
f 53/53/53 55/55/55 52/52/52
f 53/53/53 56/56/56 55/55/55
f 56/56/56 57/57/57 55/55/55
f 55/55/55 57/57/57 58/58/58
f 59/59/59 55/55/55 58/58/58
f 59/59/59 58/58/58 60/60/60
f 55/55/55 59/59/59 61/61/61
f 52/52/52 55/55/55 61/61/61
f 62/62/62 59/59/59 60/60/60
f 61/61/61 59/59/59 62/62/62
f 62/62/62 60/60/60 63/63/63
f 60/60/60 64/64/64 63/63/63
f 63/63/63 65/65/65 62/62/62
f 65/65/65 61/61/61 62/62/62
f 61/61/61 65/65/65 52/52/52
f 65/65/65 66/66/66 52/52/52
f 52/52/52 66/66/66 67/67/67
f 67/67/67 66/66/66 65/65/65
f 68/68/68 52/52/52 67/67/67
f 69/69/69 67/67/67 65/65/65
f 72/72/72 71/71/71 70/70/70
f 73/73/73 72/72/72 70/70/70
