g LM2_floorPlate12
v -49.584595 -5.5933933 -27.685575
v -49.584595 -6.517782 -27.466269
v -37.163124 -7.7581596 -27.466269
v -37.163124 -6.8337708 -27.685575
v -24.794706 -7.2381916 -27.685575
v -24.794706 -8.1625805 -27.466269
v -12.347296 -6.8337708 -27.685575
v -12.347296 -7.7581596 -27.466269
v -0.000102996826 -5.5933933 -27.685575
v -0.000102996826 -6.517782 -27.466269
v -37.163124 -6.7960415 -27.67968
v -49.584595 -5.555662 -27.67968
v -37.163124 -6.8337708 -27.685575
v -24.794706 -7.2004604 -27.67968
v -24.794706 -7.2381916 -27.685575
v -12.347296 -6.7960415 -27.67968
v -12.347296 -6.8337708 -27.685575
v -0.000102996826 -5.555662 -27.67968
v -49.584595 -2.0113869 -12.806926
v -37.163124 -2.0172825 -12.769196
v -49.584595 -2.0172825 -12.769196
v -37.163124 -2.0113869 -12.806926
v -24.794706 -2.0172825 -12.769196
v -24.794706 -2.0113869 -12.806926
v -12.347296 -2.0172825 -12.769196
v -12.347296 -2.0113869 -12.806926
v -0.000102996826 -2.0172825 -12.769196
v -0.000102996826 -2.0113869 -12.806926
v -49.584595 -5.5332603 -27.649025
v -37.163124 -6.7736397 -27.649025
v -37.163124 -2.0113869 -12.806926
v -24.794706 -2.0113869 -12.806926
v -24.794706 -7.1780586 -27.649025
v -12.347296 -2.0113869 -12.806926
v -12.347296 -6.7736397 -27.649025
v -0.000102996826 -5.5332603 -27.649025
v -49.584595 -5.555662 -27.67968
v -37.163124 -6.7736397 -27.649025
v -37.163124 -6.7960415 -27.67968
v -24.794706 -7.1780586 -27.649025
v -24.794706 -7.2004604 -27.67968
v -12.347296 -6.7736397 -27.649025
v -12.347296 -6.7960415 -27.67968
v -0.000102996826 -5.555662 -27.67968
v -49.584595 -2.9723263 -12.527487
v -49.584595 -6.517782 -27.466269
v -49.584595 -5.5933933 -27.685575
v -49.584595 -5.555662 -27.67968
v -49.584595 -5.5332603 -27.649025
v -49.584595 -2.0113869 -12.806926
v -49.584595 -2.0479374 -12.746794
v -49.584595 -2.0172825 -12.769196
v -0.000102996826 -5.5933933 -27.685575
v -0.000102996826 -6.517782 -27.466269
v -0.000102996826 -2.9723263 -12.527487
v -0.000102996826 -5.555662 -27.67968
v -0.000102996826 -5.5332603 -27.649025
v -0.000102996826 -2.0113869 -12.806926
v -0.000102996826 -2.0479374 -12.746794
v -0.000102996826 -2.0172825 -12.769196
v -12.347296 -2.0172825 -12.769196
v -0.000102996826 -2.0172825 -12.769196
v -0.000102996826 -2.0479374 -12.746794
v -12.347296 -2.0479374 -12.746794
v -24.794706 -2.0172825 -12.769196
v -24.794706 -2.0479374 -12.746794
v -37.163124 -2.0172825 -12.769196
v -37.163124 -2.0479374 -12.746794
v -49.584595 -2.0172825 -12.769196
v -49.584595 -2.0479374 -12.746794
v -12.347296 -2.0479374 -12.746794
v -0.000102996826 -2.9723263 -12.527487
v -12.347296 -2.9723263 -12.527487
v -24.794706 -2.0479374 -12.746794
v -24.794706 -2.9723263 -12.527487
v -37.163124 -2.0479374 -12.746794
v -49.584595 -2.9723263 -12.527487
v -37.163124 -2.9723263 -12.527487
vt -2.4997392 -1.0489076
vt -2.4997392 -0.9530808
vt -1.2472755 -0.9530808
vt -1.2472755 -1.0489076
vt -0.00030493736 -1.0489076
vt -0.00030493736 -0.9530808
vt 1.2546 -1.0489076
vt 1.2546 -0.9530808
vt 2.4997396 -1.0489076
vt 2.4997396 -0.9530808
vt -1.2472755 -1.0525699
vt -2.4997392 -1.0525699
vt -1.2472755 -1.0489076
vt -0.00030493736 -1.0525699
vt -0.00030493736 -1.0489076
vt 1.2546 -1.0525699
vt 1.2546 -1.0489076
vt 2.4997396 -1.0525699
vt -2.4997392 -0.79011405
vt -1.2472755 -0.7931658
vt -2.4997392 -0.7931658
vt -1.2472755 -0.79011405
vt -0.00030493736 -0.7931658
vt -0.00030493736 -0.79011405
vt 1.2546 -0.7931658
vt 1.2546 -0.79011405
vt 2.4997396 -0.7931658
vt 2.4997396 -0.79011405
vt -2.4997392 0.77241373
vt -1.2472755 0.77241373
vt -1.2472755 -0.79011405
vt -0.00030493736 -0.79011405
vt -0.00030493736 0.77241373
vt 1.2546 -0.79011405
vt 1.2546 0.77241373
vt 2.4997396 0.77241373
vt -2.4997392 0.77607584
vt -1.2472755 0.77241373
vt -1.2472755 0.77607584
vt -0.00030493736 0.77241373
vt -0.00030493736 0.77607584
vt 1.2546 0.77241373
vt 1.2546 0.77607584
vt 2.4997396 0.77607584
vt 0.9274459 0.9140179
vt 2.4997396 0.9140179
vt 2.4997396 0.81819105
vt 2.4985185 0.8145287
vt 2.4948564 0.813308
vt 0.9323287 0.813308
vt 0.9274459 0.81819105
vt 0.9286666 0.8145287
vt 0.9274459 0.95674324
vt 0.9274459 1.0525701
vt 2.4997396 1.0525701
vt 0.9286666 0.95308113
vt 0.9323287 0.9518604
vt 2.4948564 0.9518604
vt 2.4997396 0.95674324
vt 2.497908 0.95308113
vt 1.2546 -0.8230736
vt 2.4997396 -0.8230736
vt 2.4997396 -0.82673573
vt 1.2546 -0.82673573
vt -0.00030493736 -0.8230736
vt -0.00030493736 -0.82673573
vt -1.2472755 -0.8230736
vt -1.2472755 -0.82673573
vt -2.4991288 -0.8230736
vt -2.4991288 -0.82673573
vt 1.2546 -0.82673573
vt 2.4997396 -0.9225627
vt 1.2546 -0.9225627
vt -0.00030493736 -0.82673573
vt -0.00030493736 -0.9225627
vt -1.2472755 -0.82673573
vt -2.4991288 -0.9225627
vt -1.2472755 -0.9225627
vn -0.003921509 -0.21568465 -0.9764552
vn -0.003921509 -0.2313708 -0.9728577
vn -0.011764526 -0.2313708 -0.9727945
vn -0.011764526 -0.2313708 -0.9727945
vn -0.003921509 -0.2313708 -0.9728577
vn 0.0039215684 -0.2313708 -0.9728577
vn 0.011764646 -0.2313708 -0.9727945
vn 0.011764646 -0.2313708 -0.9727945
vn -0.003921509 -0.21568465 -0.9764552
vn -0.003921509 -0.2313708 -0.9728577
vn 0.011764646 0.16078305 -0.98691964
vn -0.003921509 0.5215646 -0.85320276
vn 0.011764646 0.16078305 -0.98691964
vn 0.0039215684 0.16078305 -0.986982
vn -0.003921509 0.16078305 -0.986982
vn -0.011764526 0.16078305 -0.98691964
vn -0.011764526 0.16078305 -0.98691964
vn -0.003921509 0.5215646 -0.85320276
vn -0.003921509 0.9764631 -0.21564901
vn -0.003921509 0.9843061 0.17642602
vn -0.003921509 0.85097384 0.5251934
vn -0.003921509 0.9843061 0.17642602
vn -0.003921509 0.9843061 0.17642602
vn -0.003921509 0.9843061 0.17642602
vn -0.003921509 0.9843061 0.17642602
vn -0.003921509 0.9843061 0.17642602
vn -0.003921509 0.85097384 0.5251934
vn -0.003921509 0.9764631 -0.21564901
vn -0.003921509 0.9764631 -0.21564901
vn 0.035293877 0.9529338 -0.30111715
vn 0.035293877 0.9529338 -0.30111715
vn -0.003921509 0.9450908 -0.3267844
vn -0.003921509 0.9450908 -0.3267844
vn -0.035293818 0.9529338 -0.30111715
vn -0.035293818 0.9529338 -0.30111715
vn -0.003921509 0.9764631 -0.21564901
vn -0.003921509 0.5215646 -0.85320276
vn 0.05098003 0.8117584 -0.581764
vn 0.05098003 0.8117584 -0.581764
vn -0.003921509 0.8117584 -0.58398026
vn -0.003921509 0.8117584 -0.58398026
vn -0.050979972 0.8117584 -0.581764
vn -0.050979972 0.8117584 -0.581764
vn -0.003921509 0.5215646 -0.85320276
vn -0.99999225 0.003921509 -0.00034492963
vn -0.99999225 0.003921509 -0.00034492963
vn -0.99999225 0.003921509 -0.00034492963
vn -0.99999225 0.003921509 -0.00034492963
vn -0.99999225 0.003921509 -0.00034492963
vn -0.99999225 0.003921509 -0.00034492963
vn -0.99999225 0.003921509 -0.00034492963
vn -0.99999225 0.003921509 -0.00034492963
vn 0.9999924 -0.0039215684 -0
vn 0.9999924 -0.0039215684 -0
vn 0.9999924 -0.0039215684 -0
vn 0.9999924 -0.0039215684 -0
vn 0.9999924 -0.0039215684 -0
vn 0.9999924 -0.0039215684 -0
vn 0.9999924 -0.0039215684 -0
vn 0.9999924 -0.0039215684 -0
vn -0.003921509 0.5843092 0.81152165
vn -0.003921509 0.85097384 0.5251934
vn -0.003921509 0.24705684 0.96899307
vn -0.003921509 0.5843092 0.81152165
vn -0.003921509 0.5843092 0.81152165
vn -0.003921509 0.5843092 0.81152165
vn -0.003921509 0.5843092 0.81152165
vn -0.003921509 0.5843092 0.81152165
vn -0.003921509 0.85097384 0.5251934
vn -0.003921509 0.24705684 0.96899307
vn -0.003921509 0.23137069 0.9728578
vn -0.003921509 0.23137069 0.9728578
vn -0.003921509 0.23137069 0.9728578
vn -0.003921509 0.23137069 0.9728578
vn -0.003921509 0.23137069 0.9728578
vn -0.003921509 0.23137069 0.9728578
vn -0.003921509 0.23137069 0.9728578
vn -0.003921509 0.23137069 0.9728578
g LM2_floorPlate12_0
f 3/3/3 2/2/2 1/1/1
f 4/4/4 3/3/3 1/1/1
f 4/4/4 5/5/5 3/3/3
f 5/5/5 6/6/6 3/3/3
f 5/5/5 7/7/7 6/6/6
f 7/7/7 8/8/8 6/6/6
f 7/7/7 9/9/9 8/8/8
f 9/9/9 10/10/10 8/8/8
f 12/12/12 11/11/11 1/1/1
f 11/11/11 13/13/13 1/1/1
f 11/11/11 14/14/14 13/13/13
f 14/14/14 15/15/15 13/13/13
f 14/14/14 16/16/16 15/15/15
f 16/16/16 17/17/17 15/15/15
f 18/18/18 9/9/9 17/17/17
f 16/16/16 18/18/18 17/17/17
f 21/21/21 20/20/20 19/19/19
f 20/20/20 22/22/22 19/19/19
f 20/20/20 23/23/23 22/22/22
f 23/23/23 24/24/24 22/22/22
f 23/23/23 25/25/25 24/24/24
f 25/25/25 26/26/26 24/24/24
f 25/25/25 27/27/27 26/26/26
f 27/27/27 28/28/28 26/26/26
f 30/30/30 29/29/29 19/19/19
f 31/31/31 30/30/30 19/19/19
f 31/31/31 32/32/32 30/30/30
f 32/32/32 33/33/33 30/30/30
f 32/32/32 34/34/34 33/33/33
f 34/34/34 35/35/35 33/33/33
f 34/34/34 28/28/28 35/35/35
f 28/28/28 36/36/36 35/35/35
f 29/29/29 38/38/38 37/37/37
f 38/38/38 39/39/39 37/37/37
f 38/38/38 40/40/40 39/39/39
f 40/40/40 41/41/41 39/39/39
f 40/40/40 42/42/42 41/41/41
f 42/42/42 43/43/43 41/41/41
f 42/42/42 36/36/36 43/43/43
f 36/36/36 44/44/44 43/43/43
f 47/47/47 46/46/46 45/45/45
f 45/45/45 48/48/48 47/47/47
f 45/45/45 49/49/49 48/48/48
f 45/45/45 50/50/50 49/49/49
f 45/45/45 51/51/51 50/50/50
f 51/51/51 52/52/52 50/50/50
f 55/55/55 54/54/54 53/53/53
f 53/53/53 56/56/56 55/55/55
f 56/56/56 57/57/57 55/55/55
f 57/57/57 58/58/58 55/55/55
f 58/58/58 59/59/59 55/55/55
f 58/58/58 60/60/60 59/59/59
f 63/63/63 62/62/62 61/61/61
f 64/64/64 63/63/63 61/61/61
f 64/64/64 61/61/61 65/65/65
f 66/66/66 64/64/64 65/65/65
f 66/66/66 65/65/65 67/67/67
f 68/68/68 66/66/66 67/67/67
f 68/68/68 67/67/67 69/69/69
f 70/70/70 68/68/68 69/69/69
f 72/72/72 63/63/63 71/71/71
f 73/73/73 72/72/72 71/71/71
f 73/73/73 71/71/71 74/74/74
f 75/75/75 73/73/73 74/74/74
f 75/75/75 74/74/74 76/76/76
f 76/76/76 70/70/70 77/77/77
f 78/78/78 75/75/75 76/76/76
f 78/78/78 76/76/76 77/77/77
