g LM4_PrismObstacle_15
v 0.06376934 -3.4579256 0.82732534
v 1.9747596 -4.345595 -2.9131687
v 1.9362864 -4.312538 -2.9833443
v -3.385544E-05 -3.4118056 0.80964184
v -3.385544E-05 3.385544E-05 3.385544E-05
v 0.03915596 0.016442776 0.06439495
v 0.040828705 -3.3964324 0.87432146
v 0.06376934 -3.4579256 0.82732534
v 1.9377201 -0.89838886 -3.796457
v 2.0132327 -4.312538 -2.9833443
v 2.0117989 -0.89838886 -3.796457
v 1.9747596 -4.345595 -2.9131687
v 0.040828705 -3.3964324 0.87432146
v 3.8857496 -3.4579256 0.82732534
v 0.06376934 -3.4579256 0.82732534
v 3.9104426 -3.3975475 0.87456036
v 3.9086902 0.015327454 0.06463385
v 0.03915596 0.016442776 0.06439495
v 3.949553 3.385544E-05 3.385544E-05
v 3.949553 -3.4118056 0.80964184
v 3.8857496 -3.4579256 0.82732534
v 0.06376934 0.049180508 -0.004904747
v -3.385544E-05 3.385544E-05 3.385544E-05
v 3.8857496 0.049180508 -0.004904747
v 3.949553 3.385544E-05 3.385544E-05
v 2.0117989 -0.89838886 -3.796457
v 1.9747596 -0.8384886 -3.7454782
v 1.9377201 -0.89838886 -3.796457
v 3.949553 -3.4118056 0.80964184
v 1.9747596 -4.345595 -2.9131687
v 3.8857496 -3.4579256 0.82732534
v 2.0132327 -4.312538 -2.9833443
v 2.0117989 -0.89838886 -3.796457
v 3.949553 3.385544E-05 3.385544E-05
vt 0.9854033 0.0036220606
vt 0.50326127 0.0036220606
vt 0.49742883 0.015286788
vt 0.9863754 0.015286788
vt 0.9863754 0.49742883
vt 0.9951239 0.49742883
vt 0.9951239 0.015286788
vt 0.9922077 0.006538242
vt 0.49742883 0.49742883
vt 0.4886803 0.015286788
vt 0.4886803 0.49742883
vt 0.49451268 0.00265
vt 0.9795709 0.51298183
vt 0.9873474 0.9854033
vt 0.9873474 0.5168701
vt 0.9795709 0.9873474
vt 0.53728336 0.9873474
vt 0.5363113 0.51298183
vt 0.5363113 0.99609596
vt 0.9795709 0.99706805
vt 0.9854033 0.99415183
vt 0.52756274 0.5168701
vt 0.5265907 0.50714946
vt 0.52756274 0.98248714
vt 0.5265907 0.9931798
vt 0.08819134 0.75696903
vt 0.09693988 0.7511367
vt 0.08819134 0.74530435
vt 0.004594121 0.015286788
vt 0.4886803 0.0055661816
vt 0.004594121 0.0055661816
vt 0.4886803 0.015286788
vt 0.4886803 0.49742883
vt 0.004594121 0.49742883
vn -0.35072845 -0.8548313 0.38243046
vn -0.0029708743 -0.99393433 -0.10993514
vn -0.89168483 -0.12067628 -0.43627447
vn -0.8994128 -0.11294836 -0.42225498
vn -0.8994128 -0.089764476 -0.42778376
vn -0.018426716 0.2425372 0.96996707
vn -0.018426716 0.21935338 0.97547144
vn -0.35072845 -0.8548313 0.38243046
vn -0.89168483 -0.09749246 -0.44203326
vn 0.8857431 -0.12067628 -0.44821468
vn 0.8857431 -0.09749246 -0.453822
vn -0.0029708743 -0.99393433 -0.10993514
vn -0.018426716 0.21935338 0.97547144
vn 0.35251468 -0.8548313 0.38078457
vn -0.35072845 -0.8548313 0.38243046
vn 0.020212948 0.21935338 0.97543603
vn 0.020212948 0.2425372 0.9699315
vn -0.018426716 0.2425372 0.96996707
vn 0.901199 -0.089764476 -0.42400795
vn 0.901199 -0.11294836 -0.4184293
vn 0.35251468 -0.8548313 0.38078457
vn -0.04161066 0.97669226 -0.21057253
vn -0.8994128 -0.089764476 -0.42778376
vn 0.03566885 0.97669226 -0.21166007
vn 0.901199 -0.089764476 -0.42400795
vn 0.8857431 -0.09749246 -0.453822
vn -0.0029708743 0.9612363 -0.2757099
vn -0.89168483 -0.09749246 -0.44203326
vn 0.901199 -0.11294836 -0.4184293
vn -0.0029708743 -0.99393433 -0.10993514
vn 0.35251468 -0.8548313 0.38078457
vn 0.8857431 -0.12067628 -0.44821468
vn 0.8857431 -0.09749246 -0.453822
vn 0.901199 -0.089764476 -0.42400795
g LM4_PrismObstacle_15_0
f 3/3/3 2/2/2 1/1/1
f 4/4/4 3/3/3 1/1/1
f 4/4/4 5/5/5 3/3/3
f 6/6/6 5/5/5 4/4/4
f 7/7/7 6/6/6 4/4/4
f 7/7/7 4/4/4 8/8/8
f 5/5/5 9/9/9 3/3/3
f 10/10/10 3/3/3 9/9/9
f 11/11/11 10/10/10 9/9/9
f 3/3/3 10/10/10 12/12/12
f 15/15/15 14/14/14 13/13/13
f 14/14/14 16/16/16 13/13/13
f 16/16/16 17/17/17 13/13/13
f 17/17/17 18/18/18 13/13/13
f 19/19/19 17/17/17 16/16/16
f 20/20/20 19/19/19 16/16/16
f 16/16/16 21/21/21 20/20/20
f 18/18/18 17/17/17 22/22/22
f 18/18/18 22/22/22 23/23/23
f 17/17/17 24/24/24 22/22/22
f 17/17/17 25/25/25 24/24/24
f 25/25/25 26/26/26 24/24/24
f 22/22/22 27/27/27 23/23/23
f 24/24/24 27/27/27 22/22/22
f 26/26/26 27/27/27 24/24/24
f 27/27/27 28/28/28 23/23/23
f 27/27/27 26/26/26 28/28/28
f 31/31/31 30/30/30 29/29/29
f 30/30/30 32/32/32 29/29/29
f 32/32/32 33/33/33 29/29/29
f 33/33/33 34/34/34 29/29/29
