g LM4_PrismObstacle_06
v -45.241417 -5.662422 -23.049622
v -47.152473 -4.774723 -19.30891
v -47.113403 -4.712866 -19.261162
v -45.17739 -5.612503 -23.053963
v -45.17739 -2.2006092 -23.863527
v -45.21646 -2.2147179 -23.92864
v -45.217545 -5.627695 -23.119076
v -45.241417 -5.662422 -23.049622
v -47.114487 -1.2977161 -20.068556
v -47.190453 -4.712866 -19.261162
v -47.18937 -1.2977161 -20.068556
v -47.152473 -4.774723 -19.30891
v -45.217545 -5.627695 -23.119076
v -47.11123 -5.662422 -23.049622
v -45.241417 -5.662422 -23.049622
v -47.136192 -5.6287804 -23.11799
v -47.134018 -2.2158031 -23.92864
v -45.21646 -2.2147179 -23.92864
v -47.175262 -2.2006092 -23.863527
v -47.175262 -5.612503 -23.053963
v -47.11123 -5.662422 -23.049622
v -45.241417 -2.1550312 -23.881977
v -45.17739 -2.2006092 -23.863527
v -47.11123 -2.1550312 -23.881977
v -47.175262 -2.2006092 -23.863527
v -47.18937 -1.2977161 -20.068556
v -47.152473 -1.2673302 -20.141266
v -47.114487 -1.2977161 -20.068556
v -47.175262 -5.612503 -23.053963
v -47.152473 -4.774723 -19.30891
v -47.11123 -5.662422 -23.049622
v -47.190453 -4.712866 -19.261162
v -47.18937 -1.2977161 -20.068556
v -47.175262 -2.2006092 -23.863527
vt 0.9854033 0.0036220606
vt 0.50326127 0.0036220606
vt 0.49742883 0.015286788
vt 0.9863754 0.015286788
vt 0.9863754 0.49742883
vt 0.9951239 0.49742883
vt 0.9951239 0.015286788
vt 0.9922077 0.006538242
vt 0.49742883 0.49742883
vt 0.4886803 0.015286788
vt 0.4886803 0.49742883
vt 0.49451268 0.00265
vt 0.9795709 0.51298183
vt 0.9873474 0.9854033
vt 0.9873474 0.5168701
vt 0.9795709 0.9873474
vt 0.53728336 0.9873474
vt 0.5363113 0.51298183
vt 0.5363113 0.99609596
vt 0.9795709 0.99706805
vt 0.9854033 0.99415183
vt 0.52756274 0.5168701
vt 0.5265907 0.50714946
vt 0.52756274 0.98248714
vt 0.5265907 0.9931798
vt 0.08819134 0.75696903
vt 0.09693988 0.7511367
vt 0.08819134 0.74530435
vt 0.004594121 0.015286788
vt 0.4886803 0.0055661816
vt 0.004594121 0.0055661816
vt 0.4886803 0.015286788
vt 0.4886803 0.49742883
vt 0.004594121 0.49742883
vn 0.44696113 -0.8667621 0.22124462
vn -0.06279719 -0.9117408 0.40593752
vn 0.8892515 0.092782974 0.4479097
vn 0.90424436 0.08528656 0.41841167
vn 0.90424436 0.11527228 0.4111623
vn 0.034656584 -0.2145713 -0.9760933
vn 0.034656584 -0.24455708 -0.96901536
vn 0.44696113 -0.8667621 0.22124462
vn 0.8892515 0.11527228 0.44265574
vn -0.9998529 -0.004670799 0.016504308
vn -0.9998529 0.010322094 0.013699011
vn -0.06279719 -0.9117408 0.40593752
vn 0.034656584 -0.24455708 -0.96901536
vn -0.46010888 -0.881755 -0.1039612
vn 0.44696113 -0.8667621 0.22124462
vn -0.032811403 -0.24455708 -0.9690796
vn -0.032811403 -0.2145713 -0.97615707
vn 0.034656584 -0.2145713 -0.9760933
vn -0.9998529 0.010322094 -0.013699011
vn -0.99980664 -0.019662783 -0
vn -0.46010888 -0.881755 -0.1039612
vn 0.072138846 0.9698671 -0.23270956
vn 0.90424436 0.11527228 0.4111623
vn -0.047804296 0.96237075 -0.26750192
vn -0.9998529 0.010322094 -0.013699011
vn -0.9998529 0.010322094 0.013699011
vn -0.025314987 0.98486006 -0.17149276
vn 0.8892515 0.11527228 0.44265574
vn -0.99980664 -0.019662783 -0
vn -0.06279719 -0.9117408 0.40593752
vn -0.46010888 -0.881755 -0.1039612
vn -0.9998529 -0.004670799 0.016504308
vn -0.9998529 0.010322094 0.013699011
vn -0.9998529 0.010322094 -0.013699011
g LM4_PrismObstacle_06_0
f 3/3/3 2/2/2 1/1/1
f 4/4/4 3/3/3 1/1/1
f 4/4/4 5/5/5 3/3/3
f 6/6/6 5/5/5 4/4/4
f 7/7/7 6/6/6 4/4/4
f 7/7/7 4/4/4 8/8/8
f 5/5/5 9/9/9 3/3/3
f 10/10/10 3/3/3 9/9/9
f 11/11/11 10/10/10 9/9/9
f 3/3/3 10/10/10 12/12/12
f 15/15/15 14/14/14 13/13/13
f 14/14/14 16/16/16 13/13/13
f 16/16/16 17/17/17 13/13/13
f 17/17/17 18/18/18 13/13/13
f 19/19/19 17/17/17 16/16/16
f 20/20/20 19/19/19 16/16/16
f 16/16/16 21/21/21 20/20/20
f 18/18/18 17/17/17 22/22/22
f 18/18/18 22/22/22 23/23/23
f 17/17/17 24/24/24 22/22/22
f 17/17/17 25/25/25 24/24/24
f 25/25/25 26/26/26 24/24/24
f 22/22/22 27/27/27 23/23/23
f 24/24/24 27/27/27 22/22/22
f 26/26/26 27/27/27 24/24/24
f 27/27/27 28/28/28 23/23/23
f 27/27/27 26/26/26 28/28/28
f 31/31/31 30/30/30 29/29/29
f 30/30/30 32/32/32 29/29/29
f 32/32/32 33/33/33 29/29/29
f 33/33/33 34/34/34 29/29/29
