g LM4_PrismObstacle_17
v -37.203373 -2.8408813 -12.333778
v -35.29205 -3.7278671 -16.073679
v -35.33094 -3.6955976 -16.144009
v -37.267082 -2.7945461 -12.351153
v -37.267082 0.6177006 -13.16119
v -37.228195 0.63342094 -13.096651
v -37.22654 -2.7788248 -12.286615
v -37.203373 -2.8408813 -12.333778
v -35.329285 -0.28086853 -16.957355
v -35.25399 -3.6955976 -16.144009
v -35.255646 -0.28086853 -16.957355
v -35.29205 -3.7278671 -16.073679
v -37.22654 -2.7788248 -12.286615
v -33.381557 -2.8408813 -12.333778
v -37.203373 -2.8408813 -12.333778
v -33.356735 -2.7804804 -12.286615
v -33.35839 0.63259315 -13.096651
v -37.228195 0.63342094 -13.096651
v -33.317844 0.6177006 -13.16119
v -33.317844 -2.7945461 -12.351153
v -33.381557 -2.8408813 -12.333778
v -37.203373 0.66651726 -13.166154
v -37.267082 0.6177006 -13.16119
v -33.381557 0.66651726 -13.166154
v -33.317844 0.6177006 -13.16119
v -35.255646 -0.28086853 -16.957355
v -35.29205 -0.2212944 -16.906055
v -35.329285 -0.28086853 -16.957355
v -33.317844 -2.7945461 -12.351153
v -35.29205 -3.7278671 -16.073679
v -33.381557 -2.8408813 -12.333778
v -35.25399 -3.6955976 -16.144009
v -35.255646 -0.28086853 -16.957355
v -33.317844 0.6177006 -13.16119
vt 0.9854033 0.0036220606
vt 0.50326127 0.0036220606
vt 0.49742883 0.015286788
vt 0.9863754 0.015286788
vt 0.9863754 0.49742883
vt 0.9951239 0.49742883
vt 0.9951239 0.015286788
vt 0.9922077 0.006538242
vt 0.49742883 0.49742883
vt 0.4886803 0.015286788
vt 0.4886803 0.49742883
vt 0.49451268 0.00265
vt 0.9795709 0.51298183
vt 0.9873474 0.9854033
vt 0.9873474 0.5168701
vt 0.9795709 0.9873474
vt 0.53728336 0.9873474
vt 0.5363113 0.51298183
vt 0.5363113 0.99609596
vt 0.9795709 0.99706805
vt 0.9854033 0.99415183
vt 0.52756274 0.5168701
vt 0.5265907 0.50714946
vt 0.52756274 0.98248714
vt 0.5265907 0.9931798
vt 0.08819134 0.75696903
vt 0.09693988 0.7511367
vt 0.08819134 0.74530435
vt 0.004594121 0.015286788
vt 0.4886803 0.0055661816
vt 0.004594121 0.0055661816
vt 0.4886803 0.015286788
vt 0.4886803 0.49742883
vt 0.004594121 0.49742883
vn -0.3507287 -0.85483086 0.38243115
vn -0.0029711127 -0.99393386 -0.10993948
vn -0.89168483 -0.12067598 -0.43627456
vn -0.8994128 -0.11294806 -0.42225507
vn -0.8994128 -0.08976424 -0.42778382
vn -0.018426955 0.24253744 0.969967
vn -0.018426955 0.21935362 0.9754714
vn -0.3507287 -0.85483086 0.38243115
vn -0.89168483 -0.09749216 -0.44203332
vn 0.8857426 -0.12067598 -0.44821575
vn 0.8857426 -0.09749216 -0.45382303
vn -0.0029711127 -0.99393386 -0.10993948
vn -0.018426955 0.21935362 0.9754714
vn 0.3525144 -0.85483086 0.38078582
vn -0.3507287 -0.85483086 0.38243115
vn 0.02021271 0.21935362 0.97543603
vn 0.02021271 0.24253744 0.9699315
vn -0.018426955 0.24253744 0.969967
vn 0.9011985 -0.08976424 -0.42400897
vn 0.9011985 -0.11294806 -0.41843036
vn 0.3525144 -0.85483086 0.38078582
vn -0.041610897 0.97669226 -0.21057253
vn -0.8994128 -0.08976424 -0.42778382
vn 0.03566861 0.97669226 -0.21166007
vn 0.9011985 -0.08976424 -0.42400897
vn 0.8857426 -0.09749216 -0.45382303
vn -0.0029711127 0.9612364 -0.27570948
vn -0.89168483 -0.09749216 -0.44203332
vn 0.9011985 -0.11294806 -0.41843036
vn -0.0029711127 -0.99393386 -0.10993948
vn 0.3525144 -0.85483086 0.38078582
vn 0.8857426 -0.12067598 -0.44821575
vn 0.8857426 -0.09749216 -0.45382303
vn 0.9011985 -0.08976424 -0.42400897
g LM4_PrismObstacle_17_0
f 3/3/3 2/2/2 1/1/1
f 4/4/4 3/3/3 1/1/1
f 4/4/4 5/5/5 3/3/3
f 6/6/6 5/5/5 4/4/4
f 7/7/7 6/6/6 4/4/4
f 7/7/7 4/4/4 8/8/8
f 5/5/5 9/9/9 3/3/3
f 10/10/10 3/3/3 9/9/9
f 11/11/11 10/10/10 9/9/9
f 3/3/3 10/10/10 12/12/12
f 15/15/15 14/14/14 13/13/13
f 14/14/14 16/16/16 13/13/13
f 16/16/16 17/17/17 13/13/13
f 17/17/17 18/18/18 13/13/13
f 19/19/19 17/17/17 16/16/16
f 20/20/20 19/19/19 16/16/16
f 16/16/16 21/21/21 20/20/20
f 18/18/18 17/17/17 22/22/22
f 18/18/18 22/22/22 23/23/23
f 17/17/17 24/24/24 22/22/22
f 17/17/17 25/25/25 24/24/24
f 25/25/25 26/26/26 24/24/24
f 22/22/22 27/27/27 23/23/23
f 24/24/24 27/27/27 22/22/22
f 26/26/26 27/27/27 24/24/24
f 27/27/27 28/28/28 23/23/23
f 27/27/27 26/26/26 28/28/28
f 31/31/31 30/30/30 29/29/29
f 30/30/30 32/32/32 29/29/29
f 32/32/32 33/33/33 29/29/29
f 33/33/33 34/34/34 29/29/29
