g LM4_PrismObstacle_05
v -19.359077 -2.0832133 6.610919
v -19.399769 -2.9708862 2.8704524
v -19.438065 -2.9377182 2.800355
v -19.42302 -2.0370517 6.5931387
v -19.42302 1.3748126 5.783428
v -19.383698 1.3912253 5.848054
v -19.381987 -2.0216644 6.6577654
v -19.359077 -2.0832133 6.610919
v -19.436697 0.47619748 1.9872246
v -19.36113 -2.9377182 2.800355
v -19.362497 0.47619748 1.9872246
v -19.399769 -2.9708862 2.8704524
v -19.381987 -2.0216644 6.6577654
v -17.488672 -2.0832133 6.610919
v -19.359077 -2.0832133 6.610919
v -17.464052 -2.0226903 6.658107
v -17.465763 1.3901997 5.848054
v -19.383698 1.3912253 5.848054
v -17.42473 1.3748126 5.783428
v -17.42473 -2.0370517 6.5931387
v -17.488672 -2.0832133 6.610919
v -19.359077 1.4240518 5.7786407
v -19.42302 1.3748126 5.783428
v -17.488672 1.4240518 5.7786407
v -17.42473 1.3748126 5.783428
v -19.362497 0.47619748 1.9872246
v -19.399769 0.53637886 2.0381737
v -19.436697 0.47619748 1.9872246
v -17.42473 -2.0370517 6.5931387
v -19.399769 -2.9708862 2.8704524
v -17.488672 -2.0832133 6.610919
v -19.36113 -2.9377182 2.800355
v -19.362497 0.47619748 1.9872246
v -17.42473 1.3748126 5.783428
vt 0.9854033 0.0036220606
vt 0.50326127 0.0036220606
vt 0.49742883 0.015286788
vt 0.9863754 0.015286788
vt 0.9863754 0.49742883
vt 0.9951239 0.49742883
vt 0.9951239 0.015286788
vt 0.9922077 0.006538242
vt 0.49742883 0.49742883
vt 0.4886803 0.015286788
vt 0.4886803 0.49742883
vt 0.49451268 0.00265
vt 0.9795709 0.51298183
vt 0.9873474 0.9854033
vt 0.9873474 0.5168701
vt 0.9795709 0.9873474
vt 0.53728336 0.9873474
vt 0.5363113 0.51298183
vt 0.5363113 0.99609596
vt 0.9795709 0.99706805
vt 0.9854033 0.99415183
vt 0.52756274 0.5168701
vt 0.5265907 0.50714946
vt 0.52756274 0.98248714
vt 0.5265907 0.9931798
vt 0.08819134 0.75696903
vt 0.09693988 0.7511367
vt 0.08819134 0.74530435
vt 0.004594121 0.015286788
vt 0.4886803 0.0055661816
vt 0.004594121 0.0055661816
vt 0.4886803 0.015286788
vt 0.4886803 0.49742883
vt 0.004594121 0.49742883
vn -0.46738273 -0.74633574 0.47385266
vn -0.060199797 -0.9969099 0.050463933
vn -0.99985284 -0.010274231 -0.013739283
vn -0.99985284 -0.010274231 0.013739283
vn -0.99977857 0.02104597 -0
vn -0.036708415 0.24029988 0.9700044
vn -0.036708415 0.21680862 0.9755237
vn -0.46738273 -0.74633574 0.47385266
vn -0.99985284 0.0053866506 -0.016288392
vn 0.88728374 -0.119900405 -0.44536665
vn 0.88728374 -0.09640908 -0.4510353
vn -0.060199797 -0.9969099 0.050463933
vn -0.036708415 0.21680862 0.9755237
vn 0.448779 -0.87162286 0.19715743
vn -0.46738273 -0.74633574 0.47385266
vn 0.033765554 0.21680862 0.97563004
vn 0.033765554 0.24029988 0.97011125
vn -0.036708415 0.24029988 0.9700044
vn 0.9029446 -0.08857864 -0.42052925
vn 0.9029446 -0.112069964 -0.41488713
vn 0.448779 -0.87162286 0.19715743
vn -0.044538915 0.97636145 -0.21150555
vn -0.99977857 0.02104597 -0
vn 0.07291776 0.9685311 -0.23797187
vn 0.9029446 -0.08857864 -0.42052925
vn 0.88728374 -0.09640908 -0.4510353
vn -0.021047533 0.9528702 -0.30264735
vn -0.99985284 0.0053866506 -0.016288392
vn 0.9029446 -0.112069964 -0.41488713
vn -0.060199797 -0.9969099 0.050463933
vn 0.448779 -0.87162286 0.19715743
vn 0.88728374 -0.119900405 -0.44536665
vn 0.88728374 -0.09640908 -0.4510353
vn 0.9029446 -0.08857864 -0.42052925
g LM4_PrismObstacle_05_0
f 3/3/3 2/2/2 1/1/1
f 4/4/4 3/3/3 1/1/1
f 4/4/4 5/5/5 3/3/3
f 6/6/6 5/5/5 4/4/4
f 7/7/7 6/6/6 4/4/4
f 7/7/7 4/4/4 8/8/8
f 5/5/5 9/9/9 3/3/3
f 10/10/10 3/3/3 9/9/9
f 11/11/11 10/10/10 9/9/9
f 3/3/3 10/10/10 12/12/12
f 15/15/15 14/14/14 13/13/13
f 14/14/14 16/16/16 13/13/13
f 16/16/16 17/17/17 13/13/13
f 17/17/17 18/18/18 13/13/13
f 19/19/19 17/17/17 16/16/16
f 20/20/20 19/19/19 16/16/16
f 16/16/16 21/21/21 20/20/20
f 18/18/18 17/17/17 22/22/22
f 18/18/18 22/22/22 23/23/23
f 17/17/17 24/24/24 22/22/22
f 17/17/17 25/25/25 24/24/24
f 25/25/25 26/26/26 24/24/24
f 22/22/22 27/27/27 23/23/23
f 24/24/24 27/27/27 22/22/22
f 26/26/26 27/27/27 24/24/24
f 27/27/27 28/28/28 23/23/23
f 27/27/27 26/26/26 28/28/28
f 31/31/31 30/30/30 29/29/29
f 30/30/30 32/32/32 29/29/29
f 32/32/32 33/33/33 29/29/29
f 33/33/33 34/34/34 29/29/29
