g LM4_PrismObstacle_12
v 3.9100647E-05 -3.47716 0.958447
v -2.8644905 -2.5894992 4.698999
v -2.8068652 -2.5284672 4.7468314
v 0.095561504 -3.4279087 0.9536214
v 0.095561504 -0.016219854 0.14388275
v 0.036942244 -0.03041339 0.07901859
v 0.03438735 -3.4433794 0.88889885
v 3.9100647E-05 -3.47716 0.958447
v -2.8089938 0.88705397 3.9392214
v -2.9221163 -2.5284672 4.7468314
v -2.9199872 0.88705397 3.9392214
v -2.8644905 -2.5894992 4.698999
v 0.03438735 -3.4433794 0.88889885
v -5.7288785 -3.47716 0.958447
v 3.9100647E-05 -3.47716 0.958447
v -5.765923 -3.4443731 0.88918304
v -5.763369 -0.03154874 0.07930231
v 0.036942244 -0.03041339 0.07901859
v -5.8245425 -0.016219854 0.14388275
v -5.8245425 -3.4279087 0.9536214
v -5.7288785 -3.47716 0.958447
v 3.9100647E-05 0.029909134 0.12628293
v 0.095561504 -0.016219854 0.14388275
v -5.7288785 0.029909134 0.12628293
v -5.8245425 -0.016219854 0.14388275
v -2.9199872 0.88705397 3.9392214
v -2.8644905 0.91756964 3.866693
v -2.8089938 0.88705397 3.9392214
v -5.8245425 -3.4279087 0.9536214
v -2.8644905 -2.5894992 4.698999
v -5.7288785 -3.47716 0.958447
v -2.9221163 -2.5284672 4.7468314
v -2.9199872 0.88705397 3.9392214
v -5.8245425 -0.016219854 0.14388275
vt 0.9854033 0.0036220606
vt 0.50326127 0.0036220606
vt 0.49742883 0.015286788
vt 0.9863754 0.015286788
vt 0.9863754 0.49742883
vt 0.9951239 0.49742883
vt 0.9951239 0.015286788
vt 0.9922077 0.006538242
vt 0.49742883 0.49742883
vt 0.4886803 0.015286788
vt 0.4886803 0.49742883
vt 0.49451268 0.00265
vt 0.9795709 0.51298183
vt 0.9873474 0.9854033
vt 0.9873474 0.5168701
vt 0.9795709 0.9873474
vt 0.53728336 0.9873474
vt 0.5363113 0.51298183
vt 0.5363113 0.99609596
vt 0.9795709 0.99706805
vt 0.9854033 0.99415183
vt 0.52756274 0.5168701
vt 0.5265907 0.50714946
vt 0.52756274 0.98248714
vt 0.5265907 0.9931798
vt 0.08819134 0.75696903
vt 0.09693988 0.7511367
vt 0.08819134 0.74530435
vt 0.004594121 0.015286788
vt 0.4886803 0.0055661816
vt 0.004594121 0.0055661816
vt 0.4886803 0.015286788
vt 0.4886803 0.49742883
vt 0.004594121 0.49742883
vn 0.24982071 -0.9677059 0.033687867
vn -0.0022028089 -0.8378756 0.5458568
vn 0.79205316 0.124396026 0.59764326
vn 0.81496435 0.116759 0.567627
vn 0.81496435 0.14730734 0.56047624
vn 0.013071299 -0.21927238 -0.9755761
vn 0.013071299 -0.24218363 -0.97014236
vn 0.24982071 -0.9677059 0.033687867
vn 0.79205316 0.16258138 0.5884039
vn -0.78882176 0.124396026 0.6019019
vn -0.78882176 0.16258138 0.5927289
vn -0.0022028089 -0.8378756 0.5458568
vn 0.013071299 -0.24218363 -0.97014236
vn -0.24658924 -0.9677059 0.052335575
vn 0.24982071 -0.9677059 0.033687867
vn -0.009839892 -0.24218363 -0.9701806
vn -0.009839892 -0.21927238 -0.9756141
vn 0.013071299 -0.21927238 -0.9755761
vn -0.81173295 0.14730734 0.56514615
vn -0.81173295 0.116759 0.57223856
vn -0.24658924 -0.9677059 0.052335575
vn 0.03598255 0.9644745 -0.26171398
vn 0.81496435 0.14730734 0.56047624
vn -0.032751143 0.9644745 -0.26213792
vn -0.81173295 0.14730734 0.56514615
vn -0.78882176 0.16258138 0.5927289
vn -0.0022028089 0.97974867 -0.20021912
vn 0.79205316 0.16258138 0.5884039
vn -0.81173295 0.116759 0.57223856
vn -0.0022028089 -0.8378756 0.5458568
vn -0.24658924 -0.9677059 0.052335575
vn -0.78882176 0.124396026 0.6019019
vn -0.78882176 0.16258138 0.5927289
vn -0.81173295 0.14730734 0.56514615
g LM4_PrismObstacle_12_0
f 3/3/3 2/2/2 1/1/1
f 4/4/4 3/3/3 1/1/1
f 4/4/4 5/5/5 3/3/3
f 6/6/6 5/5/5 4/4/4
f 7/7/7 6/6/6 4/4/4
f 7/7/7 4/4/4 8/8/8
f 5/5/5 9/9/9 3/3/3
f 10/10/10 3/3/3 9/9/9
f 11/11/11 10/10/10 9/9/9
f 3/3/3 10/10/10 12/12/12
f 15/15/15 14/14/14 13/13/13
f 14/14/14 16/16/16 13/13/13
f 16/16/16 17/17/17 13/13/13
f 17/17/17 18/18/18 13/13/13
f 19/19/19 17/17/17 16/16/16
f 20/20/20 19/19/19 16/16/16
f 16/16/16 21/21/21 20/20/20
f 18/18/18 17/17/17 22/22/22
f 18/18/18 22/22/22 23/23/23
f 17/17/17 24/24/24 22/22/22
f 17/17/17 25/25/25 24/24/24
f 25/25/25 26/26/26 24/24/24
f 22/22/22 27/27/27 23/23/23
f 24/24/24 27/27/27 22/22/22
f 26/26/26 27/27/27 24/24/24
f 27/27/27 28/28/28 23/23/23
f 27/27/27 26/26/26 28/28/28
f 31/31/31 30/30/30 29/29/29
f 30/30/30 32/32/32 29/29/29
f 32/32/32 33/33/33 29/29/29
f 33/33/33 34/34/34 29/29/29
