g LM4_PrismObstacle_09
v 0.9276922 -2.1973794 -1.4544137
v 0.96814895 -1.3097522 2.2860565
v 1.0066113 -1.248711 2.333921
v 0.99151134 -2.148233 -1.4593283
v 0.99151134 1.2635972 -2.2690334
v 0.95233667 1.2492807 -2.333921
v 0.9506272 -2.1635466 -1.5240021
v 0.9276922 -2.1973794 -1.4544137
v 1.0051868 2.1667519 1.5262814
v 0.92968655 -1.248711 2.333921
v 0.9311111 2.1667519 1.5262814
v 0.96814895 -1.3097522 2.2860565
v 0.9506272 -2.1635466 -1.5240021
v -0.9427922 -2.1973794 -1.4544137
v 0.9276922 -2.1973794 -1.4544137
v -0.96750784 -2.1646152 -1.5237172
v -0.9657984 1.2482123 -2.333636
v 0.95233667 1.2492807 -2.333921
v -1.0066113 1.2635972 -2.2690334
v -1.0066113 -2.148233 -1.4593283
v -0.9427922 -2.1973794 -1.4544137
v 0.9276922 1.3097522 -2.2866976
v 0.99151134 1.2635972 -2.2690334
v -0.9427922 1.3097522 -2.2866976
v -1.0066113 1.2635972 -2.2690334
v 0.9311111 2.1667519 1.5262814
v 0.96814895 2.197379 1.4538438
v 1.0051868 2.1667519 1.5262814
v -1.0066113 -2.148233 -1.4593283
v 0.96814895 -1.3097522 2.2860565
v -0.9427922 -2.1973794 -1.4544137
v 0.92968655 -1.248711 2.333921
v 0.9311111 2.1667519 1.5262814
v -1.0066113 1.2635972 -2.2690334
vt 0.9853761 0.0036249266
vt 0.5027874 0.0036249266
vt 0.49693784 0.015324047
vt 0.9863511 0.015324047
vt 0.9863511 0.49791276
vt 0.9951254 0.49791276
vt 0.9951254 0.015324047
vt 0.9922006 0.0065497067
vt 0.49693784 0.49791276
vt 0.48913842 0.015324047
vt 0.48913842 0.49791276
vt 0.49401304 0.00265
vt 0.9795266 0.5135116
vt 0.98732597 0.9853761
vt 0.98732597 0.5174113
vt 0.9795266 0.98732597
vt 0.5369099 0.98732597
vt 0.5359349 0.5135116
vt 0.5369099 0.9961003
vt 0.9795266 0.99707526
vt 0.9853761 0.99415046
vt 0.5271606 0.5174113
vt 0.52618563 0.5066871
vt 0.52813554 0.9824514
vt 0.5271606 0.99317557
vt 0.08844355 0.7572433
vt 0.09721789 0.75139374
vt 0.087468624 0.7455442
vt 0.0045998534 0.015324047
vt 0.48913842 0.00557478
vt 0.0045998534 0.00557478
vt 0.48913842 0.015324047
vt 0.48913842 0.49791276
vt 0.0045998534 0.49791276
vn 0.4623363 -0.88300145 -0.08095388
vn 0.06504148 -0.91416186 0.4000971
vn 0.9998529 -0.0027207136 0.016935356
vn 0.9998325 -0.018300518 -0
vn 0.9998529 0.012859464 -0.011350891
vn 0.03388107 -0.22084337 -0.9747206
vn 0.03388107 -0.24421364 -0.9691294
vn 0.4623363 -0.88300145 -0.08095388
vn 0.9998529 0.012859464 0.011350891
vn -0.8853502 0.09076047 0.45597973
vn -0.8853502 0.114130735 0.45069852
vn 0.06504148 -0.91416186 0.4000971
vn 0.03388107 -0.24421364 -0.9691294
vn -0.4491048 -0.86742127 0.21420845
vn 0.4623363 -0.88300145 -0.08095388
vn -0.03622973 -0.24421364 -0.96904445
vn -0.03622973 -0.22084337 -0.97463614
vn 0.03388107 -0.22084337 -0.9747206
vn -0.9009304 0.114130735 0.41868672
vn -0.9009304 0.08297038 0.4259581
vn -0.4491048 -0.86742127 0.21420845
vn 0.041671157 0.9632511 -0.26535043
vn 0.9998529 0.012859464 -0.011350891
vn -0.07518029 0.9710412 -0.22677498
vn -0.9009304 0.114130735 0.41868672
vn -0.8853502 0.114130735 0.45069852
vn 0.02609098 0.9866214 -0.16092701
vn 0.9998529 0.012859464 0.011350891
vn -0.9009304 0.08297038 0.4259581
vn 0.06504148 -0.91416186 0.4000971
vn -0.4491048 -0.86742127 0.21420845
vn -0.8853502 0.09076047 0.45597973
vn -0.8853502 0.114130735 0.45069852
vn -0.9009304 0.114130735 0.41868672
g LM4_PrismObstacle_09_0
f 3/3/3 2/2/2 1/1/1
f 4/4/4 3/3/3 1/1/1
f 4/4/4 5/5/5 3/3/3
f 6/6/6 5/5/5 4/4/4
f 7/7/7 6/6/6 4/4/4
f 7/7/7 4/4/4 8/8/8
f 5/5/5 9/9/9 3/3/3
f 10/10/10 3/3/3 9/9/9
f 11/11/11 10/10/10 9/9/9
f 3/3/3 10/10/10 12/12/12
f 15/15/15 14/14/14 13/13/13
f 14/14/14 16/16/16 13/13/13
f 16/16/16 17/17/17 13/13/13
f 17/17/17 18/18/18 13/13/13
f 19/19/19 17/17/17 16/16/16
f 20/20/20 19/19/19 16/16/16
f 16/16/16 21/21/21 20/20/20
f 18/18/18 17/17/17 22/22/22
f 18/18/18 22/22/22 23/23/23
f 17/17/17 24/24/24 22/22/22
f 17/17/17 25/25/25 24/24/24
f 25/25/25 26/26/26 24/24/24
f 22/22/22 27/27/27 23/23/23
f 24/24/24 27/27/27 22/22/22
f 26/26/26 27/27/27 24/24/24
f 27/27/27 28/28/28 23/23/23
f 27/27/27 26/26/26 28/28/28
f 31/31/31 30/30/30 29/29/29
f 30/30/30 32/32/32 29/29/29
f 32/32/32 33/33/33 29/29/29
f 33/33/33 34/34/34 29/29/29
