g LM4_PrismObstacle_09
v -0.06379318 -3.0350537 1.8571486
v -0.023254871 -1.1554763 5.2107635
v 0.015100479 -1.0837545 5.2400765
v -2.336502E-05 -2.9890585 1.8389063
v -2.336502E-05 0.06987381 0.12460089
v -0.039158344 0.038378716 0.06613207
v -0.040873528 -3.0214891 1.7809052
v -0.06379318 -3.0350537 1.8571486
v 0.013697624 1.9793873 3.5267062
v -0.061766148 -1.0837545 5.2400765
v -0.060363293 1.9793873 3.5267062
v -0.023254871 -1.1554763 5.2107635
v -0.040873528 -3.0214891 1.7809052
v -1.9343276 -3.0350537 1.8571486
v -0.06379318 -3.0350537 1.8571486
v -1.9589624 -3.0225804 1.781529
v -1.9572473 0.037287235 0.066599846
v -0.039158344 0.038378716 0.06613207
v -1.9980974 0.06987381 0.12460089
v -1.9980974 -2.9890585 1.8389063
v -1.9343276 -3.0350537 1.8571486
v -0.06379318 0.10932112 0.094976425
v -2.336502E-05 0.06987381 0.12460089
v -1.9343276 0.10932112 0.094976425
v -1.9980974 0.06987381 0.12460089
v -0.060363293 1.9793873 3.5267062
v -0.023254871 1.9888983 3.4485917
v 0.013697624 1.9793873 3.5267062
v -1.9980974 -2.9890585 1.8389063
v -0.023254871 -1.1554763 5.2107635
v -1.9343276 -3.0350537 1.8571486
v -0.061766148 -1.0837545 5.2400765
v -0.060363293 1.9793873 3.5267062
v -1.9980974 0.06987381 0.12460089
v -1.9343276 -3.098356 1.7439532
v -0.023254871 -4.9779334 -1.609662
v -0.061766148 -4.96546 -1.6862173
v -1.9980974 -3.058909 1.7143288
v -1.9980974 2.336502E-05 2.336502E-05
v -1.9589624 0.03338957 0.057400703
v -1.9572473 -3.0263224 1.7723298
v -1.9343276 -3.098356 1.7439532
v -0.060363293 -1.9051244 -3.4044209
v 0.015100479 -4.96546 -1.6862173
v 0.013697624 -1.9051244 -3.4044209
v -0.023254871 -4.9779334 -1.609662
v -1.9572473 -3.0263224 1.7723298
v -0.06379318 -3.098356 1.7439532
v -1.9343276 -3.098356 1.7439532
v -0.039158344 -3.0274138 1.7727976
v -0.040873528 0.032454014 0.058024406
v -1.9589624 0.03338957 0.057400703
v -2.336502E-05 2.336502E-05 2.336502E-05
v -2.336502E-05 -3.058909 1.7143288
v -0.06379318 -3.098356 1.7439532
v -1.9343276 0.0460186 -0.018218994
v -1.9980974 2.336502E-05 2.336502E-05
v -0.06379318 0.0460186 -0.018218994
v -2.336502E-05 2.336502E-05 2.336502E-05
v 0.013697624 -1.9051244 -3.4044209
v -0.023254871 -1.8335588 -3.3718343
v -0.060363293 -1.9051244 -3.4044209
v -2.336502E-05 -3.058909 1.7143288
v -0.023254871 -4.9779334 -1.609662
v -0.06379318 -3.098356 1.7439532
v 0.015100479 -4.96546 -1.6862173
v 0.013697624 -1.9051244 -3.4044209
v -2.336502E-05 2.336502E-05 2.336502E-05
vt 0.9853761 0.0036249266
vt 0.5027874 0.0036249266
vt 0.49693784 0.015324047
vt 0.9863511 0.015324047
vt 0.9863511 0.49791276
vt 0.9951254 0.49791276
vt 0.9951254 0.015324047
vt 0.9922006 0.0065497067
vt 0.49693784 0.49791276
vt 0.48913842 0.015324047
vt 0.48913842 0.49791276
vt 0.49401304 0.00265
vt 0.9795266 0.5135116
vt 0.98732597 0.9853761
vt 0.98732597 0.5174113
vt 0.9795266 0.98732597
vt 0.5369099 0.98732597
vt 0.5359349 0.5135116
vt 0.5369099 0.9961003
vt 0.9795266 0.99707526
vt 0.9853761 0.99415046
vt 0.5271606 0.5174113
vt 0.52618563 0.5066871
vt 0.52813554 0.9824514
vt 0.5271606 0.99317557
vt 0.08844355 0.7572433
vt 0.09721789 0.75139374
vt 0.087468624 0.7455442
vt 0.0045998534 0.015324047
vt 0.48913842 0.00557478
vt 0.0045998534 0.00557478
vt 0.48913842 0.015324047
vt 0.48913842 0.49791276
vt 0.0045998534 0.49791276
vt 0.9853761 0.0036249266
vt 0.5027874 0.0036249266
vt 0.49693784 0.015324047
vt 0.9863511 0.015324047
vt 0.9863511 0.49791276
vt 0.9951254 0.49791276
vt 0.9951254 0.015324047
vt 0.9922006 0.0065497067
vt 0.49693784 0.49791276
vt 0.48913842 0.015324047
vt 0.48913842 0.49791276
vt 0.49401304 0.00265
vt 0.9795266 0.5135116
vt 0.98732597 0.9853761
vt 0.98732597 0.5174113
vt 0.9795266 0.98732597
vt 0.5369099 0.98732597
vt 0.5359349 0.5135116
vt 0.5369099 0.9961003
vt 0.9795266 0.99707526
vt 0.9853761 0.99415046
vt 0.5271606 0.5174113
vt 0.52618563 0.5066871
vt 0.52813554 0.9824514
vt 0.5271606 0.99317557
vt 0.08844355 0.7572433
vt 0.09721789 0.75139374
vt 0.087468624 0.7455442
vt 0.0045998534 0.015324047
vt 0.48913842 0.00557478
vt 0.0045998534 0.00557478
vt 0.48913842 0.015324047
vt 0.48913842 0.49791276
vt 0.0045998534 0.49791276
vn 0.46213502 -0.87289184 0.15649605
vn 0.066314876 -0.7683356 0.6366025
vn 0.999853 0.0008999109 0.017121924
vn 0.99976885 -0.021503188 -0
vn 0.999853 0.008368254 -0.014964706
vn 0.036441624 -0.47707164 -0.87810856
vn 0.036441624 -0.49947655 -0.86556065
vn 0.46213502 -0.87289184 0.15649605
vn 0.999853 0.015836477 0.006570851
vn -0.8896283 0.21001244 0.40553206
vn -0.8896283 0.23241735 0.3931204
vn 0.066314876 -0.7683356 0.6366025
vn 0.036441624 -0.49947655 -0.86556065
vn -0.4489982 -0.78327215 0.429983
vn 0.46213502 -0.87289184 0.15649605
vn -0.030773163 -0.49947655 -0.8657807
vn -0.030773163 -0.47707164 -0.87832546
vn 0.036441624 -0.47707164 -0.87810856
vn -0.90456486 0.224949 0.36216065
vn -0.90456486 0.19507587 0.3790881
vn -0.4489982 -0.78327215 0.429983
vn 0.043909907 0.85975504 -0.50881547
vn 0.999853 0.008368254 -0.014964706
vn -0.07558298 0.86722326 -0.49214935
vn -0.90456486 0.224949 0.36216065
vn -0.8896283 0.23241735 0.3931204
vn 0.021504998 0.90456486 -0.4257933
vn 0.999853 0.015836477 0.006570851
vn -0.90456486 0.19507587 0.3790881
vn 0.066314876 -0.7683356 0.6366025
vn -0.4489982 -0.78327215 0.429983
vn -0.8896283 0.21001244 0.40553206
vn -0.8896283 0.23241735 0.3931204
vn -0.90456486 0.224949 0.36216065
vn -0.4489982 -0.78327215 0.429983
vn 0.066314876 -0.94757485 0.31257677
vn -0.8896283 -0.23808587 -0.3897135
vn -0.90456486 -0.22314924 -0.36327237
vn -0.90456486 -0.20074433 -0.37611714
vn -0.030773163 0.5012764 0.86473984
vn -0.030773163 0.47887146 0.8773455
vn -0.4489982 -0.78327215 0.429983
vn -0.8896283 -0.21568096 -0.40254593
vn 0.999853 -0.014036715 -0.009845849
vn 0.999853 0.0008999109 -0.017121924
vn 0.066314876 -0.94757485 0.31257677
vn -0.030773163 0.47887146 0.8773455
vn 0.46213502 -0.5890962 0.66287017
vn -0.4489982 -0.78327215 0.429983
vn 0.036441624 0.47887146 0.8771283
vn 0.036441624 0.5012764 0.8645195
vn -0.030773163 0.5012764 0.86473984
vn 0.99972844 0.023301916 -0
vn 0.999853 -0.006568432 0.015837481
vn 0.46213502 -0.5890962 0.66287017
vn -0.07558298 0.86722326 -0.49214935
vn -0.90456486 -0.20074433 -0.37611714
vn 0.043909907 0.88215995 -0.46889845
vn 0.99972844 0.023301916 -0
vn 0.999853 0.0008999109 -0.017121924
vn 0.021504998 0.83735013 -0.5462438
vn -0.8896283 -0.21568096 -0.40254593
vn 0.999853 -0.006568432 0.015837481
vn 0.066314876 -0.94757485 0.31257677
vn 0.46213502 -0.5890962 0.66287017
vn 0.999853 -0.014036715 -0.009845849
vn 0.999853 0.0008999109 -0.017121924
vn 0.99972844 0.023301916 -0
g LM4_PrismObstacle_09_0
f 3/3/3 2/2/2 1/1/1
f 4/4/4 3/3/3 1/1/1
f 4/4/4 5/5/5 3/3/3
f 6/6/6 5/5/5 4/4/4
f 7/7/7 6/6/6 4/4/4
f 7/7/7 4/4/4 8/8/8
f 5/5/5 9/9/9 3/3/3
f 10/10/10 3/3/3 9/9/9
f 11/11/11 10/10/10 9/9/9
f 3/3/3 10/10/10 12/12/12
f 15/15/15 14/14/14 13/13/13
f 14/14/14 16/16/16 13/13/13
f 16/16/16 17/17/17 13/13/13
f 17/17/17 18/18/18 13/13/13
f 19/19/19 17/17/17 16/16/16
f 20/20/20 19/19/19 16/16/16
f 16/16/16 21/21/21 20/20/20
f 18/18/18 17/17/17 22/22/22
f 18/18/18 22/22/22 23/23/23
f 17/17/17 24/24/24 22/22/22
f 17/17/17 25/25/25 24/24/24
f 25/25/25 26/26/26 24/24/24
f 22/22/22 27/27/27 23/23/23
f 24/24/24 27/27/27 22/22/22
f 26/26/26 27/27/27 24/24/24
f 27/27/27 28/28/28 23/23/23
f 27/27/27 26/26/26 28/28/28
f 31/31/31 30/30/30 29/29/29
f 30/30/30 32/32/32 29/29/29
f 32/32/32 33/33/33 29/29/29
f 33/33/33 34/34/34 29/29/29
f 37/37/37 36/36/36 35/35/35
f 38/38/38 37/37/37 35/35/35
f 38/38/38 39/39/39 37/37/37
f 40/40/40 39/39/39 38/38/38
f 41/41/41 40/40/40 38/38/38
f 41/41/41 38/38/38 42/42/42
f 39/39/39 43/43/43 37/37/37
f 44/44/44 37/37/37 43/43/43
f 45/45/45 44/44/44 43/43/43
f 37/37/37 44/44/44 46/46/46
f 49/49/49 48/48/48 47/47/47
f 48/48/48 50/50/50 47/47/47
f 50/50/50 51/51/51 47/47/47
f 51/51/51 52/52/52 47/47/47
f 53/53/53 51/51/51 50/50/50
f 54/54/54 53/53/53 50/50/50
f 50/50/50 55/55/55 54/54/54
f 52/52/52 51/51/51 56/56/56
f 52/52/52 56/56/56 57/57/57
f 51/51/51 58/58/58 56/56/56
f 51/51/51 59/59/59 58/58/58
f 59/59/59 60/60/60 58/58/58
f 56/56/56 61/61/61 57/57/57
f 58/58/58 61/61/61 56/56/56
f 60/60/60 61/61/61 58/58/58
f 61/61/61 62/62/62 57/57/57
f 61/61/61 60/60/60 62/62/62
f 65/65/65 64/64/64 63/63/63
f 64/64/64 66/66/66 63/63/63
f 66/66/66 67/67/67 63/63/63
f 67/67/67 68/68/68 63/63/63
