g loftedSurface20
v 13.2444725 2.393222 9.748897
v 12.579003 2.393222 11.132647
v 11.383808 2.393222 11.873936
v -11.870429 -2.3932207 -7.403037
v -9.836465 -2.3932207 -10.362978
v -9.836465 2.393222 -10.362978
v -11.870429 2.393222 -7.403037
v -13.466426 -2.3932207 -3.328877
v -13.466426 2.393222 -3.328877
v -13.53166 -2.3932207 0.80413085
v -13.53166 2.393222 0.80413085
v -11.311777 -2.3932207 4.155322
v -11.311777 2.393222 4.155322
v -7.406543 -2.3932207 6.742998
v -7.406543 2.393222 6.742998
v -3.429121 -2.3932207 6.8512597
v -3.429121 2.393222 6.8512597
v -0.56541014 2.393222 7.524072
v -0.56541014 -2.3932207 7.524072
v 1.7058593 -2.3932207 8.79833
v 1.7058593 2.393222 8.79833
v 5.898613 -2.3932207 11.738505
v 5.898613 2.393222 11.738505
v 9.204473 -2.3932207 12.375595
v 9.204473 2.393222 12.375595
v 11.383808 2.393222 11.873936
v 11.383808 -2.3932207 11.873936
v 12.579003 -2.3932207 11.132647
v 12.579003 2.393222 11.132647
v 13.2444725 -2.3932207 9.748897
v 13.2444725 2.393222 9.748897
v 13.53166 -2.3932207 8.260244
v 13.53166 2.393222 8.260244
v 12.312715 -2.3932207 3.2120996
v 12.312715 2.393222 3.2120996
v 10.123613 -2.3932207 -2.8259473
v 10.123613 2.393222 -2.8259473
v 8.565371 2.3932207 -5.906045
v 8.565371 -2.393222 -5.906045
v 6.479746 -2.393222 -8.400068
v 6.479746 2.3932207 -8.400068
v 0.55583984 -2.3932207 -11.891514
v 0.55583984 2.393222 -11.891514
v -3.3496678 -2.3932207 -12.375595
v -3.3496678 2.393222 -12.375595
v -7.118203 -2.3932207 -11.883135
v -7.118203 2.393222 -11.883135
v -9.836465 -2.3932207 -10.362978
v -9.836465 2.393222 -10.362978
v -13.53166 2.393222 0.80413085
v -13.466426 2.393222 -3.328877
v -11.311777 2.393222 4.155322
v -7.406543 2.393222 6.742998
v -3.429121 2.393222 6.8512597
v -11.870429 2.393222 -7.403037
v -9.836465 2.393222 -10.362978
v -7.118203 2.393222 -11.883135
v -3.3496678 2.393222 -12.375595
v 0.55583984 2.393222 -11.891514
v 6.479746 2.3932207 -8.400068
v -0.56541014 2.393222 7.524072
v 8.565371 2.3932207 -5.906045
v 10.123613 2.393222 -2.8259473
v 12.312715 2.393222 3.2120996
v 1.7058593 2.393222 8.79833
v 5.898613 2.393222 11.738505
v 13.53166 2.393222 8.260244
v 5.898613 2.393222 11.738505
v 13.53166 2.393222 8.260244
v 9.204473 2.393222 12.375595
v 11.383808 2.393222 11.873936
v 13.2444725 2.393222 9.748897
v -13.53166 -2.3932207 0.80413085
v -11.311777 -2.3932207 4.155322
v -13.466426 -2.3932207 -3.328877
v -7.406543 -2.3932207 6.742998
v -3.429121 -2.3932207 6.8512597
v -11.870429 -2.3932207 -7.403037
v -9.836465 -2.3932207 -10.362978
v -7.118203 -2.3932207 -11.883135
v -3.3496678 -2.3932207 -12.375595
v 0.55583984 -2.3932207 -11.891514
v 6.479746 -2.393222 -8.400068
v -0.56541014 -2.3932207 7.524072
v 8.565371 -2.393222 -5.906045
v 10.123613 -2.3932207 -2.8259473
v 12.312715 -2.3932207 3.2120996
v 1.7058593 -2.3932207 8.79833
v 5.898613 -2.3932207 11.738505
v 13.53166 -2.3932207 8.260244
v 9.204473 -2.3932207 12.375595
v 11.383808 -2.3932207 11.873936
v 13.2444725 -2.3932207 9.748897
v 12.579003 -2.3932207 11.132647
vt 0.49633804 -2.9802322E-08
vt 0.5416667 0
vt 0.5758825 -2.9802322E-08
vt 0.9583333 1
vt 1 1
vt 1 0
vt 0.9583333 0
vt 0.91666657 1
vt 0.9166667 0
vt 0.875 1
vt 0.875 0
vt 0.8333333 1
vt 0.8333331 0
vt 0.7916667 1
vt 0.7916667 0
vt 0.75 1
vt 0.7499999 0
vt 0.7291666 0
vt 0.7291666 1
vt 0.7083333 1
vt 0.7083333 0
vt 0.6666667 1
vt 0.6666663 0
vt 0.625 1
vt 0.6249999 0
vt 0.5758825 -2.9802322E-08
vt 0.5758825 1
vt 0.5416667 1
vt 0.5416667 0
vt 0.49633804 1
vt 0.49633804 -2.9802322E-08
vt 0.45833334 1
vt 0.4583334 1.064393E-08
vt 0.375 1
vt 0.375 0
vt 0.29166666 1
vt 0.29166666 0
vt 0.25 0
vt 0.24999997 1
vt 0.20833327 1
vt 0.20833333 0
vt 0.125 1
vt 0.1250001 0
vt 0.083333366 1
vt 0.083333336 0
vt 0.041666668 1
vt 0.041666668 0
vt 0 1
vt 0 0
vt 0.875 0
vt 0.9166667 0
vt 0.8333331 0
vt 0.7916667 0
vt 0.7499999 0
vt 0.9583333 0
vt 1 0
vt 0.041666668 0
vt 0.083333336 0
vt 0.1250001 0
vt 0.20833333 0
vt 0.7291666 0
vt 0.25 0
vt 0.29166666 0
vt 0.375 0
vt 0.7083333 0
vt 0.6666663 0
vt 0.4583334 1.064393E-08
vt 0.6666663 0
vt 0.4583334 1.064393E-08
vt 0.6249999 0
vt 0.5758825 -2.9802322E-08
vt 0.49633804 -2.9802322E-08
vt 0.875 1
vt 0.8333333 1
vt 0.91666657 1
vt 0.7916667 1
vt 0.75 1
vt 0.9583333 1
vt 0 1
vt 0.041666668 1
vt 0.083333366 1
vt 0.125 1
vt 0.20833327 1
vt 0.7291666 1
vt 0.24999997 1
vt 0.29166666 1
vt 0.375 1
vt 0.7083333 1
vt 0.6666667 1
vt 0.45833334 1
vt 0.625 1
vt 0.5758825 1
vt 0.49633804 1
vt 0.5416667 1
vn -0 1 3.4268243E-07
vn -0 1 0
vn -0 1 1.7655296E-06
vn -0.8886479 0 -0.4585901
vn -0.6859675 0 -0.72763216
vn -0.6859675 0 -0.72763216
vn -0.8886485 0 -0.45858902
vn -0.98012334 0 -0.19838914
vn -0.98012346 0 -0.19838867
vn -0.9609692 0 0.27665535
vn -0.9609689 0 0.27665618
vn -0.69610536 0 0.7179396
vn -0.6961053 0 0.71793973
vn -0.32360473 0 0.94619244
vn -0.32360712 0 0.94619155
vn -0.11343726 0 0.9935452
vn -0.113437265 0 0.9935452
vn -0.3545478 0 0.93503785
vn -0.3545478 0 0.93503785
vn -0.5461528 0 0.8376856
vn -0.5461565 0 0.8376832
vn -0.43056756 0 0.9025584
vn -0.43057644 0 0.90255415
vn -0.024679841 0 0.9996954
vn -0.024689129 0 0.9996952
vn 0.34563696 0 0.93836826
vn 0.34563687 0 0.93836826
vn 0.7523572 0 0.65875536
vn 0.7523571 0 0.6587555
vn 0.9491579 0 0.31480047
vn 0.94915897 0 0.31479713
vn 0.9899933 0 -0.14111473
vn 0.9899934 0 -0.1411136
vn 0.955854 0 -0.29384202
vn 0.9558541 0 -0.29384163
vn 0.92493474 0 -0.38012585
vn 0.924935 0 -0.3801255
vn 0.8370217 0 -0.54716974
vn 0.83702004 0 -0.5471723
vn 0.59861004 0 -0.80104053
vn 0.5986121 0 -0.8010391
vn 0.3749415 0 -0.9270485
vn 0.3749458 0 -0.9270468
vn -0.0010951102 0 -0.9999994
vn -0.0010858688 0 -0.9999994
vn -0.2963295 0 -0.95508575
vn -0.2963262 0 -0.9550868
vn -0.6859675 0 -0.72763216
vn -0.6859675 0 -0.72763216
vn -0 1 2.2871778E-07
vn -0 1 1.7085198E-07
vn -0 1 0
vn -0 1 -2.820932E-07
vn -0 1 1.1048949E-07
vn -0 1 1.4915551E-07
vn -0 1 0
vn -0 1 0
vn -0 1 0
vn 1.0674448E-07 1 0
vn 1.5060827E-07 1 -1.6808461E-07
vn -0 1 2.415604E-07
vn -0 1 -2.7063237E-07
vn -1.2314801E-07 1 0
vn -0 1 0
vn -0 1 0
vn -0 1 0
vn -0 1 0
vn -0 1 0
vn -0 1 0
vn -0 1 1.6910967E-07
vn -0 1 1.7655296E-06
vn -0 1 3.4268243E-07
vn -0 -1 6.653608E-07
vn -0 -1 -2.2025273E-07
vn -0 -1 3.6733266E-07
vn -0 -1 -1.7031215E-07
vn -0 -1 0
vn -0 -1 1.4178403E-07
vn -0 -1 0
vn -0 -1 0
vn -0 -1 0
vn -1.0674481E-07 -1 0
vn -1.5060873E-07 -1 0
vn -0 -1 1.4379216E-07
vn -0 -1 1.5810409E-07
vn 1.2314801E-07 -1 0
vn -0 -1 0
vn -0 -1 0
vn -0 -1 0
vn -0 -1 -2.390786E-07
vn -0 -1 3.4686178E-07
vn -0 -1 0
vn -0 -1 0
vn -0 -1 0
g loftedSurface20_0
f 3/3/3 2/2/2 1/1/1
f 6/6/6 5/5/5 4/4/4
f 6/6/6 4/4/4 7/7/7
f 7/7/7 4/4/4 8/8/8
f 7/7/7 8/8/8 9/9/9
f 9/9/9 8/8/8 10/10/10
f 9/9/9 10/10/10 11/11/11
f 11/11/11 10/10/10 12/12/12
f 11/11/11 12/12/12 13/13/13
f 13/13/13 12/12/12 14/14/14
f 13/13/13 14/14/14 15/15/15
f 15/15/15 14/14/14 16/16/16
f 15/15/15 16/16/16 17/17/17
f 18/18/18 17/17/17 16/16/16
f 18/18/18 16/16/16 19/19/19
f 18/18/18 19/19/19 20/20/20
f 18/18/18 20/20/20 21/21/21
f 21/21/21 20/20/20 22/22/22
f 21/21/21 22/22/22 23/23/23
f 23/23/23 22/22/22 24/24/24
f 23/23/23 24/24/24 25/25/25
f 26/26/26 25/25/25 24/24/24
f 26/26/26 24/24/24 27/27/27
f 26/26/26 27/27/27 28/28/28
f 26/26/26 28/28/28 29/29/29
f 29/29/29 28/28/28 30/30/30
f 29/29/29 30/30/30 31/31/31
f 31/31/31 30/30/30 32/32/32
f 31/31/31 32/32/32 33/33/33
f 33/33/33 32/32/32 34/34/34
f 33/33/33 34/34/34 35/35/35
f 35/35/35 34/34/34 36/36/36
f 35/35/35 36/36/36 37/37/37
f 38/38/38 37/37/37 36/36/36
f 38/38/38 36/36/36 39/39/39
f 38/38/38 39/39/39 40/40/40
f 38/38/38 40/40/40 41/41/41
f 41/41/41 40/40/40 42/42/42
f 41/41/41 42/42/42 43/43/43
f 43/43/43 42/42/42 44/44/44
f 43/43/43 44/44/44 45/45/45
f 45/45/45 44/44/44 46/46/46
f 45/45/45 46/46/46 47/47/47
f 47/47/47 46/46/46 48/48/48
f 47/47/47 48/48/48 49/49/49
f 52/52/52 51/51/51 50/50/50
f 53/53/53 51/51/51 52/52/52
f 54/54/54 51/51/51 53/53/53
f 54/54/54 55/55/55 51/51/51
f 54/54/54 56/56/56 55/55/55
f 54/54/54 57/57/57 56/56/56
f 54/54/54 58/58/58 57/57/57
f 54/54/54 59/59/59 58/58/58
f 54/54/54 60/60/60 59/59/59
f 61/61/61 60/60/60 54/54/54
f 61/61/61 62/62/62 60/60/60
f 61/61/61 63/63/63 62/62/62
f 61/61/61 64/64/64 63/63/63
f 65/65/65 64/64/64 61/61/61
f 66/66/66 64/64/64 65/65/65
f 66/66/66 67/67/67 64/64/64
f 70/70/70 69/69/69 68/68/68
f 71/71/71 69/69/69 70/70/70
f 71/71/71 72/72/72 69/69/69
f 75/75/75 74/74/74 73/73/73
f 75/75/75 76/76/76 74/74/74
f 75/75/75 77/77/77 76/76/76
f 78/78/78 77/77/77 75/75/75
f 79/79/79 77/77/77 78/78/78
f 80/80/80 77/77/77 79/79/79
f 81/81/81 77/77/77 80/80/80
f 82/82/82 77/77/77 81/81/81
f 83/83/83 77/77/77 82/82/82
f 83/83/83 84/84/84 77/77/77
f 85/85/85 84/84/84 83/83/83
f 86/86/86 84/84/84 85/85/85
f 87/87/87 84/84/84 86/86/86
f 87/87/87 88/88/88 84/84/84
f 87/87/87 89/89/89 88/88/88
f 90/90/90 89/89/89 87/87/87
f 90/90/90 91/91/91 89/89/89
f 90/90/90 92/92/92 91/91/91
f 93/93/93 92/92/92 90/90/90
f 94/94/94 92/92/92 93/93/93
