g loftedSurface18
v 24.898535 3.5805821 18.318495
v 23.648457 3.5805821 20.919903
v 21.402363 3.5805821 22.313984
v -22.319824 -3.5805805 -13.906328
v -18.498438 -3.580581 -19.471308
v -18.498438 3.580583 -19.471308
v -22.319824 3.5805838 -13.906328
v -25.317305 -3.580581 -6.247246
v -25.317305 3.580583 -6.247246
v -25.437403 -3.580581 1.5215039
v -25.437403 3.580583 1.5215039
v -21.262714 -3.580582 7.819297
v -21.262714 3.5805821 7.819297
v -13.920586 -3.580582 12.680937
v -13.920586 3.5805821 12.680937
v -6.444238 -3.580582 12.882011
v -6.444238 3.5805821 12.882011
v -1.060957 3.5805821 14.144941
v -1.060957 -3.580582 14.144941
v 3.2090428 -3.580582 16.53873
v 3.2090428 3.5805821 16.53873
v 11.091855 -3.580582 22.062773
v 11.091855 3.5805821 22.062773
v 17.30619 -3.580582 23.2583
v 17.30619 3.5805821 23.2583
v 21.402363 3.5805821 22.313984
v 21.402363 -3.580582 22.313984
v 23.648457 -3.580582 20.919903
v 23.648457 3.5805821 20.919903
v 24.898535 -3.580582 18.318495
v 24.898535 3.5805821 18.318495
v 25.437403 -3.580582 15.520137
v 25.437403 3.5805821 15.520137
v 23.143105 -3.5805826 6.0319724
v 23.143105 3.5805817 6.0319724
v 19.024628 -3.580583 -5.31625
v 19.024628 3.580581 -5.31625
v 16.09377 3.5805807 -11.104902
v 16.09377 -3.5805838 -11.104902
v 12.171972 -3.5805838 -15.791582
v 12.171972 3.5805805 -15.791582
v 1.0347852 -3.580583 -22.35078
v 1.0347852 3.580581 -22.35078
v -6.306582 -3.5805826 -23.2583
v -6.306582 3.5805817 -23.2583
v -13.389921 -3.580582 -22.33035
v -13.389921 3.5805821 -22.33035
v -18.498438 -3.580581 -19.471308
v -18.498438 3.580583 -19.471308
v -25.437403 3.580583 1.5215039
v -25.317305 3.580583 -6.247246
v -21.262714 3.5805821 7.819297
v -13.920586 3.5805821 12.680937
v -6.444238 3.5805821 12.882011
v -22.319824 3.5805838 -13.906328
v -18.498438 3.580583 -19.471308
v -13.389921 3.5805821 -22.33035
v -6.306582 3.5805817 -23.2583
v 1.0347852 3.580581 -22.35078
v 12.171972 3.5805805 -15.791582
v -1.060957 3.5805821 14.144941
v 16.09377 3.5805807 -11.104902
v 19.024628 3.580581 -5.31625
v 23.143105 3.5805817 6.0319724
v 3.2090428 3.5805821 16.53873
v 11.091855 3.5805821 22.062773
v 25.437403 3.5805821 15.520137
v 11.091855 3.5805821 22.062773
v 25.437403 3.5805821 15.520137
v 17.30619 3.5805821 23.2583
v 21.402363 3.5805821 22.313984
v 24.898535 3.5805821 18.318495
v -25.437403 -3.580581 1.5215039
v -21.262714 -3.580582 7.819297
v -25.317305 -3.580581 -6.247246
v -13.920586 -3.580582 12.680937
v -6.444238 -3.580582 12.882011
v -22.319824 -3.5805805 -13.906328
v -18.498438 -3.580581 -19.471308
v -13.389921 -3.580582 -22.33035
v -6.306582 -3.5805826 -23.2583
v 1.0347852 -3.580583 -22.35078
v 12.171972 -3.5805838 -15.791582
v -1.060957 -3.580582 14.144941
v 16.09377 -3.5805838 -11.104902
v 19.024628 -3.580583 -5.31625
v 23.143105 -3.5805826 6.0319724
v 3.2090428 -3.580582 16.53873
v 11.091855 -3.580582 22.062773
v 25.437403 -3.580582 15.520137
v 17.30619 -3.580582 23.2583
v 21.402363 -3.580582 22.313984
v 24.898535 -3.580582 18.318495
v 23.648457 -3.580582 20.919903
vt 0.49633804 -2.9802322E-08
vt 0.5416667 0
vt 0.5758825 -2.9802322E-08
vt 0.9583333 1
vt 1 1
vt 1 0
vt 0.9583333 0
vt 0.91666657 1
vt 0.9166667 0
vt 0.875 1
vt 0.875 0
vt 0.8333333 1
vt 0.8333331 0
vt 0.7916667 1
vt 0.7916667 0
vt 0.75 1
vt 0.7499999 0
vt 0.7291666 0
vt 0.7291666 1
vt 0.7083333 1
vt 0.7083333 0
vt 0.6666667 1
vt 0.6666663 0
vt 0.625 1
vt 0.6249999 0
vt 0.5758825 -2.9802322E-08
vt 0.5758825 1
vt 0.5416667 1
vt 0.5416667 0
vt 0.49633804 1
vt 0.49633804 -2.9802322E-08
vt 0.45833334 1
vt 0.4583334 1.064393E-08
vt 0.375 1
vt 0.375 0
vt 0.29166666 1
vt 0.29166666 0
vt 0.25 0
vt 0.24999997 1
vt 0.20833327 1
vt 0.20833333 0
vt 0.125 1
vt 0.1250001 0
vt 0.083333366 1
vt 0.083333336 0
vt 0.041666668 1
vt 0.041666668 0
vt 0 1
vt 0 0
vt 0.875 0
vt 0.9166667 0
vt 0.8333331 0
vt 0.7916667 0
vt 0.7499999 0
vt 0.9583333 0
vt 1 0
vt 0.041666668 0
vt 0.083333336 0
vt 0.1250001 0
vt 0.20833333 0
vt 0.7291666 0
vt 0.25 0
vt 0.29166666 0
vt 0.375 0
vt 0.7083333 0
vt 0.6666663 0
vt 0.4583334 1.064393E-08
vt 0.6666663 0
vt 0.4583334 1.064393E-08
vt 0.6249999 0
vt 0.5758825 -2.9802322E-08
vt 0.49633804 -2.9802322E-08
vt 0.875 1
vt 0.8333333 1
vt 0.91666657 1
vt 0.7916667 1
vt 0.75 1
vt 0.9583333 1
vt 0 1
vt 0.041666668 1
vt 0.083333366 1
vt 0.125 1
vt 0.20833327 1
vt 0.7291666 1
vt 0.24999997 1
vt 0.29166666 1
vt 0.375 1
vt 0.7083333 1
vt 0.6666667 1
vt 0.45833334 1
vt 0.625 1
vt 0.5758825 1
vt 0.49633804 1
vt 0.5416667 1
vn -0 1 0
vn -0 1 3.8106037E-07
vn -0 1 0
vn -0.8887983 0 -0.45829865
vn -0.68620545 0 -0.72740775
vn -0.6862017 0 -0.7274113
vn -0.88879657 0 -0.45830193
vn -0.9801876 0 -0.1980714
vn -0.9801875 0 -0.19807194
vn -0.96087945 0 0.27696687
vn -0.9608793 0 0.27696717
vn -0.6958758 0 0.7181621
vn -0.6958747 0 0.7181632
vn -0.32329985 0 0.9462966
vn -0.32330146 0 0.946296
vn -0.11311466 0 0.993582
vn -0.11311673 0 0.9935818
vn -0.35424066 0 0.9351543
vn -0.35424218 0 0.9351538
vn -0.5458864 0 0.8378592
vn -0.54588443 0 0.83786047
vn -0.43027896 0 0.90269595
vn -0.43027928 0 0.9026957
vn -0.024357606 0 0.9997032
vn -0.024360547 0 0.9997032
vn 0.34593624 0 0.93825805
vn 0.3459391 0 0.9382569
vn 0.7525657 0 0.65851724
vn 0.75256556 0 0.65851736
vn 0.94926023 0 0.31449172
vn 0.949261 0 0.3144895
vn 0.98994714 0 -0.14143842
vn 0.98994714 0 -0.14143802
vn 0.95575845 0 -0.2941525
vn 0.9557587 0 -0.29415202
vn 0.9248116 0 -0.3804254
vn 0.9248115 0 -0.38042554
vn 0.8368455 0 -0.54743916
vn 0.83684576 0 -0.5474388
vn 0.5983512 0 -0.8012339
vn 0.5983532 0 -0.8012325
vn 0.3746446 0 -0.9271685
vn 0.37464723 0 -0.92716736
vn -0.0014212162 0 -0.99999905
vn -0.0014131175 0 -0.99999905
vn -0.29663694 0 -0.95499027
vn -0.29663014 0 -0.9549925
vn -0.68620545 0 -0.72740775
vn -0.6862017 0 -0.7274113
vn 2.143095E-07 1 0
vn -0 1 1.2188168E-07
vn -0 1 0
vn -0 1 0
vn -0 1 0
vn -0 1 0
vn 1.5060186E-07 1 0
vn 1.1450445E-07 1 0
vn -0 1 0
vn -0 1 0
vn -0 1 0
vn -0 1 0
vn -0 1 0
vn -0 1 0
vn -0 1 0
vn -0 1 0
vn -0 1 0
vn -0 1 0
vn -0 1 0
vn -0 1 0
vn -0 1 0
vn -0 1 0
vn -0 1 0
vn -2.143095E-07 -1 0
vn -0 -1 -1.0687629E-07
vn -0 -1 0
vn -0 -1 0
vn -0 -1 0
vn -0 -1 0
vn -1.5060209E-07 -1 0
vn -1.145046E-07 -1 0
vn -0 -1 0
vn -0 -1 0
vn -0 -1 0
vn -0 -1 0
vn -0 -1 0
vn -0 -1 0
vn -0 -1 0
vn -0 -1 0
vn -0 -1 0
vn -0 -1 0
vn -0 -1 0
vn -0 -1 0
vn -0 -1 0
vn -0 -1 3.81079E-07
g loftedSurface18_0
f 3/3/3 2/2/2 1/1/1
f 6/6/6 5/5/5 4/4/4
f 6/6/6 4/4/4 7/7/7
f 7/7/7 4/4/4 8/8/8
f 7/7/7 8/8/8 9/9/9
f 9/9/9 8/8/8 10/10/10
f 9/9/9 10/10/10 11/11/11
f 11/11/11 10/10/10 12/12/12
f 11/11/11 12/12/12 13/13/13
f 13/13/13 12/12/12 14/14/14
f 13/13/13 14/14/14 15/15/15
f 15/15/15 14/14/14 16/16/16
f 15/15/15 16/16/16 17/17/17
f 18/18/18 17/17/17 16/16/16
f 18/18/18 16/16/16 19/19/19
f 18/18/18 19/19/19 20/20/20
f 18/18/18 20/20/20 21/21/21
f 21/21/21 20/20/20 22/22/22
f 21/21/21 22/22/22 23/23/23
f 23/23/23 22/22/22 24/24/24
f 23/23/23 24/24/24 25/25/25
f 26/26/26 25/25/25 24/24/24
f 26/26/26 24/24/24 27/27/27
f 26/26/26 27/27/27 28/28/28
f 26/26/26 28/28/28 29/29/29
f 29/29/29 28/28/28 30/30/30
f 29/29/29 30/30/30 31/31/31
f 31/31/31 30/30/30 32/32/32
f 31/31/31 32/32/32 33/33/33
f 33/33/33 32/32/32 34/34/34
f 33/33/33 34/34/34 35/35/35
f 35/35/35 34/34/34 36/36/36
f 35/35/35 36/36/36 37/37/37
f 38/38/38 37/37/37 36/36/36
f 38/38/38 36/36/36 39/39/39
f 38/38/38 39/39/39 40/40/40
f 38/38/38 40/40/40 41/41/41
f 41/41/41 40/40/40 42/42/42
f 41/41/41 42/42/42 43/43/43
f 43/43/43 42/42/42 44/44/44
f 43/43/43 44/44/44 45/45/45
f 45/45/45 44/44/44 46/46/46
f 45/45/45 46/46/46 47/47/47
f 47/47/47 46/46/46 48/48/48
f 47/47/47 48/48/48 49/49/49
f 52/52/52 51/51/51 50/50/50
f 53/53/53 51/51/51 52/52/52
f 54/54/54 51/51/51 53/53/53
f 54/54/54 55/55/55 51/51/51
f 54/54/54 56/56/56 55/55/55
f 54/54/54 57/57/57 56/56/56
f 54/54/54 58/58/58 57/57/57
f 54/54/54 59/59/59 58/58/58
f 54/54/54 60/60/60 59/59/59
f 61/61/61 60/60/60 54/54/54
f 61/61/61 62/62/62 60/60/60
f 61/61/61 63/63/63 62/62/62
f 61/61/61 64/64/64 63/63/63
f 65/65/65 64/64/64 61/61/61
f 66/66/66 64/64/64 65/65/65
f 66/66/66 67/67/67 64/64/64
f 70/70/70 69/69/69 68/68/68
f 71/71/71 69/69/69 70/70/70
f 71/71/71 72/72/72 69/69/69
f 75/75/75 74/74/74 73/73/73
f 75/75/75 76/76/76 74/74/74
f 75/75/75 77/77/77 76/76/76
f 78/78/78 77/77/77 75/75/75
f 79/79/79 77/77/77 78/78/78
f 80/80/80 77/77/77 79/79/79
f 81/81/81 77/77/77 80/80/80
f 82/82/82 77/77/77 81/81/81
f 83/83/83 77/77/77 82/82/82
f 83/83/83 84/84/84 77/77/77
f 85/85/85 84/84/84 83/83/83
f 86/86/86 84/84/84 85/85/85
f 87/87/87 84/84/84 86/86/86
f 87/87/87 88/88/88 84/84/84
f 87/87/87 89/89/89 88/88/88
f 90/90/90 89/89/89 87/87/87
f 90/90/90 91/91/91 89/89/89
f 90/90/90 92/92/92 91/91/91
f 93/93/93 92/92/92 90/90/90
f 94/94/94 92/92/92 93/93/93
