g loftedSurface19
v -31.63379 4.165136 -8.190791
v -31.631933 4.165136 -11.422002
v -30.039999 4.165136 -13.916963
v 31.63379 -4.1651325 1.466748
v 30.471874 -4.165133 8.9346
v 30.471874 4.165136 8.9346
v 31.63379 4.165136 1.466748
v 30.949842 -4.165133 -7.715771
v 30.949842 4.165136 -7.715771
v 27.308475 -4.165133 -15.615419
v 27.308475 4.165136 -15.615419
v 20.044569 -4.1651335 -19.950283
v 20.044569 4.165136 -19.950283
v 10.279101 -4.1651335 -21.301435
v 10.279101 4.165136 -21.301435
v 2.6353905 -4.1651335 -17.883448
v 2.6353905 4.165136 -17.883448
v -3.4099607 4.165136 -16.550928
v -3.4099607 -4.1651335 -16.550928
v -8.879296 -4.1651335 -16.899092
v -8.879296 4.165136 -16.899092
v -19.511328 -4.1651335 -18.657001
v -19.511328 4.165136 -18.657001
v -26.36285 -4.1651335 -16.853973
v -26.36285 4.165136 -16.853973
v -30.039999 4.165136 -13.916963
v -30.039999 -4.1651335 -13.916963
v -31.631933 -4.1651335 -11.422002
v -31.631933 4.165136 -11.422002
v -31.63379 -4.1651335 -8.190791
v -31.63379 4.165136 -8.190791
v -30.822382 -4.1651335 -5.105244
v -30.822382 4.165136 -5.105244
v -23.91129 -4.165135 3.3605566
v -23.91129 4.165135 3.3605566
v -14.258046 -4.1651354 12.820322
v -14.258046 4.1651335 12.820322
v -8.496172 4.1651335 17.243681
v -8.496172 -4.165136 17.243681
v -2.2678125 -4.165136 20.074814
v -2.2678125 4.1651335 20.074814
v 12.150391 -4.1651354 21.301435
v 12.150391 4.1651335 21.301435
v 20.000038 -4.165135 18.661846
v 20.000038 4.165135 18.661846
v 26.700233 -4.1651335 14.2945795
v 26.700233 4.165136 14.2945795
v 30.471874 -4.165133 8.9346
v 30.471874 4.165136 8.9346
v 27.308475 4.165136 -15.615419
v 30.949842 4.165136 -7.715771
v 20.044569 4.165136 -19.950283
v 10.279101 4.165136 -21.301435
v 2.6353905 4.165136 -17.883448
v 31.63379 4.165136 1.466748
v 30.471874 4.165136 8.9346
v 26.700233 4.165136 14.2945795
v 20.000038 4.165135 18.661846
v 12.150391 4.1651335 21.301435
v -2.2678125 4.1651335 20.074814
v -3.4099607 4.165136 -16.550928
v -8.496172 4.1651335 17.243681
v -14.258046 4.1651335 12.820322
v -23.91129 4.165135 3.3605566
v -8.879296 4.165136 -16.899092
v -19.511328 4.165136 -18.657001
v -30.822382 4.165136 -5.105244
v -19.511328 4.165136 -18.657001
v -30.822382 4.165136 -5.105244
v -26.36285 4.165136 -16.853973
v -30.039999 4.165136 -13.916963
v -31.63379 4.165136 -8.190791
v 27.308475 -4.165133 -15.615419
v 20.044569 -4.1651335 -19.950283
v 30.949842 -4.165133 -7.715771
v 10.279101 -4.1651335 -21.301435
v 2.6353905 -4.1651335 -17.883448
v 31.63379 -4.1651325 1.466748
v 30.471874 -4.165133 8.9346
v 26.700233 -4.1651335 14.2945795
v 20.000038 -4.165135 18.661846
v 12.150391 -4.1651354 21.301435
v -2.2678125 -4.165136 20.074814
v -3.4099607 -4.1651335 -16.550928
v -8.496172 -4.165136 17.243681
v -14.258046 -4.1651354 12.820322
v -23.91129 -4.165135 3.3605566
v -8.879296 -4.1651335 -16.899092
v -19.511328 -4.1651335 -18.657001
v -30.822382 -4.1651335 -5.105244
v -26.36285 -4.1651335 -16.853973
v -30.039999 -4.1651335 -13.916963
v -31.63379 -4.1651335 -8.190791
v -31.631933 -4.1651335 -11.422002
vt 0.49633804 -2.9802322E-08
vt 0.5416667 0
vt 0.5758825 -2.9802322E-08
vt 0.9583333 1
vt 1 1
vt 1 0
vt 0.9583333 0
vt 0.91666657 1
vt 0.9166667 0
vt 0.875 1
vt 0.875 0
vt 0.8333333 1
vt 0.8333331 0
vt 0.7916667 1
vt 0.7916667 0
vt 0.75 1
vt 0.7499999 0
vt 0.7291666 0
vt 0.7291666 1
vt 0.7083333 1
vt 0.7083333 0
vt 0.6666667 1
vt 0.6666663 0
vt 0.625 1
vt 0.6249999 0
vt 0.5758825 -2.9802322E-08
vt 0.5758825 1
vt 0.5416667 1
vt 0.5416667 0
vt 0.49633804 1
vt 0.49633804 -2.9802322E-08
vt 0.45833334 1
vt 0.4583334 1.064393E-08
vt 0.375 1
vt 0.375 0
vt 0.29166666 1
vt 0.29166666 0
vt 0.25 0
vt 0.24999997 1
vt 0.20833327 1
vt 0.20833333 0
vt 0.125 1
vt 0.1250001 0
vt 0.083333366 1
vt 0.083333336 0
vt 0.041666668 1
vt 0.041666668 0
vt 0 1
vt 0 0
vt 0.875 0
vt 0.9166667 0
vt 0.8333331 0
vt 0.7916667 0
vt 0.7499999 0
vt 0.9583333 0
vt 1 0
vt 0.041666668 0
vt 0.083333336 0
vt 0.1250001 0
vt 0.20833333 0
vt 0.7291666 0
vt 0.25 0
vt 0.29166666 0
vt 0.375 0
vt 0.7083333 0
vt 0.6666663 0
vt 0.4583334 1.064393E-08
vt 0.6666663 0
vt 0.4583334 1.064393E-08
vt 0.6249999 0
vt 0.5758825 -2.9802322E-08
vt 0.49633804 -2.9802322E-08
vt 0.875 1
vt 0.8333333 1
vt 0.91666657 1
vt 0.7916667 1
vt 0.75 1
vt 0.9583333 1
vt 0 1
vt 0.041666668 1
vt 0.083333366 1
vt 0.125 1
vt 0.20833327 1
vt 0.7291666 1
vt 0.24999997 1
vt 0.29166666 1
vt 0.375 1
vt 0.7083333 1
vt 0.6666667 1
vt 0.45833334 1
vt 0.625 1
vt 0.5758825 1
vt 0.49633804 1
vt 0.5416667 1
vn -0 1 0
vn -0 1 4.323175E-07
vn -0 1 0
vn 0.9995882 0 0.028694443
vn 0.9333511 0 0.35896474
vn 0.9333508 0 0.35896552
vn 0.9995882 0 0.028694423
vn 0.9694066 0 -0.24546033
vn 0.9694067 0 -0.24545996
vn 0.746495 0 -0.66539097
vn 0.7464961 0 -0.66538984
vn 0.31670573 0 -0.9485238
vn 0.31670764 0 -0.94852316
vn -0.11789365 0 -0.99302626
vn -0.11789243 0 -0.9930264
vn -0.3278488 0 -0.9447302
vn -0.3278505 0 -0.94472957
vn -0.08517775 0 -0.9963658
vn -0.0851727 0 -0.99636614
vn 0.12969682 0 -0.9915537
vn 0.129695 0 -0.99155396
vn -0.0025789167 0 -0.99999666
vn -0.0025804122 0 -0.99999666
vn -0.4105172 0 -0.9118529
vn -0.41052374 0 -0.9118499
vn -0.7177873 0 -0.6962625
vn -0.71778566 0 -0.6962642
vn -0.96337974 0 -0.26814058
vn -0.9633793 0 -0.26814228
vn -0.9918875 0 0.12711926
vn -0.9918874 0 0.12711999
vn -0.8313336 0 0.55577374
vn -0.831332 0 0.5557762
vn -0.73444307 0 0.6786704
vn -0.73444235 0 0.6786712
vn -0.66921836 0 0.7430657
vn -0.66921824 0 0.74306583
vn -0.5176591 0 0.855587
vn -0.5176585 0 0.85558736
vn -0.19284545 0 0.98122907
vn -0.19284575 0 0.98122907
vn 0.063325666 0 0.9979929
vn 0.06332703 0 0.9979929
vn 0.43388516 0 0.90096825
vn 0.43388674 0 0.90096736
vn 0.68057954 0 0.73267424
vn 0.6805786 0 0.732675
vn 0.9333511 0 0.35896474
vn 0.9333508 0 0.35896552
vn -0 1 0
vn -0 1 0
vn -0 1 0
vn -0 1 0
vn -0 1 0
vn -0 1 0
vn -0 1 0
vn -0 1 0
vn -1.234646E-07 1 0
vn -0 1 1.0468712E-07
vn -0 1 0
vn -0 1 0
vn -0 1 0
vn -0 1 1.2260263E-07
vn -0 1 0
vn -0 1 0
vn -0 1 0
vn -0 1 0
vn -0 1 0
vn -0 1 0
vn -0 1 0
vn -0 1 0
vn -0 1 0
vn 1.1590853E-07 -1 0
vn -0 -1 0
vn -0 -1 0
vn -0 -1 0
vn -0 -1 0
vn -0 -1 0
vn -0 -1 0
vn 1.0512712E-07 -1 0
vn -0 -1 0
vn -0 -1 0
vn -0 -1 0
vn -0 -1 0
vn -0 -1 0
vn -0 -1 0
vn -0 -1 0
vn -0 -1 0
vn -0 -1 0
vn -0 -1 0
vn -0 -1 0
vn -0 -1 0
vn -0 -1 0
vn -0 -1 0
g loftedSurface19_0
f 3/3/3 2/2/2 1/1/1
f 6/6/6 5/5/5 4/4/4
f 6/6/6 4/4/4 7/7/7
f 7/7/7 4/4/4 8/8/8
f 7/7/7 8/8/8 9/9/9
f 9/9/9 8/8/8 10/10/10
f 9/9/9 10/10/10 11/11/11
f 11/11/11 10/10/10 12/12/12
f 11/11/11 12/12/12 13/13/13
f 13/13/13 12/12/12 14/14/14
f 13/13/13 14/14/14 15/15/15
f 15/15/15 14/14/14 16/16/16
f 15/15/15 16/16/16 17/17/17
f 18/18/18 17/17/17 16/16/16
f 18/18/18 16/16/16 19/19/19
f 18/18/18 19/19/19 20/20/20
f 18/18/18 20/20/20 21/21/21
f 21/21/21 20/20/20 22/22/22
f 21/21/21 22/22/22 23/23/23
f 23/23/23 22/22/22 24/24/24
f 23/23/23 24/24/24 25/25/25
f 26/26/26 25/25/25 24/24/24
f 26/26/26 24/24/24 27/27/27
f 26/26/26 27/27/27 28/28/28
f 26/26/26 28/28/28 29/29/29
f 29/29/29 28/28/28 30/30/30
f 29/29/29 30/30/30 31/31/31
f 31/31/31 30/30/30 32/32/32
f 31/31/31 32/32/32 33/33/33
f 33/33/33 32/32/32 34/34/34
f 33/33/33 34/34/34 35/35/35
f 35/35/35 34/34/34 36/36/36
f 35/35/35 36/36/36 37/37/37
f 38/38/38 37/37/37 36/36/36
f 38/38/38 36/36/36 39/39/39
f 38/38/38 39/39/39 40/40/40
f 38/38/38 40/40/40 41/41/41
f 41/41/41 40/40/40 42/42/42
f 41/41/41 42/42/42 43/43/43
f 43/43/43 42/42/42 44/44/44
f 43/43/43 44/44/44 45/45/45
f 45/45/45 44/44/44 46/46/46
f 45/45/45 46/46/46 47/47/47
f 47/47/47 46/46/46 48/48/48
f 47/47/47 48/48/48 49/49/49
f 52/52/52 51/51/51 50/50/50
f 53/53/53 51/51/51 52/52/52
f 54/54/54 51/51/51 53/53/53
f 54/54/54 55/55/55 51/51/51
f 54/54/54 56/56/56 55/55/55
f 54/54/54 57/57/57 56/56/56
f 54/54/54 58/58/58 57/57/57
f 54/54/54 59/59/59 58/58/58
f 54/54/54 60/60/60 59/59/59
f 61/61/61 60/60/60 54/54/54
f 61/61/61 62/62/62 60/60/60
f 61/61/61 63/63/63 62/62/62
f 61/61/61 64/64/64 63/63/63
f 65/65/65 64/64/64 61/61/61
f 66/66/66 64/64/64 65/65/65
f 66/66/66 67/67/67 64/64/64
f 70/70/70 69/69/69 68/68/68
f 71/71/71 69/69/69 70/70/70
f 71/71/71 72/72/72 69/69/69
f 75/75/75 74/74/74 73/73/73
f 75/75/75 76/76/76 74/74/74
f 75/75/75 77/77/77 76/76/76
f 78/78/78 77/77/77 75/75/75
f 79/79/79 77/77/77 78/78/78
f 80/80/80 77/77/77 79/79/79
f 81/81/81 77/77/77 80/80/80
f 82/82/82 77/77/77 81/81/81
f 83/83/83 77/77/77 82/82/82
f 83/83/83 84/84/84 77/77/77
f 85/85/85 84/84/84 83/83/83
f 86/86/86 84/84/84 85/85/85
f 87/87/87 84/84/84 86/86/86
f 87/87/87 88/88/88 84/84/84
f 87/87/87 89/89/89 88/88/88
f 90/90/90 89/89/89 87/87/87
f 90/90/90 91/91/91 89/89/89
f 90/90/90 92/92/92 91/91/91
f 93/93/93 92/92/92 90/90/90
f 94/94/94 92/92/92 93/93/93
