g 
v -6.2999964 0.020659827 -4.56318
v -6.320546 0.091761954 -4.679374
v -6.320546 0.07027195 -4.5602236
v -6.2999964 0.043861467 -4.69182
v -6.320546 0.15808563 -4.785464
v -6.2503843 0.000109829474 -4.5644054
v -6.2999964 0.11744853 -4.809528
v -6.320546 0.26167122 -4.8698897
v -6.2503843 0.024020473 -4.6969757
v -6.2999964 0.23214637 -4.903011
v -6.320546 0.39219514 -4.924095
v 6.250388 0.024020577 -4.697036
v 6.250388 0.000109829474 -4.564466
v 6.3 0.020659778 -4.563242
v -6.2503843 0.10061615 -4.8194957
v -6.2999964 0.37667426 -4.9630313
v -6.320546 0.5369323 -4.9427714
v 6.3000007 0.043861795 -4.691881
v 6.3205504 0.07027182 -4.560286
v 6.3205504 0.09176257 -4.679436
v 6.2503877 0.10061626 -4.8195567
v 6.3 0.117448896 -4.80959
v 6.32055 0.15808633 -4.7855263
v -6.2503843 0.21991684 -4.91673
v 6.250386 0.2199169 -4.91679
v 6.299999 0.23214664 -4.9030714
v 6.320549 0.26167175 -4.8699512
v 6.250388 0.3702454 -4.9792204
v 6.3 0.37667453 -4.9630923
v 6.32055 0.39219567 -4.924156
v -6.250385 0.37024534 -4.9791603
v 6.2503867 0.53693235 -5.0007286
v 6.299999 0.53693235 -4.9837713
v 6.32055 0.53693235 -4.942833
v -6.2999964 0.5369323 -4.983711
v -6.320546 0.68166924 -4.924095
v -6.250385 0.5369323 -5.0006685
v -6.2999964 0.6971901 -4.9630313
v -6.320546 0.81219333 -4.8698893
v 6.3 0.69719 -4.9630923
v 6.32055 0.6816688 -4.924156
v 6.2503877 0.70361906 -4.9792204
v -6.2999964 0.84171814 -4.9030104
v -6.320546 0.9157792 -4.785464
v -6.2503843 0.703619 -4.9791603
v 6.299999 0.84171796 -4.9030714
v 6.320549 0.8121929 -4.869951
v 6.250386 0.85394776 -4.91679
v -6.2999964 0.95641637 -4.809528
v -6.320546 0.9821023 -4.679374
v -6.2503843 0.8539477 -4.91673
v 6.2999997 0.9564162 -4.80959
v 6.32055 0.91577864 -4.7855263
v 6.250387 0.9732488 -4.8195567
v -6.2999964 1.030003 -4.69182
v -6.320546 1.0035926 -4.5602236
v -6.2503843 0.9732488 -4.8194957
v 6.3000007 1.0300028 -4.691881
v 6.3205504 0.98210186 -4.679436
v 6.250388 1.0498441 -4.697036
v -6.2999964 1.0532048 -4.56318
v -6.320551 1.0035944 4.565393
v -6.2503843 1.049844 -4.6969757
v 6.3 1.0532049 -4.563242
v 6.3205504 1.0035927 -4.560286
v 6.250388 1.0737548 -4.564466
v -6.300001 1.0532067 4.568349
v -6.3205504 0.9821037 4.6845427
v -6.2503843 1.0737548 -4.5644054
v 6.299996 1.053207 4.5682855
v 6.320546 1.003595 4.565329
v -6.3 1.0300046 4.696988
v -6.3205504 0.9157809 4.790633
v -6.2503886 1.0737567 4.569573
v 6.250384 1.0737572 4.569511
v 6.2999964 1.0300056 4.6969247
v 6.320547 0.9821052 4.684479
v 6.2503843 1.0498464 4.7020807
v -6.299999 0.9564182 4.8146963
v -6.32055 0.8121948 4.875057
v -6.2503886 1.049846 4.7021422
v 6.2999973 0.95641863 4.8146334
v 6.320547 0.9157812 4.790569
v 6.2503853 0.97325116 4.8246017
v -6.299999 0.8417199 4.9081783
v -6.3205504 0.6816707 4.929263
v -6.250387 0.97325075 4.8246636
v 6.299998 0.8417206 4.908115
v 6.320548 0.81219584 4.8749943
v 6.250386 0.85395014 4.921835
v -6.3000007 0.6971919 4.9681993
v -6.3205504 0.5369343 4.94794
v -6.250386 0.85394967 4.921897
v 6.2999964 0.69719255 4.9681363
v 6.320547 0.68167174 4.9292006
v 6.2503843 0.70362145 4.984265
v -6.299999 0.5369343 4.9888783
v -6.3205504 0.39219764 4.929263
v -6.250388 0.70362103 4.984327
v 6.2999973 0.53693473 4.9888153
v 6.320547 0.53693473 4.947876
v 6.2503858 0.53693473 5.0057735
v -6.3000007 0.3766765 4.9681993
v -6.32055 0.26167378 4.8750577
v -6.250387 0.5369343 5.0058355
v 6.2999964 0.37667668 4.9681363
v 6.320547 0.3921975 4.9292006
v 6.250385 0.3702478 4.984265
v -6.299999 0.23214869 4.9081783
v -6.3205504 0.1580879 4.790633
v -6.250388 0.37024736 4.984327
v 6.299998 0.23214887 4.9081154
v 6.320548 0.2616736 4.8749948
v 6.250386 0.21991938 4.921835
v -6.299999 0.11745063 4.8146963
v -6.3205504 0.091764756 4.6845427
v -6.250386 0.21991895 4.921897
v 6.2999973 0.11745109 4.8146334
v 6.320547 0.15808837 4.7905693
v 6.2503853 0.100618556 4.8246017
v -6.3 0.043863844 4.696988
v -6.320551 0.070273966 4.565393
v -6.250387 0.10061815 4.8246636
v 6.2999964 0.043863792 4.6969247
v 6.320547 0.09176407 4.684479
v 6.2503843 0.024022948 4.7020807
v -6.300001 0.020661801 4.568349
v -6.320546 0.07027195 -4.5602236
v -6.2999964 0.020659827 -4.56318
v -6.250389 0.024022534 4.7021422
v -6.2503886 0.0001117629 4.569573
v -6.2503843 0.000109829474 -4.5644054
v 6.250384 0.00011217641 4.569511
v 6.250388 0.000109829474 -4.564466
v 6.299996 0.020662181 4.5682855
v 6.320546 0.07027429 4.565329
v 6.3 0.020659778 -4.563242
v 6.3205504 0.07027182 -4.560286
vt 0.003434264 0.48138985
vt 0.002257959 0.4783425
vt 0.002250583 0.48138076
vt 0.003434264 0.4783524
vt 0.0022579888 0.47528496
vt 0.005304032 0.48138985
vt 0.003434264 0.47528496
vt 0.002257959 0.47217897
vt 0.0053040655 0.4783524
vt 0.0034342343 0.47217897
vt 0.0022579888 0.4690838
vt 0.121292144 0.4783524
vt 0.1212922 0.48138985
vt 0.123162 0.48138985
vt 0.005304103 0.47528496
vt 0.003434264 0.46908376
vt 0.0022556828 0.4658497
vt 0.12316194 0.4783524
vt 0.12434457 0.48138073
vt 0.1243372 0.47834507
vt 0.121292144 0.47528496
vt 0.12316194 0.47528496
vt 0.1243372 0.47528502
vt 0.0053042294 0.47217897
vt 0.121292144 0.47217897
vt 0.123162 0.47217897
vt 0.124337256 0.47217897
vt 0.121292144 0.4690838
vt 0.12316194 0.4690838
vt 0.1243372 0.4690838
vt 0.005303965 0.46908376
vt 0.121292144 0.46584967
vt 0.12316194 0.46584967
vt 0.124339506 0.46584967
vt 0.0034342343 0.4658497
vt 0.0022579888 0.46261245
vt 0.005304103 0.4658497
vt 0.003434264 0.46261245
vt 0.002257959 0.4595107
vt 0.123162 0.46261248
vt 0.1243372 0.46261248
vt 0.1212922 0.46261248
vt 0.0034342343 0.4595107
vt 0.0022579888 0.45638812
vt 0.0052996846 0.46261245
vt 0.12316194 0.4595107
vt 0.1243372 0.4595107
vt 0.1212922 0.4595107
vt 0.003434264 0.45638812
vt 0.0022579292 0.4532745
vt 0.0052998224 0.4595107
vt 0.12316194 0.45638806
vt 0.1243372 0.45638806
vt 0.1212922 0.45638806
vt 0.0034342343 0.45326707
vt 0.0022505494 0.45005974
vt 0.0052998224 0.45638812
vt 0.123162 0.45326707
vt 0.1243372 0.4532772
vt 0.1212922 0.45326707
vt 0.0034342343 0.4500501
vt 0.002250583 0.23769055
vt 0.0053026835 0.45326683
vt 0.12316194 0.4500501
vt 0.12434457 0.4500598
vt 0.1212922 0.45005015
vt 0.003434305 0.23770015
vt 0.0022579888 0.234473
vt 0.005304032 0.4500501
vt 0.12316194 0.23770015
vt 0.12434463 0.23769055
vt 0.003434305 0.23448318
vt 0.0022579888 0.23136215
vt 0.005302851 0.23770015
vt 0.12129226 0.23770015
vt 0.12316194 0.23448314
vt 0.1243372 0.23447575
vt 0.1212922 0.23448314
vt 0.003434305 0.23136215
vt 0.0022579888 0.22823809
vt 0.005299852 0.23448318
vt 0.12316194 0.23136215
vt 0.1243372 0.2313621
vt 0.1212922 0.23136215
vt 0.003434305 0.22823812
vt 0.0022579888 0.22512177
vt 0.005308048 0.23136215
vt 0.12316194 0.22823809
vt 0.1243372 0.22823808
vt 0.1212922 0.22823809
vt 0.003434305 0.22512174
vt 0.0022556828 0.22189993
vt 0.005299722 0.22823812
vt 0.12316194 0.22512174
vt 0.1243372 0.22512174
vt 0.1212922 0.22512174
vt 0.003434305 0.22189993
vt 0.0022579888 0.21867906
vt 0.0053069936 0.22512174
vt 0.12316194 0.22189993
vt 0.124339506 0.22189993
vt 0.1212922 0.22189993
vt 0.003434305 0.21867909
vt 0.0022579888 0.21556392
vt 0.0053069936 0.22189993
vt 0.12316194 0.21867909
vt 0.1243372 0.21867906
vt 0.12129226 0.21867909
vt 0.003434305 0.21556392
vt 0.0022579888 0.21244155
vt 0.005304103 0.21867909
vt 0.12316194 0.21556392
vt 0.1243372 0.21556392
vt 0.121292144 0.21556392
vt 0.003434305 0.21244155
vt 0.0022579888 0.20933221
vt 0.0053041326 0.21556392
vt 0.12316194 0.21244155
vt 0.1243372 0.2124416
vt 0.12129226 0.21244153
vt 0.003434305 0.20932479
vt 0.002250583 0.20613906
vt 0.005304103 0.21244155
vt 0.12316194 0.20932484
vt 0.1243372 0.20933488
vt 0.12129201 0.20932484
vt 0.003434305 0.20614864
vt 0.0022497 0.00085778337
vt 0.003434305 0.00085778337
vt 0.0053041326 0.20932479
vt 0.005304103 0.20614864
vt 0.0053040655 0.00085778337
vt 0.121292144 0.20614867
vt 0.1212922 0.00085782714
vt 0.12316194 0.20614861
vt 0.12434463 0.20613906
vt 0.123162 0.00085782714
vt 0.12434569 0.0008578125
vn -0.79146236 -0.6015127 -0.10848919
vn -0.9233813 -0.36628336 -0.11490624
vn -0.92315894 -0.37831452 -0.0682328
vn -0.6991373 -0.6730093 -0.24138281
vn -0.91563356 -0.31545305 -0.24920787
vn -0.0016055264 -0.9841198 -0.17749853
vn -0.6774093 -0.5616754 -0.47501305
vn -0.9057969 -0.2347363 -0.35274747
vn -0.0015866475 -0.9053713 -0.42461774
vn -0.6540881 -0.40029803 -0.64181787
vn -0.8974358 -0.13314974 -0.42057103
vn 0.0016134242 -0.9521603 -0.30559453
vn 0.0016278483 -0.9841195 -0.1774992
vn 0.5995247 -0.7876475 -0.14206184
vn -0.0014950965 -0.7091097 -0.7050966
vn -0.6363097 -0.21306336 -0.74142706
vn -0.8935358 -0.020623643 -0.44851792
vn 0.6957799 -0.6604523 -0.28229982
vn 0.92315716 -0.37831867 -0.068234034
vn 0.92116296 -0.3521283 -0.16572422
vn 0.0015207754 -0.78234214 -0.6228471
vn 0.6735315 -0.53881717 -0.50599533
vn 0.9121618 -0.2894787 -0.29010835
vn -0.0014078957 -0.46750423 -0.8839897
vn 0.0014265575 -0.55114263 -0.8344099
vn 0.65071666 -0.37188643 -0.6620184
vn 0.90243906 -0.20015466 -0.38149935
vn 0.0013571782 -0.298873 -0.954292
vn 0.6343512 -0.18221581 -0.7512629
vn 0.8954097 -0.09351573 -0.43531173
vn -0.0013519353 -0.21300107 -0.9770511
vn 0.0013278266 -0.042967085 -0.99907553
vn 0.629137 0.015741037 -0.777135
vn 0.8935275 0.02062154 -0.44853458
vn -0.62915415 -0.0157412 -0.7771211
vn -0.8954137 0.09351541 -0.43530366
vn -0.0013374429 0.04296713 -0.9990756
vn -0.63435924 0.18221566 -0.7512561
vn -0.9024408 0.20015214 -0.38149676
vn 0.6362964 0.21306688 -0.74143744
vn 0.8974361 0.13315432 -0.42056936
vn 0.0013425207 0.21300119 -0.977051
vn -0.65072846 0.37188217 -0.66200906
vn -0.9121631 0.28948092 -0.2901023
vn -0.0013663819 0.29887292 -0.9542919
vn 0.65408015 0.40030026 -0.64182466
vn 0.90579426 0.23473656 -0.35275415
vn 0.0013993947 0.4675021 -0.8839909
vn -0.6735391 0.5388152 -0.5059875
vn -0.92116356 0.3521284 -0.16572057
vn -0.0014346428 0.5511416 -0.8344105
vn 0.67740184 0.56167835 -0.47502032
vn 0.91563094 0.3154546 -0.24921577
vn 0.001488247 0.7091102 -0.70509607
vn -0.6957863 0.6604471 -0.28229585
vn -0.9239182 0.38258588 -0.0018247027
vn -0.001526832 0.7823432 -0.62284565
vn 0.6991348 0.67301095 -0.24138524
vn 0.9233804 0.36628526 -0.11490763
vn 0.001582551 0.90537184 -0.4246167
vn -0.79484797 0.6068052 -0.0020242394
vn -0.9238907 0.38265613 0.000446976
vn -0.0016163806 0.9521605 -0.3055943
vn 0.6066527 0.79496557 -0.0014883428
vn 0.92388725 0.3826645 -0.00044718233
vn 0.0008318963 0.9999963 -0.0025854346
vn -0.6066532 0.7949652 0.0014880535
vn -0.9233795 0.36628628 0.11491179
vn -0.0032385655 0.99999154 -0.0025705039
vn 0.7948446 0.6068096 0.0020238876
vn 0.9239146 0.38259438 0.0018243766
vn -0.69913375 0.6730111 0.24138755
vn -0.91562456 0.31546703 0.24922332
vn -0.0008319389 0.9999963 0.002584971
vn 0.003238528 0.9999914 0.002570041
vn 0.695781 0.66045403 0.28229302
vn 0.92115915 0.35213995 0.1657206
vn 0.0016163777 0.9521605 0.3055943
vn -0.6773998 0.56167984 0.4750213
vn -0.9057873 0.23474577 0.35276586
vn -0.0015825394 0.9053723 0.42461568
vn 0.6735423 0.53881454 0.50598377
vn 0.9121624 0.2894832 0.29010177
vn 0.0015268842 0.78234386 0.62284493
vn -0.6540802 0.40030128 0.6418239
vn -0.89743394 0.13315655 0.42057294
vn -0.0014882158 0.70910984 0.70509654
vn 0.6507285 0.37188026 0.66201013
vn 0.9024338 0.2001569 0.38151056
vn 0.001434758 0.55113953 0.83441186
vn -0.6362936 0.21306694 0.7414397
vn -0.8935247 0.020620583 0.44854027
vn -0.0013992673 0.46750045 0.88399166
vn 0.6343509 0.18221726 0.7512628
vn 0.8954068 0.09351794 0.4353172
vn 0.0013665032 0.2988721 0.95429224
vn -0.62913597 0.015741602 0.77713585
vn -0.8954082 -0.09351465 0.43531495
vn -0.0013423562 0.21300207 0.9770507
vn 0.62915254 -0.015742106 0.77712244
vn 0.8935323 -0.02062593 0.4485249
vn 0.0013376054 0.04296808 0.9990756
vn -0.63434756 -0.18221775 0.7512654
vn -0.9024351 -0.2001599 0.38150617
vn -0.0013276606 -0.042968035 0.99907553
vn 0.6363038 -0.2130621 0.7414324
vn 0.8974267 -0.13315053 0.4205904
vn 0.0013520792 -0.21300201 0.9770508
vn -0.6507103 -0.37189174 0.6620217
vn -0.9121521 -0.28949738 0.29012027
vn -0.0013569968 -0.2988722 0.9542921
vn 0.6540864 -0.40029553 0.6418212
vn 0.90579355 -0.23474032 0.3527533
vn 0.0014080569 -0.4675011 0.8839913
vn -0.6735276 -0.5388214 0.5059962
vn -0.9211575 -0.35213926 0.16573079
vn -0.0014264379 -0.5511403 0.8344114
vn 0.6774099 -0.5616776 0.47500953
vn 0.9156315 -0.3154601 0.24920666
vn 0.0014952277 -0.7091095 0.70509684
vn -0.69578516 -0.66044575 0.282302
vn -0.9239181 -0.38258606 0.0018239595
vn -0.0015206911 -0.78234327 0.62284553
vn 0.6991335 -0.6730132 0.24138242
vn 0.92337555 -0.36629727 0.11490801
vn 0.0015867399 -0.9053717 0.42461684
vn -0.7948462 -0.60680765 0.002023467
vn -0.9238811 -0.3826795 -3.9892515E-07
vn -0.6037285 -0.79719 -1.3720708E-07
vn -0.001613352 -0.9521602 0.30559507
vn -0.0032385073 -0.9999915 0.0025705046
vn -0.0008203045 -0.99999964 2.3387935E-07
vn 0.0008319614 -0.99999624 0.002585441
vn 0.0032614504 -0.9999947 2.5850122E-07
vn 0.6066522 -0.794966 0.0014888584
vn 0.9238872 -0.3826647 0.00044798444
vn 0.7971382 -0.60379684 5.3468875E-07
vn 0.92387766 -0.38268775 5.382066E-07
g _0
f 3/3/3 2/2/2 1/1/1
f 2/2/2 4/4/4 1/1/1
f 4/4/4 2/2/2 5/5/5
f 1/1/1 4/4/4 6/6/6
f 7/7/7 4/4/4 5/5/5
f 7/7/7 5/5/5 8/8/8
f 4/4/4 9/9/9 6/6/6
f 9/9/9 4/4/4 7/7/7
f 10/10/10 7/7/7 8/8/8
f 10/10/10 8/8/8 11/11/11
f 6/6/6 9/9/9 12/12/12
f 13/13/13 6/6/6 12/12/12
f 13/13/13 12/12/12 14/14/14
f 15/15/15 9/9/9 7/7/7
f 15/15/15 7/7/7 10/10/10
f 16/16/16 10/10/10 11/11/11
f 16/16/16 11/11/11 17/17/17
f 12/12/12 18/18/18 14/14/14
f 14/14/14 18/18/18 19/19/19
f 18/18/18 20/20/20 19/19/19
f 12/12/12 9/9/9 21/21/21
f 18/18/18 12/12/12 21/21/21
f 9/9/9 15/15/15 21/21/21
f 20/20/20 18/18/18 22/22/22
f 22/22/22 18/18/18 21/21/21
f 23/23/23 20/20/20 22/22/22
f 24/24/24 15/15/15 10/10/10
f 24/24/24 10/10/10 16/16/16
f 21/21/21 15/15/15 25/25/25
f 22/22/22 21/21/21 25/25/25
f 15/15/15 24/24/24 25/25/25
f 23/23/23 22/22/22 26/26/26
f 26/26/26 22/22/22 25/25/25
f 27/27/27 23/23/23 26/26/26
f 25/25/25 24/24/24 28/28/28
f 26/26/26 25/25/25 28/28/28
f 27/27/27 26/26/26 29/29/29
f 29/29/29 26/26/26 28/28/28
f 30/30/30 27/27/27 29/29/29
f 31/31/31 24/24/24 16/16/16
f 24/24/24 31/31/31 28/28/28
f 29/29/29 28/28/28 32/32/32
f 28/28/28 31/31/31 32/32/32
f 30/30/30 29/29/29 33/33/33
f 33/33/33 29/29/29 32/32/32
f 34/34/34 30/30/30 33/33/33
f 31/31/31 16/16/16 35/35/35
f 35/35/35 16/16/16 17/17/17
f 35/35/35 17/17/17 36/36/36
f 31/31/31 37/37/37 32/32/32
f 37/37/37 31/31/31 35/35/35
f 38/38/38 35/35/35 36/36/36
f 37/37/37 35/35/35 38/38/38
f 36/36/36 39/39/39 38/38/38
f 33/33/33 40/40/40 34/34/34
f 40/40/40 41/41/41 34/34/34
f 32/32/32 42/42/42 33/33/33
f 42/42/42 32/32/32 37/37/37
f 42/42/42 40/40/40 33/33/33
f 39/39/39 43/43/43 38/38/38
f 39/39/39 44/44/44 43/43/43
f 45/45/45 37/37/37 38/38/38
f 45/45/45 42/42/42 37/37/37
f 38/38/38 43/43/43 45/45/45
f 40/40/40 46/46/46 41/41/41
f 46/46/46 47/47/47 41/41/41
f 42/42/42 48/48/48 40/40/40
f 48/48/48 42/42/42 45/45/45
f 48/48/48 46/46/46 40/40/40
f 44/44/44 49/49/49 43/43/43
f 44/44/44 50/50/50 49/49/49
f 43/43/43 51/51/51 45/45/45
f 51/51/51 48/48/48 45/45/45
f 43/43/43 49/49/49 51/51/51
f 46/46/46 52/52/52 47/47/47
f 52/52/52 53/53/53 47/47/47
f 48/48/48 54/54/54 46/46/46
f 54/54/54 48/48/48 51/51/51
f 54/54/54 52/52/52 46/46/46
f 50/50/50 55/55/55 49/49/49
f 55/55/55 50/50/50 56/56/56
f 49/49/49 57/57/57 51/51/51
f 57/57/57 54/54/54 51/51/51
f 49/49/49 55/55/55 57/57/57
f 52/52/52 58/58/58 53/53/53
f 58/58/58 59/59/59 53/53/53
f 54/54/54 60/60/60 52/52/52
f 60/60/60 54/54/54 57/57/57
f 60/60/60 58/58/58 52/52/52
f 61/61/61 55/55/55 56/56/56
f 61/61/61 56/56/56 62/62/62
f 55/55/55 63/63/63 57/57/57
f 63/63/63 60/60/60 57/57/57
f 63/63/63 55/55/55 61/61/61
f 59/59/59 58/58/58 64/64/64
f 65/65/65 59/59/59 64/64/64
f 58/58/58 60/60/60 66/66/66
f 66/66/66 60/60/60 63/63/63
f 64/64/64 58/58/58 66/66/66
f 67/67/67 61/61/61 62/62/62
f 62/62/62 68/68/68 67/67/67
f 69/69/69 63/63/63 61/61/61
f 69/69/69 66/66/66 63/63/63
f 69/69/69 61/61/61 67/67/67
f 65/65/65 64/64/64 70/70/70
f 71/71/71 65/65/65 70/70/70
f 68/68/68 72/72/72 67/67/67
f 68/68/68 73/73/73 72/72/72
f 74/74/74 69/69/69 67/67/67
f 66/66/66 69/69/69 74/74/74
f 67/67/67 72/72/72 74/74/74
f 64/64/64 66/66/66 75/75/75
f 70/70/70 64/64/64 75/75/75
f 75/75/75 66/66/66 74/74/74
f 70/70/70 76/76/76 71/71/71
f 76/76/76 77/77/77 71/71/71
f 75/75/75 78/78/78 70/70/70
f 78/78/78 75/75/75 74/74/74
f 78/78/78 76/76/76 70/70/70
f 73/73/73 79/79/79 72/72/72
f 73/73/73 80/80/80 79/79/79
f 72/72/72 81/81/81 74/74/74
f 81/81/81 78/78/78 74/74/74
f 72/72/72 79/79/79 81/81/81
f 76/76/76 82/82/82 77/77/77
f 82/82/82 83/83/83 77/77/77
f 78/78/78 84/84/84 76/76/76
f 84/84/84 78/78/78 81/81/81
f 84/84/84 82/82/82 76/76/76
f 80/80/80 85/85/85 79/79/79
f 80/80/80 86/86/86 85/85/85
f 79/79/79 87/87/87 81/81/81
f 87/87/87 84/84/84 81/81/81
f 79/79/79 85/85/85 87/87/87
f 82/82/82 88/88/88 83/83/83
f 88/88/88 89/89/89 83/83/83
f 84/84/84 90/90/90 82/82/82
f 90/90/90 84/84/84 87/87/87
f 90/90/90 88/88/88 82/82/82
f 86/86/86 91/91/91 85/85/85
f 86/86/86 92/92/92 91/91/91
f 85/85/85 93/93/93 87/87/87
f 93/93/93 90/90/90 87/87/87
f 85/85/85 91/91/91 93/93/93
f 88/88/88 94/94/94 89/89/89
f 94/94/94 95/95/95 89/89/89
f 90/90/90 96/96/96 88/88/88
f 96/96/96 90/90/90 93/93/93
f 96/96/96 94/94/94 88/88/88
f 92/92/92 97/97/97 91/91/91
f 92/92/92 98/98/98 97/97/97
f 91/91/91 99/99/99 93/93/93
f 99/99/99 96/96/96 93/93/93
f 91/91/91 97/97/97 99/99/99
f 94/94/94 100/100/100 95/95/95
f 100/100/100 101/101/101 95/95/95
f 96/96/96 102/102/102 94/94/94
f 102/102/102 96/96/96 99/99/99
f 102/102/102 100/100/100 94/94/94
f 98/98/98 103/103/103 97/97/97
f 98/98/98 104/104/104 103/103/103
f 97/97/97 105/105/105 99/99/99
f 105/105/105 102/102/102 99/99/99
f 97/97/97 103/103/103 105/105/105
f 100/100/100 106/106/106 101/101/101
f 106/106/106 107/107/107 101/101/101
f 102/102/102 108/108/108 100/100/100
f 108/108/108 102/102/102 105/105/105
f 108/108/108 106/106/106 100/100/100
f 104/104/104 109/109/109 103/103/103
f 104/104/104 110/110/110 109/109/109
f 103/103/103 111/111/111 105/105/105
f 111/111/111 108/108/108 105/105/105
f 103/103/103 109/109/109 111/111/111
f 106/106/106 112/112/112 107/107/107
f 112/112/112 113/113/113 107/107/107
f 108/108/108 114/114/114 106/106/106
f 114/114/114 108/108/108 111/111/111
f 114/114/114 112/112/112 106/106/106
f 110/110/110 115/115/115 109/109/109
f 110/110/110 116/116/116 115/115/115
f 109/109/109 117/117/117 111/111/111
f 117/117/117 114/114/114 111/111/111
f 109/109/109 115/115/115 117/117/117
f 112/112/112 118/118/118 113/113/113
f 118/118/118 119/119/119 113/113/113
f 114/114/114 120/120/120 112/112/112
f 120/120/120 114/114/114 117/117/117
f 120/120/120 118/118/118 112/112/112
f 116/116/116 121/121/121 115/115/115
f 121/121/121 116/116/116 122/122/122
f 115/115/115 123/123/123 117/117/117
f 123/123/123 120/120/120 117/117/117
f 115/115/115 121/121/121 123/123/123
f 118/118/118 124/124/124 119/119/119
f 124/124/124 125/125/125 119/119/119
f 120/120/120 126/126/126 118/118/118
f 126/126/126 120/120/120 123/123/123
f 126/126/126 124/124/124 118/118/118
f 127/127/127 121/121/121 122/122/122
f 122/122/122 128/128/128 127/127/127
f 128/128/128 129/129/129 127/127/127
f 121/121/121 130/130/130 123/123/123
f 130/130/130 126/126/126 123/123/123
f 130/130/130 121/121/121 127/127/127
f 127/127/127 129/129/129 131/131/131
f 131/131/131 130/130/130 127/127/127
f 129/129/129 132/132/132 131/131/131
f 133/133/133 126/126/126 130/130/130
f 131/131/131 133/133/133 130/130/130
f 131/131/131 132/132/132 133/133/133
f 124/124/124 126/126/126 133/133/133
f 132/132/132 134/134/134 133/133/133
f 125/125/125 124/124/124 135/135/135
f 135/135/135 124/124/124 133/133/133
f 133/133/133 134/134/134 135/135/135
f 136/136/136 125/125/125 135/135/135
f 134/134/134 137/137/137 135/135/135
f 135/135/135 137/137/137 136/136/136
f 137/137/137 138/138/138 136/136/136
