g 
v -3.3999963 0.020659827 -4.721711
v -3.4205463 0.091761954 -4.7958064
v -3.4205463 0.07027195 -4.719826
v -3.3999965 0.043861467 -4.803743
v -3.4205463 0.15808563 -4.8634577
v -3.3503842 0.000109829474 -4.7224927
v -3.3999965 0.11744853 -4.8788033
v -3.4205463 0.26167122 -4.917295
v -3.3503845 0.024020473 -4.8070307
v -3.3999965 0.23214637 -4.9384155
v -3.4205463 0.39219514 -4.951861
v 3.3503883 0.024020577 -4.807069
v 3.3503878 0.000109829474 -4.7225313
v 3.4 0.020659778 -4.7217507
v -3.3503845 0.10061615 -4.8851595
v -3.3999965 0.37667426 -4.97669
v -3.4205463 0.5369323 -4.9637704
v 3.4000006 0.043861795 -4.803782
v 3.4205503 0.07027182 -4.719866
v 3.4205503 0.09176257 -4.795846
v 3.3503876 0.10061626 -4.885198
v 3.3999999 0.117448896 -4.878843
v 3.4205499 0.15808633 -4.8634977
v -3.3503845 0.21991684 -4.947164
v 3.3503864 0.2199169 -4.947202
v 3.399999 0.23214664 -4.938454
v 3.4205492 0.26167175 -4.917334
v 3.3503878 0.3702454 -4.987013
v 3.4 0.37667453 -4.976729
v 3.4205499 0.39219567 -4.9518995
v -3.3503847 0.37024534 -4.9869747
v 3.3503866 0.53693235 -5.0007286
v 3.3999991 0.53693235 -4.9899154
v 3.4205499 0.53693235 -4.9638095
v -3.3999965 0.5369323 -4.9898767
v -3.4205463 0.68166924 -4.951861
v -3.3503847 0.5369323 -5.0006905
v -3.3999965 0.6971901 -4.97669
v -3.4205463 0.81219333 -4.9172945
v 3.4 0.69719 -4.976729
v 3.4205499 0.6816688 -4.9518995
v 3.3503876 0.70361906 -4.987013
v -3.3999965 0.84171814 -4.9384155
v -3.4205463 0.9157792 -4.8634577
v -3.3503845 0.703619 -4.9869747
v 3.399999 0.84171796 -4.938454
v 3.4205492 0.8121929 -4.917334
v 3.3503861 0.85394776 -4.947202
v -3.3999965 0.95641637 -4.8788033
v -3.4205463 0.9821023 -4.7958064
v -3.3503845 0.8539477 -4.947164
v 3.3999996 0.9564162 -4.878843
v 3.4205499 0.91577864 -4.8634977
v 3.3503873 0.9732488 -4.885198
v -3.3999963 1.030003 -4.803743
v -3.4205463 1.0035926 -4.719826
v -3.3503845 0.9732488 -4.8851595
v 3.4000006 1.0300028 -4.803782
v 3.4205503 0.98210186 -4.795846
v 3.3503883 1.0498441 -4.807069
v -3.3999963 1.0532048 -4.721711
v -3.4205513 1.0035944 4.7249727
v -3.3503842 1.049844 -4.8070307
v 3.4 1.0532049 -4.7217507
v 3.4205503 1.0035927 -4.719866
v 3.3503878 1.0737548 -4.7225313
v -3.4000013 1.0532067 4.7268577
v -3.4205503 0.9821037 4.8009524
v -3.3503842 1.0737548 -4.7224927
v 3.3999958 1.053207 4.7268176
v 3.4205458 1.003595 4.724932
v -3.4000008 1.0300046 4.808889
v -3.4205503 0.9157809 4.8686047
v -3.350389 1.0737567 4.7276382
v 3.3503838 1.0737572 4.7275987
v 3.3999963 1.0300056 4.8088484
v 3.4205468 0.9821052 4.800912
v 3.3503842 1.0498464 4.812136
v -3.3999999 0.9564182 4.8839493
v -3.4205496 0.8121948 4.9224405
v -3.3503885 1.049846 4.8121758
v 3.3999975 0.95641863 4.883909
v 3.4205468 0.9157812 4.8685637
v 3.3503854 0.97325116 4.890266
v -3.3999994 0.8417199 4.943561
v -3.4205503 0.6816707 4.9570065
v -3.3503873 0.97325075 4.890305
v 3.3999977 0.8417206 4.9435205
v 3.4205477 0.81219584 4.9224005
v 3.350386 0.85395014 4.95227
v -3.4000006 0.6971919 4.981836
v -3.4205503 0.5369343 4.9689164
v -3.3503869 0.85394967 4.952309
v 3.3999965 0.69719255 4.9817953
v 3.4205468 0.68167174 4.956967
v 3.3503845 0.70362145 4.99208
v -3.3999999 0.5369343 4.9950223
v -3.4205503 0.39219764 4.9570065
v -3.350388 0.70362103 4.99212
v 3.3999975 0.53693473 4.994982
v 3.4205468 0.53693473 4.968876
v 3.3503857 0.53693473 5.005796
v -3.4000006 0.3766765 4.981836
v -3.4205496 0.26167378 4.922441
v -3.350387 0.5369343 5.0058355
v 3.3999965 0.37667668 4.9817953
v 3.4205468 0.3921975 4.956967
v 3.3503847 0.3702478 4.99208
v -3.3999994 0.23214869 4.943561
v -3.4205503 0.1580879 4.8686047
v -3.3503883 0.37024736 4.99212
v 3.3999977 0.23214887 4.943521
v 3.4205477 0.2616736 4.9224005
v 3.3503861 0.21991938 4.95227
v -3.3999999 0.11745063 4.8839493
v -3.4205503 0.091764756 4.8009524
v -3.3503869 0.21991895 4.952309
v 3.3999975 0.11745109 4.883909
v 3.4205468 0.15808837 4.868564
v 3.3503854 0.100618556 4.890266
v -3.4000008 0.043863844 4.808889
v -3.4205513 0.070273966 4.7249727
v -3.3503873 0.10061815 4.890305
v 3.3999965 0.043863792 4.8088484
v 3.4205468 0.09176407 4.800912
v 3.3503845 0.024022948 4.812136
v -3.4000013 0.020661801 4.7268577
v -3.4205463 0.07027195 -4.719826
v -3.3999963 0.020659827 -4.721711
v -3.3503888 0.024022534 4.8121758
v -3.350389 0.0001117629 4.7276382
v -3.3503842 0.000109829474 -4.7224927
v 3.3503838 0.00011217641 4.7275987
v 3.3503878 0.000109829474 -4.7225313
v 3.3999958 0.020662181 4.7268176
v 3.4205458 0.07027429 4.724932
v 3.4 0.020659778 -4.7217507
v 3.4205503 0.07027182 -4.719866
vt 0.003434264 1.3620224
vt 0.002257959 1.3563914
vt 0.002250583 1.3620056
vt 0.003434264 1.3564097
vt 0.0022579888 1.3507417
vt 0.005304032 1.3620224
vt 0.003434264 1.3507417
vt 0.002257959 1.3450024
vt 0.0053040655 1.3564098
vt 0.0034342343 1.3450024
vt 0.0022579888 1.339283
vt 0.121292144 1.3564097
vt 0.1212922 1.3620224
vt 0.123162 1.3620224
vt 0.005304103 1.3507417
vt 0.003434264 1.339283
vt 0.0022556828 1.333307
vt 0.12316194 1.3564097
vt 0.12434457 1.3620055
vt 0.1243372 1.3563962
vt 0.121292144 1.3507417
vt 0.12316194 1.3507417
vt 0.1243372 1.3507417
vt 0.0053042294 1.3450024
vt 0.121292144 1.3450024
vt 0.123162 1.3450024
vt 0.124337256 1.3450024
vt 0.121292144 1.339283
vt 0.12316194 1.339283
vt 0.1243372 1.339283
vt 0.005303965 1.339283
vt 0.121292144 1.3333069
vt 0.12316194 1.3333069
vt 0.124339506 1.3333069
vt 0.0034342343 1.333307
vt 0.0022579888 1.3273252
vt 0.005304103 1.333307
vt 0.003434264 1.3273252
vt 0.002257959 1.3215938
vt 0.123162 1.3273252
vt 0.1243372 1.3273252
vt 0.1212922 1.3273252
vt 0.0034342343 1.3215938
vt 0.0022579888 1.3158238
vt 0.0052996846 1.3273252
vt 0.12316194 1.3215938
vt 0.1243372 1.3215938
vt 0.1212922 1.3215938
vt 0.003434264 1.3158238
vt 0.0022579292 1.3100703
vt 0.0052998224 1.3215938
vt 0.12316194 1.3158237
vt 0.1243372 1.3158237
vt 0.1212922 1.3158237
vt 0.0034342343 1.3100567
vt 0.0022505494 1.3041301
vt 0.0052998224 1.3158238
vt 0.123162 1.3100567
vt 0.1243372 1.3100754
vt 0.1212922 1.3100567
vt 0.0034342343 1.3041123
vt 0.002250583 0.6556315
vt 0.0053026835 1.3100562
vt 0.12316194 1.3041123
vt 0.12434457 1.3041302
vt 0.1212922 1.3041123
vt 0.003434305 0.65564924
vt 0.0022579888 0.6496861
vt 0.005304032 1.3041123
vt 0.12316194 0.65564924
vt 0.12434463 0.6556315
vt 0.003434305 0.64970493
vt 0.0022579888 0.6439378
vt 0.005302851 0.65564924
vt 0.12129226 0.65564924
vt 0.12316194 0.6497049
vt 0.1243372 0.64969116
vt 0.1212922 0.6497048
vt 0.003434305 0.64393777
vt 0.0022579888 0.6381651
vt 0.005299852 0.64970493
vt 0.12316194 0.64393777
vt 0.1243372 0.6439377
vt 0.1212922 0.64393777
vt 0.003434305 0.6381652
vt 0.0022579888 0.6324067
vt 0.005308048 0.64393777
vt 0.12316194 0.6381651
vt 0.1243372 0.6381651
vt 0.1212922 0.6381651
vt 0.003434305 0.6324067
vt 0.0022556828 0.6264534
vt 0.005299722 0.6381652
vt 0.12316194 0.6324067
vt 0.1243372 0.6324067
vt 0.1212922 0.6324067
vt 0.003434305 0.6264534
vt 0.0022579888 0.6205018
vt 0.0053069936 0.6324067
vt 0.12316194 0.62645334
vt 0.124339506 0.62645334
vt 0.1212922 0.62645334
vt 0.003434305 0.6205018
vt 0.0022579888 0.61474556
vt 0.0053069936 0.6264534
vt 0.12316194 0.6205018
vt 0.1243372 0.6205018
vt 0.12129226 0.6205018
vt 0.003434305 0.61474556
vt 0.0022579888 0.608976
vt 0.005304103 0.6205018
vt 0.12316194 0.61474556
vt 0.1243372 0.61474556
vt 0.121292144 0.61474556
vt 0.003434305 0.608976
vt 0.0022579888 0.60323054
vt 0.0053041326 0.61474556
vt 0.12316194 0.608976
vt 0.1243372 0.6089761
vt 0.12129226 0.608976
vt 0.003434305 0.6032169
vt 0.002250583 0.5973302
vt 0.005304103 0.608976
vt 0.12316194 0.6032169
vt 0.1243372 0.6032355
vt 0.12129201 0.6032169
vt 0.003434305 0.59734786
vt 0.0022497 0.002485603
vt 0.003434305 0.002485603
vt 0.0053041326 0.6032169
vt 0.005304103 0.59734786
vt 0.0053040655 0.002485603
vt 0.121292144 0.5973479
vt 0.1212922 0.0024857298
vt 0.12316194 0.59734786
vt 0.12434463 0.59733015
vt 0.123162 0.0024857298
vt 0.12434569 0.0024856874
vn -0.7847511 -0.59641457 -0.16868694
vn -0.9146122 -0.36280677 -0.17848207
vn -0.9200372 -0.3770402 -0.10664094
vn -0.67118776 -0.6461037 -0.3633968
vn -0.8767688 -0.30206218 -0.37421235
vn -0.0029188169 -0.96224695 -0.27216232
vn -0.58755606 -0.48717207 -0.64609706
vn -0.8333003 -0.2159493 -0.50889736
vn -0.0026248838 -0.8055835 -0.59247637
vn -0.5169268 -0.31635678 -0.79542756
vn -0.8001023 -0.11870929 -0.5880003
vn 0.00281416 -0.8932371 -0.44957694
vn 0.0029592467 -0.9622464 -0.27216357
vn 0.59088755 -0.7763002 -0.2195676
vn -0.0021162154 -0.5398395 -0.8417654
vn -0.4739944 -0.15871447 -0.86610574
vn -0.7856373 -0.018133203 -0.6184216
vn 0.6585433 -0.6251052 -0.41900375
vn 0.9200372 -0.37704003 -0.106641166
vn 0.90324116 -0.34527808 -0.25483036
vn 0.0022594526 -0.625154 -0.78049815
vn 0.57468265 -0.4597395 -0.6770373
vn 0.86083 -0.27319208 -0.4293456
vn -0.0017892813 -0.31956187 -0.9475637
vn 0.001868089 -0.3881691 -0.9215862
vn 0.50819665 -0.29043877 -0.8107906
vn 0.8195936 -0.18178311 -0.5433427
vn 0.0016534969 -0.19584444 -0.98063356
vn 0.4697504 -0.13493705 -0.8724257
vn 0.7925231 -0.08276856 -0.60419905
vn -0.0016248777 -0.13769662 -0.9904731
vn 0.0015751652 -0.027412632 -0.999623
vn 0.45869172 0.011476865 -0.8885213
vn 0.78562623 0.018130863 -0.61843574
vn -0.4587068 -0.011477231 -0.88851357
vn -0.7925261 0.082770176 -0.6041949
vn -0.0015865577 0.02741266 -0.999623
vn -0.4697602 0.13493647 -0.87242043
vn -0.81960034 0.18177837 -0.54333395
vn 0.4739835 0.15871625 -0.86611116
vn 0.80010355 0.11871344 -0.5879978
vn 0.001613569 0.13769668 -0.99047315
vn -0.50821215 0.2904359 -0.8107819
vn -0.86083794 0.27319053 -0.4293309
vn -0.0016646888 0.19584443 -0.9806336
vn 0.5169164 0.31635752 -0.795434
vn 0.8332897 0.2159508 -0.50891405
vn 0.0017784912 0.3195604 -0.9475642
vn -0.5746922 0.4597404 -0.6770285
vn -0.9032422 0.34528005 -0.25482398
vn -0.0018786228 0.38816833 -0.92158663
vn 0.58754444 0.48717302 -0.6461067
vn 0.87676376 0.30206358 -0.37422302
vn 0.002106548 0.53983974 -0.84176517
vn -0.6585487 0.62510335 -0.418998
vn -0.92390215 0.38262478 -0.0017813157
vn -0.0022684338 0.62515527 -0.7804972
vn 0.67118466 0.64610463 -0.36340043
vn 0.91461176 0.36280683 -0.17848408
vn 0.0026181145 0.8055842 -0.5924756
vn -0.7957338 0.60564333 -0.0019664287
vn -0.9238855 0.38266858 0.00043301602
vn -0.0028193188 0.8932374 -0.44957647
vn 0.60554725 0.795808 -0.0014457509
vn 0.92388445 0.38267136 -0.00043320027
vn 0.0015410674 0.9999956 -0.0025168732
vn -0.60554844 0.79580706 0.0014454278
vn -0.91461337 0.36280158 0.17848624
vn -0.006017407 0.9999788 -0.0024897887
vn 0.7957327 0.60564476 0.0019660727
vn 0.92390186 0.38262567 0.0017809623
vn -0.67118514 0.6461033 0.363402
vn -0.8767619 0.3020663 0.37422538
vn -0.0015411468 0.9999956 0.0025164234
vn 0.006017335 0.9999788 0.0024893377
vn 0.6585468 0.62510824 0.41899392
vn 0.90324175 0.34528473 0.25481895
vn 0.002819314 0.89323777 0.44957578
vn -0.5875432 0.48717368 0.6461074
vn -0.8332902 0.21595153 0.5089129
vn -0.0026180923 0.8055853 0.5924739
vn 0.5746996 0.4597381 0.67702377
vn 0.8608393 0.27319062 0.429328
vn 0.002268525 0.6251563 0.78049636
vn -0.5169212 0.3163581 0.79543066
vn -0.80010545 0.1187136 0.5879953
vn -0.0021065376 0.5398389 0.84176564
vn 0.5082128 0.29043347 0.81078243
vn 0.81958914 0.18178193 0.54334986
vn 0.0018788076 0.3881664 0.9215874
vn -0.4739844 0.1587164 0.86611074
vn -0.7856285 0.018131306 0.6184327
vn -0.001778357 0.3195595 0.9475646
vn 0.4697538 0.13493653 0.87242395
vn 0.79251844 0.08277072 0.6042049
vn 0.0016649037 0.19584346 0.98063374
vn -0.45869172 0.011476861 0.8885213
vn -0.7925244 -0.08276891 0.60419744
vn -0.0016133698 0.13769671 0.9904731
vn 0.45870617 -0.011477632 0.88851386
vn 0.78563404 -0.018134812 0.6184257
vn 0.0015868137 0.027412655 0.999623
vn -0.46974996 -0.13493732 0.872426
vn -0.8195935 -0.18178304 0.5433429
vn -0.0015749515 -0.02741263 0.999623
vn 0.47399074 -0.15871233 0.86610806
vn 0.80009204 -0.118707985 0.5880145
vn 0.0016251194 -0.1376957 0.9904732
vn -0.50819504 -0.2904405 0.810791
vn -0.8608257 -0.2731993 0.42934972
vn -0.0016532973 -0.1958436 0.98063374
vn 0.51692873 -0.3163534 0.7954278
vn 0.83329904 -0.2159491 0.50889957
vn 0.0017895 -0.31955996 0.94756436
vn -0.57468116 -0.45974135 0.67703724
vn -0.90324086 -0.3452772 0.2548328
vn -0.001867969 -0.38816804 0.92158675
vn 0.5875583 -0.48717445 0.646093
vn 0.8767708 -0.30206478 0.3742056
vn 0.0021164017 -0.5398401 0.8417649
vn -0.6585458 -0.6251003 0.4190072
vn -0.92390215 -0.3826247 0.001780503
vn -0.0022593434 -0.62515557 0.78049684
vn 0.6711862 -0.64610595 0.36339527
vn 0.9146102 -0.3628125 0.17848073
vn 0.002625052 -0.80558413 0.5924756
vn -0.7957327 -0.6056448 0.0019656387
vn -0.92387956 -0.38268328 -4.0885294E-07
vn -0.6037359 -0.7971844 -1.5128522E-07
vn -0.0028140228 -0.89323664 0.4495779
vn -0.0060173175 -0.9999788 0.0024897861
vn -0.0015277168 -0.99999875 2.2561903E-07
vn 0.0015411706 -0.9999956 0.0025168813
vn 0.0060435114 -0.9999817 2.5105547E-07
vn 0.6055474 -0.7958079 0.0014462202
vn 0.92388433 -0.3826715 0.0004339957
vn 0.79715174 -0.603779 5.250368E-07
vn 0.9238777 -0.38268775 5.4334E-07
g _0
f 3/3/3 2/2/2 1/1/1
f 2/2/2 4/4/4 1/1/1
f 4/4/4 2/2/2 5/5/5
f 1/1/1 4/4/4 6/6/6
f 7/7/7 4/4/4 5/5/5
f 7/7/7 5/5/5 8/8/8
f 4/4/4 9/9/9 6/6/6
f 9/9/9 4/4/4 7/7/7
f 10/10/10 7/7/7 8/8/8
f 10/10/10 8/8/8 11/11/11
f 6/6/6 9/9/9 12/12/12
f 13/13/13 6/6/6 12/12/12
f 13/13/13 12/12/12 14/14/14
f 15/15/15 9/9/9 7/7/7
f 15/15/15 7/7/7 10/10/10
f 16/16/16 10/10/10 11/11/11
f 16/16/16 11/11/11 17/17/17
f 12/12/12 18/18/18 14/14/14
f 14/14/14 18/18/18 19/19/19
f 18/18/18 20/20/20 19/19/19
f 12/12/12 9/9/9 21/21/21
f 18/18/18 12/12/12 21/21/21
f 9/9/9 15/15/15 21/21/21
f 20/20/20 18/18/18 22/22/22
f 22/22/22 18/18/18 21/21/21
f 23/23/23 20/20/20 22/22/22
f 24/24/24 15/15/15 10/10/10
f 24/24/24 10/10/10 16/16/16
f 21/21/21 15/15/15 25/25/25
f 22/22/22 21/21/21 25/25/25
f 15/15/15 24/24/24 25/25/25
f 23/23/23 22/22/22 26/26/26
f 26/26/26 22/22/22 25/25/25
f 27/27/27 23/23/23 26/26/26
f 25/25/25 24/24/24 28/28/28
f 26/26/26 25/25/25 28/28/28
f 27/27/27 26/26/26 29/29/29
f 29/29/29 26/26/26 28/28/28
f 30/30/30 27/27/27 29/29/29
f 31/31/31 24/24/24 16/16/16
f 24/24/24 31/31/31 28/28/28
f 29/29/29 28/28/28 32/32/32
f 28/28/28 31/31/31 32/32/32
f 30/30/30 29/29/29 33/33/33
f 33/33/33 29/29/29 32/32/32
f 34/34/34 30/30/30 33/33/33
f 31/31/31 16/16/16 35/35/35
f 35/35/35 16/16/16 17/17/17
f 35/35/35 17/17/17 36/36/36
f 31/31/31 37/37/37 32/32/32
f 37/37/37 31/31/31 35/35/35
f 38/38/38 35/35/35 36/36/36
f 37/37/37 35/35/35 38/38/38
f 36/36/36 39/39/39 38/38/38
f 33/33/33 40/40/40 34/34/34
f 40/40/40 41/41/41 34/34/34
f 32/32/32 42/42/42 33/33/33
f 42/42/42 32/32/32 37/37/37
f 42/42/42 40/40/40 33/33/33
f 39/39/39 43/43/43 38/38/38
f 39/39/39 44/44/44 43/43/43
f 45/45/45 37/37/37 38/38/38
f 45/45/45 42/42/42 37/37/37
f 38/38/38 43/43/43 45/45/45
f 40/40/40 46/46/46 41/41/41
f 46/46/46 47/47/47 41/41/41
f 42/42/42 48/48/48 40/40/40
f 48/48/48 42/42/42 45/45/45
f 48/48/48 46/46/46 40/40/40
f 44/44/44 49/49/49 43/43/43
f 44/44/44 50/50/50 49/49/49
f 43/43/43 51/51/51 45/45/45
f 51/51/51 48/48/48 45/45/45
f 43/43/43 49/49/49 51/51/51
f 46/46/46 52/52/52 47/47/47
f 52/52/52 53/53/53 47/47/47
f 48/48/48 54/54/54 46/46/46
f 54/54/54 48/48/48 51/51/51
f 54/54/54 52/52/52 46/46/46
f 50/50/50 55/55/55 49/49/49
f 55/55/55 50/50/50 56/56/56
f 49/49/49 57/57/57 51/51/51
f 57/57/57 54/54/54 51/51/51
f 49/49/49 55/55/55 57/57/57
f 52/52/52 58/58/58 53/53/53
f 58/58/58 59/59/59 53/53/53
f 54/54/54 60/60/60 52/52/52
f 60/60/60 54/54/54 57/57/57
f 60/60/60 58/58/58 52/52/52
f 61/61/61 55/55/55 56/56/56
f 61/61/61 56/56/56 62/62/62
f 55/55/55 63/63/63 57/57/57
f 63/63/63 60/60/60 57/57/57
f 63/63/63 55/55/55 61/61/61
f 59/59/59 58/58/58 64/64/64
f 65/65/65 59/59/59 64/64/64
f 58/58/58 60/60/60 66/66/66
f 66/66/66 60/60/60 63/63/63
f 64/64/64 58/58/58 66/66/66
f 67/67/67 61/61/61 62/62/62
f 62/62/62 68/68/68 67/67/67
f 69/69/69 63/63/63 61/61/61
f 69/69/69 66/66/66 63/63/63
f 69/69/69 61/61/61 67/67/67
f 65/65/65 64/64/64 70/70/70
f 71/71/71 65/65/65 70/70/70
f 68/68/68 72/72/72 67/67/67
f 68/68/68 73/73/73 72/72/72
f 74/74/74 69/69/69 67/67/67
f 66/66/66 69/69/69 74/74/74
f 67/67/67 72/72/72 74/74/74
f 64/64/64 66/66/66 75/75/75
f 70/70/70 64/64/64 75/75/75
f 75/75/75 66/66/66 74/74/74
f 70/70/70 76/76/76 71/71/71
f 76/76/76 77/77/77 71/71/71
f 75/75/75 78/78/78 70/70/70
f 78/78/78 75/75/75 74/74/74
f 78/78/78 76/76/76 70/70/70
f 73/73/73 79/79/79 72/72/72
f 73/73/73 80/80/80 79/79/79
f 72/72/72 81/81/81 74/74/74
f 81/81/81 78/78/78 74/74/74
f 72/72/72 79/79/79 81/81/81
f 76/76/76 82/82/82 77/77/77
f 82/82/82 83/83/83 77/77/77
f 78/78/78 84/84/84 76/76/76
f 84/84/84 78/78/78 81/81/81
f 84/84/84 82/82/82 76/76/76
f 80/80/80 85/85/85 79/79/79
f 80/80/80 86/86/86 85/85/85
f 79/79/79 87/87/87 81/81/81
f 87/87/87 84/84/84 81/81/81
f 79/79/79 85/85/85 87/87/87
f 82/82/82 88/88/88 83/83/83
f 88/88/88 89/89/89 83/83/83
f 84/84/84 90/90/90 82/82/82
f 90/90/90 84/84/84 87/87/87
f 90/90/90 88/88/88 82/82/82
f 86/86/86 91/91/91 85/85/85
f 86/86/86 92/92/92 91/91/91
f 85/85/85 93/93/93 87/87/87
f 93/93/93 90/90/90 87/87/87
f 85/85/85 91/91/91 93/93/93
f 88/88/88 94/94/94 89/89/89
f 94/94/94 95/95/95 89/89/89
f 90/90/90 96/96/96 88/88/88
f 96/96/96 90/90/90 93/93/93
f 96/96/96 94/94/94 88/88/88
f 92/92/92 97/97/97 91/91/91
f 92/92/92 98/98/98 97/97/97
f 91/91/91 99/99/99 93/93/93
f 99/99/99 96/96/96 93/93/93
f 91/91/91 97/97/97 99/99/99
f 94/94/94 100/100/100 95/95/95
f 100/100/100 101/101/101 95/95/95
f 96/96/96 102/102/102 94/94/94
f 102/102/102 96/96/96 99/99/99
f 102/102/102 100/100/100 94/94/94
f 98/98/98 103/103/103 97/97/97
f 98/98/98 104/104/104 103/103/103
f 97/97/97 105/105/105 99/99/99
f 105/105/105 102/102/102 99/99/99
f 97/97/97 103/103/103 105/105/105
f 100/100/100 106/106/106 101/101/101
f 106/106/106 107/107/107 101/101/101
f 102/102/102 108/108/108 100/100/100
f 108/108/108 102/102/102 105/105/105
f 108/108/108 106/106/106 100/100/100
f 104/104/104 109/109/109 103/103/103
f 104/104/104 110/110/110 109/109/109
f 103/103/103 111/111/111 105/105/105
f 111/111/111 108/108/108 105/105/105
f 103/103/103 109/109/109 111/111/111
f 106/106/106 112/112/112 107/107/107
f 112/112/112 113/113/113 107/107/107
f 108/108/108 114/114/114 106/106/106
f 114/114/114 108/108/108 111/111/111
f 114/114/114 112/112/112 106/106/106
f 110/110/110 115/115/115 109/109/109
f 110/110/110 116/116/116 115/115/115
f 109/109/109 117/117/117 111/111/111
f 117/117/117 114/114/114 111/111/111
f 109/109/109 115/115/115 117/117/117
f 112/112/112 118/118/118 113/113/113
f 118/118/118 119/119/119 113/113/113
f 114/114/114 120/120/120 112/112/112
f 120/120/120 114/114/114 117/117/117
f 120/120/120 118/118/118 112/112/112
f 116/116/116 121/121/121 115/115/115
f 121/121/121 116/116/116 122/122/122
f 115/115/115 123/123/123 117/117/117
f 123/123/123 120/120/120 117/117/117
f 115/115/115 121/121/121 123/123/123
f 118/118/118 124/124/124 119/119/119
f 124/124/124 125/125/125 119/119/119
f 120/120/120 126/126/126 118/118/118
f 126/126/126 120/120/120 123/123/123
f 126/126/126 124/124/124 118/118/118
f 127/127/127 121/121/121 122/122/122
f 122/122/122 128/128/128 127/127/127
f 128/128/128 129/129/129 127/127/127
f 121/121/121 130/130/130 123/123/123
f 130/130/130 126/126/126 123/123/123
f 130/130/130 121/121/121 127/127/127
f 127/127/127 129/129/129 131/131/131
f 131/131/131 130/130/130 127/127/127
f 129/129/129 132/132/132 131/131/131
f 133/133/133 126/126/126 130/130/130
f 131/131/131 133/133/133 130/130/130
f 131/131/131 132/132/132 133/133/133
f 124/124/124 126/126/126 133/133/133
f 132/132/132 134/134/134 133/133/133
f 125/125/125 124/124/124 135/135/135
f 135/135/135 124/124/124 133/133/133
f 133/133/133 134/134/134 135/135/135
f 136/136/136 125/125/125 135/135/135
f 134/134/134 137/137/137 135/135/135
f 135/135/135 137/137/137 136/136/136
f 137/137/137 138/138/138 136/136/136
