g 
v -3.639996 0.020659827 -4.8323865
v -3.660546 0.091761954 -4.880976
v -3.660546 0.07027195 -4.833703
v -3.6399963 0.043861467 -4.8834243
v -3.660546 0.15808563 -4.923067
v -3.590384 0.000109829474 -4.826863
v -3.6399963 0.11744853 -4.9301248
v -3.660546 0.26167122 -4.956563
v -3.5903842 0.024020473 -4.8794603
v -3.6399963 0.23214637 -4.967214
v -3.660546 0.39219514 -4.978069
v 3.5903885 0.024020577 -4.2893367
v 3.5903876 0.000109829474 -4.23674
v 3.6399999 0.020659778 -4.2303147
v -3.5903842 0.10061615 -4.92807
v -3.6399963 0.37667426 -4.9910274
v -3.660546 0.5369323 -4.985479
v 3.6400008 0.043861795 -4.2813525
v 3.66055 0.07027182 -4.226682
v 3.6605506 0.09176257 -4.273955
v 3.5903878 0.10061626 -4.3379474
v 3.64 0.117448896 -4.3280535
v 3.66055 0.15808633 -4.316046
v -3.5903842 0.21991684 -4.9666476
v 3.5903862 0.2199169 -4.3765244
v 3.6399992 0.23214664 -4.3651423
v 3.6605494 0.26167175 -4.3495417
v 3.590388 0.3702454 -4.4012938
v 3.6399999 0.37667453 -4.3889556
v 3.6605496 0.39219567 -4.3710475
v -3.5903845 0.37024534 -4.991417
v 3.5903869 0.53693235 -4.409827
v 3.6399994 0.53693235 -4.39716
v 3.66055 0.53693235 -4.3784575
v -3.6399963 0.5369323 -4.9992323
v -3.660546 0.68166924 -4.978069
v -3.5903845 0.5369323 -4.9999504
v -3.6399963 0.6971901 -4.9910274
v -3.660546 0.81219333 -4.956563
v 3.6399999 0.69719 -4.3889556
v 3.6605496 0.6816688 -4.3710475
v 3.5903878 0.70361906 -4.4012938
v -3.6399963 0.84171814 -4.967214
v -3.660546 0.9157792 -4.923067
v -3.5903842 0.703619 -4.991417
v 3.6399992 0.84171796 -4.3651423
v 3.6605494 0.8121929 -4.3495417
v 3.590386 0.85394776 -4.3765244
v -3.6399963 0.95641637 -4.9301248
v -3.660546 0.9821023 -4.880976
v -3.5903842 0.8539477 -4.9666476
v 3.6399999 0.9564162 -4.3280535
v 3.66055 0.91577864 -4.316046
v 3.5903876 0.9732488 -4.3379474
v -3.639996 1.030003 -4.8834243
v -3.660546 1.0035926 -4.833703
v -3.5903842 0.9732488 -4.92807
v 3.6400008 1.0300028 -4.2813525
v 3.6605506 0.98210186 -4.273955
v 3.5903885 1.0498441 -4.2893367
v -3.639996 1.0532048 -4.8323865
v -3.660551 1.0035944 4.829343
v -3.590384 1.049844 -4.8794603
v 3.6399999 1.0532049 -4.2303147
v 3.66055 1.0035927 -4.226682
v 3.5903876 1.0737548 -4.23674
v -3.640001 1.0532067 4.8280497
v -3.6605506 0.9821037 4.876615
v -3.590384 1.0737548 -4.826863
v 3.6399956 1.053207 4.231622
v 3.6605456 1.003595 4.228012
v -3.640001 1.0300046 4.8790874
v -3.66055 0.9157809 4.9187064
v -3.5903893 1.0737567 4.822583
v 3.5903835 1.0737572 4.2379913
v 3.639996 1.0300056 4.2826595
v 3.6605465 0.9821052 4.275285
v 3.590384 1.0498464 4.290588
v -3.64 0.9564182 4.925788
v -3.6605499 0.8121948 4.952202
v -3.5903888 1.049846 4.87518
v 3.6399972 0.95641863 4.32936
v 3.6605465 0.9157812 4.317376
v 3.5903852 0.97325116 4.339198
v -3.6399992 0.8417199 4.962877
v -3.6605506 0.6816707 4.9737077
v -3.590387 0.97325075 4.9237905
v 3.6399975 0.8417206 4.366449
v 3.6605475 0.81219584 4.3508716
v 3.5903857 0.85395014 4.3777757
v -3.6400003 0.6971919 4.9866905
v -3.6605506 0.5369343 4.9811177
v -3.590387 0.85394967 4.9623675
v 3.6399963 0.69719255 4.390263
v 3.6605465 0.68167174 4.372378
v 3.5903842 0.70362145 4.4025445
v -3.64 0.5369343 4.9948945
v -3.6605506 0.39219764 4.9737077
v -3.5903878 0.70362103 4.987137
v 3.6399972 0.53693473 4.3984666
v 3.6605465 0.53693473 4.3797874
v 3.5903854 0.53693473 4.4110785
v -3.6400003 0.3766765 4.9866905
v -3.6605499 0.26167378 4.952202
v -3.5903873 0.5369343 4.9956703
v 3.6399963 0.37667668 4.390263
v 3.6605465 0.3921975 4.372378
v 3.5903845 0.3702478 4.4025445
v -3.6399992 0.23214869 4.962877
v -3.66055 0.1580879 4.9187064
v -3.590388 0.37024736 4.987137
v 3.6399975 0.23214887 4.366449
v 3.6605475 0.2616736 4.350872
v 3.590386 0.21991938 4.3777757
v -3.64 0.11745063 4.925788
v -3.6605506 0.091764756 4.876615
v -3.590387 0.21991895 4.9623675
v 3.6399972 0.11745109 4.32936
v 3.6605465 0.15808837 4.317376
v 3.5903852 0.100618556 4.339198
v -3.640001 0.043863844 4.8790874
v -3.660551 0.070273966 4.829343
v -3.590387 0.10061815 4.9237905
v 3.6399963 0.043863792 4.2826595
v 3.6605465 0.09176407 4.275285
v 3.5903842 0.024022948 4.290588
v -3.640001 0.020661801 4.8280497
v -3.660546 0.07027195 -4.833703
v -3.639996 0.020659827 -4.8323865
v -3.590389 0.024022534 4.87518
v -3.5903893 0.0001117629 4.822583
v -3.590384 0.000109829474 -4.826863
v 3.5903835 0.00011217641 4.2379913
v 3.5903876 0.000109829474 -4.23674
v 3.6399956 0.020662181 4.231622
v 3.6605456 0.07027429 4.228012
v 3.6399999 0.020659778 -4.2303147
v 3.66055 0.07027182 -4.226682
vt 0.003434264 2.0127425
vt 0.002257959 2.0074809
vt 0.002250583 2.0127268
vt 0.003434264 2.007498
vt 0.0022579888 2.0022016
vt 0.005304032 2.0127425
vt 0.003434264 2.0022016
vt 0.002257959 1.9968385
vt 0.0053040655 2.007498
vt 0.0034342343 1.9968385
vt 0.0022579888 1.9914942
vt 0.121292144 1.9472934
vt 0.1212922 1.952538
vt 0.123162 1.952538
vt 0.005304103 2.0022016
vt 0.003434264 1.991494
vt 0.0022556828 1.9859099
vt 0.12316194 1.9472934
vt 0.12434457 1.9525223
vt 0.1243372 1.9472808
vt 0.121292144 1.9419969
vt 0.12316194 1.9419969
vt 0.1243372 1.9419972
vt 0.0053042294 1.9968385
vt 0.121292144 1.936634
vt 0.123162 1.936634
vt 0.124337256 1.936634
vt 0.121292144 1.9312896
vt 0.12316194 1.9312896
vt 0.1243372 1.9312896
vt 0.005303965 1.991494
vt 0.121292144 1.9257054
vt 0.12316194 1.9257054
vt 0.124339506 1.9257054
vt 0.0034342343 1.9859099
vt 0.0022579888 1.9803203
vt 0.005304103 1.9859099
vt 0.003434264 1.9803203
vt 0.002257959 1.9749646
vt 0.123162 1.9201158
vt 0.1243372 1.9201158
vt 0.1212922 1.9201158
vt 0.0034342343 1.9749646
vt 0.0022579888 1.9695729
vt 0.0052996846 1.9803203
vt 0.12316194 1.91476
vt 0.1243372 1.91476
vt 0.1212922 1.91476
vt 0.003434264 1.9695729
vt 0.0022579292 1.9641968
vt 0.0052998224 1.9749646
vt 0.12316194 1.9093684
vt 0.1243372 1.9093684
vt 0.1212922 1.9093684
vt 0.0034342343 1.9641839
vt 0.0022505494 1.9586459
vt 0.0052998224 1.9695729
vt 0.123162 1.9039794
vt 0.1243372 1.9039968
vt 0.1212922 1.9039794
vt 0.0034342343 1.9586294
vt 0.002250583 0.9516013
vt 0.0053026835 1.9641837
vt 0.12316194 1.8984247
vt 0.12434457 1.8984414
vt 0.1212922 1.8984249
vt 0.003434305 0.95161796
vt 0.0022579888 0.94604576
vt 0.005304032 1.9586294
vt 0.12316194 1.0118226
vt 0.12434463 1.0118059
vt 0.003434305 0.9460633
vt 0.0022579888 0.9406743
vt 0.005302851 0.95161796
vt 0.12129226 1.0118226
vt 0.12316194 1.0062678
vt 0.1243372 1.006255
vt 0.1212922 1.0062678
vt 0.003434305 0.9406743
vt 0.0022579888 0.9352801
vt 0.005299852 0.9460633
vt 0.12316194 1.0008789
vt 0.1243372 1.0008788
vt 0.1212922 1.0008789
vt 0.003434305 0.93528014
vt 0.0022579888 0.9298993
vt 0.005308048 0.9406743
vt 0.12316194 0.99548465
vt 0.1243372 0.99548465
vt 0.1212922 0.99548465
vt 0.003434305 0.9298992
vt 0.0022556828 0.9243362
vt 0.005299722 0.93528014
vt 0.12316194 0.9901038
vt 0.1243372 0.9901038
vt 0.1212922 0.9901038
vt 0.003434305 0.9243362
vt 0.0022579888 0.91877484
vt 0.0053069936 0.9298992
vt 0.12316194 0.9845408
vt 0.124339506 0.9845408
vt 0.1212922 0.9845408
vt 0.003434305 0.9187749
vt 0.0022579888 0.91339606
vt 0.0053069936 0.9243362
vt 0.12316194 0.9789795
vt 0.1243372 0.9789794
vt 0.12129226 0.9789795
vt 0.003434305 0.91339606
vt 0.0022579888 0.90800476
vt 0.005304103 0.9187749
vt 0.12316194 0.9736006
vt 0.1243372 0.9736006
vt 0.121292144 0.9736006
vt 0.003434305 0.90800476
vt 0.0022579888 0.90263593
vt 0.0053041326 0.91339606
vt 0.12316194 0.9682093
vt 0.1243372 0.96820945
vt 0.12129226 0.96820927
vt 0.003434305 0.9026232
vt 0.002250583 0.89712244
vt 0.005304103 0.90800476
vt 0.12316194 0.9628278
vt 0.1243372 0.96284515
vt 0.12129201 0.9628278
vt 0.003434305 0.897139
vt 0.0022497 0.0037330945
vt 0.003434305 0.0037330945
vt 0.0053041326 0.9026232
vt 0.005304103 0.897139
vt 0.0053040655 0.0037330945
vt 0.121292144 0.95734364
vt 0.1212922 0.003733285
vt 0.12316194 0.9573435
vt 0.12434463 0.95732707
vt 0.123162 0.003733285
vt 0.12434569 0.0037332217
vn -0.75395197 -0.59803593 -0.2718628
vn -0.8851526 -0.3649904 -0.2885949
vn -0.908297 -0.380823 -0.17311917
vn -0.5675787 -0.6107524 -0.5521194
vn -0.7667469 -0.28810424 -0.57366824
vn 0.031526808 -0.9098949 -0.41363913
vn -0.37344018 -0.3939918 -0.8398291
vn -0.65545934 -0.19278774 -0.73020947
vn 0.06086702 -0.6446611 -0.76204157
vn -0.265074 -0.23161305 -0.9359974
vn -0.5842006 -0.10115033 -0.80528146
vn 0.0540569 -0.77632517 -0.6280105
vn 0.036707476 -0.9097323 -0.41356966
vn 0.59612083 -0.730916 -0.33226737
vn 0.07500863 -0.36955342 -0.9261771
vn -0.21295446 -0.11068262 -0.9707728
vn -0.55613256 -0.015159992 -0.8309552
vn 0.6268043 -0.5300839 -0.5710757
vn 0.91519874 -0.36687654 -0.16677186
vn 0.87155825 -0.31601307 -0.37486264
vn 0.07507712 -0.44476798 -0.8924937
vn 0.5124459 -0.33419338 -0.7910208
vn 0.7859504 -0.22758807 -0.57487875
vn 0.07936613 -0.20470643 -0.9756005
vn 0.080621734 -0.25267252 -0.9641871
vn 0.4454099 -0.19476576 -0.8738858
vn 0.7195008 -0.1415277 -0.679918
vn 0.08249934 -0.122887865 -0.98898554
vn 0.41235882 -0.087264605 -0.90683246
vn 0.6819636 -0.062112655 -0.72874385
vn 0.08092568 -0.085890345 -0.99301255
vn 0.083053835 -0.01700039 -0.99640006
vn 0.4034244 0.007352666 -0.91498345
vn 0.67301327 0.013489775 -0.7395074
vn -0.19617635 -0.007880096 -0.980537
vn -0.5692953 0.06982017 -0.819163
vn 0.081244916 0.017002845 -0.99654907
vn -0.20822753 0.09368917 -0.9735828
vn -0.6248003 0.1591129 -0.7644002
vn 0.41583446 0.10302262 -0.9035862
vn 0.6920742 0.08996335 -0.7161982
vn 0.08278941 0.08587749 -0.99286
vn -0.25381866 0.21041265 -0.9440882
vn -0.72323483 0.25421238 -0.64211166
vn 0.08057765 0.12290734 -0.98914164
vn 0.45340177 0.21409407 -0.8652113
vn 0.740165 0.17164579 -0.6501489
vn 0.08147662 0.20466983 -0.9754341
vn -0.35104483 0.36441398 -0.86253685
vn -0.8470243 0.34261298 -0.40640622
vn 0.07836818 0.25271726 -0.96436113
vn 0.5273081 0.36086947 -0.76923287
vn 0.8156089 0.25967017 -0.51706225
vn 0.07768262 0.3694795 -0.92598605
vn -0.53178245 0.57614386 -0.6206977
vn -0.92386174 0.3827222 -0.0017528294
vn 0.07209396 0.44486815 -0.8926896
vn 0.6480426 0.5649705 -0.5107338
vn 0.89891315 0.34367606 -0.27173874
vn 0.06476099 0.6445022 -0.761855
vn -0.796238 0.6049804 -0.0019295764
vn -0.92387575 0.3826921 0.00042404621
vn 0.049503688 0.77650785 -0.62816
vn 0.60502315 0.7962062 -0.0016173593
vn 0.9238911 0.38265508 -0.00048436594
vn 0.0015594903 0.9999954 -0.0026328352
vn -0.60483015 0.7963532 0.0014189797
vn -0.8852264 0.36487588 0.28851286
vn -0.005431907 0.9999823 -0.0024479402
vn 0.79623395 0.60498476 0.0022008535
vn 0.9239289 0.382559 0.0019992115
vn -0.56801176 0.6105272 0.5519231
vn -0.7670202 0.28795406 0.573378
vn -0.0013107755 0.9999957 0.0026311977
vn 0.0058516786 0.9999791 0.0027847176
vn 0.62641436 0.5303022 0.5713008
vn 0.8714584 0.31613803 0.37498927
vn 0.053573076 0.7763439 0.6280288
vn -0.37426627 0.39384758 0.8395289
vn -0.65592706 0.19268039 0.72981775
vn 0.060280092 0.6446855 0.76206756
vn 0.51179636 0.33435026 0.79137504
vn 0.78571206 0.22770673 0.5751575
vn 0.07439116 0.44479525 0.8925375
vn -0.26607814 0.23154593 0.9357291
vn -0.5848152 0.10109895 0.80484164
vn 0.0742967 0.36957613 0.92622536
vn 0.44462407 0.19485022 0.874267
vn 0.71912926 0.14160559 0.68029475
vn 0.079881564 0.2526859 0.96424514
vn -0.21402006 0.1106555 0.97054154
vn -0.55678153 0.015149956 0.83052087
vn 0.078616835 0.20471562 0.97565913
vn 0.41150638 0.0873024 0.9072159
vn 0.68152833 0.062145863 0.7291481
vn 0.08174026 0.12289546 0.98904765
vn -0.19726092 0.00787826 0.9803194
vn -0.56993103 -0.06978157 0.81872416
vn 0.080163196 0.0858971 0.9930739
vn 0.40256763 -0.0073574544 0.9153607
vn 0.6725698 -0.0134983985 0.73991054
vn 0.082289174 0.017001618 0.9964635
vn -0.2093028 -0.093667015 0.97335446
vn -0.6253326 -0.15902908 0.76398236
vn 0.08047969 -0.017005257 0.9966111
vn 0.41499236 -0.10306331 0.90396863
vn 0.6916452 -0.09000923 0.71660674
vn 0.082027406 -0.085883036 0.9929227
vn -0.2548345 -0.2103547 0.94382757
vn -0.7235788 -0.25407466 0.6417785
vn 0.079818144 -0.122913584 0.9892024
vn 0.45263323 -0.21419016 0.86558986
vn 0.73983544 -0.17174205 0.65049845
vn 0.08072786 -0.20468247 0.97549367
vn -0.35191554 -0.3642826 0.86223763
vn -0.8471575 -0.3424675 0.40625155
vn 0.07762736 -0.25273257 0.964417
vn 0.52668583 -0.3610391 0.7695796
vn 0.8154241 -0.25979784 0.5172896
vn 0.0769715 -0.36949983 0.92603743
vn -0.53229 -0.57592165 0.6204689
vn -0.92386216 -0.38272148 0.0017519379
vn 0.07140764 -0.4448906 0.8927337
vn 0.6477075 -0.5651839 0.5109228
vn 0.8988524 -0.34377536 0.27181393
vn 0.06417473 -0.6445271 0.76188344
vn -0.79623926 -0.60497886 0.0019287714
vn -0.9238796 -0.38268328 -3.997524E-07
vn -0.6038313 -0.7971121 -1.548684E-07
vn 0.04901951 -0.77652556 0.6281761
vn -0.0054337443 -0.9999823 0.002447939
vn -0.0015180339 -0.9999988 2.3521176E-07
vn 0.0015575255 -0.9999954 0.0026328438
vn 0.005641286 -0.9999841 2.7975463E-07
vn 0.60502225 -0.79620695 0.0016179301
vn 0.923891 -0.38265544 0.0004852815
vn 0.7971268 -0.60381186 5.8634686E-07
vn 0.9238777 -0.38268775 6.0696885E-07
g _0
f 3/3/3 2/2/2 1/1/1
f 2/2/2 4/4/4 1/1/1
f 4/4/4 2/2/2 5/5/5
f 1/1/1 4/4/4 6/6/6
f 7/7/7 4/4/4 5/5/5
f 7/7/7 5/5/5 8/8/8
f 4/4/4 9/9/9 6/6/6
f 9/9/9 4/4/4 7/7/7
f 10/10/10 7/7/7 8/8/8
f 10/10/10 8/8/8 11/11/11
f 6/6/6 9/9/9 12/12/12
f 13/13/13 6/6/6 12/12/12
f 13/13/13 12/12/12 14/14/14
f 15/15/15 9/9/9 7/7/7
f 15/15/15 7/7/7 10/10/10
f 16/16/16 10/10/10 11/11/11
f 16/16/16 11/11/11 17/17/17
f 12/12/12 18/18/18 14/14/14
f 14/14/14 18/18/18 19/19/19
f 18/18/18 20/20/20 19/19/19
f 12/12/12 9/9/9 21/21/21
f 18/18/18 12/12/12 21/21/21
f 9/9/9 15/15/15 21/21/21
f 20/20/20 18/18/18 22/22/22
f 22/22/22 18/18/18 21/21/21
f 23/23/23 20/20/20 22/22/22
f 24/24/24 15/15/15 10/10/10
f 24/24/24 10/10/10 16/16/16
f 21/21/21 15/15/15 25/25/25
f 22/22/22 21/21/21 25/25/25
f 15/15/15 24/24/24 25/25/25
f 23/23/23 22/22/22 26/26/26
f 26/26/26 22/22/22 25/25/25
f 27/27/27 23/23/23 26/26/26
f 25/25/25 24/24/24 28/28/28
f 26/26/26 25/25/25 28/28/28
f 27/27/27 26/26/26 29/29/29
f 29/29/29 26/26/26 28/28/28
f 30/30/30 27/27/27 29/29/29
f 31/31/31 24/24/24 16/16/16
f 24/24/24 31/31/31 28/28/28
f 29/29/29 28/28/28 32/32/32
f 28/28/28 31/31/31 32/32/32
f 30/30/30 29/29/29 33/33/33
f 33/33/33 29/29/29 32/32/32
f 34/34/34 30/30/30 33/33/33
f 31/31/31 16/16/16 35/35/35
f 35/35/35 16/16/16 17/17/17
f 35/35/35 17/17/17 36/36/36
f 31/31/31 37/37/37 32/32/32
f 37/37/37 31/31/31 35/35/35
f 38/38/38 35/35/35 36/36/36
f 37/37/37 35/35/35 38/38/38
f 36/36/36 39/39/39 38/38/38
f 33/33/33 40/40/40 34/34/34
f 40/40/40 41/41/41 34/34/34
f 32/32/32 42/42/42 33/33/33
f 42/42/42 32/32/32 37/37/37
f 42/42/42 40/40/40 33/33/33
f 39/39/39 43/43/43 38/38/38
f 39/39/39 44/44/44 43/43/43
f 45/45/45 37/37/37 38/38/38
f 45/45/45 42/42/42 37/37/37
f 38/38/38 43/43/43 45/45/45
f 40/40/40 46/46/46 41/41/41
f 46/46/46 47/47/47 41/41/41
f 42/42/42 48/48/48 40/40/40
f 48/48/48 42/42/42 45/45/45
f 48/48/48 46/46/46 40/40/40
f 44/44/44 49/49/49 43/43/43
f 44/44/44 50/50/50 49/49/49
f 43/43/43 51/51/51 45/45/45
f 51/51/51 48/48/48 45/45/45
f 43/43/43 49/49/49 51/51/51
f 46/46/46 52/52/52 47/47/47
f 52/52/52 53/53/53 47/47/47
f 48/48/48 54/54/54 46/46/46
f 54/54/54 48/48/48 51/51/51
f 54/54/54 52/52/52 46/46/46
f 50/50/50 55/55/55 49/49/49
f 55/55/55 50/50/50 56/56/56
f 49/49/49 57/57/57 51/51/51
f 57/57/57 54/54/54 51/51/51
f 49/49/49 55/55/55 57/57/57
f 52/52/52 58/58/58 53/53/53
f 58/58/58 59/59/59 53/53/53
f 54/54/54 60/60/60 52/52/52
f 60/60/60 54/54/54 57/57/57
f 60/60/60 58/58/58 52/52/52
f 61/61/61 55/55/55 56/56/56
f 61/61/61 56/56/56 62/62/62
f 55/55/55 63/63/63 57/57/57
f 63/63/63 60/60/60 57/57/57
f 63/63/63 55/55/55 61/61/61
f 59/59/59 58/58/58 64/64/64
f 65/65/65 59/59/59 64/64/64
f 58/58/58 60/60/60 66/66/66
f 66/66/66 60/60/60 63/63/63
f 64/64/64 58/58/58 66/66/66
f 67/67/67 61/61/61 62/62/62
f 62/62/62 68/68/68 67/67/67
f 69/69/69 63/63/63 61/61/61
f 69/69/69 66/66/66 63/63/63
f 69/69/69 61/61/61 67/67/67
f 65/65/65 64/64/64 70/70/70
f 71/71/71 65/65/65 70/70/70
f 68/68/68 72/72/72 67/67/67
f 68/68/68 73/73/73 72/72/72
f 74/74/74 69/69/69 67/67/67
f 66/66/66 69/69/69 74/74/74
f 67/67/67 72/72/72 74/74/74
f 64/64/64 66/66/66 75/75/75
f 70/70/70 64/64/64 75/75/75
f 75/75/75 66/66/66 74/74/74
f 70/70/70 76/76/76 71/71/71
f 76/76/76 77/77/77 71/71/71
f 75/75/75 78/78/78 70/70/70
f 78/78/78 75/75/75 74/74/74
f 78/78/78 76/76/76 70/70/70
f 73/73/73 79/79/79 72/72/72
f 73/73/73 80/80/80 79/79/79
f 72/72/72 81/81/81 74/74/74
f 81/81/81 78/78/78 74/74/74
f 72/72/72 79/79/79 81/81/81
f 76/76/76 82/82/82 77/77/77
f 82/82/82 83/83/83 77/77/77
f 78/78/78 84/84/84 76/76/76
f 84/84/84 78/78/78 81/81/81
f 84/84/84 82/82/82 76/76/76
f 80/80/80 85/85/85 79/79/79
f 80/80/80 86/86/86 85/85/85
f 79/79/79 87/87/87 81/81/81
f 87/87/87 84/84/84 81/81/81
f 79/79/79 85/85/85 87/87/87
f 82/82/82 88/88/88 83/83/83
f 88/88/88 89/89/89 83/83/83
f 84/84/84 90/90/90 82/82/82
f 90/90/90 84/84/84 87/87/87
f 90/90/90 88/88/88 82/82/82
f 86/86/86 91/91/91 85/85/85
f 86/86/86 92/92/92 91/91/91
f 85/85/85 93/93/93 87/87/87
f 93/93/93 90/90/90 87/87/87
f 85/85/85 91/91/91 93/93/93
f 88/88/88 94/94/94 89/89/89
f 94/94/94 95/95/95 89/89/89
f 90/90/90 96/96/96 88/88/88
f 96/96/96 90/90/90 93/93/93
f 96/96/96 94/94/94 88/88/88
f 92/92/92 97/97/97 91/91/91
f 92/92/92 98/98/98 97/97/97
f 91/91/91 99/99/99 93/93/93
f 99/99/99 96/96/96 93/93/93
f 91/91/91 97/97/97 99/99/99
f 94/94/94 100/100/100 95/95/95
f 100/100/100 101/101/101 95/95/95
f 96/96/96 102/102/102 94/94/94
f 102/102/102 96/96/96 99/99/99
f 102/102/102 100/100/100 94/94/94
f 98/98/98 103/103/103 97/97/97
f 98/98/98 104/104/104 103/103/103
f 97/97/97 105/105/105 99/99/99
f 105/105/105 102/102/102 99/99/99
f 97/97/97 103/103/103 105/105/105
f 100/100/100 106/106/106 101/101/101
f 106/106/106 107/107/107 101/101/101
f 102/102/102 108/108/108 100/100/100
f 108/108/108 102/102/102 105/105/105
f 108/108/108 106/106/106 100/100/100
f 104/104/104 109/109/109 103/103/103
f 104/104/104 110/110/110 109/109/109
f 103/103/103 111/111/111 105/105/105
f 111/111/111 108/108/108 105/105/105
f 103/103/103 109/109/109 111/111/111
f 106/106/106 112/112/112 107/107/107
f 112/112/112 113/113/113 107/107/107
f 108/108/108 114/114/114 106/106/106
f 114/114/114 108/108/108 111/111/111
f 114/114/114 112/112/112 106/106/106
f 110/110/110 115/115/115 109/109/109
f 110/110/110 116/116/116 115/115/115
f 109/109/109 117/117/117 111/111/111
f 117/117/117 114/114/114 111/111/111
f 109/109/109 115/115/115 117/117/117
f 112/112/112 118/118/118 113/113/113
f 118/118/118 119/119/119 113/113/113
f 114/114/114 120/120/120 112/112/112
f 120/120/120 114/114/114 117/117/117
f 120/120/120 118/118/118 112/112/112
f 116/116/116 121/121/121 115/115/115
f 121/121/121 116/116/116 122/122/122
f 115/115/115 123/123/123 117/117/117
f 123/123/123 120/120/120 117/117/117
f 115/115/115 121/121/121 123/123/123
f 118/118/118 124/124/124 119/119/119
f 124/124/124 125/125/125 119/119/119
f 120/120/120 126/126/126 118/118/118
f 126/126/126 120/120/120 123/123/123
f 126/126/126 124/124/124 118/118/118
f 127/127/127 121/121/121 122/122/122
f 122/122/122 128/128/128 127/127/127
f 128/128/128 129/129/129 127/127/127
f 121/121/121 130/130/130 123/123/123
f 130/130/130 126/126/126 123/123/123
f 130/130/130 121/121/121 127/127/127
f 127/127/127 129/129/129 131/131/131
f 131/131/131 130/130/130 127/127/127
f 129/129/129 132/132/132 131/131/131
f 133/133/133 126/126/126 130/130/130
f 131/131/131 133/133/133 130/130/130
f 131/131/131 132/132/132 133/133/133
f 124/124/124 126/126/126 133/133/133
f 132/132/132 134/134/134 133/133/133
f 125/125/125 124/124/124 135/135/135
f 135/135/135 124/124/124 133/133/133
f 133/133/133 134/134/134 135/135/135
f 136/136/136 125/125/125 135/135/135
f 134/134/134 137/137/137 135/135/135
f 135/135/135 137/137/137 136/136/136
f 137/137/137 138/138/138 136/136/136
