g 
v -6.6349998 0 0
v -6.5525 0.14289421 0
v -6.3875 0.1428942 0
v -6.305 -1.4424758E-08 0
v -6.560892 0 0.9888955
v -6.479314 0.14289421 0.97659945
v -6.3161564 0.1428942 0.95200753
v -6.234578 -1.4424758E-08 0.9397115
v -6.340225 0 1.9557006
v -6.26139 0.14289421 1.9313833
v -6.103721 0.1428942 1.8827487
v -6.024886 -1.4424758E-08 1.8584313
v -5.977928 0 2.8788188
v -5.9035983 0.14289421 2.8430233
v -5.7549386 0.1428942 2.7714324
v -5.6806087 -1.4424758E-08 2.735637
v -5.482094 0 3.7376287
v -5.4139295 0.14289421 3.691155
v -5.2776 0.1428942 3.598207
v -5.2094355 -1.4424758E-08 3.5517333
v -4.8637986 0 4.512946
v -4.803322 0.14289421 4.456832
v -4.6823683 0.1428942 4.3446035
v -4.6218915 -1.4424758E-08 4.2884893
v -4.1368546 0 5.187452
v -4.085417 0.14289421 5.122951
v -3.982541 0.1428942 4.9939485
v -3.9311032 -1.4424758E-08 4.9294477
v -3.3174996 0 5.746079
v -3.2762496 0.14289421 5.6746316
v -3.1937497 0.1428942 5.531738
v -3.1524997 -1.4424758E-08 5.4602904
v -2.4240372 0 6.176347
v -2.3938966 0.14289421 6.09955
v -2.3336153 0.1428942 5.9459558
v -2.3034747 -1.4424758E-08 5.8691587
v -1.4764259 0 6.468646
v -1.4580679 0.14289421 6.3882146
v -1.4213519 0.1428942 6.2273517
v -1.4029939 -1.4424758E-08 6.14692
v -0.49583355 0 6.6164474
v -0.48966834 0.14289421 6.534178
v -0.47733787 0.1428942 6.3696394
v -0.47117266 -1.4424758E-08 6.2873697
v 0.49583492 0 6.6164465
v 0.48966968 0.14289421 6.5341773
v 0.4773392 0.1428942 6.369639
v 0.47117397 -1.4424758E-08 6.2873697
v 1.4764265 0 6.468646
v 1.4580685 0.14289421 6.3882146
v 1.4213525 0.1428942 6.2273517
v 1.4029945 -1.4424758E-08 6.14692
v 2.424038 0 6.176347
v 2.3938973 0.14289421 6.09955
v 2.333616 0.1428942 5.9459558
v 2.3034754 -1.4424758E-08 5.8691587
v 3.3175004 0 5.7460785
v 3.2762504 0.14289421 5.674631
v 3.1937504 0.1428942 5.5317373
v 3.1525004 -1.4424758E-08 5.46029
v 4.1368556 0 5.187451
v 4.0854177 0.14289421 5.12295
v 3.982542 0.1428942 4.9939475
v 3.931104 -1.4424758E-08 4.9294467
v 4.8637996 0 4.5129457
v 4.803323 0.14289421 4.4568315
v 4.682369 0.1428942 4.344603
v 4.6218925 -1.4424758E-08 4.288489
v 5.482094 0 3.7376282
v 5.4139295 0.14289421 3.6911545
v 5.2776 0.1428942 3.5982065
v 5.2094355 -1.4424758E-08 3.5517328
v 5.977928 0 2.8788178
v 5.9035983 0.14289421 2.8430223
v 5.7549386 0.1428942 2.7714314
v 5.6806087 -1.4424758E-08 2.735636
v 6.3402257 0 1.9557003
v 6.2613907 0.14289421 1.9313829
v 6.1037216 0.1428942 1.8827484
v 6.0248866 -1.4424758E-08 1.858431
v 6.5608926 0 0.98889416
v 6.4793143 0.14289421 0.9765982
v 6.316157 0.1428942 0.9520063
v 6.2345786 -1.4424758E-08 0.9397103
v 6.6349998 0 -5.800501E-07
v 6.5525 0.14289421 -5.7283773E-07
v 6.3875 0.1428942 -5.584129E-07
v 6.305 -1.4424758E-08 -5.5120057E-07
v 6.560892 0 -0.98889685
v 6.479314 0.14289421 -0.9766009
v 6.3161564 0.1428942 -0.95200884
v 6.234578 -1.4424758E-08 -0.9397129
v 6.340225 0 -1.9557015
v 6.26139 0.14289421 -1.9313841
v 6.103721 0.1428942 -1.8827496
v 6.024886 -1.4424758E-08 -1.8584322
v 5.977928 0 -2.8788188
v 5.9035983 0.14289421 -2.8430233
v 5.7549386 0.1428942 -2.7714324
v 5.6806087 -1.4424758E-08 -2.735637
v 5.4820933 0 -3.7376294
v 5.413929 0.14289421 -3.6911557
v 5.2775993 0.1428942 -3.5982077
v 5.209435 -1.4424758E-08 -3.551734
v 4.8637986 0 -4.512946
v 4.803322 0.14289421 -4.456832
v 4.6823683 0.1428942 -4.3446035
v 4.6218915 -1.4424758E-08 -4.2884893
v 4.136853 0 -5.1874523
v 4.0854154 0.14289421 -5.1229515
v 3.9825397 0.1428942 -4.993949
v 3.9311018 -1.4424758E-08 -4.929448
v 3.3174994 0 -5.746079
v 3.2762494 0.14289421 -5.6746316
v 3.1937494 0.1428942 -5.531738
v 3.1524994 -1.4424758E-08 -5.4602904
v 2.4240375 0 -6.176347
v 2.3938968 0.14289421 -6.09955
v 2.3336155 0.1428942 -5.9459558
v 2.303475 -1.4424758E-08 -5.8691587
v 1.4764237 0 -6.468647
v 1.4580659 0.14289421 -6.3882155
v 1.4213499 0.1428942 -6.2273526
v 1.402992 -1.4424758E-08 -6.146921
v 0.49583215 0 -6.6164474
v 0.48966694 0.14289421 -6.534178
v 0.47733653 0.1428942 -6.3696394
v 0.47117132 -1.4424758E-08 -6.2873697
v -0.49583548 0 -6.6164465
v -0.48967022 0.14289421 -6.5341773
v -0.47733974 0.1428942 -6.369639
v -0.47117448 -1.4424758E-08 -6.2873697
v -1.4764271 0 -6.468646
v -1.4580691 0.14289421 -6.3882146
v -1.4213531 0.1428942 -6.2273517
v -1.4029951 -1.4424758E-08 -6.14692
v -2.4240377 0 -6.176347
v -2.393897 0.14289421 -6.09955
v -2.3336158 0.1428942 -5.9459558
v -2.3034751 -1.4424758E-08 -5.8691587
v -3.3175023 0 -5.746077
v -3.2762523 0.14289421 -5.6746297
v -3.1937523 0.1428942 -5.531736
v -3.1525023 -1.4424758E-08 -5.4602885
v -4.136856 0 -5.1874504
v -4.085418 0.14289421 -5.1229496
v -3.9825425 0.1428942 -4.993947
v -3.9311044 -1.4424758E-08 -4.929446
v -4.8638 0 -4.512945
v -4.8033233 0.14289421 -4.456831
v -4.6823697 0.1428942 -4.3446026
v -4.621893 -1.4424758E-08 -4.2884884
v -5.482095 0 -3.737628
v -5.41393 0.14289421 -3.6911542
v -5.2776003 0.1428942 -3.5982063
v -5.2094355 -1.4424758E-08 -3.5517325
v -5.9779296 0 -2.8788157
v -5.9035997 0.14289421 -2.8430204
v -5.75494 0.1428942 -2.7714295
v -5.68061 -1.4424758E-08 -2.7356343
v -6.340226 0 -1.9556983
v -6.261391 0.14289421 -1.931381
v -6.1037216 0.1428942 -1.8827465
v -6.024887 -1.4424758E-08 -1.8584292
v -6.5608926 0 -0.9888936
v -6.4793143 0.14289421 -0.97659767
v -6.316157 0.1428942 -0.95200574
v -6.2345786 -1.4424758E-08 -0.9397098
vn -0.165 0 0
vn -0.082499996 0.14289421 0
vn 0.08250001 0.1428942 -0
vn 0.165 -1.4424758E-08 -0
vn -0.16315709 0 0.024591977
vn -0.08157854 0.14289421 0.012295987
vn 0.08157855 0.1428942 -0.012295989
vn 0.16315709 -1.4424758E-08 -0.024591977
vn -0.15766951 0 0.048634607
vn -0.07883475 0.14289421 0.024317302
vn 0.078834765 0.1428942 -0.024317307
vn 0.15766951 -1.4424758E-08 -0.048634607
vn -0.14865987 0 0.071590826
vn -0.07432993 0.14289421 0.03579541
vn 0.07432994 0.1428942 -0.035795417
vn 0.14865987 -1.4424758E-08 -0.071590826
vn -0.1363294 0 0.09294782
vn -0.06816469 0.14289421 0.046473905
vn 0.068164706 0.1428942 -0.046473917
vn 0.1363294 -1.4424758E-08 -0.09294782
vn -0.12095356 0 0.11222852
vn -0.060476772 0.14289421 0.056114253
vn 0.060476784 0.1428942 -0.056114264
vn 0.12095356 -1.4424758E-08 -0.11222852
vn -0.10287582 0 0.1290022
vn -0.051437907 0.14289421 0.0645011
vn 0.051437914 0.1428942 -0.064501114
vn 0.10287582 -1.4424758E-08 -0.1290022
vn -0.082499996 0 0.14289421
vn -0.041249998 0.14289421 0.0714471
vn 0.04125 0.1428942 -0.07144711
vn 0.082499996 -1.4424758E-08 -0.14289421
vn -0.060281266 0 0.15359418
vn -0.030140629 0.14289421 0.07679708
vn 0.030140635 0.1428942 -0.0767971
vn 0.060281266 -1.4424758E-08 -0.15359418
vn -0.036715943 0 0.16086312
vn -0.01835797 0.14289421 0.08043155
vn 0.018357974 0.1428942 -0.080431566
vn 0.036715943 -1.4424758E-08 -0.16086312
vn -0.012330451 0 0.16453864
vn -0.0061652246 0.14289421 0.08226931
vn 0.006165226 0.1428942 -0.082269326
vn 0.012330451 -1.4424758E-08 -0.16453864
vn 0.0123304855 0 0.16453862
vn 0.006165242 0.14289421 0.08226931
vn -0.006165243 0.1428942 -0.082269326
vn -0.0123304855 -1.4424758E-08 -0.16453862
vn 0.03671596 0 0.16086312
vn 0.018357977 0.14289421 0.08043155
vn -0.018357981 0.1428942 -0.080431566
vn -0.03671596 -1.4424758E-08 -0.16086312
vn 0.060281277 0 0.15359418
vn 0.030140636 0.14289421 0.07679708
vn -0.030140642 0.1428942 -0.0767971
vn -0.060281277 -1.4424758E-08 -0.15359418
vn 0.08250001 0 0.1428942
vn 0.04125 0.14289421 0.07144709
vn -0.041250013 0.1428942 -0.071447104
vn -0.08250001 -1.4424758E-08 -0.1428942
vn 0.10287585 0 0.12900218
vn 0.05143792 0.14289421 0.064501084
vn -0.05143793 0.1428942 -0.0645011
vn -0.10287585 -1.4424758E-08 -0.12900218
vn 0.120953575 0 0.1122285
vn 0.060476784 0.14289421 0.056114245
vn -0.060476795 0.1428942 -0.056114253
vn -0.120953575 -1.4424758E-08 -0.1122285
vn 0.1363294 0 0.09294781
vn 0.06816469 0.14289421 0.0464739
vn -0.068164706 0.1428942 -0.04647391
vn -0.1363294 -1.4424758E-08 -0.09294781
vn 0.14865987 0 0.071590796
vn 0.074329935 0.14289421 0.035795398
vn -0.07432995 0.1428942 -0.035795406
vn -0.14865987 -1.4424758E-08 -0.071590796
vn 0.15766953 0 0.0486346
vn 0.07883476 0.14289421 0.024317296
vn -0.07883477 0.1428942 -0.024317302
vn -0.15766953 -1.4424758E-08 -0.0486346
vn 0.1631571 0 0.024591945
vn 0.081578545 0.14289421 0.012295972
vn -0.08157856 0.1428942 -0.0122959735
vn -0.1631571 -1.4424758E-08 -0.024591945
vn 0.165 0 -1.4424758E-08
vn 0.082499996 0.14289421 -7.2123787E-09
vn -0.08250001 0.1428942 7.21238E-09
vn -0.165 -1.4424758E-08 1.4424758E-08
vn 0.16315709 0 -0.024592012
vn 0.08157854 0.14289421 -0.012296004
vn -0.08157855 0.1428942 0.012296007
vn -0.16315709 -1.4424758E-08 0.024592012
vn 0.15766951 0 -0.04863463
vn 0.07883475 0.14289421 -0.024317311
vn -0.078834765 0.1428942 0.024317317
vn -0.15766951 -1.4424758E-08 0.04863463
vn 0.14865987 0 -0.071590826
vn 0.07432993 0.14289421 -0.03579541
vn -0.07432994 0.1428942 0.035795417
vn -0.14865987 -1.4424758E-08 0.071590826
vn 0.13632938 0 -0.09294784
vn 0.06816469 0.14289421 -0.046473917
vn -0.068164706 0.1428942 0.046473924
vn -0.13632938 -1.4424758E-08 0.09294784
vn 0.12095356 0 -0.11222852
vn 0.060476772 0.14289421 -0.056114253
vn -0.060476784 0.1428942 0.056114264
vn -0.12095356 -1.4424758E-08 0.11222852
vn 0.10287579 0 -0.12900223
vn 0.051437892 0.14289421 -0.06450111
vn -0.0514379 0.1428942 0.06450112
vn -0.10287579 -1.4424758E-08 0.12900223
vn 0.08249999 0 -0.14289421
vn 0.04124999 0.14289421 -0.0714471
vn -0.041249998 0.1428942 0.07144711
vn -0.08249999 -1.4424758E-08 0.14289421
vn 0.06028127 0 -0.15359418
vn 0.030140633 0.14289421 -0.07679708
vn -0.030140636 0.1428942 0.0767971
vn -0.06028127 -1.4424758E-08 0.15359418
vn 0.03671589 0 -0.16086313
vn 0.018357944 0.14289421 -0.08043156
vn -0.018357947 0.1428942 0.08043157
vn -0.03671589 -1.4424758E-08 0.16086313
vn 0.012330417 0 -0.16453864
vn 0.0061652074 0.14289421 -0.08226931
vn -0.0061652088 0.1428942 0.082269326
vn -0.012330417 -1.4424758E-08 0.16453864
vn -0.012330499 0 -0.16453862
vn -0.006165249 0.14289421 -0.08226931
vn 0.0061652497 0.1428942 0.082269326
vn 0.012330499 -1.4424758E-08 0.16453862
vn -0.036715973 0 -0.16086312
vn -0.018357985 0.14289421 -0.08043155
vn 0.018357988 0.1428942 0.080431566
vn 0.036715973 -1.4424758E-08 0.16086312
vn -0.060281273 0 -0.15359418
vn -0.030140635 0.14289421 -0.07679708
vn 0.030140638 0.1428942 0.0767971
vn 0.060281273 -1.4424758E-08 0.15359418
vn -0.08250006 0 -0.14289416
vn -0.041250028 0.14289421 -0.071447074
vn 0.041250035 0.1428942 0.07144709
vn 0.08250006 -1.4424758E-08 0.14289416
vn -0.10287586 0 -0.12900217
vn -0.051437926 0.14289421 -0.064501084
vn 0.051437937 0.1428942 0.0645011
vn 0.10287586 -1.4424758E-08 0.12900217
vn -0.12095359 0 -0.11222849
vn -0.060476787 0.14289421 -0.056114238
vn 0.0604768 0.1428942 0.05611425
vn 0.12095359 -1.4424758E-08 0.11222849
vn -0.13632941 0 -0.0929478
vn -0.0681647 0.14289421 -0.046473894
vn 0.06816471 0.1428942 0.046473905
vn 0.13632941 -1.4424758E-08 0.0929478
vn -0.1486599 0 -0.07159075
vn -0.07432995 0.14289421 -0.035795372
vn 0.074329965 0.1428942 0.03579538
vn 0.1486599 -1.4424758E-08 0.07159075
vn -0.15766953 0 -0.048634548
vn -0.078834765 0.14289421 -0.024317272
vn 0.07883478 0.1428942 0.024317278
vn 0.15766953 -1.4424758E-08 0.048634548
vn -0.1631571 0 -0.02459193
vn -0.081578545 0.14289421 -0.012295964
vn 0.08157856 0.1428942 0.012295966
vn 0.1631571 -1.4424758E-08 0.02459193
g _0
f 6/6/6 2/2/2 1/1/1
f 5/5/5 6/6/6 1/1/1
f 7/7/7 3/3/3 2/2/2
f 6/6/6 7/7/7 2/2/2
f 8/8/8 4/4/4 3/3/3
f 7/7/7 8/8/8 3/3/3
f 10/10/10 6/6/6 5/5/5
f 9/9/9 10/10/10 5/5/5
f 11/11/11 7/7/7 6/6/6
f 10/10/10 11/11/11 6/6/6
f 12/12/12 8/8/8 7/7/7
f 11/11/11 12/12/12 7/7/7
f 14/14/14 10/10/10 9/9/9
f 13/13/13 14/14/14 9/9/9
f 15/15/15 11/11/11 10/10/10
f 14/14/14 15/15/15 10/10/10
f 16/16/16 12/12/12 11/11/11
f 15/15/15 16/16/16 11/11/11
f 18/18/18 14/14/14 13/13/13
f 17/17/17 18/18/18 13/13/13
f 19/19/19 15/15/15 14/14/14
f 18/18/18 19/19/19 14/14/14
f 20/20/20 16/16/16 15/15/15
f 19/19/19 20/20/20 15/15/15
f 22/22/22 18/18/18 17/17/17
f 21/21/21 22/22/22 17/17/17
f 23/23/23 19/19/19 18/18/18
f 22/22/22 23/23/23 18/18/18
f 24/24/24 20/20/20 19/19/19
f 23/23/23 24/24/24 19/19/19
f 26/26/26 22/22/22 21/21/21
f 25/25/25 26/26/26 21/21/21
f 27/27/27 23/23/23 22/22/22
f 26/26/26 27/27/27 22/22/22
f 28/28/28 24/24/24 23/23/23
f 27/27/27 28/28/28 23/23/23
f 30/30/30 26/26/26 25/25/25
f 29/29/29 30/30/30 25/25/25
f 31/31/31 27/27/27 26/26/26
f 30/30/30 31/31/31 26/26/26
f 32/32/32 28/28/28 27/27/27
f 31/31/31 32/32/32 27/27/27
f 34/34/34 30/30/30 29/29/29
f 33/33/33 34/34/34 29/29/29
f 35/35/35 31/31/31 30/30/30
f 34/34/34 35/35/35 30/30/30
f 36/36/36 32/32/32 31/31/31
f 35/35/35 36/36/36 31/31/31
f 38/38/38 34/34/34 33/33/33
f 37/37/37 38/38/38 33/33/33
f 39/39/39 35/35/35 34/34/34
f 38/38/38 39/39/39 34/34/34
f 40/40/40 36/36/36 35/35/35
f 39/39/39 40/40/40 35/35/35
f 42/42/42 38/38/38 37/37/37
f 41/41/41 42/42/42 37/37/37
f 43/43/43 39/39/39 38/38/38
f 42/42/42 43/43/43 38/38/38
f 44/44/44 40/40/40 39/39/39
f 43/43/43 44/44/44 39/39/39
f 46/46/46 42/42/42 41/41/41
f 45/45/45 46/46/46 41/41/41
f 47/47/47 43/43/43 42/42/42
f 46/46/46 47/47/47 42/42/42
f 48/48/48 44/44/44 43/43/43
f 47/47/47 48/48/48 43/43/43
f 50/50/50 46/46/46 45/45/45
f 49/49/49 50/50/50 45/45/45
f 51/51/51 47/47/47 46/46/46
f 50/50/50 51/51/51 46/46/46
f 52/52/52 48/48/48 47/47/47
f 51/51/51 52/52/52 47/47/47
f 54/54/54 50/50/50 49/49/49
f 53/53/53 54/54/54 49/49/49
f 55/55/55 51/51/51 50/50/50
f 54/54/54 55/55/55 50/50/50
f 56/56/56 52/52/52 51/51/51
f 55/55/55 56/56/56 51/51/51
f 58/58/58 54/54/54 53/53/53
f 57/57/57 58/58/58 53/53/53
f 59/59/59 55/55/55 54/54/54
f 58/58/58 59/59/59 54/54/54
f 60/60/60 56/56/56 55/55/55
f 59/59/59 60/60/60 55/55/55
f 62/62/62 58/58/58 57/57/57
f 61/61/61 62/62/62 57/57/57
f 63/63/63 59/59/59 58/58/58
f 62/62/62 63/63/63 58/58/58
f 64/64/64 60/60/60 59/59/59
f 63/63/63 64/64/64 59/59/59
f 66/66/66 62/62/62 61/61/61
f 65/65/65 66/66/66 61/61/61
f 67/67/67 63/63/63 62/62/62
f 66/66/66 67/67/67 62/62/62
f 68/68/68 64/64/64 63/63/63
f 67/67/67 68/68/68 63/63/63
f 70/70/70 66/66/66 65/65/65
f 69/69/69 70/70/70 65/65/65
f 71/71/71 67/67/67 66/66/66
f 70/70/70 71/71/71 66/66/66
f 72/72/72 68/68/68 67/67/67
f 71/71/71 72/72/72 67/67/67
f 74/74/74 70/70/70 69/69/69
f 73/73/73 74/74/74 69/69/69
f 75/75/75 71/71/71 70/70/70
f 74/74/74 75/75/75 70/70/70
f 76/76/76 72/72/72 71/71/71
f 75/75/75 76/76/76 71/71/71
f 78/78/78 74/74/74 73/73/73
f 77/77/77 78/78/78 73/73/73
f 79/79/79 75/75/75 74/74/74
f 78/78/78 79/79/79 74/74/74
f 80/80/80 76/76/76 75/75/75
f 79/79/79 80/80/80 75/75/75
f 82/82/82 78/78/78 77/77/77
f 81/81/81 82/82/82 77/77/77
f 83/83/83 79/79/79 78/78/78
f 82/82/82 83/83/83 78/78/78
f 84/84/84 80/80/80 79/79/79
f 83/83/83 84/84/84 79/79/79
f 86/86/86 82/82/82 81/81/81
f 85/85/85 86/86/86 81/81/81
f 87/87/87 83/83/83 82/82/82
f 86/86/86 87/87/87 82/82/82
f 88/88/88 84/84/84 83/83/83
f 87/87/87 88/88/88 83/83/83
f 90/90/90 86/86/86 85/85/85
f 89/89/89 90/90/90 85/85/85
f 91/91/91 87/87/87 86/86/86
f 90/90/90 91/91/91 86/86/86
f 92/92/92 88/88/88 87/87/87
f 91/91/91 92/92/92 87/87/87
f 94/94/94 90/90/90 89/89/89
f 93/93/93 94/94/94 89/89/89
f 95/95/95 91/91/91 90/90/90
f 94/94/94 95/95/95 90/90/90
f 96/96/96 92/92/92 91/91/91
f 95/95/95 96/96/96 91/91/91
f 98/98/98 94/94/94 93/93/93
f 97/97/97 98/98/98 93/93/93
f 99/99/99 95/95/95 94/94/94
f 98/98/98 99/99/99 94/94/94
f 100/100/100 96/96/96 95/95/95
f 99/99/99 100/100/100 95/95/95
f 102/102/102 98/98/98 97/97/97
f 101/101/101 102/102/102 97/97/97
f 103/103/103 99/99/99 98/98/98
f 102/102/102 103/103/103 98/98/98
f 104/104/104 100/100/100 99/99/99
f 103/103/103 104/104/104 99/99/99
f 106/106/106 102/102/102 101/101/101
f 105/105/105 106/106/106 101/101/101
f 107/107/107 103/103/103 102/102/102
f 106/106/106 107/107/107 102/102/102
f 108/108/108 104/104/104 103/103/103
f 107/107/107 108/108/108 103/103/103
f 110/110/110 106/106/106 105/105/105
f 109/109/109 110/110/110 105/105/105
f 111/111/111 107/107/107 106/106/106
f 110/110/110 111/111/111 106/106/106
f 112/112/112 108/108/108 107/107/107
f 111/111/111 112/112/112 107/107/107
f 114/114/114 110/110/110 109/109/109
f 113/113/113 114/114/114 109/109/109
f 115/115/115 111/111/111 110/110/110
f 114/114/114 115/115/115 110/110/110
f 116/116/116 112/112/112 111/111/111
f 115/115/115 116/116/116 111/111/111
f 118/118/118 114/114/114 113/113/113
f 117/117/117 118/118/118 113/113/113
f 119/119/119 115/115/115 114/114/114
f 118/118/118 119/119/119 114/114/114
f 120/120/120 116/116/116 115/115/115
f 119/119/119 120/120/120 115/115/115
f 122/122/122 118/118/118 117/117/117
f 121/121/121 122/122/122 117/117/117
f 123/123/123 119/119/119 118/118/118
f 122/122/122 123/123/123 118/118/118
f 124/124/124 120/120/120 119/119/119
f 123/123/123 124/124/124 119/119/119
f 126/126/126 122/122/122 121/121/121
f 125/125/125 126/126/126 121/121/121
f 127/127/127 123/123/123 122/122/122
f 126/126/126 127/127/127 122/122/122
f 128/128/128 124/124/124 123/123/123
f 127/127/127 128/128/128 123/123/123
f 130/130/130 126/126/126 125/125/125
f 129/129/129 130/130/130 125/125/125
f 131/131/131 127/127/127 126/126/126
f 130/130/130 131/131/131 126/126/126
f 132/132/132 128/128/128 127/127/127
f 131/131/131 132/132/132 127/127/127
f 134/134/134 130/130/130 129/129/129
f 133/133/133 134/134/134 129/129/129
f 135/135/135 131/131/131 130/130/130
f 134/134/134 135/135/135 130/130/130
f 136/136/136 132/132/132 131/131/131
f 135/135/135 136/136/136 131/131/131
f 138/138/138 134/134/134 133/133/133
f 137/137/137 138/138/138 133/133/133
f 139/139/139 135/135/135 134/134/134
f 138/138/138 139/139/139 134/134/134
f 140/140/140 136/136/136 135/135/135
f 139/139/139 140/140/140 135/135/135
f 142/142/142 138/138/138 137/137/137
f 141/141/141 142/142/142 137/137/137
f 143/143/143 139/139/139 138/138/138
f 142/142/142 143/143/143 138/138/138
f 144/144/144 140/140/140 139/139/139
f 143/143/143 144/144/144 139/139/139
f 146/146/146 142/142/142 141/141/141
f 145/145/145 146/146/146 141/141/141
f 147/147/147 143/143/143 142/142/142
f 146/146/146 147/147/147 142/142/142
f 148/148/148 144/144/144 143/143/143
f 147/147/147 148/148/148 143/143/143
f 150/150/150 146/146/146 145/145/145
f 149/149/149 150/150/150 145/145/145
f 151/151/151 147/147/147 146/146/146
f 150/150/150 151/151/151 146/146/146
f 152/152/152 148/148/148 147/147/147
f 151/151/151 152/152/152 147/147/147
f 154/154/154 150/150/150 149/149/149
f 153/153/153 154/154/154 149/149/149
f 155/155/155 151/151/151 150/150/150
f 154/154/154 155/155/155 150/150/150
f 156/156/156 152/152/152 151/151/151
f 155/155/155 156/156/156 151/151/151
f 158/158/158 154/154/154 153/153/153
f 157/157/157 158/158/158 153/153/153
f 159/159/159 155/155/155 154/154/154
f 158/158/158 159/159/159 154/154/154
f 160/160/160 156/156/156 155/155/155
f 159/159/159 160/160/160 155/155/155
f 162/162/162 158/158/158 157/157/157
f 161/161/161 162/162/162 157/157/157
f 163/163/163 159/159/159 158/158/158
f 162/162/162 163/163/163 158/158/158
f 164/164/164 160/160/160 159/159/159
f 163/163/163 164/164/164 159/159/159
f 166/166/166 162/162/162 161/161/161
f 165/165/165 166/166/166 161/161/161
f 167/167/167 163/163/163 162/162/162
f 166/166/166 167/167/167 162/162/162
f 168/168/168 164/164/164 163/163/163
f 167/167/167 168/168/168 163/163/163
f 2/2/2 166/166/166 165/165/165
f 1/1/1 2/2/2 165/165/165
f 3/3/3 167/167/167 166/166/166
f 2/2/2 3/3/3 166/166/166
f 4/4/4 168/168/168 167/167/167
f 3/3/3 4/4/4 167/167/167
