g 
v -6.2999964 0.020659827 -4.505953
v -6.320546 0.091761954 -4.637345
v -6.320546 0.07027195 -4.50261
v -6.2999964 0.043861467 -4.651418
v -6.320546 0.15808563 -4.7573094
v -6.2503843 0.000109829474 -4.5073385
v -6.2999964 0.11744853 -4.7845206
v -6.320546 0.26167122 -4.8527775
v -6.2503843 0.024020473 -4.657248
v -6.2999964 0.23214637 -4.89023
v -6.320546 0.39219514 -4.914072
v 6.250388 0.024020577 -4.6573157
v 6.250388 0.000109829474 -4.507407
v 6.3 0.020659778 -4.5060234
v -6.2503843 0.10061615 -4.7957926
v -6.2999964 0.37667426 -4.9581013
v -6.320546 0.5369323 -4.935191
v 6.3000007 0.043861795 -4.6514874
v 6.3205504 0.07027182 -4.502681
v 6.3205504 0.09176257 -4.6374145
v 6.2503877 0.10061626 -4.7958612
v 6.3 0.117448896 -4.7845907
v 6.32055 0.15808633 -4.75738
v -6.2503843 0.21991684 -4.9057436
v 6.250386 0.2199169 -4.9058113
v 6.299999 0.23214664 -4.890299
v 6.320549 0.26167175 -4.8528466
v 6.250388 0.3702454 -4.976407
v 6.3 0.37667453 -4.95817
v 6.32055 0.39219567 -4.914141
v -6.250385 0.37024534 -4.9763393
v 6.2503867 0.53693235 -5.0007286
v 6.299999 0.53693235 -4.9815536
v 6.32055 0.53693235 -4.935261
v -6.2999964 0.5369323 -4.9814854
v -6.320546 0.68166924 -4.914072
v -6.250385 0.5369323 -5.000661
v -6.2999964 0.6971901 -4.9581013
v -6.320546 0.81219333 -4.852777
v 6.3 0.69719 -4.95817
v 6.32055 0.6816688 -4.914141
v 6.2503877 0.70361906 -4.976407
v -6.2999964 0.84171814 -4.8902297
v -6.320546 0.9157792 -4.7573094
v -6.2503843 0.703619 -4.9763393
v 6.299999 0.84171796 -4.890299
v 6.320549 0.8121929 -4.8528466
v 6.250386 0.85394776 -4.9058113
v -6.2999964 0.95641637 -4.7845206
v -6.320546 0.9821023 -4.637345
v -6.2503843 0.8539477 -4.9057436
v 6.2999997 0.9564162 -4.7845907
v 6.32055 0.91577864 -4.75738
v 6.250387 0.9732488 -4.7958612
v -6.2999964 1.030003 -4.651418
v -6.320546 1.0035926 -4.50261
v -6.2503843 0.9732488 -4.7957926
v 6.3000007 1.0300028 -4.6514874
v 6.3205504 0.98210186 -4.6374145
v 6.250388 1.0498441 -4.6573157
v -6.2999964 1.0532048 -4.505953
v -6.320551 1.0035944 4.5077877
v -6.2503843 1.049844 -4.657248
v 6.3 1.0532049 -4.5060234
v 6.3205504 1.0035927 -4.502681
v 6.250388 1.0737548 -4.507407
v -6.300001 1.0532067 4.5111303
v -6.32055 0.9821037 4.642521
v -6.2503843 1.0737548 -4.5073385
v 6.299996 1.053207 4.511059
v 6.320546 1.003595 4.5077157
v -6.3 1.0300046 4.6565943
v -6.32055 0.9157809 4.762487
v -6.2503886 1.0737567 4.512514
v 6.250384 1.0737572 4.5124445
v 6.2999964 1.0300056 4.6565223
v 6.320547 0.9821052 4.642449
v 6.2503843 1.0498464 4.662353
v -6.299999 0.9564182 4.7896976
v -6.320549 0.8121948 4.857953
v -6.250388 1.049846 4.662422
v 6.2999973 0.95641863 4.789626
v 6.320547 0.9157812 4.7624145
v 6.2503853 0.97325116 4.800898
v -6.299999 0.8417199 4.895406
v -6.3205504 0.6816707 4.919248
v -6.250387 0.97325075 4.800968
v 6.299998 0.8417206 4.8953342
v 6.320548 0.81219584 4.8578815
v 6.250386 0.85395014 4.9108486
v -6.3000007 0.6971919 4.963277
v -6.32055 0.5369343 4.9403677
v -6.250387 0.85394967 4.910918
v 6.2999964 0.69719255 4.963206
v 6.320547 0.68167174 4.9191775
v 6.2503843 0.70362145 4.981444
v -6.3 0.5369343 4.9866605
v -6.3205504 0.39219764 4.919248
v -6.250388 0.70362103 4.9815135
v 6.2999973 0.53693473 4.986589
v 6.320547 0.53693473 4.9402957
v 6.2503858 0.53693473 5.0057654
v -6.3000007 0.3766765 4.963277
v -6.320549 0.26167378 4.8579535
v -6.250387 0.5369343 5.0058355
v 6.2999964 0.37667668 4.963206
v 6.320547 0.3921975 4.9191775
v 6.250385 0.3702478 4.981444
v -6.299999 0.23214869 4.895406
v -6.32055 0.1580879 4.762487
v -6.250388 0.37024736 4.9815135
v 6.299998 0.23214887 4.8953342
v 6.320548 0.2616736 4.857882
v 6.250386 0.21991938 4.9108486
v -6.299999 0.11745063 4.7896976
v -6.32055 0.091764756 4.642521
v -6.250387 0.21991895 4.910918
v 6.2999973 0.11745109 4.789626
v 6.320547 0.15808837 4.762415
v 6.2503853 0.100618556 4.800898
v -6.3 0.043863844 4.6565943
v -6.320551 0.070273966 4.5077877
v -6.250387 0.10061815 4.800968
v 6.2999964 0.043863792 4.6565223
v 6.320547 0.09176407 4.642449
v 6.2503843 0.024022948 4.662353
v -6.300001 0.020661801 4.5111303
v -6.320546 0.07027195 -4.50261
v -6.2999964 0.020659827 -4.505953
v -6.250388 0.024022534 4.662422
v -6.2503886 0.0001117629 4.512514
v -6.2503843 0.000109829474 -4.5073385
v 6.250384 0.00011217641 4.5124445
v 6.250388 0.000109829474 -4.507407
v 6.299996 0.020662181 4.511059
v 6.320546 0.07027429 4.5077157
v 6.3 0.020659778 -4.5060234
v 6.3205504 0.07027182 -4.502681
vt 0.003434264 0.42933604
vt 0.002257959 0.4262887
vt 0.002250583 0.42932695
vt 0.003434264 0.42629853
vt 0.0022579888 0.42323115
vt 0.005304032 0.42933604
vt 0.003434264 0.42323115
vt 0.002257959 0.42012516
vt 0.0053040655 0.42629862
vt 0.0034342343 0.42012516
vt 0.0022579888 0.41702998
vt 0.121292144 0.42629853
vt 0.1212922 0.42933604
vt 0.123162 0.42933604
vt 0.005304103 0.42323115
vt 0.003434264 0.41702995
vt 0.0022556828 0.4137959
vt 0.12316194 0.42629853
vt 0.12434457 0.42932692
vt 0.1243372 0.42629126
vt 0.121292144 0.42323115
vt 0.12316194 0.42323115
vt 0.1243372 0.4232312
vt 0.0053042294 0.42012516
vt 0.121292144 0.42012516
vt 0.123162 0.42012516
vt 0.124337256 0.42012516
vt 0.121292144 0.41702998
vt 0.12316194 0.41702998
vt 0.1243372 0.41702998
vt 0.005303965 0.41702995
vt 0.121292144 0.41379586
vt 0.12316194 0.41379586
vt 0.124339506 0.41379586
vt 0.0034342343 0.4137959
vt 0.0022579888 0.41055864
vt 0.005304103 0.4137959
vt 0.003434264 0.41055864
vt 0.002257959 0.4074569
vt 0.123162 0.41055867
vt 0.1243372 0.41055867
vt 0.1212922 0.41055867
vt 0.0034342343 0.4074569
vt 0.0022579888 0.4043343
vt 0.0052996846 0.41055864
vt 0.12316194 0.4074569
vt 0.1243372 0.4074569
vt 0.1212922 0.4074569
vt 0.003434264 0.4043343
vt 0.0022579292 0.40122062
vt 0.0052998224 0.4074569
vt 0.12316194 0.40433425
vt 0.1243372 0.40433425
vt 0.1212922 0.40433425
vt 0.0034342343 0.40121326
vt 0.0022505494 0.39800593
vt 0.0052998224 0.4043343
vt 0.123162 0.40121326
vt 0.1243372 0.4012234
vt 0.1212922 0.40121326
vt 0.0034342343 0.39799628
vt 0.002250583 0.21384804
vt 0.0053026835 0.40121302
vt 0.12316194 0.39799628
vt 0.12434457 0.398006
vt 0.1212922 0.39799634
vt 0.003434305 0.21385765
vt 0.0022579888 0.2106305
vt 0.005304032 0.39799628
vt 0.12316194 0.21385765
vt 0.12434463 0.21384804
vt 0.003434305 0.21064068
vt 0.0022579888 0.20751964
vt 0.005302851 0.21385765
vt 0.12129226 0.21385765
vt 0.12316194 0.21064065
vt 0.1243372 0.21063326
vt 0.1212922 0.21064062
vt 0.003434305 0.20751964
vt 0.0022579888 0.2043956
vt 0.005299852 0.21064068
vt 0.12316194 0.20751964
vt 0.1243372 0.20751959
vt 0.1212922 0.20751964
vt 0.003434305 0.2043956
vt 0.0022579888 0.20127928
vt 0.005308048 0.20751964
vt 0.12316194 0.2043956
vt 0.1243372 0.20439559
vt 0.1212922 0.2043956
vt 0.003434305 0.20127924
vt 0.0022556828 0.19805744
vt 0.005299722 0.2043956
vt 0.12316194 0.20127924
vt 0.1243372 0.20127925
vt 0.1212922 0.20127924
vt 0.003434305 0.19805744
vt 0.0022579888 0.19483656
vt 0.0053069936 0.20127924
vt 0.12316194 0.19805741
vt 0.124339506 0.19805743
vt 0.1212922 0.19805741
vt 0.003434305 0.19483659
vt 0.0022579888 0.19172142
vt 0.0053069936 0.19805744
vt 0.12316194 0.19483659
vt 0.1243372 0.19483656
vt 0.12129226 0.19483659
vt 0.003434305 0.19172142
vt 0.0022579888 0.18859905
vt 0.005304103 0.19483659
vt 0.12316194 0.19172142
vt 0.1243372 0.19172142
vt 0.121292144 0.19172142
vt 0.003434305 0.18859905
vt 0.0022579888 0.18548971
vt 0.0053041326 0.19172142
vt 0.12316194 0.18859905
vt 0.1243372 0.18859911
vt 0.12129226 0.18859904
vt 0.003434305 0.18548231
vt 0.002250583 0.18229657
vt 0.005304103 0.18859905
vt 0.12316194 0.18548234
vt 0.1243372 0.1854924
vt 0.12129201 0.18548234
vt 0.003434305 0.18230614
vt 0.0022497 0.0007585702
vt 0.003434305 0.0007585702
vt 0.0053041326 0.18548231
vt 0.005304103 0.18230614
vt 0.0053040655 0.0007585702
vt 0.121292144 0.18230617
vt 0.1212922 0.0007586089
vt 0.12316194 0.18230613
vt 0.12434463 0.18229656
vt 0.123162 0.0007586089
vt 0.12434569 0.00075859606
vn -0.79247904 -0.6022861 -0.096064195
vn -0.92471254 -0.36681208 -0.10176254
vn -0.92362756 -0.37850705 -0.060371406
vn -0.7036182 -0.6773245 -0.21483245
vn -0.9218936 -0.31761053 -0.2218916
vn -0.0016110683 -0.987516 -0.15751015
vn -0.69470644 -0.5760172 -0.43079814
vn -0.91833407 -0.23798619 -0.3162672
vn -0.0016187673 -0.9237023 -0.38310763
vn -0.6855882 -0.41957504 -0.5949164
vn -0.915252 -0.13579245 -0.37930772
vn 0.0016300922 -0.9620009 -0.27304152
vn 0.0016334596 -0.9875158 -0.15751098
vn 0.60084707 -0.78938574 -0.12590788
vn -0.0015833366 -0.75096047 -0.66034526
vn -0.678236 -0.22710209 -0.6988709
vn -0.91379416 -0.021090953 -0.40562955
vn 0.7019021 -0.6662638 -0.2518453
vn 0.9236259 -0.3785105 -0.060372546
vn 0.9239324 -0.35318667 -0.14699686
vn 0.0015894645 -0.8176725 -0.5756815
vn 0.693148 -0.5545104 -0.46050414
vn 0.9206447 -0.2921706 -0.25893962
vn -0.0015456317 -0.5132487 -0.85823864
vn 0.001548911 -0.5984111 -0.8011877
vn 0.6842132 -0.39103127 -0.61558646
vn 0.91710234 -0.20340593 -0.34285462
vn 0.0015159212 -0.33383372 -0.9426307
vn 0.6773792 -0.1945761 -0.70943475
vn 0.91449356 -0.095508784 -0.39316604
vn -0.0015191359 -0.23935224 -0.97093165
vn 0.0015011125 -0.048574805 -0.99881846
vn 0.6751368 0.016892228 -0.73749906
vn 0.913786 0.021089049 -0.40564817
vn -0.67515504 -0.016892299 -0.73748237
vn -0.9144982 0.09550718 -0.39315566
vn -0.0015119404 0.048574843 -0.9988184
vn -0.677387 0.19457604 -0.70942724
vn -0.91710335 0.20340416 -0.34285316
vn 0.67822057 0.22710633 -0.69888455
vn 0.915251 0.1357973 -0.37930825
vn 0.0015085998 0.2393524 -0.97093165
vn -0.6842239 0.39102724 -0.61557734
vn -0.920645 0.2921736 -0.25893497
vn -0.0015261701 0.33383363 -0.9426307
vn 0.68557817 0.41957885 -0.59492534
vn 0.9183321 0.23798662 -0.31627294
vn 0.0015363148 0.5132466 -0.8582398
vn -0.6931557 0.55450726 -0.4604963
vn -0.9239326 0.35318756 -0.14699392
vn -0.0015576778 0.5984102 -0.80118847
vn 0.6946986 0.5760212 -0.43080556
vn 0.9218916 0.31761163 -0.221898
vn 0.0015760959 0.7509609 -0.66034484
vn -0.7019084 0.6662586 -0.25184134
vn -0.92392343 0.3825728 -0.0018409037
vn -0.0015957818 0.81767344 -0.57568014
vn 0.7036163 0.67732567 -0.21483481
vn 0.924712 0.36681303 -0.10176359
vn 0.0016145934 0.9237026 -0.383107
vn -0.7945143 0.60724205 -0.0020459588
vn -0.923892 0.38265285 0.00045226488
vn -0.0016330829 0.96200097 -0.27304116
vn 0.6070674 0.79464895 -0.001504342
vn 0.9238886 0.38266125 -0.00045244946
vn 0.0008335518 0.99999624 -0.002612713
vn -0.6070679 0.79464847 0.0015040588
vn -0.9247132 0.3668093 0.10176668
vn -0.003235237 0.9999914 -0.0025976563
vn 0.79451096 0.6072464 0.0020456032
vn 0.92392 0.38258135 0.0018405752
vn -0.7036165 0.67732507 0.21483622
vn -0.92188936 0.31761646 0.22190025
vn -0.0008335947 0.9999963 0.0026122453
vn 0.0032352 0.9999914 0.002597189
vn 0.7019035 0.66626465 0.25183922
vn 0.9239284 0.35319868 0.14699358
vn 0.0016330779 0.96200085 0.27304175
vn -0.6946989 0.57602143 0.43080467
vn -0.9183317 0.23798883 0.3162724
vn -0.0016145777 0.9237027 0.38310653
vn 0.69315803 0.5545077 0.46049234
vn 0.9206448 0.29217556 0.25893372
vn 0.0015958339 0.8176738 0.5756795
vn -0.6855838 0.41957763 0.5949196
vn -0.9152516 0.13579808 0.37930644
vn -0.0015760362 0.7509609 0.6603448
vn 0.68422604 0.39102373 0.61557704
vn 0.91709787 0.20340826 0.34286523
vn 0.0015577863 0.59840894 0.80118936
vn -0.6782222 0.22710617 0.69888306
vn -0.9137906 0.021090081 0.40563774
vn -0.0015361941 0.51324517 0.8582407
vn 0.6773812 0.1945757 0.70943296
vn 0.91449064 0.09551098 0.3931725
vn 0.0015263116 0.333832 0.9426314
vn -0.67513746 0.016893258 0.73749846
vn -0.91449594 -0.095509045 0.39316037
vn -0.0015084251 0.23935239 0.97093165
vn 0.6751518 -0.016892668 0.73748547
vn 0.9137887 -0.021093229 0.40564182
vn 0.001512165 0.04857578 0.99881834
vn -0.67737496 -0.19457947 0.7094379
vn -0.9171023 -0.20340757 0.34285384
vn -0.0015009211 -0.048574805 0.99881846
vn 0.67823 -0.22710058 0.6988773
vn 0.91524345 -0.13579446 0.3793273
vn 0.0015193288 -0.23935229 0.97093165
vn -0.6842134 -0.39103228 0.6155858
vn -0.92064023 -0.29218104 0.25894374
vn -0.0015157408 -0.33383298 0.942631
vn 0.6855867 -0.41957277 0.59491974
vn 0.91833127 -0.23799013 0.31627268
vn 0.001545823 -0.5132465 0.8582399
vn -0.69314796 -0.5545121 0.46050212
vn -0.9239305 -0.35319006 0.14700048
vn -0.0015487729 -0.5984097 0.8011889
vn 0.69470626 -0.57601947 0.43079567
vn 0.9218917 -0.31761727 0.22188975
vn 0.0015834718 -0.7509603 0.66034555
vn -0.7019054 -0.6662594 0.25184774
vn -0.9239235 -0.38257277 0.0018401793
vn -0.0015893534 -0.8176731 0.5756806
vn 0.7036159 -0.677327 0.21483193
vn 0.9247072 -0.36682522 0.10176408
vn 0.0016188642 -0.9237023 0.3831076
vn -0.79451245 -0.6072445 0.0020452086
vn -0.9238811 -0.38267943 -4.0400732E-07
vn -0.6037257 -0.79719216 -1.3894666E-07
vn -0.0016300275 -0.9620006 0.2730422
vn -0.0032351762 -0.9999915 0.0025976577
vn -0.0008203045 -0.99999964 2.3683856E-07
vn 0.00083362067 -0.99999624 0.00261272
vn 0.0032613878 -0.99999475 2.61772E-07
vn 0.60706675 -0.79464936 0.0015048629
vn 0.92388856 -0.38266143 0.000453261
vn 0.7971331 -0.60380363 5.414926E-07
vn 0.9238778 -0.38268775 5.450889E-07
g _0
f 3/3/3 2/2/2 1/1/1
f 2/2/2 4/4/4 1/1/1
f 4/4/4 2/2/2 5/5/5
f 1/1/1 4/4/4 6/6/6
f 7/7/7 4/4/4 5/5/5
f 7/7/7 5/5/5 8/8/8
f 4/4/4 9/9/9 6/6/6
f 9/9/9 4/4/4 7/7/7
f 10/10/10 7/7/7 8/8/8
f 10/10/10 8/8/8 11/11/11
f 6/6/6 9/9/9 12/12/12
f 13/13/13 6/6/6 12/12/12
f 13/13/13 12/12/12 14/14/14
f 15/15/15 9/9/9 7/7/7
f 15/15/15 7/7/7 10/10/10
f 16/16/16 10/10/10 11/11/11
f 16/16/16 11/11/11 17/17/17
f 12/12/12 18/18/18 14/14/14
f 14/14/14 18/18/18 19/19/19
f 18/18/18 20/20/20 19/19/19
f 12/12/12 9/9/9 21/21/21
f 18/18/18 12/12/12 21/21/21
f 9/9/9 15/15/15 21/21/21
f 20/20/20 18/18/18 22/22/22
f 22/22/22 18/18/18 21/21/21
f 23/23/23 20/20/20 22/22/22
f 24/24/24 15/15/15 10/10/10
f 24/24/24 10/10/10 16/16/16
f 21/21/21 15/15/15 25/25/25
f 22/22/22 21/21/21 25/25/25
f 15/15/15 24/24/24 25/25/25
f 23/23/23 22/22/22 26/26/26
f 26/26/26 22/22/22 25/25/25
f 27/27/27 23/23/23 26/26/26
f 25/25/25 24/24/24 28/28/28
f 26/26/26 25/25/25 28/28/28
f 27/27/27 26/26/26 29/29/29
f 29/29/29 26/26/26 28/28/28
f 30/30/30 27/27/27 29/29/29
f 31/31/31 24/24/24 16/16/16
f 24/24/24 31/31/31 28/28/28
f 29/29/29 28/28/28 32/32/32
f 28/28/28 31/31/31 32/32/32
f 30/30/30 29/29/29 33/33/33
f 33/33/33 29/29/29 32/32/32
f 34/34/34 30/30/30 33/33/33
f 31/31/31 16/16/16 35/35/35
f 35/35/35 16/16/16 17/17/17
f 35/35/35 17/17/17 36/36/36
f 31/31/31 37/37/37 32/32/32
f 37/37/37 31/31/31 35/35/35
f 38/38/38 35/35/35 36/36/36
f 37/37/37 35/35/35 38/38/38
f 36/36/36 39/39/39 38/38/38
f 33/33/33 40/40/40 34/34/34
f 40/40/40 41/41/41 34/34/34
f 32/32/32 42/42/42 33/33/33
f 42/42/42 32/32/32 37/37/37
f 42/42/42 40/40/40 33/33/33
f 39/39/39 43/43/43 38/38/38
f 39/39/39 44/44/44 43/43/43
f 45/45/45 37/37/37 38/38/38
f 45/45/45 42/42/42 37/37/37
f 38/38/38 43/43/43 45/45/45
f 40/40/40 46/46/46 41/41/41
f 46/46/46 47/47/47 41/41/41
f 42/42/42 48/48/48 40/40/40
f 48/48/48 42/42/42 45/45/45
f 48/48/48 46/46/46 40/40/40
f 44/44/44 49/49/49 43/43/43
f 44/44/44 50/50/50 49/49/49
f 43/43/43 51/51/51 45/45/45
f 51/51/51 48/48/48 45/45/45
f 43/43/43 49/49/49 51/51/51
f 46/46/46 52/52/52 47/47/47
f 52/52/52 53/53/53 47/47/47
f 48/48/48 54/54/54 46/46/46
f 54/54/54 48/48/48 51/51/51
f 54/54/54 52/52/52 46/46/46
f 50/50/50 55/55/55 49/49/49
f 55/55/55 50/50/50 56/56/56
f 49/49/49 57/57/57 51/51/51
f 57/57/57 54/54/54 51/51/51
f 49/49/49 55/55/55 57/57/57
f 52/52/52 58/58/58 53/53/53
f 58/58/58 59/59/59 53/53/53
f 54/54/54 60/60/60 52/52/52
f 60/60/60 54/54/54 57/57/57
f 60/60/60 58/58/58 52/52/52
f 61/61/61 55/55/55 56/56/56
f 61/61/61 56/56/56 62/62/62
f 55/55/55 63/63/63 57/57/57
f 63/63/63 60/60/60 57/57/57
f 63/63/63 55/55/55 61/61/61
f 59/59/59 58/58/58 64/64/64
f 65/65/65 59/59/59 64/64/64
f 58/58/58 60/60/60 66/66/66
f 66/66/66 60/60/60 63/63/63
f 64/64/64 58/58/58 66/66/66
f 67/67/67 61/61/61 62/62/62
f 62/62/62 68/68/68 67/67/67
f 69/69/69 63/63/63 61/61/61
f 69/69/69 66/66/66 63/63/63
f 69/69/69 61/61/61 67/67/67
f 65/65/65 64/64/64 70/70/70
f 71/71/71 65/65/65 70/70/70
f 68/68/68 72/72/72 67/67/67
f 68/68/68 73/73/73 72/72/72
f 74/74/74 69/69/69 67/67/67
f 66/66/66 69/69/69 74/74/74
f 67/67/67 72/72/72 74/74/74
f 64/64/64 66/66/66 75/75/75
f 70/70/70 64/64/64 75/75/75
f 75/75/75 66/66/66 74/74/74
f 70/70/70 76/76/76 71/71/71
f 76/76/76 77/77/77 71/71/71
f 75/75/75 78/78/78 70/70/70
f 78/78/78 75/75/75 74/74/74
f 78/78/78 76/76/76 70/70/70
f 73/73/73 79/79/79 72/72/72
f 73/73/73 80/80/80 79/79/79
f 72/72/72 81/81/81 74/74/74
f 81/81/81 78/78/78 74/74/74
f 72/72/72 79/79/79 81/81/81
f 76/76/76 82/82/82 77/77/77
f 82/82/82 83/83/83 77/77/77
f 78/78/78 84/84/84 76/76/76
f 84/84/84 78/78/78 81/81/81
f 84/84/84 82/82/82 76/76/76
f 80/80/80 85/85/85 79/79/79
f 80/80/80 86/86/86 85/85/85
f 79/79/79 87/87/87 81/81/81
f 87/87/87 84/84/84 81/81/81
f 79/79/79 85/85/85 87/87/87
f 82/82/82 88/88/88 83/83/83
f 88/88/88 89/89/89 83/83/83
f 84/84/84 90/90/90 82/82/82
f 90/90/90 84/84/84 87/87/87
f 90/90/90 88/88/88 82/82/82
f 86/86/86 91/91/91 85/85/85
f 86/86/86 92/92/92 91/91/91
f 85/85/85 93/93/93 87/87/87
f 93/93/93 90/90/90 87/87/87
f 85/85/85 91/91/91 93/93/93
f 88/88/88 94/94/94 89/89/89
f 94/94/94 95/95/95 89/89/89
f 90/90/90 96/96/96 88/88/88
f 96/96/96 90/90/90 93/93/93
f 96/96/96 94/94/94 88/88/88
f 92/92/92 97/97/97 91/91/91
f 92/92/92 98/98/98 97/97/97
f 91/91/91 99/99/99 93/93/93
f 99/99/99 96/96/96 93/93/93
f 91/91/91 97/97/97 99/99/99
f 94/94/94 100/100/100 95/95/95
f 100/100/100 101/101/101 95/95/95
f 96/96/96 102/102/102 94/94/94
f 102/102/102 96/96/96 99/99/99
f 102/102/102 100/100/100 94/94/94
f 98/98/98 103/103/103 97/97/97
f 98/98/98 104/104/104 103/103/103
f 97/97/97 105/105/105 99/99/99
f 105/105/105 102/102/102 99/99/99
f 97/97/97 103/103/103 105/105/105
f 100/100/100 106/106/106 101/101/101
f 106/106/106 107/107/107 101/101/101
f 102/102/102 108/108/108 100/100/100
f 108/108/108 102/102/102 105/105/105
f 108/108/108 106/106/106 100/100/100
f 104/104/104 109/109/109 103/103/103
f 104/104/104 110/110/110 109/109/109
f 103/103/103 111/111/111 105/105/105
f 111/111/111 108/108/108 105/105/105
f 103/103/103 109/109/109 111/111/111
f 106/106/106 112/112/112 107/107/107
f 112/112/112 113/113/113 107/107/107
f 108/108/108 114/114/114 106/106/106
f 114/114/114 108/108/108 111/111/111
f 114/114/114 112/112/112 106/106/106
f 110/110/110 115/115/115 109/109/109
f 110/110/110 116/116/116 115/115/115
f 109/109/109 117/117/117 111/111/111
f 117/117/117 114/114/114 111/111/111
f 109/109/109 115/115/115 117/117/117
f 112/112/112 118/118/118 113/113/113
f 118/118/118 119/119/119 113/113/113
f 114/114/114 120/120/120 112/112/112
f 120/120/120 114/114/114 117/117/117
f 120/120/120 118/118/118 112/112/112
f 116/116/116 121/121/121 115/115/115
f 121/121/121 116/116/116 122/122/122
f 115/115/115 123/123/123 117/117/117
f 123/123/123 120/120/120 117/117/117
f 115/115/115 121/121/121 123/123/123
f 118/118/118 124/124/124 119/119/119
f 124/124/124 125/125/125 119/119/119
f 120/120/120 126/126/126 118/118/118
f 126/126/126 120/120/120 123/123/123
f 126/126/126 124/124/124 118/118/118
f 127/127/127 121/121/121 122/122/122
f 122/122/122 128/128/128 127/127/127
f 128/128/128 129/129/129 127/127/127
f 121/121/121 130/130/130 123/123/123
f 130/130/130 126/126/126 123/123/123
f 130/130/130 121/121/121 127/127/127
f 127/127/127 129/129/129 131/131/131
f 131/131/131 130/130/130 127/127/127
f 129/129/129 132/132/132 131/131/131
f 133/133/133 126/126/126 130/130/130
f 131/131/131 133/133/133 130/130/130
f 131/131/131 132/132/132 133/133/133
f 124/124/124 126/126/126 133/133/133
f 132/132/132 134/134/134 133/133/133
f 125/125/125 124/124/124 135/135/135
f 135/135/135 124/124/124 133/133/133
f 133/133/133 134/134/134 135/135/135
f 136/136/136 125/125/125 135/135/135
f 134/134/134 137/137/137 135/135/135
f 135/135/135 137/137/137 136/136/136
f 137/137/137 138/138/138 136/136/136
