g 
v -2.9999967 0.020659827 -3.347804
v -3.0205464 0.091761954 -3.7867515
v -3.0205464 0.07027195 -3.3366358
v -2.9999967 0.043861467 -3.8337677
v -3.0205464 0.15808563 -4.187524
v -2.9503844 0.000109829474 -3.3524332
v -2.9999964 0.11744853 -4.2784305
v -3.0205462 0.26167122 -4.5064597
v -2.9503846 0.024020473 -3.853244
v -2.9999964 0.23214637 -4.6315804
v -3.0205462 0.39219514 -4.7112308
v 2.9503882 0.024020577 -3.8534703
v 2.9503877 0.000109829474 -3.3526623
v 3 0.020659778 -3.3480392
v -2.9503844 0.10061615 -4.3160872
v -2.9999964 0.37667426 -4.8583207
v -3.0205462 0.5369323 -4.781784
v 3.0000007 0.043861795 -3.8339982
v 3.0205503 0.07027182 -3.3368723
v 3.0205505 0.09176257 -3.786985
v 2.9503877 0.10061626 -4.316316
v 2.9999998 0.117448896 -4.2786655
v 3.02055 0.15808633 -4.1877604
v -2.9503844 0.21991684 -4.683408
v 2.9503865 0.2199169 -4.683634
v 2.999999 0.23214664 -4.631809
v 3.0205493 0.26167175 -4.506692
v 2.950388 0.3702454 -4.9194765
v 3.0000002 0.37667453 -4.858551
v 3.02055 0.39219567 -4.711461
v -2.9503846 0.37024534 -4.9192505
v 2.9503868 0.53693235 -5.0007286
v 2.9999993 0.53693235 -4.9366703
v 3.02055 0.53693235 -4.7820163
v -2.9999964 0.5369323 -4.936441
v -3.0205462 0.68166924 -4.7112308
v -2.9503846 0.5369323 -5.0005026
v -2.9999964 0.6971901 -4.8583207
v -3.0205462 0.81219333 -4.5064583
v 3.0000002 0.69719 -4.858551
v 3.02055 0.6816688 -4.711461
v 2.9503877 0.70361906 -4.9194765
v -2.9999964 0.84171814 -4.631579
v -3.0205464 0.9157792 -4.187524
v -2.9503844 0.703619 -4.9192505
v 2.999999 0.84171796 -4.631809
v 3.0205493 0.8121929 -4.5066905
v 2.9503863 0.85394776 -4.683634
v -2.9999964 0.95641637 -4.2784305
v -3.0205464 0.9821023 -3.7867515
v -2.9503844 0.8539477 -4.683408
v 2.9999995 0.9564162 -4.2786655
v 3.02055 0.91577864 -4.1877604
v 2.9503875 0.9732488 -4.316316
v -2.9999964 1.030003 -3.8337677
v -3.0205464 1.0035926 -3.3366358
v -2.9503844 0.9732488 -4.3160872
v 3.0000007 1.0300028 -3.8339982
v 3.0205505 0.98210186 -3.786985
v 2.9503882 1.0498441 -3.8534703
v -2.9999967 1.0532048 -3.347804
v -3.020551 1.0035944 3.3419793
v -2.9503844 1.049844 -3.853244
v 3 1.0532049 -3.3480392
v 3.0205503 1.0035927 -3.3368723
v 2.9503877 1.0737548 -3.3526623
v -3.000001 1.0532067 3.353146
v -3.02055 0.9821037 3.7920904
v -2.9503844 1.0737548 -3.3524332
v 2.999996 1.053207 3.3529067
v 3.020546 1.003595 3.3417385
v -3.0000007 1.0300046 3.8391051
v -3.0205503 0.9157809 4.1928673
v -2.9503887 1.0737567 3.3577693
v 2.950384 1.0737572 3.3575358
v 2.9999964 1.0300056 3.8388658
v 3.020547 0.9821052 3.7918496
v 2.9503844 1.0498464 3.8583438
v -2.9999998 0.9564182 4.283771
v -3.0205498 0.8121948 4.5117955
v -2.9503882 1.049846 3.8585758
v 2.9999976 0.95641863 4.283533
v 3.020547 0.9157812 4.192625
v 2.9503853 0.97325116 4.32119
v -2.9999995 0.8417199 4.636916
v -3.0205503 0.6816707 4.716568
v -2.9503872 0.97325075 4.321423
v 2.9999976 0.8417206 4.636677
v 3.0205479 0.81219584 4.511558
v 2.9503858 0.85395014 4.688507
v -3.0000005 0.6971919 4.863658
v -3.0205505 0.5369343 4.787123
v -2.9503868 0.85394967 4.6887407
v 2.9999964 0.69719255 4.86342
v 3.0205467 0.68167174 4.7163315
v 2.9503844 0.70362145 4.9243484
v -3 0.5369343 4.941777
v -3.0205503 0.39219764 4.716568
v -2.9503882 0.70362103 4.924582
v 2.9999974 0.53693473 4.941538
v 3.0205467 0.53693473 4.7868824
v 2.9503856 0.53693473 5.005602
v -3.0000005 0.3766765 4.863658
v -3.0205495 0.26167378 4.5117974
v -2.9503872 0.5369343 5.0058355
v 2.9999964 0.37667668 4.86342
v 3.0205467 0.3921975 4.7163315
v 2.9503846 0.3702478 4.9243484
v -2.9999995 0.23214869 4.636916
v -3.0205503 0.1580879 4.1928673
v -2.9503884 0.37024736 4.924582
v 2.9999976 0.23214887 4.636678
v 3.0205479 0.2616736 4.5115595
v 2.950386 0.21991938 4.688507
v -2.9999998 0.11745063 4.283771
v -3.02055 0.091764756 3.7920904
v -2.9503868 0.21991895 4.6887407
v 2.9999976 0.11745109 4.283533
v 3.0205467 0.15808837 4.1926265
v 2.9503853 0.100618556 4.32119
v -3.0000007 0.043863844 3.8391051
v -3.020551 0.070273966 3.3419793
v -2.9503872 0.10061815 4.321423
v 2.9999967 0.043863792 3.8388658
v 3.020547 0.09176407 3.7918496
v 2.9503846 0.024022948 3.8583438
v -3.000001 0.020661801 3.353146
v -3.0205464 0.07027195 -3.3366358
v -2.9999967 0.020659827 -3.347804
v -2.9503884 0.024022534 3.8585758
v -2.9503887 0.0001117629 3.3577693
v -2.9503844 0.000109829474 -3.3524332
v 2.950384 0.00011217641 3.3575358
v 2.9503877 0.000109829474 -3.3526623
v 2.999996 0.020662181 3.3529067
v 3.020546 0.07027429 3.3417385
v 3 0.020659778 -3.3480392
v 3.0205503 0.07027182 -3.3368723
vt 0.003434264 0.31486785
vt 0.002257959 0.30849123
vt 0.002250583 0.31484887
vt 0.003434264 0.30851188
vt 0.0022579888 0.30209333
vt 0.005304032 0.31486785
vt 0.003434264 0.30209333
vt 0.002257959 0.29559395
vt 0.0053040655 0.30851197
vt 0.0034342343 0.29559395
vt 0.0022579888 0.28911725
vt 0.121292144 0.30851188
vt 0.1212922 0.31486785
vt 0.123162 0.31486785
vt 0.005304103 0.30209333
vt 0.003434264 0.28911713
vt 0.0022556828 0.28234985
vt 0.12316194 0.30851188
vt 0.12434457 0.31484875
vt 0.1243372 0.3084966
vt 0.121292144 0.30209333
vt 0.12316194 0.30209333
vt 0.1243372 0.30209342
vt 0.0053042294 0.29559395
vt 0.121292144 0.29559395
vt 0.123162 0.29559395
vt 0.124337256 0.29559395
vt 0.121292144 0.28911725
vt 0.12316194 0.28911725
vt 0.1243372 0.28911725
vt 0.005303965 0.28911713
vt 0.121292144 0.28234977
vt 0.12316194 0.28234977
vt 0.124339506 0.28234977
vt 0.0034342343 0.28234985
vt 0.0022579888 0.27557585
vt 0.005304103 0.28234985
vt 0.003434264 0.27557585
vt 0.002257959 0.2690854
vt 0.123162 0.27557594
vt 0.1243372 0.27557594
vt 0.1212922 0.27557594
vt 0.0034342343 0.2690854
vt 0.0022579888 0.2625513
vt 0.0052996846 0.27557585
vt 0.12316194 0.2690854
vt 0.1243372 0.2690854
vt 0.1212922 0.2690854
vt 0.003434264 0.2625513
vt 0.0022579292 0.25603595
vt 0.0052998224 0.2690854
vt 0.12316194 0.26255122
vt 0.1243372 0.26255122
vt 0.1212922 0.26255122
vt 0.0034342343 0.2560205
vt 0.0022505494 0.24930912
vt 0.0052998224 0.2625513
vt 0.123162 0.2560205
vt 0.1243372 0.25604168
vt 0.1212922 0.2560205
vt 0.0034342343 0.24928893
vt 0.002250583 0.18020523
vt 0.0053026835 0.25601998
vt 0.12316194 0.24928893
vt 0.12434457 0.24930923
vt 0.1212922 0.24928904
vt 0.003434305 0.18022531
vt 0.0022579888 0.1734725
vt 0.005304032 0.24928893
vt 0.12316194 0.18022531
vt 0.12434463 0.18020523
vt 0.003434305 0.17349379
vt 0.0022579888 0.16696297
vt 0.005302851 0.18022531
vt 0.12129226 0.18022531
vt 0.12316194 0.17349371
vt 0.1243372 0.17347822
vt 0.1212922 0.17349368
vt 0.003434305 0.16696295
vt 0.0022579888 0.16042584
vt 0.005299852 0.17349379
vt 0.12316194 0.16696295
vt 0.1243372 0.16696288
vt 0.1212922 0.16696295
vt 0.003434305 0.16042589
vt 0.0022579888 0.15390487
vt 0.005308048 0.16696295
vt 0.12316194 0.16042584
vt 0.1243372 0.16042581
vt 0.1212922 0.16042584
vt 0.003434305 0.15390483
vt 0.0022556828 0.14716314
vt 0.005299722 0.16042589
vt 0.12316194 0.15390483
vt 0.1243372 0.15390484
vt 0.1212922 0.15390483
vt 0.003434305 0.14716314
vt 0.0022579888 0.1404234
vt 0.0053069936 0.15390483
vt 0.12316194 0.1471631
vt 0.124339506 0.14716312
vt 0.1212922 0.1471631
vt 0.003434305 0.14042345
vt 0.0022579888 0.13390492
vt 0.0053069936 0.14716314
vt 0.12316194 0.14042345
vt 0.1243372 0.1404234
vt 0.12129226 0.14042345
vt 0.003434305 0.13390492
vt 0.0022579888 0.1273713
vt 0.005304103 0.14042345
vt 0.12316194 0.13390492
vt 0.1243372 0.13390492
vt 0.121292144 0.13390492
vt 0.003434305 0.1273713
vt 0.0022579888 0.12086498
vt 0.0053041326 0.13390492
vt 0.12316194 0.1273713
vt 0.1243372 0.12737142
vt 0.12129226 0.12737127
vt 0.003434305 0.12084948
vt 0.002250583 0.114183284
vt 0.005304103 0.1273713
vt 0.12316194 0.120849535
vt 0.1243372 0.120870575
vt 0.12129201 0.120849535
vt 0.003434305 0.114203304
vt 0.0022497 0.000475138
vt 0.003434305 0.000475138
vt 0.0053041326 0.12084948
vt 0.005304103 0.114203304
vt 0.0053040655 0.000475138
vt 0.121292144 0.11420335
vt 0.1212922 0.0004751622
vt 0.12316194 0.114203274
vt 0.12434463 0.114183255
vt 0.123162 0.0004751622
vt 0.12434569 0.00047515414
vn -0.7958287 -0.60483295 -0.02887685
vn -0.9291026 -0.36855325 -0.030605534
vn -0.92516387 -0.37913617 -0.01810121
vn -0.7188829 -0.6920192 -0.06570182
vn -0.94327635 -0.32497856 -0.06796081
vn -0.0034372625 -0.99885625 -0.047689494
vn -0.7620615 -0.63186455 -0.14145508
vn -0.9632382 -0.24962355 -0.09929864
vn -0.003668301 -0.9923751 -0.12320045
vn -0.83275473 -0.50963926 -0.21630381
vn -0.9818078 -0.14566755 -0.121796325
vn 0.0035612695 -0.996404 -0.084655
vn 0.0034848158 -0.9988561 -0.04768972
vn 0.6052298 -0.7951451 -0.037963074
vn -0.0043007075 -0.96705306 -0.25453854
vn -0.9101237 -0.3047478 -0.28071976
vn -0.99102825 -0.0228736 -0.13168153
vn 0.72308975 -0.6863745 -0.07766112
vn 0.9251621 -0.3791405 -0.018101132
vn 0.9331557 -0.35671496 -0.04444087
vn 0.0040120743 -0.9784981 -0.20621674
vn 0.7716252 -0.6172905 -0.15345052
vn 0.950097 -0.3015251 -0.07999055
vn -0.005680162 -0.8942233 -0.44758523
vn 0.005067799 -0.9282183 -0.3720012
vn 0.84541124 -0.4831589 -0.22767836
vn 0.97050023 -0.21525411 -0.10860519
vn 0.007315156 -0.7637134 -0.64551395
vn 0.9202641 -0.26434737 -0.28850356
vn 0.9865423 -0.10303223 -0.12695928
vn -0.008510343 -0.63570493 -0.7718852
vn 0.01045261 -0.16033894 -0.9870067
vn 0.95021 0.023774559 -0.31070197
vn 0.99102736 0.022871636 -0.13168709
vn -0.9502142 -0.023774384 -0.31068927
vn -0.98654264 0.103031814 -0.12695658
vn -0.010528192 0.16033888 -0.9870059
vn -0.92026806 0.2643415 -0.28849646
vn -0.9705019 0.2152473 -0.108603075
vn 0.910118 0.3047577 -0.28072742
vn 0.9818068 0.14567368 -0.12179666
vn 0.008451201 0.6357055 -0.77188545
vn -0.8454195 0.48314697 -0.22767246
vn -0.950098 0.30152223 -0.07998799
vn -0.007364632 0.76371306 -0.64551383
vn 0.8327487 0.5096472 -0.21630856
vn 0.9632368 0.24962778 -0.09930218
vn 0.0056459564 0.8942225 -0.44758713
vn -0.7716297 0.61728567 -0.15344748
vn -0.93315506 0.3567167 -0.044439845
vn -0.005096461 0.92821795 -0.37200198
vn 0.76205546 0.6318712 -0.14145789
vn 0.9432754 0.32498094 -0.06796263
vn 0.0042810393 0.9670532 -0.2545384
vn -0.7230947 0.6863694 -0.077660166
vn -0.9240573 0.38224736 -0.0022441654
vn -0.00402802 0.97849816 -0.20621607
vn 0.718881 0.69202113 -0.06570237
vn 0.92910194 0.36855504 -0.030605588
vn 0.0036588432 0.9923751 -0.12320015
vn -0.7857093 0.61859035 -0.002613149
vn -0.9239277 0.38256657 0.00059386704
vn -0.0035677936 0.9964039 -0.08465485
vn 0.61784697 0.78629595 -0.0019224243
vn 0.9239259 0.38257116 -0.0005940559
vn 0.001852704 0.9999928 -0.003328664
vn -0.6178477 0.7862955 0.0019220333
vn -0.92910475 0.36854813 0.03060577
vn -0.006614118 0.99997276 -0.0032905529
vn 0.7857084 0.6185916 0.0026127049
vn 0.9240552 0.3822524 0.0022437337
vn -0.7188824 0.69201976 0.065702386
vn -0.9432755 0.3249809 0.067961834
vn -0.0018527928 0.9999928 0.00332807
vn 0.0066140424 0.9999727 0.00328996
vn 0.72308993 0.68637455 0.07765909
vn 0.933154 0.35671976 0.04443851
vn 0.0035677834 0.9964039 0.084654935
vn -0.7620534 0.6318737 0.14145802
vn -0.963237 0.24962732 0.09930169
vn -0.0036588092 0.9923752 0.1231999
vn 0.77163273 0.6172819 0.15344597
vn 0.95009947 0.30151805 0.079986475
vn 0.004028133 0.9784982 0.20621584
vn -0.8327494 0.50964636 0.21630763
vn -0.98180693 0.14567319 0.12179623
vn -0.004280916 0.9670531 0.25453877
vn 0.8454206 0.48314452 0.22767346
vn 0.97050047 0.21525216 0.10860674
vn 0.0050968626 0.9282173 0.3720036
vn -0.91011775 0.30475834 0.28072757
vn -0.9910276 0.022872647 0.13168605
vn -0.005645431 0.8942219 0.44758832
vn 0.9202661 0.26434398 0.2885002
vn 0.98654234 0.10303256 0.12695879
vn 0.007365352 0.7637122 0.6455148
vn -0.95021 0.023774767 0.31070226
vn -0.98654217 -0.10303391 0.12695862
vn -0.008450131 0.6357069 0.77188426
vn 0.95021427 -0.023775758 0.310689
vn 0.9910281 -0.02287564 0.13168173
vn 0.01052962 0.16034162 0.9870055
vn -0.92026395 -0.26434833 0.28850344
vn -0.97050095 -0.21525095 0.10860408
vn -0.010451248 -0.16034162 0.9870061
vn 0.91012305 -0.30474755 0.28072238
vn 0.98180723 -0.14566773 0.121801056
vn 0.008511349 -0.63570637 0.771884
vn -0.84541094 -0.48315933 0.22767827
vn -0.95009583 -0.30152866 0.07999026
vn -0.007314168 -0.76371276 0.6455148
vn 0.83275497 -0.5096378 0.2163062
vn 0.96323806 -0.24962346 0.09929948
vn 0.0056808586 -0.89422196 0.44758788
vn -0.7716227 -0.61729354 0.15345052
vn -0.9331571 -0.35671112 0.04444071
vn -0.0050673503 -0.9282176 0.37200305
vn 0.7620617 -0.63186455 0.14145352
vn 0.94327784 -0.3249749 0.06795754
vn 0.004301057 -0.967053 0.2545388
vn -0.7230927 -0.6863714 0.077661864
vn -0.92405605 -0.38225022 0.0022431994
vn -0.004011824 -0.9784982 0.20621611
vn 0.7188832 -0.6920189 0.065700956
vn 0.92909986 -0.36856046 0.030605417
vn 0.0036685092 -0.99237514 0.1232003
vn -0.7857089 -0.6185909 0.002612214
vn -0.92388034 -0.3826814 -4.949012E-07
vn -0.6036484 -0.7972506 -1.5370883E-07
vn -0.003561116 -0.996404 0.084655225
vn -0.0066137924 -0.99997276 0.0032905515
vn -0.0017339706 -0.99999845 3.1770574E-07
vn 0.0018530474 -0.9999928 0.0033286752
vn 0.0068451916 -0.9999766 3.5383496E-07
vn 0.61784714 -0.78629583 0.0019230339
vn 0.9239258 -0.38257125 0.0005950987
vn 0.7969915 -0.6039905 7.126306E-07
vn 0.92387766 -0.38268784 7.354024E-07
g _0
f 3/3/3 2/2/2 1/1/1
f 2/2/2 4/4/4 1/1/1
f 4/4/4 2/2/2 5/5/5
f 1/1/1 4/4/4 6/6/6
f 7/7/7 4/4/4 5/5/5
f 7/7/7 5/5/5 8/8/8
f 4/4/4 9/9/9 6/6/6
f 9/9/9 4/4/4 7/7/7
f 10/10/10 7/7/7 8/8/8
f 10/10/10 8/8/8 11/11/11
f 6/6/6 9/9/9 12/12/12
f 13/13/13 6/6/6 12/12/12
f 13/13/13 12/12/12 14/14/14
f 15/15/15 9/9/9 7/7/7
f 15/15/15 7/7/7 10/10/10
f 16/16/16 10/10/10 11/11/11
f 16/16/16 11/11/11 17/17/17
f 12/12/12 18/18/18 14/14/14
f 14/14/14 18/18/18 19/19/19
f 18/18/18 20/20/20 19/19/19
f 12/12/12 9/9/9 21/21/21
f 18/18/18 12/12/12 21/21/21
f 9/9/9 15/15/15 21/21/21
f 20/20/20 18/18/18 22/22/22
f 22/22/22 18/18/18 21/21/21
f 23/23/23 20/20/20 22/22/22
f 24/24/24 15/15/15 10/10/10
f 24/24/24 10/10/10 16/16/16
f 21/21/21 15/15/15 25/25/25
f 22/22/22 21/21/21 25/25/25
f 15/15/15 24/24/24 25/25/25
f 23/23/23 22/22/22 26/26/26
f 26/26/26 22/22/22 25/25/25
f 27/27/27 23/23/23 26/26/26
f 25/25/25 24/24/24 28/28/28
f 26/26/26 25/25/25 28/28/28
f 27/27/27 26/26/26 29/29/29
f 29/29/29 26/26/26 28/28/28
f 30/30/30 27/27/27 29/29/29
f 31/31/31 24/24/24 16/16/16
f 24/24/24 31/31/31 28/28/28
f 29/29/29 28/28/28 32/32/32
f 28/28/28 31/31/31 32/32/32
f 30/30/30 29/29/29 33/33/33
f 33/33/33 29/29/29 32/32/32
f 34/34/34 30/30/30 33/33/33
f 31/31/31 16/16/16 35/35/35
f 35/35/35 16/16/16 17/17/17
f 35/35/35 17/17/17 36/36/36
f 31/31/31 37/37/37 32/32/32
f 37/37/37 31/31/31 35/35/35
f 38/38/38 35/35/35 36/36/36
f 37/37/37 35/35/35 38/38/38
f 36/36/36 39/39/39 38/38/38
f 33/33/33 40/40/40 34/34/34
f 40/40/40 41/41/41 34/34/34
f 32/32/32 42/42/42 33/33/33
f 42/42/42 32/32/32 37/37/37
f 42/42/42 40/40/40 33/33/33
f 39/39/39 43/43/43 38/38/38
f 39/39/39 44/44/44 43/43/43
f 45/45/45 37/37/37 38/38/38
f 45/45/45 42/42/42 37/37/37
f 38/38/38 43/43/43 45/45/45
f 40/40/40 46/46/46 41/41/41
f 46/46/46 47/47/47 41/41/41
f 42/42/42 48/48/48 40/40/40
f 48/48/48 42/42/42 45/45/45
f 48/48/48 46/46/46 40/40/40
f 44/44/44 49/49/49 43/43/43
f 44/44/44 50/50/50 49/49/49
f 43/43/43 51/51/51 45/45/45
f 51/51/51 48/48/48 45/45/45
f 43/43/43 49/49/49 51/51/51
f 46/46/46 52/52/52 47/47/47
f 52/52/52 53/53/53 47/47/47
f 48/48/48 54/54/54 46/46/46
f 54/54/54 48/48/48 51/51/51
f 54/54/54 52/52/52 46/46/46
f 50/50/50 55/55/55 49/49/49
f 55/55/55 50/50/50 56/56/56
f 49/49/49 57/57/57 51/51/51
f 57/57/57 54/54/54 51/51/51
f 49/49/49 55/55/55 57/57/57
f 52/52/52 58/58/58 53/53/53
f 58/58/58 59/59/59 53/53/53
f 54/54/54 60/60/60 52/52/52
f 60/60/60 54/54/54 57/57/57
f 60/60/60 58/58/58 52/52/52
f 61/61/61 55/55/55 56/56/56
f 61/61/61 56/56/56 62/62/62
f 55/55/55 63/63/63 57/57/57
f 63/63/63 60/60/60 57/57/57
f 63/63/63 55/55/55 61/61/61
f 59/59/59 58/58/58 64/64/64
f 65/65/65 59/59/59 64/64/64
f 58/58/58 60/60/60 66/66/66
f 66/66/66 60/60/60 63/63/63
f 64/64/64 58/58/58 66/66/66
f 67/67/67 61/61/61 62/62/62
f 62/62/62 68/68/68 67/67/67
f 69/69/69 63/63/63 61/61/61
f 69/69/69 66/66/66 63/63/63
f 69/69/69 61/61/61 67/67/67
f 65/65/65 64/64/64 70/70/70
f 71/71/71 65/65/65 70/70/70
f 68/68/68 72/72/72 67/67/67
f 68/68/68 73/73/73 72/72/72
f 74/74/74 69/69/69 67/67/67
f 66/66/66 69/69/69 74/74/74
f 67/67/67 72/72/72 74/74/74
f 64/64/64 66/66/66 75/75/75
f 70/70/70 64/64/64 75/75/75
f 75/75/75 66/66/66 74/74/74
f 70/70/70 76/76/76 71/71/71
f 76/76/76 77/77/77 71/71/71
f 75/75/75 78/78/78 70/70/70
f 78/78/78 75/75/75 74/74/74
f 78/78/78 76/76/76 70/70/70
f 73/73/73 79/79/79 72/72/72
f 73/73/73 80/80/80 79/79/79
f 72/72/72 81/81/81 74/74/74
f 81/81/81 78/78/78 74/74/74
f 72/72/72 79/79/79 81/81/81
f 76/76/76 82/82/82 77/77/77
f 82/82/82 83/83/83 77/77/77
f 78/78/78 84/84/84 76/76/76
f 84/84/84 78/78/78 81/81/81
f 84/84/84 82/82/82 76/76/76
f 80/80/80 85/85/85 79/79/79
f 80/80/80 86/86/86 85/85/85
f 79/79/79 87/87/87 81/81/81
f 87/87/87 84/84/84 81/81/81
f 79/79/79 85/85/85 87/87/87
f 82/82/82 88/88/88 83/83/83
f 88/88/88 89/89/89 83/83/83
f 84/84/84 90/90/90 82/82/82
f 90/90/90 84/84/84 87/87/87
f 90/90/90 88/88/88 82/82/82
f 86/86/86 91/91/91 85/85/85
f 86/86/86 92/92/92 91/91/91
f 85/85/85 93/93/93 87/87/87
f 93/93/93 90/90/90 87/87/87
f 85/85/85 91/91/91 93/93/93
f 88/88/88 94/94/94 89/89/89
f 94/94/94 95/95/95 89/89/89
f 90/90/90 96/96/96 88/88/88
f 96/96/96 90/90/90 93/93/93
f 96/96/96 94/94/94 88/88/88
f 92/92/92 97/97/97 91/91/91
f 92/92/92 98/98/98 97/97/97
f 91/91/91 99/99/99 93/93/93
f 99/99/99 96/96/96 93/93/93
f 91/91/91 97/97/97 99/99/99
f 94/94/94 100/100/100 95/95/95
f 100/100/100 101/101/101 95/95/95
f 96/96/96 102/102/102 94/94/94
f 102/102/102 96/96/96 99/99/99
f 102/102/102 100/100/100 94/94/94
f 98/98/98 103/103/103 97/97/97
f 98/98/98 104/104/104 103/103/103
f 97/97/97 105/105/105 99/99/99
f 105/105/105 102/102/102 99/99/99
f 97/97/97 103/103/103 105/105/105
f 100/100/100 106/106/106 101/101/101
f 106/106/106 107/107/107 101/101/101
f 102/102/102 108/108/108 100/100/100
f 108/108/108 102/102/102 105/105/105
f 108/108/108 106/106/106 100/100/100
f 104/104/104 109/109/109 103/103/103
f 104/104/104 110/110/110 109/109/109
f 103/103/103 111/111/111 105/105/105
f 111/111/111 108/108/108 105/105/105
f 103/103/103 109/109/109 111/111/111
f 106/106/106 112/112/112 107/107/107
f 112/112/112 113/113/113 107/107/107
f 108/108/108 114/114/114 106/106/106
f 114/114/114 108/108/108 111/111/111
f 114/114/114 112/112/112 106/106/106
f 110/110/110 115/115/115 109/109/109
f 110/110/110 116/116/116 115/115/115
f 109/109/109 117/117/117 111/111/111
f 117/117/117 114/114/114 111/111/111
f 109/109/109 115/115/115 117/117/117
f 112/112/112 118/118/118 113/113/113
f 118/118/118 119/119/119 113/113/113
f 114/114/114 120/120/120 112/112/112
f 120/120/120 114/114/114 117/117/117
f 120/120/120 118/118/118 112/112/112
f 116/116/116 121/121/121 115/115/115
f 121/121/121 116/116/116 122/122/122
f 115/115/115 123/123/123 117/117/117
f 123/123/123 120/120/120 117/117/117
f 115/115/115 121/121/121 123/123/123
f 118/118/118 124/124/124 119/119/119
f 124/124/124 125/125/125 119/119/119
f 120/120/120 126/126/126 118/118/118
f 126/126/126 120/120/120 123/123/123
f 126/126/126 124/124/124 118/118/118
f 127/127/127 121/121/121 122/122/122
f 122/122/122 128/128/128 127/127/127
f 128/128/128 129/129/129 127/127/127
f 121/121/121 130/130/130 123/123/123
f 130/130/130 126/126/126 123/123/123
f 130/130/130 121/121/121 127/127/127
f 127/127/127 129/129/129 131/131/131
f 131/131/131 130/130/130 127/127/127
f 129/129/129 132/132/132 131/131/131
f 133/133/133 126/126/126 130/130/130
f 131/131/131 133/133/133 130/130/130
f 131/131/131 132/132/132 133/133/133
f 124/124/124 126/126/126 133/133/133
f 132/132/132 134/134/134 133/133/133
f 125/125/125 124/124/124 135/135/135
f 135/135/135 124/124/124 133/133/133
f 133/133/133 134/134/134 135/135/135
f 136/136/136 125/125/125 135/135/135
f 134/134/134 137/137/137 135/135/135
f 135/135/135 137/137/137 136/136/136
f 137/137/137 138/138/138 136/136/136
