g Mesh_BoomBlasterCollision
v 2.0179854E-08 0.6025532 1.2150432
v -4.7902127E-11 0.6913155 -6.9169204E-10
v 0.60752165 0.6025532 1.0522583
v 0.60752165 0.6025532 1.0522583
v -4.7902127E-11 0.6913155 -6.9169204E-10
v 1.0522584 0.6025532 0.60752183
v 1.6626543 -0.94682217 2.8798018
v 2.879802 -0.94682217 1.6626545
v 3.3253093 -0.94682217 -1.6960742E-07
v -2.8798018 -0.94682217 1.6626545
v -3.3253088 -0.94682217 7.9156344E-08
v -4 -0.65 0
v -2.32 0.41294354 -5.361626E-08
v -3.4641016 -0.65 2
v -2.0091789 0.41294354 1.1599997
v -3.4641016 -0.65 2
v -2.0091789 0.41294354 1.1599997
v -2 -0.65 3.4641018
v -1.1599998 0.41294354 2.009179
v -2 -0.65 3.4641018
v -1.1599998 0.41294354 2.009179
v -0 -0.65 4
v -1.1020189E-07 0.41294354 2.3199997
v -0 -0.65 4
v -1.1020189E-07 0.41294354 2.3199997
v 2 -0.65 3.4641016
v 1.1599998 0.41294354 2.0091786
v 2 -0.65 3.4641016
v 1.1599998 0.41294354 2.0091786
v 3.4641018 -0.65 2.0000002
v 2.0091786 0.41294354 1.1600001
v 3.4641018 -0.65 2.0000002
v 2.0091786 0.41294354 1.1600001
v 4 -0.65 -3.496911E-07
v 2.3199997 0.41294354 -2.3999158E-07
v 4 -0.65 -3.496911E-07
v 2.3199997 0.41294354 -2.3999158E-07
v 3.4641018 -0.65 -1.9999999
v 2.0091786 0.41294354 -1.1599997
v 3.4641018 -0.65 -1.9999999
v 2.0091786 0.41294354 -1.1599997
v 1.9999995 -0.65 -3.4641018
v 1.1599994 0.41294354 -2.0091789
v 1.9999995 -0.65 -3.4641018
v 1.1599994 0.41294354 -2.0091789
v -0 -0.65 -4
v -1.0113629E-07 0.41294354 -2.32
v -0 -0.65 -4
v -1.0113629E-07 0.41294354 -2.32
v -1.9999995 -0.65 -3.4641018
v -1.1599997 0.41294354 -2.0091786
v -1.9999995 -0.65 -3.4641018
v -1.1599997 0.41294354 -2.0091786
v -3.4641013 -0.65 -2.0000007
v -2.0091786 0.41294354 -1.1600003
v -3.4641013 -0.65 -2.0000007
v -2.0091786 0.41294354 -1.1600003
v -4 -0.65 0
v -2.32 0.41294354 -5.361626E-08
v -2.32 0.41294354 -5.361626E-08
v -1.2150432 0.6025532 -4.6075158E-08
v -2.0091789 0.41294354 1.1599997
v -1.0522581 0.6025532 0.6075216
v -2.0091789 0.41294354 1.1599997
v -1.0522581 0.6025532 0.6075216
v -1.1599998 0.41294354 2.009179
v -0.6075216 0.6025532 1.0522584
v -1.1599998 0.41294354 2.009179
v -0.6075216 0.6025532 1.0522584
v -1.1020189E-07 0.41294354 2.3199997
v 2.0179854E-08 0.6025532 1.2150432
v -1.1020189E-07 0.41294354 2.3199997
v 2.0179854E-08 0.6025532 1.2150432
v 1.1599998 0.41294354 2.0091786
v 0.60752165 0.6025532 1.0522583
v 1.1599998 0.41294354 2.0091786
v 0.60752165 0.6025532 1.0522583
v 2.0091786 0.41294354 1.1600001
v 1.0522584 0.6025532 0.60752183
v 2.0091786 0.41294354 1.1600001
v 1.0522584 0.6025532 0.60752183
v 2.3199997 0.41294354 -2.3999158E-07
v 1.2150437 0.6025532 -1.348972E-07
v 2.3199997 0.41294354 -2.3999158E-07
v 1.2150437 0.6025532 -1.348972E-07
v 2.0091786 0.41294354 -1.1599997
v 1.0522584 0.6025532 -0.6075216
v 2.0091786 0.41294354 -1.1599997
v 1.0522584 0.6025532 -0.6075216
v 1.1599994 0.41294354 -2.0091789
v 0.6075214 0.6025532 -1.0522585
v 1.1599994 0.41294354 -2.0091789
v 0.6075214 0.6025532 -1.0522585
v -1.0113629E-07 0.41294354 -2.32
v 1.0440811E-08 0.6025532 -1.2150433
v -1.0113629E-07 0.41294354 -2.32
v 1.0440811E-08 0.6025532 -1.2150433
v -1.1599997 0.41294354 -2.0091786
v -0.6075214 0.6025532 -1.0522586
v -1.1599997 0.41294354 -2.0091786
v -0.6075214 0.6025532 -1.0522586
v -2.0091786 0.41294354 -1.1600003
v -1.0522583 0.6025532 -0.60752183
v -2.0091786 0.41294354 -1.1600003
v -1.0522583 0.6025532 -0.60752183
v -2.32 0.41294354 -5.361626E-08
v -1.2150432 0.6025532 -4.6075158E-08
v -1.2150432 0.6025532 -4.6075158E-08
v -4.7902127E-11 0.6913155 -6.9169204E-10
v -1.0522581 0.6025532 0.6075216
v -1.0522583 0.6025532 -0.60752183
v -1.0522581 0.6025532 0.6075216
v -4.7902127E-11 0.6913155 -6.9169204E-10
v -0.6075216 0.6025532 1.0522584
v 2.0179854E-08 0.6025532 1.2150432
v 1.0522584 0.6025532 0.60752183
v -4.7902127E-11 0.6913155 -6.9169204E-10
v 1.2150437 0.6025532 -1.348972E-07
v 1.0522584 0.6025532 -0.6075216
v 1.0522584 0.6025532 -0.6075216
v -4.7902127E-11 0.6913155 -6.9169204E-10
v 0.6075214 0.6025532 -1.0522585
v 1.0440811E-08 0.6025532 -1.2150433
v 1.0440811E-08 0.6025532 -1.2150433
v -4.7902127E-11 0.6913155 -6.9169204E-10
v -0.6075214 0.6025532 -1.0522586
v -1.0522583 0.6025532 -0.60752183
v -2.8798018 -0.94682217 1.6626545
v -4 -0.65 0
v -3.4641016 -0.65 2
v -3.3253088 -0.94682217 7.9156344E-08
v -1.6626545 -0.94682217 2.879802
v -3.4641016 -0.65 2
v -2 -0.65 3.4641018
v -2.8798018 -0.94682217 1.6626545
v -3.3253088 -0.94682217 7.9156344E-08
v -3.4641013 -0.65 -2.0000007
v -4 -0.65 0
v -2.879801 -0.94682217 -1.662655
v -2.879801 -0.94682217 -1.662655
v -1.9999995 -0.65 -3.4641018
v -3.4641013 -0.65 -2.0000007
v -1.6626545 -0.94682217 -2.8798025
v -1.6626545 -0.94682217 -2.8798025
v -0 -0.65 -4
v -1.9999995 -0.65 -3.4641018
v -8.66038E-08 -0.94682217 -3.3253088
v -8.66038E-08 -0.94682217 -3.3253088
v 1.9999995 -0.65 -3.4641018
v -0 -0.65 -4
v 1.6626538 -0.94682217 -2.879802
v 1.6626538 -0.94682217 -2.879802
v 3.4641018 -0.65 -1.9999999
v 1.9999995 -0.65 -3.4641018
v 2.8798018 -0.94682217 -1.6626543
v 2.8798018 -0.94682217 -1.6626543
v 4 -0.65 -3.496911E-07
v 3.4641018 -0.65 -1.9999999
v 3.3253093 -0.94682217 -1.6960742E-07
v 3.3253093 -0.94682217 -1.6960742E-07
v 3.4641018 -0.65 2.0000002
v 4 -0.65 -3.496911E-07
v 2.879802 -0.94682217 1.6626545
v 2.879802 -0.94682217 1.6626545
v 2 -0.65 3.4641016
v 3.4641018 -0.65 2.0000002
v 1.6626543 -0.94682217 2.8798018
v 1.6626543 -0.94682217 2.8798018
v -0 -0.65 4
v 2 -0.65 3.4641016
v -4.0002917E-08 -0.94682217 3.3253088
v -4.0002917E-08 -0.94682217 3.3253088
v -2 -0.65 3.4641018
v -0 -0.65 4
v -1.6626545 -0.94682217 2.879802
v 1.6626538 -0.94682217 -2.879802
v 2.8798018 -0.94682217 -1.6626543
v -2.879801 -0.94682217 -1.662655
v -8.66038E-08 -0.94682217 -3.3253088
v -1.6626545 -0.94682217 -2.8798025
v -1.6626545 -0.94682217 2.879802
v -4.0002917E-08 -0.94682217 3.3253088
vt 0.011792359 1.1679307
vt 0.013529518 -0.050349057
vt -0.5956129 1.0047122
vt -0.57447726 1.0169451
vt 0.036917638 -0.036812533
vt -1.0185794 0.5715749
vt 0.9618251 1.6659298
vt 1.6659299 0.9618252
vt 1.9236501 -1.7004487E-07
vt -1.66593 0.9618252
vt -1.9236503 -8.423612E-09
vt -1.0352763 -2.0204372
vt 2.2167385 -0.036188345
vt 1.035276 -2.020437
vt 1.9103951 1.1250019
vt -1.0352758 -2.0204382
vt 1.9103951 1.1250019
vt 1.0352767 -2.0204382
vt 1.099485 1.9251944
vt -1.0352765 -2.0204382
vt 1.099485 1.9251944
vt 1.0352758 -2.0204382
vt -0.018966911 2.2169526
vt -1.0352763 -2.0204372
vt -0.018966911 2.2169526
vt 1.035276 -2.020437
vt -1.1398085 1.9015981
vt -1.0352755 -2.020437
vt -1.1398085 1.9015981
vt 1.0352768 -2.020437
vt -1.942042 1.0694445
vt -1.035277 -2.0204382
vt -1.942042 1.0694445
vt 1.0352759 -2.0204382
vt -2.2167382 -0.036188528
vt -1.0352757 -2.0204372
vt -2.2167382 -0.036188528
vt 1.035276 -2.0204372
vt -1.9103948 -1.1250019
vt -1.0352767 -2.0204377
vt -1.9103948 -1.1250019
vt 1.0352763 -2.0204377
vt -1.0994846 -1.9251939
vt -1.0352757 -2.0204356
vt -1.0994846 -1.9251939
vt 1.035276 -2.0204356
vt 0.01896716 -2.2169528
vt -1.035276 -2.020432
vt 0.01896716 -2.2169528
vt 1.0352757 -2.0204318
vt 1.1398084 -1.9015981
vt -1.0352756 -2.020437
vt 1.1398084 -1.9015981
vt 1.0352767 -2.020437
vt 1.942042 -1.0694448
vt -1.0352768 -2.0204382
vt 1.942042 -1.0694448
vt 1.0352763 -2.0204382
vt 2.2167385 -0.036188345
vt 2.2167385 -0.036188345
vt 1.0956315 -0.036188338
vt 1.9103951 1.1250019
vt 0.93519145 0.5719568
vt 1.9103951 1.1250019
vt 0.96895057 0.5126913
vt 1.099485 1.9251944
vt 0.52768207 0.9608693
vt 1.099485 1.9251944
vt 0.5792044 0.9307204
vt -0.018966911 2.2169526
vt -0.027676055 1.0958796
vt -0.018966911 2.2169526
vt 0.027676055 1.0958796
vt -1.1398085 1.9015981
vt -0.5792044 0.93072027
vt -1.1398085 1.9015981
vt -0.5276821 0.9608691
vt -1.942042 1.0694445
vt -0.9689508 0.51269144
vt -1.942042 1.0694445
vt -0.93519163 0.57195705
vt -2.2167382 -0.036188528
vt -1.0956318 -0.036188424
vt -2.2167382 -0.036188528
vt -1.0956318 0.036188196
vt -1.9103948 -1.1250019
vt -0.9351916 -0.57195675
vt -1.9103948 -1.1250019
vt -0.9689508 -0.5126912
vt -1.0994846 -1.9251939
vt -0.5276819 -0.9608693
vt -1.0994846 -1.9251939
vt -0.57920414 -0.9307205
vt 0.01896716 -2.2169528
vt 0.027676076 -1.0958797
vt 0.01896716 -2.2169528
vt -0.02767611 -1.0958797
vt 1.1398084 -1.9015981
vt 0.57920414 -0.9307206
vt 1.1398084 -1.9015981
vt 0.52768195 -0.9608694
vt 1.942042 -1.0694448
vt 0.96895075 -0.51269144
vt 1.942042 -1.0694448
vt 0.9351915 -0.57195705
vt 2.2167385 -0.036188345
vt 1.0956315 0.036188256
vt 1.1679127 -0.013457767
vt -0.050368294 -0.013457722
vt 1.0055604 0.59417963
vt 1.0055605 -0.59417987
vt 1.0185791 0.57157475
vt -0.036917664 -0.036812518
vt 0.57447714 1.0169452
vt -0.011792392 1.1679307
vt -1.0055606 0.5941798
vt 0.05036828 -0.0134577295
vt -1.1679132 -0.013457864
vt -1.0055606 -0.5941796
vt -1.0185794 -0.57157475
vt 0.036917653 0.03681253
vt -0.574477 -1.0169454
vt 0.011792364 -1.1679308
vt -0.011792375 -1.1679308
vt -0.013529501 0.05034905
vt 0.59561265 -1.0047126
vt 1.0185792 -0.571575
vt -0.6930805 0.6754549
vt -3.2579708 -0.29358757
vt -2.7815967 1.7214198
vt -0.9221747 -0.29358757
vt -0.2929015 0.92239296
vt -3.0117614 1.2766594
vt -1.6418809 2.8292747
vt -0.9516943 0.17572084
vt -0.92217475 0.29358757
vt -2.7815967 -1.7214205
vt -3.2579708 0.29358757
vt -0.6930803 -0.67545515
vt -0.95169437 -0.17572103
vt -1.6418806 -2.8292747
vt -3.0117617 -1.2766601
vt -0.29290184 -0.922393
vt -0.717549 -0.6494025
vt 0.088902384 -3.2699637
vt -1.892302 -2.6682875
vt 0.23523748 -0.938756
vt -0.23523758 -0.9387562
vt 1.892302 -2.6682878
vt -0.08890236 -3.269964
vt 0.7175485 -0.6494026
vt 0.2929013 -0.9223929
vt 3.011762 -1.2766593
vt 1.6418805 -2.8292747
vt 0.95169437 -0.17572065
vt 0.6930805 -0.6754548
vt 3.2579708 0.29358718
vt 2.781597 -1.7214197
vt 0.9221747 0.29358736
vt 0.92217463 -0.29358742
vt 2.781597 1.7214203
vt 3.2579708 -0.2935876
vt 0.6930804 0.67545515
vt 0.9516944 0.17572077
vt 1.641881 2.8292744
vt 3.011762 1.2766596
vt 0.29290158 0.92239267
vt 0.7175487 0.64940244
vt -0.08890237 3.269964
vt 1.8923025 2.6682875
vt -0.2352376 0.9387563
vt 0.23523739 0.93875617
vt -1.8923025 2.6682878
vt 0.08890235 3.269964
vt -0.7175489 0.64940256
vt 0.96182483 -1.66593
vt 1.6659299 -0.9618251
vt -1.6659298 -0.9618255
vt -8.094583E-08 -1.9236503
vt -0.9618254 -1.6659303
vt -0.9618252 1.66593
vt -6.8003246E-08 1.9236503
vn 0.019518692 0.99715227 0.072844744
vn 0.019518692 0.99715227 0.072844744
vn 0.019518692 0.99715227 0.072844744
vn 0.05332603 0.99715227 0.053326067
vn 0.05332603 0.99715227 0.053326067
vn 0.05332603 0.99715227 0.053326067
vn -0 -1 0
vn -0 -1 0
vn -0 -1 0
vn -0 -1 0
vn -0 -1 0
vn -0.5292687 0.8365181 0.14181712
vn -0.5292687 0.8365181 0.14181712
vn -0.5292687 0.8365181 0.14181712
vn -0.5292687 0.8365181 0.14181714
vn -0.3874516 0.83651817 0.38745153
vn -0.38745165 0.83651817 0.38745153
vn -0.38745165 0.83651817 0.38745153
vn -0.3874517 0.8365181 0.38745153
vn -0.1418171 0.8365181 0.52926874
vn -0.141817 0.83651817 0.52926874
vn -0.141817 0.83651817 0.52926874
vn -0.14181693 0.83651817 0.5292687
vn 0.14181712 0.83651817 0.5292687
vn 0.14181712 0.83651817 0.5292687
vn 0.14181712 0.83651817 0.5292687
vn 0.14181711 0.83651817 0.5292687
vn 0.3874514 0.8365181 0.38745153
vn 0.38745144 0.83651817 0.38745153
vn 0.38745144 0.83651817 0.38745153
vn 0.38745147 0.83651817 0.38745156
vn 0.5292686 0.83651817 0.14181702
vn 0.5292686 0.83651817 0.14181703
vn 0.5292686 0.83651817 0.14181703
vn 0.5292686 0.83651817 0.14181706
vn 0.5292687 0.83651817 -0.14181711
vn 0.5292686 0.83651817 -0.14181712
vn 0.5292686 0.83651817 -0.14181712
vn 0.52926856 0.83651817 -0.14181714
vn 0.3874515 0.83651817 -0.3874516
vn 0.38745153 0.83651817 -0.3874516
vn 0.38745153 0.83651817 -0.3874516
vn 0.38745153 0.83651817 -0.3874516
vn 0.14181711 0.83651817 -0.5292687
vn 0.14181715 0.83651817 -0.52926874
vn 0.14181715 0.83651817 -0.52926874
vn 0.14181718 0.8365181 -0.52926874
vn -0.14181711 0.83651805 -0.5292687
vn -0.14181718 0.8365181 -0.5292686
vn -0.14181718 0.8365181 -0.5292686
vn -0.14181724 0.83651817 -0.52926856
vn -0.38745147 0.83651817 -0.38745165
vn -0.38745147 0.83651817 -0.3874517
vn -0.38745147 0.83651817 -0.3874517
vn -0.38745147 0.8365181 -0.38745177
vn -0.5292687 0.83651817 -0.14181715
vn -0.5292687 0.83651817 -0.14181718
vn -0.5292687 0.83651817 -0.14181718
vn -0.5292687 0.8365181 -0.1418172
vn -0.16895376 0.9845838 0.04527103
vn -0.16895375 0.98458374 0.04527104
vn -0.16895375 0.98458374 0.04527104
vn -0.16895372 0.98458374 0.045271043
vn -0.12368276 0.9845838 0.1236827
vn -0.12368277 0.98458374 0.1236827
vn -0.12368277 0.98458374 0.1236827
vn -0.12368277 0.98458374 0.1236827
vn -0.045270965 0.9845838 0.16895378
vn -0.04527098 0.98458374 0.16895378
vn -0.04527098 0.98458374 0.16895378
vn -0.045270994 0.98458374 0.16895376
vn 0.04527103 0.9845838 0.16895379
vn 0.04527103 0.98458374 0.16895379
vn 0.04527103 0.98458374 0.16895379
vn 0.04527103 0.98458374 0.16895379
vn 0.12368274 0.9845838 0.12368277
vn 0.12368274 0.98458374 0.12368278
vn 0.12368274 0.98458374 0.12368278
vn 0.12368273 0.98458374 0.123682804
vn 0.1689538 0.9845838 0.04527102
vn 0.16895384 0.98458374 0.045271073
vn 0.16895384 0.98458374 0.045271073
vn 0.16895385 0.98458374 0.045271125
vn 0.16895385 0.9845837 -0.045271065
vn 0.1689538 0.98458374 -0.0452711
vn 0.1689538 0.98458374 -0.0452711
vn 0.16895375 0.98458374 -0.045271132
vn 0.12368277 0.9845838 -0.12368278
vn 0.12368277 0.98458374 -0.12368278
vn 0.12368277 0.98458374 -0.12368278
vn 0.12368277 0.98458374 -0.123682775
vn 0.04527105 0.9845838 -0.1689538
vn 0.045271028 0.98458374 -0.16895378
vn 0.045271028 0.98458374 -0.16895378
vn 0.045271005 0.98458374 -0.16895376
vn -0.045271073 0.9845838 -0.16895376
vn -0.045271035 0.98458374 -0.1689538
vn -0.045271035 0.98458374 -0.1689538
vn -0.045270998 0.98458374 -0.16895385
vn -0.12368272 0.9845838 -0.12368281
vn -0.12368272 0.98458374 -0.12368278
vn -0.12368272 0.98458374 -0.12368278
vn -0.12368273 0.98458374 -0.123682745
vn -0.16895376 0.9845838 -0.045271043
vn -0.16895375 0.98458374 -0.045271024
vn -0.16895375 0.98458374 -0.045271024
vn -0.16895375 0.98458374 -0.04527101
vn -0.072844744 0.99715227 9.313226E-09
vn -0.072844744 0.99715227 9.313226E-09
vn -0.072844744 0.99715227 0.019518705
vn -0.072844744 0.99715227 -0.019518686
vn -0.053326067 0.99715227 0.05332604
vn -0.036422372 0.99715227 0.06308539
vn -0.036422372 0.99715227 0.06308539
vn -0.019518679 0.99715227 0.072844744
vn 0.07284472 0.99715227 0.019518716
vn 0.072844714 0.99715227 -7.450581E-09
vn 0.072844714 0.99715227 -7.450581E-09
vn 0.072844714 0.99715227 -0.019518731
vn 0.053326048 0.99715227 -0.05332606
vn 0.036422364 0.99715227 -0.0630854
vn 0.036422364 0.99715227 -0.0630854
vn 0.019518683 0.99715227 -0.07284474
vn -0.019518668 0.99715227 -0.07284474
vn -0.036422357 0.99715227 -0.06308539
vn -0.036422357 0.99715227 -0.06308539
vn -0.053326044 0.99715227 -0.053326055
vn -0.40036705 -0.9100537 0.10727805
vn -0.40036705 -0.9100537 0.10727805
vn -0.40036702 -0.9100537 0.10727804
vn -0.40036708 -0.9100537 0.107278064
vn -0.2930891 -0.9100537 0.29308903
vn -0.2930891 -0.9100537 0.29308903
vn -0.2930891 -0.9100537 0.29308903
vn -0.29308906 -0.9100537 0.293089
vn -0.40036684 -0.91005373 -0.107278064
vn -0.40036684 -0.91005373 -0.107278064
vn -0.40036702 -0.9100537 -0.10727805
vn -0.4003667 -0.9100538 -0.107278086
vn -0.2930891 -0.9100536 -0.29308906
vn -0.2930891 -0.9100536 -0.29308906
vn -0.29308876 -0.91005373 -0.29308894
vn -0.29308942 -0.9100535 -0.29308918
vn -0.107278 -0.9100536 -0.4003672
vn -0.107278 -0.9100536 -0.4003672
vn -0.10727809 -0.91005355 -0.40036735
vn -0.1072779 -0.9100537 -0.40036708
vn 0.10727802 -0.9100537 -0.40036702
vn 0.10727802 -0.9100537 -0.40036702
vn 0.10727801 -0.9100537 -0.40036705
vn 0.10727802 -0.9100537 -0.400367
vn 0.2930889 -0.91005373 -0.29308897
vn 0.2930889 -0.91005373 -0.29308897
vn 0.29308894 -0.91005373 -0.293089
vn 0.2930889 -0.91005373 -0.29308897
vn 0.40036708 -0.9100536 -0.10727811
vn 0.40036708 -0.9100536 -0.10727811
vn 0.40036687 -0.91005373 -0.107277974
vn 0.40036726 -0.91005355 -0.10727825
vn 0.4003671 -0.9100536 0.10727805
vn 0.4003671 -0.9100536 0.10727805
vn 0.4003673 -0.91005355 0.10727803
vn 0.40036693 -0.91005373 0.10727807
vn 0.2930889 -0.91005373 0.29308903
vn 0.2930889 -0.91005373 0.29308903
vn 0.2930889 -0.91005373 0.29308903
vn 0.29308888 -0.91005373 0.293089
vn 0.10727804 -0.9100537 0.40036702
vn 0.10727804 -0.9100537 0.40036702
vn 0.10727802 -0.9100537 0.40036696
vn 0.107278064 -0.9100537 0.40036705
vn -0.107278 -0.9100537 0.40036705
vn -0.107278 -0.9100537 0.40036705
vn -0.107278 -0.9100537 0.40036705
vn -0.107278 -0.9100537 0.40036705
vn -0 -1 0
vn -0 -1 0
vn -0 -1 0
vn -0 -1 0
vn -0 -1 0
vn -0 -1 0
vn -0 -1 0
g Mesh_BoomBlasterCollision_0
f 3/3/3 2/2/2 1/1/1
f 6/6/6 5/5/5 4/4/4
f 9/9/9 8/8/8 7/7/7
f 11/11/11 7/7/7 10/10/10
f 14/14/14 13/13/13 12/12/12
f 14/14/14 15/15/15 13/13/13
f 18/18/18 17/17/17 16/16/16
f 18/18/18 19/19/19 17/17/17
f 22/22/22 21/21/21 20/20/20
f 22/22/22 23/23/23 21/21/21
f 26/26/26 25/25/25 24/24/24
f 26/26/26 27/27/27 25/25/25
f 30/30/30 29/29/29 28/28/28
f 30/30/30 31/31/31 29/29/29
f 34/34/34 33/33/33 32/32/32
f 34/34/34 35/35/35 33/33/33
f 38/38/38 37/37/37 36/36/36
f 38/38/38 39/39/39 37/37/37
f 42/42/42 41/41/41 40/40/40
f 42/42/42 43/43/43 41/41/41
f 46/46/46 45/45/45 44/44/44
f 46/46/46 47/47/47 45/45/45
f 50/50/50 49/49/49 48/48/48
f 50/50/50 51/51/51 49/49/49
f 54/54/54 53/53/53 52/52/52
f 54/54/54 55/55/55 53/53/53
f 58/58/58 57/57/57 56/56/56
f 58/58/58 59/59/59 57/57/57
f 62/62/62 61/61/61 60/60/60
f 62/62/62 63/63/63 61/61/61
f 66/66/66 65/65/65 64/64/64
f 66/66/66 67/67/67 65/65/65
f 70/70/70 69/69/69 68/68/68
f 70/70/70 71/71/71 69/69/69
f 74/74/74 73/73/73 72/72/72
f 74/74/74 75/75/75 73/73/73
f 78/78/78 77/77/77 76/76/76
f 78/78/78 79/79/79 77/77/77
f 82/82/82 81/81/81 80/80/80
f 82/82/82 83/83/83 81/81/81
f 86/86/86 85/85/85 84/84/84
f 86/86/86 87/87/87 85/85/85
f 90/90/90 89/89/89 88/88/88
f 90/90/90 91/91/91 89/89/89
f 94/94/94 93/93/93 92/92/92
f 94/94/94 95/95/95 93/93/93
f 98/98/98 97/97/97 96/96/96
f 98/98/98 99/99/99 97/97/97
f 102/102/102 101/101/101 100/100/100
f 102/102/102 103/103/103 101/101/101
f 106/106/106 105/105/105 104/104/104
f 106/106/106 107/107/107 105/105/105
f 110/110/110 109/109/109 108/108/108
f 108/108/108 109/109/109 111/111/111
f 114/114/114 113/113/113 112/112/112
f 115/115/115 113/113/113 114/114/114
f 118/118/118 117/117/117 116/116/116
f 119/119/119 117/117/117 118/118/118
f 122/122/122 121/121/121 120/120/120
f 123/123/123 121/121/121 122/122/122
f 126/126/126 125/125/125 124/124/124
f 127/127/127 125/125/125 126/126/126
f 130/130/130 129/129/129 128/128/128
f 129/129/129 131/131/131 128/128/128
f 134/134/134 133/133/133 132/132/132
f 133/133/133 135/135/135 132/132/132
f 138/138/138 137/137/137 136/136/136
f 137/137/137 139/139/139 136/136/136
f 142/142/142 141/141/141 140/140/140
f 141/141/141 143/143/143 140/140/140
f 146/146/146 145/145/145 144/144/144
f 145/145/145 147/147/147 144/144/144
f 150/150/150 149/149/149 148/148/148
f 149/149/149 151/151/151 148/148/148
f 154/154/154 153/153/153 152/152/152
f 153/153/153 155/155/155 152/152/152
f 158/158/158 157/157/157 156/156/156
f 157/157/157 159/159/159 156/156/156
f 162/162/162 161/161/161 160/160/160
f 161/161/161 163/163/163 160/160/160
f 166/166/166 165/165/165 164/164/164
f 165/165/165 167/167/167 164/164/164
f 170/170/170 169/169/169 168/168/168
f 169/169/169 171/171/171 168/168/168
f 174/174/174 173/173/173 172/172/172
f 173/173/173 175/175/175 172/172/172
f 9/9/9 7/7/7 176/176/176
f 177/177/177 9/9/9 176/176/176
f 178/178/178 176/176/176 7/7/7
f 178/178/178 7/7/7 11/11/11
f 179/179/179 176/176/176 178/178/178
f 180/180/180 179/179/179 178/178/178
f 10/10/10 7/7/7 181/181/181
f 181/181/181 7/7/7 182/182/182
