g 
v -4.999996 0.020659827 -4.754983
v -5.020546 0.091761954 -4.8202424
v -5.020546 0.07027195 -4.753322
v -4.999996 0.043861467 -4.8272324
v -5.020546 0.15808563 -4.8798265
v -4.950384 0.000109829474 -4.755671
v -4.999996 0.11744853 -4.893342
v -5.020546 0.26167122 -4.927244
v -4.950384 0.024020473 -4.830128
v -4.999996 0.23214637 -4.945846
v -5.020546 0.39219514 -4.957688
v 4.950388 0.024020577 -4.830162
v 4.950388 0.000109829474 -4.755705
v 5.0000005 0.020659778 -4.7550178
v -4.950384 0.10061615 -4.8989406
v -4.999996 0.37667426 -4.9795566
v -5.020546 0.5369323 -4.9681773
v 5.0000005 0.043861795 -4.8272667
v 5.0205507 0.07027182 -4.7533574
v 5.0205507 0.09176257 -4.820277
v 4.950388 0.10061626 -4.898975
v 5 0.117448896 -4.893377
v 5.0205503 0.15808633 -4.879862
v -4.950384 0.21991684 -4.9535513
v 4.950387 0.2199169 -4.953585
v 4.999999 0.23214664 -4.94588
v 5.02055 0.26167175 -4.9272785
v 4.950388 0.3702454 -4.9886484
v 5 0.37667453 -4.9795904
v 5.0205503 0.39219567 -4.957722
v -4.9503846 0.37024534 -4.988615
v 4.950387 0.53693235 -5.0007286
v 4.9999995 0.53693235 -4.9912047
v 5.0205503 0.53693235 -4.968212
v -4.999996 0.5369323 -4.991171
v -5.020546 0.68166924 -4.957688
v -4.9503846 0.5369323 -5.000695
v -4.999996 0.6971901 -4.9795566
v -5.020546 0.81219333 -4.9272437
v 5 0.69719 -4.9795904
v 5.0205503 0.6816688 -4.957722
v 4.9503875 0.70361906 -4.9886484
v -4.999996 0.84171814 -4.945846
v -5.020546 0.9157792 -4.8798265
v -4.950384 0.703619 -4.988615
v 4.999999 0.84171796 -4.94588
v 5.02055 0.8121929 -4.927278
v 4.9503865 0.85394776 -4.953585
v -4.999996 0.95641637 -4.893342
v -5.020546 0.9821023 -4.8202424
v -4.950384 0.8539477 -4.9535513
v 5 0.9564162 -4.893377
v 5.0205503 0.91577864 -4.879862
v 4.950388 0.9732488 -4.898975
v -4.999996 1.030003 -4.8272324
v -5.020546 1.0035926 -4.753322
v -4.950384 0.9732488 -4.8989406
v 5.0000005 1.0300028 -4.8272667
v 5.0205507 0.98210186 -4.820277
v 4.950388 1.0498441 -4.830162
v -4.999996 1.0532048 -4.754983
v -5.0205517 1.0035944 4.7584643
v -4.950384 1.049844 -4.830128
v 5.0000005 1.0532049 -4.7550178
v 5.0205507 1.0035927 -4.7533574
v 4.950388 1.0737548 -4.755705
v -5.000002 1.0532067 4.7601247
v -5.0205507 0.9821037 4.825384
v -4.950384 1.0737548 -4.755671
v 4.9999957 1.053207 4.760089
v 5.020546 1.003595 4.7584286
v -5.000001 1.0300046 4.8323736
v -5.0205503 0.9157809 4.8849688
v -4.950389 1.0737567 4.760812
v 4.9503837 1.0737572 4.7607775
v 4.999996 1.0300056 4.8323383
v 5.020547 0.9821052 4.825348
v 4.950384 1.0498464 4.835234
v -5 0.9564182 4.8984838
v -5.02055 0.8121948 4.932385
v -4.950389 1.049846 4.8352685
v 4.999997 0.95641863 4.8984485
v 5.020547 0.9157812 4.8849325
v 4.950385 0.97325116 4.904047
v -5 0.8417199 4.950987
v -5.0205507 0.6816707 4.962829
v -4.950388 0.97325075 4.904082
v 4.9999976 0.8417206 4.9509516
v 5.020548 0.81219584 4.9323497
v 4.950386 0.85395014 4.9586573
v -5.000001 0.6971919 4.9846973
v -5.0205507 0.5369343 4.973319
v -4.950387 0.85394967 4.958692
v 4.999996 0.69719255 4.984662
v 5.020547 0.68167174 4.962794
v 4.950384 0.70362145 4.9937205
v -5 0.5369343 4.9963117
v -5.0205507 0.39219764 4.962829
v -4.9503884 0.70362103 4.9937553
v 4.999997 0.53693473 4.9962764
v 5.020547 0.53693473 4.973283
v 4.9503856 0.53693473 5.0058007
v -5.000001 0.3766765 4.9846973
v -5.02055 0.26167378 4.932385
v -4.9503875 0.5369343 5.0058355
v 4.999996 0.37667668 4.984662
v 5.020547 0.3921975 4.962794
v 4.9503846 0.3702478 4.9937205
v -5 0.23214869 4.950987
v -5.0205503 0.1580879 4.8849688
v -4.950389 0.37024736 4.9937553
v 4.9999976 0.23214887 4.9509516
v 5.020548 0.2616736 4.9323497
v 4.950386 0.21991938 4.9586573
v -5 0.11745063 4.8984838
v -5.0205507 0.091764756 4.825384
v -4.950387 0.21991895 4.958692
v 4.999997 0.11745109 4.8984485
v 5.020547 0.15808837 4.884933
v 4.950385 0.100618556 4.904047
v -5.000001 0.043863844 4.8323736
v -5.0205517 0.070273966 4.7584643
v -4.950388 0.10061815 4.904082
v 4.999996 0.043863792 4.8323383
v 5.020547 0.09176407 4.825348
v 4.950384 0.024022948 4.835234
v -5.000002 0.020661801 4.7601247
v -5.020546 0.07027195 -4.753322
v -4.999996 0.020659827 -4.754983
v -4.950389 0.024022534 4.8352685
v -4.950389 0.0001117629 4.760812
v -4.950384 0.000109829474 -4.755671
v 4.9503837 0.00011217641 4.7607775
v 4.950388 0.000109829474 -4.755705
v 4.9999957 0.020662181 4.760089
v 5.020546 0.07027429 4.7584286
v 5.0000005 0.020659778 -4.7550178
v 5.0205507 0.07027182 -4.7533574
vt 0.003434264 1.0482535
vt 0.002257959 1.0444171
vt 0.002250583 1.0482421
vt 0.003434264 1.0444295
vt 0.0022579888 1.0405679
vt 0.005304032 1.0482535
vt 0.003434264 1.0405679
vt 0.002257959 1.0366577
vt 0.0053040655 1.0444295
vt 0.0034342343 1.0366577
vt 0.0022579888 1.032761
vt 0.121292144 1.0444295
vt 0.1212922 1.0482535
vt 0.123162 1.0482535
vt 0.005304103 1.0405679
vt 0.003434264 1.0327609
vt 0.0022556828 1.0286895
vt 0.12316194 1.0444295
vt 0.12434457 1.0482421
vt 0.1243372 1.0444204
vt 0.121292144 1.0405679
vt 0.12316194 1.0405679
vt 0.1243372 1.040568
vt 0.0053042294 1.0366577
vt 0.121292144 1.0366577
vt 0.123162 1.0366577
vt 0.124337256 1.0366577
vt 0.121292144 1.032761
vt 0.12316194 1.032761
vt 0.1243372 1.032761
vt 0.005303965 1.0327609
vt 0.121292144 1.0286895
vt 0.12316194 1.0286895
vt 0.124339506 1.0286895
vt 0.0034342343 1.0286895
vt 0.0022579888 1.0246141
vt 0.005304103 1.0286895
vt 0.003434264 1.0246141
vt 0.002257959 1.020709
vt 0.123162 1.0246141
vt 0.1243372 1.0246141
vt 0.1212922 1.0246141
vt 0.0034342343 1.020709
vt 0.0022579888 1.016778
vt 0.0052996846 1.0246141
vt 0.12316194 1.020709
vt 0.1243372 1.020709
vt 0.1212922 1.020709
vt 0.003434264 1.016778
vt 0.0022579292 1.0128582
vt 0.0052998224 1.020709
vt 0.12316194 1.016778
vt 0.1243372 1.016778
vt 0.1212922 1.016778
vt 0.0034342343 1.0128487
vt 0.0022505494 1.0088109
vt 0.0052998224 1.016778
vt 0.123162 1.0128487
vt 0.1243372 1.0128615
vt 0.1212922 1.0128487
vt 0.0034342343 1.0087988
vt 0.002250583 0.5017873
vt 0.0053026835 1.0128485
vt 0.12316194 1.0087988
vt 0.12434457 1.008811
vt 0.1212922 1.008799
vt 0.003434305 0.5017994
vt 0.0022579888 0.49773666
vt 0.005304032 1.0087988
vt 0.12316194 0.5017994
vt 0.12434463 0.5017873
vt 0.003434305 0.49774945
vt 0.0022579888 0.49382028
vt 0.005302851 0.5017994
vt 0.12129226 0.5017994
vt 0.12316194 0.4977494
vt 0.1243372 0.4977401
vt 0.1212922 0.4977494
vt 0.003434305 0.49382028
vt 0.0022579888 0.4898873
vt 0.005299852 0.49774945
vt 0.12316194 0.49382028
vt 0.1243372 0.49382022
vt 0.1212922 0.49382028
vt 0.003434305 0.48988733
vt 0.0022579888 0.48596403
vt 0.005308048 0.49382028
vt 0.12316194 0.4898873
vt 0.1243372 0.48988727
vt 0.1212922 0.4898873
vt 0.003434305 0.485964
vt 0.0022556828 0.48190793
vt 0.005299722 0.48988733
vt 0.12316194 0.485964
vt 0.1243372 0.485964
vt 0.1212922 0.485964
vt 0.003434305 0.48190793
vt 0.0022579888 0.4778531
vt 0.0053069936 0.485964
vt 0.12316194 0.48190793
vt 0.124339506 0.48190793
vt 0.1212922 0.48190793
vt 0.003434305 0.47785312
vt 0.0022579888 0.4739313
vt 0.0053069936 0.48190793
vt 0.12316194 0.47785312
vt 0.1243372 0.4778531
vt 0.12129226 0.47785312
vt 0.003434305 0.4739313
vt 0.0022579888 0.47000045
vt 0.005304103 0.47785312
vt 0.12316194 0.4739313
vt 0.1243372 0.4739313
vt 0.121292144 0.4739313
vt 0.003434305 0.47000045
vt 0.0022579888 0.466086
vt 0.0053041326 0.4739313
vt 0.12316194 0.47000045
vt 0.1243372 0.4700005
vt 0.12129226 0.47000042
vt 0.003434305 0.46607667
vt 0.002250583 0.46206602
vt 0.005304103 0.47000045
vt 0.12316194 0.46607673
vt 0.1243372 0.46608934
vt 0.12129201 0.46607673
vt 0.003434305 0.4620781
vt 0.0022497 0.0019227434
vt 0.003434305 0.0019227434
vt 0.0053041326 0.46607667
vt 0.005304103 0.4620781
vt 0.0053040655 0.0019227434
vt 0.121292144 0.46207812
vt 0.1212922 0.0019228415
vt 0.12316194 0.46207806
vt 0.12434463 0.46206602
vt 0.123162 0.0019228415
vt 0.12434569 0.0019228089
vn -0.7815443 -0.5939741 -0.19074392
vn -0.9104298 -0.36114606 -0.20172063
vn -0.9185308 -0.37641695 -0.12087819
vn -0.6587296 -0.6341119 -0.40494126
vn -0.85954094 -0.29612824 -0.4165302
vn -0.0019591956 -0.95210856 -0.30575404
vn -0.5550184 -0.46019357 -0.6929476
vn -0.80375236 -0.20829302 -0.5573116
vn -0.0016966884 -0.7675738 -0.6409584
vn -0.47528285 -0.29087055 -0.83036166
vn -0.76288605 -0.11318607 -0.6365483
vn 0.0018556573 -0.8682343 -0.49615106
vn 0.0019864072 -0.9521082 -0.30575457
vn 0.58680964 -0.7709466 -0.24757989
vn -0.0013079157 -0.49180764 -0.8707028
vn -0.42969045 -0.1438782 -0.8914399
vn -0.745508 -0.017206525 -0.66627455
vn 0.64244014 -0.60982037 -0.4641009
vn 0.9185265 -0.37642497 -0.12088544
vn 0.89487594 -0.3420884 -0.28665775
vn 0.0014133868 -0.576453 -0.8171291
vn 0.54001653 -0.4320046 -0.72232556
vn 0.83876425 -0.26619565 -0.47498888
vn -0.0010815361 -0.2847337 -0.95860606
vn 0.00113553 -0.34781048 -0.9375642
vn 0.4658538 -0.26623794 -0.8438587
vn 0.7866977 -0.17449203 -0.5921648
vn 0.0009922659 -0.17323968 -0.9848792
vn 0.42528152 -0.122164376 -0.89677835
vn 0.7537354 -0.07872132 -0.65244603
vn -0.0009729009 -0.1215348 -0.99258673
vn 0.00094126334 -0.02414731 -0.999708
vn 0.41388202 0.010355582 -0.9102716
vn 0.745484 0.017206248 -0.6663014
vn -0.41390386 -0.010355918 -0.9102617
vn -0.7537541 0.07871892 -0.6524248
vn -0.0009480182 0.024147319 -0.999708
vn -0.42529684 0.12216322 -0.8967713
vn -0.78671664 0.17448416 -0.59214187
vn 0.429674 0.14387941 -0.8914476
vn 0.7628741 0.11319281 -0.6365615
vn 0.00096619484 0.1215339 -0.9925868
vn -0.46586618 0.266238 -0.8438519
vn -0.8387777 0.2661911 -0.47496766
vn -0.0009989331 0.17323965 -0.9848792
vn 0.4752746 0.29086888 -0.8303671
vn 0.80373824 0.20829445 -0.5573313
vn 0.0010750333 0.2847323 -0.95860654
vn -0.54002345 0.43200594 -0.7223196
vn -0.8948819 0.34208223 -0.28664613
vn -0.0011419489 0.34781078 -0.93756413
vn 0.5550095 0.46019328 -0.692955
vn 0.8595337 0.29613215 -0.4165426
vn 0.0013019225 0.49180812 -0.87070274
vn -0.6424483 0.6098167 -0.46409464
vn -0.9239008 0.38262814 -0.0017725134
vn -0.0014190241 0.5764544 -0.81712806
vn 0.65872395 0.63411504 -0.4049456
vn 0.9104257 0.36115196 -0.2017281
vn 0.0016923012 0.76757514 -0.6409567
vn -0.7959149 0.6054054 -0.0019547674
vn -0.92388636 0.3826666 0.0004301218
vn -0.0018590606 0.8682345 -0.49615058
vn 0.6053225 0.7959791 -0.0014371241
vn 0.9238829 0.38267496 -0.00043034344
vn 0.0010431112 0.9999963 -0.0024992642
vn -0.60532296 0.79597867 0.0014367934
vn -0.9104282 0.36114395 0.20173116
vn -0.004094049 0.99998856 -0.0024809584
vn 0.7959116 0.60540974 0.0019543872
vn 0.92389727 0.3826366 0.0017721507
vn -0.65872496 0.6341127 0.40494743
vn -0.8595342 0.29613033 0.41654256
vn -0.0010431653 0.9999963 0.0024988167
vn 0.004094002 0.9999885 0.002480511
vn 0.6424444 0.6098241 0.46409023
vn 0.894879 0.34209126 0.28664473
vn 0.0018590393 0.8682341 0.49615136
vn -0.55501086 0.4601941 0.6929534
vn -0.80374825 0.20829299 0.5573176
vn -0.0016922909 0.7675759 0.6409558
vn 0.54002917 0.43200544 0.72231555
vn 0.8387779 0.26619303 0.47496638
vn 0.0014190396 0.57645553 0.8171273
vn -0.47527745 0.29087007 0.830365
vn -0.7628844 0.11319127 0.6365496
vn -0.0013018871 0.49180818 0.8707027
vn 0.46586674 0.26623467 0.8438526
vn 0.7867013 0.17448696 0.59216154
vn 0.0011420341 0.34780872 0.93756485
vn -0.42967477 0.14387926 0.8914473
vn -0.7454864 0.017205158 0.6662987
vn -0.0010749395 0.2847313 0.9586068
vn 0.42528784 0.122163266 0.89677566
vn 0.7537396 0.07872068 0.6524414
vn 0.0009990649 0.1732387 0.9848794
vn -0.4138827 0.010355618 0.9102713
vn -0.7537407 -0.07872108 0.6524401
vn -0.0009660583 0.1215339 0.9925868
vn 0.4139008 -0.010356122 0.91026306
vn 0.7455005 -0.017208776 0.6662828
vn 0.00094816054 0.024147317 0.99970794
vn -0.42528623 -0.12216374 0.89677626
vn -0.7867126 -0.17448719 0.5921467
vn -0.0009411183 -0.024147306 0.999708
vn 0.4296859 -0.14387648 0.8914425
vn 0.7628678 -0.113185436 0.6365702
vn 0.00097304874 -0.12153387 0.99258685
vn -0.46585655 -0.26623842 0.84385705
vn -0.8387698 -0.2661935 0.47498026
vn -0.0009921308 -0.1732388 0.9848793
vn 0.4752816 -0.2908667 0.83036375
vn 0.8037476 -0.20829411 0.55731803
vn 0.0010816845 -0.28473175 0.9586067
vn -0.54001474 -0.43200526 0.72232646
vn -0.8948777 -0.34208277 0.2866588
vn -0.0011354347 -0.34780934 0.9375646
vn 0.5550185 -0.46019596 0.692946
vn 0.85954064 -0.29613385 0.41652688
vn 0.0013080138 -0.49180734 0.870703
vn -0.64244217 -0.6098159 0.46410418
vn -0.9239007 -0.3826281 0.0017716332
vn -0.0014133028 -0.5764549 0.81712776
vn 0.6587284 -0.6341146 0.404939
vn 0.91042453 -0.36115813 0.20172226
vn 0.001696756 -0.76757455 0.6409574
vn -0.7959116 -0.6054098 0.0019538894
vn -0.9238812 -0.3826795 -4.7535252E-07
vn -0.60373586 -0.7971844 -1.8530805E-07
vn -0.0018555827 -0.8682337 0.4961521
vn -0.0040939916 -0.99998856 0.002480958
vn -0.0010351827 -0.9999994 2.2431871E-07
vn 0.001043179 -0.9999963 0.0024992714
vn 0.0041096676 -0.9999915 2.4860162E-07
vn 0.60532194 -0.79597944 0.0014376303
vn 0.92388284 -0.38267514 0.0004312078
vn 0.797153 -0.6037774 5.530992E-07
vn 0.9238778 -0.38268775 5.6267106E-07
g _0
f 3/3/3 2/2/2 1/1/1
f 2/2/2 4/4/4 1/1/1
f 4/4/4 2/2/2 5/5/5
f 1/1/1 4/4/4 6/6/6
f 7/7/7 4/4/4 5/5/5
f 7/7/7 5/5/5 8/8/8
f 4/4/4 9/9/9 6/6/6
f 9/9/9 4/4/4 7/7/7
f 10/10/10 7/7/7 8/8/8
f 10/10/10 8/8/8 11/11/11
f 6/6/6 9/9/9 12/12/12
f 13/13/13 6/6/6 12/12/12
f 13/13/13 12/12/12 14/14/14
f 15/15/15 9/9/9 7/7/7
f 15/15/15 7/7/7 10/10/10
f 16/16/16 10/10/10 11/11/11
f 16/16/16 11/11/11 17/17/17
f 12/12/12 18/18/18 14/14/14
f 14/14/14 18/18/18 19/19/19
f 18/18/18 20/20/20 19/19/19
f 12/12/12 9/9/9 21/21/21
f 18/18/18 12/12/12 21/21/21
f 9/9/9 15/15/15 21/21/21
f 20/20/20 18/18/18 22/22/22
f 22/22/22 18/18/18 21/21/21
f 23/23/23 20/20/20 22/22/22
f 24/24/24 15/15/15 10/10/10
f 24/24/24 10/10/10 16/16/16
f 21/21/21 15/15/15 25/25/25
f 22/22/22 21/21/21 25/25/25
f 15/15/15 24/24/24 25/25/25
f 23/23/23 22/22/22 26/26/26
f 26/26/26 22/22/22 25/25/25
f 27/27/27 23/23/23 26/26/26
f 25/25/25 24/24/24 28/28/28
f 26/26/26 25/25/25 28/28/28
f 27/27/27 26/26/26 29/29/29
f 29/29/29 26/26/26 28/28/28
f 30/30/30 27/27/27 29/29/29
f 31/31/31 24/24/24 16/16/16
f 24/24/24 31/31/31 28/28/28
f 29/29/29 28/28/28 32/32/32
f 28/28/28 31/31/31 32/32/32
f 30/30/30 29/29/29 33/33/33
f 33/33/33 29/29/29 32/32/32
f 34/34/34 30/30/30 33/33/33
f 31/31/31 16/16/16 35/35/35
f 35/35/35 16/16/16 17/17/17
f 35/35/35 17/17/17 36/36/36
f 31/31/31 37/37/37 32/32/32
f 37/37/37 31/31/31 35/35/35
f 38/38/38 35/35/35 36/36/36
f 37/37/37 35/35/35 38/38/38
f 36/36/36 39/39/39 38/38/38
f 33/33/33 40/40/40 34/34/34
f 40/40/40 41/41/41 34/34/34
f 32/32/32 42/42/42 33/33/33
f 42/42/42 32/32/32 37/37/37
f 42/42/42 40/40/40 33/33/33
f 39/39/39 43/43/43 38/38/38
f 39/39/39 44/44/44 43/43/43
f 45/45/45 37/37/37 38/38/38
f 45/45/45 42/42/42 37/37/37
f 38/38/38 43/43/43 45/45/45
f 40/40/40 46/46/46 41/41/41
f 46/46/46 47/47/47 41/41/41
f 42/42/42 48/48/48 40/40/40
f 48/48/48 42/42/42 45/45/45
f 48/48/48 46/46/46 40/40/40
f 44/44/44 49/49/49 43/43/43
f 44/44/44 50/50/50 49/49/49
f 43/43/43 51/51/51 45/45/45
f 51/51/51 48/48/48 45/45/45
f 43/43/43 49/49/49 51/51/51
f 46/46/46 52/52/52 47/47/47
f 52/52/52 53/53/53 47/47/47
f 48/48/48 54/54/54 46/46/46
f 54/54/54 48/48/48 51/51/51
f 54/54/54 52/52/52 46/46/46
f 50/50/50 55/55/55 49/49/49
f 55/55/55 50/50/50 56/56/56
f 49/49/49 57/57/57 51/51/51
f 57/57/57 54/54/54 51/51/51
f 49/49/49 55/55/55 57/57/57
f 52/52/52 58/58/58 53/53/53
f 58/58/58 59/59/59 53/53/53
f 54/54/54 60/60/60 52/52/52
f 60/60/60 54/54/54 57/57/57
f 60/60/60 58/58/58 52/52/52
f 61/61/61 55/55/55 56/56/56
f 61/61/61 56/56/56 62/62/62
f 55/55/55 63/63/63 57/57/57
f 63/63/63 60/60/60 57/57/57
f 63/63/63 55/55/55 61/61/61
f 59/59/59 58/58/58 64/64/64
f 65/65/65 59/59/59 64/64/64
f 58/58/58 60/60/60 66/66/66
f 66/66/66 60/60/60 63/63/63
f 64/64/64 58/58/58 66/66/66
f 67/67/67 61/61/61 62/62/62
f 62/62/62 68/68/68 67/67/67
f 69/69/69 63/63/63 61/61/61
f 69/69/69 66/66/66 63/63/63
f 69/69/69 61/61/61 67/67/67
f 65/65/65 64/64/64 70/70/70
f 71/71/71 65/65/65 70/70/70
f 68/68/68 72/72/72 67/67/67
f 68/68/68 73/73/73 72/72/72
f 74/74/74 69/69/69 67/67/67
f 66/66/66 69/69/69 74/74/74
f 67/67/67 72/72/72 74/74/74
f 64/64/64 66/66/66 75/75/75
f 70/70/70 64/64/64 75/75/75
f 75/75/75 66/66/66 74/74/74
f 70/70/70 76/76/76 71/71/71
f 76/76/76 77/77/77 71/71/71
f 75/75/75 78/78/78 70/70/70
f 78/78/78 75/75/75 74/74/74
f 78/78/78 76/76/76 70/70/70
f 73/73/73 79/79/79 72/72/72
f 73/73/73 80/80/80 79/79/79
f 72/72/72 81/81/81 74/74/74
f 81/81/81 78/78/78 74/74/74
f 72/72/72 79/79/79 81/81/81
f 76/76/76 82/82/82 77/77/77
f 82/82/82 83/83/83 77/77/77
f 78/78/78 84/84/84 76/76/76
f 84/84/84 78/78/78 81/81/81
f 84/84/84 82/82/82 76/76/76
f 80/80/80 85/85/85 79/79/79
f 80/80/80 86/86/86 85/85/85
f 79/79/79 87/87/87 81/81/81
f 87/87/87 84/84/84 81/81/81
f 79/79/79 85/85/85 87/87/87
f 82/82/82 88/88/88 83/83/83
f 88/88/88 89/89/89 83/83/83
f 84/84/84 90/90/90 82/82/82
f 90/90/90 84/84/84 87/87/87
f 90/90/90 88/88/88 82/82/82
f 86/86/86 91/91/91 85/85/85
f 86/86/86 92/92/92 91/91/91
f 85/85/85 93/93/93 87/87/87
f 93/93/93 90/90/90 87/87/87
f 85/85/85 91/91/91 93/93/93
f 88/88/88 94/94/94 89/89/89
f 94/94/94 95/95/95 89/89/89
f 90/90/90 96/96/96 88/88/88
f 96/96/96 90/90/90 93/93/93
f 96/96/96 94/94/94 88/88/88
f 92/92/92 97/97/97 91/91/91
f 92/92/92 98/98/98 97/97/97
f 91/91/91 99/99/99 93/93/93
f 99/99/99 96/96/96 93/93/93
f 91/91/91 97/97/97 99/99/99
f 94/94/94 100/100/100 95/95/95
f 100/100/100 101/101/101 95/95/95
f 96/96/96 102/102/102 94/94/94
f 102/102/102 96/96/96 99/99/99
f 102/102/102 100/100/100 94/94/94
f 98/98/98 103/103/103 97/97/97
f 98/98/98 104/104/104 103/103/103
f 97/97/97 105/105/105 99/99/99
f 105/105/105 102/102/102 99/99/99
f 97/97/97 103/103/103 105/105/105
f 100/100/100 106/106/106 101/101/101
f 106/106/106 107/107/107 101/101/101
f 102/102/102 108/108/108 100/100/100
f 108/108/108 102/102/102 105/105/105
f 108/108/108 106/106/106 100/100/100
f 104/104/104 109/109/109 103/103/103
f 104/104/104 110/110/110 109/109/109
f 103/103/103 111/111/111 105/105/105
f 111/111/111 108/108/108 105/105/105
f 103/103/103 109/109/109 111/111/111
f 106/106/106 112/112/112 107/107/107
f 112/112/112 113/113/113 107/107/107
f 108/108/108 114/114/114 106/106/106
f 114/114/114 108/108/108 111/111/111
f 114/114/114 112/112/112 106/106/106
f 110/110/110 115/115/115 109/109/109
f 110/110/110 116/116/116 115/115/115
f 109/109/109 117/117/117 111/111/111
f 117/117/117 114/114/114 111/111/111
f 109/109/109 115/115/115 117/117/117
f 112/112/112 118/118/118 113/113/113
f 118/118/118 119/119/119 113/113/113
f 114/114/114 120/120/120 112/112/112
f 120/120/120 114/114/114 117/117/117
f 120/120/120 118/118/118 112/112/112
f 116/116/116 121/121/121 115/115/115
f 121/121/121 116/116/116 122/122/122
f 115/115/115 123/123/123 117/117/117
f 123/123/123 120/120/120 117/117/117
f 115/115/115 121/121/121 123/123/123
f 118/118/118 124/124/124 119/119/119
f 124/124/124 125/125/125 119/119/119
f 120/120/120 126/126/126 118/118/118
f 126/126/126 120/120/120 123/123/123
f 126/126/126 124/124/124 118/118/118
f 127/127/127 121/121/121 122/122/122
f 122/122/122 128/128/128 127/127/127
f 128/128/128 129/129/129 127/127/127
f 121/121/121 130/130/130 123/123/123
f 130/130/130 126/126/126 123/123/123
f 130/130/130 121/121/121 127/127/127
f 127/127/127 129/129/129 131/131/131
f 131/131/131 130/130/130 127/127/127
f 129/129/129 132/132/132 131/131/131
f 133/133/133 126/126/126 130/130/130
f 131/131/131 133/133/133 130/130/130
f 131/131/131 132/132/132 133/133/133
f 124/124/124 126/126/126 133/133/133
f 132/132/132 134/134/134 133/133/133
f 125/125/125 124/124/124 135/135/135
f 135/135/135 124/124/124 133/133/133
f 133/133/133 134/134/134 135/135/135
f 136/136/136 125/125/125 135/135/135
f 134/134/134 137/137/137 135/135/135
f 135/135/135 137/137/137 136/136/136
f 137/137/137 138/138/138 136/136/136
