g 
v -2.4999964 0.020659827 -4.4352546
v -2.5205462 0.091761954 -4.5854206
v -2.5205464 0.07027195 -4.4314337
v -2.4999964 0.043861467 -4.6015053
v -2.5205462 0.15808563 -4.722527
v -2.4503841 0.000109829474 -4.436838
v -2.4999964 0.11744853 -4.753627
v -2.5205462 0.26167122 -4.8316364
v -2.4503844 0.024020473 -4.608168
v -2.4999964 0.23214637 -4.874441
v -2.5205462 0.39219514 -4.90169
v 4.950388 0.024020577 -4.6082454
v 4.950388 0.000109829474 -4.4369164
v 5.0000005 0.020659778 -4.4353347
v -2.4503844 0.10061615 -4.766509
v -2.4999964 0.37667426 -4.95201
v -2.5205462 0.5369323 -4.9258265
v 5.000001 0.043861795 -4.601584
v 5.0205507 0.07027182 -4.4315147
v 5.0205507 0.09176257 -4.5855007
v 4.950388 0.10061626 -4.7665877
v 5 0.117448896 -4.753707
v 5.0205503 0.15808633 -4.7226076
v -2.4503844 0.21991684 -4.8921714
v 4.950387 0.2199169 -4.8922486
v 4.999999 0.23214664 -4.8745193
v 5.02055 0.26167175 -4.831716
v 4.950388 0.3702454 -4.972932
v 5.0000005 0.37667453 -4.952089
v 5.0205503 0.39219567 -4.9017687
v -2.4503844 0.37024534 -4.9728546
v 4.950387 0.53693235 -5.0007286
v 4.9999995 0.53693235 -4.9788136
v 5.0205503 0.53693235 -4.9259057
v -2.4999964 0.5369323 -4.9787354
v -2.5205462 0.68166924 -4.90169
v -2.4503846 0.5369323 -5.0006514
v -2.4999964 0.6971901 -4.95201
v -2.5205462 0.81219333 -4.831636
v 5.0000005 0.69719 -4.952089
v 5.0205503 0.6816688 -4.9017687
v 4.950388 0.70361906 -4.972932
v -2.4999964 0.84171814 -4.8744407
v -2.5205462 0.9157792 -4.722527
v -2.4503841 0.703619 -4.9728546
v 4.999999 0.84171796 -4.8745193
v 5.02055 0.8121929 -4.8317156
v 4.9503865 0.85394776 -4.8922486
v -2.4999964 0.95641637 -4.753627
v -2.5205462 0.9821023 -4.5854206
v -2.4503844 0.8539477 -4.8921714
v 5 0.9564162 -4.753707
v 5.0205503 0.91577864 -4.7226076
v 4.950388 0.9732488 -4.7665877
v -2.4999962 1.030003 -4.6015053
v -2.5205464 1.0035926 -4.4314337
v -2.4503844 0.9732488 -4.766509
v 5.000001 1.0300028 -4.601584
v 5.0205507 0.98210186 -4.5855007
v 4.950388 1.0498441 -4.6082454
v -2.4999964 1.0532048 -4.4352546
v -2.5205512 1.0035944 4.4366217
v -2.4503841 1.049844 -4.608168
v 5.0000005 1.0532049 -4.4353347
v 5.0205507 1.0035927 -4.4315147
v 4.950388 1.0737548 -4.4369164
v -2.5000012 1.0532067 4.4404416
v -2.5205503 0.9821037 4.5906067
v -2.4503841 1.0737548 -4.436838
v 4.9999957 1.053207 4.44036
v 5.020546 1.003595 4.436539
v -2.500001 1.0300046 4.606691
v -2.5205505 0.9157809 4.7277145
v -2.450389 1.0737567 4.4420233
v 4.9503837 1.0737572 4.4419436
v 4.999996 1.0300056 4.606609
v 5.020547 0.9821052 4.5905247
v 4.950384 1.0498464 4.6132727
v -2.5 0.9564182 4.7588134
v -2.5205498 0.8121948 4.836822
v -2.4503887 1.049846 4.613352
v 4.999997 0.95641863 4.758732
v 5.020547 0.9157812 4.727632
v 4.950385 0.97325116 4.7716146
v -2.4999993 0.8417199 4.8796263
v -2.5205505 0.6816707 4.9068756
v -2.4503872 0.97325075 4.7716947
v 4.9999976 0.8417206 4.8795443
v 5.020548 0.81219584 4.8367405
v 4.950386 0.85395014 4.897276
v -2.5000005 0.6971919 4.9571958
v -2.5205505 0.5369343 4.9310126
v -2.4503868 0.85394967 4.8973556
v 4.999996 0.69719255 4.9571147
v 5.020547 0.68167174 4.9067945
v 4.950384 0.70362145 4.977958
v -2.5 0.5369343 4.9839206
v -2.5205505 0.39219764 4.9068756
v -2.4503882 0.70362103 4.9780383
v 4.999997 0.53693473 4.983839
v 5.020547 0.53693473 4.9309306
v 4.950385 0.53693473 5.005756
v -2.5000005 0.3766765 4.9571958
v -2.5205498 0.26167378 4.8368225
v -2.4503872 0.5369343 5.0058355
v 4.999996 0.37667668 4.9571147
v 5.020547 0.3921975 4.9067945
v 4.9503846 0.3702478 4.977958
v -2.4999993 0.23214869 4.8796263
v -2.5205505 0.1580879 4.7277145
v -2.4503884 0.37024736 4.9780383
v 4.9999976 0.23214887 4.8795447
v 5.020548 0.2616736 4.836741
v 4.950386 0.21991938 4.897276
v -2.5 0.11745063 4.7588134
v -2.5205503 0.091764756 4.5906067
v -2.4503868 0.21991895 4.8973556
v 4.999997 0.11745109 4.758732
v 5.020547 0.15808837 4.7276325
v 4.950385 0.100618556 4.7716146
v -2.500001 0.043863844 4.606691
v -2.5205512 0.070273966 4.4366217
v -2.4503872 0.10061815 4.7716947
v 4.999996 0.043863792 4.606609
v 5.020547 0.09176407 4.5905247
v 4.950384 0.024022948 4.6132727
v -2.5000012 0.020661801 4.4404416
v -2.5205464 0.07027195 -4.4314337
v -2.4999964 0.020659827 -4.4352546
v -2.450389 0.024022534 4.613352
v -2.450389 0.0001117629 4.4420233
v -2.4503841 0.000109829474 -4.436838
v 4.9503837 0.00011217641 4.4419436
v 4.950388 0.000109829474 -4.4369164
v 4.9999957 0.020662181 4.44036
v 5.020546 0.07027429 4.436539
v 5.0000005 0.020659778 -4.4353347
v 5.0205507 0.07027182 -4.4315147
vt -0.023813345 0.95182836
vt -0.02498965 0.9441868
vt -0.024997026 0.9518056
vt -0.023813345 0.94421154
vt -0.02498962 0.93651974
vt -0.021943577 0.95182836
vt -0.023813345 0.93651974
vt -0.02498965 0.9287311
vt -0.021943543 0.94421166
vt -0.023813374 0.9287311
vt -0.02498962 0.9209696
vt 0.14853975 0.94421154
vt 0.14853981 0.95182836
vt 0.15040961 0.95182836
vt -0.021943506 0.93651974
vt -0.023813345 0.9209695
vt -0.024991926 0.9128598
vt 0.15040955 0.94421154
vt 0.15159218 0.9518055
vt 0.1515848 0.94419324
vt 0.14853975 0.93651974
vt 0.15040955 0.93651974
vt 0.1515848 0.93651986
vt -0.02194338 0.9287311
vt 0.14853975 0.9287311
vt 0.15040961 0.9287311
vt 0.15158486 0.9287311
vt 0.14853975 0.9209696
vt 0.15040955 0.9209696
vt 0.1515848 0.9209696
vt -0.021943644 0.9209695
vt 0.14853975 0.9128597
vt 0.15040955 0.9128597
vt 0.15158711 0.9128597
vt -0.023813374 0.9128598
vt -0.02498962 0.904742
vt -0.021943506 0.9128598
vt -0.023813345 0.904742
vt -0.02498965 0.8969641
vt 0.15040961 0.9047421
vt 0.1515848 0.9047421
vt 0.14853981 0.9047421
vt -0.023813374 0.8969641
vt -0.02498962 0.8891338
vt -0.021947924 0.904742
vt 0.15040955 0.8969641
vt 0.1515848 0.8969641
vt 0.14853981 0.8969641
vt -0.023813345 0.8891338
vt -0.02498968 0.881326
vt -0.021947786 0.8969641
vt 0.15040955 0.8891337
vt 0.1515848 0.8891337
vt 0.14853981 0.8891337
vt -0.023813374 0.8813075
vt -0.02499706 0.8732648
vt -0.021947786 0.8891338
vt 0.15040961 0.8813075
vt 0.1515848 0.8813329
vt 0.14853981 0.8813075
vt -0.023813374 0.8732406
vt -0.024997026 0.47909418
vt -0.021944925 0.8813069
vt 0.15040955 0.8732406
vt 0.15159218 0.8732649
vt 0.14853981 0.8732407
vt -0.023813304 0.47911826
vt -0.02498962 0.47102588
vt -0.021943577 0.8732406
vt 0.15040955 0.47911826
vt 0.15159224 0.47909418
vt -0.023813304 0.4710514
vt -0.02498962 0.46322507
vt -0.021944758 0.47911826
vt 0.14853987 0.47911826
vt 0.15040955 0.4710513
vt 0.1515848 0.47103274
vt 0.14853981 0.47105128
vt -0.023813304 0.46322504
vt -0.02498962 0.45539117
vt -0.021947756 0.4710514
vt 0.15040955 0.46322504
vt 0.1515848 0.46322495
vt 0.14853981 0.46322504
vt -0.023813304 0.45539123
vt -0.02498962 0.44757664
vt -0.02193956 0.46322504
vt 0.15040955 0.45539117
vt 0.1515848 0.45539114
vt 0.14853981 0.45539117
vt -0.023813304 0.44757658
vt -0.024991926 0.43949756
vt -0.021947887 0.45539123
vt 0.15040955 0.44757658
vt 0.1515848 0.4475766
vt 0.14853981 0.44757658
vt -0.023813304 0.43949756
vt -0.02498962 0.43142086
vt -0.021940615 0.44757658
vt 0.15040955 0.4394975
vt 0.15158711 0.43949753
vt 0.14853981 0.4394975
vt -0.023813304 0.43142092
vt -0.02498962 0.42360932
vt -0.021940615 0.43949756
vt 0.15040955 0.43142092
vt 0.1515848 0.43142086
vt 0.14853987 0.43142092
vt -0.023813304 0.42360932
vt -0.02498962 0.41577962
vt -0.021943506 0.43142092
vt 0.15040955 0.42360932
vt 0.1515848 0.42360932
vt 0.14853975 0.42360932
vt -0.023813304 0.41577962
vt -0.02498962 0.40798265
vt -0.021943476 0.42360932
vt 0.15040955 0.41577962
vt 0.1515848 0.41577977
vt 0.14853987 0.4157796
vt -0.023813304 0.40796408
vt -0.024997026 0.3999755
vt -0.021943506 0.41577962
vt 0.15040955 0.40796414
vt 0.1515848 0.40798935
vt 0.14853962 0.40796414
vt -0.023813304 0.3999995
vt 0.0022497 0.001664373
vt 0.003434305 0.001664373
vt -0.021943476 0.40796408
vt -0.021943506 0.3999995
vt 0.0053040655 0.001664373
vt 0.14853975 0.39999956
vt 0.1212922 0.001664458
vt 0.15040955 0.39999947
vt 0.15159224 0.39997548
vt 0.123162 0.001664458
vt 0.12434569 0.0016644297
vn -0.7933365 -0.60294 -0.084145576
vn -0.92583674 -0.36725873 -0.08914842
vn -0.9240209 -0.37867188 -0.052847877
vn -0.7074559 -0.6810183 -0.18899794
vn -0.9272607 -0.31945834 -0.19527903
vn -0.0027219134 -0.9903979 -0.13821964
vn -0.71033025 -0.58897084 -0.38541436
vn -0.92929447 -0.24082544 -0.2800268
vn -0.0027751029 -0.94001377 -0.34112522
vn -0.71593076 -0.4381443 -0.5435741
vn -0.93108755 -0.1381424 -0.33762777
vn 0.0027703298 -0.9705157 -0.24102193
vn 0.0027596469 -0.99039763 -0.1382203
vn 0.6019636 -0.79085886 -0.11037181
vn -0.0028150033 -0.7925602 -0.6097873
vn -0.72074914 -0.24133795 -0.64982826
vn -0.9319429 -0.02150985 -0.36196688
vn 0.7071778 -0.6712741 -0.22201532
vn 0.9240206 -0.37867278 -0.052847065
vn 0.92628026 -0.3540867 -0.12894757
vn 0.0027880697 -0.85140955 -0.5244942
vn 0.71104896 -0.5688278 -0.4133332
vn 0.92796236 -0.2945021 -0.22837299
vn -0.002862588 -0.5642731 -0.8255833
vn 0.0028309524 -0.64924514 -0.7605739
vn 0.71678925 -0.40965107 -0.5642686
vn 0.9300011 -0.20627557 -0.3042179
vn 0.0028700628 -0.37518284 -0.9269464
vn 0.7212589 -0.20718355 -0.66095424
vn 0.93152744 -0.09728589 -0.35041717
vn -0.002899489 -0.27118763 -0.9625221
vn 0.0028890544 -0.055491358 -0.998455
vn 0.7227869 0.018084418 -0.69083434
vn 0.9319376 0.021507781 -0.3619804
vn -0.7228014 -0.018084759 -0.6908191
vn -0.9315298 0.09728666 -0.3504103
vn -0.0029099076 0.055491403 -0.998455
vn -0.72126955 0.20718062 -0.66094357
vn -0.9300064 0.20626578 -0.30420792
vn 0.7207388 0.24134293 -0.6498379
vn 0.9310852 0.13814925 -0.33763146
vn 0.002879369 0.27118775 -0.9625222
vn -0.71680236 0.40964326 -0.56425774
vn -0.9279671 0.29449594 -0.22836235
vn -0.0028894506 0.3751827 -0.92694634
vn 0.71592087 0.4381482 -0.5435839
vn 0.9292885 0.24083157 -0.2800414
vn 0.0028453625 0.56427056 -0.825585
vn -0.7110541 0.5688263 -0.41332638
vn -0.9262806 0.3540871 -0.12894332
vn -0.0028469502 0.64924425 -0.7605748
vn 0.7103223 0.5889759 -0.38542134
vn 0.9272588 0.31946072 -0.19528438
vn 0.0028021308 0.79256076 -0.6097865
vn -0.7071844 0.6712682 -0.2220118
vn -0.9239287 0.38256007 -0.0018613861
vn -0.0027991475 0.85141057 -0.52449244
vn 0.70745134 0.6810222 -0.18900068
vn 0.92583627 0.3672598 -0.089149095
vn 0.0027679584 0.9400141 -0.3411245
vn -0.79408944 0.6077975 -0.002073457
vn -0.9238923 0.38265246 0.00045894782
vn -0.002775393 0.9705157 -0.24102174
vn 0.6075903 0.7942492 -0.0015245682
vn 0.92389035 0.38265708 -0.0004590812
vn 0.0014095446 0.99999547 -0.0026506374
vn -0.60759175 0.7942481 0.0015242483
vn -0.9258391 0.3672525 0.089148566
vn -0.005428355 0.9999818 -0.0026250412
vn 0.79408836 0.60779893 0.0020731238
vn 0.9239267 0.38256487 0.0018610364
vn -0.70745575 0.68101794 0.18899971
vn -0.92725843 0.31946185 0.19528425
vn -0.0014096166 0.9999956 0.0026501638
vn 0.005428293 0.9999818 0.0026245671
vn 0.70718 0.6712735 0.22200945
vn 0.92627704 0.35409683 0.1289427
vn 0.002775391 0.97051567 0.24102199
vn -0.71032023 0.58897734 0.38542295
vn -0.92928916 0.24083108 0.28003952
vn -0.0027679347 0.94001436 0.34112385
vn 0.71105677 0.56882536 0.41332325
vn 0.92796564 0.2944998 0.22836299
vn 0.0027992544 0.85141087 0.5244919
vn -0.7159217 0.43814874 0.5435823
vn -0.93108517 0.1381494 0.3376317
vn -0.0028020558 0.7925604 0.60978687
vn 0.7168018 0.40964168 0.5642595
vn 0.9300015 0.20627075 0.3042199
vn 0.0028472 0.649242 0.76057655
vn -0.7207377 0.2413434 0.64983886
vn -0.93193805 0.021508988 0.3619791
vn -0.0028451004 0.56426865 0.8255863
vn 0.7212631 0.20718235 0.66095006
vn 0.9315256 0.09728904 0.35042092
vn 0.0028897228 0.37518197 0.9269467
vn -0.7227862 0.018084671 0.690835
vn -0.93152684 -0.09728828 0.35041776
vn -0.0028789972 0.27118954 0.96252173
vn 0.7228 -0.018085258 0.69082063
vn 0.9319401 -0.021512028 0.3619736
vn 0.0029102874 0.05549235 0.9984549
vn -0.7212588 -0.20718442 0.660954
vn -0.93000203 -0.20627332 0.30421627
vn -0.0028886884 -0.05549325 0.99845487
vn 0.72074616 -0.24133646 0.64983195
vn 0.93108207 -0.13814344 0.33764285
vn 0.002899813 -0.27118853 0.9625219
vn -0.71678865 -0.40965167 0.564269
vn -0.9279615 -0.2945052 0.22837274
vn -0.002869662 -0.37518135 0.92694706
vn 0.7159301 -0.43814176 0.5435769
vn 0.9292912 -0.24083042 0.2800335
vn 0.0028629394 -0.5642699 0.82558537
vn -0.7110459 -0.56883097 0.41333392
vn -0.926282 -0.35408247 0.12894647
vn -0.0028307103 -0.64924335 0.76057553
vn 0.71032923 -0.5889736 0.3854121
vn 0.92725813 -0.3194664 0.19527835
vn 0.0028152606 -0.7925599 0.60978746
vn -0.70718277 -0.67126834 0.22201666
vn -0.9239288 -0.38255993 0.0018605039
vn -0.0027879002 -0.8514102 0.524493
vn 0.70745295 -0.68102133 0.18899782
vn 0.9258316 -0.36727142 0.08914929
vn 0.0027752763 -0.9400138 0.34112483
vn -0.7940891 -0.6077979 0.002072636
vn -0.92387956 -0.3826833 -4.104664E-07
vn -0.6037214 -0.79719543 -1.4850386E-07
vn -0.0027702127 -0.9705156 0.24102248
vn -0.0054282453 -0.9999818 0.0026250395
vn -0.0013837013 -0.9999991 2.40221E-07
vn 0.0014096678 -0.99999547 0.002650645
vn 0.0054789498 -0.999985 2.6716276E-07
vn 0.6075898 -0.7942495 0.0015251373
vn 0.9238903 -0.38265726 0.00046000324
vn 0.7971251 -0.60381424 5.930499E-07
vn 0.9238778 -0.38268778 6.0351533E-07
g _0
f 3/3/3 2/2/2 1/1/1
f 2/2/2 4/4/4 1/1/1
f 4/4/4 2/2/2 5/5/5
f 1/1/1 4/4/4 6/6/6
f 7/7/7 4/4/4 5/5/5
f 7/7/7 5/5/5 8/8/8
f 4/4/4 9/9/9 6/6/6
f 9/9/9 4/4/4 7/7/7
f 10/10/10 7/7/7 8/8/8
f 10/10/10 8/8/8 11/11/11
f 6/6/6 9/9/9 12/12/12
f 13/13/13 6/6/6 12/12/12
f 13/13/13 12/12/12 14/14/14
f 15/15/15 9/9/9 7/7/7
f 15/15/15 7/7/7 10/10/10
f 16/16/16 10/10/10 11/11/11
f 16/16/16 11/11/11 17/17/17
f 12/12/12 18/18/18 14/14/14
f 14/14/14 18/18/18 19/19/19
f 18/18/18 20/20/20 19/19/19
f 12/12/12 9/9/9 21/21/21
f 18/18/18 12/12/12 21/21/21
f 9/9/9 15/15/15 21/21/21
f 20/20/20 18/18/18 22/22/22
f 22/22/22 18/18/18 21/21/21
f 23/23/23 20/20/20 22/22/22
f 24/24/24 15/15/15 10/10/10
f 24/24/24 10/10/10 16/16/16
f 21/21/21 15/15/15 25/25/25
f 22/22/22 21/21/21 25/25/25
f 15/15/15 24/24/24 25/25/25
f 23/23/23 22/22/22 26/26/26
f 26/26/26 22/22/22 25/25/25
f 27/27/27 23/23/23 26/26/26
f 25/25/25 24/24/24 28/28/28
f 26/26/26 25/25/25 28/28/28
f 27/27/27 26/26/26 29/29/29
f 29/29/29 26/26/26 28/28/28
f 30/30/30 27/27/27 29/29/29
f 31/31/31 24/24/24 16/16/16
f 24/24/24 31/31/31 28/28/28
f 29/29/29 28/28/28 32/32/32
f 28/28/28 31/31/31 32/32/32
f 30/30/30 29/29/29 33/33/33
f 33/33/33 29/29/29 32/32/32
f 34/34/34 30/30/30 33/33/33
f 31/31/31 16/16/16 35/35/35
f 35/35/35 16/16/16 17/17/17
f 35/35/35 17/17/17 36/36/36
f 31/31/31 37/37/37 32/32/32
f 37/37/37 31/31/31 35/35/35
f 38/38/38 35/35/35 36/36/36
f 37/37/37 35/35/35 38/38/38
f 36/36/36 39/39/39 38/38/38
f 33/33/33 40/40/40 34/34/34
f 40/40/40 41/41/41 34/34/34
f 32/32/32 42/42/42 33/33/33
f 42/42/42 32/32/32 37/37/37
f 42/42/42 40/40/40 33/33/33
f 39/39/39 43/43/43 38/38/38
f 39/39/39 44/44/44 43/43/43
f 45/45/45 37/37/37 38/38/38
f 45/45/45 42/42/42 37/37/37
f 38/38/38 43/43/43 45/45/45
f 40/40/40 46/46/46 41/41/41
f 46/46/46 47/47/47 41/41/41
f 42/42/42 48/48/48 40/40/40
f 48/48/48 42/42/42 45/45/45
f 48/48/48 46/46/46 40/40/40
f 44/44/44 49/49/49 43/43/43
f 44/44/44 50/50/50 49/49/49
f 43/43/43 51/51/51 45/45/45
f 51/51/51 48/48/48 45/45/45
f 43/43/43 49/49/49 51/51/51
f 46/46/46 52/52/52 47/47/47
f 52/52/52 53/53/53 47/47/47
f 48/48/48 54/54/54 46/46/46
f 54/54/54 48/48/48 51/51/51
f 54/54/54 52/52/52 46/46/46
f 50/50/50 55/55/55 49/49/49
f 55/55/55 50/50/50 56/56/56
f 49/49/49 57/57/57 51/51/51
f 57/57/57 54/54/54 51/51/51
f 49/49/49 55/55/55 57/57/57
f 52/52/52 58/58/58 53/53/53
f 58/58/58 59/59/59 53/53/53
f 54/54/54 60/60/60 52/52/52
f 60/60/60 54/54/54 57/57/57
f 60/60/60 58/58/58 52/52/52
f 61/61/61 55/55/55 56/56/56
f 61/61/61 56/56/56 62/62/62
f 55/55/55 63/63/63 57/57/57
f 63/63/63 60/60/60 57/57/57
f 63/63/63 55/55/55 61/61/61
f 59/59/59 58/58/58 64/64/64
f 65/65/65 59/59/59 64/64/64
f 58/58/58 60/60/60 66/66/66
f 66/66/66 60/60/60 63/63/63
f 64/64/64 58/58/58 66/66/66
f 67/67/67 61/61/61 62/62/62
f 62/62/62 68/68/68 67/67/67
f 69/69/69 63/63/63 61/61/61
f 69/69/69 66/66/66 63/63/63
f 69/69/69 61/61/61 67/67/67
f 65/65/65 64/64/64 70/70/70
f 71/71/71 65/65/65 70/70/70
f 68/68/68 72/72/72 67/67/67
f 68/68/68 73/73/73 72/72/72
f 74/74/74 69/69/69 67/67/67
f 66/66/66 69/69/69 74/74/74
f 67/67/67 72/72/72 74/74/74
f 64/64/64 66/66/66 75/75/75
f 70/70/70 64/64/64 75/75/75
f 75/75/75 66/66/66 74/74/74
f 70/70/70 76/76/76 71/71/71
f 76/76/76 77/77/77 71/71/71
f 75/75/75 78/78/78 70/70/70
f 78/78/78 75/75/75 74/74/74
f 78/78/78 76/76/76 70/70/70
f 73/73/73 79/79/79 72/72/72
f 73/73/73 80/80/80 79/79/79
f 72/72/72 81/81/81 74/74/74
f 81/81/81 78/78/78 74/74/74
f 72/72/72 79/79/79 81/81/81
f 76/76/76 82/82/82 77/77/77
f 82/82/82 83/83/83 77/77/77
f 78/78/78 84/84/84 76/76/76
f 84/84/84 78/78/78 81/81/81
f 84/84/84 82/82/82 76/76/76
f 80/80/80 85/85/85 79/79/79
f 80/80/80 86/86/86 85/85/85
f 79/79/79 87/87/87 81/81/81
f 87/87/87 84/84/84 81/81/81
f 79/79/79 85/85/85 87/87/87
f 82/82/82 88/88/88 83/83/83
f 88/88/88 89/89/89 83/83/83
f 84/84/84 90/90/90 82/82/82
f 90/90/90 84/84/84 87/87/87
f 90/90/90 88/88/88 82/82/82
f 86/86/86 91/91/91 85/85/85
f 86/86/86 92/92/92 91/91/91
f 85/85/85 93/93/93 87/87/87
f 93/93/93 90/90/90 87/87/87
f 85/85/85 91/91/91 93/93/93
f 88/88/88 94/94/94 89/89/89
f 94/94/94 95/95/95 89/89/89
f 90/90/90 96/96/96 88/88/88
f 96/96/96 90/90/90 93/93/93
f 96/96/96 94/94/94 88/88/88
f 92/92/92 97/97/97 91/91/91
f 92/92/92 98/98/98 97/97/97
f 91/91/91 99/99/99 93/93/93
f 99/99/99 96/96/96 93/93/93
f 91/91/91 97/97/97 99/99/99
f 94/94/94 100/100/100 95/95/95
f 100/100/100 101/101/101 95/95/95
f 96/96/96 102/102/102 94/94/94
f 102/102/102 96/96/96 99/99/99
f 102/102/102 100/100/100 94/94/94
f 98/98/98 103/103/103 97/97/97
f 98/98/98 104/104/104 103/103/103
f 97/97/97 105/105/105 99/99/99
f 105/105/105 102/102/102 99/99/99
f 97/97/97 103/103/103 105/105/105
f 100/100/100 106/106/106 101/101/101
f 106/106/106 107/107/107 101/101/101
f 102/102/102 108/108/108 100/100/100
f 108/108/108 102/102/102 105/105/105
f 108/108/108 106/106/106 100/100/100
f 104/104/104 109/109/109 103/103/103
f 104/104/104 110/110/110 109/109/109
f 103/103/103 111/111/111 105/105/105
f 111/111/111 108/108/108 105/105/105
f 103/103/103 109/109/109 111/111/111
f 106/106/106 112/112/112 107/107/107
f 112/112/112 113/113/113 107/107/107
f 108/108/108 114/114/114 106/106/106
f 114/114/114 108/108/108 111/111/111
f 114/114/114 112/112/112 106/106/106
f 110/110/110 115/115/115 109/109/109
f 110/110/110 116/116/116 115/115/115
f 109/109/109 117/117/117 111/111/111
f 117/117/117 114/114/114 111/111/111
f 109/109/109 115/115/115 117/117/117
f 112/112/112 118/118/118 113/113/113
f 118/118/118 119/119/119 113/113/113
f 114/114/114 120/120/120 112/112/112
f 120/120/120 114/114/114 117/117/117
f 120/120/120 118/118/118 112/112/112
f 116/116/116 121/121/121 115/115/115
f 121/121/121 116/116/116 122/122/122
f 115/115/115 123/123/123 117/117/117
f 123/123/123 120/120/120 117/117/117
f 115/115/115 121/121/121 123/123/123
f 118/118/118 124/124/124 119/119/119
f 124/124/124 125/125/125 119/119/119
f 120/120/120 126/126/126 118/118/118
f 126/126/126 120/120/120 123/123/123
f 126/126/126 124/124/124 118/118/118
f 127/127/127 121/121/121 122/122/122
f 122/122/122 128/128/128 127/127/127
f 128/128/128 129/129/129 127/127/127
f 121/121/121 130/130/130 123/123/123
f 130/130/130 126/126/126 123/123/123
f 130/130/130 121/121/121 127/127/127
f 127/127/127 129/129/129 131/131/131
f 131/131/131 130/130/130 127/127/127
f 129/129/129 132/132/132 131/131/131
f 133/133/133 126/126/126 130/130/130
f 131/131/131 133/133/133 130/130/130
f 131/131/131 132/132/132 133/133/133
f 124/124/124 126/126/126 133/133/133
f 132/132/132 134/134/134 133/133/133
f 125/125/125 124/124/124 135/135/135
f 135/135/135 124/124/124 133/133/133
f 133/133/133 134/134/134 135/135/135
f 136/136/136 125/125/125 135/135/135
f 134/134/134 137/137/137 135/135/135
f 135/135/135 137/137/137 136/136/136
f 137/137/137 138/138/138 136/136/136
