g pb_Mesh-5304704
v -0 0 0
v -0 0.67 0
v 0.21837866 0 0.815
v 0.21837866 0.67 0.815
v 0.21837866 0 0.815
v 0.21837866 0.67 0.815
v 0.51290816 5.5539826E-06 1.1675932
v 0.51290864 0.67000574 1.1675931
v 0.51290816 5.5539826E-06 1.1675932
v 0.51290864 0.67000574 1.1675931
v 1.3279083 1.753511E-05 1.1874031
v 1.3279092 0.6700177 1.187403
v 1.3279083 1.753511E-05 1.1874031
v 1.3279092 0.6700177 1.187403
v 2.1429088 5.0812014E-06 1.1675932
v 2.1429093 0.67000526 1.1675931
v 2.1429088 5.0812014E-06 1.1675932
v 2.1429093 0.67000526 1.1675931
v 3.0416212 0 0.8150001
v 3.0416212 0.67 0.8150001
v 3.0416212 0 0.8150001
v 3.0416212 0.67 0.8150001
v 3.26 0 -1.4249913E-07
v 3.26 0.67 -1.4249913E-07
v 3.26 0 -1.4249913E-07
v 3.26 0.67 -1.4249913E-07
v 3.0416212 0 -0.81499994
v 3.0416212 0.67 -0.81499994
v 3.0416212 0 -0.81499994
v 3.0416212 0.67 -0.81499994
v 2.445 0 -1.4116215
v 2.445 0.67 -1.4116215
v 2.445 0 -1.4116215
v 2.445 0.67 -1.4116215
v 1.63 0 -1.63
v 1.63 0.67 -1.63
v 1.63 0 -1.63
v 1.63 0.67 -1.63
v 0.8150001 0 -1.4116215
v 0.8150001 0.67 -1.4116215
v 0.8150001 0 -1.4116215
v 0.8150001 0.67 -1.4116215
v 0.21837866 0 -0.8150003
v 0.21837866 0.67 -0.8150003
v 0.21837866 0 -0.8150003
v 0.21837866 0.67 -0.8150003
v -0 0 0
v -0 0.67 0
v -0 0 0
v 1.63 0 0
v 0.21837866 0 0.815
v -0 0.67 0
v 1.63 0.67 0
v 0.21837866 0.67 0.815
v 0.21837866 0 0.815
v 1.63 0 0
v 0.51290816 5.5539826E-06 1.1675932
v 0.21837866 0.67 0.815
v 1.63 0.67 0
v 0.51290864 0.67000574 1.1675931
v 0.51290816 5.5539826E-06 1.1675932
v 1.63 0 0
v 1.3279083 1.753511E-05 1.1874031
v 0.51290864 0.67000574 1.1675931
v 1.63 0.67 0
v 1.3279092 0.6700177 1.187403
v 1.3279083 1.753511E-05 1.1874031
v 1.63 0 0
v 2.1429088 5.0812014E-06 1.1675932
v 1.3279092 0.6700177 1.187403
v 1.63 0.67 0
v 2.1429093 0.67000526 1.1675931
v 2.1429088 5.0812014E-06 1.1675932
v 1.63 0 0
v 3.0416212 0 0.8150001
v 2.1429093 0.67000526 1.1675931
v 1.63 0.67 0
v 3.0416212 0.67 0.8150001
v 3.0416212 0 0.8150001
v 1.63 0 0
v 3.26 0 -1.4249913E-07
v 3.0416212 0.67 0.8150001
v 1.63 0.67 0
v 3.26 0.67 -1.4249913E-07
v 3.26 0 -1.4249913E-07
v 1.63 0 0
v 3.0416212 0 -0.81499994
v 3.26 0.67 -1.4249913E-07
v 1.63 0.67 0
v 3.0416212 0.67 -0.81499994
v 3.0416212 0 -0.81499994
v 1.63 0 0
v 2.445 0 -1.4116215
v 3.0416212 0.67 -0.81499994
v 1.63 0.67 0
v 2.445 0.67 -1.4116215
v 2.445 0 -1.4116215
v 1.63 0 0
v 1.63 0 -1.63
v 2.445 0.67 -1.4116215
v 1.63 0.67 0
v 1.63 0.67 -1.63
v 1.63 0 -1.63
v 1.63 0 0
v 0.8150001 0 -1.4116215
v 1.63 0.67 -1.63
v 1.63 0.67 0
v 0.8150001 0.67 -1.4116215
v 0.8150001 0 -1.4116215
v 1.63 0 0
v 0.21837866 0 -0.8150003
v 0.8150001 0.67 -1.4116215
v 1.63 0.67 0
v 0.21837866 0.67 -0.8150003
v 0.21837866 0 -0.8150003
v 1.63 0 0
v -0 0 0
v 0.21837866 0.67 -0.8150003
v 1.63 0.67 0
v -0 0.67 0
vt 0 0
vt 0 0.67
vt 0.8437501 0
vt 0.8437501 0.67
vt 0.7654871 0
vt 0.7654871 0.67
vt 1.2249103 5.5539826E-06
vt 1.2249104 0.67000574
vt 0.5411285 5.298806E-06
vt 0.541129 0.67000544
vt 1.3563694 1.7279934E-05
vt 1.3563703 0.6700175
vt 1.298663 1.73306E-05
vt 1.298664 0.6700175
vt 2.1139042 4.8766897E-06
vt 2.1139047 0.6700051
vt 1.5684341 5.2575015E-06
vt 1.5684346 0.67000544
vt 2.5338387 1.7630009E-07
vt 2.5338387 0.6700002
vt 2.952326E-07 0
vt 2.952326E-07 0.67
vt 0.8437507 0
vt 0.8437507 0.67
vt -0.8437509 0
vt -0.8437509 0.67
vt -9.387255E-07 0
vt -9.387255E-07 0.67
vt -1.5744582 0
vt -1.5744582 0.67
vt -0.73070824 0
vt -0.73070824 0.67
vt -1.9963341 0
vt -1.9963341 0.67
vt -1.1525841 0
vt -1.1525841 0.67
vt -1.9963341 0
vt -1.9963341 0.67
vt -1.1525841 0
vt -1.1525841 0.67
vt -1.5744592 0
vt -1.5744592 0.67
vt -0.7307092 0
vt -0.7307092 0.67
vt -0.8437504 0
vt -0.8437504 0.67
vt 0 0
vt 0 0.67
vt 0 0
vt 1.63 0
vt 0.21837866 0.815
vt 0 0
vt -1.63 0
vt -0.21837866 0.815
vt 0.21837866 0.815
vt 1.63 -1.0627495E-10
vt 0.51290816 1.1675932
vt -0.2183829 0.8150074
vt -1.6300043 7.394886E-06
vt -0.51291287 1.1676006
vt 0.51290816 1.1675932
vt 1.63 -4.2735557E-10
vt 1.3279083 1.1874031
vt -0.5129182 1.1676055
vt -1.6300095 1.24172975E-05
vt -1.3279188 1.1874154
vt 1.3279083 1.1874031
vt 1.63 2.6793348E-10
vt 2.1429088 1.1675932
vt -1.3278992 1.1874104
vt -1.62999 7.429561E-06
vt -2.1428993 1.1676005
vt 2.1429088 1.1675932
vt 1.63 3.199337E-11
vt 3.0416212 0.8150001
vt -2.142907 1.1675972
vt -1.6299976 4.0326586E-06
vt -3.0416188 0.81500417
vt 3.0416212 0.8150002
vt 1.63 5.9604645E-08
vt 3.26 -8.289449E-08
vt -3.0416212 0.8150002
vt -1.63 5.9604645E-08
vt -3.26 -8.289449E-08
vt 3.26 -1.4249913E-07
vt 1.63 0
vt 3.0416212 -0.81499994
vt -3.26 -1.4249913E-07
vt -1.63 0
vt -3.0416212 -0.81499994
vt 3.0416212 -0.81499994
vt 1.63 0
vt 2.445 -1.4116215
vt -3.0416212 -0.81499994
vt -1.63 0
vt -2.445 -1.4116215
vt 2.445 -1.4116215
vt 1.63 0
vt 1.63 -1.63
vt -2.445 -1.4116215
vt -1.63 0
vt -1.63 -1.63
vt 1.63 -1.63
vt 1.63 0
vt 0.8150001 -1.4116215
vt -1.63 -1.63
vt -1.63 0
vt -0.8150001 -1.4116215
vt 0.8150001 -1.4116215
vt 1.63 0
vt 0.21837866 -0.8150003
vt -0.8150001 -1.4116215
vt -1.63 0
vt -0.21837866 -0.8150003
vt 0.21837866 -0.8150003
vt 1.63 0
vt 0 0
vt -0.21837866 -0.8150003
vt -1.63 0
vt 0 0
vn -0.9659258 0 0.25881913
vn -0.9659258 0 0.25881913
vn -0.9659258 0 0.25881913
vn -0.9659258 0 0.25881913
vn -0.7674695 0 0.6410855
vn -0.76746917 3.3013504E-07 0.64108586
vn -0.76746917 3.3013504E-07 0.64108586
vn -0.76746887 6.602701E-07 0.6410862
vn -0.024299374 1.9516551E-07 0.9997047
vn -0.024299368 2.0381239E-07 0.9997047
vn -0.024299368 2.0381239E-07 0.9997047
vn -0.02429936 2.1245928E-07 0.9997047
vn 0.024299363 1.4328417E-07 0.9997047
vn 0.024299368 1.5193105E-07 0.9997047
vn 0.024299368 1.5193105E-07 0.9997047
vn 0.024299376 1.6057793E-07 0.9997047
vn 0.36522838 -9.429907E-08 0.930918
vn 0.3652284 -4.7149534E-08 0.930918
vn 0.3652284 -4.7149534E-08 0.930918
vn 0.36522844 0 0.930918
vn 0.9659258 0 0.2588192
vn 0.9659258 0 0.2588192
vn 0.9659258 0 0.2588192
vn 0.9659258 0 0.2588192
vn 0.96592575 0 -0.2588193
vn 0.96592575 0 -0.2588193
vn 0.96592575 0 -0.2588193
vn 0.96592575 0 -0.2588193
vn 0.70710695 0 -0.7071066
vn 0.70710695 0 -0.7071066
vn 0.70710695 0 -0.7071066
vn 0.70710695 0 -0.7071066
vn 0.258819 0 -0.9659258
vn 0.258819 0 -0.9659258
vn 0.258819 0 -0.9659258
vn 0.258819 0 -0.9659258
vn -0.258819 0 -0.9659258
vn -0.258819 0 -0.9659258
vn -0.258819 0 -0.9659258
vn -0.258819 0 -0.9659258
vn -0.70710665 0 -0.70710695
vn -0.70710665 0 -0.70710695
vn -0.70710665 0 -0.70710695
vn -0.70710665 0 -0.70710695
vn -0.9659259 0 -0.25881907
vn -0.9659259 0 -0.25881907
vn -0.9659259 0 -0.25881907
vn -0.9659259 0 -0.25881907
vn -0 -1 0
vn -0 -1 0
vn -0 -1 0
vn -0 1 0
vn -0 1 0
vn -0 1 0
vn 6.135378E-06 -1 1.0626786E-05
vn 6.135378E-06 -1 1.0626786E-05
vn 6.135378E-06 -1 1.0626786E-05
vn -6.3210323E-06 1 -1.0948349E-05
vn -6.3210323E-06 1 -1.0948349E-05
vn -6.3210323E-06 1 -1.0948349E-05
vn 1.42536755E-05 -1 1.8393946E-05
vn 1.42536755E-05 -1 1.8393946E-05
vn 1.42536755E-05 -1 1.8393946E-05
vn -1.42495355E-05 1 -1.8533921E-05
vn -1.42495355E-05 1 -1.8533921E-05
vn -1.42495355E-05 1 -1.8533921E-05
vn -1.5014761E-05 -1 1.0947652E-05
vn -1.5014761E-05 -1 1.0947652E-05
vn -1.5014761E-05 -1 1.0947652E-05
vn 1.5015593E-05 1 -1.1088491E-05
vn 1.5015593E-05 1 -1.1088491E-05
vn 1.5015593E-05 1 -1.1088491E-05
vn -3.366324E-06 -1 5.8306427E-06
vn -3.366324E-06 -1 5.8306427E-06
vn -3.366324E-06 -1 5.8306427E-06
vn 3.474981E-06 1 -6.018842E-06
vn 3.474981E-06 1 -6.018842E-06
vn 3.474981E-06 1 -6.018842E-06
vn -0 -1 0
vn -0 -1 0
vn -0 -1 0
vn -0 1 0
vn -0 1 0
vn -0 1 0
vn -0 -1 0
vn -0 -1 0
vn -0 -1 0
vn -0 1 0
vn -0 1 0
vn -0 1 0
vn -0 -1 0
vn -0 -1 0
vn -0 -1 0
vn -0 1 0
vn -0 1 0
vn -0 1 0
vn -0 -1 0
vn -0 -1 0
vn -0 -1 0
vn -0 1 0
vn -0 1 0
vn -0 1 0
vn -0 -1 0
vn -0 -1 0
vn -0 -1 0
vn -0 1 0
vn -0 1 0
vn -0 1 0
vn -0 -1 0
vn -0 -1 0
vn -0 -1 0
vn -0 1 0
vn -0 1 0
vn -0 1 0
vn -0 -1 0
vn -0 -1 0
vn -0 -1 0
vn -0 1 0
vn -0 1 0
vn -0 1 0
g pb_Mesh-5304704_0
f 3/3/3 2/2/2 1/1/1
f 3/3/3 4/4/4 2/2/2
f 7/7/7 6/6/6 5/5/5
f 7/7/7 8/8/8 6/6/6
f 11/11/11 10/10/10 9/9/9
f 11/11/11 12/12/12 10/10/10
f 15/15/15 14/14/14 13/13/13
f 15/15/15 16/16/16 14/14/14
f 19/19/19 18/18/18 17/17/17
f 19/19/19 20/20/20 18/18/18
f 23/23/23 22/22/22 21/21/21
f 23/23/23 24/24/24 22/22/22
f 27/27/27 26/26/26 25/25/25
f 27/27/27 28/28/28 26/26/26
f 31/31/31 30/30/30 29/29/29
f 31/31/31 32/32/32 30/30/30
f 35/35/35 34/34/34 33/33/33
f 35/35/35 36/36/36 34/34/34
f 39/39/39 38/38/38 37/37/37
f 39/39/39 40/40/40 38/38/38
f 43/43/43 42/42/42 41/41/41
f 43/43/43 44/44/44 42/42/42
f 47/47/47 46/46/46 45/45/45
f 47/47/47 48/48/48 46/46/46
f 49/49/49 50/50/50 51/51/51
f 55/55/55 56/56/56 57/57/57
f 61/61/61 62/62/62 63/63/63
f 67/67/67 68/68/68 69/69/69
f 73/73/73 74/74/74 75/75/75
f 79/79/79 80/80/80 81/81/81
f 85/85/85 86/86/86 87/87/87
f 91/91/91 92/92/92 93/93/93
f 97/97/97 98/98/98 99/99/99
f 103/103/103 104/104/104 105/105/105
f 109/109/109 110/110/110 111/111/111
f 115/115/115 116/116/116 117/117/117
f 54/54/54 53/53/53 52/52/52
f 60/60/60 59/59/59 58/58/58
f 66/66/66 65/65/65 64/64/64
f 72/72/72 71/71/71 70/70/70
f 78/78/78 77/77/77 76/76/76
f 84/84/84 83/83/83 82/82/82
f 90/90/90 89/89/89 88/88/88
f 96/96/96 95/95/95 94/94/94
f 102/102/102 101/101/101 100/100/100
f 108/108/108 107/107/107 106/106/106
f 114/114/114 113/113/113 112/112/112
f 120/120/120 119/119/119 118/118/118
