g pb_Mesh-29512
v 30 0.625 7
v 25 -0.625 7
v 25 2.625 7
v 30 -0.125 7
v -23 4.377777 7
v -30 -4.625 7
v -30 4.625 7
v -23 -4.125 7
v -30 -4.625 -7
v -23 -4.125 -7
v -23 4.377777 -7
v -30 4.625 -7
v -30 4.625 7
v -23 4.377777 -7
v -23 4.377777 7
v -30 4.625 -7
v -23 -4.125 -7
v -30 -4.625 -7
v -30 -4.625 7
v -23 -4.125 7
v -3 3.6375322 7
v -7 -2.875 7
v -7 3.78975 7
v -3 -2.625 7
v -7 -2.875 -7
v -3 -2.625 -7
v -3 3.6375322 -7
v -7 3.78975 -7
v -7 3.78975 7
v -3 3.6375322 -7
v -3 3.6375322 7
v -7 3.78975 -7
v -3 -2.625 -7
v -7 -2.875 -7
v -7 -2.875 7
v -3 -2.625 7
v -3 3.6375322 7
v -3 -2.625 -7
v -3 -2.625 7
v -3 3.6375322 -7
v -7 3.78975 -7
v -7 -2.875 7
v -7 -2.875 -7
v -7 3.78975 7
v -30 4.625 -7
v -30 -4.625 7
v -30 -4.625 -7
v -30 4.625 7
v -23 4.377777 7
v -23 -4.125 -7
v -23 -4.125 7
v -23 4.377777 -7
v 25 2.625 -1.25
v 30 0.625 -1.25
v 30 0.625 7
v 25 2.625 7
v 25 -0.625 -1.25
v 30 -0.125 -1.25
v 30 -0.125 -2.25
v 25 -0.625 -2.25
v 25 -0.625 7
v 30 -0.125 7
v 25 -0.625 7
v 25 -0.625 -1.25
v 25 2.625 -1.25
v 25 2.625 7
v 30 0.625 -1.25
v 30 -0.125 7
v 30 0.625 7
v 30 -0.125 -1.25
vt 30 0.625
vt 25 -0.625
vt 25 2.625
vt 30 -0.125
vt -23 4.377777
vt -30 -4.625
vt -30 4.625
vt -23 -4.125
vt 30 -4.625
vt 23 -4.125
vt 23 4.377777
vt 30 4.625
vt 30.354345 7
vt 23.396626 -7
vt 23.396626 7
vt 30.354345 -7
vt -23.26339 -7
vt -30.280724 -7
vt -30.280724 7
vt -23.26339 7
vt -3 3.6375322
vt -7 -2.875
vt -7 3.78975
vt -3 -2.625
vt 7 -2.875
vt 3 -2.625
vt 3 3.6375322
vt 7 3.78975
vt 7.489822 7
vt 3.5123384 -7
vt 3.5123384 7
vt 7.489822 -7
vt -3.207927 -7
vt -7.214861 -7
vt -7.214861 7
vt -3.207927 7
vt -7 3.6375322
vt 7 -2.625
vt -7 -2.625
vt 7 3.6375322
vt -7 3.78975
vt 7 -2.875
vt -7 -2.875
vt 7 3.78975
vt -7 4.625
vt 7 -4.625
vt -7 -4.625
vt 7 4.625
vt -7 4.377777
vt 7 -4.125
vt -7 -4.125
vt 7 4.377777
vt -24.322088 -1.25
vt -29.565771 -1.25
vt -29.565771 7
vt -24.322088 7
vt 24.861404 -1.25
vt 29.885666 -1.25
vt 29.885666 -2.25
vt 24.861404 -2.25
vt 24.861404 7
vt 29.885666 7
vt 7 -0.625
vt -1.25 -0.625
vt -1.25 2.625
vt 7 2.625
vt 1.25 0.625
vt -7 -0.125
vt -7 0.625
vt 1.25 -0.125
vn -0 0 1
vn -0 0 1
vn -0 0 1
vn -0 0 1
vn -0 0 1
vn -0 0 1
vn -0 0 1
vn -0 0 1
vn -0 0 -1
vn -0 0 -1
vn -0 0 -1
vn -0 0 -1
vn 0.03529555 0.9993769 0
vn 0.03529555 0.9993769 0
vn 0.03529555 0.9993769 0
vn 0.03529555 0.9993769 0
vn 0.07124705 -0.9974587 0
vn 0.07124705 -0.9974587 0
vn 0.07124705 -0.9974587 0
vn 0.07124705 -0.9974587 0
vn -0 0 1
vn -0 0 1
vn -0 0 1
vn -0 0 1
vn -0 0 -1
vn -0 0 -1
vn -0 0 -1
vn -0 0 -1
vn 0.03802694 0.9992767 0
vn 0.03802694 0.9992767 0
vn 0.03802694 0.9992767 0
vn 0.03802694 0.9992767 0
vn 0.062378287 -0.9980526 0
vn 0.062378287 -0.9980526 0
vn 0.062378287 -0.9980526 0
vn 0.062378287 -0.9980526 0
vn 1 0 0
vn 1 0 0
vn 1 0 0
vn 1 0 0
vn -1 0 0
vn -1 0 0
vn -1 0 0
vn -1 0 0
vn -1 0 0
vn -1 0 0
vn -1 0 0
vn -1 0 0
vn 1 0 0
vn 1 0 0
vn 1 0 0
vn 1 0 0
vn 0.3713907 0.9284767 0
vn 0.3713907 0.9284767 0
vn 0.3713907 0.9284767 0
vn 0.3713907 0.9284767 0
vn 0.099503726 -0.9950372 0
vn 0.099503726 -0.9950372 0
vn 0.099503726 -0.9950372 0
vn 0.099503726 -0.9950372 0
vn 0.099503726 -0.9950372 0
vn 0.099503726 -0.9950372 0
vn -1 0 0
vn -1 0 0
vn -1 0 0
vn -1 0 0
vn 1 0 0
vn 1 0 0
vn 1 0 0
vn 1 0 0
g pb_Mesh-29512_0
f 3/3/3 2/2/2 1/1/1
f 2/2/2 4/4/4 1/1/1
f 7/7/7 6/6/6 5/5/5
f 6/6/6 8/8/8 5/5/5
f 11/11/11 10/10/10 9/9/9
f 11/11/11 9/9/9 12/12/12
f 15/15/15 14/14/14 13/13/13
f 14/14/14 16/16/16 13/13/13
f 19/19/19 18/18/18 17/17/17
f 19/19/19 17/17/17 20/20/20
f 23/23/23 22/22/22 21/21/21
f 22/22/22 24/24/24 21/21/21
f 27/27/27 26/26/26 25/25/25
f 27/27/27 25/25/25 28/28/28
f 31/31/31 30/30/30 29/29/29
f 30/30/30 32/32/32 29/29/29
f 35/35/35 34/34/34 33/33/33
f 35/35/35 33/33/33 36/36/36
f 39/39/39 38/38/38 37/37/37
f 38/38/38 40/40/40 37/37/37
f 43/43/43 42/42/42 41/41/41
f 42/42/42 44/44/44 41/41/41
f 47/47/47 46/46/46 45/45/45
f 46/46/46 48/48/48 45/45/45
f 51/51/51 50/50/50 49/49/49
f 50/50/50 52/52/52 49/49/49
f 55/55/55 54/54/54 53/53/53
f 55/55/55 53/53/53 56/56/56
f 59/59/59 58/58/58 57/57/57
f 60/60/60 59/59/59 57/57/57
f 58/58/58 62/62/62 61/61/61
f 57/57/57 58/58/58 61/61/61
f 65/65/65 64/64/64 63/63/63
f 65/65/65 63/63/63 66/66/66
f 69/69/69 68/68/68 67/67/67
f 68/68/68 70/70/70 67/67/67
