g pb_Mesh6966344
v -1.0000062 -7.3674774 -2.6725018E-06
v -0.00046610134 -7.3674774 -2.910202E-05
v -1.0000075 14.051149 -3.1678983E-06
v -0.00046761424 14.051149 -3.046285E-05
v -0.00046610134 -7.3674774 -2.910202E-05
v -0.00044656327 -7.367483 -1.5000294
v -0.00046761424 14.051149 -3.046285E-05
v -0.00044647758 14.051144 -1.5000309
v -0.00044656327 -7.367483 -1.5000294
v -0.9999904 -7.367483 -1.5000316
v -0.00044647758 14.051144 -1.5000309
v -0.99999315 14.051144 -1.500032
v -0.9999904 -7.367483 -1.5000316
v -1.0000062 -7.3674774 -2.6725018E-06
v -0.99999315 14.051144 -1.500032
v -1.0000075 14.051149 -3.1678983E-06
v -1.0000075 14.051149 -3.1678983E-06
v -0.00046761424 14.051149 -3.046285E-05
v -0.99999315 14.051144 -1.500032
v -0.00044647758 14.051144 -1.5000309
v -0.9999904 -7.367483 -1.5000316
v -0.00044656327 -7.367483 -1.5000294
v -1.0000062 -7.3674774 -2.6725018E-06
v -0.00046610134 -7.3674774 -2.910202E-05
vt -1.0000062 -7.3674774
vt -0.00046610055 -7.3674774
vt -1.0000075 14.051149
vt -0.0004676134 14.051149
vt 2.9095452E-05 -7.3674774
vt 1.5000294 -7.367483
vt 3.0456262E-05 14.051149
vt 1.5000309 14.051144
vt 0.00044817335 -7.367483
vt 0.999992 -7.367483
vt 0.00044808767 14.051144
vt 0.99999475 14.051144
vt -1.500022 -7.367483
vt 6.903854E-06 -7.3674774
vt -1.5000224 14.051144
vt 6.4084697E-06 14.051149
vt 1.0000076 5.0432973E-05
vt 0.0004676739 2.3138022E-05
vt 0.9999932 -1.4999783
vt 0.00044653725 -1.4999772
vt -0.9999904 -1.5000597
vt -0.00044656402 -1.5000576
vt -1.0000062 -3.077719E-05
vt -0.0004661021 -5.720671E-05
vn 2.6441681E-05 2.3130859E-08 1
vn 2.6874597E-05 4.3333817E-08 1
vn 2.6874597E-05 4.3333817E-08 1
vn 2.7307515E-05 6.3536774E-08 1
vn 1 7.063582E-08 1.30253775E-05
vn 1 3.3318212E-08 1.35582395E-05
vn 1 3.3318212E-08 1.35582395E-05
vn 1 -3.9993933E-09 1.4091101E-05
vn 2.1467465E-06 -6.678821E-08 -1
vn 1.6100583E-06 -4.174256E-08 -1
vn 1.6100583E-06 -4.174256E-08 -1
vn 1.0733702E-06 -1.6696912E-08 -1
vn -1 -1.280109E-07 -1.05299505E-05
vn -1 -9.461684E-08 -1.0053123E-05
vn -1 -9.461684E-08 -1.0053123E-05
vn -1 -6.122278E-08 -9.576296E-06
vn -1.0418308E-10 1 -3.8146243E-06
vn -5.004425E-11 1 -3.8146604E-06
vn -5.004425E-11 1 -3.8146604E-06
vn 4.0945814E-12 1 -3.8146966E-06
vn -8.18903E-12 -1 3.8146236E-06
vn 4.633897E-11 -1 3.81466E-06
vn 4.633897E-11 -1 3.81466E-06
vn 1.00866974E-10 -1 3.8146964E-06
g pb_Mesh6966344_0
f 2/2/2 4/4/4 3/3/3
f 1/1/1 2/2/2 3/3/3
f 6/6/6 8/8/8 7/7/7
f 5/5/5 6/6/6 7/7/7
f 10/10/10 12/12/12 11/11/11
f 9/9/9 10/10/10 11/11/11
f 14/14/14 16/16/16 15/15/15
f 13/13/13 14/14/14 15/15/15
f 18/18/18 20/20/20 19/19/19
f 17/17/17 18/18/18 19/19/19
f 22/22/22 24/24/24 23/23/23
f 21/21/21 22/22/22 23/23/23
