g pb_Mesh-5660672
v -3.7431727E-07 3.2305712E-07 0.38999972
v 0.038429797 0.39018095 0.38999996
v -3.635884E-07 3.3378598E-07 0.47999987
v 0.038429808 0.39018193 0.48
v 2 0 0
v 2 0 0
v 2.0000017 3.337861E-07 0.4800006
v 2 0 0
v 2.0000017 3.337861E-07 0.4800006
v 2.0000017 3.337861E-07 0.4800006
v -3.635884E-07 3.3378598E-07 0.47999987
v 2.0000017 3.337861E-07 0.4800006
v -3.7431727E-07 3.2305712E-07 0.38999972
v 2 0 0
v 0.038429797 0.39018095 0.38999996
v 0.15224126 0.7653708 0.39000043
v 0.038429808 0.39018193 0.48
v 0.15224127 0.7653689 0.4800001
v 2 0 0
v 2 0 0
v 2.0000017 3.337861E-07 0.4800006
v 2 0 0
v 2.0000017 3.337861E-07 0.4800006
v 2.0000017 3.337861E-07 0.4800006
v 0.15224126 0.7653708 0.39000043
v 0.33706045 1.1111445 0.39000055
v 0.15224127 0.7653689 0.4800001
v 0.33706048 1.1111426 0.48000035
v 2 0 0
v 2 0 0
v 2.0000017 3.337861E-07 0.4800006
v 2 0 0
v 2.0000017 3.337861E-07 0.4800006
v 2.0000017 3.337861E-07 0.4800006
v 0.33706045 1.1111445 0.39000055
v 0.58578634 1.4142175 0.3900009
v 0.33706048 1.1111426 0.48000035
v 0.58578634 1.4142156 0.4800006
v 2 0 0
v 2 0 0
v 2.0000017 3.337861E-07 0.4800006
v 2 0 0
v 2.0000017 3.337861E-07 0.4800006
v 2.0000017 3.337861E-07 0.4800006
v 0.58578634 1.4142175 0.3900009
v 0.8888593 1.6629434 0.39000115
v 0.58578634 1.4142156 0.4800006
v 0.8888593 1.6629415 0.4800007
v 2 0 0
v 2 0 0
v 2.0000017 3.337861E-07 0.4800006
v 2 0 0
v 2.0000017 3.337861E-07 0.4800006
v 2.0000017 3.337861E-07 0.4800006
v 0.8888593 1.6629434 0.39000115
v 1.234633 1.8477637 0.39000162
v 0.8888593 1.6629415 0.4800007
v 1.234633 1.8477618 0.48000094
v 2 0 0
v 2 0 0
v 2.0000017 3.337861E-07 0.4800006
v 2 0 0
v 2.0000017 3.337861E-07 0.4800006
v 2.0000017 3.337861E-07 0.4800006
v 1.234633 1.8477637 0.39000162
v 1.609819 1.9615752 0.39000174
v 1.234633 1.8477618 0.48000094
v 1.60982 1.9615732 0.48000106
v 2 0 0
v 2 0 0
v 2.0000017 3.337861E-07 0.4800006
v 2 0 0
v 2.0000017 3.337861E-07 0.4800006
v 2.0000017 3.337861E-07 0.4800006
v 1.609819 1.9615752 0.39000174
v 2.0000005 2.0000043 0.3900021
v 1.60982 1.9615732 0.48000106
v 2.0000014 2.0000024 0.4800013
v 2 0 0
v 2 0 0
v 2.0000017 3.337861E-07 0.4800006
v 2 0 0
v 2.0000017 3.337861E-07 0.4800006
v 2.0000017 3.337861E-07 0.4800006
v 2.0000017 3.337861E-07 0.4800006
v 2.0000014 2.0000024 0.4800013
v 2 0 0
v 2.0000005 2.0000043 0.3900021
v -3.635884E-07 3.3378598E-07 0.47999987
v 0.038429808 0.39018193 0.48
v 2.0000017 3.337861E-07 0.4800006
v 0.038429808 0.39018193 0.48
v 2.0000017 3.337861E-07 0.4800006
v 2.0000017 3.337861E-07 0.4800006
v 0.038429797 0.39018095 0.38999996
v -3.7431727E-07 3.2305712E-07 0.38999972
v 2 0 0
v -3.7431727E-07 3.2305712E-07 0.38999972
v 2 0 0
v 2 0 0
v 0.038429808 0.39018193 0.48
v 0.15224127 0.7653689 0.4800001
v 2.0000017 3.337861E-07 0.4800006
v 0.15224127 0.7653689 0.4800001
v 2.0000017 3.337861E-07 0.4800006
v 2.0000017 3.337861E-07 0.4800006
v 0.15224126 0.7653708 0.39000043
v 0.038429797 0.39018095 0.38999996
v 2 0 0
v 0.038429797 0.39018095 0.38999996
v 2 0 0
v 2 0 0
v 0.15224127 0.7653689 0.4800001
v 0.33706048 1.1111426 0.48000035
v 2.0000017 3.337861E-07 0.4800006
v 0.33706048 1.1111426 0.48000035
v 2.0000017 3.337861E-07 0.4800006
v 2.0000017 3.337861E-07 0.4800006
v 0.33706045 1.1111445 0.39000055
v 0.15224126 0.7653708 0.39000043
v 2 0 0
v 0.15224126 0.7653708 0.39000043
v 2 0 0
v 2 0 0
v 0.33706048 1.1111426 0.48000035
v 0.58578634 1.4142156 0.4800006
v 2.0000017 3.337861E-07 0.4800006
v 0.58578634 1.4142156 0.4800006
v 2.0000017 3.337861E-07 0.4800006
v 2.0000017 3.337861E-07 0.4800006
v 0.58578634 1.4142175 0.3900009
v 0.33706045 1.1111445 0.39000055
v 2 0 0
v 0.33706045 1.1111445 0.39000055
v 2 0 0
v 2 0 0
v 0.58578634 1.4142156 0.4800006
v 0.8888593 1.6629415 0.4800007
v 2.0000017 3.337861E-07 0.4800006
v 0.8888593 1.6629415 0.4800007
v 2.0000017 3.337861E-07 0.4800006
v 2.0000017 3.337861E-07 0.4800006
v 0.8888593 1.6629434 0.39000115
v 0.58578634 1.4142175 0.3900009
v 2 0 0
v 0.58578634 1.4142175 0.3900009
v 2 0 0
v 2 0 0
v 0.8888593 1.6629415 0.4800007
v 1.234633 1.8477618 0.48000094
v 2.0000017 3.337861E-07 0.4800006
v 1.234633 1.8477618 0.48000094
v 2.0000017 3.337861E-07 0.4800006
v 2.0000017 3.337861E-07 0.4800006
v 1.234633 1.8477637 0.39000162
v 0.8888593 1.6629434 0.39000115
v 2 0 0
v 0.8888593 1.6629434 0.39000115
v 2 0 0
v 2 0 0
v 1.234633 1.8477618 0.48000094
v 1.60982 1.9615732 0.48000106
v 2.0000017 3.337861E-07 0.4800006
v 1.60982 1.9615732 0.48000106
v 2.0000017 3.337861E-07 0.4800006
v 2.0000017 3.337861E-07 0.4800006
v 1.609819 1.9615752 0.39000174
v 1.234633 1.8477637 0.39000162
v 2 0 0
v 1.234633 1.8477637 0.39000162
v 2 0 0
v 2 0 0
v 1.60982 1.9615732 0.48000106
v 2.0000014 2.0000024 0.4800013
v 2.0000017 3.337861E-07 0.4800006
v 2.0000014 2.0000024 0.4800013
v 2.0000017 3.337861E-07 0.4800006
v 2.0000017 3.337861E-07 0.4800006
v 2.0000005 2.0000043 0.3900021
v 1.609819 1.9615752 0.39000174
v 2 0 0
v 1.609819 1.9615752 0.39000174
v 2 0 0
v 2 0 0
vt 0.38999972 2.6580187E-07
vt 0.38999996 0.39206886
vt 0.47999987 2.7658265E-07
vt 0.48 0.39206988
vt 0 0
vt 0 0
vt 0 0
vt 0 0
vt 0 0
vt 0 0
vt -4.827977E-07 0.47999987
vt 2.0000014 0.4800006
vt -4.9352656E-07 0.38999972
vt 1.9999999 -3.3881282E-21
vt 0.38999984 0.38453603
vt 0.38999996 0.77660805
vt 0.47999987 0.38453707
vt 0.47999963 0.7766063
vt 0 0
vt 0 0
vt 0 0
vt 0 0
vt 0 0
vt 0 0
vt 0.3900022 0.746761
vt 0.39000443 1.1388295
vt 0.48000187 0.7467589
vt 0.48000422 1.1388272
vt 0 0
vt 0 0
vt 0 0
vt 0 0
vt 0 0
vt 0 0
vt 0.3900065 1.0727506
vt 0.39001128 1.4648191
vt 0.4800063 1.0727481
vt 0.48001096 1.4648166
vt 0 0
vt 0 0
vt 0 0
vt 0 0
vt 0 0
vt 0 0
vt -1.3499895 0.38998908
vt -1.742058 0.38998932
vt -1.3499882 0.47998875
vt -1.7420568 0.47998887
vt 0 0
vt 0 0
vt 0 0
vt 0 0
vt 0 0
vt 0 0
vt -1.5678109 0.38998157
vt -1.9598798 0.38998204
vt -1.56781 0.47998112
vt -1.9598789 0.47998136
vt 0 0
vt 0 0
vt 0 0
vt 0 0
vt 0 0
vt 0 0
vt -1.7178477 0.38997304
vt -2.109916 0.38997316
vt -1.7178471 0.47997236
vt -2.1099164 0.47997248
vt 0 0
vt 0 0
vt 0 0
vt 0 0
vt 0 0
vt 0 0
vt -1.7943337 0.38996205
vt -2.186403 0.3899624
vt -1.7943344 0.47996137
vt -2.1864038 0.4799616
vt 0 0
vt 0 0
vt 0 0
vt 0 0
vt 0 0
vt 0 0
vt -0.48000753 9.5365266E-08
vt -0.48000824 2.0000021
vt -6.9389657E-06 -2.3842082E-07
vt -0.39000905 2.000004
vt -1.9192727E-07 4.9333164E-07
vt 0.03842998 0.39018208
vt 2.000002 4.9333175E-07
vt 0.03842998 0.39018208
vt 2.000002 4.9333175E-07
vt 2.000002 4.9333175E-07
vt 0.036924638 0.39746523
vt 0.07464431 0.007215283
vt -1.9630263 0.007214959
vt 0.07464431 0.007215283
vt -1.9630263 0.007214959
vt -1.9630263 0.007214959
vt 0.038429976 0.39018202
vt 0.15224144 0.765369
vt 2.000002 4.3589276E-07
vt 0.15224144 0.765369
vt 2.000002 4.3589276E-07
vt 2.000002 4.3589276E-07
vt -0.07775866 0.78714
vt 0.03410325 0.41136432
vt -1.9657422 0.02057411
vt 0.03410325 0.41136432
vt -1.9657422 0.02057411
vt -1.9657422 0.02057411
vt 0.15224148 0.7653692
vt 0.3370607 1.1111429
vt 2.000002 6.101588E-07
vt 0.3370607 1.1111429
vt 2.000002 6.101588E-07
vt 2.000002 6.101588E-07
vt -0.26572716 1.1466076
vt -0.08360724 0.7994046
vt -1.9707903 0.03087008
vt -0.08360724 0.7994046
vt -1.9707903 0.03087008
vt -1.9707903 0.03087008
vt 0.3370607 1.1111429
vt 0.5857865 1.4142158
vt 2.000002 6.0078673E-07
vt 0.5857865 1.4142158
vt 2.000002 6.0078673E-07
vt 2.000002 6.0078673E-07
vt -0.52077466 1.4613955
vt -0.27485377 1.1560421
vt -1.9774455 0.036536813
vt -0.27485377 1.1560421
vt -1.9774455 0.036536813
vt -1.9774455 0.036536813
vt 0.58578646 1.4142158
vt 0.8888594 1.6629417
vt 2.0000017 5.5669346E-07
vt 0.8888594 1.6629417
vt 2.0000017 5.5669346E-07
vt 2.0000017 5.5669346E-07
vt -0.83396184 1.7182952
vt -0.5332036 1.4667753
vt -1.9847251 0.036671225
vt -0.5332036 1.4667753
vt -1.9847251 0.036671225
vt -1.9847251 0.036671225
vt 0.8888595 1.6629417
vt 1.2346332 1.8477619
vt 2.000002 4.6248533E-07
vt 1.2346332 1.8477619
vt 2.000002 4.6248533E-07
vt 2.000002 4.6248533E-07
vt -1.1935295 1.9061147
vt -0.8492214 1.7185782
vt -1.9915227 0.031194687
vt -0.8492214 1.7185782
vt -1.9915227 0.031194687
vt -1.9915227 0.031194687
vt 1.2346331 1.8477619
vt 1.6098201 1.9615734
vt 2.0000017 4.7243924E-07
vt 1.6098201 1.9615734
vt 2.0000017 4.7243924E-07
vt 2.0000017 4.7243924E-07
vt -1.5850741 2.01655
vt -1.2104934 1.9007614
vt -1.9967726 0.020898769
vt -1.2104934 1.9007614
vt -1.9967726 0.020898769
vt -1.9967726 0.020898769
vt 1.6098202 1.9615734
vt 2.0000017 2.0000026
vt 2.000002 5.0544713E-07
vt 2.0000017 2.0000026
vt 2.000002 5.0544713E-07
vt 2.000002 5.0544713E-07
vt -1.9921433 2.0450099
vt -1.6020337 2.0058572
vt -1.9996313 0.0073487633
vt -1.6020337 2.0058572
vt -1.9996313 0.0073487633
vt -1.9996313 0.0073487633
vn -0.9951846 0.098019 1.0695048E-07
vn -0.9951846 0.098018885 -4.2028626E-07
vn -0.9951846 0.098018885 -4.2028626E-07
vn -0.9951846 0.098018765 -9.47523E-07
vn -0 0 0
vn -0 0 0
vn -0 0 0
vn -0 0 0
vn -0 0 0
vn -0 0 0
vn 1.42108395E-14 -1 1.1920929E-07
vn -1.2964094E-08 -1 4.072981E-07
vn -1.2964094E-08 -1 4.072981E-07
vn -2.5928202E-08 -1 6.953869E-07
vn -0.9569411 0.29028204 -3.0532317E-06
vn -0.9569408 0.29028305 1.6285759E-06
vn -0.9569408 0.29028305 1.6285759E-06
vn -0.95694053 0.29028407 6.3103835E-06
vn -0 0 0
vn -0 0 0
vn -0 0 0
vn -0 0 0
vn -0 0 0
vn -0 0 0
vn -0.88192207 0.4713953 1.0136224E-05
vn -0.881922 0.4713953 1.0209226E-05
vn -0.881922 0.4713953 1.0209226E-05
vn -0.881922 0.4713953 1.0282229E-05
vn -0 0 0
vn -0 0 0
vn -0 0 0
vn -0 0 0
vn -0 0 0
vn -0 0 0
vn -0.77301 0.6343938 1.3700563E-05
vn -0.77301 0.6343938 1.3572584E-05
vn -0.77301 0.6343938 1.3572584E-05
vn -0.7730101 0.6343938 1.3444605E-05
vn -0 0 0
vn -0 0 0
vn -0 0 0
vn -0 0 0
vn -0 0 0
vn -0 0 0
vn -0.6343938 0.77300996 1.6382275E-05
vn -0.6343938 0.77301 1.6382288E-05
vn -0.6343938 0.77301 1.6382288E-05
vn -0.6343939 0.77301 1.63823E-05
vn -0 0 0
vn -0 0 0
vn -0 0 0
vn -0 0 0
vn -0 0 0
vn -0 0 0
vn -0.47139755 0.8819208 1.869043E-05
vn -0.47139752 0.8819208 1.8690454E-05
vn -0.47139752 0.8819208 1.8690454E-05
vn -0.47139752 0.8819208 1.869048E-05
vn -0 0 0
vn -0 0 0
vn -0 0 0
vn -0 0 0
vn -0 0 0
vn -0 0 0
vn -0.29028475 0.9569403 2.028036E-05
vn -0.29028443 0.9569404 2.1818356E-05
vn -0.29028443 0.9569404 2.1818356E-05
vn -0.2902841 0.95694053 2.3356351E-05
vn -0 0 0
vn -0 0 0
vn -0 0 0
vn -0 0 0
vn -0 0 0
vn -0 0 0
vn -0.0980162 0.99518484 2.2129501E-05
vn -0.0980162 0.99518484 2.2129516E-05
vn -0.0980162 0.99518484 2.2129516E-05
vn -0.098016195 0.99518484 2.2129529E-05
vn -0 0 0
vn -0 0 0
vn -0 0 0
vn -0 0 0
vn -0 0 0
vn -0 0 0
vn 1 1.1921041E-07 -3.4769334E-06
vn 1 9.735521E-07 -7.036685E-06
vn 1 9.735521E-07 -7.036685E-06
vn 1 1.8278938E-06 -1.0596436E-05
vn -3.5762747E-07 -2.7029876E-07 1
vn -1.7881374E-07 -1.3514938E-07 0.5
vn -1.7881374E-07 -1.3514938E-07 0.5
vn -1.7881374E-07 -1.3514938E-07 0.5
vn -0 0 0
vn -1.7881374E-07 -1.3514938E-07 0.5
vn -0.19136088 0.018848361 -0.9813388
vn -0.09568044 0.009424181 -0.4906694
vn -0.09568044 0.009424181 -0.4906694
vn -0.09568044 0.009424181 -0.4906694
vn -0 0 0
vn -0.09568044 0.009424181 -0.4906694
vn -3.4617483E-07 -2.1272228E-07 1
vn -1.7308741E-07 -1.0636114E-07 0.5
vn -1.7308741E-07 -1.0636114E-07 0.5
vn -1.7308741E-07 -1.0636114E-07 0.5
vn -0 0 0
vn -1.7308741E-07 -1.0636114E-07 0.5
vn -0.18400702 0.055818614 -0.98133874
vn -0.09200351 0.027909307 -0.49066937
vn -0.09200351 0.027909307 -0.49066937
vn -0.09200351 0.027909307 -0.49066937
vn -0 0 0
vn -0.09200351 0.027909307 -0.49066937
vn -4.4512151E-07 -4.516004E-07 1
vn -2.2256076E-07 -2.258002E-07 0.5
vn -2.2256076E-07 -2.258002E-07 0.5
vn -2.2256076E-07 -2.258002E-07 0.5
vn -0 0 0
vn -2.2256076E-07 -2.258002E-07 0.5
vn -0.16958202 0.09064346 -0.98133874
vn -0.08479101 0.04532173 -0.49066937
vn -0.08479101 0.04532173 -0.49066937
vn -0.08479101 0.04532173 -0.49066937
vn -0 0 0
vn -0.08479101 0.04532173 -0.49066937
vn -4.3207518E-07 -4.320752E-07 1
vn -2.1603759E-07 -2.160376E-07 0.5
vn -2.1603759E-07 -2.160376E-07 0.5
vn -2.1603759E-07 -2.160376E-07 0.5
vn -0 0 0
vn -2.1603759E-07 -2.160376E-07 0.5
vn -0.14863926 0.12198643 -0.98133874
vn -0.07431963 0.060993213 -0.49066937
vn -0.07431963 0.060993213 -0.49066937
vn -0.07431963 0.060993213 -0.49066937
vn -0 0 0
vn -0.07431963 0.060993213 -0.49066937
vn -2.1603759E-07 -2.160376E-07 1
vn -1.08018796E-07 -1.080188E-07 0.5
vn -1.08018796E-07 -1.080188E-07 0.5
vn -1.08018796E-07 -1.080188E-07 0.5
vn -0 0 0
vn -1.08018796E-07 -1.080188E-07 0.5
vn -0.12198532 0.14864026 -0.9813387
vn -0.06099266 0.07432013 -0.49066934
vn -0.06099266 0.07432013 -0.49066934
vn -0.06099266 0.07432013 -0.49066934
vn -0 0 0
vn -0.06099266 0.07432013 -0.49066934
vn -4.798328E-07 -3.9230005E-07 1
vn -2.399164E-07 -1.9615003E-07 0.5
vn -2.399164E-07 -1.9615003E-07 0.5
vn -2.399164E-07 -1.9615003E-07 0.5
vn -0 0 0
vn -2.399164E-07 -1.9615003E-07 0.5
vn -0.09064268 0.1695827 -0.9813387
vn -0.04532134 0.08479135 -0.49066934
vn -0.04532134 0.08479135 -0.49066934
vn -0.04532134 0.08479135 -0.49066934
vn -0 0 0
vn -0.04532134 0.08479135 -0.49066934
vn -2.3010826E-07 -2.8886063E-07 1
vn -1.1505413E-07 -1.4443032E-07 0.5
vn -1.1505413E-07 -1.4443032E-07 0.5
vn -1.1505413E-07 -1.4443032E-07 0.5
vn -0 0 0
vn -1.1505413E-07 -1.4443032E-07 0.5
vn -0.055817805 0.18400761 -0.9813387
vn -0.027908903 0.09200381 -0.49066934
vn -0.027908903 0.09200381 -0.49066934
vn -0.027908903 0.09200381 -0.49066934
vn -0 0 0
vn -0.027908903 0.09200381 -0.49066934
vn -5.758226E-07 -3.5762758E-07 1
vn -2.879113E-07 -1.7881379E-07 0.5
vn -2.879113E-07 -1.7881379E-07 0.5
vn -2.879113E-07 -1.7881379E-07 0.5
vn -0 0 0
vn -2.879113E-07 -1.7881379E-07 0.5
vn -0.018846394 0.19136167 -0.9813386
vn -0.009423197 0.09568083 -0.4906693
vn -0.009423197 0.09568083 -0.4906693
vn -0.009423197 0.09568083 -0.4906693
vn -0 0 0
vn -0.009423197 0.09568083 -0.4906693
g pb_Mesh-5660672_0
f 3/3/3 2/2/2 1/1/1
f 3/3/3 4/4/4 2/2/2
f 7/7/7 6/6/6 5/5/5
f 10/10/10 9/9/9 8/8/8
f 13/13/13 12/12/12 11/11/11
f 13/13/13 14/14/14 12/12/12
f 17/17/17 16/16/16 15/15/15
f 17/17/17 18/18/18 16/16/16
f 21/21/21 20/20/20 19/19/19
f 24/24/24 23/23/23 22/22/22
f 27/27/27 26/26/26 25/25/25
f 27/27/27 28/28/28 26/26/26
f 31/31/31 30/30/30 29/29/29
f 34/34/34 33/33/33 32/32/32
f 37/37/37 36/36/36 35/35/35
f 37/37/37 38/38/38 36/36/36
f 41/41/41 40/40/40 39/39/39
f 44/44/44 43/43/43 42/42/42
f 47/47/47 46/46/46 45/45/45
f 47/47/47 48/48/48 46/46/46
f 51/51/51 50/50/50 49/49/49
f 54/54/54 53/53/53 52/52/52
f 57/57/57 56/56/56 55/55/55
f 57/57/57 58/58/58 56/56/56
f 61/61/61 60/60/60 59/59/59
f 64/64/64 63/63/63 62/62/62
f 67/67/67 66/66/66 65/65/65
f 67/67/67 68/68/68 66/66/66
f 71/71/71 70/70/70 69/69/69
f 74/74/74 73/73/73 72/72/72
f 77/77/77 76/76/76 75/75/75
f 77/77/77 78/78/78 76/76/76
f 81/81/81 80/80/80 79/79/79
f 84/84/84 83/83/83 82/82/82
f 87/87/87 86/86/86 85/85/85
f 87/87/87 88/88/88 86/86/86
f 91/91/91 90/90/90 89/89/89
f 94/94/94 93/93/93 92/92/92
f 97/97/97 96/96/96 95/95/95
f 100/100/100 99/99/99 98/98/98
f 103/103/103 102/102/102 101/101/101
f 106/106/106 105/105/105 104/104/104
f 109/109/109 108/108/108 107/107/107
f 112/112/112 111/111/111 110/110/110
f 115/115/115 114/114/114 113/113/113
f 118/118/118 117/117/117 116/116/116
f 121/121/121 120/120/120 119/119/119
f 124/124/124 123/123/123 122/122/122
f 127/127/127 126/126/126 125/125/125
f 130/130/130 129/129/129 128/128/128
f 133/133/133 132/132/132 131/131/131
f 136/136/136 135/135/135 134/134/134
f 139/139/139 138/138/138 137/137/137
f 142/142/142 141/141/141 140/140/140
f 145/145/145 144/144/144 143/143/143
f 148/148/148 147/147/147 146/146/146
f 151/151/151 150/150/150 149/149/149
f 154/154/154 153/153/153 152/152/152
f 157/157/157 156/156/156 155/155/155
f 160/160/160 159/159/159 158/158/158
f 163/163/163 162/162/162 161/161/161
f 166/166/166 165/165/165 164/164/164
f 169/169/169 168/168/168 167/167/167
f 172/172/172 171/171/171 170/170/170
f 175/175/175 174/174/174 173/173/173
f 178/178/178 177/177/177 176/176/176
f 181/181/181 180/180/180 179/179/179
f 184/184/184 183/183/183 182/182/182
