g pb_Mesh-145014
v 5 -3.625 -7.9999504
v 5 -3.625 8.00005
v 5 -0.375 -7.9999504
v 5 -0.375 8.00005
v 5 -0.375 8.00005
v -5 -3.625 16.1251
v 5 -0.375 -7.9999504
v -5 -3.625 -16.24995
v 5 -3.625 -7.9999504
v -5 -3.625 -16.24995
v 5 -3.625 8.00005
v -5 -3.625 16.1251
v 5 -3.625 24.00005
v 5 3.125 25.12505
v 5 -3.625 24.00005
v -5 -3.625 16.1251
v 5 3.125 25.12505
v 5 -3.625 24.00005
v -5 -3.625 16.1251
v 5 -0.375 8.00005
v 5 3.125 25.12505
v 5 -3.625 -24.00005
v -5 -3.625 -16.24995
v 5 -3.625 -24.00005
v 5 3.125 -25.12495
v 5 -3.625 -24.00005
v 5 3.125 -25.12495
v 5 -0.375 -7.9999504
v -5 -3.625 -16.24995
v 5 3.125 -25.12495
vt 7.9999504 -3.625
vt -8.00005 -3.625
vt 7.9999504 -0.375
vt -8.00005 -0.375
vt -4.639263 8.00005
vt 5.8756075 16.1251
vt -4.639263 -7.9999504
vt 5.8756075 -16.24995
vt 5 -7.9999504
vt -5 -16.24995
vt 5 8.00005
vt -5 16.1251
vt 5 24.00005
vt -25.12505 3.125
vt -24.00005 -3.625
vt 6.0481853 -1.5479249
vt 19.472712 5.2596946
vt 18.776691 -1.5479249
vt 6.0859056 15.67096
vt -4.3227777 7.4103155
vt -5.8655148 24.821106
vt 5 -24.00005
vt -6.002283 -1.5165688
vt -18.653925 -1.5165689
vt -19.343014 5.291739
vt 24.00005 -3.625
vt 25.12495 3.125
vt -4.317547 -7.4093246
vt 6.088051 -15.796728
vt -5.866738 -24.81954
vn 1 0 0
vn 1 0 0
vn 1 0 0
vn 1 0 0
vn -0.30908605 0.95103407 0
vn -0.30908608 0.95103407 0
vn -0.30908608 0.95103407 0
vn -0.30908608 0.95103407 0
vn -0 -1 0
vn -0 -1 0
vn -0 -1 0
vn -0 -1 0
vn -0 -1 0
vn 1 0 0
vn 1 0 0
vn -0.6134497 -0.12983145 0.77898866
vn -0.6134497 -0.12983145 0.77898866
vn -0.6134497 -0.12983145 0.77898866
vn -0.43354672 0.88288033 -0.1804427
vn -0.43354672 0.88288033 -0.1804427
vn -0.43354672 0.88288033 -0.1804427
vn -0 -1 0
vn -0.6073303 -0.13059548 -0.78364193
vn -0.6073303 -0.13059548 -0.78364193
vn -0.6073303 -0.13059548 -0.78364193
vn 1 0 0
vn 1 0 0
vn -0.43537486 0.88201636 0.18026611
vn -0.43537486 0.88201636 0.18026611
vn -0.43537486 0.88201636 0.18026611
g pb_Mesh-145014_0
f 3/3/3 2/2/2 1/1/1
f 3/3/3 4/4/4 2/2/2
f 7/7/7 6/6/6 5/5/5
f 7/7/7 8/8/8 6/6/6
f 11/11/11 10/10/10 9/9/9
f 11/11/11 12/12/12 10/10/10
f 13/13/13 12/12/12 11/11/11
f 14/14/14 2/2/2 4/4/4
f 14/14/14 15/15/15 2/2/2
f 18/18/18 17/17/17 16/16/16
f 21/21/21 20/20/20 19/19/19
f 22/22/22 9/9/9 10/10/10
f 25/25/25 24/24/24 23/23/23
f 26/26/26 3/3/3 1/1/1
f 26/26/26 27/27/27 3/3/3
f 30/30/30 29/29/29 28/28/28
