g pb_Mesh-28960
v 17.25 6.5625 17.25
v -17.25 -7.5625 7.5
v 17.25 7.5625 17.25
v -17.25 -6.5625 7.5
v -17.25 -7.5625 7.5
v -17.25 -7.5625 -7.375
v -17.25 -6.5625 7.5
v -17.25 -6.5625 -7.375
v -17.25 -7.5625 -7.375
v 17.25 6.5625 -17.25
v -17.25 -6.5625 -7.375
v 17.25 7.5625 -17.25
v 17.25 6.5625 -17.25
v 17.25 6.5625 17.25
v 17.25 7.5625 -17.25
v 17.25 7.5625 17.25
v 17.25 7.5625 17.25
v -17.25 -6.5625 7.5
v 17.25 7.5625 -17.25
v -17.25 -6.5625 -7.375
v 17.25 6.5625 -17.25
v -17.25 -7.5625 -7.375
v 17.25 6.5625 17.25
v -17.25 -7.5625 7.5
vt 21.291096 6.5625
vt -14.56016 -7.5625
vt 21.291096 7.5625
vt -14.56016 -6.5625
vt 7.5 -7.5625
vt -7.375 -7.5625
vt 7.5 -6.5625
vt -7.375 -6.5625
vt 14.554558 -7.5625
vt -21.330894 6.5625
vt 14.554558 -6.5625
vt -21.330894 7.5625
vt 17.25 6.5625
vt -17.25 6.5625
vt 17.25 7.5625
vt -17.25 7.5625
vt -18.829227 17.25
vt 18.450335 7.5
vt -18.829227 -17.25
vt 18.450335 -7.375
vt 18.450335 -17.25
vt -18.829227 -7.375
vt 18.450335 17.25
vt -18.829227 7.5
vn -0.271957 0 0.9623094
vn -0.271957 0 0.9623094
vn -0.271957 0 0.9623094
vn -0.271957 0 0.9623094
vn -1 0 0
vn -1 0 0
vn -1 0 0
vn -1 0 0
vn -0.27518117 0 -0.9613924
vn -0.27518117 0 -0.9613924
vn -0.27518117 0 -0.9613924
vn -0.27518117 0 -0.9613924
vn 1 0 0
vn 1 0 0
vn 1 0 0
vn 1 0 0
vn -0.37889397 0.92544013 0
vn -0.37889397 0.92544013 0
vn -0.37889397 0.92544013 0
vn -0.37889397 0.92544013 0
vn 0.37889397 -0.92544013 0
vn 0.37889397 -0.92544013 0
vn 0.37889397 -0.92544013 0
vn 0.37889397 -0.92544013 0
g pb_Mesh-28960_0
f 3/3/3 2/2/2 1/1/1
f 3/3/3 4/4/4 2/2/2
f 7/7/7 6/6/6 5/5/5
f 7/7/7 8/8/8 6/6/6
f 11/11/11 10/10/10 9/9/9
f 11/11/11 12/12/12 10/10/10
f 15/15/15 14/14/14 13/13/13
f 15/15/15 16/16/16 14/14/14
f 19/19/19 18/18/18 17/17/17
f 19/19/19 20/20/20 18/18/18
f 23/23/23 22/22/22 21/21/21
f 23/23/23 24/24/24 22/22/22
