g pb_Mesh292470
v -0 0 0
v 0.051654816 1.8926612 0
v -0 0 8
v 0.05164929 1.8926568 8.495983
v 2.0486794 1.7835741 0
v 1.4999928 -0.86603385 -1.1271848E-06
v 2.048674 1.7835627 8.495982
v 1.4999964 -0.8660323 7.999997
v -0 0 8
v 1.4999964 -0.8660323 7.999997
v -0 0 0
v 1.4999928 -0.86603385 -1.1271848E-06
v 0.051654816 1.8926612 0
v 0.20646286 3.7796874 0
v 0.05164929 1.8926568 8.495983
v 0.20645294 3.7796774 9.051492
v 2.1945648 3.5618382 0
v 2.0486794 1.7835741 0
v 2.1945567 3.5618248 9.05149
v 2.048674 1.7835627 8.495982
v 0.20646286 3.7796874 0
v 0.46397018 5.6554613 0
v 0.20645294 3.7796774 9.051492
v 0.46395883 5.655451 9.585802
v 2.4372292 5.329498 0
v 2.1945648 3.5618382 0
v 2.4372199 5.329492 9.5858
v 2.1945567 3.5618248 9.05149
v 0.46397018 5.6554613 0
v 0.8234024 7.5143967 0
v 0.46395883 5.655451 9.585802
v 0.82339483 7.5143967 10.00759
v 2.7759457 7.0812902 0
v 2.4372292 5.329498 0
v 2.7759356 7.0812764 10.007592
v 2.4372199 5.329492 9.5858
v 0.8234024 7.5143967 0
v 1.2836914 9.35096 0
v 0.82339483 7.5143967 10.00759
v 1.2836815 9.350954 10.467771
v 3.2097054 8.811999 0
v 2.7759457 7.0812902 0
v 3.2096958 8.811998 10.467769
v 2.7759356 7.0812764 10.007592
v 1.2836914 9.35096 0
v 1.8434715 11.159685 0
v 1.2836815 9.350954 10.467771
v 1.8434602 11.159687 11.000044
v 3.7372189 10.516476 0
v 3.2097054 8.811999 0
v 3.7372043 10.516468 11.000046
v 3.2096958 8.811998 10.467769
v 3.7372043 10.516468 11.000046
v 1.8434602 11.159687 11.000044
v 3.7372189 10.516476 0
v 1.8434715 11.159685 0
v -0 0 8
v 0.05164929 1.8926568 8.495983
v 1.4999964 -0.8660323 7.999997
v 2.048674 1.7835627 8.495982
v 0.051654816 1.8926612 0
v -0 0 0
v 2.0486794 1.7835741 0
v 1.4999928 -0.86603385 -1.1271848E-06
v 0.05164929 1.8926568 8.495983
v 0.20645294 3.7796774 9.051492
v 2.048674 1.7835627 8.495982
v 2.1945567 3.5618248 9.05149
v 0.20646286 3.7796874 0
v 2.1945648 3.5618382 0
v 0.20645294 3.7796774 9.051492
v 0.46395883 5.655451 9.585802
v 2.1945567 3.5618248 9.05149
v 2.4372199 5.329492 9.5858
v 0.46397018 5.6554613 0
v 2.4372292 5.329498 0
v 0.46395883 5.655451 9.585802
v 0.82339483 7.5143967 10.00759
v 2.4372199 5.329492 9.5858
v 2.7759356 7.0812764 10.007592
v 0.8234024 7.5143967 0
v 2.7759457 7.0812902 0
v 0.82339483 7.5143967 10.00759
v 1.2836815 9.350954 10.467771
v 2.7759356 7.0812764 10.007592
v 3.2096958 8.811998 10.467769
v 1.2836914 9.35096 0
v 3.2097054 8.811999 0
v 1.2836815 9.350954 10.467771
v 1.8434602 11.159687 11.000044
v 3.2096958 8.811998 10.467769
v 3.7372043 10.516468 11.000046
v 1.8434715 11.159685 0
v 3.7372189 10.516476 0
vt 0 0
vt 0 1.893366
vt 8 0
vt 8.495983 1.8933614
vt 6.933457E-07 2.16195
vt 1.6348355E-06 -0.543873
vt -8.495981 2.1619384
vt -7.9999967 -0.5438702
vt 0 8
vt 1.7320511 7.999997
vt 0 0
vt 1.7320489 -1.1271848E-06
vt -3.1389096E-08 1.8905476
vt -1.2546136E-07 3.7839131
vt 8.495983 1.8905432
vt 9.051492 3.783903
vt 1.6998176E-06 3.7293475
vt 1.586821E-06 1.9451094
vt -9.051488 3.729334
vt -8.49598 1.945098
vt -1.9501259E-07 3.772647
vt -4.3823874E-07 5.6660137
vt 9.051492 3.772637
vt 9.585802 5.6660028
vt 2.1644148E-06 5.611451
vt 1.9489135E-06 3.8272128
vt -9.585798 5.6114454
vt -9.051488 3.8271997
vt -4.5141095E-07 5.6406984
vt -8.011137E-07 7.534064
vt 9.585802 5.640688
vt 10.007589 7.5340643
vt 2.0359496E-06 7.4795003
vt 1.7875261E-06 5.695262
vt -10.00759 7.479486
vt -9.585798 5.695256
vt -6.2282555E-07 7.489136
vt -9.709903E-07 9.382501
vt 10.007589 7.489136
vt 10.46777 9.382495
vt 2.8509387E-06 9.327936
vt 2.4656626E-06 7.5436993
vt -10.467766 9.327935
vt -10.007589 7.5436854
vt -9.962024E-07 9.312456
vt -1.4306171E-06 11.205824
vt 10.46777 9.31245
vt 11.000042 11.205825
vt 4.1388967E-06 11.151259
vt 3.554686E-06 9.367021
vt -11.000042 11.151252
vt -10.467765 9.367021
vt -0.15645841 11.000033
vt 1.843541 11.000031
vt -0.15646973 -1.20741215E-05
vt 1.8435297 -1.2074111E-05
vt 1.1786071 1.9564441
vt 1.3027639 3.9097495
vt 2.6622353 1.0626606
vt 3.277997 3.731297
vt -0.051654816 1.8926612
vt 0 0
vt -2.0486794 1.7835741
vt -1.4999928 -0.86603385
vt 0.18764153 4.204884
vt 0.3513176 6.1712537
vt 2.1844103 4.0912023
vt 2.3391666 5.9532423
vt -0.20646286 3.7796874
vt -2.1945648 3.5618382
vt 0.48455343 6.0809035
vt 0.75835973 8.02907
vt 2.4717178 5.8546433
vt 2.7306883 7.698844
vt -0.46397018 5.6554613
vt -2.4372292 5.329498
vt 0.8115755 7.575912
vt 1.1860837 9.479205
vt 2.7835362 7.2421775
vt 3.137338 9.040968
vt -0.8234024 7.5143967
vt -2.7759457 7.0812902
vt 1.3484797 9.606858
vt 1.832327 11.4943075
vt 3.2983193 9.161736
vt 3.7556767 10.946525
vt -1.2836914 9.35096
vt -3.2097054 8.811999
vt 2.0710323 11.723545
vt 2.6694329 13.597071
vt 3.9915392 11.165282
vt 4.557762 12.938787
vt -1.8434715 11.159685
vt -3.7372189 10.516476
vn -0.99962777 0.027282003 0
vn -0.9996278 0.027280658 -3.179283E-07
vn -0.9996278 0.027280658 -3.179283E-07
vn -0.9996278 0.027279316 -6.358566E-07
vn 0.9792243 -0.20277989 3.3140424E-07
vn 0.97922456 -0.20277877 -3.3531194E-08
vn 0.97922456 -0.20277877 -3.3531194E-08
vn 0.9792248 -0.20277765 -3.9846663E-07
vn -0.5000039 -0.8660232 0
vn -0.50000465 -0.8660227 1.9564077E-07
vn -0.50000465 -0.8660227 1.9564077E-07
vn -0.5000055 -0.8660223 3.9128153E-07
vn -0.99665177 0.081763424 -6.056357E-07
vn -0.9966518 0.08176254 -8.0396285E-07
vn -0.9966518 0.08176254 -8.0396285E-07
vn -0.9966519 0.08176165 -1.00229E-06
vn 0.9966517 -0.08176345 7.719645E-07
vn 0.99665177 -0.081762776 6.3856953E-07
vn 0.99665177 -0.081762776 6.3856953E-07
vn 0.9966519 -0.08176211 5.0517457E-07
vn -0.9907082 0.13600498 -9.3576426E-07
vn -0.99070823 0.13600478 -9.80225E-07
vn -0.99070823 0.13600478 -9.80225E-07
vn -0.99070823 0.13600457 -1.0246857E-06
vn 0.99070823 -0.13600443 8.798121E-07
vn 0.9907083 -0.13600391 7.832235E-07
vn 0.9907083 -0.13600391 7.832235E-07
vn 0.99070835 -0.1360034 6.86635E-07
vn -0.9818155 0.18983777 -9.552386E-07
vn -0.9818154 0.18983829 -8.4894424E-07
vn -0.9818154 0.18983829 -8.4894424E-07
vn -0.9818153 0.18983881 -7.4264983E-07
vn 0.9818154 -0.18983816 7.200885E-07
vn 0.98181534 -0.1898385 7.795695E-07
vn 0.98181534 -0.1898385 7.795695E-07
vn 0.9818153 -0.18983883 8.3905053E-07
vn -0.9699997 0.24310635 -7.337124E-07
vn -0.9699997 0.24310623 -7.5884384E-07
vn -0.9699997 0.24310623 -7.5884384E-07
vn -0.96999973 0.24310611 -7.839752E-07
vn 0.9699996 -0.24310654 8.6157735E-07
vn 0.9699998 -0.2431059 7.4812E-07
vn 0.9699998 -0.2431059 7.4812E-07
vn 0.9699999 -0.24310526 6.346627E-07
vn -0.9552954 0.29565316 -7.413523E-07
vn -0.9552956 0.2956524 -8.8806155E-07
vn -0.9552956 0.2956524 -8.8806155E-07
vn -0.95529586 0.2956516 -1.0347708E-06
vn 0.9552958 -0.2956518 1.0579714E-06
vn 0.955296 -0.29565114 9.50683E-07
vn 0.955296 -0.29565114 9.50683E-07
vn 0.95529616 -0.29565048 8.433946E-07
vn 0.32160962 0.9468724 1.0819412E-06
vn 0.32160723 0.9468732 6.2443013E-07
vn 0.32160723 0.9468732 6.2443013E-07
vn 0.32160482 0.94687396 1.6691915E-07
vn -0.14275156 -0.24725355 0.95837766
vn -0.07634667 -0.21462592 0.9708131
vn -0.07634667 -0.21462592 0.9708131
vn -0.009941793 -0.18199828 0.98324853
vn -0 0 -1
vn -2.2591124E-07 2.5949004E-07 -1
vn -2.2591124E-07 2.5949004E-07 -1
vn -4.5182247E-07 5.189801E-07 -1
vn -0.01536148 -0.28120825 0.95952386
vn -0.02387588 -0.28840375 0.9571433
vn -0.02387588 -0.28840375 0.9571433
vn -0.032390278 -0.29559922 0.9547628
vn -0 0 -1
vn -0 0 -1
vn -0.029592948 -0.2700711 0.96238554
vn -0.0381812 -0.2766028 0.9601624
vn -0.0381812 -0.2766028 0.9601624
vn -0.04676945 -0.2831345 0.9579392
vn -0 0 -1
vn -0 0 -1
vn -0.035449907 -0.21460932 0.97605646
vn -0.04264497 -0.21964397 0.974607
vn -0.04264497 -0.21964397 0.974607
vn -0.049840037 -0.2246786 0.97315747
vn -0 0 -1
vn -0 0 -1
vn -0.05116469 -0.23065025 0.9716906
vn -0.059243068 -0.23561692 0.96999073
vn -0.059243068 -0.23561692 0.96999073
vn -0.06732144 -0.24058361 0.9682909
vn -0 0 -1
vn -0 0 -1
vn -0.07295393 -0.26071185 0.96265626
vn -0.08246291 -0.26574478 0.9604473
vn -0.08246291 -0.26574478 0.9604473
vn -0.091971874 -0.2707777 0.9582383
vn -0 0 -1
vn -0 0 -1
g pb_Mesh292470_0
f 3/3/3 2/2/2 1/1/1
f 3/3/3 4/4/4 2/2/2
f 7/7/7 6/6/6 5/5/5
f 7/7/7 8/8/8 6/6/6
f 11/11/11 10/10/10 9/9/9
f 11/11/11 12/12/12 10/10/10
f 15/15/15 14/14/14 13/13/13
f 15/15/15 16/16/16 14/14/14
f 19/19/19 18/18/18 17/17/17
f 19/19/19 20/20/20 18/18/18
f 23/23/23 22/22/22 21/21/21
f 23/23/23 24/24/24 22/22/22
f 27/27/27 26/26/26 25/25/25
f 27/27/27 28/28/28 26/26/26
f 31/31/31 30/30/30 29/29/29
f 31/31/31 32/32/32 30/30/30
f 35/35/35 34/34/34 33/33/33
f 35/35/35 36/36/36 34/34/34
f 39/39/39 38/38/38 37/37/37
f 39/39/39 40/40/40 38/38/38
f 43/43/43 42/42/42 41/41/41
f 43/43/43 44/44/44 42/42/42
f 47/47/47 46/46/46 45/45/45
f 47/47/47 48/48/48 46/46/46
f 51/51/51 50/50/50 49/49/49
f 51/51/51 52/52/52 50/50/50
f 55/55/55 54/54/54 53/53/53
f 55/55/55 56/56/56 54/54/54
f 59/59/59 58/58/58 57/57/57
f 59/59/59 60/60/60 58/58/58
f 63/63/63 62/62/62 61/61/61
f 63/63/63 64/64/64 62/62/62
f 67/67/67 66/66/66 65/65/65
f 67/67/67 68/68/68 66/66/66
f 70/70/70 61/61/61 69/69/69
f 70/70/70 63/63/63 61/61/61
f 73/73/73 72/72/72 71/71/71
f 73/73/73 74/74/74 72/72/72
f 76/76/76 69/69/69 75/75/75
f 76/76/76 70/70/70 69/69/69
f 79/79/79 78/78/78 77/77/77
f 79/79/79 80/80/80 78/78/78
f 82/82/82 75/75/75 81/81/81
f 82/82/82 76/76/76 75/75/75
f 85/85/85 84/84/84 83/83/83
f 85/85/85 86/86/86 84/84/84
f 88/88/88 81/81/81 87/87/87
f 88/88/88 82/82/82 81/81/81
f 91/91/91 90/90/90 89/89/89
f 91/91/91 92/92/92 90/90/90
f 94/94/94 87/87/87 93/93/93
f 94/94/94 88/88/88 87/87/87
