g pb_Mesh-4823726
v 30.001 -11.25 18.508545
v -30.001 -11.25 18.508545
v 30.001 -8.75 18.508545
v -30.001 -8.75 18.508545
v -35.555824 -10.455963 12.955162
v -42 -1.25 -10.5
v -35.555824 -7.955963 12.955162
v -42 1.25 -10.5
v -42 -1.25 -10.5
v 42 -1.25 -10.5
v -42 1.25 -10.5
v 42 1.25 -10.5
v 42 -1.25 -10.5
v 35.555824 -10.455963 12.955162
v 42 1.25 -10.5
v 35.555824 -7.955963 12.955162
v 35.555824 -7.955963 12.955162
v 30.001 -11.25 18.508545
v 30.001 -8.75 18.508545
v 35.555824 -10.455963 12.955162
v -35.555824 -10.455963 12.955162
v -30.001 -8.75 18.508545
v -30.001 -11.25 18.508545
v -35.555824 -7.955963 12.955162
v 30.001 -11.25 18.508545
v 35.555824 -10.455963 12.955162
v 42 -1.25 -10.5
v -42 -1.25 -10.5
v -30.001 -11.25 18.508545
v -35.555824 -10.455963 12.955162
v -42 1.25 -10.5
v -30.001 -8.75 18.508545
v -35.555824 -7.955963 12.955162
v 30.001 -8.75 18.508545
v 42 1.25 -10.5
v 35.555824 -7.955963 12.955162
vt 32.501 -11.25
vt -32.501 -11.25
vt 32.501 -8.75
vt -32.501 -8.75
vt 7.412492 -10.455964
vt -20.059187 -1.25
vt 7.412492 -7.9559646
vt -20.059187 1.25
vt 42 -1.25
vt -42 -1.25
vt 42 1.25
vt -42 1.25
vt 20.059187 -1.25
vt -7.412492 -10.455964
vt 20.059187 1.25
vt -7.412492 -7.9559646
vt 15.985534 -7.955963
vt 8.130845 -11.25
vt 8.130845 -8.75
vt 15.985534 -10.455963
vt -15.985534 -10.455963
vt -8.130845 -8.75
vt -8.130845 -11.25
vt -15.985534 -7.955963
vt 30.001 21.22055
vt 35.555824 15.72531
vt 42 -9.460835
vt -42 -9.460835
vt -30.001 21.22055
vt -35.555824 15.72531
vt 42 -10.305187
vt 30.001 20.3762
vt 35.555824 14.880959
vt -30.001 20.3762
vt -42 -10.305187
vt -35.555824 14.880959
vn -0 0 1
vn -0 0 1
vn -0 0 1
vn -0 0 1
vn -0.9642684 0 0.2649274
vn -0.9642684 0 0.2649274
vn -0.9642684 0 0.2649274
vn -0.9642684 0 0.2649274
vn -0 0 -1
vn -0 0 -1
vn -0 0 -1
vn -0 0 -1
vn 0.9642684 0 0.2649274
vn 0.9642684 0 0.2649274
vn 0.9642684 0 0.2649274
vn 0.9642684 0 0.2649274
vn 0.707015 0 0.70719856
vn 0.707015 0 0.70719856
vn 0.707015 0 0.70719856
vn 0.707015 0 0.70719856
vn -0.707015 0 0.70719856
vn -0.707015 0 0.70719856
vn -0.707015 0 0.70719856
vn -0.707015 0 0.70719856
vn -0.09846509 -0.91658187 -0.3566984
vn -0.29539528 -0.85894054 -0.4182855
vn -0.14769764 -0.90217155 -0.37209517
vn 0.09846509 -0.91658187 -0.35669842
vn 0.14769764 -0.90217155 -0.37209517
vn 0.29539528 -0.85894054 -0.4182855
vn -0.09846509 0.91658187 0.3566984
vn -0.14769764 0.90217155 0.37209517
vn -0.29539528 0.85894054 0.4182855
vn 0.09846509 0.91658187 0.35669842
vn 0.14769764 0.90217155 0.37209517
vn 0.29539528 0.85894054 0.4182855
g pb_Mesh-4823726_0
f 3/3/3 2/2/2 1/1/1
f 3/3/3 4/4/4 2/2/2
f 7/7/7 6/6/6 5/5/5
f 7/7/7 8/8/8 6/6/6
f 11/11/11 10/10/10 9/9/9
f 11/11/11 12/12/12 10/10/10
f 15/15/15 14/14/14 13/13/13
f 15/15/15 16/16/16 14/14/14
f 19/19/19 18/18/18 17/17/17
f 18/18/18 20/20/20 17/17/17
f 23/23/23 22/22/22 21/21/21
f 22/22/22 24/24/24 21/21/21
f 27/27/27 26/26/26 25/25/25
f 25/25/25 28/28/28 27/27/27
f 25/25/25 29/29/29 28/28/28
f 28/28/28 29/29/29 30/30/30
f 33/33/33 32/32/32 31/31/31
f 31/31/31 32/32/32 34/34/34
f 35/35/35 31/31/31 34/34/34
f 34/34/34 36/36/36 35/35/35
