g pb_Mesh-6000658
v -0 -2 2.0000992
v -30 -2 2.0000992
v 6.9974985 -2 6.9556274
v -36.997498 -2 6.9556274
v -32.0001 -2 0
v -32.0001 -2 -30
v -36.955627 -2 6.9974995
v -36.955627 -2 -36.997498
v -30 -2 -32.0001
v -0 -2 -32.0001
v -36.997498 -2 -36.955627
v 6.9974985 -2 -36.955627
v 2.0001001 -2 -30
v 2.0001001 -2 0
v 6.9556284 -2 -36.997498
v 6.9556284 -2 6.9974995
v 0.96809864 1 0.9680996
v -30.9681 1 0.9680996
v 0.96809864 1 -30.9681
v -30.9681 1 -30.9681
v -0 -2 -30
v -30 -2 -30
v -0 -2 0
v -30 -2 0
v -30.9681 1 -30.9681
v -30 -2 -30
v -36.997498 -2 -36.955627
v -30 -2 -30
v -30 -2 -32.0001
v -36.997498 -2 -36.955627
v -0 -2 -30
v 0.96809864 1 -30.9681
v -0 -2 -32.0001
v 6.9974985 -2 -36.955627
v 0.96809864 1 -30.9681
v -30.9681 1 -30.9681
v 6.9974985 -2 -36.955627
v -36.997498 -2 -36.955627
v -30.9681 1 0.9680996
v -30 -2 0
v -36.955627 -2 6.9974995
v -30 -2 0
v -32.0001 -2 0
v -36.955627 -2 6.9974995
v -30 -2 -30
v -30.9681 1 -30.9681
v -32.0001 -2 -30
v -36.955627 -2 -36.997498
v -30.9681 1 -30.9681
v -30.9681 1 0.9680996
v -36.955627 -2 -36.997498
v -36.955627 -2 6.9974995
v 0.96809864 1 0.9680996
v -0 -2 0
v 6.9974985 -2 6.9556274
v -0 -2 0
v -0 -2 2.0000992
v 6.9974985 -2 6.9556274
v -30 -2 0
v -30.9681 1 0.9680996
v -30 -2 2.0000992
v -36.997498 -2 6.9556274
v -30.9681 1 0.9680996
v 0.96809864 1 0.9680996
v -36.997498 -2 6.9556274
v 6.9974985 -2 6.9556274
v 0.96809864 1 -30.9681
v -0 -2 -30
v 6.9556284 -2 -36.997498
v -0 -2 -30
v 2.0001001 -2 -30
v 6.9556284 -2 -36.997498
v -0 -2 0
v 0.96809864 1 0.9680996
v 2.0001001 -2 0
v 6.9556284 -2 6.9974995
v 0.96809864 1 0.9680996
v 0.96809864 1 -30.9681
v 6.9556284 -2 6.9974995
v 6.9556284 -2 -36.997498
vt 0 2.0000992
vt -30 2.0000992
vt 6.9974985 6.9556274
vt -36.997498 6.9556274
vt -32.0001 0
vt -32.0001 -30
vt -36.955627 6.9974995
vt -36.955627 -36.997498
vt -30 -32.0001
vt -0 -32.0001
vt -36.997498 -36.955627
vt 6.9974985 -36.955627
vt 2.0001001 -30
vt 2.0001001 0
vt 6.9556284 -36.997498
vt 6.9556284 6.9974995
vt -0.96809864 0.9680996
vt 30.9681 0.9680996
vt -0.96809864 -30.9681
vt 30.9681 -30.9681
vt -0 -30
vt -30 -30
vt 0 0
vt -30 0
vt -43.795307 1.000179
vt -42.426216 -1.9998237
vt -52.29261 -1.9998237
vt -42.426216 -1.9998237
vt -43.836246 -1.9978812
vt -52.29261 -1.9998237
vt 30 -1.9033511
vt 30.9681 1.2489837
vt 32.0001 -1.9033511
vt 36.955627 0.24561742
vt -0.96809864 -27.239208
vt 30.9681 -27.239208
vt -6.9974985 -33.93626
vt 36.997498 -33.93626
vt -22.518541 1.0291433
vt -21.149448 -1.9708594
vt -31.015844 -1.9708594
vt -21.149448 -1.9708594
vt -22.559483 -1.9689168
vt -31.015844 -1.9708594
vt 30 7.3098145
vt 30.9681 10.46215
vt 32.0001 7.3098145
vt 36.955627 9.458784
vt 27.239208 -30.9681
vt 27.239208 0.9680996
vt 33.93626 -36.997498
vt 33.93626 6.9974995
vt -1.3690927 1.0000046
vt 0 -1.9999981
vt -9.866395 -1.9999981
vt 0 -1.9999981
vt -1.4100333 -1.9980551
vt -9.866395 -1.9999981
vt 0 7.3098145
vt 0.9680996 10.46215
vt 2.0000992 7.3098145
vt 6.9556274 9.458784
vt 30.9681 0.41757536
vt -0.96809864 0.41757536
vt 36.997498 7.114626
vt -6.9974985 7.114626
vt -22.645855 0.9710471
vt -21.276762 -2.0289557
vt -31.143158 -2.0289557
vt -21.276762 -2.0289557
vt -22.686796 -2.0270135
vt -31.143158 -2.0289557
vt 0 -1.903351
vt 0.96809864 1.2489842
vt 2.0001001 -1.903351
vt 6.9556284 0.24561991
vt -0.41757515 0.9680996
vt -0.41757515 -30.9681
vt -7.114628 6.9974995
vt -7.114628 -36.997498
vn -0 -1 0
vn -0 -1 0
vn -0 -1 0
vn -0 -1 0
vn -0 -1 0
vn -0 -1 0
vn -0 -1 0
vn -0 -1 0
vn -0 -1 0
vn -0 -1 0
vn -0 -1 0
vn -0 -1 0
vn -0 -1 0
vn -0 -1 0
vn -0 -1 0
vn -0 -1 0
vn -0 1 0
vn -0 1 0
vn -0 1 0
vn -0 1 0
vn -0 -1 0
vn -0 -1 0
vn -0 -1 0
vn -0 -1 0
vn -0.7049811 0.0013694435 0.70922476
vn -0.35249054 -0.4993153 0.35461238
vn -0.35249054 -0.4993153 0.35461238
vn -0.35249054 -0.4993153 0.35461238
vn -0 -1 0
vn -0.35249054 -0.4993153 0.35461238
vn 0.9516756 -0.30710527 0
vn 0.7376395 -0.3652056 0.36967945
vn 0.7376395 -0.3652056 0.36967945
vn 0.5236034 -0.42330593 0.7393589
vn -0 0.8940544 -0.44795835
vn -0 0.8940544 -0.44795835
vn -0 0.8940544 -0.44795835
vn -0 0.8940544 -0.44795838
vn 0.7092249 0.0013695057 0.70498097
vn 0.35461244 -0.49931526 0.35249048
vn 0.35461244 -0.49931526 0.35249048
vn 0.35461244 -0.49931526 0.35249048
vn -0 -1 0
vn 0.35461244 -0.49931526 0.35249048
vn -0 -0.30710554 -0.9516755
vn 0.3696794 -0.36520582 -0.7376394
vn 0.3696794 -0.36520582 -0.7376394
vn 0.7393588 -0.42330608 -0.5236034
vn -0.44795835 0.8940544 0
vn -0.44795835 0.8940544 0
vn -0.44795835 0.8940544 0
vn -0.44795838 0.8940545 0
vn 0.704981 0.0013696987 -0.7092249
vn 0.3524905 -0.49931514 -0.35461244
vn 0.3524905 -0.49931514 -0.35461244
vn 0.3524905 -0.49931514 -0.35461244
vn -0 -1 0
vn 0.3524905 -0.49931514 -0.35461244
vn -0.9516755 -0.30710554 0
vn -0.7376394 -0.36520582 -0.3696794
vn -0.7376394 -0.36520582 -0.3696794
vn -0.5236034 -0.42330608 -0.7393588
vn -0 0.8940544 0.44795835
vn -0 0.8940544 0.44795835
vn -0 0.8940544 0.44795835
vn -0 0.8940544 0.44795838
vn -0.70922476 0.0013691868 -0.70498115
vn -0.35461238 -0.4993154 -0.35249057
vn -0.35461238 -0.4993154 -0.35249057
vn -0.35461238 -0.4993154 -0.35249057
vn -0 -1 0
vn -0.35461238 -0.4993154 -0.35249057
vn -0 -0.30710554 0.9516755
vn -0.36967936 -0.365206 0.7376393
vn -0.36967936 -0.365206 0.7376393
vn -0.7393587 -0.42330647 0.5236032
vn 0.44795823 0.8940545 0
vn 0.44795823 0.8940545 0
vn 0.44795823 0.8940545 0
vn 0.44795823 0.8940545 0
g pb_Mesh-6000658_0
f 3/3/3 2/2/2 1/1/1
f 3/3/3 4/4/4 2/2/2
f 7/7/7 6/6/6 5/5/5
f 7/7/7 8/8/8 6/6/6
f 11/11/11 10/10/10 9/9/9
f 11/11/11 12/12/12 10/10/10
f 15/15/15 14/14/14 13/13/13
f 15/15/15 16/16/16 14/14/14
f 19/19/19 18/18/18 17/17/17
f 19/19/19 20/20/20 18/18/18
f 23/23/23 22/22/22 21/21/21
f 23/23/23 24/24/24 22/22/22
f 9/9/9 21/21/21 22/22/22
f 9/9/9 10/10/10 21/21/21
f 27/27/27 26/26/26 25/25/25
f 30/30/30 29/29/29 28/28/28
f 33/33/33 32/32/32 31/31/31
f 33/33/33 34/34/34 32/32/32
f 37/37/37 36/36/36 35/35/35
f 37/37/37 38/38/38 36/36/36
f 5/5/5 22/22/22 24/24/24
f 5/5/5 6/6/6 22/22/22
f 41/41/41 40/40/40 39/39/39
f 44/44/44 43/43/43 42/42/42
f 47/47/47 46/46/46 45/45/45
f 47/47/47 48/48/48 46/46/46
f 51/51/51 50/50/50 49/49/49
f 51/51/51 52/52/52 50/50/50
f 1/1/1 24/24/24 23/23/23
f 1/1/1 2/2/2 24/24/24
f 55/55/55 54/54/54 53/53/53
f 58/58/58 57/57/57 56/56/56
f 61/61/61 60/60/60 59/59/59
f 61/61/61 62/62/62 60/60/60
f 65/65/65 64/64/64 63/63/63
f 65/65/65 66/66/66 64/64/64
f 13/13/13 23/23/23 21/21/21
f 13/13/13 14/14/14 23/23/23
f 69/69/69 68/68/68 67/67/67
f 72/72/72 71/71/71 70/70/70
f 75/75/75 74/74/74 73/73/73
f 75/75/75 76/76/76 74/74/74
f 79/79/79 78/78/78 77/77/77
f 79/79/79 80/80/80 78/78/78
