g pb_Mesh868762
v -27.816217 -6.5095634 10.999777
v -44.850937 -6.5095634 11.000018
v -27.816217 1 10.999777
v -44.850937 1 11.000018
v -44.850937 -6.5095634 11.000018
v -44.850933 -6.5095634 -10.119069
v -44.850937 1 11.000018
v -44.850933 1 -10.119069
v -44.850933 -6.5095634 -10.119069
v -27.816216 -6.5095634 -10.119318
v -44.850933 1 -10.119069
v -27.816216 1 -10.119318
v -27.816216 -6.5095634 -10.119318
v -27.816217 -6.5095634 10.999777
v -27.816216 1 -10.119318
v -27.816217 1 10.999777
v -27.816217 1 10.999777
v -44.850937 1 11.000018
v -27.816216 1 -10.119318
v -44.850933 1 -10.119069
v -27.816216 -6.5095634 -10.119318
v -44.850933 -6.5095634 -10.119069
v -27.816217 -6.5095634 10.999777
v -44.850937 -6.5095634 11.000018
vt -27.816374 -6.5095634
vt -44.851093 -6.5095634
vt -27.816374 1
vt -44.851093 1
vt 11.000026 -6.5095634
vt -10.119061 -6.5095634
vt 11.000026 1
vt -10.119061 1
vt 44.850784 -6.5095634
vt 27.816067 -6.5095634
vt 44.850784 1
vt 27.816067 1
vt 10.119315 -6.5095634
vt -10.99978 -6.5095634
vt 10.119315 1
vt -10.99978 1
vt 27.816217 10.999777
vt 44.850937 11.000018
vt 27.816216 -10.119318
vt 44.850933 -10.119069
vt -27.816216 -10.119318
vt -44.850933 -10.119069
vt -27.816217 10.999777
vt -44.850937 11.000018
vn 1.416399E-05 0 1
vn 1.416399E-05 0 1
vn 1.416399E-05 0 1
vn 1.416399E-05 0 1
vn -1 0 -1.8062795E-07
vn -1 0 -1.8062795E-07
vn -1 0 -1.8062795E-07
vn -1 0 -1.8062795E-07
vn -1.46118655E-05 0 -1
vn -1.46118655E-05 0 -1
vn -1.46118655E-05 0 -1
vn -1.46118655E-05 0 -1
vn 1 0 9.031394E-08
vn 1 0 9.031394E-08
vn 1 0 9.031394E-08
vn 1 0 9.031394E-08
vn -0 1 0
vn -0 1 0
vn -0 1 0
vn -0 1 0
vn -0 -1 0
vn -0 -1 0
vn -0 -1 0
vn -0 -1 0
g pb_Mesh868762_0
f 3/3/3 2/2/2 1/1/1
f 3/3/3 4/4/4 2/2/2
f 7/7/7 6/6/6 5/5/5
f 7/7/7 8/8/8 6/6/6
f 11/11/11 10/10/10 9/9/9
f 11/11/11 12/12/12 10/10/10
f 15/15/15 14/14/14 13/13/13
f 15/15/15 16/16/16 14/14/14
f 19/19/19 18/18/18 17/17/17
f 19/19/19 20/20/20 18/18/18
f 23/23/23 22/22/22 21/21/21
f 23/23/23 24/24/24 22/22/22
