g pb_Mesh866282
v -0.81562495 0 8.85436
v -3.7782793 0 8.854363
v -0.81562495 20.956337 8.85436
v -3.7782793 20.956337 8.854363
v -3.7782793 0 8.854363
v -3.778038 0 -76.99338
v -3.7782793 20.956337 8.854363
v -3.778038 20.956337 -76.99338
v -3.778038 0 -76.99338
v -0.8153839 0 -76.99338
v -3.778038 20.956337 -76.99338
v -0.8153839 20.956337 -76.99338
v -0.8153839 0 -76.99338
v -0.81562495 0 8.85436
v -0.8153839 20.956337 -76.99338
v -0.81562495 20.956337 8.85436
v -0.81562495 20.956337 8.85436
v -3.7782793 20.956337 8.854363
v -0.8153839 20.956337 -76.99338
v -3.778038 20.956337 -76.99338
v -0.8153839 0 -76.99338
v -3.778038 0 -76.99338
v -0.81562495 0 8.85436
v -3.7782793 0 8.854363
vt -0.81563634 0
vt -3.7782907 0
vt -0.81563634 20.956337
vt -3.7782907 20.956337
vt 8.854374 0
vt -76.99337 0
vt 8.854374 20.956337
vt -76.99337 20.956337
vt 3.778038 0
vt 0.8153839 0
vt 3.778038 20.956337
vt 0.8153839 20.956337
vt 76.99338 0
vt -8.854362 0
vt 76.99338 20.956337
vt -8.854362 20.956337
vt 0.81562495 8.85436
vt 3.7782793 8.854363
vt 0.8153839 -76.99338
vt 3.778038 -76.99338
vt -0.8153839 -76.99338
vt -3.778038 -76.99338
vt -0.81562495 8.85436
vt -3.7782793 8.854363
vn 1.2875944E-06 0 1
vn 1.2875944E-06 0 1
vn 1.2875944E-06 0 1
vn 1.2875944E-06 0 1
vn -1 0 -2.8105526E-06
vn -1 0 -2.8105526E-06
vn -1 0 -2.8105526E-06
vn -1 0 -2.8105526E-06
vn -0 0 -1
vn -0 0 -1
vn -0 0 -1
vn -0 0 -1
vn 1 0 2.8077757E-06
vn 1 0 2.8077757E-06
vn 1 0 2.8077757E-06
vn 1 0 2.8077757E-06
vn -0 1 0
vn -0 1 0
vn -0 1 0
vn -0 1 0
vn -0 -1 0
vn -0 -1 0
vn -0 -1 0
vn -0 -1 0
g pb_Mesh866282_0
f 3/3/3 2/2/2 1/1/1
f 3/3/3 4/4/4 2/2/2
f 7/7/7 6/6/6 5/5/5
f 7/7/7 8/8/8 6/6/6
f 11/11/11 10/10/10 9/9/9
f 11/11/11 12/12/12 10/10/10
f 15/15/15 14/14/14 13/13/13
f 15/15/15 16/16/16 14/14/14
f 19/19/19 18/18/18 17/17/17
f 19/19/19 20/20/20 18/18/18
f 23/23/23 22/22/22 21/21/21
f 23/23/23 24/24/24 22/22/22
