g pb_Mesh7071570
v 21.5 -2.0000002 24.999998
v -13.5 -2.0000002 25
v 21.5 2 24.999998
v -13.5 2 25
v -13.5 -2.0000002 25
v -13.499996 -2.0000002 -25.000002
v -13.5 2 25
v -13.499996 2 -25.000002
v -13.499996 -2.0000002 -25.000002
v 21.499996 -2.0000002 -25
v -13.499996 2 -25.000002
v 21.499996 2 -25
v 21.499996 -2.0000002 -25
v 21.5 -2.0000002 24.999998
v 21.499996 2 -25
v 21.5 2 24.999998
v 21.5 2 24.999998
v -13.5 2 25
v 21.499996 2 -25
v -13.499996 2 -25.000002
v 21.499996 -2.0000002 -25
v -13.499996 -2.0000002 -25.000002
v 21.5 -2.0000002 24.999998
v -13.5 -2.0000002 25
vt 21.499998 -2.0000002
vt -13.500001 -2.0000002
vt 21.499998 2
vt -13.500001 2
vt 25.000002 -2.0000002
vt -25 -2.0000002
vt 25.000002 2
vt -25 2
vt 13.499997 -2.0000002
vt -21.499994 -2.0000002
vt 13.499997 2
vt -21.499994 2
vt 24.999998 -2.0000002
vt -25 -2.0000002
vt 24.999998 2
vt -25 2
vt -21.5 24.999998
vt 13.5 25
vt -21.499996 -25
vt 13.499996 -25.000002
vt 21.499996 -25
vt -13.499996 -25.000002
vt 21.5 24.999998
vt -13.5 25
vn 5.4495676E-08 0 1
vn 5.4495676E-08 0 1
vn 5.4495676E-08 0 1
vn 5.4495676E-08 0 1
vn -1 0 -7.6293944E-08
vn -1 0 -7.6293944E-08
vn -1 0 -7.6293944E-08
vn -1 0 -7.6293944E-08
vn 5.4495686E-08 0 -1
vn 5.4495686E-08 0 -1
vn 5.4495686E-08 0 -1
vn 5.4495686E-08 0 -1
vn 1 0 -7.6293944E-08
vn 1 0 -7.6293944E-08
vn 1 0 -7.6293944E-08
vn 1 0 -7.6293944E-08
vn -0 1 0
vn -0 1 0
vn -0 1 0
vn -0 1 0
vn -0 -1 0
vn -0 -1 0
vn -0 -1 0
vn -0 -1 0
g pb_Mesh7071570_0
f 3/3/3 2/2/2 1/1/1
f 3/3/3 4/4/4 2/2/2
f 7/7/7 6/6/6 5/5/5
f 7/7/7 8/8/8 6/6/6
f 11/11/11 10/10/10 9/9/9
f 11/11/11 12/12/12 10/10/10
f 15/15/15 14/14/14 13/13/13
f 15/15/15 16/16/16 14/14/14
f 19/19/19 18/18/18 17/17/17
f 19/19/19 20/20/20 18/18/18
f 23/23/23 22/22/22 21/21/21
f 23/23/23 24/24/24 22/22/22
