g pb_Mesh-5688394
v -0 0 0.3899997
v 0.03842926 0.3901806 0.3899997
v -0 0 0.47999936
v 0.03842926 0.3901806 0.47999936
v 2 0 0
v 2 0 0
v 2 0 0.47999936
v 2 0 0
v 2 0 0.47999936
v 2 0 0.47999936
v -0 0 0.47999936
v 2 0 0.47999936
v -0 0 0.3899997
v 2 0 0
v 0.03842926 0.3901806 0.3899997
v 0.15224075 0.76536655 0.3899997
v 0.03842926 0.3901806 0.47999936
v 0.15224075 0.76536655 0.47999936
v 2 0 0
v 2 0 0
v 2 0 0.47999936
v 2 0 0
v 2 0 0.47999936
v 2 0 0.47999936
v 0.15224075 0.76536655 0.3899997
v 0.33706093 1.1111403 0.3899997
v 0.15224075 0.76536655 0.47999936
v 0.33706093 1.1111403 0.47999936
v 2 0 0
v 2 0 0
v 2 0 0.47999936
v 2 0 0
v 2 0 0.47999936
v 2 0 0.47999936
v 0.33706093 1.1111403 0.3899997
v 0.5857868 1.4142132 0.3899997
v 0.33706093 1.1111403 0.47999936
v 0.5857868 1.4142132 0.47999936
v 2 0 0
v 2 0 0
v 2 0 0.47999936
v 2 0 0
v 2 0 0.47999936
v 2 0 0.47999936
v 0.5857868 1.4142132 0.3899997
v 0.8888588 1.6629391 0.3899997
v 0.5857868 1.4142132 0.47999936
v 0.8888588 1.6629391 0.47999936
v 2 0 0
v 2 0 0
v 2 0 0.47999936
v 2 0 0
v 2 0 0.47999936
v 2 0 0.47999936
v 0.8888588 1.6629391 0.3899997
v 1.2346325 1.8477592 0.3899997
v 0.8888588 1.6629391 0.47999936
v 1.2346325 1.8477592 0.47999936
v 2 0 0
v 2 0 0
v 2 0 0.47999936
v 2 0 0
v 2 0 0.47999936
v 2 0 0.47999936
v 1.2346325 1.8477592 0.3899997
v 1.6098194 1.9615707 0.3899997
v 1.2346325 1.8477592 0.47999936
v 1.6098194 1.9615707 0.47999936
v 2 0 0
v 2 0 0
v 2 0 0.47999936
v 2 0 0
v 2 0 0.47999936
v 2 0 0.47999936
v 1.6098194 1.9615707 0.3899997
v 2 2 0.3899997
v 1.6098194 1.9615707 0.47999936
v 2 2 0.47999936
v 2 0 0
v 2 0 0
v 2 0 0.47999936
v 2 0 0
v 2 0 0.47999936
v 2 0 0.47999936
v 2 0 0.47999936
v 2 2 0.47999936
v 2 0 0
v 2 2 0.3899997
v -0 0 0.47999936
v 0.03842926 0.3901806 0.47999936
v 2 0 0.47999936
v 0.03842926 0.3901806 0.47999936
v 2 0 0.47999936
v 2 0 0.47999936
v 0.03842926 0.3901806 0.3899997
v -0 0 0.3899997
v 2 0 0
v -0 0 0.3899997
v 2 0 0
v 2 0 0
v 0.03842926 0.3901806 0.47999936
v 0.15224075 0.76536655 0.47999936
v 2 0 0.47999936
v 0.15224075 0.76536655 0.47999936
v 2 0 0.47999936
v 2 0 0.47999936
v 0.15224075 0.76536655 0.3899997
v 0.03842926 0.3901806 0.3899997
v 2 0 0
v 0.03842926 0.3901806 0.3899997
v 2 0 0
v 2 0 0
v 0.15224075 0.76536655 0.47999936
v 0.33706093 1.1111403 0.47999936
v 2 0 0.47999936
v 0.33706093 1.1111403 0.47999936
v 2 0 0.47999936
v 2 0 0.47999936
v 0.33706093 1.1111403 0.3899997
v 0.15224075 0.76536655 0.3899997
v 2 0 0
v 0.15224075 0.76536655 0.3899997
v 2 0 0
v 2 0 0
v 0.33706093 1.1111403 0.47999936
v 0.5857868 1.4142132 0.47999936
v 2 0 0.47999936
v 0.5857868 1.4142132 0.47999936
v 2 0 0.47999936
v 2 0 0.47999936
v 0.5857868 1.4142132 0.3899997
v 0.33706093 1.1111403 0.3899997
v 2 0 0
v 0.33706093 1.1111403 0.3899997
v 2 0 0
v 2 0 0
v 0.5857868 1.4142132 0.47999936
v 0.8888588 1.6629391 0.47999936
v 2 0 0.47999936
v 0.8888588 1.6629391 0.47999936
v 2 0 0.47999936
v 2 0 0.47999936
v 0.8888588 1.6629391 0.3899997
v 0.5857868 1.4142132 0.3899997
v 2 0 0
v 0.5857868 1.4142132 0.3899997
v 2 0 0
v 2 0 0
v 0.8888588 1.6629391 0.47999936
v 1.2346325 1.8477592 0.47999936
v 2 0 0.47999936
v 1.2346325 1.8477592 0.47999936
v 2 0 0.47999936
v 2 0 0.47999936
v 1.2346325 1.8477592 0.3899997
v 0.8888588 1.6629391 0.3899997
v 2 0 0
v 0.8888588 1.6629391 0.3899997
v 2 0 0
v 2 0 0
v 1.2346325 1.8477592 0.47999936
v 1.6098194 1.9615707 0.47999936
v 2 0 0.47999936
v 1.6098194 1.9615707 0.47999936
v 2 0 0.47999936
v 2 0 0.47999936
v 1.6098194 1.9615707 0.3899997
v 1.2346325 1.8477592 0.3899997
v 2 0 0
v 1.2346325 1.8477592 0.3899997
v 2 0 0
v 2 0 0
v 1.6098194 1.9615707 0.47999936
v 2 2 0.47999936
v 2 0 0.47999936
v 2 2 0.47999936
v 2 0 0.47999936
v 2 0 0.47999936
v 2 2 0.3899997
v 1.6098194 1.9615707 0.3899997
v 2 0 0
v 1.6098194 1.9615707 0.3899997
v 2 0 0
v 2 0 0
vt 0.3899997 0
vt 0.3899997 0.3920685
vt 0.47999936 0
vt 0.47999936 0.3920685
vt 0 0
vt 0 0
vt 0 0
vt 0 0
vt 0 0
vt 0 0
vt 0 0.47999936
vt 2 0.47999936
vt 0 0.3899997
vt 2 0
vt 0.3899997 0.38453496
vt 0.3899997 0.7766033
vt 0.47999936 0.38453496
vt 0.47999936 0.7766033
vt 0 0
vt 0 0
vt 0 0
vt 0 0
vt 0 0
vt 0 0
vt 0.3899997 0.74675864
vt 0.3899997 1.1388274
vt 0.47999936 0.74675864
vt 0.47999936 1.1388274
vt 0 0
vt 0 0
vt 0 0
vt 0 0
vt 0 0
vt 0 0
vt 0.3899997 1.0727519
vt 0.3899997 1.4648204
vt 0.47999936 1.0727519
vt 0.47999936 1.4648204
vt 0 0
vt 0 0
vt 0 0
vt 0 0
vt 0 0
vt 0 0
vt -1.3499883 0.3899997
vt -1.7420563 0.3899997
vt -1.3499883 0.47999936
vt -1.7420563 0.47999936
vt 0 0
vt 0 0
vt 0 0
vt 0 0
vt 0 0
vt 0 0
vt -1.5678082 0.3899997
vt -1.959877 0.3899997
vt -1.5678082 0.47999936
vt -1.959877 0.47999936
vt 0 0
vt 0 0
vt 0 0
vt 0 0
vt 0 0
vt 0 0
vt -1.7178452 0.3899997
vt -2.1099143 0.3899997
vt -1.7178452 0.47999936
vt -2.1099143 0.47999936
vt 0 0
vt 0 0
vt 0 0
vt 0 0
vt 0 0
vt 0 0
vt -1.7943345 0.3899997
vt -2.186403 0.3899997
vt -1.7943345 0.47999936
vt -2.186403 0.47999936
vt 0 0
vt 0 0
vt 0 0
vt 0 0
vt 0 0
vt 0 0
vt -0.47999936 0
vt -0.47999936 2
vt 0 0
vt -0.3899997 2
vt 0 0
vt 0.03842926 0.3901806
vt 2 0
vt 0.03842926 0.3901806
vt 2 0
vt 2 0
vt 0.036925126 0.39746448
vt 0.07464395 0.0072145914
vt -1.9630263 0.0072145914
vt 0.07464395 0.0072145914
vt -1.9630263 0.0072145914
vt -1.9630263 0.0072145914
vt 0.03842926 0.3901806
vt 0.15224075 0.76536655
vt 2 0
vt 0.15224075 0.76536655
vt 2 0
vt 2 0
vt -0.07775831 0.7871355
vt 0.034103714 0.4113637
vt -1.9657422 0.020573858
vt 0.034103714 0.4113637
vt -1.9657422 0.020573858
vt -1.9657422 0.020573858
vt 0.15224075 0.76536655
vt 0.33706093 1.1111403
vt 2 0
vt 0.33706093 1.1111403
vt 2 0
vt 2 0
vt -0.265728 1.1466033
vt -0.08360708 0.7994003
vt -1.9707904 0.030870052
vt -0.08360708 0.7994003
vt -1.9707904 0.030870052
vt -1.9707904 0.030870052
vt 0.33706093 1.1111403
vt 0.5857868 1.4142132
vt 2 0
vt 0.5857868 1.4142132
vt 2 0
vt 2 0
vt -0.52077514 1.4613907
vt -0.27485418 1.1560374
vt -1.9774454 0.036536656
vt -0.27485418 1.1560374
vt -1.9774454 0.036536656
vt -1.9774454 0.036536656
vt 0.5857868 1.4142132
vt 0.8888588 1.6629391
vt 2 0
vt 0.8888588 1.6629391
vt 2 0
vt 2 0
vt -0.8339613 1.7182906
vt -0.533204 1.4667708
vt -1.984725 0.036671173
vt -0.533204 1.4667708
vt -1.984725 0.036671173
vt -1.984725 0.036671173
vt 0.8888588 1.6629391
vt 1.2346325 1.8477592
vt 2 0
vt 1.2346325 1.8477592
vt 2 0
vt 2 0
vt -1.1935288 1.9061099
vt -0.8492207 1.7185736
vt -1.9915226 0.031194778
vt -0.8492207 1.7185736
vt -1.9915226 0.031194778
vt -1.9915226 0.031194778
vt 1.2346325 1.8477592
vt 1.6098194 1.9615707
vt 2 0
vt 1.6098194 1.9615707
vt 2 0
vt 2 0
vt -1.5850745 2.016545
vt -1.2104931 1.9007565
vt -1.9967726 0.020898584
vt -1.2104931 1.9007565
vt -1.9967726 0.020898584
vt -1.9967726 0.020898584
vt 1.6098194 1.9615707
vt 2 2
vt 2 0
vt 2 2
vt 2 0
vt 2 0
vt -1.9921424 2.0450053
vt -1.6020337 2.0058527
vt -1.9996313 0.007349093
vt -1.6020337 2.0058527
vt -1.9996313 0.007349093
vt -1.9996313 0.007349093
vn -0.9951848 0.09801671 0
vn -0.9951848 0.09801671 0
vn -0.9951848 0.09801671 0
vn -0.9951848 0.09801671 0
vn -0 0 0
vn -0 0 0
vn -0 0 0
vn -0 0 0
vn -0 0 0
vn -0 0 0
vn -0 -1 0
vn -0 -1 0
vn -0 -1 0
vn -0 -1 0
vn -0.95694023 0.29028484 0
vn -0.95694023 0.29028484 0
vn -0.95694023 0.29028484 0
vn -0.95694023 0.29028484 0
vn -0 0 0
vn -0 0 0
vn -0 0 0
vn -0 0 0
vn -0 0 0
vn -0 0 0
vn -0.88192093 0.4713973 0
vn -0.88192093 0.4713973 0
vn -0.88192093 0.4713973 0
vn -0.88192093 0.4713973 0
vn -0 0 0
vn -0 0 0
vn -0 0 0
vn -0 0 0
vn -0 0 0
vn -0 0 0
vn -0.77300996 0.6343938 0
vn -0.77300996 0.6343938 0
vn -0.77300996 0.6343938 0
vn -0.77300996 0.6343938 0
vn -0 0 0
vn -0 0 0
vn -0 0 0
vn -0 0 0
vn -0 0 0
vn -0 0 0
vn -0.63439506 0.77300906 0
vn -0.63439506 0.77300906 0
vn -0.63439506 0.77300906 0
vn -0.63439506 0.77300906 0
vn -0 0 0
vn -0 0 0
vn -0 0 0
vn -0 0 0
vn -0 0 0
vn -0 0 0
vn -0.4713973 0.88192093 0
vn -0.4713973 0.88192093 0
vn -0.4713973 0.88192093 0
vn -0.4713973 0.88192093 0
vn -0 0 0
vn -0 0 0
vn -0 0 0
vn -0 0 0
vn -0 0 0
vn -0 0 0
vn -0.2902842 0.95694053 0
vn -0.2902842 0.95694053 0
vn -0.2902842 0.95694053 0
vn -0.2902842 0.95694053 0
vn -0 0 0
vn -0 0 0
vn -0 0 0
vn -0 0 0
vn -0 0 0
vn -0 0 0
vn -0.09801671 0.9951848 0
vn -0.09801671 0.9951848 0
vn -0.09801671 0.9951848 0
vn -0.09801671 0.9951848 0
vn -0 0 0
vn -0 0 0
vn -0 0 0
vn -0 0 0
vn -0 0 0
vn -0 0 0
vn 1 0 0
vn 1 0 0
vn 1 0 0
vn 1 0 0
vn -0 0 1
vn -0 0 0.5
vn -0 0 0.5
vn -0 0 0.5
vn -0 0 0
vn -0 0 0.5
vn -0.1913609 0.01884732 -0.9813388
vn -0.09568045 0.00942366 -0.4906694
vn -0.09568045 0.00942366 -0.4906694
vn -0.09568045 0.00942366 -0.4906694
vn -0 0 0
vn -0.09568045 0.00942366 -0.4906694
vn -0 0 1
vn -0 0 0.5
vn -0 0 0.5
vn -0 0 0.5
vn -0 0 0
vn -0 0 0.5
vn -0.18400699 0.055817947 -0.9813388
vn -0.092003495 0.027908973 -0.4906694
vn -0.092003495 0.027908973 -0.4906694
vn -0.092003495 0.027908973 -0.4906694
vn -0 0 0
vn -0.092003495 0.027908973 -0.4906694
vn -0 0 1
vn -0 0 0.5
vn -0 0 0.5
vn -0 0 0.5
vn -0 0 0
vn -0 0 0.5
vn -0.1695818 0.090643495 -0.9813388
vn -0.0847909 0.045321748 -0.4906694
vn -0.0847909 0.045321748 -0.4906694
vn -0.0847909 0.045321748 -0.4906694
vn -0 0 0
vn -0.0847909 0.045321748 -0.4906694
vn -0 0 1
vn -0 0 0.5
vn -0 0 0.5
vn -0 0 0.5
vn -0 0 0
vn -0 0 0.5
vn -0.14863966 0.1219856 -0.9813388
vn -0.07431983 0.0609928 -0.4906694
vn -0.07431983 0.0609928 -0.4906694
vn -0.07431983 0.0609928 -0.4906694
vn -0 0 0
vn -0.07431983 0.0609928 -0.4906694
vn -0 0 1
vn -0 0 0.5
vn -0 0 0.5
vn -0 0 0.5
vn -0 0 0
vn -0 0 0.5
vn -0.12198581 0.14863946 -0.98133874
vn -0.060992904 0.07431973 -0.49066937
vn -0.060992904 0.07431973 -0.49066937
vn -0.060992904 0.07431973 -0.49066937
vn -0 0 0
vn -0.060992904 0.07431973 -0.49066937
vn -0 0 1
vn -0 0 0.5
vn -0 0 0.5
vn -0 0 0.5
vn -0 0 0
vn -0 0 0.5
vn -0.09064347 0.16958176 -0.9813388
vn -0.045321736 0.08479088 -0.4906694
vn -0.045321736 0.08479088 -0.4906694
vn -0.045321736 0.08479088 -0.4906694
vn -0 0 0
vn -0.045321736 0.08479088 -0.4906694
vn -0 0 1
vn -0 0 0.5
vn -0 0 0.5
vn -0 0 0.5
vn -0 0 0
vn -0 0 0.5
vn -0.055817816 0.18400703 -0.9813388
vn -0.027908908 0.09200352 -0.4906694
vn -0.027908908 0.09200352 -0.4906694
vn -0.027908908 0.09200352 -0.4906694
vn -0 0 0
vn -0.027908908 0.09200352 -0.4906694
vn -0 0 1
vn -0 0 0.5
vn -0 0 0.5
vn -0 0 0.5
vn -0 0 0
vn -0 0 0.5
vn -0.01884732 0.1913609 -0.9813388
vn -0.00942366 0.09568045 -0.4906694
vn -0.00942366 0.09568045 -0.4906694
vn -0.00942366 0.09568045 -0.4906694
vn -0 0 0
vn -0.00942366 0.09568045 -0.4906694
g pb_Mesh-5688394_0
f 3/3/3 2/2/2 1/1/1
f 3/3/3 4/4/4 2/2/2
f 7/7/7 6/6/6 5/5/5
f 10/10/10 9/9/9 8/8/8
f 13/13/13 12/12/12 11/11/11
f 13/13/13 14/14/14 12/12/12
f 17/17/17 16/16/16 15/15/15
f 17/17/17 18/18/18 16/16/16
f 21/21/21 20/20/20 19/19/19
f 24/24/24 23/23/23 22/22/22
f 27/27/27 26/26/26 25/25/25
f 27/27/27 28/28/28 26/26/26
f 31/31/31 30/30/30 29/29/29
f 34/34/34 33/33/33 32/32/32
f 37/37/37 36/36/36 35/35/35
f 37/37/37 38/38/38 36/36/36
f 41/41/41 40/40/40 39/39/39
f 44/44/44 43/43/43 42/42/42
f 47/47/47 46/46/46 45/45/45
f 47/47/47 48/48/48 46/46/46
f 51/51/51 50/50/50 49/49/49
f 54/54/54 53/53/53 52/52/52
f 57/57/57 56/56/56 55/55/55
f 57/57/57 58/58/58 56/56/56
f 61/61/61 60/60/60 59/59/59
f 64/64/64 63/63/63 62/62/62
f 67/67/67 66/66/66 65/65/65
f 67/67/67 68/68/68 66/66/66
f 71/71/71 70/70/70 69/69/69
f 74/74/74 73/73/73 72/72/72
f 77/77/77 76/76/76 75/75/75
f 77/77/77 78/78/78 76/76/76
f 81/81/81 80/80/80 79/79/79
f 84/84/84 83/83/83 82/82/82
f 87/87/87 86/86/86 85/85/85
f 87/87/87 88/88/88 86/86/86
f 91/91/91 90/90/90 89/89/89
f 94/94/94 93/93/93 92/92/92
f 97/97/97 96/96/96 95/95/95
f 100/100/100 99/99/99 98/98/98
f 103/103/103 102/102/102 101/101/101
f 106/106/106 105/105/105 104/104/104
f 109/109/109 108/108/108 107/107/107
f 112/112/112 111/111/111 110/110/110
f 115/115/115 114/114/114 113/113/113
f 118/118/118 117/117/117 116/116/116
f 121/121/121 120/120/120 119/119/119
f 124/124/124 123/123/123 122/122/122
f 127/127/127 126/126/126 125/125/125
f 130/130/130 129/129/129 128/128/128
f 133/133/133 132/132/132 131/131/131
f 136/136/136 135/135/135 134/134/134
f 139/139/139 138/138/138 137/137/137
f 142/142/142 141/141/141 140/140/140
f 145/145/145 144/144/144 143/143/143
f 148/148/148 147/147/147 146/146/146
f 151/151/151 150/150/150 149/149/149
f 154/154/154 153/153/153 152/152/152
f 157/157/157 156/156/156 155/155/155
f 160/160/160 159/159/159 158/158/158
f 163/163/163 162/162/162 161/161/161
f 166/166/166 165/165/165 164/164/164
f 169/169/169 168/168/168 167/167/167
f 172/172/172 171/171/171 170/170/170
f 175/175/175 174/174/174 173/173/173
f 178/178/178 177/177/177 176/176/176
f 181/181/181 180/180/180 179/179/179
f 184/184/184 183/183/183 182/182/182
