g pb_Mesh7071620
v 2.5 7.000004 -2.000003
v -19.499996 6.999998 -2.0000014
v 2.5000038 -14.999996 -2.000003
v 2.5 7.000004 -2.000003
v -19.5 7 2.0000043
v -19.499996 6.999998 -2.0000014
v 2.5 7.0000033 1.9999979
v 2.5 7.0000033 1.9999979
v 2.5000038 -14.999996 2.0000038
v -19.5 7 2.0000043
v 2.5 7.0000033 1.9999979
v 2.5000038 -14.999996 -2.000003
v 2.5000038 -14.999996 2.0000038
v 2.5 7.000004 -2.000003
v 2.5000038 -14.999996 -2.000003
v -19.499996 6.999998 -2.0000014
v 2.5000038 -14.999996 2.0000038
v -19.5 7 2.0000043
vt -2.5000002 7.000004
vt 19.499996 6.999998
vt -2.500004 -14.999996
vt -2.500002 -1.9999998
vt 19.499998 2.0000076
vt 19.499994 -1.9999981
vt -2.500002 2.0000012
vt 2.4999995 7.000003
vt 2.5000033 -14.999997
vt -19.5 6.9999995
vt -1.9999979 7.000003
vt 2.000003 -14.999996
vt -2.0000038 -14.999996
vt 2.000003 7.0000033
vt 12.374368 -2.000003
vt -18.738327 -2.0000014
vt 12.374368 2.0000038
vt -18.73833 2.0000043
vn -7.586047E-08 -1.3153852E-14 -1
vn -7.586047E-08 -1.3153852E-14 -1
vn -7.586047E-08 -1.3153852E-14 -1
vn -2.0590696E-07 1 -1.7881372E-07
vn -2.0590696E-07 1 -1.7881372E-07
vn -2.6009306E-07 1 -4.768367E-07
vn -1.5172087E-07 1 1.1920926E-07
vn 2.926046E-07 2.7093026E-07 1
vn 2.926046E-07 2.7093026E-07 1
vn 2.926046E-07 2.7093026E-07 1
vn 1 1.7339532E-07 1.0335164E-14
vn 1 1.7339532E-07 1.0335164E-14
vn 1 1.7339532E-07 0
vn 1 1.7339532E-07 2.0670328E-14
vn -0.7071067 -0.7071069 0
vn -0.70710665 -0.70710695 -1.6858706E-07
vn -0.70710665 -0.70710695 -1.6858706E-07
vn -0.7071066 -0.70710695 -3.3717413E-07
g pb_Mesh7071620_0
f 3/3/3 2/2/2 1/1/1
f 6/6/6 5/5/5 4/4/4
f 5/5/5 7/7/7 4/4/4
f 10/10/10 9/9/9 8/8/8
f 13/13/13 12/12/12 11/11/11
f 12/12/12 14/14/14 11/11/11
f 17/17/17 16/16/16 15/15/15
f 17/17/17 18/18/18 16/16/16
