g pb_Mesh-6000874
v -0 0 0
v -0 0.5 0
v 0.28192902 0 1.9608586
v 0.28192902 0.5 1.9608586
v 0.28192902 0 1.9608586
v 0.28192902 0.5 1.9608586
v 1.1048756 0 3.7628598
v 1.1048756 0.5 3.7628598
v 1.1048756 0 3.7628598
v 1.1048756 0.5 3.7628598
v 2.4021692 0 5.260017
v 2.4021692 0.5 5.260017
v 2.4021692 0 5.260017
v 2.4021692 0.5 5.260017
v 4.0687113 0 6.3310385
v 4.0687113 0.5 6.3310385
v 4.0687113 0 6.3310385
v 4.0687113 0.5 6.3310385
v 5.9694886 0 6.8891573
v 5.9694886 0.5 6.8891573
v 5.9694886 0 6.8891573
v 5.9694886 0.5 6.8891573
v 7.9505115 0 6.8891573
v 7.9505115 0.5 6.8891573
v 7.9505115 0 6.8891573
v 7.9505115 0.5 6.8891573
v 9.851288 0 6.331039
v 9.851288 0.5 6.331039
v 9.851288 0 6.331039
v 9.851288 0.5 6.331039
v 11.51783 0 5.2600174
v 11.51783 0.5 5.2600174
v 11.51783 0 5.2600174
v 11.51783 0.5 5.2600174
v 12.8151245 0 3.762861
v 12.8151245 0.5 3.762861
v 12.8151245 0 3.762861
v 12.8151245 0.5 3.762861
v 13.638071 0 1.9608591
v 12.8151245 0.5 3.762861
v 13.638071 0.5 1.9608591
v 13.638071 0 1.9608591
v 13.638071 0 1.9608591
v 13.638071 0.5 1.9608591
v 13.92 0 1.0509308E-06
v 13.92 0.5 1.0509308E-06
v 13.92 0 1.0509308E-06
v 13.92 0.5 1.0509308E-06
v 13.638071 0 -1.9608586
v 13.638071 0.5 -1.9608586
v 13.638071 0 -1.9608586
v 13.638071 0.5 -1.9608586
v 12.8151245 0 -3.7628593
v 12.8151245 0.5 -3.7628593
v 12.8151245 0 -3.7628593
v 12.8151245 0.5 -3.7628593
v 11.517832 0 -5.2600164
v 11.517832 0.5 -5.2600164
v 11.517832 0 -5.2600164
v 11.517832 0.5 -5.2600164
v 9.851289 0 -6.3310385
v 9.851289 0.5 -6.3310385
v 9.851289 0 -6.3310385
v 9.851289 0.5 -6.3310385
v 7.9505124 0 -6.8891573
v 7.9505124 0.5 -6.8891573
v 7.9505124 0 -6.8891573
v 7.9505124 0.5 -6.8891573
v 5.9694905 0 -6.889158
v 5.9694905 0.5 -6.889158
v 5.9694905 0 -6.889158
v 5.9694905 0.5 -6.889158
v 4.068714 0 -6.33104
v 4.068714 0.5 -6.33104
v 4.068714 0 -6.33104
v 4.068714 0.5 -6.33104
v 2.4021692 0 -5.260017
v 2.4021692 0.5 -5.260017
v 2.4021692 0 -5.260017
v 2.4021692 0.5 -5.260017
v 1.104876 0 -3.7628605
v 1.104876 0.5 -3.7628605
v 1.104876 0 -3.7628605
v 1.104876 0.5 -3.7628605
v 0.2819295 0 -1.9608599
v 0.2819295 0.5 -1.9608599
v 0.2819295 0 -1.9608599
v 0.2819295 0.5 -1.9608599
v -0 0 0
v -0 0.5 0
v -0 1 0
v 0.28192902 1 1.9608586
v 0.28192902 1 1.9608586
v 1.1048756 1 3.7628598
v 1.1048756 1 3.7628598
v 2.4021692 1 5.260017
v 2.4021692 1 5.260017
v 4.0687113 1 6.3310385
v 4.0687113 1 6.3310385
v 5.9694886 1 6.8891573
v 5.9694886 1 6.8891573
v 5.9694886 1 6.8891573
v 7.9505115 1 6.8891573
v 7.9505115 0.5 6.8891573
v 7.9505115 1 6.8891573
v 9.851288 1 6.331039
v 9.851288 1 6.331039
v 11.51783 1 5.2600174
v 11.51783 0.5 5.2600174
v 11.51783 1 5.2600174
v 12.8151245 0.5 3.762861
v 12.8151245 1 3.762861
v 12.8151245 1 3.762861
v 13.638071 1 1.9608591
v 13.638071 1 1.9608591
v 13.92 1 1.0509308E-06
v 13.92 1 1.0509308E-06
v 13.638071 1 -1.9608586
v 13.638071 1 -1.9608586
v 12.8151245 1 -3.7628593
v 12.8151245 1 -3.7628593
v 12.8151245 1 -3.7628593
v 11.517832 1 -5.2600164
v 11.517832 0.5 -5.2600164
v 11.517832 1 -5.2600164
v 9.851289 1 -6.3310385
v 9.851289 1 -6.3310385
v 7.9505124 1 -6.8891573
v 7.9505124 1 -6.8891573
v 5.9694905 1 -6.889158
v 5.9694905 0.5 -6.889158
v 5.9694905 1 -6.889158
v 4.068714 0.5 -6.33104
v 4.068714 1 -6.33104
v 4.068714 1 -6.33104
v 2.4021692 1 -5.260017
v 2.4021692 1 -5.260017
v 1.104876 1 -3.7628605
v 1.104876 1 -3.7628605
v 0.2819295 1 -1.9608599
v 0.2819295 0.5 -1.9608599
v 0.2819295 1 -1.9608599
v -0 0.5 0
v -0 1 0
v 0.28192902 0 1.9608586
v 6.96 0 0
v -0 0 0
v 1.1048756 0 3.7628598
v 2.4021692 0 5.260017
v 4.0687113 0 6.3310385
v 5.9694886 0 6.8891573
v 7.9505115 0 6.8891573
v 9.851288 0 6.331039
v 11.51783 0 5.2600174
v 12.8151245 0 3.762861
v 13.638071 0 1.9608591
v 13.92 0 1.0509308E-06
v 13.638071 0 -1.9608586
v 12.8151245 0 -3.7628593
v 11.517832 0 -5.2600164
v 9.851289 0 -6.3310385
v 7.9505124 0 -6.8891573
v 5.9694905 0 -6.889158
v 4.068714 0 -6.33104
v 2.4021692 0 -5.260017
v 1.104876 0 -3.7628605
v 0.2819295 0 -1.9608599
v -0 1 0
v 6.96 1 0
v 0.28192902 1 1.9608586
v 1.1048756 1 3.7628598
v 2.4021692 1 5.260017
v 4.0687113 1 6.3310385
v 5.9694886 1 6.8891573
v 7.9505115 1 6.8891573
v 9.851288 1 6.331039
v 11.51783 1 5.2600174
v 12.8151245 1 3.762861
v 13.638071 1 1.9608591
v 13.92 1 1.0509308E-06
v 13.638071 1 -1.9608586
v 12.8151245 1 -3.7628593
v 11.517832 1 -5.2600164
v 9.851289 1 -6.3310385
v 7.9505124 1 -6.8891573
v 5.9694905 1 -6.889158
v 4.068714 1 -6.33104
v 2.4021692 1 -5.260017
v 1.104876 1 -3.7628605
v 0.2819295 1 -1.9608599
vt 0 0
vt 0 0.5
vt 1.9810226 0
vt 1.9810226 0.5
vt 1.9007772 0
vt 1.9007772 0.5
vt 3.8817995 0
vt 3.8817995 0.5
vt 3.5673196 0
vt 3.5673196 0.5
vt 5.548342 0
vt 5.548342 0.5
vt 4.864613 0
vt 4.864613 0.5
vt 6.8456354 0
vt 6.8456354 0.5
vt 5.6875606 0
vt 5.6875606 0.5
vt 7.6685834 0
vt 7.6685834 0.5
vt 5.9694886 0
vt 5.9694886 0.5
vt 7.9505115 0
vt 7.9505115 0.5
vt 5.6875596 0
vt 5.6875596 0.5
vt 7.6685815 0
vt 7.6685815 0.5
vt 4.8646126 0
vt 4.8646126 0.5
vt 6.845635 0
vt 6.845635 0.5
vt 3.5673244 0
vt 3.5673244 0.5
vt 5.548347 0
vt 5.548347 0.5
vt 1.9007756 0
vt 1.9007756 0.5
vt 3.8817985 0
vt 1.9007756 0.5
vt 3.8817985 0.5
vt 3.8817985 0
vt 9.4710236E-07 0
vt 9.4710236E-07 0.5
vt 1.981023 0
vt 1.981023 0.5
vt -1.9810233 0
vt -1.9810233 0.5
vt 2.0669876E-07 0
vt 2.0669876E-07 0.5
vt -3.881802 0
vt -3.881802 0.5
vt -1.9007802 0
vt -1.9007802 0.5
vt -5.548337 0
vt -5.548337 0.5
vt -3.5673149 0
vt -3.5673149 0.5
vt -6.845638 0
vt -6.845638 0.5
vt -4.8646145 0
vt -4.8646145 0.5
vt -7.6685805 0
vt -7.6685805 0.5
vt -5.6875587 0
vt -5.6875587 0.5
vt -7.950511 0
vt -7.950511 0.5
vt -5.969489 0
vt -5.969489 0.5
vt -7.6685834 0
vt -7.6685834 0.5
vt -5.6875615 0
vt -5.6875615 0.5
vt -6.8456383 0
vt -6.8456383 0.5
vt -4.864613 0
vt -4.864613 0.5
vt -5.548342 0
vt -5.548342 0.5
vt -3.5673203 0
vt -3.5673203 0.5
vt -3.8818004 0
vt -3.8818004 0.5
vt -1.9007785 0
vt -1.9007785 0.5
vt -1.9810239 0
vt -1.9810239 0.5
vt 0 0
vt 0 0.5
vt 0 1
vt 1.9810226 1
vt 1.9007772 1
vt 3.8817995 1
vt 3.5673196 1
vt 5.548342 1
vt 4.864613 1
vt 6.8456354 1
vt 5.6875606 1
vt 7.6685834 1
vt 5.9694886 1
vt 5.9694886 1
vt 7.9505115 1
vt 7.9505115 0.5
vt 5.6875596 1
vt 7.6685815 1
vt 4.8646126 1
vt 6.845635 1
vt 3.5673244 0.5
vt 3.5673244 1
vt 5.548347 0.5
vt 5.548347 1
vt 1.9007756 1
vt 3.8817985 1
vt 9.4710236E-07 1
vt 1.981023 1
vt -1.9810233 1
vt 2.0669876E-07 1
vt -3.881802 1
vt -1.9007802 1
vt -5.548337 1
vt -5.548337 1
vt -3.5673149 1
vt -3.5673149 0.5
vt -6.845638 1
vt -4.8646145 1
vt -7.6685805 1
vt -5.6875587 1
vt -7.950511 1
vt -5.969489 1
vt -7.6685834 0.5
vt -7.6685834 1
vt -5.6875615 0.5
vt -5.6875615 1
vt -6.8456383 1
vt -4.864613 1
vt -5.548342 1
vt -3.5673203 1
vt -3.8818004 1
vt -1.9007785 1
vt -1.9810239 0.5
vt -1.9810239 1
vt 0 0.5
vt 0 1
vt 0.28192902 1.9608586
vt 6.96 0
vt 0 0
vt 1.1048756 3.7628598
vt 2.4021692 5.260017
vt 4.0687113 6.3310385
vt 5.9694886 6.8891573
vt 7.9505115 6.8891573
vt 9.851288 6.331039
vt 11.51783 5.2600174
vt 12.8151245 3.762861
vt 13.638071 1.9608591
vt 13.92 1.0509308E-06
vt 13.638071 -1.9608586
vt 12.8151245 -3.7628593
vt 11.517832 -5.2600164
vt 9.851289 -6.3310385
vt 7.9505124 -6.8891573
vt 5.9694905 -6.889158
vt 4.068714 -6.33104
vt 2.4021692 -5.260017
vt 1.104876 -3.7628605
vt 0.2819295 -1.9608599
vt 0 0
vt -6.96 0
vt -0.28192902 1.9608586
vt -1.1048756 3.7628598
vt -2.4021692 5.260017
vt -4.0687113 6.3310385
vt -5.9694886 6.8891573
vt -7.9505115 6.8891573
vt -9.851288 6.331039
vt -11.51783 5.2600174
vt -12.8151245 3.762861
vt -13.638071 1.9608591
vt -13.92 1.0509308E-06
vt -13.638071 -1.9608586
vt -12.8151245 -3.7628593
vt -11.517832 -5.2600164
vt -9.851289 -6.3310385
vt -7.9505124 -6.8891573
vt -5.9694905 -6.889158
vt -4.068714 -6.33104
vt -2.4021692 -5.260017
vt -1.104876 -3.7628605
vt -0.2819295 -1.9608599
vn -0.98982143 0 0.1423149
vn -0.98982143 0 0.1423149
vn -0.98982143 0 0.1423149
vn -0.98982143 0 0.1423149
vn -0.90963197 0 0.41541508
vn -0.90963197 0 0.41541508
vn -0.90963197 0 0.41541508
vn -0.90963197 0 0.41541508
vn -0.7557497 0 0.6548607
vn -0.7557497 0 0.6548607
vn -0.7557497 0 0.6548607
vn -0.7557497 0 0.6548607
vn -0.54064083 0 0.8412535
vn -0.54064083 0 0.8412535
vn -0.54064083 0 0.8412535
vn -0.54064083 0 0.8412535
vn -0.28173268 0 0.959493
vn -0.28173268 0 0.959493
vn -0.28173268 0 0.959493
vn -0.28173268 0 0.959493
vn -0 0 1
vn -0 0 1
vn -0 0 1
vn -0 0 1
vn 0.2817326 0 0.959493
vn 0.2817326 0 0.959493
vn 0.2817326 0 0.959493
vn 0.2817326 0 0.959493
vn 0.54064083 0 0.8412535
vn 0.54064083 0 0.8412535
vn 0.54064083 0 0.8412535
vn 0.54064083 0 0.8412535
vn 0.7557493 0 0.6548611
vn 0.7557493 0 0.6548611
vn 0.7557493 0 0.6548611
vn 0.7557493 0 0.6548611
vn 0.909632 0 0.41541496
vn 0.909632 0 0.41541496
vn 0.909632 0 0.41541496
vn 0.909632 0 0.41541496
vn 0.909632 0 0.41541496
vn 0.909632 0 0.41541496
vn 0.98982143 0 0.14231494
vn 0.98982143 0 0.14231494
vn 0.98982143 0 0.14231494
vn 0.98982143 0 0.14231494
vn 0.98982143 0 -0.14231482
vn 0.98982143 0 -0.14231482
vn 0.98982143 0 -0.14231482
vn 0.98982143 0 -0.14231482
vn 0.9096319 0 -0.41541517
vn 0.9096319 0 -0.41541517
vn 0.9096319 0 -0.41541517
vn 0.9096319 0 -0.41541517
vn 0.7557499 0 -0.6548604
vn 0.7557499 0 -0.6548604
vn 0.7557499 0 -0.6548604
vn 0.7557499 0 -0.6548604
vn 0.5406408 0 -0.8412536
vn 0.5406408 0 -0.8412536
vn 0.5406408 0 -0.8412536
vn 0.5406408 0 -0.8412536
vn 0.28173283 0 -0.9594929
vn 0.28173283 0 -0.9594929
vn 0.28173283 0 -0.9594929
vn 0.28173283 0 -0.9594929
vn 2.4070263E-07 0 -1
vn 2.4070263E-07 0 -1
vn 2.4070263E-07 0 -1
vn 2.4070263E-07 0 -1
vn -0.28173235 0 -0.95949304
vn -0.28173235 0 -0.95949304
vn -0.28173235 0 -0.95949304
vn -0.28173235 0 -0.95949304
vn -0.5406407 0 -0.84125364
vn -0.5406407 0 -0.84125364
vn -0.5406407 0 -0.84125364
vn -0.5406407 0 -0.84125364
vn -0.75574964 0 -0.6548607
vn -0.75574964 0 -0.6548607
vn -0.75574964 0 -0.6548607
vn -0.75574964 0 -0.6548607
vn -0.9096319 0 -0.4154152
vn -0.9096319 0 -0.4154152
vn -0.9096319 0 -0.4154152
vn -0.9096319 0 -0.4154152
vn -0.98982143 0 -0.14231504
vn -0.98982143 0 -0.14231504
vn -0.98982143 0 -0.14231504
vn -0.98982143 0 -0.14231504
vn -0.98982143 0 0.1423149
vn -0.98982143 0 0.1423149
vn -0.90963197 0 0.41541508
vn -0.90963197 0 0.41541508
vn -0.7557497 0 0.6548607
vn -0.7557497 0 0.6548607
vn -0.54064083 0 0.8412535
vn -0.54064083 0 0.8412535
vn -0.28173268 0 0.959493
vn -0.28173268 0 0.959493
vn -0 0 1
vn -0 0 1
vn -0 0 1
vn -0 0 1
vn 0.2817326 0 0.959493
vn 0.2817326 0 0.959493
vn 0.54064083 0 0.8412535
vn 0.54064083 0 0.8412535
vn 0.7557493 0 0.6548611
vn 0.7557493 0 0.6548611
vn 0.7557493 0 0.6548611
vn 0.7557493 0 0.6548611
vn 0.909632 0 0.41541496
vn 0.909632 0 0.41541496
vn 0.98982143 0 0.14231494
vn 0.98982143 0 0.14231494
vn 0.98982143 0 -0.14231482
vn 0.98982143 0 -0.14231482
vn 0.9096319 0 -0.41541517
vn 0.9096319 0 -0.41541517
vn 0.7557499 0 -0.6548604
vn 0.7557499 0 -0.6548604
vn 0.7557499 0 -0.6548604
vn 0.7557499 0 -0.6548604
vn 0.5406408 0 -0.8412536
vn 0.5406408 0 -0.8412536
vn 0.28173283 0 -0.9594929
vn 0.28173283 0 -0.9594929
vn 2.4070263E-07 0 -1
vn 2.4070263E-07 0 -1
vn -0.28173235 0 -0.95949304
vn -0.28173235 0 -0.95949304
vn -0.28173235 0 -0.95949304
vn -0.28173235 0 -0.95949304
vn -0.5406407 0 -0.84125364
vn -0.5406407 0 -0.84125364
vn -0.75574964 0 -0.6548607
vn -0.75574964 0 -0.6548607
vn -0.9096319 0 -0.4154152
vn -0.9096319 0 -0.4154152
vn -0.98982143 0 -0.14231504
vn -0.98982143 0 -0.14231504
vn -0.98982143 0 -0.14231504
vn -0.98982143 0 -0.14231504
vn -0 -1 0
vn -0 -1 0
vn -0 -1 0
vn -0 -1 0
vn -0 -1 0
vn -0 -1 0
vn -0 -1 0
vn -0 -1 0
vn -0 -1 0
vn -0 -1 0
vn -0 -1 0
vn -0 -1 0
vn -0 -1 0
vn -0 -1 0
vn -0 -1 0
vn -0 -1 0
vn -0 -1 0
vn -0 -1 0
vn -0 -1 0
vn -0 -1 0
vn -0 -1 0
vn -0 -1 0
vn -0 -1 0
vn -0 1 0
vn -0 1 0
vn -0 1 0
vn -0 1 0
vn -0 1 0
vn -0 1 0
vn -0 1 0
vn -0 1 0
vn -0 1 0
vn -0 1 0
vn -0 1 0
vn -0 1 0
vn -0 1 0
vn -0 1 0
vn -0 1 0
vn -0 1 0
vn -0 1 0
vn -0 1 0
vn -0 1 0
vn -0 1 0
vn -0 1 0
vn -0 1 0
vn -0 1 0
g pb_Mesh-6000874_0
f 3/3/3 2/2/2 1/1/1
f 3/3/3 4/4/4 2/2/2
f 7/7/7 6/6/6 5/5/5
f 7/7/7 8/8/8 6/6/6
f 11/11/11 10/10/10 9/9/9
f 11/11/11 12/12/12 10/10/10
f 15/15/15 14/14/14 13/13/13
f 15/15/15 16/16/16 14/14/14
f 19/19/19 18/18/18 17/17/17
f 19/19/19 20/20/20 18/18/18
f 23/23/23 22/22/22 21/21/21
f 23/23/23 24/24/24 22/22/22
f 27/27/27 26/26/26 25/25/25
f 27/27/27 28/28/28 26/26/26
f 31/31/31 30/30/30 29/29/29
f 31/31/31 32/32/32 30/30/30
f 35/35/35 34/34/34 33/33/33
f 35/35/35 36/36/36 34/34/34
f 39/39/39 38/38/38 37/37/37
f 42/42/42 41/41/41 40/40/40
f 45/45/45 44/44/44 43/43/43
f 45/45/45 46/46/46 44/44/44
f 49/49/49 48/48/48 47/47/47
f 49/49/49 50/50/50 48/48/48
f 53/53/53 52/52/52 51/51/51
f 53/53/53 54/54/54 52/52/52
f 57/57/57 56/56/56 55/55/55
f 57/57/57 58/58/58 56/56/56
f 61/61/61 60/60/60 59/59/59
f 61/61/61 62/62/62 60/60/60
f 65/65/65 64/64/64 63/63/63
f 65/65/65 66/66/66 64/64/64
f 69/69/69 68/68/68 67/67/67
f 69/69/69 70/70/70 68/68/68
f 73/73/73 72/72/72 71/71/71
f 73/73/73 74/74/74 72/72/72
f 77/77/77 76/76/76 75/75/75
f 77/77/77 78/78/78 76/76/76
f 81/81/81 80/80/80 79/79/79
f 81/81/81 82/82/82 80/80/80
f 85/85/85 84/84/84 83/83/83
f 85/85/85 86/86/86 84/84/84
f 89/89/89 88/88/88 87/87/87
f 89/89/89 90/90/90 88/88/88
f 4/4/4 91/91/91 2/2/2
f 4/4/4 92/92/92 91/91/91
f 8/8/8 93/93/93 6/6/6
f 8/8/8 94/94/94 93/93/93
f 12/12/12 95/95/95 10/10/10
f 12/12/12 96/96/96 95/95/95
f 16/16/16 97/97/97 14/14/14
f 16/16/16 98/98/98 97/97/97
f 20/20/20 99/99/99 18/18/18
f 20/20/20 100/100/100 99/99/99
f 24/24/24 101/101/101 22/22/22
f 104/104/104 103/103/103 102/102/102
f 28/28/28 105/105/105 26/26/26
f 28/28/28 106/106/106 105/105/105
f 32/32/32 107/107/107 30/30/30
f 32/32/32 108/108/108 107/107/107
f 111/111/111 110/110/110 109/109/109
f 111/111/111 112/112/112 110/110/110
f 41/41/41 113/113/113 40/40/40
f 41/41/41 114/114/114 113/113/113
f 46/46/46 115/115/115 44/44/44
f 46/46/46 116/116/116 115/115/115
f 50/50/50 117/117/117 48/48/48
f 50/50/50 118/118/118 117/117/117
f 54/54/54 119/119/119 52/52/52
f 54/54/54 120/120/120 119/119/119
f 58/58/58 121/121/121 56/56/56
f 124/124/124 123/123/123 122/122/122
f 62/62/62 125/125/125 60/60/60
f 62/62/62 126/126/126 125/125/125
f 66/66/66 127/127/127 64/64/64
f 66/66/66 128/128/128 127/127/127
f 70/70/70 129/129/129 68/68/68
f 70/70/70 130/130/130 129/129/129
f 133/133/133 132/132/132 131/131/131
f 133/133/133 134/134/134 132/132/132
f 78/78/78 135/135/135 76/76/76
f 78/78/78 136/136/136 135/135/135
f 82/82/82 137/137/137 80/80/80
f 82/82/82 138/138/138 137/137/137
f 86/86/86 139/139/139 84/84/84
f 86/86/86 140/140/140 139/139/139
f 143/143/143 142/142/142 141/141/141
f 143/143/143 144/144/144 142/142/142
f 147/147/147 146/146/146 145/145/145
f 145/145/145 146/146/146 148/148/148
f 148/148/148 146/146/146 149/149/149
f 149/149/149 146/146/146 150/150/150
f 150/150/150 146/146/146 151/151/151
f 151/151/151 146/146/146 152/152/152
f 152/152/152 146/146/146 153/153/153
f 153/153/153 146/146/146 154/154/154
f 154/154/154 146/146/146 155/155/155
f 155/155/155 146/146/146 156/156/156
f 156/156/156 146/146/146 157/157/157
f 157/157/157 146/146/146 158/158/158
f 158/158/158 146/146/146 159/159/159
f 159/159/159 146/146/146 160/160/160
f 160/160/160 146/146/146 161/161/161
f 161/161/161 146/146/146 162/162/162
f 162/162/162 146/146/146 163/163/163
f 163/163/163 146/146/146 164/164/164
f 164/164/164 146/146/146 165/165/165
f 165/165/165 146/146/146 166/166/166
f 166/166/166 146/146/146 167/167/167
f 167/167/167 146/146/146 147/147/147
f 170/170/170 169/169/169 168/168/168
f 171/171/171 169/169/169 170/170/170
f 172/172/172 169/169/169 171/171/171
f 173/173/173 169/169/169 172/172/172
f 174/174/174 169/169/169 173/173/173
f 175/175/175 169/169/169 174/174/174
f 176/176/176 169/169/169 175/175/175
f 177/177/177 169/169/169 176/176/176
f 178/178/178 169/169/169 177/177/177
f 179/179/179 169/169/169 178/178/178
f 180/180/180 169/169/169 179/179/179
f 181/181/181 169/169/169 180/180/180
f 182/182/182 169/169/169 181/181/181
f 183/183/183 169/169/169 182/182/182
f 184/184/184 169/169/169 183/183/183
f 185/185/185 169/169/169 184/184/184
f 186/186/186 169/169/169 185/185/185
f 187/187/187 169/169/169 186/186/186
f 188/188/188 169/169/169 187/187/187
f 189/189/189 169/169/169 188/188/188
f 190/190/190 169/169/169 189/189/189
f 168/168/168 169/169/169 190/190/190
