g pb_Mesh-6082316
v 1.5 5 0
v -11.5 5 0
v -2 12 0
v -8 12 0
v -11.5 5 0
v -11.5 5 -6
v -8 12 0
v -8 12 -6
v -11.5 5 -6
v 1.5 5 -6
v -8 12 -6
v -2 12 -6
v 1.5 5 -6
v 1.5 5 0
v -2 12 -6
v -2 12 0
v -2 12 0
v -8 12 0
v -2 12 -6
v -8 12 -6
v 1.5 2 -6
v -11.5 2 -6
v 1.5 2 0
v -11.5 2 0
v 1.5 2 -6
v -11.5 2 -6
v 1.5 5 0
v 1.5 5 -6
v 1.5 2 0
v 1.5 2 -6
v -11.5 5 -6
v -11.5 5 0
v -11.5 2 -6
v -11.5 2 0
v -11.5 2 0
v 1.5 2 0
vt 1.5 5
vt -11.5 5
vt -2 12
vt -8 12
vt 0 -0.67082036
vt -6 -0.67082036
vt 0 7.1554174
vt -6 7.1554174
vt 11.5 5
vt -1.5 5
vt 8 12
vt 2 12
vt 6 3.8013155
vt 0 3.8013155
vt 6 11.627553
vt 0 11.627553
vt 2 0
vt 8 0
vt 2 -6
vt 8 -6
vt 1.5 -6
vt -11.5 -6
vt 1.5 0
vt -11.5 0
vt -1.5 2
vt 11.5 2
vt 0 5
vt 6 5
vt 0 2
vt 6 2
vt -6 5
vt 0 5
vt -6 2
vt 0 2
vt -11.5 2
vt 1.5 2
vn -0 0 1
vn -0 0 1
vn -0 0 1
vn -0 0 1
vn -0.8944272 0.4472136 0
vn -0.8944272 0.4472136 0
vn -0.8944272 0.4472136 0
vn -0.8944272 0.4472136 0
vn -0 0 -1
vn -0 0 -1
vn -0 0 -1
vn -0 0 -1
vn 0.8944272 0.4472136 0
vn 0.8944272 0.4472136 0
vn 0.8944272 0.4472136 0
vn 0.8944272 0.4472136 0
vn -0 1 0
vn -0 1 0
vn -0 1 0
vn -0 1 0
vn -0 -1 0
vn -0 -1 0
vn -0 -1 0
vn -0 -1 0
vn -0 0 -1
vn -0 0 -1
vn 1 0 0
vn 1 0 0
vn 1 0 0
vn 1 0 0
vn -1 0 0
vn -1 0 0
vn -1 0 0
vn -1 0 0
vn -0 0 1
vn -0 0 1
g pb_Mesh-6082316_0
f 3/3/3 2/2/2 1/1/1
f 3/3/3 4/4/4 2/2/2
f 7/7/7 6/6/6 5/5/5
f 7/7/7 8/8/8 6/6/6
f 11/11/11 10/10/10 9/9/9
f 11/11/11 12/12/12 10/10/10
f 15/15/15 14/14/14 13/13/13
f 15/15/15 16/16/16 14/14/14
f 19/19/19 18/18/18 17/17/17
f 19/19/19 20/20/20 18/18/18
f 23/23/23 22/22/22 21/21/21
f 23/23/23 24/24/24 22/22/22
f 25/25/25 9/9/9 10/10/10
f 25/25/25 26/26/26 9/9/9
f 29/29/29 28/28/28 27/27/27
f 29/29/29 30/30/30 28/28/28
f 33/33/33 32/32/32 31/31/31
f 33/33/33 34/34/34 32/32/32
f 35/35/35 1/1/1 2/2/2
f 35/35/35 36/36/36 1/1/1
