g pb_Mesh-1114964
v 5.6 -0.29999903 -1.6927722E-06
v -9.600013 -0.29999903 -1.6927722E-06
v 5.6 1.2999994 -1.6927722E-06
v -9.600013 1.2999994 -1.6927722E-06
v -9.600013 -0.29999903 -1.6927722E-06
v -9.600027 -0.3000327 -7.7000203
v -9.600013 1.2999994 -1.6927722E-06
v -9.60002 1.2999994 -4.8000045
v -9.600027 -0.3000327 -7.7000203
v 5.5999846 -0.3000327 -7.7000203
v -9.60002 1.2999994 -4.8000045
v 5.5999923 1.2999994 -4.8000045
v 5.5999846 -0.3000327 -7.7000203
v 5.6 -0.29999903 -1.6927722E-06
v 5.5999923 1.2999994 -4.8000045
v 5.6 1.2999994 -1.6927722E-06
v 5.6 1.2999994 -1.6927722E-06
v -9.600013 1.2999994 -1.6927722E-06
v 5.5999923 1.2999994 -4.8000045
v -9.60002 1.2999994 -4.8000045
v 5.5999846 -0.3000327 -7.7000203
v -9.600027 -0.3000327 -7.7000203
v 5.6 -0.29999903 -1.6927722E-06
v -9.600013 -0.29999903 -1.6927722E-06
vt 5.6 -0.29999903
vt -9.600013 -0.29999903
vt 5.6 1.2999994
vt -9.600013 1.2999994
vt -1.95277E-05 -0.29999903
vt -7.700038 -0.3000327
vt -1.95277E-05 1.2999994
vt -4.800022 1.2999994
vt 9.600027 -6.8868837
vt -5.5999846 -6.8868837
vt 9.60002 -3.5747552
vt -5.5999923 -3.5747552
vt 7.7000093 -0.30002612
vt -9.404474E-06 -0.29999244
vt 4.7999935 1.3000059
vt -9.404474E-06 1.3000059
vt -5.6 -1.6927722E-06
vt 9.600013 -1.6927722E-06
vt -5.5999923 -4.8000045
vt 9.60002 -4.8000045
vt 5.5999846 -7.7000217
vt -9.600027 -7.7000217
vt 5.6 -3.0048411E-06
vt -9.600013 -3.0048411E-06
vn -0 0 1
vn -0 0 1
vn -0 0 1
vn -0 0 1
vn -1 0 1.8578027E-06
vn -1 6.456969E-07 1.7236296E-06
vn -1 6.456969E-07 1.7236296E-06
vn -1 1.2913938E-06 1.5894564E-06
vn -0 0.8755747 -0.48308274
vn -0 0.8755747 -0.48308274
vn -0 0.8755747 -0.48308274
vn -0 0.8755747 -0.48308274
vn 1 -1.1765859E-06 -1.9816512E-06
vn 1 -5.8829295E-07 -1.7855538E-06
vn 1 -5.8829295E-07 -1.7855538E-06
vn 1 0 -1.5894564E-06
vn -0 1 0
vn -0 1 0
vn -0 1 0
vn -0 1 0
vn -0 -1 4.373577E-06
vn -0 -1 4.373577E-06
vn -0 -1 4.373577E-06
vn -0 -1 4.373577E-06
g pb_Mesh-1114964_0
f 3/3/3 2/2/2 1/1/1
f 3/3/3 4/4/4 2/2/2
f 7/7/7 6/6/6 5/5/5
f 7/7/7 8/8/8 6/6/6
f 11/11/11 10/10/10 9/9/9
f 11/11/11 12/12/12 10/10/10
f 15/15/15 14/14/14 13/13/13
f 15/15/15 16/16/16 14/14/14
f 19/19/19 18/18/18 17/17/17
f 19/19/19 20/20/20 18/18/18
f 23/23/23 22/22/22 21/21/21
f 23/23/23 24/24/24 22/22/22
