g pb_Mesh-5304530
v 1.75 0 2
v -5 0 4
v 1.75 1 2
v -5 1 4
v -5 0 4
v -5 0 -9
v -5 1 4
v -5 1 -9
v -5 0 -9
v 1.75 0 -7
v -5 1 -9
v 1.75 1 -7
v 1.75 0 -7
v 1.75 0 2
v 1.75 1 -7
v 1.75 1 2
v 1.75 1 2
v -5 1 4
v 1.75 1 -7
v -5 1 -9
v 1.75 0 -7
v -5 0 -9
v 1.75 0 2
v -5 0 4
vt 1.10972 0
vt -5.930344 0
vt 1.10972 1
vt -5.930344 1
vt 4 0
vt -9 0
vt 4 1
vt -9 1
vt 7.3507857 0
vt 0.3107217 0
vt 7.3507857 1
vt 0.3107217 1
vt 7 0
vt -2 0
vt 7 1
vt -2 1
vt -1.75 2
vt 5 4
vt -1.75 -7
vt 5 -9
vt 1.75 -7
vt -5 -9
vt 1.75 2
vt -5 4
vn 0.28408834 0 0.9587981
vn 0.28408834 0 0.9587981
vn 0.28408834 0 0.9587981
vn 0.28408834 0 0.9587981
vn -1 0 0
vn -1 0 0
vn -1 0 0
vn -1 0 0
vn 0.28408834 0 -0.9587981
vn 0.28408834 0 -0.9587981
vn 0.28408834 0 -0.9587981
vn 0.28408834 0 -0.9587981
vn 1 0 0
vn 1 0 0
vn 1 0 0
vn 1 0 0
vn -0 1 0
vn -0 1 0
vn -0 1 0
vn -0 1 0
vn -0 -1 0
vn -0 -1 0
vn -0 -1 0
vn -0 -1 0
g pb_Mesh-5304530_0
f 3/3/3 2/2/2 1/1/1
f 3/3/3 4/4/4 2/2/2
f 7/7/7 6/6/6 5/5/5
f 7/7/7 8/8/8 6/6/6
f 11/11/11 10/10/10 9/9/9
f 11/11/11 12/12/12 10/10/10
f 15/15/15 14/14/14 13/13/13
f 15/15/15 16/16/16 14/14/14
f 19/19/19 18/18/18 17/17/17
f 19/19/19 20/20/20 18/18/18
f 23/23/23 22/22/22 21/21/21
f 23/23/23 24/24/24 22/22/22
