g pb_Mesh7069478
v 5.504551 -4 6.9024897
v 5.5045514 0.165 6.9024897
v 8.655447 -4 6.9024897
v 8.655447 0.165 6.9024897
v 8.655447 -4 6.9024897
v 8.655447 0.165 6.9024897
v 11.494308 -4 5.535367
v 11.4943075 0.165 5.535367
v 11.494308 -4 5.535367
v 11.4943075 0.165 5.535367
v 13.4588585 -4 3.0718973
v 13.458859 0.165 3.0718973
v 13.4588585 -4 3.0718973
v 13.458859 0.165 3.0718973
v 14.16 -4 1.065433E-06
v 14.16 0.165 1.0690503E-06
v 14.16 -4 1.065433E-06
v 14.16 0.165 1.0690503E-06
v 13.45886 -4 -3.0718956
v 13.45886 0.165 -3.0718956
v 13.45886 -4 -3.0718956
v 13.45886 0.165 -3.0718956
v 11.494308 -4 -5.5353656
v 11.494309 0.165 -5.5353656
v 11.494308 -4 -5.5353656
v 11.494309 0.165 -5.5353656
v 8.655449 -4 -6.9024897
v 8.655449 0.165 -6.9024897
v 5.5045514 0.165 6.9024897
v 5.5045514 0.33 6.9024897
v 8.655447 0.165 6.9024897
v 8.655447 0.33 6.9024897
v 8.655447 0.165 6.9024897
v 8.655447 0.33 6.9024897
v 11.4943075 0.165 5.535367
v 11.4943075 0.33 5.535367
v 11.4943075 0.165 5.535367
v 11.4943075 0.33 5.535367
v 13.458859 0.165 3.0718973
v 13.458859 0.33 3.0718973
v 13.458859 0.165 3.0718973
v 13.458859 0.33 3.0718973
v 14.16 0.165 1.0690503E-06
v 14.16 0.33 1.0690503E-06
v 14.16 0.165 1.0690503E-06
v 14.16 0.33 1.0690503E-06
v 13.45886 0.165 -3.0718956
v 13.45886 0.33 -3.0718956
v 13.45886 0.165 -3.0718956
v 13.45886 0.33 -3.0718956
v 11.494309 0.165 -5.5353656
v 11.494309 0.33 -5.5353656
v 11.494309 0.165 -5.5353656
v 11.494309 0.33 -5.5353656
v 8.655449 0.165 -6.9024897
v 8.655449 0.33 -6.9024897
v 5.504551 -4 6.9024897
v 7.08 -4 0
v 8.655447 -4 6.9024897
v 5.5045514 0.33 6.9024897
v 7.08 0.33 0
v 8.655447 0.33 6.9024897
v 8.655447 -4 6.9024897
v 7.08 -4 0
v 11.494308 -4 5.535367
v 8.655447 0.33 6.9024897
v 7.08 0.33 0
v 11.4943075 0.33 5.535367
v 11.494308 -4 5.535367
v 7.08 -4 0
v 13.4588585 -4 3.0718973
v 11.4943075 0.33 5.535367
v 7.08 0.33 0
v 13.458859 0.33 3.0718973
v 13.4588585 -4 3.0718973
v 7.08 -4 0
v 14.16 -4 1.065433E-06
v 13.458859 0.33 3.0718973
v 7.08 0.33 0
v 14.16 0.33 1.0690503E-06
v 14.16 -4 1.065433E-06
v 7.08 -4 0
v 13.45886 -4 -3.0718956
v 14.16 0.33 1.0690503E-06
v 7.08 0.33 0
v 13.45886 0.33 -3.0718956
v 13.45886 -4 -3.0718956
v 7.08 -4 0
v 11.494308 -4 -5.5353656
v 13.45886 0.33 -3.0718956
v 7.08 0.33 0
v 11.494309 0.33 -5.5353656
v 11.494308 -4 -5.5353656
v 7.08 -4 0
v 8.655449 -4 -6.9024897
v 11.494309 0.33 -5.5353656
v 7.08 0.33 0
v 8.655449 0.33 -6.9024897
v 5.504551 -4 6.9024897
v 5.5045514 0.165 6.9024897
v 5.5045514 0.33 6.9024897
v 7.08 0.33 0
v 8.655449 0.33 -6.9024897
v 8.655449 0.165 -6.9024897
v 8.655449 -4 -6.9024897
v 7.08 -4 0
vt 5.504551 -4
vt 5.5045514 0.165
vt 8.655447 -4
vt 8.655447 0.165
vt 4.8034134 -4
vt 4.8034134 0.165
vt 7.9543114 -4
vt 7.954311 0.165
vt 2.838856 -4.0000024
vt 2.8388555 0.16499779
vt 5.9897513 -4.0000024
vt 5.989752 0.16499779
vt 4.216377E-06 -3.999997
vt 4.42859E-06 0.16500309
vt 3.1509001 -3.999997
vt 3.1509001 0.16500309
vt -3.150894 -4
vt -3.150894 0.165
vt 2.3413807E-06 -4
vt 2.3413807E-06 0.165
vt -5.9897585 -4
vt -5.9897585 0.165
vt -2.838862 -4
vt -2.8388624 0.165
vt -7.9543047 -3.999999
vt -7.9543056 0.165001
vt -4.8034077 -3.999999
vt -4.8034077 0.165001
vt 5.5045514 0.165
vt 5.5045514 0.33
vt 8.655447 0.165
vt 8.655447 0.33
vt 4.803412 0.165
vt 4.803412 0.33
vt 7.954309 0.165
vt 7.954309 0.33
vt 2.8388603 0.165
vt 2.8388603 0.33
vt 5.9897566 0.165
vt 5.9897566 0.33
vt -2.0453342E-07 0.165
vt -2.0453342E-07 0.33
vt 3.1508956 0.165
vt 3.1508956 0.33
vt -3.1508937 0.165
vt -3.1508937 0.33
vt 2.6611426E-06 0.165
vt 2.6611426E-06 0.33
vt -5.9897556 0.165
vt -5.9897556 0.33
vt -2.8388593 0.165
vt -2.8388593 0.33
vt -7.954307 0.165
vt -7.954307 0.33
vt -4.803409 0.165
vt -4.803409 0.33
vt 5.504551 6.9024897
vt 7.08 0
vt 8.655447 6.9024897
vt -5.5045514 6.9024897
vt -7.08 0
vt -8.655447 6.9024897
vt 8.655447 6.9024897
vt 7.08 0
vt 11.494308 5.535367
vt -8.655447 6.9024897
vt -7.08 0
vt -11.4943075 5.535367
vt 11.494308 5.535367
vt 7.08 0
vt 13.4588585 3.0718973
vt -11.4943075 5.535367
vt -7.08 0
vt -13.458859 3.0718973
vt 13.4588585 3.0718973
vt 7.08 0
vt 14.16 1.065433E-06
vt -13.458859 3.0718973
vt -7.08 0
vt -14.16 1.0690503E-06
vt 14.16 1.065433E-06
vt 7.08 0
vt 13.45886 -3.0718956
vt -14.16 1.0690503E-06
vt -7.08 0
vt -13.45886 -3.0718956
vt 13.45886 -3.0718956
vt 7.08 0
vt 11.494308 -5.5353656
vt -13.45886 -3.0718956
vt -7.08 0
vt -11.494309 -5.5353656
vt 11.494308 -5.5353656
vt 7.08 0
vt 8.655449 -6.9024897
vt -11.494309 -5.5353656
vt -7.08 0
vt -8.655449 -6.9024897
vt 5.5045514 -3.9999998
vt 5.5045514 0.16500026
vt 5.5045514 0.33000028
vt -1.5754489 0.33000028
vt -8.655449 0.33000028
vt -8.655449 0.16500026
vt -8.655449 -3.9999998
vt -1.5754489 -3.9999998
vn -0 0 1
vn -0 0 1
vn -0 0 1
vn -0 0 1
vn 0.4338835 0 0.900969
vn 0.43388355 4.9673908E-08 0.90096897
vn 0.43388355 4.9673908E-08 0.90096897
vn 0.4338836 9.9347815E-08 0.9009689
vn 0.7818317 1.7901868E-07 0.62348956
vn 0.78183156 2.842171E-14 0.62348974
vn 0.78183156 2.842171E-14 0.62348974
vn 0.78183144 -1.7901863E-07 0.62348986
vn 0.97492784 -2.2323258E-07 0.22252126
vn 0.9749279 -1.1161629E-07 0.22252113
vn 0.9749279 -1.1161629E-07 0.22252113
vn 0.9749279 0 0.22252098
vn 0.974928 1.9325842E-10 -0.22252068
vn 0.974928 9.662921E-11 -0.22252068
vn 0.974928 9.662921E-11 -0.22252068
vn 0.974928 0 -0.22252068
vn 0.78183144 0 -0.62348986
vn 0.7818315 -8.9509335E-08 -0.62348974
vn 0.7818315 -8.9509335E-08 -0.62348974
vn 0.7818316 -1.7901867E-07 -0.6234897
vn 0.4338841 -9.934793E-08 -0.9009687
vn 0.43388402 -4.9673964E-08 -0.9009687
vn 0.43388402 -4.9673964E-08 -0.9009687
vn 0.43388397 0 -0.90096873
vn -0 0 1
vn -0 0 1
vn -0 0 1
vn -0 0 1
vn 0.43388364 0 0.90096897
vn 0.43388364 0 0.90096897
vn 0.43388364 0 0.90096897
vn 0.43388364 0 0.90096897
vn 0.78183144 0 0.62348986
vn 0.78183144 0 0.62348986
vn 0.78183144 0 0.62348986
vn 0.78183144 0 0.62348986
vn 0.9749279 0 0.22252095
vn 0.9749279 0 0.22252095
vn 0.9749279 0 0.22252095
vn 0.9749279 0 0.22252095
vn 0.974928 0 -0.22252066
vn 0.974928 0 -0.22252066
vn 0.974928 0 -0.22252066
vn 0.974928 0 -0.22252066
vn 0.7818316 0 -0.6234897
vn 0.7818316 0 -0.6234897
vn 0.7818316 0 -0.6234897
vn 0.7818316 0 -0.6234897
vn 0.43388397 0 -0.90096873
vn 0.43388397 0 -0.90096873
vn 0.43388397 0 -0.90096873
vn 0.43388397 0 -0.90096873
vn -0 -1 0
vn -0 -1 0
vn -0 -1 0
vn -0 1 0
vn -0 1 0
vn -0 1 0
vn -0 -1 0
vn -0 -1 0
vn -0 -1 0
vn -0 1 0
vn -0 1 0
vn -0 1 0
vn -0 -1 0
vn -0 -1 0
vn -0 -1 0
vn -0 1 0
vn -0 1 0
vn -0 1 0
vn -0 -1 0
vn -0 -1 0
vn -0 -1 0
vn -0 1 0
vn -0 1 0
vn -0 1 0
vn -0 -1 0
vn -0 -1 0
vn -0 -1 0
vn -0 1 0
vn -0 1 0
vn -0 1 0
vn -0 -1 0
vn -0 -1 0
vn -0 -1 0
vn -0 1 0
vn -0 1 0
vn -0 1 0
vn -0 -1 0
vn -0 -1 0
vn -0 -1 0
vn -0 1 0
vn -0 1 0
vn -0 1 0
vn -0.9749279 1.11616295E-07 -0.22252105
vn -0.9749279 3.720543E-08 -0.22252099
vn -0.9749279 0 -0.22252098
vn -0.9749279 0 -0.222521
vn -0.9749279 0 -0.22252102
vn -0.9749279 0 -0.22252105
vn -0.9749279 0 -0.22252105
vn -0.9749279 2.7904074E-08 -0.22252104
g pb_Mesh7069478_0
f 3/3/3 2/2/2 1/1/1
f 3/3/3 4/4/4 2/2/2
f 7/7/7 6/6/6 5/5/5
f 7/7/7 8/8/8 6/6/6
f 11/11/11 10/10/10 9/9/9
f 11/11/11 12/12/12 10/10/10
f 15/15/15 14/14/14 13/13/13
f 15/15/15 16/16/16 14/14/14
f 19/19/19 18/18/18 17/17/17
f 19/19/19 20/20/20 18/18/18
f 23/23/23 22/22/22 21/21/21
f 23/23/23 24/24/24 22/22/22
f 27/27/27 26/26/26 25/25/25
f 27/27/27 28/28/28 26/26/26
f 31/31/31 30/30/30 29/29/29
f 31/31/31 32/32/32 30/30/30
f 35/35/35 34/34/34 33/33/33
f 35/35/35 36/36/36 34/34/34
f 39/39/39 38/38/38 37/37/37
f 39/39/39 40/40/40 38/38/38
f 43/43/43 42/42/42 41/41/41
f 43/43/43 44/44/44 42/42/42
f 47/47/47 46/46/46 45/45/45
f 47/47/47 48/48/48 46/46/46
f 51/51/51 50/50/50 49/49/49
f 51/51/51 52/52/52 50/50/50
f 55/55/55 54/54/54 53/53/53
f 55/55/55 56/56/56 54/54/54
f 57/57/57 58/58/58 59/59/59
f 63/63/63 64/64/64 65/65/65
f 69/69/69 70/70/70 71/71/71
f 75/75/75 76/76/76 77/77/77
f 81/81/81 82/82/82 83/83/83
f 87/87/87 88/88/88 89/89/89
f 93/93/93 94/94/94 95/95/95
f 62/62/62 61/61/61 60/60/60
f 68/68/68 67/67/67 66/66/66
f 74/74/74 73/73/73 72/72/72
f 80/80/80 79/79/79 78/78/78
f 86/86/86 85/85/85 84/84/84
f 92/92/92 91/91/91 90/90/90
f 98/98/98 97/97/97 96/96/96
f 102/102/102 100/100/100 101/101/101
f 106/106/106 99/99/99 100/100/100
f 102/102/102 106/106/106 100/100/100
f 104/104/104 105/105/105 106/106/106
f 102/102/102 104/104/104 106/106/106
f 102/102/102 103/103/103 104/104/104
