g pb_Mesh6967580
v -0 0 0
v -6.888687 7.021141E-07 -2.38336E-06
v -0 2 2.7665517E-05
v -6.888687 2.0000026 2.6732057E-05
v -6.888687 7.021141E-07 -2.38336E-06
v -6.888687 0.00017431195 -6.991494
v -6.888687 2.0000026 2.6732057E-05
v -6.888687 2.0001752 -6.9914684
v -6.888687 0.00017431195 -6.991494
v -0 0.0001729783 -6.991489
v -6.888687 2.0001752 -6.9914684
v -0 2.000173 -6.9914618
v -0 0.0001729783 -6.991489
v -0 0 0
v -0 2.000173 -6.9914618
v -0 2 2.7665517E-05
v -0 2 2.7665517E-05
v -6.888687 2.0000026 2.6732057E-05
v -0 2.000173 -6.9914618
v -6.888687 2.0001752 -6.9914684
v -0 0.0001729783 -6.991489
v -6.888687 0.00017431195 -6.991494
v -0 0 0
v -6.888687 7.021141E-07 -2.38336E-06
vt 0 0
vt -6.888687 7.021141E-07
vt 9.5718026E-12 2
vt -6.888687 2.0000026
vt -2.38336E-06 7.021141E-07
vt -6.991494 0.00017431195
vt 2.6732057E-05 2.0000026
vt -6.9914684 2.0001752
vt 6.8886924 8.429935E-05
vt 5.3235017E-06 8.296569E-05
vt 6.8886924 2.000085
vt 5.323481E-06 2.000083
vt 6.991489 0.0001729783
vt 0 0
vt 6.9914618 2.000173
vt -2.7665517E-05 2
vt 7.614169E-07 -2.184951E-05
vt 6.888688 -2.278297E-05
vt 7.614828E-07 -6.9915113
vt 6.888688 -6.991518
vt -3.3485444E-11 -6.991489
vt -6.888687 -6.991494
vt 0 0
vt -6.888687 -2.3833443E-06
vn -3.4598315E-07 -1.3832759E-05 1
vn -2.4074745E-07 -1.4195226E-05 1
vn -2.4074745E-07 -1.4195226E-05 1
vn -1.3551175E-07 -1.4557694E-05 1
vn -1 0 0
vn -1 0 0
vn -1 0 0
vn -1 0 0
vn 7.6142607E-07 1.2874597E-05 -1
vn 8.6525745E-07 1.32322275E-05 -1
vn 8.6525745E-07 1.32322275E-05 -1
vn 9.690888E-07 1.3589858E-05 -1
vn 1 0 0
vn 1 0 0
vn 1 0 0
vn 1 0 0
vn 3.8070846E-07 1 2.4757514E-05
vn 3.46088E-07 1 2.4723402E-05
vn 3.46088E-07 1 2.4723402E-05
vn 3.1146755E-07 1 2.468929E-05
vn -1.9358177E-07 -1 -2.4741268E-05
vn -1.4774807E-07 -1 -2.4786426E-05
vn -1.4774807E-07 -1 -2.4786426E-05
vn -1.0191435E-07 -1 -2.4831585E-05
g pb_Mesh6967580_0
f 3/3/3 2/2/2 1/1/1
f 3/3/3 4/4/4 2/2/2
f 7/7/7 6/6/6 5/5/5
f 7/7/7 8/8/8 6/6/6
f 11/11/11 10/10/10 9/9/9
f 11/11/11 12/12/12 10/10/10
f 15/15/15 14/14/14 13/13/13
f 15/15/15 16/16/16 14/14/14
f 19/19/19 18/18/18 17/17/17
f 19/19/19 20/20/20 18/18/18
f 23/23/23 22/22/22 21/21/21
f 23/23/23 24/24/24 22/22/22
