g pb_Mesh-28962
v 8.713596 16.133377 2.98989
v 18.286621 -17.254776 -11.068873
v 8.71359 16.105991 13.0163355
v -8.713596 16.133392 2.98989
v -8.713587 16.092995 12.989907
v -18.286621 -17.25521 -11.015513
v -17.249996 -17.25519 -13.015948
v -7.6769714 16.377874 0.9894551
v -18.286621 -17.255144 -13.015948
v -8.713596 16.13346 0.9894551
v -7.676963 16.092157 13.02953
v -17.249996 -17.255257 -11.015513
v -8.713587 16.092995 12.989907
v -18.286621 -17.25521 -11.015513
v 7.6769676 16.377874 0.9894551
v 17.249992 -17.254725 -13.069308
v 8.713596 16.133444 0.9894551
v 18.286621 -17.25471 -13.069308
v 17.249992 -17.254791 -11.068873
v 7.676958 16.09216 13.02953
v 18.286621 -17.254776 -11.068873
v 8.71359 16.105991 13.0163355
v 7.6769676 16.377808 2.9898891
v 17.249992 -17.254791 -11.068873
v 7.6769676 16.377874 0.9894551
v 17.249992 -17.254725 -13.069308
v 8.713619 17.010754 2.9900076
v 7.6769905 17.255184 2.9900076
v 8.713619 17.01082 0.9895725
v 7.6769905 17.25525 0.98957634
v 17.249992 -17.254791 -11.068873
v 18.286621 -17.254776 -11.068873
v 17.249992 -17.254725 -13.069308
v 18.286621 -17.25471 -13.069308
v 18.286621 -17.254776 -11.068873
v 8.713596 16.133377 2.98989
v 18.286621 -17.25471 -13.069308
v 8.713596 16.133444 0.9894551
v -17.249996 -17.255257 -11.015513
v -7.6769714 16.377808 2.9898891
v -17.249996 -17.25519 -13.015948
v -7.6769714 16.377874 0.9894551
v -18.286621 -17.25521 -11.015513
v -17.249996 -17.255257 -11.015513
v -18.286621 -17.255144 -13.015948
v -17.249996 -17.25519 -13.015948
v -7.6769943 17.255184 2.9900076
v -8.713619 17.010769 2.9900076
v -7.6769943 17.25525 0.98957634
v -8.713619 17.010836 0.9895725
v -8.713596 16.133392 2.98989
v -18.286621 -17.25521 -11.015513
v -8.713596 16.13346 0.9894551
v -18.286621 -17.255144 -13.015948
v 7.6769676 16.377808 2.9898891
v 7.676958 16.09216 13.02953
v 17.249992 -17.254791 -11.068873
v -17.249996 -17.255257 -11.015513
v -7.676963 16.092157 13.02953
v -7.6769714 16.377808 2.9898891
v -7.676963 16.092157 13.02953
v -8.713596 16.132034 13.069194
v -7.6769943 17.253815 13.069308
v -8.713619 17.0094 13.069308
v -8.713596 16.133392 2.98989
v -8.713596 16.13346 0.9894551
v -8.713619 17.010769 2.9900076
v -8.713619 17.010836 0.9895725
v -8.713596 16.13346 0.9894551
v -7.6769714 16.377874 0.9894551
v -8.713619 17.010836 0.9895725
v -7.6769943 17.25525 0.98957634
v 8.71359 16.105991 13.0163355
v 7.676958 16.09216 13.02953
v 8.713619 17.009384 13.069308
v 7.6769905 17.253815 13.069308
v 8.713596 16.133444 0.9894551
v 8.713596 16.133377 2.98989
v 8.713619 17.01082 0.9895725
v 8.713619 17.010754 2.9900076
v 7.6769676 16.377874 0.9894551
v 8.713596 16.133444 0.9894551
v 7.6769905 17.25525 0.98957634
v 8.713619 17.01082 0.9895725
v -8.713596 16.132034 13.069194
v -8.713619 17.0094 13.069308
v -8.713619 17.010769 2.9900076
v -7.6769943 17.255184 2.9900076
v -8.713619 17.0094 13.069308
v -7.6769943 17.253815 13.069308
v 7.6769905 17.255184 2.9900076
v 8.713619 17.010754 2.9900076
v 7.6769905 17.253815 13.069308
v 8.713619 17.009384 13.069308
v 8.713619 17.009384 13.069308
v 8.71359 16.105991 13.0163355
v 7.6769905 17.25525 0.98957634
v 7.6769676 16.377808 2.9898891
v 7.6769676 16.377874 0.9894551
v 7.6769905 17.255184 2.9900076
v 7.676958 16.09216 13.02953
v 7.6769905 17.253815 13.069308
v -7.6769943 17.25525 0.98957634
v -7.676963 16.092157 13.02953
v -7.6769943 17.253815 13.069308
v -7.6769714 16.377874 0.9894551
vt -2.9830673 13.110178
vt 11.083186 -21.620226
vt -13.00951 13.081691
vt 2.9798043 13.111779
vt 12.979815 13.069759
vt -11.036669 -21.617626
vt 17.250235 -20.932714
vt 7.6769533 15.499818
vt 18.28686 -20.932665
vt 8.713578 15.274191
vt -7.1660805 20.830334
vt -17.664064 -20.055477
vt -8.203461 20.83136
vt -18.699911 -20.032188
vt -7.7384367 15.03204
vt -15.781313 -21.788548
vt -8.769327 14.764441
vt -16.812204 -21.832865
vt 17.25011 -20.468393
vt 7.6768193 20.674616
vt 18.28674 -20.468374
vt 8.713451 20.678106
vt 2.9898162 13.650514
vt -11.069037 -21.317928
vt 0.9893822 13.650582
vt -13.069472 -21.31786
vt -4.5770717 2.989405
vt -3.5120153 2.989405
vt -4.5770564 0.9889698
vt -3.512 0.9889736
vt 17.249739 -11.068297
vt 18.286367 -11.068297
vt 17.249739 -13.068732
vt 18.286367 -13.068732
vt 11.069048 -21.626444
vt -2.9898067 13.106955
vt 13.069483 -21.626375
vt -0.9893717 13.107024
vt 11.015677 -21.318335
vt -2.9898162 13.650555
vt 13.016112 -21.318264
vt -0.9893822 13.650624
vt -18.28586 -11.014937
vt -17.249235 -11.014937
vt -18.28586 -13.015372
vt -17.249235 -13.015372
vt 3.5122626 2.989405
vt 4.577312 2.989405
vt 3.512247 0.9889736
vt 4.5772963 0.9889698
vt 2.9898067 13.107015
vt -11.015688 -21.626816
vt 0.9893717 13.107084
vt -13.016123 -21.626747
vt 2.9283473 13.6808605
vt 12.967667 13.384128
vt -11.206587 -21.256899
vt 11.153234 -21.257557
vt -12.967665 13.3840275
vt -2.9283454 13.680763
vt -8.1527815 16.518341
vt -9.190172 16.55824
vt -8.154282 17.680677
vt -9.190199 17.435097
vt 2.98989 16.13362
vt 0.9894551 16.133686
vt 2.9900076 17.010996
vt 0.9895725 17.011063
vt 8.713628 16.13359
vt 7.6770024 16.378006
vt 8.713651 17.010967
vt 7.6770253 17.255383
vt 8.536957 16.847073
vt 7.5002413 16.833218
vt 8.53627 17.752018
vt 7.4997363 17.995209
vt -0.9894551 16.13367
vt -2.98989 16.133604
vt -0.9895725 17.011047
vt -2.9900076 17.01098
vt -7.677 16.378012
vt -8.713629 16.133581
vt -7.677023 17.255388
vt -8.713652 17.010958
vt 13.069194 16.132261
vt 13.069308 17.009626
vt 4.577312 2.9875536
vt 3.5122626 2.9875536
vt 4.577626 13.0668545
vt 3.5125768 13.0668545
vt -3.512015 2.9875536
vt -4.5770717 2.9875536
vt -3.5123293 13.0668545
vt -4.577386 13.0668545
vt -13.069308 17.009611
vt -13.0163355 16.106218
vt 0.98957634 17.255451
vt 2.9898891 16.378008
vt 0.9894551 16.378075
vt 2.9900076 17.255384
vt 13.029528 16.09236
vt 13.069306 17.254015
vt -0.98957634 17.255459
vt -13.02953 16.092365
vt -13.069308 17.254023
vt -0.9894551 16.378082
vn 0.96135205 0.2753212 0.000752638
vn 0.96135205 0.2753212 0.000752638
vn 0.96135205 0.2753212 0.000752638
vn -0.96139234 0.27517924 0.0011125742
vn -0.96139234 0.27517924 0.0011125742
vn -0.96139234 0.27517924 0.0011125742
vn 1.6975418E-05 0.38441545 -0.9231602
vn -0.048133854 0.39639115 -0.91544294
vn -0.048133854 0.39639115 -0.91544294
vn -0.09628468 0.4083669 -0.90772563
vn -0.031619027 -0.57858354 0.81501
vn -0.015822412 -0.5813993 0.8133044
vn -0.015822412 -0.5813993 0.8133044
vn -2.5798385E-05 -0.5842151 0.8115989
vn 0.09597322 0.40702197 -0.9083624
vn 0.047983754 0.39754575 -0.91499627
vn 0.047983754 0.39754575 -0.91499627
vn -5.7122393E-06 0.38806954 -0.9216301
vn 8.621587E-06 -0.5857204 0.81051314
vn 0.009060647 -0.58377725 0.8118094
vn 0.009060647 -0.58377725 0.8118094
vn 0.018112672 -0.5818341 0.81310576
vn -0.9617986 -0.27375802 -9.135678E-06
vn -0.96179867 -0.273758 -9.135675E-06
vn -0.96179867 -0.273758 -9.135675E-06
vn -0.96179867 -0.273758 -9.135672E-06
vn 0.22950006 0.9733086 3.2480613E-05
vn 0.22950006 0.9733087 3.2480646E-05
vn 0.22950006 0.9733087 3.2480646E-05
vn 0.22950007 0.9733087 3.248068E-05
vn 1.4719628E-05 -1 -3.3371343E-05
vn 1.4719628E-05 -1 -3.3371343E-05
vn 1.4719628E-05 -1 -3.3371343E-05
vn 1.4719628E-05 -1 -3.3371343E-05
vn 0.9612694 0.27561054 9.197494E-06
vn 0.9612694 0.27561054 9.197494E-06
vn 0.9612694 0.27561054 9.197494E-06
vn 0.9612694 0.27561054 9.197494E-06
vn 0.9617996 -0.27375454 -9.135557E-06
vn 0.9617996 -0.27375454 -9.13556E-06
vn 0.9617996 -0.27375454 -9.13556E-06
vn 0.96179956 -0.27375454 -9.135561E-06
vn -4.4159046E-05 -1 -3.3371343E-05
vn -4.4159046E-05 -1 -3.3371343E-05
vn -4.4159046E-05 -1 -3.3371343E-05
vn -4.4159046E-05 -1 -3.3371343E-05
vn -0.2294873 0.97331166 3.248078E-05
vn -0.2294873 0.97331166 3.2480748E-05
vn -0.2294873 0.97331166 3.2480748E-05
vn -0.22948729 0.97331166 3.2480715E-05
vn -0.9612704 0.2756071 9.19738E-06
vn -0.9612704 0.2756071 9.19738E-06
vn -0.9612704 0.2756071 9.19738E-06
vn -0.9612704 0.2756071 9.19738E-06
vn -0.96261245 -0.27077273 -0.007704954
vn -0.96261245 -0.27077273 -0.007704954
vn -0.96261245 -0.27077273 -0.007704954
vn 0.9626103 -0.27078047 -0.0077051856
vn 0.9626103 -0.27078047 -0.0077051856
vn 0.9626103 -0.27078047 -0.0077051856
vn 0.03689858 -0.034198705 0.9987337
vn 0.018464668 -0.017164571 0.9993669
vn 0.018464668 -0.017164571 0.9993669
vn 3.0754243E-05 -0.00013043625 1
vn -1 -2.608707E-05 -8.7056057E-10
vn -1 -2.608707E-05 -8.705605E-10
vn -1 -2.608707E-05 -8.705605E-10
vn -1 -2.608707E-05 -8.7056046E-10
vn -3.1554722E-05 0.00013383129 -1
vn -3.0227337E-05 0.00013600524 -1
vn -3.0227337E-05 0.00013600524 -1
vn -2.8899953E-05 0.0001381792 -1
vn 0.013485875 -0.05853218 0.99819446
vn 0.0027083037 -0.04637695 0.99878806
vn 0.0027083037 -0.04637695 0.99878806
vn -0.0080692675 -0.034221724 0.99938166
vn 1 -2.608707E-05 -8.7056057E-10
vn 1 -2.608707E-05 -8.705605E-10
vn 1 -2.608707E-05 -8.705605E-10
vn 1 -2.6087071E-05 -8.705605E-10
vn 3.2581764E-05 0.00013817911 -1
vn 3.0229228E-05 0.00013600524 -1
vn 3.0229228E-05 0.00013600524 -1
vn 2.7876691E-05 0.00013383137 -1
vn -1 -2.608724E-05 -3.5296674E-09
vn -1 -2.608741E-05 -3.5445007E-09
vn -0.2294873 0.97331166 0.00013224402
vn -0.2294873 0.97331166 0.00013224402
vn -0.2294873 0.97331166 0.00013224402
vn -0.2294873 0.97331166 0.00013224402
vn 0.22950007 0.9733086 0.00013224361
vn 0.22950007 0.9733086 0.00013224361
vn 0.22950007 0.9733086 0.00013224361
vn 0.22950007 0.9733086 0.00013224361
vn 1 -2.942314E-05 2.86395E-07
vn 1 -3.275921E-05 5.7633446E-07
vn -1 2.608707E-05 8.7056157E-10
vn -1 2.608707E-05 8.7056157E-10
vn -1 2.608707E-05 8.7056096E-10
vn -1 2.6087071E-05 8.705622E-10
vn -1 2.6999827E-05 -1.01942476E-07
vn -1 2.791256E-05 3.792484E-09
vn 1 2.6589329E-05 -4.5297202E-08
vn 1 2.6589329E-05 -4.5297202E-08
vn 1 2.7091573E-05 3.2210836E-09
vn 1 2.6087084E-05 -9.381549E-08
g pb_Mesh-28962_0
f 3/3/3 2/2/2 1/1/1
f 6/6/6 5/5/5 4/4/4
f 9/9/9 8/8/8 7/7/7
f 9/9/9 10/10/10 8/8/8
f 13/13/13 12/12/12 11/11/11
f 13/13/13 14/14/14 12/12/12
f 17/17/17 16/16/16 15/15/15
f 17/17/17 18/18/18 16/16/16
f 21/21/21 20/20/20 19/19/19
f 21/21/21 22/22/22 20/20/20
f 25/25/25 24/24/24 23/23/23
f 25/25/25 26/26/26 24/24/24
f 29/29/29 28/28/28 27/27/27
f 29/29/29 30/30/30 28/28/28
f 33/33/33 32/32/32 31/31/31
f 33/33/33 34/34/34 32/32/32
f 37/37/37 36/36/36 35/35/35
f 37/37/37 38/38/38 36/36/36
f 41/41/41 40/40/40 39/39/39
f 41/41/41 42/42/42 40/40/40
f 45/45/45 44/44/44 43/43/43
f 45/45/45 46/46/46 44/44/44
f 49/49/49 48/48/48 47/47/47
f 49/49/49 50/50/50 48/48/48
f 53/53/53 52/52/52 51/51/51
f 53/53/53 54/54/54 52/52/52
f 57/57/57 56/56/56 55/55/55
f 60/60/60 59/59/59 58/58/58
f 63/63/63 62/62/62 61/61/61
f 63/63/63 64/64/64 62/62/62
f 67/67/67 66/66/66 65/65/65
f 67/67/67 68/68/68 66/66/66
f 71/71/71 70/70/70 69/69/69
f 71/71/71 72/72/72 70/70/70
f 75/75/75 74/74/74 73/73/73
f 75/75/75 76/76/76 74/74/74
f 79/79/79 78/78/78 77/77/77
f 79/79/79 80/80/80 78/78/78
f 83/83/83 82/82/82 81/81/81
f 83/83/83 84/84/84 82/82/82
f 85/85/85 67/67/67 65/65/65
f 85/85/85 86/86/86 67/67/67
f 89/89/89 88/88/88 87/87/87
f 89/89/89 90/90/90 88/88/88
f 93/93/93 92/92/92 91/91/91
f 93/93/93 94/94/94 92/92/92
f 95/95/95 78/78/78 80/80/80
f 95/95/95 96/96/96 78/78/78
f 99/99/99 98/98/98 97/97/97
f 98/98/98 100/100/100 97/97/97
f 98/98/98 101/101/101 100/100/100
f 101/101/101 102/102/102 100/100/100
f 105/105/105 104/104/104 103/103/103
f 104/104/104 106/106/106 103/103/103
