g pb_Mesh-1242480
v 4.499852 0 1.999956
v -17.500263 0 2.0000424
v 4.499625 2 1.9999484
v -17.500263 2 2.0000424
v -21.500261 0 1.9999117
v -35.500175 0 -13.500004
v -21.500261 2 1.9999117
v -35.500175 2 -13.500004
v -28 0 -13.5
v 14 0 -13.5
v -28 2 -13.5
v 14 2 -13.5
v 21.99983 0 -13.500009
v 8.499738 0 2.0000865
v 21.99983 2 -13.500009
v 8.499738 2 2.0000865
v 4.499625 2 1.9999484
v -17.500263 2 2.0000424
v 14 2 -13.5
v -28 2 -13.5
v 14 0 -13.5
v -28 0 -13.5
v 4.499852 0 1.999956
v -17.500263 0 2.0000424
v -21.500261 0 1.9999117
v -35.500175 0 -13.500004
v -17.500263 2 2.0000424
v -21.500261 2 1.9999117
v -21.500261 0 1.9999117
v -28 0 -18.5
v -28 2 -18.5
v -40 0 -18.5
v -40 2 -18.5
v -35.500175 2 -13.500004
v -21.500261 2 1.9999117
v 21.99983 0 -13.500009
v 8.499738 0 2.0000865
v 14 2 -18.5
v 14 0 -18.5
v 26 2 -18.5
v 26 0 -18.5
v 8.499738 0 2.0000865
v 8.499738 2 2.0000865
v 8.499738 2 2.0000865
v 21.99983 2 -13.500009
v -28 0 -13.5
v -28 2 -13.5
v -28 0 -18.5
v -28 2 -18.5
v -40 0 -18.5
v -28 0 -18.5
v -28 2 -18.5
v -40 2 -18.5
v -35.500175 2 -13.500004
v -35.500175 0 -13.500004
v -40 2 -18.5
v -40 0 -18.5
v 14 2 -13.5
v 14 0 -13.5
v 14 2 -18.5
v 14 0 -18.5
v 26 2 -18.5
v 14 2 -18.5
v 14 0 -18.5
v 26 0 -18.5
v 21.99983 0 -13.500009
v 21.99983 2 -13.500009
v 26 0 -18.5
v 26 2 -18.5
vt 4.4998446 -7.630186E-06
vt -17.50027 -7.630186E-06
vt 4.4996176 1.9999924
vt -17.50027 1.9999924
vt -12.927184 0
vt -33.813663 0
vt -12.927184 2
vt -33.813663 2
vt 28 0
vt -14 0
vt 28 2
vt -14 2
vt 24.629175 0
vt 4.0742383 0
vt 24.629175 2
vt 4.0742383 2
vt -4.499625 1.9999484
vt 17.500263 2.0000424
vt -14 -13.5
vt 28 -13.5
vt 14 -13.5
vt -28 -13.5
vt 4.499852 1.999956
vt -17.500263 2.0000424
vt -21.500261 1.9999117
vt -35.500175 -13.500004
vt -17.500198 2
vt -21.500196 2
vt -21.500196 0
vt 28 0
vt 28 2
vt 40 0
vt 40 2
vt 35.500175 -13.500004
vt 21.500261 1.9999117
vt 21.99983 -13.500009
vt 8.499738 2.0000865
vt -14 2
vt -14 0
vt -26 2
vt -26 0
vt 8.499803 -7.6212605E-06
vt 8.499803 1.9999924
vt -8.499738 2.0000865
vt -21.99983 -13.500009
vt 13.5 0
vt 13.5 2
vt 18.5 0
vt 18.5 2
vt -40 -18.5
vt -28 -18.5
vt 28 -18.5
vt 40 -18.5
vt -33.78251 2
vt -33.78251 0
vt -40.5092 2
vt -40.5092 0
vt -13.5 2
vt -13.5 0
vt -18.5 2
vt -18.5 0
vt -26 -18.5
vt -14 -18.5
vt 14 -18.5
vt 26 -18.5
vt 24.285109 0
vt 24.285109 2
vt 30.688334 0
vt 30.688334 2
vn 3.9284673E-06 3.815143E-06 1
vn 4.101884E-06 1.9075715E-06 1
vn 4.101884E-06 1.9075715E-06 1
vn 4.2753E-06 0 1
vn -0.74210286 0 0.670286
vn -0.74210286 0 0.670286
vn -0.74210286 0 0.670286
vn -0.74210286 0 0.670286
vn -0 0 -1
vn -0 0 -1
vn -0 0 -1
vn -0 0 -1
vn 0.75408137 0 0.656781
vn 0.75408137 0 0.656781
vn 0.75408137 0 0.656781
vn 0.75408137 0 0.656781
vn -0 1 0
vn -0 1 0
vn -0 1 0
vn -0 1 0
vn -0 -1 0
vn -0 -1 0
vn -0 -1 0
vn -0 -1 0
vn -0 -1 0
vn -0 -1 0
vn -3.2693162E-05 0 1
vn -3.2693162E-05 0 1
vn -3.2693162E-05 0 1
vn -0 0 -1
vn -0 0 -1
vn -0 0 -1
vn -0 0 -1
vn -0 1 0
vn -0 1 0
vn -0 -1 0
vn -0 -1 0
vn -0 0 -1
vn -0 0 -1
vn -0 0 -1
vn -0 0 -1
vn -3.35872E-05 1.9054969E-06 1
vn -3.453992E-05 0 1
vn -0 1 0
vn -0 1 0
vn 1 0 0
vn 1 0 0
vn 1 0 0
vn 1 0 0
vn -0 -1 0
vn -0 -1 0
vn -0 1 0
vn -0 1 0
vn -0.7433069 0 0.6689506
vn -0.7433069 0 0.6689506
vn -0.7433069 0 0.6689506
vn -0.7433069 0 0.6689506
vn -1 0 0
vn -1 0 0
vn -1 0 0
vn -1 0 0
vn -0 1 0
vn -0 1 0
vn -0 -1 0
vn -0 -1 0
vn 0.78085536 0 0.6247119
vn 0.78085536 0 0.6247119
vn 0.78085536 0 0.6247119
vn 0.78085536 0 0.6247119
g pb_Mesh-1242480_0
f 3/3/3 2/2/2 1/1/1
f 3/3/3 4/4/4 2/2/2
f 7/7/7 6/6/6 5/5/5
f 7/7/7 8/8/8 6/6/6
f 11/11/11 10/10/10 9/9/9
f 11/11/11 12/12/12 10/10/10
f 15/15/15 14/14/14 13/13/13
f 15/15/15 16/16/16 14/14/14
f 19/19/19 18/18/18 17/17/17
f 19/19/19 20/20/20 18/18/18
f 23/23/23 22/22/22 21/21/21
f 23/23/23 24/24/24 22/22/22
f 25/25/25 22/22/22 24/24/24
f 25/25/25 26/26/26 22/22/22
f 28/28/28 2/2/2 27/27/27
f 28/28/28 29/29/29 2/2/2
f 32/32/32 31/31/31 30/30/30
f 32/32/32 33/33/33 31/31/31
f 34/34/34 18/18/18 20/20/20
f 34/34/34 35/35/35 18/18/18
f 36/36/36 23/23/23 21/21/21
f 36/36/36 37/37/37 23/23/23
f 40/40/40 39/39/39 38/38/38
f 40/40/40 41/41/41 39/39/39
f 42/42/42 3/3/3 1/1/1
f 42/42/42 43/43/43 3/3/3
f 44/44/44 19/19/19 17/17/17
f 44/44/44 45/45/45 19/19/19
f 48/48/48 47/47/47 46/46/46
f 48/48/48 49/49/49 47/47/47
f 50/50/50 22/22/22 26/26/26
f 50/50/50 51/51/51 22/22/22
f 52/52/52 34/34/34 20/20/20
f 52/52/52 53/53/53 34/34/34
f 56/56/56 55/55/55 54/54/54
f 56/56/56 57/57/57 55/55/55
f 60/60/60 59/59/59 58/58/58
f 60/60/60 61/61/61 59/59/59
f 62/62/62 19/19/19 45/45/45
f 62/62/62 63/63/63 19/19/19
f 64/64/64 36/36/36 21/21/21
f 64/64/64 65/65/65 36/36/36
f 68/68/68 67/67/67 66/66/66
f 68/68/68 69/69/69 67/67/67
