g pb_Mesh-1114952
v 2.8000655 0.40000007 1.2695842E-05
v -4.800001 0.39999962 0
v -0 2 0
v -4.800001 2 0
v -4.800001 0.39999962 0
v -4.800001 0.39999962 -15.200001
v -4.800001 2 0
v -4.800001 2 -15.200001
v -4.800001 0.39999962 -15.200001
v 2.8000653 0.40000007 -15.19999
v -4.800001 2 -15.200001
v -0 2 -15.200001
v 2.8000653 0.40000007 -15.19999
v 2.8000655 0.40000007 1.2695842E-05
v -0 2 -15.200001
v -0 2 0
v -0 2 0
v -4.800001 2 0
v -0 2 -15.200001
v -4.800001 2 -15.200001
v 2.8000653 0.40000007 -15.19999
v -4.800001 0.39999962 -15.200001
v 2.8000655 0.40000007 1.2695842E-05
v -4.800001 0.39999962 0
vt 2.8000655 0.40000007
vt -4.800001 0.39999962
vt 0 2
vt -4.800001 2
vt 0 0.39999962
vt -15.200001 0.39999962
vt 0 2
vt -15.200001 2
vt 4.800022 0.39999962
vt -2.8000443 0.40000007
vt 4.800022 2
vt 2.0980655E-05 2
vt -2.2326994 -15.19999
vt -2.2326996 1.2709355E-05
vt 0.9922604 -15.200001
vt 0.9922604 1.351344E-08
vt 0 0
vt 4.800001 0
vt 0 -15.200001
vt 4.800001 -15.200001
vt 2.8000653 -15.19999
vt -4.800001 -15.200001
vt 2.8000655 1.2695842E-05
vt -4.800001 -3.6904585E-16
vn -1.6704911E-06 5.0114736E-06 1
vn -8.3524554E-07 2.5057368E-06 1
vn -8.3524554E-07 2.5057368E-06 1
vn -0 0 1
vn -1 0 0
vn -1 0 0
vn -1 0 0
vn -1 0 0
vn 1.3803061E-06 0 -1
vn 6.9015306E-07 -3.2782557E-06 -1
vn 6.9015306E-07 -3.2782557E-06 -1
vn -0 -6.5565114E-06 -1
vn 0.4961302 0.86824816 -7.782015E-09
vn 0.4961302 0.86824816 -3.8910075E-09
vn 0.4961302 0.86824816 -3.8910075E-09
vn 0.4961302 0.86824816 0
vn -0 1 0
vn -0 1 0
vn -0 1 0
vn -0 1 0
vn 5.881986E-08 -1 -9.226149E-16
vn 5.8819857E-08 -1 -4.6130743E-16
vn 5.8819857E-08 -1 -4.6130743E-16
vn 5.8819857E-08 -1 0
g pb_Mesh-1114952_0
f 3/3/3 2/2/2 1/1/1
f 3/3/3 4/4/4 2/2/2
f 7/7/7 6/6/6 5/5/5
f 7/7/7 8/8/8 6/6/6
f 11/11/11 10/10/10 9/9/9
f 11/11/11 12/12/12 10/10/10
f 15/15/15 14/14/14 13/13/13
f 15/15/15 16/16/16 14/14/14
f 19/19/19 18/18/18 17/17/17
f 19/19/19 20/20/20 18/18/18
f 23/23/23 22/22/22 21/21/21
f 23/23/23 24/24/24 22/22/22
