g pCube12
v -5.459242E-12 0.0056476593 -0.0025285499
v -0.0004401676 0.0050216815 -0.0042761285
v -1.2159944E-11 0.005464735 -0.0042761285
v -0.00047995197 0.005164566 -0.0025285499
v -0.0019802626 0.0015130234 -0.0042761285
v -0.00047995197 0.005164566 0.005
v -5.459242E-12 0.0056476593 0.005
v -0.0020200468 0.0016559028 -0.0025285499
v -0.0025 0.0009898853 -0.0042761285
v -0.0020200468 0.0016559028 0.005
v -0.0025 0.0011728096 -0.0025285499
v -0.0025 0.0011728096 0.005
v -0.0025 0.0011728096 -0.0025285499
v -0.0030197368 0.0015130234 -0.0042761285
v -0.0025 0.0009898853 -0.0042761285
v -0.0029799524 0.0016559028 -0.0025285499
v -0.004367832 0.0045842743 -0.0042761285
v -0.004337489 0.004748664 -0.0025285499
v -0.0029799524 0.0016559028 0.005
v -0.0025 0.0011728096 0.005
v -0.004337489 0.004748664 0.005
v -0.004175284 -0.0041590403 -0.0025285506
v -0.004825248 0.0038427685 0.005
v -0.004175284 -0.0041590403 0.005
v -0.004825248 0.0038427685 -0.0025285499
v -0.0041079903 -0.0040970896 -0.0042761285
v -0.004751956 0.0038308762 -0.0042761285
v -0.0046885842 0.0047982787 -0.0025285499
v -0.0046885842 0.0047982787 0.005
v -0.004638725 0.0046225497 -0.0042761285
v 0.0020200477 0.0016559028 0.005
v 0.002499999 0.0011728096 -0.0025285499
v 0.002499999 0.0011728096 0.005
v 0.0020200477 0.0016559028 -0.0025285499
v 0.0019802635 0.0015130234 -0.0042761285
v 0.002499999 0.0009898853 -0.0042761285
v 0.00044016732 0.0050216815 -0.0042761285
v 0.00047995168 0.005164566 -0.0025285499
v 0.00047995168 0.005164566 0.005
v -1.2159944E-11 0.005464735 -0.0042761285
v -5.459242E-12 0.0056476593 0.005
v -5.459242E-12 0.0056476593 -0.0025285499
v 0.0029799493 -0.005000038 0.005
v 0.0037368392 -0.005000038 0.005
v 0.0037368392 -0.005000038 -0.0025285499
v 0.0029799493 -0.005000038 -0.0025285499
v 0.0037246437 -0.0048316526 -0.0042761285
v 0.0029799493 -0.0048316526 -0.0042761285
v 0.002499999 -0.005000038 -0.0025285499
v 0.002499999 -0.005000038 0.005
v 0.002499999 -0.0048316526 -0.0042761285
v 0.0020200477 -0.005000038 -0.0025285499
v 0.0020200477 -0.005000038 0.005
v 0.0020200477 -0.0048316526 -0.0042761285
v 0.00047995168 -0.005000038 0.005
v 0.00047995168 -0.005000038 -0.0025285499
v 0.00047995168 -0.0048316526 -0.0042761285
v -9.777068E-12 -0.005000038 -0.0025285499
v -9.777068E-12 -0.005000038 0.005
v -9.708856E-12 -0.0048316526 -0.0042761285
v -0.00047995197 -0.005000038 -0.0025285499
v -0.00047995197 -0.005000038 0.005
v -0.00047995197 -0.0048316526 -0.0042761285
v -0.0020200468 -0.005000038 0.005
v -0.0020200468 -0.005000038 -0.0025285499
v -0.0020200468 -0.0048316526 -0.0042761285
v -0.0025 -0.005000038 -0.0025285499
v -0.0025 -0.005000038 0.005
v -0.0025 -0.0048316526 -0.0042761285
v -0.0029799524 -0.005000038 -0.0025285499
v -0.0029799524 -0.005000038 0.005
v -0.0029799524 -0.0048316526 -0.0042761285
v -0.0037368415 -0.005000038 0.005
v -0.0037368413 -0.005000038 -0.0025285506
v -0.0037246456 -0.0048316526 -0.0042761285
v -0.004018825 -0.0047634603 -0.0025285506
v -0.0040188255 -0.0047634603 0.005
v -0.0039714407 -0.0046246005 -0.0042761285
v -0.0046885842 0.0047982787 0.005
v -0.004337489 0.004748664 -0.0025285499
v -0.004337489 0.004748664 0.005
v -0.0046885842 0.0047982787 -0.0025285499
v -0.004638725 0.0046225497 -0.0042761285
v -0.004367832 0.0045842743 -0.0042761285
v 0.0043374896 0.004748664 0.005
v 0.0046885842 0.0047982787 -0.0025285499
v 0.0046885842 0.0047982787 0.005
v 0.0043374896 0.004748664 -0.0025285499
v 0.0043678326 0.0045842743 -0.0042761285
v 0.0046387254 0.0046225497 -0.0042761285
v -0.0040188255 -0.0047634603 0.005
v -0.004175284 -0.0041590403 -0.0025285506
v -0.004175284 -0.0041590403 0.005
v -0.004018825 -0.0047634603 -0.0025285506
v -0.0039714407 -0.0046246005 -0.0042761285
v -0.0041079903 -0.0040970896 -0.0042761285
v 0.0041752816 -0.004159045 0.005
v 0.004018823 -0.004763465 -0.0025285499
v 0.004018823 -0.004763465 0.005
v 0.0041752816 -0.004159045 -0.0025285499
v 0.004107988 -0.0040970994 -0.0042761285
v 0.0039714384 -0.004624605 -0.0042761285
v 0.004751957 0.0038308762 -0.0042761285
v 0.0048252484 0.0038427685 -0.0025285499
v 0.0048252484 0.0038427685 0.005
v 0.0046387254 0.0046225497 -0.0042761285
v 0.0046885842 0.0047982787 0.005
v 0.0046885842 0.0047982787 -0.0025285499
v 0.004018823 -0.004763465 0.005
v 0.0037368392 -0.005000038 -0.0025285499
v 0.0037368392 -0.005000038 0.005
v 0.004018823 -0.004763465 -0.0025285499
v 0.0039714384 -0.004624605 -0.0042761285
v 0.0037246437 -0.0048316526 -0.0042761285
v 0.0030197336 0.0015130234 -0.0042761285
v 0.0043678326 0.0045842743 -0.0042761285
v 0.0043374896 0.004748664 -0.0025285499
v 0.0029799493 0.0016559028 -0.0025285499
v 0.002499999 0.0009898853 -0.0042761285
v 0.0043374896 0.004748664 0.005
v 0.002499999 0.0011728096 -0.0025285499
v 0.0029799493 0.0016559028 0.005
v 0.002499999 0.0011728096 0.005
v -0.0030197368 0.0015130234 -0.0042761285
v -0.004367832 0.0045842743 -0.0042761285
v -0.0044410867 0.004187393 -0.0049999985
v -0.0031157848 0.0011680793 -0.0049999985
v -0.0025 0.0009898853 -0.0042761285
v -0.0045183543 0.0041983174 -0.0049999985
v -0.004638725 0.0046225497 -0.0042761285
v -0.004575015 0.0038021612 -0.0049999985
v -0.004751956 0.0038308762 -0.0042761285
v -0.003945529 -0.003947544 -0.0049999985
v -0.0041079903 -0.0040970896 -0.0042761285
v -0.0038570443 -0.004289374 -0.0049999985
v -0.0039714407 -0.0046246005 -0.0042761285
v -0.003695203 -0.0044251634 -0.0049999985
v -0.0037246456 -0.0048316526 -0.0042761285
v -0.0029799524 -0.0044251634 -0.0049999985
v -0.0029799524 -0.0048316526 -0.0042761285
v -0.0025 -0.0044251634 -0.0049999985
v -0.0025 -0.0048316526 -0.0042761285
v -0.0025 0.00054826256 -0.0049999985
v -0.0019802626 0.0015130234 -0.0042761285
v -0.0020200468 -0.0044251634 -0.0049999985
v -0.0020200468 -0.0048316526 -0.0042761285
v -0.0018842146 0.0011680793 -0.0049999985
v -0.0004401676 0.0050216815 -0.0042761285
v -0.0003441197 0.004676738 -0.0049999985
v -1.2159944E-11 0.005464735 -0.0042761285
v -0.00047995197 -0.0044251634 -0.0049999985
v -0.00047995197 -0.0048316526 -0.0042761285
v -9.545147E-12 -0.0044251634 -0.0049999985
v -9.708856E-12 -0.0048316526 -0.0042761285
v -2.833758E-11 0.005023112 -0.0049999985
v 0.00044016732 0.0050216815 -0.0042761285
v 0.00047995168 -0.0044251634 -0.0049999985
v 0.00047995168 -0.0048316526 -0.0042761285
v 0.0003441194 0.004676738 -0.0049999985
v 0.0019802635 0.0015130234 -0.0042761285
v 0.0018842156 0.0011680793 -0.0049999985
v 0.002499999 0.0009898853 -0.0042761285
v 0.0020200477 -0.0044251634 -0.0049999985
v 0.0020200477 -0.0048316526 -0.0042761285
v 0.002499999 -0.0044251634 -0.0049999985
v 0.002499999 -0.0048316526 -0.0042761285
v 0.002499999 0.00054826256 -0.0049999985
v 0.0030197336 0.0015130234 -0.0042761285
v 0.0031157818 0.0011680793 -0.0049999985
v 0.0043678326 0.0045842743 -0.0042761285
v 0.0029799493 -0.0044251634 -0.0049999985
v 0.0029799493 -0.0048316526 -0.0042761285
v 0.0036952018 -0.0044251634 -0.0049999985
v 0.0037246437 -0.0048316526 -0.0042761285
v 0.0038570426 -0.004289379 -0.0049999985
v 0.0039714384 -0.004624605 -0.0042761285
v 0.0039455267 -0.0039475486 -0.0049999985
v 0.004107988 -0.0040970994 -0.0042761285
v 0.0044410867 0.004187393 -0.0049999985
v 0.0046387254 0.0046225497 -0.0042761285
v 0.004518355 0.0041983174 -0.0049999985
v 0.004751957 0.0038308762 -0.0042761285
v 0.004575016 0.0038021612 -0.0049999985
vt 0.49999985 0.43821496
vt 0.48800114 0.5
vt 0.5 0.5
vt 0.4880011 0.43821374
vt 0.4494988 0.50000006
vt 0.4880011 0.25
vt 0.5000001 0.25
vt 0.4494988 0.4382139
vt 0.4375 0.5
vt 0.44949877 0.25
vt 0.4375 0.43821496
vt 0.4375 0.25
vt 0.4375 0.43821496
vt 0.4255012 0.50000006
vt 0.4375 0.5
vt 0.4255012 0.43821338
vt 0.3915628 0.5000001
vt 0.39156285 0.43821383
vt 0.42550132 0.25
vt 0.4375 0.25
vt 0.39156288 0.24999999
vt 0.18678623 0.021024633
vt 0.37500006 0.20148194
vt 0.375 0.02102479
vt 0.18678626 0.20148173
vt 0.125 0.02102479
vt 0.125 0.20148182
vt 0.18678626 0.24999975
vt 0.37500006 0.25
vt 0.125 0.25
vt 0.5505012 0.25
vt 0.5625 0.43821412
vt 0.5625 0.25
vt 0.5505012 0.4382134
vt 0.5505012 0.50000006
vt 0.5625 0.5
vt 0.5119989 0.5
vt 0.5119989 0.43821496
vt 0.51199895 0.25
vt 0.5 0.5
vt 0.5000001 0.25
vt 0.49999985 0.43821496
vt 0.5812533 1
vt 0.6108275 1
vt 0.6108275 0.8117857
vt 0.5812533 0.8117863
vt 0.6108275 0.75
vt 0.5812533 0.75
vt 0.5625 0.81178516
vt 0.5625 1
vt 0.5625 0.75
vt 0.5505012 0.81178516
vt 0.5505012 1
vt 0.5505012 0.75
vt 0.5119988 1
vt 0.51199883 0.8117863
vt 0.51199883 0.75
vt 0.5 0.8117868
vt 0.5 1
vt 0.5 0.75
vt 0.4880012 0.81178623
vt 0.4880012 1
vt 0.4880012 0.75
vt 0.4494988 1
vt 0.44949877 0.81178623
vt 0.44949877 0.75
vt 0.4375 0.81178623
vt 0.4375 1
vt 0.4375 0.75
vt 0.41874656 0.81178623
vt 0.41874668 1
vt 0.4187465 0.75
vt 0.3891725 1
vt 0.38917252 0.81178623
vt 0.38917252 0.75
vt 0.37500012 0.81178623
vt 0.375 1
vt 0.375 0.75
vt 0.37500006 0.25
vt 0.39156285 0.43821383
vt 0.39156288 0.24999999
vt 0.37500006 0.43821442
vt 0.37500006 0.5000005
vt 0.3915628 0.5000001
vt 0.6084372 0.25
vt 0.6249999 0.43821397
vt 0.625 0.25
vt 0.6084371 0.43821386
vt 0.6084372 0.5000001
vt 0.6249999 0.5000003
vt 0.375 1
vt 0.18678623 0.021024633
vt 0.375 0.02102479
vt 0.18678755 0.24715017
vt 0.125 0
vt 0.125 0.02102479
vt 0.625 0.021024745
vt 0.81321424 0
vt 0.625 0
vt 0.81321365 0.021024719
vt 0.875 0.021024706
vt 0.875 0
vt 0.875 0.20148194
vt 0.81321377 0.20148179
vt 0.62500006 0.20148171
vt 0.875 0.25
vt 0.625 0.25
vt 0.8132137 0.24999976
vt 0.625 0
vt 0.6108275 0.8117857
vt 0.6108275 1
vt 0.6249998 0.5646558
vt 0.625 0.75
vt 0.6108275 0.75
vt 0.57449883 0.5000003
vt 0.6084372 0.5000001
vt 0.6084371 0.43821386
vt 0.57449883 0.43821412
vt 0.5625 0.5
vt 0.6084372 0.25
vt 0.5625 0.43821412
vt 0.5744988 0.25
vt 0.5625 0.25
vt 0.4255012 0.50000006
vt 0.3915628 0.5000001
vt 0.38724604 0.51917756
vt 0.4201879 0.5212952
vt 0.4375 0.5
vt 0.38495672 0.52314913
vt 0.37500006 0.5000005
vt 0.38240257 0.535783
vt 0.375 0.5485185
vt 0.38032097 0.71880186
vt 0.375 0.7289751
vt 0.3829869 0.72909546
vt 0.375 0.75
vt 0.3911224 0.72908664
vt 0.38917252 0.75
vt 0.4193299 0.72840744
vt 0.4187465 0.75
vt 0.4375 0.72671634
vt 0.4375 0.75
vt 0.4375 0.52529436
vt 0.4494988 0.50000006
vt 0.44949877 0.72840744
vt 0.44949877 0.75
vt 0.45289463 0.5196095
vt 0.48800114 0.5
vt 0.49139696 0.51466405
vt 0.5 0.5
vt 0.4880012 0.7358609
vt 0.4880012 0.75
vt 0.5 0.73650205
vt 0.5 0.75
vt 0.5 0.51466393
vt 0.5119989 0.5
vt 0.51199883 0.735862
vt 0.51199883 0.75
vt 0.50860304 0.51466405
vt 0.5505012 0.50000006
vt 0.54710543 0.5196092
vt 0.5625 0.5
vt 0.5505013 0.7284075
vt 0.5505012 0.75
vt 0.5625 0.72671765
vt 0.5625 0.75
vt 0.5625 0.52529436
vt 0.57449883 0.5000003
vt 0.57981205 0.5212952
vt 0.6084372 0.5000001
vt 0.5806699 0.7284075
vt 0.5812533 0.75
vt 0.608878 0.7290903
vt 0.6108275 0.75
vt 0.61701214 0.7290902
vt 0.625 0.75
vt 0.6196798 0.71880555
vt 0.625 0.7289753
vt 0.6127539 0.51917744
vt 0.6249999 0.5000003
vt 0.61504316 0.5231489
vt 0.62499994 0.5485182
vt 0.61759734 0.5357827
vn -0.7093507 0.7047375 -0.012905084
vn -0.8930457 0.44636342 -0.056825243
vn -0.7074886 0.70288455 -0.07357408
vn -0.8921032 0.45171052 -0.010460871
vn -0.8883589 0.455539 -0.057468586
vn -0.8922558 0.4515302 0
vn -0.7094095 0.70479655 0
vn -0.8923118 0.4512832 -0.011092921
vn -0.70748615 0.70288724 -0.0735733
vn -0.8922557 0.45153043 0
vn -0.70932984 0.7047191 -0.014900117
vn -0.70940864 0.70479745 0
vn 0.70933044 0.7047186 -0.01490013
vn 0.8851893 0.46161497 -0.057892814
vn 0.70748657 0.7028867 -0.073573336
vn 0.88949335 0.45681238 -0.011138366
vn 0.9143547 0.401347 -0.053629354
vn 0.91562957 0.4019066 -0.009673661
vn 0.88944167 0.45704874 0
vn 0.7094092 0.7047969 0
vn 0.91567236 0.40192544 0
vn -0.9956142 -0.09323891 -0.0076731057
vn -0.9983621 -0.057211313 0
vn -0.99563867 -0.09329357 0
vn -0.99831545 -0.057507962 -0.0076916637
vn -0.99487716 -0.0921463 -0.04157604
vn -0.9973953 -0.05904637 -0.041427977
vn -0.9899013 0.14158234 -0.007061377
vn -0.989926 0.14158583 0
vn -0.98903394 0.14145845 -0.042442005
vn 0.8922558 0.45153028 0
vn 0.70933133 0.7047177 -0.01490009
vn 0.7094101 0.70479596 0
vn 0.8923119 0.45128307 -0.011092911
vn 0.888359 0.45553884 -0.057468534
vn 0.7074876 0.7028857 -0.07357314
vn 0.8930456 0.44636345 -0.056825217
vn 0.89210314 0.45171073 -0.0104608685
vn 0.8922557 0.45153043 0
vn 0.7074889 0.7028843 -0.07357409
vn 0.7094097 0.7047963 0
vn 0.709351 0.70473737 -0.012905088
vn -0 -1 0
vn 0.22203659 -0.97503835 0
vn 0.21956271 -0.9754421 -0.017464247
vn -0 -0.99983656 -0.018076906
vn 0.21714087 -0.97149456 -0.0951221
vn -0 -0.99539006 -0.095909394
vn -0 -0.99983525 -0.018149564
vn -0 -1 0
vn -0 -0.99539006 -0.0959094
vn -0 -0.99983525 -0.018149586
vn -0 -1 0
vn -0 -0.99539006 -0.09590951
vn -0 -1 0
vn -0 -0.99983525 -0.018149583
vn -0 -0.99539006 -0.095909484
vn -0 -0.99983525 -0.01814955
vn -0 -1 0
vn -0 -0.99539006 -0.09590931
vn -0 -0.99983525 -0.018149588
vn -0 -1 0
vn -0 -0.99539006 -0.09590952
vn -0 -1 0
vn -0 -0.99983525 -0.018149588
vn -0 -0.99539006 -0.09590951
vn -0 -0.99983525 -0.018149551
vn -0 -1 0
vn -0 -0.99539006 -0.095909335
vn -0 -0.99983656 -0.018076912
vn -0 -1 0
vn -0 -0.99539006 -0.09590954
vn -0.22204107 -0.97503734 0
vn -0.21956725 -0.9754411 -0.017464284
vn -0.21714549 -0.9714935 -0.09512219
vn -0.64266765 -0.76601326 -0.014214307
vn -0.6427331 -0.7660902 0
vn -0.64076865 -0.7637552 -0.078061596
vn 0.13992451 0.99016225 0
vn 0.13990456 0.9900315 -0.01626298
vn 0.13992451 0.99016225 0
vn 0.1399053 0.9900366 -0.0159336
vn 0.13928135 0.9856719 -0.09513944
vn 0.13928135 0.9856719 -0.09513942
vn -0.13992466 0.99016213 0
vn -0.13990545 0.9900366 -0.015933618
vn -0.13992466 0.99016213 0
vn -0.1399047 0.99003136 -0.016262993
vn -0.13928135 0.9856719 -0.09513942
vn -0.13928135 0.9856719 -0.09513942
vn -0.9680913 -0.2505978 0
vn -0.9956142 -0.09323891 -0.0076731057
vn -0.99563867 -0.09329357 0
vn -0.9680608 -0.25058982 -0.007937993
vn -0.96706164 -0.25033075 -0.04611232
vn -0.99487716 -0.0921463 -0.04157604
vn 0.99563867 -0.093293786 0
vn 0.9680609 -0.25058952 -0.007937884
vn 0.9680914 -0.25059727 0
vn 0.9956142 -0.09323916 -0.007673047
vn 0.99487716 -0.09214664 -0.04157577
vn 0.9670614 -0.2503316 -0.04611199
vn 0.9973953 -0.059046637 -0.041427694
vn 0.99831545 -0.057508208 -0.007691599
vn 0.9983621 -0.05721155 0
vn 0.98903394 0.14145896 -0.042441677
vn 0.98992586 0.1415862 0
vn 0.9899012 0.14158271 -0.0070613218
vn 0.6427248 -0.7660971 0
vn 0.21956271 -0.9754421 -0.017464247
vn 0.22203659 -0.97503835 0
vn 0.64265954 -0.76602006 -0.0142143285
vn 0.6407612 -0.7637613 -0.07806202
vn 0.21714087 -0.97149456 -0.0951221
vn -0.8851891 0.4616152 -0.057892777
vn -0.91435426 0.40134773 -0.05362938
vn -0.91562927 0.40190744 -0.009673669
vn -0.8894932 0.4568126 -0.011138359
vn -0.7074879 0.7028854 -0.073573105
vn -0.91567206 0.40192622 0
vn -0.7093319 0.7047172 -0.014900087
vn -0.8894415 0.45704904 0
vn -0.70941067 0.70479536 0
vn 0.8474539 0.42672652 -0.31579468
vn 0.8435813 0.4302881 -0.32128307
vn 0.22514865 0.108439565 -0.9682711
vn 0.13048574 0.0729065 -0.9887659
vn 1.984863E-07 0.85367185 -0.52081126
vn -0.0648401 0.026626637 -0.99754035
vn -0.80914813 0.43826914 -0.3914071
vn -0.35369775 -0.023342192 -0.9350685
vn -0.97005033 -0.062890045 -0.23462166
vn -0.36184645 -0.032181103 -0.93168205
vn -0.9676923 -0.08957038 -0.23568772
vn -0.037705086 -0.017583061 -0.99913424
vn -0.8040534 -0.48081708 -0.3497328
vn -0.0112130325 -0.0545493 -0.99844813
vn -0.13667177 -0.8613631 -0.4892591
vn -0 -0.07631947 -0.99708337
vn -0 -0.87192917 -0.489632
vn -0 -0.112499356 -0.99365175
vn -0 -0.87192935 -0.48963183
vn -0 0.06906016 -0.9976125
vn -0.85062337 0.42181134 -0.31387115
vn -0 -0.09934913 -0.99505264
vn -0 -0.87192935 -0.48963174
vn -0.111473 0.06086034 -0.9919022
vn -0.84163254 0.43558928 -0.31924376
vn -0.3203308 0.15361819 -0.9347672
vn -2.0553563E-07 0.85367167 -0.52081156
vn -0 -0.092282705 -0.99573284
vn -0 -0.87192935 -0.48963183
vn -0 -0.08642274 -0.9962586
vn -0 -0.87192917 -0.48963195
vn -0 0.16451736 -0.98637414
vn 0.84163254 0.43558946 -0.3192437
vn -0 -0.092282705 -0.99573284
vn -0 -0.8719292 -0.4896319
vn 0.3203307 0.15361823 -0.9347672
vn 0.8506235 0.42181125 -0.3138711
vn 0.11147295 0.060860265 -0.9919022
vn -1.4886525E-07 0.85367167 -0.5208116
vn -0 -0.09934913 -0.99505264
vn -0 -0.87192935 -0.48963183
vn -0 -0.11249929 -0.99365175
vn -0 -0.87192935 -0.48963183
vn -0 0.06906005 -0.9976126
vn -0.84745383 0.42672688 -0.31579465
vn -0.13048564 0.072906435 -0.9887659
vn -0.8435807 0.430289 -0.32128328
vn -0 -0.07631942 -0.99708337
vn -0 -0.87192935 -0.48963174
vn 0.011212582 -0.05454884 -0.99844813
vn 0.13666815 -0.8613638 -0.48925862
vn 0.03770496 -0.017583149 -0.99913424
vn 0.8040508 -0.48082027 -0.34973437
vn 0.36184642 -0.032181207 -0.93168205
vn 0.9676923 -0.089570776 -0.23568802
vn -0.22514823 0.10843964 -0.9682712
vn 0.8091471 0.4382707 -0.39140734
vn 0.06483986 0.026626697 -0.99754035
vn 0.9700502 -0.06289028 -0.23462188
vn 0.35369745 -0.023342265 -0.9350686
g pCube12_0
f 3/3/3 2/2/2 1/1/1
f 2/2/2 4/4/4 1/1/1
f 2/2/2 5/5/5 4/4/4
f 4/4/4 6/6/6 1/1/1
f 6/6/6 7/7/7 1/1/1
f 5/5/5 8/8/8 4/4/4
f 6/6/6 4/4/4 8/8/8
f 5/5/5 9/9/9 8/8/8
f 10/10/10 6/6/6 8/8/8
f 9/9/9 11/11/11 8/8/8
f 12/12/12 10/10/10 8/8/8
f 11/11/11 12/12/12 8/8/8
f 15/15/15 14/14/14 13/13/13
f 14/14/14 16/16/16 13/13/13
f 14/14/14 17/17/17 16/16/16
f 17/17/17 18/18/18 16/16/16
f 16/16/16 19/19/19 13/13/13
f 19/19/19 16/16/16 18/18/18
f 19/19/19 20/20/20 13/13/13
f 21/21/21 19/19/19 18/18/18
f 24/24/24 23/23/23 22/22/22
f 23/23/23 25/25/25 22/22/22
f 26/26/26 22/22/22 25/25/25
f 27/27/27 26/26/26 25/25/25
f 28/28/28 25/25/25 23/23/23
f 25/25/25 28/28/28 27/27/27
f 29/29/29 28/28/28 23/23/23
f 28/28/28 30/30/30 27/27/27
f 33/33/33 32/32/32 31/31/31
f 32/32/32 34/34/34 31/31/31
f 34/34/34 32/32/32 35/35/35
f 32/32/32 36/36/36 35/35/35
f 34/34/34 35/35/35 37/37/37
f 31/31/31 34/34/34 38/38/38
f 38/38/38 34/34/34 37/37/37
f 39/39/39 31/31/31 38/38/38
f 37/37/37 40/40/40 38/38/38
f 41/41/41 39/39/39 38/38/38
f 40/40/40 42/42/42 38/38/38
f 42/42/42 41/41/41 38/38/38
f 45/45/45 44/44/44 43/43/43
f 46/46/46 45/45/45 43/43/43
f 47/47/47 45/45/45 46/46/46
f 48/48/48 47/47/47 46/46/46
f 46/46/46 43/43/43 49/49/49
f 48/48/48 46/46/46 49/49/49
f 43/43/43 50/50/50 49/49/49
f 51/51/51 48/48/48 49/49/49
f 49/49/49 50/50/50 52/52/52
f 51/51/51 49/49/49 52/52/52
f 50/50/50 53/53/53 52/52/52
f 54/54/54 51/51/51 52/52/52
f 52/52/52 53/53/53 55/55/55
f 54/54/54 52/52/52 56/56/56
f 56/56/56 52/52/52 55/55/55
f 57/57/57 54/54/54 56/56/56
f 58/58/58 56/56/56 55/55/55
f 56/56/56 58/58/58 57/57/57
f 59/59/59 58/58/58 55/55/55
f 58/58/58 60/60/60 57/57/57
f 61/61/61 58/58/58 59/59/59
f 58/58/58 61/61/61 60/60/60
f 62/62/62 61/61/61 59/59/59
f 61/61/61 63/63/63 60/60/60
f 61/61/61 62/62/62 64/64/64
f 61/61/61 65/65/65 63/63/63
f 65/65/65 61/61/61 64/64/64
f 65/65/65 66/66/66 63/63/63
f 67/67/67 65/65/65 64/64/64
f 65/65/65 67/67/67 66/66/66
f 68/68/68 67/67/67 64/64/64
f 67/67/67 69/69/69 66/66/66
f 70/70/70 67/67/67 68/68/68
f 67/67/67 70/70/70 69/69/69
f 71/71/71 70/70/70 68/68/68
f 70/70/70 72/72/72 69/69/69
f 70/70/70 71/71/71 73/73/73
f 70/70/70 74/74/74 72/72/72
f 74/74/74 70/70/70 73/73/73
f 74/74/74 75/75/75 72/72/72
f 76/76/76 74/74/74 73/73/73
f 74/74/74 76/76/76 75/75/75
f 77/77/77 76/76/76 73/73/73
f 76/76/76 78/78/78 75/75/75
f 81/81/81 80/80/80 79/79/79
f 80/80/80 82/82/82 79/79/79
f 83/83/83 82/82/82 80/80/80
f 84/84/84 83/83/83 80/80/80
f 87/87/87 86/86/86 85/85/85
f 86/86/86 88/88/88 85/85/85
f 88/88/88 86/86/86 89/89/89
f 86/86/86 90/90/90 89/89/89
f 93/93/93 92/92/92 91/91/91
f 92/92/92 94/94/94 91/91/91
f 95/95/95 94/94/94 92/92/92
f 96/96/96 95/95/95 92/92/92
f 99/99/99 98/98/98 97/97/97
f 98/98/98 100/100/100 97/97/97
f 100/100/100 98/98/98 101/101/101
f 98/98/98 102/102/102 101/101/101
f 100/100/100 101/101/101 103/103/103
f 100/100/100 104/104/104 97/97/97
f 104/104/104 100/100/100 103/103/103
f 104/104/104 105/105/105 97/97/97
f 103/103/103 106/106/106 104/104/104
f 105/105/105 104/104/104 107/107/107
f 106/106/106 108/108/108 104/104/104
f 104/104/104 108/108/108 107/107/107
f 111/111/111 110/110/110 109/109/109
f 110/110/110 112/112/112 109/109/109
f 113/113/113 112/112/112 110/110/110
f 114/114/114 113/113/113 110/110/110
f 117/117/117 116/116/116 115/115/115
f 118/118/118 117/117/117 115/115/115
f 118/118/118 115/115/115 119/119/119
f 120/120/120 117/117/117 118/118/118
f 121/121/121 118/118/118 119/119/119
f 122/122/122 120/120/120 118/118/118
f 118/118/118 121/121/121 123/123/123
f 122/122/122 118/118/118 123/123/123
f 126/126/126 125/125/125 124/124/124
f 127/127/127 126/126/126 124/124/124
f 127/127/127 124/124/124 128/128/128
f 126/126/126 129/129/129 125/125/125
f 129/129/129 130/130/130 125/125/125
f 130/130/130 129/129/129 131/131/131
f 131/131/131 129/129/129 126/126/126
f 132/132/132 130/130/130 131/131/131
f 131/131/131 133/133/133 132/132/132
f 133/133/133 131/131/131 126/126/126
f 133/133/133 134/134/134 132/132/132
f 133/133/133 135/135/135 134/134/134
f 135/135/135 133/133/133 126/126/126
f 135/135/135 136/136/136 134/134/134
f 137/137/137 135/135/135 126/126/126
f 136/136/136 135/135/135 137/137/137
f 137/137/137 126/126/126 127/127/127
f 138/138/138 136/136/136 137/137/137
f 138/138/138 137/137/137 139/139/139
f 127/127/127 139/139/139 137/137/137
f 140/140/140 138/138/138 139/139/139
f 140/140/140 139/139/139 141/141/141
f 139/139/139 127/127/127 141/141/141
f 142/142/142 140/140/140 141/141/141
f 127/127/127 143/143/143 141/141/141
f 143/143/143 127/127/127 128/128/128
f 143/143/143 128/128/128 144/144/144
f 142/142/142 141/141/141 145/145/145
f 141/141/141 143/143/143 145/145/145
f 146/146/146 142/142/142 145/145/145
f 147/147/147 143/143/143 144/144/144
f 143/143/143 147/147/147 145/145/145
f 147/147/147 144/144/144 148/148/148
f 149/149/149 147/147/147 148/148/148
f 147/147/147 149/149/149 145/145/145
f 149/149/149 148/148/148 150/150/150
f 146/146/146 145/145/145 151/151/151
f 149/149/149 151/151/151 145/145/145
f 152/152/152 146/146/146 151/151/151
f 152/152/152 151/151/151 153/153/153
f 151/151/151 149/149/149 153/153/153
f 154/154/154 152/152/152 153/153/153
f 155/155/155 149/149/149 150/150/150
f 149/149/149 155/155/155 153/153/153
f 155/155/155 150/150/150 156/156/156
f 154/154/154 153/153/153 157/157/157
f 153/153/153 155/155/155 157/157/157
f 158/158/158 154/154/154 157/157/157
f 159/159/159 155/155/155 156/156/156
f 155/155/155 159/159/159 157/157/157
f 156/156/156 160/160/160 159/159/159
f 160/160/160 161/161/161 159/159/159
f 159/159/159 161/161/161 157/157/157
f 160/160/160 162/162/162 161/161/161
f 157/157/157 163/163/163 158/158/158
f 161/161/161 163/163/163 157/157/157
f 163/163/163 164/164/164 158/158/158
f 163/163/163 165/165/165 164/164/164
f 165/165/165 163/163/163 161/161/161
f 165/165/165 166/166/166 164/164/164
f 162/162/162 167/167/167 161/161/161
f 167/167/167 165/165/165 161/161/161
f 162/162/162 168/168/168 167/167/167
f 168/168/168 169/169/169 167/167/167
f 168/168/168 170/170/170 169/169/169
f 165/165/165 171/171/171 166/166/166
f 171/171/171 165/165/165 167/167/167
f 169/169/169 171/171/171 167/167/167
f 171/171/171 172/172/172 166/166/166
f 171/171/171 173/173/173 172/172/172
f 173/173/173 171/171/171 169/169/169
f 173/173/173 174/174/174 172/172/172
f 173/173/173 175/175/175 174/174/174
f 175/175/175 173/173/173 169/169/169
f 175/175/175 176/176/176 174/174/174
f 176/176/176 175/175/175 177/177/177
f 177/177/177 175/175/175 169/169/169
f 178/178/178 176/176/176 177/177/177
f 170/170/170 179/179/179 169/169/169
f 177/177/177 169/169/169 179/179/179
f 170/170/170 180/180/180 179/179/179
f 180/180/180 181/181/181 179/179/179
f 177/177/177 179/179/179 181/181/181
f 181/181/181 180/180/180 182/182/182
f 178/178/178 177/177/177 183/183/183
f 182/182/182 178/178/178 183/183/183
f 181/181/181 183/183/183 177/177/177
f 183/183/183 181/181/181 182/182/182
