g pCylinder15
v 231.35187 -5.757403 -46.01873
v 231.35187 5.7574015 -46.01873
v 217.92871 -5.757403 -90.26902
v 217.92871 5.7574015 -90.26902
v 196.13069 -5.757403 -131.05034
v 196.13069 5.7574015 -131.05034
v 166.79547 -5.757403 -166.79547
v 166.79547 5.7574015 -166.79547
v 131.05037 -5.757403 -196.13074
v 131.05037 5.7574015 -196.13074
v 90.26908 -5.757403 -217.92882
v 90.26908 5.7574015 -217.92882
v 46.01879 -5.757403 -231.35205
v 46.01879 5.7574015 -231.35205
v 2.1089734E-05 -5.757403 -235.8845
v 2.1089734E-05 5.7574015 -235.8845
v -46.01875 -5.757403 -231.35208
v -46.01875 5.7574015 -231.35208
v -90.26906 -5.757403 -217.92892
v -90.26906 5.7574015 -217.92892
v -131.05038 -5.757403 -196.13087
v -131.05038 5.7574015 -196.13087
v -166.79552 -5.757403 -166.79564
v -166.79552 5.7574015 -166.79564
v -196.13081 -5.757403 -131.05055
v -196.13081 5.7574015 -131.05055
v -217.92892 -5.757403 -90.26925
v -217.92892 5.7574015 -90.26925
v -231.35211 -5.757403 -46.01894
v -231.35211 5.7574015 -46.01894
v -235.88457 -5.757403 -0.00015465805
v -235.88457 5.7574015 -0.00015465805
v -231.35216 -5.757403 46.018635
v -231.35216 5.7574015 46.018635
v -217.929 -5.757403 90.26896
v -217.929 5.7574015 90.26896
v -196.13095 -5.757403 131.0503
v -196.13095 5.7574015 131.0503
v -166.7957 -5.757403 166.79544
v -166.7957 5.7574015 166.79544
v -131.05057 -5.757403 196.13072
v -131.05057 5.7574015 196.13072
v -90.26925 -5.757403 217.92882
v -90.26925 5.7574015 217.92882
v -46.018925 -5.757403 231.35202
v -46.018925 5.7574015 231.35202
v -0.00012302343 -5.757403 235.8845
v -0.00012302343 5.7574015 235.8845
v 46.018684 -5.757403 231.35208
v 46.018684 5.7574015 231.35208
v 90.26901 -5.757403 217.9289
v 90.26901 5.7574015 217.9289
v 131.05035 -5.757403 196.13083
v 131.05035 5.7574015 196.13083
v 166.79552 -5.757403 166.79558
v 166.79552 5.7574015 166.79556
v 196.13081 -5.757403 131.05042
v 196.13081 5.7574015 131.05042
v 217.92892 -5.757403 90.26907
v 217.92892 5.7574015 90.26907
v 231.35213 -5.757403 46.018738
v 231.35213 5.7574015 46.018738
v 235.88458 -5.757403 -7.7329016E-05
v 235.88458 5.7574015 -7.7329016E-05
v 231.35187 -5.757403 -46.01873
v 231.35187 5.7574015 -46.01873
vt 0.375 0.53199726
vt 0.375 0.54314965
vt 0.3828125 0.53199726
vt 0.3828125 0.54314965
vt 0.390625 0.53199726
vt 0.390625 0.54314965
vt 0.3984375 0.53199726
vt 0.3984375 0.54314965
vt 0.40625 0.53199726
vt 0.40625 0.54314965
vt 0.4140625 0.53199726
vt 0.4140625 0.54314965
vt 0.421875 0.53199726
vt 0.421875 0.54314965
vt 0.4296875 0.53199726
vt 0.4296875 0.54314965
vt 0.4375 0.53199726
vt 0.4375 0.54314965
vt 0.4453125 0.53199726
vt 0.4453125 0.54314965
vt 0.453125 0.53199726
vt 0.453125 0.54314965
vt 0.4609375 0.53199726
vt 0.4609375 0.54314965
vt 0.46875 0.53199726
vt 0.46875 0.54314965
vt 0.4765625 0.53199726
vt 0.4765625 0.54314965
vt 0.484375 0.53199726
vt 0.484375 0.54314965
vt 0.4921875 0.53199726
vt 0.4921875 0.54314965
vt 0.5 0.53199726
vt 0.5 0.54314965
vt 0.5078125 0.53199726
vt 0.5078125 0.54314965
vt 0.515625 0.53199726
vt 0.515625 0.54314965
vt 0.5234375 0.53199726
vt 0.5234375 0.54314965
vt 0.53125 0.53199726
vt 0.53125 0.54314965
vt 0.5390625 0.53199726
vt 0.5390625 0.54314965
vt 0.546875 0.53199726
vt 0.546875 0.54314965
vt 0.5546875 0.53199726
vt 0.5546875 0.54314965
vt 0.5625 0.53199726
vt 0.5625 0.54314965
vt 0.5703125 0.53199726
vt 0.5703125 0.54314965
vt 0.578125 0.53199726
vt 0.578125 0.54314965
vt 0.5859375 0.53199726
vt 0.5859375 0.54314965
vt 0.59375 0.53199726
vt 0.59375 0.54314965
vt 0.6015625 0.53199726
vt 0.6015625 0.54314965
vt 0.609375 0.53199726
vt 0.609375 0.54314965
vt 0.6171875 0.53199726
vt 0.6171875 0.54314965
vt 0.625 0.53199726
vt 0.625 0.54314965
vn 0.98078465 0 -0.19509326
vn 0.98078465 0 -0.19509326
vn 0.92387974 0 -0.38268295
vn 0.92387974 0 -0.38268298
vn 0.83147025 0 -0.5555691
vn 0.8314702 0 -0.55556935
vn 0.70710653 0 -0.707107
vn 0.7071064 0 -0.70710707
vn 0.5555708 0 -0.8314692
vn 0.5555709 0 -0.8314691
vn 0.38268363 0 -0.92387944
vn 0.3826838 0 -0.92387944
vn 0.19509098 0 -0.98078513
vn 0.19509105 0 -0.98078513
vn 3.791929E-07 0 -1
vn 3.6980683E-07 0 -1
vn -0.19508974 0 -0.98078537
vn -0.19508964 0 -0.9807854
vn -0.38268274 0 -0.9238798
vn -0.3826827 0 -0.9238798
vn -0.55556965 0 -0.83147
vn -0.5555697 0 -0.83146995
vn -0.70710593 0 -0.70710754
vn -0.70710605 0 -0.70710754
vn -0.8314691 0 -0.555571
vn -0.8314691 0 -0.555571
vn -0.9238795 0 -0.38268355
vn -0.92387944 0 -0.3826836
vn -0.98078525 0 -0.19509026
vn -0.98078537 0 -0.19509025
vn -1 0 -5.669116E-07
vn -1 0 -5.936615E-07
vn -0.9807854 0 0.19508949
vn -0.9807854 0 0.1950895
vn -0.9238798 0 0.3826828
vn -0.9238798 0 0.3826828
vn -0.8314704 0 0.5555691
vn -0.83147025 0 0.5555692
vn -0.7071066 0 0.7071069
vn -0.7071066 0 0.7071069
vn -0.5555704 0 0.8314695
vn -0.5555705 0 0.8314695
vn -0.382684 0 0.9238793
vn -0.38268408 0 0.9238793
vn -0.19509111 0 0.98078513
vn -0.19509095 0 0.98078513
vn -4.3926246E-07 0 1
vn -3.6933707E-07 0 1
vn 0.19508971 0 0.98078537
vn 0.1950898 0 0.98078537
vn 0.38268343 0 0.9238795
vn 0.38268366 0 0.92387944
vn 0.55557036 0 0.83146954
vn 0.55557036 1.17281196E-07 0.8314695
vn 0.7071066 1.2835044E-06 0.70710695
vn 0.7071066 1.3004302E-06 0.70710695
vn 0.83146936 1.00355614E-07 0.55557054
vn 0.83146936 0 0.55557054
vn 0.92387944 0 0.38268363
vn 0.92387944 0 0.38268355
vn 0.98078537 0 0.1950902
vn 0.98078537 0 0.19509013
vn 1 0 -2.8270524E-06
vn 1 0 -2.8204827E-06
vn 0.98078465 0 -0.19509326
vn 0.98078465 0 -0.19509326
g pCylinder15_0
f 3/3/3 2/2/2 1/1/1
f 3/3/3 4/4/4 2/2/2
f 5/5/5 4/4/4 3/3/3
f 5/5/5 6/6/6 4/4/4
f 7/7/7 6/6/6 5/5/5
f 7/7/7 8/8/8 6/6/6
f 9/9/9 8/8/8 7/7/7
f 9/9/9 10/10/10 8/8/8
f 11/11/11 10/10/10 9/9/9
f 11/11/11 12/12/12 10/10/10
f 13/13/13 12/12/12 11/11/11
f 13/13/13 14/14/14 12/12/12
f 15/15/15 14/14/14 13/13/13
f 15/15/15 16/16/16 14/14/14
f 17/17/17 16/16/16 15/15/15
f 17/17/17 18/18/18 16/16/16
f 19/19/19 18/18/18 17/17/17
f 19/19/19 20/20/20 18/18/18
f 21/21/21 20/20/20 19/19/19
f 21/21/21 22/22/22 20/20/20
f 23/23/23 22/22/22 21/21/21
f 23/23/23 24/24/24 22/22/22
f 25/25/25 24/24/24 23/23/23
f 25/25/25 26/26/26 24/24/24
f 27/27/27 26/26/26 25/25/25
f 27/27/27 28/28/28 26/26/26
f 29/29/29 28/28/28 27/27/27
f 29/29/29 30/30/30 28/28/28
f 31/31/31 30/30/30 29/29/29
f 31/31/31 32/32/32 30/30/30
f 33/33/33 32/32/32 31/31/31
f 33/33/33 34/34/34 32/32/32
f 35/35/35 34/34/34 33/33/33
f 35/35/35 36/36/36 34/34/34
f 37/37/37 36/36/36 35/35/35
f 37/37/37 38/38/38 36/36/36
f 39/39/39 38/38/38 37/37/37
f 39/39/39 40/40/40 38/38/38
f 41/41/41 40/40/40 39/39/39
f 41/41/41 42/42/42 40/40/40
f 43/43/43 42/42/42 41/41/41
f 43/43/43 44/44/44 42/42/42
f 45/45/45 44/44/44 43/43/43
f 45/45/45 46/46/46 44/44/44
f 47/47/47 46/46/46 45/45/45
f 47/47/47 48/48/48 46/46/46
f 49/49/49 48/48/48 47/47/47
f 49/49/49 50/50/50 48/48/48
f 51/51/51 50/50/50 49/49/49
f 51/51/51 52/52/52 50/50/50
f 53/53/53 52/52/52 51/51/51
f 53/53/53 54/54/54 52/52/52
f 55/55/55 54/54/54 53/53/53
f 55/55/55 56/56/56 54/54/54
f 57/57/57 56/56/56 55/55/55
f 57/57/57 58/58/58 56/56/56
f 59/59/59 58/58/58 57/57/57
f 59/59/59 60/60/60 58/58/58
f 61/61/61 60/60/60 59/59/59
f 61/61/61 62/62/62 60/60/60
f 63/63/63 62/62/62 61/61/61
f 63/63/63 64/64/64 62/62/62
f 65/65/65 64/64/64 63/63/63
f 65/65/65 66/66/66 64/64/64
