g Petal14
v -0.0023211334 -0.027073173 -0.06133526
v -0.022428002 -0.045476798 -0.051161613
v -0.02079122 -0.04616993 -0.053036947
v -0.05100551 -0.04467655 -0.020555215
v 0.00033081547 -0.02705715 -0.06317714
v 0.006554799 -0.02847515 -0.06278353
v 0.026313433 0.006983528 -0.058239143
v 0.031687245 0.008305244 -0.060578745
v 0.04717774 0.024736518 -0.042611875
v 0.040598378 0.021458779 -0.04311212
v 0.0396921 0.007265892 -0.05925589
v -0.052219022 -0.046380118 -0.020200716
v -0.058503058 -0.02781002 0.015661301
v -0.055952925 -0.027175406 0.012378668
v -0.05292334 -0.0028530501 0.029370848
v -0.051850293 -0.052112844 -0.017959686
v -0.01679216 -0.048850365 -0.052595176
v -0.055636138 -0.0024612045 0.03358361
v -0.057270084 -0.003481102 0.040009223
v -0.041394703 0.033067435 0.04007043
v -0.05905457 -0.031596184 0.02085204
v -0.048746586 -0.055976674 -0.015067247
v -0.044199612 0.03613804 0.044816207
v -0.028618874 0.055062827 0.048992634
v -0.028248677 0.048973348 0.04301611
v -0.013642959 -0.052030906 -0.047878876
v -0.05546891 -0.03571316 0.02386715
v -0.044952944 0.037060585 0.051923223
v -0.04335908 -0.056468084 -0.011301355
v 0.0114592025 -0.031581383 -0.05794998
v -0.012028036 -0.05296726 -0.040639155
v -0.033103634 -0.054139975 -0.004915063
v -0.04894938 -0.03783596 0.02384896
v -0.054435328 -0.0063049695 0.04393454
v -0.04111353 0.032455176 0.05595044
v 0.044017203 0.002031517 -0.05355737
v 0.012963638 -0.03423664 -0.050044086
v -0.010085435 -0.051773414 -0.028162688
v 0.043451276 -0.003250923 -0.04524681
v 0.010903516 -0.035792656 -0.037902147
v 0.007456665 -0.03513958 -0.021728834
v -0.008115697 -0.048510857 -0.016814243
v 0.035493016 -0.0062537002 -0.034086116
v 0.049720395 0.007568092 -0.015852967
v 0.058414977 0.01227497 -0.023472847
v 0.055842195 0.016600074 -0.00059135375
v 0.05905457 0.018119697 -0.029805535
v 0.05546446 0.024599342 -0.03707581
v 0.058984503 0.02215435 -0.00445151
v 0.055868514 0.027779197 -0.01173192
v -0.017947674 -0.042874336 0.0048835133
v 0.023268456 -0.006747627 -0.01689469
v 0.0023010685 -0.0010855484 0.014726648
v 0.046180546 0.028493384 -0.0216683
v -0.008429008 -0.0272443 0.011196771
v -0.02688155 -0.018168373 0.031288423
v -0.029012064 -0.038053244 0.019105153
v -0.03856969 -0.038913384 0.021650769
v -0.04811251 -0.009670906 0.043989573
v -0.03841905 -0.0136968605 0.03921756
v -0.03499899 0.025602607 0.05580983
v -0.027100824 0.017725715 0.049374897
v -0.012470293 0.028685264 0.05549651
v -0.015853763 0.008994026 0.03636404
v -0.018107757 0.038157996 0.06266264
v -0.00023147091 0.038878057 0.06276015
v -0.022477904 0.047538184 0.06317714
v -0.026697364 0.056468084 0.058464877
v -0.002214589 0.045956153 0.062739134
v -0.0059226463 0.054147832 0.056318816
v -0.0038984155 0.018910026 0.041853618
v -0.011922564 0.053952523 0.04489061
v 0.02599606 0.039929923 0.034710772
v 0.029948086 0.034915887 0.04072104
v 0.016819566 0.041054036 0.022274017
v 0.012929024 0.0109453965 0.022617318
v 0.00395216 0.021572761 0.046153042
v 0.0018666316 0.029988442 0.0559768
v 0.026731104 0.022476692 0.038017645
v 0.029030042 0.029223595 0.04022581
v 0.012692861 0.036820717 0.016966453
v 0.021524481 0.015344123 0.031511944
v 0.051198963 0.01266201 0.0029351448
v 0.04216411 0.008033103 0.0065248464
v 0.035369515 0.0050233076 -0.0035351599
v 0.039644778 0.024908485 -0.025377827
v 0.034418903 0.01689785 -0.041623615
v 0.026313433 0.006983528 -0.058239143
v 0.007845663 0.027953148 0.011766684
v 0.031823087 0.017776297 -0.028571924
v -0.014600239 0.04828739 0.038884167
v -0.026637163 0.041959494 0.037638713
v -0.041394703 0.033067435 0.04007043
v -0.017131386 0.038997535 0.032959666
v -0.0019640252 0.011923255 0.004121003
v 0.018707294 0.001611824 -0.03698614
v 0.0218895 0.0037795638 -0.05159954
v -0.025454909 0.022947425 0.026650548
v -0.035919335 0.028270148 0.034257036
v -0.0047016665 -0.02732296 -0.056370404
v -0.0023211334 -0.027073173 -0.06133526
v -0.0066839457 -0.027341804 -0.044248834
v -0.019594025 -0.016022606 -0.004528656
v -0.04819426 -0.0042985915 0.02456986
v -0.05292334 -0.0028530501 0.029370848
v -0.039381456 -0.007053795 0.017742822
v -0.02394914 -0.04415157 -0.04729404
v -0.022428002 -0.045476798 -0.051161613
v -0.05100551 -0.04467655 -0.020555215
v -0.03463732 -0.03243252 -0.013409159
v -0.025191396 -0.042427026 -0.040860616
v -0.051972076 -0.027238272 0.008586609
v -0.055952925 -0.027175406 0.012378668
v -0.0467381 -0.027484702 0.0038689612
v -0.049025264 -0.043475762 -0.020711841
v -0.046165492 -0.04208805 -0.020890264
v -0.042782202 -0.039726827 -0.01947373
vt 0.84307677 0.32122645
vt 0.88338196 0.3151643
vt 0.87744606 0.31591374
vt 0.9572116 0.2810286
vt 0.83866435 0.31710687
vt 0.8339773 0.30780706
vt 0.7645571 0.28596294
vt 0.7624537 0.27662542
vt 0.7426675 0.22581755
vt 0.73686516 0.2313233
vt 0.7640078 0.265522
vt 0.9563847 0.2786462
vt 0.97441494 0.1986408
vt 0.9785386 0.20407593
vt 0.9639388 0.1343329
vt 0.95145714 0.27295282
vt 0.8750367 0.3107688
vt 0.95647955 0.13428074
vt 0.9475632 0.13620591
vt 0.90071726 0.07077214
vt 0.9665442 0.19554815
vt 0.9457034 0.2676418
vt 0.89253795 0.07432845
vt 0.8400835 0.070025176
vt 0.83661556 0.061710805
vt 0.87676775 0.30154237
vt 0.9581822 0.19681555
vt 0.8871113 0.081162155
vt 0.93886364 0.26119497
vt 0.83449364 0.2972856
vt 0.8802587 0.29102442
vt 0.9261651 0.24957237
vt 0.94904464 0.19979244
vt 0.94147444 0.14071873
vt 0.8866404 0.09176615
vt 0.7731153 0.25774917
vt 0.8390298 0.2867422
vt 0.8851165 0.27359834
vt 0.78520054 0.2515585
vt 0.84837985 0.27277687
vt 0.86049086 0.2534341
vt 0.8875385 0.25730944
vt 0.8033138 0.24402414
vt 0.79044366 0.21291815
vt 0.77452374 0.2146932
vt 0.785527 0.19207858
vt 0.76368177 0.21610944
vt 0.751048 0.21831328
vt 0.776415 0.19159298
vt 0.7644663 0.19198218
vt 0.90602314 0.22893478
vt 0.8271078 0.22723888
vt 0.8607294 0.18655053
vt 0.747715 0.19477935
vt 0.88891864 0.21016617
vt 0.911454 0.17695993
vt 0.92157406 0.20792894
vt 0.9349346 0.2046834
vt 0.9346303 0.14809129
vt 0.92443895 0.16077012
vt 0.88711125 0.10561451
vt 0.88671285 0.12460491
vt 0.86178845 0.1194403
vt 0.8802237 0.15073943
vt 0.8578341 0.10339922
vt 0.84071374 0.1129982
vt 0.85223544 0.091524094
vt 0.84477127 0.079589725
vt 0.836656 0.10542911
vt 0.8289697 0.094528124
vt 0.8598068 0.14267002
vt 0.81839955 0.08206537
vt 0.797413 0.13142096
vt 0.8073383 0.13756439
vt 0.7798568 0.1234092
vt 0.84306556 0.17155096
vt 0.8476564 0.13920484
vt 0.84443593 0.12477857
vt 0.82005906 0.14970253
vt 0.81301636 0.14281437
vt 0.77010703 0.12168416
vt 0.8297086 0.16018797
vt 0.793875 0.19136424
vt 0.8066606 0.19055757
vt 0.8134739 0.2042588
vt 0.7381773 0.19541357
vt 0.72510827 0.21814673
vt 0.69565403 0.22315383
vt 0.755993 0.11952452
vt 0.72612274 0.19343184
vt 0.8101251 0.077321485
vt 0.8112445 0.061819166
vt 0.7939224 0.03882441
vt 0.79455113 0.0744202
vt 0.7304784 0.11403833
vt 0.6978699 0.18649329
vt 0.69331455 0.20949645
vt 0.7654786 0.06593047
vt 0.78162134 0.04857573
vt 0.63892806 0.17549893
vt 0.6368145 0.18394263
vt 0.6475916 0.15819044
vt 0.686 0.099505976
vt 0.7191627 0.036871314
vt 0.7239666 0.027052104
vt 0.7116373 0.05375147
vt 0.6170228 0.13796695
vt 0.61314756 0.14376257
vt 0.62379354 0.07658266
vt 0.653218 0.08964065
vt 0.6240175 0.1297176
vt 0.6716548 0.046338648
vt 0.6733099 0.037798956
vt 0.66949666 0.05739063
vt 0.6261204 0.07921189
vt 0.62919503 0.08293658
vt 0.6351154 0.08568914
vn -0.68867904 0.5660691 -0.45308608
vn -0.6935321 0.47292745 -0.54346377
vn -0.5093389 -0.3712507 -0.7763677
vn -0.61798406 0.6044843 -0.5026873
vn -0.18833688 0.034930736 -0.98148304
vn 0.27740845 -0.3383639 -0.8991965
vn -0.5955701 0.6692127 -0.44435424
vn -0.013413528 0.3524881 -0.9357202
vn 0.08283625 0.84979796 -0.52055883
vn -0.49074367 0.8279916 -0.2712941
vn 0.5333683 -0.012429911 -0.8457917
vn -0.8809913 -0.16633238 -0.442931
vn -0.9617381 0.1425262 -0.23397876
vn -0.6407948 0.5501331 -0.5354769
vn -0.6266175 0.43198815 -0.64864224
vn -0.76221216 -0.5818472 -0.28370148
vn -0.16235359 -0.6812715 -0.71379995
vn -0.89698094 0.3177491 -0.30734447
vn -0.9591679 0.089645796 0.2682549
vn -0.5764801 0.4479486 -0.6833832
vn -0.9600794 -0.24756978 0.13021804
vn -0.42978683 -0.90182585 -0.044647474
vn -0.8165485 0.48299447 -0.31617203
vn -0.40049788 0.8742685 -0.2743285
vn -0.35359097 0.6061342 -0.7124429
vn 0.095698535 -0.89570034 -0.434238
vn -0.5793191 -0.6380805 0.5071909
vn -0.8507337 0.37297717 0.37032446
vn -0.046335056 -0.97877854 0.19961339
vn 0.55336654 -0.60972863 -0.56746495
vn 0.32091102 -0.94343245 -0.08337459
vn 0.16548294 -0.93111855 0.32501346
vn -0.098085195 -0.7576058 0.6453005
vn -0.5169041 -0.254213 0.8174264
vn -0.482182 -0.02214057 0.87579125
vn 0.7493047 -0.37761357 -0.54401326
vn 0.67218196 -0.7340321 -0.09679062
vn 0.41536078 -0.90200853 0.11771145
vn 0.74073905 -0.6649695 -0.0955047
vn 0.6984825 -0.6903232 0.18861625
vn 0.72384614 -0.5552093 0.40962106
vn 0.5543561 -0.7543083 0.351722
vn 0.64668727 -0.7195107 0.25317964
vn 0.51722956 -0.82530296 0.22660215
vn 0.8013534 -0.59681046 0.04062212
vn 0.8197052 -0.363508 0.44265708
vn 0.9651743 -0.0585922 -0.2549618
vn 0.7033039 0.55367 -0.44588473
vn 0.8744211 0.4004612 0.27389488
vn 0.4777469 0.8779869 -0.029949745
vn 0.5070391 -0.6995802 0.50348675
vn 0.6400484 -0.6294097 0.44066027
vn 0.5895052 -0.5550956 0.5868154
vn 0.037778705 0.97480583 -0.21983245
vn 0.6660967 -0.4633761 0.5844638
vn 0.51882213 -0.4273156 0.7404222
vn 0.39209896 -0.6490931 0.6518717
vn 0.13991602 -0.74694246 0.6500004
vn 0.033183046 -0.44233176 0.8962375
vn 0.32528672 -0.46644148 0.8225697
vn -0.022887878 -0.35235694 0.9355858
vn 0.30355105 -0.4995355 0.8113699
vn 0.11376684 -0.6531894 0.74859905
vn 0.47364676 -0.5122098 0.7164495
vn -0.044625286 -0.33857554 0.9398805
vn 0.34307978 -0.25596333 0.90375835
vn -0.19320334 0.22995566 0.95383066
vn -0.3278359 0.81643605 0.47534794
vn 0.4345595 0.48313785 0.76008946
vn 0.34286666 0.913758 0.21791925
vn 0.21624944 -0.7697524 0.6005976
vn 0.13899018 0.94498307 -0.29612297
vn 0.45072898 0.889469 0.075420745
vn 0.7278593 0.45154646 0.51606834
vn 0.12485216 0.95823276 -0.25729725
vn 0.26486036 -0.84213924 0.46973443
vn 0.13058384 -0.81071997 0.5706846
vn 0.24695009 -0.61235046 0.7510276
vn 0.49314615 -0.57556593 0.65232706
vn 0.6715503 -0.25061077 0.6972908
vn -0.34451535 0.7482589 -0.56693715
vn 0.23333336 -0.84278685 0.48504212
vn 0.6057927 -0.66089976 0.44297463
vn 0.30460134 -0.870801 0.38590622
vn 0.35581127 -0.86271036 0.35934556
vn -0.4442786 0.79607266 -0.41095582
vn -0.6718193 0.728426 -0.13436666
vn -0.5955701 0.6692127 -0.44435424
vn -0.49370193 0.6307433 -0.5986829
vn -0.5916278 0.68355006 -0.4274762
vn -0.21602228 0.6939537 -0.68684983
vn -0.32691157 0.49687153 -0.80389524
vn -0.5764801 0.4479486 -0.6833832
vn -0.36109078 0.55107063 -0.75228626
vn -0.56996197 0.5924693 -0.56931853
vn -0.6659748 0.65047604 -0.3651827
vn -0.72374403 0.6753321 -0.1418492
vn -0.44643876 0.49293685 -0.74679685
vn -0.43877304 0.43115446 -0.7884061
vn -0.7297401 0.6596809 -0.17972371
vn -0.68867904 0.5660691 -0.45308608
vn -0.66378874 0.6621374 -0.34779114
vn -0.5862478 0.6116393 -0.5312353
vn -0.47744048 0.4639972 -0.7461617
vn -0.6266175 0.43198815 -0.64864224
vn -0.4785414 0.52119106 -0.70665264
vn -0.6131434 0.730523 -0.3006516
vn -0.6935321 0.47292745 -0.54346377
vn -0.61798406 0.6044843 -0.5026873
vn -0.5150341 0.70945877 -0.48104894
vn -0.5631782 0.73516154 -0.37731665
vn -0.4646634 0.6462359 -0.60536534
vn -0.6407948 0.5501331 -0.5354769
vn -0.44422993 0.67252004 -0.59192616
vn -0.42457455 0.7845191 -0.45195845
vn -0.37490308 0.8206418 -0.4312711
vn -0.38117906 0.80598676 -0.4528663
g Petal14_0
f 3/3/3 2/2/2 1/1/1
f 4/4/4 2/2/2 3/3/3
f 5/5/5 3/3/3 1/1/1
f 5/5/5 6/6/6 3/3/3
f 5/5/5 1/1/1 7/7/7
f 8/8/8 5/5/5 7/7/7
f 5/5/5 8/8/8 6/6/6
f 8/8/8 7/7/7 9/9/9
f 7/7/7 10/10/10 9/9/9
f 8/8/8 11/11/11 6/6/6
f 11/11/11 8/8/8 9/9/9
f 12/12/12 4/4/4 3/3/3
f 4/4/4 12/12/12 13/13/13
f 14/14/14 4/4/4 13/13/13
f 14/14/14 13/13/13 15/15/15
f 16/16/16 12/12/12 3/3/3
f 12/12/12 16/16/16 13/13/13
f 6/6/6 17/17/17 3/3/3
f 17/17/17 16/16/16 3/3/3
f 13/13/13 18/18/18 15/15/15
f 19/19/19 18/18/18 13/13/13
f 15/15/15 18/18/18 20/20/20
f 16/16/16 21/21/21 13/13/13
f 21/21/21 19/19/19 13/13/13
f 22/22/22 16/16/16 17/17/17
f 16/16/16 22/22/22 21/21/21
f 18/18/18 23/23/23 20/20/20
f 23/23/23 18/18/18 19/19/19
f 20/20/20 23/23/23 24/24/24
f 25/25/25 20/20/20 24/24/24
f 26/26/26 17/17/17 6/6/6
f 26/26/26 22/22/22 17/17/17
f 22/22/22 27/27/27 21/21/21
f 21/21/21 27/27/27 19/19/19
f 23/23/23 28/28/28 24/24/24
f 28/28/28 23/23/23 19/19/19
f 29/29/29 22/22/22 26/26/26
f 22/22/22 29/29/29 27/27/27
f 30/30/30 26/26/26 6/6/6
f 31/31/31 29/29/29 26/26/26
f 31/31/31 26/26/26 30/30/30
f 32/32/32 29/29/29 31/31/31
f 29/29/29 33/33/33 27/27/27
f 29/29/29 32/32/32 33/33/33
f 27/27/27 34/34/34 19/19/19
f 27/27/27 33/33/33 34/34/34
f 28/28/28 19/19/19 35/35/35
f 19/19/19 34/34/34 35/35/35
f 30/30/30 6/6/6 36/36/36
f 6/6/6 11/11/11 36/36/36
f 37/37/37 31/31/31 30/30/30
f 38/38/38 32/32/32 31/31/31
f 31/31/31 37/37/37 38/38/38
f 39/39/39 37/37/37 30/30/30
f 36/36/36 39/39/39 30/30/30
f 37/37/37 40/40/40 38/38/38
f 40/40/40 37/37/37 39/39/39
f 38/38/38 40/40/40 41/41/41
f 32/32/32 38/38/38 42/42/42
f 42/42/42 38/38/38 41/41/41
f 43/43/43 40/40/40 39/39/39
f 40/40/40 43/43/43 41/41/41
f 43/43/43 39/39/39 44/44/44
f 45/45/45 39/39/39 36/36/36
f 39/39/39 45/45/45 44/44/44
f 45/45/45 46/46/46 44/44/44
f 47/47/47 45/45/45 36/36/36
f 45/45/45 47/47/47 46/46/46
f 47/47/47 36/36/36 11/11/11
f 48/48/48 47/47/47 11/11/11
f 48/48/48 11/11/11 9/9/9
f 47/47/47 48/48/48 49/49/49
f 47/47/47 49/49/49 46/46/46
f 48/48/48 9/9/9 50/50/50
f 48/48/48 50/50/50 49/49/49
f 51/51/51 42/42/42 41/41/41
f 51/51/51 32/32/32 42/42/42
f 43/43/43 44/44/44 52/52/52
f 43/43/43 52/52/52 41/41/41
f 52/52/52 53/53/53 41/41/41
f 9/9/9 54/54/54 50/50/50
f 9/9/9 10/10/10 54/54/54
f 55/55/55 51/51/51 41/41/41
f 53/53/53 55/55/55 41/41/41
f 51/51/51 55/55/55 56/56/56
f 55/55/55 53/53/53 56/56/56
f 32/32/32 51/51/51 57/57/57
f 57/57/57 51/51/51 56/56/56
f 58/58/58 32/32/32 57/57/57
f 58/58/58 57/57/57 56/56/56
f 32/32/32 58/58/58 33/33/33
f 59/59/59 33/33/33 58/58/58
f 33/33/33 59/59/59 34/34/34
f 60/60/60 59/59/59 58/58/58
f 60/60/60 58/58/58 56/56/56
f 59/59/59 61/61/61 34/34/34
f 59/59/59 60/60/60 61/61/61
f 61/61/61 35/35/35 34/34/34
f 62/62/62 60/60/60 56/56/56
f 60/60/60 62/62/62 61/61/61
f 61/61/61 62/62/62 63/63/63
f 64/64/64 62/62/62 56/56/56
f 53/53/53 64/64/64 56/56/56
f 63/63/63 62/62/62 64/64/64
f 61/61/61 65/65/65 35/35/35
f 65/65/65 61/61/61 63/63/63
f 66/66/66 65/65/65 63/63/63
f 65/65/65 67/67/67 35/35/35
f 67/67/67 65/65/65 66/66/66
f 35/35/35 67/67/67 28/28/28
f 67/67/67 68/68/68 28/28/28
f 28/28/28 68/68/68 24/24/24
f 68/68/68 67/67/67 69/69/69
f 69/69/69 67/67/67 66/66/66
f 24/24/24 68/68/68 70/70/70
f 70/70/70 68/68/68 69/69/69
f 71/71/71 64/64/64 53/53/53
f 71/71/71 63/63/63 64/64/64
f 72/72/72 24/24/24 70/70/70
f 25/25/25 24/24/24 72/72/72
f 73/73/73 70/70/70 69/69/69
f 74/74/74 69/69/69 66/66/66
f 74/74/74 73/73/73 69/69/69
f 75/75/75 72/72/72 70/70/70
f 73/73/73 75/75/75 70/70/70
f 76/76/76 71/71/71 53/53/53
f 63/63/63 71/71/71 77/77/77
f 71/71/71 76/76/76 77/77/77
f 78/78/78 66/66/66 63/63/63
f 78/78/78 63/63/63 77/77/77
f 78/78/78 79/79/79 66/66/66
f 79/79/79 78/78/78 77/77/77
f 80/80/80 74/74/74 66/66/66
f 79/79/79 80/80/80 66/66/66
f 74/74/74 80/80/80 46/46/46
f 80/80/80 79/79/79 46/46/46
f 73/73/73 74/74/74 49/49/49
f 49/49/49 74/74/74 46/46/46
f 50/50/50 73/73/73 49/49/49
f 75/75/75 73/73/73 50/50/50
f 54/54/54 75/75/75 50/50/50
f 81/81/81 75/75/75 54/54/54
f 75/75/75 81/81/81 72/72/72
f 82/82/82 79/79/79 77/77/77
f 76/76/76 82/82/82 77/77/77
f 79/79/79 83/83/83 46/46/46
f 46/46/46 83/83/83 44/44/44
f 79/79/79 82/82/82 84/84/84
f 83/83/83 79/79/79 84/84/84
f 82/82/82 76/76/76 84/84/84
f 44/44/44 83/83/83 84/84/84
f 76/76/76 85/85/85 84/84/84
f 85/85/85 44/44/44 84/84/84
f 85/85/85 76/76/76 53/53/53
f 44/44/44 85/85/85 52/52/52
f 52/52/52 85/85/85 53/53/53
f 86/86/86 81/81/81 54/54/54
f 10/10/10 86/86/86 54/54/54
f 86/86/86 10/10/10 87/87/87
f 10/10/10 88/88/88 87/87/87
f 81/81/81 86/86/86 89/89/89
f 90/90/90 86/86/86 87/87/87
f 86/86/86 90/90/90 89/89/89
f 91/91/91 81/81/81 89/89/89
f 81/81/81 91/91/91 72/72/72
f 91/91/91 25/25/25 72/72/72
f 25/25/25 91/91/91 92/92/92
f 93/93/93 25/25/25 92/92/92
f 94/94/94 91/91/91 89/89/89
f 91/91/91 94/94/94 92/92/92
f 89/89/89 90/90/90 95/95/95
f 94/94/94 89/89/89 95/95/95
f 96/96/96 90/90/90 87/87/87
f 90/90/90 96/96/96 95/95/95
f 88/88/88 97/97/97 87/87/87
f 97/97/97 96/96/96 87/87/87
f 94/94/94 98/98/98 92/92/92
f 98/98/98 94/94/94 95/95/95
f 99/99/99 93/93/93 92/92/92
f 98/98/98 99/99/99 92/92/92
f 100/100/100 97/97/97 88/88/88
f 101/101/101 100/100/100 88/88/88
f 102/102/102 96/96/96 97/97/97
f 100/100/100 102/102/102 97/97/97
f 103/103/103 95/95/95 96/96/96
f 95/95/95 103/103/103 98/98/98
f 102/102/102 103/103/103 96/96/96
f 99/99/99 104/104/104 93/93/93
f 104/104/104 105/105/105 93/93/93
f 98/98/98 106/106/106 99/99/99
f 103/103/103 106/106/106 98/98/98
f 106/106/106 104/104/104 99/99/99
f 107/107/107 100/100/100 101/101/101
f 108/108/108 107/107/107 101/101/101
f 108/108/108 109/109/109 107/107/107
f 103/103/103 102/102/102 110/110/110
f 106/106/106 103/103/103 110/110/110
f 102/102/102 100/100/100 111/111/111
f 100/100/100 107/107/107 111/111/111
f 102/102/102 111/111/111 110/110/110
f 104/104/104 112/112/112 105/105/105
f 112/112/112 113/113/113 105/105/105
f 109/109/109 113/113/113 112/112/112
f 104/104/104 106/106/106 114/114/114
f 114/114/114 106/106/106 110/110/110
f 112/112/112 104/104/104 114/114/114
f 109/109/109 115/115/115 107/107/107
f 115/115/115 109/109/109 112/112/112
f 115/115/115 116/116/116 107/107/107
f 116/116/116 115/115/115 112/112/112
f 116/116/116 111/111/111 107/107/107
f 114/114/114 116/116/116 112/112/112
f 114/114/114 110/110/110 117/117/117
f 110/110/110 111/111/111 117/117/117
f 116/116/116 114/114/114 117/117/117
f 111/111/111 116/116/116 117/117/117
