g polySurface42
v 1.5452154 2.603931 9.579798
v 1.5294006 2.6759567 9.579798
v 1.5294006 2.6759567 6.3162794
v 1.5452154 2.603931 6.3162794
v 1.5452154 2.603931 3.0957365
v 1.5294006 2.6759567 3.0957365
v 1.5452154 2.603931 -0.17792404
v 1.5294006 2.6759567 -0.17792404
v -1.5451999 2.603931 9.579798
v -1.5293851 2.6759567 6.3162794
v -1.5293851 2.6759567 9.579798
v -1.5451999 2.603931 6.3162794
v -1.5451999 2.603931 3.0957365
v -1.5293851 2.6759567 3.0957365
v -1.5451999 2.603931 -0.17792404
v -1.5293851 2.6759567 -0.17792404
v -1.685642 0.055687785 -0.16589105
v -1.5451999 -0.0058523417 1.4424038
v -1.5451999 -0.0058523417 -0.17792404
v -1.685642 0.055687785 1.3401234
v -1.5451999 1.345968 1.4424038
v -1.685642 1.2844279 -0.16589105
v -1.685642 1.2844279 1.3401234
v -1.5451999 1.345968 -0.17792404
v -1.685642 1.2844279 1.5445123
v -1.5451999 1.345968 3.0957365
v -1.685642 0.055687785 1.5445123
v -1.5451999 -0.0058523417 3.0957365
v -1.685642 1.2844279 4.5986567
v -1.5451999 1.345968 4.700937
v -1.685642 0.055687785 4.5986567
v -1.5451999 -0.0058523417 4.700937
v -1.685642 1.4061329 -0.07547176
v -1.685642 1.4061329 2.9932842
v -1.685642 2.5439377 -0.07547176
v -1.5451999 2.603931 -0.17792404
v -1.685642 2.5439377 2.9932842
v -1.5451999 2.603931 3.0957365
v -1.685642 2.5439377 3.197329
v -1.685642 1.4061329 3.197329
v -1.685642 2.5439377 6.214687
v -1.5451999 2.603931 6.3162794
v -1.685642 1.4061329 6.214687
v -1.5451999 1.345968 6.3162794
v -1.685642 1.2844279 4.8028736
v -1.685642 0.055687785 4.8028736
v -1.5451999 -0.0058523417 6.3162794
v -1.685642 1.2844279 7.84
v -1.5451999 1.345968 7.941765
v -1.685642 0.055687785 7.84
v -1.5451999 -0.0058523417 7.941765
v -1.685642 2.5439377 6.41856
v -1.685642 1.4061329 6.41856
v -1.685642 2.5439377 9.477518
v -1.5451999 2.603931 9.579798
v -1.685642 1.4061329 9.477518
v -1.5451999 1.345968 9.579798
v -1.685642 1.2844279 8.016713
v -1.685642 1.2844279 9.505022
v -1.685642 0.055687785 9.505022
v -1.5451999 -0.0058523417 9.579798
v -1.685642 0.055687785 8.016713
v 0.028199315 2.6759567 6.3162794
v -1.2741139 2.796287 6.362693
v -1.5293851 2.6759567 6.3162794
v -1.5293851 2.6759567 9.579798
v -0.06634557 2.796287 6.362693
v 0.028199315 2.6759567 9.579798
v -0.06634557 2.796287 9.533385
v -1.2741139 2.796287 9.533385
v 1.5294006 2.6759567 6.3162794
v 0.1227442 2.796287 6.362693
v 0.028199315 2.6759567 6.3162794
v 0.028199315 2.6759567 9.579798
v 1.4348557 2.796287 6.362693
v 1.5294006 2.6759567 9.579798
v 1.4348557 2.796287 9.533385
v 0.1227442 2.796287 9.533385
v 0.028199315 2.6759567 3.0957365
v -1.2741139 2.796287 3.1596832
v -1.5293851 2.6759567 3.0957365
v -1.5293851 2.6759567 6.3162794
v -0.06634557 2.796287 3.1596832
v 0.028199315 2.6759567 6.3162794
v -0.06634557 2.796287 6.252333
v -1.2741139 2.796287 6.252333
v 0.028199315 2.6759567 -0.17792404
v -1.2741139 2.796287 -0.13305819
v -1.5293851 2.6759567 -0.17792404
v -1.5293851 2.6759567 3.0957365
v -0.06634557 2.796287 -0.13305819
v 0.028199315 2.6759567 3.0957365
v -0.06634557 2.796287 3.0506988
v -1.2741139 2.796287 3.0506988
v 1.5294006 2.6759567 3.0957365
v 0.1227442 2.796287 3.1596832
v 0.028199315 2.6759567 3.0957365
v 0.028199315 2.6759567 6.3162794
v 1.4348557 2.796287 3.1596832
v 1.5294006 2.6759567 6.3162794
v 1.4348557 2.796287 6.252333
v 0.1227442 2.796287 6.252333
v 1.5294006 2.6759567 -0.17792404
v 0.1227442 2.796287 -0.13305819
v 0.028199315 2.6759567 -0.17792404
v 0.028199315 2.6759567 3.0957365
v 1.4348557 2.796287 -0.13305819
v 1.5294006 2.6759567 3.0957365
v 1.4348557 2.796287 3.0506988
v 0.1227442 2.796287 3.0506988
v 1.5452154 -0.0058523417 -0.17792404
v 1.5452154 -0.0058523417 1.4424038
v 1.6856575 0.055687785 1.3401234
v 1.6856575 0.055687785 -0.17276704
v 1.5452154 1.345968 1.4424038
v 1.6856575 1.2844279 1.3401234
v 1.6856575 1.2844279 -0.17276704
v 1.5452154 1.345968 -0.17792404
v 1.6856575 1.2844279 1.5445123
v 1.5452154 1.345968 3.0957365
v 1.6856575 0.055687785 1.5445123
v 1.5452154 -0.0058523417 3.0957365
v 1.6856575 1.2844279 4.5986567
v 1.5452154 1.345968 4.700937
v 1.6856575 0.055687785 4.5986567
v 1.5452154 -0.0058523417 4.700937
v 1.6856575 1.4061329 -0.07547176
v 1.6856575 1.4061329 2.9932842
v 1.6856575 2.5439377 -0.07547176
v 1.5452154 2.603931 -0.17792404
v 1.6856575 2.5439377 2.9932842
v 1.5452154 2.603931 3.0957365
v 1.6856575 2.5439377 3.197329
v 1.6856575 1.4061329 3.197329
v 1.6856575 2.5439377 6.214687
v 1.5452154 2.603931 6.3162794
v 1.6856575 1.4061329 6.214687
v 1.5452154 1.345968 6.3162794
v 1.6856575 1.2844279 4.8028736
v 1.6856575 0.055687785 4.8028736
v 1.5452154 -0.0058523417 6.3162794
v 1.6856575 1.2844279 7.84
v 1.5452154 1.345968 7.941765
v 1.6856575 0.055687785 7.84
v 1.5452154 -0.0058523417 7.941765
v 1.6856575 2.5439377 6.41856
v 1.6856575 1.4061329 6.41856
v 1.6856575 2.5439377 9.477518
v 1.5452154 2.603931 9.579798
v 1.6856575 1.4061329 9.477518
v 1.5452154 1.345968 9.579798
v 1.6856575 1.2844279 8.016713
v 1.6856575 1.2844279 9.505022
v 1.6856575 0.055687785 9.505022
v 1.5452154 -0.0058523417 9.579798
v 1.6856575 0.055687785 8.016713
vt 0 0.9816547
vt 0 1.0004779
vt 0.16712658 1.0010482
vt 0.16712658 0.9816547
vt 0.33197156 0.9816547
vt 0.33197156 1.0010482
vt 0.50023896 0.9816547
vt 0.50023896 1.0010482
vt 0 0.9816547
vt 0.16712658 1.0010482
vt 0 1.0004779
vt 0.16712658 0.9816547
vt 0.33197156 0.9816547
vt 0.33197156 1.0010482
vt 0.50023896 0.9816547
vt 0.50023896 1.0010482
vt 0.49909812 0.3439499
vt 0.41696084 0.33425316
vt 0.50023896 0.33425316
vt 0.41924244 0.3439499
vt 0.41696084 0.6707879
vt 0.49909812 0.66109115
vt 0.41924244 0.66109115
vt 0.50023896 0.6707879
vt 0.41467926 0.66109115
vt 0.33197156 0.6707879
vt 0.41467926 0.3439499
vt 0.33197156 0.33425316
vt 0.25268626 0.66109115
vt 0.24983427 0.6707879
vt 0.25268626 0.3439499
vt 0.24983427 0.33425316
vt 0.49738693 0.68048465
vt 0.33482355 0.68048465
vt 0.49738693 0.963402
vt 0.50023896 0.97309875
vt 0.33482355 0.963402
vt 0.33197156 0.97309875
vt 0.32968998 0.963402
vt 0.32968998 0.68048465
vt 0.16997856 0.963402
vt 0.16712658 0.97309875
vt 0.16997856 0.68048465
vt 0.16712658 0.6707879
vt 0.24755268 0.66109115
vt 0.24755268 0.3439499
vt 0.16712658 0.33425316
vt 0.08670048 0.66109115
vt 0.083848484 0.6707879
vt 0.08670048 0.3439499
vt 0.083848484 0.33425316
vt 0.16484499 0.963402
vt 0.16484499 0.68048465
vt 0.0022815915 0.963402
vt 0 0.97309875
vt 0.0022815915 0.68048465
vt 0 0.6707879
vt 0.08156689 0.66109115
vt 0.0022815915 0.66109115
vt 0.0022815915 0.3439499
vt 0 0.33425316
vt 0.08156689 0.3439499
vt 0.49966854 0.99819624
vt 0.5167805 0.6890406
vt 0.49966854 0.6742103
vt 0.6656543 0.6742103
vt 0.5167805 0.97766197
vt 0.6656543 0.99819624
vt 0.6485424 0.97766197
vt 0.6485424 0.6890406
vt 0.6662247 0.99819624
vt 0.6833367 0.6890406
vt 0.6662247 0.6742103
vt 0.8322105 0.6742103
vt 0.6833367 0.97766197
vt 0.8322105 0.99819624
vt 0.8150986 0.97766197
vt 0.8150986 0.6890406
vt 0.6679359 0.99819624
vt 0.68447745 0.6890406
vt 0.6679359 0.6742103
vt 0.8333513 0.6742103
vt 0.68447745 0.97766197
vt 0.8333513 0.99819624
vt 0.81623936 0.97766197
vt 0.81623936 0.6890406
vt 0.83563286 0.99819624
vt 0.8521744 0.6890406
vt 0.83563286 0.6742103
vt 1.0010482 0.6742103
vt 0.8521744 0.97766197
vt 1.0010482 0.99819624
vt 0.9845067 0.97766197
vt 0.9845067 0.6890406
vt 0.8339217 0.99819624
vt 0.8510336 0.6890406
vt 0.8339217 0.6742103
vt 0.99990743 0.6742103
vt 0.8510336 0.97766197
vt 0.99990743 0.99819624
vt 0.98279554 0.97766197
vt 0.98279554 0.6890406
vt 1.002189 0.99819624
vt 1.0187306 0.6890406
vt 1.002189 0.6742103
vt 1.1676044 0.6742103
vt 1.0187306 0.97766197
vt 1.1676044 0.99819624
vt 1.1510628 0.97766197
vt 1.1510628 0.6890406
vt 0.50023896 0.33425316
vt 0.41696084 0.33425316
vt 0.41924244 0.3439499
vt 0.49966854 0.3439499
vt 0.41696084 0.6707879
vt 0.41924244 0.66109115
vt 0.49966854 0.66109115
vt 0.50023896 0.6707879
vt 0.41467926 0.66109115
vt 0.33197156 0.6707879
vt 0.41467926 0.3439499
vt 0.33197156 0.33425316
vt 0.25268626 0.66109115
vt 0.24983427 0.6707879
vt 0.25268626 0.3439499
vt 0.24983427 0.33425316
vt 0.49738693 0.68048465
vt 0.33482355 0.68048465
vt 0.49738693 0.963402
vt 0.50023896 0.97309875
vt 0.33482355 0.963402
vt 0.33197156 0.97309875
vt 0.32968998 0.963402
vt 0.32968998 0.68048465
vt 0.16997856 0.963402
vt 0.16712658 0.97309875
vt 0.16997856 0.68048465
vt 0.16712658 0.6707879
vt 0.24755268 0.66109115
vt 0.24755268 0.3439499
vt 0.16712658 0.33425316
vt 0.08670048 0.66109115
vt 0.083848484 0.6707879
vt 0.08670048 0.3439499
vt 0.083848484 0.33425316
vt 0.16484499 0.963402
vt 0.16484499 0.68048465
vt 0.0022815915 0.963402
vt 0 0.97309875
vt 0.0022815915 0.68048465
vt 0 0.6707879
vt 0.08156689 0.66109115
vt 0.0022815915 0.66109115
vt 0.0022815915 0.3439499
vt 0 0.33425316
vt 0.08156689 0.3439499
vn 0.6156816 0.7490138 0.24477445
vn 0.6156816 0.7490138 0.24477445
vn 0.6289735 0.7774267 -0
vn 0.6289735 0.7774267 -0
vn 0.6289735 0.7774267 -0
vn 0.6289735 0.7774267 -0
vn 0.6289735 0.7774267 -0
vn 0.6289735 0.7774267 -0
vn -0.6156815 0.7490138 0.24477468
vn -0.6289734 0.7774267 -0
vn -0.6156815 0.7490138 0.24477468
vn -0.6289734 0.7774267 -0
vn -0.6289734 0.7774267 -0
vn -0.6289734 0.7774267 -0
vn -0.6289734 0.7774267 -0
vn -0.6289734 0.7774267 -0
vn -0.99214923 -0.11372465 -0.052025042
vn -0.99999225 0.003921509 -0.00034492963
vn -0.99999225 0.003921509 -0.00034492963
vn -0.9894747 -0.14470582 -0
vn -0.99999225 0.003921509 -0.00034492963
vn -0.99214923 0.11372459 -0.052025177
vn -0.9894747 0.14470576 -0
vn -0.99999225 0.003921509 -0.00034492963
vn -0.9894747 0.14470576 -0
vn -0.99999225 0.003921509 -0.00034492963
vn -0.9894747 -0.14470582 -0
vn -0.93454957 -0.35583273 -0
vn -0.9894747 0.14470576 -0
vn -0.99999225 0.003921509 -0.00034492963
vn -0.9894747 -0.14470582 -0
vn -0.99999225 0.003921509 -0.00034492963
vn -0.9843061 -0.15294003 -0.088038996
vn -0.9843061 -0.15294003 0.088038996
vn -0.9843061 0.15293992 -0.08803921
vn -0.6289734 0.7774267 -0
vn -0.9843061 0.15293992 0.08803921
vn -0.6289734 0.7774267 -0
vn -0.9843061 0.15293992 -0.08803921
vn -0.9843061 -0.15294003 -0.088038996
vn -0.9843061 0.15293992 0.08803921
vn -0.6289734 0.7774267 -0
vn -0.9843061 -0.15294003 0.088038996
vn -0.99999225 0.003921509 -0.00034492963
vn -0.9894747 0.14470576 -0
vn -0.9894747 -0.14470582 -0
vn -0.99999225 0.003921509 -0.00034492963
vn -0.9894747 0.14470576 -0
vn -0.99999225 0.003921509 -0.00034492963
vn -0.9894747 -0.14470582 -0
vn -0.99999225 0.003921509 -0.00034492963
vn -0.9843061 0.15293992 -0.08803921
vn -0.9843061 -0.15294003 -0.088038996
vn -0.9843061 0.15293992 0.08803921
vn -0.6156815 0.7490138 0.24477468
vn -0.9843061 -0.15294003 0.088038996
vn -0.99999225 0.003921509 -0.00034492963
vn -0.9843061 0.12941074 -0.11997657
vn -0.9843061 0.12941074 0.11997657
vn -0.9843061 -0.1294108 0.11997651
vn -0.99999225 0.003921509 -0.00034492963
vn -0.9843061 -0.1294108 -0.11997651
vn 0.7097985 0.7019553 -0.058692593
vn -0.098038435 0.99214923 -0.07764248
vn -0.70979846 0.7019553 -0.058693103
vn -0.7019553 0.67842615 0.21678732
vn 0.098038495 0.99214923 -0.07764248
vn 0.70195544 0.67842615 0.21678677
vn 0.098038495 0.99214923 0.07764248
vn -0.098038435 0.99214923 0.07764248
vn 0.7097985 0.7019553 -0.058692593
vn -0.098038435 0.99214923 -0.07764248
vn -0.70979846 0.7019553 -0.058693103
vn -0.7019553 0.67842615 0.21678732
vn 0.098038495 0.99214923 -0.07764248
vn 0.70195544 0.67842615 0.21678677
vn 0.098038495 0.99214923 0.07764248
vn -0.098038435 0.99214923 0.07764248
vn 0.7097985 0.7019553 0.058692593
vn -0.10588145 0.99214923 -0.06655105
vn -0.70979846 0.7019553 0.058693103
vn -0.70979846 0.7019553 -0.058693103
vn 0.10588157 0.99214923 -0.066550605
vn 0.7097985 0.7019553 -0.058692593
vn 0.10588157 0.99214923 0.066550605
vn -0.10588145 0.99214923 0.06655105
vn 0.7097985 0.7019553 -0.058692593
vn -0.098038435 0.99214923 -0.07764248
vn -0.70979846 0.7019553 -0.058693103
vn -0.70979846 0.7019553 0.058693103
vn 0.098038495 0.99214923 -0.07764248
vn 0.7097985 0.7019553 0.058692593
vn 0.098038495 0.99214923 0.07764248
vn -0.098038435 0.99214923 0.07764248
vn 0.7097985 0.7019553 0.058692593
vn -0.10588145 0.99214923 -0.06655105
vn -0.70979846 0.7019553 0.058693103
vn -0.70979846 0.7019553 -0.058693103
vn 0.10588157 0.99214923 -0.066550605
vn 0.7097985 0.7019553 -0.058692593
vn 0.10588157 0.99214923 0.066550605
vn -0.10588145 0.99214923 0.06655105
vn 0.7097985 0.7019553 -0.058692593
vn -0.098038435 0.99214923 -0.07764248
vn -0.70979846 0.7019553 -0.058693103
vn -0.70979846 0.7019553 0.058693103
vn 0.098038495 0.99214923 -0.07764248
vn 0.7097985 0.7019553 0.058692593
vn 0.098038495 0.99214923 0.07764248
vn -0.098038435 0.99214923 0.07764248
vn 0.9999924 0.003921509 -0
vn 0.9999924 0.003921509 -0
vn 0.9894748 -0.14470582 -0
vn 0.9921493 -0.11372465 -0.052023895
vn 0.9999924 0.003921509 -0
vn 0.9894748 0.14470576 -0
vn 0.9921493 0.11372459 -0.05202403
vn 0.9999924 0.003921509 -0
vn 0.9894748 0.14470576 -0
vn 0.9999924 0.003921509 -0
vn 0.9894748 -0.14470582 -0
vn 0.93454957 -0.3558327 -0
vn 0.9894748 0.14470576 -0
vn 0.9999924 0.003921509 -0
vn 0.9894748 -0.14470582 -0
vn 0.9999924 0.003921509 -0
vn 0.9843062 -0.15294003 -0.08803764
vn 0.9843062 -0.15294003 0.08803764
vn 0.9843062 0.15293992 -0.088037856
vn 0.6289735 0.7774267 -0
vn 0.9843062 0.15293992 0.088037856
vn 0.6289735 0.7774267 -0
vn 0.9843062 0.15293992 -0.088037856
vn 0.9843062 -0.15294003 -0.08803764
vn 0.9843062 0.15293992 0.088037856
vn 0.6289735 0.7774267 -0
vn 0.9843062 -0.15294003 0.08803764
vn 0.9999924 0.003921509 -0
vn 0.9894748 0.14470576 -0
vn 0.9894748 -0.14470582 -0
vn 0.9999924 0.003921509 -0
vn 0.9894748 0.14470576 -0
vn 0.9999924 0.003921509 -0
vn 0.9894748 -0.14470582 -0
vn 0.9999924 0.003921509 -0
vn 0.9843062 0.15293992 -0.088037856
vn 0.9843062 -0.15294003 -0.08803764
vn 0.9843062 0.15293992 0.088037856
vn 0.6156816 0.7490138 0.24477445
vn 0.9843062 -0.15294003 0.08803764
vn 0.9999924 0.003921509 -0
vn 0.9843062 0.12941074 -0.11997558
vn 0.9843062 0.12941074 0.11997558
vn 0.9843062 -0.1294108 0.119975515
vn 0.9999924 0.003921509 -0
vn 0.9843062 -0.1294108 -0.119975515
g polySurface42_0
f 3/3/3 2/2/2 1/1/1
f 4/4/4 3/3/3 1/1/1
f 3/3/3 4/4/4 5/5/5
f 6/6/6 3/3/3 5/5/5
f 5/5/5 7/7/7 6/6/6
f 7/7/7 8/8/8 6/6/6
f 11/11/11 10/10/10 9/9/9
f 10/10/10 12/12/12 9/9/9
f 12/12/12 10/10/10 13/13/13
f 10/10/10 14/14/14 13/13/13
f 15/15/15 13/13/13 14/14/14
f 16/16/16 15/15/15 14/14/14
f 19/19/19 18/18/18 17/17/17
f 18/18/18 20/20/20 17/17/17
f 20/20/20 18/18/18 21/21/21
f 17/17/17 20/20/20 22/22/22
f 20/20/20 23/23/23 22/22/22
f 23/23/23 20/20/20 21/21/21
f 22/22/22 23/23/23 24/24/24
f 23/23/23 21/21/21 24/24/24
f 25/25/25 21/21/21 18/18/18
f 26/26/26 21/21/21 25/25/25
f 27/27/27 25/25/25 18/18/18
f 27/27/27 18/18/18 28/28/28
f 25/25/25 27/27/27 29/29/29
f 25/25/25 29/29/29 26/26/26
f 29/29/29 30/30/30 26/26/26
f 28/28/28 31/31/31 27/27/27
f 27/27/27 31/31/31 29/29/29
f 29/29/29 31/31/31 30/30/30
f 28/28/28 32/32/32 31/31/31
f 31/31/31 32/32/32 30/30/30
f 33/33/33 24/24/24 21/21/21
f 21/21/21 26/26/26 34/34/34
f 21/21/21 34/34/34 33/33/33
f 33/33/33 35/35/35 24/24/24
f 35/35/35 36/36/36 24/24/24
f 35/35/35 33/33/33 37/37/37
f 35/35/35 37/37/37 36/36/36
f 33/33/33 34/34/34 37/37/37
f 37/37/37 38/38/38 36/36/36
f 37/37/37 34/34/34 38/38/38
f 34/34/34 26/26/26 38/38/38
f 39/39/39 38/38/38 26/26/26
f 40/40/40 39/39/39 26/26/26
f 40/40/40 26/26/26 30/30/30
f 39/39/39 41/41/41 38/38/38
f 41/41/41 39/39/39 40/40/40
f 41/41/41 42/42/42 38/38/38
f 43/43/43 41/41/41 40/40/40
f 30/30/30 43/43/43 40/40/40
f 41/41/41 43/43/43 42/42/42
f 30/30/30 44/44/44 43/43/43
f 43/43/43 44/44/44 42/42/42
f 44/44/44 30/30/30 45/45/45
f 45/45/45 30/30/30 32/32/32
f 46/46/46 45/45/45 32/32/32
f 46/46/46 32/32/32 47/47/47
f 45/45/45 46/46/46 48/48/48
f 45/45/45 48/48/48 44/44/44
f 48/48/48 49/49/49 44/44/44
f 48/48/48 50/50/50 49/49/49
f 46/46/46 50/50/50 48/48/48
f 47/47/47 50/50/50 46/46/46
f 47/47/47 51/51/51 50/50/50
f 50/50/50 51/51/51 49/49/49
f 52/52/52 42/42/42 44/44/44
f 53/53/53 52/52/52 44/44/44
f 53/53/53 44/44/44 49/49/49
f 52/52/52 54/54/54 42/42/42
f 54/54/54 52/52/52 53/53/53
f 54/54/54 55/55/55 42/42/42
f 56/56/56 54/54/54 53/53/53
f 54/54/54 56/56/56 55/55/55
f 49/49/49 56/56/56 53/53/53
f 56/56/56 57/57/57 55/55/55
f 49/49/49 57/57/57 56/56/56
f 58/58/58 49/49/49 51/51/51
f 59/59/59 57/57/57 49/49/49
f 58/58/58 59/59/59 49/49/49
f 59/59/59 60/60/60 57/57/57
f 59/59/59 58/58/58 60/60/60
f 60/60/60 61/61/61 57/57/57
f 62/62/62 51/51/51 61/61/61
f 62/62/62 58/58/58 51/51/51
f 58/58/58 62/62/62 60/60/60
f 60/60/60 62/62/62 61/61/61
f 65/65/65 64/64/64 63/63/63
f 64/64/64 65/65/65 66/66/66
f 64/64/64 67/67/67 63/63/63
f 63/63/63 67/67/67 68/68/68
f 68/68/68 69/69/69 66/66/66
f 67/67/67 69/69/69 68/68/68
f 64/64/64 70/70/70 67/67/67
f 70/70/70 64/64/64 66/66/66
f 70/70/70 69/69/69 67/67/67
f 69/69/69 70/70/70 66/66/66
f 73/73/73 72/72/72 71/71/71
f 72/72/72 73/73/73 74/74/74
f 72/72/72 75/75/75 71/71/71
f 71/71/71 75/75/75 76/76/76
f 76/76/76 77/77/77 74/74/74
f 75/75/75 77/77/77 76/76/76
f 72/72/72 78/78/78 75/75/75
f 78/78/78 72/72/72 74/74/74
f 78/78/78 77/77/77 75/75/75
f 77/77/77 78/78/78 74/74/74
f 81/81/81 80/80/80 79/79/79
f 80/80/80 81/81/81 82/82/82
f 80/80/80 83/83/83 79/79/79
f 79/79/79 83/83/83 84/84/84
f 83/83/83 85/85/85 84/84/84
f 84/84/84 85/85/85 82/82/82
f 83/83/83 80/80/80 85/85/85
f 85/85/85 86/86/86 82/82/82
f 80/80/80 86/86/86 85/85/85
f 86/86/86 80/80/80 82/82/82
f 89/89/89 88/88/88 87/87/87
f 88/88/88 89/89/89 90/90/90
f 88/88/88 91/91/91 87/87/87
f 87/87/87 91/91/91 92/92/92
f 91/91/91 93/93/93 92/92/92
f 92/92/92 93/93/93 90/90/90
f 93/93/93 91/91/91 88/88/88
f 93/93/93 94/94/94 90/90/90
f 94/94/94 93/93/93 88/88/88
f 94/94/94 88/88/88 90/90/90
f 97/97/97 96/96/96 95/95/95
f 96/96/96 97/97/97 98/98/98
f 96/96/96 99/99/99 95/95/95
f 95/95/95 99/99/99 100/100/100
f 99/99/99 101/101/101 100/100/100
f 100/100/100 101/101/101 98/98/98
f 99/99/99 96/96/96 101/101/101
f 101/101/101 102/102/102 98/98/98
f 96/96/96 102/102/102 101/101/101
f 102/102/102 96/96/96 98/98/98
f 105/105/105 104/104/104 103/103/103
f 104/104/104 105/105/105 106/106/106
f 104/104/104 107/107/107 103/103/103
f 103/103/103 107/107/107 108/108/108
f 107/107/107 109/109/109 108/108/108
f 108/108/108 109/109/109 106/106/106
f 109/109/109 107/107/107 104/104/104
f 109/109/109 110/110/110 106/106/106
f 110/110/110 109/109/109 104/104/104
f 110/110/110 104/104/104 106/106/106
f 113/113/113 112/112/112 111/111/111
f 114/114/114 113/113/113 111/111/111
f 112/112/112 113/113/113 115/115/115
f 113/113/113 116/116/116 115/115/115
f 116/116/116 113/113/113 114/114/114
f 117/117/117 116/116/116 114/114/114
f 115/115/115 116/116/116 117/117/117
f 118/118/118 115/115/115 117/117/117
f 115/115/115 119/119/119 112/112/112
f 119/119/119 115/115/115 120/120/120
f 119/119/119 121/121/121 112/112/112
f 122/122/122 112/112/112 121/121/121
f 121/121/121 119/119/119 123/123/123
f 120/120/120 123/123/123 119/119/119
f 120/120/120 124/124/124 123/123/123
f 121/121/121 125/125/125 122/122/122
f 125/125/125 121/121/121 123/123/123
f 125/125/125 123/123/123 124/124/124
f 125/125/125 126/126/126 122/122/122
f 126/126/126 125/125/125 124/124/124
f 115/115/115 118/118/118 127/127/127
f 128/128/128 120/120/120 115/115/115
f 127/127/127 128/128/128 115/115/115
f 129/129/129 127/127/127 118/118/118
f 130/130/130 129/129/129 118/118/118
f 127/127/127 129/129/129 131/131/131
f 131/131/131 129/129/129 130/130/130
f 128/128/128 127/127/127 131/131/131
f 132/132/132 131/131/131 130/130/130
f 128/128/128 131/131/131 132/132/132
f 120/120/120 128/128/128 132/132/132
f 132/132/132 133/133/133 120/120/120
f 133/133/133 134/134/134 120/120/120
f 124/124/124 120/120/120 134/134/134
f 135/135/135 133/133/133 132/132/132
f 133/133/133 135/135/135 134/134/134
f 136/136/136 135/135/135 132/132/132
f 135/135/135 137/137/137 134/134/134
f 134/134/134 137/137/137 124/124/124
f 137/137/137 135/135/135 136/136/136
f 137/137/137 138/138/138 124/124/124
f 138/138/138 137/137/137 136/136/136
f 139/139/139 124/124/124 138/138/138
f 124/124/124 139/139/139 126/126/126
f 139/139/139 140/140/140 126/126/126
f 141/141/141 126/126/126 140/140/140
f 140/140/140 139/139/139 142/142/142
f 138/138/138 142/142/142 139/139/139
f 138/138/138 143/143/143 142/142/142
f 144/144/144 142/142/142 143/143/143
f 144/144/144 140/140/140 142/142/142
f 140/140/140 144/144/144 141/141/141
f 144/144/144 145/145/145 141/141/141
f 145/145/145 144/144/144 143/143/143
f 136/136/136 146/146/146 138/138/138
f 146/146/146 147/147/147 138/138/138
f 143/143/143 138/138/138 147/147/147
f 148/148/148 146/146/146 136/136/136
f 146/146/146 148/148/148 147/147/147
f 149/149/149 148/148/148 136/136/136
f 148/148/148 150/150/150 147/147/147
f 150/150/150 148/148/148 149/149/149
f 147/147/147 150/150/150 143/143/143
f 151/151/151 150/150/150 149/149/149
f 150/150/150 151/151/151 143/143/143
f 143/143/143 152/152/152 145/145/145
f 151/151/151 153/153/153 143/143/143
f 153/153/153 152/152/152 143/143/143
f 154/154/154 153/153/153 151/151/151
f 152/152/152 153/153/153 154/154/154
f 155/155/155 154/154/154 151/151/151
f 145/145/145 156/156/156 155/155/155
f 152/152/152 156/156/156 145/145/145
f 156/156/156 152/152/152 154/154/154
f 156/156/156 154/154/154 155/155/155
