g PRP_Conveyor_MO
v 2.4999623 -0.0022501945 4.464712
v 2.4999623 -0.0022501945 -4.459746
v -2.500043 -0.0022501945 -4.4595933
v -2.500043 -0.0022501945 4.4648657
v -2.500043 0.02416563 4.632061
v 2.4999623 0.02416563 4.6319084
v -2.500043 0.101121426 4.7827673
v 2.4999623 0.101121426 4.7827673
v -2.500043 0.22083092 4.9024763
v 2.4999623 0.22083092 4.9024763
v -2.500043 0.37153625 4.979432
v 2.4999623 0.37153625 4.9792795
v -2.500043 0.5387325 5.005848
v 2.4999623 0.5387325 5.0056953
v 2.4999623 0.5388851 5.0056953
v -2.500043 0.5388851 5.005848
v -2.500043 0.7060814 4.979432
v 2.4999623 0.7060814 4.9792795
v -2.500043 0.8569398 4.9024763
v 2.4999623 0.8569398 4.9024763
v -2.500043 0.9766493 4.7827673
v 2.4999623 0.9766493 4.7827673
v -2.500043 1.0534525 4.632061
v 2.4999623 1.0534525 4.6319084
v -2.500043 1.0798678 4.4648657
v 2.4999623 1.0798678 4.464712
v 2.4999623 1.0798678 -4.459746
v -2.500043 1.0798678 -4.4595933
v -2.500043 1.0534525 -4.6267896
v 2.4999623 1.0534525 -4.626942
v -2.500043 0.9766493 -4.7776475
v 2.4999623 0.9766493 -4.7776475
v -2.500043 0.8569398 -4.897357
v 2.4999623 0.8569398 -4.897357
v -2.500043 0.7060814 -4.9741607
v 2.4999623 0.7060814 -4.9743133
v -2.500043 0.5388851 -5.000576
v 2.4999623 0.5388851 -5.0007286
v 2.4999623 0.5387325 -5.0007286
v -2.500043 0.5387325 -5.000576
v -2.500043 0.37153625 -4.9741607
v 2.4999623 0.37153625 -4.9743133
v -2.500043 0.22083092 -4.897357
v 2.4999623 0.22083092 -4.897357
v -2.500043 0.101121426 -4.7776475
v 2.4999623 0.101121426 -4.7776475
v -2.500043 0.02416563 -4.6267896
v 2.4999623 0.02416563 -4.626942
v -2.500043 -0.0022501945 -4.4595933
v 2.4999623 -0.0022501945 -4.459746
v -2.500043 0.5387325 5.005848
v -2.500043 0.54667234 4.9061413
v -2.500043 0.5310979 4.9061413
v -2.500043 0.5388851 5.005848
v 2.4999623 0.5388851 5.0056953
v 2.4999623 0.5310979 4.9061413
v 2.4999623 0.54667234 4.9061413
v 2.4999623 0.5387325 5.0056953
v -2.500043 0.5388851 -5.000576
v -2.500043 0.5310979 -4.9010215
v -2.500043 0.54667234 -4.9010215
v -2.500043 0.5387325 -5.000576
v 2.4999623 0.5387325 -5.0007286
v 2.4999623 0.54667234 -4.9010215
v 2.4999623 0.5310979 -4.9010215
v 2.4999623 0.5388851 -5.0007286
v -2.500043 -0.0022501945 -4.4595933
v -2.500043 0.09745693 -4.451806
v -2.500043 0.09745693 4.4569254
v -2.500043 -0.0022501945 4.4648657
v -2.500043 0.11929178 4.6010656
v -2.500043 0.02416563 4.632061
v -2.500043 0.18204737 4.723981
v -2.500043 0.101121426 4.7827673
v -2.500043 0.27961683 4.8215504
v -2.500043 0.22083092 4.9024763
v -2.500043 0.40253258 4.884306
v -2.500043 0.37153625 4.979432
v -2.500043 0.54667234 4.9061413
v -2.500043 0.5387325 5.005848
v 2.4999623 -0.0022501945 4.464712
v 2.4999623 0.09745693 -4.451806
v 2.4999623 -0.0022501945 -4.459746
v 2.4999623 0.09745693 4.4569254
v 2.4999623 0.02416563 4.6319084
v 2.4999623 0.11929178 4.6010656
v 2.4999623 0.101121426 4.7827673
v 2.4999623 0.18204737 4.723981
v 2.4999623 0.22083092 4.9024763
v 2.4999623 0.27961683 4.8215504
v 2.4999623 0.37153625 4.9792795
v 2.4999623 0.40253258 4.8841534
v 2.4999623 0.5387325 5.0056953
v 2.4999623 0.54667234 4.9061413
v -2.500043 0.5388851 5.005848
v -2.500043 0.5310979 4.9061413
v -2.500043 0.67523813 4.884306
v -2.500043 0.7060814 4.979432
v -2.500043 0.7981539 4.8215504
v -2.500043 0.8569398 4.9024763
v -2.500043 0.89572334 4.723981
v -2.500043 0.9766493 4.7827673
v -2.500043 0.95832634 4.6010656
v -2.500043 1.0534525 4.632061
v -2.500043 0.9801612 4.4569254
v -2.500043 1.0798678 4.4648657
v -2.500043 0.9801612 -4.451806
v -2.500043 1.0798678 -4.4595933
v -2.500043 0.95832634 -4.595946
v -2.500043 1.0534525 -4.6267896
v -2.500043 0.89572334 -4.7188616
v -2.500043 0.9766493 -4.7776475
v -2.500043 0.7981539 -4.816431
v -2.500043 0.8569398 -4.897357
v -2.500043 0.67523813 -4.879034
v -2.500043 0.7060814 -4.9741607
v -2.500043 0.5310979 -4.9010215
v -2.500043 0.5388851 -5.000576
v 2.4999623 0.7060814 4.9792795
v 2.4999623 0.5310979 4.9061413
v 2.4999623 0.5388851 5.0056953
v 2.4999623 0.67523813 4.8841534
v 2.4999623 0.8569398 4.9024763
v 2.4999623 0.7981539 4.8215504
v 2.4999623 0.9766493 4.7827673
v 2.4999623 0.89572334 4.723981
v 2.4999623 1.0534525 4.6319084
v 2.4999623 0.95832634 4.6010656
v 2.4999623 1.0798678 4.464712
v 2.4999623 0.9801612 4.4569254
v 2.4999623 1.0798678 -4.459746
v 2.4999623 0.9801612 -4.451806
v 2.4999623 1.0534525 -4.626942
v 2.4999623 0.95832634 -4.595946
v 2.4999623 0.9766493 -4.7776475
v 2.4999623 0.89572334 -4.7190146
v 2.4999623 0.8569398 -4.897357
v 2.4999623 0.7981539 -4.816431
v 2.4999623 0.7060814 -4.9743133
v 2.4999623 0.67523813 -4.879187
v 2.4999623 0.5388851 -5.0007286
v 2.4999623 0.5310979 -4.9010215
v 2.4999623 0.37153625 -4.9743133
v 2.4999623 0.54667234 -4.9010215
v 2.4999623 0.5387325 -5.0007286
v 2.4999623 0.40253258 -4.879187
v 2.4999623 0.22083092 -4.897357
v 2.4999623 0.27961683 -4.816431
v 2.4999623 0.101121426 -4.7776475
v 2.4999623 0.18204737 -4.7190146
v 2.4999623 0.02416563 -4.626942
v 2.4999623 0.11929178 -4.595946
v 2.4999623 -0.0022501945 -4.459746
v 2.4999623 0.09745693 -4.451806
v -2.500043 0.5387325 -5.000576
v -2.500043 0.54667234 -4.9010215
v -2.500043 0.40253258 -4.879034
v -2.500043 0.37153625 -4.9741607
v -2.500043 0.27961683 -4.816431
v -2.500043 0.22083092 -4.897357
v -2.500043 0.18204737 -4.7188616
v -2.500043 0.101121426 -4.7776475
v -2.500043 0.11929178 -4.595946
v -2.500043 0.02416563 -4.6267896
v -2.500043 0.09745693 -4.451806
v -2.500043 -0.0022501945 -4.4595933
vt 0.9806749 3.3676226
vt 0.9806749 0.00011205673
vt 0.01964518 0.00011205673
vt 0.01964518 3.3676226
vt 0.01964518 3.432082
vt 0.9806749 3.432082
vt 0.01964518 3.4945881
vt 0.9806749 3.4945881
vt 0.01964518 3.557094
vt 0.9806749 3.557094
vt 0.01964518 3.6205766
vt 0.9806749 3.6205766
vt 0.01964518 3.6830826
vt 0.9806749 3.6830826
vt 0.9806749 3.6860127
vt 0.01964518 3.6860127
vt 0.01964518 3.7494953
vt 0.9806749 3.7494953
vt 0.01964518 3.812978
vt 0.9806749 3.812978
vt 0.01964518 3.875484
vt 0.9806749 3.875484
vt 0.01964518 3.93799
vt 0.9806749 3.93799
vt 0.01964518 4.003426
vt 0.9806749 4.003426
vt 0.9806749 7.3689833
vt 0.01964518 7.3689833
vt 0.01964518 7.4334426
vt 0.9806749 7.4334426
vt 0.01964518 7.4969254
vt 0.9806749 7.4969254
vt 0.01964518 7.559431
vt 0.9806749 7.559431
vt 0.01964518 7.6219373
vt 0.9806749 7.6219373
vt 0.01964518 7.68542
vt 0.9806749 7.68542
vt 0.9806749 7.6893263
vt 0.01964518 7.6893263
vt 0.01964518 7.7518325
vt 0.9806749 7.7518325
vt 0.01964518 7.8143387
vt 0.9806749 7.8143387
vt 0.01964518 7.8768444
vt 0.9806749 7.8768444
vt 0.01964518 7.938374
vt 0.9806749 7.938374
vt 0.01964518 7.999903
vt 0.9806749 7.999903
vt 0.01964518 3.6830826
vt 0.00011205673 3.6830826
vt 0.00011205673 3.6860127
vt 0.01964518 3.6860127
vt 0.9806749 3.6860127
vt 0.9992314 3.6860127
vt 0.9992314 3.6830826
vt 0.9806749 3.6830826
vt 0.01964518 7.68542
vt 0.00011205673 7.68542
vt 0.00011205673 7.6893263
vt 0.01964518 7.6893263
vt 0.9806749 7.6893263
vt 0.9992314 7.6893263
vt 0.9992314 7.68542
vt 0.9806749 7.68542
vt 0.01964518 0.00011205673
vt 0.00011205673 0.00011205673
vt 0.00011205673 3.3676226
vt 0.01964518 3.3676226
vt 0.00011205673 3.432082
vt 0.01964518 3.432082
vt 0.00011205673 3.4945881
vt 0.01964518 3.4945881
vt 0.00011205673 3.557094
vt 0.01964518 3.557094
vt 0.00011205673 3.6205766
vt 0.01964518 3.6205766
vt 0.00011205673 3.6830826
vt 0.01964518 3.6830826
vt 0.9806749 3.3676226
vt 0.9992314 0.00011205673
vt 0.9806749 0.00011205673
vt 0.9992314 3.3676226
vt 0.9806749 3.432082
vt 0.9992314 3.432082
vt 0.9806749 3.4945881
vt 0.9992314 3.4945881
vt 0.9806749 3.557094
vt 0.9992314 3.557094
vt 0.9806749 3.6205766
vt 0.9992314 3.6205766
vt 0.9806749 3.6830826
vt 0.9992314 3.6830826
vt 0.01964518 3.6860127
vt 0.00011205673 3.6860127
vt 0.00011205673 3.7494953
vt 0.01964518 3.7494953
vt 0.00011205673 3.812978
vt 0.01964518 3.812978
vt 0.00011205673 3.875484
vt 0.01964518 3.875484
vt 0.00011205673 3.93799
vt 0.01964518 3.93799
vt 0.00011205673 4.003426
vt 0.01964518 4.003426
vt 0.00011205673 7.3689833
vt 0.01964518 7.3689833
vt 0.00011205673 7.4334426
vt 0.01964518 7.4334426
vt 0.00011205673 7.4969254
vt 0.01964518 7.4969254
vt 0.00011205673 7.559431
vt 0.01964518 7.559431
vt 0.00011205673 7.6219373
vt 0.01964518 7.6219373
vt 0.00011205673 7.68542
vt 0.01964518 7.68542
vt 0.9806749 3.7494953
vt 0.9992314 3.6860127
vt 0.9806749 3.6860127
vt 0.9992314 3.7494953
vt 0.9806749 3.812978
vt 0.9992314 3.812978
vt 0.9806749 3.875484
vt 0.9992314 3.875484
vt 0.9806749 3.93799
vt 0.9992314 3.93799
vt 0.9806749 4.003426
vt 0.9992314 4.003426
vt 0.9806749 7.3689833
vt 0.9992314 7.3689833
vt 0.9806749 7.4334426
vt 0.9992314 7.4334426
vt 0.9806749 7.4969254
vt 0.9992314 7.4969254
vt 0.9806749 7.559431
vt 0.9992314 7.559431
vt 0.9806749 7.6219373
vt 0.9992314 7.6219373
vt 0.9806749 7.68542
vt 0.9992314 7.68542
vt 0.9806749 7.7518325
vt 0.9992314 7.6893263
vt 0.9806749 7.6893263
vt 0.9992314 7.7518325
vt 0.9806749 7.8143387
vt 0.9992314 7.8143387
vt 0.9806749 7.8768444
vt 0.9992314 7.8768444
vt 0.9806749 7.938374
vt 0.9992314 7.938374
vt 0.9806749 7.999903
vt 0.9992314 7.999903
vt 0.01964518 7.6893263
vt 0.00011205673 7.6893263
vt 0.00011205673 7.7518325
vt 0.01964518 7.7518325
vt 0.00011205673 7.8143387
vt 0.01964518 7.8143387
vt 0.00011205673 7.8768444
vt 0.01964518 7.8768444
vt 0.00011205673 7.938374
vt 0.01964518 7.938374
vt 0.00011205673 7.999903
vt 0.01964518 7.999903
vn -0.003921509 -0.9999924 -0
vn -0.003921509 -0.9999924 -0
vn -0.003921509 -0.9999924 -0
vn -0.003921509 -0.9999924 -0
vn -0.003921509 -0.9529339 0.30315277
vn -0.003921509 -0.9529339 0.30315277
vn 0.0039215684 -0.8117585 0.5839801
vn 0.0039215684 -0.8117585 0.5839801
vn 0.0039215684 -0.5843093 0.8115216
vn 0.0039215684 -0.5843093 0.8115216
vn 0.0039215684 -0.30980158 0.95079315
vn 0.0039215684 -0.30980158 0.95079315
vn 0.0039215684 -0.15294003 0.98822767
vn 0.0039215684 -0.15294003 0.98822767
vn 0.0039215684 0.15293992 0.9882277
vn 0.0039215684 0.15293992 0.9882277
vn 0.0039215684 0.30980146 0.9507932
vn 0.0039215684 0.30980146 0.9507932
vn 0.0039215684 0.5843092 0.81152165
vn 0.0039215684 0.5843092 0.81152165
vn 0.0039215684 0.8117584 0.58398026
vn 0.0039215684 0.8117584 0.58398026
vn -0.003921509 0.9529338 0.30315316
vn -0.003921509 0.9529338 0.30315316
vn -0.003921509 0.99999225 -0.00034526698
vn -0.003921509 0.99999225 -0.00034526698
vn -0.003921509 0.99999225 -0.00034526698
vn -0.003921509 0.99999225 -0.00034526698
vn -0.003921509 0.9529338 -0.30315316
vn -0.003921509 0.9529338 -0.30315316
vn -0.003921509 0.8117584 -0.58398026
vn -0.003921509 0.8117584 -0.58398026
vn -0.003921509 0.5843092 -0.81152165
vn -0.003921509 0.5843092 -0.81152165
vn -0.003921509 0.30980146 -0.9507932
vn -0.003921509 0.30980146 -0.9507932
vn -0.003921509 0.15293992 -0.9882277
vn -0.003921509 0.15293992 -0.9882277
vn -0.003921509 -0.15294003 -0.98822767
vn -0.003921509 -0.15294003 -0.98822767
vn -0.003921509 -0.30980158 -0.95079315
vn -0.003921509 -0.30980158 -0.95079315
vn -0.003921509 -0.5843093 -0.8115216
vn -0.003921509 -0.5843093 -0.8115216
vn -0.003921509 -0.8117585 -0.5839801
vn -0.003921509 -0.8117585 -0.5839801
vn -0.003921509 -0.9529339 -0.30315277
vn -0.003921509 -0.9529339 -0.30315277
vn -0.003921509 -0.9999924 -0
vn -0.003921509 -0.9999924 -0
vn 0.9999924 0.003921509 -0
vn 0.9999924 0.003921509 -0
vn 0.9999924 0.003921509 -0
vn 0.9999924 0.003921509 -0
vn -0.99999225 0.003921509 -0.00034492963
vn -0.99999225 0.003921509 -0.00034492963
vn -0.99999225 0.003921509 -0.00034492963
vn -0.99999225 0.003921509 -0.00034492963
vn 0.9999924 0.003921509 -0
vn 0.9999924 0.003921509 -0
vn 0.9999924 0.003921509 -0
vn 0.9999924 0.003921509 -0
vn -0.99999225 0.003921509 -0.00034492963
vn -0.99999225 0.003921509 -0.00034492963
vn -0.99999225 0.003921509 -0.00034492963
vn -0.99999225 0.003921509 -0.00034492963
vn -0.99999225 0.003921509 -0.00034492963
vn -0.99999225 0.003921509 -0.00034492963
vn -0.99999225 0.003921509 -0.00034492963
vn -0.99999225 0.003921509 -0.00034492963
vn -0.99999225 0.003921509 -0.00034492963
vn -0.99999225 0.003921509 -0.00034492963
vn -0.99999225 0.003921509 -0.00034492963
vn -0.99999225 0.003921509 -0.00034492963
vn -0.99999225 0.003921509 -0.00034492963
vn -0.99999225 0.003921509 -0.00034492963
vn -0.99999225 0.003921509 -0.00034492963
vn -0.99999225 0.003921509 -0.00034492963
vn -0.99999225 0.003921509 -0.00034492963
vn -0.99999225 0.003921509 -0.00034492963
vn 0.9999924 0.003921509 -0
vn 0.9999924 0.003921509 -0
vn 0.9999924 0.003921509 -0
vn 0.9999924 0.003921509 -0
vn 0.9999924 0.003921509 -0
vn 0.9999924 0.003921509 -0
vn 0.9999924 0.003921509 -0
vn 0.9999924 0.003921509 -0
vn 0.9999924 0.003921509 -0
vn 0.9999924 0.003921509 -0
vn 0.9999924 0.003921509 -0
vn 0.9999924 0.003921509 -0
vn 0.9999924 0.003921509 -0
vn 0.9999924 0.003921509 -0
vn -0.99999225 0.003921509 -0.00034492963
vn -0.99999225 0.003921509 -0.00034492963
vn -0.99999225 0.003921509 -0.00034492963
vn -0.99999225 0.003921509 -0.00034492963
vn -0.99999225 0.003921509 -0.00034492963
vn -0.99999225 0.003921509 -0.00034492963
vn -0.99999225 0.003921509 -0.00034492963
vn -0.99999225 0.003921509 -0.00034492963
vn -0.99999225 0.003921509 -0.00034492963
vn -0.99999225 0.003921509 -0.00034492963
vn -0.99999225 0.003921509 -0.00034492963
vn -0.99999225 0.003921509 -0.00034492963
vn -0.99999225 0.003921509 -0.00034492963
vn -0.99999225 0.003921509 -0.00034492963
vn -0.99999225 0.003921509 -0.00034492963
vn -0.99999225 0.003921509 -0.00034492963
vn -0.99999225 0.003921509 -0.00034492963
vn -0.99999225 0.003921509 -0.00034492963
vn -0.99999225 0.003921509 -0.00034492963
vn -0.99999225 0.003921509 -0.00034492963
vn -0.99999225 0.003921509 -0.00034492963
vn -0.99999225 0.003921509 -0.00034492963
vn -0.99999225 0.003921509 -0.00034492963
vn -0.99999225 0.003921509 -0.00034492963
vn 0.9999924 0.003921509 -0
vn 0.9999924 0.003921509 -0
vn 0.9999924 0.003921509 -0
vn 0.9999924 0.003921509 -0
vn 0.9999924 0.003921509 -0
vn 0.9999924 0.003921509 -0
vn 0.9999924 0.003921509 -0
vn 0.9999924 0.003921509 -0
vn 0.9999924 0.003921509 -0
vn 0.9999924 0.003921509 -0
vn 0.9999924 0.003921509 -0
vn 0.9999924 0.003921509 -0
vn 0.9999924 0.003921509 -0
vn 0.9999924 0.003921509 -0
vn 0.9999924 0.003921509 -0
vn 0.9999924 0.003921509 -0
vn 0.9999924 0.003921509 -0
vn 0.9999924 0.003921509 -0
vn 0.9999924 0.003921509 -0
vn 0.9999924 0.003921509 -0
vn 0.9999924 0.003921509 -0
vn 0.9999924 0.003921509 -0
vn 0.9999924 0.003921509 -0
vn 0.9999924 0.003921509 -0
vn 0.9999924 0.003921509 -0
vn 0.9999924 0.003921509 -0
vn 0.9999924 0.003921509 -0
vn 0.9999924 0.003921509 -0
vn 0.9999924 0.003921509 -0
vn 0.9999924 0.003921509 -0
vn 0.9999924 0.003921509 -0
vn 0.9999924 0.003921509 -0
vn 0.9999924 0.003921509 -0
vn 0.9999924 0.003921509 -0
vn 0.9999924 0.003921509 -0
vn 0.9999924 0.003921509 -0
vn -0.99999225 0.003921509 -0.00034492963
vn -0.99999225 0.003921509 -0.00034492963
vn -0.99999225 0.003921509 -0.00034492963
vn -0.99999225 0.003921509 -0.00034492963
vn -0.99999225 0.003921509 -0.00034492963
vn -0.99999225 0.003921509 -0.00034492963
vn -0.99999225 0.003921509 -0.00034492963
vn -0.99999225 0.003921509 -0.00034492963
vn -0.99999225 0.003921509 -0.00034492963
vn -0.99999225 0.003921509 -0.00034492963
vn -0.99999225 0.003921509 -0.00034492963
vn -0.99999225 0.003921509 -0.00034492963
g PRP_Conveyor_MO_0
f 3/3/3 2/2/2 1/1/1
f 4/4/4 3/3/3 1/1/1
f 4/4/4 1/1/1 5/5/5
f 1/1/1 6/6/6 5/5/5
f 5/5/5 6/6/6 7/7/7
f 6/6/6 8/8/8 7/7/7
f 7/7/7 8/8/8 9/9/9
f 8/8/8 10/10/10 9/9/9
f 9/9/9 10/10/10 11/11/11
f 10/10/10 12/12/12 11/11/11
f 11/11/11 12/12/12 13/13/13
f 12/12/12 14/14/14 13/13/13
f 13/13/13 14/14/14 15/15/15
f 16/16/16 13/13/13 15/15/15
f 16/16/16 15/15/15 17/17/17
f 15/15/15 18/18/18 17/17/17
f 17/17/17 18/18/18 19/19/19
f 18/18/18 20/20/20 19/19/19
f 19/19/19 20/20/20 21/21/21
f 20/20/20 22/22/22 21/21/21
f 21/21/21 22/22/22 23/23/23
f 22/22/22 24/24/24 23/23/23
f 23/23/23 24/24/24 25/25/25
f 24/24/24 26/26/26 25/25/25
f 26/26/26 27/27/27 25/25/25
f 27/27/27 28/28/28 25/25/25
f 28/28/28 27/27/27 29/29/29
f 27/27/27 30/30/30 29/29/29
f 29/29/29 30/30/30 31/31/31
f 30/30/30 32/32/32 31/31/31
f 31/31/31 32/32/32 33/33/33
f 32/32/32 34/34/34 33/33/33
f 33/33/33 34/34/34 35/35/35
f 34/34/34 36/36/36 35/35/35
f 35/35/35 36/36/36 37/37/37
f 36/36/36 38/38/38 37/37/37
f 38/38/38 39/39/39 37/37/37
f 39/39/39 40/40/40 37/37/37
f 41/41/41 40/40/40 39/39/39
f 42/42/42 41/41/41 39/39/39
f 43/43/43 41/41/41 42/42/42
f 44/44/44 43/43/43 42/42/42
f 45/45/45 43/43/43 44/44/44
f 46/46/46 45/45/45 44/44/44
f 47/47/47 45/45/45 46/46/46
f 48/48/48 47/47/47 46/46/46
f 49/49/49 47/47/47 48/48/48
f 50/50/50 49/49/49 48/48/48
f 53/53/53 52/52/52 51/51/51
f 54/54/54 53/53/53 51/51/51
f 57/57/57 56/56/56 55/55/55
f 58/58/58 57/57/57 55/55/55
f 61/61/61 60/60/60 59/59/59
f 62/62/62 61/61/61 59/59/59
f 65/65/65 64/64/64 63/63/63
f 66/66/66 65/65/65 63/63/63
f 69/69/69 68/68/68 67/67/67
f 70/70/70 69/69/69 67/67/67
f 71/71/71 69/69/69 70/70/70
f 72/72/72 71/71/71 70/70/70
f 73/73/73 71/71/71 72/72/72
f 74/74/74 73/73/73 72/72/72
f 75/75/75 73/73/73 74/74/74
f 76/76/76 75/75/75 74/74/74
f 77/77/77 75/75/75 76/76/76
f 78/78/78 77/77/77 76/76/76
f 79/79/79 77/77/77 78/78/78
f 80/80/80 79/79/79 78/78/78
f 83/83/83 82/82/82 81/81/81
f 82/82/82 84/84/84 81/81/81
f 81/81/81 84/84/84 85/85/85
f 84/84/84 86/86/86 85/85/85
f 85/85/85 86/86/86 87/87/87
f 86/86/86 88/88/88 87/87/87
f 87/87/87 88/88/88 89/89/89
f 88/88/88 90/90/90 89/89/89
f 89/89/89 90/90/90 91/91/91
f 90/90/90 92/92/92 91/91/91
f 91/91/91 92/92/92 93/93/93
f 92/92/92 94/94/94 93/93/93
f 97/97/97 96/96/96 95/95/95
f 98/98/98 97/97/97 95/95/95
f 99/99/99 97/97/97 98/98/98
f 100/100/100 99/99/99 98/98/98
f 101/101/101 99/99/99 100/100/100
f 102/102/102 101/101/101 100/100/100
f 103/103/103 101/101/101 102/102/102
f 104/104/104 103/103/103 102/102/102
f 105/105/105 103/103/103 104/104/104
f 106/106/106 105/105/105 104/104/104
f 107/107/107 105/105/105 106/106/106
f 108/108/108 107/107/107 106/106/106
f 109/109/109 107/107/107 108/108/108
f 110/110/110 109/109/109 108/108/108
f 111/111/111 109/109/109 110/110/110
f 112/112/112 111/111/111 110/110/110
f 113/113/113 111/111/111 112/112/112
f 114/114/114 113/113/113 112/112/112
f 115/115/115 113/113/113 114/114/114
f 116/116/116 115/115/115 114/114/114
f 117/117/117 115/115/115 116/116/116
f 118/118/118 117/117/117 116/116/116
f 121/121/121 120/120/120 119/119/119
f 120/120/120 122/122/122 119/119/119
f 119/119/119 122/122/122 123/123/123
f 122/122/122 124/124/124 123/123/123
f 123/123/123 124/124/124 125/125/125
f 124/124/124 126/126/126 125/125/125
f 125/125/125 126/126/126 127/127/127
f 126/126/126 128/128/128 127/127/127
f 127/127/127 128/128/128 129/129/129
f 128/128/128 130/130/130 129/129/129
f 129/129/129 130/130/130 131/131/131
f 130/130/130 132/132/132 131/131/131
f 131/131/131 132/132/132 133/133/133
f 132/132/132 134/134/134 133/133/133
f 133/133/133 134/134/134 135/135/135
f 134/134/134 136/136/136 135/135/135
f 135/135/135 136/136/136 137/137/137
f 136/136/136 138/138/138 137/137/137
f 137/137/137 138/138/138 139/139/139
f 138/138/138 140/140/140 139/139/139
f 139/139/139 140/140/140 141/141/141
f 140/140/140 142/142/142 141/141/141
f 145/145/145 144/144/144 143/143/143
f 144/144/144 146/146/146 143/143/143
f 143/143/143 146/146/146 147/147/147
f 146/146/146 148/148/148 147/147/147
f 147/147/147 148/148/148 149/149/149
f 148/148/148 150/150/150 149/149/149
f 149/149/149 150/150/150 151/151/151
f 150/150/150 152/152/152 151/151/151
f 151/151/151 152/152/152 153/153/153
f 152/152/152 154/154/154 153/153/153
f 157/157/157 156/156/156 155/155/155
f 158/158/158 157/157/157 155/155/155
f 159/159/159 157/157/157 158/158/158
f 160/160/160 159/159/159 158/158/158
f 161/161/161 159/159/159 160/160/160
f 162/162/162 161/161/161 160/160/160
f 163/163/163 161/161/161 162/162/162
f 164/164/164 163/163/163 162/162/162
f 165/165/165 163/163/163 164/164/164
f 166/166/166 165/165/165 164/164/164
