g PRP_TD_skin:PRP_Penguin_Door_Left
v 0.05505549 -0.99788207 -0.13066764
v -0.00020604192 -1.9699676 -0.0025442922
v 0.056049757 -1.967323 -0.12907916
v -0.0021103388 -0.99147433 -0.0006751669
v 0.053625133 -0.010246373 -0.12938423
v -0.0027872187 -2.494781E-07 -0.0014765584
v 0.056896314 1.0233223 -0.13191512
v -0.0033621697 1.0244347 -0.002252544
v 0.061258495 2.0321949 -0.12733012
v 0.0010848516 2.0313811 -0.0054236255
v 0.118650764 -1.8865713 0.057334244
v 0.8015916 -1.8880619 0.41744626
v 0.9743196 -1.9698155 0.5132886
v 0.056049757 -1.967323 -0.12907916
v 1.0400482 -1.9690707 0.3898546
v 0.7987702 -1.1358094 0.41872326
v 0.97203916 -0.9833441 0.51669
v 1.0400482 -1.9690707 0.3898546
v 1.0438522 -0.9779574 0.3938016
v 0.056049757 -1.967323 -0.12907916
v 0.05505549 -0.99788207 -0.13066764
v 0.97461677 0.00012151565 0.51629406
v 1.0425586 0.0038097175 0.38886294
v 0.053625133 -0.010246373 -0.12938423
v 0.97063124 1.0288811 0.5167217
v 1.0400981 1.0246896 0.38468233
v 0.056896314 1.0233223 -0.13191512
v 1.0297878 2.0363622 0.3854549
v 0.061258495 2.0321949 -0.12733012
v 0.9717416 2.0352156 0.50802773
v 0.80161446 1.9163581 0.42473117
v 1.0297878 2.0363622 0.3854549
v 0.061258495 2.0321949 -0.12733012
v 0.11986308 1.9156535 0.060732227
v 0.11839244 1.1604418 0.05948047
v 0.15033625 1.9013706 0.035566896
v 0.1478454 1.1795665 0.034311175
v 0.8065021 1.9018192 0.38890415
v 0.80389595 1.1775893 0.38452312
v 0.7991491 1.1601878 0.4188334
v 0.11865229 0.89601856 0.060768083
v 0.7969596 0.90016776 0.42307544
v 0.12513225 0.1326566 0.056235153
v 0.14290126 0.88273 0.045599703
v 0.14387171 0.13775961 0.046902116
v 0.8027255 0.13081151 0.42127353
v 0.80227894 0.8852169 0.3974213
v 0.80344963 0.13891713 0.3978374
v 0.12370387 -0.12587962 0.063217424
v 0.7985088 -0.129591 0.420516
v 0.11649684 -0.8621289 0.055992465
v 0.20384179 0.19360845 0.07718753
v 0.2057252 0.8108162 0.07641376
v 0.7367983 0.80938745 0.35885563
v 0.7375856 0.19676335 0.360816
v 0.23645745 0.790881 0.06287135
v 0.2367959 0.2150948 0.06340389
v 0.73323774 0.21907552 0.32817623
v 0.7336058 0.79280263 0.32907337
v 0.16409418 -0.8504415 0.014592701
v 0.16848627 -0.15104532 0.015301014
v 0.81315595 -0.85325414 0.36316997
v 0.80971116 -0.15127024 0.35626093
v 0.8022608 -0.8694097 0.4200301
v 0.12243327 -1.1355886 0.059862476
v 0.1659762 -1.1556107 0.016125293
v 0.16339472 -1.8731598 0.017009616
v 0.81065404 -1.1516541 0.36684978
v 0.81099075 -1.875075 0.36314958
vt 0.54666096 0.5011274
vt 0.5601645 0.40053913
vt 0.54666096 0.40053913
vt 0.5601645 0.5011274
vt 0.54666096 0.60500115
vt 0.5601645 0.60500115
vt 0.54666096 0.71242243
vt 0.5601645 0.71242243
vt 0.54666096 0.81757194
vt 0.5601645 0.81757194
vt 0.5738167 0.4069128
vt 0.6563456 0.4069128
vt 0.677365 0.40053913
vt 0.5601645 0.3822585
vt 0.677365 0.3822585
vt 0.6563456 0.48735633
vt 0.677365 0.5011274
vt 0.6923869 0.40053913
vt 0.6923869 0.5011274
vt 0.80719125 0.40053913
vt 0.80719125 0.5011274
vt 0.677365 0.60500115
vt 0.6923869 0.60500115
vt 0.80719125 0.60500115
vt 0.677365 0.71242243
vt 0.6923869 0.71242243
vt 0.80719125 0.71242243
vt 0.6923869 0.81757194
vt 0.80719125 0.81757194
vt 0.677365 0.81757194
vt 0.65857106 0.8055788
vt 0.677365 0.8315351
vt 0.5601645 0.8315351
vt 0.5766273 0.8055788
vt 0.5766273 0.72644854
vt 0.5799018 0.80243367
vt 0.5799018 0.72976786
vt 0.65564156 0.80243367
vt 0.65564156 0.72976786
vt 0.65857106 0.72644854
vt 0.57629186 0.6996874
vt 0.65827245 0.6996874
vt 0.57629186 0.61950266
vt 0.57847786 0.69721514
vt 0.57847786 0.6211633
vt 0.65827245 0.61950266
vt 0.6561992 0.69721514
vt 0.6561992 0.6211633
vt 0.5752492 0.5931098
vt 0.6578477 0.5931098
vt 0.5752492 0.5148522
vt 0.5855059 0.6268927
vt 0.5855059 0.68974274
vt 0.64837605 0.68974274
vt 0.64837605 0.6268927
vt 0.5886519 0.68697155
vt 0.5886519 0.6300212
vt 0.6455535 0.6300212
vt 0.6455535 0.68697155
vt 0.5803588 0.5193562
vt 0.5803588 0.58774525
vt 0.6529714 0.5193562
vt 0.6529714 0.58774525
vt 0.6578477 0.5148522
vt 0.5738167 0.48735633
vt 0.5787149 0.4827595
vt 0.5787149 0.41186488
vt 0.65204585 0.4827595
vt 0.65204585 0.41186488
vn 0.35232902 -0.00043429405 -0.93587613
vn -0.71858096 -0.6786626 0.15185018
vn 0.34937954 -0.13294327 -0.9275021
vn -0.9599394 -0.0009457599 0.28020626
vn 0.34946528 -0.0020720263 -0.93694705
vn -0.9655169 0.0038607349 0.26031172
vn 0.35015592 0.00056239456 -0.9366913
vn -0.96786547 0.0051752967 0.2514156
vn 0.34900847 0.13310167 -0.927619
vn -0.7533642 0.6346218 0.1723295
vn -0.34436783 0.11788753 0.931404
vn -0.5520266 0.10093166 0.8276952
vn 0.19761051 -0.6058384 0.77065545
vn 0.34937954 -0.13294327 -0.9275021
vn 0.57012063 -0.13769564 -0.80993974
vn -0.53181225 -0.08893031 0.84218
vn 0.22657217 -0.0019624738 0.9739924
vn 0.57012063 -0.13769564 -0.80993974
vn 0.5759785 -0.00041489067 -0.8174647
vn 0.34937954 -0.13294327 -0.9275021
vn 0.35232902 -0.00043429405 -0.93587613
vn 0.25583723 0.0038135366 0.96671236
vn 0.5757213 -0.0017560166 -0.8176442
vn 0.34946528 -0.0020720263 -0.93694705
vn 0.26981834 0.0053886846 0.96289617
vn 0.57576597 0.0008681188 -0.81761414
vn 0.35015592 0.00056239456 -0.9366913
vn 0.5690525 0.13865903 -0.8105263
vn 0.34900847 0.13310167 -0.927619
vn 0.23353665 0.58178765 0.7790917
vn -0.50629014 -0.031869333 0.86177415
vn 0.5690525 0.13865903 -0.8105263
vn 0.34900847 0.13310167 -0.927619
vn -0.41722372 -0.03780972 0.90801704
vn -0.42431232 0.06916611 0.90287054
vn -0.42008582 -0.059777543 0.90551335
vn -0.41717458 0.053237926 0.9072657
vn -0.5189592 -0.05902217 0.8527589
vn -0.5200952 0.05328016 0.85244477
vn -0.5011836 0.06148955 0.8631536
vn -0.42635596 -0.04165397 0.90359586
vn -0.49719834 -0.04186782 0.8666262
vn -0.42148766 0.044422377 0.9057455
vn -0.20556912 -0.31114596 0.9278629
vn -0.18106534 0.3035583 0.93545055
vn -0.5013547 0.041354205 0.86425304
vn -0.69424325 -0.2895645 0.6589224
vn -0.71524936 0.2793447 0.6406129
vn -0.37538123 -0.111391515 0.9201527
vn -0.5391566 -0.090860605 0.83729
vn -0.35924512 0.108534396 0.92691064
vn -0.3913735 0.08170927 0.91659725
vn -0.39817935 -0.0761493 0.91414136
vn -0.5356384 -0.07671085 0.840956
vn -0.5369061 0.083898865 0.8394598
vn -0.41620466 -0.056749325 0.90749836
vn -0.4164887 0.060338963 0.9071363
vn -0.52175903 0.058138102 0.85110956
vn -0.5203408 -0.056548454 0.8520843
vn -0.3870055 0.10014389 0.9166232
vn -0.38160127 -0.093940414 0.91954094
vn -0.54760194 0.09805182 0.8309741
vn -0.54742855 -0.09632193 0.83129066
vn -0.5431481 0.098969564 0.8337836
vn -0.38003498 -0.10150638 0.9193857
vn -0.3917954 -0.08659563 0.9159681
vn -0.3945101 0.08755545 0.9147108
vn -0.54233724 -0.08737512 0.83560514
vn -0.5400436 0.08709425 0.8371185
g PRP_TD_skin:PRP_Penguin_Door_Left_0
f 3/3/3 2/2/2 1/1/1
f 2/2/2 4/4/4 1/1/1
f 1/1/1 4/4/4 5/5/5
f 4/4/4 6/6/6 5/5/5
f 7/7/7 5/5/5 6/6/6
f 8/8/8 7/7/7 6/6/6
f 7/7/7 8/8/8 9/9/9
f 8/8/8 10/10/10 9/9/9
f 4/4/4 2/2/2 11/11/11
f 11/11/11 2/2/2 12/12/12
f 2/2/2 13/13/13 12/12/12
f 13/13/13 2/2/2 14/14/14
f 15/15/15 13/13/13 14/14/14
f 12/12/12 13/13/13 16/16/16
f 13/13/13 17/17/17 16/16/16
f 17/17/17 13/13/13 18/18/18
f 19/19/19 17/17/17 18/18/18
f 19/19/19 18/18/18 20/20/20
f 21/21/21 19/19/19 20/20/20
f 22/22/22 17/17/17 19/19/19
f 23/23/23 22/22/22 19/19/19
f 23/23/23 19/19/19 21/21/21
f 24/24/24 23/23/23 21/21/21
f 22/22/22 23/23/23 25/25/25
f 23/23/23 26/26/26 25/25/25
f 26/26/26 23/23/23 24/24/24
f 27/27/27 26/26/26 24/24/24
f 28/28/28 26/26/26 27/27/27
f 29/29/29 28/28/28 27/27/27
f 28/28/28 30/30/30 26/26/26
f 30/30/30 25/25/25 26/26/26
f 25/25/25 30/30/30 31/31/31
f 30/30/30 10/10/10 31/31/31
f 10/10/10 30/30/30 32/32/32
f 33/33/33 10/10/10 32/32/32
f 10/10/10 34/34/34 31/31/31
f 34/34/34 10/10/10 35/35/35
f 10/10/10 8/8/8 35/35/35
f 31/31/31 34/34/34 36/36/36
f 36/36/36 34/34/34 37/37/37
f 34/34/34 35/35/35 37/37/37
f 38/38/38 31/31/31 36/36/36
f 38/38/38 36/36/36 37/37/37
f 37/37/37 35/35/35 39/39/39
f 39/39/39 38/38/38 37/37/37
f 40/40/40 31/31/31 38/38/38
f 39/39/39 40/40/40 38/38/38
f 35/35/35 40/40/40 39/39/39
f 40/40/40 25/25/25 31/31/31
f 35/35/35 8/8/8 40/40/40
f 8/8/8 25/25/25 40/40/40
f 25/25/25 8/8/8 41/41/41
f 42/42/42 25/25/25 41/41/41
f 22/22/22 25/25/25 42/42/42
f 41/41/41 8/8/8 43/43/43
f 8/8/8 6/6/6 43/43/43
f 42/42/42 41/41/41 44/44/44
f 41/41/41 43/43/43 45/45/45
f 44/44/44 41/41/41 45/45/45
f 46/46/46 22/22/22 42/42/42
f 43/43/43 6/6/6 46/46/46
f 6/6/6 22/22/22 46/46/46
f 46/46/46 42/42/42 47/47/47
f 47/47/47 42/42/42 44/44/44
f 43/43/43 46/46/46 48/48/48
f 45/45/45 43/43/43 48/48/48
f 48/48/48 46/46/46 47/47/47
f 22/22/22 6/6/6 49/49/49
f 50/50/50 22/22/22 49/49/49
f 17/17/17 22/22/22 50/50/50
f 49/49/49 6/6/6 51/51/51
f 6/6/6 4/4/4 51/51/51
f 44/44/44 45/45/45 52/52/52
f 47/47/47 44/44/44 53/53/53
f 53/53/53 44/44/44 52/52/52
f 48/48/48 47/47/47 54/54/54
f 54/54/54 47/47/47 53/53/53
f 45/45/45 48/48/48 55/55/55
f 52/52/52 45/45/45 55/55/55
f 55/55/55 48/48/48 54/54/54
f 54/54/54 53/53/53 56/56/56
f 53/53/53 52/52/52 57/57/57
f 56/56/56 53/53/53 57/57/57
f 57/57/57 52/52/52 58/58/58
f 52/52/52 55/55/55 58/58/58
f 56/56/56 57/57/57 58/58/58
f 55/55/55 54/54/54 59/59/59
f 58/58/58 55/55/55 59/59/59
f 59/59/59 54/54/54 56/56/56
f 59/59/59 56/56/56 58/58/58
f 49/49/49 51/51/51 60/60/60
f 61/61/61 49/49/49 60/60/60
f 50/50/50 49/49/49 61/61/61
f 60/60/60 51/51/51 62/62/62
f 61/61/61 60/60/60 62/62/62
f 63/63/63 50/50/50 61/61/61
f 63/63/63 61/61/61 62/62/62
f 51/51/51 64/64/64 62/62/62
f 62/62/62 64/64/64 63/63/63
f 64/64/64 50/50/50 63/63/63
f 51/51/51 4/4/4 64/64/64
f 64/64/64 17/17/17 50/50/50
f 4/4/4 17/17/17 64/64/64
f 17/17/17 4/4/4 65/65/65
f 16/16/16 17/17/17 65/65/65
f 65/65/65 4/4/4 11/11/11
f 16/16/16 65/65/65 66/66/66
f 65/65/65 11/11/11 67/67/67
f 66/66/66 65/65/65 67/67/67
f 68/68/68 16/16/16 66/66/66
f 68/68/68 66/66/66 67/67/67
f 12/12/12 16/16/16 68/68/68
f 11/11/11 12/12/12 69/69/69
f 67/67/67 11/11/11 69/69/69
f 69/69/69 12/12/12 68/68/68
f 69/69/69 68/68/68 67/67/67
