g Ramp_01j_COL
v -32.48591 2.1864452 -147.63306
v -32.445786 5.220498 -147.6337
v -8.796453 11.9899025 -147.50293
v -8.918769 0.3323047 -147.47649
v -32.445786 5.2205076 -155.56633
v -8.796453 11.9899025 -155.69711
v -8.796453 11.9899025 -147.50293
v -32.445786 5.220498 -147.6337
v -32.445786 5.2205076 -155.56633
v -32.48591 2.1864452 -155.56699
v -8.91877 0.3323047 -155.72354
v -8.796453 11.9899025 -155.69711
v -8.918769 0.3323047 -147.47649
v -8.91877 0.3323047 -155.72354
v -32.48591 2.1864452 -155.56699
v -32.48591 2.1864452 -147.63306
v -8.796453 11.9899025 -147.50293
v -8.796453 11.9899025 -155.69711
v -8.91877 0.3323047 -155.72354
v -8.918769 0.3323047 -147.47649
v -32.48591 2.1864452 -147.63306
v -32.48591 2.1864452 -155.56699
v -32.445786 5.2205076 -155.56633
v -32.445786 5.220498 -147.6337
vt 0.375 0
vt 0.375 0.25
vt 0.625 0.25
vt 0.625 0
vt 0.375 0.5
vt 0.625 0.5
vt 0.625 0.25
vt 0.375 0.25
vt 0.375 0.5
vt 0.375 0.75
vt 0.625 0.75
vt 0.625 0.5
vt 0.625 1
vt 0.625 0.75
vt 0.375 0.75
vt 0.375 1
vt 0.625 0.25
vt 0.875 0.25
vt 0.875 0
vt 0.625 0
vt 0.375 0
vt 0.125 0
vt 0.125 0.25
vt 0.375 0.25
vn -0.00628444 0.001910547 0.9999784
vn -0.00628444 0.001910547 0.9999784
vn -0.0062844404 0.0019105469 0.9999784
vn -0.00628444 0.0019105469 0.9999784
vn -0.27518922 0.9613901 5.6717244E-07
vn -0.2751892 0.9613901 5.6717244E-07
vn -0.2751892 0.9613901 5.6717244E-07
vn -0.2751892 0.9613901 5.6717244E-07
vn -0.0062844404 0.0019162423 -0.9999784
vn -0.0062844404 0.0019162422 -0.9999784
vn -0.00628444 0.0019162422 -0.9999784
vn -0.00628444 0.0019162422 -0.9999784
vn -0.07843246 -0.9969195 0
vn -0.078432456 -0.9969195 0
vn -0.07843245 -0.9969195 0
vn -0.07843245 -0.9969195 0
vn 0.9999449 -0.010491819 0
vn 0.9999449 -0.010491819 0
vn 0.9999449 -0.01049182 0
vn 0.9999449 -0.01049182 0
vn -0.9999126 0.013222757 0
vn -0.9999126 0.013222757 0
vn -0.9999126 0.013222755 0
vn -0.9999126 0.013222756 0
g Ramp_01j_COL_0
f 3/3/3 2/2/2 1/1/1
f 4/4/4 3/3/3 1/1/1
f 7/7/7 6/6/6 5/5/5
f 8/8/8 7/7/7 5/5/5
f 11/11/11 10/10/10 9/9/9
f 12/12/12 11/11/11 9/9/9
f 15/15/15 14/14/14 13/13/13
f 16/16/16 15/15/15 13/13/13
f 19/19/19 18/18/18 17/17/17
f 20/20/20 19/19/19 17/17/17
f 23/23/23 22/22/22 21/21/21
f 24/24/24 23/23/23 21/21/21
