g SeeSawSmallPlatformCollider
v -9 -0.375 0
v -9 0 0
v -8.559509 -0.375 2.781153
v -8.559509 0 2.781153
v -8.559509 -0.375 2.781153
v -8.559509 0 2.781153
v -7.281153 -0.375 5.290067
v -7.281153 0 5.290067
v -7.281153 -0.375 5.290067
v -7.281153 0 5.290067
v -5.2900677 -0.375 7.281153
v -5.2900677 0 7.281153
v -5.2900677 -0.375 7.281153
v -5.2900677 0 7.281153
v -2.7811527 -0.375 8.559509
v -2.7811527 0 8.559509
v -2.7811527 -0.375 8.559509
v -2.7811527 0 8.559509
v -0 -0.375 9
v -0 0 9
v -0 -0.375 9
v -0 0 9
v 2.7811527 -0.375 8.559509
v 2.7811527 0 8.559509
v 2.7811527 -0.375 8.559509
v 2.7811527 0 8.559509
v 5.2900667 -0.375 7.281153
v 5.2900667 0 7.281153
v 5.2900667 -0.375 7.281153
v 5.2900667 0 7.281153
v 7.2811546 -0.375 5.2900667
v 7.2811546 0 5.2900667
v 7.2811546 -0.375 5.2900667
v 7.2811546 0 5.2900667
v 8.559509 -0.375 2.7811532
v 8.559509 0 2.7811532
v 8.559509 -0.375 2.7811532
v 8.559509 0 2.7811532
v 9 -0.375 -7.86805E-07
v 9 0 -7.86805E-07
v 9 -0.375 -7.86805E-07
v 9 0 -7.86805E-07
v 8.559509 -0.375 -2.7811527
v 8.559509 0 -2.7811527
v 8.559509 -0.375 -2.7811527
v 8.559509 0 -2.7811527
v 7.2811546 -0.375 -5.2900662
v 7.2811546 0 -5.2900662
v 7.2811546 -0.375 -5.2900662
v 7.2811546 0 -5.2900662
v 5.2900686 -0.375 -7.2811513
v 5.2900686 0 -7.2811513
v 5.2900686 -0.375 -7.2811513
v 5.2900686 0 -7.2811513
v 2.7811537 -0.375 -8.559508
v 2.7811537 0 -8.559508
v 2.7811537 -0.375 -8.559508
v 2.7811537 0 -8.559508
v -0 -0.375 -9
v -0 0 -9
v -0 -0.375 -9
v -0 0 -9
v -2.7811542 -0.375 -8.559508
v -2.7811542 0 -8.559508
v -2.7811542 -0.375 -8.559508
v -2.7811542 0 -8.559508
v -5.290066 -0.375 -7.281154
v -5.290066 0 -7.281154
v -5.290066 -0.375 -7.281154
v -5.290066 0 -7.281154
v -7.2811527 -0.375 -5.2900677
v -7.2811527 0 -5.2900677
v -7.2811527 -0.375 -5.2900677
v -7.2811527 0 -5.2900677
v -8.559509 -0.375 -2.7811525
v -8.559509 0 -2.7811525
v -8.559509 -0.375 -2.7811525
v -8.559509 0 -2.7811525
v -9 -0.375 0
v -9 0 0
v -9 0.375 0
v -8.559509 0.375 2.781153
v -8.559509 0.375 2.781153
v -7.281153 0.375 5.290067
v -7.281153 0.375 5.290067
v -5.2900677 0.375 7.281153
v -5.2900677 0.375 7.281153
v -2.7811527 0.375 8.559509
v -2.7811527 0.375 8.559509
v -0 0.375 9
v -0 0.375 9
v 2.7811527 0.375 8.559509
v 2.7811527 0.375 8.559509
v 5.2900667 0.375 7.281153
v 5.2900667 0.375 7.281153
v 7.2811546 0.375 5.2900667
v 7.2811546 0.375 5.2900667
v 8.559509 0.375 2.7811532
v 8.559509 0.375 2.7811532
v 9 0.375 -7.86805E-07
v 9 0.375 -7.86805E-07
v 8.559509 0.375 -2.7811527
v 8.559509 0.375 -2.7811527
v 7.2811546 0.375 -5.2900662
v 7.2811546 0.375 -5.2900662
v 5.2900686 0.375 -7.2811513
v 5.2900686 0.375 -7.2811513
v 2.7811537 0.375 -8.559508
v 2.7811537 0.375 -8.559508
v -0 0.375 -9
v -0 0.375 -9
v -2.7811542 0.375 -8.559508
v -2.7811542 0.375 -8.559508
v -5.290066 0.375 -7.281154
v -5.290066 0.375 -7.281154
v -7.2811527 0.375 -5.2900677
v -7.2811527 0.375 -5.2900677
v -8.559509 0.375 -2.7811525
v -8.559509 0.375 -2.7811525
v -9 0.375 0
v -8.559509 -0.375 2.781153
v -0 -0.375 0
v -9 -0.375 0
v -7.281153 -0.375 5.290067
v -5.2900677 -0.375 7.281153
v -2.7811527 -0.375 8.559509
v -0 -0.375 9
v 2.7811527 -0.375 8.559509
v 5.2900667 -0.375 7.281153
v 7.2811546 -0.375 5.2900667
v 8.559509 -0.375 2.7811532
v 9 -0.375 -7.86805E-07
v 8.559509 -0.375 -2.7811527
v 7.2811546 -0.375 -5.2900662
v 5.2900686 -0.375 -7.2811513
v 2.7811537 -0.375 -8.559508
v -0 -0.375 -9
v -2.7811542 -0.375 -8.559508
v -5.290066 -0.375 -7.281154
v -7.2811527 -0.375 -5.2900677
v -8.559509 -0.375 -2.7811525
v -9 0.375 0
v -0 0.375 0
v -8.559509 0.375 2.781153
v -7.281153 0.375 5.290067
v -5.2900677 0.375 7.281153
v -2.7811527 0.375 8.559509
v -0 0.375 9
v 2.7811527 0.375 8.559509
v 5.2900667 0.375 7.281153
v 7.2811546 0.375 5.2900667
v 8.559509 0.375 2.7811532
v 9 0.375 -7.86805E-07
v 8.559509 0.375 -2.7811527
v 7.2811546 0.375 -5.2900662
v 5.2900686 0.375 -7.2811513
v 2.7811537 0.375 -8.559508
v -0 0.375 -9
v -2.7811542 0.375 -8.559508
v -5.290066 0.375 -7.281154
v -7.2811527 0.375 -5.2900677
v -8.559509 0.375 -2.7811525
vt -1.4079082 -0.375
vt -1.4079082 0
vt 1.4079121 -0.375
vt 1.4079121 0
vt -1.4079114 -0.375
vt -1.4079114 0
vt 1.4079088 -0.375
vt 1.4079088 0
vt -1.4079093 -0.375
vt -1.4079093 0
vt 1.4079112 -0.375
vt 1.4079112 0
vt -1.4079103 -0.375
vt -1.4079103 0
vt 1.4079108 -0.375
vt 1.4079108 0
vt -1.4079118 -0.375
vt -1.4079118 0
vt 1.4079083 -0.375
vt 1.4079083 0
vt -1.4079083 -0.375
vt -1.4079083 0
vt 1.4079118 -0.375
vt 1.4079118 0
vt -1.4079123 -0.375
vt -1.4079123 0
vt 1.4079081 -0.375
vt 1.4079081 0
vt -1.4079077 -0.375
vt -1.4079077 0
vt 1.4079148 -0.375
vt 1.4079148 0
vt -1.4079107 -0.375
vt -1.4079107 0
vt 1.4079086 -0.375
vt 1.4079086 0
vt -1.4079127 -0.375
vt -1.4079127 0
vt 1.4079086 -0.375
vt 1.4079086 0
vt -1.4079078 -0.375
vt -1.4079078 0
vt 1.4079113 -0.375
vt 1.4079113 0
vt -1.4079089 -0.375
vt -1.4079089 0
vt 1.4079103 -0.375
vt 1.4079103 0
vt -1.407914 -0.375
vt -1.407914 0
vt 1.4079062 -0.375
vt 1.4079062 0
vt -1.4079094 -0.375
vt -1.4079094 0
vt 1.4079121 -0.375
vt 1.4079121 0
vt -1.4079102 -0.375
vt -1.4079102 0
vt 1.407911 -0.375
vt 1.407911 0
vt -1.4079107 -0.375
vt -1.4079107 0
vt 1.4079111 -0.375
vt 1.4079111 0
vt -1.4079084 -0.375
vt -1.4079084 0
vt 1.4079089 -0.375
vt 1.4079089 0
vt -1.4079111 -0.375
vt -1.4079111 0
vt 1.407911 -0.375
vt 1.407911 0
vt -1.4079095 -0.375
vt -1.4079095 0
vt 1.407912 -0.375
vt 1.407912 0
vt -1.4079113 -0.375
vt -1.4079113 0
vt 1.4079086 -0.375
vt 1.4079086 0
vt -1.4079082 0.375
vt 1.4079121 0.375
vt -1.4079114 0.375
vt 1.4079088 0.375
vt -1.4079093 0.375
vt 1.4079112 0.375
vt -1.4079103 0.375
vt 1.4079108 0.375
vt -1.4079118 0.375
vt 1.4079083 0.375
vt -1.4079083 0.375
vt 1.4079118 0.375
vt -1.4079123 0.375
vt 1.4079081 0.375
vt -1.4079077 0.375
vt 1.4079148 0.375
vt -1.4079107 0.375
vt 1.4079086 0.375
vt -1.4079127 0.375
vt 1.4079086 0.375
vt -1.4079078 0.375
vt 1.4079113 0.375
vt -1.4079089 0.375
vt 1.4079103 0.375
vt -1.407914 0.375
vt 1.4079062 0.375
vt -1.4079094 0.375
vt 1.4079121 0.375
vt -1.4079102 0.375
vt 1.407911 0.375
vt -1.4079107 0.375
vt 1.4079111 0.375
vt -1.4079084 0.375
vt 1.4079089 0.375
vt -1.4079111 0.375
vt 1.407911 0.375
vt -1.4079095 0.375
vt 1.407912 0.375
vt -1.4079113 0.375
vt 1.4079086 0.375
vt -8.559509 2.781153
vt 0 0
vt -9 0
vt -7.281153 5.290067
vt -5.2900677 7.281153
vt -2.7811527 8.559509
vt 0 9
vt 2.7811527 8.559509
vt 5.2900667 7.281153
vt 7.2811546 5.2900667
vt 8.559509 2.7811532
vt 9 -7.86805E-07
vt 8.559509 -2.7811527
vt 7.2811546 -5.2900662
vt 5.2900686 -7.2811513
vt 2.7811537 -8.559508
vt -0 -9
vt -2.7811542 -8.559508
vt -5.290066 -7.281154
vt -7.2811527 -5.2900677
vt -8.559509 -2.7811525
vt 9 0
vt 0 0
vt 8.559509 2.781153
vt 7.281153 5.290067
vt 5.2900677 7.281153
vt 2.7811527 8.559509
vt 0 9
vt -2.7811527 8.559509
vt -5.2900667 7.281153
vt -7.2811546 5.2900667
vt -8.559509 2.7811532
vt -9 -7.86805E-07
vt -8.559509 -2.7811527
vt -7.2811546 -5.2900662
vt -5.2900686 -7.2811513
vt -2.7811537 -8.559508
vt 0 -9
vt 2.7811542 -8.559508
vt 5.290066 -7.281154
vt 7.2811527 -5.2900677
vt 8.559509 -2.7811525
vn -1 0 -2.2630358E-08
vn -1 0 -2.2630358E-08
vn -0.9510565 0 0.30901694
vn -0.9510565 0 0.30901694
vn -0.9510565 0 0.30901694
vn -0.9510565 0 0.30901694
vn -0.809017 0 0.58778524
vn -0.809017 0 0.58778524
vn -0.809017 0 0.58778524
vn -0.809017 0 0.58778524
vn -0.5877853 0 0.809017
vn -0.5877853 0 0.809017
vn -0.5877853 0 0.809017
vn -0.5877853 0 0.809017
vn -0.3090169 0 0.95105654
vn -0.3090169 0 0.95105654
vn -0.3090169 0 0.95105654
vn -0.3090169 0 0.95105654
vn -0 0 1
vn -0 0 1
vn -0 0 1
vn -0 0 1
vn 0.309017 0 0.9510565
vn 0.309017 0 0.9510565
vn 0.309017 0 0.9510565
vn 0.309017 0 0.9510565
vn 0.5877851 0 0.80901706
vn 0.5877851 0 0.80901706
vn 0.5877851 0 0.80901706
vn 0.5877851 0 0.80901706
vn 0.80901694 0 0.5877853
vn 0.80901694 0 0.5877853
vn 0.80901694 0 0.5877853
vn 0.80901694 0 0.5877853
vn 0.95105654 0 0.30901676
vn 0.95105654 0 0.30901676
vn 0.95105654 0 0.30901676
vn 0.95105654 0 0.30901676
vn 1 0 -5.280417E-08
vn 1 0 -5.280417E-08
vn 1 0 -5.280417E-08
vn 1 0 -5.280417E-08
vn 0.95105654 0 -0.30901682
vn 0.95105654 0 -0.30901682
vn 0.95105654 0 -0.30901682
vn 0.95105654 0 -0.30901682
vn 0.809017 0 -0.58778524
vn 0.809017 0 -0.58778524
vn 0.809017 0 -0.58778524
vn 0.809017 0 -0.58778524
vn 0.5877853 0 -0.809017
vn 0.5877853 0 -0.809017
vn 0.5877853 0 -0.809017
vn 0.5877853 0 -0.809017
vn 0.30901718 0 -0.9510564
vn 0.30901718 0 -0.9510564
vn 0.30901718 0 -0.9510564
vn 0.30901718 0 -0.9510564
vn 1.5086906E-08 0 -1
vn 1.5086906E-08 0 -1
vn 1.5086906E-08 0 -1
vn 1.5086906E-08 0 -1
vn -0.30901697 0 -0.95105654
vn -0.30901697 0 -0.95105654
vn -0.30901697 0 -0.95105654
vn -0.30901697 0 -0.95105654
vn -0.5877851 0 -0.80901706
vn -0.5877852 0 -0.80901706
vn -0.5877851 0 -0.80901706
vn -0.5877852 0 -0.80901706
vn -0.8090169 0 -0.58778536
vn -0.8090169 0 -0.58778536
vn -0.8090169 0 -0.58778536
vn -0.8090169 0 -0.58778536
vn -0.9510565 0 -0.30901697
vn -0.9510565 0 -0.30901697
vn -0.9510565 0 -0.30901697
vn -0.9510565 0 -0.30901697
vn -1 0 -2.2630358E-08
vn -1 0 -2.2630358E-08
vn -1 0 -2.2630358E-08
vn -0.9510565 0 0.30901694
vn -0.9510565 0 0.30901694
vn -0.809017 0 0.58778524
vn -0.809017 0 0.58778524
vn -0.5877853 0 0.809017
vn -0.5877853 0 0.809017
vn -0.3090169 0 0.95105654
vn -0.3090169 0 0.95105654
vn -0 0 1
vn -0 0 1
vn 0.309017 0 0.9510565
vn 0.309017 0 0.9510565
vn 0.5877851 0 0.80901706
vn 0.5877851 0 0.80901706
vn 0.80901694 0 0.5877853
vn 0.80901694 0 0.5877853
vn 0.95105654 0 0.30901676
vn 0.95105654 0 0.30901676
vn 1 0 -5.280417E-08
vn 1 0 -5.280417E-08
vn 0.95105654 0 -0.30901682
vn 0.95105654 0 -0.30901682
vn 0.809017 0 -0.58778524
vn 0.809017 0 -0.58778524
vn 0.5877853 0 -0.809017
vn 0.5877853 0 -0.809017
vn 0.30901718 0 -0.9510564
vn 0.30901718 0 -0.9510564
vn 1.5086906E-08 0 -1
vn 1.5086906E-08 0 -1
vn -0.30901697 0 -0.95105654
vn -0.30901697 0 -0.95105654
vn -0.5877851 0 -0.80901706
vn -0.5877851 0 -0.80901706
vn -0.8090169 0 -0.58778536
vn -0.8090169 0 -0.58778536
vn -0.9510565 0 -0.30901697
vn -0.9510565 0 -0.30901697
vn -1 0 -2.2630358E-08
vn -0 -1 0
vn -0 -1 0
vn -0 -1 0
vn -0 -1 0
vn -0 -1 0
vn -0 -1 0
vn -0 -1 0
vn -0 -1 0
vn -0 -1 0
vn -0 -1 0
vn -0 -1 0
vn -0 -1 0
vn -0 -1 0
vn -0 -1 0
vn -0 -1 0
vn -0 -1 0
vn -0 -1 0
vn -0 -1 0
vn -0 -1 0
vn -0 -1 0
vn -0 -1 0
vn -0 1 0
vn -0 1 0
vn -0 1 0
vn -0 1 0
vn -0 1 0
vn -0 1 0
vn -0 1 0
vn -0 1 0
vn -0 1 0
vn -0 1 0
vn -0 1 0
vn -0 1 0
vn -0 1 0
vn -0 1 0
vn -0 1 0
vn -0 1 0
vn -0 1 0
vn -0 1 0
vn -0 1 0
vn -0 1 0
vn -0 1 0
g SeeSawSmallPlatformCollider_0
f 3/3/3 2/2/2 1/1/1
f 3/3/3 4/4/4 2/2/2
f 7/7/7 6/6/6 5/5/5
f 7/7/7 8/8/8 6/6/6
f 11/11/11 10/10/10 9/9/9
f 11/11/11 12/12/12 10/10/10
f 15/15/15 14/14/14 13/13/13
f 15/15/15 16/16/16 14/14/14
f 19/19/19 18/18/18 17/17/17
f 19/19/19 20/20/20 18/18/18
f 23/23/23 22/22/22 21/21/21
f 23/23/23 24/24/24 22/22/22
f 27/27/27 26/26/26 25/25/25
f 27/27/27 28/28/28 26/26/26
f 31/31/31 30/30/30 29/29/29
f 31/31/31 32/32/32 30/30/30
f 35/35/35 34/34/34 33/33/33
f 35/35/35 36/36/36 34/34/34
f 39/39/39 38/38/38 37/37/37
f 39/39/39 40/40/40 38/38/38
f 43/43/43 42/42/42 41/41/41
f 43/43/43 44/44/44 42/42/42
f 47/47/47 46/46/46 45/45/45
f 47/47/47 48/48/48 46/46/46
f 51/51/51 50/50/50 49/49/49
f 51/51/51 52/52/52 50/50/50
f 55/55/55 54/54/54 53/53/53
f 55/55/55 56/56/56 54/54/54
f 59/59/59 58/58/58 57/57/57
f 59/59/59 60/60/60 58/58/58
f 63/63/63 62/62/62 61/61/61
f 63/63/63 64/64/64 62/62/62
f 67/67/67 66/66/66 65/65/65
f 67/67/67 68/68/68 66/66/66
f 71/71/71 70/70/70 69/69/69
f 71/71/71 72/72/72 70/70/70
f 75/75/75 74/74/74 73/73/73
f 75/75/75 76/76/76 74/74/74
f 79/79/79 78/78/78 77/77/77
f 79/79/79 80/80/80 78/78/78
f 4/4/4 81/81/81 2/2/2
f 4/4/4 82/82/82 81/81/81
f 8/8/8 83/83/83 6/6/6
f 8/8/8 84/84/84 83/83/83
f 12/12/12 85/85/85 10/10/10
f 12/12/12 86/86/86 85/85/85
f 16/16/16 87/87/87 14/14/14
f 16/16/16 88/88/88 87/87/87
f 20/20/20 89/89/89 18/18/18
f 20/20/20 90/90/90 89/89/89
f 24/24/24 91/91/91 22/22/22
f 24/24/24 92/92/92 91/91/91
f 28/28/28 93/93/93 26/26/26
f 28/28/28 94/94/94 93/93/93
f 32/32/32 95/95/95 30/30/30
f 32/32/32 96/96/96 95/95/95
f 36/36/36 97/97/97 34/34/34
f 36/36/36 98/98/98 97/97/97
f 40/40/40 99/99/99 38/38/38
f 40/40/40 100/100/100 99/99/99
f 44/44/44 101/101/101 42/42/42
f 44/44/44 102/102/102 101/101/101
f 48/48/48 103/103/103 46/46/46
f 48/48/48 104/104/104 103/103/103
f 52/52/52 105/105/105 50/50/50
f 52/52/52 106/106/106 105/105/105
f 56/56/56 107/107/107 54/54/54
f 56/56/56 108/108/108 107/107/107
f 60/60/60 109/109/109 58/58/58
f 60/60/60 110/110/110 109/109/109
f 64/64/64 111/111/111 62/62/62
f 64/64/64 112/112/112 111/111/111
f 68/68/68 113/113/113 66/66/66
f 68/68/68 114/114/114 113/113/113
f 72/72/72 115/115/115 70/70/70
f 72/72/72 116/116/116 115/115/115
f 76/76/76 117/117/117 74/74/74
f 76/76/76 118/118/118 117/117/117
f 80/80/80 119/119/119 78/78/78
f 80/80/80 120/120/120 119/119/119
f 123/123/123 122/122/122 121/121/121
f 121/121/121 122/122/122 124/124/124
f 124/124/124 122/122/122 125/125/125
f 125/125/125 122/122/122 126/126/126
f 126/126/126 122/122/122 127/127/127
f 127/127/127 122/122/122 128/128/128
f 128/128/128 122/122/122 129/129/129
f 129/129/129 122/122/122 130/130/130
f 130/130/130 122/122/122 131/131/131
f 131/131/131 122/122/122 132/132/132
f 132/132/132 122/122/122 133/133/133
f 133/133/133 122/122/122 134/134/134
f 134/134/134 122/122/122 135/135/135
f 135/135/135 122/122/122 136/136/136
f 136/136/136 122/122/122 137/137/137
f 137/137/137 122/122/122 138/138/138
f 138/138/138 122/122/122 139/139/139
f 139/139/139 122/122/122 140/140/140
f 140/140/140 122/122/122 141/141/141
f 141/141/141 122/122/122 123/123/123
f 144/144/144 143/143/143 142/142/142
f 145/145/145 143/143/143 144/144/144
f 146/146/146 143/143/143 145/145/145
f 147/147/147 143/143/143 146/146/146
f 148/148/148 143/143/143 147/147/147
f 149/149/149 143/143/143 148/148/148
f 150/150/150 143/143/143 149/149/149
f 151/151/151 143/143/143 150/150/150
f 152/152/152 143/143/143 151/151/151
f 153/153/153 143/143/143 152/152/152
f 154/154/154 143/143/143 153/153/153
f 155/155/155 143/143/143 154/154/154
f 156/156/156 143/143/143 155/155/155
f 157/157/157 143/143/143 156/156/156
f 158/158/158 143/143/143 157/157/157
f 159/159/159 143/143/143 158/158/158
f 160/160/160 143/143/143 159/159/159
f 161/161/161 143/143/143 160/160/160
f 162/162/162 143/143/143 161/161/161
f 142/142/142 143/143/143 162/162/162
