g SM_PrismObstable_Sliced
v 0.9428072 1.6039271 -0.82290363
v -0.9681339 3.4834743 2.5308394
v -0.92763805 1.6039271 -0.82290363
v -0.93106794 3.473845 2.6089287
v -1.0051999 3.473845 2.6089287
v -0.9681339 3.4834743 2.5308394
v -1.0051999 -0.41069317 -4.3222723
v -0.93106794 -0.41069317 -4.3222723
v -0.9681339 -0.33906746 -4.289691
v -0.9681339 -3.4834738 -2.5274096
v -0.92974854 -3.4709425 -2.603916
v -1.0066509 -3.4709425 -2.603916
v 0.9428072 -1.5404792 0.9393778
v -0.9681339 0.33906794 4.292989
v -0.92974854 0.41082525 4.3222723
v 1.0066504 -1.4945755 0.921175
v 1.0066504 1.5643549 -0.79322433
v -0.93106794 3.473845 2.6089287
v 0.967474 1.5328288 -0.8516593
v 0.96575904 -1.5270247 0.8631358
v 0.9428072 -1.5404792 0.9393778
v 0.96575904 -1.5270247 0.8631358
v -0.95230484 -1.5279481 0.8636632
v -0.92763805 -1.5404792 0.9393778
v 0.9428072 -1.5404792 0.9393778
v -0.9914813 -1.4945755 0.921175
v -0.9681339 0.33906794 4.292989
v -0.92763805 -1.5404792 0.9393778
v -1.0066509 0.41082525 4.3222723
v -1.0051999 3.473845 2.6089287
v -0.9914813 1.5643549 -0.79322433
v 1.0066504 1.5643549 -0.79322433
v -0.93106794 3.473845 2.6089287
v -0.9681339 3.4834743 2.5308394
v 0.9428072 1.6039271 -0.82290363
v 0.967474 1.5328288 -0.8516593
v 0.9428072 1.6039271 -0.82290363
v -0.92763805 1.6039271 -0.82290363
v -0.9507222 1.5319057 -0.8511317
v 0.967474 1.5328288 -0.8516593
v 0.96575904 -1.5270247 0.8631358
v -0.95230484 -1.5279481 0.8636632
v -0.92763805 1.6039271 -0.82290363
v -0.9681339 3.4834743 2.5308394
v -1.0051999 3.473845 2.6089287
v -0.9914813 1.5643549 -0.79322433
v -0.9507222 1.5319057 -0.8511317
v -0.95230484 -1.5279481 0.8636632
v -0.9914813 1.5643549 -0.79322433
v -0.9914813 -1.4945755 0.921175
v -0.92763805 -1.5404792 0.9393778
v -0.93106794 3.473845 2.6089287
v -1.0066509 0.41082525 4.3222723
v -1.0051999 3.473845 2.6089287
v -0.92974854 0.41082525 4.3222723
v -0.9681339 0.33906794 4.292989
v -0.92763805 -1.6039267 0.82620144
v -0.9681339 -3.4834738 -2.5274096
v -1.0066509 -3.4709425 -2.603916
v -0.9914813 -1.5643544 0.7965226
v -0.9914813 1.494576 -0.9177449
v -1.0051999 -0.41069317 -4.3222723
v -0.95230484 1.5279484 -0.86036515
v -0.9507222 -1.5319052 0.8544297
v -0.92763805 -1.6039267 0.82620144
v -0.9507222 -1.5319052 0.8544297
v 0.9428072 -1.6039267 0.82620144
v -0.92763805 -1.6039267 0.82620144
v 0.967474 -1.5328286 0.8550892
v 0.96575904 1.5270252 -0.85983753
v -0.95230484 1.5279484 -0.86036515
v 1.0066504 -1.5643544 0.7965226
v -0.9681339 -3.4834738 -2.5274096
v 0.9428072 -1.6039267 0.82620144
v -0.92974854 -3.4709425 -2.603916
v -0.93106794 -0.41069317 -4.3222723
v 1.0066504 1.494576 -0.9177449
v -0.9914813 1.494576 -0.9177449
v -1.0051999 -0.41069317 -4.3222723
v -0.9681339 -0.33906746 -4.289691
v -0.92763805 1.5404797 -0.93608
v -0.95230484 1.5279484 -0.86036515
v -0.92763805 1.5404797 -0.93608
v 0.96575904 1.5270252 -0.85983753
v -0.95230484 1.5279484 -0.86036515
v 0.9428072 1.5404797 -0.93608
v -0.9681339 -0.33906746 -4.289691
v 0.9428072 1.5404797 -0.93608
v -0.9681339 -0.33906746 -4.289691
v -0.93106794 -0.41069317 -4.3222723
v 1.0066504 1.494576 -0.9177449
v 0.96575904 1.5270252 -0.85983753
v 0.967474 -1.5328286 0.8550892
v 1.0066504 1.494576 -0.9177449
v 1.0066504 -1.5643544 0.7965226
v 0.9428072 -1.6039267 0.82620144
v -1.0051999 -0.41069317 -4.3222723
v -1.0066509 -3.4709425 -2.603916
v -0.92974854 -3.4709425 -2.603916
v -0.93106794 -0.41069317 -4.3222723
vt 0.52756274 0.5168701
vt 0.09693988 0.7511367
vt 0.52756274 0.98248714
vt 0.08819134 0.74530435
vt 0.08819134 0.75696903
vt 0.09693988 0.7511367
vt 0.08819134 0.74530435
vt 0.08819134 0.75696903
vt 0.09693988 0.7511367
vt 0.49451268 0.00265
vt 0.4886803 0.015286788
vt 0.49742883 0.015286788
vt 0.9854033 0.0036220606
vt 0.50326127 0.0036220606
vt 0.49742883 0.015286788
vt 0.9863754 0.015286788
vt 0.9863754 0.49742883
vt 0.49742883 0.49742883
vt 0.9951239 0.49742883
vt 0.9951239 0.015286788
vt 0.9922077 0.006538242
vt 0.9795709 0.51298183
vt 0.9795709 0.9873474
vt 0.9873474 0.9854033
vt 0.9873474 0.5168701
vt 0.004594121 0.015286788
vt 0.4886803 0.0055661816
vt 0.004594121 0.0055661816
vt 0.4886803 0.015286788
vt 0.4886803 0.49742883
vt 0.004594121 0.49742883
vt 0.5265907 0.50714946
vt 0.08819134 0.74530435
vt 0.09693988 0.7511367
vt 0.52756274 0.5168701
vt 0.5363113 0.51298183
vt 0.52756274 0.5168701
vt 0.52756274 0.98248714
vt 0.53728336 0.9873474
vt 0.5363113 0.51298183
vt 0.9795709 0.51298183
vt 0.9795709 0.9873474
vt 0.52756274 0.98248714
vt 0.09693988 0.7511367
vt 0.08819134 0.75696903
vt 0.5265907 0.9931798
vt 0.53728336 0.9873474
vt 0.9795709 0.9873474
vt 0.5363113 0.99609596
vt 0.9795709 0.99706805
vt 0.9854033 0.99415183
vt 0.49742883 0.49742883
vt 0.4886803 0.015286788
vt 0.4886803 0.49742883
vt 0.49742883 0.015286788
vt 0.49451268 0.00265
vt 0.9854033 0.0036220606
vt 0.50326127 0.0036220606
vt 0.49742883 0.015286788
vt 0.9863754 0.015286788
vt 0.9863754 0.49742883
vt 0.49742883 0.49742883
vt 0.9951239 0.49742883
vt 0.9951239 0.015286788
vt 0.9922077 0.006538242
vt 0.9795709 0.51298183
vt 0.9873474 0.9854033
vt 0.9873474 0.5168701
vt 0.9795709 0.9873474
vt 0.53728336 0.9873474
vt 0.5363113 0.51298183
vt 0.004594121 0.015286788
vt 0.4886803 0.0055661816
vt 0.004594121 0.0055661816
vt 0.4886803 0.015286788
vt 0.4886803 0.49742883
vt 0.004594121 0.49742883
vt 0.5265907 0.50714946
vt 0.08819134 0.74530435
vt 0.09693988 0.7511367
vt 0.52756274 0.5168701
vt 0.5363113 0.51298183
vt 0.52756274 0.5168701
vt 0.53728336 0.9873474
vt 0.5363113 0.51298183
vt 0.52756274 0.98248714
vt 0.09693988 0.7511367
vt 0.52756274 0.98248714
vt 0.09693988 0.7511367
vt 0.08819134 0.75696903
vt 0.5265907 0.9931798
vt 0.53728336 0.9873474
vt 0.9795709 0.9873474
vt 0.5363113 0.99609596
vt 0.9795709 0.99706805
vt 0.9854033 0.99415183
vt 0.49742883 0.49742883
vt 0.49742883 0.015286788
vt 0.4886803 0.015286788
vt 0.4886803 0.49742883
vn 0.07597065 0.8701437 -0.486907
vn -0.023218751 0.90829355 -0.41768852
vn -0.046108663 0.85488385 -0.5167665
vn 0.89237577 0.23685747 0.38414064
vn -0.99985296 0.01558882 0.007146888
vn -0.023218751 0.90829355 -0.41768852
vn -0.99985296 0.00032889843 -0.017145878
vn 0.89237577 -0.21330982 -0.3976989
vn -0.023218751 0.831994 -0.5542985
vn -0.061368525 -0.94578546 0.3189416
vn 0.89237577 -0.23619968 -0.38454545
vn -0.99985296 -0.014931023 -0.0084352745
vn 0.4498384 -0.77792645 0.43872076
vn -0.061368525 -0.7626666 0.6438739
vn 0.89237577 0.21396762 0.39734536
vn 0.90000576 0.19870776 0.38794956
vn 0.90000576 0.22159761 0.37534535
vn 0.89237577 0.23685747 0.38414064
vn 0.030190885 -0.48035824 -0.8765526
vn 0.030190885 -0.5032481 -0.86361444
vn 0.4498384 -0.77792645 0.43872076
vn 0.030190885 -0.5032481 -0.86361444
vn -0.030848742 -0.5032481 -0.8635912
vn -0.46575612 -0.8694859 0.16451582
vn 0.4498384 -0.77792645 0.43872076
vn -0.99974555 -0.02255853 -0
vn -0.061368525 -0.7626666 0.6438739
vn -0.46575612 -0.8694859 0.16451582
vn -0.99985296 0.00032889843 0.017145878
vn -0.99985296 0.01558882 0.007146888
vn -0.99985296 0.007958889 -0.015190306
vn 0.90000576 0.22159761 0.37534535
vn 0.89237577 0.23685747 0.38414064
vn -0.023218751 0.90829355 -0.41768852
vn 0.07597065 0.8701437 -0.486907
vn 0.030190885 -0.48035824 -0.8765526
vn 0.07597065 0.8701437 -0.486907
vn -0.046108663 0.85488385 -0.5167665
vn -0.030848742 -0.48035824 -0.8765297
vn 0.030190885 -0.48035824 -0.8765526
vn 0.030190885 -0.5032481 -0.86361444
vn -0.030848742 -0.5032481 -0.8635912
vn -0.046108663 0.85488385 -0.5167665
vn -0.023218751 0.90829355 -0.41768852
vn -0.99985296 0.01558882 0.007146888
vn -0.99985296 0.007958889 -0.015190306
vn -0.030848742 -0.48035824 -0.8765297
vn -0.030848742 -0.5032481 -0.8635912
vn -0.99985296 0.007958889 -0.015190306
vn -0.99974555 -0.02255853 -0
vn -0.46575612 -0.8694859 0.16451582
vn 0.89237577 0.23685747 0.38414064
vn -0.99985296 0.00032889843 0.017145878
vn -0.99985296 0.01558882 0.007146888
vn 0.89237577 0.21396762 0.39734536
vn -0.061368525 -0.7626666 0.6438739
vn -0.46575612 -0.58717763 0.6620375
vn -0.061368525 -0.94578546 0.3189416
vn -0.99985296 -0.014931023 -0.0084352745
vn -0.99985296 -0.0073010325 0.015517224
vn -0.9997305 0.023215909 -0
vn -0.99985296 0.00032889843 -0.017145878
vn -0.030848742 0.50390595 0.86320746
vn -0.030848742 0.4733861 0.8803147
vn -0.46575612 -0.58717763 0.6620375
vn -0.030848742 0.4733861 0.8803147
vn 0.4498384 -0.77792645 0.43872076
vn -0.46575612 -0.58717763 0.6620375
vn 0.030190885 0.4733861 0.88033754
vn 0.030190885 0.50390595 0.86323076
vn -0.030848742 0.50390595 0.86320746
vn 0.90000576 -0.22093976 -0.37573296
vn -0.061368525 -0.94578546 0.3189416
vn 0.4498384 -0.77792645 0.43872076
vn 0.89237577 -0.23619968 -0.38454545
vn 0.89237577 -0.21330982 -0.3976989
vn 0.90000576 -0.1980499 -0.38828582
vn -0.9997305 0.023215909 -0
vn -0.99985296 0.00032889843 -0.017145878
vn -0.023218751 0.831994 -0.5542985
vn -0.046108663 0.8854037 -0.46253026
vn -0.030848742 0.50390595 0.86320746
vn -0.046108663 0.8854037 -0.46253026
vn 0.030190885 0.50390595 0.86323076
vn -0.030848742 0.50390595 0.86320746
vn 0.07597065 0.8701437 -0.486907
vn -0.023218751 0.831994 -0.5542985
vn 0.07597065 0.8701437 -0.486907
vn -0.023218751 0.831994 -0.5542985
vn 0.89237577 -0.21330982 -0.3976989
vn 0.90000576 -0.1980499 -0.38828582
vn 0.030190885 0.50390595 0.86323076
vn 0.030190885 0.4733861 0.88033754
vn 0.90000576 -0.1980499 -0.38828582
vn 0.90000576 -0.22093976 -0.37573296
vn 0.4498384 -0.77792645 0.43872076
vn -0.99985296 0.00032889843 -0.017145878
vn -0.99985296 -0.014931023 -0.0084352745
vn 0.89237577 -0.23619968 -0.38454545
vn 0.89237577 -0.21330982 -0.3976989
g SM_PrismObstable_Sliced_0
f 3/3/3 2/2/2 1/1/1
f 6/6/6 5/5/5 4/4/4
f 9/9/9 8/8/8 7/7/7
f 12/12/12 11/11/11 10/10/10
f 15/15/15 14/14/14 13/13/13
f 16/16/16 15/15/15 13/13/13
f 16/16/16 17/17/17 15/15/15
f 17/17/17 18/18/18 15/15/15
f 19/19/19 17/17/17 16/16/16
f 20/20/20 19/19/19 16/16/16
f 20/20/20 16/16/16 21/21/21
f 24/24/24 23/23/23 22/22/22
f 25/25/25 24/24/24 22/22/22
f 28/28/28 27/27/27 26/26/26
f 27/27/27 29/29/29 26/26/26
f 29/29/29 30/30/30 26/26/26
f 30/30/30 31/31/31 26/26/26
f 34/34/34 33/33/33 32/32/32
f 35/35/35 34/34/34 32/32/32
f 36/36/36 35/35/35 32/32/32
f 39/39/39 38/38/38 37/37/37
f 40/40/40 39/39/39 37/37/37
f 39/39/39 40/40/40 41/41/41
f 42/42/42 39/39/39 41/41/41
f 45/45/45 44/44/44 43/43/43
f 46/46/46 45/45/45 43/43/43
f 47/47/47 46/46/46 43/43/43
f 49/49/49 47/47/47 48/48/48
f 50/50/50 49/49/49 48/48/48
f 48/48/48 51/51/51 50/50/50
f 54/54/54 53/53/53 52/52/52
f 53/53/53 55/55/55 52/52/52
f 55/55/55 53/53/53 56/56/56
f 59/59/59 58/58/58 57/57/57
f 60/60/60 59/59/59 57/57/57
f 60/60/60 61/61/61 59/59/59
f 61/61/61 62/62/62 59/59/59
f 63/63/63 61/61/61 60/60/60
f 64/64/64 63/63/63 60/60/60
f 64/64/64 60/60/60 65/65/65
f 68/68/68 67/67/67 66/66/66
f 67/67/67 69/69/69 66/66/66
f 69/69/69 70/70/70 66/66/66
f 70/70/70 71/71/71 66/66/66
f 74/74/74 73/73/73 72/72/72
f 73/73/73 75/75/75 72/72/72
f 75/75/75 76/76/76 72/72/72
f 76/76/76 77/77/77 72/72/72
f 80/80/80 79/79/79 78/78/78
f 81/81/81 80/80/80 78/78/78
f 82/82/82 81/81/81 78/78/78
f 85/85/85 84/84/84 83/83/83
f 84/84/84 86/86/86 83/83/83
f 86/86/86 87/87/87 83/83/83
f 90/90/90 89/89/89 88/88/88
f 91/91/91 90/90/90 88/88/88
f 92/92/92 91/91/91 88/88/88
f 94/94/94 92/92/92 93/93/93
f 95/95/95 94/94/94 93/93/93
f 93/93/93 96/96/96 95/95/95
f 99/99/99 98/98/98 97/97/97
f 100/100/100 99/99/99 97/97/97
