g SM_VFX_Kraken_Cone_05
v 0.5217897 0 1.5912545
v 0.5950853 0 1.2904155
v 0.67051804 0 1.5261678
v 0.52173823 0 1.0611814
v 0.3636108 0 1.6289499
v 0.44559458 0 0.8232071
v 0.18653072 0 1.6551915
v 0.3792987 0 0.61601025
v -0 0 1.6649778
v 0.29543865 0 0.35391974
v 0.22913724 0 0.14670576
v 0.17279316 0 -0.029388234
v 0.086396635 0 -0.029388234
v -0 0 -0.029388234
v -0.5217897 0 1.5912545
v -0.67051804 0 1.5261678
v -0.5950853 0 1.2904155
v -0.52173823 0 1.0611814
v -0.3636108 0 1.6289499
v -0.44559458 0 0.8232071
v -0.18653072 0 1.6551915
v -0.3792987 0 0.61601025
v -0 0 1.6649778
v -0.29543865 0 0.35391974
v -0.22913724 0 0.14670576
v -0.17279316 0 -0.029388234
v -0.086396635 0 -0.029388234
v -0 0 -0.029388234
vt 0.54062486 0.3125
vt 0.53749985 0.36947557
vt 0.53749985 0.3125
vt 0.53749985 0.42487586
vt 0.5437498 0.3125
vt 0.53749985 0.48238844
vt 0.5468748 0.3125
vt 0.53749985 0.53246284
vt 0.54999983 0.3125
vt 0.53749985 0.59580374
vt 0.53749985 0.64588225
vt 0.53749985 0.68843985
vt 0.5437498 0.68843985
vt 0.54999983 0.68843985
vt 0.54062486 0.3125
vt 0.53749985 0.3125
vt 0.53749985 0.36947557
vt 0.53749985 0.42487586
vt 0.5437498 0.3125
vt 0.53749985 0.48238844
vt 0.5468748 0.3125
vt 0.53749985 0.53246284
vt 0.54999983 0.3125
vt 0.53749985 0.59580374
vt 0.53749985 0.64588225
vt 0.53749985 0.68843985
vt 0.5437498 0.68843985
vt 0.54999983 0.68843985
vn -0 1 0
vn -0 1 0
vn -0 1 0
vn -0 1 0
vn -0 1 0
vn -0 1 0
vn -0 1 0
vn -0 1 0
vn -0 1 0
vn -0 1 0
vn -0 1 0
vn -0 1 0
vn -0 1 0
vn -0 1 0
vn -0 1 0
vn -0 1 0
vn -0 1 0
vn -0 1 0
vn -0 1 0
vn -0 1 0
vn -0 1 0
vn -0 1 0
vn -0 1 0
vn -0 1 0
vn -0 1 0
vn -0 1 0
vn -0 1 0
vn -0 1 0
g SM_VFX_Kraken_Cone_05_0
f 3/3/3 2/2/2 1/1/1
f 2/2/2 4/4/4 1/1/1
f 4/4/4 5/5/5 1/1/1
f 4/4/4 6/6/6 5/5/5
f 6/6/6 7/7/7 5/5/5
f 6/6/6 8/8/8 7/7/7
f 8/8/8 9/9/9 7/7/7
f 10/10/10 9/9/9 8/8/8
f 11/11/11 9/9/9 10/10/10
f 12/12/12 9/9/9 11/11/11
f 13/13/13 9/9/9 12/12/12
f 13/13/13 14/14/14 9/9/9
f 17/17/17 16/16/16 15/15/15
f 18/18/18 17/17/17 15/15/15
f 19/19/19 18/18/18 15/15/15
f 20/20/20 18/18/18 19/19/19
f 21/21/21 20/20/20 19/19/19
f 22/22/22 20/20/20 21/21/21
f 23/23/23 22/22/22 21/21/21
f 23/23/23 24/24/24 22/22/22
f 23/23/23 25/25/25 24/24/24
f 23/23/23 26/26/26 25/25/25
f 23/23/23 27/27/27 26/26/26
f 23/23/23 28/28/28 27/27/27
