g SM_VFX_Kraken_Cone_01
v -0.28944153 0 0.33337262
v -0.17279316 0 -0.029388234
v -0.12959489 0 -0.029388234
v -0.21708117 0 0.3428191
v -0.4099813 0 0.7091975
v -0.086396635 0 -0.029388234
v -0.3098487 0 0.7296192
v -0.538304 0 1.1111506
v -0.14472081 0 0.3510847
v -0.043198373 0 -0.029388234
v -0.4131786 0 1.1456051
v -0.5994191 0 1.3029897
v -0.07236045 0 0.35698876
v -1.0972561E-07 0 -0.029388234
v -0.20853467 0 0.747436
v -0.46338338 0 1.3516037
v -0.67051804 0 1.5261678
v -0.5217897 0 1.5912545
v -9.033829E-08 0 0.3593503
v 0.04319815 0 -0.029388234
v -0.28332788 0 1.1755441
v -0.32043815 0 1.385128
v -0.3636108 0 1.6289499
v -0.104858026 0 0.76004326
v 0.07236026 0 0.35698876
v 0.08639641 0 -0.029388234
v -0.16367388 0 1.4085019
v -0.18653072 0 1.6551915
v -0.14402662 0 1.1964529
v -6.775372E-08 0 0.76504433
v 0.14472063 0 0.3510847
v 0.12959467 0 -0.029388234
v -4.1822112E-08 0 1.4174333
v -2.9802322E-08 0 1.6649778
v -5.2154064E-08 0 1.2046494
v 0.104857884 0 0.76004326
v 0.21708097 0 0.3428191
v 0.17279293 0 -0.029388234
v 0.28944135 0 0.33337262
v 0.16367379 0 1.4085019
v 0.18653066 0 1.6551915
v 0.14402653 0 1.1964529
v 0.20853454 0 0.747436
v 0.3098485 0 0.7296192
v 0.40998116 0 0.7091975
v 0.2833278 0 1.175544
v 0.3204381 0 1.385128
v 0.36361074 0 1.6289499
v 0.4131785 0 1.145605
v 0.53830385 0 1.1111506
v 0.46338332 0 1.3516036
v 0.52178967 0 1.5912545
v 0.599419 0 1.3029897
v 0.670518 0 1.5261678
vt 0.53749985 0.5944549
vt 0.53749985 0.68843985
vt 0.54062486 0.68843985
vt 0.54062486 0.5944549
vt 0.53749985 0.5004699
vt 0.5437498 0.68843985
vt 0.54062486 0.5004699
vt 0.53749985 0.40648496
vt 0.5437498 0.5944549
vt 0.5468748 0.68843985
vt 0.54062486 0.40648496
vt 0.53749985 0.363041
vt 0.5468748 0.5944549
vt 0.54999983 0.68843985
vt 0.5437498 0.5004699
vt 0.54062486 0.363041
vt 0.53749985 0.3125
vt 0.54062486 0.3125
vt 0.54999983 0.5944549
vt 0.55312485 0.68843985
vt 0.5437498 0.40648496
vt 0.5437498 0.363041
vt 0.5437498 0.3125
vt 0.5468748 0.5004699
vt 0.55312485 0.5944549
vt 0.55624986 0.68843985
vt 0.5468748 0.363041
vt 0.5468748 0.3125
vt 0.5468748 0.40648496
vt 0.54999983 0.5004699
vt 0.55624986 0.5944549
vt 0.5593748 0.68843985
vt 0.54999983 0.363041
vt 0.54999983 0.3125
vt 0.54999983 0.40648496
vt 0.55312485 0.5004699
vt 0.5593748 0.5944549
vt 0.5624998 0.68843985
vt 0.5624998 0.5944549
vt 0.55312485 0.363041
vt 0.55312485 0.3125
vt 0.55312485 0.40648496
vt 0.55624986 0.5004699
vt 0.5593748 0.5004699
vt 0.5624998 0.5004699
vt 0.55624986 0.40648496
vt 0.55624986 0.363041
vt 0.55624986 0.3125
vt 0.5593748 0.40648496
vt 0.5624998 0.40648496
vt 0.5593748 0.363041
vt 0.5593748 0.3125
vt 0.5624998 0.363041
vt 0.5624998 0.3125
vn -0 1 0
vn -0 1 0
vn -0 1 0
vn -0 1 0
vn -0 1 0
vn -0 1 0
vn -0 1 0
vn -0 1 0
vn -0 1 0
vn -0 1 0
vn -0 1 0
vn -0 1 0
vn -0 1 0
vn -0 1 0
vn -0 1 0
vn -0 1 0
vn -0 1 0
vn -0 1 0
vn -0 1 0
vn -0 1 0
vn -0 1 0
vn -0 1 0
vn -0 1 0
vn -0 1 0
vn -0 1 0
vn -0 1 0
vn -0 1 0
vn -0 1 0
vn -0 1 0
vn -0 1 0
vn -0 1 0
vn -0 1 0
vn -0 1 0
vn -0 1 0
vn -0 1 0
vn -0 1 0
vn -0 1 0
vn -0 1 0
vn -0 1 0
vn -0 1 0
vn -0 1 0
vn -0 1 0
vn -0 1 0
vn -0 1 0
vn -0 1 0
vn -0 1 0
vn -0 1 0
vn -0 1 0
vn -0 1 0
vn -0 1 0
vn -0 1 0
vn -0 1 0
vn -0 1 0
vn -0 1 0
g SM_VFX_Kraken_Cone_01_0
f 3/3/3 2/2/2 1/1/1
f 4/4/4 3/3/3 1/1/1
f 4/4/4 1/1/1 5/5/5
f 6/6/6 3/3/3 4/4/4
f 7/7/7 4/4/4 5/5/5
f 7/7/7 5/5/5 8/8/8
f 9/9/9 6/6/6 4/4/4
f 9/9/9 4/4/4 7/7/7
f 10/10/10 6/6/6 9/9/9
f 11/11/11 7/7/7 8/8/8
f 11/11/11 8/8/8 12/12/12
f 13/13/13 10/10/10 9/9/9
f 14/14/14 10/10/10 13/13/13
f 15/15/15 9/9/9 7/7/7
f 15/15/15 7/7/7 11/11/11
f 13/13/13 9/9/9 15/15/15
f 16/16/16 11/11/11 12/12/12
f 16/16/16 12/12/12 17/17/17
f 18/18/18 16/16/16 17/17/17
f 19/19/19 14/14/14 13/13/13
f 20/20/20 14/14/14 19/19/19
f 21/21/21 15/15/15 11/11/11
f 21/21/21 11/11/11 16/16/16
f 22/22/22 16/16/16 18/18/18
f 22/22/22 21/21/21 16/16/16
f 23/23/23 22/22/22 18/18/18
f 24/24/24 13/13/13 15/15/15
f 24/24/24 15/15/15 21/21/21
f 19/19/19 13/13/13 24/24/24
f 25/25/25 20/20/20 19/19/19
f 26/26/26 20/20/20 25/25/25
f 27/27/27 22/22/22 23/23/23
f 28/28/28 27/27/27 23/23/23
f 29/29/29 21/21/21 22/22/22
f 29/29/29 24/24/24 21/21/21
f 27/27/27 29/29/29 22/22/22
f 30/30/30 19/19/19 24/24/24
f 30/30/30 24/24/24 29/29/29
f 25/25/25 19/19/19 30/30/30
f 31/31/31 26/26/26 25/25/25
f 32/32/32 26/26/26 31/31/31
f 33/33/33 27/27/27 28/28/28
f 34/34/34 33/33/33 28/28/28
f 35/35/35 29/29/29 27/27/27
f 35/35/35 30/30/30 29/29/29
f 33/33/33 35/35/35 27/27/27
f 36/36/36 25/25/25 30/30/30
f 36/36/36 30/30/30 35/35/35
f 31/31/31 25/25/25 36/36/36
f 37/37/37 32/32/32 31/31/31
f 38/38/38 32/32/32 37/37/37
f 39/39/39 38/38/38 37/37/37
f 40/40/40 33/33/33 34/34/34
f 41/41/41 40/40/40 34/34/34
f 42/42/42 35/35/35 33/33/33
f 42/42/42 36/36/36 35/35/35
f 40/40/40 42/42/42 33/33/33
f 43/43/43 31/31/31 36/36/36
f 37/37/37 31/31/31 43/43/43
f 43/43/43 36/36/36 42/42/42
f 39/39/39 37/37/37 44/44/44
f 44/44/44 37/37/37 43/43/43
f 45/45/45 39/39/39 44/44/44
f 46/46/46 43/43/43 42/42/42
f 46/46/46 42/42/42 40/40/40
f 44/44/44 43/43/43 46/46/46
f 47/47/47 40/40/40 41/41/41
f 47/47/47 46/46/46 40/40/40
f 48/48/48 47/47/47 41/41/41
f 45/45/45 44/44/44 49/49/49
f 49/49/49 44/44/44 46/46/46
f 49/49/49 46/46/46 47/47/47
f 50/50/50 45/45/45 49/49/49
f 51/51/51 47/47/47 48/48/48
f 51/51/51 49/49/49 47/47/47
f 50/50/50 49/49/49 51/51/51
f 52/52/52 51/51/51 48/48/48
f 53/53/53 50/50/50 51/51/51
f 53/53/53 51/51/51 52/52/52
f 54/54/54 53/53/53 52/52/52
