g Special_Goo_Slide_Medium_Col
v -9.574263 -11.639074 17.83435
v -9.574263 -5.200128 17.834587
v 9.692501 -5.200128 17.834587
v 9.692501 -11.639074 17.83435
v -9.574263 -5.200128 17.834587
v -9.574263 1.5253404 1.6538324
v 9.692501 1.5253404 1.6538324
v 9.692501 -5.200128 17.834587
v -9.574263 1.5253404 1.6538324
v -9.574263 -4.964662 1.6280861
v 9.692501 -4.964662 1.6280861
v 9.692501 1.5253404 1.6538324
v -9.574263 -4.964662 1.6280861
v -9.574263 -11.639074 17.83435
v 9.692501 -11.639074 17.83435
v 9.692501 -4.964662 1.6280861
v 9.692501 -11.639074 17.83435
v 9.692501 -5.200128 17.834587
v 9.692501 1.5253404 1.6538324
v 9.692501 -4.964662 1.6280861
v -9.574263 -4.964662 1.6280861
v -9.574263 1.5253404 1.6538324
v -9.574263 -5.200128 17.834587
v -9.574263 -11.639074 17.83435
vt 0.375 0
vt 0.375 0.25
vt 0.625 0.25
vt 0.625 0
vt 0.375 0.25
vt 0.375 0.5
vt 0.625 0.5
vt 0.625 0.25
vt 0.375 0.5
vt 0.375 0.75
vt 0.625 0.75
vt 0.625 0.5
vt 0.375 0.75
vt 0.375 1
vt 0.625 1
vt 0.625 0.75
vt 0.625 0
vt 0.625 0.25
vt 0.875 0.25
vt 0.875 0
vt 0.125 0
vt 0.125 0.25
vt 0.375 0.25
vt 0.375 0
vn -0 -3.673136E-05 1
vn -0 -3.673136E-05 1
vn -0 -3.673136E-05 1
vn -0 -3.673136E-05 1
vn -0 0.9234112 0.38381228
vn -0 0.9234112 0.38381228
vn -0 0.9234112 0.38381228
vn -0 0.9234112 0.38381228
vn -0 0.0039670467 -0.99999213
vn -0 0.0039670467 -0.99999213
vn -0 0.0039670467 -0.99999213
vn -0 0.0039670467 -0.99999213
vn -0 -0.92465305 -0.38081053
vn -0 -0.92465305 -0.38081053
vn -0 -0.92465305 -0.38081053
vn -0 -0.92465305 -0.38081053
vn 1 0 0
vn 1 0 0
vn 1 0 0
vn 1 0 0
vn -1 0 0
vn -1 0 0
vn -1 0 0
vn -1 0 0
g Special_Goo_Slide_Medium_Col_0
f 3/3/3 2/2/2 1/1/1
f 4/4/4 3/3/3 1/1/1
f 7/7/7 6/6/6 5/5/5
f 8/8/8 7/7/7 5/5/5
f 11/11/11 10/10/10 9/9/9
f 12/12/12 11/11/11 9/9/9
f 15/15/15 14/14/14 13/13/13
f 16/16/16 15/15/15 13/13/13
f 19/19/19 18/18/18 17/17/17
f 20/20/20 19/19/19 17/17/17
f 23/23/23 22/22/22 21/21/21
f 24/24/24 23/23/23 21/21/21
