g Tube_Outer
v -6.7140484 -1.099844 0.8800545
v 2.9942732 -1.099844 0.8800545
v -6.7140484 -1.099844 -0.8798542
v -6.7140484 -1.099844 -0.8798542
v -6.7140484 -0.8798542 -1.099844
v -6.7140484 -1.099844 0.8800545
v -6.7140484 -0.53394127 1.1000423
v -6.7140484 -0.3139534 -0.8798542
v -6.7140484 -0.53394127 -1.099844
v -6.7140484 -0.3139534 0.8800545
v -6.7140484 -0.8798542 1.1000423
v 2.9942732 -0.53394127 1.1000423
v -6.7140484 -0.3139534 0.8800545
v 2.9942732 -0.8798542 1.1000423
v 2.9942732 -1.099844 0.8800545
v 3.4893742 -1.099844 1.2775497
v 2.9942732 -0.3139534 0.8800545
v 2.9942732 -0.3139534 -0.8798542
v -6.7140484 -0.3139534 -0.8798542
v -6.7140484 -0.53394127 -1.099844
v 3.441331 -0.53394127 1.4707355
v 3.4893742 -0.3139534 1.2775497
v 4.0967445 -0.3139534 -0.052495956
v 3.441331 -0.8798542 1.4707355
v 4.144788 -0.53394127 -0.24618721
v 2.9942732 -0.53394127 -1.099844
v 4.544813 -0.3139534 2.0330982
v 3.7402115 -0.3139534 2.253086
v 3.639573 -0.53394127 2.2803955
v 4.6454515 -0.53394127 2.0057888
v 4.544813 -0.3139534 12.180386
v 3.7402115 -0.3139534 12.180386
v 4.6454515 -0.53394127 12.180386
v 3.639573 -0.8798542 2.2803955
v 3.639573 -0.53394127 12.180386
v 3.7402115 -1.099844 2.253086
v 4.6454515 -0.8798542 2.0057888
v 4.6454515 -0.8798542 12.180386
v 4.144788 -0.8798542 -0.24618721
v 2.9942732 -0.53394127 -1.099844
v 5.0829 -0.53394127 13.30258
v 4.990859 -0.3139534 13.3895645
v 4.2530127 -0.3139534 14.086447
v 5.0829 -0.8798542 13.30258
v 4.544813 -1.099844 2.0330982
v 4.0967445 -1.099844 -0.052495956
v 4.544813 -1.099844 12.180386
v 2.9942732 -0.8798542 -1.099844
v -6.7140484 -0.53394127 -1.099844
v 2.9942732 -0.3139534 -0.8798542
v 2.9942732 -1.099844 -0.8798542
v -6.7140484 -1.099844 -0.8798542
v 2.9942732 -1.099844 0.8800545
v 3.7402115 -1.099844 12.180386
v 4.990859 -1.099844 13.3895645
v 3.639573 -0.8798542 12.180386
v 4.2530127 -1.099844 14.086447
v 5.5997467 -0.8798542 13.738005
v 4.1609716 -0.53394127 14.173937
v 4.1609716 -0.8798542 14.173937
v 5.576989 -1.099844 13.950914
v 5.5997467 -0.53394127 13.738005
v 5.576989 -0.3139534 13.950914
v 5.3979645 -0.3139534 15.65317
v 5.3979645 -1.099844 15.65317
v 5.375207 -0.53394127 15.866079
v 5.375207 -0.8798542 15.866079
v 17.197948 -0.53394127 15.866079
v 17.205534 -0.3139534 15.65317
v 17.197948 -0.8798542 15.866079
v 17.205534 -1.099844 15.65317
v 17.268244 -1.099844 13.950914
v 17.268244 -0.3139534 13.950914
v 17.276335 -0.53394127 13.738005
v 17.276335 -0.8798542 13.738005
v -6.7140484 -0.8798542 -1.099844
v -6.7140484 -1.099844 -0.8798542
v 2.9942732 -0.8798542 -1.099844
vt 0.3745611 0.9750025
vt 0.6500017 0
vt 0.3745611 0.7748554
vt 0.14963382 0
vt 0.1248537 0.024780123
vt 0.34978098 0
vt 0.3745611 0.22492728
vt 0.14963382 0.2497074
vt 0.1248537 0.22492728
vt 0.34978098 0.2497074
vt 0.3745611 0.024780123
vt 0.62522155 0.22492728
vt 0.3745611 0.2754406
vt 0.62522155 0.024780123
vt 0.6500017 0
vt 0.6500017 0
vt 0.6500017 0.2497074
vt 0.85014886 0.2497074
vt 0.3745611 0.47463468
vt 0.3745611 0.525148
vt 0.62522155 0.22492728
vt 0.6500017 0.2497074
vt 0.85014886 0.2497074
vt 0.62522155 0.024780123
vt 0.87492895 0.22492728
vt 0.87492895 0.22492728
vt 0.85014886 0.2497074
vt 0.6500017 0.2497074
vt 0.62522155 0.22492728
vt 0.87492895 0.22492728
vt 0.85014886 0.2497074
vt 0.6500017 0.2497074
vt 0.87492895 0.22492728
vt 0.62522155 0.024780123
vt 0.62522155 0.22492728
vt 0.6500017 0
vt 0.87492895 0.024780123
vt 0.87492895 0.024780123
vt 0.87492895 0.024780123
vt 0.87492895 0.22492728
vt 0.87492895 0.22492728
vt 0.85014886 0.2497074
vt 0.6500017 0.2497074
vt 0.87492895 0.024780123
vt 0.85014886 0
vt 0.85014886 0
vt 0.85014886 0
vt 0.87492895 0.024780123
vt 0.3745611 0.525148
vt 0.85014886 0.2497074
vt 0.85014886 0
vt 0.3745611 0.7748554
vt 0.6500017 0
vt 0.6500017 0
vt 0.85014886 0
vt 0.62522155 0.024780123
vt 0.6500017 0
vt 0.87492895 0.024780123
vt 0.62522155 0.22492728
vt 0.62522155 0.024780123
vt 0.85014886 0
vt 0.87492895 0.22492728
vt 0.85014886 0.2497074
vt 0.6500017 0.2497074
vt 0.6500017 0
vt 0.62522155 0.22492728
vt 0.62522155 0.024780123
vt 0.62522155 0.22492728
vt 0.6500017 0.2497074
vt 0.62522155 0.024780123
vt 0.6500017 0
vt 0.85014886 0
vt 0.85014886 0.2497074
vt 0.87492895 0.22492728
vt 0.87492895 0.024780123
vt 0.3745611 0.7252951
vt 0.3745611 0.7748554
vt 0.87492895 0.024780123
vn -0.12904096 -0.9893144 0.06786363
vn -0.003910303 -0.99713504 0.07554052
vn -0.12904096 -0.9893144 -0.06786363
vn -0.12904096 -0.9893144 -0.06786363
vn -0.387123 -0.33237833 -0.8600351
vn -0.12904096 -0.9893144 0.06786363
vn -0.387123 0.3323784 0.8600351
vn -0.12904096 0.9893143 -0.06786451
vn -0.387123 0.3323784 -0.8600351
vn -0.12904096 0.9893143 0.06786451
vn -0.387123 -0.33237833 0.8600351
vn -0.035192966 0.36366105 0.9308663
vn -0.12904096 0.9893143 0.06786451
vn -0.035192966 -0.36366105 0.9308663
vn -0.003910303 -0.99713504 0.07554052
vn -0.058655024 -0.99713504 0.047762416
vn -0.003910303 0.99713504 0.07554052
vn 0.011731029 0.9893143 -0.14532562
vn -0.12904096 0.9893143 -0.06786451
vn -0.387123 0.3323784 -0.8600351
vn -0.86418366 0.246351 0.43874568
vn -0.058655024 0.99713504 0.047762416
vn 0.293275 0.95021105 -0.105303034
vn -0.86418366 -0.246351 0.43874568
vn 0.8407217 0.22288895 -0.49346477
vn 0.06647569 0.35584033 -0.9321795
vn 0.29271427 0.95619994 -0
vn -0.18378568 0.9814937 0.053785793
vn -0.9814937 0.18378568 0.053785827
vn 0.9814937 0.16814435 -0.091638245
vn 0.222889 0.973673 -0.04776429
vn -0.246351 0.9658524 0.08025211
vn 0.9814937 0.17596495 -0.07554088
vn -0.9814937 -0.18378568 0.053785827
vn -0.9814937 0.17596495 0.07554088
vn -0.18378568 -0.9814937 0.053785793
vn 0.9814937 -0.16814435 -0.091638245
vn 0.9814937 -0.17596501 -0.07554074
vn 0.8407217 -0.222889 -0.49346474
vn 0.06647569 0.35584033 -0.9321795
vn 0.832901 0.23070967 -0.5030397
vn 0.08983142 0.9959569 -0
vn -0.26199234 0.95803165 0.11634165
vn 0.832901 -0.23070967 -0.5030397
vn 0.29271424 -0.9561999 -0
vn 0.293275 -0.95021105 -0.105303034
vn 0.222889 -0.97367305 -0.047763042
vn 0.06647569 -0.35584038 -0.9321795
vn -0.387123 0.3323784 -0.8600351
vn 0.011731029 0.9893143 -0.14532562
vn 0.011731029 -0.9893144 -0.14532521
vn -0.12904096 -0.9893144 -0.06786363
vn -0.003910303 -0.99713504 0.07554052
vn -0.246351 -0.9658524 0.08025211
vn 0.08983142 -0.9959569 -0
vn -0.9814937 -0.17596501 0.07554074
vn -0.26199234 -0.9580317 0.116341144
vn 0.035193026 -0.36366105 -0.9308663
vn -0.879825 0.19942701 0.4314358
vn -0.879825 -0.19942701 0.4314358
vn 0.0039103627 -0.99713504 -0.07554052
vn 0.035193026 0.36366105 -0.9308663
vn 0.0039103627 0.99713504 -0.07554052
vn -0.019551635 0.9893143 0.14448155
vn -0.019551635 -0.9893144 0.14448114
vn -0.10557902 0.3323784 0.93721807
vn -0.10557902 -0.33237833 0.93721807
vn 0.30891633 0.3323784 0.89112025
vn 0.09775835 0.9893143 0.108168624
vn 0.30891633 -0.33237833 0.89112025
vn 0.09775835 -0.9893144 0.10816807
vn 0.10557902 -0.9893144 -0.10054919
vn 0.10557902 0.9893143 -0.10054979
vn 0.32455766 0.3323784 -0.8855433
vn 0.32455766 -0.33237833 -0.8855433
vn -0.387123 -0.33237833 -0.8600351
vn -0.12904096 -0.9893144 -0.06786363
vn 0.06647569 -0.35584038 -0.9321795
g Tube_Outer_0
f 3/3/3 2/2/2 1/1/1
f 6/6/6 5/5/5 4/4/4
f 7/7/7 5/5/5 6/6/6
f 7/7/7 8/8/8 5/5/5
f 5/5/5 8/8/8 9/9/9
f 8/8/8 7/7/7 10/10/10
f 7/7/7 6/6/6 11/11/11
f 11/11/11 12/12/12 7/7/7
f 12/12/12 13/13/13 7/7/7
f 6/6/6 14/14/14 11/11/11
f 11/11/11 14/14/14 12/12/12
f 6/6/6 15/15/15 14/14/14
f 16/16/16 14/14/14 15/15/15
f 12/12/12 17/17/17 13/13/13
f 13/13/13 17/17/17 18/18/18
f 13/13/13 18/18/18 19/19/19
f 18/18/18 20/20/20 19/19/19
f 14/14/14 21/21/21 12/12/12
f 12/12/12 22/22/22 17/17/17
f 12/12/12 21/21/21 22/22/22
f 17/17/17 23/23/23 18/18/18
f 17/17/17 22/22/22 23/23/23
f 16/16/16 24/24/24 14/14/14
f 14/14/14 24/24/24 21/21/21
f 18/18/18 23/23/23 25/25/25
f 18/18/18 25/25/25 26/26/26
f 22/22/22 27/27/27 23/23/23
f 21/21/21 28/28/28 22/22/22
f 22/22/22 28/28/28 27/27/27
f 24/24/24 29/29/29 21/21/21
f 21/21/21 29/29/29 28/28/28
f 23/23/23 30/30/30 25/25/25
f 23/23/23 27/27/27 30/30/30
f 28/28/28 31/31/31 27/27/27
f 32/32/32 28/28/28 29/29/29
f 28/28/28 32/32/32 31/31/31
f 33/33/33 30/30/30 27/27/27
f 33/33/33 27/27/27 31/31/31
f 24/24/24 34/34/34 29/29/29
f 32/32/32 29/29/29 35/35/35
f 34/34/34 35/35/35 29/29/29
f 36/36/36 34/34/34 24/24/24
f 36/36/36 24/24/24 16/16/16
f 25/25/25 30/30/30 37/37/37
f 30/30/30 33/33/33 38/38/38
f 30/30/30 38/38/38 37/37/37
f 25/25/25 37/37/37 39/39/39
f 40/40/40 25/25/25 39/39/39
f 31/31/31 41/41/41 33/33/33
f 32/32/32 42/42/42 31/31/31
f 31/31/31 42/42/42 41/41/41
f 35/35/35 43/43/43 32/32/32
f 32/32/32 43/43/43 42/42/42
f 33/33/33 44/44/44 38/38/38
f 33/33/33 41/41/41 44/44/44
f 38/38/38 45/45/45 37/37/37
f 37/37/37 46/46/46 39/39/39
f 37/37/37 45/45/45 46/46/46
f 44/44/44 47/47/47 38/38/38
f 38/38/38 47/47/47 45/45/45
f 40/40/40 39/39/39 48/48/48
f 49/49/49 40/40/40 48/48/48
f 50/50/50 40/40/40 49/49/49
f 39/39/39 51/51/51 48/48/48
f 39/39/39 46/46/46 51/51/51
f 48/48/48 51/51/51 52/52/52
f 52/52/52 51/51/51 53/53/53
f 46/46/46 53/53/53 51/51/51
f 46/46/46 16/16/16 53/53/53
f 45/45/45 16/16/16 46/46/46
f 45/45/45 36/36/36 16/16/16
f 47/47/47 36/36/36 45/45/45
f 47/47/47 54/54/54 36/36/36
f 54/54/54 34/34/34 36/36/36
f 55/55/55 54/54/54 47/47/47
f 44/44/44 55/55/55 47/47/47
f 54/54/54 56/56/56 34/34/34
f 34/34/34 56/56/56 35/35/35
f 55/55/55 57/57/57 54/54/54
f 57/57/57 56/56/56 54/54/54
f 58/58/58 55/55/55 44/44/44
f 41/41/41 58/58/58 44/44/44
f 56/56/56 59/59/59 35/35/35
f 35/35/35 59/59/59 43/43/43
f 57/57/57 60/60/60 56/56/56
f 56/56/56 60/60/60 59/59/59
f 61/61/61 57/57/57 55/55/55
f 58/58/58 61/61/61 55/55/55
f 41/41/41 62/62/62 58/58/58
f 42/42/42 62/62/62 41/41/41
f 43/43/43 63/63/63 42/42/42
f 42/42/42 63/63/63 62/62/62
f 59/59/59 64/64/64 43/43/43
f 43/43/43 64/64/64 63/63/63
f 65/65/65 60/60/60 57/57/57
f 61/61/61 65/65/65 57/57/57
f 60/60/60 66/66/66 59/59/59
f 59/59/59 66/66/66 64/64/64
f 60/60/60 67/67/67 66/66/66
f 65/65/65 67/67/67 60/60/60
f 68/68/68 64/64/64 66/66/66
f 67/67/67 68/68/68 66/66/66
f 69/69/69 63/63/63 64/64/64
f 68/68/68 69/69/69 64/64/64
f 67/67/67 70/70/70 68/68/68
f 65/65/65 70/70/70 67/67/67
f 70/70/70 69/69/69 68/68/68
f 61/61/61 71/71/71 65/65/65
f 65/65/65 71/71/71 70/70/70
f 61/61/61 72/72/72 71/71/71
f 72/72/72 70/70/70 71/71/71
f 72/72/72 61/61/61 58/58/58
f 69/69/69 73/73/73 63/63/63
f 73/73/73 62/62/62 63/63/63
f 74/74/74 69/69/69 70/70/70
f 69/69/69 74/74/74 73/73/73
f 74/74/74 70/70/70 72/72/72
f 73/73/73 74/74/74 62/62/62
f 62/62/62 75/75/75 58/58/58
f 72/72/72 58/58/58 75/75/75
f 74/74/74 72/72/72 75/75/75
f 62/62/62 74/74/74 75/75/75
f 78/78/78 77/77/77 76/76/76
f 20/20/20 78/78/78 76/76/76
