g VFX_Button
v 1 0.2550639 0
v 0.9000103 0.3538226 -9.8542394E-08
v 0.8559612 0.3538226 -0.27811876
v 0.95105714 0.2550639 -0.30901718
v 0.95105714 -0.0033061549 -0.30901718
v 1 -0.0033061549 0
v 0.95105654 0.2550639 0.309017
v 0.9000103 0.3538226 -9.8542394E-08
v 0.85596067 0.3538226 0.2781185
v 0.95105654 -0.0033061549 0.309017
v 0.809017 0.2550639 0.5877853
v 0.85596067 0.3538226 0.2781185
v 0.7281236 0.3538226 0.5290128
v 0.809017 -0.0033061549 0.5877853
v 0.58778524 0.2550639 0.80901706
v 0.7281236 0.3538226 0.5290128
v 0.52901274 0.3538226 0.72812366
v 0.58778524 -0.0033061549 0.80901706
v 0.30901697 0.2550639 0.9510566
v 0.52901274 0.3538226 0.72812366
v 0.27811843 0.3538226 0.8559607
v 0.30901697 -0.0033061549 0.9510566
v -2.9802322E-08 0.2550639 1.0000001
v 0.27811843 0.3538226 0.8559607
v -3.9954557E-08 0.3538226 0.9000104
v -2.9802322E-08 -0.0033061549 1.0000001
v -0.30901706 0.2550639 0.95105666
v -3.9954557E-08 0.3538226 0.9000104
v -0.27811855 0.3538226 0.8559608
v -0.30901706 -0.0033061549 0.95105666
v -0.58778536 0.2550639 0.8090171
v -0.27811855 0.3538226 0.8559608
v -0.5290129 0.3538226 0.7281237
v -0.58778536 -0.0033061549 0.8090171
v -0.8090172 0.2550639 0.58778536
v -0.5290129 0.3538226 0.7281237
v -0.7281238 0.3538226 0.52901286
v -0.8090172 -0.0033061549 0.58778536
v -0.9510568 0.2550639 0.30901706
v -0.7281238 0.3538226 0.52901286
v -0.8559609 0.3538226 0.27811855
v -0.9510568 -0.0033061549 0.30901706
v -1.0000002 0.2550639 0
v -0.8559609 0.3538226 0.27811855
v -0.9000105 0.3538226 0
v -1.0000002 -0.0033061549 0
v -0.9510568 0.2550639 -0.30901706
v -0.9000105 0.3538226 0
v -0.8559609 0.3538226 -0.27811855
v -0.9510568 -0.0033061549 -0.30901706
v -0.80901724 0.2550639 -0.5877854
v -0.8559609 0.3538226 -0.27811855
v -0.72812384 0.3538226 -0.529013
v -0.80901724 -0.0033061549 -0.5877854
v -0.5877855 0.2550639 -0.8090173
v -0.72812384 0.3538226 -0.529013
v -0.529013 0.3538226 -0.72812396
v -0.5877855 -0.0033061549 -0.8090173
v -0.30901715 0.2550639 -0.95105696
v -0.529013 0.3538226 -0.72812396
v -0.2781186 0.3538226 -0.8559611
v -0.30901715 -0.0033061549 -0.95105696
v -0 0.2550639 -1.0000005
v -0.2781186 0.3538226 -0.8559611
v 9.40725E-09 0.3538226 -0.90001076
v -0 -0.0033061549 -1.0000005
v 0.30901715 0.2550639 -0.951057
v 9.40725E-09 0.3538226 -0.90001076
v 0.27811864 0.3538226 -0.85596114
v 0.30901715 -0.0033061549 -0.951057
v 0.5877856 0.2550639 -0.8090175
v 0.27811864 0.3538226 -0.85596114
v 0.52901316 0.3538226 -0.7281241
v 0.5877856 -0.0033061549 -0.8090175
v 0.80901754 0.2550639 -0.5877856
v 0.52901316 0.3538226 -0.7281241
v 0.72812414 0.3538226 -0.5290131
v 0.80901754 -0.0033061549 -0.5877856
v 0.95105714 0.2550639 -0.30901718
v 0.95105714 -0.0033061549 -0.30901718
v 0.72812414 0.3538226 -0.5290131
v 0.8559612 0.3538226 -0.27811876
v 0.85596067 0.3538226 0.2781185
v -0 0.3538226 0
v 0.9000103 0.3538226 -9.8542394E-08
v 0.7281236 0.3538226 0.5290128
v 0.8559612 0.3538226 -0.27811876
v 0.52901274 0.3538226 0.72812366
v 0.72812414 0.3538226 -0.5290131
v 0.27811843 0.3538226 0.8559607
v 0.52901316 0.3538226 -0.7281241
v -3.9954557E-08 0.3538226 0.9000104
v 0.27811864 0.3538226 -0.85596114
v -0.27811855 0.3538226 0.8559608
v 9.40725E-09 0.3538226 -0.90001076
v -0.5290129 0.3538226 0.7281237
v -0.2781186 0.3538226 -0.8559611
v -0.7281238 0.3538226 0.52901286
v -0.529013 0.3538226 -0.72812396
v -0.8559609 0.3538226 0.27811855
v -0.72812384 0.3538226 -0.529013
v -0.9000105 0.3538226 0
v -0.8559609 0.3538226 -0.27811855
vt 0.6124998 0.66987616
vt 0.6131247 0.68843985
vt 0.62437487 0.6884399
vt 0.62499976 0.66987616
vt 0.62499976 0.3125
vt 0.6124998 0.3125
vt 0.5999998 0.6698762
vt 0.6118748 0.68843985
vt 0.60062474 0.68843985
vt 0.5999998 0.3125
vt 0.5874998 0.66987616
vt 0.59937483 0.68843985
vt 0.58812475 0.68843985
vt 0.5874998 0.3125
vt 0.5749998 0.6698762
vt 0.58687484 0.6884399
vt 0.57562476 0.68843985
vt 0.5749998 0.3125
vt 0.5624998 0.66987616
vt 0.5743749 0.68843985
vt 0.5631248 0.68843985
vt 0.5624998 0.3125
vt 0.54999983 0.66987616
vt 0.56187487 0.68843985
vt 0.5506248 0.68843985
vt 0.54999983 0.3125
vt 0.53749985 0.6698762
vt 0.5493749 0.68843985
vt 0.5381248 0.68843985
vt 0.53749985 0.3125
vt 0.52499986 0.66987616
vt 0.53687495 0.68843985
vt 0.5256248 0.68843985
vt 0.52499986 0.3125
vt 0.51249987 0.6698762
vt 0.5243749 0.68843985
vt 0.5131248 0.68843985
vt 0.51249987 0.3125
vt 0.49999988 0.66987616
vt 0.5118749 0.68843985
vt 0.50062484 0.68843985
vt 0.49999988 0.3125
vt 0.4874999 0.66987616
vt 0.49937493 0.68843985
vt 0.48812482 0.68843985
vt 0.4874999 0.3125
vt 0.4749999 0.66987616
vt 0.48687497 0.68843985
vt 0.47562483 0.68843985
vt 0.4749999 0.3125
vt 0.46249992 0.66987616
vt 0.47437498 0.68843985
vt 0.46312484 0.68843985
vt 0.46249992 0.3125
vt 0.44999993 0.6698762
vt 0.461875 0.68843985
vt 0.45062485 0.68843985
vt 0.44999993 0.3125
vt 0.43749994 0.66987616
vt 0.449375 0.68843985
vt 0.43812487 0.68843985
vt 0.43749994 0.3125
vt 0.42499995 0.66987616
vt 0.436875 0.68843985
vt 0.42562488 0.68843985
vt 0.42499995 0.3125
vt 0.41249996 0.6698762
vt 0.424375 0.68843985
vt 0.4131249 0.68843985
vt 0.41249996 0.3125
vt 0.39999998 0.66987616
vt 0.41187504 0.68843985
vt 0.4006249 0.68843985
vt 0.39999998 0.3125
vt 0.3875 0.66987616
vt 0.39937502 0.68843985
vt 0.3881249 0.68843985
vt 0.3875 0.3125
vt 0.375 0.66987616
vt 0.375 0.3125
vt 0.38687503 0.68843985
vt 0.37562495 0.68843985
vt 0.6337439 0.799669
vt 0.5 0.8375
vt 0.6406266 0.8431251
vt 0.61376935 0.76046675
vt 0.6337439 0.8865811
vt 0.58265835 0.72935563
vt 0.61376935 0.9257833
vt 0.5434561 0.70938104
vt 0.5826583 0.9568944
vt 0.5 0.70249844
vt 0.54345596 0.9768689
vt 0.45654395 0.70938116
vt 0.5 0.98375165
vt 0.41734168 0.72935575
vt 0.456544 0.9768689
vt 0.38623056 0.76046675
vt 0.41734174 0.9568944
vt 0.36625615 0.799669
vt 0.3862307 0.92578334
vt 0.35937336 0.84312505
vt 0.36625615 0.8865811
vn 0.9689003 0.24745148 0
vn 0.21067823 0.9775555 0
vn 0.20036727 0.9775554 -0.06510305
vn 0.9214792 0.24745123 -0.29940572
vn 0.9510568 0 -0.30901605
vn 1 0 0
vn 0.9214789 0.2474513 0.29940662
vn 0.21067823 0.9775555 0
vn 0.20036714 0.9775554 0.06510323
vn 0.95105654 0 0.30901697
vn 0.78385687 0.24745135 0.56950533
vn 0.20036714 0.9775554 0.06510323
vn 0.17044243 0.9775555 0.123833686
vn 0.80901706 0 0.5877852
vn 0.56950533 0.2474512 0.78385687
vn 0.17044243 0.9775555 0.123833686
vn 0.12383367 0.9775554 0.17044246
vn 0.5877852 0 0.80901706
vn 0.29940674 0.24745117 0.9214789
vn 0.12383367 0.9775554 0.17044246
vn 0.06510326 0.9775554 0.20036718
vn 0.3090171 0 0.95105654
vn -0 0.24745117 0.96890044
vn 0.06510326 0.9775554 0.20036718
vn -0 0.9775554 0.21067853
vn -0 0 1
vn -0.29940668 0.24745117 0.92147905
vn -0 0.9775554 0.21067853
vn -0.06510324 0.9775555 0.2003671
vn -0.30901688 0 0.95105654
vn -0.56950533 0.24745128 0.7838569
vn -0.06510324 0.9775555 0.2003671
vn -0.123833686 0.9775555 0.17044234
vn -0.5877851 0 0.80901706
vn -0.7838567 0.24745117 0.56950545
vn -0.123833686 0.9775555 0.17044234
vn -0.17044236 0.9775555 0.12383365
vn -0.8090169 0 0.5877854
vn -0.92147905 0.247451 0.29940674
vn -0.17044236 0.9775555 0.12383365
vn -0.20036711 0.9775555 0.06510324
vn -0.95105654 0 0.30901706
vn -0.96890044 0.24745096 0
vn -0.20036711 0.9775555 0.06510324
vn -0.21067847 0.9775554 0
vn -1 0 0
vn -0.92147905 0.24745107 -0.29940665
vn -0.21067847 0.9775554 0
vn -0.20036711 0.9775554 -0.065103225
vn -0.95105654 0 -0.30901688
vn -0.783857 0.24745108 -0.5695052
vn -0.20036711 0.9775554 -0.065103225
vn -0.17044245 0.9775555 -0.12383365
vn -0.80901706 0 -0.5877852
vn -0.5695055 0.24745105 -0.7838567
vn -0.17044245 0.9775555 -0.12383365
vn -0.123833716 0.9775555 -0.1704424
vn -0.5877854 0 -0.8090169
vn -0.29940677 0.24745117 -0.9214789
vn -0.123833716 0.9775555 -0.1704424
vn -0.0651032 0.9775554 -0.20036711
vn -0.30901712 0 -0.9510565
vn -0 0.2474512 -0.96890044
vn -0.0651032 0.9775554 -0.20036711
vn -0 0.9775554 -0.21067852
vn -0 0 -1
vn 0.2994065 0.24745117 -0.92147905
vn -0 0.9775554 -0.21067852
vn 0.06510315 0.9775555 -0.20036715
vn 0.30901685 0 -0.95105654
vn 0.5695053 0.24745128 -0.7838569
vn 0.06510315 0.9775555 -0.20036715
vn 0.12383362 0.9775555 -0.17044237
vn 0.5877852 0 -0.80901706
vn 0.78385687 0.24745119 -0.5695054
vn 0.12383362 0.9775555 -0.17044237
vn 0.17044239 0.9775555 -0.12383365
vn 0.8090169 0 -0.5877853
vn 0.9214792 0.24745123 -0.29940572
vn 0.9510568 0 -0.30901605
vn 0.17044239 0.9775555 -0.12383365
vn 0.20036727 0.9775554 -0.06510305
vn 0.20036714 0.9775554 0.06510323
vn -0 1 0
vn 0.21067823 0.9775555 0
vn 0.17044243 0.9775555 0.123833686
vn 0.20036727 0.9775554 -0.06510305
vn 0.12383367 0.9775554 0.17044246
vn 0.17044239 0.9775555 -0.12383365
vn 0.06510326 0.9775554 0.20036718
vn 0.12383362 0.9775555 -0.17044237
vn -0 0.9775554 0.21067853
vn 0.06510315 0.9775555 -0.20036715
vn -0.06510324 0.9775555 0.2003671
vn -0 0.9775554 -0.21067852
vn -0.123833686 0.9775555 0.17044234
vn -0.0651032 0.9775554 -0.20036711
vn -0.17044236 0.9775555 0.12383365
vn -0.123833716 0.9775555 -0.1704424
vn -0.20036711 0.9775555 0.06510324
vn -0.17044245 0.9775555 -0.12383365
vn -0.21067847 0.9775554 0
vn -0.20036711 0.9775554 -0.065103225
g VFX_Button_0
f 3/3/3 2/2/2 1/1/1
f 3/3/3 1/1/1 4/4/4
f 5/5/5 4/4/4 1/1/1
f 5/5/5 1/1/1 6/6/6
f 6/6/6 1/1/1 7/7/7
f 7/7/7 1/1/1 8/8/8
f 7/7/7 8/8/8 9/9/9
f 6/6/6 7/7/7 10/10/10
f 10/10/10 7/7/7 11/11/11
f 11/11/11 7/7/7 12/12/12
f 11/11/11 12/12/12 13/13/13
f 10/10/10 11/11/11 14/14/14
f 14/14/14 11/11/11 15/15/15
f 15/15/15 11/11/11 16/16/16
f 15/15/15 16/16/16 17/17/17
f 14/14/14 15/15/15 18/18/18
f 18/18/18 15/15/15 19/19/19
f 19/19/19 15/15/15 20/20/20
f 19/19/19 20/20/20 21/21/21
f 18/18/18 19/19/19 22/22/22
f 22/22/22 19/19/19 23/23/23
f 23/23/23 19/19/19 24/24/24
f 23/23/23 24/24/24 25/25/25
f 22/22/22 23/23/23 26/26/26
f 26/26/26 23/23/23 27/27/27
f 27/27/27 23/23/23 28/28/28
f 27/27/27 28/28/28 29/29/29
f 26/26/26 27/27/27 30/30/30
f 30/30/30 27/27/27 31/31/31
f 31/31/31 27/27/27 32/32/32
f 31/31/31 32/32/32 33/33/33
f 30/30/30 31/31/31 34/34/34
f 34/34/34 31/31/31 35/35/35
f 35/35/35 31/31/31 36/36/36
f 35/35/35 36/36/36 37/37/37
f 34/34/34 35/35/35 38/38/38
f 38/38/38 35/35/35 39/39/39
f 39/39/39 35/35/35 40/40/40
f 39/39/39 40/40/40 41/41/41
f 38/38/38 39/39/39 42/42/42
f 42/42/42 39/39/39 43/43/43
f 43/43/43 39/39/39 44/44/44
f 43/43/43 44/44/44 45/45/45
f 42/42/42 43/43/43 46/46/46
f 46/46/46 43/43/43 47/47/47
f 47/47/47 43/43/43 48/48/48
f 47/47/47 48/48/48 49/49/49
f 46/46/46 47/47/47 50/50/50
f 50/50/50 47/47/47 51/51/51
f 51/51/51 47/47/47 52/52/52
f 51/51/51 52/52/52 53/53/53
f 50/50/50 51/51/51 54/54/54
f 54/54/54 51/51/51 55/55/55
f 55/55/55 51/51/51 56/56/56
f 55/55/55 56/56/56 57/57/57
f 54/54/54 55/55/55 58/58/58
f 58/58/58 55/55/55 59/59/59
f 59/59/59 55/55/55 60/60/60
f 59/59/59 60/60/60 61/61/61
f 58/58/58 59/59/59 62/62/62
f 62/62/62 59/59/59 63/63/63
f 63/63/63 59/59/59 64/64/64
f 63/63/63 64/64/64 65/65/65
f 62/62/62 63/63/63 66/66/66
f 66/66/66 63/63/63 67/67/67
f 67/67/67 63/63/63 68/68/68
f 67/67/67 68/68/68 69/69/69
f 66/66/66 67/67/67 70/70/70
f 70/70/70 67/67/67 71/71/71
f 71/71/71 67/67/67 72/72/72
f 71/71/71 72/72/72 73/73/73
f 70/70/70 71/71/71 74/74/74
f 74/74/74 71/71/71 75/75/75
f 75/75/75 71/71/71 76/76/76
f 75/75/75 76/76/76 77/77/77
f 74/74/74 75/75/75 78/78/78
f 78/78/78 75/75/75 79/79/79
f 78/78/78 79/79/79 80/80/80
f 79/79/79 75/75/75 81/81/81
f 79/79/79 81/81/81 82/82/82
f 85/85/85 84/84/84 83/83/83
f 83/83/83 84/84/84 86/86/86
f 87/87/87 84/84/84 85/85/85
f 86/86/86 84/84/84 88/88/88
f 89/89/89 84/84/84 87/87/87
f 88/88/88 84/84/84 90/90/90
f 91/91/91 84/84/84 89/89/89
f 90/90/90 84/84/84 92/92/92
f 93/93/93 84/84/84 91/91/91
f 92/92/92 84/84/84 94/94/94
f 95/95/95 84/84/84 93/93/93
f 94/94/94 84/84/84 96/96/96
f 97/97/97 84/84/84 95/95/95
f 96/96/96 84/84/84 98/98/98
f 99/99/99 84/84/84 97/97/97
f 98/98/98 84/84/84 100/100/100
f 101/101/101 84/84/84 99/99/99
f 100/100/100 84/84/84 102/102/102
f 103/103/103 84/84/84 101/101/101
f 102/102/102 84/84/84 103/103/103
