g VFX_Water_RippleRing
v 0.4391772 0 -0.4877553
v 0.9364385 0 -1.04002
v 1.1322074 0 -0.82259667
v 0.5309901 0 -0.3857869
v 1.2784934 0 -0.56922174
v 0.59959626 0 -0.26695752
v 1.3689033 0 -0.29096827
v 0.6419972 0 -0.13646092
v 1.3994843 0 9.0897083E-07
v 0.65633917 0 -9.217693E-08
v 1.3689022 0 0.29096904
v 0.64199674 0 0.13646054
v 1.2784927 0 0.5692215
v 0.59959555 0 0.26695722
v 1.1322067 0 0.82259625
v 0.53098965 0 0.3857865
v 0.93643785 0 1.0400195
v 0.43917665 0 0.48775476
v 0.6997422 0 1.211989
v 0.32816952 0 0.5684065
v 0.43246448 0 1.3309888
v 0.20281996 0 0.6242159
v 0.14628595 0 1.3918179
v 0.06860605 0 0.652744
v -0.14628601 0 1.391818
v -0.06860628 0 0.652744
v -0.4324645 0 1.3309889
v -0.2028203 0 0.62421596
v -0.6997423 0 1.2119892
v -0.32816982 0 0.56840664
v -0.9364381 0 1.0400198
v -0.43917698 0 0.48775476
v -1.1322069 0 0.82259643
v -0.5309901 0 0.38578662
v -1.2784928 0 0.5692216
v -0.59959596 0 0.26695722
v -1.3689027 0 0.2909692
v -0.6419972 0 0.13646054
v -1.3994846 0 -2.9802322E-08
v -0.65633965 0 -1.5085826E-07
v -1.3689027 0 -0.2909693
v -0.6419972 0 -0.13646092
v -1.2784929 0 -0.5692218
v -0.59959596 0 -0.26695758
v -1.132207 0 -0.8225966
v -0.5309901 0 -0.38578692
v -0.93643814 0 -1.04002
v -0.43917698 0 -0.4877553
v -0.69974244 0 -1.2119896
v -0.32816982 0 -0.56840706
v -0.4324645 0 -1.3309894
v -0.2028203 0 -0.6242165
v -0.14628583 0 -1.3918185
v -0.06860618 0 -0.65274453
v 0.14628622 0 -1.3918185
v 0.06860624 0 -0.65274453
v 0.43246487 0 -1.3309894
v 0.2028203 0 -0.62421644
v 0.69974273 0 -1.2119895
v 0.32817006 0 -0.56840706
v 0.9364385 0 -1.04002
v 0.4391772 0 -0.4877553
vt 0 0
vt 0 1
vt 0.033332825 1
vt 0.033332825 0
vt 0.06666756 1
vt 0.06666756 0
vt 0.10000038 1
vt 0.10000038 0
vt 0.1333332 1
vt 0.1333332 0
vt 0.16666603 1
vt 0.16666603 0
vt 0.20000076 1
vt 0.20000076 0
vt 0.23333359 1
vt 0.23333359 0
vt 0.2666664 1
vt 0.2666664 0
vt 0.29999924 1
vt 0.29999924 0
vt 0.33333397 1
vt 0.33333397 0
vt 0.3666668 1
vt 0.3666668 0
vt 0.39999962 1
vt 0.39999962 0
vt 0.43333244 1
vt 0.43333244 0
vt 0.46666622 1
vt 0.46666622 0
vt 0.5 1
vt 0.5 0
vt 0.5333338 1
vt 0.5333338 0
vt 0.5666666 1
vt 0.5666666 0
vt 0.6000004 1
vt 0.6000004 0
vt 0.6333332 1
vt 0.6333332 0
vt 0.666667 1
vt 0.666667 0
vt 0.6999998 1
vt 0.6999998 0
vt 0.7333336 1
vt 0.7333336 0
vt 0.7666664 1
vt 0.7666664 0
vt 0.8000002 1
vt 0.8000002 0
vt 0.8333335 1
vt 0.8333335 0
vt 0.8666668 1
vt 0.8666668 0
vt 0.9000001 1
vt 0.9000001 0
vt 0.9333334 1
vt 0.9333334 0
vt 0.96666664 1
vt 0.96666664 0
vt 1 1
vt 1 0
vn -0 1 0
vn -0 1 0
vn -0 1 0
vn -0 1 0
vn -0 1 0
vn -0 1 0
vn -0 1 0
vn -0 1 0
vn -0 1 0
vn -0 1 0
vn -0 1 0
vn -0 1 0
vn -0 1 0
vn -0 1 0
vn -0 1 0
vn -0 1 0
vn -0 1 0
vn -0 1 0
vn -0 1 0
vn -0 1 0
vn -0 1 0
vn -0 1 0
vn -0 1 0
vn -0 1 0
vn -0 1 0
vn -0 1 0
vn -0 1 0
vn -0 1 0
vn -0 1 0
vn -0 1 0
vn -0 1 0
vn -0 1 0
vn -0 1 0
vn -0 1 0
vn -0 1 0
vn -0 1 0
vn -0 1 0
vn -0 1 0
vn -0 1 0
vn -0 1 0
vn -0 1 0
vn -0 1 0
vn -0 1 0
vn -0 1 0
vn -0 1 0
vn -0 1 0
vn -0 1 0
vn -0 1 0
vn -0 1 0
vn -0 1 0
vn -0 1 0
vn -0 1 0
vn -0 1 0
vn -0 1 0
vn -0 1 0
vn -0 1 0
vn -0 1 0
vn -0 1 0
vn -0 1 0
vn -0 1 0
vn -0 1 0
vn -0 1 0
g VFX_Water_RippleRing_0
f 3/3/3 2/2/2 1/1/1
f 4/4/4 3/3/3 1/1/1
f 5/5/5 3/3/3 4/4/4
f 6/6/6 5/5/5 4/4/4
f 7/7/7 5/5/5 6/6/6
f 8/8/8 7/7/7 6/6/6
f 9/9/9 7/7/7 8/8/8
f 10/10/10 9/9/9 8/8/8
f 11/11/11 9/9/9 10/10/10
f 12/12/12 11/11/11 10/10/10
f 13/13/13 11/11/11 12/12/12
f 14/14/14 13/13/13 12/12/12
f 15/15/15 13/13/13 14/14/14
f 16/16/16 15/15/15 14/14/14
f 17/17/17 15/15/15 16/16/16
f 18/18/18 17/17/17 16/16/16
f 19/19/19 17/17/17 18/18/18
f 20/20/20 19/19/19 18/18/18
f 21/21/21 19/19/19 20/20/20
f 22/22/22 21/21/21 20/20/20
f 23/23/23 21/21/21 22/22/22
f 24/24/24 23/23/23 22/22/22
f 25/25/25 23/23/23 24/24/24
f 26/26/26 25/25/25 24/24/24
f 27/27/27 25/25/25 26/26/26
f 28/28/28 27/27/27 26/26/26
f 29/29/29 27/27/27 28/28/28
f 30/30/30 29/29/29 28/28/28
f 31/31/31 29/29/29 30/30/30
f 32/32/32 31/31/31 30/30/30
f 33/33/33 31/31/31 32/32/32
f 34/34/34 33/33/33 32/32/32
f 35/35/35 33/33/33 34/34/34
f 36/36/36 35/35/35 34/34/34
f 37/37/37 35/35/35 36/36/36
f 38/38/38 37/37/37 36/36/36
f 39/39/39 37/37/37 38/38/38
f 40/40/40 39/39/39 38/38/38
f 41/41/41 39/39/39 40/40/40
f 42/42/42 41/41/41 40/40/40
f 43/43/43 41/41/41 42/42/42
f 44/44/44 43/43/43 42/42/42
f 45/45/45 43/43/43 44/44/44
f 46/46/46 45/45/45 44/44/44
f 47/47/47 45/45/45 46/46/46
f 48/48/48 47/47/47 46/46/46
f 49/49/49 47/47/47 48/48/48
f 50/50/50 49/49/49 48/48/48
f 51/51/51 49/49/49 50/50/50
f 52/52/52 51/51/51 50/50/50
f 53/53/53 51/51/51 52/52/52
f 54/54/54 53/53/53 52/52/52
f 55/55/55 53/53/53 54/54/54
f 56/56/56 55/55/55 54/54/54
f 57/57/57 55/55/55 56/56/56
f 58/58/58 57/57/57 56/56/56
f 59/59/59 57/57/57 58/58/58
f 60/60/60 59/59/59 58/58/58
f 61/61/61 59/59/59 60/60/60
f 62/62/62 61/61/61 60/60/60
