g VFX_PenguinParty_WaterPool_B
v 0.98768824 1 0.15643446
v -0 1 0
v 0.99999994 1 0
v 0.9510565 1 0.30901703
v 0.987689 1 -0.15643431
v 0.8910066 1 0.45399055
v 0.95105714 1 -0.30901694
v 0.809017 1 0.5877853
v 0.8910071 1 -0.45399055
v 0.70710677 1 0.70710695
v 0.8090176 1 -0.5877854
v 0.5877853 1 0.8090172
v 0.70710737 1 -0.70710707
v 0.4539905 1 0.89100677
v 0.58778584 1 -0.8090173
v 0.30901694 1 0.9510568
v 0.453991 1 -0.89100695
v 0.1564344 1 0.98768854
v 0.30901742 1 -0.95105696
v -1.0430812E-07 1 1.0000002
v 0.15643477 1 -0.98768884
v -0.15643461 1 0.98768854
v 2.2351742E-07 1 -1.0000005
v -0.30901718 1 0.9510568
v -0.15643431 1 -0.98768884
v -0.45399073 1 0.89100665
v -0.30901694 1 -0.9510571
v -0.5877855 1 0.8090171
v -0.4539905 1 -0.891007
v -0.7071071 1 0.70710677
v -0.5877853 1 -0.8090175
v -0.8090173 1 0.5877853
v -0.70710695 1 -0.7071073
v -0.8910068 1 0.4539905
v -0.8090172 1 -0.5877857
v -0.9510569 1 0.30901694
v -0.89100677 1 -0.45399085
v -0.98768866 1 0.15643436
v -0.9510569 1 -0.30901727
v -1.0000004 1 -1.6391277E-07
v -0.98768866 1 -0.1564347
v 0.99999994 -1 0
v -0 -1 0
v 0.98768824 -1 0.15643446
v 0.987689 -1 -0.15643431
v 0.9510565 -1 0.30901703
v 0.95105714 -1 -0.30901694
v 0.8910066 -1 0.45399055
v 0.8910071 -1 -0.45399055
v 0.809017 -1 0.5877853
v 0.8090176 -1 -0.5877854
v 0.70710677 -1 0.70710695
v 0.70710737 -1 -0.70710707
v 0.5877853 -1 0.8090172
v 0.58778584 -1 -0.8090173
v 0.4539905 -1 0.89100677
v 0.453991 -1 -0.89100695
v 0.30901694 -1 0.9510568
v 0.30901742 -1 -0.95105696
v 0.1564344 -1 0.98768854
v 0.15643477 -1 -0.98768884
v -1.0430812E-07 -1 1.0000002
v 2.2351742E-07 -1 -1.0000005
v -0.15643461 -1 0.98768854
v -0.15643431 -1 -0.98768884
v -0.30901718 -1 0.9510568
v -0.30901694 -1 -0.9510571
v -0.45399073 -1 0.89100665
v -0.4539905 -1 -0.891007
v -0.5877855 -1 0.8090171
v -0.5877853 -1 -0.8090175
v -0.7071071 -1 0.70710677
v -0.70710695 -1 -0.7071073
v -0.8090173 -1 0.5877853
v -0.8090172 -1 -0.5877857
v -0.8910068 -1 0.4539905
v -0.89100677 -1 -0.45399085
v -0.9510569 -1 0.30901694
v -0.9510569 -1 -0.30901727
v -0.98768866 -1 0.15643436
v -0.98768866 -1 -0.1564347
v -1.0000004 -1 -1.6391277E-07
v 0.98768824 1 0.15643446
v 0.99999994 1 0
v 0.99999994 -1 0
v 0.98768824 -1 0.15643446
v 0.987689 -1 -0.15643431
v 0.9510565 1 0.30901703
v 0.987689 1 -0.15643431
v 0.9510565 -1 0.30901703
v 0.95105714 -1 -0.30901694
v 0.8910066 1 0.45399055
v 0.95105714 1 -0.30901694
v 0.8910066 -1 0.45399055
v 0.8910071 -1 -0.45399055
v 0.809017 1 0.5877853
v 0.8910071 1 -0.45399055
v 0.809017 -1 0.5877853
v 0.8090176 -1 -0.5877854
v 0.70710677 1 0.70710695
v 0.8090176 1 -0.5877854
v 0.70710677 -1 0.70710695
v 0.70710737 -1 -0.70710707
v 0.5877853 1 0.8090172
v 0.70710737 1 -0.70710707
v 0.5877853 -1 0.8090172
v 0.58778584 -1 -0.8090173
v 0.4539905 1 0.89100677
v 0.58778584 1 -0.8090173
v 0.4539905 -1 0.89100677
v 0.453991 -1 -0.89100695
v 0.30901694 1 0.9510568
v 0.453991 1 -0.89100695
v 0.30901694 -1 0.9510568
v 0.30901742 -1 -0.95105696
v 0.1564344 1 0.98768854
v 0.30901742 1 -0.95105696
v 0.1564344 -1 0.98768854
v 0.15643477 -1 -0.98768884
v -1.0430812E-07 1 1.0000002
v 0.15643477 1 -0.98768884
v -1.0430812E-07 -1 1.0000002
v 2.2351742E-07 -1 -1.0000005
v -0.15643461 1 0.98768854
v 2.2351742E-07 1 -1.0000005
v -0.15643461 -1 0.98768854
v -0.15643431 -1 -0.98768884
v -0.30901718 1 0.9510568
v -0.15643431 1 -0.98768884
v -0.30901718 -1 0.9510568
v -0.30901694 -1 -0.9510571
v -0.45399073 1 0.89100665
v -0.30901694 1 -0.9510571
v -0.45399073 -1 0.89100665
v -0.4539905 -1 -0.891007
v -0.5877855 1 0.8090171
v -0.4539905 1 -0.891007
v -0.5877855 -1 0.8090171
v -0.5877853 -1 -0.8090175
v -0.7071071 1 0.70710677
v -0.5877853 1 -0.8090175
v -0.7071071 -1 0.70710677
v -0.70710695 -1 -0.7071073
v -0.8090173 1 0.5877853
v -0.70710695 1 -0.7071073
v -0.8090173 -1 0.5877853
v -0.8090172 -1 -0.5877857
v -0.8910068 1 0.4539905
v -0.8090172 1 -0.5877857
v -0.8910068 -1 0.4539905
v -0.89100677 -1 -0.45399085
v -0.9510569 1 0.30901694
v -0.89100677 1 -0.45399085
v -0.9510569 -1 0.30901694
v -0.9510569 -1 -0.30901727
v -0.98768866 1 0.15643436
v -0.9510569 1 -0.30901727
v -0.98768866 -1 0.15643436
v -0.98768866 -1 -0.1564347
v -1.0000004 1 -1.6391277E-07
v -0.98768866 1 -0.1564347
v -1.0000004 -1 -1.6391277E-07
vt 0.99384415 0.42178273
vt 0.5000001 0.49999994
vt 1 0.49999994
vt 0.97552824 0.34549147
vt 0.9938445 0.578217
vt 0.94550335 0.27300477
vt 0.9755286 0.65450835
vt 0.9045086 0.20610738
vt 0.9455036 0.7269951
vt 0.8535534 0.14644659
vt 0.9045088 0.7938925
vt 0.79389274 0.09549153
vt 0.8535538 0.8535533
vt 0.72699535 0.054496765
vt 0.793893 0.9045085
vt 0.6545086 0.02447176
vt 0.7269956 0.94550323
vt 0.57821727 0.0061558485
vt 0.6545088 0.97552824
vt 0.5000001 0
vt 0.5782175 0.99384415
vt 0.42178285 0.0061558485
vt 0.50000024 1
vt 0.34549153 0.02447176
vt 0.42178297 0.99384415
vt 0.27300477 0.054496765
vt 0.34549165 0.97552824
vt 0.20610738 0.09549153
vt 0.2730049 0.94550323
vt 0.14644659 0.1464467
vt 0.2061075 0.9045086
vt 0.09549153 0.20610738
vt 0.1464467 0.8535534
vt 0.054496765 0.27300477
vt 0.09549159 0.7938926
vt 0.02447176 0.34549153
vt 0.054496825 0.7269952
vt 0.0061558485 0.4217828
vt 0.02447176 0.6545085
vt 5.9604645E-08 0.5
vt 0.0061558485 0.57821727
vt 1 0.49999994
vt 0.5000001 0.49999994
vt 0.99384415 0.42178273
vt 0.9938445 0.578217
vt 0.97552824 0.34549147
vt 0.9755286 0.65450835
vt 0.94550335 0.27300477
vt 0.9455036 0.7269951
vt 0.9045086 0.20610738
vt 0.9045088 0.7938925
vt 0.8535534 0.14644659
vt 0.8535538 0.8535533
vt 0.79389274 0.09549153
vt 0.793893 0.9045085
vt 0.72699535 0.054496765
vt 0.7269956 0.94550323
vt 0.6545086 0.02447176
vt 0.6545088 0.97552824
vt 0.57821727 0.0061558485
vt 0.5782175 0.99384415
vt 0.5000001 0
vt 0.50000024 1
vt 0.42178285 0.0061558485
vt 0.42178297 0.99384415
vt 0.34549153 0.02447176
vt 0.34549165 0.97552824
vt 0.27300477 0.054496765
vt 0.2730049 0.94550323
vt 0.20610738 0.09549153
vt 0.2061075 0.9045086
vt 0.14644659 0.1464467
vt 0.1464467 0.8535534
vt 0.09549153 0.20610738
vt 0.09549159 0.7938926
vt 0.054496765 0.27300477
vt 0.054496825 0.7269952
vt 0.02447176 0.34549153
vt 0.02447176 0.6545085
vt 0.0061558485 0.4217828
vt 0.0061558485 0.57821727
vt 5.9604645E-08 0.5
vt 0.99384415 0.42178273
vt 1 0.49999994
vt 1 0.49999994
vt 0.99384415 0.42178273
vt 0.9938445 0.578217
vt 0.97552824 0.34549147
vt 0.9938445 0.578217
vt 0.97552824 0.34549147
vt 0.9755286 0.65450835
vt 0.94550335 0.27300477
vt 0.9755286 0.65450835
vt 0.94550335 0.27300477
vt 0.9455036 0.7269951
vt 0.9045086 0.20610738
vt 0.9455036 0.7269951
vt 0.9045086 0.20610738
vt 0.9045088 0.7938925
vt 0.8535534 0.14644659
vt 0.9045088 0.7938925
vt 0.8535534 0.14644659
vt 0.8535538 0.8535533
vt 0.79389274 0.09549153
vt 0.8535538 0.8535533
vt 0.79389274 0.09549153
vt 0.793893 0.9045085
vt 0.72699535 0.054496765
vt 0.793893 0.9045085
vt 0.72699535 0.054496765
vt 0.7269956 0.94550323
vt 0.6545086 0.02447176
vt 0.7269956 0.94550323
vt 0.6545086 0.02447176
vt 0.6545088 0.97552824
vt 0.57821727 0.0061558485
vt 0.6545088 0.97552824
vt 0.57821727 0.0061558485
vt 0.5782175 0.99384415
vt 0.5000001 0
vt 0.5782175 0.99384415
vt 0.5000001 0
vt 0.50000024 1
vt 0.42178285 0.0061558485
vt 0.50000024 1
vt 0.42178285 0.0061558485
vt 0.42178297 0.99384415
vt 0.34549153 0.02447176
vt 0.42178297 0.99384415
vt 0.34549153 0.02447176
vt 0.34549165 0.97552824
vt 0.27300477 0.054496765
vt 0.34549165 0.97552824
vt 0.27300477 0.054496765
vt 0.2730049 0.94550323
vt 0.20610738 0.09549153
vt 0.2730049 0.94550323
vt 0.20610738 0.09549153
vt 0.2061075 0.9045086
vt 0.14644659 0.1464467
vt 0.2061075 0.9045086
vt 0.14644659 0.1464467
vt 0.1464467 0.8535534
vt 0.09549153 0.20610738
vt 0.1464467 0.8535534
vt 0.09549153 0.20610738
vt 0.09549159 0.7938926
vt 0.054496765 0.27300477
vt 0.09549159 0.7938926
vt 0.054496765 0.27300477
vt 0.054496825 0.7269952
vt 0.02447176 0.34549153
vt 0.054496825 0.7269952
vt 0.02447176 0.34549153
vt 0.02447176 0.6545085
vt 0.0061558485 0.4217828
vt 0.02447176 0.6545085
vt 0.0061558485 0.4217828
vt 0.0061558485 0.57821727
vt 5.9604645E-08 0.5
vt 0.0061558485 0.57821727
vt 5.9604645E-08 0.5
vn -0 1 0
vn -0 1 0
vn -0 1 0
vn -0 1 0
vn -0 1 0
vn -0 1 0
vn -0 1 0
vn -0 1 0
vn -0 1 0
vn -0 1 0
vn -0 1 0
vn -0 1 0
vn -0 1 0
vn -0 1 0
vn -0 1 0
vn -0 1 0
vn -0 1 0
vn -0 1 0
vn -0 1 0
vn -0 1 0
vn -0 1 0
vn -0 1 0
vn -0 1 0
vn -0 1 0
vn -0 1 0
vn -0 1 0
vn -0 1 0
vn -0 1 0
vn -0 1 0
vn -0 1 0
vn -0 1 0
vn -0 1 0
vn -0 1 0
vn -0 1 0
vn -0 1 0
vn -0 1 0
vn -0 1 0
vn -0 1 0
vn -0 1 0
vn -0 1 0
vn -0 1 0
vn -0 -1 0
vn -0 -1 0
vn -0 -1 0
vn -0 -1 0
vn -0 -1 0
vn -0 -1 0
vn -0 -1 0
vn -0 -1 0
vn -0 -1 0
vn -0 -1 0
vn -0 -1 0
vn -0 -1 0
vn -0 -1 0
vn -0 -1 0
vn -0 -1 0
vn -0 -1 0
vn -0 -1 0
vn -0 -1 0
vn -0 -1 0
vn -0 -1 0
vn -0 -1 0
vn -0 -1 0
vn -0 -1 0
vn -0 -1 0
vn -0 -1 0
vn -0 -1 0
vn -0 -1 0
vn -0 -1 0
vn -0 -1 0
vn -0 -1 0
vn -0 -1 0
vn -0 -1 0
vn -0 -1 0
vn -0 -1 0
vn -0 -1 0
vn -0 -1 0
vn -0 -1 0
vn -0 -1 0
vn -0 -1 0
vn -0 -1 0
vn -0 -1 0
vn 0.98768836 0 0.15643439
vn 1 0 0
vn 1 0 0
vn 0.98768836 0 0.15643439
vn 0.9876887 0 -0.15643238
vn 0.95105666 0 0.3090165
vn 0.9876887 0 -0.15643238
vn 0.95105666 0 0.3090165
vn 0.95105654 0 -0.30901706
vn 0.8910066 0 0.45399034
vn 0.95105654 0 -0.30901706
vn 0.8910066 0 0.45399034
vn 0.8910066 0 -0.45399025
vn 0.809017 0 0.5877853
vn 0.8910066 0 -0.45399025
vn 0.809017 0 0.5877853
vn 0.8090172 0 -0.5877849
vn 0.70710707 0 0.7071065
vn 0.8090172 0 -0.5877849
vn 0.70710707 0 0.7071065
vn 0.70710695 0 -0.7071066
vn 0.5877854 0 0.8090168
vn 0.70710695 0 -0.7071066
vn 0.5877854 0 0.8090168
vn 0.5877854 0 -0.8090169
vn 0.45399058 0 0.8910064
vn 0.5877854 0 -0.8090169
vn 0.45399058 0 0.8910064
vn 0.45399058 0 -0.8910064
vn 0.30901682 0 0.95105654
vn 0.45399058 0 -0.8910064
vn 0.30901682 0 0.95105654
vn 0.30901706 0 -0.95105654
vn 0.15643437 0 0.98768836
vn 0.30901706 0 -0.95105654
vn 0.15643437 0 0.98768836
vn 0.15643448 0 -0.98768836
vn -0 0 1
vn 0.15643448 0 -0.98768836
vn -0 0 1
vn -0 0 -1
vn -0.15643437 0 0.98768836
vn -0 0 -1
vn -0.15643437 0 0.98768836
vn -0.15643412 0 -0.98768836
vn -0.30901712 0 0.9510565
vn -0.15643412 0 -0.98768836
vn -0.30901712 0 0.9510565
vn -0.3090169 0 -0.95105654
vn -0.45399073 0 0.8910064
vn -0.3090169 0 -0.95105654
vn -0.45399073 0 0.8910064
vn -0.45399058 0 -0.8910064
vn -0.5877854 0 0.8090169
vn -0.45399058 0 -0.8910064
vn -0.5877854 0 0.8090169
vn -0.58778495 0 -0.8090173
vn -0.70710677 0 0.7071067
vn -0.58778495 0 -0.8090173
vn -0.70710677 0 0.7071067
vn -0.7071066 0 -0.70710695
vn -0.8090171 0 0.5877851
vn -0.7071066 0 -0.70710695
vn -0.8090171 0 0.5877851
vn -0.80901706 0 -0.5877851
vn -0.8910064 0 0.45399058
vn -0.80901706 0 -0.5877851
vn -0.8910064 0 0.45399058
vn -0.8910064 0 -0.4539908
vn -0.95105654 0 0.30901694
vn -0.8910064 0 -0.4539908
vn -0.95105654 0 0.30901694
vn -0.9510565 0 -0.3090171
vn -0.98768836 0 0.15643436
vn -0.9510565 0 -0.3090171
vn -0.98768836 0 0.15643436
vn -0.98768836 0 -0.15643436
vn -1 0 0
vn -0.98768836 0 -0.15643436
vn -1 0 0
g VFX_PenguinParty_WaterPool_B_0
f 3/3/3 2/2/2 1/1/1
f 1/1/1 2/2/2 4/4/4
f 5/5/5 2/2/2 3/3/3
f 4/4/4 2/2/2 6/6/6
f 7/7/7 2/2/2 5/5/5
f 6/6/6 2/2/2 8/8/8
f 9/9/9 2/2/2 7/7/7
f 8/8/8 2/2/2 10/10/10
f 11/11/11 2/2/2 9/9/9
f 10/10/10 2/2/2 12/12/12
f 13/13/13 2/2/2 11/11/11
f 12/12/12 2/2/2 14/14/14
f 15/15/15 2/2/2 13/13/13
f 14/14/14 2/2/2 16/16/16
f 17/17/17 2/2/2 15/15/15
f 16/16/16 2/2/2 18/18/18
f 19/19/19 2/2/2 17/17/17
f 18/18/18 2/2/2 20/20/20
f 21/21/21 2/2/2 19/19/19
f 20/20/20 2/2/2 22/22/22
f 23/23/23 2/2/2 21/21/21
f 22/22/22 2/2/2 24/24/24
f 25/25/25 2/2/2 23/23/23
f 24/24/24 2/2/2 26/26/26
f 27/27/27 2/2/2 25/25/25
f 26/26/26 2/2/2 28/28/28
f 29/29/29 2/2/2 27/27/27
f 28/28/28 2/2/2 30/30/30
f 31/31/31 2/2/2 29/29/29
f 30/30/30 2/2/2 32/32/32
f 33/33/33 2/2/2 31/31/31
f 32/32/32 2/2/2 34/34/34
f 35/35/35 2/2/2 33/33/33
f 34/34/34 2/2/2 36/36/36
f 37/37/37 2/2/2 35/35/35
f 36/36/36 2/2/2 38/38/38
f 39/39/39 2/2/2 37/37/37
f 38/38/38 2/2/2 40/40/40
f 41/41/41 2/2/2 39/39/39
f 40/40/40 2/2/2 41/41/41
f 44/44/44 43/43/43 42/42/42
f 42/42/42 43/43/43 45/45/45
f 46/46/46 43/43/43 44/44/44
f 45/45/45 43/43/43 47/47/47
f 48/48/48 43/43/43 46/46/46
f 47/47/47 43/43/43 49/49/49
f 50/50/50 43/43/43 48/48/48
f 49/49/49 43/43/43 51/51/51
f 52/52/52 43/43/43 50/50/50
f 51/51/51 43/43/43 53/53/53
f 54/54/54 43/43/43 52/52/52
f 53/53/53 43/43/43 55/55/55
f 56/56/56 43/43/43 54/54/54
f 55/55/55 43/43/43 57/57/57
f 58/58/58 43/43/43 56/56/56
f 57/57/57 43/43/43 59/59/59
f 60/60/60 43/43/43 58/58/58
f 59/59/59 43/43/43 61/61/61
f 62/62/62 43/43/43 60/60/60
f 61/61/61 43/43/43 63/63/63
f 64/64/64 43/43/43 62/62/62
f 63/63/63 43/43/43 65/65/65
f 66/66/66 43/43/43 64/64/64
f 65/65/65 43/43/43 67/67/67
f 68/68/68 43/43/43 66/66/66
f 67/67/67 43/43/43 69/69/69
f 70/70/70 43/43/43 68/68/68
f 69/69/69 43/43/43 71/71/71
f 72/72/72 43/43/43 70/70/70
f 71/71/71 43/43/43 73/73/73
f 74/74/74 43/43/43 72/72/72
f 73/73/73 43/43/43 75/75/75
f 76/76/76 43/43/43 74/74/74
f 75/75/75 43/43/43 77/77/77
f 78/78/78 43/43/43 76/76/76
f 77/77/77 43/43/43 79/79/79
f 80/80/80 43/43/43 78/78/78
f 79/79/79 43/43/43 81/81/81
f 82/82/82 43/43/43 80/80/80
f 81/81/81 43/43/43 82/82/82
f 85/85/85 84/84/84 83/83/83
f 85/85/85 83/83/83 86/86/86
f 87/87/87 84/84/84 85/85/85
f 86/86/86 83/83/83 88/88/88
f 87/87/87 89/89/89 84/84/84
f 86/86/86 88/88/88 90/90/90
f 91/91/91 89/89/89 87/87/87
f 90/90/90 88/88/88 92/92/92
f 91/91/91 93/93/93 89/89/89
f 90/90/90 92/92/92 94/94/94
f 95/95/95 93/93/93 91/91/91
f 94/94/94 92/92/92 96/96/96
f 95/95/95 97/97/97 93/93/93
f 94/94/94 96/96/96 98/98/98
f 99/99/99 97/97/97 95/95/95
f 98/98/98 96/96/96 100/100/100
f 99/99/99 101/101/101 97/97/97
f 98/98/98 100/100/100 102/102/102
f 103/103/103 101/101/101 99/99/99
f 102/102/102 100/100/100 104/104/104
f 103/103/103 105/105/105 101/101/101
f 102/102/102 104/104/104 106/106/106
f 107/107/107 105/105/105 103/103/103
f 106/106/106 104/104/104 108/108/108
f 107/107/107 109/109/109 105/105/105
f 106/106/106 108/108/108 110/110/110
f 111/111/111 109/109/109 107/107/107
f 110/110/110 108/108/108 112/112/112
f 111/111/111 113/113/113 109/109/109
f 110/110/110 112/112/112 114/114/114
f 115/115/115 113/113/113 111/111/111
f 114/114/114 112/112/112 116/116/116
f 115/115/115 117/117/117 113/113/113
f 114/114/114 116/116/116 118/118/118
f 119/119/119 117/117/117 115/115/115
f 118/118/118 116/116/116 120/120/120
f 119/119/119 121/121/121 117/117/117
f 118/118/118 120/120/120 122/122/122
f 123/123/123 121/121/121 119/119/119
f 122/122/122 120/120/120 124/124/124
f 123/123/123 125/125/125 121/121/121
f 122/122/122 124/124/124 126/126/126
f 127/127/127 125/125/125 123/123/123
f 126/126/126 124/124/124 128/128/128
f 127/127/127 129/129/129 125/125/125
f 126/126/126 128/128/128 130/130/130
f 131/131/131 129/129/129 127/127/127
f 130/130/130 128/128/128 132/132/132
f 131/131/131 133/133/133 129/129/129
f 130/130/130 132/132/132 134/134/134
f 135/135/135 133/133/133 131/131/131
f 134/134/134 132/132/132 136/136/136
f 135/135/135 137/137/137 133/133/133
f 134/134/134 136/136/136 138/138/138
f 139/139/139 137/137/137 135/135/135
f 138/138/138 136/136/136 140/140/140
f 139/139/139 141/141/141 137/137/137
f 138/138/138 140/140/140 142/142/142
f 143/143/143 141/141/141 139/139/139
f 142/142/142 140/140/140 144/144/144
f 143/143/143 145/145/145 141/141/141
f 142/142/142 144/144/144 146/146/146
f 147/147/147 145/145/145 143/143/143
f 146/146/146 144/144/144 148/148/148
f 147/147/147 149/149/149 145/145/145
f 146/146/146 148/148/148 150/150/150
f 151/151/151 149/149/149 147/147/147
f 150/150/150 148/148/148 152/152/152
f 151/151/151 153/153/153 149/149/149
f 150/150/150 152/152/152 154/154/154
f 155/155/155 153/153/153 151/151/151
f 154/154/154 152/152/152 156/156/156
f 155/155/155 157/157/157 153/153/153
f 154/154/154 156/156/156 158/158/158
f 159/159/159 157/157/157 155/155/155
f 158/158/158 156/156/156 160/160/160
f 159/159/159 161/161/161 157/157/157
f 158/158/158 160/160/160 162/162/162
f 162/162/162 161/161/161 159/159/159
f 162/162/162 160/160/160 161/161/161
