g VFX_Mermaid_Middle_01
v -0.2000422 -0.0116945505 0.0487827
v -0.1673904 -0.066322684 0.06342024
v -0.5730435 0.11922026 0.87510526
v -0.68482435 0.30623353 0.8249953
v -0.21361993 0.050006032 0.032250106
v -1.0417638 0.2967161 1.6752951
v -0.73130554 0.51745886 0.7683976
v -0.2067941 0.11273956 0.015440702
v -1.2449758 0.6366965 1.5841976
v -1.3906316 0.37299377 2.0625062
v -0.7079372 0.7322202 0.71085244
v -0.18023236 0.17036486 5.2154064E-08
v -1.3294761 1.0206934 1.481306
v -1.6618955 0.8268274 1.940902
v -1.5585557 0.40358073 2.2260146
v -0.61700624 0.929495 0.65799284
v -0.13653484 0.21724224 -0.012560703
v -1.2869935 1.4111184 1.3766918
v -1.7746935 1.3394178 1.8035537
v -1.862576 0.91221654 2.089726
v -1.7086105 0.42587692 2.3533294
v -2.0419014 0.9834833 2.2039192
v -1.9889947 1.4867042 1.9357924
v -2.1804914 1.6132815 2.0351653
v -0.4674139 1.0899732 0.61499286
v -0.079980075 0.24878156 -0.021011647
v -1.1216857 1.7697539 1.2805958
v -1.7179841 1.860589 1.6639063
v -1.9254373 2.070809 1.7792821
v -2.1108148 2.2536225 1.8635864
v -0.2738037 1.1979452 0.58606184
v -0.016103026 0.26189625 -0.024525717
v -0.8497347 2.0614946 1.2024242
v -1.4973178 2.3393252 1.5356294
v -1.6781249 2.6073542 1.6355151
v -1.8396916 2.8418257 1.7059779
v -0.055127166 1.2428426 0.57403165
v 0.048843388 0.2553029 -0.02275903
v -0.49776125 2.2577825 1.1498289
v -1.1342956 2.7287645 1.4312794
v -1.2712665 3.04382 1.5185646
v -1.3936615 3.3203132 1.5777675
v 0.16721007 1.2202703 0.58007985
v 0.10850176 0.2296462 -0.015884332
v -0.10021828 2.3394036 1.1279587
v -0.66445255 2.9907856 1.3610711
v -0.74468774 3.337481 1.4398783
v -0.816385 3.6422474 1.4915055
v 0.37144417 1.1324377 0.6036145
v 0.1570323 0.18743837 -0.004574787
v 0.3039794 2.2983682 1.1389539
v -0.13377978 3.09974 1.3318768
v -0.14993425 3.4595923 1.4071589
v -0.16436966 3.7761154 1.4556357
v 0.5375832 0.98794293 0.6423318
v 0.18968421 0.1328106 0.010062702
v 0.6752664 2.1386933 1.1817387
v 0.40577644 3.0449624 1.3465544
v 0.4547755 3.3982003 1.4236088
v 0.49856043 3.7088127 1.4736694
v 0.6493641 0.80092984 0.6924418
v 0.2032616 0.07110953 0.026595443
v 0.97729856 1.8760087 1.2521248
v 0.9014006 2.8318155 1.403667
v 1.0102482 3.159315 1.4876179
v 1.1075131 3.446928 1.5438412
v 0.69584525 0.58970416 0.74903953
v 0.19643532 0.0083761215 0.043404803
v 1.1805105 1.5360286 1.3432224
v 1.3045778 2.4811628 1.4976242
v 1.4621106 2.7663195 1.5929205
v 1.6028799 3.0160956 1.6592823
v 0.6724766 0.37494284 0.8065846
v 0.16987382 -0.04924965 0.058845565
v 0.58154577 0.17766786 0.8594443
v 1.265011 1.1520315 1.446114
v 1.5758423 2.0273294 1.6192284
v 1.766131 2.2576838 1.7292091
v 1.9361709 2.4584894 1.8086925
v 1.2225281 0.76160645 1.5507281
v 1.0572203 0.40297067 1.6468242
v 1.6886402 1.5147387 1.7565767
v 1.8925502 1.6831958 1.8831427
v 2.0747614 1.828691 1.9774466
v 1.6319307 0.9935672 1.896224
v 1.4112644 0.5148309 2.024501
v 1.8289926 1.0990908 2.0396533
v 2.0050845 1.1883495 2.1490254
v 1.5816802 0.5625452 2.18342
v 1.7339612 0.6001463 2.306634
vt 0.07142863 0
vt 5.9604645E-08 0
vt 5.9604645E-08 0.17071791
vt 0.07142863 0.17071791
vt 0.1428572 0
vt 5.9604645E-08 0.47571152
vt 0.1428572 0.17071791
vt 0.21428576 0
vt 0.07142863 0.47571152
vt 5.9604645E-08 0.7436361
vt 0.21428576 0.17071791
vt 0.28571433 0
vt 0.1428572 0.47571152
vt 0.07142863 0.7436361
vt 5.9604645E-08 0.8833064
vt 0.28571433 0.17071791
vt 0.35714287 0
vt 0.21428576 0.47571152
vt 0.1428572 0.7436361
vt 0.07142863 0.8833064
vt 5.9604645E-08 1
vt 0.07142863 1
vt 0.1428572 0.8833064
vt 0.1428572 1
vt 0.35714287 0.17071791
vt 0.42857143 0
vt 0.28571433 0.47571152
vt 0.21428576 0.7436361
vt 0.21428576 0.8833064
vt 0.21428576 1
vt 0.42857143 0.17071791
vt 0.5 0
vt 0.35714287 0.47571152
vt 0.28571433 0.7436361
vt 0.28571433 0.8833064
vt 0.28571433 1
vt 0.5 0.17071791
vt 0.5714284 0
vt 0.42857143 0.47571152
vt 0.35714287 0.7436361
vt 0.35714287 0.8833064
vt 0.35714287 1
vt 0.5714284 0.17071791
vt 0.64285713 0
vt 0.5 0.47571152
vt 0.42857143 0.7436361
vt 0.42857143 0.8833064
vt 0.42857143 1
vt 0.64285713 0.17071791
vt 0.7142858 0
vt 0.5714284 0.47571152
vt 0.5 0.7436361
vt 0.5 0.8833064
vt 0.5 1
vt 0.7142858 0.17071791
vt 0.78571427 0
vt 0.64285713 0.47571152
vt 0.5714284 0.7436361
vt 0.5714284 0.8833064
vt 0.5714284 1
vt 0.78571427 0.17071791
vt 0.8571427 0
vt 0.7142858 0.47571152
vt 0.64285713 0.7436361
vt 0.64285713 0.8833064
vt 0.64285713 1
vt 0.8571427 0.17071791
vt 0.92857134 0
vt 0.78571427 0.47571152
vt 0.7142858 0.7436361
vt 0.7142858 0.8833064
vt 0.7142858 1
vt 0.92857134 0.17071791
vt 1 0
vt 1 0.17071791
vt 0.8571427 0.47571152
vt 0.78571427 0.7436361
vt 0.78571427 0.8833064
vt 0.78571427 1
vt 0.92857134 0.47571152
vt 1 0.47571152
vt 0.8571427 0.7436361
vt 0.8571427 0.8833064
vt 0.8571427 1
vt 0.92857134 0.7436361
vt 1 0.7436361
vt 0.92857134 0.8833064
vt 0.92857134 1
vt 1 0.8833064
vt 1 1
vn 0.8295625 0.44664785 0.3351595
vn 0.79246414 0.5463252 0.27116293
vn 0.7781369 0.54755557 0.30771062
vn 0.8127326 0.43808308 0.38412112
vn 0.856566 0.19844925 0.47635326
vn 0.73793024 0.5469921 0.39529562
vn 0.8276619 0.19642226 0.5257321
vn 0.79501516 -0.03655664 0.6054869
vn 0.7560046 0.4313745 0.49231395
vn 0.6662892 0.53691036 0.5174804
vn 0.75836205 -0.026548946 0.6512927
vn 0.6624554 -0.23528898 0.7111905
vn 0.74860734 0.20798783 0.629546
vn 0.67693007 0.42058644 0.604047
vn 0.62310946 0.5272407 0.57771266
vn 0.6253178 -0.21087497 0.7513383
vn 0.4800741 -0.38483685 0.78830796
vn 0.6685342 0.012334379 0.7435791
vn 0.65103537 0.22138126 0.72604626
vn 0.62479466 0.42260486 0.6565339
vn 0.5961618 0.5201984 0.61154306
vn 0.5998687 0.3901335 0.6985365
vn 0.5941883 0.23679362 0.76868016
vn 0.55878216 0.21697678 0.8004271
vn 0.44981858 -0.34724066 0.822853
vn 0.26686874 -0.48000178 0.8356909
vn 0.54002535 -0.1422695 0.8295372
vn 0.56812954 0.0553446 0.821076
vn 0.51376194 0.085014574 0.85371023
vn 0.47687104 0.079899915 0.8753342
vn 0.24908207 -0.43314305 0.86622465
vn 0.038020726 -0.5193943 0.85368854
vn 0.38290504 -0.2528884 0.8884994
vn 0.45146427 -0.07120705 0.88944346
vn 0.40548396 -0.028860113 0.9136464
vn 0.37357298 -0.021269595 0.9273569
vn 0.03576036 -0.46871242 0.8826267
vn -0.19386542 -0.5025645 0.8425231
vn 0.21034534 -0.32121602 0.9233499
vn 0.31677216 -0.15969795 0.93496096
vn 0.283189 -0.10762171 0.95300657
vn 0.25996262 -0.09076594 0.96134335
vn -0.18024023 -0.45405108 0.8725543
vn -0.41627184 -0.42890388 0.8017227
vn 0.030382983 -0.3495244 0.93643445
vn 0.17306304 -0.213714 0.9614445
vn 0.15425287 -0.15539183 0.9757353
vn 0.14157227 -0.13287011 0.9809703
vn -0.3891433 -0.38827482 0.83535033
vn -0.61417276 -0.29842198 0.7305726
vn -0.1516031 -0.33867106 0.92861104
vn 0.025086794 -0.2361285 0.97139794
vn 0.022211816 -0.17519069 0.9842839
vn 0.020892557 -0.15042502 0.9884007
vn -0.5785992 -0.2701551 0.7695707
vn -0.7684092 -0.11440664 0.62964946
vn -0.33040845 -0.28746194 0.8989971
vn -0.1244215 -0.22797227 0.9656852
vn -0.11115476 -0.16809241 0.9794844
vn -0.10093499 -0.14441796 0.98435545
vn -0.73154664 -0.10051621 0.6743412
vn -0.8567302 0.11258467 0.50332683
vn -0.49847966 -0.19301865 0.8451401
vn -0.27288637 -0.18810919 0.9434766
vn -0.24421959 -0.13299927 0.96055615
vn -0.22289939 -0.11387992 0.96816695
vn -0.8261181 0.11363807 0.5519195
vn -0.85909885 0.36163518 0.36217278
vn -0.64325374 -0.05246005 0.7638538
vn -0.4160311 -0.11337578 0.90225506
vn -0.37390465 -0.066712774 0.92506474
vn -0.3429098 -0.055876363 0.93770504
vn -0.8398208 0.35481524 0.41086137
vn -0.83428293 0.46424013 0.29741088
vn -0.81891584 0.4668938 0.3337468
vn -0.74515885 0.13332556 0.6534237
vn -0.5455702 0.0005445798 0.83806497
vn -0.49357408 0.035449527 0.868981
vn -0.4561171 0.03424573 0.88926065
vn -0.77896285 0.35382706 0.5177096
vn -0.7758829 0.47030407 0.42049938
vn -0.64648205 0.15659526 0.74668527
vn -0.5902218 0.1775757 0.78746754
vn -0.55234563 0.16167688 0.8177866
vn -0.6954961 0.35102433 0.6269506
vn -0.6993763 0.46728653 0.54084754
vn -0.642166 0.35818094 0.6777383
vn -0.6128883 0.3285726 0.7186154
vn -0.6534725 0.46189395 0.59968966
vn -0.6248525 0.45752907 0.63263446
g VFX_Mermaid_Middle_01_0
f 3/3/3 2/2/2 1/1/1
f 4/4/4 3/3/3 1/1/1
f 4/4/4 1/1/1 5/5/5
f 6/6/6 3/3/3 4/4/4
f 7/7/7 4/4/4 5/5/5
f 7/7/7 5/5/5 8/8/8
f 9/9/9 6/6/6 4/4/4
f 9/9/9 4/4/4 7/7/7
f 10/10/10 6/6/6 9/9/9
f 11/11/11 7/7/7 8/8/8
f 11/11/11 8/8/8 12/12/12
f 13/13/13 9/9/9 7/7/7
f 13/13/13 7/7/7 11/11/11
f 14/14/14 10/10/10 9/9/9
f 14/14/14 9/9/9 13/13/13
f 15/15/15 10/10/10 14/14/14
f 16/16/16 11/11/11 12/12/12
f 16/16/16 12/12/12 17/17/17
f 18/18/18 13/13/13 11/11/11
f 18/18/18 11/11/11 16/16/16
f 19/19/19 14/14/14 13/13/13
f 19/19/19 13/13/13 18/18/18
f 20/20/20 15/15/15 14/14/14
f 20/20/20 14/14/14 19/19/19
f 21/21/21 15/15/15 20/20/20
f 22/22/22 21/21/21 20/20/20
f 22/22/22 20/20/20 23/23/23
f 23/23/23 20/20/20 19/19/19
f 24/24/24 22/22/22 23/23/23
f 25/25/25 16/16/16 17/17/17
f 25/25/25 17/17/17 26/26/26
f 27/27/27 18/18/18 16/16/16
f 27/27/27 16/16/16 25/25/25
f 28/28/28 19/19/19 18/18/18
f 23/23/23 19/19/19 28/28/28
f 28/28/28 18/18/18 27/27/27
f 24/24/24 23/23/23 29/29/29
f 29/29/29 23/23/23 28/28/28
f 30/30/30 24/24/24 29/29/29
f 31/31/31 25/25/25 26/26/26
f 31/31/31 26/26/26 32/32/32
f 33/33/33 27/27/27 25/25/25
f 33/33/33 25/25/25 31/31/31
f 34/34/34 28/28/28 27/27/27
f 29/29/29 28/28/28 34/34/34
f 34/34/34 27/27/27 33/33/33
f 30/30/30 29/29/29 35/35/35
f 35/35/35 29/29/29 34/34/34
f 36/36/36 30/30/30 35/35/35
f 37/37/37 31/31/31 32/32/32
f 37/37/37 32/32/32 38/38/38
f 39/39/39 33/33/33 31/31/31
f 39/39/39 31/31/31 37/37/37
f 40/40/40 34/34/34 33/33/33
f 35/35/35 34/34/34 40/40/40
f 40/40/40 33/33/33 39/39/39
f 36/36/36 35/35/35 41/41/41
f 41/41/41 35/35/35 40/40/40
f 42/42/42 36/36/36 41/41/41
f 43/43/43 37/37/37 38/38/38
f 43/43/43 38/38/38 44/44/44
f 45/45/45 39/39/39 37/37/37
f 45/45/45 37/37/37 43/43/43
f 46/46/46 40/40/40 39/39/39
f 41/41/41 40/40/40 46/46/46
f 46/46/46 39/39/39 45/45/45
f 42/42/42 41/41/41 47/47/47
f 47/47/47 41/41/41 46/46/46
f 48/48/48 42/42/42 47/47/47
f 49/49/49 43/43/43 44/44/44
f 49/49/49 44/44/44 50/50/50
f 51/51/51 45/45/45 43/43/43
f 51/51/51 43/43/43 49/49/49
f 52/52/52 46/46/46 45/45/45
f 47/47/47 46/46/46 52/52/52
f 52/52/52 45/45/45 51/51/51
f 48/48/48 47/47/47 53/53/53
f 53/53/53 47/47/47 52/52/52
f 54/54/54 48/48/48 53/53/53
f 55/55/55 49/49/49 50/50/50
f 55/55/55 50/50/50 56/56/56
f 57/57/57 51/51/51 49/49/49
f 57/57/57 49/49/49 55/55/55
f 58/58/58 52/52/52 51/51/51
f 53/53/53 52/52/52 58/58/58
f 58/58/58 51/51/51 57/57/57
f 54/54/54 53/53/53 59/59/59
f 59/59/59 53/53/53 58/58/58
f 60/60/60 54/54/54 59/59/59
f 61/61/61 55/55/55 56/56/56
f 61/61/61 56/56/56 62/62/62
f 63/63/63 57/57/57 55/55/55
f 63/63/63 55/55/55 61/61/61
f 64/64/64 58/58/58 57/57/57
f 59/59/59 58/58/58 64/64/64
f 64/64/64 57/57/57 63/63/63
f 60/60/60 59/59/59 65/65/65
f 65/65/65 59/59/59 64/64/64
f 66/66/66 60/60/60 65/65/65
f 67/67/67 61/61/61 62/62/62
f 67/67/67 62/62/62 68/68/68
f 69/69/69 63/63/63 61/61/61
f 69/69/69 61/61/61 67/67/67
f 70/70/70 64/64/64 63/63/63
f 65/65/65 64/64/64 70/70/70
f 70/70/70 63/63/63 69/69/69
f 66/66/66 65/65/65 71/71/71
f 71/71/71 65/65/65 70/70/70
f 72/72/72 66/66/66 71/71/71
f 73/73/73 67/67/67 68/68/68
f 73/73/73 68/68/68 74/74/74
f 75/75/75 73/73/73 74/74/74
f 76/76/76 69/69/69 67/67/67
f 76/76/76 67/67/67 73/73/73
f 77/77/77 70/70/70 69/69/69
f 71/71/71 70/70/70 77/77/77
f 77/77/77 69/69/69 76/76/76
f 72/72/72 71/71/71 78/78/78
f 78/78/78 71/71/71 77/77/77
f 79/79/79 72/72/72 78/78/78
f 80/80/80 73/73/73 75/75/75
f 80/80/80 76/76/76 73/73/73
f 81/81/81 80/80/80 75/75/75
f 82/82/82 77/77/77 76/76/76
f 78/78/78 77/77/77 82/82/82
f 82/82/82 76/76/76 80/80/80
f 79/79/79 78/78/78 83/83/83
f 83/83/83 78/78/78 82/82/82
f 84/84/84 79/79/79 83/83/83
f 85/85/85 80/80/80 81/81/81
f 85/85/85 82/82/82 80/80/80
f 83/83/83 82/82/82 85/85/85
f 86/86/86 85/85/85 81/81/81
f 84/84/84 83/83/83 87/87/87
f 87/87/87 83/83/83 85/85/85
f 87/87/87 85/85/85 86/86/86
f 88/88/88 84/84/84 87/87/87
f 89/89/89 87/87/87 86/86/86
f 88/88/88 87/87/87 89/89/89
f 90/90/90 88/88/88 89/89/89
