g VFX_Victory_Shoveler_Fire_Right_MO
v -0.0049999994 0 0.005
v 0.005 0 -0.0049999994
v 0.005 0 0.005
v -0.0049999994 0 -0.0049999994
v 0.0057256776 -0.00077951653 -0.009597749
v -0.004031263 0.00077951653 -0.01113772
v 0.005176885 -0.00077951653 -0.0148537485
v -0.004594758 0.00077951653 -0.013410012
v 0.0042746128 -0.00077951653 -0.018799925
v -0.0053454596 0.00077951653 -0.016558586
v 0.002504679 -0.00077951653 -0.022801556
v -0.006423945 0.00077951653 -0.018576743
v -0.001493525 -0.00077951653 -0.026553657
v -0.0075006047 0.00077951653 -0.018712457
v -0.0076885847 -0.00077951653 -0.028054208
v -0.00902662 0.00077951653 -0.018267531
v -0.0130750965 -0.00077951653 -0.027577017
v -0.011916812 0.00077951653 -0.01776744
v -0.017018108 -0.00077951653 -0.026465803
v -0.012832821 0.00077951653 -0.017750846
v -0.020134708 -0.00077951653 -0.024507627
v -0.013146107 0.00077951653 -0.017568797
v -0.02239423 -0.00077951653 -0.020326855
v -0.013379515 0.00077890843 -0.016964465
v -0.022333013 -0.0007806223 -0.016264865
v -0.013151016 0.0007729493 -0.016520968
v -0.021424364 -0.0007872593 -0.0131267905
v -0.012740664 0.0007192767 -0.016174477
v -0.020009916 -0.0008072237 -0.0105135115
v -0.012313507 0.00064911303 -0.016037561
v -0.017591488 -0.00086402794 -0.008243209
v -0.011838875 0.0006298405 -0.016013663
v -0.014242873 -0.0009788128 -0.007091691
v -0.011428187 0.00059625634 -0.016103005
v -0.011233688 -0.0011030579 -0.007176952
v -0.011182467 0.00056561304 -0.016247204
v -0.008450974 -0.0011673155 -0.008042887
v -0.0110146785 0.00055746303 -0.016406203
v -0.005701048 -0.0010428994 -0.010086469
v -0.010920819 0.000537968 -0.016649008
v -0.004318726 -0.0005002557 -0.01390341
v -0.010887619 0.0004326862 -0.016852828
v -0.005746159 0.00033917517 -0.016446635
v -0.010890341 0.0003564578 -0.017093133
vt 1 2.9802322E-08
vt 0.9523809 1
vt 1 1
vt 0.952381 0
vt 0.9047619 1
vt 0.9047619 0
vt 0.8571429 1
vt 0.8571429 0
vt 0.8095238 1
vt 0.8095238 0
vt 0.7619047 1
vt 0.7619047 0
vt 0.71428585 1
vt 0.71428585 0
vt 0.6666665 1
vt 0.6666665 0
vt 0.61904764 1
vt 0.61904764 0
vt 0.5714283 1
vt 0.5714283 0
vt 0.52380943 1
vt 0.52380943 0
vt 0.47619057 1
vt 0.4761906 0
vt 0.4285717 1
vt 0.42857173 0
vt 0.38095284 1
vt 0.38095286 0
vt 0.33333302 1
vt 0.33333302 0
vt 0.28571415 1
vt 0.28571415 0
vt 0.23809528 1
vt 0.23809531 0
vt 0.19047546 1
vt 0.1904755 0
vt 0.1428566 1
vt 0.14285663 0
vt 0.09523773 1
vt 0.09523776 0
vt 0.047618866 1
vt 0.047618896 0
vt 0 1
vt 2.9802322E-08 0
vn -0 1 0
vn 0.02889847 0.999572 0.0045611407
vn -0 1 0
vn 0.02540453 0.9996692 0.0040096804
vn 0.10742074 0.9942133 -0.00089800934
vn 0.11517435 0.99333584 -0.0043414235
vn 0.15498157 0.9874849 -0.029231068
vn 0.154785 0.987503 -0.029652864
vn 0.14784183 0.9877631 -0.049668122
vn 0.14717625 0.9877484 -0.051888645
vn 0.124985985 0.9877066 -0.09388377
vn 0.11693976 0.98747164 -0.105947964
vn 0.062431745 0.98707205 -0.14761782
vn 0.042691175 0.98679113 -0.15627111
vn 0.0016696616 0.9869336 -0.1611189
vn -0.003997876 0.9871007 -0.1600502
vn -0.024766088 0.9873297 -0.15673761
vn -0.024990082 0.9873273 -0.15671796
vn -0.058444746 0.9874423 -0.14677152
vn -0.055679113 0.9874356 -0.14788787
vn -0.117968306 0.9877632 -0.102016136
vn -0.11972852 0.987738 -0.10019292
vn -0.15481201 0.9871349 -0.03997435
vn -0.15868294 0.98695254 -0.027285412
vn -0.16419318 0.98567873 0.038445458
vn -0.16066562 0.985615 0.05243651
vn -0.138622 0.98600894 0.09257604
vn -0.13108745 0.98626804 0.10045671
vn -0.10002829 0.98712534 0.12481116
vn -0.091800466 0.98725617 0.12999156
vn -0.047865603 0.9868024 0.1546926
vn -0.030980995 0.98601204 0.16376953
vn 0.017412676 0.9836834 0.17906392
vn 0.03440355 0.98275995 0.18165693
vn 0.07093254 0.9806526 0.18245287
vn 0.07728793 0.9804875 0.18075085
vn 0.09141664 0.98070127 0.17282371
vn 0.09419396 0.98094124 0.16994667
vn 0.09708218 0.9829117 0.15639558
vn 0.09672828 0.9840044 0.14959617
vn 0.08134123 0.98372275 0.16022883
vn 0.0576063 0.9800253 0.19034654
vn -0.0034902352 0.96394145 0.26609173
vn -0.0034902357 0.96394145 0.26609173
g VFX_Victory_Shoveler_Fire_Right_MO_0
f 3/3/3 2/2/2 1/1/1
f 2/2/2 4/4/4 1/1/1
f 2/2/2 5/5/5 4/4/4
f 5/5/5 6/6/6 4/4/4
f 5/5/5 7/7/7 6/6/6
f 7/7/7 8/8/8 6/6/6
f 7/7/7 9/9/9 8/8/8
f 9/9/9 10/10/10 8/8/8
f 9/9/9 11/11/11 10/10/10
f 11/11/11 12/12/12 10/10/10
f 11/11/11 13/13/13 12/12/12
f 13/13/13 14/14/14 12/12/12
f 13/13/13 15/15/15 14/14/14
f 15/15/15 16/16/16 14/14/14
f 15/15/15 17/17/17 16/16/16
f 17/17/17 18/18/18 16/16/16
f 17/17/17 19/19/19 18/18/18
f 19/19/19 20/20/20 18/18/18
f 19/19/19 21/21/21 20/20/20
f 21/21/21 22/22/22 20/20/20
f 21/21/21 23/23/23 22/22/22
f 23/23/23 24/24/24 22/22/22
f 23/23/23 25/25/25 24/24/24
f 25/25/25 26/26/26 24/24/24
f 25/25/25 27/27/27 26/26/26
f 27/27/27 28/28/28 26/26/26
f 27/27/27 29/29/29 28/28/28
f 29/29/29 30/30/30 28/28/28
f 29/29/29 31/31/31 30/30/30
f 31/31/31 32/32/32 30/30/30
f 31/31/31 33/33/33 32/32/32
f 33/33/33 34/34/34 32/32/32
f 33/33/33 35/35/35 34/34/34
f 35/35/35 36/36/36 34/34/34
f 35/35/35 37/37/37 36/36/36
f 37/37/37 38/38/38 36/36/36
f 37/37/37 39/39/39 38/38/38
f 39/39/39 40/40/40 38/38/38
f 39/39/39 41/41/41 40/40/40
f 41/41/41 42/42/42 40/40/40
f 41/41/41 43/43/43 42/42/42
f 43/43/43 44/44/44 42/42/42
