g VFX_ChestOpen_Trail_03
v 0.23341854 0.18192123 0.1709146
v 0.23341854 0.18192123 0.17091458
v 0.21376872 0.18583025 0.17077681
v 0.21723802 0.18529779 0.16138977
v 0.2024456 0.18782592 0.16891578
v 0.20837198 0.18689963 0.15500753
v 0.1919032 0.18898797 0.16456743
v 0.19896665 0.18791924 0.15009543
v 0.18150543 0.18938875 0.15968037
v 0.18979965 0.18822558 0.14473547
v 0.17133144 0.1890112 0.15428454
v 0.18092729 0.1878146 0.13895552
v 0.16143952 0.1877586 0.14841184
v 0.17243561 0.18661861 0.1328156
v 0.15192533 0.18512094 0.14200813
v 0.16462648 0.18425448 0.12644146
v 0.14320543 0.18062793 0.13508022
v 0.15791985 0.18047145 0.11995549
v 0.13594675 0.17391486 0.1278233
v 0.15276468 0.1751302 0.113545604
v 0.13017459 0.16549693 0.11964638
v 0.14905831 0.16872852 0.106677204
v 0.125783 0.15731645 0.11121553
v 0.14613314 0.16192898 0.09900627
v 0.12190355 0.14971867 0.10176217
v 0.14375822 0.15589885 0.09080567
v 0.11845175 0.14344825 0.09106348
v 0.14182019 0.15113567 0.08188476
v 0.11599777 0.13870607 0.0816644
v 0.14035843 0.14702922 0.07291353
v 0.113949865 0.13380466 0.07236315
v 0.139242 0.14269076 0.06386344
v 0.112199895 0.12892932 0.063398525
v 0.13832116 0.13807718 0.054553084
v 0.11021593 0.12433159 0.055097003
v 0.13694282 0.13310811 0.04470569
v 0.10832644 0.1199046 0.046634044
v 0.13448496 0.12799141 0.035248745
v 0.10600714 0.11545205 0.03819533
v 0.13156682 0.12291688 0.025966154
v 0.10319262 0.11116746 0.02978365
v 0.12805708 0.11798082 0.016621174
v 0.09978567 0.10730403 0.021474399
v 0.12383588 0.11347621 0.007297048
v 0.095743835 0.10391124 0.013301449
v 0.118842885 0.109473616 -0.0019577467
v 0.09107745 0.10117548 0.00547069
v 0.112914234 0.10612154 -0.011146615
v 0.08579697 0.0995192 -0.0018787859
v 0.105533 0.10387243 -0.02003153
v 0.080176644 0.09929937 -0.008874558
v 0.09623174 0.10318968 -0.02767576
v 0.07353718 0.09996967 -0.015220732
v 0.08637173 0.10366166 -0.033839084
v 0.066401035 0.10093601 -0.020545885
v 0.07562722 0.10453917 -0.038833935
v 0.05874857 0.1020993 -0.024577906
v 0.0640363 0.105670184 -0.042137824
v 0.05113165 0.1029135 -0.026771965
v 0.05126201 0.10641905 -0.04296471
v 0.04228976 0.10282786 -0.026320828
v 0.035864826 0.105411574 -0.038509924
v 0.033850845 0.09981467 -0.02170546
v 0.025308909 0.10050488 -0.029328212
v 0.027972868 0.09422535 -0.015911173
v 0.020226372 0.09382143 -0.020949237
v 0.023645274 0.087157145 -0.009560841
v 0.017480616 0.08627784 -0.012822611
v 0.020593619 0.077692166 -0.0040814984
v 0.016471142 0.07721235 -0.0063489294
v 0.01847695 0.06715707 -0.00043294026
v 0.016360221 0.066916294 -0.0015997959
v 0.016399616 0.05589439 0.00307555
vt 0 0
vt 1 0
vt 0 0.027777778
vt 1 0.027777778
vt 0 0.055555556
vt 1 0.055555556
vt 0 0.083333336
vt 1 0.083333336
vt 0 0.11111111
vt 1 0.11111111
vt 0 0.1388889
vt 1 0.1388889
vt 0 0.16666667
vt 1 0.16666667
vt 0 0.19444445
vt 1 0.19444445
vt 0 0.22222222
vt 1 0.22222222
vt 0 0.25
vt 1 0.25
vt 0 0.2777778
vt 1 0.2777778
vt 0 0.30555555
vt 1 0.30555555
vt 0 0.33333334
vt 1 0.33333334
vt 0 0.3611111
vt 1 0.3611111
vt 0 0.3888889
vt 1 0.3888889
vt 0 0.41666666
vt 1 0.41666666
vt 0 0.44444445
vt 1 0.44444445
vt 0 0.4722222
vt 1 0.4722222
vt 0 0.5
vt 1 0.5
vt 0 0.5277778
vt 1 0.5277778
vt 0 0.5555556
vt 1 0.5555556
vt 0 0.5833333
vt 1 0.5833333
vt 0 0.6111111
vt 1 0.6111111
vt 0 0.6388889
vt 1 0.6388889
vt 0 0.6666667
vt 1 0.6666667
vt 0 0.6944444
vt 1 0.6944444
vt 0 0.7222222
vt 1 0.7222222
vt 0 0.75
vt 1 0.75
vt 0 0.7777778
vt 1 0.7777778
vt 0 0.8055556
vt 1 0.8055556
vt 0 0.8333333
vt 1 0.8333333
vt 0 0.8611111
vt 1 0.8611111
vt 0 0.8888889
vt 1 0.8888889
vt 0 0.9166667
vt 1 0.9166667
vt 0 0.9444444
vt 1 0.9444444
vt 0 0.9722222
vt 1 0.9722222
vt 1 1
vn 0.19497308 0.9806709 0.016433861
vn 0.19497308 0.9806709 0.016433861
vn 0.17955819 0.98369056 0.010569935
vn 0.18009569 0.98359007 0.010774141
vn 0.13885789 0.9902891 -0.0067838174
vn 0.13877927 0.9902998 -0.0068180114
vn 0.08624395 0.9957777 -0.031442888
vn 0.086202696 0.9957807 -0.031463236
vn 0.029733865 0.9976857 -0.061149884
vn 0.02969516 0.99768543 -0.061171345
vn -0.029061485 0.9949793 -0.09576881
vn -0.029116657 0.9949744 -0.0958028
vn -0.10668274 0.9833519 -0.14709815
vn -0.1069486 0.9832956 -0.14728059
vn -0.21086349 0.9512801 -0.22495025
vn -0.21129583 0.95110345 -0.22529179
vn -0.3307804 0.88376796 -0.33096623
vn -0.33127868 0.88340145 -0.3314456
vn -0.42224872 0.79820526 -0.4296211
vn -0.42268968 0.7976673 -0.4301864
vn -0.45533037 0.75263935 -0.47561362
vn -0.45529896 0.75269794 -0.4755508
vn -0.45103183 0.7627881 -0.46338382
vn -0.45096394 0.76292735 -0.46322063
vn -0.42916855 0.8103422 -0.3989486
vn -0.4290865 0.8105135 -0.3986887
vn -0.4117714 0.84535056 -0.34033337
vn -0.41183856 0.84519786 -0.3406312
vn -0.4108475 0.8465068 -0.33857137
vn -0.41084656 0.84650934 -0.33856618
vn -0.4148506 0.8350165 -0.3614506
vn -0.414847 0.8350283 -0.36142758
vn -0.41561407 0.83246225 -0.36643076
vn -0.41562086 0.8324398 -0.36647424
vn -0.41349623 0.83820045 -0.35558528
vn -0.41349623 0.8382003 -0.35558558
vn -0.4102569 0.84535295 -0.34215152
vn -0.41025373 0.8453593 -0.3421397
vn -0.4038953 0.856517 -0.32132098
vn -0.4038979 0.8565128 -0.32132906
vn -0.3897518 0.876505 -0.2825462
vn -0.3897512 0.87650585 -0.28254452
vn -0.36741993 0.9008916 -0.23107783
vn -0.36741808 0.90089333 -0.23107389
vn -0.33639127 0.9259677 -0.17153665
vn -0.33642155 0.92594665 -0.17159045
vn -0.28451526 0.9544546 -0.089818604
vn -0.28459147 0.95442146 -0.08992919
vn -0.19977894 0.9796806 0.01772951
vn -0.19954632 0.97972316 0.017993676
vn -0.10249549 0.9878562 0.116768375
vn -0.1015777 0.9878576 0.11755572
vn -0.03281153 0.9844444 0.17260574
vn -0.032696825 0.98443455 0.17268337
vn 0.011486486 0.9800219 0.19855772
vn 0.011637502 0.9800056 0.1986291
vn 0.039459057 0.97671854 0.21086445
vn 0.039440714 0.97672015 0.21086076
vn 0.02222315 0.9772354 0.2109912
vn 0.022609346 0.9772235 0.21100457
vn -0.075063616 0.9667249 0.24455765
vn -0.080738656 0.96560526 0.24715912
vn -0.24086879 0.903496 0.35450992
vn -0.24581861 0.9001386 0.359616
vn -0.36205855 0.79093236 0.4932947
vn -0.36268535 0.7899959 0.4943337
vn -0.4196717 0.6698531 0.61251324
vn -0.42100832 0.6656474 0.61617005
vn -0.46302417 0.49065214 0.73815244
vn -0.4629055 0.49129057 0.7378022
vn -0.48103574 0.3642082 0.79746914
vn -0.48103666 0.36419976 0.7974725
vn -0 1 0
g VFX_ChestOpen_Trail_03_0
f 4/4/4 3/3/3 1/1/1
f 2/2/2 4/4/4 1/1/1
f 6/6/6 5/5/5 3/3/3
f 4/4/4 6/6/6 3/3/3
f 8/8/8 7/7/7 5/5/5
f 6/6/6 8/8/8 5/5/5
f 10/10/10 9/9/9 7/7/7
f 8/8/8 10/10/10 7/7/7
f 12/12/12 11/11/11 9/9/9
f 10/10/10 12/12/12 9/9/9
f 14/14/14 13/13/13 11/11/11
f 12/12/12 14/14/14 11/11/11
f 16/16/16 15/15/15 13/13/13
f 14/14/14 16/16/16 13/13/13
f 18/18/18 17/17/17 15/15/15
f 16/16/16 18/18/18 15/15/15
f 20/20/20 19/19/19 17/17/17
f 18/18/18 20/20/20 17/17/17
f 22/22/22 21/21/21 19/19/19
f 20/20/20 22/22/22 19/19/19
f 24/24/24 23/23/23 21/21/21
f 22/22/22 24/24/24 21/21/21
f 26/26/26 25/25/25 23/23/23
f 24/24/24 26/26/26 23/23/23
f 28/28/28 27/27/27 25/25/25
f 26/26/26 28/28/28 25/25/25
f 30/30/30 29/29/29 27/27/27
f 28/28/28 30/30/30 27/27/27
f 32/32/32 31/31/31 29/29/29
f 30/30/30 32/32/32 29/29/29
f 34/34/34 33/33/33 31/31/31
f 32/32/32 34/34/34 31/31/31
f 36/36/36 35/35/35 33/33/33
f 34/34/34 36/36/36 33/33/33
f 38/38/38 37/37/37 35/35/35
f 36/36/36 38/38/38 35/35/35
f 40/40/40 39/39/39 37/37/37
f 38/38/38 40/40/40 37/37/37
f 42/42/42 41/41/41 39/39/39
f 40/40/40 42/42/42 39/39/39
f 44/44/44 43/43/43 41/41/41
f 42/42/42 44/44/44 41/41/41
f 46/46/46 45/45/45 43/43/43
f 44/44/44 46/46/46 43/43/43
f 48/48/48 47/47/47 45/45/45
f 46/46/46 48/48/48 45/45/45
f 50/50/50 49/49/49 47/47/47
f 48/48/48 50/50/50 47/47/47
f 52/52/52 51/51/51 49/49/49
f 50/50/50 52/52/52 49/49/49
f 54/54/54 53/53/53 51/51/51
f 52/52/52 54/54/54 51/51/51
f 56/56/56 55/55/55 53/53/53
f 54/54/54 56/56/56 53/53/53
f 58/58/58 57/57/57 55/55/55
f 56/56/56 58/58/58 55/55/55
f 60/60/60 59/59/59 57/57/57
f 58/58/58 60/60/60 57/57/57
f 62/62/62 61/61/61 59/59/59
f 60/60/60 62/62/62 59/59/59
f 64/64/64 63/63/63 61/61/61
f 62/62/62 64/64/64 61/61/61
f 66/66/66 65/65/65 63/63/63
f 64/64/64 66/66/66 63/63/63
f 68/68/68 67/67/67 65/65/65
f 66/66/66 68/68/68 65/65/65
f 70/70/70 69/69/69 67/67/67
f 68/68/68 70/70/70 67/67/67
f 72/72/72 71/71/71 69/69/69
f 70/70/70 72/72/72 69/69/69
f 72/72/72 73/73/73 71/71/71
