g VFX_Crown_Glow_01
v 0.555356 0 1.457657E-07
v 0.55432004 0.06054787 -0.11026069
v 0.54468435 0 -0.108344026
v 0.56518054 0.06054787 1.4254499E-07
v 0.544685 0 0.108344704
v 0.5841223 0.24781644 -0.11618872
v 0.55432075 0.06054787 0.11026136
v 0.513082 0 0.2125256
v 0.5955667 0.24781644 1.3258362E-07
v 0.6676489 0.7726725 -0.13280317
v 0.6807297 0.7726725 1.0466502E-07
v 0.584123 0.24781644 0.1161894
v 0.6676496 0.7726725 0.13280386
v 0.5221587 0.06054787 0.21628526
v 0.46176162 0 0.3085394
v 0.55023193 0.24781646 0.22791356
v 0.6289124 0.7726725 0.26050404
v 0.46993038 0.06054787 0.31399757
v 0.392696 0 0.39269608
v 0.49519557 0.24781646 0.3308792
v 0.56600606 0.7726725 0.3781933
v 0.39964294 0.06054787 0.39964306
v 0.30853924 0 0.46176165
v 0.4211292 0.24781646 0.42112932
v 0.48134845 0.7726725 0.48134857
v 0.31399742 0.06054787 0.4699304
v 0.21252552 0 0.513082
v 0.33087903 0.24781644 0.49519557
v 0.37819302 0.7726725 0.56600606
v 0.21628517 0.06054787 0.5221587
v 0.1083446 0 0.5446849
v 0.22791344 0.24781644 0.5502318
v 0.2605039 0.7726725 0.6289121
v 0.110261254 0.06054787 0.5543206
v 5.4735764E-08 0 0.55535585
v 0.116189286 0.24781644 0.5841229
v 0.13280372 0.7726725 0.6676495
v 4.9904692E-08 0.06054787 0.5651803
v -0.10834448 0 0.54468477
v 3.4962653E-08 0.24781644 0.59556645
v -6.9152577E-09 0.7726725 0.6807295
v -0.11026115 0.06054787 0.55432045
v -0.21252535 0 0.51308185
v -0.116189204 0.24781646 0.5841228
v -0.13280371 0.7726725 0.66764945
v -0.21628504 0.06054787 0.5221585
v -0.30853903 0 0.46176144
v -0.22791335 0.24781644 0.55023164
v -0.2605039 0.7726725 0.628912
v -0.3139972 0.06054787 0.46993017
v -0.3926957 0 0.39269572
v -0.33087885 0.24781646 0.4951953
v -0.37819296 0.7726725 0.5660057
v -0.39964268 0.06054787 0.39964265
v -0.46176124 0 0.30853906
v -0.42112896 0.24781646 0.4211289
v -0.48134834 0.7726725 0.48134822
v -0.46993 0.06054787 0.31399724
v -0.51308155 0 0.2125254
v -0.49519518 0.24781644 0.33087885
v -0.5660057 0.7726725 0.3781928
v -0.5221582 0.06054787 0.21628505
v -0.54468447 0 0.10834448
v -0.5502314 0.24781647 0.22791332
v -0.6289118 0.7726725 0.2605037
v -0.55432016 0.06054787 0.11026114
v -0.5553554 0 -3.6294153E-08
v -0.5841224 0.24781644 0.11618917
v -0.66764915 0.7726725 0.13280359
v -0.5651799 0.06054787 -4.2735586E-08
v -0.5446843 0 -0.108344525
v -0.59556603 0.24781644 -6.26583E-08
v -0.68072903 0.7726725 -1.1849551E-07
v -0.55432 0.06054787 -0.110261194
v -0.5130814 0 -0.21252538
v -0.5841223 0.24781646 -0.11618926
v -0.667649 0.7726725 -0.13280378
v -0.522158 0.06054787 -0.21628506
v -0.46176094 0 -0.30853897
v -0.55023116 0.24781644 -0.22791336
v -0.6289115 0.7726725 -0.2605039
v -0.46992972 0.06054787 -0.31399718
v -0.3926954 0 -0.3926956
v -0.4951949 0.24781646 -0.33087885
v -0.5660054 0.7726725 -0.37819293
v -0.39964235 0.06054787 -0.3996426
v -0.30853862 0 -0.46176118
v -0.42112857 0.24781644 -0.42112887
v -0.4813478 0.7726725 -0.48134825
v -0.3139968 0.06054787 -0.46992993
v -0.21252495 0 -0.51308143
v -0.3308784 0.24781644 -0.4951951
v -0.3781924 0.7726725 -0.5660055
v -0.21628462 0.06054787 -0.5221581
v -0.10834406 0 -0.5446843
v -0.22791287 0.24781647 -0.5502313
v -0.2605033 0.7726725 -0.62891173
v -0.110260725 0.06054787 -0.55432
v 3.9402912E-07 0 -0.5553552
v -0.11618878 0.24781644 -0.5841223
v -0.13280328 0.7726725 -0.6676489
v 3.952003E-07 0.06054787 -0.56517965
v 0.10834485 0 -0.5446841
v 3.988226E-07 0.24781644 -0.5955658
v 4.0897484E-07 0.7726725 -0.68072885
v 0.11026151 0.06054787 -0.5543198
v 0.21252567 0 -0.5130812
v 0.116189554 0.24781644 -0.58412206
v 0.132804 0.7726725 -0.6676488
v 0.21628533 0.06054787 -0.52215785
v 0.30853927 0 -0.4617608
v 0.2279136 0.24781644 -0.550231
v 0.26050407 0.7726725 -0.6289113
v 0.31399745 0.06054787 -0.46992955
v 0.3926958 0 -0.39269516
v 0.33087906 0.24781644 -0.49519467
v 0.37819305 0.7726725 -0.56600505
v 0.39964277 0.06054787 -0.3996421
v 0.46176136 0 -0.3085385
v 0.421129 0.24781644 -0.42112833
v 0.4813483 0.7726725 -0.48134762
v 0.46993008 0.06054787 -0.31399667
v 0.51308155 0 -0.21252486
v 0.4951952 0.24781646 -0.3308783
v 0.56600547 0.7726725 -0.37819228
v 0.52215815 0.06054787 -0.21628453
v 0.54468435 0 -0.108344026
v 0.55432004 0.06054787 -0.11026069
v 0.5502312 0.24781644 -0.22791278
v 0.62891155 0.7726725 -0.26050323
v 0.5841223 0.24781644 -0.11618872
v 0.6676489 0.7726725 -0.13280317
vt 0.96875 2.9802322E-08
vt 1 0.07836166
vt 1 2.9802322E-08
vt 0.96875 0.07836166
vt 0.9375 2.9802322E-08
vt 1 0.5362557
vt 0.9375 0.07836166
vt 0.90625 2.9802322E-08
vt 0.96875 0.5362557
vt 1 1
vt 0.96875 1
vt 0.9375 0.5362557
vt 0.9375 1
vt 0.90625 0.07836166
vt 0.875 2.9802322E-08
vt 0.90625 0.5362557
vt 0.90625 1
vt 0.875 0.07836166
vt 0.84375 2.9802322E-08
vt 0.875 0.5362557
vt 0.875 1
vt 0.84375 0.07836166
vt 0.8125 0
vt 0.84375 0.5362557
vt 0.84375 1
vt 0.8125 0.07836163
vt 0.78125 0
vt 0.8125 0.5362557
vt 0.8125 1
vt 0.78125 0.07836163
vt 0.75 0
vt 0.78125 0.5362557
vt 0.78125 1
vt 0.75 0.07836163
vt 0.71875 0
vt 0.75 0.5362557
vt 0.75 1
vt 0.71875 0.07836163
vt 0.6875 0
vt 0.71875 0.5362557
vt 0.71875 1
vt 0.6875 0.07836163
vt 0.65625 0
vt 0.6875 0.5362557
vt 0.6875 1
vt 0.65625 0.07836163
vt 0.625 0
vt 0.65625 0.5362557
vt 0.65625 1
vt 0.625 0.07836163
vt 0.59375 0
vt 0.625 0.5362557
vt 0.625 1
vt 0.59375 0.07836163
vt 0.5625 0
vt 0.59375 0.5362557
vt 0.59375 1
vt 0.5625 0.07836166
vt 0.53125 0
vt 0.5625 0.5362557
vt 0.5625 1
vt 0.53125 0.07836166
vt 0.5 0
vt 0.53125 0.5362557
vt 0.53125 1
vt 0.5 0.07836166
vt 0.46875003 0
vt 0.5 0.5362557
vt 0.49999997 1
vt 0.46875003 0.07836166
vt 0.43750003 0
vt 0.46875 0.5362557
vt 0.46874997 1
vt 0.43750003 0.07836166
vt 0.40625003 0
vt 0.4375 0.5362557
vt 0.43749997 1
vt 0.40625 0.07836166
vt 0.37500003 0
vt 0.40625 0.5362557
vt 0.40624997 1
vt 0.375 0.07836166
vt 0.34375 0
vt 0.375 0.5362557
vt 0.375 1
vt 0.34375 0.07836166
vt 0.3125 0
vt 0.34375 0.5362557
vt 0.34375 1
vt 0.3125 0.07836166
vt 0.28125 0
vt 0.3125 0.5362557
vt 0.3125 1
vt 0.28125 0.07836166
vt 0.24999997 0
vt 0.28125 0.5362557
vt 0.28125 1
vt 0.24999991 0.07836166
vt 0.21875003 0
vt 0.25 0.5362557
vt 0.24999997 1
vt 0.21875003 0.07836166
vt 0.18749997 0
vt 0.21875 0.5362557
vt 0.21875003 1
vt 0.18750003 0.07836166
vt 0.15624997 0
vt 0.1875 0.5362557
vt 0.18749997 1
vt 0.15624991 0.07836166
vt 0.12499997 0
vt 0.15625 0.5362557
vt 0.15624997 1
vt 0.12500003 0.07836166
vt 0.09374997 0
vt 0.125 0.5362557
vt 0.12499997 1
vt 0.09374991 0.07836166
vt 0.06249997 0
vt 0.09375 0.5362557
vt 0.09374997 1
vt 0.06249991 0.07836166
vt 0.03125003 0
vt 0.0625 0.5362557
vt 0.06249997 1
vt 0.03125003 0.07836166
vt 2.9802322E-08 0
vt 2.9802322E-08 0.07836166
vt 0.03125 0.5362557
vt 0.03124997 1
vt 0 0.5362557
vt 0 1
vn 0.9870902 -0.16016571 0
vn 0.968123 -0.16016449 -0.1925748
vn 0.968123 -0.16016464 -0.19257464
vn 0.9870903 -0.16016485 0
vn 0.9681234 -0.16016592 0.19257198
vn 0.968123 -0.16016488 -0.19257481
vn 0.9681236 -0.16016512 0.19257191
vn 0.91195244 -0.16016516 0.37774327
vn 0.9870903 -0.16016503 0
vn 0.968123 -0.16016503 -0.19257472
vn 0.9870902 -0.16016519 0
vn 0.9681236 -0.16016506 0.1925715
vn 0.96812373 -0.16016513 0.1925714
vn 0.9119523 -0.16016535 0.3777432
vn 0.8207356 -0.16016534 0.5483978
vn 0.9119525 -0.16016518 0.37774304
vn 0.9119525 -0.1601651 0.377743
vn 0.8207355 -0.16016532 0.548398
vn 0.6979779 -0.16016528 0.69797844
vn 0.8207353 -0.16016507 0.5483984
vn 0.8207352 -0.16016498 0.54839855
vn 0.6979779 -0.16016501 0.6979785
vn 0.5483975 -0.16016513 0.82073593
vn 0.6979777 -0.16016491 0.6979787
vn 0.6979777 -0.1601649 0.69797873
vn 0.54839766 -0.16016492 0.8207358
vn 0.37774265 -0.16016507 0.9119526
vn 0.54839766 -0.1601649 0.82073575
vn 0.5483977 -0.16016494 0.82073575
vn 0.37774268 -0.16016498 0.9119526
vn 0.19257118 -0.16016479 0.96812373
vn 0.37774283 -0.16016494 0.9119525
vn 0.37774286 -0.16016491 0.9119525
vn 0.192571 -0.160165 0.96812373
vn -0 -0.16016464 0.9870903
vn 0.19257125 -0.16016501 0.96812373
vn 0.19257133 -0.16016497 0.96812373
vn -0 -0.16016498 0.9870903
vn -0.19257176 -0.16016482 0.9681236
vn -0 -0.16016506 0.9870903
vn -0 -0.16016507 0.9870903
vn -0.19257194 -0.16016503 0.9681236
vn -0.37774312 -0.16016498 0.9119525
vn -0.19257183 -0.16016509 0.9681236
vn -0.19257179 -0.16016509 0.9681236
vn -0.37774336 -0.160165 0.9119523
vn -0.54839855 -0.16016467 0.8207352
vn -0.37774354 -0.16016503 0.9119523
vn -0.37774357 -0.16016506 0.9119523
vn -0.5483985 -0.16016498 0.8207352
vn -0.6979786 -0.16016456 0.6979779
vn -0.5483986 -0.16016501 0.8207352
vn -0.5483986 -0.16016501 0.8207351
vn -0.6979785 -0.160165 0.69797796
vn -0.82073575 -0.16016479 0.54839766
vn -0.6979785 -0.16016504 0.69797796
vn -0.69797856 -0.16016498 0.6979779
vn -0.82073575 -0.16016512 0.54839766
vn -0.9119525 -0.16016522 0.3777427
vn -0.8207358 -0.16016497 0.5483976
vn -0.8207358 -0.1601649 0.5483976
vn -0.9119526 -0.16016535 0.3777426
vn -0.96812373 -0.16016485 0.19257142
vn -0.9119526 -0.16016506 0.37774265
vn -0.9119526 -0.16016492 0.37774262
vn -0.96812373 -0.16016507 0.19257127
vn -0.9870904 -0.16016436 0
vn -0.96812373 -0.16016509 0.19257116
vn -0.96812373 -0.16016507 0.19257112
vn -0.9870903 -0.16016479 0
vn -0.9681235 -0.16016479 -0.19257225
vn -0.9870903 -0.16016503 0
vn -0.9870903 -0.16016507 0
vn -0.9681235 -0.16016498 -0.19257218
vn -0.91195244 -0.16016498 -0.3777434
vn -0.9681235 -0.16016506 -0.19257218
vn -0.9681235 -0.16016507 -0.19257218
vn -0.91195244 -0.16016515 -0.3777433
vn -0.82073534 -0.1601648 -0.5483983
vn -0.91195244 -0.1601651 -0.37774327
vn -0.91195244 -0.1601651 -0.37774327
vn -0.82073534 -0.16016518 -0.54839814
vn -0.69797784 -0.16016492 -0.69797856
vn -0.8207353 -0.1601651 -0.5483983
vn -0.8207352 -0.16016507 -0.54839844
vn -0.6979778 -0.16016513 -0.6979787
vn -0.5483972 -0.16016512 -0.82073605
vn -0.6979776 -0.16016504 -0.69797873
vn -0.6979776 -0.160165 -0.6979789
vn -0.54839724 -0.16016506 -0.820736
vn -0.3777423 -0.16016498 -0.9119528
vn -0.5483973 -0.16016501 -0.82073593
vn -0.5483974 -0.16016501 -0.82073593
vn -0.37774238 -0.16016507 -0.91195273
vn -0.19257128 -0.16016477 -0.96812373
vn -0.3777425 -0.16016509 -0.91195273
vn -0.37774244 -0.16016504 -0.91195273
vn -0.19257072 -0.16016507 -0.9681238
vn -0 -0.1601646 -0.9870903
vn -0.19257087 -0.16016507 -0.9681238
vn -0.19257104 -0.16016507 -0.96812373
vn -0 -0.16016494 -0.9870903
vn 0.19257222 -0.1601648 -0.9681236
vn -0 -0.1601651 -0.9870903
vn -0 -0.16016512 -0.9870903
vn 0.19257173 -0.1601649 -0.9681236
vn 0.37774327 -0.16016507 -0.91195244
vn 0.19257218 -0.16016507 -0.9681235
vn 0.19257236 -0.16016513 -0.9681235
vn 0.37774324 -0.16016492 -0.9119525
vn 0.5483985 -0.16016524 -0.8207351
vn 0.3777436 -0.16016497 -0.9119522
vn 0.37774378 -0.16016503 -0.9119522
vn 0.54839873 -0.16016486 -0.8207351
vn 0.69797873 -0.16016504 -0.6979776
vn 0.5483986 -0.16016485 -0.8207351
vn 0.5483987 -0.16016488 -0.8207351
vn 0.6979788 -0.16016483 -0.69797754
vn 0.82073605 -0.16016462 -0.54839724
vn 0.6979788 -0.1601648 -0.6979776
vn 0.69797873 -0.16016479 -0.6979777
vn 0.82073617 -0.16016465 -0.54839724
vn 0.91195303 -0.16016458 -0.3777421
vn 0.82073617 -0.16016477 -0.54839724
vn 0.82073605 -0.16016477 -0.54839724
vn 0.9119529 -0.1601645 -0.37774217
vn 0.968123 -0.16016464 -0.19257464
vn 0.968123 -0.16016449 -0.1925748
vn 0.91195273 -0.16016482 -0.37774253
vn 0.91195273 -0.16016495 -0.37774262
vn 0.968123 -0.16016488 -0.19257481
vn 0.968123 -0.16016503 -0.19257472
g VFX_Crown_Glow_01_0
f 3/3/3 2/2/2 1/1/1
f 2/2/2 4/4/4 1/1/1
f 1/1/1 4/4/4 5/5/5
f 2/2/2 6/6/6 4/4/4
f 4/4/4 7/7/7 5/5/5
f 5/5/5 7/7/7 8/8/8
f 6/6/6 9/9/9 4/4/4
f 4/4/4 9/9/9 7/7/7
f 6/6/6 10/10/10 9/9/9
f 10/10/10 11/11/11 9/9/9
f 9/9/9 11/11/11 12/12/12
f 9/9/9 12/12/12 7/7/7
f 11/11/11 13/13/13 12/12/12
f 7/7/7 14/14/14 8/8/8
f 7/7/7 12/12/12 14/14/14
f 8/8/8 14/14/14 15/15/15
f 12/12/12 13/13/13 16/16/16
f 12/12/12 16/16/16 14/14/14
f 13/13/13 17/17/17 16/16/16
f 14/14/14 18/18/18 15/15/15
f 14/14/14 16/16/16 18/18/18
f 15/15/15 18/18/18 19/19/19
f 16/16/16 17/17/17 20/20/20
f 16/16/16 20/20/20 18/18/18
f 17/17/17 21/21/21 20/20/20
f 18/18/18 22/22/22 19/19/19
f 18/18/18 20/20/20 22/22/22
f 19/19/19 22/22/22 23/23/23
f 20/20/20 21/21/21 24/24/24
f 20/20/20 24/24/24 22/22/22
f 21/21/21 25/25/25 24/24/24
f 22/22/22 26/26/26 23/23/23
f 22/22/22 24/24/24 26/26/26
f 23/23/23 26/26/26 27/27/27
f 24/24/24 25/25/25 28/28/28
f 24/24/24 28/28/28 26/26/26
f 25/25/25 29/29/29 28/28/28
f 26/26/26 30/30/30 27/27/27
f 26/26/26 28/28/28 30/30/30
f 27/27/27 30/30/30 31/31/31
f 28/28/28 29/29/29 32/32/32
f 28/28/28 32/32/32 30/30/30
f 29/29/29 33/33/33 32/32/32
f 30/30/30 34/34/34 31/31/31
f 30/30/30 32/32/32 34/34/34
f 31/31/31 34/34/34 35/35/35
f 32/32/32 33/33/33 36/36/36
f 32/32/32 36/36/36 34/34/34
f 33/33/33 37/37/37 36/36/36
f 34/34/34 38/38/38 35/35/35
f 34/34/34 36/36/36 38/38/38
f 35/35/35 38/38/38 39/39/39
f 36/36/36 37/37/37 40/40/40
f 36/36/36 40/40/40 38/38/38
f 37/37/37 41/41/41 40/40/40
f 38/38/38 42/42/42 39/39/39
f 38/38/38 40/40/40 42/42/42
f 39/39/39 42/42/42 43/43/43
f 40/40/40 41/41/41 44/44/44
f 40/40/40 44/44/44 42/42/42
f 41/41/41 45/45/45 44/44/44
f 42/42/42 46/46/46 43/43/43
f 42/42/42 44/44/44 46/46/46
f 43/43/43 46/46/46 47/47/47
f 44/44/44 45/45/45 48/48/48
f 44/44/44 48/48/48 46/46/46
f 45/45/45 49/49/49 48/48/48
f 46/46/46 50/50/50 47/47/47
f 46/46/46 48/48/48 50/50/50
f 47/47/47 50/50/50 51/51/51
f 48/48/48 49/49/49 52/52/52
f 48/48/48 52/52/52 50/50/50
f 49/49/49 53/53/53 52/52/52
f 50/50/50 54/54/54 51/51/51
f 50/50/50 52/52/52 54/54/54
f 51/51/51 54/54/54 55/55/55
f 52/52/52 53/53/53 56/56/56
f 52/52/52 56/56/56 54/54/54
f 53/53/53 57/57/57 56/56/56
f 54/54/54 58/58/58 55/55/55
f 54/54/54 56/56/56 58/58/58
f 55/55/55 58/58/58 59/59/59
f 56/56/56 57/57/57 60/60/60
f 56/56/56 60/60/60 58/58/58
f 57/57/57 61/61/61 60/60/60
f 58/58/58 62/62/62 59/59/59
f 58/58/58 60/60/60 62/62/62
f 59/59/59 62/62/62 63/63/63
f 60/60/60 61/61/61 64/64/64
f 60/60/60 64/64/64 62/62/62
f 61/61/61 65/65/65 64/64/64
f 62/62/62 66/66/66 63/63/63
f 62/62/62 64/64/64 66/66/66
f 63/63/63 66/66/66 67/67/67
f 64/64/64 65/65/65 68/68/68
f 64/64/64 68/68/68 66/66/66
f 65/65/65 69/69/69 68/68/68
f 66/66/66 70/70/70 67/67/67
f 66/66/66 68/68/68 70/70/70
f 67/67/67 70/70/70 71/71/71
f 68/68/68 69/69/69 72/72/72
f 68/68/68 72/72/72 70/70/70
f 69/69/69 73/73/73 72/72/72
f 70/70/70 74/74/74 71/71/71
f 70/70/70 72/72/72 74/74/74
f 71/71/71 74/74/74 75/75/75
f 72/72/72 73/73/73 76/76/76
f 72/72/72 76/76/76 74/74/74
f 73/73/73 77/77/77 76/76/76
f 74/74/74 78/78/78 75/75/75
f 74/74/74 76/76/76 78/78/78
f 75/75/75 78/78/78 79/79/79
f 76/76/76 77/77/77 80/80/80
f 76/76/76 80/80/80 78/78/78
f 77/77/77 81/81/81 80/80/80
f 78/78/78 82/82/82 79/79/79
f 78/78/78 80/80/80 82/82/82
f 79/79/79 82/82/82 83/83/83
f 80/80/80 81/81/81 84/84/84
f 80/80/80 84/84/84 82/82/82
f 81/81/81 85/85/85 84/84/84
f 82/82/82 86/86/86 83/83/83
f 82/82/82 84/84/84 86/86/86
f 83/83/83 86/86/86 87/87/87
f 84/84/84 85/85/85 88/88/88
f 84/84/84 88/88/88 86/86/86
f 85/85/85 89/89/89 88/88/88
f 86/86/86 90/90/90 87/87/87
f 86/86/86 88/88/88 90/90/90
f 87/87/87 90/90/90 91/91/91
f 88/88/88 89/89/89 92/92/92
f 88/88/88 92/92/92 90/90/90
f 89/89/89 93/93/93 92/92/92
f 90/90/90 94/94/94 91/91/91
f 90/90/90 92/92/92 94/94/94
f 91/91/91 94/94/94 95/95/95
f 92/92/92 93/93/93 96/96/96
f 92/92/92 96/96/96 94/94/94
f 93/93/93 97/97/97 96/96/96
f 94/94/94 98/98/98 95/95/95
f 94/94/94 96/96/96 98/98/98
f 95/95/95 98/98/98 99/99/99
f 96/96/96 97/97/97 100/100/100
f 96/96/96 100/100/100 98/98/98
f 97/97/97 101/101/101 100/100/100
f 98/98/98 102/102/102 99/99/99
f 98/98/98 100/100/100 102/102/102
f 99/99/99 102/102/102 103/103/103
f 100/100/100 101/101/101 104/104/104
f 100/100/100 104/104/104 102/102/102
f 101/101/101 105/105/105 104/104/104
f 102/102/102 106/106/106 103/103/103
f 102/102/102 104/104/104 106/106/106
f 103/103/103 106/106/106 107/107/107
f 104/104/104 105/105/105 108/108/108
f 104/104/104 108/108/108 106/106/106
f 105/105/105 109/109/109 108/108/108
f 106/106/106 110/110/110 107/107/107
f 106/106/106 108/108/108 110/110/110
f 107/107/107 110/110/110 111/111/111
f 108/108/108 109/109/109 112/112/112
f 108/108/108 112/112/112 110/110/110
f 109/109/109 113/113/113 112/112/112
f 110/110/110 114/114/114 111/111/111
f 110/110/110 112/112/112 114/114/114
f 111/111/111 114/114/114 115/115/115
f 112/112/112 113/113/113 116/116/116
f 112/112/112 116/116/116 114/114/114
f 113/113/113 117/117/117 116/116/116
f 114/114/114 118/118/118 115/115/115
f 114/114/114 116/116/116 118/118/118
f 115/115/115 118/118/118 119/119/119
f 116/116/116 117/117/117 120/120/120
f 116/116/116 120/120/120 118/118/118
f 117/117/117 121/121/121 120/120/120
f 118/118/118 122/122/122 119/119/119
f 118/118/118 120/120/120 122/122/122
f 119/119/119 122/122/122 123/123/123
f 120/120/120 121/121/121 124/124/124
f 120/120/120 124/124/124 122/122/122
f 121/121/121 125/125/125 124/124/124
f 122/122/122 126/126/126 123/123/123
f 122/122/122 124/124/124 126/126/126
f 123/123/123 126/126/126 127/127/127
f 126/126/126 128/128/128 127/127/127
f 124/124/124 125/125/125 129/129/129
f 124/124/124 129/129/129 126/126/126
f 126/126/126 129/129/129 128/128/128
f 125/125/125 130/130/130 129/129/129
f 129/129/129 131/131/131 128/128/128
f 129/129/129 130/130/130 131/131/131
f 130/130/130 132/132/132 131/131/131
