g VFX_Ring_Cross_Mesh_V05
v 0.51803607 -0.0023053885 0.71301544
v 1.1909931 -0.0023053885 1.6392617
v 0.62614226 -0.0023053885 1.9270674
v 0.2723477 -0.0023053885 0.8382
v 1.2226707E-07 -0.0023053885 2.0262392
v 1.5164966E-08 -0.0023053885 0.8813355
v -0.62614214 -0.0023053885 1.9270675
v -0.2723476 -0.0023053885 0.83820003
v -1.1909931 -0.0023053885 1.6392618
v -0.518036 -0.0023053885 0.71301544
v -1.6392616 -0.0023053885 1.1909934
v -0.71301544 -0.0023053885 0.5180361
v -1.9270675 -0.0023053885 0.6261424
v -0.8382 -0.0023053885 0.27234775
v -2.026239 -0.0023053885 1.4011371E-07
v -0.8813355 -0.0023053885 9.343097E-08
v -1.9270675 -0.0023053885 -0.626142
v -0.8382 -0.0023053885 -0.2723476
v -1.639262 -0.0023053885 -1.1909931
v -0.7130155 -0.0023053885 -0.51803607
v -1.1909933 -0.0023053885 -1.6392616
v -0.5180361 -0.0023053885 -0.71301556
v -0.62614226 -0.0023053885 -1.9270675
v -0.27234766 -0.0023053885 -0.83820015
v -2.064501E-09 -0.0023053885 -2.026239
v 4.077634E-08 -0.0023053885 -0.8813356
v 0.62614226 -0.0023053885 -1.9270679
v 0.2723478 -0.0023053885 -0.8382002
v 1.1909933 -0.0023053885 -1.639262
v 0.5180363 -0.0023053885 -0.7130156
v 1.639262 -0.0023053885 -1.1909933
v 0.7130158 -0.0023053885 -0.5180362
v 1.9270684 -0.0023053885 -0.6261414
v 0.8382004 -0.0023053885 -0.27234772
v 2.0262387 -0.0023053885 9.3685384E-07
v 0.8813354 -0.0023053885 9.343097E-08
v 1.9270673 -0.0023053885 0.62614226
v 0.83819985 -0.0023053885 0.27234772
v 1.6392615 -0.0023053885 1.1909932
v 0.7130154 -0.0023053885 0.5180361
v 1.1909931 -0.0023053885 1.6392617
v 0.51803607 -0.0023053885 0.71301544
v 1.39664 -0.6253547 -0.45526716
v 1.39664 0.6253547 -0.45526716
v 1.1873765 0.6253547 -0.86596966
v 1.1873765 -0.6253547 -0.86596966
v 0.8614411 0.6253547 -1.191905
v 0.8614411 -0.6253547 -1.191905
v 0.45073852 0.6253547 -1.4011683
v 0.45073852 -0.6253547 -1.4011683
v -0.004528715 0.6253547 -1.4732755
v -0.004528715 -0.6253547 -1.4732755
v -0.45979592 0.6253547 -1.4011682
v -0.45979592 -0.6253547 -1.4011682
v -0.8704983 0.6253547 -1.1919048
v -0.8704983 -0.6253547 -1.1919048
v -1.1964335 0.6253547 -0.8659694
v -1.1964335 -0.6253547 -0.8659694
v -1.4056969 0.6253547 -0.45526698
v -1.4056969 -0.6253547 -0.45526698
v -1.4778041 0.6253547 1.2832815E-07
v -1.4778041 -0.6253547 1.2832815E-07
v -1.4056969 0.6253547 0.45526722
v -1.4056969 -0.6253547 0.45526722
v -1.1964335 0.6253547 0.8659696
v -1.1964335 -0.6253547 0.8659696
v -0.8704982 0.6253547 1.1919048
v -0.8704982 -0.6253547 1.1919048
v -0.4597958 0.6253547 1.4011681
v -0.4597958 -0.6253547 1.4011681
v -0.004528759 0.6253547 1.4732752
v -0.004528759 -0.6253547 1.4732752
v 0.45073825 0.6253547 1.401168
v 0.45073825 -0.6253547 1.401168
v 0.8614406 0.6253547 1.1919047
v 0.8614406 -0.6253547 1.1919047
v 1.1873757 0.6253547 0.8659695
v 1.1873757 -0.6253547 0.8659695
v 1.396639 0.6253547 0.45526713
v 1.396639 -0.6253547 0.45526713
v 1.4687462 0.6253547 1.2832815E-07
v 1.4687462 -0.6253547 1.2832815E-07
v 1.39664 0.6253547 -0.45526716
v 1.39664 -0.6253547 -0.45526716
vt 0 5.551115E-17
vt 0 1
vt 0.05000019 1
vt 0.05000019 5.551115E-17
vt 0.10000038 1
vt 0.10000038 5.551115E-17
vt 0.14999962 1
vt 0.14999962 5.551115E-17
vt 0.19999981 1
vt 0.19999981 5.551115E-17
vt 0.25 1
vt 0.25 5.551115E-17
vt 0.3000002 1
vt 0.3000002 5.551115E-17
vt 0.35000038 1
vt 0.35000038 5.551115E-17
vt 0.39999962 1
vt 0.39999962 5.551115E-17
vt 0.4499998 1
vt 0.4499998 5.551115E-17
vt 0.5 1
vt 0.5 5.551115E-17
vt 0.5500002 1
vt 0.5500002 5.551115E-17
vt 0.5999999 1
vt 0.5999999 5.551115E-17
vt 0.6500001 1
vt 0.6500001 5.551115E-17
vt 0.70000005 1
vt 0.70000005 5.551115E-17
vt 0.75 1
vt 0.75 5.551115E-17
vt 0.8 1
vt 0.8 5.551115E-17
vt 0.85 1
vt 0.85 5.551115E-17
vt 0.9 1
vt 0.9 5.551115E-17
vt 0.95000005 1
vt 0.95000005 5.551115E-17
vt 1 1
vt 1 5.551115E-17
vt 0 0
vt 0 1
vt 0.05 1
vt 0.05 0
vt 0.1 1
vt 0.1 0
vt 0.15 1
vt 0.15 0
vt 0.2 1
vt 0.2 0
vt 0.25 1
vt 0.25 0
vt 0.3 1
vt 0.3 0
vt 0.35 1
vt 0.35 0
vt 0.4 1
vt 0.4 0
vt 0.45 1
vt 0.45 0
vt 0.5 1
vt 0.5 0
vt 0.55 1
vt 0.55 0
vt 0.6 1
vt 0.6 0
vt 0.65 1
vt 0.65 0
vt 0.7 1
vt 0.7 0
vt 0.75 1
vt 0.75 0
vt 0.8 1
vt 0.8 0
vt 0.85 1
vt 0.85 0
vt 0.9 1
vt 0.9 0
vt 0.95 1
vt 0.95 0
vt 1 1
vt 1 0
vn -0 1 0
vn -0 1 0
vn -0 1 0
vn -0 1 0
vn -0 1 0
vn -0 1 0
vn -0 1 0
vn -0 1 0
vn -0 1 0
vn -0 1 0
vn -0 1 0
vn -0 1 0
vn -0 1 0
vn -0 1 0
vn -0 1 0
vn -0 1 0
vn -0 1 0
vn -0 1 0
vn -0 1 0
vn -0 1 0
vn -0 1 0
vn -0 1 0
vn -0 1 0
vn -0 1 0
vn -0 1 0
vn -0 1 0
vn -0 1 0
vn -0 1 0
vn -0 1 0
vn -0 1 0
vn -0 1 0
vn -0 1 0
vn -0 1 0
vn -0 1 0
vn -0 1 0
vn -0 1 0
vn -0 1 0
vn -0 1 0
vn -0 1 0
vn -0 1 0
vn -0 1 0
vn -0 1 0
vn 0.9510568 0 -0.30901605
vn 0.9510568 0 -0.30901605
vn 0.8090169 0 -0.5877854
vn 0.8090169 0 -0.5877854
vn 0.5877852 0 -0.80901706
vn 0.5877852 0 -0.80901706
vn 0.30901685 0 -0.95105654
vn 0.30901685 0 -0.95105654
vn -0 0 -1
vn -0 0 -1
vn -0.30901712 0 -0.9510565
vn -0.30901712 0 -0.9510565
vn -0.5877854 0 -0.8090168
vn -0.5877854 0 -0.8090168
vn -0.80901706 0 -0.5877852
vn -0.80901706 0 -0.5877852
vn -0.95105654 0 -0.3090169
vn -0.95105654 0 -0.3090169
vn -1 0 0
vn -1 0 0
vn -0.95105654 0 0.3090169
vn -0.95105654 0 0.3090169
vn -0.8090169 0 0.5877853
vn -0.8090169 0 0.5877853
vn -0.5877852 0 0.80901706
vn -0.5877852 0 0.80901706
vn -0.30901688 0 0.95105654
vn -0.30901688 0 0.95105654
vn -0 0 1
vn -0 0 1
vn 0.309017 0 0.95105654
vn 0.309017 0 0.95105654
vn 0.58778536 0 0.809017
vn 0.58778536 0 0.809017
vn 0.809017 0 0.58778524
vn 0.809017 0 0.58778524
vn 0.95105654 0 0.309017
vn 0.95105654 0 0.309017
vn 1 0 0
vn 1 0 0
vn 0.9510568 0 -0.30901605
vn 0.9510568 0 -0.30901605
g VFX_Ring_Cross_Mesh_V05_0
f 3/3/3 2/2/2 1/1/1
f 4/4/4 3/3/3 1/1/1
f 5/5/5 3/3/3 4/4/4
f 6/6/6 5/5/5 4/4/4
f 7/7/7 5/5/5 6/6/6
f 8/8/8 7/7/7 6/6/6
f 9/9/9 7/7/7 8/8/8
f 10/10/10 9/9/9 8/8/8
f 11/11/11 9/9/9 10/10/10
f 12/12/12 11/11/11 10/10/10
f 13/13/13 11/11/11 12/12/12
f 14/14/14 13/13/13 12/12/12
f 15/15/15 13/13/13 14/14/14
f 16/16/16 15/15/15 14/14/14
f 17/17/17 15/15/15 16/16/16
f 18/18/18 17/17/17 16/16/16
f 19/19/19 17/17/17 18/18/18
f 20/20/20 19/19/19 18/18/18
f 21/21/21 19/19/19 20/20/20
f 22/22/22 21/21/21 20/20/20
f 23/23/23 21/21/21 22/22/22
f 24/24/24 23/23/23 22/22/22
f 25/25/25 23/23/23 24/24/24
f 26/26/26 25/25/25 24/24/24
f 27/27/27 25/25/25 26/26/26
f 28/28/28 27/27/27 26/26/26
f 29/29/29 27/27/27 28/28/28
f 30/30/30 29/29/29 28/28/28
f 31/31/31 29/29/29 30/30/30
f 32/32/32 31/31/31 30/30/30
f 33/33/33 31/31/31 32/32/32
f 34/34/34 33/33/33 32/32/32
f 35/35/35 33/33/33 34/34/34
f 36/36/36 35/35/35 34/34/34
f 37/37/37 35/35/35 36/36/36
f 38/38/38 37/37/37 36/36/36
f 39/39/39 37/37/37 38/38/38
f 40/40/40 39/39/39 38/38/38
f 41/41/41 39/39/39 40/40/40
f 42/42/42 41/41/41 40/40/40
f 45/45/45 44/44/44 43/43/43
f 46/46/46 45/45/45 43/43/43
f 47/47/47 45/45/45 46/46/46
f 48/48/48 47/47/47 46/46/46
f 49/49/49 47/47/47 48/48/48
f 50/50/50 49/49/49 48/48/48
f 51/51/51 49/49/49 50/50/50
f 52/52/52 51/51/51 50/50/50
f 53/53/53 51/51/51 52/52/52
f 54/54/54 53/53/53 52/52/52
f 55/55/55 53/53/53 54/54/54
f 56/56/56 55/55/55 54/54/54
f 57/57/57 55/55/55 56/56/56
f 58/58/58 57/57/57 56/56/56
f 59/59/59 57/57/57 58/58/58
f 60/60/60 59/59/59 58/58/58
f 61/61/61 59/59/59 60/60/60
f 62/62/62 61/61/61 60/60/60
f 63/63/63 61/61/61 62/62/62
f 64/64/64 63/63/63 62/62/62
f 65/65/65 63/63/63 64/64/64
f 66/66/66 65/65/65 64/64/64
f 67/67/67 65/65/65 66/66/66
f 68/68/68 67/67/67 66/66/66
f 69/69/69 67/67/67 68/68/68
f 70/70/70 69/69/69 68/68/68
f 71/71/71 69/69/69 70/70/70
f 72/72/72 71/71/71 70/70/70
f 73/73/73 71/71/71 72/72/72
f 74/74/74 73/73/73 72/72/72
f 75/75/75 73/73/73 74/74/74
f 76/76/76 75/75/75 74/74/74
f 77/77/77 75/75/75 76/76/76
f 78/78/78 77/77/77 76/76/76
f 79/79/79 77/77/77 78/78/78
f 80/80/80 79/79/79 78/78/78
f 81/81/81 79/79/79 80/80/80
f 82/82/82 81/81/81 80/80/80
f 83/83/83 81/81/81 82/82/82
f 84/84/84 83/83/83 82/82/82
