g VFX_Cylinder_Rays_V01
v 0.95105714 -2.0000002 -0.30901718
v 0.032457173 -2.3841858E-07 -0.010546118
v 0.80901754 -2.0000002 -0.5877856
v 0.027609706 -2.3841858E-07 -0.020059884
v 0.5877856 -2.0000002 -0.8090175
v 0.020059586 -2.3841858E-07 -0.027610004
v 0.30901715 -2.0000002 -0.951057
v 0.010545909 -2.3841858E-07 -0.03245747
v -0 -2.0000002 -1.0000005
v -1.1514097E-07 -2.3841858E-07 -0.034127712
v -0.30901715 -2.0000002 -0.95105696
v -0.010546058 -2.3841858E-07 -0.03245747
v -0.5877855 -2.0000002 -0.8090173
v -0.020059824 -2.3841858E-07 -0.027610004
v -0.80901724 -2.0000002 -0.5877854
v -0.027609944 -2.3841858E-07 -0.020059884
v -0.9510568 -2.0000002 -0.30901706
v -0.03245741 -2.3841858E-07 -0.010546118
v -1.0000002 -2.0000002 0
v -0.034127653 -2.3841858E-07 -1.7271145E-07
v -0.9510568 -2.0000002 0.30901706
v -0.03245741 -2.3841858E-07 0.01054582
v -0.8090172 -2.0000002 0.58778536
v -0.027609944 -2.3841858E-07 0.020059526
v -0.58778536 -2.0000002 0.8090171
v -0.020059824 -2.3841858E-07 0.027609646
v -0.30901706 -2.0000002 0.95105666
v -0.010546058 -2.3841858E-07 0.032457113
v -2.9802322E-08 -2.0000002 1.0000001
v -1.1615805E-07 -2.3841858E-07 0.034127355
v 0.30901697 -2.0000002 0.9510566
v 0.01054585 -2.3841858E-07 0.032457113
v 0.58778524 -2.0000002 0.80901706
v 0.020059586 -2.3841858E-07 0.027609646
v 0.809017 -2.0000002 0.5877853
v 0.027609706 -2.3841858E-07 0.020059526
v 0.95105654 -2.0000002 0.309017
v 0.032457173 -2.3841858E-07 0.01054579
v 1 -2.0000002 0
v 0.034127414 -2.3841858E-07 -1.7271145E-07
v 0.95105714 -2.0000002 -0.30901718
v 0.032457173 -2.3841858E-07 -0.010546118
vt 2.9802322E-08 1
vt 1 1
vt 2.9802322E-08 0.95000005
vt 1 0.9499999
vt 2.9802322E-08 0.90000004
vt 1 0.9
vt 2.9802322E-08 0.85
vt 1 0.84999996
vt 0 0.8000001
vt 1 0.79999995
vt 0 0.75
vt 1 0.75
vt 0 0.7
vt 1 0.7
vt 0 0.65000004
vt 1 0.65
vt 0 0.6
vt 1 0.59999996
vt 0 0.55
vt 1 0.55
vt 0 0.5
vt 1 0.49999997
vt 0 0.45000002
vt 1 0.44999996
vt 0 0.4
vt 1 0.39999995
vt 0 0.35000002
vt 1 0.35000002
vt 0 0.3
vt 1 0.3
vt 0 0.25
vt 1 0.24999997
vt 0 0.20000002
vt 1 0.19999996
vt 0 0.15
vt 1 0.14999998
vt 0 0.10000005
vt 1 0.100000024
vt 0 0.05000004
vt 1 0.049999952
vt 0 2.9802322E-08
vt 1 0
vn 0.8564161 0.43487903 -0.27826548
vn 0.8564162 0.43487906 -0.27826527
vn 0.72851086 0.434879 -0.529294
vn 0.7285109 0.43487906 -0.529294
vn 0.529294 0.43487898 -0.7285109
vn 0.529294 0.434879 -0.72851086
vn 0.27826613 0.43487886 -0.8564159
vn 0.27826598 0.43487886 -0.85641605
vn -0 0.4348789 -0.90048903
vn -0 0.43487892 -0.90048903
vn -0.2782664 0.43487883 -0.85641587
vn -0.2782662 0.43487886 -0.8564159
vn -0.5292943 0.4348789 -0.7285108
vn -0.52929425 0.43487883 -0.7285108
vn -0.72851104 0.4348788 -0.52929384
vn -0.72851104 0.43487883 -0.52929384
vn -0.85641605 0.43487877 -0.27826613
vn -0.85641605 0.43487883 -0.27826598
vn -0.90048903 0.43487877 0
vn -0.90048903 0.4348788 0
vn -0.8564159 0.4348788 0.2782663
vn -0.8564159 0.4348788 0.27826613
vn -0.72851086 0.43487883 0.5292942
vn -0.7285109 0.43487886 0.5292942
vn -0.529294 0.4348789 0.7285109
vn -0.5292941 0.43487883 0.7285109
vn -0.27826622 0.43487892 0.8564159
vn -0.27826607 0.43487892 0.8564159
vn -0 0.4348789 0.90048903
vn -0 0.4348789 0.9004889
vn 0.27826637 0.43487886 0.8564159
vn 0.2782662 0.4348788 0.8564159
vn 0.52929413 0.43487886 0.7285109
vn 0.52929413 0.4348789 0.7285109
vn 0.728511 0.43487886 0.529294
vn 0.728511 0.4348788 0.5292941
vn 0.8564159 0.43487877 0.27826616
vn 0.85641605 0.43487883 0.278266
vn 0.90048903 0.43487883 0
vn 0.90048903 0.43487883 0
vn 0.8564161 0.43487903 -0.27826548
vn 0.8564162 0.43487906 -0.27826527
g VFX_Cylinder_Rays_V01_0
f 3/3/3 2/2/2 1/1/1
f 2/2/2 3/3/3 4/4/4
f 5/5/5 4/4/4 3/3/3
f 4/4/4 5/5/5 6/6/6
f 7/7/7 6/6/6 5/5/5
f 6/6/6 7/7/7 8/8/8
f 9/9/9 8/8/8 7/7/7
f 8/8/8 9/9/9 10/10/10
f 11/11/11 10/10/10 9/9/9
f 10/10/10 11/11/11 12/12/12
f 13/13/13 12/12/12 11/11/11
f 12/12/12 13/13/13 14/14/14
f 15/15/15 14/14/14 13/13/13
f 14/14/14 15/15/15 16/16/16
f 17/17/17 16/16/16 15/15/15
f 16/16/16 17/17/17 18/18/18
f 19/19/19 18/18/18 17/17/17
f 18/18/18 19/19/19 20/20/20
f 21/21/21 20/20/20 19/19/19
f 20/20/20 21/21/21 22/22/22
f 23/23/23 22/22/22 21/21/21
f 22/22/22 23/23/23 24/24/24
f 25/25/25 24/24/24 23/23/23
f 24/24/24 25/25/25 26/26/26
f 27/27/27 26/26/26 25/25/25
f 26/26/26 27/27/27 28/28/28
f 29/29/29 28/28/28 27/27/27
f 28/28/28 29/29/29 30/30/30
f 31/31/31 30/30/30 29/29/29
f 30/30/30 31/31/31 32/32/32
f 33/33/33 32/32/32 31/31/31
f 32/32/32 33/33/33 34/34/34
f 35/35/35 34/34/34 33/33/33
f 34/34/34 35/35/35 36/36/36
f 37/37/37 36/36/36 35/35/35
f 36/36/36 37/37/37 38/38/38
f 39/39/39 38/38/38 37/37/37
f 38/38/38 39/39/39 40/40/40
f 41/41/41 40/40/40 39/39/39
f 40/40/40 41/41/41 42/42/42
