g VFX_GravityZone_V02
v -0.49652 -0.4603551 0.49652
v -0.48987335 -0.48987335 0.48987335
v -0.49652 -0.49652 0.4603551
v -0.5115 -0.4603551 0.4603551
v -0.49652 0.4603551 0.49652
v -0.5115 -0.4603551 -0.4603551
v -0.49652 -0.49652 -0.4603551
v -0.5115 0.4603551 0.4603551
v -0.49652 -0.4603551 -0.49652
v -0.48987335 -0.48987335 -0.48987335
v -0.5115 0.4603551 -0.4603551
v -0.49652 0.4603551 -0.49652
v -0.49652 0.49652 -0.4603551
v -0.48987335 0.48987335 -0.48987335
v -0.49652 0.49652 0.4603551
v -0.48987335 0.48987335 0.48987335
v -0.49652 -0.49652 0.4603551
v -0.48987335 -0.48987335 0.48987335
v -0.4603551 -0.49652 0.49652
v -0.4603551 -0.5115 0.4603551
v -0.49652 -0.49652 -0.4603551
v 0.4603551 -0.5115 0.4603551
v 0.4603551 -0.49652 0.49652
v -0.4603551 -0.5115 -0.4603551
v 0.49652 -0.49652 0.4603551
v 0.48987335 -0.48987335 0.48987335
v 0.4603551 -0.5115 -0.4603551
v 0.49652 -0.49652 -0.4603551
v 0.4603551 -0.49652 -0.49652
v 0.48987335 -0.48987335 -0.48987335
v -0.4603551 -0.49652 -0.49652
v -0.48987335 -0.48987335 -0.48987335
v -0.4603551 -0.49652 0.49652
v -0.48987335 -0.48987335 0.48987335
v -0.49652 -0.4603551 0.49652
v -0.4603551 -0.4603551 0.5115
v 0.4603551 -0.49652 0.49652
v -0.4603551 0.4603551 0.5115
v -0.49652 0.4603551 0.49652
v -0.4603551 0.49652 0.49652
v -0.48987335 0.48987335 0.48987335
v 0.4603551 0.4603551 0.5115
v 0.4603551 0.49652 0.49652
v 0.4603551 -0.4603551 0.5115
v 0.49652 0.4603551 0.49652
v 0.48987335 0.48987335 0.48987335
v 0.49652 -0.4603551 0.49652
v 0.48987335 -0.48987335 0.48987335
v 0.49652 -0.49652 0.4603551
v 0.48987335 -0.48987335 0.48987335
v 0.49652 -0.4603551 0.49652
v 0.5115 -0.4603551 0.4603551
v 0.49652 -0.49652 -0.4603551
v 0.5115 0.4603551 0.4603551
v 0.49652 0.4603551 0.49652
v 0.49652 0.49652 0.4603551
v 0.48987335 0.48987335 0.48987335
v 0.5115 0.4603551 -0.4603551
v 0.49652 0.49652 -0.4603551
v 0.5115 -0.4603551 -0.4603551
v 0.49652 0.4603551 -0.49652
v 0.48987335 0.48987335 -0.48987335
v 0.49652 -0.4603551 -0.49652
v 0.48987335 -0.48987335 -0.48987335
v -0.4603551 0.49652 0.49652
v -0.48987335 0.48987335 0.48987335
v -0.49652 0.49652 0.4603551
v -0.4603551 0.5115 0.4603551
v 0.4603551 0.49652 0.49652
v -0.4603551 0.5115 -0.4603551
v -0.49652 0.49652 -0.4603551
v -0.4603551 0.49652 -0.49652
v -0.48987335 0.48987335 -0.48987335
v 0.4603551 0.5115 -0.4603551
v 0.4603551 0.49652 -0.49652
v 0.4603551 0.5115 0.4603551
v 0.49652 0.49652 -0.4603551
v 0.48987335 0.48987335 -0.48987335
v 0.49652 0.49652 0.4603551
v 0.48987335 0.48987335 0.48987335
v -0.4603551 0.49652 -0.49652
v -0.48987335 0.48987335 -0.48987335
v -0.49652 0.4603551 -0.49652
v -0.4603551 0.4603551 -0.5115
v 0.4603551 0.49652 -0.49652
v -0.4603551 -0.4603551 -0.5115
v -0.49652 -0.4603551 -0.49652
v -0.4603551 -0.49652 -0.49652
v -0.48987335 -0.48987335 -0.48987335
v 0.4603551 -0.4603551 -0.5115
v 0.4603551 -0.49652 -0.49652
v 0.4603551 0.4603551 -0.5115
v 0.49652 -0.4603551 -0.49652
v 0.48987335 -0.48987335 -0.48987335
v 0.49652 0.4603551 -0.49652
v 0.48987335 0.48987335 -0.48987335
vt 1 0.04922876
vt 1 5.551115E-17
vt 0.96847475 5.551115E-17
vt 0.95000505 0.049995005
vt 1 0.9507712
vt 0.049995035 0.049995005
vt 0.031525165 5.551115E-17
vt 0.95000494 0.950005
vt 0 0.03152515
vt 0 5.551115E-17
vt 0.049995035 0.950005
vt 0 0.96847486
vt 0.031525165 1
vt 0 1
vt 0.96847475 1
vt 1 1
vt 0 0.96847486
vt 0 0.99999994
vt 0.031525165 0.99999994
vt 0.049994946 0.950005
vt 0 0.031525075
vt 0.95000505 0.950005
vt 0.96847486 0.99999994
vt 0.049994946 0.049994946
vt 1 0.96847486
vt 1 0.99999994
vt 0.95000505 0.049994946
vt 1 0.031525075
vt 0.9507713 0
vt 1 0
vt 0.04922864 0
vt 0 0
vt 0.031525165 5.551115E-17
vt 0 5.551115E-17
vt 0 0.04922872
vt 0.049994946 0.04999487
vt 0.96847475 5.551115E-17
vt 0.049994946 0.9500049
vt 0 0.9507711
vt 0.04922864 1
vt 0 1
vt 0.95000505 0.9500049
vt 0.9507713 1
vt 0.95000505 0.04999487
vt 1 0.9507711
vt 1 1
vt 1 0.04922872
vt 1 5.551115E-17
vt 0.031525135 0
vt 0 0
vt 0 0.04922875
vt 0.049994946 0.04999496
vt 0.96847475 0
vt 0.049994946 0.950005
vt 0 0.95077133
vt 0.031525135 0.99999994
vt 0 0.99999994
vt 0.95000505 0.950005
vt 0.96847475 0.99999994
vt 0.95000505 0.04999496
vt 1 0.96847486
vt 1 0.99999994
vt 1 0.03152508
vt 1 0
vt 0.04922864 0
vt 0 0
vt 0 0.031525075
vt 0.049994946 0.049994946
vt 0.9507713 0
vt 0.049994946 0.95000505
vt 0 0.96847475
vt 0.04922864 1
vt 0 1
vt 0.95000505 0.95000505
vt 0.9507713 1
vt 0.95000505 0.049994946
vt 1 0.96847475
vt 1 1
vt 1 0.031525075
vt 1 0
vt 0.95077133 1
vt 1 1
vt 1 0.96847486
vt 0.95000505 0.95000505
vt 0.04922867 1
vt 0.95000505 0.049994946
vt 1 0.031525135
vt 0.9507714 0
vt 1 0
vt 0.049994946 0.049995124
vt 0.049228787 -5.9604645E-08
vt 0.049994946 0.95000505
vt 0 0.031525135
vt 0 -5.9604645E-08
vt -5.9604645E-08 0.9684748
vt -5.9604645E-08 1
vn -0.70706713 -0.010570646 0.7070673
vn -0.5773502 -0.57735026 0.57735026
vn -0.7070673 -0.70706713 0.010570646
vn -0.99976116 -0.015452645 0.015452626
vn -0.70706713 0.010570644 0.7070673
vn -0.99976116 -0.015452645 -0.015452626
vn -0.7070673 -0.70706713 -0.010570644
vn -0.99976116 0.015452645 0.015452626
vn -0.70706713 -0.010570644 -0.7070673
vn -0.57735026 -0.57735026 -0.57735026
vn -0.99976116 0.015452645 -0.015452626
vn -0.70706713 0.010570646 -0.7070673
vn -0.7070673 0.70706713 -0.010570646
vn -0.57735026 0.57735026 -0.5773503
vn -0.7070673 0.70706713 0.010570644
vn -0.57735026 0.57735026 0.57735026
vn -0.7070673 -0.70706713 0.010570646
vn -0.5773502 -0.57735026 0.57735026
vn -0.010570646 -0.7070673 0.70706713
vn -0.015452626 -0.99976116 0.015452645
vn -0.7070673 -0.70706713 -0.010570644
vn 0.015452626 -0.99976116 0.015452645
vn 0.010570644 -0.7070673 0.70706713
vn -0.015452626 -0.99976116 -0.015452645
vn 0.7070673 -0.70706713 0.010570644
vn 0.57735026 -0.57735026 0.57735026
vn 0.015452626 -0.99976116 -0.015452645
vn 0.7070673 -0.70706713 -0.010570646
vn 0.010570646 -0.7070673 -0.70706713
vn 0.5773502 -0.57735026 -0.57735026
vn -0.010570644 -0.7070673 -0.70706713
vn -0.57735026 -0.57735026 -0.57735026
vn -0.010570646 -0.7070673 0.70706713
vn -0.5773502 -0.57735026 0.57735026
vn -0.70706713 -0.010570646 0.7070673
vn -0.015452645 -0.015452626 0.99976116
vn 0.010570644 -0.7070673 0.70706713
vn -0.015452645 0.015452626 0.99976116
vn -0.70706713 0.010570644 0.7070673
vn -0.010570644 0.7070673 0.70706713
vn -0.57735026 0.57735026 0.57735026
vn 0.015452645 0.015452626 0.99976116
vn 0.010570646 0.7070673 0.70706713
vn 0.015452645 -0.015452626 0.99976116
vn 0.70706713 0.010570646 0.7070673
vn 0.5773502 0.57735026 0.57735026
vn 0.70706713 -0.010570644 0.7070673
vn 0.57735026 -0.57735026 0.57735026
vn 0.7070673 -0.70706713 0.010570644
vn 0.57735026 -0.57735026 0.57735026
vn 0.70706713 -0.010570644 0.7070673
vn 0.99976116 -0.015452645 0.015452626
vn 0.7070673 -0.70706713 -0.010570646
vn 0.99976116 0.015452645 0.015452626
vn 0.70706713 0.010570646 0.7070673
vn 0.7070673 0.70706713 0.010570646
vn 0.5773502 0.57735026 0.57735026
vn 0.99976116 0.015452645 -0.015452626
vn 0.7070673 0.70706713 -0.010570644
vn 0.99976116 -0.015452645 -0.015452626
vn 0.70706713 0.010570644 -0.7070673
vn 0.57735026 0.57735026 -0.57735026
vn 0.70706713 -0.010570646 -0.7070673
vn 0.5773502 -0.57735026 -0.57735026
vn -0.010570644 0.7070673 0.70706713
vn -0.57735026 0.57735026 0.57735026
vn -0.7070673 0.70706713 0.010570644
vn -0.015452626 0.99976116 0.015452645
vn 0.010570646 0.7070673 0.70706713
vn -0.015452626 0.99976116 -0.015452645
vn -0.7070673 0.70706713 -0.010570646
vn -0.010570646 0.7070673 -0.70706713
vn -0.57735026 0.57735026 -0.5773503
vn 0.015452626 0.99976116 -0.015452645
vn 0.010570644 0.7070673 -0.70706713
vn 0.015452626 0.99976116 0.015452645
vn 0.7070673 0.70706713 -0.010570644
vn 0.57735026 0.57735026 -0.57735026
vn 0.7070673 0.70706713 0.010570646
vn 0.5773502 0.57735026 0.57735026
vn -0.010570646 0.7070673 -0.70706713
vn -0.57735026 0.57735026 -0.5773503
vn -0.70706713 0.010570646 -0.7070673
vn -0.015452645 0.015452626 -0.99976116
vn 0.010570644 0.7070673 -0.70706713
vn -0.015452645 -0.015452626 -0.99976116
vn -0.70706713 -0.010570644 -0.7070673
vn -0.010570644 -0.7070673 -0.70706713
vn -0.57735026 -0.57735026 -0.57735026
vn 0.015452645 -0.015452626 -0.99976116
vn 0.010570646 -0.7070673 -0.70706713
vn 0.015452645 0.015452626 -0.99976116
vn 0.70706713 -0.010570646 -0.7070673
vn 0.5773502 -0.57735026 -0.57735026
vn 0.70706713 0.010570644 -0.7070673
vn 0.57735026 0.57735026 -0.57735026
g VFX_GravityZone_V02_0
f 3/3/3 2/2/2 1/1/1
f 4/4/4 3/3/3 1/1/1
f 1/1/1 5/5/5 4/4/4
f 4/4/4 6/6/6 3/3/3
f 6/6/6 7/7/7 3/3/3
f 5/5/5 8/8/8 4/4/4
f 4/4/4 8/8/8 6/6/6
f 6/6/6 9/9/9 7/7/7
f 9/9/9 10/10/10 7/7/7
f 9/9/9 6/6/6 11/11/11
f 8/8/8 11/11/11 6/6/6
f 12/12/12 9/9/9 11/11/11
f 11/11/11 13/13/13 12/12/12
f 13/13/13 11/11/11 8/8/8
f 13/13/13 14/14/14 12/12/12
f 15/15/15 13/13/13 8/8/8
f 8/8/8 5/5/5 15/15/15
f 5/5/5 16/16/16 15/15/15
f 19/19/19 18/18/18 17/17/17
f 20/20/20 19/19/19 17/17/17
f 17/17/17 21/21/21 20/20/20
f 20/20/20 22/22/22 19/19/19
f 22/22/22 23/23/23 19/19/19
f 21/21/21 24/24/24 20/20/20
f 22/22/22 20/20/20 24/24/24
f 22/22/22 25/25/25 23/23/23
f 25/25/25 26/26/26 23/23/23
f 22/22/22 27/27/27 25/25/25
f 27/27/27 22/22/22 24/24/24
f 27/27/27 28/28/28 25/25/25
f 27/27/27 29/29/29 28/28/28
f 29/29/29 27/27/27 24/24/24
f 29/29/29 30/30/30 28/28/28
f 31/31/31 29/29/29 24/24/24
f 24/24/24 21/21/21 31/31/31
f 21/21/21 32/32/32 31/31/31
f 35/35/35 34/34/34 33/33/33
f 36/36/36 35/35/35 33/33/33
f 33/33/33 37/37/37 36/36/36
f 36/36/36 38/38/38 35/35/35
f 38/38/38 39/39/39 35/35/35
f 38/38/38 40/40/40 39/39/39
f 40/40/40 41/41/41 39/39/39
f 38/38/38 42/42/42 40/40/40
f 42/42/42 38/38/38 36/36/36
f 42/42/42 43/43/43 40/40/40
f 37/37/37 44/44/44 36/36/36
f 44/44/44 42/42/42 36/36/36
f 42/42/42 45/45/45 43/43/43
f 45/45/45 42/42/42 44/44/44
f 45/45/45 46/46/46 43/43/43
f 47/47/47 45/45/45 44/44/44
f 44/44/44 37/37/37 47/47/47
f 37/37/37 48/48/48 47/47/47
f 51/51/51 50/50/50 49/49/49
f 52/52/52 51/51/51 49/49/49
f 49/49/49 53/53/53 52/52/52
f 52/52/52 54/54/54 51/51/51
f 54/54/54 55/55/55 51/51/51
f 54/54/54 56/56/56 55/55/55
f 56/56/56 57/57/57 55/55/55
f 54/54/54 58/58/58 56/56/56
f 58/58/58 54/54/54 52/52/52
f 58/58/58 59/59/59 56/56/56
f 53/53/53 60/60/60 52/52/52
f 60/60/60 58/58/58 52/52/52
f 58/58/58 61/61/61 59/59/59
f 58/58/58 60/60/60 61/61/61
f 61/61/61 62/62/62 59/59/59
f 60/60/60 63/63/63 61/61/61
f 60/60/60 53/53/53 63/63/63
f 53/53/53 64/64/64 63/63/63
f 67/67/67 66/66/66 65/65/65
f 68/68/68 67/67/67 65/65/65
f 65/65/65 69/69/69 68/68/68
f 68/68/68 70/70/70 67/67/67
f 70/70/70 71/71/71 67/67/67
f 70/70/70 72/72/72 71/71/71
f 72/72/72 73/73/73 71/71/71
f 70/70/70 74/74/74 72/72/72
f 74/74/74 70/70/70 68/68/68
f 74/74/74 75/75/75 72/72/72
f 69/69/69 76/76/76 68/68/68
f 76/76/76 74/74/74 68/68/68
f 74/74/74 77/77/77 75/75/75
f 77/77/77 74/74/74 76/76/76
f 77/77/77 78/78/78 75/75/75
f 79/79/79 77/77/77 76/76/76
f 76/76/76 69/69/69 79/79/79
f 69/69/69 80/80/80 79/79/79
f 83/83/83 82/82/82 81/81/81
f 84/84/84 83/83/83 81/81/81
f 81/81/81 85/85/85 84/84/84
f 84/84/84 86/86/86 83/83/83
f 86/86/86 87/87/87 83/83/83
f 86/86/86 88/88/88 87/87/87
f 88/88/88 89/89/89 87/87/87
f 86/86/86 90/90/90 88/88/88
f 90/90/90 86/86/86 84/84/84
f 90/90/90 91/91/91 88/88/88
f 85/85/85 92/92/92 84/84/84
f 92/92/92 90/90/90 84/84/84
f 90/90/90 93/93/93 91/91/91
f 93/93/93 90/90/90 92/92/92
f 93/93/93 94/94/94 91/91/91
f 95/95/95 93/93/93 92/92/92
f 92/92/92 85/85/85 95/95/95
f 85/85/85 96/96/96 95/95/95
