g VFX_DoubleRing
v 0.012625785 -0.080766335 0.13700801
v 0.012625768 0.06403334 0.137008
v 0.033900507 -0.08076632 0.13333587
v 0.03390049 0.06403335 0.13333586
v 0.054345626 -0.08076632 0.12640078
v 0.054345608 0.06403335 0.12640077
v 0.07344434 0.06403335 0.11633411
v 0.07344435 -0.08076632 0.11633413
v 0.09074576 -0.08076632 0.10342056
v 0.09074574 0.06403335 0.10342054
v 0.10579893 0.06403335 0.08794475
v 0.105798945 -0.08076632 0.087944776
v 0.11826303 -0.08076632 0.070316814
v 0.11826302 0.06403335 0.07031679
v 0.12779716 0.064033344 0.050946757
v 0.12779719 -0.08076632 0.050946783
v 0.13420391 -0.080766335 0.030329986
v 0.1342039 0.06403334 0.030329963
v 0.13728574 0.06403334 0.0089617465
v 0.13728577 -0.08076634 0.008961768
v 0.13700798 -0.08076634 -0.012625756
v 0.13700798 0.06403333 -0.012625775
v 0.13333583 0.06403332 -0.0339005
v 0.13333584 -0.08076634 -0.03390048
v 0.12640075 -0.080766365 -0.054345597
v 0.12640074 0.064033315 -0.054345615
v 0.11633407 0.06403331 -0.07344433
v 0.116334096 -0.080766365 -0.07344431
v 0.10342053 -0.08076638 -0.0907457
v 0.103420526 0.0640333 -0.090745725
v 0.08794473 0.06403329 -0.10579891
v 0.08794475 -0.08076638 -0.10579889
v 0.0703168 -0.08076639 -0.118262984
v 0.070316784 0.064033285 -0.118263006
v 0.05094675 0.06403328 -0.12779716
v 0.05094677 -0.08076639 -0.12779713
v 0.030329978 -0.0807664 -0.13420387
v 0.030329961 0.06403327 -0.1342039
v 0.008961749 0.06403327 -0.13728574
v 0.008961766 -0.08076641 -0.13728571
v -0.012625759 -0.08076641 -0.13700794
v -0.012625775 0.06403326 -0.13700795
v -0.033900496 0.064033255 -0.13333583
v -0.033900477 -0.08076642 -0.13333581
v -0.05434558 -0.08076642 -0.12640071
v -0.054345597 0.064033255 -0.12640074
v -0.07344431 0.06403325 -0.11633407
v -0.07344429 -0.08076642 -0.11633405
v -0.09074567 -0.08076642 -0.103420496
v -0.090745695 0.06403325 -0.10342051
v -0.10579889 0.064033255 -0.087944746
v -0.10579887 -0.08076642 -0.08794472
v -0.11826298 -0.08076642 -0.070316784
v -0.118262984 0.064033255 -0.0703168
v -0.12779714 0.06403326 -0.05094677
v -0.12779713 -0.08076642 -0.050946746
v -0.13420387 -0.08076641 -0.030329956
v -0.13420388 0.06403326 -0.030329978
v -0.13728571 0.06403327 -0.008961773
v -0.13728571 -0.0807664 -0.008961751
v -0.13700792 -0.0807664 0.012625768
v -0.13700794 0.06403327 0.012625749
v -0.13333581 0.064033285 0.033900466
v -0.13333578 -0.0807664 0.033900484
v -0.1264007 -0.08076638 0.05434559
v -0.12640071 0.064033285 0.054345567
v -0.116334066 0.0640333 0.073444284
v -0.11633404 -0.08076638 0.0734443
v -0.10342048 -0.080766365 0.0907457
v -0.1034205 0.0640333 0.09074569
v -0.08794473 0.064033315 0.10579886
v -0.087944716 -0.080766365 0.10579888
v -0.07031677 -0.08076635 0.11826298
v -0.070316784 0.06403332 0.118262954
v -0.05094675 0.06403332 0.1277971
v -0.050946735 -0.08076635 0.12779711
v -0.030329952 -0.08076634 0.13420388
v -0.030329969 0.06403333 0.13420387
v -0.00896176 0.06403334 0.13728574
v -0.008961744 -0.080766335 0.13728575
v 0.012625785 -0.080766335 0.13700801
v 0.012625768 0.06403334 0.137008
v 0.011809317 -0.080766335 0.12814692
v 0.0118093025 0.06403334 0.1281469
v 0.031708274 -0.08076632 0.12471227
v 0.03170826 0.06403335 0.12471225
v 0.050831277 -0.08076632 0.118225716
v 0.05083126 0.06403335 0.11822569
v 0.06869494 0.06403335 0.10881012
v 0.06869495 -0.08076632 0.108810134
v 0.084877536 -0.08076632 0.09673176
v 0.08487752 0.06403335 0.09673174
v 0.09895727 0.06403335 0.08225686
v 0.098957285 -0.08076632 0.082256876
v 0.11061536 -0.08076632 0.065769024
v 0.11061536 0.06403335 0.065769
v 0.11953296 0.064033344 0.047651738
v 0.119532965 -0.08076632 0.04765176
v 0.1255254 -0.080766335 0.02836837
v 0.12552539 0.06403334 0.02836835
v 0.12840794 0.06403334 0.008382139
v 0.12840796 -0.08076634 0.008382158
v 0.12814814 -0.08076634 -0.011809176
v 0.12814814 0.06403333 -0.0118091935
v 0.12471344 0.06403332 -0.03170796
v 0.124713466 -0.08076634 -0.031707942
v 0.11822684 -0.080766365 -0.050830755
v 0.11822682 0.064033315 -0.050830774
v 0.10881114 0.06403331 -0.06869426
v 0.108811155 -0.080766365 -0.06869424
v 0.09673267 -0.08076638 -0.08487666
v 0.09673266 0.0640333 -0.08487668
v 0.08225764 0.06403329 -0.09895629
v 0.08225766 -0.08076638 -0.098956265
v 0.06576965 -0.08076639 -0.11061424
v 0.065769635 0.064033285 -0.11061426
v 0.047652196 0.06403328 -0.11953177
v 0.047652215 -0.08076639 -0.119531766
v 0.028368639 -0.0807664 -0.12552413
v 0.028368626 0.06403327 -0.12552415
v 0.008382223 0.06403327 -0.12840667
v 0.008382238 -0.08076641 -0.12840666
v -0.011809293 -0.08076641 -0.12814684
v -0.011809308 0.06403326 -0.12814686
v -0.031708263 0.064033255 -0.12471224
v -0.031708248 -0.08076642 -0.12471223
v -0.050831236 -0.08076642 -0.11822566
v -0.05083125 0.064033255 -0.11822568
v -0.06869491 0.06403325 -0.10881008
v -0.0686949 -0.08076642 -0.10881006
v -0.08487746 -0.08076642 -0.0967317
v -0.084877476 0.06403325 -0.096731715
v -0.09895723 0.064033255 -0.082256846
v -0.09895721 -0.08076642 -0.08225683
v -0.110615306 -0.08076642 -0.06576899
v -0.11061532 0.064033255 -0.06576901
v -0.119532935 0.06403326 -0.04765175
v -0.11953291 -0.08076642 -0.047651723
v -0.12552534 -0.08076641 -0.028368345
v -0.12552537 0.06403326 -0.028368363
v -0.12840791 0.06403327 -0.008382163
v -0.12840791 -0.0807664 -0.008382143
v -0.12814808 -0.0807664 0.011809187
v -0.1281481 0.06403327 0.011809168
v -0.12471343 0.064033285 0.031707928
v -0.124713406 -0.0807664 0.031707942
v -0.11822678 -0.08076638 0.050830744
v -0.118226804 0.064033285 0.05083073
v -0.108811125 0.0640333 0.06869422
v -0.10881112 -0.08076638 0.068694234
v -0.09673263 -0.080766365 0.08487666
v -0.09673265 0.0640333 0.08487664
v -0.08225764 0.064033315 0.09895624
v -0.08225763 -0.080766365 0.09895626
v -0.06576962 -0.08076635 0.11061423
v -0.065769635 0.06403332 0.11061421
v -0.047652196 0.06403332 0.11953172
v -0.04765218 -0.08076635 0.11953174
v -0.028368615 -0.08076634 0.12552415
v -0.028368631 0.06403333 0.12552413
v -0.008382234 0.06403334 0.12840667
v -0.008382218 -0.080766335 0.12840669
v 0.011809317 -0.080766335 0.12814692
v 0.0118093025 0.06403334 0.1281469
vt 0 0
vt 0 1
vt 0.025000006 0
vt 0.025000006 1
vt 0.050000012 0
vt 0.050000012 1
vt 0.075 1
vt 0.075 0
vt 0.099999994 0
vt 0.099999994 1
vt 0.125 1
vt 0.125 0
vt 0.15 0
vt 0.15 1
vt 0.17500001 1
vt 0.17500001 0
vt 0.2 0
vt 0.2 1
vt 0.225 1
vt 0.225 0
vt 0.25 0
vt 0.25 1
vt 0.275 1
vt 0.275 0
vt 0.3 0
vt 0.3 1
vt 0.325 1
vt 0.325 0
vt 0.35 0
vt 0.35 1
vt 0.375 1
vt 0.375 0
vt 0.4 0
vt 0.4 1
vt 0.425 1
vt 0.425 0
vt 0.45 0
vt 0.45 1
vt 0.475 1
vt 0.475 0
vt 0.5 0
vt 0.5 1
vt 0.525 1
vt 0.525 0
vt 0.55 0
vt 0.55 1
vt 0.57500005 1
vt 0.57500005 0
vt 0.6 0
vt 0.6 1
vt 0.625 1
vt 0.625 0
vt 0.65 0
vt 0.65 1
vt 0.67499995 1
vt 0.67499995 0
vt 0.7 0
vt 0.7 1
vt 0.725 1
vt 0.725 0
vt 0.75 0
vt 0.75 1
vt 0.775 1
vt 0.775 0
vt 0.8 0
vt 0.8 1
vt 0.82500005 1
vt 0.82500005 0
vt 0.85 0
vt 0.85 1
vt 0.875 1
vt 0.875 0
vt 0.9 0
vt 0.9 1
vt 0.92499995 1
vt 0.92499995 0
vt 0.95 0
vt 0.95 1
vt 0.975 1
vt 0.975 0
vt 1 0
vt 1 1
vt 0 0
vt 0 1
vt 0.025000006 0
vt 0.025000006 1
vt 0.050000012 0
vt 0.050000012 1
vt 0.075 1
vt 0.075 0
vt 0.099999994 0
vt 0.099999994 1
vt 0.125 1
vt 0.125 0
vt 0.15 0
vt 0.15 1
vt 0.17500001 1
vt 0.17500001 0
vt 0.2 0
vt 0.2 1
vt 0.225 1
vt 0.225 0
vt 0.25 0
vt 0.25 1
vt 0.275 1
vt 0.275 0
vt 0.3 0
vt 0.3 1
vt 0.325 1
vt 0.325 0
vt 0.35 0
vt 0.35 1
vt 0.375 1
vt 0.375 0
vt 0.4 0
vt 0.4 1
vt 0.425 1
vt 0.425 0
vt 0.45 0
vt 0.45 1
vt 0.475 1
vt 0.475 0
vt 0.5 0
vt 0.5 1
vt 0.525 1
vt 0.525 0
vt 0.55 0
vt 0.55 1
vt 0.57500005 1
vt 0.57500005 0
vt 0.6 0
vt 0.6 1
vt 0.625 1
vt 0.625 0
vt 0.65 0
vt 0.65 1
vt 0.67499995 1
vt 0.67499995 0
vt 0.7 0
vt 0.7 1
vt 0.725 1
vt 0.725 0
vt 0.75 0
vt 0.75 1
vt 0.775 1
vt 0.775 0
vt 0.8 0
vt 0.8 1
vt 0.82500005 1
vt 0.82500005 0
vt 0.85 0
vt 0.85 1
vt 0.875 1
vt 0.875 0
vt 0.9 0
vt 0.9 1
vt 0.92499995 1
vt 0.92499995 0
vt 0.95 0
vt 0.95 1
vt 0.975 1
vt 0.975 0
vt 1 0
vt 1 1
vn 0.09176369 1.4139955E-07 0.9957808
vn 0.09176417 1.4049495E-07 0.9957808
vn 0.24640976 1.5864279E-07 0.9691657
vn 0.24640942 1.6104649E-07 0.9691658
vn 0.39498666 1.485869E-07 0.91868687
vn 0.39498553 1.7960748E-07 0.9186873
vn 0.53383774 1.5713265E-07 0.84558696
vn 0.53383803 1.5299865E-07 0.8455868
vn 0.6595447 2.3082943E-07 0.7516653
vn 0.6595449 0 0.7516652
vn 0.7690111 0 0.6392355
vn 0.7690111 2.141983E-07 0.6392355
vn 0.85954183 1.7684397E-07 0.5110655
vn 0.8595417 1.11777474E-07 0.5110656
vn 0.9289075 0 0.37031195
vn 0.9289074 3.0599745E-07 0.37031198
vn 0.97540057 1.7841042E-07 0.22043982
vn 0.97540057 1.2840275E-07 0.22043985
vn 0.99787617 1.5547987E-07 0.06513965
vn 0.99787617 0 0.06513946
vn 0.9957807 1.0914899E-07 -0.09176494
vn 0.9957807 0 -0.09176493
vn 0.9691658 0 -0.24640967
vn 0.9691658 0 -0.24640961
vn 0.9186868 0 -0.3949868
vn 0.91868687 1.0037947E-07 -0.39498666
vn 0.84558696 0 -0.5338378
vn 0.8455866 0 -0.5338384
vn 0.7516655 0 -0.6595446
vn 0.75166565 0 -0.65954447
vn 0.6392355 0 -0.7690111
vn 0.6392358 0 -0.76901084
vn 0.5110659 0 -0.85954154
vn 0.5110659 0 -0.85954154
vn 0.3703116 0 -0.92890763
vn 0.37031242 0 -0.92890733
vn 0.22043991 -1.0135939E-07 -0.97540057
vn 0.22043903 -1.0126256E-07 -0.9754007
vn 0.06513888 -1.2400379E-07 -0.99787617
vn 0.06513936 -1.2226455E-07 -0.99787617
vn -0.09176504 -1.3984878E-07 -0.9957807
vn -0.09176422 -1.4332058E-07 -0.9957807
vn -0.24640904 -1.566608E-07 -0.9691659
vn -0.24640982 -1.568238E-07 -0.9691657
vn -0.39498702 -1.7270128E-07 -0.9186868
vn -0.39498708 -1.4135475E-07 -0.9186867
vn -0.5338382 -1.571324E-07 -0.84558666
vn -0.53383857 -1.529988E-07 -0.8455864
vn -0.65954447 -1.5632405E-07 -0.7516656
vn -0.6595442 -1.8817666E-07 -0.7516658
vn -0.7690104 -1.4337002E-07 -0.63923615
vn -0.76901054 -1.5299878E-07 -0.63923603
vn -0.8595415 -1.76844E-07 -0.511066
vn -0.85954136 -1.1177713E-07 -0.5110661
vn -0.92890733 -2.3869396E-07 -0.37031236
vn -0.9289074 -1.2239906E-07 -0.3703121
vn -0.97540057 0 -0.2204399
vn -0.97540057 -2.5081093E-07 -0.22043969
vn -0.99787617 -2.1091265E-07 -0.0651393
vn -0.99787617 0 -0.06513929
vn -0.9957807 0 0.09176494
vn -0.9957807 -1.6529992E-07 0.09176478
vn -0.9691658 0 0.24640976
vn -0.9691658 -1.2239904E-07 0.24640961
vn -0.91868687 -1.1456579E-07 0.39498654
vn -0.91868687 0 0.39498666
vn -0.845587 0 0.53383774
vn -0.84558684 -1.2239903E-07 0.5338379
vn -0.75166565 0 0.65954447
vn -0.7516653 0 0.6595447
vn -0.63923484 0 0.76901156
vn -0.6392363 0 0.7690104
vn -0.51106614 0 0.85954136
vn -0.5110652 0 0.85954195
vn -0.3703129 0 0.9289071
vn -0.3703128 0 0.9289071
vn -0.22044133 1.0309182E-07 0.97540027
vn -0.2204414 1.0126261E-07 0.97540027
vn -0.06514123 1.241705E-07 0.99787605
vn -0.0651412 1.2417703E-07 0.99787605
vn 0.09176369 1.4139955E-07 0.9957808
vn 0.09176417 1.4049495E-07 0.9957808
vn 0.09176193 1.4036102E-07 0.99578094
vn 0.09176477 1.3936759E-07 0.9957807
vn 0.24640658 1.634806E-07 0.9691665
vn 0.24640846 1.5253036E-07 0.96916604
vn 0.39498302 1.7080575E-07 0.9186885
vn 0.3949827 1.6084955E-07 0.9186886
vn 0.53383404 1.7631831E-07 0.8455892
vn 0.53383404 1.4721938E-07 0.8455892
vn 0.65954083 1.933512E-07 0.75166875
vn 0.6595414 1.6278841E-07 0.7516683
vn 0.769008 0 0.63923925
vn 0.76900804 1.9629317E-07 0.6392391
vn 0.8595397 1.1968311E-07 0.51106894
vn 0.8595395 0 0.51106936
vn 0.92890626 0 0.37031502
vn 0.9289061 0 0.3703153
vn 0.97540015 0 0.22044192
vn 0.97540015 1.6702877E-07 0.22044186
vn 0.99787617 0 0.06514026
vn 0.99787617 0 0.06514003
vn 0.9957806 0 -0.09176574
vn 0.9957806 0 -0.09176595
vn 0.96916515 0 -0.24641208
vn 0.96916527 0 -0.2464119
vn 0.9186855 1.2407675E-07 -0.39498994
vn 0.9186855 0 -0.39499003
vn 0.84558445 0 -0.5338416
vn 0.8455843 0 -0.533842
vn 0.7516621 -1.2121379E-07 -0.65954846
vn 0.7516624 0 -0.65954804
vn 0.6392318 0 -0.7690142
vn 0.6392323 0 -0.76901376
vn 0.51106215 0 -0.85954374
vn 0.51106226 -1.2583556E-07 -0.85954374
vn 0.37030897 0 -0.92890865
vn 0.37030908 0 -0.9289085
vn 0.22043832 0 -0.9754009
vn 0.22043687 -1.0269402E-07 -0.9754013
vn 0.06513772 -1.258581E-07 -0.9978763
vn 0.06513873 -1.2399246E-07 -0.99787617
vn -0.0917634 -1.4018067E-07 -0.9957808
vn -0.09176393 -1.3831747E-07 -0.9957808
vn -0.24640658 -1.5849284E-07 -0.9691665
vn -0.24640694 -1.5539807E-07 -0.9691665
vn -0.39498416 -1.4915342E-07 -0.9186879
vn -0.39498377 -1.690289E-07 -0.91868806
vn -0.5338345 -1.7198929E-07 -0.845589
vn -0.53383493 0 -0.84558874
vn -0.659541 -1.09627685E-07 -0.7516685
vn -0.65954053 -2.2822428E-07 -0.75166893
vn -0.76900744 -2.5385174E-07 -0.6392398
vn -0.76900756 -1.3086215E-07 -0.6392397
vn -0.85953915 -1.3699977E-07 -0.5110698
vn -0.85953915 -2.0033495E-07 -0.51106995
vn -0.9289061 -1.6382653E-07 -0.3703153
vn -0.9289062 -1.3086247E-07 -0.37031516
vn -0.97540015 -1.3983421E-07 -0.22044188
vn -0.97540015 -2.3246498E-07 -0.2204417
vn -0.99787617 -1.8557887E-07 -0.06513987
vn -0.99787617 0 -0.06513986
vn -0.9957806 0 0.091766
vn -0.9957806 0 0.09176577
vn -0.96916527 0 0.2464119
vn -0.96916527 -1.3086263E-07 0.24641176
vn -0.91868556 -1.12788335E-07 0.39498958
vn -0.9186855 0 0.3949899
vn -0.84558475 0 0.5338413
vn -0.84558463 0 0.5338414
vn -0.75166255 0 0.6595479
vn -0.75166225 0 0.6595482
vn -0.6392318 0 0.7690142
vn -0.6392323 0 0.76901364
vn -0.5110621 0 0.85954374
vn -0.5110622 0 0.85954374
vn -0.37030956 0 0.92890835
vn -0.37030995 0 0.9289082
vn -0.22043975 1.0396719E-07 0.97540057
vn -0.22043893 1.0064918E-07 0.9754008
vn -0.0651398 1.2381345E-07 0.99787617
vn -0.06514115 1.2194772E-07 0.99787605
vn 0.09176193 1.4036102E-07 0.99578094
vn 0.09176477 1.3936759E-07 0.9957807
g VFX_DoubleRing_0
f 3/3/3 2/2/2 1/1/1
f 3/3/3 4/4/4 2/2/2
f 5/5/5 4/4/4 3/3/3
f 5/5/5 6/6/6 4/4/4
f 5/5/5 7/7/7 6/6/6
f 5/5/5 8/8/8 7/7/7
f 9/9/9 7/7/7 8/8/8
f 9/9/9 10/10/10 7/7/7
f 9/9/9 11/11/11 10/10/10
f 9/9/9 12/12/12 11/11/11
f 13/13/13 11/11/11 12/12/12
f 13/13/13 14/14/14 11/11/11
f 13/13/13 15/15/15 14/14/14
f 13/13/13 16/16/16 15/15/15
f 17/17/17 15/15/15 16/16/16
f 17/17/17 18/18/18 15/15/15
f 17/17/17 19/19/19 18/18/18
f 17/17/17 20/20/20 19/19/19
f 21/21/21 19/19/19 20/20/20
f 21/21/21 22/22/22 19/19/19
f 21/21/21 23/23/23 22/22/22
f 21/21/21 24/24/24 23/23/23
f 25/25/25 23/23/23 24/24/24
f 25/25/25 26/26/26 23/23/23
f 25/25/25 27/27/27 26/26/26
f 25/25/25 28/28/28 27/27/27
f 29/29/29 27/27/27 28/28/28
f 29/29/29 30/30/30 27/27/27
f 29/29/29 31/31/31 30/30/30
f 29/29/29 32/32/32 31/31/31
f 33/33/33 31/31/31 32/32/32
f 33/33/33 34/34/34 31/31/31
f 33/33/33 35/35/35 34/34/34
f 33/33/33 36/36/36 35/35/35
f 37/37/37 35/35/35 36/36/36
f 37/37/37 38/38/38 35/35/35
f 37/37/37 39/39/39 38/38/38
f 37/37/37 40/40/40 39/39/39
f 41/41/41 39/39/39 40/40/40
f 41/41/41 42/42/42 39/39/39
f 41/41/41 43/43/43 42/42/42
f 41/41/41 44/44/44 43/43/43
f 45/45/45 43/43/43 44/44/44
f 45/45/45 46/46/46 43/43/43
f 45/45/45 47/47/47 46/46/46
f 45/45/45 48/48/48 47/47/47
f 49/49/49 47/47/47 48/48/48
f 49/49/49 50/50/50 47/47/47
f 49/49/49 51/51/51 50/50/50
f 49/49/49 52/52/52 51/51/51
f 53/53/53 51/51/51 52/52/52
f 53/53/53 54/54/54 51/51/51
f 53/53/53 55/55/55 54/54/54
f 53/53/53 56/56/56 55/55/55
f 57/57/57 55/55/55 56/56/56
f 57/57/57 58/58/58 55/55/55
f 57/57/57 59/59/59 58/58/58
f 57/57/57 60/60/60 59/59/59
f 61/61/61 59/59/59 60/60/60
f 61/61/61 62/62/62 59/59/59
f 61/61/61 63/63/63 62/62/62
f 61/61/61 64/64/64 63/63/63
f 65/65/65 63/63/63 64/64/64
f 65/65/65 66/66/66 63/63/63
f 65/65/65 67/67/67 66/66/66
f 65/65/65 68/68/68 67/67/67
f 69/69/69 67/67/67 68/68/68
f 69/69/69 70/70/70 67/67/67
f 69/69/69 71/71/71 70/70/70
f 69/69/69 72/72/72 71/71/71
f 73/73/73 71/71/71 72/72/72
f 73/73/73 74/74/74 71/71/71
f 73/73/73 75/75/75 74/74/74
f 73/73/73 76/76/76 75/75/75
f 77/77/77 75/75/75 76/76/76
f 77/77/77 78/78/78 75/75/75
f 77/77/77 79/79/79 78/78/78
f 77/77/77 80/80/80 79/79/79
f 81/81/81 79/79/79 80/80/80
f 81/81/81 82/82/82 79/79/79
f 85/85/85 84/84/84 83/83/83
f 85/85/85 86/86/86 84/84/84
f 87/87/87 86/86/86 85/85/85
f 87/87/87 88/88/88 86/86/86
f 87/87/87 89/89/89 88/88/88
f 87/87/87 90/90/90 89/89/89
f 91/91/91 89/89/89 90/90/90
f 91/91/91 92/92/92 89/89/89
f 91/91/91 93/93/93 92/92/92
f 91/91/91 94/94/94 93/93/93
f 95/95/95 93/93/93 94/94/94
f 95/95/95 96/96/96 93/93/93
f 95/95/95 97/97/97 96/96/96
f 95/95/95 98/98/98 97/97/97
f 99/99/99 97/97/97 98/98/98
f 99/99/99 100/100/100 97/97/97
f 99/99/99 101/101/101 100/100/100
f 99/99/99 102/102/102 101/101/101
f 103/103/103 101/101/101 102/102/102
f 103/103/103 104/104/104 101/101/101
f 103/103/103 105/105/105 104/104/104
f 103/103/103 106/106/106 105/105/105
f 107/107/107 105/105/105 106/106/106
f 107/107/107 108/108/108 105/105/105
f 107/107/107 109/109/109 108/108/108
f 107/107/107 110/110/110 109/109/109
f 111/111/111 109/109/109 110/110/110
f 111/111/111 112/112/112 109/109/109
f 111/111/111 113/113/113 112/112/112
f 111/111/111 114/114/114 113/113/113
f 115/115/115 113/113/113 114/114/114
f 115/115/115 116/116/116 113/113/113
f 115/115/115 117/117/117 116/116/116
f 115/115/115 118/118/118 117/117/117
f 119/119/119 117/117/117 118/118/118
f 119/119/119 120/120/120 117/117/117
f 119/119/119 121/121/121 120/120/120
f 119/119/119 122/122/122 121/121/121
f 123/123/123 121/121/121 122/122/122
f 123/123/123 124/124/124 121/121/121
f 123/123/123 125/125/125 124/124/124
f 123/123/123 126/126/126 125/125/125
f 127/127/127 125/125/125 126/126/126
f 127/127/127 128/128/128 125/125/125
f 127/127/127 129/129/129 128/128/128
f 127/127/127 130/130/130 129/129/129
f 131/131/131 129/129/129 130/130/130
f 131/131/131 132/132/132 129/129/129
f 131/131/131 133/133/133 132/132/132
f 131/131/131 134/134/134 133/133/133
f 135/135/135 133/133/133 134/134/134
f 135/135/135 136/136/136 133/133/133
f 135/135/135 137/137/137 136/136/136
f 135/135/135 138/138/138 137/137/137
f 139/139/139 137/137/137 138/138/138
f 139/139/139 140/140/140 137/137/137
f 139/139/139 141/141/141 140/140/140
f 139/139/139 142/142/142 141/141/141
f 143/143/143 141/141/141 142/142/142
f 143/143/143 144/144/144 141/141/141
f 143/143/143 145/145/145 144/144/144
f 143/143/143 146/146/146 145/145/145
f 147/147/147 145/145/145 146/146/146
f 147/147/147 148/148/148 145/145/145
f 147/147/147 149/149/149 148/148/148
f 147/147/147 150/150/150 149/149/149
f 151/151/151 149/149/149 150/150/150
f 151/151/151 152/152/152 149/149/149
f 151/151/151 153/153/153 152/152/152
f 151/151/151 154/154/154 153/153/153
f 155/155/155 153/153/153 154/154/154
f 155/155/155 156/156/156 153/153/153
f 155/155/155 157/157/157 156/156/156
f 155/155/155 158/158/158 157/157/157
f 159/159/159 157/157/157 158/158/158
f 159/159/159 160/160/160 157/157/157
f 159/159/159 161/161/161 160/160/160
f 159/159/159 162/162/162 161/161/161
f 163/163/163 161/161/161 162/162/162
f 163/163/163 164/164/164 161/161/161
