g VFX_Victory_DarthMaul_Tunnel_C_MO
v 0.009364369 -0.01 -0.0030426655
v 0.008773101 -0.01 -0.0044701155
v 0.008910072 0.01 -0.0045399056
v 0.009510572 0.01 -0.0030901697
v 0.009725057 -0.01 -0.0015402953
v 0.00987689 0.01 -0.0015643432
v 0.009846274 -0.01 -2.772691E-11
v 0.01 0.01 0
v 0.008773101 -0.01 -0.0044701155
v 0.008090177 0.01 -0.0058778543
v 0.008910072 0.01 -0.0045399056
v 0.00796581 -0.01 -0.0057874965
v 0.007071074 0.01 -0.0070710704
v 0.006962373 -0.01 -0.00696237
v 0.0058778585 0.01 -0.008090174
v 0.0057875006 -0.01 -0.007965807
v 0.0045399102 0.01 -0.008910069
v 0.00447012 -0.01 -0.008773099
v 0.00447012 -0.01 -0.008773099
v 0.0030901742 0.01 -0.00951057
v 0.0045399102 0.01 -0.008910069
v 0.0030426702 -0.01 -0.009364368
v 0.0015643479 0.01 -0.009876889
v 0.0015402997 -0.01 -0.009725056
v 2.235174E-09 0.01 -0.010000005
v 2.173424E-09 -0.01 -0.00984628
v 2.173424E-09 -0.01 -0.00984628
v -0.0015643432 0.01 -0.009876889
v 2.235174E-09 0.01 -0.010000005
v -0.0015402953 -0.01 -0.009725056
v -0.0030901693 0.01 -0.00951057
v -0.0030426653 -0.01 -0.009364368
v -0.004539905 0.01 -0.00891007
v -0.004470115 -0.01 -0.0087731
v -0.0058778534 0.01 -0.008090175
v -0.005787496 -0.01 -0.007965809
v -0.0070710694 0.01 -0.0070710727
v -0.0069623687 -0.01 -0.006962372
v -0.008090172 0.01 -0.005877857
v -0.007965805 -0.01 -0.0057874992
v -0.008910068 0.01 -0.004539909
v -0.008773097 -0.01 -0.0044701183
v -0.009510568 0.01 -0.003090173
v -0.0093643665 -0.01 -0.003042669
v -0.009876887 0.01 -0.001564347
v -0.009725054 -0.01 -0.0015402989
v -0.0100000035 0.01 -1.6391277E-09
v -0.009846278 -0.01 -1.6416569E-09
v -0.009846278 -0.01 -1.6416569E-09
v -0.009876887 0.01 0.0015643436
v -0.0100000035 0.01 -1.6391277E-09
v -0.009725054 -0.01 0.0015402954
v -0.009510568 0.01 0.0030901693
v -0.0093643665 -0.01 0.0030426653
v -0.008910068 0.01 0.0045399047
v -0.008773098 -0.01 0.0044701146
v -0.008773098 -0.01 0.0044701146
v -0.008090174 0.01 0.005877853
v -0.008910068 0.01 0.0045399047
v -0.007965807 -0.01 0.005787495
v -0.0070710713 0.01 0.007071068
v -0.0069623706 -0.01 0.006962368
v -0.0058778552 0.01 0.008090171
v -0.005787498 -0.01 0.007965804
v -0.0045399074 0.01 0.008910066
v -0.0044701174 -0.01 0.008773096
v -0.0044701174 -0.01 0.008773096
v -0.003090172 0.01 0.009510567
v -0.0045399074 0.01 0.008910066
v -0.003042668 -0.01 0.009364366
v -0.0015643463 0.01 0.009876885
v -0.0015402981 -0.01 0.009725053
v -1.0430813E-09 0.01 0.010000003
v -1.054436E-09 -0.01 0.009846277
v -1.054436E-09 -0.01 0.009846277
v 0.0015643439 0.01 0.009876885
v -1.0430813E-09 0.01 0.010000003
v 0.0015402959 -0.01 0.009725053
v 0.0030901697 0.01 0.009510567
v 0.0030426655 -0.01 0.009364366
v 0.004539905 0.01 0.008910067
v 0.004470115 -0.01 0.008773097
v 0.004470115 -0.01 0.008773097
v 0.005877853 0.01 0.008090172
v 0.004539905 0.01 0.008910067
v 0.005787495 -0.01 0.007965805
v 0.007071068 0.01 0.0070710694
v 0.006962368 -0.01 0.0069623683
v 0.00809017 0.01 0.0058778534
v 0.007965803 -0.01 0.005787496
v 0.0089100655 0.01 0.0045399056
v 0.008773095 -0.01 0.0044701155
v 0.009510566 0.01 0.0030901702
v 0.009364364 -0.01 0.0030426662
v 0.009876884 0.01 0.0015643447
v 0.00972505 -0.01 0.0015402966
v 0.01 0.01 0
v 0.009846274 -0.01 -2.772691E-11
vt 0.15789193 0.014046311
vt 0.21741796 0.014046311
vt 0.21741796 0.33532792
vt 0.15789193 0.33532792
vt 0.09836638 0.014046311
vt 0.098366454 0.33532792
vt 0.03883956 0.014046311
vt 0.0388398 0.33532792
vt 0.4968447 0.075060755
vt 0.5179877 0.18917719
vt 0.4968447 0.18917719
vt 0.5179877 0.075060755
vt 0.5391306 0.18917719
vt 0.5391306 0.075060755
vt 0.56027335 0.18917719
vt 0.56027335 0.075060755
vt 0.5814167 0.18917719
vt 0.5814167 0.075060755
vt 0.56465197 0.09700622
vt 0.577663 0.16723172
vt 0.56465197 0.16723172
vt 0.577663 0.09700622
vt 0.5906737 0.16723172
vt 0.5906737 0.09700622
vt 0.60368514 0.16723172
vt 0.60368514 0.09700622
vt 0.47381192 0.09700622
vt 0.48673433 0.16723172
vt 0.47381192 0.16723172
vt 0.48673433 0.09700622
vt 0.49965686 0.16723172
vt 0.49965686 0.09700622
vt 0.5125788 0.16723172
vt 0.5125788 0.09700622
vt 0.5255018 0.16723172
vt 0.5255018 0.09700622
vt 0.5384242 0.16723172
vt 0.5384242 0.09700622
vt 0.5513465 0.16723172
vt 0.5513465 0.09700622
vt 0.56426823 0.16723172
vt 0.56426823 0.09700622
vt 0.5771911 0.16723172
vt 0.5771911 0.09700622
vt 0.5901134 0.16723172
vt 0.5901134 0.09700622
vt 0.60303557 0.16723172
vt 0.60303557 0.09700622
vt 0.03614673 0.014046311
vt 0.09583449 0.33532792
vt 0.03614673 0.33532792
vt 0.09583449 0.014046311
vt 0.15552075 0.33532792
vt 0.15552075 0.014046311
vt 0.21520975 0.33532792
vt 0.21520975 0.014046311
vt 0.4922744 0.074378446
vt 0.51476014 0.19541188
vt 0.4922744 0.19541188
vt 0.51476014 0.074378446
vt 0.53724545 0.19541188
vt 0.53724545 0.074378446
vt 0.55973035 0.19541188
vt 0.55973035 0.074378446
vt 0.58221567 0.19541188
vt 0.58221567 0.074378446
vt 0.45395762 0.014046311
vt 0.51364744 0.33532792
vt 0.45395762 0.33532792
vt 0.51364744 0.014046311
vt 0.57333434 0.33532792
vt 0.57333434 0.014046311
vt 0.6330241 0.33532792
vt 0.6330241 0.014046311
vt 0.038706243 0.014046311
vt 0.09824619 0.33532792
vt 0.038706243 0.33532792
vt 0.09824619 0.014046311
vt 0.15779033 0.33532792
vt 0.15779033 0.014046311
vt 0.21733263 0.33532792
vt 0.21733263 0.014046311
vt 0.49580044 0.095402054
vt 0.5080379 0.16143273
vt 0.49580044 0.16143273
vt 0.5080379 0.095402054
vt 0.52027583 0.16143273
vt 0.52027583 0.095402054
vt 0.532513 0.16143273
vt 0.532513 0.095402054
vt 0.5447503 0.16143273
vt 0.5447503 0.095402054
vt 0.55698794 0.16143273
vt 0.55698794 0.095402054
vt 0.56922555 0.16143273
vt 0.56922555 0.095402054
vt 0.5814627 0.16143273
vt 0.5814627 0.095402054
vn -0.9510284 0.007686079 0.30900773
vn -0.89098036 0.0076860795 0.45397672
vn -0.89098036 0.0076860795 0.45397672
vn -0.9510284 0.007686079 0.30900764
vn -0.9876595 0.007686065 0.15642782
vn -0.9876595 0.007686064 0.15642782
vn -0.99997044 0.0076860646 -2.1150918E-06
vn -0.99997044 0.0076860646 -2.1128956E-06
vn -0.89098036 0.0076860795 0.45397672
vn -0.80899334 0.0076860567 0.58776766
vn -0.89098036 0.0076860795 0.45397672
vn -0.80899334 0.0076860557 0.58776754
vn -0.7070859 0.0076860576 0.70708585
vn -0.7070859 0.0076860576 0.70708585
vn -0.58776784 0.0076860646 0.80899316
vn -0.58776784 0.007686064 0.8089931
vn -0.4539773 0.0076860674 0.8909801
vn -0.45397735 0.0076860674 0.8909801
vn -0.45397735 0.0076860674 0.8909801
vn -0.30900818 0.007686064 0.9510283
vn -0.4539773 0.0076860674 0.8909801
vn -0.30900818 0.007686063 0.9510283
vn -0.15643013 0.0076860627 0.98765916
vn -0.15643014 0.007686063 0.98765916
vn -0 0.007686064 0.99997044
vn -0 0.007686063 0.99997044
vn -0 0.007686063 0.99997044
vn 0.15642996 0.007686063 0.98765916
vn -0 0.007686064 0.99997044
vn 0.15642996 0.0076860627 0.98765916
vn 0.30900785 0.0076860623 0.9510284
vn 0.30900785 0.0076860623 0.9510284
vn 0.45397684 0.007686066 0.8909803
vn 0.45397684 0.007686066 0.8909803
vn 0.58776766 0.0076860636 0.8089933
vn 0.58776766 0.0076860636 0.8089933
vn 0.70708585 0.00768608 0.70708585
vn 0.70708585 0.0076860795 0.70708585
vn 0.8089931 0.0076860934 0.58776796
vn 0.8089931 0.0076860934 0.58776796
vn 0.8909801 0.0076860683 0.45397735
vn 0.8909801 0.0076860692 0.4539773
vn 0.9510283 0.007686056 0.30900797
vn 0.9510284 0.007686056 0.30900794
vn 0.98765916 0.007686058 0.1564297
vn 0.98765916 0.007686057 0.15642968
vn 0.99997044 0.0076860585 0
vn 0.99997044 0.0076860585 0
vn 0.99997044 0.0076860585 0
vn 0.98765916 0.0076860585 -0.15642971
vn 0.99997044 0.0076860585 0
vn 0.98765916 0.0076860585 -0.1564297
vn 0.9510284 0.007686059 -0.30900785
vn 0.9510284 0.007686058 -0.3090078
vn 0.8909802 0.0076860697 -0.453977
vn 0.8909803 0.0076860697 -0.45397702
vn 0.8909803 0.0076860697 -0.45397702
vn 0.8089933 0.00768607 -0.5877677
vn 0.8909802 0.0076860697 -0.453977
vn 0.8089933 0.007686071 -0.5877677
vn 0.7070857 0.00768607 -0.7070859
vn 0.7070857 0.0076860706 -0.7070859
vn 0.58776784 0.007686076 -0.8089931
vn 0.58776784 0.007686076 -0.8089931
vn 0.45397744 0.0076860716 -0.8909801
vn 0.45397744 0.0076860734 -0.8909801
vn 0.45397744 0.0076860734 -0.8909801
vn 0.30900806 0.0076860683 -0.9510283
vn 0.45397744 0.0076860716 -0.8909801
vn 0.30900803 0.0076860683 -0.9510283
vn 0.15642981 0.0076860636 -0.98765916
vn 0.1564298 0.007686064 -0.98765916
vn -0 0.0076860646 -0.99997044
vn -0 0.0076860646 -0.99997044
vn -0 0.0076860646 -0.99997044
vn -0.15642981 0.007686063 -0.98765916
vn -0 0.0076860646 -0.99997044
vn -0.15642981 0.0076860627 -0.98765916
vn -0.30900776 0.007686066 -0.9510284
vn -0.30900773 0.007686065 -0.9510284
vn -0.45397714 0.0076860692 -0.8909801
vn -0.4539771 0.0076860706 -0.8909802
vn -0.4539771 0.0076860706 -0.8909802
vn -0.5877681 0.0076860753 -0.8089929
vn -0.45397714 0.0076860692 -0.8909801
vn -0.5877681 0.0076860753 -0.8089929
vn -0.7070861 0.007686082 -0.7070857
vn -0.7070861 0.007686082 -0.7070857
vn -0.80899316 0.007686084 -0.58776784
vn -0.8089931 0.0076860846 -0.58776784
vn -0.8909803 0.007686095 -0.45397696
vn -0.8909803 0.007686096 -0.45397696
vn -0.9510284 0.0076860827 -0.30900767
vn -0.9510284 0.0076860827 -0.30900764
vn -0.98765916 0.0076860604 -0.15642974
vn -0.98765916 0.007686061 -0.15642975
vn -0.99997044 0.0076860646 -2.1128956E-06
vn -0.99997044 0.0076860646 -2.1150918E-06
g VFX_Victory_DarthMaul_Tunnel_C_MO_0
f 3/3/3 2/2/2 1/1/1
f 4/4/4 3/3/3 1/1/1
f 4/4/4 1/1/1 5/5/5
f 6/6/6 4/4/4 5/5/5
f 6/6/6 5/5/5 7/7/7
f 8/8/8 6/6/6 7/7/7
f 11/11/11 10/10/10 9/9/9
f 10/10/10 12/12/12 9/9/9
f 10/10/10 13/13/13 12/12/12
f 13/13/13 14/14/14 12/12/12
f 13/13/13 15/15/15 14/14/14
f 15/15/15 16/16/16 14/14/14
f 15/15/15 17/17/17 16/16/16
f 17/17/17 18/18/18 16/16/16
f 21/21/21 20/20/20 19/19/19
f 20/20/20 22/22/22 19/19/19
f 20/20/20 23/23/23 22/22/22
f 23/23/23 24/24/24 22/22/22
f 23/23/23 25/25/25 24/24/24
f 25/25/25 26/26/26 24/24/24
f 29/29/29 28/28/28 27/27/27
f 28/28/28 30/30/30 27/27/27
f 28/28/28 31/31/31 30/30/30
f 31/31/31 32/32/32 30/30/30
f 31/31/31 33/33/33 32/32/32
f 33/33/33 34/34/34 32/32/32
f 33/33/33 35/35/35 34/34/34
f 35/35/35 36/36/36 34/34/34
f 35/35/35 37/37/37 36/36/36
f 37/37/37 38/38/38 36/36/36
f 37/37/37 39/39/39 38/38/38
f 39/39/39 40/40/40 38/38/38
f 39/39/39 41/41/41 40/40/40
f 41/41/41 42/42/42 40/40/40
f 41/41/41 43/43/43 42/42/42
f 43/43/43 44/44/44 42/42/42
f 43/43/43 45/45/45 44/44/44
f 45/45/45 46/46/46 44/44/44
f 45/45/45 47/47/47 46/46/46
f 47/47/47 48/48/48 46/46/46
f 51/51/51 50/50/50 49/49/49
f 50/50/50 52/52/52 49/49/49
f 50/50/50 53/53/53 52/52/52
f 53/53/53 54/54/54 52/52/52
f 53/53/53 55/55/55 54/54/54
f 55/55/55 56/56/56 54/54/54
f 59/59/59 58/58/58 57/57/57
f 58/58/58 60/60/60 57/57/57
f 58/58/58 61/61/61 60/60/60
f 61/61/61 62/62/62 60/60/60
f 61/61/61 63/63/63 62/62/62
f 63/63/63 64/64/64 62/62/62
f 63/63/63 65/65/65 64/64/64
f 65/65/65 66/66/66 64/64/64
f 69/69/69 68/68/68 67/67/67
f 68/68/68 70/70/70 67/67/67
f 68/68/68 71/71/71 70/70/70
f 71/71/71 72/72/72 70/70/70
f 71/71/71 73/73/73 72/72/72
f 73/73/73 74/74/74 72/72/72
f 77/77/77 76/76/76 75/75/75
f 76/76/76 78/78/78 75/75/75
f 76/76/76 79/79/79 78/78/78
f 79/79/79 80/80/80 78/78/78
f 79/79/79 81/81/81 80/80/80
f 81/81/81 82/82/82 80/80/80
f 85/85/85 84/84/84 83/83/83
f 84/84/84 86/86/86 83/83/83
f 84/84/84 87/87/87 86/86/86
f 87/87/87 88/88/88 86/86/86
f 87/87/87 89/89/89 88/88/88
f 89/89/89 90/90/90 88/88/88
f 89/89/89 91/91/91 90/90/90
f 91/91/91 92/92/92 90/90/90
f 91/91/91 93/93/93 92/92/92
f 93/93/93 94/94/94 92/92/92
f 93/93/93 95/95/95 94/94/94
f 95/95/95 96/96/96 94/94/94
f 95/95/95 97/97/97 96/96/96
f 97/97/97 98/98/98 96/96/96
