g VFX_LoadingScreen_MoveLines_MO4
v 97.107216 -141.58315 -100
v 97.107216 -166.87573 -100
v 102.892784 -166.87573 -100
v 102.892784 -141.58315 -100
v 102.892784 282.2031 -100
v 97.107216 282.2031 -100
v 97.107216 307.49567 -100
v 102.892784 307.49567 -100
vt 0.99999994 0.04137472
vt 0.99999994 0.03512472
vt 0 0.03512466
vt 0 0.041374665
vt 0 0.12887473
vt 0.99999994 0.12887475
vt 0.99999994 0.13512474
vt 0 0.13512474
vn -0 0 -1
vn -0 0 -1
vn -0 0 -1
vn -0 0 -1
vn -0 0 -1
vn -0 0 -1
vn -0 0 -1
vn -0 0 -1
g VFX_LoadingScreen_MoveLines_MO4_0
f 3/3/3 2/2/2 1/1/1
f 4/4/4 3/3/3 1/1/1
f 4/4/4 1/1/1 5/5/5
f 1/1/1 6/6/6 5/5/5
f 5/5/5 6/6/6 7/7/7
f 8/8/8 5/5/5 7/7/7
