g vines02
v 0.24488747 0.025002241 0.28007132
v 0.113235295 -0.0077849627 0.14524531
v 0.0869776 0.099986374 0.2040106
v -2.9206276E-06 2.9206276E-06 2.9206276E-06
v -0.056824744 0.112528026 0.012838125
v -0.09586179 -0.085984886 -0.17727172
v -0.1686368 0.013970673 -0.20004797
v -0.2636428 -0.20702487 -0.4966848
v -0.20059907 -0.26971903 -0.44745505
v -0.17485869 -0.31566307 -0.55231816
v -0.203731 -0.28136584 -0.61010474
v -0.08455056 -0.21519023 -0.63622266
v -0.15778697 -0.23939264 -0.63365
v -0.203731 -0.28136584 -0.61010474
v -0.06353599 -0.26409838 -0.63110536
v 0.25668806 -0.11561221 -0.48501003
v 0.23725343 -0.0528481 -0.49643314
v 0.4425055 0.019032061 -0.32686245
v 0.4497061 -0.04745114 -0.3236047
v 0.5675583 -0.05760193 -0.106552005
v 0.5686069 0.006798029 -0.10554534
v -0.06353599 -0.26409838 -0.63110536
v -0.203731 -0.28136584 -0.61010474
v -0.17485869 -0.31566307 -0.55231816
v -0.060557842 -0.31011233 -0.5429504
v 0.21341455 -0.18163401 -0.3832928
v 0.25668806 -0.11561221 -0.48501003
v -0.086410105 -0.2672862 -0.4372344
v -0.20059907 -0.26971903 -0.44745505
v -0.09586179 -0.085984886 -0.17727172
v 0.0714578 -0.13778725 -0.25108138
v -2.9206276E-06 2.9206276E-06 2.9206276E-06
v 0.37066728 -0.11786324 -0.24664915
v 0.4497061 -0.04745114 -0.3236047
v 0.5675583 -0.05760193 -0.106552005
v 0.1799702 -0.074715555 -0.10523772
v 0.45939547 -0.11934531 -0.0800007
v 0.2677756 -0.07198912 0.026917756
v 0.113235295 -0.0077849627 0.14524531
v 0.43720645 -0.1267277 0.06461257
v 0.5452154 -0.07510704 0.09422588
v 0.41450006 -0.037510157 0.23342824
v 0.22981513 -0.058958173 0.19476867
v 0.24488747 0.025002241 0.28007132
v 0.34959677 -0.09949124 0.16297418
v -0.2636428 -0.20702487 -0.4966848
v -0.24443185 -0.17007113 -0.5300872
v -0.14948177 0.063955426 -0.23809233
v -0.1686368 0.013970673 -0.20004797
v -0.056824744 0.112528026 0.012838125
v -0.030594945 0.16688907 -0.01330775
v 0.114969015 0.1549766 0.18579239
v 0.0869776 0.099986374 0.2040106
v 0.26323152 0.081362724 0.2639364
v 0.24488747 0.025002241 0.28007132
v -0.2636428 -0.20702487 -0.4966848
v -0.203731 -0.28136584 -0.61010474
v -0.15778697 -0.23939264 -0.63365
v -0.24443185 -0.17007113 -0.5300872
v 0.5675583 -0.05760193 -0.106552005
v 0.5452154 -0.07510704 0.09422588
v 0.5521784 -0.014538109 0.08485812
v 0.5686069 0.006798029 -0.10554534
v 0.5521784 -0.014538109 0.08485812
v 0.5452154 -0.07510704 0.09422588
v 0.41450006 -0.037510157 0.23342824
v 0.42618883 0.021325052 0.21793646
v 0.24488747 0.025002241 0.28007132
v 0.26323152 0.081362724 0.2639364
v 0.45919973 0.106921315 0.03464967
v 0.5686069 0.006798029 -0.10554534
v 0.3046175 0.15613711 0.13176692
v 0.114969015 0.1549766 0.18579239
v 0.21966437 0.1907 0.07265204
v 0.3355591 0.16135228 -0.004401326
v 0.3932478 0.1224131 0.10531342
v 0.4542362 0.116261125 -0.07854658
v 0.4425055 0.019032061 -0.32686245
v 0.3481287 0.11099005 -0.2594844
v -0.08455056 -0.21519023 -0.63622266
v -0.24443185 -0.17007113 -0.5300872
v -0.15778697 -0.23939264 -0.63365
v -0.14256084 -0.13181704 -0.57227015
v 0.23725343 -0.0528481 -0.49643314
v -0.14948177 0.063955426 -0.23809233
v 0.15228632 0.03959924 -0.4249584
v 0.4425055 0.019032061 -0.32686245
v 0.3481287 0.11099005 -0.2594844
v -0.029588282 0.09272987 -0.3067567
v -0.030594945 0.16688907 -0.01330775
v 0.07008761 0.07807702 -0.35530135
v 0.090626836 0.19040638 -0.08962011
v 0.114969015 0.1549766 0.18579239
v 0.21966437 0.1907 0.07265204
v 0.22597015 0.16059726 -0.16668752
v 0.3355591 0.16135228 -0.004401326
v 0.4542362 0.116261125 -0.07854658
vn -0.2201742 -0.31556875 0.92300576
vn -0.515221 -0.7659034 0.38462874
vn -0.6782733 -0.09040141 0.7292276
vn -0.46863472 -0.7426102 0.47844705
vn -0.8413255 -0.02052188 0.5401391
vn -0.414284 -0.69602394 0.58644646
vn -0.9034406 -0.07487261 0.42212462
vn -0.9577913 -0.16028094 0.23863314
vn -0.47639906 -0.69602394 0.53721005
vn -0.28210428 -0.9593837 -0
vn -0.62392247 -0.5873225 -0.51553184
vn 0.09040141 0.42204833 -0.9020548
vn -0.414284 0.23570299 -0.87909776
vn -0.62392247 -0.5873225 -0.51553184
vn 0.4553278 -0.5873225 -0.66912544
vn 0.5950868 -0.5329717 -0.60150886
vn 0.2689824 0.50745666 -0.8186185
vn 0.5640292 0.58510053 -0.58269066
vn 0.69602394 -0.5252073 -0.48959982
vn 0.7736678 -0.5950868 -0.2175082
vn 0.82801855 0.515221 -0.22120717
vn 0.4553278 -0.5873225 -0.66912544
vn -0.62392247 -0.5873225 -0.51553184
vn -0.28210428 -0.9593837 -0
vn 0.34662634 -0.93672 -0.049048573
vn 0.33886194 -0.93672 0.08791029
vn 0.5950868 -0.5329717 -0.60150886
vn 0.07487261 -0.8668405 0.49293172
vn -0.47639906 -0.69602394 0.53721005
vn -0.414284 -0.69602394 0.58644646
vn 0.028286278 -0.8901337 0.45482075
vn -0.46863472 -0.7426102 0.47844705
vn 0.22226918 -0.9749853 -0
vn 0.69602394 -0.5252073 -0.48959982
vn 0.7736678 -0.5950868 -0.2175082
vn -0.111472726 -0.9522488 0.28424639
vn 0.14452294 -0.9895014 -0
vn -0.25899613 -0.9600132 0.10628084
vn -0.515221 -0.7659034 0.38462874
vn 0.06710827 -0.99107075 0.11521808
vn 0.6882595 -0.6416732 0.33845884
vn 0.32333314 -0.5096785 0.79729766
vn -0.35993326 -0.83578295 0.41462627
vn -0.2201742 -0.31556875 0.92300576
vn -0.10370839 -0.93672 0.33436537
vn -0.9577913 -0.16028094 0.23863314
vn -0.67050886 0.6161581 -0.41323972
vn -0.6006293 0.76368153 -0.23671709
vn -0.9034406 -0.07487261 0.42212462
vn -0.8413255 -0.02052188 0.5401391
vn -0.43757713 0.89567626 0.07931151
vn -0.21240985 0.86461866 0.4553203
vn -0.6782733 -0.09040141 0.7292276
vn 0.18357414 0.6472157 0.73987323
vn -0.2201742 -0.31556875 0.92300576
vn -0.9577913 -0.16028094 0.23863314
vn -0.62392247 -0.5873225 -0.51553184
vn -0.414284 0.23570299 -0.87909776
vn -0.67050886 0.6161581 -0.41323972
vn 0.7736678 -0.5950868 -0.2175082
vn 0.6882595 -0.6416732 0.33845884
vn 0.84354734 0.414284 0.34175527
vn 0.82801855 0.515221 -0.22120717
vn 0.84354734 0.414284 0.34175527
vn 0.6882595 -0.6416732 0.33845884
vn 0.32333314 -0.5096785 0.79729766
vn 0.5717937 0.49192786 0.65655077
vn -0.2201742 -0.31556875 0.92300576
vn 0.18357414 0.6472157 0.73987323
vn 0.61837995 0.7559172 0.21493126
vn 0.82801855 0.515221 -0.22120717
vn 0.30003995 0.86461866 0.40300193
vn -0.21240985 0.86461866 0.4553203
vn 0.059343874 0.9888489 0.13658746
vn 0.2534536 0.96555567 -0.058851566
vn 0.48638535 0.7869748 0.379605
vn 0.51744294 0.8413255 -0.15628242
vn 0.5640292 0.58510053 -0.58269066
vn 0.30780435 0.8568542 -0.41359088
vn 0.09040141 0.42204833 -0.9020548
vn -0.67050886 0.6161581 -0.41323972
vn -0.414284 0.23570299 -0.87909776
vn -0.23570299 0.7093308 -0.6642996
vn 0.2689824 0.50745666 -0.8186185
vn -0.6006293 0.76368153 -0.23671709
vn 0.051579475 0.76368153 -0.6435294
vn 0.5640292 0.58510053 -0.58269066
vn 0.30780435 0.8568542 -0.41359088
vn -0.27452493 0.86461866 -0.4207976
vn -0.43757713 0.89567626 0.07931151
vn -0.08041513 0.8568542 -0.5092488
vn -0.111472726 0.98108447 -0.15826264
vn -0.21240985 0.86461866 0.4553203
vn 0.059343874 0.9888489 0.13658746
vn 0.10593021 0.950027 -0.29364514
vn 0.2534536 0.96555567 -0.058851566
vn 0.51744294 0.8413255 -0.15628242
g vines02_0
f 3/3/3 2/2/2 1/1/1
f 4/4/4 2/2/2 3/3/3
f 5/5/5 4/4/4 3/3/3
f 4/4/4 5/5/5 6/6/6
f 5/5/5 7/7/7 6/6/6
f 7/7/7 8/8/8 6/6/6
f 8/8/8 9/9/9 6/6/6
f 10/10/10 9/9/9 8/8/8
f 11/11/11 10/10/10 8/8/8
f 14/14/14 13/13/13 12/12/12
f 15/15/15 14/14/14 12/12/12
f 16/16/16 15/15/15 12/12/12
f 17/17/17 16/16/16 12/12/12
f 16/16/16 17/17/17 18/18/18
f 19/19/19 16/16/16 18/18/18
f 19/19/19 18/18/18 20/20/20
f 18/18/18 21/21/21 20/20/20
f 24/24/24 23/23/23 22/22/22
f 25/25/25 24/24/24 22/22/22
f 26/26/26 25/25/25 22/22/22
f 27/27/27 26/26/26 22/22/22
f 24/24/24 25/25/25 28/28/28
f 25/25/25 26/26/26 28/28/28
f 29/29/29 24/24/24 28/28/28
f 30/30/30 29/29/29 28/28/28
f 31/31/31 30/30/30 28/28/28
f 26/26/26 31/31/31 28/28/28
f 32/32/32 30/30/30 31/31/31
f 26/26/26 27/27/27 33/33/33
f 27/27/27 34/34/34 33/33/33
f 34/34/34 35/35/35 33/33/33
f 36/36/36 31/31/31 26/26/26
f 36/36/36 32/32/32 31/31/31
f 33/33/33 36/36/36 26/26/26
f 35/35/35 37/37/37 33/33/33
f 33/33/33 37/37/37 36/36/36
f 36/36/36 38/38/38 32/32/32
f 37/37/37 38/38/38 36/36/36
f 38/38/38 39/39/39 32/32/32
f 37/37/37 35/35/35 40/40/40
f 38/38/38 37/37/37 40/40/40
f 35/35/35 41/41/41 40/40/40
f 41/41/41 42/42/42 40/40/40
f 39/39/39 38/38/38 43/43/43
f 39/39/39 43/43/43 44/44/44
f 44/44/44 43/43/43 42/42/42
f 45/45/45 38/38/38 40/40/40
f 42/42/42 45/45/45 40/40/40
f 38/38/38 45/45/45 43/43/43
f 43/43/43 45/45/45 42/42/42
f 48/48/48 47/47/47 46/46/46
f 49/49/49 48/48/48 46/46/46
f 48/48/48 49/49/49 50/50/50
f 51/51/51 48/48/48 50/50/50
f 52/52/52 51/51/51 50/50/50
f 53/53/53 52/52/52 50/50/50
f 52/52/52 53/53/53 54/54/54
f 53/53/53 55/55/55 54/54/54
f 58/58/58 57/57/57 56/56/56
f 59/59/59 58/58/58 56/56/56
f 62/62/62 61/61/61 60/60/60
f 63/63/63 62/62/62 60/60/60
f 66/66/66 65/65/65 64/64/64
f 67/67/67 66/66/66 64/64/64
f 68/68/68 66/66/66 67/67/67
f 69/69/69 68/68/68 67/67/67
f 67/67/67 64/64/64 70/70/70
f 64/64/64 71/71/71 70/70/70
f 69/69/69 67/67/67 72/72/72
f 73/73/73 69/69/69 72/72/72
f 74/74/74 73/73/73 72/72/72
f 75/75/75 74/74/74 72/72/72
f 67/67/67 76/76/76 72/72/72
f 76/76/76 75/75/75 72/72/72
f 76/76/76 67/67/67 70/70/70
f 75/75/75 76/76/76 70/70/70
f 77/77/77 75/75/75 70/70/70
f 71/71/71 77/77/77 70/70/70
f 77/77/77 71/71/71 78/78/78
f 79/79/79 77/77/77 78/78/78
f 82/82/82 81/81/81 80/80/80
f 81/81/81 83/83/83 80/80/80
f 80/80/80 83/83/83 84/84/84
f 83/83/83 81/81/81 85/85/85
f 83/83/83 86/86/86 84/84/84
f 87/87/87 84/84/84 86/86/86
f 88/88/88 87/87/87 86/86/86
f 89/89/89 83/83/83 85/85/85
f 85/85/85 90/90/90 89/89/89
f 86/86/86 83/83/83 91/91/91
f 88/88/88 86/86/86 91/91/91
f 83/83/83 89/89/89 91/91/91
f 90/90/90 92/92/92 89/89/89
f 90/90/90 93/93/93 92/92/92
f 93/93/93 94/94/94 92/92/92
f 95/95/95 91/91/91 89/89/89
f 92/92/92 95/95/95 89/89/89
f 92/92/92 94/94/94 95/95/95
f 95/95/95 88/88/88 91/91/91
f 94/94/94 96/96/96 95/95/95
f 95/95/95 96/96/96 88/88/88
f 96/96/96 97/97/97 88/88/88
