g vines11
v -0.17540245 0.97711945 7.87027
v -0.31539246 1.1063781 7.85351
v -0.23701733 1.1413454 7.945028
v -0.41643605 1.2587875 7.8301177
v -0.36494964 1.3410211 7.911628
v -0.5842793 1.3700801 7.743905
v -0.5610079 1.4760674 7.8074493
v -0.8584716 1.5885658 7.595957
v -0.8535279 1.4907779 7.568827
v -0.8979003 1.5239365 7.465372
v -0.90489376 1.5960416 7.455364
v -0.78829575 1.6017087 7.3803654
v -0.85111636 1.6171426 7.422326
v -0.90489376 1.5960416 7.455364
v -0.81024075 1.5602301 7.3546824
v -0.4644257 1.4103528 7.292344
v -0.43271396 1.463648 7.3170624
v -0.20928462 1.3020747 7.3220057
v -0.25341582 1.2574612 7.2984934
v -0.13320048 1.0527213 7.3674636
v -0.084487334 1.0896178 7.3877206
v -0.81024075 1.5602301 7.3546824
v -0.90489376 1.5960416 7.455364
v -0.8979003 1.5239365 7.465372
v -0.8204898 1.471606 7.3988137
v -0.51482695 1.3206435 7.3697543
v -0.4644257 1.4103528 7.292344
v -0.77816725 1.4360358 7.501907
v -0.8535279 1.4907779 7.568827
v -0.5842793 1.3700801 7.743905
v -0.5372543 1.3176291 7.5673804
v -0.41643605 1.2587875 7.8301177
v -0.33540824 1.1974138 7.380968
v -0.25341582 1.2574612 7.2984934
v -0.13320048 1.0527213 7.3674636
v -0.38641235 1.208748 7.6165757
v -0.23954946 1.0447632 7.436916
v -0.296703 1.0823833 7.65082
v -0.31539246 1.1063781 7.85351
v -0.2225481 0.95131594 7.54857
v -0.109687954 0.91514283 7.5145674
v -0.12813625 0.89874434 7.7076116
v -0.26848796 0.992071 7.7950296
v -0.17540245 0.97711945 7.87027
v -0.23207368 0.93817306 7.6820493
v -0.8584716 1.5885658 7.595957
v -0.8274833 1.6248595 7.572083
v -0.52157927 1.5233335 7.7845397
v -0.5610079 1.4760674 7.8074493
v -0.36494964 1.3410211 7.911628
v -0.31491014 1.3797263 7.893662
v -0.18336053 1.1741424 7.931523
v -0.23701733 1.1413454 7.945028
v -0.12620701 1.0135337 7.8649645
v -0.17540245 0.97711945 7.87027
v -0.8584716 1.5885658 7.595957
v -0.90489376 1.5960416 7.455364
v -0.85111636 1.6171426 7.422326
v -0.8274833 1.6248595 7.572083
v -0.13320048 1.0527213 7.3674636
v -0.109687954 0.91514283 7.5145674
v -0.062783465 0.9543304 7.522646
v -0.084487334 1.0896178 7.3877206
v -0.062783465 0.9543304 7.522646
v -0.109687954 0.91514283 7.5145674
v -0.12813625 0.89874434 7.7076116
v -0.08111118 0.93913764 7.7078524
v -0.17540245 0.97711945 7.87027
v -0.12620701 1.0135337 7.8649645
v -0.043008823 1.1004698 7.5872755
v -0.084487334 1.0896178 7.3877206
v -0.07821733 1.1298906 7.7706733
v -0.18336053 1.1741424 7.931523
v -0.12017815 1.2273169 7.7965975
v -0.08918984 1.2124859 7.6585364
v -0.0547048 1.089859 7.683858
v -0.067606546 1.1852355 7.5156527
v -0.20928462 1.3020747 7.3220057
v -0.18275766 1.3511496 7.459102
v -0.78829575 1.6017087 7.3803654
v -0.8274833 1.6248595 7.572083
v -0.85111636 1.6171426 7.422326
v -0.7464555 1.6323353 7.488523
v -0.43271396 1.463648 7.3170624
v -0.52157927 1.5233335 7.7845397
v -0.39895236 1.5062116 7.450903
v -0.20928462 1.3020747 7.3220057
v -0.18275766 1.3511496 7.459102
v -0.442963 1.5353913 7.6679416
v -0.31491014 1.3797263 7.893662
v -0.4040166 1.516943 7.564728
v -0.24123754 1.3933516 7.7693467
v -0.18336053 1.1741424 7.931523
v -0.12017815 1.2273169 7.7965975
v -0.19855325 1.3699596 7.6183844
v -0.08918984 1.2124859 7.6585364
v -0.067606546 1.1852355 7.5156527
vn -0.13793534 -0.7206589 0.6794296
vn -0.78768224 -0.49634147 0.3649683
vn -0.3081072 -0.2565539 0.9161059
vn -0.72580165 -0.5582221 0.40199506
vn -0.4009282 -0.01676631 0.9159561
vn -0.6252455 -0.6355729 0.45289636
vn -0.50921935 0.060584486 0.85850173
vn -0.6484508 0.15340549 0.74563956
vn -0.6716561 -0.5736923 0.4687806
vn -0.8882384 -0.4421959 -0.12448036
vn -0.9501191 0.27716678 -0.14301169
vn 0.14052767 0.82635766 -0.54533017
vn -0.30037206 0.91917866 -0.25472972
vn -0.9501191 0.27716678 -0.14301169
vn -0.3158422 -0.08638209 -0.94487137
vn -0.17661077 -0.16373289 -0.9705669
vn 0.34163982 0.7490069 -0.56768906
vn 0.6355729 0.5014842 -0.58699286
vn -0.083789766 -0.27975917 -0.9564069
vn -0.021909058 -0.5350169 -0.8445572
vn 0.8444202 0.083789766 -0.5290877
vn -0.3158422 -0.08638209 -0.94487137
vn -0.9501191 0.27716678 -0.14301169
vn -0.8882384 -0.4421959 -0.12448036
vn -0.48601407 -0.68971854 -0.5367296
vn -0.4628088 -0.7515992 -0.4700071
vn -0.17661077 -0.16373289 -0.9705669
vn -0.47024554 -0.88253564 -0
vn -0.6716561 -0.5736923 0.4687806
vn -0.6252455 -0.6355729 0.45289636
vn -0.52430487 -0.85153055 -0
vn -0.72580165 -0.5582221 0.40199506
vn -0.5865701 -0.67424834 -0.4486922
vn -0.083789766 -0.27975917 -0.9564069
vn -0.021909058 -0.5350169 -0.8445572
vn -0.70259637 -0.7051887 -0.095222354
vn -0.6561859 -0.6123677 -0.44093746
vn -0.8572981 -0.5118116 -0.055577528
vn -0.78768224 -0.49634147 0.3649683
vn -0.66392094 -0.68971854 -0.28895903
vn 0.032236516 -0.90630084 -0.42140192
vn 0.024501383 -0.9836517 0.17840683
vn -0.7490069 -0.62010276 0.2333692
vn -0.13793534 -0.7206589 0.6794296
vn -0.68620044 -0.7274125 -0
vn -0.6484508 0.15340549 0.74563956
vn -0.060584486 0.9346488 0.35037285
vn 0.14052767 0.8727682 0.46746936
vn -0.50921935 0.060584486 0.85850173
vn -0.4009282 -0.01676631 0.9159561
vn 0.41125554 0.6716561 0.6162362
vn 0.62010276 0.29263705 0.7278984
vn -0.3081072 -0.2565539 0.9161059
vn 0.7748045 -0.20240831 0.59892315
vn -0.13793534 -0.7206589 0.6794296
vn -0.6484508 0.15340549 0.74563956
vn -0.9501191 0.27716678 -0.14301169
vn -0.30037206 0.91917866 -0.25472972
vn -0.060584486 0.9346488 0.35037285
vn -0.021909058 -0.5350169 -0.8445572
vn 0.032236516 -0.90630084 -0.42140192
vn 0.92177105 -0.34163982 -0.18335854
vn 0.8444202 0.083789766 -0.5290877
vn 0.92177105 -0.34163982 -0.18335854
vn 0.032236516 -0.90630084 -0.42140192
vn 0.024501383 -0.9836517 0.17840683
vn 0.8830956 -0.40352046 0.2394021
vn -0.13793534 -0.7206589 0.6794296
vn 0.7748045 -0.20240831 0.59892315
vn 0.99912184 0.037379205 -0.018929625
vn 0.8444202 0.083789766 -0.5290877
vn 0.9295061 0.09925991 0.35519835
vn 0.62010276 0.29263705 0.7278984
vn 0.80574477 0.4628088 0.3695719
vn 0.85215527 0.50921935 0.12052835
vn 0.9836517 -0.0012961626 0.18007681
vn 0.9140359 0.37772292 -0.14786384
vn 0.6355729 0.5014842 -0.58699286
vn 0.7206589 0.66392094 -0.19964898
vn 0.14052767 0.82635766 -0.54533017
vn -0.060584486 0.9346488 0.35037285
vn -0.30037206 0.91917866 -0.25472972
vn 0.21787846 0.97332424 -0.07189475
vn 0.34163982 0.7490069 -0.56768906
vn 0.14052767 0.8727682 0.46746936
vn 0.4421959 0.8650331 -0.23702434
vn 0.6355729 0.5014842 -0.58699286
vn 0.7206589 0.66392094 -0.19964898
vn 0.36484504 0.91917866 0.1483196
vn 0.41125554 0.6716561 0.6162362
vn 0.46411133 0.88577676 -0
vn 0.62010276 0.73353666 0.2782023
vn 0.62010276 0.29263705 0.7278984
vn 0.80574477 0.4628088 0.3695719
vn 0.6974536 0.7103315 0.09480298
vn 0.85215527 0.50921935 0.12052835
vn 0.9140359 0.37772292 -0.14786384
g vines11_0
f 3/3/3 2/2/2 1/1/1
f 4/4/4 2/2/2 3/3/3
f 5/5/5 4/4/4 3/3/3
f 4/4/4 5/5/5 6/6/6
f 5/5/5 7/7/7 6/6/6
f 7/7/7 8/8/8 6/6/6
f 8/8/8 9/9/9 6/6/6
f 10/10/10 9/9/9 8/8/8
f 11/11/11 10/10/10 8/8/8
f 14/14/14 13/13/13 12/12/12
f 15/15/15 14/14/14 12/12/12
f 16/16/16 15/15/15 12/12/12
f 17/17/17 16/16/16 12/12/12
f 16/16/16 17/17/17 18/18/18
f 19/19/19 16/16/16 18/18/18
f 19/19/19 18/18/18 20/20/20
f 18/18/18 21/21/21 20/20/20
f 24/24/24 23/23/23 22/22/22
f 25/25/25 24/24/24 22/22/22
f 26/26/26 25/25/25 22/22/22
f 27/27/27 26/26/26 22/22/22
f 24/24/24 25/25/25 28/28/28
f 25/25/25 26/26/26 28/28/28
f 29/29/29 24/24/24 28/28/28
f 30/30/30 29/29/29 28/28/28
f 31/31/31 30/30/30 28/28/28
f 26/26/26 31/31/31 28/28/28
f 32/32/32 30/30/30 31/31/31
f 26/26/26 27/27/27 33/33/33
f 27/27/27 34/34/34 33/33/33
f 34/34/34 35/35/35 33/33/33
f 36/36/36 31/31/31 26/26/26
f 36/36/36 32/32/32 31/31/31
f 33/33/33 36/36/36 26/26/26
f 35/35/35 37/37/37 33/33/33
f 33/33/33 37/37/37 36/36/36
f 36/36/36 38/38/38 32/32/32
f 37/37/37 38/38/38 36/36/36
f 38/38/38 39/39/39 32/32/32
f 37/37/37 35/35/35 40/40/40
f 38/38/38 37/37/37 40/40/40
f 35/35/35 41/41/41 40/40/40
f 41/41/41 42/42/42 40/40/40
f 39/39/39 38/38/38 43/43/43
f 39/39/39 43/43/43 44/44/44
f 44/44/44 43/43/43 42/42/42
f 45/45/45 38/38/38 40/40/40
f 42/42/42 45/45/45 40/40/40
f 38/38/38 45/45/45 43/43/43
f 43/43/43 45/45/45 42/42/42
f 48/48/48 47/47/47 46/46/46
f 49/49/49 48/48/48 46/46/46
f 48/48/48 49/49/49 50/50/50
f 51/51/51 48/48/48 50/50/50
f 52/52/52 51/51/51 50/50/50
f 53/53/53 52/52/52 50/50/50
f 52/52/52 53/53/53 54/54/54
f 53/53/53 55/55/55 54/54/54
f 58/58/58 57/57/57 56/56/56
f 59/59/59 58/58/58 56/56/56
f 62/62/62 61/61/61 60/60/60
f 63/63/63 62/62/62 60/60/60
f 66/66/66 65/65/65 64/64/64
f 67/67/67 66/66/66 64/64/64
f 68/68/68 66/66/66 67/67/67
f 69/69/69 68/68/68 67/67/67
f 67/67/67 64/64/64 70/70/70
f 64/64/64 71/71/71 70/70/70
f 69/69/69 67/67/67 72/72/72
f 73/73/73 69/69/69 72/72/72
f 74/74/74 73/73/73 72/72/72
f 75/75/75 74/74/74 72/72/72
f 67/67/67 76/76/76 72/72/72
f 76/76/76 75/75/75 72/72/72
f 76/76/76 67/67/67 70/70/70
f 75/75/75 76/76/76 70/70/70
f 77/77/77 75/75/75 70/70/70
f 71/71/71 77/77/77 70/70/70
f 77/77/77 71/71/71 78/78/78
f 79/79/79 77/77/77 78/78/78
f 82/82/82 81/81/81 80/80/80
f 81/81/81 83/83/83 80/80/80
f 80/80/80 83/83/83 84/84/84
f 83/83/83 81/81/81 85/85/85
f 83/83/83 86/86/86 84/84/84
f 87/87/87 84/84/84 86/86/86
f 88/88/88 87/87/87 86/86/86
f 89/89/89 83/83/83 85/85/85
f 85/85/85 90/90/90 89/89/89
f 86/86/86 83/83/83 91/91/91
f 88/88/88 86/86/86 91/91/91
f 83/83/83 89/89/89 91/91/91
f 90/90/90 92/92/92 89/89/89
f 90/90/90 93/93/93 92/92/92
f 93/93/93 94/94/94 92/92/92
f 95/95/95 91/91/91 89/89/89
f 92/92/92 95/95/95 89/89/89
f 92/92/92 94/94/94 95/95/95
f 95/95/95 88/88/88 91/91/91
f 94/94/94 96/96/96 95/95/95
f 95/95/95 96/96/96 88/88/88
f 96/96/96 97/97/97 88/88/88
