g VinylEnd3
v -5.7719707 29.003368 -8.914316
v -5.7743206 29.11678 -8.8961
v -5.7972374 29.130882 -8.78269
v -5.8066397 28.998081 -8.783278
v -5.269559 26.494247 -8.92078
v -5.8054647 28.991615 8.775863
v -5.79665 29.127941 8.778214
v -5.3036404 26.487198 -8.79268
v -5.770795 28.998669 8.910428
v -5.773733 29.113838 8.893386
v -5.3048153 26.493073 8.782914
v -5.2701464 26.49836 8.913953
v -5.244879 26.369087 8.782914
v -5.228426 26.389652 8.896325
v -5.2442913 26.365559 -8.790917
v -5.2278376 26.387302 -8.902564
v -5.6814775 29.130882 -8.990706
v -5.7743206 29.11678 -8.8961
v -5.7719707 29.003368 -8.914316
v -5.676777 29.017471 -9.0100975
v -5.572768 29.16555 -9.0100975
v -5.1749525 26.511288 -9.014799
v -5.269559 26.494247 -8.92078
v -5.2278376 26.387302 -8.902564
v -5.546913 29.036861 -9.045355
v -4.4633493 29.331844 -9.0100975
v -5.1349945 26.403168 -8.99482
v -5.117366 26.310913 -8.901389
v -5.00043 26.309738 -8.917842
v -5.0450897 26.532444 -9.048881
v -5.0192347 26.403755 -9.013623
v -4.0678835 26.67876 -9.048881
v -4.04908 26.548897 -9.013623
v -4.034977 26.454288 -8.917842
v -3.9309692 26.52069 -8.872596
v -4.445133 29.20198 -9.045355
v -3.9444847 26.613533 -8.967202
v -4.3246717 29.186703 -8.993057
v -4.344651 29.313042 -8.958976
v -4.232416 29.24194 -8.834989
v -4.2147875 29.126179 -8.8696575
v -3.96035 26.744572 -8.99717
v -3.8780842 26.876785 -8.872596
v -3.861043 26.761024 -8.838514
v -3.848116 26.67582 -8.744495
v -5.117366 26.310913 -8.901389
v -5.2278376 26.387302 -8.902564
v -5.2442913 26.365559 -8.790917
v -5.131469 26.288582 -8.788567
v -5.00043 26.309738 -8.917842
v -5.131469 26.28917 8.782914
v -5.244879 26.369087 8.782914
v -5.228426 26.389652 8.896325
v -5.117366 26.3115 8.896325
v -5.0010185 26.30915 8.913953
v -4.993967 26.275066 -8.786804
v -4.034977 26.454288 -8.917842
v -4.993967 26.275066 8.782914
v -4.029689 26.419033 -8.786804
v -4.029689 26.419033 8.782914
v -4.034977 26.453701 8.913953
v -3.9309692 26.520103 8.868707
v -3.9245052 26.489548 -8.739207
v -3.9309692 26.52069 -8.872596
v -3.848116 26.67582 -8.744495
v -3.8434143 26.645264 -8.615808
v -3.9245052 26.489548 8.735318
v -3.8434143 26.644676 8.611918
v -3.848116 26.67582 8.740607
v -4.344651 29.313042 8.9586115
v -4.232416 29.241352 8.834624
v -4.2147875 29.126179 8.869294
v -4.3246717 29.186703 8.992694
v -3.8780842 26.876198 8.869294
v -4.445133 29.201393 9.0449915
v -4.4633493 29.331257 9.009734
v -5.572768 29.16555 9.009734
v -3.96035 26.744572 8.993869
v -3.861043 26.760437 8.834624
v -4.0678835 26.67876 9.0449915
v -5.546913 29.036861 9.0449915
v -3.9438972 26.613533 8.963313
v -3.848116 26.67582 8.740607
v -3.9309692 26.520103 8.868707
v -4.034977 26.453701 8.913953
v -4.04908 26.548897 9.009734
v -5.0450897 26.532444 9.0449915
v -5.019822 26.403755 9.009734
v -5.0010185 26.30915 8.913953
v -5.117366 26.3115 8.896325
v -5.6761885 29.015121 9.009147
v -5.68089 29.129707 8.989755
v -5.773733 29.113838 8.893386
v -5.770795 28.998669 8.910428
v -5.2701464 26.49836 8.913953
v -5.1749525 26.51305 9.009734
v -5.135582 26.404343 8.990344
v -5.228426 26.389652 8.896325
v -4.344651 29.313042 -8.958976
v -4.232416 29.24194 -8.834989
v -4.2447567 29.326557 -8.740382
v -4.3581667 29.404709 -8.8631935
v -4.2494574 29.357113 -8.612282
v -4.478627 29.426453 -8.914316
v -4.4633493 29.331844 -9.0100975
v -5.572768 29.16555 -9.0100975
v -4.36228 29.437618 -8.731568
v -4.2494574 29.357113 8.611918
v -4.487442 29.460533 -8.78269
v -5.591572 29.259567 -8.914316
v -4.36228 29.437618 8.731204
v -4.2447567 29.326557 8.740607
v -4.487442 29.460533 8.782914
v -4.3581667 29.404709 8.863418
v -4.232416 29.241352 8.834624
v -4.344651 29.313042 8.9586115
v -4.4633493 29.331257 9.009734
v -4.478627 29.426453 8.913953
v -5.5986233 29.294239 -8.78269
v -5.699106 29.223724 -8.8961
v -5.6814775 29.130882 -8.990706
v -5.7743206 29.11678 -8.8961
v -5.7202597 29.240177 -8.78269
v -5.7972374 29.130882 -8.78269
v -5.79665 29.127941 8.778214
v -5.591572 29.259567 8.913953
v -5.572768 29.16555 9.009734
v -5.68089 29.129707 8.989755
v -5.5986233 29.294239 8.782914
v -5.7202597 29.239002 8.780564
v -5.699106 29.22255 8.89515
v -5.773733 29.113838 8.893386
vt 0.36506784 0.5189134
vt 0.36506784 0.52118695
vt 0.3673414 0.52118695
vt 0.3673414 0.5189134
vt 0.36506784 0.48026252
vt 0.6325923 0.5189134
vt 0.6325923 0.52118695
vt 0.3673414 0.48026252
vt 0.63486594 0.5189134
vt 0.63486594 0.52118695
vt 0.6325923 0.48026252
vt 0.63486594 0.48026252
vt 0.6325923 0.4787468
vt 0.63486594 0.4787468
vt 0.3673414 0.4787468
vt 0.36506784 0.4787468
vt 0.27033538 0.97590286
vt 0.2847347 0.97741854
vt 0.28321898 0.9652928
vt 0.27109322 0.96453494
vt 0.25896746 0.97590286
vt 0.27260894 0.7386927
vt 0.2847347 0.7386927
vt 0.28321898 0.72732484
vt 0.25896746 0.96377707
vt 0.15968783 0.9705978
vt 0.27109322 0.72884053
vt 0.2733668 0.7167148
vt 0.26124105 0.71444124
vt 0.2604832 0.7386927
vt 0.26124105 0.726567
vt 0.17408717 0.7341456
vt 0.17408717 0.7220198
vt 0.17408717 0.70989406
vt 0.15968783 0.7129255
vt 0.16044569 0.9584721
vt 0.16271926 0.7250512
vt 0.14983565 0.95468277
vt 0.14756207 0.96680856
vt 0.13316274 0.9584721
vt 0.13619417 0.94710416
vt 0.16271926 0.737177
vt 0.14756207 0.7470292
vt 0.14604636 0.73490345
vt 0.13998348 0.72353554
vt 0.7091362 0.6659382
vt 0.70079976 0.6651803
vt 0.70079976 0.67200106
vt 0.7083783 0.67200106
vt 0.7159569 0.66442245
vt 0.7083783 1.6572188
vt 0.70079976 1.6572188
vt 0.7015576 1.6640396
vt 0.7091362 1.6640396
vt 0.7159569 1.6647974
vt 0.7159569 0.67200106
vt 0.7712807 0.66442245
vt 0.7167148 1.6572188
vt 0.7712807 0.67200106
vt 0.77052283 1.6572188
vt 0.7712807 1.6647974
vt 0.7788593 1.6625239
vt 0.77810144 0.6750325
vt 0.7788593 0.6666961
vt 0.78946936 0.6742746
vt 0.7879536 0.68185323
vt 0.77810144 1.6549453
vt 0.7879536 1.6473666
vt 0.78946936 1.6549453
vt 0.42039162 1.1464213
vt 0.4340331 1.1380849
vt 0.43100163 1.1274748
vt 0.41811803 1.1350534
vt 0.41963375 0.9311891
vt 0.407508 1.1380849
vt 0.40826586 1.1502106
vt 0.31050193 1.1562735
vt 0.40447655 0.9220948
vt 0.42114946 0.9198212
vt 0.3938665 0.9190634
vt 0.3112598 1.1441478
vt 0.40371868 0.90996903
vt 0.42645448 0.90845335
vt 0.407508 0.8986012
vt 0.39310867 0.8955697
vt 0.39310867 0.9076955
vt 0.30898622 0.9236105
vt 0.30822837 0.91224265
vt 0.3074705 0.90011686
vt 0.29610258 0.9023904
vt 0.29913402 1.1449056
vt 0.2998919 1.1547577
vt 0.28776616 1.1555157
vt 0.2870083 1.1449056
vt 0.28549254 0.9243684
vt 0.29686046 0.9243684
vt 0.29837617 0.9145162
vt 0.2862504 0.91300046
vt 0.6106144 0.68185323
vt 0.60076225 0.6879161
vt 0.6037937 0.6954947
vt 0.612888 0.68943185
vt 0.60530937 0.7038312
vt 0.6197088 0.6871583
vt 0.6197088 0.6795797
vt 0.6826111 0.6795797
vt 0.612888 0.6977683
vt 0.60530937 1.6602503
vt 0.6204666 0.69473684
vt 0.6826111 0.6871583
vt 0.612888 1.6663132
vt 0.6037937 1.6678288
vt 0.6197088 1.6693445
vt 0.612888 1.6746496
vt 0.60076225 1.6761653
vt 0.6106144 1.6822282
vt 0.6197088 1.6845018
vt 0.6197088 1.6769232
vt 0.6826111 0.69473684
vt 0.688674 0.6879161
vt 0.6901897 0.68033755
vt 0.6962526 0.6871583
vt 0.6901897 0.69473684
vt 0.69701046 0.69473684
vt 0.69701046 1.6693445
vt 0.6826111 1.6769232
vt 0.6826111 1.6845018
vt 0.6901897 1.683744
vt 0.6826111 1.6693445
vt 0.68943185 1.6693445
vt 0.688674 1.6754074
vt 0.6962526 1.6769232
vn -0.85234034 -0.15968376 -0.4980131
vn -0.8679099 0.26069546 -0.42281234
vn -0.9439382 0.3301223 -0
vn -0.98315847 -0.182755 -0
vn -0.8445555 -0.17525339 -0.50597656
vn -0.98315847 -0.182755 -0
vn -0.9439382 0.3301223 -0
vn -0.9768971 -0.20639259 -0.055444553
vn -0.85234034 -0.15968376 0.4980131
vn -0.87569463 0.2529106 0.41133335
vn -0.9768971 -0.20639259 0.055444553
vn -0.8445555 -0.17525339 0.50597656
vn -0.7589227 -0.6501262 0.037043463
vn -0.7199987 -0.5567086 0.41433972
vn -0.7589227 -0.6501262 -0.037043463
vn -0.7122139 -0.5644934 -0.41725126
vn -0.47866988 0.33854342 -0.8101009
vn -0.8679099 0.26069546 -0.42281234
vn -0.85234034 -0.15968376 -0.4980131
vn -0.49423945 -0.08962059 -0.8646939
vn -0.09721458 0.49423945 -0.86387306
vn -0.47866988 -0.10519016 -0.8716709
vn -0.8445555 -0.17525339 -0.50597656
vn -0.7122139 -0.5644934 -0.41725126
vn -0.03493619 0.0115817785 -0.9993225
vn -0.027151465 0.5020243 -0.86442727
vn -0.3307587 -0.4866454 -0.80856353
vn -0.2684803 -0.86810064 -0.41751593
vn 0.10519016 -0.8603158 -0.4987903
vn -0.027151465 -0.011772573 -0.999562
vn 0.05069655 -0.49443018 -0.86773765
vn 0.035126984 -0.003987789 -0.9993749
vn 0.12854457 -0.4866454 -0.86409056
vn 0.18303818 -0.84474623 -0.50289243
vn 0.813607 -0.47886062 -0.32975173
vn 0.035126984 0.019366622 -0.9991952
vn 0.7668982 -0.24531657 -0.593032
vn 0.580063 0.09721458 -0.8087498
vn 0.61898696 0.47088504 -0.6285876
vn 0.78246784 0.40860665 -0.4698773
vn 0.7668982 0.12056899 -0.63034135
vn 0.5644934 0.07386029 -0.82212645
vn 0.774683 0.11278427 -0.6222105
vn 0.891455 -0.120759785 -0.43672085
vn 0.9225942 -0.30759495 -0.23282038
vn -0.2684803 -0.86810064 -0.41751593
vn -0.7122139 -0.5644934 -0.41725126
vn -0.7589227 -0.6501262 -0.037043463
vn -0.34631187 -0.9381194 -0
vn 0.10519016 -0.8603158 -0.4987903
vn -0.34631187 -0.9381194 -0
vn -0.7589227 -0.6501262 0.037043463
vn -0.7199987 -0.5567086 0.41433972
vn -0.27626503 -0.86810064 0.4124062
vn 0.10519016 -0.8603158 0.4987903
vn 0.120759785 -0.9926574 -0.006948364
vn 0.18303818 -0.84474623 -0.50289243
vn 0.120759785 -0.9926574 -0.006948364
vn 0.1827208 -0.9831649 -0
vn 0.1827208 -0.9831649 -0
vn 0.18303818 -0.84474623 0.50289243
vn 0.813607 -0.47886062 0.32975173
vn 0.7109807 -0.7032114 -0
vn 0.813607 -0.47886062 -0.32975173
vn 0.9225942 -0.30759495 -0.23282038
vn 0.8836702 -0.463291 -0.06699547
vn 0.7109807 -0.7032114 -0
vn 0.8836702 -0.463291 0.06699547
vn 0.9225942 -0.30759495 0.23282038
vn 0.61898696 0.47088504 0.6285876
vn 0.78246784 0.40860665 0.4698773
vn 0.7668982 0.12056899 0.63034135
vn 0.580063 0.09721458 0.8087498
vn 0.774683 0.11278427 0.6222105
vn 0.035126984 0.019366622 0.9991952
vn -0.027151465 0.5020243 0.86442727
vn -0.09721458 0.49423945 0.86387306
vn 0.5644934 0.07386029 0.82212645
vn 0.891455 -0.120759785 0.43672085
vn 0.035126984 -0.003987789 0.9993749
vn -0.03493619 0.0115817785 0.9993225
vn 0.7668982 -0.24531657 0.593032
vn 0.9225942 -0.30759495 0.23282038
vn 0.813607 -0.47886062 0.32975173
vn 0.18303818 -0.84474623 0.50289243
vn 0.12854457 -0.4866454 0.86409056
vn -0.027151465 -0.019557357 0.99944
vn 0.05069655 -0.49443018 0.86773765
vn 0.10519016 -0.8603158 0.4987903
vn -0.27626503 -0.86810064 0.4124062
vn -0.5020243 -0.08962059 0.86019754
vn -0.4864546 0.3307587 0.8086783
vn -0.87569463 0.2529106 0.41133335
vn -0.85234034 -0.15968376 0.4980131
vn -0.8445555 -0.17525339 0.50597656
vn -0.4864546 -0.10519016 0.8673506
vn -0.33854342 -0.4866454 0.8053351
vn -0.7199987 -0.5567086 0.41433972
vn 0.61898696 0.47088504 -0.6285876
vn 0.78246784 0.40860665 -0.4698773
vn 0.72018945 0.64215064 -0.26262087
vn 0.5567086 0.7433531 -0.37081224
vn 0.580063 0.81341624 -0.043369163
vn -0.08164501 0.86012506 -0.5035067
vn -0.027151465 0.5020243 -0.86442727
vn -0.09721458 0.49423945 -0.86387306
vn 0.3153798 0.94575787 -0.07795927
vn 0.580063 0.81341624 0.043369163
vn -0.12056899 0.9924667 -0.02174908
vn -0.15170825 0.85234034 -0.5005003
vn 0.3153798 0.94575787 0.07795927
vn 0.72018945 0.64215064 0.26262087
vn -0.12056899 0.9924667 0.02174908
vn 0.5567086 0.7433531 0.37081224
vn 0.78246784 0.40860665 0.4698773
vn 0.61898696 0.47088504 0.6285876
vn -0.027151465 0.5020243 0.86442727
vn -0.08164501 0.86012506 0.5035067
vn -0.17504118 0.9845611 -0
vn -0.5409483 0.72778344 -0.42155212
vn -0.47866988 0.33854342 -0.8101009
vn -0.8679099 0.26069546 -0.42281234
vn -0.64208716 0.76663166 -0
vn -0.9439382 0.3301223 -0
vn -0.9439382 0.3301223 -0
vn -0.15170825 0.85234034 0.5005003
vn -0.09721458 0.49423945 0.86387306
vn -0.4864546 0.3307587 0.8086783
vn -0.17504118 0.9845611 -0
vn -0.6343659 0.7667074 0.0986896
vn -0.5487331 0.7199987 0.42484567
vn -0.87569463 0.2529106 0.41133335
g VinylEnd3_0
f 3/3/3 2/2/2 1/1/1
f 4/4/4 3/3/3 1/1/1
f 1/1/1 5/5/5 4/4/4
f 4/4/4 6/6/6 3/3/3
f 6/6/6 7/7/7 3/3/3
f 5/5/5 8/8/8 4/4/4
f 4/4/4 8/8/8 6/6/6
f 6/6/6 9/9/9 7/7/7
f 9/9/9 10/10/10 7/7/7
f 6/6/6 11/11/11 9/9/9
f 8/8/8 11/11/11 6/6/6
f 11/11/11 12/12/12 9/9/9
f 11/11/11 13/13/13 12/12/12
f 11/11/11 8/8/8 13/13/13
f 13/13/13 14/14/14 12/12/12
f 8/8/8 15/15/15 13/13/13
f 8/8/8 5/5/5 15/15/15
f 5/5/5 16/16/16 15/15/15
g VinylEnd3_1
f 19/19/19 18/18/18 17/17/17
f 20/20/20 19/19/19 17/17/17
f 20/20/20 17/17/17 21/21/21
f 20/20/20 22/22/22 19/19/19
f 22/22/22 23/23/23 19/19/19
f 23/23/23 22/22/22 24/24/24
f 25/25/25 20/20/20 21/21/21
f 25/25/25 21/21/21 26/26/26
f 22/22/22 27/27/27 24/24/24
f 28/28/28 24/24/24 27/27/27
f 29/29/29 28/28/28 27/27/27
f 30/30/30 22/22/22 20/20/20
f 25/25/25 30/30/30 20/20/20
f 31/31/31 27/27/27 22/22/22
f 31/31/31 29/29/29 27/27/27
f 30/30/30 31/31/31 22/22/22
f 32/32/32 30/30/30 25/25/25
f 30/30/30 32/32/32 31/31/31
f 31/31/31 33/33/33 29/29/29
f 32/32/32 33/33/33 31/31/31
f 33/33/33 34/34/34 29/29/29
f 35/35/35 34/34/34 33/33/33
f 36/36/36 25/25/25 26/26/26
f 36/36/36 32/32/32 25/25/25
f 37/37/37 33/33/33 32/32/32
f 37/37/37 35/35/35 33/33/33
f 38/38/38 36/36/36 26/26/26
f 39/39/39 38/38/38 26/26/26
f 39/39/39 40/40/40 38/38/38
f 40/40/40 41/41/41 38/38/38
f 42/42/42 32/32/32 36/36/36
f 38/38/38 42/42/42 36/36/36
f 38/38/38 41/41/41 42/42/42
f 42/42/42 37/37/37 32/32/32
f 41/41/41 43/43/43 42/42/42
f 42/42/42 43/43/43 37/37/37
f 43/43/43 44/44/44 37/37/37
f 37/37/37 44/44/44 35/35/35
f 44/44/44 45/45/45 35/35/35
f 48/48/48 47/47/47 46/46/46
f 49/49/49 48/48/48 46/46/46
f 49/49/49 46/46/46 50/50/50
f 48/48/48 49/49/49 51/51/51
f 52/52/52 48/48/48 51/51/51
f 52/52/52 51/51/51 53/53/53
f 51/51/51 54/54/54 53/53/53
f 55/55/55 54/54/54 51/51/51
f 56/56/56 49/49/49 50/50/50
f 50/50/50 57/57/57 56/56/56
f 51/51/51 49/49/49 58/58/58
f 58/58/58 55/55/55 51/51/51
f 49/49/49 56/56/56 58/58/58
f 57/57/57 59/59/59 56/56/56
f 58/58/58 56/56/56 59/59/59
f 58/58/58 60/60/60 55/55/55
f 60/60/60 58/58/58 59/59/59
f 60/60/60 61/61/61 55/55/55
f 62/62/62 61/61/61 60/60/60
f 63/63/63 59/59/59 57/57/57
f 64/64/64 63/63/63 57/57/57
f 64/64/64 65/65/65 63/63/63
f 65/65/65 66/66/66 63/63/63
f 60/60/60 59/59/59 67/67/67
f 59/59/59 63/63/63 67/67/67
f 63/63/63 66/66/66 67/67/67
f 67/67/67 62/62/62 60/60/60
f 66/66/66 68/68/68 67/67/67
f 67/67/67 68/68/68 62/62/62
f 68/68/68 69/69/69 62/62/62
f 72/72/72 71/71/71 70/70/70
f 73/73/73 72/72/72 70/70/70
f 74/74/74 72/72/72 73/73/73
f 73/73/73 70/70/70 75/75/75
f 70/70/70 76/76/76 75/75/75
f 75/75/75 76/76/76 77/77/77
f 78/78/78 74/74/74 73/73/73
f 79/79/79 74/74/74 78/78/78
f 75/75/75 80/80/80 73/73/73
f 80/80/80 78/78/78 73/73/73
f 81/81/81 75/75/75 77/77/77
f 80/80/80 75/75/75 81/81/81
f 82/82/82 79/79/79 78/78/78
f 83/83/83 79/79/79 82/82/82
f 84/84/84 83/83/83 82/82/82
f 84/84/84 82/82/82 85/85/85
f 82/82/82 78/78/78 86/86/86
f 78/78/78 80/80/80 86/86/86
f 82/82/82 86/86/86 85/85/85
f 86/86/86 80/80/80 87/87/87
f 87/87/87 80/80/80 81/81/81
f 85/85/85 86/86/86 88/88/88
f 88/88/88 86/86/86 87/87/87
f 89/89/89 85/85/85 88/88/88
f 89/89/89 88/88/88 90/90/90
f 81/81/81 77/77/77 91/91/91
f 77/77/77 92/92/92 91/91/91
f 91/91/91 92/92/92 93/93/93
f 94/94/94 91/91/91 93/93/93
f 94/94/94 95/95/95 91/91/91
f 96/96/96 87/87/87 81/81/81
f 91/91/91 96/96/96 81/81/81
f 87/87/87 96/96/96 88/88/88
f 95/95/95 96/96/96 91/91/91
f 88/88/88 97/97/97 90/90/90
f 96/96/96 97/97/97 88/88/88
f 96/96/96 95/95/95 97/97/97
f 97/97/97 98/98/98 90/90/90
f 95/95/95 98/98/98 97/97/97
f 101/101/101 100/100/100 99/99/99
f 102/102/102 101/101/101 99/99/99
f 103/103/103 101/101/101 102/102/102
f 102/102/102 99/99/99 104/104/104
f 99/99/99 105/105/105 104/104/104
f 105/105/105 106/106/106 104/104/104
f 107/107/107 103/103/103 102/102/102
f 108/108/108 103/103/103 107/107/107
f 104/104/104 109/109/109 102/102/102
f 109/109/109 107/107/107 102/102/102
f 106/106/106 110/110/110 104/104/104
f 104/104/104 110/110/110 109/109/109
f 111/111/111 108/108/108 107/107/107
f 112/112/112 108/108/108 111/111/111
f 107/107/107 109/109/109 113/113/113
f 111/111/111 107/107/107 113/113/113
f 114/114/114 112/112/112 111/111/111
f 115/115/115 112/112/112 114/114/114
f 116/116/116 115/115/115 114/114/114
f 116/116/116 114/114/114 117/117/117
f 114/114/114 111/111/111 118/118/118
f 114/114/114 118/118/118 117/117/117
f 111/111/111 113/113/113 118/118/118
f 109/109/109 119/119/119 113/113/113
f 110/110/110 119/119/119 109/109/109
f 110/110/110 106/106/106 120/120/120
f 106/106/106 121/121/121 120/120/120
f 121/121/121 122/122/122 120/120/120
f 110/110/110 120/120/120 123/123/123
f 123/123/123 120/120/120 122/122/122
f 119/119/119 110/110/110 123/123/123
f 124/124/124 123/123/123 122/122/122
f 124/124/124 125/125/125 123/123/123
f 117/117/117 118/118/118 126/126/126
f 127/127/127 117/117/117 126/126/126
f 127/127/127 126/126/126 128/128/128
f 118/118/118 113/113/113 129/129/129
f 119/119/119 129/129/129 113/113/113
f 126/126/126 118/118/118 129/129/129
f 123/123/123 130/130/130 119/119/119
f 130/130/130 129/129/129 119/119/119
f 125/125/125 130/130/130 123/123/123
f 129/129/129 130/130/130 126/126/126
f 126/126/126 131/131/131 128/128/128
f 130/130/130 131/131/131 126/126/126
f 130/130/130 125/125/125 131/131/131
f 131/131/131 132/132/132 128/128/128
f 125/125/125 132/132/132 131/131/131
